<?xml version="1.0" encoding="UTF-8" standalone="no"?>
<svg
   xmlns:dc="http://purl.org/dc/elements/1.1/"
   xmlns:cc="http://creativecommons.org/ns#"
   xmlns:rdf="http://www.w3.org/1999/02/22-rdf-syntax-ns#"
   xmlns:svg="http://www.w3.org/2000/svg"
   xmlns="http://www.w3.org/2000/svg"
   xmlns:sodipodi="http://sodipodi.sourceforge.net/DTD/sodipodi-0.dtd"
   xmlns:inkscape="http://www.inkscape.org/namespaces/inkscape"
   width="210mm"
   height="297mm"
   viewBox="0 0 210 297"
   version="1.1"
   id="svg965"
   inkscape:version="1.0.1 (0767f8302a, 2020-10-17)"
   sodipodi:docname="sticker_basic.svg">
  <defs
     id="defs959" />
  <sodipodi:namedview
     id="base"
     pagecolor="#ffffff"
     bordercolor="#666666"
     borderopacity="1.0"
     inkscape:pageopacity="0.0"
     inkscape:pageshadow="2"
     inkscape:zoom="2.8"
     inkscape:cx="204.36911"
     inkscape:cy="181.22185"
     inkscape:document-units="mm"
     inkscape:current-layer="layer1"
     inkscape:document-rotation="0"
     showgrid="false"
     inkscape:window-width="1870"
     inkscape:window-height="1016"
     inkscape:window-x="50"
     inkscape:window-y="27"
     inkscape:window-maximized="1" />
  <metadata
     id="metadata962">
    <rdf:RDF>
      <cc:Work
         rdf:about="">
        <dc:format>image/svg+xml</dc:format>
        <dc:type
           rdf:resource="http://purl.org/dc/dcmitype/StillImage" />
        <dc:title></dc:title>
      </cc:Work>
    </rdf:RDF>
  </metadata>
  <g
     inkscape:label="Vrstva 1"
     inkscape:groupmode="layer"
     id="layer1">
    <rect
       style="fill:#404040;fill-opacity:1;stroke:#808080;stroke-width:0.15;stroke-miterlimit:4;stroke-dasharray:none"
       id="rect1528"
       width="51.849998"
       height="51.849998"
       x="18.703465"
       y="14.499643"
       ry="2"
       rx="2" />
    <g
       id="g1609"
       transform="matrix(1.117535,0,0,1.117535,-9.9818423,-3.8604619)"
       style="stroke-width:0.894827">
      <g
         id="g12"
         transform="matrix(0.00914376,0,0,-0.00914376,32.302047,45.399761)"
         style="stroke-width:3.45235">
        <path
           d="M 311.844,989.344 H 204.266 v 67.376 H 488.973 V 989.344 H 381.391 V 676.391 h -69.547 v 312.953"
           style="fill:#ffffff;fill-opacity:1;fill-rule:nonzero;stroke:none;stroke-width:3.45235"
           id="path14"
           inkscape:connector-curvature="0" />
        <path
           d="m 527.977,1056.72 h 69.539 V 906.219 h 173.855 v 150.501 h 69.555 V 676.391 H 771.371 V 841.016 H 597.516 V 676.391 h -69.539 v 380.329"
           style="fill:#ffffff;fill-opacity:1;fill-rule:nonzero;stroke:none;stroke-width:3.45235"
           id="path16"
           inkscape:connector-curvature="0" />
        <path
           d="m 952.953,714.148 c -26.441,30.247 -39.656,71.993 -39.656,125.235 V 1056.72 H 982.84 V 857.313 c 0,-26.446 2.351,-48.446 7.058,-66.004 4.707,-17.579 13.492,-31.243 26.362,-41.028 12.85,-9.773 31.05,-14.668 54.61,-14.668 23.52,0 41.73,4.895 54.58,14.668 12.86,9.785 21.66,23.449 26.36,41.028 4.71,17.558 7.06,39.558 7.06,66.004 v 199.407 h 69.54 V 839.383 c 0,-53.242 -13.22,-94.988 -39.64,-125.235 -26.46,-30.238 -65.76,-45.359 -117.9,-45.359 -52.17,0 -91.479,15.121 -117.917,45.359"
           style="fill:#ffffff;fill-opacity:1;fill-rule:nonzero;stroke:none;stroke-width:3.45235"
           id="path18"
           inkscape:connector-curvature="0" />
        <path
           d="m 1300.79,1056.72 h 68.45 L 1531.7,811.133 v 245.587 h 69.54 V 676.391 h -57.05 L 1370.33,937.176 V 676.391 h -69.54 v 380.329"
           style="fill:#ffffff;fill-opacity:1;fill-rule:nonzero;stroke:none;stroke-width:3.45235"
           id="path20"
           inkscape:connector-curvature="0" />
        <path
           d="m 1819.42,738.328 c 36.22,0 63.84,11.309 82.86,33.965 19.01,22.629 28.53,54.062 28.53,94.258 0,40.207 -9.52,71.633 -28.53,94.269 -19.02,22.625 -46.64,33.953 -82.86,33.953 h -72.8 V 738.328 Z m -142.34,318.392 h 142.34 c 36.22,0 68.54,-7.61 96.99,-22.83 28.43,-15.21 50.61,-37.132 66.55,-65.738 15.94,-28.621 23.91,-62.48 23.91,-101.601 0,-39.11 -7.97,-72.988 -23.91,-101.602 -15.94,-28.621 -38.12,-50.527 -66.55,-65.738 -28.45,-15.223 -60.77,-22.82 -96.99,-22.82 h -142.34 v 380.329"
           style="fill:#ffffff;fill-opacity:1;fill-rule:nonzero;stroke:none;stroke-width:3.45235"
           id="path22"
           inkscape:connector-curvature="0" />
        <path
           d="m 2061.58,1056.72 h 243.4 v -67.376 h -172.23 v -80.957 h 133.66 v -67.371 h -133.66 v -97.258 h 177.68 v -67.367 h -248.85 v 380.329"
           style="fill:#ffffff;fill-opacity:1;fill-rule:nonzero;stroke:none;stroke-width:3.45235"
           id="path24"
           inkscape:connector-curvature="0" />
        <path
           d="m 2486.01,875.789 c 51.08,0 76.61,20.656 76.61,61.934 0,19.922 -5.8,35.05 -17.38,45.371 -11.59,10.324 -30.43,15.488 -56.51,15.488 h -53.78 V 875.789 Z M 2365.4,1056.72 h 139.09 c 40.55,0 72.54,-9.7 95.9,-29.08 23.37,-19.37 35.05,-48.081 35.05,-86.109 0,-26.445 -5.63,-48.086 -16.85,-64.929 -11.24,-16.836 -27.17,-30.332 -47.81,-40.469 l 85.85,-159.742 h -77.71 l -73.35,141.265 h -2.71 -67.91 V 676.391 h -69.55 v 380.329"
           style="fill:#ffffff;fill-opacity:1;fill-rule:nonzero;stroke:none;stroke-width:3.45235"
           id="path26"
           inkscape:connector-curvature="0" />
        <path
           d="m 2748.99,1056.72 h 225.47 l -11.95,-67.376 h -155.4 l -14.66,-80.957 h 120.62 l -11.96,-67.371 H 2780.49 L 2751.7,676.391 h -69.55 l 66.84,380.329"
           style="fill:#ffffff;fill-opacity:1;fill-rule:nonzero;stroke:none;stroke-width:3.45235"
           id="path28"
           inkscape:connector-curvature="0" />
        <path
           d="m 3020.79,1056.72 h 69.54 l -54.89,-312.962 h 131.26 l -11.95,-67.367 h -200.8 l 66.84,380.329"
           style="fill:#ffffff;fill-opacity:1;fill-rule:nonzero;stroke:none;stroke-width:3.45235"
           id="path30"
           inkscape:connector-curvature="0" />
        <path
           d="m 3259.63,844.813 -89.11,211.907 h 73.9 l 61.93,-152.13 113.02,152.13 h 73.89 l -164.08,-211.907 -29.9,-168.422 h -68.99 l 29.34,168.422"
           style="fill:#ffffff;fill-opacity:1;fill-rule:nonzero;stroke:none;stroke-width:3.45235"
           id="path32"
           inkscape:connector-curvature="0" />
        <path
           d="m 2667.32,586.172 h 69.54 L 2670.03,205.84 h -69.54 l 66.83,380.332"
           style="fill:#fab20b;fill-opacity:1;fill-rule:nonzero;stroke:none;stroke-width:3.45235"
           id="path34"
           inkscape:connector-curvature="0" />
        <path
           d="m 2939.83,586.172 h 69.55 L 2942.54,205.84 H 2873 l 66.83,380.332"
           style="fill:#fab20b;fill-opacity:1;fill-rule:nonzero;stroke:none;stroke-width:3.45235"
           id="path36"
           inkscape:connector-curvature="0" />
        <path
           d="m 3214.91,586.172 h 69.55 L 3217.62,205.84 h -69.54 l 66.83,380.332"
           style="fill:#fab20b;fill-opacity:1;fill-rule:nonzero;stroke:none;stroke-width:3.45235"
           id="path38"
           inkscape:connector-curvature="0" />
        <path
           d="m 2831.31,1528.05 h 69.55 l -66.83,-380.33 h -69.54 l 66.82,380.33"
           style="fill:#fab20b;fill-opacity:1;fill-rule:nonzero;stroke:none;stroke-width:3.45235"
           id="path40"
           inkscape:connector-curvature="0" />
        <path
           d="m 3103.78,1528.05 h 69.54 l -66.83,-380.33 h -69.55 l 66.84,380.33"
           style="fill:#fab20b;fill-opacity:1;fill-rule:nonzero;stroke:none;stroke-width:3.45235"
           id="path42"
           inkscape:connector-curvature="0" />
        <path
           d="m 3379.19,1528.05 h 69.56 l -66.84,-380.33 h -69.54 l 66.82,380.33"
           style="fill:#fab20b;fill-opacity:1;fill-rule:nonzero;stroke:none;stroke-width:3.45235"
           id="path44"
           inkscape:connector-curvature="0" />
      </g>
      <text
         xml:space="preserve"
         style="font-style:normal;font-weight:normal;font-size:4.93889px;line-height:1.25;font-family:sans-serif;fill:#000000;fill-opacity:1;stroke:none;stroke-width:0.236756"
         x="34.095722"
         y="43.448463"
         id="text1588"><tspan
           sodipodi:role="line"
           id="tspan1586"
           x="34.095722"
           y="43.448463"
           style="font-style:normal;font-variant:normal;font-weight:bold;font-stretch:normal;font-size:4.93889px;font-family:Cabin;-inkscape-font-specification:'Cabin Bold';fill:#a6a6a6;fill-opacity:1;stroke-width:0.236756">TFGPS01</tspan></text>
      <rect
         style="fill:none;fill-opacity:1;stroke:none;stroke-width:0.236756;stroke-miterlimit:4;stroke-dasharray:none;stroke-opacity:1"
         id="rect3900"
         width="3.7773786"
         height="4.3097281"
         x="56.080303"
         y="43.517609" />
    </g>
    <text
       xml:space="preserve"
       style="font-size:2.82222px;line-height:1.25;font-family:sans-serif;stroke-width:0.264583"
       x="29.471733"
       y="64.120102"
       id="text1613"><tspan
         sodipodi:role="line"
         id="tspan1611"
         x="29.471733"
         y="64.120102"
         style="font-style:normal;font-variant:normal;font-weight:normal;font-stretch:normal;font-size:2.82222px;font-family:Cabin;-inkscape-font-specification:Cabin;fill:#a6a6a6;fill-opacity:1;stroke-width:0.264583">USB</tspan></text>
    <text
       xml:space="preserve"
       style="font-size:2.82222px;line-height:1.25;font-family:sans-serif;stroke-width:0.264583"
       x="44.739212"
       y="-21.722044"
       id="text1613-7"
       transform="rotate(90)"><tspan
         sodipodi:role="line"
         id="tspan1611-5"
         x="44.739212"
         y="-21.722044"
         style="font-style:normal;font-variant:normal;font-weight:normal;font-stretch:normal;font-size:2.82222px;font-family:Cabin;-inkscape-font-specification:Cabin;fill:#a6a6a6;fill-opacity:1;stroke-width:0.264583">Autopilot</tspan></text>
    <text
       xml:space="preserve"
       style="font-style:normal;font-weight:normal;font-size:2.11667px;line-height:1.25;font-family:sans-serif;fill:#000000;fill-opacity:1;stroke:none;stroke-width:0.264583"
       x="35.289818"
       y="17.022131"
       id="text936-6-6-3"><tspan
         sodipodi:role="line"
         x="35.289818"
         y="17.022131"
         style="font-style:normal;font-variant:normal;font-weight:normal;font-stretch:normal;font-size:2.11667px;font-family:Cabin;-inkscape-font-specification:Cabin;fill:#a6a6a6;fill-opacity:1;stroke-width:0.264583"
         id="tspan1817">Made with <tspan
   style="font-style:normal;font-variant:normal;font-weight:600;font-stretch:normal;font-size:2.11667px;font-family:Cabin;-inkscape-font-specification:'Cabin Semi-Bold';stroke-width:0.264583"
   id="tspan895-6">love </tspan>in the <tspan
   style="font-style:normal;font-variant:normal;font-weight:600;font-stretch:normal;font-size:2.11667px;font-family:Cabin;-inkscape-font-specification:'Cabin Semi-Bold';fill:#d5d5d5;fill-opacity:1;stroke-width:0.264583"
   id="tspan1346-2">Czech Republic</tspan></tspan></text>
    <text
       xml:space="preserve"
       style="font-size:2.82222px;line-height:1.25;font-family:sans-serif;stroke-width:0.264583"
       x="24.076458"
       y="-21.61186"
       id="text1613-7-9"
       transform="rotate(90)"><tspan
         sodipodi:role="line"
         id="tspan1611-5-1"
         x="24.076458"
         y="-21.61186"
         style="font-style:normal;font-variant:normal;font-weight:normal;font-stretch:normal;font-size:2.82222px;font-family:Cabin;-inkscape-font-specification:Cabin;fill:#a6a6a6;fill-opacity:1;stroke-width:0.264583">I2C pass</tspan></text>
    <text
       xml:space="preserve"
       style="font-size:2.82222px;line-height:1.25;font-family:sans-serif;stroke-width:0.264583"
       x="-57.611446"
       y="68.705399"
       id="text1613-7-2"
       transform="rotate(-90)"><tspan
         sodipodi:role="line"
         id="tspan1611-5-7"
         x="-57.611446"
         y="68.705399"
         style="font-style:normal;font-variant:normal;font-weight:normal;font-stretch:normal;font-size:2.82222px;font-family:Cabin;-inkscape-font-specification:Cabin;fill:#a6a6a6;fill-opacity:1;stroke-width:0.264583">Safety SW</tspan></text>
    <text
       xml:space="preserve"
       style="font-size:2.82222px;line-height:1.25;font-family:sans-serif;stroke-width:0.264583"
       x="-34.965412"
       y="68.891006"
       id="text1613-7-2-0"
       transform="rotate(-90)"><tspan
         sodipodi:role="line"
         id="tspan1611-5-7-9"
         x="-34.965412"
         y="68.891006"
         style="font-style:normal;font-variant:normal;font-weight:normal;font-stretch:normal;font-size:2.82222px;font-family:Cabin;-inkscape-font-specification:Cabin;fill:#a6a6a6;fill-opacity:1;stroke-width:0.264583">Payload</tspan></text>
    <circle
       style="fill:none;fill-opacity:1;stroke:#ffffff;stroke-width:0.264583;stroke-miterlimit:4;stroke-dasharray:none;stroke-opacity:1"
       id="path1713"
       cx="28.988371"
       cy="21.341373"
       r="1.3825496" />
    <circle
       style="fill:none;fill-opacity:1;stroke:#ffffff;stroke-width:0.264583;stroke-miterlimit:4;stroke-dasharray:none;stroke-opacity:1"
       id="path1713-3"
       cx="33.594051"
       cy="21.168089"
       r="1.3825498" />
    <circle
       style="fill:none;fill-opacity:1;stroke:#ffffff;stroke-width:0.264583;stroke-miterlimit:4;stroke-dasharray:none;stroke-opacity:1"
       id="path1713-6"
       cx="37.690647"
       cy="21.338171"
       r="1.3825498" />
    <circle
       style="fill:none;fill-opacity:1;stroke:#ffffff;stroke-width:0.264583;stroke-miterlimit:4;stroke-dasharray:none;stroke-opacity:1"
       id="path1713-0"
       cx="42.423656"
       cy="21.391787"
       r="1.3825498" />
    <circle
       style="fill:none;fill-opacity:1;stroke:#ffffff;stroke-width:0.264583;stroke-miterlimit:4;stroke-dasharray:none;stroke-opacity:1"
       id="path1713-62"
       cx="39.92601"
       cy="63.271992"
       r="1.3825498" />
    <text
       xml:space="preserve"
       style="font-size:2.11667px;line-height:1.25;font-family:sans-serif;stroke-width:0.264583"
       x="37.18491"
       y="60.335804"
       id="text1613-6"><tspan
         sodipodi:role="line"
         id="tspan1611-1"
         x="37.18491"
         y="60.335804"
         style="font-style:normal;font-variant:normal;font-weight:normal;font-stretch:normal;font-size:2.11667px;font-family:Cabin;-inkscape-font-specification:Cabin;fill:#a6a6a6;fill-opacity:1;stroke-width:0.264583">PWR</tspan></text>
    <text
       xml:space="preserve"
       style="font-size:2.11667px;line-height:1.25;font-family:sans-serif;stroke-width:0.264583"
       x="34.938343"
       y="-11.539206"
       id="text1613-8"
       transform="rotate(60)"><tspan
         sodipodi:role="line"
         id="tspan1611-7"
         x="34.938343"
         y="-11.539206"
         style="font-style:normal;font-variant:normal;font-weight:normal;font-stretch:normal;font-size:2.11667px;font-family:Cabin;-inkscape-font-specification:Cabin;fill:#a6a6a6;fill-opacity:1;stroke-width:0.264583">ARM</tspan></text>
    <text
       xml:space="preserve"
       style="font-size:2.11667px;line-height:1.25;font-family:sans-serif;stroke-width:0.264583"
       x="37.009411"
       y="-15.527842"
       id="text1613-8-9"
       transform="rotate(60)"
       inkscape:transform-center-x="-0.12368189"
       inkscape:transform-center-y="2.3452395"><tspan
         sodipodi:role="line"
         id="tspan1611-7-2"
         x="37.009411"
         y="-15.527842"
         style="font-style:normal;font-variant:normal;font-weight:normal;font-stretch:normal;font-size:2.11667px;font-family:Cabin;-inkscape-font-specification:Cabin;fill:#a6a6a6;fill-opacity:1;stroke-width:0.264583">FIX</tspan></text>
    <text
       xml:space="preserve"
       style="font-size:2.11667px;line-height:1.25;font-family:sans-serif;stroke-width:0.264583"
       x="41.424213"
       y="-23.174503"
       id="text1613-8-0"
       transform="rotate(60)"><tspan
         sodipodi:role="line"
         id="tspan1611-7-23"
         x="41.424213"
         y="-23.174503"
         style="font-style:normal;font-variant:normal;font-weight:normal;font-stretch:normal;font-size:2.11667px;font-family:Cabin;-inkscape-font-specification:Cabin;fill:#a6a6a6;fill-opacity:1;stroke-width:0.264583">RTK</tspan></text>
    <text
       xml:space="preserve"
       style="font-size:2.11667px;line-height:1.25;font-family:sans-serif;stroke-width:0.264583"
       x="39.226379"
       y="-19.097822"
       id="text1613-8-7"
       transform="rotate(60)"
       inkscape:transform-center-x="3.5858859"
       inkscape:transform-center-y="3.3393928"><tspan
         sodipodi:role="line"
         id="tspan1611-7-5"
         x="39.226379"
         y="-19.097822"
         style="font-style:normal;font-variant:normal;font-weight:normal;font-stretch:normal;font-size:2.11667px;font-family:Cabin;-inkscape-font-specification:Cabin;fill:#a6a6a6;fill-opacity:1;stroke-width:0.264583">GEO</tspan></text>
    <rect
       style="fill:none;fill-opacity:1;stroke:#ffffff;stroke-width:0.264583;stroke-miterlimit:4;stroke-dasharray:none;stroke-opacity:1"
       id="rect1808"
       width="13.216416"
       height="13.216416"
       x="49.385719"
       y="49.173264" />
  </g>
</svg>
