G04 #@! TF.GenerationSoftware,KiCad,Pcbnew,5.99.0-unknown-d90d73416~104~ubuntu18.04.1*
G04 #@! TF.CreationDate,2020-10-29T17:21:16+01:00*
G04 #@! TF.ProjectId,TFGPS01A,54464750-5330-4314-912e-6b696361645f,REV*
G04 #@! TF.SameCoordinates,Original*
G04 #@! TF.FileFunction,Legend,Top*
G04 #@! TF.FilePolarity,Positive*
%FSLAX46Y46*%
G04 Gerber Fmt 4.6, Leading zero omitted, Abs format (unit mm)*
G04 Created by KiCad (PCBNEW 5.99.0-unknown-d90d73416~104~ubuntu18.04.1) date 2020-10-29 17:21:16*
%MOMM*%
%LPD*%
G01*
G04 APERTURE LIST*
%ADD10C,0.300000*%
%ADD11C,0.150000*%
G04 APERTURE END LIST*
D10*
X45370857Y24213428D02*
X44870857Y24927714D01*
X44513714Y24213428D02*
X44513714Y25713428D01*
X45085142Y25713428D01*
X45228000Y25642000D01*
X45299428Y25570571D01*
X45370857Y25427714D01*
X45370857Y25213428D01*
X45299428Y25070571D01*
X45228000Y24999142D01*
X45085142Y24927714D01*
X44513714Y24927714D01*
X45799428Y25713428D02*
X46656571Y25713428D01*
X46228000Y24213428D02*
X46228000Y25713428D01*
X47156571Y24213428D02*
X47156571Y25713428D01*
X48013714Y24213428D02*
X47370857Y25070571D01*
X48013714Y25713428D02*
X47156571Y24856285D01*
X13965028Y5134800D02*
X14679314Y5134800D01*
X13822171Y4706228D02*
X14322171Y6206228D01*
X14822171Y4706228D01*
X15965028Y5706228D02*
X15965028Y4706228D01*
X15322171Y5706228D02*
X15322171Y4920514D01*
X15393600Y4777657D01*
X15536457Y4706228D01*
X15750742Y4706228D01*
X15893600Y4777657D01*
X15965028Y4849085D01*
X16465028Y5706228D02*
X17036457Y5706228D01*
X16679314Y6206228D02*
X16679314Y4920514D01*
X16750742Y4777657D01*
X16893600Y4706228D01*
X17036457Y4706228D01*
X17750742Y4706228D02*
X17607885Y4777657D01*
X17536457Y4849085D01*
X17465028Y4991942D01*
X17465028Y5420514D01*
X17536457Y5563371D01*
X17607885Y5634800D01*
X17750742Y5706228D01*
X17965028Y5706228D01*
X18107885Y5634800D01*
X18179314Y5563371D01*
X18250742Y5420514D01*
X18250742Y4991942D01*
X18179314Y4849085D01*
X18107885Y4777657D01*
X17965028Y4706228D01*
X17750742Y4706228D01*
X18893600Y5706228D02*
X18893600Y4206228D01*
X18893600Y5634800D02*
X19036457Y5706228D01*
X19322171Y5706228D01*
X19465028Y5634800D01*
X19536457Y5563371D01*
X19607885Y5420514D01*
X19607885Y4991942D01*
X19536457Y4849085D01*
X19465028Y4777657D01*
X19322171Y4706228D01*
X19036457Y4706228D01*
X18893600Y4777657D01*
X20250742Y4706228D02*
X20250742Y5706228D01*
X20250742Y6206228D02*
X20179314Y6134800D01*
X20250742Y6063371D01*
X20322171Y6134800D01*
X20250742Y6206228D01*
X20250742Y6063371D01*
X21179314Y4706228D02*
X21036457Y4777657D01*
X20965028Y4920514D01*
X20965028Y6206228D01*
X21965028Y4706228D02*
X21822171Y4777657D01*
X21750742Y4849085D01*
X21679314Y4991942D01*
X21679314Y5420514D01*
X21750742Y5563371D01*
X21822171Y5634800D01*
X21965028Y5706228D01*
X22179314Y5706228D01*
X22322171Y5634800D01*
X22393600Y5563371D01*
X22465028Y5420514D01*
X22465028Y4991942D01*
X22393600Y4849085D01*
X22322171Y4777657D01*
X22179314Y4706228D01*
X21965028Y4706228D01*
X22893600Y5706228D02*
X23465028Y5706228D01*
X23107885Y6206228D02*
X23107885Y4920514D01*
X23179314Y4777657D01*
X23322171Y4706228D01*
X23465028Y4706228D01*
X22003828Y46246171D02*
X22003828Y44746171D01*
X21432400Y44746171D01*
X21289542Y44817600D01*
X21218114Y44889028D01*
X21146685Y45031885D01*
X21146685Y45246171D01*
X21218114Y45389028D01*
X21289542Y45460457D01*
X21432400Y45531885D01*
X22003828Y45531885D01*
X19860971Y46246171D02*
X19860971Y45460457D01*
X19932400Y45317600D01*
X20075257Y45246171D01*
X20360971Y45246171D01*
X20503828Y45317600D01*
X19860971Y46174742D02*
X20003828Y46246171D01*
X20360971Y46246171D01*
X20503828Y46174742D01*
X20575257Y46031885D01*
X20575257Y45889028D01*
X20503828Y45746171D01*
X20360971Y45674742D01*
X20003828Y45674742D01*
X19860971Y45603314D01*
X19289542Y45246171D02*
X18932400Y46246171D01*
X18575257Y45246171D02*
X18932400Y46246171D01*
X19075257Y46603314D01*
X19146685Y46674742D01*
X19289542Y46746171D01*
X17789542Y46246171D02*
X17932400Y46174742D01*
X18003828Y46031885D01*
X18003828Y44746171D01*
X17003828Y46246171D02*
X17146685Y46174742D01*
X17218114Y46103314D01*
X17289542Y45960457D01*
X17289542Y45531885D01*
X17218114Y45389028D01*
X17146685Y45317600D01*
X17003828Y45246171D01*
X16789542Y45246171D01*
X16646685Y45317600D01*
X16575257Y45389028D01*
X16503828Y45531885D01*
X16503828Y45960457D01*
X16575257Y46103314D01*
X16646685Y46174742D01*
X16789542Y46246171D01*
X17003828Y46246171D01*
X15218114Y46246171D02*
X15218114Y45460457D01*
X15289542Y45317600D01*
X15432400Y45246171D01*
X15718114Y45246171D01*
X15860971Y45317600D01*
X15218114Y46174742D02*
X15360971Y46246171D01*
X15718114Y46246171D01*
X15860971Y46174742D01*
X15932400Y46031885D01*
X15932400Y45889028D01*
X15860971Y45746171D01*
X15718114Y45674742D01*
X15360971Y45674742D01*
X15218114Y45603314D01*
X13860971Y46246171D02*
X13860971Y44746171D01*
X13860971Y46174742D02*
X14003828Y46246171D01*
X14289542Y46246171D01*
X14432400Y46174742D01*
X14503828Y46103314D01*
X14575257Y45960457D01*
X14575257Y45531885D01*
X14503828Y45389028D01*
X14432400Y45317600D01*
X14289542Y45246171D01*
X14003828Y45246171D01*
X13860971Y45317600D01*
X49272000Y33595714D02*
X49272000Y34310000D01*
X49700571Y33452857D02*
X48200571Y33952857D01*
X49700571Y34452857D01*
X49700571Y35810000D02*
X48986285Y35310000D01*
X49700571Y34952857D02*
X48200571Y34952857D01*
X48200571Y35524285D01*
X48272000Y35667142D01*
X48343428Y35738571D01*
X48486285Y35810000D01*
X48700571Y35810000D01*
X48843428Y35738571D01*
X48914857Y35667142D01*
X48986285Y35524285D01*
X48986285Y34952857D01*
X49700571Y36452857D02*
X48200571Y36452857D01*
X49272000Y36952857D01*
X48200571Y37452857D01*
X49700571Y37452857D01*
X48272000Y29408571D02*
X48200571Y29265714D01*
X48200571Y29051428D01*
X48272000Y28837142D01*
X48414857Y28694285D01*
X48557714Y28622857D01*
X48843428Y28551428D01*
X49057714Y28551428D01*
X49343428Y28622857D01*
X49486285Y28694285D01*
X49629142Y28837142D01*
X49700571Y29051428D01*
X49700571Y29194285D01*
X49629142Y29408571D01*
X49557714Y29480000D01*
X49057714Y29480000D01*
X49057714Y29194285D01*
X48914857Y30122857D02*
X48914857Y30622857D01*
X49700571Y30837142D02*
X49700571Y30122857D01*
X48200571Y30122857D01*
X48200571Y30837142D01*
X48200571Y31765714D02*
X48200571Y32051428D01*
X48272000Y32194285D01*
X48414857Y32337142D01*
X48700571Y32408571D01*
X49200571Y32408571D01*
X49486285Y32337142D01*
X49629142Y32194285D01*
X49700571Y32051428D01*
X49700571Y31765714D01*
X49629142Y31622857D01*
X49486285Y31480000D01*
X49200571Y31408571D01*
X48700571Y31408571D01*
X48414857Y31480000D01*
X48272000Y31622857D01*
X48200571Y31765714D01*
X44326071Y10517857D02*
X44326071Y11375000D01*
X45826071Y10946428D02*
X44326071Y10946428D01*
X45040357Y12375000D02*
X45040357Y11875000D01*
X45826071Y11875000D02*
X44326071Y11875000D01*
X44326071Y12589285D01*
X44397500Y13946428D02*
X44326071Y13803571D01*
X44326071Y13589285D01*
X44397500Y13375000D01*
X44540357Y13232142D01*
X44683214Y13160714D01*
X44968928Y13089285D01*
X45183214Y13089285D01*
X45468928Y13160714D01*
X45611785Y13232142D01*
X45754642Y13375000D01*
X45826071Y13589285D01*
X45826071Y13732142D01*
X45754642Y13946428D01*
X45683214Y14017857D01*
X45183214Y14017857D01*
X45183214Y13732142D01*
X45826071Y14660714D02*
X44326071Y14660714D01*
X44326071Y15232142D01*
X44397500Y15375000D01*
X44468928Y15446428D01*
X44611785Y15517857D01*
X44826071Y15517857D01*
X44968928Y15446428D01*
X45040357Y15375000D01*
X45111785Y15232142D01*
X45111785Y14660714D01*
X45754642Y16089285D02*
X45826071Y16303571D01*
X45826071Y16660714D01*
X45754642Y16803571D01*
X45683214Y16875000D01*
X45540357Y16946428D01*
X45397500Y16946428D01*
X45254642Y16875000D01*
X45183214Y16803571D01*
X45111785Y16660714D01*
X45040357Y16375000D01*
X44968928Y16232142D01*
X44897500Y16160714D01*
X44754642Y16089285D01*
X44611785Y16089285D01*
X44468928Y16160714D01*
X44397500Y16232142D01*
X44326071Y16375000D01*
X44326071Y16732142D01*
X44397500Y16946428D01*
X44326071Y17875000D02*
X44326071Y18017857D01*
X44397500Y18160714D01*
X44468928Y18232142D01*
X44611785Y18303571D01*
X44897500Y18375000D01*
X45254642Y18375000D01*
X45540357Y18303571D01*
X45683214Y18232142D01*
X45754642Y18160714D01*
X45826071Y18017857D01*
X45826071Y17875000D01*
X45754642Y17732142D01*
X45683214Y17660714D01*
X45540357Y17589285D01*
X45254642Y17517857D01*
X44897500Y17517857D01*
X44611785Y17589285D01*
X44468928Y17660714D01*
X44397500Y17732142D01*
X44326071Y17875000D01*
X45826071Y19803571D02*
X45826071Y18946428D01*
X45826071Y19375000D02*
X44326071Y19375000D01*
X44540357Y19232142D01*
X44683214Y19089285D01*
X44754642Y18946428D01*
X45397500Y20375000D02*
X45397500Y21089285D01*
X45826071Y20232142D02*
X44326071Y20732142D01*
X45826071Y21232142D01*
X46741071Y9696428D02*
X47812500Y9696428D01*
X48026785Y9625000D01*
X48169642Y9482142D01*
X48241071Y9267857D01*
X48241071Y9125000D01*
X47812500Y10339285D02*
X47812500Y11053571D01*
X48241071Y10196428D02*
X46741071Y10696428D01*
X48241071Y11196428D01*
X48098214Y12553571D02*
X48169642Y12482142D01*
X48241071Y12267857D01*
X48241071Y12125000D01*
X48169642Y11910714D01*
X48026785Y11767857D01*
X47883928Y11696428D01*
X47598214Y11625000D01*
X47383928Y11625000D01*
X47098214Y11696428D01*
X46955357Y11767857D01*
X46812500Y11910714D01*
X46741071Y12125000D01*
X46741071Y12267857D01*
X46812500Y12482142D01*
X46883928Y12553571D01*
X48241071Y13196428D02*
X46741071Y13196428D01*
X47455357Y13196428D02*
X47455357Y14053571D01*
X48241071Y14053571D02*
X46741071Y14053571D01*
X46741071Y15053571D02*
X46741071Y15339285D01*
X46812500Y15482142D01*
X46955357Y15625000D01*
X47241071Y15696428D01*
X47741071Y15696428D01*
X48026785Y15625000D01*
X48169642Y15482142D01*
X48241071Y15339285D01*
X48241071Y15053571D01*
X48169642Y14910714D01*
X48026785Y14767857D01*
X47741071Y14696428D01*
X47241071Y14696428D01*
X46955357Y14767857D01*
X46812500Y14910714D01*
X46741071Y15053571D01*
X46883928Y17410714D02*
X46812500Y17482142D01*
X46741071Y17625000D01*
X46741071Y17982142D01*
X46812500Y18125000D01*
X46883928Y18196428D01*
X47026785Y18267857D01*
X47169642Y18267857D01*
X47383928Y18196428D01*
X48241071Y17339285D01*
X48241071Y18267857D01*
X46741071Y19196428D02*
X46741071Y19339285D01*
X46812500Y19482142D01*
X46883928Y19553571D01*
X47026785Y19625000D01*
X47312500Y19696428D01*
X47669642Y19696428D01*
X47955357Y19625000D01*
X48098214Y19553571D01*
X48169642Y19482142D01*
X48241071Y19339285D01*
X48241071Y19196428D01*
X48169642Y19053571D01*
X48098214Y18982142D01*
X47955357Y18910714D01*
X47669642Y18839285D01*
X47312500Y18839285D01*
X47026785Y18910714D01*
X46883928Y18982142D01*
X46812500Y19053571D01*
X46741071Y19196428D01*
X46883928Y20267857D02*
X46812500Y20339285D01*
X46741071Y20482142D01*
X46741071Y20839285D01*
X46812500Y20982142D01*
X46883928Y21053571D01*
X47026785Y21125000D01*
X47169642Y21125000D01*
X47383928Y21053571D01*
X48241071Y20196428D01*
X48241071Y21125000D01*
X46741071Y22053571D02*
X46741071Y22196428D01*
X46812500Y22339285D01*
X46883928Y22410714D01*
X47026785Y22482142D01*
X47312500Y22553571D01*
X47669642Y22553571D01*
X47955357Y22482142D01*
X48098214Y22410714D01*
X48169642Y22339285D01*
X48241071Y22196428D01*
X48241071Y22053571D01*
X48169642Y21910714D01*
X48098214Y21839285D01*
X47955357Y21767857D01*
X47669642Y21696428D01*
X47312500Y21696428D01*
X47026785Y21767857D01*
X46883928Y21839285D01*
X46812500Y21910714D01*
X46741071Y22053571D01*
X7171428Y29503571D02*
X7171428Y29217857D01*
X7100000Y29075000D01*
X6957142Y28932142D01*
X6671428Y28860714D01*
X6171428Y28860714D01*
X5885714Y28932142D01*
X5742857Y29075000D01*
X5671428Y29217857D01*
X5671428Y29503571D01*
X5742857Y29646428D01*
X5885714Y29789285D01*
X6171428Y29860714D01*
X6671428Y29860714D01*
X6957142Y29789285D01*
X7100000Y29646428D01*
X7171428Y29503571D01*
X5671428Y28217857D02*
X7171428Y28217857D01*
X5671428Y27360714D01*
X7171428Y27360714D01*
X32110171Y2290000D02*
X32824457Y2290000D01*
X31967314Y1861428D02*
X32467314Y3361428D01*
X32967314Y1861428D01*
X33467314Y3361428D02*
X33467314Y2147142D01*
X33538742Y2004285D01*
X33610171Y1932857D01*
X33753028Y1861428D01*
X34038742Y1861428D01*
X34181600Y1932857D01*
X34253028Y2004285D01*
X34324457Y2147142D01*
X34324457Y3361428D01*
X34895885Y3361428D02*
X35895885Y1861428D01*
X35895885Y3361428D02*
X34895885Y1861428D01*
X37610171Y1861428D02*
X37610171Y3361428D01*
X38253028Y3218571D02*
X38324457Y3290000D01*
X38467314Y3361428D01*
X38824457Y3361428D01*
X38967314Y3290000D01*
X39038742Y3218571D01*
X39110171Y3075714D01*
X39110171Y2932857D01*
X39038742Y2718571D01*
X38181600Y1861428D01*
X39110171Y1861428D01*
X40610171Y2004285D02*
X40538742Y1932857D01*
X40324457Y1861428D01*
X40181600Y1861428D01*
X39967314Y1932857D01*
X39824457Y2075714D01*
X39753028Y2218571D01*
X39681600Y2504285D01*
X39681600Y2718571D01*
X39753028Y3004285D01*
X39824457Y3147142D01*
X39967314Y3290000D01*
X40181600Y3361428D01*
X40324457Y3361428D01*
X40538742Y3290000D01*
X40610171Y3218571D01*
X44442285Y41715428D02*
X45299428Y41715428D01*
X44870857Y40215428D02*
X44870857Y41715428D01*
X45799428Y40215428D02*
X45799428Y41715428D01*
X46370857Y41715428D01*
X46513714Y41644000D01*
X46585142Y41572571D01*
X46656571Y41429714D01*
X46656571Y41215428D01*
X46585142Y41072571D01*
X46513714Y41001142D01*
X46370857Y40929714D01*
X45799428Y40929714D01*
X48013714Y40215428D02*
X47299428Y40215428D01*
X47299428Y41715428D01*
X39125600Y48867142D02*
X38911314Y48938571D01*
X38554171Y48938571D01*
X38411314Y48867142D01*
X38339885Y48795714D01*
X38268457Y48652857D01*
X38268457Y48510000D01*
X38339885Y48367142D01*
X38411314Y48295714D01*
X38554171Y48224285D01*
X38839885Y48152857D01*
X38982742Y48081428D01*
X39054171Y48010000D01*
X39125600Y47867142D01*
X39125600Y47724285D01*
X39054171Y47581428D01*
X38982742Y47510000D01*
X38839885Y47438571D01*
X38482742Y47438571D01*
X38268457Y47510000D01*
X37697028Y48510000D02*
X36982742Y48510000D01*
X37839885Y48938571D02*
X37339885Y47438571D01*
X36839885Y48938571D01*
X35839885Y48152857D02*
X36339885Y48152857D01*
X36339885Y48938571D02*
X36339885Y47438571D01*
X35625600Y47438571D01*
X35054171Y48152857D02*
X34554171Y48152857D01*
X34339885Y48938571D02*
X35054171Y48938571D01*
X35054171Y47438571D01*
X34339885Y47438571D01*
X33911314Y47438571D02*
X33054171Y47438571D01*
X33482742Y48938571D02*
X33482742Y47438571D01*
X32268457Y48224285D02*
X32268457Y48938571D01*
X32768457Y47438571D02*
X32268457Y48224285D01*
X31768457Y47438571D01*
X30197028Y48867142D02*
X29982742Y48938571D01*
X29625600Y48938571D01*
X29482742Y48867142D01*
X29411314Y48795714D01*
X29339885Y48652857D01*
X29339885Y48510000D01*
X29411314Y48367142D01*
X29482742Y48295714D01*
X29625600Y48224285D01*
X29911314Y48152857D01*
X30054171Y48081428D01*
X30125600Y48010000D01*
X30197028Y47867142D01*
X30197028Y47724285D01*
X30125600Y47581428D01*
X30054171Y47510000D01*
X29911314Y47438571D01*
X29554171Y47438571D01*
X29339885Y47510000D01*
X28839885Y47438571D02*
X28482742Y48938571D01*
X28197028Y47867142D01*
X27911314Y48938571D01*
X27554171Y47438571D01*
X12522142Y3290000D02*
X12379285Y3361428D01*
X12165000Y3361428D01*
X11950714Y3290000D01*
X11807857Y3147142D01*
X11736428Y3004285D01*
X11665000Y2718571D01*
X11665000Y2504285D01*
X11736428Y2218571D01*
X11807857Y2075714D01*
X11950714Y1932857D01*
X12165000Y1861428D01*
X12307857Y1861428D01*
X12522142Y1932857D01*
X12593571Y2004285D01*
X12593571Y2504285D01*
X12307857Y2504285D01*
X13236428Y1861428D02*
X13236428Y3361428D01*
X13807857Y3361428D01*
X13950714Y3290000D01*
X14022142Y3218571D01*
X14093571Y3075714D01*
X14093571Y2861428D01*
X14022142Y2718571D01*
X13950714Y2647142D01*
X13807857Y2575714D01*
X13236428Y2575714D01*
X14665000Y1932857D02*
X14879285Y1861428D01*
X15236428Y1861428D01*
X15379285Y1932857D01*
X15450714Y2004285D01*
X15522142Y2147142D01*
X15522142Y2290000D01*
X15450714Y2432857D01*
X15379285Y2504285D01*
X15236428Y2575714D01*
X14950714Y2647142D01*
X14807857Y2718571D01*
X14736428Y2790000D01*
X14665000Y2932857D01*
X14665000Y3075714D01*
X14736428Y3218571D01*
X14807857Y3290000D01*
X14950714Y3361428D01*
X15307857Y3361428D01*
X15522142Y3290000D01*
X17379285Y1861428D02*
X17307857Y1861428D01*
X17165000Y1932857D01*
X16950714Y2147142D01*
X16593571Y2575714D01*
X16450714Y2790000D01*
X16379285Y3004285D01*
X16379285Y3147142D01*
X16450714Y3290000D01*
X16593571Y3361428D01*
X16665000Y3361428D01*
X16807857Y3290000D01*
X16879285Y3147142D01*
X16879285Y3075714D01*
X16807857Y2932857D01*
X16736428Y2861428D01*
X16307857Y2575714D01*
X16236428Y2504285D01*
X16165000Y2361428D01*
X16165000Y2147142D01*
X16236428Y2004285D01*
X16307857Y1932857D01*
X16450714Y1861428D01*
X16665000Y1861428D01*
X16807857Y1932857D01*
X16879285Y2004285D01*
X17093571Y2290000D01*
X17165000Y2504285D01*
X17165000Y2647142D01*
X17950714Y1932857D02*
X18165000Y1861428D01*
X18522142Y1861428D01*
X18665000Y1932857D01*
X18736428Y2004285D01*
X18807857Y2147142D01*
X18807857Y2290000D01*
X18736428Y2432857D01*
X18665000Y2504285D01*
X18522142Y2575714D01*
X18236428Y2647142D01*
X18093571Y2718571D01*
X18022142Y2790000D01*
X17950714Y2932857D01*
X17950714Y3075714D01*
X18022142Y3218571D01*
X18093571Y3290000D01*
X18236428Y3361428D01*
X18593571Y3361428D01*
X18807857Y3290000D01*
X19379285Y2290000D02*
X20093571Y2290000D01*
X19236428Y1861428D02*
X19736428Y3361428D01*
X20236428Y1861428D01*
X21236428Y2647142D02*
X20736428Y2647142D01*
X20736428Y1861428D02*
X20736428Y3361428D01*
X21450714Y3361428D01*
X22022142Y2647142D02*
X22522142Y2647142D01*
X22736428Y1861428D02*
X22022142Y1861428D01*
X22022142Y3361428D01*
X22736428Y3361428D01*
X23165000Y3361428D02*
X24022142Y3361428D01*
X23593571Y1861428D02*
X23593571Y3361428D01*
X24807857Y2575714D02*
X24807857Y1861428D01*
X24307857Y3361428D02*
X24807857Y2575714D01*
X25307857Y3361428D01*
X24539542Y47510000D02*
X24682400Y47438571D01*
X24896685Y47438571D01*
X25110971Y47510000D01*
X25253828Y47652857D01*
X25325257Y47795714D01*
X25396685Y48081428D01*
X25396685Y48295714D01*
X25325257Y48581428D01*
X25253828Y48724285D01*
X25110971Y48867142D01*
X24896685Y48938571D01*
X24753828Y48938571D01*
X24539542Y48867142D01*
X24468114Y48795714D01*
X24468114Y48295714D01*
X24753828Y48295714D01*
X23825257Y48938571D02*
X23825257Y47438571D01*
X23253828Y47438571D01*
X23110971Y47510000D01*
X23039542Y47581428D01*
X22968114Y47724285D01*
X22968114Y47938571D01*
X23039542Y48081428D01*
X23110971Y48152857D01*
X23253828Y48224285D01*
X23825257Y48224285D01*
X22396685Y48867142D02*
X22182400Y48938571D01*
X21825257Y48938571D01*
X21682400Y48867142D01*
X21610971Y48795714D01*
X21539542Y48652857D01*
X21539542Y48510000D01*
X21610971Y48367142D01*
X21682400Y48295714D01*
X21825257Y48224285D01*
X22110971Y48152857D01*
X22253828Y48081428D01*
X22325257Y48010000D01*
X22396685Y47867142D01*
X22396685Y47724285D01*
X22325257Y47581428D01*
X22253828Y47510000D01*
X22110971Y47438571D01*
X21753828Y47438571D01*
X21539542Y47510000D01*
X19753828Y48938571D02*
X19753828Y47438571D01*
X19039542Y47938571D02*
X19039542Y48938571D01*
X19039542Y48081428D02*
X18968114Y48010000D01*
X18825257Y47938571D01*
X18610971Y47938571D01*
X18468114Y48010000D01*
X18396685Y48152857D01*
X18396685Y48938571D01*
X17896685Y47938571D02*
X17325257Y47938571D01*
X17682400Y47438571D02*
X17682400Y48724285D01*
X17610971Y48867142D01*
X17468114Y48938571D01*
X17325257Y48938571D01*
X16253828Y48867142D02*
X16396685Y48938571D01*
X16682400Y48938571D01*
X16825257Y48867142D01*
X16896685Y48724285D01*
X16896685Y48152857D01*
X16825257Y48010000D01*
X16682400Y47938571D01*
X16396685Y47938571D01*
X16253828Y48010000D01*
X16182400Y48152857D01*
X16182400Y48295714D01*
X16896685Y48438571D01*
X15539542Y48938571D02*
X15539542Y47938571D01*
X15539542Y48224285D02*
X15468114Y48081428D01*
X15396685Y48010000D01*
X15253828Y47938571D01*
X15110971Y47938571D01*
X14825257Y47938571D02*
X14253828Y47938571D01*
X14610971Y48938571D02*
X14610971Y47652857D01*
X14539542Y47510000D01*
X14396685Y47438571D01*
X14253828Y47438571D01*
X13110971Y48938571D02*
X13110971Y48152857D01*
X13182400Y48010000D01*
X13325257Y47938571D01*
X13610971Y47938571D01*
X13753828Y48010000D01*
X13110971Y48867142D02*
X13253828Y48938571D01*
X13610971Y48938571D01*
X13753828Y48867142D01*
X13825257Y48724285D01*
X13825257Y48581428D01*
X13753828Y48438571D01*
X13610971Y48367142D01*
X13253828Y48367142D01*
X13110971Y48295714D01*
X11753828Y48867142D02*
X11896685Y48938571D01*
X12182400Y48938571D01*
X12325257Y48867142D01*
X12396685Y48795714D01*
X12468114Y48652857D01*
X12468114Y48224285D01*
X12396685Y48081428D01*
X12325257Y48010000D01*
X12182400Y47938571D01*
X11896685Y47938571D01*
X11753828Y48010000D01*
X10539542Y48867142D02*
X10682400Y48938571D01*
X10968114Y48938571D01*
X11110971Y48867142D01*
X11182400Y48724285D01*
X11182400Y48152857D01*
X11110971Y48010000D01*
X10968114Y47938571D01*
X10682400Y47938571D01*
X10539542Y48010000D01*
X10468114Y48152857D01*
X10468114Y48295714D01*
X11182400Y48438571D01*
D11*
X23826933Y27214533D02*
X24303123Y27214533D01*
X23731695Y26928819D02*
X24065028Y27928819D01*
X24398361Y26928819D01*
X24731695Y27452628D02*
X25065028Y27452628D01*
X25207885Y26928819D02*
X24731695Y26928819D01*
X24731695Y27928819D01*
X25207885Y27928819D01*
X26160266Y26928819D02*
X25588838Y26928819D01*
X25874552Y26928819D02*
X25874552Y27928819D01*
X25779314Y27785961D01*
X25684076Y27690723D01*
X25588838Y27643104D01*
G36*
X4938336Y19896262D02*
G01*
X4376658Y19524355D01*
X3814981Y19152448D01*
X4376658Y19152412D01*
X4938336Y19152375D01*
X4938336Y18831417D01*
X3189665Y18831417D01*
X3189665Y19093448D01*
X4390493Y19893876D01*
X3189665Y19893900D01*
X3189665Y20214859D01*
X4938336Y20214859D01*
X4938336Y19896262D01*
G37*
G36*
X5386820Y12200085D02*
G01*
X5419845Y12194693D01*
X5470599Y12186143D01*
X5537050Y12174791D01*
X5617168Y12160993D01*
X5708924Y12145107D01*
X5810288Y12127489D01*
X5919228Y12108496D01*
X6033714Y12088483D01*
X6151718Y12067809D01*
X6271208Y12046829D01*
X6390153Y12025901D01*
X6506525Y12005380D01*
X6618293Y11985624D01*
X6723426Y11966989D01*
X6819894Y11949831D01*
X6905667Y11934508D01*
X6978715Y11921376D01*
X7037008Y11910791D01*
X7078516Y11903111D01*
X7101208Y11898692D01*
X7104806Y11897839D01*
X7110730Y11888977D01*
X7114862Y11865907D01*
X7117397Y11826329D01*
X7118533Y11767943D01*
X7118641Y11736216D01*
X7118641Y11579667D01*
X7088205Y11584235D01*
X7072677Y11586835D01*
X7037080Y11592959D01*
X6983148Y11602303D01*
X6912613Y11614566D01*
X6827209Y11629446D01*
X6728670Y11646639D01*
X6618728Y11665845D01*
X6499117Y11686760D01*
X6371569Y11709082D01*
X6237819Y11732510D01*
X6208375Y11737670D01*
X5358982Y11886536D01*
X5358942Y12044249D01*
X5359362Y12108938D01*
X5360833Y12154279D01*
X5363610Y12183043D01*
X5367950Y12198005D01*
X5373553Y12201961D01*
X5386820Y12200085D01*
G37*
G36*
X5383804Y13460060D02*
G01*
X5398562Y13457211D01*
X5433346Y13450876D01*
X5486378Y13441368D01*
X5555878Y13429002D01*
X5640067Y13414093D01*
X5737165Y13396956D01*
X5845394Y13377904D01*
X5962974Y13357253D01*
X6088125Y13335317D01*
X6205569Y13314770D01*
X6337055Y13291767D01*
X6463354Y13269632D01*
X6582588Y13248697D01*
X6692882Y13229294D01*
X6792356Y13211754D01*
X6879134Y13196407D01*
X6951338Y13183587D01*
X7007091Y13173624D01*
X7044516Y13166849D01*
X7060536Y13163841D01*
X7118641Y13152200D01*
X7118641Y12832389D01*
X7093739Y12838186D01*
X7079047Y12840985D01*
X7044295Y12847278D01*
X6991231Y12856756D01*
X6921601Y12869111D01*
X6837153Y12884035D01*
X6739632Y12901220D01*
X6630786Y12920358D01*
X6512362Y12941140D01*
X6386106Y12963258D01*
X6253765Y12986404D01*
X6244305Y12988057D01*
X6111436Y13011285D01*
X5984402Y13033514D01*
X5864967Y13054434D01*
X5754893Y13073736D01*
X5655941Y13091110D01*
X5569874Y13106247D01*
X5498453Y13118837D01*
X5443442Y13128569D01*
X5406601Y13135135D01*
X5389693Y13138225D01*
X5389338Y13138296D01*
X5358902Y13144461D01*
X5358902Y13466060D01*
X5383804Y13460060D01*
G37*
G36*
X5378202Y10933669D02*
G01*
X5378270Y10933653D01*
X5392056Y10931058D01*
X5425915Y10924963D01*
X5478117Y10915672D01*
X5546930Y10903491D01*
X5630622Y10888725D01*
X5727463Y10871678D01*
X5835721Y10852657D01*
X5953664Y10831965D01*
X6079560Y10809909D01*
X6211679Y10786792D01*
X6222170Y10784958D01*
X6355207Y10761697D01*
X6482533Y10739429D01*
X6602373Y10718468D01*
X6712948Y10699122D01*
X6812481Y10681705D01*
X6899195Y10666526D01*
X6971313Y10653897D01*
X7027056Y10644128D01*
X7064648Y10637532D01*
X7082311Y10634418D01*
X7082671Y10634354D01*
X7118641Y10627907D01*
X7118641Y10468660D01*
X7118340Y10412153D01*
X7117511Y10364470D01*
X7116269Y10329519D01*
X7114725Y10311205D01*
X7114036Y10309412D01*
X7102257Y10311280D01*
X7070695Y10316649D01*
X7021361Y10325164D01*
X6956268Y10336471D01*
X6877430Y10350216D01*
X6786858Y10366045D01*
X6686566Y10383604D01*
X6578567Y10402539D01*
X6464873Y10422496D01*
X6347497Y10443120D01*
X6228451Y10464057D01*
X6109749Y10484955D01*
X5993404Y10505457D01*
X5881427Y10525210D01*
X5775832Y10543861D01*
X5678632Y10561055D01*
X5591839Y10576438D01*
X5517466Y10589655D01*
X5457526Y10600353D01*
X5414032Y10608178D01*
X5388995Y10612775D01*
X5383804Y10613804D01*
X5374070Y10616915D01*
X5367274Y10623167D01*
X5362887Y10636058D01*
X5360384Y10659083D01*
X5359236Y10695738D01*
X5358916Y10749520D01*
X5358902Y10778957D01*
X5359103Y10841332D01*
X5359974Y10884786D01*
X5361917Y10912534D01*
X5365334Y10927788D01*
X5370628Y10933762D01*
X5378202Y10933669D01*
G37*
G36*
X4938336Y23457648D02*
G01*
X4252148Y23457648D01*
X4252148Y22649717D01*
X4938336Y22649717D01*
X4938336Y22328759D01*
X3189665Y22328759D01*
X3189665Y22649717D01*
X3942257Y22649717D01*
X3942257Y23457648D01*
X3189665Y23457648D01*
X3189665Y23778606D01*
X4938336Y23778606D01*
X4938336Y23457648D01*
G37*
G36*
X4931943Y11575181D02*
G01*
X4935173Y11561562D01*
X4936755Y11536101D01*
X4937003Y11495676D01*
X4936237Y11437166D01*
X4935865Y11416033D01*
X4932802Y11247152D01*
X4592475Y11108894D01*
X4511196Y11075658D01*
X4436870Y11044850D01*
X4371887Y11017491D01*
X4318636Y10994606D01*
X4279505Y10977216D01*
X4256883Y10966345D01*
X4252148Y10963183D01*
X4260740Y10955159D01*
X4285233Y10935479D01*
X4323702Y10905611D01*
X4374224Y10867023D01*
X4434875Y10821183D01*
X4503729Y10769558D01*
X4578863Y10713617D01*
X4594875Y10701743D01*
X4937601Y10447756D01*
X4937968Y10278323D01*
X4937666Y10210285D01*
X4936308Y10162286D01*
X4933734Y10132248D01*
X4929782Y10118095D01*
X4925401Y10116884D01*
X4914412Y10125014D01*
X4887597Y10145432D01*
X4846618Y10176857D01*
X4793138Y10218008D01*
X4728819Y10267604D01*
X4655322Y10324364D01*
X4574312Y10387006D01*
X4487449Y10454249D01*
X4445830Y10486493D01*
X4356926Y10555359D01*
X4273190Y10620165D01*
X4196273Y10679636D01*
X4127826Y10732501D01*
X4069497Y10777485D01*
X4022938Y10813316D01*
X3989799Y10838720D01*
X3971729Y10852425D01*
X3968918Y10854458D01*
X3956776Y10857383D01*
X3925877Y10863623D01*
X3879255Y10872624D01*
X3819947Y10883834D01*
X3750988Y10896697D01*
X3675416Y10910660D01*
X3596265Y10925168D01*
X3516573Y10939669D01*
X3439374Y10953608D01*
X3367705Y10966430D01*
X3304602Y10977583D01*
X3253101Y10986511D01*
X3216238Y10992662D01*
X3197049Y10995480D01*
X3195390Y10995600D01*
X3193367Y11006019D01*
X3191658Y11034684D01*
X3190401Y11077706D01*
X3189735Y11131197D01*
X3189665Y11156290D01*
X3189665Y11316980D01*
X3214567Y11311191D01*
X3234884Y11307115D01*
X3272845Y11300104D01*
X3325295Y11290699D01*
X3389077Y11279442D01*
X3461035Y11266876D01*
X3538014Y11253542D01*
X3616858Y11239981D01*
X3694411Y11226736D01*
X3767516Y11214349D01*
X3833018Y11203361D01*
X3887760Y11194315D01*
X3928588Y11187751D01*
X3952344Y11184213D01*
X3956828Y11183748D01*
X3970177Y11187929D01*
X4001780Y11199900D01*
X4049515Y11218796D01*
X4111263Y11243757D01*
X4184901Y11273918D01*
X4268310Y11308419D01*
X4359368Y11346397D01*
X4436525Y11378799D01*
X4532355Y11419104D01*
X4622344Y11456839D01*
X4704349Y11491113D01*
X4776231Y11521038D01*
X4835846Y11545723D01*
X4881055Y11564278D01*
X4909715Y11575813D01*
X4919263Y11579382D01*
X4926745Y11580081D01*
X4931943Y11575181D01*
G37*
G36*
X3211135Y12586096D02*
G01*
X3248899Y12579752D01*
X3303724Y12570309D01*
X3373613Y12558127D01*
X3456568Y12543562D01*
X3550590Y12526972D01*
X3653682Y12508714D01*
X3763846Y12489146D01*
X3879084Y12468626D01*
X3997397Y12447510D01*
X4116787Y12426158D01*
X4235258Y12404925D01*
X4350809Y12384169D01*
X4461445Y12364249D01*
X4565165Y12345521D01*
X4659974Y12328343D01*
X4743871Y12313073D01*
X4814860Y12300067D01*
X4870942Y12289685D01*
X4910120Y12282282D01*
X4930395Y12278217D01*
X4932818Y12277573D01*
X4934831Y12264860D01*
X4936119Y12234201D01*
X4936605Y12189777D01*
X4936207Y12135770D01*
X4935882Y12117218D01*
X4932802Y11963007D01*
X4257682Y12081446D01*
X4137128Y12102586D01*
X4022137Y12122733D01*
X3914718Y12141535D01*
X3816880Y12158643D01*
X3730633Y12173705D01*
X3657986Y12186370D01*
X3600949Y12196288D01*
X3561532Y12203107D01*
X3541743Y12206476D01*
X3541059Y12206587D01*
X3499556Y12213290D01*
X3499556Y11914336D01*
X3499448Y11824756D01*
X3499028Y11754905D01*
X3498151Y11702377D01*
X3496671Y11664766D01*
X3494443Y11639667D01*
X3491321Y11624675D01*
X3487160Y11617383D01*
X3481815Y11615386D01*
X3481492Y11615382D01*
X3464070Y11617233D01*
X3429737Y11622281D01*
X3383358Y11629769D01*
X3329803Y11638937D01*
X3326547Y11639510D01*
X3189665Y11663639D01*
X3189665Y12126482D01*
X3189729Y12225264D01*
X3189911Y12316822D01*
X3190198Y12398868D01*
X3190577Y12469113D01*
X3191033Y12525267D01*
X3191553Y12565042D01*
X3192123Y12586148D01*
X3192432Y12588986D01*
X3211135Y12586096D01*
G37*
G36*
X1050863Y14213274D02*
G01*
X1066407Y14210486D01*
X1102015Y14204186D01*
X1155948Y14194680D01*
X1226465Y14182275D01*
X1311827Y14167274D01*
X1410294Y14149985D01*
X1520128Y14130712D01*
X1639587Y14109761D01*
X1766933Y14087438D01*
X1900426Y14064047D01*
X1925174Y14059712D01*
X2769050Y13911896D01*
X2769074Y13754183D01*
X2768516Y13687167D01*
X2766701Y13640165D01*
X2763451Y13611084D01*
X2758592Y13597830D01*
X2755797Y13596471D01*
X2743037Y13598345D01*
X2710164Y13603770D01*
X2658867Y13612457D01*
X2590831Y13624112D01*
X2507745Y13638444D01*
X2411293Y13655161D01*
X2303164Y13673971D01*
X2185045Y13694582D01*
X2058621Y13716702D01*
X1925580Y13740040D01*
X1892322Y13745883D01*
X1757995Y13769466D01*
X1629927Y13791904D01*
X1509799Y13812904D01*
X1399291Y13832176D01*
X1300084Y13849428D01*
X1213859Y13864368D01*
X1142295Y13876705D01*
X1087074Y13886146D01*
X1049875Y13892401D01*
X1032380Y13895178D01*
X1031287Y13895295D01*
X1026945Y13905957D01*
X1023584Y13936356D01*
X1021363Y13984108D01*
X1020443Y14046830D01*
X1020427Y14057157D01*
X1020427Y14219020D01*
X1050863Y14213274D01*
G37*
G36*
X4935411Y18053922D02*
G01*
X4934109Y17938499D01*
X4932660Y17842523D01*
X4930685Y17763305D01*
X4927807Y17698159D01*
X4923646Y17644397D01*
X4917823Y17599331D01*
X4909960Y17560275D01*
X4899679Y17524539D01*
X4886600Y17489438D01*
X4870345Y17452283D01*
X4850536Y17410387D01*
X4842344Y17393384D01*
X4814730Y17339581D01*
X4787515Y17296033D01*
X4755251Y17255204D01*
X4712488Y17209557D01*
X4701174Y17198164D01*
X4653438Y17152349D01*
X4612161Y17118227D01*
X4569803Y17090343D01*
X4518823Y17063244D01*
X4505955Y17056969D01*
X4440234Y17026462D01*
X4383416Y17003649D01*
X4330183Y16987448D01*
X4275218Y16976778D01*
X4213203Y16970559D01*
X4138821Y16967709D01*
X4064000Y16967128D01*
X3974963Y16968018D01*
X3902750Y16971411D01*
X3842094Y16978387D01*
X3787729Y16990028D01*
X3734390Y17007416D01*
X3676811Y17031631D01*
X3621299Y17058048D01*
X3513243Y17123217D01*
X3418348Y17205395D01*
X3338295Y17302666D01*
X3274765Y17413112D01*
X3244254Y17487821D01*
X3230315Y17529748D01*
X3218936Y17569882D01*
X3209864Y17611040D01*
X3202847Y17656044D01*
X3197630Y17707713D01*
X3193962Y17768866D01*
X3191590Y17842324D01*
X3190259Y17930906D01*
X3189718Y18037432D01*
X3189665Y18096399D01*
X3189665Y18156297D01*
X3475580Y18156297D01*
X3482954Y17663791D01*
X3518087Y17589631D01*
X3569550Y17504634D01*
X3636130Y17435237D01*
X3718055Y17381322D01*
X3815553Y17342773D01*
X3928851Y17319475D01*
X4058177Y17311312D01*
X4064000Y17311298D01*
X4194009Y17318825D01*
X4307980Y17341480D01*
X4406141Y17379382D01*
X4488720Y17432645D01*
X4555944Y17501386D01*
X4608041Y17585721D01*
X4609913Y17589631D01*
X4645046Y17663791D01*
X4648574Y17910044D01*
X4652101Y18156297D01*
X3475580Y18156297D01*
X3189665Y18156297D01*
X3189665Y18477255D01*
X4939962Y18477255D01*
X4935411Y18053922D01*
G37*
G36*
X4938336Y23955687D02*
G01*
X4628445Y23955687D01*
X4628445Y24453726D01*
X3189665Y24453726D01*
X3189665Y24774685D01*
X4628445Y24774685D01*
X4628445Y25272724D01*
X4938336Y25272724D01*
X4938336Y23955687D01*
G37*
G36*
X1039795Y12959013D02*
G01*
X1053581Y12956420D01*
X1087441Y12950328D01*
X1139644Y12941044D01*
X1208458Y12928871D01*
X1292152Y12914114D01*
X1388995Y12897079D01*
X1497254Y12878071D01*
X1615199Y12857394D01*
X1741098Y12835352D01*
X1873219Y12812252D01*
X1883695Y12810422D01*
X2016565Y12787196D01*
X2143599Y12764969D01*
X2263034Y12744050D01*
X2373109Y12724747D01*
X2472061Y12707372D01*
X2558128Y12692234D01*
X2629548Y12679642D01*
X2684560Y12669905D01*
X2721400Y12663335D01*
X2738307Y12660240D01*
X2738663Y12660169D01*
X2769098Y12653972D01*
X2769098Y12332372D01*
X2744196Y12338374D01*
X2729517Y12341205D01*
X2694773Y12347533D01*
X2641703Y12357048D01*
X2572050Y12369445D01*
X2487552Y12384414D01*
X2389951Y12401649D01*
X2280988Y12420842D01*
X2162401Y12441684D01*
X2035933Y12463868D01*
X1903324Y12487086D01*
X1889229Y12489552D01*
X1756246Y12512840D01*
X1629349Y12535120D01*
X1510262Y12556087D01*
X1400711Y12575433D01*
X1302421Y12592851D01*
X1217118Y12608037D01*
X1146527Y12620682D01*
X1092374Y12630481D01*
X1056384Y12637127D01*
X1040283Y12640313D01*
X1039795Y12640440D01*
X1032139Y12644780D01*
X1026794Y12654806D01*
X1023354Y12673949D01*
X1021417Y12705638D01*
X1020579Y12753304D01*
X1020427Y12804852D01*
X1020629Y12867105D01*
X1021504Y12910443D01*
X1023457Y12938084D01*
X1026891Y12953246D01*
X1032212Y12959147D01*
X1039795Y12959013D01*
G37*
G36*
X1040676Y11690350D02*
G01*
X1072762Y11684832D01*
X1123324Y11676048D01*
X1190703Y11664291D01*
X1273238Y11649849D01*
X1369267Y11633016D01*
X1477130Y11614080D01*
X1595167Y11593334D01*
X1721717Y11571069D01*
X1855119Y11547575D01*
X1900297Y11539613D01*
X2763565Y11387457D01*
X2766635Y11230265D01*
X2767632Y11168191D01*
X2767557Y11124910D01*
X2766069Y11097089D01*
X2762825Y11081398D01*
X2757483Y11074506D01*
X2750483Y11073072D01*
X2736768Y11074951D01*
X2702959Y11080391D01*
X2650760Y11089099D01*
X2581874Y11100782D01*
X2498004Y11115148D01*
X2400852Y11131903D01*
X2292124Y11150755D01*
X2173520Y11171409D01*
X2046746Y11193574D01*
X1913504Y11216956D01*
X1882069Y11222484D01*
X1747959Y11246067D01*
X1620210Y11268504D01*
X1500492Y11289504D01*
X1390475Y11308776D01*
X1291827Y11326027D01*
X1206218Y11340967D01*
X1135318Y11353304D01*
X1080796Y11362746D01*
X1044321Y11369002D01*
X1027564Y11371779D01*
X1026653Y11371896D01*
X1024452Y11382314D01*
X1022592Y11410976D01*
X1021226Y11453991D01*
X1020503Y11507466D01*
X1020427Y11532375D01*
X1020966Y11589059D01*
X1022447Y11636879D01*
X1024671Y11671963D01*
X1027435Y11690438D01*
X1028728Y11692312D01*
X1040676Y11690350D01*
G37*
G36*
X3214567Y13837887D02*
G01*
X3229201Y13835278D01*
X3263920Y13829151D01*
X3317005Y13819810D01*
X3386737Y13807556D01*
X3471397Y13792690D01*
X3569267Y13775514D01*
X3678628Y13756330D01*
X3797761Y13735439D01*
X3924948Y13713144D01*
X4058469Y13689745D01*
X4088871Y13684418D01*
X4938274Y13535600D01*
X4938305Y13018192D01*
X4938139Y12913541D01*
X4937653Y12815969D01*
X4936881Y12727643D01*
X4935857Y12650732D01*
X4934616Y12587404D01*
X4933193Y12539828D01*
X4931622Y12510172D01*
X4930035Y12500572D01*
X4916606Y12502252D01*
X4885654Y12507004D01*
X4841470Y12514145D01*
X4788344Y12522991D01*
X4775238Y12525207D01*
X4628741Y12550055D01*
X4625826Y12909431D01*
X4622911Y13268806D01*
X4456898Y13299293D01*
X4397654Y13309980D01*
X4345098Y13319104D01*
X4303558Y13325940D01*
X4277366Y13329763D01*
X4271517Y13330314D01*
X4265539Y13329106D01*
X4260930Y13323428D01*
X4257513Y13310761D01*
X4255113Y13288586D01*
X4253553Y13254381D01*
X4252656Y13205627D01*
X4252247Y13139804D01*
X4252148Y13054392D01*
X4252148Y13053416D01*
X4252060Y12967926D01*
X4251677Y12902098D01*
X4250823Y12853457D01*
X4249323Y12819531D01*
X4246998Y12797846D01*
X4243675Y12785928D01*
X4239175Y12781304D01*
X4233324Y12781500D01*
X4232780Y12781653D01*
X4216126Y12785339D01*
X4183606Y12791686D01*
X4140470Y12799748D01*
X4091969Y12808583D01*
X4043353Y12817245D01*
X3999873Y12824791D01*
X3966780Y12830276D01*
X3949322Y12832756D01*
X3948311Y12832811D01*
X3946663Y12843387D01*
X3945185Y12873149D01*
X3943940Y12919148D01*
X3942992Y12978437D01*
X3942406Y13048065D01*
X3942240Y13112266D01*
X3942222Y13391722D01*
X3695987Y13434294D01*
X3614819Y13448340D01*
X3531754Y13462739D01*
X3452456Y13476505D01*
X3382586Y13488657D01*
X3327808Y13498212D01*
X3319708Y13499628D01*
X3189665Y13522391D01*
X3189665Y13682464D01*
X3189753Y13744843D01*
X3190365Y13788349D01*
X3192024Y13816246D01*
X3195253Y13831796D01*
X3200575Y13838261D01*
X3208512Y13838904D01*
X3214567Y13837887D01*
G37*
G36*
X4938336Y21677035D02*
G01*
X4360057Y21673305D01*
X4231914Y21672452D01*
X4123906Y21671629D01*
X4034034Y21670749D01*
X3960297Y21669724D01*
X3900696Y21668468D01*
X3853231Y21666895D01*
X3815903Y21664918D01*
X3786712Y21662450D01*
X3763658Y21659405D01*
X3744741Y21655695D01*
X3727961Y21651235D01*
X3711320Y21645938D01*
X3708767Y21645084D01*
X3624875Y21607138D01*
X3558287Y21555394D01*
X3509013Y21489871D01*
X3477065Y21410590D01*
X3462452Y21317569D01*
X3465186Y21210829D01*
X3465987Y21203209D01*
X3483950Y21115373D01*
X3517395Y21042008D01*
X3567034Y20982473D01*
X3633578Y20936126D01*
X3717739Y20902327D01*
X3820228Y20880434D01*
X3825004Y20879757D01*
X3857035Y20876934D01*
X3909162Y20874417D01*
X3979348Y20872248D01*
X4065555Y20870467D01*
X4165745Y20869113D01*
X4277882Y20868229D01*
X4399928Y20867854D01*
X4424496Y20867844D01*
X4938336Y20867844D01*
X4938336Y20546885D01*
X4396827Y20546885D01*
X4257910Y20547031D01*
X4139000Y20547560D01*
X4037968Y20548611D01*
X3952686Y20550319D01*
X3881029Y20552822D01*
X3820867Y20556258D01*
X3770073Y20560763D01*
X3726520Y20566475D01*
X3688080Y20573532D01*
X3652625Y20582069D01*
X3618029Y20592225D01*
X3599270Y20598325D01*
X3485816Y20646194D01*
X3388998Y20708630D01*
X3308595Y20785851D01*
X3244391Y20878074D01*
X3196168Y20985516D01*
X3189264Y21006188D01*
X3175142Y21066782D01*
X3165227Y21142571D01*
X3159682Y21226984D01*
X3158672Y21313452D01*
X3162358Y21395406D01*
X3170906Y21466278D01*
X3177076Y21495592D01*
X3216154Y21610570D01*
X3271403Y21710745D01*
X3343155Y21796448D01*
X3431738Y21868010D01*
X3537482Y21925765D01*
X3643615Y21965013D01*
X3662105Y21970461D01*
X3680043Y21975074D01*
X3699399Y21978936D01*
X3722145Y21982130D01*
X3750251Y21984739D01*
X3785688Y21986845D01*
X3830428Y21988532D01*
X3886441Y21989884D01*
X3955699Y21990982D01*
X4040171Y21991910D01*
X4141829Y21992752D01*
X4262645Y21993590D01*
X4332388Y21994043D01*
X4938336Y21997944D01*
X4938336Y21677035D01*
G37*
G36*
X4938336Y15577560D02*
G01*
X4628445Y15577560D01*
X4628445Y16374423D01*
X4252148Y16374423D01*
X4252148Y15765709D01*
X3942257Y15765709D01*
X3942257Y16374423D01*
X3499556Y16374423D01*
X3499556Y15555425D01*
X3189665Y15555425D01*
X3189665Y16706449D01*
X4938336Y16706449D01*
X4938336Y15577560D01*
G37*
G36*
X4938336Y14920812D02*
G01*
X4938238Y14816979D01*
X4937856Y14732539D01*
X4937061Y14664750D01*
X4935721Y14610872D01*
X4933705Y14568161D01*
X4930883Y14533877D01*
X4927124Y14505278D01*
X4922296Y14479622D01*
X4916270Y14454168D01*
X4916026Y14453209D01*
X4879603Y14344697D01*
X4830064Y14253996D01*
X4767196Y14180939D01*
X4690787Y14125362D01*
X4600622Y14087100D01*
X4496489Y14065987D01*
X4409810Y14061308D01*
X4298385Y14069336D01*
X4200932Y14093910D01*
X4115931Y14135765D01*
X4041865Y14195637D01*
X3980994Y14268803D01*
X3955265Y14304369D01*
X3933870Y14331784D01*
X3920166Y14346831D01*
X3917551Y14348445D01*
X3906451Y14343556D01*
X3878506Y14329544D01*
X3836350Y14307805D01*
X3782612Y14279737D01*
X3719926Y14246735D01*
X3650923Y14210197D01*
X3578234Y14171519D01*
X3504491Y14132097D01*
X3432327Y14093327D01*
X3364372Y14056607D01*
X3303258Y14023333D01*
X3258837Y13998902D01*
X3189665Y13960616D01*
X3189898Y14141006D01*
X3190132Y14321395D01*
X3513624Y14489197D01*
X3837116Y14656998D01*
X3840178Y14818456D01*
X3843241Y14979913D01*
X4106039Y14979913D01*
X4109921Y14794532D01*
X4111503Y14725995D01*
X4113366Y14675296D01*
X4116143Y14638144D01*
X4120469Y14610245D01*
X4126977Y14587305D01*
X4136299Y14565032D01*
X4147007Y14543226D01*
X4187584Y14479735D01*
X4236745Y14435409D01*
X4297129Y14408091D01*
X4319067Y14402628D01*
X4401933Y14394174D01*
X4477511Y14403988D01*
X4543407Y14431076D01*
X4597227Y14474446D01*
X4636578Y14533103D01*
X4637305Y14534649D01*
X4648166Y14559185D01*
X4656106Y14581971D01*
X4661682Y14607220D01*
X4665450Y14639149D01*
X4667968Y14681971D01*
X4669792Y14739903D01*
X4670897Y14788998D01*
X4674905Y14979913D01*
X4106039Y14979913D01*
X3843241Y14979913D01*
X3189665Y14979913D01*
X3189665Y15300872D01*
X4938336Y15300872D01*
X4938336Y14920812D01*
G37*
X42926000Y7950000D02*
X7926000Y7950000D01*
X7926000Y7950000D02*
X7926000Y42950000D01*
X7926000Y42950000D02*
X42926000Y42950000D01*
X42926000Y42950000D02*
X42926000Y7950000D01*
M02*
