G04 #@! TF.GenerationSoftware,KiCad,Pcbnew,(5.99.0-6591-gee6c8b60ac)*
G04 #@! TF.CreationDate,2020-11-09T16:27:33+01:00*
G04 #@! TF.ProjectId,TFGPS01A,54464750-5330-4314-912e-6b696361645f,REV*
G04 #@! TF.SameCoordinates,Original*
G04 #@! TF.FileFunction,Legend,Top*
G04 #@! TF.FilePolarity,Positive*
%FSLAX46Y46*%
G04 Gerber Fmt 4.6, Leading zero omitted, Abs format (unit mm)*
G04 Created by KiCad (PCBNEW (5.99.0-6591-gee6c8b60ac)) date 2020-11-09 16:27:33*
%MOMM*%
%LPD*%
G01*
G04 APERTURE LIST*
%ADD10C,0.300000*%
%ADD11C,0.150000*%
G04 APERTURE END LIST*
D10*
X45370857Y24213428D02*
X44870857Y24927714D01*
X44513714Y24213428D02*
X44513714Y25713428D01*
X45085142Y25713428D01*
X45228000Y25642000D01*
X45299428Y25570571D01*
X45370857Y25427714D01*
X45370857Y25213428D01*
X45299428Y25070571D01*
X45228000Y24999142D01*
X45085142Y24927714D01*
X44513714Y24927714D01*
X45799428Y25713428D02*
X46656571Y25713428D01*
X46228000Y24213428D02*
X46228000Y25713428D01*
X47156571Y24213428D02*
X47156571Y25713428D01*
X48013714Y24213428D02*
X47370857Y25070571D01*
X48013714Y25713428D02*
X47156571Y24856285D01*
X13965028Y5134800D02*
X14679314Y5134800D01*
X13822171Y4706228D02*
X14322171Y6206228D01*
X14822171Y4706228D01*
X15965028Y5706228D02*
X15965028Y4706228D01*
X15322171Y5706228D02*
X15322171Y4920514D01*
X15393600Y4777657D01*
X15536457Y4706228D01*
X15750742Y4706228D01*
X15893600Y4777657D01*
X15965028Y4849085D01*
X16465028Y5706228D02*
X17036457Y5706228D01*
X16679314Y6206228D02*
X16679314Y4920514D01*
X16750742Y4777657D01*
X16893600Y4706228D01*
X17036457Y4706228D01*
X17750742Y4706228D02*
X17607885Y4777657D01*
X17536457Y4849085D01*
X17465028Y4991942D01*
X17465028Y5420514D01*
X17536457Y5563371D01*
X17607885Y5634800D01*
X17750742Y5706228D01*
X17965028Y5706228D01*
X18107885Y5634800D01*
X18179314Y5563371D01*
X18250742Y5420514D01*
X18250742Y4991942D01*
X18179314Y4849085D01*
X18107885Y4777657D01*
X17965028Y4706228D01*
X17750742Y4706228D01*
X18893600Y5706228D02*
X18893600Y4206228D01*
X18893600Y5634800D02*
X19036457Y5706228D01*
X19322171Y5706228D01*
X19465028Y5634800D01*
X19536457Y5563371D01*
X19607885Y5420514D01*
X19607885Y4991942D01*
X19536457Y4849085D01*
X19465028Y4777657D01*
X19322171Y4706228D01*
X19036457Y4706228D01*
X18893600Y4777657D01*
X20250742Y4706228D02*
X20250742Y5706228D01*
X20250742Y6206228D02*
X20179314Y6134800D01*
X20250742Y6063371D01*
X20322171Y6134800D01*
X20250742Y6206228D01*
X20250742Y6063371D01*
X21179314Y4706228D02*
X21036457Y4777657D01*
X20965028Y4920514D01*
X20965028Y6206228D01*
X21965028Y4706228D02*
X21822171Y4777657D01*
X21750742Y4849085D01*
X21679314Y4991942D01*
X21679314Y5420514D01*
X21750742Y5563371D01*
X21822171Y5634800D01*
X21965028Y5706228D01*
X22179314Y5706228D01*
X22322171Y5634800D01*
X22393600Y5563371D01*
X22465028Y5420514D01*
X22465028Y4991942D01*
X22393600Y4849085D01*
X22322171Y4777657D01*
X22179314Y4706228D01*
X21965028Y4706228D01*
X22893600Y5706228D02*
X23465028Y5706228D01*
X23107885Y6206228D02*
X23107885Y4920514D01*
X23179314Y4777657D01*
X23322171Y4706228D01*
X23465028Y4706228D01*
X22003828Y46246171D02*
X22003828Y44746171D01*
X21432400Y44746171D01*
X21289542Y44817600D01*
X21218114Y44889028D01*
X21146685Y45031885D01*
X21146685Y45246171D01*
X21218114Y45389028D01*
X21289542Y45460457D01*
X21432400Y45531885D01*
X22003828Y45531885D01*
X19860971Y46246171D02*
X19860971Y45460457D01*
X19932400Y45317600D01*
X20075257Y45246171D01*
X20360971Y45246171D01*
X20503828Y45317600D01*
X19860971Y46174742D02*
X20003828Y46246171D01*
X20360971Y46246171D01*
X20503828Y46174742D01*
X20575257Y46031885D01*
X20575257Y45889028D01*
X20503828Y45746171D01*
X20360971Y45674742D01*
X20003828Y45674742D01*
X19860971Y45603314D01*
X19289542Y45246171D02*
X18932400Y46246171D01*
X18575257Y45246171D02*
X18932400Y46246171D01*
X19075257Y46603314D01*
X19146685Y46674742D01*
X19289542Y46746171D01*
X17789542Y46246171D02*
X17932400Y46174742D01*
X18003828Y46031885D01*
X18003828Y44746171D01*
X17003828Y46246171D02*
X17146685Y46174742D01*
X17218114Y46103314D01*
X17289542Y45960457D01*
X17289542Y45531885D01*
X17218114Y45389028D01*
X17146685Y45317600D01*
X17003828Y45246171D01*
X16789542Y45246171D01*
X16646685Y45317600D01*
X16575257Y45389028D01*
X16503828Y45531885D01*
X16503828Y45960457D01*
X16575257Y46103314D01*
X16646685Y46174742D01*
X16789542Y46246171D01*
X17003828Y46246171D01*
X15218114Y46246171D02*
X15218114Y45460457D01*
X15289542Y45317600D01*
X15432400Y45246171D01*
X15718114Y45246171D01*
X15860971Y45317600D01*
X15218114Y46174742D02*
X15360971Y46246171D01*
X15718114Y46246171D01*
X15860971Y46174742D01*
X15932400Y46031885D01*
X15932400Y45889028D01*
X15860971Y45746171D01*
X15718114Y45674742D01*
X15360971Y45674742D01*
X15218114Y45603314D01*
X13860971Y46246171D02*
X13860971Y44746171D01*
X13860971Y46174742D02*
X14003828Y46246171D01*
X14289542Y46246171D01*
X14432400Y46174742D01*
X14503828Y46103314D01*
X14575257Y45960457D01*
X14575257Y45531885D01*
X14503828Y45389028D01*
X14432400Y45317600D01*
X14289542Y45246171D01*
X14003828Y45246171D01*
X13860971Y45317600D01*
X44390714Y40517000D02*
X45105000Y40517000D01*
X44247857Y40088428D02*
X44747857Y41588428D01*
X45247857Y40088428D01*
X46605000Y40088428D02*
X46105000Y40802714D01*
X45747857Y40088428D02*
X45747857Y41588428D01*
X46319285Y41588428D01*
X46462142Y41517000D01*
X46533571Y41445571D01*
X46605000Y41302714D01*
X46605000Y41088428D01*
X46533571Y40945571D01*
X46462142Y40874142D01*
X46319285Y40802714D01*
X45747857Y40802714D01*
X47247857Y40088428D02*
X47247857Y41588428D01*
X47747857Y40517000D01*
X48247857Y41588428D01*
X48247857Y40088428D01*
X48272000Y29408571D02*
X48200571Y29265714D01*
X48200571Y29051428D01*
X48272000Y28837142D01*
X48414857Y28694285D01*
X48557714Y28622857D01*
X48843428Y28551428D01*
X49057714Y28551428D01*
X49343428Y28622857D01*
X49486285Y28694285D01*
X49629142Y28837142D01*
X49700571Y29051428D01*
X49700571Y29194285D01*
X49629142Y29408571D01*
X49557714Y29480000D01*
X49057714Y29480000D01*
X49057714Y29194285D01*
X48914857Y30122857D02*
X48914857Y30622857D01*
X49700571Y30837142D02*
X49700571Y30122857D01*
X48200571Y30122857D01*
X48200571Y30837142D01*
X48200571Y31765714D02*
X48200571Y32051428D01*
X48272000Y32194285D01*
X48414857Y32337142D01*
X48700571Y32408571D01*
X49200571Y32408571D01*
X49486285Y32337142D01*
X49629142Y32194285D01*
X49700571Y32051428D01*
X49700571Y31765714D01*
X49629142Y31622857D01*
X49486285Y31480000D01*
X49200571Y31408571D01*
X48700571Y31408571D01*
X48414857Y31480000D01*
X48272000Y31622857D01*
X48200571Y31765714D01*
X44326071Y10517857D02*
X44326071Y11375000D01*
X45826071Y10946428D02*
X44326071Y10946428D01*
X45040357Y12375000D02*
X45040357Y11875000D01*
X45826071Y11875000D02*
X44326071Y11875000D01*
X44326071Y12589285D01*
X44397500Y13946428D02*
X44326071Y13803571D01*
X44326071Y13589285D01*
X44397500Y13375000D01*
X44540357Y13232142D01*
X44683214Y13160714D01*
X44968928Y13089285D01*
X45183214Y13089285D01*
X45468928Y13160714D01*
X45611785Y13232142D01*
X45754642Y13375000D01*
X45826071Y13589285D01*
X45826071Y13732142D01*
X45754642Y13946428D01*
X45683214Y14017857D01*
X45183214Y14017857D01*
X45183214Y13732142D01*
X45826071Y14660714D02*
X44326071Y14660714D01*
X44326071Y15232142D01*
X44397500Y15375000D01*
X44468928Y15446428D01*
X44611785Y15517857D01*
X44826071Y15517857D01*
X44968928Y15446428D01*
X45040357Y15375000D01*
X45111785Y15232142D01*
X45111785Y14660714D01*
X45754642Y16089285D02*
X45826071Y16303571D01*
X45826071Y16660714D01*
X45754642Y16803571D01*
X45683214Y16875000D01*
X45540357Y16946428D01*
X45397500Y16946428D01*
X45254642Y16875000D01*
X45183214Y16803571D01*
X45111785Y16660714D01*
X45040357Y16375000D01*
X44968928Y16232142D01*
X44897500Y16160714D01*
X44754642Y16089285D01*
X44611785Y16089285D01*
X44468928Y16160714D01*
X44397500Y16232142D01*
X44326071Y16375000D01*
X44326071Y16732142D01*
X44397500Y16946428D01*
X44326071Y17875000D02*
X44326071Y18017857D01*
X44397500Y18160714D01*
X44468928Y18232142D01*
X44611785Y18303571D01*
X44897500Y18375000D01*
X45254642Y18375000D01*
X45540357Y18303571D01*
X45683214Y18232142D01*
X45754642Y18160714D01*
X45826071Y18017857D01*
X45826071Y17875000D01*
X45754642Y17732142D01*
X45683214Y17660714D01*
X45540357Y17589285D01*
X45254642Y17517857D01*
X44897500Y17517857D01*
X44611785Y17589285D01*
X44468928Y17660714D01*
X44397500Y17732142D01*
X44326071Y17875000D01*
X45826071Y19803571D02*
X45826071Y18946428D01*
X45826071Y19375000D02*
X44326071Y19375000D01*
X44540357Y19232142D01*
X44683214Y19089285D01*
X44754642Y18946428D01*
X45397500Y20375000D02*
X45397500Y21089285D01*
X45826071Y20232142D02*
X44326071Y20732142D01*
X45826071Y21232142D01*
X46741071Y9696428D02*
X47812500Y9696428D01*
X48026785Y9625000D01*
X48169642Y9482142D01*
X48241071Y9267857D01*
X48241071Y9125000D01*
X47812500Y10339285D02*
X47812500Y11053571D01*
X48241071Y10196428D02*
X46741071Y10696428D01*
X48241071Y11196428D01*
X48098214Y12553571D02*
X48169642Y12482142D01*
X48241071Y12267857D01*
X48241071Y12125000D01*
X48169642Y11910714D01*
X48026785Y11767857D01*
X47883928Y11696428D01*
X47598214Y11625000D01*
X47383928Y11625000D01*
X47098214Y11696428D01*
X46955357Y11767857D01*
X46812500Y11910714D01*
X46741071Y12125000D01*
X46741071Y12267857D01*
X46812500Y12482142D01*
X46883928Y12553571D01*
X48241071Y13196428D02*
X46741071Y13196428D01*
X47455357Y13196428D02*
X47455357Y14053571D01*
X48241071Y14053571D02*
X46741071Y14053571D01*
X46741071Y15053571D02*
X46741071Y15339285D01*
X46812500Y15482142D01*
X46955357Y15625000D01*
X47241071Y15696428D01*
X47741071Y15696428D01*
X48026785Y15625000D01*
X48169642Y15482142D01*
X48241071Y15339285D01*
X48241071Y15053571D01*
X48169642Y14910714D01*
X48026785Y14767857D01*
X47741071Y14696428D01*
X47241071Y14696428D01*
X46955357Y14767857D01*
X46812500Y14910714D01*
X46741071Y15053571D01*
X46883928Y17410714D02*
X46812500Y17482142D01*
X46741071Y17625000D01*
X46741071Y17982142D01*
X46812500Y18125000D01*
X46883928Y18196428D01*
X47026785Y18267857D01*
X47169642Y18267857D01*
X47383928Y18196428D01*
X48241071Y17339285D01*
X48241071Y18267857D01*
X46741071Y19196428D02*
X46741071Y19339285D01*
X46812500Y19482142D01*
X46883928Y19553571D01*
X47026785Y19625000D01*
X47312500Y19696428D01*
X47669642Y19696428D01*
X47955357Y19625000D01*
X48098214Y19553571D01*
X48169642Y19482142D01*
X48241071Y19339285D01*
X48241071Y19196428D01*
X48169642Y19053571D01*
X48098214Y18982142D01*
X47955357Y18910714D01*
X47669642Y18839285D01*
X47312500Y18839285D01*
X47026785Y18910714D01*
X46883928Y18982142D01*
X46812500Y19053571D01*
X46741071Y19196428D01*
X46883928Y20267857D02*
X46812500Y20339285D01*
X46741071Y20482142D01*
X46741071Y20839285D01*
X46812500Y20982142D01*
X46883928Y21053571D01*
X47026785Y21125000D01*
X47169642Y21125000D01*
X47383928Y21053571D01*
X48241071Y20196428D01*
X48241071Y21125000D01*
X46741071Y22053571D02*
X46741071Y22196428D01*
X46812500Y22339285D01*
X46883928Y22410714D01*
X47026785Y22482142D01*
X47312500Y22553571D01*
X47669642Y22553571D01*
X47955357Y22482142D01*
X48098214Y22410714D01*
X48169642Y22339285D01*
X48241071Y22196428D01*
X48241071Y22053571D01*
X48169642Y21910714D01*
X48098214Y21839285D01*
X47955357Y21767857D01*
X47669642Y21696428D01*
X47312500Y21696428D01*
X47026785Y21767857D01*
X46883928Y21839285D01*
X46812500Y21910714D01*
X46741071Y22053571D01*
X7171428Y29503571D02*
X7171428Y29217857D01*
X7100000Y29075000D01*
X6957142Y28932142D01*
X6671428Y28860714D01*
X6171428Y28860714D01*
X5885714Y28932142D01*
X5742857Y29075000D01*
X5671428Y29217857D01*
X5671428Y29503571D01*
X5742857Y29646428D01*
X5885714Y29789285D01*
X6171428Y29860714D01*
X6671428Y29860714D01*
X6957142Y29789285D01*
X7100000Y29646428D01*
X7171428Y29503571D01*
X5671428Y28217857D02*
X7171428Y28217857D01*
X5671428Y27360714D01*
X7171428Y27360714D01*
X32110171Y2290000D02*
X32824457Y2290000D01*
X31967314Y1861428D02*
X32467314Y3361428D01*
X32967314Y1861428D01*
X33467314Y3361428D02*
X33467314Y2147142D01*
X33538742Y2004285D01*
X33610171Y1932857D01*
X33753028Y1861428D01*
X34038742Y1861428D01*
X34181600Y1932857D01*
X34253028Y2004285D01*
X34324457Y2147142D01*
X34324457Y3361428D01*
X34895885Y3361428D02*
X35895885Y1861428D01*
X35895885Y3361428D02*
X34895885Y1861428D01*
X37610171Y1861428D02*
X37610171Y3361428D01*
X38253028Y3218571D02*
X38324457Y3290000D01*
X38467314Y3361428D01*
X38824457Y3361428D01*
X38967314Y3290000D01*
X39038742Y3218571D01*
X39110171Y3075714D01*
X39110171Y2932857D01*
X39038742Y2718571D01*
X38181600Y1861428D01*
X39110171Y1861428D01*
X40610171Y2004285D02*
X40538742Y1932857D01*
X40324457Y1861428D01*
X40181600Y1861428D01*
X39967314Y1932857D01*
X39824457Y2075714D01*
X39753028Y2218571D01*
X39681600Y2504285D01*
X39681600Y2718571D01*
X39753028Y3004285D01*
X39824457Y3147142D01*
X39967314Y3290000D01*
X40181600Y3361428D01*
X40324457Y3361428D01*
X40538742Y3290000D01*
X40610171Y3218571D01*
X48200571Y33520285D02*
X48200571Y34377428D01*
X49700571Y33948857D02*
X48200571Y33948857D01*
X49700571Y34877428D02*
X48200571Y34877428D01*
X48200571Y35448857D01*
X48272000Y35591714D01*
X48343428Y35663142D01*
X48486285Y35734571D01*
X48700571Y35734571D01*
X48843428Y35663142D01*
X48914857Y35591714D01*
X48986285Y35448857D01*
X48986285Y34877428D01*
X49700571Y37091714D02*
X49700571Y36377428D01*
X48200571Y36377428D01*
X39125600Y48867142D02*
X38911314Y48938571D01*
X38554171Y48938571D01*
X38411314Y48867142D01*
X38339885Y48795714D01*
X38268457Y48652857D01*
X38268457Y48510000D01*
X38339885Y48367142D01*
X38411314Y48295714D01*
X38554171Y48224285D01*
X38839885Y48152857D01*
X38982742Y48081428D01*
X39054171Y48010000D01*
X39125600Y47867142D01*
X39125600Y47724285D01*
X39054171Y47581428D01*
X38982742Y47510000D01*
X38839885Y47438571D01*
X38482742Y47438571D01*
X38268457Y47510000D01*
X37697028Y48510000D02*
X36982742Y48510000D01*
X37839885Y48938571D02*
X37339885Y47438571D01*
X36839885Y48938571D01*
X35839885Y48152857D02*
X36339885Y48152857D01*
X36339885Y48938571D02*
X36339885Y47438571D01*
X35625600Y47438571D01*
X35054171Y48152857D02*
X34554171Y48152857D01*
X34339885Y48938571D02*
X35054171Y48938571D01*
X35054171Y47438571D01*
X34339885Y47438571D01*
X33911314Y47438571D02*
X33054171Y47438571D01*
X33482742Y48938571D02*
X33482742Y47438571D01*
X32268457Y48224285D02*
X32268457Y48938571D01*
X32768457Y47438571D02*
X32268457Y48224285D01*
X31768457Y47438571D01*
X30197028Y48867142D02*
X29982742Y48938571D01*
X29625600Y48938571D01*
X29482742Y48867142D01*
X29411314Y48795714D01*
X29339885Y48652857D01*
X29339885Y48510000D01*
X29411314Y48367142D01*
X29482742Y48295714D01*
X29625600Y48224285D01*
X29911314Y48152857D01*
X30054171Y48081428D01*
X30125600Y48010000D01*
X30197028Y47867142D01*
X30197028Y47724285D01*
X30125600Y47581428D01*
X30054171Y47510000D01*
X29911314Y47438571D01*
X29554171Y47438571D01*
X29339885Y47510000D01*
X28839885Y47438571D02*
X28482742Y48938571D01*
X28197028Y47867142D01*
X27911314Y48938571D01*
X27554171Y47438571D01*
X12522142Y3290000D02*
X12379285Y3361428D01*
X12165000Y3361428D01*
X11950714Y3290000D01*
X11807857Y3147142D01*
X11736428Y3004285D01*
X11665000Y2718571D01*
X11665000Y2504285D01*
X11736428Y2218571D01*
X11807857Y2075714D01*
X11950714Y1932857D01*
X12165000Y1861428D01*
X12307857Y1861428D01*
X12522142Y1932857D01*
X12593571Y2004285D01*
X12593571Y2504285D01*
X12307857Y2504285D01*
X13236428Y1861428D02*
X13236428Y3361428D01*
X13807857Y3361428D01*
X13950714Y3290000D01*
X14022142Y3218571D01*
X14093571Y3075714D01*
X14093571Y2861428D01*
X14022142Y2718571D01*
X13950714Y2647142D01*
X13807857Y2575714D01*
X13236428Y2575714D01*
X14665000Y1932857D02*
X14879285Y1861428D01*
X15236428Y1861428D01*
X15379285Y1932857D01*
X15450714Y2004285D01*
X15522142Y2147142D01*
X15522142Y2290000D01*
X15450714Y2432857D01*
X15379285Y2504285D01*
X15236428Y2575714D01*
X14950714Y2647142D01*
X14807857Y2718571D01*
X14736428Y2790000D01*
X14665000Y2932857D01*
X14665000Y3075714D01*
X14736428Y3218571D01*
X14807857Y3290000D01*
X14950714Y3361428D01*
X15307857Y3361428D01*
X15522142Y3290000D01*
X17379285Y1861428D02*
X17307857Y1861428D01*
X17165000Y1932857D01*
X16950714Y2147142D01*
X16593571Y2575714D01*
X16450714Y2790000D01*
X16379285Y3004285D01*
X16379285Y3147142D01*
X16450714Y3290000D01*
X16593571Y3361428D01*
X16665000Y3361428D01*
X16807857Y3290000D01*
X16879285Y3147142D01*
X16879285Y3075714D01*
X16807857Y2932857D01*
X16736428Y2861428D01*
X16307857Y2575714D01*
X16236428Y2504285D01*
X16165000Y2361428D01*
X16165000Y2147142D01*
X16236428Y2004285D01*
X16307857Y1932857D01*
X16450714Y1861428D01*
X16665000Y1861428D01*
X16807857Y1932857D01*
X16879285Y2004285D01*
X17093571Y2290000D01*
X17165000Y2504285D01*
X17165000Y2647142D01*
X17950714Y1932857D02*
X18165000Y1861428D01*
X18522142Y1861428D01*
X18665000Y1932857D01*
X18736428Y2004285D01*
X18807857Y2147142D01*
X18807857Y2290000D01*
X18736428Y2432857D01*
X18665000Y2504285D01*
X18522142Y2575714D01*
X18236428Y2647142D01*
X18093571Y2718571D01*
X18022142Y2790000D01*
X17950714Y2932857D01*
X17950714Y3075714D01*
X18022142Y3218571D01*
X18093571Y3290000D01*
X18236428Y3361428D01*
X18593571Y3361428D01*
X18807857Y3290000D01*
X19379285Y2290000D02*
X20093571Y2290000D01*
X19236428Y1861428D02*
X19736428Y3361428D01*
X20236428Y1861428D01*
X21236428Y2647142D02*
X20736428Y2647142D01*
X20736428Y1861428D02*
X20736428Y3361428D01*
X21450714Y3361428D01*
X22022142Y2647142D02*
X22522142Y2647142D01*
X22736428Y1861428D02*
X22022142Y1861428D01*
X22022142Y3361428D01*
X22736428Y3361428D01*
X23165000Y3361428D02*
X24022142Y3361428D01*
X23593571Y1861428D02*
X23593571Y3361428D01*
X24807857Y2575714D02*
X24807857Y1861428D01*
X24307857Y3361428D02*
X24807857Y2575714D01*
X25307857Y3361428D01*
X24539542Y47510000D02*
X24682400Y47438571D01*
X24896685Y47438571D01*
X25110971Y47510000D01*
X25253828Y47652857D01*
X25325257Y47795714D01*
X25396685Y48081428D01*
X25396685Y48295714D01*
X25325257Y48581428D01*
X25253828Y48724285D01*
X25110971Y48867142D01*
X24896685Y48938571D01*
X24753828Y48938571D01*
X24539542Y48867142D01*
X24468114Y48795714D01*
X24468114Y48295714D01*
X24753828Y48295714D01*
X23825257Y48938571D02*
X23825257Y47438571D01*
X23253828Y47438571D01*
X23110971Y47510000D01*
X23039542Y47581428D01*
X22968114Y47724285D01*
X22968114Y47938571D01*
X23039542Y48081428D01*
X23110971Y48152857D01*
X23253828Y48224285D01*
X23825257Y48224285D01*
X22396685Y48867142D02*
X22182400Y48938571D01*
X21825257Y48938571D01*
X21682400Y48867142D01*
X21610971Y48795714D01*
X21539542Y48652857D01*
X21539542Y48510000D01*
X21610971Y48367142D01*
X21682400Y48295714D01*
X21825257Y48224285D01*
X22110971Y48152857D01*
X22253828Y48081428D01*
X22325257Y48010000D01*
X22396685Y47867142D01*
X22396685Y47724285D01*
X22325257Y47581428D01*
X22253828Y47510000D01*
X22110971Y47438571D01*
X21753828Y47438571D01*
X21539542Y47510000D01*
X19753828Y48938571D02*
X19753828Y47438571D01*
X19039542Y47938571D02*
X19039542Y48938571D01*
X19039542Y48081428D02*
X18968114Y48010000D01*
X18825257Y47938571D01*
X18610971Y47938571D01*
X18468114Y48010000D01*
X18396685Y48152857D01*
X18396685Y48938571D01*
X17896685Y47938571D02*
X17325257Y47938571D01*
X17682400Y47438571D02*
X17682400Y48724285D01*
X17610971Y48867142D01*
X17468114Y48938571D01*
X17325257Y48938571D01*
X16253828Y48867142D02*
X16396685Y48938571D01*
X16682400Y48938571D01*
X16825257Y48867142D01*
X16896685Y48724285D01*
X16896685Y48152857D01*
X16825257Y48010000D01*
X16682400Y47938571D01*
X16396685Y47938571D01*
X16253828Y48010000D01*
X16182400Y48152857D01*
X16182400Y48295714D01*
X16896685Y48438571D01*
X15539542Y48938571D02*
X15539542Y47938571D01*
X15539542Y48224285D02*
X15468114Y48081428D01*
X15396685Y48010000D01*
X15253828Y47938571D01*
X15110971Y47938571D01*
X14825257Y47938571D02*
X14253828Y47938571D01*
X14610971Y48938571D02*
X14610971Y47652857D01*
X14539542Y47510000D01*
X14396685Y47438571D01*
X14253828Y47438571D01*
X13110971Y48938571D02*
X13110971Y48152857D01*
X13182400Y48010000D01*
X13325257Y47938571D01*
X13610971Y47938571D01*
X13753828Y48010000D01*
X13110971Y48867142D02*
X13253828Y48938571D01*
X13610971Y48938571D01*
X13753828Y48867142D01*
X13825257Y48724285D01*
X13825257Y48581428D01*
X13753828Y48438571D01*
X13610971Y48367142D01*
X13253828Y48367142D01*
X13110971Y48295714D01*
X11753828Y48867142D02*
X11896685Y48938571D01*
X12182400Y48938571D01*
X12325257Y48867142D01*
X12396685Y48795714D01*
X12468114Y48652857D01*
X12468114Y48224285D01*
X12396685Y48081428D01*
X12325257Y48010000D01*
X12182400Y47938571D01*
X11896685Y47938571D01*
X11753828Y48010000D01*
X10539542Y48867142D02*
X10682400Y48938571D01*
X10968114Y48938571D01*
X11110971Y48867142D01*
X11182400Y48724285D01*
X11182400Y48152857D01*
X11110971Y48010000D01*
X10968114Y47938571D01*
X10682400Y47938571D01*
X10539542Y48010000D01*
X10468114Y48152857D01*
X10468114Y48295714D01*
X11182400Y48438571D01*
D11*
X23826933Y27214533D02*
X24303123Y27214533D01*
X23731695Y26928819D02*
X24065028Y27928819D01*
X24398361Y26928819D01*
X24731695Y27452628D02*
X25065028Y27452628D01*
X25207885Y26928819D02*
X24731695Y26928819D01*
X24731695Y27928819D01*
X25207885Y27928819D01*
X26160266Y26928819D02*
X25588838Y26928819D01*
X25874552Y26928819D02*
X25874552Y27928819D01*
X25779314Y27785961D01*
X25684076Y27690723D01*
X25588838Y27643104D01*
G36*
X5386820Y12581085D02*
G01*
X5419845Y12575693D01*
X5470599Y12567143D01*
X5537050Y12555791D01*
X5617168Y12541993D01*
X5708924Y12526107D01*
X5810288Y12508489D01*
X5919228Y12489496D01*
X6033714Y12469483D01*
X6151718Y12448809D01*
X6271208Y12427829D01*
X6390153Y12406901D01*
X6506525Y12386380D01*
X6618293Y12366624D01*
X6723426Y12347989D01*
X6819894Y12330831D01*
X6905667Y12315508D01*
X6978715Y12302376D01*
X7037008Y12291791D01*
X7078516Y12284111D01*
X7101208Y12279692D01*
X7104806Y12278839D01*
X7110730Y12269977D01*
X7114862Y12246907D01*
X7117397Y12207329D01*
X7118533Y12148943D01*
X7118641Y12117216D01*
X7118641Y11960667D01*
X7088205Y11965235D01*
X7072677Y11967835D01*
X7037080Y11973959D01*
X6983148Y11983303D01*
X6912613Y11995566D01*
X6827209Y12010446D01*
X6728670Y12027639D01*
X6618728Y12046845D01*
X6499117Y12067760D01*
X6371569Y12090082D01*
X6237819Y12113510D01*
X6208375Y12118670D01*
X5358982Y12267536D01*
X5358942Y12425249D01*
X5359362Y12489938D01*
X5360833Y12535279D01*
X5363610Y12564043D01*
X5367950Y12579005D01*
X5373553Y12582961D01*
X5386820Y12581085D01*
G37*
G36*
X4938336Y24336687D02*
G01*
X4628445Y24336687D01*
X4628445Y24834726D01*
X3189665Y24834726D01*
X3189665Y25155685D01*
X4628445Y25155685D01*
X4628445Y25653724D01*
X4938336Y25653724D01*
X4938336Y24336687D01*
G37*
G36*
X4935411Y18434922D02*
G01*
X4934109Y18319499D01*
X4932660Y18223523D01*
X4930685Y18144305D01*
X4927807Y18079159D01*
X4923646Y18025397D01*
X4917823Y17980331D01*
X4909960Y17941275D01*
X4899679Y17905539D01*
X4886600Y17870438D01*
X4870345Y17833283D01*
X4850536Y17791387D01*
X4842344Y17774384D01*
X4814730Y17720581D01*
X4787515Y17677033D01*
X4755251Y17636204D01*
X4712488Y17590557D01*
X4701174Y17579164D01*
X4653438Y17533349D01*
X4612161Y17499227D01*
X4569803Y17471343D01*
X4518823Y17444244D01*
X4505955Y17437969D01*
X4440234Y17407462D01*
X4383416Y17384649D01*
X4330183Y17368448D01*
X4275218Y17357778D01*
X4213203Y17351559D01*
X4138821Y17348709D01*
X4064000Y17348128D01*
X3974963Y17349018D01*
X3902750Y17352411D01*
X3842094Y17359387D01*
X3787729Y17371028D01*
X3734390Y17388416D01*
X3676811Y17412631D01*
X3621299Y17439048D01*
X3513243Y17504217D01*
X3418348Y17586395D01*
X3338295Y17683666D01*
X3274765Y17794112D01*
X3244254Y17868821D01*
X3230315Y17910748D01*
X3218936Y17950882D01*
X3209864Y17992040D01*
X3202847Y18037044D01*
X3197630Y18088713D01*
X3193962Y18149866D01*
X3191590Y18223324D01*
X3190259Y18311906D01*
X3189718Y18418432D01*
X3189665Y18477399D01*
X3189665Y18537297D01*
X3475580Y18537297D01*
X3482954Y18044791D01*
X3518087Y17970631D01*
X3569550Y17885634D01*
X3636130Y17816237D01*
X3718055Y17762322D01*
X3815553Y17723773D01*
X3928851Y17700475D01*
X4058177Y17692312D01*
X4064000Y17692298D01*
X4194009Y17699825D01*
X4307980Y17722480D01*
X4406141Y17760382D01*
X4488720Y17813645D01*
X4555944Y17882386D01*
X4608041Y17966721D01*
X4609913Y17970631D01*
X4645046Y18044791D01*
X4648574Y18291044D01*
X4652101Y18537297D01*
X3475580Y18537297D01*
X3189665Y18537297D01*
X3189665Y18858255D01*
X4939962Y18858255D01*
X4935411Y18434922D01*
G37*
G36*
X3211135Y12967096D02*
G01*
X3248899Y12960752D01*
X3303724Y12951309D01*
X3373613Y12939127D01*
X3456568Y12924562D01*
X3550590Y12907972D01*
X3653682Y12889714D01*
X3763846Y12870146D01*
X3879084Y12849626D01*
X3997397Y12828510D01*
X4116787Y12807158D01*
X4235258Y12785925D01*
X4350809Y12765169D01*
X4461445Y12745249D01*
X4565165Y12726521D01*
X4659974Y12709343D01*
X4743871Y12694073D01*
X4814860Y12681067D01*
X4870942Y12670685D01*
X4910120Y12663282D01*
X4930395Y12659217D01*
X4932818Y12658573D01*
X4934831Y12645860D01*
X4936119Y12615201D01*
X4936605Y12570777D01*
X4936207Y12516770D01*
X4935882Y12498218D01*
X4932802Y12344007D01*
X4257682Y12462446D01*
X4137128Y12483586D01*
X4022137Y12503733D01*
X3914718Y12522535D01*
X3816880Y12539643D01*
X3730633Y12554705D01*
X3657986Y12567370D01*
X3600949Y12577288D01*
X3561532Y12584107D01*
X3541743Y12587476D01*
X3541059Y12587587D01*
X3499556Y12594290D01*
X3499556Y12295336D01*
X3499448Y12205756D01*
X3499028Y12135905D01*
X3498151Y12083377D01*
X3496671Y12045766D01*
X3494443Y12020667D01*
X3491321Y12005675D01*
X3487160Y11998383D01*
X3481815Y11996386D01*
X3481492Y11996382D01*
X3464070Y11998233D01*
X3429737Y12003281D01*
X3383358Y12010769D01*
X3329803Y12019937D01*
X3326547Y12020510D01*
X3189665Y12044639D01*
X3189665Y12507482D01*
X3189729Y12606264D01*
X3189911Y12697822D01*
X3190198Y12779868D01*
X3190577Y12850113D01*
X3191033Y12906267D01*
X3191553Y12946042D01*
X3192123Y12967148D01*
X3192432Y12969986D01*
X3211135Y12967096D01*
G37*
G36*
X4938336Y20277262D02*
G01*
X4376658Y19905355D01*
X3814981Y19533448D01*
X4376658Y19533412D01*
X4938336Y19533375D01*
X4938336Y19212417D01*
X3189665Y19212417D01*
X3189665Y19474448D01*
X4390493Y20274876D01*
X3189665Y20274900D01*
X3189665Y20595859D01*
X4938336Y20595859D01*
X4938336Y20277262D01*
G37*
G36*
X4938336Y15958560D02*
G01*
X4628445Y15958560D01*
X4628445Y16755423D01*
X4252148Y16755423D01*
X4252148Y16146709D01*
X3942257Y16146709D01*
X3942257Y16755423D01*
X3499556Y16755423D01*
X3499556Y15936425D01*
X3189665Y15936425D01*
X3189665Y17087449D01*
X4938336Y17087449D01*
X4938336Y15958560D01*
G37*
G36*
X4938336Y15301812D02*
G01*
X4938238Y15197979D01*
X4937856Y15113539D01*
X4937061Y15045750D01*
X4935721Y14991872D01*
X4933705Y14949161D01*
X4930883Y14914877D01*
X4927124Y14886278D01*
X4922296Y14860622D01*
X4916270Y14835168D01*
X4916026Y14834209D01*
X4879603Y14725697D01*
X4830064Y14634996D01*
X4767196Y14561939D01*
X4690787Y14506362D01*
X4600622Y14468100D01*
X4496489Y14446987D01*
X4409810Y14442308D01*
X4298385Y14450336D01*
X4200932Y14474910D01*
X4115931Y14516765D01*
X4041865Y14576637D01*
X3980994Y14649803D01*
X3955265Y14685369D01*
X3933870Y14712784D01*
X3920166Y14727831D01*
X3917551Y14729445D01*
X3906451Y14724556D01*
X3878506Y14710544D01*
X3836350Y14688805D01*
X3782612Y14660737D01*
X3719926Y14627735D01*
X3650923Y14591197D01*
X3578234Y14552519D01*
X3504491Y14513097D01*
X3432327Y14474327D01*
X3364372Y14437607D01*
X3303258Y14404333D01*
X3258837Y14379902D01*
X3189665Y14341616D01*
X3189898Y14522006D01*
X3190132Y14702395D01*
X3513624Y14870197D01*
X3837116Y15037998D01*
X3840178Y15199456D01*
X3843241Y15360913D01*
X4106039Y15360913D01*
X4109921Y15175532D01*
X4111503Y15106995D01*
X4113366Y15056296D01*
X4116143Y15019144D01*
X4120469Y14991245D01*
X4126977Y14968305D01*
X4136299Y14946032D01*
X4147007Y14924226D01*
X4187584Y14860735D01*
X4236745Y14816409D01*
X4297129Y14789091D01*
X4319067Y14783628D01*
X4401933Y14775174D01*
X4477511Y14784988D01*
X4543407Y14812076D01*
X4597227Y14855446D01*
X4636578Y14914103D01*
X4637305Y14915649D01*
X4648166Y14940185D01*
X4656106Y14962971D01*
X4661682Y14988220D01*
X4665450Y15020149D01*
X4667968Y15062971D01*
X4669792Y15120903D01*
X4670897Y15169998D01*
X4674905Y15360913D01*
X4106039Y15360913D01*
X3843241Y15360913D01*
X3189665Y15360913D01*
X3189665Y15681872D01*
X4938336Y15681872D01*
X4938336Y15301812D01*
G37*
G36*
X1039795Y13340013D02*
G01*
X1053581Y13337420D01*
X1087441Y13331328D01*
X1139644Y13322044D01*
X1208458Y13309871D01*
X1292152Y13295114D01*
X1388995Y13278079D01*
X1497254Y13259071D01*
X1615199Y13238394D01*
X1741098Y13216352D01*
X1873219Y13193252D01*
X1883695Y13191422D01*
X2016565Y13168196D01*
X2143599Y13145969D01*
X2263034Y13125050D01*
X2373109Y13105747D01*
X2472061Y13088372D01*
X2558128Y13073234D01*
X2629548Y13060642D01*
X2684560Y13050905D01*
X2721400Y13044335D01*
X2738307Y13041240D01*
X2738663Y13041169D01*
X2769098Y13034972D01*
X2769098Y12713372D01*
X2744196Y12719374D01*
X2729517Y12722205D01*
X2694773Y12728533D01*
X2641703Y12738048D01*
X2572050Y12750445D01*
X2487552Y12765414D01*
X2389951Y12782649D01*
X2280988Y12801842D01*
X2162401Y12822684D01*
X2035933Y12844868D01*
X1903324Y12868086D01*
X1889229Y12870552D01*
X1756246Y12893840D01*
X1629349Y12916120D01*
X1510262Y12937087D01*
X1400711Y12956433D01*
X1302421Y12973851D01*
X1217118Y12989037D01*
X1146527Y13001682D01*
X1092374Y13011481D01*
X1056384Y13018127D01*
X1040283Y13021313D01*
X1039795Y13021440D01*
X1032139Y13025780D01*
X1026794Y13035806D01*
X1023354Y13054949D01*
X1021417Y13086638D01*
X1020579Y13134304D01*
X1020427Y13185852D01*
X1020629Y13248105D01*
X1021504Y13291443D01*
X1023457Y13319084D01*
X1026891Y13334246D01*
X1032212Y13340147D01*
X1039795Y13340013D01*
G37*
G36*
X5383804Y13841060D02*
G01*
X5398562Y13838211D01*
X5433346Y13831876D01*
X5486378Y13822368D01*
X5555878Y13810002D01*
X5640067Y13795093D01*
X5737165Y13777956D01*
X5845394Y13758904D01*
X5962974Y13738253D01*
X6088125Y13716317D01*
X6205569Y13695770D01*
X6337055Y13672767D01*
X6463354Y13650632D01*
X6582588Y13629697D01*
X6692882Y13610294D01*
X6792356Y13592754D01*
X6879134Y13577407D01*
X6951338Y13564587D01*
X7007091Y13554624D01*
X7044516Y13547849D01*
X7060536Y13544841D01*
X7118641Y13533200D01*
X7118641Y13213389D01*
X7093739Y13219186D01*
X7079047Y13221985D01*
X7044295Y13228278D01*
X6991231Y13237756D01*
X6921601Y13250111D01*
X6837153Y13265035D01*
X6739632Y13282220D01*
X6630786Y13301358D01*
X6512362Y13322140D01*
X6386106Y13344258D01*
X6253765Y13367404D01*
X6244305Y13369057D01*
X6111436Y13392285D01*
X5984402Y13414514D01*
X5864967Y13435434D01*
X5754893Y13454736D01*
X5655941Y13472110D01*
X5569874Y13487247D01*
X5498453Y13499837D01*
X5443442Y13509569D01*
X5406601Y13516135D01*
X5389693Y13519225D01*
X5389338Y13519296D01*
X5358902Y13525461D01*
X5358902Y13847060D01*
X5383804Y13841060D01*
G37*
G36*
X1040676Y12071350D02*
G01*
X1072762Y12065832D01*
X1123324Y12057048D01*
X1190703Y12045291D01*
X1273238Y12030849D01*
X1369267Y12014016D01*
X1477130Y11995080D01*
X1595167Y11974334D01*
X1721717Y11952069D01*
X1855119Y11928575D01*
X1900297Y11920613D01*
X2763565Y11768457D01*
X2766635Y11611265D01*
X2767632Y11549191D01*
X2767557Y11505910D01*
X2766069Y11478089D01*
X2762825Y11462398D01*
X2757483Y11455506D01*
X2750483Y11454072D01*
X2736768Y11455951D01*
X2702959Y11461391D01*
X2650760Y11470099D01*
X2581874Y11481782D01*
X2498004Y11496148D01*
X2400852Y11512903D01*
X2292124Y11531755D01*
X2173520Y11552409D01*
X2046746Y11574574D01*
X1913504Y11597956D01*
X1882069Y11603484D01*
X1747959Y11627067D01*
X1620210Y11649504D01*
X1500492Y11670504D01*
X1390475Y11689776D01*
X1291827Y11707027D01*
X1206218Y11721967D01*
X1135318Y11734304D01*
X1080796Y11743746D01*
X1044321Y11750002D01*
X1027564Y11752779D01*
X1026653Y11752896D01*
X1024452Y11763314D01*
X1022592Y11791976D01*
X1021226Y11834991D01*
X1020503Y11888466D01*
X1020427Y11913375D01*
X1020966Y11970059D01*
X1022447Y12017879D01*
X1024671Y12052963D01*
X1027435Y12071438D01*
X1028728Y12073312D01*
X1040676Y12071350D01*
G37*
G36*
X4938336Y22058035D02*
G01*
X4360057Y22054305D01*
X4231914Y22053452D01*
X4123906Y22052629D01*
X4034034Y22051749D01*
X3960297Y22050724D01*
X3900696Y22049468D01*
X3853231Y22047895D01*
X3815903Y22045918D01*
X3786712Y22043450D01*
X3763658Y22040405D01*
X3744741Y22036695D01*
X3727961Y22032235D01*
X3711320Y22026938D01*
X3708767Y22026084D01*
X3624875Y21988138D01*
X3558287Y21936394D01*
X3509013Y21870871D01*
X3477065Y21791590D01*
X3462452Y21698569D01*
X3465186Y21591829D01*
X3465987Y21584209D01*
X3483950Y21496373D01*
X3517395Y21423008D01*
X3567034Y21363473D01*
X3633578Y21317126D01*
X3717739Y21283327D01*
X3820228Y21261434D01*
X3825004Y21260757D01*
X3857035Y21257934D01*
X3909162Y21255417D01*
X3979348Y21253248D01*
X4065555Y21251467D01*
X4165745Y21250113D01*
X4277882Y21249229D01*
X4399928Y21248854D01*
X4424496Y21248844D01*
X4938336Y21248844D01*
X4938336Y20927885D01*
X4396827Y20927885D01*
X4257910Y20928031D01*
X4139000Y20928560D01*
X4037968Y20929611D01*
X3952686Y20931319D01*
X3881029Y20933822D01*
X3820867Y20937258D01*
X3770073Y20941763D01*
X3726520Y20947475D01*
X3688080Y20954532D01*
X3652625Y20963069D01*
X3618029Y20973225D01*
X3599270Y20979325D01*
X3485816Y21027194D01*
X3388998Y21089630D01*
X3308595Y21166851D01*
X3244391Y21259074D01*
X3196168Y21366516D01*
X3189264Y21387188D01*
X3175142Y21447782D01*
X3165227Y21523571D01*
X3159682Y21607984D01*
X3158672Y21694452D01*
X3162358Y21776406D01*
X3170906Y21847278D01*
X3177076Y21876592D01*
X3216154Y21991570D01*
X3271403Y22091745D01*
X3343155Y22177448D01*
X3431738Y22249010D01*
X3537482Y22306765D01*
X3643615Y22346013D01*
X3662105Y22351461D01*
X3680043Y22356074D01*
X3699399Y22359936D01*
X3722145Y22363130D01*
X3750251Y22365739D01*
X3785688Y22367845D01*
X3830428Y22369532D01*
X3886441Y22370884D01*
X3955699Y22371982D01*
X4040171Y22372910D01*
X4141829Y22373752D01*
X4262645Y22374590D01*
X4332388Y22375043D01*
X4938336Y22378944D01*
X4938336Y22058035D01*
G37*
G36*
X4938336Y23838648D02*
G01*
X4252148Y23838648D01*
X4252148Y23030717D01*
X4938336Y23030717D01*
X4938336Y22709759D01*
X3189665Y22709759D01*
X3189665Y23030717D01*
X3942257Y23030717D01*
X3942257Y23838648D01*
X3189665Y23838648D01*
X3189665Y24159606D01*
X4938336Y24159606D01*
X4938336Y23838648D01*
G37*
G36*
X4931943Y11956181D02*
G01*
X4935173Y11942562D01*
X4936755Y11917101D01*
X4937003Y11876676D01*
X4936237Y11818166D01*
X4935865Y11797033D01*
X4932802Y11628152D01*
X4592475Y11489894D01*
X4511196Y11456658D01*
X4436870Y11425850D01*
X4371887Y11398491D01*
X4318636Y11375606D01*
X4279505Y11358216D01*
X4256883Y11347345D01*
X4252148Y11344183D01*
X4260740Y11336159D01*
X4285233Y11316479D01*
X4323702Y11286611D01*
X4374224Y11248023D01*
X4434875Y11202183D01*
X4503729Y11150558D01*
X4578863Y11094617D01*
X4594875Y11082743D01*
X4937601Y10828756D01*
X4937968Y10659323D01*
X4937666Y10591285D01*
X4936308Y10543286D01*
X4933734Y10513248D01*
X4929782Y10499095D01*
X4925401Y10497884D01*
X4914412Y10506014D01*
X4887597Y10526432D01*
X4846618Y10557857D01*
X4793138Y10599008D01*
X4728819Y10648604D01*
X4655322Y10705364D01*
X4574312Y10768006D01*
X4487449Y10835249D01*
X4445830Y10867493D01*
X4356926Y10936359D01*
X4273190Y11001165D01*
X4196273Y11060636D01*
X4127826Y11113501D01*
X4069497Y11158485D01*
X4022938Y11194316D01*
X3989799Y11219720D01*
X3971729Y11233425D01*
X3968918Y11235458D01*
X3956776Y11238383D01*
X3925877Y11244623D01*
X3879255Y11253624D01*
X3819947Y11264834D01*
X3750988Y11277697D01*
X3675416Y11291660D01*
X3596265Y11306168D01*
X3516573Y11320669D01*
X3439374Y11334608D01*
X3367705Y11347430D01*
X3304602Y11358583D01*
X3253101Y11367511D01*
X3216238Y11373662D01*
X3197049Y11376480D01*
X3195390Y11376600D01*
X3193367Y11387019D01*
X3191658Y11415684D01*
X3190401Y11458706D01*
X3189735Y11512197D01*
X3189665Y11537290D01*
X3189665Y11697980D01*
X3214567Y11692191D01*
X3234884Y11688115D01*
X3272845Y11681104D01*
X3325295Y11671699D01*
X3389077Y11660442D01*
X3461035Y11647876D01*
X3538014Y11634542D01*
X3616858Y11620981D01*
X3694411Y11607736D01*
X3767516Y11595349D01*
X3833018Y11584361D01*
X3887760Y11575315D01*
X3928588Y11568751D01*
X3952344Y11565213D01*
X3956828Y11564748D01*
X3970177Y11568929D01*
X4001780Y11580900D01*
X4049515Y11599796D01*
X4111263Y11624757D01*
X4184901Y11654918D01*
X4268310Y11689419D01*
X4359368Y11727397D01*
X4436525Y11759799D01*
X4532355Y11800104D01*
X4622344Y11837839D01*
X4704349Y11872113D01*
X4776231Y11902038D01*
X4835846Y11926723D01*
X4881055Y11945278D01*
X4909715Y11956813D01*
X4919263Y11960382D01*
X4926745Y11961081D01*
X4931943Y11956181D01*
G37*
G36*
X5378202Y11314669D02*
G01*
X5378270Y11314653D01*
X5392056Y11312058D01*
X5425915Y11305963D01*
X5478117Y11296672D01*
X5546930Y11284491D01*
X5630622Y11269725D01*
X5727463Y11252678D01*
X5835721Y11233657D01*
X5953664Y11212965D01*
X6079560Y11190909D01*
X6211679Y11167792D01*
X6222170Y11165958D01*
X6355207Y11142697D01*
X6482533Y11120429D01*
X6602373Y11099468D01*
X6712948Y11080122D01*
X6812481Y11062705D01*
X6899195Y11047526D01*
X6971313Y11034897D01*
X7027056Y11025128D01*
X7064648Y11018532D01*
X7082311Y11015418D01*
X7082671Y11015354D01*
X7118641Y11008907D01*
X7118641Y10849660D01*
X7118340Y10793153D01*
X7117511Y10745470D01*
X7116269Y10710519D01*
X7114725Y10692205D01*
X7114036Y10690412D01*
X7102257Y10692280D01*
X7070695Y10697649D01*
X7021361Y10706164D01*
X6956268Y10717471D01*
X6877430Y10731216D01*
X6786858Y10747045D01*
X6686566Y10764604D01*
X6578567Y10783539D01*
X6464873Y10803496D01*
X6347497Y10824120D01*
X6228451Y10845057D01*
X6109749Y10865955D01*
X5993404Y10886457D01*
X5881427Y10906210D01*
X5775832Y10924861D01*
X5678632Y10942055D01*
X5591839Y10957438D01*
X5517466Y10970655D01*
X5457526Y10981353D01*
X5414032Y10989178D01*
X5388995Y10993775D01*
X5383804Y10994804D01*
X5374070Y10997915D01*
X5367274Y11004167D01*
X5362887Y11017058D01*
X5360384Y11040083D01*
X5359236Y11076738D01*
X5358916Y11130520D01*
X5358902Y11159957D01*
X5359103Y11222332D01*
X5359974Y11265786D01*
X5361917Y11293534D01*
X5365334Y11308788D01*
X5370628Y11314762D01*
X5378202Y11314669D01*
G37*
G36*
X1050863Y14594274D02*
G01*
X1066407Y14591486D01*
X1102015Y14585186D01*
X1155948Y14575680D01*
X1226465Y14563275D01*
X1311827Y14548274D01*
X1410294Y14530985D01*
X1520128Y14511712D01*
X1639587Y14490761D01*
X1766933Y14468438D01*
X1900426Y14445047D01*
X1925174Y14440712D01*
X2769050Y14292896D01*
X2769074Y14135183D01*
X2768516Y14068167D01*
X2766701Y14021165D01*
X2763451Y13992084D01*
X2758592Y13978830D01*
X2755797Y13977471D01*
X2743037Y13979345D01*
X2710164Y13984770D01*
X2658867Y13993457D01*
X2590831Y14005112D01*
X2507745Y14019444D01*
X2411293Y14036161D01*
X2303164Y14054971D01*
X2185045Y14075582D01*
X2058621Y14097702D01*
X1925580Y14121040D01*
X1892322Y14126883D01*
X1757995Y14150466D01*
X1629927Y14172904D01*
X1509799Y14193904D01*
X1399291Y14213176D01*
X1300084Y14230428D01*
X1213859Y14245368D01*
X1142295Y14257705D01*
X1087074Y14267146D01*
X1049875Y14273401D01*
X1032380Y14276178D01*
X1031287Y14276295D01*
X1026945Y14286957D01*
X1023584Y14317356D01*
X1021363Y14365108D01*
X1020443Y14427830D01*
X1020427Y14438157D01*
X1020427Y14600020D01*
X1050863Y14594274D01*
G37*
G36*
X3214567Y14218887D02*
G01*
X3229201Y14216278D01*
X3263920Y14210151D01*
X3317005Y14200810D01*
X3386737Y14188556D01*
X3471397Y14173690D01*
X3569267Y14156514D01*
X3678628Y14137330D01*
X3797761Y14116439D01*
X3924948Y14094144D01*
X4058469Y14070745D01*
X4088871Y14065418D01*
X4938274Y13916600D01*
X4938305Y13399192D01*
X4938139Y13294541D01*
X4937653Y13196969D01*
X4936881Y13108643D01*
X4935857Y13031732D01*
X4934616Y12968404D01*
X4933193Y12920828D01*
X4931622Y12891172D01*
X4930035Y12881572D01*
X4916606Y12883252D01*
X4885654Y12888004D01*
X4841470Y12895145D01*
X4788344Y12903991D01*
X4775238Y12906207D01*
X4628741Y12931055D01*
X4625826Y13290431D01*
X4622911Y13649806D01*
X4456898Y13680293D01*
X4397654Y13690980D01*
X4345098Y13700104D01*
X4303558Y13706940D01*
X4277366Y13710763D01*
X4271517Y13711314D01*
X4265539Y13710106D01*
X4260930Y13704428D01*
X4257513Y13691761D01*
X4255113Y13669586D01*
X4253553Y13635381D01*
X4252656Y13586627D01*
X4252247Y13520804D01*
X4252148Y13435392D01*
X4252148Y13434416D01*
X4252060Y13348926D01*
X4251677Y13283098D01*
X4250823Y13234457D01*
X4249323Y13200531D01*
X4246998Y13178846D01*
X4243675Y13166928D01*
X4239175Y13162304D01*
X4233324Y13162500D01*
X4232780Y13162653D01*
X4216126Y13166339D01*
X4183606Y13172686D01*
X4140470Y13180748D01*
X4091969Y13189583D01*
X4043353Y13198245D01*
X3999873Y13205791D01*
X3966780Y13211276D01*
X3949322Y13213756D01*
X3948311Y13213811D01*
X3946663Y13224387D01*
X3945185Y13254149D01*
X3943940Y13300148D01*
X3942992Y13359437D01*
X3942406Y13429065D01*
X3942240Y13493266D01*
X3942222Y13772722D01*
X3695987Y13815294D01*
X3614819Y13829340D01*
X3531754Y13843739D01*
X3452456Y13857505D01*
X3382586Y13869657D01*
X3327808Y13879212D01*
X3319708Y13880628D01*
X3189665Y13903391D01*
X3189665Y14063464D01*
X3189753Y14125843D01*
X3190365Y14169349D01*
X3192024Y14197246D01*
X3195253Y14212796D01*
X3200575Y14219261D01*
X3208512Y14219904D01*
X3214567Y14218887D01*
G37*
X42926000Y7950000D02*
X7926000Y7950000D01*
X7926000Y7950000D02*
X7926000Y42950000D01*
X7926000Y42950000D02*
X42926000Y42950000D01*
X42926000Y42950000D02*
X42926000Y7950000D01*
M02*
