%TF.GenerationSoftware,KiCad,Pcbnew,6.0.4-6f826c9f35~116~ubuntu20.04.1*%
%TF.CreationDate,2022-05-04T16:22:59+00:00*%
%TF.ProjectId,TFGPS01B,54464750-5330-4314-922e-6b696361645f,REV*%
%TF.SameCoordinates,Original*%
%TF.FileFunction,Copper,L2,Inr*%
%TF.FilePolarity,Positive*%
%FSLAX46Y46*%
G04 Gerber Fmt 4.6, Leading zero omitted, Abs format (unit mm)*
G04 Created by KiCad (PCBNEW 6.0.4-6f826c9f35~116~ubuntu20.04.1) date 2022-05-04 16:22:59*
%MOMM*%
%LPD*%
G01*
G04 APERTURE LIST*
%TA.AperFunction,ComponentPad*%
%ADD10C,6.000000*%
%TD*%
%TA.AperFunction,ComponentPad*%
%ADD11O,2.000000X1.000000*%
%TD*%
%TA.AperFunction,ComponentPad*%
%ADD12O,2.100000X1.050000*%
%TD*%
%TA.AperFunction,ViaPad*%
%ADD13C,0.800000*%
%TD*%
%TA.AperFunction,ViaPad*%
%ADD14C,0.700000*%
%TD*%
%TA.AperFunction,ViaPad*%
%ADD15C,0.600000*%
%TD*%
%TA.AperFunction,Conductor*%
%ADD16C,0.500000*%
%TD*%
G04 APERTURE END LIST*
D10*
%TO.N,GND*%
%TO.C,M4*%
X167718500Y-118189000D03*
%TD*%
%TO.N,GND*%
%TO.C,M2*%
X127678500Y-118189000D03*
%TD*%
%TO.N,GND*%
%TO.C,M1*%
X167718500Y-78149000D03*
%TD*%
%TO.N,GND*%
%TO.C,M3*%
X127678500Y-78149000D03*
%TD*%
D11*
%TO.N,GND*%
%TO.C,J2*%
X124838500Y-92329000D03*
X124838500Y-83689000D03*
D12*
X129018500Y-92329000D03*
X129018500Y-83689000D03*
%TD*%
D13*
%TO.N,GND*%
X141983500Y-94994000D03*
X162938500Y-75309000D03*
X158722100Y-103757000D03*
X133728500Y-110869000D03*
X140522110Y-107322501D03*
X126108500Y-85469000D03*
X126108500Y-90549000D03*
X155724900Y-99591400D03*
D14*
X156876500Y-112139000D03*
D13*
X153413500Y-84834000D03*
D15*
X167129500Y-83945000D03*
D13*
X132458500Y-114044000D03*
D14*
X157824900Y-112139000D03*
D13*
X150848100Y-104366600D03*
X164208500Y-107059000D03*
X159687300Y-95527400D03*
D14*
X155166100Y-109395800D03*
D13*
X152372100Y-103350600D03*
X131823500Y-74039000D03*
D14*
X145260100Y-109040200D03*
D13*
X138808500Y-98804000D03*
D14*
X153082900Y-112139000D03*
D13*
X154302500Y-98169000D03*
X150746500Y-103147400D03*
X153997700Y-97102200D03*
D14*
X148155700Y-111123000D03*
D13*
X154048500Y-116584000D03*
X146428500Y-79119000D03*
X133728500Y-112139000D03*
X152778500Y-101115400D03*
X157858500Y-86104000D03*
X143046470Y-95201031D03*
X153540500Y-101826600D03*
D14*
X156598565Y-109649800D03*
D13*
X152143500Y-84834000D03*
X132458500Y-115314000D03*
X155674100Y-104519000D03*
X147546100Y-107008200D03*
X162938500Y-118489000D03*
X151965700Y-100404200D03*
X137538500Y-100074000D03*
X157909300Y-95730600D03*
D14*
X146377700Y-109141800D03*
D13*
X157655300Y-101928200D03*
X151559300Y-101369400D03*
D14*
X152168900Y-112139000D03*
D13*
X153438900Y-96187800D03*
X138808500Y-101979000D03*
X154353300Y-109243400D03*
X158722100Y-102690200D03*
X131188500Y-118489000D03*
X153413500Y-86104000D03*
X149679700Y-98270600D03*
X149374900Y-104265000D03*
D14*
X156486900Y-106093800D03*
D13*
X155013700Y-98880200D03*
X140078500Y-100074000D03*
X152143500Y-86104000D03*
X131823500Y-75309000D03*
X131188500Y-121029000D03*
D15*
X165986500Y-83945000D03*
D14*
X147088900Y-111123000D03*
D13*
X164208500Y-75309000D03*
X131188500Y-119759000D03*
X158163300Y-106754200D03*
X131188500Y-122299000D03*
X157858500Y-84834000D03*
D14*
X148866900Y-109091000D03*
D13*
X159890500Y-102360000D03*
X135633500Y-112139000D03*
X160500100Y-105789000D03*
X153159500Y-82675000D03*
X150441700Y-96289400D03*
X149476500Y-118743000D03*
X150873500Y-86104000D03*
X149781300Y-97102200D03*
X151356100Y-95832200D03*
X150873500Y-84834000D03*
X150848100Y-102080600D03*
X163573500Y-117219000D03*
X158722100Y-104874600D03*
D14*
X154979700Y-112139000D03*
X154031300Y-112139000D03*
D13*
X149984500Y-99388200D03*
X126108500Y-86739000D03*
D15*
X156637384Y-110704797D03*
D13*
X163573500Y-105154000D03*
X150873500Y-79119000D03*
D15*
X161795500Y-86358000D03*
D13*
X155623300Y-103401400D03*
X152270500Y-109243400D03*
X148155700Y-112443800D03*
X126108500Y-88009000D03*
X134363500Y-103249000D03*
D14*
X147088900Y-109853000D03*
D13*
X146428500Y-77849000D03*
X152422900Y-105484200D03*
X155623300Y-96391000D03*
X126108500Y-89279000D03*
X133728500Y-115314000D03*
X158112500Y-99439000D03*
X149730500Y-101369400D03*
X149984500Y-108837000D03*
X153311900Y-109243400D03*
X160652500Y-103249000D03*
X132458500Y-107059000D03*
X135633500Y-110869000D03*
X159128500Y-86104000D03*
X146987300Y-112494600D03*
X133728500Y-114044000D03*
X171828500Y-109599000D03*
X159128500Y-84834000D03*
X151000500Y-105839800D03*
X151152900Y-108989400D03*
X144040900Y-107516200D03*
D14*
X155775700Y-105535000D03*
X143888500Y-109345000D03*
D13*
X150873500Y-83564000D03*
D14*
X155928100Y-112139000D03*
D13*
X158823700Y-105992200D03*
X150848100Y-100150200D03*
X152422900Y-95832200D03*
X148968500Y-77849000D03*
D14*
X148104900Y-109802200D03*
D13*
%TO.N,/VBACKUP*%
X150604225Y-90555979D03*
X128648500Y-100074000D03*
%TO.N,+3V3*%
X146936500Y-88263000D03*
X146936500Y-80643000D03*
X147190500Y-104773000D03*
%TO.N,+5V*%
X157858500Y-75563000D03*
D14*
X171912501Y-88601001D03*
D13*
X151762500Y-118997000D03*
D14*
X132204500Y-78992000D03*
D13*
X168526500Y-109599000D03*
D14*
X161224000Y-78928500D03*
D13*
%TO.N,/SAFETY_SW_LED*%
X136924752Y-114725652D03*
X158630188Y-80506312D03*
X154048500Y-80516000D03*
%TO.N,/RTK_STAT*%
X159636500Y-94105000D03*
X139570500Y-109345000D03*
X128394500Y-110615000D03*
%TO.N,/BUZZER*%
X160906500Y-97407000D03*
X156588500Y-79666000D03*
X162723499Y-104280003D03*
X136395500Y-116457000D03*
X160328574Y-114876861D03*
%TO.N,/GEO_STAT*%
X138720490Y-108356215D03*
X158798499Y-90726999D03*
X128267500Y-109218000D03*
%TO.N,/SAFETY_SW*%
X136928900Y-113409000D03*
X155318500Y-83564000D03*
%TO.N,/SDA1*%
X141475500Y-116457000D03*
X157858500Y-116457000D03*
%TO.N,/TX*%
X124025700Y-104265000D03*
X143937541Y-116467041D03*
X143380500Y-82167000D03*
%TO.N,/RX*%
X133894500Y-82914206D03*
X145412500Y-116457000D03*
X133855500Y-94486000D03*
X123974900Y-102233000D03*
%TO.N,/SDA*%
X123949500Y-108329000D03*
X139062500Y-82789011D03*
%TO.N,/SCL*%
X124076500Y-106297000D03*
X141094500Y-82421000D03*
%TO.N,Net-(J5-Pad1)*%
X135633500Y-80389000D03*
X146047500Y-91819000D03*
%TO.N,Net-(J5-Pad2)*%
X146815723Y-91178814D03*
X137030500Y-80389000D03*
%TO.N,Net-(J5-Pad3)*%
X138681500Y-94486000D03*
X124076500Y-110361000D03*
X138554500Y-80389000D03*
%TO.N,Net-(J5-Pad6)*%
X133982500Y-79119000D03*
X141953500Y-80105000D03*
%TO.N,/D1-*%
X140658477Y-91140000D03*
X146356448Y-98477948D03*
%TO.N,/D1+*%
X147444500Y-98296000D03*
X140658477Y-90090000D03*
%TO.N,/SAFE_VCC*%
X137623259Y-116626241D03*
X152778500Y-80008000D03*
%TO.N,/VBUS*%
X131696500Y-85469000D03*
X131175500Y-90409000D03*
X135317500Y-90422000D03*
%TO.N,Net-(D9-Pad1)*%
X134938500Y-86159000D03*
X132698500Y-83219000D03*
%TD*%
D16*
%TO.N,/VBACKUP*%
X144515204Y-96645000D02*
X150604225Y-90555979D01*
X132077500Y-96645000D02*
X144515204Y-96645000D01*
X128648500Y-100074000D02*
X132077500Y-96645000D01*
%TO.N,/RTK_STAT*%
X149527300Y-94105000D02*
X139570500Y-104061800D01*
X139570500Y-104061800D02*
X139570500Y-109345000D01*
X159636500Y-94105000D02*
X149527300Y-94105000D01*
%TO.N,/BUZZER*%
X160906500Y-97407000D02*
X162723499Y-99223999D01*
X159128500Y-82206000D02*
X156588500Y-79666000D01*
X162723499Y-99223999D02*
X162723499Y-104280003D01*
X159128500Y-82206000D02*
X160906500Y-83984000D01*
X160906500Y-83984000D02*
X160906500Y-97407000D01*
%TO.N,/GEO_STAT*%
X158798499Y-90726999D02*
X151635301Y-90726999D01*
X138720490Y-103641810D02*
X138720490Y-108356215D01*
X151635301Y-90726999D02*
X138720490Y-103641810D01*
%TO.N,/TX*%
X143937541Y-116467041D02*
X131735500Y-104265000D01*
X131735500Y-104265000D02*
X124025700Y-104265000D01*
%TO.N,/RX*%
X133894500Y-83349000D02*
X133894500Y-82914206D01*
X137284500Y-86739000D02*
X133894500Y-83349000D01*
X133855500Y-94486000D02*
X137284500Y-91057000D01*
X131188500Y-102233000D02*
X123974900Y-102233000D01*
X145412500Y-116457000D02*
X131188500Y-102233000D01*
X137284500Y-91057000D02*
X137284500Y-86739000D01*
X133894499Y-94447001D02*
X133855500Y-94486000D01*
%TO.N,Net-(J5-Pad1)*%
X135633500Y-82790002D02*
X135633500Y-80389000D01*
X143038499Y-88809999D02*
X141653497Y-88809999D01*
X146047500Y-91819000D02*
X143038499Y-88809999D01*
X141653497Y-88809999D02*
X135633500Y-82790002D01*
%TO.N,Net-(J5-Pad2)*%
X137030500Y-81659000D02*
X137030500Y-80389000D01*
X146815723Y-91178814D02*
X143645909Y-88009000D01*
X141856500Y-88009000D02*
X138046500Y-84199000D01*
X137030500Y-83183000D02*
X137030500Y-81659000D01*
X138046500Y-84199000D02*
X137030500Y-83183000D01*
X143645909Y-88009000D02*
X141856500Y-88009000D01*
%TO.N,Net-(J5-Pad3)*%
X137323499Y-79538999D02*
X135225499Y-79538999D01*
X138642501Y-94447001D02*
X138681500Y-94486000D01*
X135225499Y-79538999D02*
X134744500Y-80019998D01*
X137323499Y-79538999D02*
X137704499Y-79538999D01*
X138681500Y-87120000D02*
X138681500Y-94486000D01*
X134744500Y-83183000D02*
X138681500Y-87120000D01*
X137704499Y-79538999D02*
X138554500Y-80389000D01*
X134744500Y-80019998D02*
X134744500Y-83183000D01*
%TD*%
%TA.AperFunction,Conductor*%
%TO.N,GND*%
G36*
X172662708Y-73193822D02*
G01*
X172693148Y-73246545D01*
X172694500Y-73262000D01*
X172694500Y-88342791D01*
X172673678Y-88399999D01*
X172620955Y-88430439D01*
X172561000Y-88419867D01*
X172522245Y-88374250D01*
X172495106Y-88302429D01*
X172493211Y-88297413D01*
X172404032Y-88167658D01*
X172286477Y-88062920D01*
X172232329Y-88034250D01*
X172152075Y-87991757D01*
X172152073Y-87991756D01*
X172147332Y-87989246D01*
X171994629Y-87950890D01*
X171922041Y-87950510D01*
X171842548Y-87950094D01*
X171842547Y-87950094D01*
X171837185Y-87950066D01*
X171684089Y-87986821D01*
X171544180Y-88059033D01*
X171540142Y-88062556D01*
X171540140Y-88062557D01*
X171503317Y-88094680D01*
X171425535Y-88162534D01*
X171422449Y-88166925D01*
X171352882Y-88265909D01*
X171335002Y-88291349D01*
X171277810Y-88438040D01*
X171257259Y-88594139D01*
X171257847Y-88599465D01*
X171257847Y-88599467D01*
X171272004Y-88727696D01*
X171274536Y-88750634D01*
X171328644Y-88898491D01*
X171416459Y-89029173D01*
X171420427Y-89032783D01*
X171420429Y-89032786D01*
X171528940Y-89131523D01*
X171532911Y-89135136D01*
X171671277Y-89210263D01*
X171823570Y-89250216D01*
X171902283Y-89251453D01*
X171975628Y-89252605D01*
X171975631Y-89252605D01*
X171980996Y-89252689D01*
X171986226Y-89251491D01*
X171986228Y-89251491D01*
X172129239Y-89218737D01*
X172129240Y-89218737D01*
X172134469Y-89217539D01*
X172203771Y-89182684D01*
X172270335Y-89149206D01*
X172270337Y-89149204D01*
X172275126Y-89146796D01*
X172394849Y-89044543D01*
X172486725Y-88916684D01*
X172522923Y-88826639D01*
X172563580Y-88781326D01*
X172623852Y-88772748D01*
X172675537Y-88804919D01*
X172694500Y-88859835D01*
X172694500Y-123076000D01*
X172673678Y-123133208D01*
X172620955Y-123163648D01*
X172605500Y-123165000D01*
X122791500Y-123165000D01*
X122734292Y-123144178D01*
X122703852Y-123091455D01*
X122702500Y-123076000D01*
X122702500Y-118989611D01*
X151056894Y-118989611D01*
X151057482Y-118994937D01*
X151057482Y-118994939D01*
X151059661Y-119014670D01*
X151075499Y-119158135D01*
X151133766Y-119317356D01*
X151228330Y-119458083D01*
X151232298Y-119461693D01*
X151232300Y-119461696D01*
X151246519Y-119474634D01*
X151353733Y-119572191D01*
X151502735Y-119653092D01*
X151666733Y-119696116D01*
X151751496Y-119697447D01*
X151830892Y-119698695D01*
X151830895Y-119698695D01*
X151836260Y-119698779D01*
X151841489Y-119697581D01*
X151841493Y-119697581D01*
X151996299Y-119662126D01*
X151996300Y-119662125D01*
X152001529Y-119660928D01*
X152152998Y-119584747D01*
X152281923Y-119474634D01*
X152380861Y-119336947D01*
X152444101Y-119179634D01*
X152467990Y-119011778D01*
X152468145Y-118997000D01*
X152447776Y-118828680D01*
X152387845Y-118670077D01*
X152291812Y-118530349D01*
X152165221Y-118417560D01*
X152108763Y-118387667D01*
X152020124Y-118340735D01*
X152020122Y-118340734D01*
X152015381Y-118338224D01*
X152004983Y-118335612D01*
X151980536Y-118329472D01*
X151850941Y-118296919D01*
X151771146Y-118296501D01*
X151686758Y-118296059D01*
X151686757Y-118296059D01*
X151681395Y-118296031D01*
X151676180Y-118297283D01*
X151657224Y-118301834D01*
X151516532Y-118335612D01*
X151365869Y-118413375D01*
X151238104Y-118524831D01*
X151140613Y-118663547D01*
X151079024Y-118821513D01*
X151056894Y-118989611D01*
X122702500Y-118989611D01*
X122702500Y-116449611D01*
X135689894Y-116449611D01*
X135690482Y-116454937D01*
X135690482Y-116454939D01*
X135700969Y-116549925D01*
X135708499Y-116618135D01*
X135766766Y-116777356D01*
X135773513Y-116787397D01*
X135825843Y-116865272D01*
X135861330Y-116918083D01*
X135865298Y-116921693D01*
X135865300Y-116921696D01*
X135918989Y-116970549D01*
X135986733Y-117032191D01*
X136135735Y-117113092D01*
X136299733Y-117156116D01*
X136384497Y-117157448D01*
X136463892Y-117158695D01*
X136463895Y-117158695D01*
X136469260Y-117158779D01*
X136474489Y-117157581D01*
X136474493Y-117157581D01*
X136629299Y-117122126D01*
X136629300Y-117122125D01*
X136634529Y-117120928D01*
X136785998Y-117044747D01*
X136884433Y-116960675D01*
X136941457Y-116939354D01*
X136998845Y-116959676D01*
X137016105Y-116978712D01*
X137089089Y-117087324D01*
X137093057Y-117090934D01*
X137093059Y-117090937D01*
X137210521Y-117197819D01*
X137214492Y-117201432D01*
X137363494Y-117282333D01*
X137527492Y-117325357D01*
X137612255Y-117326688D01*
X137691651Y-117327936D01*
X137691654Y-117327936D01*
X137697019Y-117328020D01*
X137702248Y-117326822D01*
X137702252Y-117326822D01*
X137857058Y-117291367D01*
X137857059Y-117291366D01*
X137862288Y-117290169D01*
X138013757Y-117213988D01*
X138142682Y-117103875D01*
X138241620Y-116966188D01*
X138304860Y-116808875D01*
X138328749Y-116641019D01*
X138328904Y-116626241D01*
X138308535Y-116457921D01*
X138305395Y-116449611D01*
X140769894Y-116449611D01*
X140770482Y-116454937D01*
X140770482Y-116454939D01*
X140780969Y-116549925D01*
X140788499Y-116618135D01*
X140846766Y-116777356D01*
X140853513Y-116787397D01*
X140905843Y-116865272D01*
X140941330Y-116918083D01*
X140945298Y-116921693D01*
X140945300Y-116921696D01*
X140998989Y-116970549D01*
X141066733Y-117032191D01*
X141215735Y-117113092D01*
X141379733Y-117156116D01*
X141464497Y-117157448D01*
X141543892Y-117158695D01*
X141543895Y-117158695D01*
X141549260Y-117158779D01*
X141554489Y-117157581D01*
X141554493Y-117157581D01*
X141709299Y-117122126D01*
X141709300Y-117122125D01*
X141714529Y-117120928D01*
X141865998Y-117044747D01*
X141994923Y-116934634D01*
X142093861Y-116796947D01*
X142157101Y-116639634D01*
X142180990Y-116471778D01*
X142181145Y-116457000D01*
X142160776Y-116288680D01*
X142100845Y-116130077D01*
X142004812Y-115990349D01*
X141878221Y-115877560D01*
X141821763Y-115847667D01*
X141733124Y-115800735D01*
X141733122Y-115800734D01*
X141728381Y-115798224D01*
X141717983Y-115795612D01*
X141693536Y-115789472D01*
X141563941Y-115756919D01*
X141484146Y-115756501D01*
X141399758Y-115756059D01*
X141399757Y-115756059D01*
X141394395Y-115756031D01*
X141389180Y-115757283D01*
X141379704Y-115759558D01*
X141229532Y-115795612D01*
X141078869Y-115873375D01*
X141074825Y-115876903D01*
X140968133Y-115969976D01*
X140951104Y-115984831D01*
X140948018Y-115989222D01*
X140908013Y-116046144D01*
X140853613Y-116123547D01*
X140851665Y-116128543D01*
X140851664Y-116128545D01*
X140829855Y-116184482D01*
X140792024Y-116281513D01*
X140769894Y-116449611D01*
X138305395Y-116449611D01*
X138248604Y-116299318D01*
X138152571Y-116159590D01*
X138025980Y-116046801D01*
X137969522Y-116016908D01*
X137880883Y-115969976D01*
X137880881Y-115969975D01*
X137876140Y-115967465D01*
X137865742Y-115964853D01*
X137841295Y-115958713D01*
X137711700Y-115926160D01*
X137631905Y-115925742D01*
X137547517Y-115925300D01*
X137547516Y-115925300D01*
X137542154Y-115925272D01*
X137536939Y-115926524D01*
X137517983Y-115931075D01*
X137377291Y-115964853D01*
X137226628Y-116042616D01*
X137222584Y-116046144D01*
X137135672Y-116121961D01*
X137078874Y-116143878D01*
X137021277Y-116124157D01*
X137003819Y-116105304D01*
X136966061Y-116050367D01*
X136924812Y-115990349D01*
X136798221Y-115877560D01*
X136741763Y-115847667D01*
X136653124Y-115800735D01*
X136653122Y-115800734D01*
X136648381Y-115798224D01*
X136637983Y-115795612D01*
X136613536Y-115789472D01*
X136483941Y-115756919D01*
X136404146Y-115756501D01*
X136319758Y-115756059D01*
X136319757Y-115756059D01*
X136314395Y-115756031D01*
X136309180Y-115757283D01*
X136299704Y-115759558D01*
X136149532Y-115795612D01*
X135998869Y-115873375D01*
X135994825Y-115876903D01*
X135888133Y-115969976D01*
X135871104Y-115984831D01*
X135868018Y-115989222D01*
X135828013Y-116046144D01*
X135773613Y-116123547D01*
X135771665Y-116128543D01*
X135771664Y-116128545D01*
X135749855Y-116184482D01*
X135712024Y-116281513D01*
X135689894Y-116449611D01*
X122702500Y-116449611D01*
X122702500Y-114718263D01*
X136219146Y-114718263D01*
X136219734Y-114723589D01*
X136219734Y-114723591D01*
X136236428Y-114874800D01*
X136237751Y-114886787D01*
X136296018Y-115046008D01*
X136390582Y-115186735D01*
X136394550Y-115190345D01*
X136394552Y-115190348D01*
X136428424Y-115221169D01*
X136515985Y-115300843D01*
X136664987Y-115381744D01*
X136828985Y-115424768D01*
X136913748Y-115426099D01*
X136993144Y-115427347D01*
X136993147Y-115427347D01*
X136998512Y-115427431D01*
X137003741Y-115426233D01*
X137003745Y-115426233D01*
X137158551Y-115390778D01*
X137158552Y-115390777D01*
X137163781Y-115389580D01*
X137315250Y-115313399D01*
X137444175Y-115203286D01*
X137543113Y-115065599D01*
X137606353Y-114908286D01*
X137630242Y-114740430D01*
X137630397Y-114725652D01*
X137610028Y-114557332D01*
X137550097Y-114398729D01*
X137454064Y-114259001D01*
X137327473Y-114146212D01*
X137322734Y-114143703D01*
X137319969Y-114141781D01*
X137284876Y-114092034D01*
X137289971Y-114031367D01*
X137319521Y-113996891D01*
X137319398Y-113996747D01*
X137326680Y-113990528D01*
X137444240Y-113890121D01*
X137448323Y-113886634D01*
X137547261Y-113748947D01*
X137610501Y-113591634D01*
X137634390Y-113423778D01*
X137634545Y-113409000D01*
X137614176Y-113240680D01*
X137554245Y-113082077D01*
X137458212Y-112942349D01*
X137331621Y-112829560D01*
X137275163Y-112799667D01*
X137186524Y-112752735D01*
X137186522Y-112752734D01*
X137181781Y-112750224D01*
X137171383Y-112747612D01*
X137146936Y-112741472D01*
X137017341Y-112708919D01*
X136937546Y-112708501D01*
X136853158Y-112708059D01*
X136853157Y-112708059D01*
X136847795Y-112708031D01*
X136842580Y-112709283D01*
X136823624Y-112713834D01*
X136682932Y-112747612D01*
X136532269Y-112825375D01*
X136404504Y-112936831D01*
X136307013Y-113075547D01*
X136245424Y-113233513D01*
X136223294Y-113401611D01*
X136223882Y-113406937D01*
X136223882Y-113406939D01*
X136226061Y-113426670D01*
X136241899Y-113570135D01*
X136300166Y-113729356D01*
X136394730Y-113870083D01*
X136398698Y-113873693D01*
X136398700Y-113873696D01*
X136412919Y-113886634D01*
X136520133Y-113984191D01*
X136525924Y-113987335D01*
X136526354Y-113987821D01*
X136529223Y-113989860D01*
X136528749Y-113990528D01*
X136566265Y-114032929D01*
X136567861Y-114093787D01*
X136533487Y-114139160D01*
X136532892Y-114139565D01*
X136528121Y-114142027D01*
X136400356Y-114253483D01*
X136302865Y-114392199D01*
X136300917Y-114397195D01*
X136300916Y-114397197D01*
X136294119Y-114414631D01*
X136241276Y-114550165D01*
X136219146Y-114718263D01*
X122702500Y-114718263D01*
X122702500Y-110353611D01*
X123370894Y-110353611D01*
X123371482Y-110358937D01*
X123371482Y-110358939D01*
X123380965Y-110444831D01*
X123389499Y-110522135D01*
X123447766Y-110681356D01*
X123542330Y-110822083D01*
X123546298Y-110825693D01*
X123546300Y-110825696D01*
X123560519Y-110838634D01*
X123667733Y-110936191D01*
X123816735Y-111017092D01*
X123980733Y-111060116D01*
X124065497Y-111061448D01*
X124144892Y-111062695D01*
X124144895Y-111062695D01*
X124150260Y-111062779D01*
X124155489Y-111061581D01*
X124155493Y-111061581D01*
X124310299Y-111026126D01*
X124310300Y-111026125D01*
X124315529Y-111024928D01*
X124466998Y-110948747D01*
X124595923Y-110838634D01*
X124694861Y-110700947D01*
X124758101Y-110543634D01*
X124781990Y-110375778D01*
X124782145Y-110361000D01*
X124761776Y-110192680D01*
X124701845Y-110034077D01*
X124605812Y-109894349D01*
X124479221Y-109781560D01*
X124422763Y-109751667D01*
X124334124Y-109704735D01*
X124334122Y-109704734D01*
X124329381Y-109702224D01*
X124318983Y-109699612D01*
X124260599Y-109684947D01*
X124164941Y-109660919D01*
X124085146Y-109660501D01*
X124000758Y-109660059D01*
X124000757Y-109660059D01*
X123995395Y-109660031D01*
X123990180Y-109661283D01*
X123971224Y-109665834D01*
X123830532Y-109699612D01*
X123679869Y-109777375D01*
X123552104Y-109888831D01*
X123549018Y-109893222D01*
X123458980Y-110021334D01*
X123454613Y-110027547D01*
X123452665Y-110032543D01*
X123452664Y-110032545D01*
X123440740Y-110063129D01*
X123393024Y-110185513D01*
X123370894Y-110353611D01*
X122702500Y-110353611D01*
X122702500Y-109210611D01*
X127561894Y-109210611D01*
X127562482Y-109215937D01*
X127562482Y-109215939D01*
X127578040Y-109356857D01*
X127580499Y-109379135D01*
X127638766Y-109538356D01*
X127641761Y-109542813D01*
X127721106Y-109660891D01*
X127733330Y-109679083D01*
X127737298Y-109682693D01*
X127737300Y-109682696D01*
X127851505Y-109786614D01*
X127858733Y-109793191D01*
X128003713Y-109871908D01*
X128044052Y-109917503D01*
X128045646Y-109978362D01*
X128007748Y-110026007D01*
X128002869Y-110028756D01*
X128002635Y-110028915D01*
X127997869Y-110031375D01*
X127870104Y-110142831D01*
X127867018Y-110147222D01*
X127784857Y-110264126D01*
X127772613Y-110281547D01*
X127770665Y-110286543D01*
X127770664Y-110286545D01*
X127748855Y-110342482D01*
X127711024Y-110439513D01*
X127688894Y-110607611D01*
X127689482Y-110612937D01*
X127689482Y-110612939D01*
X127699680Y-110705308D01*
X127707499Y-110776135D01*
X127765766Y-110935356D01*
X127768761Y-110939813D01*
X127851334Y-111062695D01*
X127860330Y-111076083D01*
X127864298Y-111079693D01*
X127864300Y-111079696D01*
X127878519Y-111092634D01*
X127985733Y-111190191D01*
X128134735Y-111271092D01*
X128298733Y-111314116D01*
X128383497Y-111315448D01*
X128462892Y-111316695D01*
X128462895Y-111316695D01*
X128468260Y-111316779D01*
X128473489Y-111315581D01*
X128473493Y-111315581D01*
X128628299Y-111280126D01*
X128628300Y-111280125D01*
X128633529Y-111278928D01*
X128784998Y-111202747D01*
X128913923Y-111092634D01*
X129012861Y-110954947D01*
X129076101Y-110797634D01*
X129099990Y-110629778D01*
X129100145Y-110615000D01*
X129079776Y-110446680D01*
X129019845Y-110288077D01*
X128923812Y-110148349D01*
X128797221Y-110035560D01*
X128658807Y-109962274D01*
X128617992Y-109917103D01*
X128615761Y-109856264D01*
X128651201Y-109809489D01*
X128653204Y-109808158D01*
X128657998Y-109805747D01*
X128786923Y-109695634D01*
X128885861Y-109557947D01*
X128949101Y-109400634D01*
X128972990Y-109232778D01*
X128973145Y-109218000D01*
X128952776Y-109049680D01*
X128892845Y-108891077D01*
X128796812Y-108751349D01*
X128670221Y-108638560D01*
X128613763Y-108608667D01*
X128525124Y-108561735D01*
X128525122Y-108561734D01*
X128520381Y-108559224D01*
X128509983Y-108556612D01*
X128485536Y-108550472D01*
X128355941Y-108517919D01*
X128276146Y-108517501D01*
X128191758Y-108517059D01*
X128191757Y-108517059D01*
X128186395Y-108517031D01*
X128181180Y-108518283D01*
X128162224Y-108522834D01*
X128021532Y-108556612D01*
X127870869Y-108634375D01*
X127743104Y-108745831D01*
X127645613Y-108884547D01*
X127643665Y-108889543D01*
X127643664Y-108889545D01*
X127632119Y-108919157D01*
X127584024Y-109042513D01*
X127561894Y-109210611D01*
X122702500Y-109210611D01*
X122702500Y-108321611D01*
X123243894Y-108321611D01*
X123244482Y-108326937D01*
X123244482Y-108326939D01*
X123246661Y-108346670D01*
X123262499Y-108490135D01*
X123320766Y-108649356D01*
X123323761Y-108653813D01*
X123392273Y-108755770D01*
X123415330Y-108790083D01*
X123419298Y-108793693D01*
X123419300Y-108793696D01*
X123521462Y-108886656D01*
X123540733Y-108904191D01*
X123689735Y-108985092D01*
X123724171Y-108994126D01*
X123837011Y-109023729D01*
X123853733Y-109028116D01*
X123938497Y-109029448D01*
X124017892Y-109030695D01*
X124017895Y-109030695D01*
X124023260Y-109030779D01*
X124028489Y-109029581D01*
X124028493Y-109029581D01*
X124183299Y-108994126D01*
X124183300Y-108994125D01*
X124188529Y-108992928D01*
X124339998Y-108916747D01*
X124468923Y-108806634D01*
X124567861Y-108668947D01*
X124631101Y-108511634D01*
X124654990Y-108343778D01*
X124655145Y-108329000D01*
X124634776Y-108160680D01*
X124574845Y-108002077D01*
X124478812Y-107862349D01*
X124352221Y-107749560D01*
X124295763Y-107719667D01*
X124207124Y-107672735D01*
X124207122Y-107672734D01*
X124202381Y-107670224D01*
X124191983Y-107667612D01*
X124167536Y-107661472D01*
X124037941Y-107628919D01*
X123958146Y-107628501D01*
X123873758Y-107628059D01*
X123873757Y-107628059D01*
X123868395Y-107628031D01*
X123863180Y-107629283D01*
X123844224Y-107633834D01*
X123703532Y-107667612D01*
X123552869Y-107745375D01*
X123425104Y-107856831D01*
X123422018Y-107861222D01*
X123399655Y-107893042D01*
X123327613Y-107995547D01*
X123325665Y-108000543D01*
X123325664Y-108000545D01*
X123303855Y-108056482D01*
X123266024Y-108153513D01*
X123243894Y-108321611D01*
X122702500Y-108321611D01*
X122702500Y-106289611D01*
X123370894Y-106289611D01*
X123371482Y-106294937D01*
X123371482Y-106294939D01*
X123373661Y-106314670D01*
X123389499Y-106458135D01*
X123447766Y-106617356D01*
X123542330Y-106758083D01*
X123546298Y-106761693D01*
X123546300Y-106761696D01*
X123560519Y-106774634D01*
X123667733Y-106872191D01*
X123816735Y-106953092D01*
X123980733Y-106996116D01*
X124065497Y-106997448D01*
X124144892Y-106998695D01*
X124144895Y-106998695D01*
X124150260Y-106998779D01*
X124155489Y-106997581D01*
X124155493Y-106997581D01*
X124310299Y-106962126D01*
X124310300Y-106962125D01*
X124315529Y-106960928D01*
X124466998Y-106884747D01*
X124595923Y-106774634D01*
X124694861Y-106636947D01*
X124758101Y-106479634D01*
X124781990Y-106311778D01*
X124782145Y-106297000D01*
X124761776Y-106128680D01*
X124701845Y-105970077D01*
X124605812Y-105830349D01*
X124479221Y-105717560D01*
X124422763Y-105687667D01*
X124334124Y-105640735D01*
X124334122Y-105640734D01*
X124329381Y-105638224D01*
X124318983Y-105635612D01*
X124294536Y-105629472D01*
X124164941Y-105596919D01*
X124085146Y-105596501D01*
X124000758Y-105596059D01*
X124000757Y-105596059D01*
X123995395Y-105596031D01*
X123990180Y-105597283D01*
X123971224Y-105601834D01*
X123830532Y-105635612D01*
X123679869Y-105713375D01*
X123552104Y-105824831D01*
X123454613Y-105963547D01*
X123393024Y-106121513D01*
X123370894Y-106289611D01*
X122702500Y-106289611D01*
X122702500Y-102225611D01*
X123269294Y-102225611D01*
X123287899Y-102394135D01*
X123346166Y-102553356D01*
X123440730Y-102694083D01*
X123444698Y-102697693D01*
X123444700Y-102697696D01*
X123538998Y-102783500D01*
X123566133Y-102808191D01*
X123715135Y-102889092D01*
X123879133Y-102932116D01*
X123963896Y-102933447D01*
X124043292Y-102934695D01*
X124043295Y-102934695D01*
X124048660Y-102934779D01*
X124053889Y-102933581D01*
X124053893Y-102933581D01*
X124208699Y-102898126D01*
X124208700Y-102898125D01*
X124213929Y-102896928D01*
X124365398Y-102820747D01*
X124384040Y-102804825D01*
X124441842Y-102783500D01*
X130923609Y-102783500D01*
X130980817Y-102804322D01*
X130986542Y-102809567D01*
X131739542Y-103562567D01*
X131765270Y-103617743D01*
X131749514Y-103676548D01*
X131699644Y-103711467D01*
X131676609Y-103714500D01*
X124494799Y-103714500D01*
X124435594Y-103691951D01*
X124432427Y-103689129D01*
X124432426Y-103689128D01*
X124428421Y-103685560D01*
X124290684Y-103612632D01*
X124283324Y-103608735D01*
X124283322Y-103608734D01*
X124278581Y-103606224D01*
X124268183Y-103603612D01*
X124243736Y-103597472D01*
X124114141Y-103564919D01*
X124034346Y-103564501D01*
X123949958Y-103564059D01*
X123949957Y-103564059D01*
X123944595Y-103564031D01*
X123939380Y-103565283D01*
X123920962Y-103569705D01*
X123779732Y-103603612D01*
X123629069Y-103681375D01*
X123501304Y-103792831D01*
X123403813Y-103931547D01*
X123401865Y-103936543D01*
X123401864Y-103936545D01*
X123380055Y-103992482D01*
X123342224Y-104089513D01*
X123320094Y-104257611D01*
X123320682Y-104262937D01*
X123320682Y-104262939D01*
X123325963Y-104310770D01*
X123338699Y-104426135D01*
X123396966Y-104585356D01*
X123407048Y-104600359D01*
X123423143Y-104624311D01*
X123491530Y-104726083D01*
X123495498Y-104729693D01*
X123495500Y-104729696D01*
X123562510Y-104790670D01*
X123616933Y-104840191D01*
X123765935Y-104921092D01*
X123929933Y-104964116D01*
X124014696Y-104965447D01*
X124094092Y-104966695D01*
X124094095Y-104966695D01*
X124099460Y-104966779D01*
X124104689Y-104965581D01*
X124104693Y-104965581D01*
X124259499Y-104930126D01*
X124259500Y-104930125D01*
X124264729Y-104928928D01*
X124416198Y-104852747D01*
X124434840Y-104836825D01*
X124492642Y-104815500D01*
X131470609Y-104815500D01*
X131527817Y-104836322D01*
X131533542Y-104841567D01*
X143219801Y-116527825D01*
X143245331Y-116580992D01*
X143250540Y-116628176D01*
X143308807Y-116787397D01*
X143311802Y-116791854D01*
X143399052Y-116921696D01*
X143403371Y-116928124D01*
X143407339Y-116931734D01*
X143407341Y-116931737D01*
X143524803Y-117038619D01*
X143528774Y-117042232D01*
X143677776Y-117123133D01*
X143712212Y-117132167D01*
X143813331Y-117158695D01*
X143841774Y-117166157D01*
X143926538Y-117167489D01*
X144005933Y-117168736D01*
X144005936Y-117168736D01*
X144011301Y-117168820D01*
X144016530Y-117167622D01*
X144016534Y-117167622D01*
X144171340Y-117132167D01*
X144171341Y-117132166D01*
X144176570Y-117130969D01*
X144328039Y-117054788D01*
X144456964Y-116944675D01*
X144555902Y-116806988D01*
X144594381Y-116711270D01*
X144635038Y-116665956D01*
X144695311Y-116657379D01*
X144746996Y-116689550D01*
X144760537Y-116713880D01*
X144783766Y-116777356D01*
X144790513Y-116787397D01*
X144842843Y-116865272D01*
X144878330Y-116918083D01*
X144882298Y-116921693D01*
X144882300Y-116921696D01*
X144935989Y-116970549D01*
X145003733Y-117032191D01*
X145152735Y-117113092D01*
X145316733Y-117156116D01*
X145401497Y-117157448D01*
X145480892Y-117158695D01*
X145480895Y-117158695D01*
X145486260Y-117158779D01*
X145491489Y-117157581D01*
X145491493Y-117157581D01*
X145646299Y-117122126D01*
X145646300Y-117122125D01*
X145651529Y-117120928D01*
X145802998Y-117044747D01*
X145931923Y-116934634D01*
X146030861Y-116796947D01*
X146094101Y-116639634D01*
X146117990Y-116471778D01*
X146118145Y-116457000D01*
X146117251Y-116449611D01*
X157152894Y-116449611D01*
X157153482Y-116454937D01*
X157153482Y-116454939D01*
X157163969Y-116549925D01*
X157171499Y-116618135D01*
X157229766Y-116777356D01*
X157236513Y-116787397D01*
X157288843Y-116865272D01*
X157324330Y-116918083D01*
X157328298Y-116921693D01*
X157328300Y-116921696D01*
X157381989Y-116970549D01*
X157449733Y-117032191D01*
X157598735Y-117113092D01*
X157762733Y-117156116D01*
X157847497Y-117157448D01*
X157926892Y-117158695D01*
X157926895Y-117158695D01*
X157932260Y-117158779D01*
X157937489Y-117157581D01*
X157937493Y-117157581D01*
X158092299Y-117122126D01*
X158092300Y-117122125D01*
X158097529Y-117120928D01*
X158248998Y-117044747D01*
X158377923Y-116934634D01*
X158476861Y-116796947D01*
X158540101Y-116639634D01*
X158563990Y-116471778D01*
X158564145Y-116457000D01*
X158543776Y-116288680D01*
X158483845Y-116130077D01*
X158387812Y-115990349D01*
X158261221Y-115877560D01*
X158204763Y-115847667D01*
X158116124Y-115800735D01*
X158116122Y-115800734D01*
X158111381Y-115798224D01*
X158100983Y-115795612D01*
X158076536Y-115789472D01*
X157946941Y-115756919D01*
X157867146Y-115756501D01*
X157782758Y-115756059D01*
X157782757Y-115756059D01*
X157777395Y-115756031D01*
X157772180Y-115757283D01*
X157762704Y-115759558D01*
X157612532Y-115795612D01*
X157461869Y-115873375D01*
X157457825Y-115876903D01*
X157351133Y-115969976D01*
X157334104Y-115984831D01*
X157331018Y-115989222D01*
X157291013Y-116046144D01*
X157236613Y-116123547D01*
X157234665Y-116128543D01*
X157234664Y-116128545D01*
X157212855Y-116184482D01*
X157175024Y-116281513D01*
X157152894Y-116449611D01*
X146117251Y-116449611D01*
X146097776Y-116288680D01*
X146037845Y-116130077D01*
X145941812Y-115990349D01*
X145815221Y-115877560D01*
X145758763Y-115847667D01*
X145670124Y-115800735D01*
X145670122Y-115800734D01*
X145665381Y-115798224D01*
X145660178Y-115796917D01*
X145511448Y-115759558D01*
X145470197Y-115736172D01*
X144603497Y-114869472D01*
X159622968Y-114869472D01*
X159623556Y-114874798D01*
X159623556Y-114874800D01*
X159626667Y-114902973D01*
X159641573Y-115037996D01*
X159699840Y-115197217D01*
X159702835Y-115201674D01*
X159777911Y-115313399D01*
X159794404Y-115337944D01*
X159798372Y-115341554D01*
X159798374Y-115341557D01*
X159915836Y-115448439D01*
X159919807Y-115452052D01*
X160068809Y-115532953D01*
X160232807Y-115575977D01*
X160317571Y-115577309D01*
X160396966Y-115578556D01*
X160396969Y-115578556D01*
X160402334Y-115578640D01*
X160407563Y-115577442D01*
X160407567Y-115577442D01*
X160562373Y-115541987D01*
X160562374Y-115541986D01*
X160567603Y-115540789D01*
X160719072Y-115464608D01*
X160847997Y-115354495D01*
X160946935Y-115216808D01*
X161010175Y-115059495D01*
X161034064Y-114891639D01*
X161034219Y-114876861D01*
X161013850Y-114708541D01*
X160953919Y-114549938D01*
X160857886Y-114410210D01*
X160731295Y-114297421D01*
X160651997Y-114255435D01*
X160586198Y-114220596D01*
X160586196Y-114220595D01*
X160581455Y-114218085D01*
X160571057Y-114215473D01*
X160546610Y-114209333D01*
X160417015Y-114176780D01*
X160337220Y-114176362D01*
X160252832Y-114175920D01*
X160252831Y-114175920D01*
X160247469Y-114175892D01*
X160242254Y-114177144D01*
X160223298Y-114181695D01*
X160082606Y-114215473D01*
X159931943Y-114293236D01*
X159927899Y-114296764D01*
X159811014Y-114398729D01*
X159804178Y-114404692D01*
X159706687Y-114543408D01*
X159704739Y-114548404D01*
X159704738Y-114548406D01*
X159703215Y-114552313D01*
X159645098Y-114701374D01*
X159622968Y-114869472D01*
X144603497Y-114869472D01*
X139852330Y-110118305D01*
X139826602Y-110063129D01*
X139842358Y-110004324D01*
X139875273Y-109975862D01*
X139919513Y-109953612D01*
X139960998Y-109932747D01*
X140089923Y-109822634D01*
X140188861Y-109684947D01*
X140226382Y-109591611D01*
X167820894Y-109591611D01*
X167821482Y-109596937D01*
X167821482Y-109596939D01*
X167833106Y-109702224D01*
X167839499Y-109760135D01*
X167897766Y-109919356D01*
X167900761Y-109923813D01*
X167978248Y-110039126D01*
X167992330Y-110060083D01*
X167996298Y-110063693D01*
X167996300Y-110063696D01*
X168113762Y-110170578D01*
X168117733Y-110174191D01*
X168266735Y-110255092D01*
X168301171Y-110264126D01*
X168392467Y-110288077D01*
X168430733Y-110298116D01*
X168515496Y-110299447D01*
X168594892Y-110300695D01*
X168594895Y-110300695D01*
X168600260Y-110300779D01*
X168605489Y-110299581D01*
X168605493Y-110299581D01*
X168760299Y-110264126D01*
X168760300Y-110264125D01*
X168765529Y-110262928D01*
X168916998Y-110186747D01*
X169045923Y-110076634D01*
X169144861Y-109938947D01*
X169208101Y-109781634D01*
X169231990Y-109613778D01*
X169232145Y-109599000D01*
X169211776Y-109430680D01*
X169151845Y-109272077D01*
X169055812Y-109132349D01*
X168929221Y-109019560D01*
X168859291Y-108982534D01*
X168784124Y-108942735D01*
X168784122Y-108942734D01*
X168779381Y-108940224D01*
X168768983Y-108937612D01*
X168744536Y-108931472D01*
X168614941Y-108898919D01*
X168535146Y-108898501D01*
X168450758Y-108898059D01*
X168450757Y-108898059D01*
X168445395Y-108898031D01*
X168440180Y-108899283D01*
X168434786Y-108900578D01*
X168280532Y-108937612D01*
X168129869Y-109015375D01*
X168002104Y-109126831D01*
X167999018Y-109131222D01*
X167938030Y-109218000D01*
X167904613Y-109265547D01*
X167843024Y-109423513D01*
X167820894Y-109591611D01*
X140226382Y-109591611D01*
X140252101Y-109527634D01*
X140275990Y-109359778D01*
X140276145Y-109345000D01*
X140255776Y-109176680D01*
X140195845Y-109018077D01*
X140178561Y-108992928D01*
X140136653Y-108931953D01*
X140121000Y-108881542D01*
X140121000Y-104765611D01*
X146484894Y-104765611D01*
X146485482Y-104770937D01*
X146485482Y-104770939D01*
X146501777Y-104918534D01*
X146503499Y-104934135D01*
X146561766Y-105093356D01*
X146656330Y-105234083D01*
X146660298Y-105237693D01*
X146660300Y-105237696D01*
X146674519Y-105250634D01*
X146781733Y-105348191D01*
X146930735Y-105429092D01*
X147094733Y-105472116D01*
X147179497Y-105473448D01*
X147258892Y-105474695D01*
X147258895Y-105474695D01*
X147264260Y-105474779D01*
X147269489Y-105473581D01*
X147269493Y-105473581D01*
X147424299Y-105438126D01*
X147424300Y-105438125D01*
X147429529Y-105436928D01*
X147580998Y-105360747D01*
X147709923Y-105250634D01*
X147808861Y-105112947D01*
X147872101Y-104955634D01*
X147895990Y-104787778D01*
X147896145Y-104773000D01*
X147875776Y-104604680D01*
X147815845Y-104446077D01*
X147719812Y-104306349D01*
X147593221Y-104193560D01*
X147448649Y-104117013D01*
X147448124Y-104116735D01*
X147448122Y-104116734D01*
X147443381Y-104114224D01*
X147432983Y-104111612D01*
X147404732Y-104104516D01*
X147278941Y-104072919D01*
X147199146Y-104072501D01*
X147114758Y-104072059D01*
X147114757Y-104072059D01*
X147109395Y-104072031D01*
X147104180Y-104073283D01*
X147085224Y-104077834D01*
X146944532Y-104111612D01*
X146793869Y-104189375D01*
X146789825Y-104192903D01*
X146676388Y-104291860D01*
X146666104Y-104300831D01*
X146568613Y-104439547D01*
X146507024Y-104597513D01*
X146484894Y-104765611D01*
X140121000Y-104765611D01*
X140121000Y-104326691D01*
X140141822Y-104269483D01*
X140147067Y-104263758D01*
X145604938Y-98805887D01*
X145660114Y-98780159D01*
X145718919Y-98795915D01*
X145741742Y-98819181D01*
X145786748Y-98886157D01*
X145822278Y-98939031D01*
X145826246Y-98942641D01*
X145826248Y-98942644D01*
X145916606Y-99024863D01*
X145947681Y-99053139D01*
X146096683Y-99134040D01*
X146214521Y-99164954D01*
X146240254Y-99171705D01*
X146260681Y-99177064D01*
X146345445Y-99178396D01*
X146424840Y-99179643D01*
X146424843Y-99179643D01*
X146430208Y-99179727D01*
X146435437Y-99178529D01*
X146435441Y-99178529D01*
X146590247Y-99143074D01*
X146590248Y-99143073D01*
X146595477Y-99141876D01*
X146746946Y-99065695D01*
X146875871Y-98955582D01*
X146909510Y-98908768D01*
X146918765Y-98895889D01*
X146969057Y-98861582D01*
X147029636Y-98867628D01*
X147035718Y-98871218D01*
X147035733Y-98871191D01*
X147184735Y-98952092D01*
X147348733Y-98995116D01*
X147433497Y-98996448D01*
X147512892Y-98997695D01*
X147512895Y-98997695D01*
X147518260Y-98997779D01*
X147523489Y-98996581D01*
X147523493Y-98996581D01*
X147678299Y-98961126D01*
X147678300Y-98961125D01*
X147683529Y-98959928D01*
X147834998Y-98883747D01*
X147963923Y-98773634D01*
X148062861Y-98635947D01*
X148126101Y-98478634D01*
X148149990Y-98310778D01*
X148150145Y-98296000D01*
X148141435Y-98224028D01*
X150422525Y-98224028D01*
X150459847Y-98467930D01*
X150536503Y-98702460D01*
X150650435Y-98921321D01*
X150798583Y-99118636D01*
X150976968Y-99289104D01*
X151180800Y-99428149D01*
X151404604Y-99532035D01*
X151408121Y-99533010D01*
X151408120Y-99533010D01*
X151638854Y-99596999D01*
X151638858Y-99597000D01*
X151642371Y-99597974D01*
X151645996Y-99598361D01*
X151645999Y-99598362D01*
X151841434Y-99619248D01*
X151843792Y-99619500D01*
X151987054Y-99619500D01*
X152170411Y-99604425D01*
X152409717Y-99544316D01*
X152413061Y-99542862D01*
X152413064Y-99542861D01*
X152632638Y-99447387D01*
X152632640Y-99447386D01*
X152635993Y-99445928D01*
X152666653Y-99426093D01*
X152840096Y-99313888D01*
X152840097Y-99313887D01*
X152843161Y-99311905D01*
X153025658Y-99145846D01*
X153091708Y-99062212D01*
X153176320Y-98955075D01*
X153176323Y-98955070D01*
X153178582Y-98952210D01*
X153297827Y-98736198D01*
X153380191Y-98503610D01*
X153423461Y-98260694D01*
X153426475Y-98013972D01*
X153389153Y-97770070D01*
X153312497Y-97535540D01*
X153198565Y-97316679D01*
X153050417Y-97119364D01*
X152872032Y-96948896D01*
X152668200Y-96809851D01*
X152444396Y-96705965D01*
X152396910Y-96692796D01*
X152210146Y-96641001D01*
X152210142Y-96641000D01*
X152206629Y-96640026D01*
X152203004Y-96639639D01*
X152203001Y-96639638D01*
X152007566Y-96618752D01*
X152005208Y-96618500D01*
X151861946Y-96618500D01*
X151678589Y-96633575D01*
X151439283Y-96693684D01*
X151435939Y-96695138D01*
X151435936Y-96695139D01*
X151351627Y-96731798D01*
X151213007Y-96792072D01*
X151005839Y-96926095D01*
X150823342Y-97092154D01*
X150801853Y-97119364D01*
X150672680Y-97282925D01*
X150672677Y-97282930D01*
X150670418Y-97285790D01*
X150551173Y-97501802D01*
X150549953Y-97505248D01*
X150473086Y-97722313D01*
X150468809Y-97734390D01*
X150468169Y-97737984D01*
X150468168Y-97737987D01*
X150463071Y-97766601D01*
X150425539Y-97977306D01*
X150422525Y-98224028D01*
X148141435Y-98224028D01*
X148129776Y-98127680D01*
X148069845Y-97969077D01*
X147973812Y-97829349D01*
X147847221Y-97716560D01*
X147790763Y-97686667D01*
X147702124Y-97639735D01*
X147702122Y-97639734D01*
X147697381Y-97637224D01*
X147686983Y-97634612D01*
X147662536Y-97628472D01*
X147532941Y-97595919D01*
X147453146Y-97595501D01*
X147368758Y-97595059D01*
X147368757Y-97595059D01*
X147363395Y-97595031D01*
X147358180Y-97596283D01*
X147339224Y-97600834D01*
X147198532Y-97634612D01*
X147047869Y-97712375D01*
X146920104Y-97823831D01*
X146882566Y-97877242D01*
X146832638Y-97912072D01*
X146772000Y-97906661D01*
X146761584Y-97900660D01*
X146759169Y-97898508D01*
X146754426Y-97895997D01*
X146754422Y-97895994D01*
X146704264Y-97869437D01*
X146663448Y-97824266D01*
X146661217Y-97763428D01*
X146682976Y-97727849D01*
X149729258Y-94681567D01*
X149784434Y-94655839D01*
X149792191Y-94655500D01*
X159166167Y-94655500D01*
X159217931Y-94675528D01*
X159219392Y-94673472D01*
X159223762Y-94676578D01*
X159227733Y-94680191D01*
X159376735Y-94761092D01*
X159411171Y-94770126D01*
X159530049Y-94801313D01*
X159540733Y-94804116D01*
X159625497Y-94805448D01*
X159704892Y-94806695D01*
X159704895Y-94806695D01*
X159710260Y-94806779D01*
X159715489Y-94805581D01*
X159715493Y-94805581D01*
X159870299Y-94770126D01*
X159870300Y-94770125D01*
X159875529Y-94768928D01*
X160026998Y-94692747D01*
X160155923Y-94582634D01*
X160194726Y-94528633D01*
X160245017Y-94494328D01*
X160305595Y-94500374D01*
X160348115Y-94543945D01*
X160356000Y-94580570D01*
X160356000Y-96943827D01*
X160339815Y-96995002D01*
X160284613Y-97073547D01*
X160282665Y-97078543D01*
X160282664Y-97078545D01*
X160265611Y-97122284D01*
X160223024Y-97231513D01*
X160200894Y-97399611D01*
X160201482Y-97404937D01*
X160201482Y-97404939D01*
X160215901Y-97535540D01*
X160219499Y-97568135D01*
X160277766Y-97727356D01*
X160280761Y-97731813D01*
X160349273Y-97833770D01*
X160372330Y-97868083D01*
X160376298Y-97871693D01*
X160376300Y-97871696D01*
X160420673Y-97912072D01*
X160497733Y-97982191D01*
X160646735Y-98063092D01*
X160809599Y-98105818D01*
X160849947Y-98128972D01*
X162146932Y-99425957D01*
X162172660Y-99481133D01*
X162172999Y-99488890D01*
X162172999Y-103816830D01*
X162156814Y-103868005D01*
X162108644Y-103936545D01*
X162101612Y-103946550D01*
X162040023Y-104104516D01*
X162017893Y-104272614D01*
X162018481Y-104277940D01*
X162018481Y-104277942D01*
X162035838Y-104435157D01*
X162036498Y-104441138D01*
X162094765Y-104600359D01*
X162189329Y-104741086D01*
X162193297Y-104744696D01*
X162193299Y-104744699D01*
X162298244Y-104840191D01*
X162314732Y-104855194D01*
X162463734Y-104936095D01*
X162627732Y-104979119D01*
X162712496Y-104980451D01*
X162791891Y-104981698D01*
X162791894Y-104981698D01*
X162797259Y-104981782D01*
X162802488Y-104980584D01*
X162802492Y-104980584D01*
X162957298Y-104945129D01*
X162957299Y-104945128D01*
X162962528Y-104943931D01*
X163113997Y-104867750D01*
X163242922Y-104757637D01*
X163341860Y-104619950D01*
X163405100Y-104462637D01*
X163428989Y-104294781D01*
X163429144Y-104280003D01*
X163408775Y-104111683D01*
X163348844Y-103953080D01*
X163331028Y-103927157D01*
X163289652Y-103866956D01*
X163273999Y-103816545D01*
X163273999Y-99238230D01*
X163274077Y-99234503D01*
X163276455Y-99177769D01*
X163276455Y-99177768D01*
X163276709Y-99171705D01*
X163266375Y-99127647D01*
X163264849Y-99119409D01*
X163259530Y-99080581D01*
X163259528Y-99080573D01*
X163258705Y-99074567D01*
X163251423Y-99057739D01*
X163246454Y-99042714D01*
X163243654Y-99030773D01*
X163243652Y-99030767D01*
X163242267Y-99024863D01*
X163220464Y-98985203D01*
X163216776Y-98977675D01*
X163215948Y-98975762D01*
X163198804Y-98936144D01*
X163187267Y-98921896D01*
X163178445Y-98908768D01*
X163171852Y-98896776D01*
X163171851Y-98896775D01*
X163169606Y-98892691D01*
X163163966Y-98886157D01*
X163163666Y-98885809D01*
X163163658Y-98885801D01*
X163162602Y-98884577D01*
X163136687Y-98858662D01*
X163130454Y-98851738D01*
X163107706Y-98823647D01*
X163107704Y-98823645D01*
X163103885Y-98818929D01*
X163086023Y-98806235D01*
X163074647Y-98796622D01*
X162383843Y-98105818D01*
X161623842Y-97345818D01*
X161598419Y-97293577D01*
X161592421Y-97244010D01*
X161591776Y-97238680D01*
X161531845Y-97080077D01*
X161472653Y-96993953D01*
X161457000Y-96943542D01*
X161457000Y-95756000D01*
X166902896Y-95756000D01*
X166923279Y-96014994D01*
X166983927Y-96267610D01*
X167083346Y-96507628D01*
X167085174Y-96510611D01*
X167085176Y-96510615D01*
X167156579Y-96627135D01*
X167219088Y-96729140D01*
X167387811Y-96926689D01*
X167585360Y-97095412D01*
X167687365Y-97157921D01*
X167803885Y-97229324D01*
X167803889Y-97229326D01*
X167806872Y-97231154D01*
X168046890Y-97330573D01*
X168299506Y-97391221D01*
X168302986Y-97391495D01*
X168302987Y-97391495D01*
X168491900Y-97406363D01*
X168491912Y-97406363D01*
X168493647Y-97406500D01*
X168623353Y-97406500D01*
X168625088Y-97406363D01*
X168625100Y-97406363D01*
X168814013Y-97391495D01*
X168814014Y-97391495D01*
X168817494Y-97391221D01*
X169070110Y-97330573D01*
X169310128Y-97231154D01*
X169313111Y-97229326D01*
X169313115Y-97229324D01*
X169429635Y-97157921D01*
X169531640Y-97095412D01*
X169729189Y-96926689D01*
X169897912Y-96729140D01*
X169960421Y-96627135D01*
X170031824Y-96510615D01*
X170031826Y-96510611D01*
X170033654Y-96507628D01*
X170133073Y-96267610D01*
X170193721Y-96014994D01*
X170214104Y-95756000D01*
X170193721Y-95497006D01*
X170133073Y-95244390D01*
X170033654Y-95004372D01*
X170025165Y-94990518D01*
X169926988Y-94830308D01*
X169897912Y-94782860D01*
X169729189Y-94585311D01*
X169531640Y-94416588D01*
X169362046Y-94312661D01*
X169313115Y-94282676D01*
X169313111Y-94282674D01*
X169310128Y-94280846D01*
X169070110Y-94181427D01*
X168847742Y-94128041D01*
X168796976Y-94094439D01*
X168779685Y-94036067D01*
X168803961Y-93980236D01*
X168847742Y-93954959D01*
X169070110Y-93901573D01*
X169310128Y-93802154D01*
X169313111Y-93800326D01*
X169313115Y-93800324D01*
X169450563Y-93716096D01*
X169531640Y-93666412D01*
X169729189Y-93497689D01*
X169897912Y-93300140D01*
X170033654Y-93078628D01*
X170133073Y-92838610D01*
X170193721Y-92585994D01*
X170198854Y-92520779D01*
X170213830Y-92330482D01*
X170214104Y-92327000D01*
X170193721Y-92068006D01*
X170133073Y-91815390D01*
X170033654Y-91575372D01*
X170001636Y-91523122D01*
X169957737Y-91451486D01*
X169897912Y-91353860D01*
X169729189Y-91156311D01*
X169531640Y-90987588D01*
X169393802Y-90903121D01*
X169313115Y-90853676D01*
X169313111Y-90853674D01*
X169310128Y-90851846D01*
X169070110Y-90752427D01*
X168847742Y-90699041D01*
X168796976Y-90665439D01*
X168779685Y-90607067D01*
X168803961Y-90551236D01*
X168847742Y-90525959D01*
X169070110Y-90472573D01*
X169310128Y-90373154D01*
X169313111Y-90371326D01*
X169313115Y-90371324D01*
X169472749Y-90273500D01*
X169531640Y-90237412D01*
X169729189Y-90068689D01*
X169897912Y-89871140D01*
X169970470Y-89752735D01*
X170031824Y-89652615D01*
X170031826Y-89652611D01*
X170033654Y-89649628D01*
X170133073Y-89409610D01*
X170193721Y-89156994D01*
X170214104Y-88898000D01*
X170208488Y-88826639D01*
X170193995Y-88642487D01*
X170193995Y-88642486D01*
X170193721Y-88639006D01*
X170133073Y-88386390D01*
X170033654Y-88146372D01*
X170005244Y-88100010D01*
X169937389Y-87989281D01*
X169897912Y-87924860D01*
X169729189Y-87727311D01*
X169531640Y-87558588D01*
X169386039Y-87469364D01*
X169313115Y-87424676D01*
X169313111Y-87424674D01*
X169310128Y-87422846D01*
X169070110Y-87323427D01*
X168817494Y-87262779D01*
X168814014Y-87262505D01*
X168814013Y-87262505D01*
X168638931Y-87248726D01*
X168583533Y-87223479D01*
X168557324Y-87168530D01*
X168572567Y-87109590D01*
X168622130Y-87074237D01*
X168638931Y-87071274D01*
X168814013Y-87057495D01*
X168814014Y-87057495D01*
X168817494Y-87057221D01*
X169070110Y-86996573D01*
X169310128Y-86897154D01*
X169313111Y-86895326D01*
X169313115Y-86895324D01*
X169431254Y-86822928D01*
X169531640Y-86761412D01*
X169729189Y-86592689D01*
X169897912Y-86395140D01*
X170033654Y-86173628D01*
X170133073Y-85933610D01*
X170193721Y-85680994D01*
X170206021Y-85524712D01*
X170213830Y-85425482D01*
X170214104Y-85422000D01*
X170209388Y-85362077D01*
X170193995Y-85166487D01*
X170193995Y-85166486D01*
X170193721Y-85163006D01*
X170133073Y-84910390D01*
X170033654Y-84670372D01*
X170021132Y-84649937D01*
X169899739Y-84451842D01*
X169897912Y-84448860D01*
X169729189Y-84251311D01*
X169531640Y-84082588D01*
X169387899Y-83994504D01*
X169313115Y-83948676D01*
X169313111Y-83948674D01*
X169310128Y-83946846D01*
X169070110Y-83847427D01*
X168817494Y-83786779D01*
X168814014Y-83786505D01*
X168814013Y-83786505D01*
X168625100Y-83771637D01*
X168625088Y-83771637D01*
X168623353Y-83771500D01*
X168493647Y-83771500D01*
X168491912Y-83771637D01*
X168491900Y-83771637D01*
X168302987Y-83786505D01*
X168302986Y-83786505D01*
X168299506Y-83786779D01*
X168046890Y-83847427D01*
X167806872Y-83946846D01*
X167803889Y-83948674D01*
X167803885Y-83948676D01*
X167729101Y-83994504D01*
X167585360Y-84082588D01*
X167387811Y-84251311D01*
X167219088Y-84448860D01*
X167217261Y-84451842D01*
X167095869Y-84649937D01*
X167083346Y-84670372D01*
X166983927Y-84910390D01*
X166923279Y-85163006D01*
X166923005Y-85166486D01*
X166923005Y-85166487D01*
X166907612Y-85362077D01*
X166902896Y-85422000D01*
X166903170Y-85425482D01*
X166910980Y-85524712D01*
X166923279Y-85680994D01*
X166983927Y-85933610D01*
X167083346Y-86173628D01*
X167219088Y-86395140D01*
X167387811Y-86592689D01*
X167585360Y-86761412D01*
X167685746Y-86822928D01*
X167803885Y-86895324D01*
X167803889Y-86895326D01*
X167806872Y-86897154D01*
X168046890Y-86996573D01*
X168299506Y-87057221D01*
X168302986Y-87057495D01*
X168302987Y-87057495D01*
X168478069Y-87071274D01*
X168533467Y-87096521D01*
X168559676Y-87151470D01*
X168544433Y-87210410D01*
X168494870Y-87245763D01*
X168478069Y-87248726D01*
X168302987Y-87262505D01*
X168302986Y-87262505D01*
X168299506Y-87262779D01*
X168046890Y-87323427D01*
X167806872Y-87422846D01*
X167803889Y-87424674D01*
X167803885Y-87424676D01*
X167730961Y-87469364D01*
X167585360Y-87558588D01*
X167387811Y-87727311D01*
X167219088Y-87924860D01*
X167179611Y-87989281D01*
X167111757Y-88100010D01*
X167083346Y-88146372D01*
X166983927Y-88386390D01*
X166923279Y-88639006D01*
X166923005Y-88642486D01*
X166923005Y-88642487D01*
X166908512Y-88826639D01*
X166902896Y-88898000D01*
X166923279Y-89156994D01*
X166983927Y-89409610D01*
X167083346Y-89649628D01*
X167085174Y-89652611D01*
X167085176Y-89652615D01*
X167146530Y-89752735D01*
X167219088Y-89871140D01*
X167387811Y-90068689D01*
X167585360Y-90237412D01*
X167644251Y-90273500D01*
X167803885Y-90371324D01*
X167803889Y-90371326D01*
X167806872Y-90373154D01*
X168046890Y-90472573D01*
X168269258Y-90525959D01*
X168320024Y-90559561D01*
X168337315Y-90617933D01*
X168313039Y-90673764D01*
X168269258Y-90699041D01*
X168046890Y-90752427D01*
X167806872Y-90851846D01*
X167803889Y-90853674D01*
X167803885Y-90853676D01*
X167723198Y-90903121D01*
X167585360Y-90987588D01*
X167387811Y-91156311D01*
X167219088Y-91353860D01*
X167159263Y-91451486D01*
X167115365Y-91523122D01*
X167083346Y-91575372D01*
X166983927Y-91815390D01*
X166923279Y-92068006D01*
X166902896Y-92327000D01*
X166903170Y-92330482D01*
X166918147Y-92520779D01*
X166923279Y-92585994D01*
X166983927Y-92838610D01*
X167083346Y-93078628D01*
X167219088Y-93300140D01*
X167387811Y-93497689D01*
X167585360Y-93666412D01*
X167666437Y-93716096D01*
X167803885Y-93800324D01*
X167803889Y-93800326D01*
X167806872Y-93802154D01*
X168046890Y-93901573D01*
X168269258Y-93954959D01*
X168320024Y-93988561D01*
X168337315Y-94046933D01*
X168313039Y-94102764D01*
X168269258Y-94128041D01*
X168046890Y-94181427D01*
X167806872Y-94280846D01*
X167803889Y-94282674D01*
X167803885Y-94282676D01*
X167754954Y-94312661D01*
X167585360Y-94416588D01*
X167387811Y-94585311D01*
X167219088Y-94782860D01*
X167190012Y-94830308D01*
X167091836Y-94990518D01*
X167083346Y-95004372D01*
X166983927Y-95244390D01*
X166923279Y-95497006D01*
X166902896Y-95756000D01*
X161457000Y-95756000D01*
X161457000Y-83998231D01*
X161457078Y-83994504D01*
X161459456Y-83937770D01*
X161459456Y-83937769D01*
X161459710Y-83931706D01*
X161449376Y-83887648D01*
X161447850Y-83879410D01*
X161442531Y-83840582D01*
X161442529Y-83840574D01*
X161441706Y-83834568D01*
X161434424Y-83817740D01*
X161429455Y-83802715D01*
X161426655Y-83790774D01*
X161426653Y-83790768D01*
X161425268Y-83784864D01*
X161403465Y-83745204D01*
X161399777Y-83737676D01*
X161394350Y-83725135D01*
X161381805Y-83696145D01*
X161371839Y-83683837D01*
X161370268Y-83681897D01*
X161361446Y-83668769D01*
X161354853Y-83656777D01*
X161354852Y-83656776D01*
X161352607Y-83652692D01*
X161349561Y-83649163D01*
X161346667Y-83645810D01*
X161346659Y-83645802D01*
X161345603Y-83644578D01*
X161319688Y-83618663D01*
X161313455Y-83611739D01*
X161290707Y-83583648D01*
X161290705Y-83583646D01*
X161286886Y-83578930D01*
X161269024Y-83566236D01*
X161257648Y-83556623D01*
X159491044Y-81790020D01*
X158957677Y-81256653D01*
X158931948Y-81201477D01*
X158947704Y-81142672D01*
X158980620Y-81114210D01*
X159015895Y-81096469D01*
X159015897Y-81096467D01*
X159020686Y-81094059D01*
X159149611Y-80983946D01*
X159248549Y-80846259D01*
X159311789Y-80688946D01*
X159335678Y-80521090D01*
X159335732Y-80516000D01*
X159335802Y-80509221D01*
X159335833Y-80506312D01*
X159315464Y-80337992D01*
X159255533Y-80179389D01*
X159159500Y-80039661D01*
X159032909Y-79926872D01*
X158906109Y-79859735D01*
X158887812Y-79850047D01*
X158887810Y-79850046D01*
X158883069Y-79847536D01*
X158872671Y-79844924D01*
X158831812Y-79834661D01*
X158718629Y-79806231D01*
X158638834Y-79805813D01*
X158554446Y-79805371D01*
X158554445Y-79805371D01*
X158549083Y-79805343D01*
X158543868Y-79806595D01*
X158531518Y-79809560D01*
X158384220Y-79844924D01*
X158233557Y-79922687D01*
X158204663Y-79947893D01*
X158160572Y-79986356D01*
X158105792Y-80034143D01*
X158057442Y-80102939D01*
X158013703Y-80165173D01*
X157963773Y-80200005D01*
X157903134Y-80194594D01*
X157877955Y-80176931D01*
X157305841Y-79604817D01*
X157280419Y-79552576D01*
X157274421Y-79503010D01*
X157273776Y-79497680D01*
X157213845Y-79339077D01*
X157117812Y-79199349D01*
X156991221Y-79086560D01*
X156886974Y-79031364D01*
X156846124Y-79009735D01*
X156846122Y-79009734D01*
X156841381Y-79007224D01*
X156835406Y-79005723D01*
X156802454Y-78997446D01*
X156676941Y-78965919D01*
X156597146Y-78965501D01*
X156512758Y-78965059D01*
X156512757Y-78965059D01*
X156507395Y-78965031D01*
X156502180Y-78966283D01*
X156483224Y-78970834D01*
X156342532Y-79004612D01*
X156191869Y-79082375D01*
X156187825Y-79085903D01*
X156077012Y-79182571D01*
X156064104Y-79193831D01*
X156061018Y-79198222D01*
X155981023Y-79312044D01*
X155966613Y-79332547D01*
X155905024Y-79490513D01*
X155882894Y-79658611D01*
X155883482Y-79663937D01*
X155883482Y-79663939D01*
X155900513Y-79818200D01*
X155901499Y-79827135D01*
X155959766Y-79986356D01*
X155962761Y-79990813D01*
X156050072Y-80120746D01*
X156054330Y-80127083D01*
X156058298Y-80130693D01*
X156058300Y-80130696D01*
X156163049Y-80226010D01*
X156179733Y-80241191D01*
X156328735Y-80322092D01*
X156491599Y-80364818D01*
X156531947Y-80387972D01*
X160329933Y-84185958D01*
X160355661Y-84241134D01*
X160356000Y-84248891D01*
X160356000Y-93628448D01*
X160335178Y-93685656D01*
X160282455Y-93716096D01*
X160222500Y-93705524D01*
X160193653Y-93678858D01*
X160183538Y-93664141D01*
X160165812Y-93638349D01*
X160039221Y-93525560D01*
X159908283Y-93456232D01*
X159894124Y-93448735D01*
X159894122Y-93448734D01*
X159889381Y-93446224D01*
X159878983Y-93443612D01*
X159788961Y-93421000D01*
X159724941Y-93404919D01*
X159645146Y-93404501D01*
X159560758Y-93404059D01*
X159560757Y-93404059D01*
X159555395Y-93404031D01*
X159550180Y-93405283D01*
X159531224Y-93409834D01*
X159390532Y-93443612D01*
X159239869Y-93521375D01*
X159235825Y-93524903D01*
X159227038Y-93532568D01*
X159168533Y-93554500D01*
X149801190Y-93554500D01*
X149743982Y-93533678D01*
X149713542Y-93480955D01*
X149724114Y-93421000D01*
X149738257Y-93402567D01*
X151837258Y-91303566D01*
X151892434Y-91277838D01*
X151900191Y-91277499D01*
X158328166Y-91277499D01*
X158379930Y-91297527D01*
X158381391Y-91295471D01*
X158385761Y-91298577D01*
X158389732Y-91302190D01*
X158538734Y-91383091D01*
X158702732Y-91426115D01*
X158787496Y-91427447D01*
X158866891Y-91428694D01*
X158866894Y-91428694D01*
X158872259Y-91428778D01*
X158877488Y-91427580D01*
X158877492Y-91427580D01*
X159032298Y-91392125D01*
X159032299Y-91392124D01*
X159037528Y-91390927D01*
X159188997Y-91314746D01*
X159317922Y-91204633D01*
X159416860Y-91066946D01*
X159480100Y-90909633D01*
X159503989Y-90741777D01*
X159504144Y-90726999D01*
X159483775Y-90558679D01*
X159423844Y-90400076D01*
X159327811Y-90260348D01*
X159201220Y-90147559D01*
X159102099Y-90095077D01*
X159056123Y-90070734D01*
X159056121Y-90070733D01*
X159051380Y-90068223D01*
X159040982Y-90065611D01*
X159016535Y-90059471D01*
X158886940Y-90026918D01*
X158807145Y-90026500D01*
X158722757Y-90026058D01*
X158722756Y-90026058D01*
X158717394Y-90026030D01*
X158712179Y-90027282D01*
X158693223Y-90031833D01*
X158552531Y-90065611D01*
X158401868Y-90143374D01*
X158397824Y-90146902D01*
X158389037Y-90154567D01*
X158330532Y-90176499D01*
X151649532Y-90176499D01*
X151645805Y-90176421D01*
X151589071Y-90174043D01*
X151589070Y-90174043D01*
X151583007Y-90173789D01*
X151538949Y-90184123D01*
X151530711Y-90185649D01*
X151491883Y-90190968D01*
X151491875Y-90190970D01*
X151485869Y-90191793D01*
X151469041Y-90199075D01*
X151454016Y-90204044D01*
X151442075Y-90206844D01*
X151442069Y-90206846D01*
X151436165Y-90208231D01*
X151430848Y-90211154D01*
X151396505Y-90230034D01*
X151388976Y-90233722D01*
X151347446Y-90251694D01*
X151345929Y-90252922D01*
X151287812Y-90264431D01*
X151234463Y-90235102D01*
X151228080Y-90226888D01*
X151199347Y-90185082D01*
X151133537Y-90089328D01*
X151006946Y-89976539D01*
X150935637Y-89938783D01*
X150861849Y-89899714D01*
X150861847Y-89899713D01*
X150857106Y-89897203D01*
X150846708Y-89894591D01*
X150822261Y-89888451D01*
X150692666Y-89855898D01*
X150612871Y-89855480D01*
X150528483Y-89855038D01*
X150528482Y-89855038D01*
X150523120Y-89855010D01*
X150517905Y-89856262D01*
X150498949Y-89860813D01*
X150358257Y-89894591D01*
X150207594Y-89972354D01*
X150203550Y-89975882D01*
X150097163Y-90068689D01*
X150079829Y-90083810D01*
X150076743Y-90088201D01*
X149992385Y-90208231D01*
X149982338Y-90222526D01*
X149980390Y-90227522D01*
X149980389Y-90227524D01*
X149922698Y-90375493D01*
X149920749Y-90380492D01*
X149920049Y-90385807D01*
X149920049Y-90385808D01*
X149912497Y-90443173D01*
X149887191Y-90494488D01*
X144313248Y-96068432D01*
X144258072Y-96094161D01*
X144250315Y-96094500D01*
X132091731Y-96094500D01*
X132088004Y-96094422D01*
X132031270Y-96092044D01*
X132031269Y-96092044D01*
X132025206Y-96091790D01*
X131981148Y-96102124D01*
X131972910Y-96103650D01*
X131934082Y-96108969D01*
X131934074Y-96108971D01*
X131928068Y-96109794D01*
X131911240Y-96117076D01*
X131896215Y-96122045D01*
X131884271Y-96124846D01*
X131884267Y-96124847D01*
X131878364Y-96126232D01*
X131838698Y-96148039D01*
X131831189Y-96151718D01*
X131789645Y-96169695D01*
X131784928Y-96173514D01*
X131784929Y-96173514D01*
X131775394Y-96181235D01*
X131762264Y-96190058D01*
X131750284Y-96196644D01*
X131750281Y-96196646D01*
X131746192Y-96198894D01*
X131742661Y-96201942D01*
X131742658Y-96201944D01*
X131739310Y-96204834D01*
X131739302Y-96204842D01*
X131738078Y-96205898D01*
X131712169Y-96231807D01*
X131705246Y-96238040D01*
X131672430Y-96264614D01*
X131659731Y-96282483D01*
X131650124Y-96293852D01*
X128589815Y-99354161D01*
X128547659Y-99377769D01*
X128474999Y-99395214D01*
X128402532Y-99412612D01*
X128251869Y-99490375D01*
X128124104Y-99601831D01*
X128026613Y-99740547D01*
X127965024Y-99898513D01*
X127942894Y-100066611D01*
X127943482Y-100071937D01*
X127943482Y-100071939D01*
X127956086Y-100186100D01*
X127961499Y-100235135D01*
X128019766Y-100394356D01*
X128114330Y-100535083D01*
X128118298Y-100538693D01*
X128118300Y-100538696D01*
X128132519Y-100551634D01*
X128239733Y-100649191D01*
X128388735Y-100730092D01*
X128552733Y-100773116D01*
X128637496Y-100774447D01*
X128716892Y-100775695D01*
X128716895Y-100775695D01*
X128722260Y-100775779D01*
X128727489Y-100774581D01*
X128727493Y-100774581D01*
X128882299Y-100739126D01*
X128882300Y-100739125D01*
X128887529Y-100737928D01*
X129038998Y-100661747D01*
X129167923Y-100551634D01*
X129266861Y-100413947D01*
X129330101Y-100256634D01*
X129340139Y-100186100D01*
X129365318Y-100135707D01*
X132279456Y-97221568D01*
X132334632Y-97195839D01*
X132342389Y-97195500D01*
X144173410Y-97195500D01*
X144230618Y-97216322D01*
X144261058Y-97269045D01*
X144250486Y-97329000D01*
X144236343Y-97347433D01*
X138341289Y-103242487D01*
X138338599Y-103245066D01*
X138292334Y-103287609D01*
X138289140Y-103292760D01*
X138289137Y-103292764D01*
X138268480Y-103326082D01*
X138263734Y-103332986D01*
X138236378Y-103369027D01*
X138229628Y-103386075D01*
X138222524Y-103400202D01*
X138212855Y-103415796D01*
X138211163Y-103421622D01*
X138211161Y-103421625D01*
X138200230Y-103459251D01*
X138197514Y-103467184D01*
X138183087Y-103503621D01*
X138183086Y-103503627D01*
X138180854Y-103509263D01*
X138180220Y-103515296D01*
X138178937Y-103527500D01*
X138175893Y-103543018D01*
X138170775Y-103560635D01*
X138170434Y-103565282D01*
X138170433Y-103565286D01*
X138170134Y-103569367D01*
X138169990Y-103571325D01*
X138169990Y-103607972D01*
X138169502Y-103617275D01*
X138165089Y-103659264D01*
X138166100Y-103665241D01*
X138166100Y-103665244D01*
X138168744Y-103680874D01*
X138169990Y-103695716D01*
X138169990Y-107893042D01*
X138153805Y-107944217D01*
X138113141Y-108002077D01*
X138098603Y-108022762D01*
X138096655Y-108027758D01*
X138096654Y-108027760D01*
X138052216Y-108141736D01*
X138012035Y-108187472D01*
X137951856Y-108196681D01*
X137906364Y-108172339D01*
X131587836Y-101853812D01*
X131585255Y-101851121D01*
X131546805Y-101809307D01*
X131542701Y-101804844D01*
X131537550Y-101801650D01*
X131537546Y-101801647D01*
X131504228Y-101780990D01*
X131497324Y-101776244D01*
X131480675Y-101763607D01*
X131466120Y-101752559D01*
X131466118Y-101752558D01*
X131461283Y-101748888D01*
X131444235Y-101742138D01*
X131430108Y-101735034D01*
X131414514Y-101725365D01*
X131408688Y-101723673D01*
X131408685Y-101723671D01*
X131371059Y-101712740D01*
X131363126Y-101710024D01*
X131326689Y-101695597D01*
X131326683Y-101695596D01*
X131321047Y-101693364D01*
X131306866Y-101691873D01*
X131302810Y-101691447D01*
X131287292Y-101688403D01*
X131269675Y-101683285D01*
X131265028Y-101682944D01*
X131265024Y-101682943D01*
X131260943Y-101682644D01*
X131258985Y-101682500D01*
X131222338Y-101682500D01*
X131213035Y-101682012D01*
X131177081Y-101678233D01*
X131177079Y-101678233D01*
X131171046Y-101677599D01*
X131165069Y-101678610D01*
X131165066Y-101678610D01*
X131149436Y-101681254D01*
X131134594Y-101682500D01*
X124443999Y-101682500D01*
X124384794Y-101659951D01*
X124381627Y-101657129D01*
X124381626Y-101657128D01*
X124377621Y-101653560D01*
X124310859Y-101618212D01*
X124232524Y-101576735D01*
X124232522Y-101576734D01*
X124227781Y-101574224D01*
X124217383Y-101571612D01*
X124192936Y-101565472D01*
X124063341Y-101532919D01*
X123983546Y-101532501D01*
X123899158Y-101532059D01*
X123899157Y-101532059D01*
X123893795Y-101532031D01*
X123888580Y-101533283D01*
X123869624Y-101537834D01*
X123728932Y-101571612D01*
X123578269Y-101649375D01*
X123514387Y-101705103D01*
X123464195Y-101748888D01*
X123450504Y-101760831D01*
X123447418Y-101765222D01*
X123386087Y-101852488D01*
X123353013Y-101899547D01*
X123291424Y-102057513D01*
X123269294Y-102225611D01*
X122702500Y-102225611D01*
X122702500Y-94994000D01*
X124547896Y-94994000D01*
X124548170Y-94997482D01*
X124563147Y-95187779D01*
X124568279Y-95252994D01*
X124628927Y-95505610D01*
X124728346Y-95745628D01*
X124730174Y-95748611D01*
X124730176Y-95748615D01*
X124801579Y-95865135D01*
X124864088Y-95967140D01*
X125032811Y-96164689D01*
X125230360Y-96333412D01*
X125332365Y-96395921D01*
X125448885Y-96467324D01*
X125448889Y-96467326D01*
X125451872Y-96469154D01*
X125691890Y-96568573D01*
X125944506Y-96629221D01*
X125947986Y-96629495D01*
X125947987Y-96629495D01*
X126136900Y-96644363D01*
X126136912Y-96644363D01*
X126138647Y-96644500D01*
X126268353Y-96644500D01*
X126270088Y-96644363D01*
X126270100Y-96644363D01*
X126459013Y-96629495D01*
X126459014Y-96629495D01*
X126462494Y-96629221D01*
X126715110Y-96568573D01*
X126955128Y-96469154D01*
X126958111Y-96467326D01*
X126958115Y-96467324D01*
X127074635Y-96395921D01*
X127176640Y-96333412D01*
X127374189Y-96164689D01*
X127542912Y-95967140D01*
X127605421Y-95865135D01*
X127676824Y-95748615D01*
X127676826Y-95748611D01*
X127678654Y-95745628D01*
X127778073Y-95505610D01*
X127838721Y-95252994D01*
X127843854Y-95187779D01*
X127858830Y-94997482D01*
X127859104Y-94994000D01*
X127838721Y-94735006D01*
X127778073Y-94482390D01*
X127678654Y-94242372D01*
X127623610Y-94152547D01*
X127594473Y-94105000D01*
X127542912Y-94020860D01*
X127374189Y-93823311D01*
X127176640Y-93654588D01*
X127074635Y-93592079D01*
X126958115Y-93520676D01*
X126958111Y-93520674D01*
X126955128Y-93518846D01*
X126715110Y-93419427D01*
X126462494Y-93358779D01*
X126459014Y-93358505D01*
X126459013Y-93358505D01*
X126270100Y-93343637D01*
X126270088Y-93343637D01*
X126268353Y-93343500D01*
X126138647Y-93343500D01*
X126136912Y-93343637D01*
X126136900Y-93343637D01*
X125947987Y-93358505D01*
X125947986Y-93358505D01*
X125944506Y-93358779D01*
X125941109Y-93359594D01*
X125941106Y-93359595D01*
X125903593Y-93368601D01*
X125843105Y-93361709D01*
X125801199Y-93317548D01*
X125797482Y-93256782D01*
X125833695Y-93207844D01*
X125841035Y-93203477D01*
X125895172Y-93174692D01*
X125902392Y-93169895D01*
X126048838Y-93050456D01*
X126054979Y-93044358D01*
X126175444Y-92898742D01*
X126180279Y-92891573D01*
X126270166Y-92725330D01*
X126273520Y-92717352D01*
X126310467Y-92597992D01*
X126310031Y-92589068D01*
X127494093Y-92589068D01*
X127494306Y-92592877D01*
X127529855Y-92713664D01*
X127533103Y-92721701D01*
X127622922Y-92893509D01*
X127627669Y-92900764D01*
X127749153Y-93051858D01*
X127755213Y-93058046D01*
X127903729Y-93182667D01*
X127910883Y-93187565D01*
X128080774Y-93280964D01*
X128088737Y-93284377D01*
X128273544Y-93343000D01*
X128282010Y-93344800D01*
X128432876Y-93361723D01*
X128437836Y-93362000D01*
X128748806Y-93362000D01*
X128760829Y-93357624D01*
X128764500Y-93351266D01*
X128764500Y-93346306D01*
X129272500Y-93346306D01*
X129276876Y-93358329D01*
X129283234Y-93362000D01*
X129592288Y-93362000D01*
X129596648Y-93361787D01*
X129740778Y-93347654D01*
X129749288Y-93345969D01*
X129934877Y-93289937D01*
X129942899Y-93286631D01*
X130114076Y-93195614D01*
X130121290Y-93190821D01*
X130271539Y-93068281D01*
X130277680Y-93062183D01*
X130401270Y-92912789D01*
X130406105Y-92905620D01*
X130498324Y-92735064D01*
X130501678Y-92727086D01*
X130541639Y-92597991D01*
X130541014Y-92585213D01*
X130539918Y-92584029D01*
X130535665Y-92583000D01*
X129288194Y-92583000D01*
X129276171Y-92587376D01*
X129272500Y-92593734D01*
X129272500Y-93346306D01*
X128764500Y-93346306D01*
X128764500Y-92598694D01*
X128760124Y-92586671D01*
X128753766Y-92583000D01*
X127507093Y-92583000D01*
X127495070Y-92587376D01*
X127494093Y-92589068D01*
X126310031Y-92589068D01*
X126309842Y-92585213D01*
X126308744Y-92584028D01*
X126304497Y-92583000D01*
X125108194Y-92583000D01*
X125096171Y-92587376D01*
X125092500Y-92593734D01*
X125092500Y-93321306D01*
X125096876Y-93333329D01*
X125103234Y-93337000D01*
X125386056Y-93337000D01*
X125390416Y-93336787D01*
X125450543Y-93330891D01*
X125509510Y-93346031D01*
X125544949Y-93395532D01*
X125540279Y-93456232D01*
X125493287Y-93501691D01*
X125455108Y-93517505D01*
X125455102Y-93517508D01*
X125451872Y-93518846D01*
X125448889Y-93520674D01*
X125448885Y-93520676D01*
X125332365Y-93592079D01*
X125230360Y-93654588D01*
X125032811Y-93823311D01*
X124864088Y-94020860D01*
X124812527Y-94105000D01*
X124783391Y-94152547D01*
X124728346Y-94242372D01*
X124628927Y-94482390D01*
X124568279Y-94735006D01*
X124547896Y-94994000D01*
X122702500Y-94994000D01*
X122702500Y-92589068D01*
X123365155Y-92589068D01*
X123365368Y-92592878D01*
X123398148Y-92704253D01*
X123401395Y-92712290D01*
X123488942Y-92879753D01*
X123493690Y-92887008D01*
X123612101Y-93034282D01*
X123618161Y-93040470D01*
X123762922Y-93161938D01*
X123770076Y-93166837D01*
X123935670Y-93257874D01*
X123943633Y-93261287D01*
X124123767Y-93318429D01*
X124132233Y-93320228D01*
X124279287Y-93336723D01*
X124284247Y-93337000D01*
X124568806Y-93337000D01*
X124580829Y-93332624D01*
X124584500Y-93326266D01*
X124584500Y-92598694D01*
X124580124Y-92586671D01*
X124573766Y-92583000D01*
X123378155Y-92583000D01*
X123366132Y-92587376D01*
X123365155Y-92589068D01*
X122702500Y-92589068D01*
X122702500Y-92060008D01*
X123366533Y-92060008D01*
X123367158Y-92072787D01*
X123368256Y-92073972D01*
X123372503Y-92075000D01*
X124568806Y-92075000D01*
X124580829Y-92070624D01*
X124584500Y-92064266D01*
X124584500Y-92059306D01*
X125092500Y-92059306D01*
X125096876Y-92071329D01*
X125103234Y-92075000D01*
X126298845Y-92075000D01*
X126310868Y-92070624D01*
X126311845Y-92068932D01*
X126311632Y-92065122D01*
X126310127Y-92060009D01*
X127495361Y-92060009D01*
X127495986Y-92072787D01*
X127497082Y-92073971D01*
X127501335Y-92075000D01*
X130529907Y-92075000D01*
X130541930Y-92070624D01*
X130542907Y-92068932D01*
X130542694Y-92065123D01*
X130507145Y-91944336D01*
X130503897Y-91936299D01*
X130414078Y-91764491D01*
X130409331Y-91757236D01*
X130287847Y-91606142D01*
X130281787Y-91599954D01*
X130133271Y-91475333D01*
X130126117Y-91470435D01*
X129956226Y-91377036D01*
X129948263Y-91373623D01*
X129763456Y-91315000D01*
X129754990Y-91313200D01*
X129604124Y-91296277D01*
X129599164Y-91296000D01*
X129163219Y-91296000D01*
X129106011Y-91275178D01*
X129075571Y-91222455D01*
X129082690Y-91169105D01*
X129104019Y-91123779D01*
X129118114Y-91093826D01*
X129119392Y-91087126D01*
X129146678Y-90944090D01*
X129146678Y-90944086D01*
X129147727Y-90938588D01*
X129139831Y-90813077D01*
X129138156Y-90786453D01*
X129138156Y-90786451D01*
X129137804Y-90780862D01*
X129088967Y-90630559D01*
X129085968Y-90625833D01*
X129007288Y-90501853D01*
X129007287Y-90501852D01*
X129004286Y-90497123D01*
X128902577Y-90401611D01*
X130469894Y-90401611D01*
X130470482Y-90406937D01*
X130470482Y-90406939D01*
X130487823Y-90564009D01*
X130488499Y-90570135D01*
X130546766Y-90729356D01*
X130549761Y-90733813D01*
X130631224Y-90855043D01*
X130641330Y-90870083D01*
X130645298Y-90873693D01*
X130645300Y-90873696D01*
X130758841Y-90977010D01*
X130766733Y-90984191D01*
X130915735Y-91065092D01*
X131079733Y-91108116D01*
X131164497Y-91109448D01*
X131243892Y-91110695D01*
X131243895Y-91110695D01*
X131249260Y-91110779D01*
X131254489Y-91109581D01*
X131254493Y-91109581D01*
X131409299Y-91074126D01*
X131409300Y-91074125D01*
X131414529Y-91072928D01*
X131565998Y-90996747D01*
X131694923Y-90886634D01*
X131793861Y-90748947D01*
X131857101Y-90591634D01*
X131880990Y-90423778D01*
X131881031Y-90419939D01*
X131881086Y-90414611D01*
X134611894Y-90414611D01*
X134612482Y-90419937D01*
X134612482Y-90419939D01*
X134629064Y-90570135D01*
X134630499Y-90583135D01*
X134688766Y-90742356D01*
X134691761Y-90746813D01*
X134771601Y-90865628D01*
X134783330Y-90883083D01*
X134787298Y-90886693D01*
X134787300Y-90886696D01*
X134898179Y-90987588D01*
X134908733Y-90997191D01*
X135057735Y-91078092D01*
X135221733Y-91121116D01*
X135306496Y-91122447D01*
X135385892Y-91123695D01*
X135385895Y-91123695D01*
X135391260Y-91123779D01*
X135396489Y-91122581D01*
X135396493Y-91122581D01*
X135551299Y-91087126D01*
X135551300Y-91087125D01*
X135556529Y-91085928D01*
X135707998Y-91009747D01*
X135836923Y-90899634D01*
X135935861Y-90761947D01*
X135999101Y-90604634D01*
X136022990Y-90436778D01*
X136023145Y-90422000D01*
X136002776Y-90253680D01*
X135942845Y-90095077D01*
X135846812Y-89955349D01*
X135720221Y-89842560D01*
X135579577Y-89768093D01*
X135575124Y-89765735D01*
X135575122Y-89765734D01*
X135570381Y-89763224D01*
X135559983Y-89760612D01*
X135503243Y-89746360D01*
X135405941Y-89721919D01*
X135326146Y-89721501D01*
X135241758Y-89721059D01*
X135241757Y-89721059D01*
X135236395Y-89721031D01*
X135231180Y-89722283D01*
X135212224Y-89726834D01*
X135071532Y-89760612D01*
X134920869Y-89838375D01*
X134916825Y-89841903D01*
X134805769Y-89938783D01*
X134793104Y-89949831D01*
X134790018Y-89954222D01*
X134701422Y-90080282D01*
X134695613Y-90088547D01*
X134693665Y-90093543D01*
X134693664Y-90093545D01*
X134688157Y-90107670D01*
X134634024Y-90246513D01*
X134611894Y-90414611D01*
X131881086Y-90414611D01*
X131881114Y-90411909D01*
X131881145Y-90409000D01*
X131860776Y-90240680D01*
X131800845Y-90082077D01*
X131704812Y-89942349D01*
X131578221Y-89829560D01*
X131462130Y-89768093D01*
X131433124Y-89752735D01*
X131433122Y-89752734D01*
X131428381Y-89750224D01*
X131417983Y-89747612D01*
X131393536Y-89741472D01*
X131263941Y-89708919D01*
X131184146Y-89708501D01*
X131099758Y-89708059D01*
X131099757Y-89708059D01*
X131094395Y-89708031D01*
X131089180Y-89709283D01*
X131070224Y-89713834D01*
X130929532Y-89747612D01*
X130778869Y-89825375D01*
X130742383Y-89857204D01*
X130670592Y-89919831D01*
X130651104Y-89936831D01*
X130648018Y-89941222D01*
X130556833Y-90070966D01*
X130553613Y-90075547D01*
X130551665Y-90080543D01*
X130551664Y-90080545D01*
X130529855Y-90136482D01*
X130492024Y-90233513D01*
X130469894Y-90401611D01*
X128902577Y-90401611D01*
X128889082Y-90388938D01*
X128884177Y-90386242D01*
X128884175Y-90386240D01*
X128755498Y-90315500D01*
X128755497Y-90315500D01*
X128750592Y-90312803D01*
X128745175Y-90311412D01*
X128745172Y-90311411D01*
X128674056Y-90293152D01*
X128597519Y-90273500D01*
X128479150Y-90273500D01*
X128476383Y-90273850D01*
X128476376Y-90273850D01*
X128367264Y-90287634D01*
X128367263Y-90287634D01*
X128361708Y-90288336D01*
X128356504Y-90290397D01*
X128356502Y-90290397D01*
X128283050Y-90319479D01*
X128214768Y-90346514D01*
X128160090Y-90386240D01*
X128093937Y-90434303D01*
X128086913Y-90439406D01*
X127986176Y-90561177D01*
X127983793Y-90566241D01*
X127978352Y-90577803D01*
X127918886Y-90704174D01*
X127917837Y-90709673D01*
X127890322Y-90853910D01*
X127890322Y-90853914D01*
X127889273Y-90859412D01*
X127892433Y-90909633D01*
X127898783Y-91010569D01*
X127899196Y-91017138D01*
X127948033Y-91167441D01*
X127951031Y-91172166D01*
X127951032Y-91172167D01*
X128030152Y-91296840D01*
X128043225Y-91356300D01*
X128015020Y-91410252D01*
X127996789Y-91423112D01*
X127922920Y-91462388D01*
X127915710Y-91467179D01*
X127765461Y-91589719D01*
X127759320Y-91595817D01*
X127635730Y-91745211D01*
X127630895Y-91752380D01*
X127538676Y-91922936D01*
X127535322Y-91930914D01*
X127495361Y-92060009D01*
X126310127Y-92060009D01*
X126278852Y-91953747D01*
X126275605Y-91945710D01*
X126188058Y-91778247D01*
X126183310Y-91770992D01*
X126064899Y-91623718D01*
X126058839Y-91617530D01*
X125914078Y-91496062D01*
X125906924Y-91491163D01*
X125741330Y-91400126D01*
X125733367Y-91396713D01*
X125553233Y-91339571D01*
X125544767Y-91337772D01*
X125397713Y-91321277D01*
X125392753Y-91321000D01*
X125108194Y-91321000D01*
X125096171Y-91325376D01*
X125092500Y-91331734D01*
X125092500Y-92059306D01*
X124584500Y-92059306D01*
X124584500Y-91336694D01*
X124580124Y-91324671D01*
X124573766Y-91321000D01*
X124290944Y-91321000D01*
X124286584Y-91321213D01*
X124146101Y-91334988D01*
X124137592Y-91336673D01*
X123956688Y-91391292D01*
X123948686Y-91394589D01*
X123781824Y-91483310D01*
X123774608Y-91488105D01*
X123628162Y-91607544D01*
X123622021Y-91613642D01*
X123501556Y-91759258D01*
X123496721Y-91766427D01*
X123406834Y-91932670D01*
X123403480Y-91940648D01*
X123366533Y-92060008D01*
X122702500Y-92060008D01*
X122702500Y-83949068D01*
X123365155Y-83949068D01*
X123365368Y-83952878D01*
X123398148Y-84064253D01*
X123401395Y-84072290D01*
X123488942Y-84239753D01*
X123493690Y-84247008D01*
X123612101Y-84394282D01*
X123618161Y-84400470D01*
X123762922Y-84521938D01*
X123770076Y-84526837D01*
X123935670Y-84617874D01*
X123943633Y-84621287D01*
X124123767Y-84678429D01*
X124132233Y-84680228D01*
X124279287Y-84696723D01*
X124284247Y-84697000D01*
X124568806Y-84697000D01*
X124580829Y-84692624D01*
X124584500Y-84686266D01*
X124584500Y-84681306D01*
X125092500Y-84681306D01*
X125096876Y-84693329D01*
X125103234Y-84697000D01*
X125386056Y-84697000D01*
X125390416Y-84696787D01*
X125530899Y-84683012D01*
X125539408Y-84681327D01*
X125720312Y-84626708D01*
X125728314Y-84623411D01*
X125895176Y-84534690D01*
X125902392Y-84529895D01*
X126048838Y-84410456D01*
X126054979Y-84404358D01*
X126175444Y-84258742D01*
X126180279Y-84251573D01*
X126270166Y-84085330D01*
X126273520Y-84077352D01*
X126310467Y-83957992D01*
X126310031Y-83949068D01*
X127494093Y-83949068D01*
X127494306Y-83952877D01*
X127529855Y-84073664D01*
X127533103Y-84081701D01*
X127622922Y-84253509D01*
X127627669Y-84260764D01*
X127749153Y-84411858D01*
X127755213Y-84418046D01*
X127903729Y-84542667D01*
X127910883Y-84547565D01*
X128001207Y-84597221D01*
X128041308Y-84643027D01*
X128042583Y-84703894D01*
X128026907Y-84731942D01*
X127986176Y-84781177D01*
X127983793Y-84786241D01*
X127973122Y-84808917D01*
X127918886Y-84924174D01*
X127917837Y-84929673D01*
X127890322Y-85073910D01*
X127890322Y-85073914D01*
X127889273Y-85079412D01*
X127899196Y-85237138D01*
X127948033Y-85387441D01*
X127951031Y-85392166D01*
X127951032Y-85392167D01*
X128017950Y-85497612D01*
X128032714Y-85520877D01*
X128147918Y-85629062D01*
X128152823Y-85631758D01*
X128152825Y-85631760D01*
X128253000Y-85686831D01*
X128286408Y-85705197D01*
X128291825Y-85706588D01*
X128291828Y-85706589D01*
X128362945Y-85724849D01*
X128439481Y-85744500D01*
X128557850Y-85744500D01*
X128560617Y-85744150D01*
X128560624Y-85744150D01*
X128669736Y-85730366D01*
X128669737Y-85730366D01*
X128675292Y-85729664D01*
X128680496Y-85727603D01*
X128680498Y-85727603D01*
X128817029Y-85673546D01*
X128822232Y-85671486D01*
X128950087Y-85578594D01*
X129046863Y-85461611D01*
X130990894Y-85461611D01*
X130991482Y-85466937D01*
X130991482Y-85466939D01*
X131003916Y-85579560D01*
X131009499Y-85630135D01*
X131067766Y-85789356D01*
X131162330Y-85930083D01*
X131166298Y-85933693D01*
X131166300Y-85933696D01*
X131226893Y-85988831D01*
X131287733Y-86044191D01*
X131436735Y-86125092D01*
X131600733Y-86168116D01*
X131685497Y-86169448D01*
X131764892Y-86170695D01*
X131764895Y-86170695D01*
X131770260Y-86170779D01*
X131775489Y-86169581D01*
X131775493Y-86169581D01*
X131930299Y-86134126D01*
X131930300Y-86134125D01*
X131935529Y-86132928D01*
X132086998Y-86056747D01*
X132215923Y-85946634D01*
X132314861Y-85808947D01*
X132378101Y-85651634D01*
X132401990Y-85483778D01*
X132402145Y-85469000D01*
X132381776Y-85300680D01*
X132321845Y-85142077D01*
X132225812Y-85002349D01*
X132099221Y-84889560D01*
X132022416Y-84848894D01*
X131954124Y-84812735D01*
X131954122Y-84812734D01*
X131949381Y-84810224D01*
X131938983Y-84807612D01*
X131914536Y-84801472D01*
X131784941Y-84768919D01*
X131705146Y-84768501D01*
X131620758Y-84768059D01*
X131620757Y-84768059D01*
X131615395Y-84768031D01*
X131610180Y-84769283D01*
X131591224Y-84773834D01*
X131450532Y-84807612D01*
X131299869Y-84885375D01*
X131172104Y-84996831D01*
X131074613Y-85135547D01*
X131072665Y-85140543D01*
X131072664Y-85140545D01*
X131063907Y-85163006D01*
X131013024Y-85293513D01*
X130990894Y-85461611D01*
X129046863Y-85461611D01*
X129050824Y-85456823D01*
X129118114Y-85313826D01*
X129132743Y-85237138D01*
X129146678Y-85164090D01*
X129146678Y-85164086D01*
X129147727Y-85158588D01*
X129137804Y-85000862D01*
X129088967Y-84850559D01*
X129087324Y-84847970D01*
X129081891Y-84788265D01*
X129116636Y-84738274D01*
X129167938Y-84722000D01*
X129592288Y-84722000D01*
X129596648Y-84721787D01*
X129740778Y-84707654D01*
X129749288Y-84705969D01*
X129934877Y-84649937D01*
X129942899Y-84646631D01*
X130114076Y-84555614D01*
X130121290Y-84550821D01*
X130271539Y-84428281D01*
X130277680Y-84422183D01*
X130401270Y-84272789D01*
X130406105Y-84265620D01*
X130498324Y-84095064D01*
X130501678Y-84087086D01*
X130541639Y-83957991D01*
X130541014Y-83945213D01*
X130539918Y-83944029D01*
X130535665Y-83943000D01*
X127507093Y-83943000D01*
X127495070Y-83947376D01*
X127494093Y-83949068D01*
X126310031Y-83949068D01*
X126309842Y-83945213D01*
X126308744Y-83944028D01*
X126304497Y-83943000D01*
X125108194Y-83943000D01*
X125096171Y-83947376D01*
X125092500Y-83953734D01*
X125092500Y-84681306D01*
X124584500Y-84681306D01*
X124584500Y-83958694D01*
X124580124Y-83946671D01*
X124573766Y-83943000D01*
X123378155Y-83943000D01*
X123366132Y-83947376D01*
X123365155Y-83949068D01*
X122702500Y-83949068D01*
X122702500Y-83420008D01*
X123366533Y-83420008D01*
X123367158Y-83432787D01*
X123368256Y-83433972D01*
X123372503Y-83435000D01*
X124568806Y-83435000D01*
X124580829Y-83430624D01*
X124584500Y-83424266D01*
X124584500Y-83419306D01*
X125092500Y-83419306D01*
X125096876Y-83431329D01*
X125103234Y-83435000D01*
X126298845Y-83435000D01*
X126310868Y-83430624D01*
X126311845Y-83428932D01*
X126311632Y-83425122D01*
X126310127Y-83420009D01*
X127495361Y-83420009D01*
X127495986Y-83432787D01*
X127497082Y-83433971D01*
X127501335Y-83435000D01*
X128748806Y-83435000D01*
X128760829Y-83430624D01*
X128764500Y-83424266D01*
X128764500Y-83419306D01*
X129272500Y-83419306D01*
X129276876Y-83431329D01*
X129283234Y-83435000D01*
X130529907Y-83435000D01*
X130541930Y-83430624D01*
X130542907Y-83428932D01*
X130542694Y-83425123D01*
X130507145Y-83304336D01*
X130503897Y-83296299D01*
X130459623Y-83211611D01*
X131992894Y-83211611D01*
X131993482Y-83216937D01*
X131993482Y-83216939D01*
X132010742Y-83373275D01*
X132011499Y-83380135D01*
X132069766Y-83539356D01*
X132072761Y-83543813D01*
X132149004Y-83657275D01*
X132164330Y-83680083D01*
X132168298Y-83683693D01*
X132168300Y-83683696D01*
X132281286Y-83786505D01*
X132289733Y-83794191D01*
X132438735Y-83875092D01*
X132602733Y-83918116D01*
X132687497Y-83919448D01*
X132766892Y-83920695D01*
X132766895Y-83920695D01*
X132772260Y-83920779D01*
X132777489Y-83919581D01*
X132777493Y-83919581D01*
X132932299Y-83884126D01*
X132932300Y-83884125D01*
X132937529Y-83882928D01*
X133088998Y-83806747D01*
X133217923Y-83696634D01*
X133268699Y-83625972D01*
X133318989Y-83591667D01*
X133379567Y-83597713D01*
X133416952Y-83631671D01*
X133419195Y-83636855D01*
X133423013Y-83641570D01*
X133430732Y-83651103D01*
X133439554Y-83664231D01*
X133448393Y-83680308D01*
X133451438Y-83683836D01*
X133451439Y-83683837D01*
X133454333Y-83687190D01*
X133454341Y-83687198D01*
X133455397Y-83688422D01*
X133481312Y-83714337D01*
X133487545Y-83721261D01*
X133500838Y-83737676D01*
X133514114Y-83754070D01*
X133529544Y-83765035D01*
X133531976Y-83766764D01*
X133543352Y-83776377D01*
X134463976Y-84697000D01*
X135073877Y-85306901D01*
X135099606Y-85362077D01*
X135083850Y-85420882D01*
X135033980Y-85455801D01*
X135010481Y-85458833D01*
X134905238Y-85458282D01*
X134862758Y-85458059D01*
X134862757Y-85458059D01*
X134857395Y-85458031D01*
X134852180Y-85459283D01*
X134833224Y-85463834D01*
X134692532Y-85497612D01*
X134541869Y-85575375D01*
X134537825Y-85578903D01*
X134435464Y-85668198D01*
X134414104Y-85686831D01*
X134411018Y-85691222D01*
X134325215Y-85813308D01*
X134316613Y-85825547D01*
X134255024Y-85983513D01*
X134232894Y-86151611D01*
X134233482Y-86156937D01*
X134233482Y-86156939D01*
X134235661Y-86176670D01*
X134251499Y-86320135D01*
X134309766Y-86479356D01*
X134312761Y-86483813D01*
X134384131Y-86590023D01*
X134404330Y-86620083D01*
X134408298Y-86623693D01*
X134408300Y-86623696D01*
X134422519Y-86636634D01*
X134529733Y-86734191D01*
X134678735Y-86815092D01*
X134842733Y-86858116D01*
X134927497Y-86859448D01*
X135006892Y-86860695D01*
X135006895Y-86860695D01*
X135012260Y-86860779D01*
X135017489Y-86859581D01*
X135017493Y-86859581D01*
X135172299Y-86824126D01*
X135172300Y-86824125D01*
X135177529Y-86822928D01*
X135328998Y-86746747D01*
X135457923Y-86636634D01*
X135556861Y-86498947D01*
X135620101Y-86341634D01*
X135643990Y-86173778D01*
X135644022Y-86170779D01*
X135644114Y-86161909D01*
X135644145Y-86159000D01*
X135636309Y-86094246D01*
X135650107Y-86034951D01*
X135698792Y-85998398D01*
X135759582Y-86001690D01*
X135787597Y-86020621D01*
X136707933Y-86940957D01*
X136733661Y-86996133D01*
X136734000Y-87003890D01*
X136734000Y-90792110D01*
X136713178Y-90849318D01*
X136707933Y-90855043D01*
X133796815Y-93766161D01*
X133754659Y-93789769D01*
X133703074Y-93802154D01*
X133609532Y-93824612D01*
X133458869Y-93902375D01*
X133331104Y-94013831D01*
X133328018Y-94018222D01*
X133267030Y-94105000D01*
X133233613Y-94152547D01*
X133172024Y-94310513D01*
X133149894Y-94478611D01*
X133150482Y-94483937D01*
X133150482Y-94483939D01*
X133163086Y-94598100D01*
X133168499Y-94647135D01*
X133226766Y-94806356D01*
X133321330Y-94947083D01*
X133325298Y-94950693D01*
X133325300Y-94950696D01*
X133387846Y-95007608D01*
X133446733Y-95061191D01*
X133595735Y-95142092D01*
X133759733Y-95185116D01*
X133844497Y-95186448D01*
X133923892Y-95187695D01*
X133923895Y-95187695D01*
X133929260Y-95187779D01*
X133934489Y-95186581D01*
X133934493Y-95186581D01*
X134089299Y-95151126D01*
X134089300Y-95151125D01*
X134094529Y-95149928D01*
X134245998Y-95073747D01*
X134374923Y-94963634D01*
X134473861Y-94825947D01*
X134537101Y-94668634D01*
X134547139Y-94598100D01*
X134572318Y-94547707D01*
X137663688Y-91456336D01*
X137666379Y-91453755D01*
X137708193Y-91415305D01*
X137712656Y-91411201D01*
X137736505Y-91372736D01*
X137741255Y-91365825D01*
X137764944Y-91334617D01*
X137764945Y-91334614D01*
X137768612Y-91329784D01*
X137770845Y-91324145D01*
X137770847Y-91324141D01*
X137775363Y-91312734D01*
X137782468Y-91298605D01*
X137792135Y-91283014D01*
X137804765Y-91239543D01*
X137807475Y-91231628D01*
X137824135Y-91189547D01*
X137824769Y-91183514D01*
X137824770Y-91183510D01*
X137826052Y-91171316D01*
X137829098Y-91155788D01*
X137831732Y-91146720D01*
X137834215Y-91138175D01*
X137835000Y-91127485D01*
X137835000Y-91090835D01*
X137835488Y-91081532D01*
X137839267Y-91045581D01*
X137839267Y-91045579D01*
X137839901Y-91039546D01*
X137836246Y-91017936D01*
X137835000Y-91003094D01*
X137835000Y-87266890D01*
X137855822Y-87209682D01*
X137908545Y-87179242D01*
X137968500Y-87189814D01*
X137986933Y-87203957D01*
X138104933Y-87321957D01*
X138130661Y-87377133D01*
X138131000Y-87384890D01*
X138131000Y-94022827D01*
X138114815Y-94074002D01*
X138059613Y-94152547D01*
X137998024Y-94310513D01*
X137975894Y-94478611D01*
X137976482Y-94483937D01*
X137976482Y-94483939D01*
X137989086Y-94598100D01*
X137994499Y-94647135D01*
X138052766Y-94806356D01*
X138147330Y-94947083D01*
X138151298Y-94950693D01*
X138151300Y-94950696D01*
X138213846Y-95007608D01*
X138272733Y-95061191D01*
X138421735Y-95142092D01*
X138585733Y-95185116D01*
X138670497Y-95186448D01*
X138749892Y-95187695D01*
X138749895Y-95187695D01*
X138755260Y-95187779D01*
X138760489Y-95186581D01*
X138760493Y-95186581D01*
X138915299Y-95151126D01*
X138915300Y-95151125D01*
X138920529Y-95149928D01*
X139071998Y-95073747D01*
X139200923Y-94963634D01*
X139299861Y-94825947D01*
X139363101Y-94668634D01*
X139386990Y-94500778D01*
X139387145Y-94486000D01*
X139366776Y-94317680D01*
X139306845Y-94159077D01*
X139247653Y-94072953D01*
X139232000Y-94022542D01*
X139232000Y-91132611D01*
X139952871Y-91132611D01*
X139953459Y-91137937D01*
X139953459Y-91137939D01*
X139970851Y-91295471D01*
X139971476Y-91301135D01*
X140029743Y-91460356D01*
X140032738Y-91464813D01*
X140116671Y-91589719D01*
X140124307Y-91601083D01*
X140128275Y-91604693D01*
X140128277Y-91604696D01*
X140185152Y-91656448D01*
X140249710Y-91715191D01*
X140398712Y-91796092D01*
X140562710Y-91839116D01*
X140647473Y-91840447D01*
X140726869Y-91841695D01*
X140726872Y-91841695D01*
X140732237Y-91841779D01*
X140737466Y-91840581D01*
X140737470Y-91840581D01*
X140892276Y-91805126D01*
X140892277Y-91805125D01*
X140897506Y-91803928D01*
X141048975Y-91727747D01*
X141177900Y-91617634D01*
X141276838Y-91479947D01*
X141340078Y-91322634D01*
X141363967Y-91154778D01*
X141364122Y-91140000D01*
X141343753Y-90971680D01*
X141283822Y-90813077D01*
X141187789Y-90673349D01*
X141186531Y-90672228D01*
X141164790Y-90616751D01*
X141181486Y-90562643D01*
X141276838Y-90429947D01*
X141340078Y-90272634D01*
X141363967Y-90104778D01*
X141364122Y-90090000D01*
X141343753Y-89921680D01*
X141283822Y-89763077D01*
X141187789Y-89623349D01*
X141061198Y-89510560D01*
X141004740Y-89480667D01*
X140916101Y-89433735D01*
X140916099Y-89433734D01*
X140911358Y-89431224D01*
X140900960Y-89428612D01*
X140811786Y-89406213D01*
X140746918Y-89389919D01*
X140667123Y-89389501D01*
X140582735Y-89389059D01*
X140582734Y-89389059D01*
X140577372Y-89389031D01*
X140572157Y-89390283D01*
X140553201Y-89394834D01*
X140412509Y-89428612D01*
X140261846Y-89506375D01*
X140134081Y-89617831D01*
X140130995Y-89622222D01*
X140041141Y-89750072D01*
X140036590Y-89756547D01*
X140034642Y-89761543D01*
X140034641Y-89761545D01*
X140032088Y-89768093D01*
X139975001Y-89914513D01*
X139952871Y-90082611D01*
X139953459Y-90087937D01*
X139953459Y-90087939D01*
X139970414Y-90241513D01*
X139971476Y-90251135D01*
X140029743Y-90410356D01*
X140032738Y-90414813D01*
X140103446Y-90520038D01*
X140124307Y-90551083D01*
X140128278Y-90554696D01*
X140130131Y-90556843D01*
X140151750Y-90613754D01*
X140131978Y-90666353D01*
X140134081Y-90667831D01*
X140054642Y-90780862D01*
X140036590Y-90806547D01*
X139975001Y-90964513D01*
X139952871Y-91132611D01*
X139232000Y-91132611D01*
X139232000Y-87381893D01*
X139252822Y-87324685D01*
X139305545Y-87294245D01*
X139365500Y-87304817D01*
X139383933Y-87318960D01*
X141254186Y-89189213D01*
X141256765Y-89191903D01*
X141299296Y-89238155D01*
X141304447Y-89241349D01*
X141304451Y-89241352D01*
X141337764Y-89262006D01*
X141344655Y-89266741D01*
X141380713Y-89294111D01*
X141386358Y-89296346D01*
X141397763Y-89300862D01*
X141411892Y-89307967D01*
X141427483Y-89317634D01*
X141433308Y-89319326D01*
X141433307Y-89319326D01*
X141470954Y-89330264D01*
X141478869Y-89332974D01*
X141520950Y-89349634D01*
X141526983Y-89350268D01*
X141526987Y-89350269D01*
X141539181Y-89351551D01*
X141554709Y-89354597D01*
X141563777Y-89357231D01*
X141572322Y-89359714D01*
X141576977Y-89360056D01*
X141576978Y-89360056D01*
X141580126Y-89360287D01*
X141583012Y-89360499D01*
X141619662Y-89360499D01*
X141628965Y-89360987D01*
X141664916Y-89364766D01*
X141664918Y-89364766D01*
X141670951Y-89365400D01*
X141676928Y-89364389D01*
X141676931Y-89364389D01*
X141692561Y-89361745D01*
X141707403Y-89360499D01*
X142773609Y-89360499D01*
X142830817Y-89381321D01*
X142836541Y-89386566D01*
X145329759Y-91879783D01*
X145355290Y-91932949D01*
X145360499Y-91980135D01*
X145418766Y-92139356D01*
X145513330Y-92280083D01*
X145517298Y-92283693D01*
X145517300Y-92283696D01*
X145634762Y-92390578D01*
X145638733Y-92394191D01*
X145787735Y-92475092D01*
X145951733Y-92518116D01*
X146036496Y-92519447D01*
X146115892Y-92520695D01*
X146115895Y-92520695D01*
X146121260Y-92520779D01*
X146126489Y-92519581D01*
X146126493Y-92519581D01*
X146281299Y-92484126D01*
X146281300Y-92484125D01*
X146286529Y-92482928D01*
X146437998Y-92406747D01*
X146566923Y-92296634D01*
X146665861Y-92158947D01*
X146729101Y-92001634D01*
X146735591Y-91956030D01*
X146764266Y-91902328D01*
X146825100Y-91879582D01*
X146884114Y-91880509D01*
X146884117Y-91880509D01*
X146889483Y-91880593D01*
X146894712Y-91879395D01*
X146894716Y-91879395D01*
X147049522Y-91843940D01*
X147049523Y-91843939D01*
X147054752Y-91842742D01*
X147206221Y-91766561D01*
X147335146Y-91656448D01*
X147434084Y-91518761D01*
X147497324Y-91361448D01*
X147521213Y-91193592D01*
X147521256Y-91189547D01*
X147521284Y-91186858D01*
X147521368Y-91178814D01*
X147500999Y-91010494D01*
X147441068Y-90851891D01*
X147345035Y-90712163D01*
X147218444Y-90599374D01*
X147158497Y-90567634D01*
X147073347Y-90522549D01*
X147073345Y-90522548D01*
X147068604Y-90520038D01*
X146996208Y-90501853D01*
X146914670Y-90481372D01*
X146873420Y-90457986D01*
X144671044Y-88255611D01*
X146230894Y-88255611D01*
X146231482Y-88260937D01*
X146231482Y-88260939D01*
X146243992Y-88374250D01*
X146249499Y-88424135D01*
X146307766Y-88583356D01*
X146402330Y-88724083D01*
X146406298Y-88727693D01*
X146406300Y-88727696D01*
X146523762Y-88834578D01*
X146527733Y-88838191D01*
X146676735Y-88919092D01*
X146840733Y-88962116D01*
X146925497Y-88963448D01*
X147004892Y-88964695D01*
X147004895Y-88964695D01*
X147010260Y-88964779D01*
X147015489Y-88963581D01*
X147015493Y-88963581D01*
X147170299Y-88928126D01*
X147170300Y-88928125D01*
X147175529Y-88926928D01*
X147326998Y-88850747D01*
X147455923Y-88740634D01*
X147554861Y-88602947D01*
X147618101Y-88445634D01*
X147641990Y-88277778D01*
X147642145Y-88263000D01*
X147621776Y-88094680D01*
X147561845Y-87936077D01*
X147465812Y-87796349D01*
X147339221Y-87683560D01*
X147282763Y-87653667D01*
X147194124Y-87606735D01*
X147194122Y-87606734D01*
X147189381Y-87604224D01*
X147178983Y-87601612D01*
X147114070Y-87585307D01*
X147024941Y-87562919D01*
X146945146Y-87562501D01*
X146860758Y-87562059D01*
X146860757Y-87562059D01*
X146855395Y-87562031D01*
X146850180Y-87563283D01*
X146831224Y-87567834D01*
X146690532Y-87601612D01*
X146539869Y-87679375D01*
X146412104Y-87790831D01*
X146314613Y-87929547D01*
X146312665Y-87934543D01*
X146312664Y-87934545D01*
X146306125Y-87951318D01*
X146253024Y-88087513D01*
X146230894Y-88255611D01*
X144671044Y-88255611D01*
X144045245Y-87629812D01*
X144042664Y-87627121D01*
X144004214Y-87585307D01*
X144000110Y-87580844D01*
X143994959Y-87577650D01*
X143994955Y-87577647D01*
X143961637Y-87556990D01*
X143954733Y-87552244D01*
X143938084Y-87539607D01*
X143923529Y-87528559D01*
X143923527Y-87528558D01*
X143918692Y-87524888D01*
X143901644Y-87518138D01*
X143887517Y-87511034D01*
X143871923Y-87501365D01*
X143866097Y-87499673D01*
X143866094Y-87499671D01*
X143828468Y-87488740D01*
X143820535Y-87486024D01*
X143784098Y-87471597D01*
X143784092Y-87471596D01*
X143778456Y-87469364D01*
X143764275Y-87467873D01*
X143760219Y-87467447D01*
X143744701Y-87464403D01*
X143727084Y-87459285D01*
X143722437Y-87458944D01*
X143722433Y-87458943D01*
X143718352Y-87458644D01*
X143716394Y-87458500D01*
X143679747Y-87458500D01*
X143670444Y-87458012D01*
X143634490Y-87454233D01*
X143634488Y-87454233D01*
X143628455Y-87453599D01*
X143622478Y-87454610D01*
X143622475Y-87454610D01*
X143606845Y-87457254D01*
X143592003Y-87458500D01*
X142121390Y-87458500D01*
X142064182Y-87437678D01*
X142058458Y-87432433D01*
X138485609Y-83859585D01*
X138485603Y-83859578D01*
X138182636Y-83556611D01*
X154612894Y-83556611D01*
X154613482Y-83561937D01*
X154613482Y-83561939D01*
X154630671Y-83717632D01*
X154631499Y-83725135D01*
X154689766Y-83884356D01*
X154692761Y-83888813D01*
X154735811Y-83952878D01*
X154784330Y-84025083D01*
X154788298Y-84028693D01*
X154788300Y-84028696D01*
X154852470Y-84087086D01*
X154909733Y-84139191D01*
X155058735Y-84220092D01*
X155169056Y-84249034D01*
X155213768Y-84260764D01*
X155222733Y-84263116D01*
X155307497Y-84264448D01*
X155386892Y-84265695D01*
X155386895Y-84265695D01*
X155392260Y-84265779D01*
X155397489Y-84264581D01*
X155397493Y-84264581D01*
X155552299Y-84229126D01*
X155552300Y-84229125D01*
X155557529Y-84227928D01*
X155708998Y-84151747D01*
X155837923Y-84041634D01*
X155936861Y-83903947D01*
X156000101Y-83746634D01*
X156023990Y-83578778D01*
X156024026Y-83575414D01*
X156024114Y-83566909D01*
X156024145Y-83564000D01*
X156003776Y-83395680D01*
X155943845Y-83237077D01*
X155847812Y-83097349D01*
X155721221Y-82984560D01*
X155610371Y-82925868D01*
X155576124Y-82907735D01*
X155576122Y-82907734D01*
X155571381Y-82905224D01*
X155560983Y-82902612D01*
X155512942Y-82890545D01*
X155406941Y-82863919D01*
X155327146Y-82863501D01*
X155242758Y-82863059D01*
X155242757Y-82863059D01*
X155237395Y-82863031D01*
X155232180Y-82864283D01*
X155224545Y-82866116D01*
X155072532Y-82902612D01*
X154921869Y-82980375D01*
X154794104Y-83091831D01*
X154696613Y-83230547D01*
X154694665Y-83235543D01*
X154694664Y-83235545D01*
X154682539Y-83266645D01*
X154635024Y-83388513D01*
X154612894Y-83556611D01*
X138182636Y-83556611D01*
X138050291Y-83424266D01*
X137607068Y-82981044D01*
X137581339Y-82925868D01*
X137581000Y-82918111D01*
X137581000Y-82781622D01*
X138356894Y-82781622D01*
X138357482Y-82786948D01*
X138357482Y-82786950D01*
X138372819Y-82925868D01*
X138375499Y-82950146D01*
X138433766Y-83109367D01*
X138436761Y-83113824D01*
X138522954Y-83242093D01*
X138528330Y-83250094D01*
X138532298Y-83253704D01*
X138532300Y-83253707D01*
X138649762Y-83360589D01*
X138653733Y-83364202D01*
X138802735Y-83445103D01*
X138966733Y-83488127D01*
X139051497Y-83489459D01*
X139130892Y-83490706D01*
X139130895Y-83490706D01*
X139136260Y-83490790D01*
X139141489Y-83489592D01*
X139141493Y-83489592D01*
X139296299Y-83454137D01*
X139296300Y-83454136D01*
X139301529Y-83452939D01*
X139452998Y-83376758D01*
X139581923Y-83266645D01*
X139680861Y-83128958D01*
X139744101Y-82971645D01*
X139767990Y-82803789D01*
X139768145Y-82789011D01*
X139747776Y-82620691D01*
X139687845Y-82462088D01*
X139654527Y-82413611D01*
X140388894Y-82413611D01*
X140389482Y-82418937D01*
X140389482Y-82418939D01*
X140406862Y-82576363D01*
X140407499Y-82582135D01*
X140465766Y-82741356D01*
X140468761Y-82745813D01*
X140551334Y-82868695D01*
X140560330Y-82882083D01*
X140564298Y-82885693D01*
X140564300Y-82885696D01*
X140681762Y-82992578D01*
X140685733Y-82996191D01*
X140834735Y-83077092D01*
X140998733Y-83120116D01*
X141083497Y-83121448D01*
X141162892Y-83122695D01*
X141162895Y-83122695D01*
X141168260Y-83122779D01*
X141173489Y-83121581D01*
X141173493Y-83121581D01*
X141328299Y-83086126D01*
X141328300Y-83086125D01*
X141333529Y-83084928D01*
X141484998Y-83008747D01*
X141613923Y-82898634D01*
X141712861Y-82760947D01*
X141776101Y-82603634D01*
X141799990Y-82435778D01*
X141800145Y-82421000D01*
X141779776Y-82252680D01*
X141744608Y-82159611D01*
X142674894Y-82159611D01*
X142675482Y-82164937D01*
X142675482Y-82164939D01*
X142692468Y-82318794D01*
X142693499Y-82328135D01*
X142751766Y-82487356D01*
X142754761Y-82491813D01*
X142841363Y-82620691D01*
X142846330Y-82628083D01*
X142850298Y-82631693D01*
X142850300Y-82631696D01*
X142967762Y-82738578D01*
X142971733Y-82742191D01*
X143120735Y-82823092D01*
X143238573Y-82854006D01*
X143276359Y-82863919D01*
X143284733Y-82866116D01*
X143369497Y-82867448D01*
X143448892Y-82868695D01*
X143448895Y-82868695D01*
X143454260Y-82868779D01*
X143459489Y-82867581D01*
X143459493Y-82867581D01*
X143614299Y-82832126D01*
X143614300Y-82832125D01*
X143619529Y-82830928D01*
X143770998Y-82754747D01*
X143899923Y-82644634D01*
X143998861Y-82506947D01*
X144062101Y-82349634D01*
X144085990Y-82181778D01*
X144086145Y-82167000D01*
X144065776Y-81998680D01*
X144005845Y-81840077D01*
X143909812Y-81700349D01*
X143783221Y-81587560D01*
X143726763Y-81557667D01*
X143638124Y-81510735D01*
X143638122Y-81510734D01*
X143633381Y-81508224D01*
X143622983Y-81505612D01*
X143598536Y-81499472D01*
X143468941Y-81466919D01*
X143389146Y-81466501D01*
X143304758Y-81466059D01*
X143304757Y-81466059D01*
X143299395Y-81466031D01*
X143294180Y-81467283D01*
X143275224Y-81471834D01*
X143134532Y-81505612D01*
X142983869Y-81583375D01*
X142856104Y-81694831D01*
X142853018Y-81699222D01*
X142808740Y-81762224D01*
X142758613Y-81833547D01*
X142697024Y-81991513D01*
X142674894Y-82159611D01*
X141744608Y-82159611D01*
X141719845Y-82094077D01*
X141623812Y-81954349D01*
X141497221Y-81841560D01*
X141399879Y-81790020D01*
X141352124Y-81764735D01*
X141352122Y-81764734D01*
X141347381Y-81762224D01*
X141336983Y-81759612D01*
X141312536Y-81753472D01*
X141182941Y-81720919D01*
X141103146Y-81720501D01*
X141018758Y-81720059D01*
X141018757Y-81720059D01*
X141013395Y-81720031D01*
X141008180Y-81721283D01*
X140989224Y-81725834D01*
X140848532Y-81759612D01*
X140697869Y-81837375D01*
X140570104Y-81948831D01*
X140472613Y-82087547D01*
X140411024Y-82245513D01*
X140388894Y-82413611D01*
X139654527Y-82413611D01*
X139591812Y-82322360D01*
X139465221Y-82209571D01*
X139370863Y-82159611D01*
X139320124Y-82132746D01*
X139320122Y-82132745D01*
X139315381Y-82130235D01*
X139304983Y-82127623D01*
X139280536Y-82121483D01*
X139150941Y-82088930D01*
X139071146Y-82088512D01*
X138986758Y-82088070D01*
X138986757Y-82088070D01*
X138981395Y-82088042D01*
X138976180Y-82089294D01*
X138962639Y-82092545D01*
X138816532Y-82127623D01*
X138665869Y-82205386D01*
X138538104Y-82316842D01*
X138535018Y-82321233D01*
X138447030Y-82446428D01*
X138440613Y-82455558D01*
X138438665Y-82460554D01*
X138438664Y-82460556D01*
X138422520Y-82501964D01*
X138379024Y-82613524D01*
X138356894Y-82781622D01*
X137581000Y-82781622D01*
X137581000Y-80852047D01*
X137597724Y-80800112D01*
X137645731Y-80733303D01*
X137645733Y-80733300D01*
X137648861Y-80728947D01*
X137662445Y-80695157D01*
X137711088Y-80574154D01*
X137751745Y-80528841D01*
X137812017Y-80520263D01*
X137863702Y-80552434D01*
X137877244Y-80576763D01*
X137925766Y-80709356D01*
X137928761Y-80713813D01*
X138014101Y-80840813D01*
X138020330Y-80850083D01*
X138024298Y-80853693D01*
X138024300Y-80853696D01*
X138038519Y-80866634D01*
X138145733Y-80964191D01*
X138294735Y-81045092D01*
X138458733Y-81088116D01*
X138543497Y-81089448D01*
X138622892Y-81090695D01*
X138622895Y-81090695D01*
X138628260Y-81090779D01*
X138633489Y-81089581D01*
X138633493Y-81089581D01*
X138788299Y-81054126D01*
X138788300Y-81054125D01*
X138793529Y-81052928D01*
X138944998Y-80976747D01*
X139073923Y-80866634D01*
X139172861Y-80728947D01*
X139236101Y-80571634D01*
X139259990Y-80403778D01*
X139260145Y-80389000D01*
X139239776Y-80220680D01*
X139193272Y-80097611D01*
X141247894Y-80097611D01*
X141248482Y-80102937D01*
X141248482Y-80102939D01*
X141261481Y-80220680D01*
X141266499Y-80266135D01*
X141324766Y-80425356D01*
X141327761Y-80429813D01*
X141402046Y-80540361D01*
X141419330Y-80566083D01*
X141423298Y-80569693D01*
X141423300Y-80569696D01*
X141540762Y-80676578D01*
X141544733Y-80680191D01*
X141693735Y-80761092D01*
X141728171Y-80770126D01*
X141842471Y-80800112D01*
X141857733Y-80804116D01*
X141942496Y-80805447D01*
X142021892Y-80806695D01*
X142021895Y-80806695D01*
X142027260Y-80806779D01*
X142032489Y-80805581D01*
X142032493Y-80805581D01*
X142187299Y-80770126D01*
X142187300Y-80770125D01*
X142192529Y-80768928D01*
X142343998Y-80692747D01*
X142410895Y-80635611D01*
X146230894Y-80635611D01*
X146231482Y-80640937D01*
X146231482Y-80640939D01*
X146244465Y-80758534D01*
X146249499Y-80804135D01*
X146307766Y-80963356D01*
X146314424Y-80973264D01*
X146397214Y-81096469D01*
X146402330Y-81104083D01*
X146406298Y-81107693D01*
X146406300Y-81107696D01*
X146523762Y-81214578D01*
X146527733Y-81218191D01*
X146676735Y-81299092D01*
X146840733Y-81342116D01*
X146925497Y-81343448D01*
X147004892Y-81344695D01*
X147004895Y-81344695D01*
X147010260Y-81344779D01*
X147015489Y-81343581D01*
X147015493Y-81343581D01*
X147170299Y-81308126D01*
X147170300Y-81308125D01*
X147175529Y-81306928D01*
X147326998Y-81230747D01*
X147455923Y-81120634D01*
X147554861Y-80982947D01*
X147618101Y-80825634D01*
X147641990Y-80657778D01*
X147642145Y-80643000D01*
X147621776Y-80474680D01*
X147561845Y-80316077D01*
X147465812Y-80176349D01*
X147339221Y-80063560D01*
X147220331Y-80000611D01*
X152072894Y-80000611D01*
X152073482Y-80005937D01*
X152073482Y-80005939D01*
X152086365Y-80122628D01*
X152091499Y-80169135D01*
X152149766Y-80328356D01*
X152159823Y-80343322D01*
X152231421Y-80449872D01*
X152244330Y-80469083D01*
X152248298Y-80472693D01*
X152248300Y-80472696D01*
X152364327Y-80578272D01*
X152369733Y-80583191D01*
X152518735Y-80664092D01*
X152593221Y-80683633D01*
X152672049Y-80704313D01*
X152682733Y-80707116D01*
X152767497Y-80708448D01*
X152846892Y-80709695D01*
X152846895Y-80709695D01*
X152852260Y-80709779D01*
X152857489Y-80708581D01*
X152857493Y-80708581D01*
X153012299Y-80673126D01*
X153012300Y-80673125D01*
X153017529Y-80671928D01*
X153168998Y-80595747D01*
X153208882Y-80561683D01*
X153265905Y-80540361D01*
X153323293Y-80560683D01*
X153354192Y-80613138D01*
X153355145Y-80619591D01*
X153360909Y-80671795D01*
X153361499Y-80677135D01*
X153419766Y-80836356D01*
X153428990Y-80850083D01*
X153508101Y-80967813D01*
X153514330Y-80977083D01*
X153518298Y-80980693D01*
X153518300Y-80980696D01*
X153635762Y-81087578D01*
X153639733Y-81091191D01*
X153788735Y-81172092D01*
X153952733Y-81215116D01*
X154037496Y-81216447D01*
X154116892Y-81217695D01*
X154116895Y-81217695D01*
X154122260Y-81217779D01*
X154127489Y-81216581D01*
X154127493Y-81216581D01*
X154282299Y-81181126D01*
X154282300Y-81181125D01*
X154287529Y-81179928D01*
X154438998Y-81103747D01*
X154567923Y-80993634D01*
X154666861Y-80855947D01*
X154730101Y-80698634D01*
X154753990Y-80530778D01*
X154754145Y-80516000D01*
X154733776Y-80347680D01*
X154673845Y-80189077D01*
X154577812Y-80049349D01*
X154451221Y-79936560D01*
X154314740Y-79864297D01*
X154306124Y-79859735D01*
X154306122Y-79859734D01*
X154301381Y-79857224D01*
X154290983Y-79854612D01*
X154224175Y-79837831D01*
X154136941Y-79815919D01*
X154057146Y-79815501D01*
X153972758Y-79815059D01*
X153972757Y-79815059D01*
X153967395Y-79815031D01*
X153962180Y-79816283D01*
X153954545Y-79818116D01*
X153802532Y-79854612D01*
X153651869Y-79932375D01*
X153618550Y-79961441D01*
X153561753Y-79983358D01*
X153504155Y-79963638D01*
X153472709Y-79911508D01*
X153471689Y-79905067D01*
X153464421Y-79845009D01*
X153464421Y-79845008D01*
X153463776Y-79839680D01*
X153403845Y-79681077D01*
X153307812Y-79541349D01*
X153181221Y-79428560D01*
X153074477Y-79372042D01*
X153036124Y-79351735D01*
X153036122Y-79351734D01*
X153031381Y-79349224D01*
X153020983Y-79346612D01*
X152990985Y-79339077D01*
X152866941Y-79307919D01*
X152787146Y-79307501D01*
X152702758Y-79307059D01*
X152702757Y-79307059D01*
X152697395Y-79307031D01*
X152692180Y-79308283D01*
X152676515Y-79312044D01*
X152532532Y-79346612D01*
X152381869Y-79424375D01*
X152342152Y-79459022D01*
X152291728Y-79503010D01*
X152254104Y-79535831D01*
X152251018Y-79540222D01*
X152184560Y-79634783D01*
X152156613Y-79674547D01*
X152154665Y-79679543D01*
X152154664Y-79679545D01*
X152135415Y-79728917D01*
X152095024Y-79832513D01*
X152072894Y-80000611D01*
X147220331Y-80000611D01*
X147210608Y-79995463D01*
X147194124Y-79986735D01*
X147194122Y-79986734D01*
X147189381Y-79984224D01*
X147178983Y-79981612D01*
X147154536Y-79975472D01*
X147024941Y-79942919D01*
X146945146Y-79942501D01*
X146860758Y-79942059D01*
X146860757Y-79942059D01*
X146855395Y-79942031D01*
X146850180Y-79943283D01*
X146831224Y-79947834D01*
X146690532Y-79981612D01*
X146539869Y-80059375D01*
X146535825Y-80062903D01*
X146462254Y-80127083D01*
X146412104Y-80170831D01*
X146409018Y-80175222D01*
X146326514Y-80292614D01*
X146314613Y-80309547D01*
X146312665Y-80314543D01*
X146312664Y-80314545D01*
X146292947Y-80365116D01*
X146253024Y-80467513D01*
X146230894Y-80635611D01*
X142410895Y-80635611D01*
X142472923Y-80582634D01*
X142571861Y-80444947D01*
X142635101Y-80287634D01*
X142658990Y-80119778D01*
X142659145Y-80105000D01*
X142638776Y-79936680D01*
X142578845Y-79778077D01*
X142482812Y-79638349D01*
X142356221Y-79525560D01*
X142237376Y-79462635D01*
X142211124Y-79448735D01*
X142211122Y-79448734D01*
X142206381Y-79446224D01*
X142195983Y-79443612D01*
X142146489Y-79431180D01*
X142041941Y-79404919D01*
X141962146Y-79404501D01*
X141877758Y-79404059D01*
X141877757Y-79404059D01*
X141872395Y-79404031D01*
X141867180Y-79405283D01*
X141848224Y-79409834D01*
X141707532Y-79443612D01*
X141556869Y-79521375D01*
X141429104Y-79632831D01*
X141426018Y-79637222D01*
X141385980Y-79694191D01*
X141331613Y-79771547D01*
X141329665Y-79776543D01*
X141329664Y-79776545D01*
X141312885Y-79819581D01*
X141270024Y-79929513D01*
X141247894Y-80097611D01*
X139193272Y-80097611D01*
X139179845Y-80062077D01*
X139083812Y-79922349D01*
X138957221Y-79809560D01*
X138877602Y-79767404D01*
X138812124Y-79732735D01*
X138812122Y-79732734D01*
X138807381Y-79730224D01*
X138653447Y-79691558D01*
X138612197Y-79668172D01*
X138103834Y-79159810D01*
X138101253Y-79157119D01*
X138062804Y-79115306D01*
X138058700Y-79110843D01*
X138053549Y-79107649D01*
X138053545Y-79107646D01*
X138020227Y-79086989D01*
X138013323Y-79082243D01*
X137988885Y-79063694D01*
X137982119Y-79058558D01*
X137982117Y-79058557D01*
X137977282Y-79054887D01*
X137960234Y-79048137D01*
X137946107Y-79041033D01*
X137930513Y-79031364D01*
X137924687Y-79029672D01*
X137924684Y-79029670D01*
X137887058Y-79018739D01*
X137879125Y-79016023D01*
X137842688Y-79001596D01*
X137842682Y-79001595D01*
X137837046Y-78999363D01*
X137820740Y-78997649D01*
X137818809Y-78997446D01*
X137803291Y-78994402D01*
X137785674Y-78989284D01*
X137781027Y-78988943D01*
X137781023Y-78988942D01*
X137776942Y-78988643D01*
X137774984Y-78988499D01*
X137738337Y-78988499D01*
X137729034Y-78988011D01*
X137693080Y-78984232D01*
X137693078Y-78984232D01*
X137687045Y-78983598D01*
X137681068Y-78984609D01*
X137681065Y-78984609D01*
X137665435Y-78987253D01*
X137650593Y-78988499D01*
X135239730Y-78988499D01*
X135236003Y-78988421D01*
X135179269Y-78986043D01*
X135179268Y-78986043D01*
X135173205Y-78985789D01*
X135129147Y-78996123D01*
X135120909Y-78997649D01*
X135082081Y-79002968D01*
X135082073Y-79002970D01*
X135076067Y-79003793D01*
X135059239Y-79011075D01*
X135044214Y-79016044D01*
X135032270Y-79018845D01*
X135032266Y-79018846D01*
X135026363Y-79020231D01*
X134986697Y-79042038D01*
X134979188Y-79045717D01*
X134937644Y-79063694D01*
X134932927Y-79067513D01*
X134932928Y-79067513D01*
X134923393Y-79075234D01*
X134910263Y-79084057D01*
X134898283Y-79090643D01*
X134898280Y-79090645D01*
X134894191Y-79092893D01*
X134890660Y-79095941D01*
X134890657Y-79095943D01*
X134887309Y-79098833D01*
X134887301Y-79098841D01*
X134886077Y-79099897D01*
X134860168Y-79125806D01*
X134853244Y-79132040D01*
X134829352Y-79151387D01*
X134771789Y-79171206D01*
X134714953Y-79149389D01*
X134684988Y-79092912D01*
X134668421Y-78956010D01*
X134667776Y-78950680D01*
X134656802Y-78921638D01*
X160568758Y-78921638D01*
X160569346Y-78926964D01*
X160569346Y-78926966D01*
X160584863Y-79067513D01*
X160586035Y-79078133D01*
X160640143Y-79225990D01*
X160727958Y-79356672D01*
X160731926Y-79360282D01*
X160731928Y-79360285D01*
X160829134Y-79448735D01*
X160844410Y-79462635D01*
X160982776Y-79537762D01*
X161135069Y-79577715D01*
X161213782Y-79578951D01*
X161287127Y-79580104D01*
X161287130Y-79580104D01*
X161292495Y-79580188D01*
X161297725Y-79578990D01*
X161297727Y-79578990D01*
X161440738Y-79546236D01*
X161440739Y-79546236D01*
X161445968Y-79545038D01*
X161515270Y-79510183D01*
X161581834Y-79476705D01*
X161581836Y-79476703D01*
X161586625Y-79474295D01*
X161706348Y-79372042D01*
X161798224Y-79244183D01*
X161856950Y-79098098D01*
X161879134Y-78942223D01*
X161879278Y-78928500D01*
X161860363Y-78772194D01*
X161804710Y-78624912D01*
X161715531Y-78495157D01*
X161597976Y-78390419D01*
X161507128Y-78342317D01*
X161463574Y-78319256D01*
X161463572Y-78319255D01*
X161458831Y-78316745D01*
X161306128Y-78278389D01*
X161233540Y-78278009D01*
X161154047Y-78277593D01*
X161154046Y-78277593D01*
X161148684Y-78277565D01*
X160995588Y-78314320D01*
X160855679Y-78386532D01*
X160851641Y-78390055D01*
X160851639Y-78390056D01*
X160768326Y-78462735D01*
X160737034Y-78490033D01*
X160646501Y-78618848D01*
X160589309Y-78765539D01*
X160568758Y-78921638D01*
X134656802Y-78921638D01*
X134607845Y-78792077D01*
X134511812Y-78652349D01*
X134385221Y-78539560D01*
X134291681Y-78490033D01*
X134240124Y-78462735D01*
X134240122Y-78462734D01*
X134235381Y-78460224D01*
X134224983Y-78457612D01*
X134185016Y-78447573D01*
X134070941Y-78418919D01*
X133991146Y-78418501D01*
X133906758Y-78418059D01*
X133906757Y-78418059D01*
X133901395Y-78418031D01*
X133896180Y-78419283D01*
X133877224Y-78423834D01*
X133736532Y-78457612D01*
X133585869Y-78535375D01*
X133559180Y-78558657D01*
X133495211Y-78614461D01*
X133458104Y-78646831D01*
X133455018Y-78651222D01*
X133366252Y-78777524D01*
X133360613Y-78785547D01*
X133299024Y-78943513D01*
X133276894Y-79111611D01*
X133277482Y-79116937D01*
X133277482Y-79116939D01*
X133290980Y-79239200D01*
X133295499Y-79280135D01*
X133353766Y-79439356D01*
X133356761Y-79443813D01*
X133425273Y-79545770D01*
X133448330Y-79580083D01*
X133452298Y-79583693D01*
X133452300Y-79583696D01*
X133554462Y-79676656D01*
X133573733Y-79694191D01*
X133722735Y-79775092D01*
X133838045Y-79805343D01*
X133878359Y-79815919D01*
X133886733Y-79818116D01*
X133971497Y-79819448D01*
X134050892Y-79820695D01*
X134050895Y-79820695D01*
X134056260Y-79820779D01*
X134061490Y-79819581D01*
X134061492Y-79819581D01*
X134089675Y-79813126D01*
X134093827Y-79812175D01*
X134154239Y-79819700D01*
X134195681Y-79864297D01*
X134199162Y-79923757D01*
X134194785Y-79938823D01*
X134194000Y-79949513D01*
X134194000Y-79986160D01*
X134193512Y-79995463D01*
X134189818Y-80030615D01*
X134189099Y-80037452D01*
X134190110Y-80043429D01*
X134190110Y-80043432D01*
X134192754Y-80059062D01*
X134194000Y-80073904D01*
X134194000Y-82153019D01*
X134173178Y-82210227D01*
X134120455Y-82240667D01*
X134083318Y-82239338D01*
X133988140Y-82215431D01*
X133988141Y-82215431D01*
X133982941Y-82214125D01*
X133903146Y-82213707D01*
X133818758Y-82213265D01*
X133818757Y-82213265D01*
X133813395Y-82213237D01*
X133808180Y-82214489D01*
X133789224Y-82219040D01*
X133648532Y-82252818D01*
X133497869Y-82330581D01*
X133476028Y-82349634D01*
X133390885Y-82423909D01*
X133370104Y-82442037D01*
X133367018Y-82446428D01*
X133287960Y-82558917D01*
X133272613Y-82580753D01*
X133270665Y-82585749D01*
X133270664Y-82585751D01*
X133257924Y-82618427D01*
X133217743Y-82664164D01*
X133157564Y-82673371D01*
X133115798Y-82652547D01*
X133105228Y-82643129D01*
X133105222Y-82643125D01*
X133101221Y-82639560D01*
X133002285Y-82587176D01*
X132956124Y-82562735D01*
X132956122Y-82562734D01*
X132951381Y-82560224D01*
X132940983Y-82557612D01*
X132916536Y-82551472D01*
X132786941Y-82518919D01*
X132707146Y-82518501D01*
X132622758Y-82518059D01*
X132622757Y-82518059D01*
X132617395Y-82518031D01*
X132612180Y-82519283D01*
X132593224Y-82523834D01*
X132452532Y-82557612D01*
X132301869Y-82635375D01*
X132265921Y-82666734D01*
X132183565Y-82738578D01*
X132174104Y-82746831D01*
X132171018Y-82751222D01*
X132082179Y-82877628D01*
X132076613Y-82885547D01*
X132074665Y-82890543D01*
X132074664Y-82890545D01*
X132069451Y-82903917D01*
X132015024Y-83043513D01*
X131992894Y-83211611D01*
X130459623Y-83211611D01*
X130414078Y-83124491D01*
X130409331Y-83117236D01*
X130287847Y-82966142D01*
X130281787Y-82959954D01*
X130133271Y-82835333D01*
X130126117Y-82830435D01*
X129956226Y-82737036D01*
X129948263Y-82733623D01*
X129763456Y-82675000D01*
X129754990Y-82673200D01*
X129604124Y-82656277D01*
X129599164Y-82656000D01*
X129288194Y-82656000D01*
X129276171Y-82660376D01*
X129272500Y-82666734D01*
X129272500Y-83419306D01*
X128764500Y-83419306D01*
X128764500Y-82671694D01*
X128760124Y-82659671D01*
X128753766Y-82656000D01*
X128444712Y-82656000D01*
X128440352Y-82656213D01*
X128296222Y-82670346D01*
X128287712Y-82672031D01*
X128102123Y-82728063D01*
X128094101Y-82731369D01*
X127922924Y-82822386D01*
X127915710Y-82827179D01*
X127765461Y-82949719D01*
X127759320Y-82955817D01*
X127635730Y-83105211D01*
X127630895Y-83112380D01*
X127538676Y-83282936D01*
X127535322Y-83290914D01*
X127495361Y-83420009D01*
X126310127Y-83420009D01*
X126278852Y-83313747D01*
X126275605Y-83305710D01*
X126188058Y-83138247D01*
X126183310Y-83130992D01*
X126064899Y-82983718D01*
X126058839Y-82977530D01*
X125914078Y-82856062D01*
X125906924Y-82851163D01*
X125741330Y-82760126D01*
X125733367Y-82756713D01*
X125553233Y-82699571D01*
X125544767Y-82697772D01*
X125397713Y-82681277D01*
X125392753Y-82681000D01*
X125108194Y-82681000D01*
X125096171Y-82685376D01*
X125092500Y-82691734D01*
X125092500Y-83419306D01*
X124584500Y-83419306D01*
X124584500Y-82696694D01*
X124580124Y-82684671D01*
X124573766Y-82681000D01*
X124290944Y-82681000D01*
X124286584Y-82681213D01*
X124146101Y-82694988D01*
X124137592Y-82696673D01*
X123956688Y-82751292D01*
X123948686Y-82754589D01*
X123781824Y-82843310D01*
X123774608Y-82848105D01*
X123628162Y-82967544D01*
X123622021Y-82973642D01*
X123501556Y-83119258D01*
X123496721Y-83126427D01*
X123406834Y-83292670D01*
X123403480Y-83300648D01*
X123366533Y-83420008D01*
X122702500Y-83420008D01*
X122702500Y-78985138D01*
X131549258Y-78985138D01*
X131549846Y-78990464D01*
X131549846Y-78990466D01*
X131565668Y-79133778D01*
X131566535Y-79141633D01*
X131620643Y-79289490D01*
X131708458Y-79420172D01*
X131712426Y-79423782D01*
X131712428Y-79423785D01*
X131820939Y-79522522D01*
X131824910Y-79526135D01*
X131963276Y-79601262D01*
X132115569Y-79641215D01*
X132194282Y-79642452D01*
X132267627Y-79643604D01*
X132267630Y-79643604D01*
X132272995Y-79643688D01*
X132278225Y-79642490D01*
X132278227Y-79642490D01*
X132421238Y-79609736D01*
X132421239Y-79609736D01*
X132426468Y-79608538D01*
X132495770Y-79573683D01*
X132562334Y-79540205D01*
X132562336Y-79540203D01*
X132567125Y-79537795D01*
X132686848Y-79435542D01*
X132778724Y-79307683D01*
X132837450Y-79161598D01*
X132859634Y-79005723D01*
X132859678Y-79001596D01*
X132859721Y-78997446D01*
X132859778Y-78992000D01*
X132840863Y-78835694D01*
X132785210Y-78688412D01*
X132696031Y-78558657D01*
X132578476Y-78453919D01*
X132514840Y-78420225D01*
X132444074Y-78382756D01*
X132444072Y-78382755D01*
X132439331Y-78380245D01*
X132286628Y-78341889D01*
X132214040Y-78341509D01*
X132134547Y-78341093D01*
X132134546Y-78341093D01*
X132129184Y-78341065D01*
X131976088Y-78377820D01*
X131836179Y-78450032D01*
X131832141Y-78453555D01*
X131832139Y-78453556D01*
X131733551Y-78539560D01*
X131717534Y-78553533D01*
X131714448Y-78557924D01*
X131644978Y-78656770D01*
X131627001Y-78682348D01*
X131569809Y-78829039D01*
X131549258Y-78985138D01*
X122702500Y-78985138D01*
X122702500Y-75555611D01*
X157152894Y-75555611D01*
X157153482Y-75560937D01*
X157153482Y-75560939D01*
X157155661Y-75580670D01*
X157171499Y-75724135D01*
X157229766Y-75883356D01*
X157324330Y-76024083D01*
X157328298Y-76027693D01*
X157328300Y-76027696D01*
X157342519Y-76040634D01*
X157449733Y-76138191D01*
X157598735Y-76219092D01*
X157762733Y-76262116D01*
X157847496Y-76263447D01*
X157926892Y-76264695D01*
X157926895Y-76264695D01*
X157932260Y-76264779D01*
X157937489Y-76263581D01*
X157937493Y-76263581D01*
X158092299Y-76228126D01*
X158092300Y-76228125D01*
X158097529Y-76226928D01*
X158248998Y-76150747D01*
X158377923Y-76040634D01*
X158476861Y-75902947D01*
X158540101Y-75745634D01*
X158563990Y-75577778D01*
X158564145Y-75563000D01*
X158543776Y-75394680D01*
X158483845Y-75236077D01*
X158387812Y-75096349D01*
X158261221Y-74983560D01*
X158204763Y-74953667D01*
X158116124Y-74906735D01*
X158116122Y-74906734D01*
X158111381Y-74904224D01*
X158100983Y-74901612D01*
X158076536Y-74895472D01*
X157946941Y-74862919D01*
X157867146Y-74862501D01*
X157782758Y-74862059D01*
X157782757Y-74862059D01*
X157777395Y-74862031D01*
X157772180Y-74863283D01*
X157753224Y-74867834D01*
X157612532Y-74901612D01*
X157461869Y-74979375D01*
X157334104Y-75090831D01*
X157236613Y-75229547D01*
X157175024Y-75387513D01*
X157152894Y-75555611D01*
X122702500Y-75555611D01*
X122702500Y-73262000D01*
X122723322Y-73204792D01*
X122776045Y-73174352D01*
X122791500Y-73173000D01*
X172605500Y-73173000D01*
X172662708Y-73193822D01*
G37*
%TD.AperFunction*%
%TD*%
M02*
