%TF.GenerationSoftware,KiCad,Pcbnew,6.0.4-6f826c9f35~116~ubuntu20.04.1*%
%TF.CreationDate,2023-05-11T07:13:51+00:00*%
%TF.ProjectId,TFGPS01B,54464750-5330-4314-922e-6b696361645f,REV*%
%TF.SameCoordinates,Original*%
%TF.FileFunction,Copper,L3,Inr*%
%TF.FilePolarity,Positive*%
%FSLAX46Y46*%
G04 Gerber Fmt 4.6, Leading zero omitted, Abs format (unit mm)*
G04 Created by KiCad (PCBNEW 6.0.4-6f826c9f35~116~ubuntu20.04.1) date 2023-05-11 07:13:51*
%MOMM*%
%LPD*%
G01*
G04 APERTURE LIST*
%TA.AperFunction,ComponentPad*%
%ADD10C,6.000000*%
%TD*%
%TA.AperFunction,ComponentPad*%
%ADD11O,2.000000X1.000000*%
%TD*%
%TA.AperFunction,ComponentPad*%
%ADD12O,2.100000X1.050000*%
%TD*%
%TA.AperFunction,ViaPad*%
%ADD13C,0.800000*%
%TD*%
%TA.AperFunction,ViaPad*%
%ADD14C,0.700000*%
%TD*%
%TA.AperFunction,ViaPad*%
%ADD15C,0.600000*%
%TD*%
%TA.AperFunction,Conductor*%
%ADD16C,1.000000*%
%TD*%
%TA.AperFunction,Conductor*%
%ADD17C,0.500000*%
%TD*%
G04 APERTURE END LIST*
D10*
%TO.N,GND*%
%TO.C,M4*%
X167718500Y-118189000D03*
%TD*%
%TO.N,GND*%
%TO.C,M2*%
X127678500Y-118189000D03*
%TD*%
%TO.N,GND*%
%TO.C,M1*%
X167718500Y-78149000D03*
%TD*%
%TO.N,GND*%
%TO.C,M3*%
X127678500Y-78149000D03*
%TD*%
D11*
%TO.N,GND*%
%TO.C,J2*%
X124838500Y-92329000D03*
X124838500Y-83689000D03*
D12*
X129018500Y-92329000D03*
X129018500Y-83689000D03*
%TD*%
D13*
%TO.N,GND*%
X141983500Y-94994000D03*
X162938500Y-75309000D03*
X158722100Y-103757000D03*
X133728500Y-110869000D03*
X140522110Y-107322501D03*
X126108500Y-85469000D03*
X126108500Y-90549000D03*
X155724900Y-99591400D03*
D14*
X156876500Y-112139000D03*
D13*
X153413500Y-84834000D03*
D15*
X167129500Y-83945000D03*
D13*
X132458500Y-114044000D03*
D14*
X157824900Y-112139000D03*
D13*
X150848100Y-104366600D03*
X164208500Y-107059000D03*
X159687300Y-95527400D03*
D14*
X155166100Y-109395800D03*
D13*
X152372100Y-103350600D03*
X131823500Y-74039000D03*
D14*
X145260100Y-109040200D03*
D13*
X138808500Y-98804000D03*
D14*
X153082900Y-112139000D03*
D13*
X154302500Y-98169000D03*
X150746500Y-103147400D03*
X153997700Y-97102200D03*
D14*
X148155700Y-111123000D03*
D13*
X154048500Y-116584000D03*
X146428500Y-79119000D03*
X133728500Y-112139000D03*
X152778500Y-101115400D03*
X157858500Y-86104000D03*
X143046470Y-95201031D03*
X153540500Y-101826600D03*
D14*
X156598565Y-109649800D03*
D13*
X152143500Y-84834000D03*
X132458500Y-115314000D03*
X155674100Y-104519000D03*
X147546100Y-107008200D03*
X162938500Y-118489000D03*
X151965700Y-100404200D03*
X137538500Y-100074000D03*
X157909300Y-95730600D03*
D14*
X146377700Y-109141800D03*
D13*
X157655300Y-101928200D03*
X151559300Y-101369400D03*
D14*
X152168900Y-112139000D03*
D13*
X153438900Y-96187800D03*
X138808500Y-101979000D03*
X154353300Y-109243400D03*
X158722100Y-102690200D03*
X131188500Y-118489000D03*
X153413500Y-86104000D03*
X149679700Y-98270600D03*
X149374900Y-104265000D03*
D14*
X156486900Y-106093800D03*
D13*
X155013700Y-98880200D03*
X140078500Y-100074000D03*
X152143500Y-86104000D03*
X131823500Y-75309000D03*
X131188500Y-121029000D03*
D15*
X165986500Y-83945000D03*
D14*
X147088900Y-111123000D03*
D13*
X164208500Y-75309000D03*
X131188500Y-119759000D03*
X158163300Y-106754200D03*
X131188500Y-122299000D03*
X157858500Y-84834000D03*
D14*
X148866900Y-109091000D03*
D13*
X159890500Y-102360000D03*
X135633500Y-112139000D03*
X160500100Y-105789000D03*
X153159500Y-82675000D03*
X150441700Y-96289400D03*
X149476500Y-118743000D03*
X150873500Y-86104000D03*
X149781300Y-97102200D03*
X151356100Y-95832200D03*
X150873500Y-84834000D03*
X150848100Y-102080600D03*
X163573500Y-117219000D03*
X158722100Y-104874600D03*
D14*
X154979700Y-112139000D03*
X154031300Y-112139000D03*
D13*
X149984500Y-99388200D03*
X126108500Y-86739000D03*
D15*
X156637384Y-110704797D03*
D13*
X163573500Y-105154000D03*
X150873500Y-79119000D03*
D15*
X161795500Y-86358000D03*
D13*
X155623300Y-103401400D03*
X152270500Y-109243400D03*
X148155700Y-112443800D03*
X126108500Y-88009000D03*
X134363500Y-103249000D03*
D14*
X147088900Y-109853000D03*
D13*
X146428500Y-77849000D03*
X152422900Y-105484200D03*
X155623300Y-96391000D03*
X126108500Y-89279000D03*
X133728500Y-115314000D03*
X158112500Y-99439000D03*
X149730500Y-101369400D03*
X149984500Y-108837000D03*
X153311900Y-109243400D03*
X160652500Y-103249000D03*
X132458500Y-107059000D03*
X135633500Y-110869000D03*
X159128500Y-86104000D03*
X146987300Y-112494600D03*
X133728500Y-114044000D03*
X171828500Y-109599000D03*
X159128500Y-84834000D03*
X151000500Y-105839800D03*
X151152900Y-108989400D03*
X144040900Y-107516200D03*
D14*
X155775700Y-105535000D03*
X143888500Y-109345000D03*
D13*
X150873500Y-83564000D03*
D14*
X155928100Y-112139000D03*
D13*
X158823700Y-105992200D03*
X150848100Y-100150200D03*
X152422900Y-95832200D03*
X148968500Y-77849000D03*
D14*
X148104900Y-109802200D03*
D13*
%TO.N,/VBACKUP*%
X150604225Y-90555979D03*
X128648500Y-100074000D03*
%TO.N,+3V3*%
X146936500Y-88263000D03*
X146936500Y-80643000D03*
X147190500Y-104773000D03*
%TO.N,+5V*%
X157858500Y-75563000D03*
D14*
X171912501Y-88601001D03*
D13*
X151762500Y-118997000D03*
D14*
X132204500Y-78992000D03*
D13*
X168526500Y-109599000D03*
D14*
X161224000Y-78928500D03*
D13*
%TO.N,/SAFETY_SW_LED*%
X136924752Y-114725652D03*
X158630188Y-80506312D03*
X154048500Y-80516000D03*
%TO.N,/RTK_STAT*%
X159636500Y-94105000D03*
X139570500Y-109345000D03*
X128394500Y-110615000D03*
%TO.N,/BUZZER*%
X160906500Y-97407000D03*
X156588500Y-79666000D03*
X162723499Y-104280003D03*
X136395500Y-116457000D03*
X160328574Y-114876861D03*
%TO.N,/GEO_STAT*%
X138720490Y-108356215D03*
X158798499Y-90726999D03*
X128267500Y-109218000D03*
%TO.N,/SAFETY_SW*%
X136928900Y-113409000D03*
X155318500Y-83564000D03*
%TO.N,/SDA1*%
X141475500Y-116457000D03*
X157858500Y-116457000D03*
%TO.N,/TX*%
X124025700Y-104265000D03*
X143937541Y-116467041D03*
X143380500Y-82167000D03*
%TO.N,/RX*%
X133894500Y-82914206D03*
X145412500Y-116457000D03*
X133855500Y-94486000D03*
X123974900Y-102233000D03*
%TO.N,/SDA*%
X123949500Y-108329000D03*
X139062500Y-82789011D03*
%TO.N,/SCL*%
X124076500Y-106297000D03*
X141094500Y-82421000D03*
%TO.N,Net-(J5-Pad1)*%
X135633500Y-80389000D03*
X146047500Y-91819000D03*
%TO.N,Net-(J5-Pad2)*%
X146815723Y-91178814D03*
X137030500Y-80389000D03*
%TO.N,Net-(J5-Pad3)*%
X138681500Y-94486000D03*
X124076500Y-110361000D03*
X138554500Y-80389000D03*
%TO.N,Net-(J5-Pad6)*%
X133982500Y-79119000D03*
X141953500Y-80105000D03*
%TO.N,/D1-*%
X140658477Y-91140000D03*
X146356448Y-98477948D03*
%TO.N,/D1+*%
X147444500Y-98296000D03*
X140658477Y-90090000D03*
%TO.N,/SAFE_VCC*%
X137623259Y-116626241D03*
X152778500Y-80008000D03*
%TO.N,/VBUS*%
X131696500Y-85469000D03*
X131175500Y-90409000D03*
X135317500Y-90422000D03*
%TO.N,Net-(D9-Pad1)*%
X134938500Y-86159000D03*
X132698500Y-83219000D03*
%TD*%
D16*
%TO.N,+3V3*%
X146936500Y-88263000D02*
X148562100Y-89888600D01*
X148562100Y-103401400D02*
X147190500Y-104773000D01*
X148562100Y-89888600D02*
X148562100Y-103401400D01*
X146936500Y-80643000D02*
X146936500Y-88263000D01*
%TO.N,+5V*%
X168526500Y-109599000D02*
X159128500Y-118997000D01*
X171912501Y-83775001D02*
X171912501Y-88601001D01*
X132204500Y-78103000D02*
X132204500Y-78992000D01*
X134744500Y-75563000D02*
X152778500Y-75563000D01*
X152778500Y-75563000D02*
X157858500Y-75563000D01*
X164782490Y-82486990D02*
X170624490Y-82486990D01*
X171912501Y-88601001D02*
X171912501Y-106212999D01*
X157858500Y-75563000D02*
X161224000Y-78928500D01*
X159128500Y-118997000D02*
X151762500Y-118997000D01*
X132204500Y-78103000D02*
X134744500Y-75563000D01*
X170624490Y-82486990D02*
X171912501Y-83775001D01*
X161224000Y-78928500D02*
X164782490Y-82486990D01*
X171912501Y-106212999D02*
X168526500Y-109599000D01*
D17*
%TO.N,/SAFETY_SW_LED*%
X158620500Y-80516000D02*
X158630188Y-80506312D01*
X154048500Y-80516000D02*
X158620500Y-80516000D01*
X165478500Y-108583000D02*
X159941300Y-114120200D01*
X159600774Y-80506312D02*
X165758511Y-86664049D01*
X158630188Y-80506312D02*
X159600774Y-80506312D01*
X159610463Y-80516000D02*
X158639876Y-80516000D01*
X165758511Y-88109989D02*
X165758511Y-87728989D01*
X137530204Y-114120200D02*
X136924752Y-114725652D01*
X165758511Y-108302989D02*
X165758511Y-88109989D01*
X158639876Y-80516000D02*
X158630188Y-80506312D01*
X159941300Y-114120200D02*
X137530204Y-114120200D01*
X165758511Y-86664049D02*
X165758511Y-88109989D01*
X165478500Y-108583000D02*
X165758511Y-108302989D01*
%TO.N,/RTK_STAT*%
X130680500Y-109345000D02*
X129664500Y-109345000D01*
X130680500Y-109345000D02*
X139570500Y-109345000D01*
X129664500Y-109345000D02*
X128394500Y-110615000D01*
%TO.N,/BUZZER*%
X136395500Y-116457000D02*
X137997741Y-114854759D01*
X160306472Y-114854759D02*
X160328574Y-114876861D01*
X137997741Y-114854759D02*
X160306472Y-114854759D01*
%TO.N,/GEO_STAT*%
X128267500Y-109218000D02*
X129129285Y-108356215D01*
X158786499Y-90738999D02*
X158798499Y-90726999D01*
X129129285Y-108356215D02*
X138720490Y-108356215D01*
%TO.N,/SAFETY_SW*%
X163891000Y-85786500D02*
X161668500Y-83564000D01*
X162176500Y-110767400D02*
X159534900Y-113409000D01*
X165058501Y-107885399D02*
X165046700Y-107897200D01*
X159534900Y-113409000D02*
X136928900Y-113409000D01*
X163891000Y-85786500D02*
X165058501Y-86954001D01*
X162176500Y-110767400D02*
X165046700Y-107897200D01*
X155318500Y-83564000D02*
X161668500Y-83564000D01*
X165058501Y-86954001D02*
X165058501Y-107885399D01*
%TO.N,/SDA1*%
X142364500Y-115568000D02*
X156969500Y-115568000D01*
X156969500Y-115568000D02*
X157858500Y-116457000D01*
X141475500Y-116457000D02*
X142364500Y-115568000D01*
%TO.N,/TX*%
X143380500Y-82167000D02*
X142452501Y-81239001D01*
X136167501Y-83068035D02*
X136167501Y-93951999D01*
X125854500Y-104265000D02*
X124025700Y-104265000D01*
X137996535Y-81239001D02*
X136167501Y-83068035D01*
X142452501Y-81239001D02*
X137996535Y-81239001D01*
X136167501Y-93951999D02*
X125854500Y-104265000D01*
%TO.N,/RX*%
X131721900Y-94486000D02*
X123974900Y-102233000D01*
X133855500Y-94486000D02*
X131721900Y-94486000D01*
%TO.N,/SDA*%
X137792500Y-94486000D02*
X123949500Y-108329000D01*
X137792500Y-94486000D02*
X137792500Y-84199000D01*
X139062500Y-82789011D02*
X137792500Y-84059011D01*
X137792500Y-84059011D02*
X137792500Y-84199000D01*
%TO.N,/SCL*%
X136942499Y-83495119D02*
X136942499Y-94193001D01*
X138498607Y-81939011D02*
X136942499Y-83495119D01*
X136942499Y-94193001D02*
X124838500Y-106297000D01*
X140612511Y-81939011D02*
X138498607Y-81939011D01*
X141094500Y-82421000D02*
X140612511Y-81939011D01*
X124838500Y-106297000D02*
X124076500Y-106297000D01*
%TO.N,Net-(J5-Pad3)*%
X138681500Y-94486000D02*
X138681500Y-95756000D01*
X138681500Y-95756000D02*
X124076500Y-110361000D01*
%TO.N,Net-(J5-Pad6)*%
X140967500Y-79119000D02*
X141953500Y-80105000D01*
X133982500Y-79119000D02*
X140967500Y-79119000D01*
%TO.N,/D1-*%
X146356448Y-97308912D02*
X146356448Y-98477948D01*
X140658477Y-91140000D02*
X140658477Y-91610941D01*
X140658477Y-91610941D02*
X146356448Y-97308912D01*
%TO.N,/D1+*%
X141602500Y-90676000D02*
X141016500Y-90090000D01*
X147444500Y-98296000D02*
X147444500Y-97407000D01*
X141602500Y-91565000D02*
X141602500Y-90676000D01*
X147444500Y-97407000D02*
X141602500Y-91565000D01*
X141016500Y-90090000D02*
X140658477Y-90090000D01*
%TO.N,/SAFE_VCC*%
X138431019Y-117434001D02*
X137623259Y-116626241D01*
X159917501Y-79665999D02*
X166458521Y-86207019D01*
X149515499Y-117434001D02*
X138431019Y-117434001D01*
X166458521Y-86207019D02*
X166458521Y-110004916D01*
X154429500Y-78357000D02*
X152778500Y-80008000D01*
X159917501Y-79665999D02*
X159067501Y-78815999D01*
X158620500Y-78357000D02*
X154429500Y-78357000D01*
X159067501Y-78815999D02*
X159067501Y-78804001D01*
X149515499Y-117434001D02*
X159029436Y-117434001D01*
X159067501Y-78804001D02*
X158620500Y-78357000D01*
X166458521Y-110004916D02*
X159029436Y-117434001D01*
%TO.N,/VBUS*%
X135317500Y-89090000D02*
X131696500Y-85469000D01*
X135317500Y-90422000D02*
X131188500Y-90422000D01*
X131188500Y-90422000D02*
X131175500Y-90409000D01*
X135317500Y-90422000D02*
X135317500Y-89090000D01*
%TO.N,Net-(D9-Pad1)*%
X134938500Y-85459000D02*
X132698500Y-83219000D01*
X134938500Y-86159000D02*
X134938500Y-85459000D01*
%TD*%
%TA.AperFunction,Conductor*%
%TO.N,GND*%
G36*
X172662708Y-73193822D02*
G01*
X172693148Y-73246545D01*
X172694500Y-73262000D01*
X172694500Y-83210435D01*
X172673678Y-83267643D01*
X172620955Y-83298083D01*
X172561000Y-83287511D01*
X172542353Y-83273151D01*
X172515592Y-83246203D01*
X172514891Y-83245454D01*
X172514403Y-83244825D01*
X172488542Y-83218964D01*
X172480072Y-83210435D01*
X172419634Y-83149573D01*
X172419629Y-83149569D01*
X172417271Y-83147194D01*
X172416281Y-83146566D01*
X172414949Y-83145371D01*
X171196782Y-81927204D01*
X171196127Y-81926541D01*
X171133631Y-81862722D01*
X171100794Y-81841560D01*
X171096027Y-81838488D01*
X171088713Y-81833232D01*
X171078781Y-81825304D01*
X171053756Y-81805326D01*
X171049276Y-81803160D01*
X171049274Y-81803159D01*
X171021894Y-81789923D01*
X171012419Y-81784606D01*
X170986859Y-81768134D01*
X170982673Y-81765436D01*
X170940623Y-81750131D01*
X170932350Y-81746635D01*
X170896551Y-81729329D01*
X170896542Y-81729326D01*
X170892068Y-81727163D01*
X170887227Y-81726045D01*
X170887226Y-81726045D01*
X170857586Y-81719202D01*
X170847169Y-81716116D01*
X170818588Y-81705714D01*
X170818589Y-81705714D01*
X170813912Y-81704012D01*
X170808976Y-81703388D01*
X170808974Y-81703388D01*
X170769529Y-81698405D01*
X170760664Y-81696826D01*
X170721926Y-81687883D01*
X170717079Y-81686764D01*
X170677041Y-81686624D01*
X170675995Y-81686589D01*
X170675207Y-81686490D01*
X170638623Y-81686490D01*
X170638312Y-81686489D01*
X170637725Y-81686487D01*
X170537490Y-81686137D01*
X170536343Y-81686394D01*
X170534561Y-81686490D01*
X165150934Y-81686490D01*
X165093726Y-81665668D01*
X165088001Y-81660423D01*
X161758110Y-78330532D01*
X161758091Y-78330514D01*
X158430839Y-75003261D01*
X158430184Y-75002599D01*
X158389544Y-74961099D01*
X158367641Y-74938732D01*
X158330037Y-74914498D01*
X158322723Y-74909242D01*
X158312791Y-74901314D01*
X158287766Y-74881336D01*
X158283286Y-74879170D01*
X158283284Y-74879169D01*
X158255904Y-74865933D01*
X158246429Y-74860616D01*
X158242609Y-74858154D01*
X158216683Y-74841446D01*
X158174633Y-74826141D01*
X158166360Y-74822645D01*
X158130561Y-74805339D01*
X158130552Y-74805336D01*
X158126078Y-74803173D01*
X158121237Y-74802055D01*
X158121236Y-74802055D01*
X158091596Y-74795212D01*
X158081179Y-74792126D01*
X158052598Y-74781724D01*
X158052599Y-74781724D01*
X158047922Y-74780022D01*
X158042986Y-74779398D01*
X158042984Y-74779398D01*
X158003539Y-74774415D01*
X157994674Y-74772836D01*
X157955936Y-74763893D01*
X157951089Y-74762774D01*
X157911051Y-74762634D01*
X157910005Y-74762599D01*
X157909217Y-74762500D01*
X157872633Y-74762500D01*
X157872322Y-74762499D01*
X157871735Y-74762497D01*
X157771500Y-74762147D01*
X157770353Y-74762404D01*
X157768571Y-74762500D01*
X134753386Y-74762500D01*
X134752454Y-74762495D01*
X134668065Y-74761611D01*
X134668064Y-74761611D01*
X134663093Y-74761559D01*
X134619364Y-74771014D01*
X134610483Y-74772468D01*
X134598220Y-74773843D01*
X134570973Y-74776899D01*
X134570970Y-74776900D01*
X134566028Y-74777454D01*
X134532602Y-74789094D01*
X134522146Y-74792033D01*
X134513104Y-74793988D01*
X134487558Y-74799511D01*
X134475060Y-74805339D01*
X134447025Y-74818412D01*
X134438683Y-74821799D01*
X134401129Y-74834877D01*
X134401124Y-74834879D01*
X134396427Y-74836515D01*
X134366402Y-74855277D01*
X134356872Y-74860451D01*
X134324792Y-74875410D01*
X134299145Y-74895304D01*
X134289450Y-74902824D01*
X134282065Y-74907976D01*
X134256070Y-74924220D01*
X134244125Y-74931684D01*
X134237028Y-74938732D01*
X134215719Y-74959892D01*
X134214947Y-74960615D01*
X134214323Y-74961099D01*
X134188539Y-74986883D01*
X134188319Y-74987102D01*
X134119072Y-75055867D01*
X134119068Y-75055872D01*
X134116693Y-75058230D01*
X134116065Y-75059220D01*
X134114870Y-75060552D01*
X131644714Y-77530708D01*
X131644051Y-77531363D01*
X131580232Y-77593859D01*
X131577538Y-77598040D01*
X131555998Y-77631463D01*
X131550742Y-77638777D01*
X131522836Y-77673734D01*
X131520670Y-77678214D01*
X131520669Y-77678216D01*
X131507433Y-77705596D01*
X131502116Y-77715071D01*
X131482946Y-77744817D01*
X131467641Y-77786867D01*
X131464145Y-77795140D01*
X131446839Y-77830939D01*
X131446836Y-77830948D01*
X131444673Y-77835422D01*
X131443555Y-77840263D01*
X131443555Y-77840264D01*
X131436712Y-77869904D01*
X131433626Y-77880321D01*
X131428927Y-77893232D01*
X131421522Y-77913578D01*
X131420898Y-77918514D01*
X131420898Y-77918516D01*
X131415915Y-77957961D01*
X131414336Y-77966826D01*
X131412106Y-77976487D01*
X131404274Y-78010411D01*
X131404257Y-78015386D01*
X131404134Y-78050442D01*
X131404099Y-78051495D01*
X131404000Y-78052283D01*
X131404000Y-78088892D01*
X131403647Y-78190000D01*
X131403904Y-78191147D01*
X131404000Y-78192929D01*
X131404000Y-79037155D01*
X131404276Y-79039620D01*
X131404277Y-79039629D01*
X131417266Y-79155421D01*
X131418954Y-79170472D01*
X131427768Y-79195783D01*
X131476129Y-79334656D01*
X131478015Y-79340073D01*
X131573184Y-79492375D01*
X131699730Y-79619807D01*
X131851364Y-79716037D01*
X131856051Y-79717706D01*
X132015863Y-79774613D01*
X132015868Y-79774614D01*
X132020549Y-79776281D01*
X132025485Y-79776870D01*
X132025487Y-79776870D01*
X132193933Y-79796956D01*
X132193937Y-79796956D01*
X132198876Y-79797545D01*
X132299970Y-79786920D01*
X132372529Y-79779294D01*
X132372532Y-79779293D01*
X132377483Y-79778773D01*
X132382192Y-79777170D01*
X132382196Y-79777169D01*
X132542784Y-79722500D01*
X132542783Y-79722500D01*
X132547493Y-79720897D01*
X132551726Y-79718293D01*
X132551730Y-79718291D01*
X132696215Y-79629403D01*
X132696218Y-79629401D01*
X132700455Y-79626794D01*
X132828768Y-79501141D01*
X132831464Y-79496958D01*
X132831467Y-79496954D01*
X132923356Y-79354370D01*
X132923357Y-79354368D01*
X132926054Y-79350183D01*
X132982251Y-79195783D01*
X132985778Y-79186093D01*
X132985778Y-79186092D01*
X132987478Y-79181422D01*
X132999545Y-79085903D01*
X133004650Y-79045491D01*
X133004650Y-79045484D01*
X133005000Y-79042717D01*
X133005000Y-78471444D01*
X133025822Y-78414236D01*
X133031067Y-78408511D01*
X135050011Y-76389567D01*
X135105187Y-76363839D01*
X135112944Y-76363500D01*
X157490056Y-76363500D01*
X157547264Y-76384322D01*
X157552989Y-76389567D01*
X158830662Y-77667240D01*
X158856390Y-77722416D01*
X158840634Y-77781221D01*
X158790764Y-77816140D01*
X158753133Y-77816534D01*
X158753046Y-77817364D01*
X158736741Y-77815650D01*
X158734810Y-77815447D01*
X158719292Y-77812403D01*
X158701675Y-77807285D01*
X158697028Y-77806944D01*
X158697024Y-77806943D01*
X158692943Y-77806644D01*
X158690985Y-77806500D01*
X158654338Y-77806500D01*
X158645035Y-77806012D01*
X158609081Y-77802233D01*
X158609079Y-77802233D01*
X158603046Y-77801599D01*
X158597069Y-77802610D01*
X158597066Y-77802610D01*
X158581436Y-77805254D01*
X158566594Y-77806500D01*
X154443731Y-77806500D01*
X154440004Y-77806422D01*
X154383270Y-77804044D01*
X154383269Y-77804044D01*
X154377206Y-77803790D01*
X154333148Y-77814124D01*
X154324910Y-77815650D01*
X154286082Y-77820969D01*
X154286074Y-77820971D01*
X154280068Y-77821794D01*
X154263240Y-77829076D01*
X154248215Y-77834045D01*
X154236274Y-77836845D01*
X154236268Y-77836847D01*
X154230364Y-77838232D01*
X154225047Y-77841155D01*
X154190704Y-77860035D01*
X154183175Y-77863723D01*
X154141645Y-77881695D01*
X154136930Y-77885513D01*
X154127397Y-77893232D01*
X154114269Y-77902054D01*
X154098192Y-77910893D01*
X154094664Y-77913938D01*
X154094663Y-77913939D01*
X154091310Y-77916833D01*
X154091302Y-77916841D01*
X154090078Y-77917897D01*
X154064163Y-77943812D01*
X154057239Y-77950045D01*
X154029148Y-77972793D01*
X154029146Y-77972795D01*
X154024430Y-77976614D01*
X154020915Y-77981560D01*
X154020914Y-77981561D01*
X154011739Y-77994472D01*
X154002126Y-78005849D01*
X152719813Y-79288162D01*
X152677658Y-79311770D01*
X152532532Y-79346612D01*
X152381869Y-79424375D01*
X152317986Y-79480103D01*
X152291728Y-79503010D01*
X152254104Y-79535831D01*
X152251018Y-79540222D01*
X152164383Y-79663492D01*
X152156613Y-79674547D01*
X152154665Y-79679543D01*
X152154664Y-79679545D01*
X152139786Y-79717706D01*
X152095024Y-79832513D01*
X152072894Y-80000611D01*
X152073482Y-80005937D01*
X152073482Y-80005939D01*
X152088067Y-80138046D01*
X152091499Y-80169135D01*
X152149766Y-80328356D01*
X152152761Y-80332813D01*
X152237227Y-80458512D01*
X152244330Y-80469083D01*
X152248298Y-80472693D01*
X152248300Y-80472696D01*
X152365762Y-80579578D01*
X152369733Y-80583191D01*
X152518735Y-80664092D01*
X152623761Y-80691645D01*
X152672049Y-80704313D01*
X152682733Y-80707116D01*
X152767497Y-80708448D01*
X152846892Y-80709695D01*
X152846895Y-80709695D01*
X152852260Y-80709779D01*
X152857489Y-80708581D01*
X152857493Y-80708581D01*
X153012299Y-80673126D01*
X153012300Y-80673125D01*
X153017529Y-80671928D01*
X153168998Y-80595747D01*
X153208882Y-80561683D01*
X153265905Y-80540361D01*
X153323293Y-80560683D01*
X153354192Y-80613138D01*
X153355145Y-80619591D01*
X153360909Y-80671795D01*
X153361499Y-80677135D01*
X153419766Y-80836356D01*
X153514330Y-80977083D01*
X153518298Y-80980693D01*
X153518300Y-80980696D01*
X153635481Y-81087322D01*
X153639733Y-81091191D01*
X153788735Y-81172092D01*
X153952733Y-81215116D01*
X154037496Y-81216447D01*
X154116892Y-81217695D01*
X154116895Y-81217695D01*
X154122260Y-81217779D01*
X154127489Y-81216581D01*
X154127493Y-81216581D01*
X154282299Y-81181126D01*
X154282300Y-81181125D01*
X154287529Y-81179928D01*
X154438998Y-81103747D01*
X154457640Y-81087825D01*
X154515442Y-81066500D01*
X158173019Y-81066500D01*
X158221215Y-81081882D01*
X158221421Y-81081503D01*
X158370423Y-81162404D01*
X158534421Y-81205428D01*
X158619184Y-81206759D01*
X158698580Y-81208007D01*
X158698583Y-81208007D01*
X158703948Y-81208091D01*
X158709177Y-81206893D01*
X158709181Y-81206893D01*
X158863987Y-81171438D01*
X158863988Y-81171437D01*
X158869217Y-81170240D01*
X159020686Y-81094059D01*
X159027985Y-81087825D01*
X159085787Y-81066500D01*
X159345571Y-81066500D01*
X159402779Y-81087322D01*
X159408504Y-81092567D01*
X161177504Y-82861567D01*
X161203232Y-82916743D01*
X161187476Y-82975548D01*
X161137606Y-83010467D01*
X161114571Y-83013500D01*
X155787599Y-83013500D01*
X155728394Y-82990951D01*
X155725227Y-82988129D01*
X155725226Y-82988128D01*
X155721221Y-82984560D01*
X155610739Y-82926063D01*
X155576124Y-82907735D01*
X155576122Y-82907734D01*
X155571381Y-82905224D01*
X155560983Y-82902612D01*
X155512942Y-82890545D01*
X155406941Y-82863919D01*
X155327146Y-82863501D01*
X155242758Y-82863059D01*
X155242757Y-82863059D01*
X155237395Y-82863031D01*
X155232180Y-82864283D01*
X155224545Y-82866116D01*
X155072532Y-82902612D01*
X154921869Y-82980375D01*
X154794104Y-83091831D01*
X154781532Y-83109719D01*
X154704754Y-83218964D01*
X154696613Y-83230547D01*
X154694665Y-83235543D01*
X154694664Y-83235545D01*
X154678837Y-83276139D01*
X154635024Y-83388513D01*
X154612894Y-83556611D01*
X154631499Y-83725135D01*
X154689766Y-83884356D01*
X154692761Y-83888813D01*
X154735811Y-83952878D01*
X154784330Y-84025083D01*
X154788298Y-84028693D01*
X154788300Y-84028696D01*
X154882598Y-84114500D01*
X154909733Y-84139191D01*
X155058735Y-84220092D01*
X155161333Y-84247008D01*
X155213768Y-84260764D01*
X155222733Y-84263116D01*
X155307497Y-84264448D01*
X155386892Y-84265695D01*
X155386895Y-84265695D01*
X155392260Y-84265779D01*
X155397489Y-84264581D01*
X155397493Y-84264581D01*
X155552299Y-84229126D01*
X155552300Y-84229125D01*
X155557529Y-84227928D01*
X155708998Y-84151747D01*
X155727640Y-84135825D01*
X155785442Y-84114500D01*
X161403609Y-84114500D01*
X161460817Y-84135322D01*
X161466542Y-84140567D01*
X163451897Y-86125922D01*
X164481934Y-87155958D01*
X164507662Y-87211134D01*
X164508001Y-87218891D01*
X164508001Y-107620509D01*
X164487179Y-107677717D01*
X164481934Y-107683441D01*
X163151720Y-109013656D01*
X161837085Y-110328291D01*
X161837078Y-110328297D01*
X161837064Y-110328311D01*
X159332944Y-112832432D01*
X159277768Y-112858161D01*
X159270011Y-112858500D01*
X137397999Y-112858500D01*
X137338794Y-112835951D01*
X137335627Y-112833129D01*
X137335626Y-112833128D01*
X137331621Y-112829560D01*
X137264859Y-112794212D01*
X137186524Y-112752735D01*
X137186522Y-112752734D01*
X137181781Y-112750224D01*
X137171383Y-112747612D01*
X137146936Y-112741472D01*
X137017341Y-112708919D01*
X136937546Y-112708501D01*
X136853158Y-112708059D01*
X136853157Y-112708059D01*
X136847795Y-112708031D01*
X136842580Y-112709283D01*
X136823624Y-112713834D01*
X136682932Y-112747612D01*
X136532269Y-112825375D01*
X136404504Y-112936831D01*
X136307013Y-113075547D01*
X136245424Y-113233513D01*
X136223294Y-113401611D01*
X136241899Y-113570135D01*
X136300166Y-113729356D01*
X136394730Y-113870083D01*
X136398698Y-113873693D01*
X136398700Y-113873696D01*
X136516162Y-113980578D01*
X136520133Y-113984191D01*
X136525924Y-113987335D01*
X136526354Y-113987821D01*
X136529223Y-113989860D01*
X136528749Y-113990528D01*
X136566265Y-114032929D01*
X136567861Y-114093787D01*
X136533487Y-114139160D01*
X136532892Y-114139565D01*
X136528121Y-114142027D01*
X136400356Y-114253483D01*
X136302865Y-114392199D01*
X136300917Y-114397195D01*
X136300916Y-114397197D01*
X136294119Y-114414631D01*
X136241276Y-114550165D01*
X136219146Y-114718263D01*
X136237751Y-114886787D01*
X136296018Y-115046008D01*
X136390582Y-115186735D01*
X136394550Y-115190345D01*
X136394552Y-115190348D01*
X136512014Y-115297230D01*
X136515985Y-115300843D01*
X136520703Y-115303404D01*
X136520702Y-115303404D01*
X136577902Y-115334461D01*
X136618242Y-115380057D01*
X136619836Y-115440916D01*
X136598367Y-115475609D01*
X136336814Y-115737161D01*
X136294659Y-115760769D01*
X136221999Y-115778214D01*
X136149532Y-115795612D01*
X135998869Y-115873375D01*
X135994825Y-115876903D01*
X135888133Y-115969976D01*
X135871104Y-115984831D01*
X135868018Y-115989222D01*
X135776922Y-116118839D01*
X135773613Y-116123547D01*
X135771665Y-116128543D01*
X135771664Y-116128545D01*
X135752350Y-116178084D01*
X135712024Y-116281513D01*
X135689894Y-116449611D01*
X135690482Y-116454937D01*
X135690482Y-116454939D01*
X135703086Y-116569100D01*
X135708499Y-116618135D01*
X135766766Y-116777356D01*
X135769761Y-116781813D01*
X135830028Y-116871500D01*
X135861330Y-116918083D01*
X135865298Y-116921693D01*
X135865300Y-116921696D01*
X135927960Y-116978712D01*
X135986733Y-117032191D01*
X136135735Y-117113092D01*
X136299733Y-117156116D01*
X136384497Y-117157448D01*
X136463892Y-117158695D01*
X136463895Y-117158695D01*
X136469260Y-117158779D01*
X136474489Y-117157581D01*
X136474493Y-117157581D01*
X136629299Y-117122126D01*
X136629300Y-117122125D01*
X136634529Y-117120928D01*
X136785998Y-117044747D01*
X136884433Y-116960675D01*
X136941457Y-116939354D01*
X136998845Y-116959676D01*
X137016105Y-116978712D01*
X137089089Y-117087324D01*
X137093057Y-117090934D01*
X137093059Y-117090937D01*
X137167617Y-117158779D01*
X137214492Y-117201432D01*
X137363494Y-117282333D01*
X137368678Y-117283693D01*
X137526360Y-117325060D01*
X137566707Y-117348214D01*
X138031684Y-117813190D01*
X138034265Y-117815881D01*
X138076818Y-117862157D01*
X138115283Y-117886006D01*
X138122194Y-117890756D01*
X138153402Y-117914445D01*
X138153405Y-117914446D01*
X138158235Y-117918113D01*
X138163880Y-117920348D01*
X138175287Y-117924865D01*
X138189417Y-117931971D01*
X138205005Y-117941636D01*
X138248467Y-117954263D01*
X138256396Y-117956978D01*
X138298472Y-117973637D01*
X138314674Y-117975340D01*
X138316709Y-117975554D01*
X138332227Y-117978598D01*
X138349844Y-117983716D01*
X138354491Y-117984057D01*
X138354495Y-117984058D01*
X138358576Y-117984357D01*
X138360534Y-117984501D01*
X138397181Y-117984501D01*
X138406484Y-117984989D01*
X138442438Y-117988768D01*
X138442440Y-117988768D01*
X138448473Y-117989402D01*
X138454450Y-117988391D01*
X138454453Y-117988391D01*
X138470083Y-117985747D01*
X138484925Y-117984501D01*
X158794055Y-117984501D01*
X158851263Y-118005323D01*
X158881703Y-118058046D01*
X158871131Y-118118001D01*
X158856988Y-118136434D01*
X158822989Y-118170433D01*
X158767813Y-118196161D01*
X158760056Y-118196500D01*
X151717345Y-118196500D01*
X151714880Y-118196776D01*
X151714871Y-118196777D01*
X151588974Y-118210899D01*
X151588972Y-118210899D01*
X151584028Y-118211454D01*
X151499227Y-118240985D01*
X151419124Y-118268879D01*
X151419121Y-118268880D01*
X151414427Y-118270515D01*
X151262125Y-118365684D01*
X151134693Y-118492230D01*
X151038463Y-118643864D01*
X151036794Y-118648551D01*
X150979887Y-118808363D01*
X150979886Y-118808368D01*
X150978219Y-118813049D01*
X150956955Y-118991376D01*
X150975727Y-119169983D01*
X151033603Y-119339993D01*
X151036207Y-119344226D01*
X151036209Y-119344230D01*
X151125097Y-119488715D01*
X151125099Y-119488718D01*
X151127706Y-119492955D01*
X151253359Y-119621268D01*
X151257542Y-119623964D01*
X151257546Y-119623967D01*
X151400130Y-119715856D01*
X151400132Y-119715857D01*
X151404317Y-119718554D01*
X151513757Y-119758387D01*
X151548156Y-119770907D01*
X151573078Y-119779978D01*
X151631053Y-119787302D01*
X151709009Y-119797150D01*
X151709016Y-119797150D01*
X151711783Y-119797500D01*
X159119614Y-119797500D01*
X159120546Y-119797505D01*
X159204935Y-119798389D01*
X159204936Y-119798389D01*
X159209907Y-119798441D01*
X159253636Y-119788986D01*
X159262517Y-119787532D01*
X159274780Y-119786157D01*
X159302027Y-119783101D01*
X159302030Y-119783100D01*
X159306972Y-119782546D01*
X159340398Y-119770906D01*
X159350854Y-119767967D01*
X159366568Y-119764570D01*
X159385442Y-119760489D01*
X159425985Y-119741584D01*
X159434327Y-119738197D01*
X159471872Y-119725122D01*
X159471871Y-119725122D01*
X159476573Y-119723485D01*
X159506581Y-119704734D01*
X159516129Y-119699550D01*
X159543694Y-119686696D01*
X159543698Y-119686694D01*
X159548207Y-119684591D01*
X159552141Y-119681540D01*
X159552145Y-119681537D01*
X159583551Y-119657175D01*
X159590940Y-119652020D01*
X159624653Y-119630955D01*
X159624658Y-119630951D01*
X159628875Y-119628316D01*
X159657282Y-119600107D01*
X159658053Y-119599385D01*
X159658677Y-119598901D01*
X159684537Y-119573041D01*
X159684834Y-119572746D01*
X159753928Y-119504133D01*
X159753932Y-119504128D01*
X159756307Y-119501770D01*
X159756935Y-119500780D01*
X159758130Y-119499448D01*
X172472287Y-106785291D01*
X172472950Y-106784636D01*
X172479925Y-106777806D01*
X172536769Y-106722140D01*
X172537529Y-106720960D01*
X172588823Y-106690382D01*
X172648919Y-106700116D01*
X172688699Y-106746201D01*
X172694500Y-106777806D01*
X172694500Y-123076000D01*
X172673678Y-123133208D01*
X172620955Y-123163648D01*
X172605500Y-123165000D01*
X122791500Y-123165000D01*
X122734292Y-123144178D01*
X122703852Y-123091455D01*
X122702500Y-123076000D01*
X122702500Y-108321611D01*
X123243894Y-108321611D01*
X123244482Y-108326937D01*
X123244482Y-108326939D01*
X123257086Y-108441100D01*
X123262499Y-108490135D01*
X123320766Y-108649356D01*
X123323761Y-108653813D01*
X123401248Y-108769126D01*
X123415330Y-108790083D01*
X123419298Y-108793693D01*
X123419300Y-108793696D01*
X123524637Y-108889545D01*
X123540733Y-108904191D01*
X123689735Y-108985092D01*
X123724171Y-108994126D01*
X123830836Y-109022109D01*
X123853733Y-109028116D01*
X123938497Y-109029448D01*
X124017892Y-109030695D01*
X124017895Y-109030695D01*
X124023260Y-109030779D01*
X124028489Y-109029581D01*
X124028493Y-109029581D01*
X124183299Y-108994126D01*
X124183300Y-108994125D01*
X124188529Y-108992928D01*
X124339998Y-108916747D01*
X124468923Y-108806634D01*
X124567861Y-108668947D01*
X124631101Y-108511634D01*
X124641139Y-108441100D01*
X124666318Y-108390707D01*
X137979067Y-95077957D01*
X138034243Y-95052229D01*
X138093048Y-95067985D01*
X138127967Y-95117855D01*
X138131000Y-95140890D01*
X138131000Y-95491109D01*
X138110178Y-95548317D01*
X138104933Y-95554042D01*
X124017813Y-109641162D01*
X123975658Y-109664770D01*
X123830532Y-109699612D01*
X123679869Y-109777375D01*
X123552104Y-109888831D01*
X123549018Y-109893222D01*
X123466857Y-110010126D01*
X123454613Y-110027547D01*
X123452665Y-110032543D01*
X123452664Y-110032545D01*
X123430855Y-110088482D01*
X123393024Y-110185513D01*
X123370894Y-110353611D01*
X123371482Y-110358937D01*
X123371482Y-110358939D01*
X123384086Y-110473100D01*
X123389499Y-110522135D01*
X123447766Y-110681356D01*
X123542330Y-110822083D01*
X123546298Y-110825693D01*
X123546300Y-110825696D01*
X123560519Y-110838634D01*
X123667733Y-110936191D01*
X123816735Y-111017092D01*
X123980733Y-111060116D01*
X124065497Y-111061448D01*
X124144892Y-111062695D01*
X124144895Y-111062695D01*
X124150260Y-111062779D01*
X124155489Y-111061581D01*
X124155493Y-111061581D01*
X124310299Y-111026126D01*
X124310300Y-111026125D01*
X124315529Y-111024928D01*
X124466998Y-110948747D01*
X124595923Y-110838634D01*
X124694861Y-110700947D01*
X124758101Y-110543634D01*
X124768139Y-110473100D01*
X124793318Y-110422707D01*
X126005414Y-109210611D01*
X127561894Y-109210611D01*
X127562482Y-109215937D01*
X127562482Y-109215939D01*
X127578040Y-109356857D01*
X127580499Y-109379135D01*
X127638766Y-109538356D01*
X127641761Y-109542813D01*
X127720540Y-109660049D01*
X127733330Y-109679083D01*
X127737298Y-109682693D01*
X127737300Y-109682696D01*
X127854762Y-109789578D01*
X127858733Y-109793191D01*
X128003713Y-109871908D01*
X128044052Y-109917503D01*
X128045646Y-109978362D01*
X128007748Y-110026007D01*
X128002869Y-110028756D01*
X128002635Y-110028915D01*
X127997869Y-110031375D01*
X127870104Y-110142831D01*
X127772613Y-110281547D01*
X127711024Y-110439513D01*
X127688894Y-110607611D01*
X127689482Y-110612937D01*
X127689482Y-110612939D01*
X127702086Y-110727100D01*
X127707499Y-110776135D01*
X127765766Y-110935356D01*
X127768761Y-110939813D01*
X127851334Y-111062695D01*
X127860330Y-111076083D01*
X127864298Y-111079693D01*
X127864300Y-111079696D01*
X127878519Y-111092634D01*
X127985733Y-111190191D01*
X128134735Y-111271092D01*
X128298733Y-111314116D01*
X128383497Y-111315448D01*
X128462892Y-111316695D01*
X128462895Y-111316695D01*
X128468260Y-111316779D01*
X128473489Y-111315581D01*
X128473493Y-111315581D01*
X128628299Y-111280126D01*
X128628300Y-111280125D01*
X128633529Y-111278928D01*
X128784998Y-111202747D01*
X128913923Y-111092634D01*
X129012861Y-110954947D01*
X129076101Y-110797634D01*
X129086139Y-110727100D01*
X129111318Y-110676707D01*
X129866456Y-109921568D01*
X129921632Y-109895839D01*
X129929389Y-109895500D01*
X139100167Y-109895500D01*
X139151931Y-109915528D01*
X139153392Y-109913472D01*
X139157762Y-109916578D01*
X139161733Y-109920191D01*
X139310735Y-110001092D01*
X139474733Y-110044116D01*
X139559497Y-110045448D01*
X139638892Y-110046695D01*
X139638895Y-110046695D01*
X139644260Y-110046779D01*
X139649489Y-110045581D01*
X139649493Y-110045581D01*
X139804299Y-110010126D01*
X139804300Y-110010125D01*
X139809529Y-110008928D01*
X139960998Y-109932747D01*
X140089923Y-109822634D01*
X140188861Y-109684947D01*
X140252101Y-109527634D01*
X140275990Y-109359778D01*
X140276145Y-109345000D01*
X140255776Y-109176680D01*
X140195845Y-109018077D01*
X140099812Y-108878349D01*
X139973221Y-108765560D01*
X139916763Y-108735667D01*
X139828124Y-108688735D01*
X139828122Y-108688734D01*
X139823381Y-108686224D01*
X139658941Y-108644919D01*
X139489395Y-108644031D01*
X139489410Y-108641119D01*
X139440251Y-108629434D01*
X139403929Y-108580577D01*
X139403336Y-108539026D01*
X139402091Y-108538849D01*
X139404522Y-108521770D01*
X139425980Y-108370993D01*
X139426135Y-108356215D01*
X139405766Y-108187895D01*
X139345835Y-108029292D01*
X139249802Y-107889564D01*
X139123211Y-107776775D01*
X139059260Y-107742915D01*
X138978114Y-107699950D01*
X138978112Y-107699949D01*
X138973371Y-107697439D01*
X138962973Y-107694827D01*
X138894855Y-107677717D01*
X138808931Y-107656134D01*
X138729136Y-107655716D01*
X138644748Y-107655274D01*
X138644747Y-107655274D01*
X138639385Y-107655246D01*
X138634170Y-107656498D01*
X138615214Y-107661049D01*
X138474522Y-107694827D01*
X138323859Y-107772590D01*
X138319815Y-107776118D01*
X138311028Y-107783783D01*
X138252523Y-107805715D01*
X129143516Y-107805715D01*
X129139789Y-107805637D01*
X129083055Y-107803259D01*
X129083054Y-107803259D01*
X129076991Y-107803005D01*
X129032933Y-107813339D01*
X129024695Y-107814865D01*
X128985867Y-107820184D01*
X128985859Y-107820186D01*
X128979853Y-107821009D01*
X128963025Y-107828291D01*
X128948000Y-107833260D01*
X128936059Y-107836060D01*
X128936053Y-107836062D01*
X128930149Y-107837447D01*
X128924832Y-107840370D01*
X128890489Y-107859250D01*
X128882960Y-107862938D01*
X128841430Y-107880910D01*
X128836715Y-107884728D01*
X128827182Y-107892447D01*
X128814054Y-107901269D01*
X128797977Y-107910108D01*
X128794449Y-107913153D01*
X128794448Y-107913154D01*
X128791095Y-107916048D01*
X128791087Y-107916056D01*
X128789863Y-107917112D01*
X128763948Y-107943027D01*
X128757024Y-107949260D01*
X128728933Y-107972008D01*
X128728931Y-107972010D01*
X128724215Y-107975829D01*
X128720700Y-107980775D01*
X128720699Y-107980776D01*
X128711524Y-107993687D01*
X128701911Y-108005064D01*
X128208813Y-108498162D01*
X128166658Y-108521770D01*
X128021532Y-108556612D01*
X127870869Y-108634375D01*
X127743104Y-108745831D01*
X127645613Y-108884547D01*
X127643665Y-108889543D01*
X127643664Y-108889545D01*
X127632119Y-108919157D01*
X127584024Y-109042513D01*
X127561894Y-109210611D01*
X126005414Y-109210611D01*
X139060701Y-96155323D01*
X139063392Y-96152743D01*
X139105193Y-96114305D01*
X139109656Y-96110201D01*
X139112850Y-96105050D01*
X139112853Y-96105046D01*
X139133510Y-96071728D01*
X139138256Y-96064824D01*
X139165612Y-96028783D01*
X139172362Y-96011735D01*
X139179466Y-95997608D01*
X139189135Y-95982014D01*
X139190827Y-95976188D01*
X139190829Y-95976185D01*
X139201760Y-95938559D01*
X139204476Y-95930626D01*
X139218903Y-95894189D01*
X139218904Y-95894183D01*
X139221136Y-95888547D01*
X139223053Y-95870310D01*
X139226098Y-95854787D01*
X139231215Y-95837175D01*
X139232000Y-95826485D01*
X139232000Y-95789838D01*
X139232488Y-95780535D01*
X139236267Y-95744581D01*
X139236267Y-95744579D01*
X139236901Y-95738546D01*
X139233246Y-95716936D01*
X139232000Y-95702094D01*
X139232000Y-94949047D01*
X139248724Y-94897112D01*
X139296731Y-94830303D01*
X139296731Y-94830302D01*
X139299861Y-94825947D01*
X139363101Y-94668634D01*
X139386990Y-94500778D01*
X139387145Y-94486000D01*
X139366776Y-94317680D01*
X139306845Y-94159077D01*
X139210812Y-94019349D01*
X139084221Y-93906560D01*
X139019649Y-93872371D01*
X138939124Y-93829735D01*
X138939122Y-93829734D01*
X138934381Y-93827224D01*
X138923983Y-93824612D01*
X138899536Y-93818472D01*
X138769941Y-93785919D01*
X138690146Y-93785501D01*
X138605758Y-93785059D01*
X138605757Y-93785059D01*
X138600395Y-93785031D01*
X138595180Y-93786283D01*
X138576063Y-93790873D01*
X138452776Y-93820472D01*
X138392289Y-93813580D01*
X138350382Y-93769420D01*
X138343000Y-93733931D01*
X138343000Y-91132611D01*
X139952871Y-91132611D01*
X139953459Y-91137937D01*
X139953459Y-91137939D01*
X139964606Y-91238903D01*
X139971476Y-91301135D01*
X140029743Y-91460356D01*
X140032738Y-91464813D01*
X140092564Y-91553844D01*
X140107615Y-91607210D01*
X140106094Y-91643513D01*
X140105267Y-91663235D01*
X140115600Y-91707288D01*
X140117127Y-91715531D01*
X140122446Y-91754359D01*
X140122448Y-91754367D01*
X140123271Y-91760373D01*
X140130552Y-91777197D01*
X140135522Y-91792226D01*
X140138322Y-91804167D01*
X140138324Y-91804173D01*
X140139709Y-91810077D01*
X140142630Y-91815390D01*
X140142632Y-91815394D01*
X140161512Y-91849737D01*
X140165200Y-91857265D01*
X140183172Y-91898796D01*
X140186990Y-91903511D01*
X140194709Y-91913044D01*
X140203531Y-91926172D01*
X140209099Y-91936299D01*
X140212370Y-91942249D01*
X140215415Y-91945777D01*
X140215416Y-91945778D01*
X140218310Y-91949131D01*
X140218318Y-91949139D01*
X140219374Y-91950363D01*
X140245289Y-91976278D01*
X140251522Y-91983202D01*
X140270481Y-92006614D01*
X140278091Y-92016011D01*
X140293521Y-92026976D01*
X140295953Y-92028705D01*
X140307329Y-92038318D01*
X143051872Y-94782860D01*
X145779880Y-97510868D01*
X145805609Y-97566044D01*
X145805948Y-97573801D01*
X145805948Y-98014775D01*
X145789763Y-98065950D01*
X145759722Y-98108695D01*
X145734561Y-98144495D01*
X145672972Y-98302461D01*
X145650842Y-98470559D01*
X145651430Y-98475885D01*
X145651430Y-98475887D01*
X145654094Y-98500013D01*
X145669447Y-98639083D01*
X145727714Y-98798304D01*
X145730709Y-98802761D01*
X145809935Y-98920662D01*
X145822278Y-98939031D01*
X145826246Y-98942641D01*
X145826248Y-98942644D01*
X145886841Y-98997779D01*
X145947681Y-99053139D01*
X146096683Y-99134040D01*
X146260681Y-99177064D01*
X146345445Y-99178396D01*
X146424840Y-99179643D01*
X146424843Y-99179643D01*
X146430208Y-99179727D01*
X146435437Y-99178529D01*
X146435441Y-99178529D01*
X146590247Y-99143074D01*
X146590248Y-99143073D01*
X146595477Y-99141876D01*
X146746946Y-99065695D01*
X146875871Y-98955582D01*
X146918764Y-98895889D01*
X146969057Y-98861582D01*
X147029636Y-98867628D01*
X147035718Y-98871218D01*
X147035733Y-98871191D01*
X147184735Y-98952092D01*
X147348733Y-98995116D01*
X147433497Y-98996448D01*
X147512892Y-98997695D01*
X147512895Y-98997695D01*
X147518260Y-98997779D01*
X147523489Y-98996581D01*
X147523493Y-98996581D01*
X147652731Y-98966982D01*
X147713144Y-98974507D01*
X147754586Y-99019105D01*
X147761600Y-99053736D01*
X147761600Y-103032956D01*
X147740778Y-103090164D01*
X147735533Y-103095889D01*
X146592532Y-104238890D01*
X146508836Y-104343734D01*
X146430673Y-104505422D01*
X146390274Y-104680411D01*
X146390257Y-104685387D01*
X146389729Y-104836578D01*
X146389647Y-104860000D01*
X146428824Y-105035267D01*
X146505857Y-105197497D01*
X146508935Y-105201408D01*
X146613838Y-105334718D01*
X146613841Y-105334721D01*
X146616917Y-105338630D01*
X146620781Y-105341759D01*
X146620783Y-105341761D01*
X146752617Y-105448518D01*
X146756485Y-105451650D01*
X146760952Y-105453848D01*
X146913157Y-105528743D01*
X146913161Y-105528744D01*
X146917625Y-105530941D01*
X147004976Y-105551751D01*
X147087481Y-105571406D01*
X147087483Y-105571406D01*
X147092326Y-105572560D01*
X147211604Y-105573809D01*
X147266935Y-105574389D01*
X147266936Y-105574389D01*
X147271907Y-105574441D01*
X147447442Y-105536489D01*
X147610207Y-105460591D01*
X147720677Y-105374901D01*
X148822964Y-104272614D01*
X162017893Y-104272614D01*
X162018481Y-104277940D01*
X162018481Y-104277942D01*
X162034842Y-104426135D01*
X162036498Y-104441138D01*
X162094765Y-104600359D01*
X162189329Y-104741086D01*
X162193297Y-104744696D01*
X162193299Y-104744699D01*
X162298244Y-104840191D01*
X162314732Y-104855194D01*
X162463734Y-104936095D01*
X162627732Y-104979119D01*
X162712496Y-104980451D01*
X162791891Y-104981698D01*
X162791894Y-104981698D01*
X162797259Y-104981782D01*
X162802488Y-104980584D01*
X162802492Y-104980584D01*
X162957298Y-104945129D01*
X162957299Y-104945128D01*
X162962528Y-104943931D01*
X163113997Y-104867750D01*
X163242922Y-104757637D01*
X163341860Y-104619950D01*
X163405100Y-104462637D01*
X163428989Y-104294781D01*
X163429144Y-104280003D01*
X163408775Y-104111683D01*
X163348844Y-103953080D01*
X163252811Y-103813352D01*
X163126220Y-103700563D01*
X163001441Y-103634496D01*
X162981123Y-103623738D01*
X162981121Y-103623737D01*
X162976380Y-103621227D01*
X162965982Y-103618615D01*
X162911448Y-103604917D01*
X162811940Y-103579922D01*
X162732145Y-103579504D01*
X162647757Y-103579062D01*
X162647756Y-103579062D01*
X162642394Y-103579034D01*
X162637179Y-103580286D01*
X162618223Y-103584837D01*
X162477531Y-103618615D01*
X162326868Y-103696378D01*
X162262986Y-103752106D01*
X162220346Y-103789303D01*
X162199103Y-103807834D01*
X162196017Y-103812225D01*
X162108644Y-103936545D01*
X162101612Y-103946550D01*
X162099664Y-103951546D01*
X162099663Y-103951548D01*
X162077854Y-104007485D01*
X162040023Y-104104516D01*
X162017893Y-104272614D01*
X148822964Y-104272614D01*
X149121886Y-103973692D01*
X149122549Y-103973037D01*
X149154080Y-103942160D01*
X149186368Y-103910541D01*
X149210611Y-103872923D01*
X149215855Y-103865627D01*
X149240659Y-103834556D01*
X149240664Y-103834548D01*
X149243763Y-103830666D01*
X149259163Y-103798811D01*
X149264478Y-103789340D01*
X149280958Y-103763768D01*
X149280961Y-103763761D01*
X149283654Y-103759583D01*
X149298955Y-103717545D01*
X149302457Y-103709253D01*
X149306658Y-103700563D01*
X149321927Y-103668978D01*
X149329888Y-103634496D01*
X149332974Y-103624079D01*
X149343376Y-103595498D01*
X149345078Y-103590822D01*
X149350685Y-103546439D01*
X149352264Y-103537574D01*
X149361207Y-103498836D01*
X149362326Y-103493989D01*
X149362466Y-103453951D01*
X149362501Y-103452905D01*
X149362600Y-103452117D01*
X149362600Y-103415508D01*
X149362953Y-103314400D01*
X149362696Y-103313253D01*
X149362600Y-103311471D01*
X149362600Y-98224028D01*
X150422525Y-98224028D01*
X150459847Y-98467930D01*
X150460981Y-98471399D01*
X150514046Y-98633751D01*
X150536503Y-98702460D01*
X150650435Y-98921321D01*
X150798583Y-99118636D01*
X150976968Y-99289104D01*
X151180800Y-99428149D01*
X151184110Y-99429686D01*
X151184111Y-99429686D01*
X151322455Y-99493903D01*
X151404604Y-99532035D01*
X151408121Y-99533010D01*
X151408120Y-99533010D01*
X151638854Y-99596999D01*
X151638858Y-99597000D01*
X151642371Y-99597974D01*
X151645996Y-99598361D01*
X151645999Y-99598362D01*
X151841434Y-99619248D01*
X151843792Y-99619500D01*
X151987054Y-99619500D01*
X152170411Y-99604425D01*
X152409717Y-99544316D01*
X152413061Y-99542862D01*
X152413064Y-99542861D01*
X152632638Y-99447387D01*
X152632640Y-99447386D01*
X152635993Y-99445928D01*
X152683689Y-99415072D01*
X152840096Y-99313888D01*
X152840097Y-99313887D01*
X152843161Y-99311905D01*
X153025658Y-99145846D01*
X153098402Y-99053736D01*
X153176320Y-98955075D01*
X153176323Y-98955070D01*
X153178582Y-98952210D01*
X153297827Y-98736198D01*
X153380191Y-98503610D01*
X153423461Y-98260694D01*
X153426475Y-98013972D01*
X153389153Y-97770070D01*
X153312497Y-97535540D01*
X153241737Y-97399611D01*
X160200894Y-97399611D01*
X160201482Y-97404937D01*
X160201482Y-97404939D01*
X160216055Y-97536936D01*
X160219499Y-97568135D01*
X160277766Y-97727356D01*
X160372330Y-97868083D01*
X160376298Y-97871693D01*
X160376300Y-97871696D01*
X160390519Y-97884634D01*
X160497733Y-97982191D01*
X160646735Y-98063092D01*
X160810733Y-98106116D01*
X160895496Y-98107447D01*
X160974892Y-98108695D01*
X160974895Y-98108695D01*
X160980260Y-98108779D01*
X160985489Y-98107581D01*
X160985493Y-98107581D01*
X161140299Y-98072126D01*
X161140300Y-98072125D01*
X161145529Y-98070928D01*
X161296998Y-97994747D01*
X161425923Y-97884634D01*
X161524861Y-97746947D01*
X161588101Y-97589634D01*
X161611990Y-97421778D01*
X161612145Y-97407000D01*
X161591776Y-97238680D01*
X161531845Y-97080077D01*
X161435812Y-96940349D01*
X161309221Y-96827560D01*
X161234350Y-96787918D01*
X161164124Y-96750735D01*
X161164122Y-96750734D01*
X161159381Y-96748224D01*
X161148983Y-96745612D01*
X161093987Y-96731798D01*
X160994941Y-96706919D01*
X160915146Y-96706501D01*
X160830758Y-96706059D01*
X160830757Y-96706059D01*
X160825395Y-96706031D01*
X160820180Y-96707283D01*
X160801224Y-96711834D01*
X160660532Y-96745612D01*
X160509869Y-96823375D01*
X160505825Y-96826903D01*
X160389301Y-96928553D01*
X160382104Y-96934831D01*
X160284613Y-97073547D01*
X160282665Y-97078543D01*
X160282664Y-97078545D01*
X160265611Y-97122284D01*
X160223024Y-97231513D01*
X160200894Y-97399611D01*
X153241737Y-97399611D01*
X153198565Y-97316679D01*
X153050417Y-97119364D01*
X152872032Y-96948896D01*
X152668200Y-96809851D01*
X152663752Y-96807786D01*
X152447705Y-96707501D01*
X152444396Y-96705965D01*
X152396910Y-96692796D01*
X152210146Y-96641001D01*
X152210142Y-96641000D01*
X152206629Y-96640026D01*
X152203004Y-96639639D01*
X152203001Y-96639638D01*
X152007566Y-96618752D01*
X152005208Y-96618500D01*
X151861946Y-96618500D01*
X151678589Y-96633575D01*
X151439283Y-96693684D01*
X151435939Y-96695138D01*
X151435936Y-96695139D01*
X151216362Y-96790613D01*
X151213007Y-96792072D01*
X151209938Y-96794058D01*
X151209937Y-96794058D01*
X151168423Y-96820915D01*
X151005839Y-96926095D01*
X150823342Y-97092154D01*
X150801853Y-97119364D01*
X150672680Y-97282925D01*
X150672677Y-97282930D01*
X150670418Y-97285790D01*
X150551173Y-97501802D01*
X150509991Y-97618096D01*
X150473086Y-97722313D01*
X150468809Y-97734390D01*
X150425539Y-97977306D01*
X150422525Y-98224028D01*
X149362600Y-98224028D01*
X149362600Y-94097611D01*
X158930894Y-94097611D01*
X158931482Y-94102937D01*
X158931482Y-94102939D01*
X158947233Y-94245608D01*
X158949499Y-94266135D01*
X159007766Y-94425356D01*
X159010761Y-94429813D01*
X159050472Y-94488909D01*
X159102330Y-94566083D01*
X159106298Y-94569693D01*
X159106300Y-94569696D01*
X159209193Y-94663321D01*
X159227733Y-94680191D01*
X159376735Y-94761092D01*
X159540733Y-94804116D01*
X159625497Y-94805448D01*
X159704892Y-94806695D01*
X159704895Y-94806695D01*
X159710260Y-94806779D01*
X159715489Y-94805581D01*
X159715493Y-94805581D01*
X159870299Y-94770126D01*
X159870300Y-94770125D01*
X159875529Y-94768928D01*
X160026998Y-94692747D01*
X160155923Y-94582634D01*
X160254861Y-94444947D01*
X160318101Y-94287634D01*
X160341990Y-94119778D01*
X160342145Y-94105000D01*
X160321776Y-93936680D01*
X160261845Y-93778077D01*
X160165812Y-93638349D01*
X160039221Y-93525560D01*
X159908283Y-93456232D01*
X159894124Y-93448735D01*
X159894122Y-93448734D01*
X159889381Y-93446224D01*
X159878983Y-93443612D01*
X159854536Y-93437472D01*
X159724941Y-93404919D01*
X159645146Y-93404501D01*
X159560758Y-93404059D01*
X159560757Y-93404059D01*
X159555395Y-93404031D01*
X159550180Y-93405283D01*
X159531224Y-93409834D01*
X159390532Y-93443612D01*
X159239869Y-93521375D01*
X159112104Y-93632831D01*
X159109018Y-93637222D01*
X159033751Y-93744317D01*
X159014613Y-93771547D01*
X159012665Y-93776543D01*
X159012664Y-93776545D01*
X159008500Y-93787225D01*
X158953024Y-93929513D01*
X158930894Y-94097611D01*
X149362600Y-94097611D01*
X149362600Y-90548590D01*
X149898619Y-90548590D01*
X149899207Y-90553916D01*
X149899207Y-90553918D01*
X149916403Y-90709673D01*
X149917224Y-90717114D01*
X149975491Y-90876335D01*
X149978486Y-90880792D01*
X150065642Y-91010494D01*
X150070055Y-91017062D01*
X150074023Y-91020672D01*
X150074025Y-91020675D01*
X150191487Y-91127557D01*
X150195458Y-91131170D01*
X150344460Y-91212071D01*
X150508458Y-91255095D01*
X150593221Y-91256426D01*
X150672617Y-91257674D01*
X150672620Y-91257674D01*
X150677985Y-91257758D01*
X150683214Y-91256560D01*
X150683218Y-91256560D01*
X150838024Y-91221105D01*
X150838025Y-91221104D01*
X150843254Y-91219907D01*
X150994723Y-91143726D01*
X151123648Y-91033613D01*
X151222586Y-90895926D01*
X151285826Y-90738613D01*
X151288530Y-90719610D01*
X158092893Y-90719610D01*
X158093481Y-90724936D01*
X158093481Y-90724938D01*
X158109639Y-90871292D01*
X158111498Y-90888134D01*
X158169765Y-91047355D01*
X158172760Y-91051812D01*
X158256159Y-91175923D01*
X158264329Y-91188082D01*
X158268297Y-91191692D01*
X158268299Y-91191695D01*
X158383852Y-91296840D01*
X158389732Y-91302190D01*
X158538734Y-91383091D01*
X158603668Y-91400126D01*
X158692978Y-91423556D01*
X158702732Y-91426115D01*
X158787496Y-91427447D01*
X158866891Y-91428694D01*
X158866894Y-91428694D01*
X158872259Y-91428778D01*
X158877488Y-91427580D01*
X158877492Y-91427580D01*
X159032298Y-91392125D01*
X159032299Y-91392124D01*
X159037528Y-91390927D01*
X159188997Y-91314746D01*
X159317922Y-91204633D01*
X159416860Y-91066946D01*
X159480100Y-90909633D01*
X159503989Y-90741777D01*
X159504023Y-90738613D01*
X159504060Y-90735043D01*
X159504144Y-90726999D01*
X159483775Y-90558679D01*
X159423844Y-90400076D01*
X159327811Y-90260348D01*
X159201220Y-90147559D01*
X159144762Y-90117666D01*
X159056123Y-90070734D01*
X159056121Y-90070733D01*
X159051380Y-90068223D01*
X159040982Y-90065611D01*
X159016535Y-90059471D01*
X158886940Y-90026918D01*
X158807145Y-90026500D01*
X158722757Y-90026058D01*
X158722756Y-90026058D01*
X158717394Y-90026030D01*
X158712179Y-90027282D01*
X158693223Y-90031833D01*
X158552531Y-90065611D01*
X158401868Y-90143374D01*
X158397824Y-90146902D01*
X158278339Y-90251135D01*
X158274103Y-90254830D01*
X158271017Y-90259221D01*
X158179851Y-90388938D01*
X158176612Y-90393546D01*
X158174664Y-90398542D01*
X158174663Y-90398544D01*
X158172110Y-90405092D01*
X158115023Y-90551512D01*
X158092893Y-90719610D01*
X151288530Y-90719610D01*
X151309715Y-90570757D01*
X151309763Y-90566241D01*
X151309839Y-90558888D01*
X151309870Y-90555979D01*
X151289501Y-90387659D01*
X151229570Y-90229056D01*
X151133537Y-90089328D01*
X151006946Y-89976539D01*
X150940244Y-89941222D01*
X150861849Y-89899714D01*
X150861847Y-89899713D01*
X150857106Y-89897203D01*
X150846708Y-89894591D01*
X150822261Y-89888451D01*
X150692666Y-89855898D01*
X150612871Y-89855480D01*
X150528483Y-89855038D01*
X150528482Y-89855038D01*
X150523120Y-89855010D01*
X150517905Y-89856262D01*
X150498949Y-89860813D01*
X150358257Y-89894591D01*
X150207594Y-89972354D01*
X150203550Y-89975882D01*
X150097163Y-90068689D01*
X150079829Y-90083810D01*
X150076743Y-90088201D01*
X150035026Y-90147559D01*
X149982338Y-90222526D01*
X149980390Y-90227522D01*
X149980389Y-90227524D01*
X149970103Y-90253906D01*
X149920749Y-90380492D01*
X149898619Y-90548590D01*
X149362600Y-90548590D01*
X149362600Y-89897533D01*
X149362605Y-89896601D01*
X149363489Y-89812166D01*
X149363489Y-89812165D01*
X149363541Y-89807193D01*
X149354085Y-89763456D01*
X149352632Y-89754580D01*
X149352361Y-89752157D01*
X149347646Y-89710128D01*
X149336009Y-89676710D01*
X149333070Y-89666253D01*
X149326641Y-89636518D01*
X149326640Y-89636516D01*
X149325590Y-89631658D01*
X149312532Y-89603655D01*
X149306686Y-89591118D01*
X149303298Y-89582774D01*
X149290224Y-89545232D01*
X149290222Y-89545228D01*
X149288585Y-89540527D01*
X149279224Y-89525546D01*
X149269832Y-89510516D01*
X149264647Y-89500966D01*
X149251795Y-89473406D01*
X149249691Y-89468893D01*
X149222267Y-89433539D01*
X149217127Y-89426170D01*
X149193416Y-89388225D01*
X149165208Y-89359819D01*
X149164486Y-89359048D01*
X149164002Y-89358424D01*
X149138141Y-89332563D01*
X149123703Y-89318024D01*
X149069233Y-89263172D01*
X149069228Y-89263168D01*
X149066870Y-89260793D01*
X149065880Y-89260165D01*
X149064548Y-89258970D01*
X147763067Y-87957489D01*
X147737339Y-87902313D01*
X147737000Y-87894556D01*
X147737000Y-80597845D01*
X147736724Y-80595380D01*
X147736723Y-80595371D01*
X147722601Y-80469474D01*
X147722601Y-80469472D01*
X147722046Y-80464528D01*
X147676178Y-80332813D01*
X147664621Y-80299624D01*
X147664620Y-80299621D01*
X147662985Y-80294927D01*
X147567816Y-80142625D01*
X147441270Y-80015193D01*
X147289636Y-79918963D01*
X147271486Y-79912500D01*
X147125137Y-79860387D01*
X147125132Y-79860386D01*
X147120451Y-79858719D01*
X147115515Y-79858130D01*
X147115513Y-79858130D01*
X146947067Y-79838044D01*
X146947063Y-79838044D01*
X146942124Y-79837455D01*
X146847654Y-79847384D01*
X146768471Y-79855706D01*
X146768468Y-79855707D01*
X146763517Y-79856227D01*
X146758808Y-79857830D01*
X146758804Y-79857831D01*
X146658566Y-79891955D01*
X146593507Y-79914103D01*
X146589274Y-79916707D01*
X146589270Y-79916709D01*
X146444785Y-80005597D01*
X146444782Y-80005599D01*
X146440545Y-80008206D01*
X146312232Y-80133859D01*
X146309536Y-80138042D01*
X146309533Y-80138046D01*
X146223737Y-80271176D01*
X146214946Y-80284817D01*
X146153522Y-80453578D01*
X146151514Y-80469474D01*
X146137149Y-80583191D01*
X146136000Y-80592283D01*
X146136000Y-88254114D01*
X146135995Y-88255046D01*
X146135059Y-88344407D01*
X146136110Y-88349266D01*
X146144513Y-88388133D01*
X146145968Y-88397017D01*
X146150954Y-88441472D01*
X146161999Y-88473187D01*
X146162593Y-88474893D01*
X146165533Y-88485354D01*
X146173011Y-88519942D01*
X146175113Y-88524449D01*
X146175113Y-88524450D01*
X146191916Y-88560485D01*
X146195303Y-88568827D01*
X146210015Y-88611073D01*
X146225347Y-88635609D01*
X146228766Y-88641081D01*
X146233950Y-88650629D01*
X146246804Y-88678194D01*
X146246806Y-88678198D01*
X146248909Y-88682707D01*
X146251960Y-88686641D01*
X146251963Y-88686645D01*
X146276325Y-88718051D01*
X146281480Y-88725440D01*
X146302545Y-88759153D01*
X146302549Y-88759158D01*
X146305184Y-88763375D01*
X146333392Y-88791781D01*
X146334115Y-88792553D01*
X146334599Y-88793177D01*
X146360383Y-88818961D01*
X146360602Y-88819181D01*
X146429367Y-88888428D01*
X146429372Y-88888432D01*
X146431730Y-88890807D01*
X146432720Y-88891435D01*
X146434052Y-88892630D01*
X147735533Y-90194111D01*
X147761261Y-90249287D01*
X147761600Y-90257044D01*
X147761600Y-96730710D01*
X147740778Y-96787918D01*
X147688055Y-96818358D01*
X147628100Y-96807786D01*
X147609668Y-96793643D01*
X142627635Y-91811611D01*
X145341894Y-91811611D01*
X145342482Y-91816937D01*
X145342482Y-91816939D01*
X145357586Y-91953747D01*
X145360499Y-91980135D01*
X145418766Y-92139356D01*
X145513330Y-92280083D01*
X145517298Y-92283693D01*
X145517300Y-92283696D01*
X145634762Y-92390578D01*
X145638733Y-92394191D01*
X145787735Y-92475092D01*
X145951733Y-92518116D01*
X146036496Y-92519447D01*
X146115892Y-92520695D01*
X146115895Y-92520695D01*
X146121260Y-92520779D01*
X146126489Y-92519581D01*
X146126493Y-92519581D01*
X146281299Y-92484126D01*
X146281300Y-92484125D01*
X146286529Y-92482928D01*
X146437998Y-92406747D01*
X146566923Y-92296634D01*
X146665861Y-92158947D01*
X146729101Y-92001634D01*
X146735591Y-91956030D01*
X146764266Y-91902328D01*
X146825100Y-91879582D01*
X146884114Y-91880509D01*
X146884117Y-91880509D01*
X146889483Y-91880593D01*
X146894712Y-91879395D01*
X146894716Y-91879395D01*
X147049522Y-91843940D01*
X147049523Y-91843939D01*
X147054752Y-91842742D01*
X147206221Y-91766561D01*
X147335146Y-91656448D01*
X147434084Y-91518761D01*
X147497324Y-91361448D01*
X147521213Y-91193592D01*
X147521368Y-91178814D01*
X147500999Y-91010494D01*
X147441068Y-90851891D01*
X147345035Y-90712163D01*
X147218444Y-90599374D01*
X147158879Y-90567836D01*
X147073347Y-90522549D01*
X147073345Y-90522548D01*
X147068604Y-90520038D01*
X147058206Y-90517426D01*
X146996207Y-90501853D01*
X146904164Y-90478733D01*
X146824369Y-90478315D01*
X146739981Y-90477873D01*
X146739980Y-90477873D01*
X146734618Y-90477845D01*
X146729403Y-90479097D01*
X146714100Y-90482771D01*
X146569755Y-90517426D01*
X146419092Y-90595189D01*
X146372446Y-90635881D01*
X146300044Y-90699041D01*
X146291327Y-90706645D01*
X146288241Y-90711036D01*
X146239167Y-90780862D01*
X146193836Y-90845361D01*
X146191888Y-90850357D01*
X146191887Y-90850359D01*
X146180022Y-90880792D01*
X146132247Y-91003327D01*
X146130602Y-91015824D01*
X146127284Y-91041026D01*
X146099173Y-91095027D01*
X146038579Y-91118409D01*
X145971758Y-91118059D01*
X145971757Y-91118059D01*
X145966395Y-91118031D01*
X145801532Y-91157612D01*
X145650869Y-91235375D01*
X145628167Y-91255179D01*
X145533489Y-91337772D01*
X145523104Y-91346831D01*
X145520018Y-91351222D01*
X145432792Y-91475333D01*
X145425613Y-91485547D01*
X145364024Y-91643513D01*
X145341894Y-91811611D01*
X142627635Y-91811611D01*
X142179068Y-91363044D01*
X142153339Y-91307868D01*
X142153000Y-91300111D01*
X142153000Y-90690231D01*
X142153078Y-90686504D01*
X142155456Y-90629770D01*
X142155456Y-90629769D01*
X142155710Y-90623706D01*
X142145376Y-90579648D01*
X142143850Y-90571410D01*
X142138531Y-90532582D01*
X142138529Y-90532574D01*
X142137706Y-90526568D01*
X142130424Y-90509740D01*
X142125455Y-90494715D01*
X142122654Y-90482771D01*
X142122653Y-90482767D01*
X142121268Y-90476864D01*
X142099461Y-90437198D01*
X142095782Y-90429689D01*
X142077805Y-90388145D01*
X142066265Y-90373894D01*
X142057442Y-90360764D01*
X142050852Y-90348777D01*
X142050851Y-90348775D01*
X142048606Y-90344692D01*
X142041603Y-90336578D01*
X142015688Y-90310663D01*
X142009455Y-90303739D01*
X141986707Y-90275648D01*
X141986705Y-90275646D01*
X141982886Y-90270930D01*
X141965024Y-90258236D01*
X141953648Y-90248623D01*
X141415835Y-89710811D01*
X141413254Y-89708120D01*
X141374805Y-89666307D01*
X141370701Y-89661844D01*
X141365550Y-89658650D01*
X141365546Y-89658647D01*
X141332228Y-89637990D01*
X141325324Y-89633244D01*
X141308675Y-89620607D01*
X141294120Y-89609559D01*
X141294118Y-89609558D01*
X141289283Y-89605888D01*
X141272235Y-89599138D01*
X141258108Y-89592034D01*
X141242514Y-89582365D01*
X141236688Y-89580673D01*
X141236685Y-89580671D01*
X141199059Y-89569740D01*
X141191126Y-89567024D01*
X141154689Y-89552597D01*
X141154683Y-89552596D01*
X141149047Y-89550364D01*
X141134866Y-89548873D01*
X141130810Y-89548447D01*
X141115282Y-89545400D01*
X141112391Y-89544560D01*
X141078019Y-89525546D01*
X141065205Y-89514129D01*
X141065199Y-89514125D01*
X141061198Y-89510560D01*
X140982503Y-89468893D01*
X140916101Y-89433735D01*
X140916099Y-89433734D01*
X140911358Y-89431224D01*
X140900960Y-89428612D01*
X140811786Y-89406213D01*
X140746918Y-89389919D01*
X140667123Y-89389501D01*
X140582735Y-89389059D01*
X140582734Y-89389059D01*
X140577372Y-89389031D01*
X140572157Y-89390283D01*
X140563156Y-89392444D01*
X140412509Y-89428612D01*
X140261846Y-89506375D01*
X140197964Y-89562103D01*
X140147772Y-89605888D01*
X140134081Y-89617831D01*
X140130995Y-89622222D01*
X140041141Y-89750072D01*
X140036590Y-89756547D01*
X140034642Y-89761543D01*
X140034641Y-89761545D01*
X140020658Y-89797409D01*
X139975001Y-89914513D01*
X139952871Y-90082611D01*
X139953459Y-90087937D01*
X139953459Y-90087939D01*
X139970163Y-90239239D01*
X139971476Y-90251135D01*
X140029743Y-90410356D01*
X140032738Y-90414813D01*
X140107834Y-90526568D01*
X140124307Y-90551083D01*
X140128278Y-90554696D01*
X140130131Y-90556843D01*
X140151750Y-90613754D01*
X140131978Y-90666353D01*
X140134081Y-90667831D01*
X140054642Y-90780862D01*
X140036590Y-90806547D01*
X140034642Y-90811543D01*
X140034641Y-90811545D01*
X140021457Y-90845361D01*
X139975001Y-90964513D01*
X139952871Y-91132611D01*
X138343000Y-91132611D01*
X138343000Y-84323901D01*
X138363822Y-84266693D01*
X138369067Y-84260969D01*
X139122026Y-83508009D01*
X139165090Y-83484187D01*
X139296299Y-83454137D01*
X139296301Y-83454136D01*
X139301529Y-83452939D01*
X139452998Y-83376758D01*
X139581923Y-83266645D01*
X139680861Y-83128958D01*
X139744101Y-82971645D01*
X139767990Y-82803789D01*
X139768145Y-82789011D01*
X139747776Y-82620691D01*
X139743724Y-82609968D01*
X139742981Y-82549094D01*
X139781541Y-82501984D01*
X139826979Y-82489511D01*
X140317558Y-82489511D01*
X140374766Y-82510333D01*
X140406021Y-82568746D01*
X140406862Y-82576363D01*
X140407499Y-82582135D01*
X140465766Y-82741356D01*
X140468761Y-82745813D01*
X140551334Y-82868695D01*
X140560330Y-82882083D01*
X140564298Y-82885693D01*
X140564300Y-82885696D01*
X140681762Y-82992578D01*
X140685733Y-82996191D01*
X140834735Y-83077092D01*
X140998733Y-83120116D01*
X141083497Y-83121448D01*
X141162892Y-83122695D01*
X141162895Y-83122695D01*
X141168260Y-83122779D01*
X141173489Y-83121581D01*
X141173493Y-83121581D01*
X141328299Y-83086126D01*
X141328300Y-83086125D01*
X141333529Y-83084928D01*
X141484998Y-83008747D01*
X141613923Y-82898634D01*
X141712861Y-82760947D01*
X141776101Y-82603634D01*
X141799990Y-82435778D01*
X141800145Y-82421000D01*
X141779776Y-82252680D01*
X141719845Y-82094077D01*
X141623812Y-81954349D01*
X141619809Y-81950783D01*
X141619806Y-81950779D01*
X141613266Y-81944952D01*
X141584403Y-81891349D01*
X141596749Y-81831734D01*
X141644526Y-81794002D01*
X141672471Y-81789501D01*
X142187611Y-81789501D01*
X142244819Y-81810323D01*
X142250543Y-81815568D01*
X142662759Y-82227783D01*
X142688290Y-82280949D01*
X142693499Y-82328135D01*
X142751766Y-82487356D01*
X142754761Y-82491813D01*
X142841363Y-82620691D01*
X142846330Y-82628083D01*
X142850298Y-82631693D01*
X142850300Y-82631696D01*
X142967762Y-82738578D01*
X142971733Y-82742191D01*
X143120735Y-82823092D01*
X143238573Y-82854006D01*
X143276359Y-82863919D01*
X143284733Y-82866116D01*
X143369497Y-82867448D01*
X143448892Y-82868695D01*
X143448895Y-82868695D01*
X143454260Y-82868779D01*
X143459489Y-82867581D01*
X143459493Y-82867581D01*
X143614299Y-82832126D01*
X143614300Y-82832125D01*
X143619529Y-82830928D01*
X143770998Y-82754747D01*
X143899923Y-82644634D01*
X143998861Y-82506947D01*
X144062101Y-82349634D01*
X144085990Y-82181778D01*
X144086145Y-82167000D01*
X144065776Y-81998680D01*
X144005845Y-81840077D01*
X143909812Y-81700349D01*
X143783221Y-81587560D01*
X143726763Y-81557667D01*
X143638124Y-81510735D01*
X143638122Y-81510734D01*
X143633381Y-81508224D01*
X143479447Y-81469558D01*
X143438197Y-81446172D01*
X142851836Y-80859812D01*
X142849255Y-80857121D01*
X142810806Y-80815308D01*
X142806702Y-80810845D01*
X142801551Y-80807651D01*
X142801547Y-80807648D01*
X142768229Y-80786991D01*
X142761325Y-80782245D01*
X142736887Y-80763696D01*
X142730121Y-80758560D01*
X142730119Y-80758559D01*
X142725284Y-80754889D01*
X142708236Y-80748139D01*
X142694109Y-80741035D01*
X142678515Y-80731366D01*
X142672689Y-80729674D01*
X142672686Y-80729672D01*
X142635060Y-80718741D01*
X142627127Y-80716025D01*
X142590690Y-80701598D01*
X142590684Y-80701597D01*
X142585048Y-80699365D01*
X142570867Y-80697874D01*
X142566811Y-80697448D01*
X142551286Y-80694402D01*
X142540946Y-80691398D01*
X142491819Y-80655443D01*
X142477297Y-80596320D01*
X142493499Y-80553999D01*
X142571861Y-80444947D01*
X142635101Y-80287634D01*
X142658990Y-80119778D01*
X142659145Y-80105000D01*
X142638776Y-79936680D01*
X142578845Y-79778077D01*
X142482812Y-79638349D01*
X142356221Y-79525560D01*
X142280585Y-79485513D01*
X142211124Y-79448735D01*
X142211122Y-79448734D01*
X142206381Y-79446224D01*
X142052447Y-79407558D01*
X142011197Y-79384172D01*
X141366835Y-78739811D01*
X141364254Y-78737120D01*
X141325805Y-78695307D01*
X141321701Y-78690844D01*
X141316550Y-78687650D01*
X141316546Y-78687647D01*
X141283228Y-78666990D01*
X141276324Y-78662244D01*
X141259675Y-78649607D01*
X141245120Y-78638559D01*
X141245118Y-78638558D01*
X141240283Y-78634888D01*
X141223235Y-78628138D01*
X141209108Y-78621034D01*
X141193514Y-78611365D01*
X141187688Y-78609673D01*
X141187685Y-78609671D01*
X141150059Y-78598740D01*
X141142126Y-78596024D01*
X141105689Y-78581597D01*
X141105683Y-78581596D01*
X141100047Y-78579364D01*
X141085866Y-78577873D01*
X141081810Y-78577447D01*
X141066292Y-78574403D01*
X141048675Y-78569285D01*
X141044028Y-78568944D01*
X141044024Y-78568943D01*
X141039943Y-78568644D01*
X141037985Y-78568500D01*
X141001338Y-78568500D01*
X140992035Y-78568012D01*
X140956081Y-78564233D01*
X140956079Y-78564233D01*
X140950046Y-78563599D01*
X140944069Y-78564610D01*
X140944066Y-78564610D01*
X140928436Y-78567254D01*
X140913594Y-78568500D01*
X134451599Y-78568500D01*
X134392394Y-78545951D01*
X134389227Y-78543129D01*
X134389226Y-78543128D01*
X134385221Y-78539560D01*
X134256572Y-78471444D01*
X134240124Y-78462735D01*
X134240122Y-78462734D01*
X134235381Y-78460224D01*
X134224983Y-78457612D01*
X134133281Y-78434578D01*
X134070941Y-78418919D01*
X133991146Y-78418501D01*
X133906758Y-78418059D01*
X133906757Y-78418059D01*
X133901395Y-78418031D01*
X133896180Y-78419283D01*
X133877224Y-78423834D01*
X133736532Y-78457612D01*
X133585869Y-78535375D01*
X133521987Y-78591103D01*
X133471795Y-78634888D01*
X133458104Y-78646831D01*
X133455018Y-78651222D01*
X133424035Y-78695307D01*
X133360613Y-78785547D01*
X133299024Y-78943513D01*
X133276894Y-79111611D01*
X133277482Y-79116937D01*
X133277482Y-79116939D01*
X133290858Y-79238093D01*
X133295499Y-79280135D01*
X133353766Y-79439356D01*
X133356761Y-79443813D01*
X133421545Y-79540222D01*
X133448330Y-79580083D01*
X133452298Y-79583693D01*
X133452300Y-79583696D01*
X133566963Y-79688031D01*
X133573733Y-79694191D01*
X133722735Y-79775092D01*
X133757171Y-79784126D01*
X133878359Y-79815919D01*
X133886733Y-79818116D01*
X133971497Y-79819448D01*
X134050892Y-79820695D01*
X134050895Y-79820695D01*
X134056260Y-79820779D01*
X134061489Y-79819581D01*
X134061493Y-79819581D01*
X134216299Y-79784126D01*
X134216300Y-79784125D01*
X134221529Y-79782928D01*
X134372998Y-79706747D01*
X134391640Y-79690825D01*
X134449442Y-79669500D01*
X135155216Y-79669500D01*
X135212424Y-79690322D01*
X135242864Y-79743045D01*
X135232292Y-79803000D01*
X135213722Y-79825567D01*
X135113148Y-79913303D01*
X135109104Y-79916831D01*
X135106018Y-79921222D01*
X135014700Y-80051155D01*
X135011613Y-80055547D01*
X135009665Y-80060543D01*
X135009664Y-80060545D01*
X134995855Y-80095963D01*
X134950024Y-80213513D01*
X134927894Y-80381611D01*
X134928482Y-80386937D01*
X134928482Y-80386939D01*
X134941915Y-80508611D01*
X134946499Y-80550135D01*
X135004766Y-80709356D01*
X135007761Y-80713813D01*
X135093101Y-80840813D01*
X135099330Y-80850083D01*
X135103298Y-80853693D01*
X135103300Y-80853696D01*
X135220762Y-80960578D01*
X135224733Y-80964191D01*
X135373735Y-81045092D01*
X135408171Y-81054126D01*
X135516639Y-81082582D01*
X135537733Y-81088116D01*
X135622497Y-81089448D01*
X135701892Y-81090695D01*
X135701895Y-81090695D01*
X135707260Y-81090779D01*
X135712489Y-81089581D01*
X135712493Y-81089581D01*
X135867299Y-81054126D01*
X135867300Y-81054125D01*
X135872529Y-81052928D01*
X136023998Y-80976747D01*
X136152923Y-80866634D01*
X136251861Y-80728947D01*
X136253862Y-80723969D01*
X136254456Y-80722889D01*
X136300263Y-80682789D01*
X136361130Y-80681516D01*
X136406316Y-80716127D01*
X136496330Y-80850083D01*
X136500298Y-80853693D01*
X136500300Y-80853696D01*
X136617762Y-80960578D01*
X136621733Y-80964191D01*
X136770735Y-81045092D01*
X136805171Y-81054126D01*
X136913639Y-81082582D01*
X136934733Y-81088116D01*
X137019497Y-81089448D01*
X137098892Y-81090695D01*
X137098895Y-81090695D01*
X137104260Y-81090779D01*
X137142504Y-81082020D01*
X137202915Y-81089545D01*
X137244357Y-81134142D01*
X137247438Y-81194943D01*
X137225305Y-81231706D01*
X135788313Y-82668699D01*
X135785622Y-82671280D01*
X135763379Y-82691734D01*
X135739345Y-82713834D01*
X135736151Y-82718985D01*
X135736148Y-82718989D01*
X135715491Y-82752307D01*
X135710745Y-82759211D01*
X135709428Y-82760947D01*
X135690321Y-82786120D01*
X135683389Y-82795252D01*
X135676639Y-82812300D01*
X135669535Y-82826427D01*
X135659866Y-82842021D01*
X135658174Y-82847847D01*
X135658172Y-82847850D01*
X135647241Y-82885476D01*
X135644525Y-82893409D01*
X135630098Y-82929846D01*
X135630097Y-82929852D01*
X135627865Y-82935488D01*
X135627231Y-82941521D01*
X135625948Y-82953725D01*
X135622904Y-82969243D01*
X135617786Y-82986860D01*
X135617001Y-82997550D01*
X135617001Y-83034197D01*
X135616513Y-83043500D01*
X135612840Y-83078452D01*
X135612100Y-83085489D01*
X135613111Y-83091466D01*
X135613111Y-83091469D01*
X135615755Y-83107099D01*
X135617001Y-83121941D01*
X135617001Y-85203785D01*
X135596179Y-85260993D01*
X135543456Y-85291433D01*
X135483501Y-85280861D01*
X135450010Y-85246662D01*
X135435464Y-85220204D01*
X135431782Y-85212689D01*
X135413805Y-85171145D01*
X135402265Y-85156894D01*
X135393442Y-85143764D01*
X135386856Y-85131784D01*
X135386854Y-85131781D01*
X135384606Y-85127692D01*
X135381558Y-85124161D01*
X135381556Y-85124158D01*
X135378666Y-85120810D01*
X135378658Y-85120802D01*
X135377602Y-85119578D01*
X135351693Y-85093669D01*
X135345460Y-85086746D01*
X135336393Y-85075549D01*
X135318886Y-85053930D01*
X135301017Y-85041231D01*
X135289648Y-85031624D01*
X134005341Y-83747317D01*
X133979613Y-83692141D01*
X133995369Y-83633336D01*
X134048405Y-83597630D01*
X134128299Y-83579332D01*
X134128300Y-83579331D01*
X134133529Y-83578134D01*
X134284998Y-83501953D01*
X134413923Y-83391840D01*
X134512861Y-83254153D01*
X134576101Y-83096840D01*
X134599990Y-82928984D01*
X134600145Y-82914206D01*
X134579776Y-82745886D01*
X134519845Y-82587283D01*
X134423812Y-82447555D01*
X134297221Y-82334766D01*
X134152254Y-82258010D01*
X134152124Y-82257941D01*
X134152122Y-82257940D01*
X134147381Y-82255430D01*
X134136983Y-82252818D01*
X134112536Y-82246678D01*
X133982941Y-82214125D01*
X133903146Y-82213707D01*
X133818758Y-82213265D01*
X133818757Y-82213265D01*
X133813395Y-82213237D01*
X133808180Y-82214489D01*
X133789224Y-82219040D01*
X133648532Y-82252818D01*
X133497869Y-82330581D01*
X133476028Y-82349634D01*
X133390885Y-82423909D01*
X133370104Y-82442037D01*
X133367018Y-82446428D01*
X133281052Y-82568746D01*
X133272613Y-82580753D01*
X133270665Y-82585749D01*
X133270664Y-82585751D01*
X133257924Y-82618427D01*
X133217743Y-82664164D01*
X133157564Y-82673371D01*
X133115798Y-82652547D01*
X133105228Y-82643129D01*
X133105222Y-82643125D01*
X133101221Y-82639560D01*
X133002285Y-82587176D01*
X132956124Y-82562735D01*
X132956122Y-82562734D01*
X132951381Y-82560224D01*
X132940983Y-82557612D01*
X132907071Y-82549094D01*
X132786941Y-82518919D01*
X132707146Y-82518501D01*
X132622758Y-82518059D01*
X132622757Y-82518059D01*
X132617395Y-82518031D01*
X132612180Y-82519283D01*
X132593224Y-82523834D01*
X132452532Y-82557612D01*
X132301869Y-82635375D01*
X132265921Y-82666734D01*
X132180941Y-82740867D01*
X132174104Y-82746831D01*
X132171018Y-82751222D01*
X132082179Y-82877628D01*
X132076613Y-82885547D01*
X132074665Y-82890543D01*
X132074664Y-82890545D01*
X132069451Y-82903917D01*
X132015024Y-83043513D01*
X131992894Y-83211611D01*
X131993482Y-83216937D01*
X131993482Y-83216939D01*
X132010742Y-83373275D01*
X132011499Y-83380135D01*
X132069766Y-83539356D01*
X132072761Y-83543813D01*
X132132918Y-83633336D01*
X132164330Y-83680083D01*
X132168298Y-83683693D01*
X132168300Y-83683696D01*
X132213841Y-83725135D01*
X132289733Y-83794191D01*
X132438735Y-83875092D01*
X132601599Y-83917818D01*
X132641947Y-83940972D01*
X134350350Y-85649375D01*
X134376078Y-85704551D01*
X134360232Y-85763483D01*
X134345593Y-85784313D01*
X134316613Y-85825547D01*
X134255024Y-85983513D01*
X134232894Y-86151611D01*
X134233482Y-86156937D01*
X134233482Y-86156939D01*
X134250458Y-86310703D01*
X134251499Y-86320135D01*
X134309766Y-86479356D01*
X134312761Y-86483813D01*
X134384131Y-86590023D01*
X134404330Y-86620083D01*
X134408298Y-86623693D01*
X134408300Y-86623696D01*
X134525762Y-86730578D01*
X134529733Y-86734191D01*
X134678735Y-86815092D01*
X134842733Y-86858116D01*
X134927497Y-86859448D01*
X135006892Y-86860695D01*
X135006895Y-86860695D01*
X135012260Y-86860779D01*
X135017489Y-86859581D01*
X135017493Y-86859581D01*
X135172299Y-86824126D01*
X135172300Y-86824125D01*
X135177529Y-86822928D01*
X135328998Y-86746747D01*
X135457923Y-86636634D01*
X135461059Y-86632270D01*
X135462486Y-86630718D01*
X135516535Y-86602700D01*
X135575949Y-86615978D01*
X135612928Y-86664341D01*
X135617001Y-86690958D01*
X135617001Y-88396111D01*
X135596179Y-88453319D01*
X135543456Y-88483759D01*
X135483501Y-88473187D01*
X135465068Y-88459044D01*
X132413841Y-85407817D01*
X132388419Y-85355576D01*
X132382421Y-85306010D01*
X132381776Y-85300680D01*
X132321845Y-85142077D01*
X132225812Y-85002349D01*
X132099221Y-84889560D01*
X132022416Y-84848894D01*
X131954124Y-84812735D01*
X131954122Y-84812734D01*
X131949381Y-84810224D01*
X131938983Y-84807612D01*
X131914536Y-84801472D01*
X131784941Y-84768919D01*
X131705146Y-84768501D01*
X131620758Y-84768059D01*
X131620757Y-84768059D01*
X131615395Y-84768031D01*
X131610180Y-84769283D01*
X131591224Y-84773834D01*
X131450532Y-84807612D01*
X131299869Y-84885375D01*
X131172104Y-84996831D01*
X131169018Y-85001222D01*
X131080134Y-85127692D01*
X131074613Y-85135547D01*
X131072665Y-85140543D01*
X131072664Y-85140545D01*
X131063907Y-85163006D01*
X131013024Y-85293513D01*
X130990894Y-85461611D01*
X130991482Y-85466937D01*
X130991482Y-85466939D01*
X131003333Y-85574279D01*
X131009499Y-85630135D01*
X131067766Y-85789356D01*
X131070761Y-85793813D01*
X131154993Y-85919164D01*
X131162330Y-85930083D01*
X131166298Y-85933693D01*
X131166300Y-85933696D01*
X131283762Y-86040578D01*
X131287733Y-86044191D01*
X131436735Y-86125092D01*
X131549690Y-86154725D01*
X131599601Y-86167819D01*
X131639948Y-86190973D01*
X134740932Y-89291956D01*
X134766661Y-89347132D01*
X134767000Y-89354889D01*
X134767000Y-89782500D01*
X134746178Y-89839708D01*
X134693455Y-89870148D01*
X134678000Y-89871500D01*
X131659191Y-89871500D01*
X131599986Y-89848951D01*
X131582228Y-89833129D01*
X131582222Y-89833125D01*
X131578221Y-89829560D01*
X131449763Y-89761545D01*
X131433124Y-89752735D01*
X131433122Y-89752734D01*
X131428381Y-89750224D01*
X131417983Y-89747612D01*
X131393536Y-89741472D01*
X131263941Y-89708919D01*
X131184146Y-89708501D01*
X131099758Y-89708059D01*
X131099757Y-89708059D01*
X131094395Y-89708031D01*
X131089180Y-89709283D01*
X131082816Y-89710811D01*
X130929532Y-89747612D01*
X130778869Y-89825375D01*
X130742383Y-89857204D01*
X130670592Y-89919831D01*
X130651104Y-89936831D01*
X130648018Y-89941222D01*
X130556833Y-90070966D01*
X130553613Y-90075547D01*
X130551665Y-90080543D01*
X130551664Y-90080545D01*
X130548679Y-90088201D01*
X130492024Y-90233513D01*
X130469894Y-90401611D01*
X130470482Y-90406937D01*
X130470482Y-90406939D01*
X130487823Y-90564009D01*
X130488499Y-90570135D01*
X130546766Y-90729356D01*
X130549761Y-90733813D01*
X130629106Y-90851891D01*
X130641330Y-90870083D01*
X130645298Y-90873693D01*
X130645300Y-90873696D01*
X130762762Y-90980578D01*
X130766733Y-90984191D01*
X130915735Y-91065092D01*
X131004302Y-91088327D01*
X131066091Y-91104537D01*
X131079733Y-91108116D01*
X131164497Y-91109448D01*
X131243892Y-91110695D01*
X131243895Y-91110695D01*
X131249260Y-91110779D01*
X131254489Y-91109581D01*
X131254493Y-91109581D01*
X131409299Y-91074126D01*
X131409300Y-91074125D01*
X131414529Y-91072928D01*
X131565998Y-90996747D01*
X131570077Y-90993263D01*
X131574551Y-90990291D01*
X131575427Y-90991610D01*
X131627222Y-90972500D01*
X134847167Y-90972500D01*
X134898931Y-90992528D01*
X134900392Y-90990472D01*
X134904762Y-90993578D01*
X134908733Y-90997191D01*
X135057735Y-91078092D01*
X135129854Y-91097012D01*
X135211415Y-91118409D01*
X135221733Y-91121116D01*
X135306496Y-91122447D01*
X135385892Y-91123695D01*
X135385895Y-91123695D01*
X135391260Y-91123779D01*
X135396490Y-91122581D01*
X135396492Y-91122581D01*
X135499915Y-91098894D01*
X135508133Y-91097012D01*
X135568545Y-91104537D01*
X135609987Y-91149134D01*
X135617001Y-91183766D01*
X135617001Y-93687109D01*
X135596179Y-93744317D01*
X135590945Y-93750030D01*
X134703290Y-94637685D01*
X134648116Y-94663412D01*
X134589311Y-94647656D01*
X134554392Y-94597786D01*
X134552247Y-94562211D01*
X134560578Y-94503670D01*
X134560990Y-94500778D01*
X134561145Y-94486000D01*
X134540776Y-94317680D01*
X134480845Y-94159077D01*
X134384812Y-94019349D01*
X134258221Y-93906560D01*
X134193649Y-93872371D01*
X134113124Y-93829735D01*
X134113122Y-93829734D01*
X134108381Y-93827224D01*
X134097983Y-93824612D01*
X134073536Y-93818472D01*
X133943941Y-93785919D01*
X133864146Y-93785501D01*
X133779758Y-93785059D01*
X133779757Y-93785059D01*
X133774395Y-93785031D01*
X133769180Y-93786283D01*
X133750224Y-93790834D01*
X133609532Y-93824612D01*
X133458869Y-93902375D01*
X133454825Y-93905903D01*
X133446038Y-93913568D01*
X133387533Y-93935500D01*
X131736131Y-93935500D01*
X131732404Y-93935422D01*
X131675670Y-93933044D01*
X131675669Y-93933044D01*
X131669606Y-93932790D01*
X131625548Y-93943124D01*
X131617310Y-93944650D01*
X131578482Y-93949969D01*
X131578474Y-93949971D01*
X131572468Y-93950794D01*
X131555640Y-93958076D01*
X131540615Y-93963045D01*
X131528671Y-93965846D01*
X131528667Y-93965847D01*
X131522764Y-93967232D01*
X131483098Y-93989039D01*
X131475589Y-93992718D01*
X131434045Y-94010695D01*
X131429328Y-94014514D01*
X131429329Y-94014514D01*
X131419794Y-94022235D01*
X131406664Y-94031058D01*
X131394684Y-94037644D01*
X131394681Y-94037646D01*
X131390592Y-94039894D01*
X131387061Y-94042942D01*
X131387058Y-94042944D01*
X131383710Y-94045834D01*
X131383702Y-94045842D01*
X131382478Y-94046898D01*
X131356569Y-94072807D01*
X131349646Y-94079040D01*
X131316830Y-94105614D01*
X131304131Y-94123483D01*
X131294524Y-94134852D01*
X123916215Y-101513161D01*
X123874059Y-101536769D01*
X123801399Y-101554214D01*
X123728932Y-101571612D01*
X123578269Y-101649375D01*
X123450504Y-101760831D01*
X123353013Y-101899547D01*
X123291424Y-102057513D01*
X123269294Y-102225611D01*
X123269882Y-102230937D01*
X123269882Y-102230939D01*
X123282486Y-102345100D01*
X123287899Y-102394135D01*
X123346166Y-102553356D01*
X123440730Y-102694083D01*
X123444698Y-102697693D01*
X123444700Y-102697696D01*
X123458919Y-102710634D01*
X123566133Y-102808191D01*
X123715135Y-102889092D01*
X123879133Y-102932116D01*
X123963896Y-102933447D01*
X124043292Y-102934695D01*
X124043295Y-102934695D01*
X124048660Y-102934779D01*
X124053889Y-102933581D01*
X124053893Y-102933581D01*
X124208699Y-102898126D01*
X124208700Y-102898125D01*
X124213929Y-102896928D01*
X124365398Y-102820747D01*
X124494323Y-102710634D01*
X124593261Y-102572947D01*
X124656501Y-102415634D01*
X124666539Y-102345100D01*
X124691718Y-102294707D01*
X131923858Y-95062567D01*
X131979034Y-95036839D01*
X131986791Y-95036500D01*
X133385167Y-95036500D01*
X133436931Y-95056528D01*
X133438392Y-95054472D01*
X133442762Y-95057578D01*
X133446733Y-95061191D01*
X133595735Y-95142092D01*
X133759733Y-95185116D01*
X133855498Y-95186620D01*
X133923897Y-95187695D01*
X133923899Y-95187695D01*
X133929260Y-95187779D01*
X133931362Y-95187298D01*
X133989340Y-95201752D01*
X134025125Y-95251004D01*
X134020879Y-95311736D01*
X134002506Y-95338469D01*
X129459083Y-99881893D01*
X129403907Y-99907622D01*
X129345102Y-99891866D01*
X129312895Y-99850420D01*
X129275740Y-99752093D01*
X129273845Y-99747077D01*
X129177812Y-99607349D01*
X129051221Y-99494560D01*
X128994763Y-99464667D01*
X128906124Y-99417735D01*
X128906122Y-99417734D01*
X128901381Y-99415224D01*
X128890983Y-99412612D01*
X128866536Y-99406472D01*
X128736941Y-99373919D01*
X128657146Y-99373501D01*
X128572758Y-99373059D01*
X128572757Y-99373059D01*
X128567395Y-99373031D01*
X128562180Y-99374283D01*
X128543224Y-99378834D01*
X128402532Y-99412612D01*
X128251869Y-99490375D01*
X128124104Y-99601831D01*
X128026613Y-99740547D01*
X127965024Y-99898513D01*
X127942894Y-100066611D01*
X127961499Y-100235135D01*
X128019766Y-100394356D01*
X128114330Y-100535083D01*
X128118298Y-100538693D01*
X128118300Y-100538696D01*
X128235762Y-100645578D01*
X128239733Y-100649191D01*
X128388735Y-100730092D01*
X128393920Y-100731452D01*
X128393922Y-100731453D01*
X128402608Y-100733732D01*
X128414703Y-100736904D01*
X128464754Y-100771560D01*
X128480820Y-100830282D01*
X128455052Y-100885924D01*
X125652543Y-103688433D01*
X125597367Y-103714161D01*
X125589610Y-103714500D01*
X124494799Y-103714500D01*
X124435594Y-103691951D01*
X124432427Y-103689129D01*
X124432426Y-103689128D01*
X124428421Y-103685560D01*
X124321964Y-103629194D01*
X124283324Y-103608735D01*
X124283322Y-103608734D01*
X124278581Y-103606224D01*
X124268183Y-103603612D01*
X124243736Y-103597472D01*
X124114141Y-103564919D01*
X124034346Y-103564501D01*
X123949958Y-103564059D01*
X123949957Y-103564059D01*
X123944595Y-103564031D01*
X123939380Y-103565283D01*
X123920424Y-103569834D01*
X123779732Y-103603612D01*
X123629069Y-103681375D01*
X123501304Y-103792831D01*
X123498218Y-103797222D01*
X123416128Y-103914025D01*
X123403813Y-103931547D01*
X123401865Y-103936543D01*
X123401864Y-103936545D01*
X123387489Y-103973415D01*
X123342224Y-104089513D01*
X123320094Y-104257611D01*
X123320682Y-104262937D01*
X123320682Y-104262939D01*
X123329173Y-104339846D01*
X123338699Y-104426135D01*
X123396966Y-104585356D01*
X123399961Y-104589813D01*
X123464184Y-104685387D01*
X123491530Y-104726083D01*
X123495498Y-104729693D01*
X123495500Y-104729696D01*
X123589798Y-104815500D01*
X123616933Y-104840191D01*
X123765935Y-104921092D01*
X123929933Y-104964116D01*
X124014696Y-104965447D01*
X124094092Y-104966695D01*
X124094095Y-104966695D01*
X124099460Y-104966779D01*
X124104689Y-104965581D01*
X124104693Y-104965581D01*
X124259499Y-104930126D01*
X124259500Y-104930125D01*
X124264729Y-104928928D01*
X124416198Y-104852747D01*
X124434840Y-104836825D01*
X124492642Y-104815500D01*
X125326610Y-104815500D01*
X125383818Y-104836322D01*
X125414258Y-104889045D01*
X125403686Y-104949000D01*
X125389543Y-104967433D01*
X124636543Y-105720433D01*
X124581367Y-105746161D01*
X124573610Y-105746500D01*
X124545599Y-105746500D01*
X124486394Y-105723951D01*
X124483227Y-105721129D01*
X124483226Y-105721128D01*
X124479221Y-105717560D01*
X124412459Y-105682212D01*
X124334124Y-105640735D01*
X124334122Y-105640734D01*
X124329381Y-105638224D01*
X124318983Y-105635612D01*
X124294536Y-105629472D01*
X124164941Y-105596919D01*
X124085146Y-105596501D01*
X124000758Y-105596059D01*
X124000757Y-105596059D01*
X123995395Y-105596031D01*
X123990180Y-105597283D01*
X123971224Y-105601834D01*
X123830532Y-105635612D01*
X123679869Y-105713375D01*
X123552104Y-105824831D01*
X123454613Y-105963547D01*
X123393024Y-106121513D01*
X123370894Y-106289611D01*
X123371482Y-106294937D01*
X123371482Y-106294939D01*
X123387584Y-106440787D01*
X123389499Y-106458135D01*
X123447766Y-106617356D01*
X123450761Y-106621813D01*
X123534346Y-106746201D01*
X123542330Y-106758083D01*
X123546298Y-106761693D01*
X123546300Y-106761696D01*
X123572231Y-106785291D01*
X123667733Y-106872191D01*
X123816735Y-106953092D01*
X123980733Y-106996116D01*
X124065497Y-106997448D01*
X124144892Y-106998695D01*
X124144895Y-106998695D01*
X124150260Y-106998779D01*
X124155489Y-106997581D01*
X124155493Y-106997581D01*
X124303894Y-106963593D01*
X124364307Y-106971118D01*
X124405749Y-107015715D01*
X124408828Y-107076517D01*
X124386696Y-107113280D01*
X123890815Y-107609161D01*
X123848659Y-107632769D01*
X123775999Y-107650214D01*
X123703532Y-107667612D01*
X123552869Y-107745375D01*
X123516874Y-107776775D01*
X123454204Y-107831446D01*
X123425104Y-107856831D01*
X123422018Y-107861222D01*
X123364525Y-107943027D01*
X123327613Y-107995547D01*
X123325665Y-108000543D01*
X123325664Y-108000545D01*
X123303855Y-108056482D01*
X123266024Y-108153513D01*
X123243894Y-108321611D01*
X122702500Y-108321611D01*
X122702500Y-94994000D01*
X124547896Y-94994000D01*
X124548170Y-94997482D01*
X124563147Y-95187779D01*
X124568279Y-95252994D01*
X124628927Y-95505610D01*
X124728346Y-95745628D01*
X124730174Y-95748611D01*
X124730176Y-95748615D01*
X124749737Y-95780535D01*
X124864088Y-95967140D01*
X125032811Y-96164689D01*
X125230360Y-96333412D01*
X125332365Y-96395921D01*
X125448885Y-96467324D01*
X125448889Y-96467326D01*
X125451872Y-96469154D01*
X125691890Y-96568573D01*
X125944506Y-96629221D01*
X125947986Y-96629495D01*
X125947987Y-96629495D01*
X126136900Y-96644363D01*
X126136912Y-96644363D01*
X126138647Y-96644500D01*
X126268353Y-96644500D01*
X126270088Y-96644363D01*
X126270100Y-96644363D01*
X126459013Y-96629495D01*
X126459014Y-96629495D01*
X126462494Y-96629221D01*
X126715110Y-96568573D01*
X126955128Y-96469154D01*
X126958111Y-96467326D01*
X126958115Y-96467324D01*
X127074635Y-96395921D01*
X127176640Y-96333412D01*
X127374189Y-96164689D01*
X127542912Y-95967140D01*
X127657263Y-95780535D01*
X127676824Y-95748615D01*
X127676826Y-95748611D01*
X127678654Y-95745628D01*
X127778073Y-95505610D01*
X127838721Y-95252994D01*
X127843854Y-95187779D01*
X127858830Y-94997482D01*
X127859104Y-94994000D01*
X127851479Y-94897112D01*
X127838995Y-94738487D01*
X127838995Y-94738486D01*
X127838721Y-94735006D01*
X127778073Y-94482390D01*
X127678654Y-94242372D01*
X127542912Y-94020860D01*
X127374189Y-93823311D01*
X127176640Y-93654588D01*
X126971904Y-93529126D01*
X126958115Y-93520676D01*
X126958111Y-93520674D01*
X126955128Y-93518846D01*
X126715110Y-93419427D01*
X126462494Y-93358779D01*
X126459014Y-93358505D01*
X126459013Y-93358505D01*
X126270100Y-93343637D01*
X126270088Y-93343637D01*
X126268353Y-93343500D01*
X126138647Y-93343500D01*
X126136912Y-93343637D01*
X126136900Y-93343637D01*
X125947987Y-93358505D01*
X125947986Y-93358505D01*
X125944506Y-93358779D01*
X125941109Y-93359594D01*
X125941106Y-93359595D01*
X125903593Y-93368601D01*
X125843105Y-93361709D01*
X125801199Y-93317548D01*
X125797482Y-93256782D01*
X125833695Y-93207844D01*
X125841035Y-93203477D01*
X125895172Y-93174692D01*
X125902392Y-93169895D01*
X126048838Y-93050456D01*
X126054979Y-93044358D01*
X126175444Y-92898742D01*
X126180279Y-92891573D01*
X126270166Y-92725330D01*
X126273520Y-92717352D01*
X126310467Y-92597992D01*
X126310031Y-92589068D01*
X127494093Y-92589068D01*
X127494306Y-92592877D01*
X127529855Y-92713664D01*
X127533103Y-92721701D01*
X127622922Y-92893509D01*
X127627669Y-92900764D01*
X127749153Y-93051858D01*
X127755213Y-93058046D01*
X127903729Y-93182667D01*
X127910883Y-93187565D01*
X128080774Y-93280964D01*
X128088737Y-93284377D01*
X128273544Y-93343000D01*
X128282010Y-93344800D01*
X128432876Y-93361723D01*
X128437836Y-93362000D01*
X128748806Y-93362000D01*
X128760829Y-93357624D01*
X128764500Y-93351266D01*
X128764500Y-93346306D01*
X129272500Y-93346306D01*
X129276876Y-93358329D01*
X129283234Y-93362000D01*
X129592288Y-93362000D01*
X129596648Y-93361787D01*
X129740778Y-93347654D01*
X129749288Y-93345969D01*
X129934877Y-93289937D01*
X129942899Y-93286631D01*
X130114076Y-93195614D01*
X130121290Y-93190821D01*
X130271539Y-93068281D01*
X130277680Y-93062183D01*
X130401270Y-92912789D01*
X130406105Y-92905620D01*
X130498324Y-92735064D01*
X130501678Y-92727086D01*
X130541639Y-92597991D01*
X130541014Y-92585213D01*
X130539918Y-92584029D01*
X130535665Y-92583000D01*
X129288194Y-92583000D01*
X129276171Y-92587376D01*
X129272500Y-92593734D01*
X129272500Y-93346306D01*
X128764500Y-93346306D01*
X128764500Y-92598694D01*
X128760124Y-92586671D01*
X128753766Y-92583000D01*
X127507093Y-92583000D01*
X127495070Y-92587376D01*
X127494093Y-92589068D01*
X126310031Y-92589068D01*
X126309842Y-92585213D01*
X126308744Y-92584028D01*
X126304497Y-92583000D01*
X125108194Y-92583000D01*
X125096171Y-92587376D01*
X125092500Y-92593734D01*
X125092500Y-93321306D01*
X125096876Y-93333329D01*
X125103234Y-93337000D01*
X125386056Y-93337000D01*
X125390416Y-93336787D01*
X125450543Y-93330891D01*
X125509510Y-93346031D01*
X125544949Y-93395532D01*
X125540279Y-93456232D01*
X125493287Y-93501691D01*
X125455108Y-93517505D01*
X125455102Y-93517508D01*
X125451872Y-93518846D01*
X125448889Y-93520674D01*
X125448885Y-93520676D01*
X125435096Y-93529126D01*
X125230360Y-93654588D01*
X125032811Y-93823311D01*
X124864088Y-94020860D01*
X124728346Y-94242372D01*
X124628927Y-94482390D01*
X124568279Y-94735006D01*
X124568005Y-94738486D01*
X124568005Y-94738487D01*
X124555521Y-94897112D01*
X124547896Y-94994000D01*
X122702500Y-94994000D01*
X122702500Y-92589068D01*
X123365155Y-92589068D01*
X123365368Y-92592878D01*
X123398148Y-92704253D01*
X123401395Y-92712290D01*
X123488942Y-92879753D01*
X123493690Y-92887008D01*
X123612101Y-93034282D01*
X123618161Y-93040470D01*
X123762922Y-93161938D01*
X123770076Y-93166837D01*
X123935670Y-93257874D01*
X123943633Y-93261287D01*
X124123767Y-93318429D01*
X124132233Y-93320228D01*
X124279287Y-93336723D01*
X124284247Y-93337000D01*
X124568806Y-93337000D01*
X124580829Y-93332624D01*
X124584500Y-93326266D01*
X124584500Y-92598694D01*
X124580124Y-92586671D01*
X124573766Y-92583000D01*
X123378155Y-92583000D01*
X123366132Y-92587376D01*
X123365155Y-92589068D01*
X122702500Y-92589068D01*
X122702500Y-92060008D01*
X123366533Y-92060008D01*
X123367158Y-92072787D01*
X123368256Y-92073972D01*
X123372503Y-92075000D01*
X124568806Y-92075000D01*
X124580829Y-92070624D01*
X124584500Y-92064266D01*
X124584500Y-92059306D01*
X125092500Y-92059306D01*
X125096876Y-92071329D01*
X125103234Y-92075000D01*
X126298845Y-92075000D01*
X126310868Y-92070624D01*
X126311845Y-92068932D01*
X126311632Y-92065122D01*
X126310127Y-92060009D01*
X127495361Y-92060009D01*
X127495986Y-92072787D01*
X127497082Y-92073971D01*
X127501335Y-92075000D01*
X130529907Y-92075000D01*
X130541930Y-92070624D01*
X130542907Y-92068932D01*
X130542694Y-92065123D01*
X130507145Y-91944336D01*
X130503897Y-91936299D01*
X130414078Y-91764491D01*
X130409331Y-91757236D01*
X130287847Y-91606142D01*
X130281787Y-91599954D01*
X130133271Y-91475333D01*
X130126117Y-91470435D01*
X129956226Y-91377036D01*
X129948263Y-91373623D01*
X129763456Y-91315000D01*
X129754990Y-91313200D01*
X129604124Y-91296277D01*
X129599164Y-91296000D01*
X129163219Y-91296000D01*
X129106011Y-91275178D01*
X129075571Y-91222455D01*
X129082690Y-91169105D01*
X129092088Y-91149134D01*
X129118114Y-91093826D01*
X129121872Y-91074126D01*
X129146678Y-90944090D01*
X129146678Y-90944086D01*
X129147727Y-90938588D01*
X129144091Y-90880792D01*
X129138156Y-90786453D01*
X129138156Y-90786451D01*
X129137804Y-90780862D01*
X129088967Y-90630559D01*
X129084618Y-90623706D01*
X129007288Y-90501853D01*
X129007287Y-90501852D01*
X129004286Y-90497123D01*
X128889082Y-90388938D01*
X128884177Y-90386242D01*
X128884175Y-90386240D01*
X128755498Y-90315500D01*
X128755497Y-90315500D01*
X128750592Y-90312803D01*
X128745175Y-90311412D01*
X128745172Y-90311411D01*
X128674056Y-90293152D01*
X128597519Y-90273500D01*
X128479150Y-90273500D01*
X128476383Y-90273850D01*
X128476376Y-90273850D01*
X128367264Y-90287634D01*
X128367263Y-90287634D01*
X128361708Y-90288336D01*
X128356504Y-90290397D01*
X128356502Y-90290397D01*
X128293100Y-90315500D01*
X128214768Y-90346514D01*
X128195155Y-90360764D01*
X128100311Y-90429672D01*
X128086913Y-90439406D01*
X127986176Y-90561177D01*
X127983793Y-90566241D01*
X127979408Y-90575559D01*
X127918886Y-90704174D01*
X127917837Y-90709673D01*
X127890322Y-90853910D01*
X127890322Y-90853914D01*
X127889273Y-90859412D01*
X127892433Y-90909633D01*
X127898013Y-90998327D01*
X127899196Y-91017138D01*
X127948033Y-91167441D01*
X127951031Y-91172166D01*
X127951032Y-91172167D01*
X128030152Y-91296840D01*
X128043225Y-91356300D01*
X128015020Y-91410252D01*
X127996789Y-91423112D01*
X127922920Y-91462388D01*
X127915710Y-91467179D01*
X127765461Y-91589719D01*
X127759320Y-91595817D01*
X127635730Y-91745211D01*
X127630895Y-91752380D01*
X127538676Y-91922936D01*
X127535322Y-91930914D01*
X127495361Y-92060009D01*
X126310127Y-92060009D01*
X126278852Y-91953747D01*
X126275605Y-91945710D01*
X126188058Y-91778247D01*
X126183310Y-91770992D01*
X126064899Y-91623718D01*
X126058839Y-91617530D01*
X125914078Y-91496062D01*
X125906924Y-91491163D01*
X125741330Y-91400126D01*
X125733367Y-91396713D01*
X125553233Y-91339571D01*
X125544767Y-91337772D01*
X125397713Y-91321277D01*
X125392753Y-91321000D01*
X125108194Y-91321000D01*
X125096171Y-91325376D01*
X125092500Y-91331734D01*
X125092500Y-92059306D01*
X124584500Y-92059306D01*
X124584500Y-91336694D01*
X124580124Y-91324671D01*
X124573766Y-91321000D01*
X124290944Y-91321000D01*
X124286584Y-91321213D01*
X124146101Y-91334988D01*
X124137592Y-91336673D01*
X123956688Y-91391292D01*
X123948686Y-91394589D01*
X123781824Y-91483310D01*
X123774608Y-91488105D01*
X123628162Y-91607544D01*
X123622021Y-91613642D01*
X123501556Y-91759258D01*
X123496721Y-91766427D01*
X123406834Y-91932670D01*
X123403480Y-91940648D01*
X123366533Y-92060008D01*
X122702500Y-92060008D01*
X122702500Y-83949068D01*
X123365155Y-83949068D01*
X123365368Y-83952878D01*
X123398148Y-84064253D01*
X123401395Y-84072290D01*
X123488942Y-84239753D01*
X123493690Y-84247008D01*
X123612101Y-84394282D01*
X123618161Y-84400470D01*
X123762922Y-84521938D01*
X123770076Y-84526837D01*
X123935670Y-84617874D01*
X123943633Y-84621287D01*
X124123767Y-84678429D01*
X124132233Y-84680228D01*
X124279287Y-84696723D01*
X124284247Y-84697000D01*
X124568806Y-84697000D01*
X124580829Y-84692624D01*
X124584500Y-84686266D01*
X124584500Y-84681306D01*
X125092500Y-84681306D01*
X125096876Y-84693329D01*
X125103234Y-84697000D01*
X125386056Y-84697000D01*
X125390416Y-84696787D01*
X125530899Y-84683012D01*
X125539408Y-84681327D01*
X125720312Y-84626708D01*
X125728314Y-84623411D01*
X125895176Y-84534690D01*
X125902392Y-84529895D01*
X126048838Y-84410456D01*
X126054979Y-84404358D01*
X126175444Y-84258742D01*
X126180279Y-84251573D01*
X126270166Y-84085330D01*
X126273520Y-84077352D01*
X126310467Y-83957992D01*
X126310031Y-83949068D01*
X127494093Y-83949068D01*
X127494306Y-83952877D01*
X127529855Y-84073664D01*
X127533103Y-84081701D01*
X127622922Y-84253509D01*
X127627669Y-84260764D01*
X127749153Y-84411858D01*
X127755213Y-84418046D01*
X127903729Y-84542667D01*
X127910883Y-84547565D01*
X128001207Y-84597221D01*
X128041308Y-84643027D01*
X128042583Y-84703894D01*
X128026907Y-84731942D01*
X127986176Y-84781177D01*
X127983793Y-84786241D01*
X127973122Y-84808917D01*
X127918886Y-84924174D01*
X127917837Y-84929673D01*
X127890322Y-85073910D01*
X127890322Y-85073914D01*
X127889273Y-85079412D01*
X127894751Y-85166487D01*
X127898131Y-85220204D01*
X127899196Y-85237138D01*
X127948033Y-85387441D01*
X127951031Y-85392166D01*
X127951032Y-85392167D01*
X127995103Y-85461611D01*
X128032714Y-85520877D01*
X128147918Y-85629062D01*
X128152823Y-85631758D01*
X128152825Y-85631760D01*
X128253353Y-85687025D01*
X128286408Y-85705197D01*
X128291825Y-85706588D01*
X128291828Y-85706589D01*
X128356438Y-85723178D01*
X128439481Y-85744500D01*
X128557850Y-85744500D01*
X128560617Y-85744150D01*
X128560624Y-85744150D01*
X128669736Y-85730366D01*
X128669737Y-85730366D01*
X128675292Y-85729664D01*
X128680496Y-85727603D01*
X128680498Y-85727603D01*
X128817029Y-85673546D01*
X128822232Y-85671486D01*
X128950087Y-85578594D01*
X129050824Y-85456823D01*
X129118114Y-85313826D01*
X129124402Y-85280861D01*
X129146678Y-85164090D01*
X129146678Y-85164086D01*
X129147727Y-85158588D01*
X129140072Y-85036904D01*
X129138156Y-85006453D01*
X129138156Y-85006451D01*
X129137804Y-85000862D01*
X129088967Y-84850559D01*
X129087324Y-84847970D01*
X129081891Y-84788265D01*
X129116636Y-84738274D01*
X129167938Y-84722000D01*
X129592288Y-84722000D01*
X129596648Y-84721787D01*
X129740778Y-84707654D01*
X129749288Y-84705969D01*
X129934877Y-84649937D01*
X129942899Y-84646631D01*
X130114076Y-84555614D01*
X130121290Y-84550821D01*
X130271539Y-84428281D01*
X130277680Y-84422183D01*
X130401270Y-84272789D01*
X130406105Y-84265620D01*
X130498324Y-84095064D01*
X130501678Y-84087086D01*
X130541639Y-83957991D01*
X130541014Y-83945213D01*
X130539918Y-83944029D01*
X130535665Y-83943000D01*
X127507093Y-83943000D01*
X127495070Y-83947376D01*
X127494093Y-83949068D01*
X126310031Y-83949068D01*
X126309842Y-83945213D01*
X126308744Y-83944028D01*
X126304497Y-83943000D01*
X125108194Y-83943000D01*
X125096171Y-83947376D01*
X125092500Y-83953734D01*
X125092500Y-84681306D01*
X124584500Y-84681306D01*
X124584500Y-83958694D01*
X124580124Y-83946671D01*
X124573766Y-83943000D01*
X123378155Y-83943000D01*
X123366132Y-83947376D01*
X123365155Y-83949068D01*
X122702500Y-83949068D01*
X122702500Y-83420008D01*
X123366533Y-83420008D01*
X123367158Y-83432787D01*
X123368256Y-83433972D01*
X123372503Y-83435000D01*
X124568806Y-83435000D01*
X124580829Y-83430624D01*
X124584500Y-83424266D01*
X124584500Y-83419306D01*
X125092500Y-83419306D01*
X125096876Y-83431329D01*
X125103234Y-83435000D01*
X126298845Y-83435000D01*
X126310868Y-83430624D01*
X126311845Y-83428932D01*
X126311632Y-83425122D01*
X126310127Y-83420009D01*
X127495361Y-83420009D01*
X127495986Y-83432787D01*
X127497082Y-83433971D01*
X127501335Y-83435000D01*
X128748806Y-83435000D01*
X128760829Y-83430624D01*
X128764500Y-83424266D01*
X128764500Y-83419306D01*
X129272500Y-83419306D01*
X129276876Y-83431329D01*
X129283234Y-83435000D01*
X130529907Y-83435000D01*
X130541930Y-83430624D01*
X130542907Y-83428932D01*
X130542694Y-83425123D01*
X130507145Y-83304336D01*
X130503897Y-83296299D01*
X130414078Y-83124491D01*
X130409331Y-83117236D01*
X130287847Y-82966142D01*
X130281787Y-82959954D01*
X130133271Y-82835333D01*
X130126117Y-82830435D01*
X129956226Y-82737036D01*
X129948263Y-82733623D01*
X129763456Y-82675000D01*
X129754990Y-82673200D01*
X129604124Y-82656277D01*
X129599164Y-82656000D01*
X129288194Y-82656000D01*
X129276171Y-82660376D01*
X129272500Y-82666734D01*
X129272500Y-83419306D01*
X128764500Y-83419306D01*
X128764500Y-82671694D01*
X128760124Y-82659671D01*
X128753766Y-82656000D01*
X128444712Y-82656000D01*
X128440352Y-82656213D01*
X128296222Y-82670346D01*
X128287712Y-82672031D01*
X128102123Y-82728063D01*
X128094101Y-82731369D01*
X127922924Y-82822386D01*
X127915710Y-82827179D01*
X127765461Y-82949719D01*
X127759320Y-82955817D01*
X127635730Y-83105211D01*
X127630895Y-83112380D01*
X127538676Y-83282936D01*
X127535322Y-83290914D01*
X127495361Y-83420009D01*
X126310127Y-83420009D01*
X126278852Y-83313747D01*
X126275605Y-83305710D01*
X126188058Y-83138247D01*
X126183310Y-83130992D01*
X126064899Y-82983718D01*
X126058839Y-82977530D01*
X125914078Y-82856062D01*
X125906924Y-82851163D01*
X125741330Y-82760126D01*
X125733367Y-82756713D01*
X125553233Y-82699571D01*
X125544767Y-82697772D01*
X125397713Y-82681277D01*
X125392753Y-82681000D01*
X125108194Y-82681000D01*
X125096171Y-82685376D01*
X125092500Y-82691734D01*
X125092500Y-83419306D01*
X124584500Y-83419306D01*
X124584500Y-82696694D01*
X124580124Y-82684671D01*
X124573766Y-82681000D01*
X124290944Y-82681000D01*
X124286584Y-82681213D01*
X124146101Y-82694988D01*
X124137592Y-82696673D01*
X123956688Y-82751292D01*
X123948686Y-82754589D01*
X123781824Y-82843310D01*
X123774608Y-82848105D01*
X123628162Y-82967544D01*
X123622021Y-82973642D01*
X123501556Y-83119258D01*
X123496721Y-83126427D01*
X123406834Y-83292670D01*
X123403480Y-83300648D01*
X123366533Y-83420008D01*
X122702500Y-83420008D01*
X122702500Y-73262000D01*
X122723322Y-73204792D01*
X122776045Y-73174352D01*
X122791500Y-73173000D01*
X172605500Y-73173000D01*
X172662708Y-73193822D01*
G37*
%TD.AperFunction*%
%TA.AperFunction,Conductor*%
G36*
X156761817Y-116139322D02*
G01*
X156767542Y-116144567D01*
X157140760Y-116517785D01*
X157166290Y-116570952D01*
X157171499Y-116618135D01*
X157197633Y-116689550D01*
X157224847Y-116763915D01*
X157224954Y-116824795D01*
X157185903Y-116871499D01*
X157141268Y-116883501D01*
X146127766Y-116883501D01*
X146070558Y-116862679D01*
X146040118Y-116809956D01*
X146045189Y-116761305D01*
X146090065Y-116649675D01*
X146094101Y-116639634D01*
X146117990Y-116471778D01*
X146118145Y-116457000D01*
X146097776Y-116288680D01*
X146078988Y-116238959D01*
X146078245Y-116178084D01*
X146116805Y-116130973D01*
X146162243Y-116118500D01*
X156704609Y-116118500D01*
X156761817Y-116139322D01*
G37*
%TD.AperFunction*%
%TA.AperFunction,Conductor*%
G36*
X164514371Y-83246556D02*
G01*
X164514912Y-83246817D01*
X164533248Y-83251050D01*
X164549395Y-83254778D01*
X164559812Y-83257863D01*
X164593068Y-83269968D01*
X164598002Y-83270591D01*
X164598005Y-83270592D01*
X164637441Y-83275574D01*
X164646306Y-83277153D01*
X164678995Y-83284699D01*
X164689901Y-83287217D01*
X164729955Y-83287356D01*
X164730988Y-83287391D01*
X164731773Y-83287490D01*
X164768197Y-83287490D01*
X164768505Y-83287491D01*
X164869490Y-83287843D01*
X164870637Y-83287587D01*
X164872420Y-83287490D01*
X170256046Y-83287490D01*
X170313254Y-83308312D01*
X170318979Y-83313557D01*
X171085934Y-84080512D01*
X171111662Y-84135688D01*
X171112001Y-84143445D01*
X171112001Y-105844555D01*
X171091179Y-105901763D01*
X171085934Y-105907488D01*
X167160954Y-109832468D01*
X167105778Y-109858196D01*
X167046973Y-109842440D01*
X167012054Y-109792570D01*
X167009021Y-109769535D01*
X167009021Y-96701911D01*
X167029843Y-96644703D01*
X167082566Y-96614263D01*
X167142521Y-96624835D01*
X167173906Y-96655409D01*
X167219088Y-96729140D01*
X167387811Y-96926689D01*
X167585360Y-97095412D01*
X167687365Y-97157921D01*
X167803885Y-97229324D01*
X167803889Y-97229326D01*
X167806872Y-97231154D01*
X168046890Y-97330573D01*
X168299506Y-97391221D01*
X168302986Y-97391495D01*
X168302987Y-97391495D01*
X168491900Y-97406363D01*
X168491912Y-97406363D01*
X168493647Y-97406500D01*
X168623353Y-97406500D01*
X168625088Y-97406363D01*
X168625100Y-97406363D01*
X168814013Y-97391495D01*
X168814014Y-97391495D01*
X168817494Y-97391221D01*
X169070110Y-97330573D01*
X169310128Y-97231154D01*
X169313111Y-97229326D01*
X169313115Y-97229324D01*
X169429635Y-97157921D01*
X169531640Y-97095412D01*
X169729189Y-96926689D01*
X169897912Y-96729140D01*
X169961830Y-96624835D01*
X170031824Y-96510615D01*
X170031826Y-96510611D01*
X170033654Y-96507628D01*
X170133073Y-96267610D01*
X170193721Y-96014994D01*
X170199737Y-95938559D01*
X170213830Y-95759482D01*
X170214104Y-95756000D01*
X170193721Y-95497006D01*
X170133073Y-95244390D01*
X170033654Y-95004372D01*
X170025165Y-94990518D01*
X169943094Y-94856591D01*
X169897912Y-94782860D01*
X169729189Y-94585311D01*
X169531640Y-94416588D01*
X169329332Y-94292614D01*
X169313115Y-94282676D01*
X169313111Y-94282674D01*
X169310128Y-94280846D01*
X169070110Y-94181427D01*
X168847742Y-94128041D01*
X168796976Y-94094439D01*
X168779685Y-94036067D01*
X168803961Y-93980236D01*
X168847742Y-93954959D01*
X169070110Y-93901573D01*
X169310128Y-93802154D01*
X169313111Y-93800326D01*
X169313115Y-93800324D01*
X169497865Y-93687109D01*
X169531640Y-93666412D01*
X169729189Y-93497689D01*
X169897912Y-93300140D01*
X170033654Y-93078628D01*
X170133073Y-92838610D01*
X170193721Y-92585994D01*
X170198854Y-92520779D01*
X170213830Y-92330482D01*
X170214104Y-92327000D01*
X170193721Y-92068006D01*
X170133073Y-91815390D01*
X170033654Y-91575372D01*
X170001636Y-91523122D01*
X169957737Y-91451486D01*
X169897912Y-91353860D01*
X169729189Y-91156311D01*
X169531640Y-90987588D01*
X169389177Y-90900287D01*
X169313115Y-90853676D01*
X169313111Y-90853674D01*
X169310128Y-90851846D01*
X169070110Y-90752427D01*
X168847742Y-90699041D01*
X168796976Y-90665439D01*
X168779685Y-90607067D01*
X168803961Y-90551236D01*
X168847742Y-90525959D01*
X169070110Y-90472573D01*
X169310128Y-90373154D01*
X169313111Y-90371326D01*
X169313115Y-90371324D01*
X169486997Y-90264769D01*
X169531640Y-90237412D01*
X169729189Y-90068689D01*
X169897912Y-89871140D01*
X169970470Y-89752735D01*
X170031824Y-89652615D01*
X170031826Y-89652611D01*
X170033654Y-89649628D01*
X170133073Y-89409610D01*
X170193721Y-89156994D01*
X170214104Y-88898000D01*
X170205789Y-88792350D01*
X170193995Y-88642487D01*
X170193995Y-88642486D01*
X170193721Y-88639006D01*
X170133073Y-88386390D01*
X170033654Y-88146372D01*
X169897912Y-87924860D01*
X169729189Y-87727311D01*
X169531640Y-87558588D01*
X169429635Y-87496079D01*
X169313115Y-87424676D01*
X169313111Y-87424674D01*
X169310128Y-87422846D01*
X169070110Y-87323427D01*
X168817494Y-87262779D01*
X168814014Y-87262505D01*
X168814013Y-87262505D01*
X168638931Y-87248726D01*
X168583533Y-87223479D01*
X168557324Y-87168530D01*
X168572567Y-87109590D01*
X168622130Y-87074237D01*
X168638931Y-87071274D01*
X168814013Y-87057495D01*
X168814014Y-87057495D01*
X168817494Y-87057221D01*
X169070110Y-86996573D01*
X169310128Y-86897154D01*
X169313111Y-86895326D01*
X169313115Y-86895324D01*
X169431254Y-86822928D01*
X169531640Y-86761412D01*
X169729189Y-86592689D01*
X169897912Y-86395140D01*
X170033654Y-86173628D01*
X170133073Y-85933610D01*
X170193721Y-85680994D01*
X170206021Y-85524712D01*
X170213830Y-85425482D01*
X170214104Y-85422000D01*
X170208876Y-85355576D01*
X170193995Y-85166487D01*
X170193995Y-85166486D01*
X170193721Y-85163006D01*
X170133073Y-84910390D01*
X170033654Y-84670372D01*
X170021132Y-84649937D01*
X169899739Y-84451842D01*
X169897912Y-84448860D01*
X169729189Y-84251311D01*
X169531640Y-84082588D01*
X169429635Y-84020079D01*
X169313115Y-83948676D01*
X169313111Y-83948674D01*
X169310128Y-83946846D01*
X169070110Y-83847427D01*
X168817494Y-83786779D01*
X168814014Y-83786505D01*
X168814013Y-83786505D01*
X168625100Y-83771637D01*
X168625088Y-83771637D01*
X168623353Y-83771500D01*
X168493647Y-83771500D01*
X168491912Y-83771637D01*
X168491900Y-83771637D01*
X168302987Y-83786505D01*
X168302986Y-83786505D01*
X168299506Y-83786779D01*
X168046890Y-83847427D01*
X167806872Y-83946846D01*
X167803889Y-83948674D01*
X167803885Y-83948676D01*
X167687365Y-84020079D01*
X167585360Y-84082588D01*
X167387811Y-84251311D01*
X167219088Y-84448860D01*
X167217261Y-84451842D01*
X167095869Y-84649937D01*
X167083346Y-84670372D01*
X166983927Y-84910390D01*
X166923279Y-85163006D01*
X166923005Y-85166486D01*
X166923005Y-85166487D01*
X166908124Y-85355576D01*
X166902896Y-85422000D01*
X166903170Y-85425482D01*
X166922483Y-85670882D01*
X166906213Y-85729548D01*
X166856041Y-85764030D01*
X166795441Y-85758195D01*
X166770827Y-85740800D01*
X164423524Y-83393498D01*
X164397797Y-83338323D01*
X164413553Y-83279518D01*
X164463423Y-83244599D01*
X164514371Y-83246556D01*
G37*
%TD.AperFunction*%
%TD*%
M02*
