M48
; DRILL file {KiCad 5.99.0-unknown-d90d73416~104~ubuntu18.04.1} date Thu Oct 29 17:15:19 2020
; FORMAT={-:-/ absolute / inch / decimal}
; #@! TF.CreationDate,2020-10-29T17:15:19+01:00
; #@! TF.GenerationSoftware,Kicad,Pcbnew,5.99.0-unknown-d90d73416~104~ubuntu18.04.1
; #@! TF.FileFunction,Plated,1,4,PTH
FMAT,2
INCH
T1C0.0157
T2C0.0236
T3C0.0512
T4C0.1181
%
G90
G05
T1
X0.06Y0.84
X0.06Y0.765
X0.065Y0.6
X0.065Y0.52
X0.07Y0.675
X0.15Y1.5
X0.15Y1.45
X0.15Y1.4
X0.15Y1.35
X0.15Y1.3
X0.22Y1.0
X0.235Y0.565
X0.24Y0.51
X0.25Y0.925
X0.35Y0.2
X0.35Y0.15
X0.35Y0.1
X0.35Y0.05
X0.37Y1.5
X0.37Y1.31
X0.375Y1.95
X0.375Y1.9
X0.4Y0.65
X0.4Y0.375
X0.4Y0.325
X0.45Y0.5
X0.45Y0.45
X0.45Y0.375
X0.45Y0.325
X0.455Y1.145
X0.4565Y1.6006
X0.46Y1.75
X0.475Y0.8
X0.49Y1.4
X0.5126Y1.305
X0.525Y1.7
X0.525Y0.5
X0.525Y0.45
X0.55Y0.39
X0.555Y0.28
X0.58Y1.7
X0.6Y0.925
X0.6Y0.43
X0.64Y1.7
X0.645Y1.145
X0.65Y0.975
X0.65Y0.85
X0.66Y1.6055
X0.67Y0.6
X0.68Y0.56
X0.7Y0.925
X0.7Y0.65
X0.7228Y1.3181
X0.7228Y1.2767
X0.74Y1.62
X0.755Y0.28
X0.7738Y1.7112
X0.775Y1.125
X0.825Y1.125
X0.83Y1.63
X0.8519Y0.2796
X0.864Y0.472
X0.91Y0.28
X0.935Y1.25
X0.9412Y0.9938
X0.95Y1.8
X0.95Y1.75
X0.9652Y1.2752
X0.97Y1.69
X0.97Y1.39
X0.98Y0.74
X0.99Y0.995
X1.018Y0.478
X1.025Y0.225
X1.05Y1.8
X1.078Y0.578
X1.08Y0.478
X1.1Y1.1
X1.125Y1.75
X1.125Y1.575
X1.125Y1.525
X1.125Y1.475
X1.13Y1.29
X1.15Y1.125
X1.16Y0.18
X1.175Y1.525
X1.175Y1.475
X1.2Y1.89
X1.2Y1.65
X1.2Y1.125
X1.222Y0.46
X1.225Y1.525
X1.225Y1.475
X1.225Y0.9
X1.225Y0.85
X1.25Y1.695
X1.25Y0.6125
X1.266Y0.578
X1.275Y1.125
X1.275Y0.7
X1.275Y0.25
X1.288Y0.46
X1.3Y1.66
X1.3335Y1.54
X1.348Y0.714
X1.35Y1.7285
X1.35Y1.125
X1.36Y1.64
X1.4Y1.89
X1.4Y1.525
X1.4Y1.475
X1.4Y0.28
X1.41Y0.714
X1.424Y0.652
X1.425Y0.5875
X1.437Y1.293
X1.45Y1.525
X1.45Y1.475
X1.45Y0.875
X1.47Y1.16
X1.495Y0.355
X1.52Y1.03
X1.525Y0.975
X1.6Y1.9
X1.6Y1.825
X1.6Y0.2
X1.625Y0.975
X1.625Y0.875
X1.625Y0.725
X1.625Y0.25
X1.65Y1.9
X1.65Y1.425
X1.65Y0.65
X1.82Y0.55
X1.91Y1.305
X1.95Y0.55
T3
X1.1664Y1.002
T4
X1.8Y1.8
X1.8Y0.2
X0.2Y0.2
X0.2Y1.8
T2
G00X0.0843Y1.5701
M15
G01X0.1157Y1.5701
M16
G05
G00X0.0843Y1.2299
M15
G01X0.1157Y1.2299
M16
G05
G00X0.2429Y1.5701
M15
G01X0.2862Y1.5701
M16
G05
G00X0.2429Y1.2299
M15
G01X0.2862Y1.2299
M16
G05
T0
M30
