%TF.GenerationSoftware,KiCad,Pcbnew,6.0.4-6f826c9f35~116~ubuntu20.04.1*%
%TF.CreationDate,2023-05-11T07:09:55+00:00*%
%TF.ProjectId,TFGPS01B,54464750-5330-4314-922e-6b696361645f,REV*%
%TF.SameCoordinates,Original*%
%TF.FileFunction,Legend,Top*%
%TF.FilePolarity,Positive*%
%FSLAX46Y46*%
G04 Gerber Fmt 4.6, Leading zero omitted, Abs format (unit mm)*
G04 Created by KiCad (PCBNEW 6.0.4-6f826c9f35~116~ubuntu20.04.1) date 2023-05-11 07:09:55*
%MOMM*%
%LPD*%
G01*
G04 APERTURE LIST*
%ADD10C,0.300000*%
%ADD11C,0.150000*%
G04 APERTURE END LIST*
D10*
X167669357Y-99355571D02*
X167169357Y-98641285D01*
X166812214Y-99355571D02*
X166812214Y-97855571D01*
X167383642Y-97855571D01*
X167526500Y-97927000D01*
X167597928Y-97998428D01*
X167669357Y-98141285D01*
X167669357Y-98355571D01*
X167597928Y-98498428D01*
X167526500Y-98569857D01*
X167383642Y-98641285D01*
X166812214Y-98641285D01*
X168097928Y-97855571D02*
X168955071Y-97855571D01*
X168526500Y-99355571D02*
X168526500Y-97855571D01*
X169455071Y-99355571D02*
X169455071Y-97855571D01*
X170312214Y-99355571D02*
X169669357Y-98498428D01*
X170312214Y-97855571D02*
X169455071Y-98712714D01*
X136263528Y-118434200D02*
X136977814Y-118434200D01*
X136120671Y-118862771D02*
X136620671Y-117362771D01*
X137120671Y-118862771D01*
X138263528Y-117862771D02*
X138263528Y-118862771D01*
X137620671Y-117862771D02*
X137620671Y-118648485D01*
X137692100Y-118791342D01*
X137834957Y-118862771D01*
X138049242Y-118862771D01*
X138192100Y-118791342D01*
X138263528Y-118719914D01*
X138763528Y-117862771D02*
X139334957Y-117862771D01*
X138977814Y-117362771D02*
X138977814Y-118648485D01*
X139049242Y-118791342D01*
X139192100Y-118862771D01*
X139334957Y-118862771D01*
X140049242Y-118862771D02*
X139906385Y-118791342D01*
X139834957Y-118719914D01*
X139763528Y-118577057D01*
X139763528Y-118148485D01*
X139834957Y-118005628D01*
X139906385Y-117934200D01*
X140049242Y-117862771D01*
X140263528Y-117862771D01*
X140406385Y-117934200D01*
X140477814Y-118005628D01*
X140549242Y-118148485D01*
X140549242Y-118577057D01*
X140477814Y-118719914D01*
X140406385Y-118791342D01*
X140263528Y-118862771D01*
X140049242Y-118862771D01*
X141192100Y-117862771D02*
X141192100Y-119362771D01*
X141192100Y-117934200D02*
X141334957Y-117862771D01*
X141620671Y-117862771D01*
X141763528Y-117934200D01*
X141834957Y-118005628D01*
X141906385Y-118148485D01*
X141906385Y-118577057D01*
X141834957Y-118719914D01*
X141763528Y-118791342D01*
X141620671Y-118862771D01*
X141334957Y-118862771D01*
X141192100Y-118791342D01*
X142549242Y-118862771D02*
X142549242Y-117862771D01*
X142549242Y-117362771D02*
X142477814Y-117434200D01*
X142549242Y-117505628D01*
X142620671Y-117434200D01*
X142549242Y-117362771D01*
X142549242Y-117505628D01*
X143477814Y-118862771D02*
X143334957Y-118791342D01*
X143263528Y-118648485D01*
X143263528Y-117362771D01*
X144263528Y-118862771D02*
X144120671Y-118791342D01*
X144049242Y-118719914D01*
X143977814Y-118577057D01*
X143977814Y-118148485D01*
X144049242Y-118005628D01*
X144120671Y-117934200D01*
X144263528Y-117862771D01*
X144477814Y-117862771D01*
X144620671Y-117934200D01*
X144692100Y-118005628D01*
X144763528Y-118148485D01*
X144763528Y-118577057D01*
X144692100Y-118719914D01*
X144620671Y-118791342D01*
X144477814Y-118862771D01*
X144263528Y-118862771D01*
X145192100Y-117862771D02*
X145763528Y-117862771D01*
X145406385Y-117362771D02*
X145406385Y-118648485D01*
X145477814Y-118791342D01*
X145620671Y-118862771D01*
X145763528Y-118862771D01*
X144302328Y-77322828D02*
X144302328Y-78822828D01*
X143730900Y-78822828D01*
X143588042Y-78751400D01*
X143516614Y-78679971D01*
X143445185Y-78537114D01*
X143445185Y-78322828D01*
X143516614Y-78179971D01*
X143588042Y-78108542D01*
X143730900Y-78037114D01*
X144302328Y-78037114D01*
X142159471Y-77322828D02*
X142159471Y-78108542D01*
X142230900Y-78251400D01*
X142373757Y-78322828D01*
X142659471Y-78322828D01*
X142802328Y-78251400D01*
X142159471Y-77394257D02*
X142302328Y-77322828D01*
X142659471Y-77322828D01*
X142802328Y-77394257D01*
X142873757Y-77537114D01*
X142873757Y-77679971D01*
X142802328Y-77822828D01*
X142659471Y-77894257D01*
X142302328Y-77894257D01*
X142159471Y-77965685D01*
X141588042Y-78322828D02*
X141230900Y-77322828D01*
X140873757Y-78322828D02*
X141230900Y-77322828D01*
X141373757Y-76965685D01*
X141445185Y-76894257D01*
X141588042Y-76822828D01*
X140088042Y-77322828D02*
X140230900Y-77394257D01*
X140302328Y-77537114D01*
X140302328Y-78822828D01*
X139302328Y-77322828D02*
X139445185Y-77394257D01*
X139516614Y-77465685D01*
X139588042Y-77608542D01*
X139588042Y-78037114D01*
X139516614Y-78179971D01*
X139445185Y-78251400D01*
X139302328Y-78322828D01*
X139088042Y-78322828D01*
X138945185Y-78251400D01*
X138873757Y-78179971D01*
X138802328Y-78037114D01*
X138802328Y-77608542D01*
X138873757Y-77465685D01*
X138945185Y-77394257D01*
X139088042Y-77322828D01*
X139302328Y-77322828D01*
X137516614Y-77322828D02*
X137516614Y-78108542D01*
X137588042Y-78251400D01*
X137730900Y-78322828D01*
X138016614Y-78322828D01*
X138159471Y-78251400D01*
X137516614Y-77394257D02*
X137659471Y-77322828D01*
X138016614Y-77322828D01*
X138159471Y-77394257D01*
X138230900Y-77537114D01*
X138230900Y-77679971D01*
X138159471Y-77822828D01*
X138016614Y-77894257D01*
X137659471Y-77894257D01*
X137516614Y-77965685D01*
X136159471Y-77322828D02*
X136159471Y-78822828D01*
X136159471Y-77394257D02*
X136302328Y-77322828D01*
X136588042Y-77322828D01*
X136730900Y-77394257D01*
X136802328Y-77465685D01*
X136873757Y-77608542D01*
X136873757Y-78037114D01*
X136802328Y-78179971D01*
X136730900Y-78251400D01*
X136588042Y-78322828D01*
X136302328Y-78322828D01*
X136159471Y-78251400D01*
X166689214Y-83052000D02*
X167403500Y-83052000D01*
X166546357Y-83480571D02*
X167046357Y-81980571D01*
X167546357Y-83480571D01*
X168903500Y-83480571D02*
X168403500Y-82766285D01*
X168046357Y-83480571D02*
X168046357Y-81980571D01*
X168617785Y-81980571D01*
X168760642Y-82052000D01*
X168832071Y-82123428D01*
X168903500Y-82266285D01*
X168903500Y-82480571D01*
X168832071Y-82623428D01*
X168760642Y-82694857D01*
X168617785Y-82766285D01*
X168046357Y-82766285D01*
X169546357Y-83480571D02*
X169546357Y-81980571D01*
X170046357Y-83052000D01*
X170546357Y-81980571D01*
X170546357Y-83480571D01*
X170570500Y-94160428D02*
X170499071Y-94303285D01*
X170499071Y-94517571D01*
X170570500Y-94731857D01*
X170713357Y-94874714D01*
X170856214Y-94946142D01*
X171141928Y-95017571D01*
X171356214Y-95017571D01*
X171641928Y-94946142D01*
X171784785Y-94874714D01*
X171927642Y-94731857D01*
X171999071Y-94517571D01*
X171999071Y-94374714D01*
X171927642Y-94160428D01*
X171856214Y-94089000D01*
X171356214Y-94089000D01*
X171356214Y-94374714D01*
X171213357Y-93446142D02*
X171213357Y-92946142D01*
X171999071Y-92731857D02*
X171999071Y-93446142D01*
X170499071Y-93446142D01*
X170499071Y-92731857D01*
X170499071Y-91803285D02*
X170499071Y-91517571D01*
X170570500Y-91374714D01*
X170713357Y-91231857D01*
X170999071Y-91160428D01*
X171499071Y-91160428D01*
X171784785Y-91231857D01*
X171927642Y-91374714D01*
X171999071Y-91517571D01*
X171999071Y-91803285D01*
X171927642Y-91946142D01*
X171784785Y-92089000D01*
X171499071Y-92160428D01*
X170999071Y-92160428D01*
X170713357Y-92089000D01*
X170570500Y-91946142D01*
X170499071Y-91803285D01*
X166624571Y-113158285D02*
X166624571Y-112301142D01*
X168124571Y-112729714D02*
X166624571Y-112729714D01*
X167338857Y-111301142D02*
X167338857Y-111801142D01*
X168124571Y-111801142D02*
X166624571Y-111801142D01*
X166624571Y-111086857D01*
X166696000Y-109729714D02*
X166624571Y-109872571D01*
X166624571Y-110086857D01*
X166696000Y-110301142D01*
X166838857Y-110444000D01*
X166981714Y-110515428D01*
X167267428Y-110586857D01*
X167481714Y-110586857D01*
X167767428Y-110515428D01*
X167910285Y-110444000D01*
X168053142Y-110301142D01*
X168124571Y-110086857D01*
X168124571Y-109944000D01*
X168053142Y-109729714D01*
X167981714Y-109658285D01*
X167481714Y-109658285D01*
X167481714Y-109944000D01*
X168124571Y-109015428D02*
X166624571Y-109015428D01*
X166624571Y-108444000D01*
X166696000Y-108301142D01*
X166767428Y-108229714D01*
X166910285Y-108158285D01*
X167124571Y-108158285D01*
X167267428Y-108229714D01*
X167338857Y-108301142D01*
X167410285Y-108444000D01*
X167410285Y-109015428D01*
X168053142Y-107586857D02*
X168124571Y-107372571D01*
X168124571Y-107015428D01*
X168053142Y-106872571D01*
X167981714Y-106801142D01*
X167838857Y-106729714D01*
X167696000Y-106729714D01*
X167553142Y-106801142D01*
X167481714Y-106872571D01*
X167410285Y-107015428D01*
X167338857Y-107301142D01*
X167267428Y-107444000D01*
X167196000Y-107515428D01*
X167053142Y-107586857D01*
X166910285Y-107586857D01*
X166767428Y-107515428D01*
X166696000Y-107444000D01*
X166624571Y-107301142D01*
X166624571Y-106944000D01*
X166696000Y-106729714D01*
X166624571Y-105801142D02*
X166624571Y-105658285D01*
X166696000Y-105515428D01*
X166767428Y-105444000D01*
X166910285Y-105372571D01*
X167196000Y-105301142D01*
X167553142Y-105301142D01*
X167838857Y-105372571D01*
X167981714Y-105444000D01*
X168053142Y-105515428D01*
X168124571Y-105658285D01*
X168124571Y-105801142D01*
X168053142Y-105944000D01*
X167981714Y-106015428D01*
X167838857Y-106086857D01*
X167553142Y-106158285D01*
X167196000Y-106158285D01*
X166910285Y-106086857D01*
X166767428Y-106015428D01*
X166696000Y-105944000D01*
X166624571Y-105801142D01*
X168124571Y-103872571D02*
X168124571Y-104729714D01*
X168124571Y-104301142D02*
X166624571Y-104301142D01*
X166838857Y-104444000D01*
X166981714Y-104586857D01*
X167053142Y-104729714D01*
X167338857Y-102729714D02*
X167410285Y-102515428D01*
X167481714Y-102444000D01*
X167624571Y-102372571D01*
X167838857Y-102372571D01*
X167981714Y-102444000D01*
X168053142Y-102515428D01*
X168124571Y-102658285D01*
X168124571Y-103229714D01*
X166624571Y-103229714D01*
X166624571Y-102729714D01*
X166696000Y-102586857D01*
X166767428Y-102515428D01*
X166910285Y-102444000D01*
X167053142Y-102444000D01*
X167196000Y-102515428D01*
X167267428Y-102586857D01*
X167338857Y-102729714D01*
X167338857Y-103229714D01*
X169039571Y-113872571D02*
X170111000Y-113872571D01*
X170325285Y-113944000D01*
X170468142Y-114086857D01*
X170539571Y-114301142D01*
X170539571Y-114444000D01*
X170111000Y-113229714D02*
X170111000Y-112515428D01*
X170539571Y-113372571D02*
X169039571Y-112872571D01*
X170539571Y-112372571D01*
X170396714Y-111015428D02*
X170468142Y-111086857D01*
X170539571Y-111301142D01*
X170539571Y-111444000D01*
X170468142Y-111658285D01*
X170325285Y-111801142D01*
X170182428Y-111872571D01*
X169896714Y-111944000D01*
X169682428Y-111944000D01*
X169396714Y-111872571D01*
X169253857Y-111801142D01*
X169111000Y-111658285D01*
X169039571Y-111444000D01*
X169039571Y-111301142D01*
X169111000Y-111086857D01*
X169182428Y-111015428D01*
X170539571Y-110372571D02*
X169039571Y-110372571D01*
X169753857Y-110372571D02*
X169753857Y-109515428D01*
X170539571Y-109515428D02*
X169039571Y-109515428D01*
X169039571Y-108515428D02*
X169039571Y-108229714D01*
X169111000Y-108086857D01*
X169253857Y-107944000D01*
X169539571Y-107872571D01*
X170039571Y-107872571D01*
X170325285Y-107944000D01*
X170468142Y-108086857D01*
X170539571Y-108229714D01*
X170539571Y-108515428D01*
X170468142Y-108658285D01*
X170325285Y-108801142D01*
X170039571Y-108872571D01*
X169539571Y-108872571D01*
X169253857Y-108801142D01*
X169111000Y-108658285D01*
X169039571Y-108515428D01*
X169182428Y-106158285D02*
X169111000Y-106086857D01*
X169039571Y-105944000D01*
X169039571Y-105586857D01*
X169111000Y-105444000D01*
X169182428Y-105372571D01*
X169325285Y-105301142D01*
X169468142Y-105301142D01*
X169682428Y-105372571D01*
X170539571Y-106229714D01*
X170539571Y-105301142D01*
X169039571Y-104372571D02*
X169039571Y-104229714D01*
X169111000Y-104086857D01*
X169182428Y-104015428D01*
X169325285Y-103944000D01*
X169611000Y-103872571D01*
X169968142Y-103872571D01*
X170253857Y-103944000D01*
X170396714Y-104015428D01*
X170468142Y-104086857D01*
X170539571Y-104229714D01*
X170539571Y-104372571D01*
X170468142Y-104515428D01*
X170396714Y-104586857D01*
X170253857Y-104658285D01*
X169968142Y-104729714D01*
X169611000Y-104729714D01*
X169325285Y-104658285D01*
X169182428Y-104586857D01*
X169111000Y-104515428D01*
X169039571Y-104372571D01*
X169182428Y-103301142D02*
X169111000Y-103229714D01*
X169039571Y-103086857D01*
X169039571Y-102729714D01*
X169111000Y-102586857D01*
X169182428Y-102515428D01*
X169325285Y-102444000D01*
X169468142Y-102444000D01*
X169682428Y-102515428D01*
X170539571Y-103372571D01*
X170539571Y-102444000D01*
X170539571Y-101015428D02*
X170539571Y-101872571D01*
X170539571Y-101444000D02*
X169039571Y-101444000D01*
X169253857Y-101586857D01*
X169396714Y-101729714D01*
X169468142Y-101872571D01*
X129469928Y-94065428D02*
X129469928Y-94351142D01*
X129398500Y-94494000D01*
X129255642Y-94636857D01*
X128969928Y-94708285D01*
X128469928Y-94708285D01*
X128184214Y-94636857D01*
X128041357Y-94494000D01*
X127969928Y-94351142D01*
X127969928Y-94065428D01*
X128041357Y-93922571D01*
X128184214Y-93779714D01*
X128469928Y-93708285D01*
X128969928Y-93708285D01*
X129255642Y-93779714D01*
X129398500Y-93922571D01*
X129469928Y-94065428D01*
X127969928Y-95351142D02*
X129469928Y-95351142D01*
X127969928Y-96208285D01*
X129469928Y-96208285D01*
X154408671Y-121279000D02*
X155122957Y-121279000D01*
X154265814Y-121707571D02*
X154765814Y-120207571D01*
X155265814Y-121707571D01*
X155765814Y-120207571D02*
X155765814Y-121421857D01*
X155837242Y-121564714D01*
X155908671Y-121636142D01*
X156051528Y-121707571D01*
X156337242Y-121707571D01*
X156480100Y-121636142D01*
X156551528Y-121564714D01*
X156622957Y-121421857D01*
X156622957Y-120207571D01*
X157194385Y-120207571D02*
X158194385Y-121707571D01*
X158194385Y-120207571D02*
X157194385Y-121707571D01*
X159908671Y-121707571D02*
X159908671Y-120207571D01*
X160551528Y-120350428D02*
X160622957Y-120279000D01*
X160765814Y-120207571D01*
X161122957Y-120207571D01*
X161265814Y-120279000D01*
X161337242Y-120350428D01*
X161408671Y-120493285D01*
X161408671Y-120636142D01*
X161337242Y-120850428D01*
X160480100Y-121707571D01*
X161408671Y-121707571D01*
X162908671Y-121564714D02*
X162837242Y-121636142D01*
X162622957Y-121707571D01*
X162480100Y-121707571D01*
X162265814Y-121636142D01*
X162122957Y-121493285D01*
X162051528Y-121350428D01*
X161980100Y-121064714D01*
X161980100Y-120850428D01*
X162051528Y-120564714D01*
X162122957Y-120421857D01*
X162265814Y-120279000D01*
X162480100Y-120207571D01*
X162622957Y-120207571D01*
X162837242Y-120279000D01*
X162908671Y-120350428D01*
X170499071Y-90048714D02*
X170499071Y-89191571D01*
X171999071Y-89620142D02*
X170499071Y-89620142D01*
X171999071Y-88691571D02*
X170499071Y-88691571D01*
X170499071Y-88120142D01*
X170570500Y-87977285D01*
X170641928Y-87905857D01*
X170784785Y-87834428D01*
X170999071Y-87834428D01*
X171141928Y-87905857D01*
X171213357Y-87977285D01*
X171284785Y-88120142D01*
X171284785Y-88691571D01*
X171999071Y-86477285D02*
X171999071Y-87191571D01*
X170499071Y-87191571D01*
X161424100Y-74701857D02*
X161209814Y-74630428D01*
X160852671Y-74630428D01*
X160709814Y-74701857D01*
X160638385Y-74773285D01*
X160566957Y-74916142D01*
X160566957Y-75059000D01*
X160638385Y-75201857D01*
X160709814Y-75273285D01*
X160852671Y-75344714D01*
X161138385Y-75416142D01*
X161281242Y-75487571D01*
X161352671Y-75559000D01*
X161424100Y-75701857D01*
X161424100Y-75844714D01*
X161352671Y-75987571D01*
X161281242Y-76059000D01*
X161138385Y-76130428D01*
X160781242Y-76130428D01*
X160566957Y-76059000D01*
X159995528Y-75059000D02*
X159281242Y-75059000D01*
X160138385Y-74630428D02*
X159638385Y-76130428D01*
X159138385Y-74630428D01*
X158138385Y-75416142D02*
X158638385Y-75416142D01*
X158638385Y-74630428D02*
X158638385Y-76130428D01*
X157924100Y-76130428D01*
X157352671Y-75416142D02*
X156852671Y-75416142D01*
X156638385Y-74630428D02*
X157352671Y-74630428D01*
X157352671Y-76130428D01*
X156638385Y-76130428D01*
X156209814Y-76130428D02*
X155352671Y-76130428D01*
X155781242Y-74630428D02*
X155781242Y-76130428D01*
X154566957Y-75344714D02*
X154566957Y-74630428D01*
X155066957Y-76130428D02*
X154566957Y-75344714D01*
X154066957Y-76130428D01*
X152495528Y-74701857D02*
X152281242Y-74630428D01*
X151924100Y-74630428D01*
X151781242Y-74701857D01*
X151709814Y-74773285D01*
X151638385Y-74916142D01*
X151638385Y-75059000D01*
X151709814Y-75201857D01*
X151781242Y-75273285D01*
X151924100Y-75344714D01*
X152209814Y-75416142D01*
X152352671Y-75487571D01*
X152424100Y-75559000D01*
X152495528Y-75701857D01*
X152495528Y-75844714D01*
X152424100Y-75987571D01*
X152352671Y-76059000D01*
X152209814Y-76130428D01*
X151852671Y-76130428D01*
X151638385Y-76059000D01*
X151138385Y-76130428D02*
X150781242Y-74630428D01*
X150495528Y-75701857D01*
X150209814Y-74630428D01*
X149852671Y-76130428D01*
X134820642Y-120279000D02*
X134677785Y-120207571D01*
X134463500Y-120207571D01*
X134249214Y-120279000D01*
X134106357Y-120421857D01*
X134034928Y-120564714D01*
X133963500Y-120850428D01*
X133963500Y-121064714D01*
X134034928Y-121350428D01*
X134106357Y-121493285D01*
X134249214Y-121636142D01*
X134463500Y-121707571D01*
X134606357Y-121707571D01*
X134820642Y-121636142D01*
X134892071Y-121564714D01*
X134892071Y-121064714D01*
X134606357Y-121064714D01*
X135534928Y-121707571D02*
X135534928Y-120207571D01*
X136106357Y-120207571D01*
X136249214Y-120279000D01*
X136320642Y-120350428D01*
X136392071Y-120493285D01*
X136392071Y-120707571D01*
X136320642Y-120850428D01*
X136249214Y-120921857D01*
X136106357Y-120993285D01*
X135534928Y-120993285D01*
X136963500Y-121636142D02*
X137177785Y-121707571D01*
X137534928Y-121707571D01*
X137677785Y-121636142D01*
X137749214Y-121564714D01*
X137820642Y-121421857D01*
X137820642Y-121279000D01*
X137749214Y-121136142D01*
X137677785Y-121064714D01*
X137534928Y-120993285D01*
X137249214Y-120921857D01*
X137106357Y-120850428D01*
X137034928Y-120779000D01*
X136963500Y-120636142D01*
X136963500Y-120493285D01*
X137034928Y-120350428D01*
X137106357Y-120279000D01*
X137249214Y-120207571D01*
X137606357Y-120207571D01*
X137820642Y-120279000D01*
X139677785Y-121707571D02*
X139606357Y-121707571D01*
X139463500Y-121636142D01*
X139249214Y-121421857D01*
X138892071Y-120993285D01*
X138749214Y-120779000D01*
X138677785Y-120564714D01*
X138677785Y-120421857D01*
X138749214Y-120279000D01*
X138892071Y-120207571D01*
X138963500Y-120207571D01*
X139106357Y-120279000D01*
X139177785Y-120421857D01*
X139177785Y-120493285D01*
X139106357Y-120636142D01*
X139034928Y-120707571D01*
X138606357Y-120993285D01*
X138534928Y-121064714D01*
X138463500Y-121207571D01*
X138463500Y-121421857D01*
X138534928Y-121564714D01*
X138606357Y-121636142D01*
X138749214Y-121707571D01*
X138963500Y-121707571D01*
X139106357Y-121636142D01*
X139177785Y-121564714D01*
X139392071Y-121279000D01*
X139463500Y-121064714D01*
X139463500Y-120921857D01*
X140249214Y-121636142D02*
X140463500Y-121707571D01*
X140820642Y-121707571D01*
X140963500Y-121636142D01*
X141034928Y-121564714D01*
X141106357Y-121421857D01*
X141106357Y-121279000D01*
X141034928Y-121136142D01*
X140963500Y-121064714D01*
X140820642Y-120993285D01*
X140534928Y-120921857D01*
X140392071Y-120850428D01*
X140320642Y-120779000D01*
X140249214Y-120636142D01*
X140249214Y-120493285D01*
X140320642Y-120350428D01*
X140392071Y-120279000D01*
X140534928Y-120207571D01*
X140892071Y-120207571D01*
X141106357Y-120279000D01*
X141677785Y-121279000D02*
X142392071Y-121279000D01*
X141534928Y-121707571D02*
X142034928Y-120207571D01*
X142534928Y-121707571D01*
X143534928Y-120921857D02*
X143034928Y-120921857D01*
X143034928Y-121707571D02*
X143034928Y-120207571D01*
X143749214Y-120207571D01*
X144320642Y-120921857D02*
X144820642Y-120921857D01*
X145034928Y-121707571D02*
X144320642Y-121707571D01*
X144320642Y-120207571D01*
X145034928Y-120207571D01*
X145463500Y-120207571D02*
X146320642Y-120207571D01*
X145892071Y-121707571D02*
X145892071Y-120207571D01*
X147106357Y-120993285D02*
X147106357Y-121707571D01*
X146606357Y-120207571D02*
X147106357Y-120993285D01*
X147606357Y-120207571D01*
X146838042Y-76059000D02*
X146980900Y-76130428D01*
X147195185Y-76130428D01*
X147409471Y-76059000D01*
X147552328Y-75916142D01*
X147623757Y-75773285D01*
X147695185Y-75487571D01*
X147695185Y-75273285D01*
X147623757Y-74987571D01*
X147552328Y-74844714D01*
X147409471Y-74701857D01*
X147195185Y-74630428D01*
X147052328Y-74630428D01*
X146838042Y-74701857D01*
X146766614Y-74773285D01*
X146766614Y-75273285D01*
X147052328Y-75273285D01*
X146123757Y-74630428D02*
X146123757Y-76130428D01*
X145552328Y-76130428D01*
X145409471Y-76059000D01*
X145338042Y-75987571D01*
X145266614Y-75844714D01*
X145266614Y-75630428D01*
X145338042Y-75487571D01*
X145409471Y-75416142D01*
X145552328Y-75344714D01*
X146123757Y-75344714D01*
X144695185Y-74701857D02*
X144480900Y-74630428D01*
X144123757Y-74630428D01*
X143980900Y-74701857D01*
X143909471Y-74773285D01*
X143838042Y-74916142D01*
X143838042Y-75059000D01*
X143909471Y-75201857D01*
X143980900Y-75273285D01*
X144123757Y-75344714D01*
X144409471Y-75416142D01*
X144552328Y-75487571D01*
X144623757Y-75559000D01*
X144695185Y-75701857D01*
X144695185Y-75844714D01*
X144623757Y-75987571D01*
X144552328Y-76059000D01*
X144409471Y-76130428D01*
X144052328Y-76130428D01*
X143838042Y-76059000D01*
X142052328Y-74630428D02*
X142052328Y-76130428D01*
X141338042Y-75630428D02*
X141338042Y-74630428D01*
X141338042Y-75487571D02*
X141266614Y-75559000D01*
X141123757Y-75630428D01*
X140909471Y-75630428D01*
X140766614Y-75559000D01*
X140695185Y-75416142D01*
X140695185Y-74630428D01*
X140195185Y-75630428D02*
X139623757Y-75630428D01*
X139980900Y-76130428D02*
X139980900Y-74844714D01*
X139909471Y-74701857D01*
X139766614Y-74630428D01*
X139623757Y-74630428D01*
X138552328Y-74701857D02*
X138695185Y-74630428D01*
X138980900Y-74630428D01*
X139123757Y-74701857D01*
X139195185Y-74844714D01*
X139195185Y-75416142D01*
X139123757Y-75559000D01*
X138980900Y-75630428D01*
X138695185Y-75630428D01*
X138552328Y-75559000D01*
X138480900Y-75416142D01*
X138480900Y-75273285D01*
X139195185Y-75130428D01*
X137838042Y-74630428D02*
X137838042Y-75630428D01*
X137838042Y-75344714D02*
X137766614Y-75487571D01*
X137695185Y-75559000D01*
X137552328Y-75630428D01*
X137409471Y-75630428D01*
X137123757Y-75630428D02*
X136552328Y-75630428D01*
X136909471Y-74630428D02*
X136909471Y-75916142D01*
X136838042Y-76059000D01*
X136695185Y-76130428D01*
X136552328Y-76130428D01*
X135409471Y-74630428D02*
X135409471Y-75416142D01*
X135480900Y-75559000D01*
X135623757Y-75630428D01*
X135909471Y-75630428D01*
X136052328Y-75559000D01*
X135409471Y-74701857D02*
X135552328Y-74630428D01*
X135909471Y-74630428D01*
X136052328Y-74701857D01*
X136123757Y-74844714D01*
X136123757Y-74987571D01*
X136052328Y-75130428D01*
X135909471Y-75201857D01*
X135552328Y-75201857D01*
X135409471Y-75273285D01*
X134052328Y-74701857D02*
X134195185Y-74630428D01*
X134480900Y-74630428D01*
X134623757Y-74701857D01*
X134695185Y-74773285D01*
X134766614Y-74916142D01*
X134766614Y-75344714D01*
X134695185Y-75487571D01*
X134623757Y-75559000D01*
X134480900Y-75630428D01*
X134195185Y-75630428D01*
X134052328Y-75559000D01*
X132838042Y-74701857D02*
X132980900Y-74630428D01*
X133266614Y-74630428D01*
X133409471Y-74701857D01*
X133480900Y-74844714D01*
X133480900Y-75416142D01*
X133409471Y-75559000D01*
X133266614Y-75630428D01*
X132980900Y-75630428D01*
X132838042Y-75559000D01*
X132766614Y-75416142D01*
X132766614Y-75273285D01*
X133480900Y-75130428D01*
D11*
%TO.C,AE1*%
X146125433Y-96354466D02*
X146601623Y-96354466D01*
X146030195Y-96640180D02*
X146363528Y-95640180D01*
X146696861Y-96640180D01*
X147030195Y-96116371D02*
X147363528Y-96116371D01*
X147506385Y-96640180D02*
X147030195Y-96640180D01*
X147030195Y-95640180D01*
X147506385Y-95640180D01*
X148458766Y-96640180D02*
X147887338Y-96640180D01*
X148173052Y-96640180D02*
X148173052Y-95640180D01*
X148077814Y-95783038D01*
X147982576Y-95878276D01*
X147887338Y-95925895D01*
X165224500Y-115619000D02*
X130224500Y-115619000D01*
X130224500Y-115619000D02*
X130224500Y-80619000D01*
X130224500Y-80619000D02*
X165224500Y-80619000D01*
X165224500Y-80619000D02*
X165224500Y-115619000D01*
%TD*%
M02*
