%TF.GenerationSoftware,KiCad,Pcbnew,6.0.4-6f826c9f35~116~ubuntu20.04.1*%
%TF.CreationDate,2022-05-04T16:23:00+00:00*%
%TF.ProjectId,TFGPS01B,54464750-5330-4314-922e-6b696361645f,REV*%
%TF.SameCoordinates,Original*%
%TF.FileFunction,Legend,Bot*%
%TF.FilePolarity,Positive*%
%FSLAX46Y46*%
G04 Gerber Fmt 4.6, Leading zero omitted, Abs format (unit mm)*
G04 Created by KiCad (PCBNEW 6.0.4-6f826c9f35~116~ubuntu20.04.1) date 2022-05-04 16:23:00*
%MOMM*%
%LPD*%
G01*
G04 APERTURE LIST*
%ADD10C,0.150000*%
%ADD11C,0.015000*%
%ADD12C,0.099060*%
%ADD13C,0.120000*%
%ADD14C,0.200000*%
G04 APERTURE END LIST*
D10*
%TO.C,D1*%
X148480880Y-83640904D02*
X147480880Y-83640904D01*
X147480880Y-83879000D01*
X147528500Y-84021857D01*
X147623738Y-84117095D01*
X147718976Y-84164714D01*
X147909452Y-84212333D01*
X148052309Y-84212333D01*
X148242785Y-84164714D01*
X148338023Y-84117095D01*
X148433261Y-84021857D01*
X148480880Y-83879000D01*
X148480880Y-83640904D01*
X148480880Y-85164714D02*
X148480880Y-84593285D01*
X148480880Y-84879000D02*
X147480880Y-84879000D01*
X147623738Y-84783761D01*
X147718976Y-84688523D01*
X147766595Y-84593285D01*
%TO.C,U2*%
X138554404Y-92795380D02*
X138554404Y-93604904D01*
X138506785Y-93700142D01*
X138459166Y-93747761D01*
X138363928Y-93795380D01*
X138173452Y-93795380D01*
X138078214Y-93747761D01*
X138030595Y-93700142D01*
X137982976Y-93604904D01*
X137982976Y-92795380D01*
X137554404Y-92890619D02*
X137506785Y-92843000D01*
X137411547Y-92795380D01*
X137173452Y-92795380D01*
X137078214Y-92843000D01*
X137030595Y-92890619D01*
X136982976Y-92985857D01*
X136982976Y-93081095D01*
X137030595Y-93223952D01*
X137602023Y-93795380D01*
X136982976Y-93795380D01*
D11*
%TO.C,J2*%
X130894880Y-87675666D02*
X131609166Y-87675666D01*
X131752023Y-87628047D01*
X131847261Y-87532809D01*
X131894880Y-87389952D01*
X131894880Y-87294714D01*
X130990119Y-88104238D02*
X130942500Y-88151857D01*
X130894880Y-88247095D01*
X130894880Y-88485190D01*
X130942500Y-88580428D01*
X130990119Y-88628047D01*
X131085357Y-88675666D01*
X131180595Y-88675666D01*
X131323452Y-88628047D01*
X131894880Y-88056619D01*
X131894880Y-88675666D01*
D10*
%TO.C,U4*%
X154020435Y-107043052D02*
X154829959Y-107043052D01*
X154925197Y-107090671D01*
X154972816Y-107138290D01*
X155020435Y-107233528D01*
X155020435Y-107424004D01*
X154972816Y-107519242D01*
X154925197Y-107566861D01*
X154829959Y-107614480D01*
X154020435Y-107614480D01*
X154353769Y-108519242D02*
X155020435Y-108519242D01*
X153972816Y-108281147D02*
X154687102Y-108043052D01*
X154687102Y-108662099D01*
D12*
%TO.C,D6*%
X170478498Y-97388796D02*
X170240221Y-97388796D01*
X170526153Y-97531762D02*
X170359360Y-97031382D01*
X170192566Y-97531762D01*
D10*
%TO.C,J5*%
X140411833Y-79677380D02*
X140411833Y-80391666D01*
X140459452Y-80534523D01*
X140554690Y-80629761D01*
X140697547Y-80677380D01*
X140792785Y-80677380D01*
X139459452Y-79677380D02*
X139935642Y-79677380D01*
X139983261Y-80153571D01*
X139935642Y-80105952D01*
X139840404Y-80058333D01*
X139602309Y-80058333D01*
X139507071Y-80105952D01*
X139459452Y-80153571D01*
X139411833Y-80248809D01*
X139411833Y-80486904D01*
X139459452Y-80582142D01*
X139507071Y-80629761D01*
X139602309Y-80677380D01*
X139840404Y-80677380D01*
X139935642Y-80629761D01*
X139983261Y-80582142D01*
D12*
%TO.C,D5*%
X170478498Y-93959796D02*
X170240221Y-93959796D01*
X170526153Y-94102762D02*
X170359360Y-93602382D01*
X170192566Y-94102762D01*
%TO.C,D4*%
X170478498Y-90530796D02*
X170240221Y-90530796D01*
X170526153Y-90673762D02*
X170359360Y-90173382D01*
X170192566Y-90673762D01*
D10*
%TO.C,D2*%
X152246595Y-115639380D02*
X152246595Y-114639380D01*
X152008500Y-114639380D01*
X151865642Y-114687000D01*
X151770404Y-114782238D01*
X151722785Y-114877476D01*
X151675166Y-115067952D01*
X151675166Y-115210809D01*
X151722785Y-115401285D01*
X151770404Y-115496523D01*
X151865642Y-115591761D01*
X152008500Y-115639380D01*
X152246595Y-115639380D01*
X151294214Y-114734619D02*
X151246595Y-114687000D01*
X151151357Y-114639380D01*
X150913261Y-114639380D01*
X150818023Y-114687000D01*
X150770404Y-114734619D01*
X150722785Y-114829857D01*
X150722785Y-114925095D01*
X150770404Y-115067952D01*
X151341833Y-115639380D01*
X150722785Y-115639380D01*
%TO.C,J4*%
X158911833Y-115612380D02*
X158911833Y-116326666D01*
X158959452Y-116469523D01*
X159054690Y-116564761D01*
X159197547Y-116612380D01*
X159292785Y-116612380D01*
X158007071Y-115945714D02*
X158007071Y-116612380D01*
X158245166Y-115564761D02*
X158483261Y-116279047D01*
X157864214Y-116279047D01*
D12*
%TO.C,D7*%
X170478498Y-87054796D02*
X170240221Y-87054796D01*
X170526153Y-87197762D02*
X170359360Y-86697382D01*
X170192566Y-87197762D01*
D10*
%TO.C,L1*%
X136689166Y-84651380D02*
X137165357Y-84651380D01*
X137165357Y-83651380D01*
X135832023Y-84651380D02*
X136403452Y-84651380D01*
X136117738Y-84651380D02*
X136117738Y-83651380D01*
X136212976Y-83794238D01*
X136308214Y-83889476D01*
X136403452Y-83937095D01*
%TO.C,U3*%
X137030404Y-95288880D02*
X137030404Y-96098404D01*
X136982785Y-96193642D01*
X136935166Y-96241261D01*
X136839928Y-96288880D01*
X136649452Y-96288880D01*
X136554214Y-96241261D01*
X136506595Y-96193642D01*
X136458976Y-96098404D01*
X136458976Y-95288880D01*
X136078023Y-95288880D02*
X135458976Y-95288880D01*
X135792309Y-95669833D01*
X135649452Y-95669833D01*
X135554214Y-95717452D01*
X135506595Y-95765071D01*
X135458976Y-95860309D01*
X135458976Y-96098404D01*
X135506595Y-96193642D01*
X135554214Y-96241261D01*
X135649452Y-96288880D01*
X135935166Y-96288880D01*
X136030404Y-96241261D01*
X136078023Y-96193642D01*
%TO.C,J3*%
X156286833Y-79677380D02*
X156286833Y-80391666D01*
X156334452Y-80534523D01*
X156429690Y-80629761D01*
X156572547Y-80677380D01*
X156667785Y-80677380D01*
X155905880Y-79677380D02*
X155286833Y-79677380D01*
X155620166Y-80058333D01*
X155477309Y-80058333D01*
X155382071Y-80105952D01*
X155334452Y-80153571D01*
X155286833Y-80248809D01*
X155286833Y-80486904D01*
X155334452Y-80582142D01*
X155382071Y-80629761D01*
X155477309Y-80677380D01*
X155763023Y-80677380D01*
X155858261Y-80629761D01*
X155905880Y-80582142D01*
%TO.C,C1*%
X155367166Y-95428142D02*
X155414785Y-95475761D01*
X155557642Y-95523380D01*
X155652880Y-95523380D01*
X155795738Y-95475761D01*
X155890976Y-95380523D01*
X155938595Y-95285285D01*
X155986214Y-95094809D01*
X155986214Y-94951952D01*
X155938595Y-94761476D01*
X155890976Y-94666238D01*
X155795738Y-94571000D01*
X155652880Y-94523380D01*
X155557642Y-94523380D01*
X155414785Y-94571000D01*
X155367166Y-94618619D01*
X154414785Y-95523380D02*
X154986214Y-95523380D01*
X154700500Y-95523380D02*
X154700500Y-94523380D01*
X154795738Y-94666238D01*
X154890976Y-94761476D01*
X154986214Y-94809095D01*
D12*
%TO.C,D3*%
X124521778Y-93527996D02*
X124283501Y-93527996D01*
X124569433Y-93670962D02*
X124402640Y-93170582D01*
X124235846Y-93670962D01*
D10*
%TO.C,FL1*%
X147020174Y-115109432D02*
X147353507Y-115109432D01*
X147353507Y-115633241D02*
X147353507Y-114633241D01*
X146877317Y-114633241D01*
X146020174Y-115633241D02*
X146496364Y-115633241D01*
X146496364Y-114633241D01*
X145163031Y-115633241D02*
X145734459Y-115633241D01*
X145448745Y-115633241D02*
X145448745Y-114633241D01*
X145543983Y-114776099D01*
X145639221Y-114871337D01*
X145734459Y-114918956D01*
%TO.C,U1*%
X144142404Y-84413380D02*
X144142404Y-85222904D01*
X144094785Y-85318142D01*
X144047166Y-85365761D01*
X143951928Y-85413380D01*
X143761452Y-85413380D01*
X143666214Y-85365761D01*
X143618595Y-85318142D01*
X143570976Y-85222904D01*
X143570976Y-84413380D01*
X142570976Y-85413380D02*
X143142404Y-85413380D01*
X142856690Y-85413380D02*
X142856690Y-84413380D01*
X142951928Y-84556238D01*
X143047166Y-84651476D01*
X143142404Y-84699095D01*
%TO.C,J1*%
X141173833Y-115565380D02*
X141173833Y-116279666D01*
X141221452Y-116422523D01*
X141316690Y-116517761D01*
X141459547Y-116565380D01*
X141554785Y-116565380D01*
X140173833Y-116565380D02*
X140745261Y-116565380D01*
X140459547Y-116565380D02*
X140459547Y-115565380D01*
X140554785Y-115708238D01*
X140650023Y-115803476D01*
X140745261Y-115851095D01*
%TO.C,BZ1*%
X162409871Y-111969247D02*
X162457490Y-112112104D01*
X162505109Y-112159723D01*
X162600347Y-112207342D01*
X162743204Y-112207342D01*
X162838442Y-112159723D01*
X162886061Y-112112104D01*
X162933680Y-112016866D01*
X162933680Y-111635914D01*
X161933680Y-111635914D01*
X161933680Y-111969247D01*
X161981300Y-112064485D01*
X162028919Y-112112104D01*
X162124157Y-112159723D01*
X162219395Y-112159723D01*
X162314633Y-112112104D01*
X162362252Y-112064485D01*
X162409871Y-111969247D01*
X162409871Y-111635914D01*
X161933680Y-112540676D02*
X161933680Y-113207342D01*
X162933680Y-112540676D01*
X162933680Y-113207342D01*
X162933680Y-114112104D02*
X162933680Y-113540676D01*
X162933680Y-113826390D02*
X161933680Y-113826390D01*
X162076538Y-113731152D01*
X162171776Y-113635914D01*
X162219395Y-113540676D01*
X170745928Y-110994047D02*
X170745928Y-111755952D01*
X171126880Y-111375000D02*
X170364976Y-111375000D01*
D13*
%TO.C,D1*%
X149079500Y-86777000D02*
X147079500Y-86777000D01*
X149079500Y-82477000D02*
X149079500Y-86777000D01*
X147079500Y-86777000D02*
X147079500Y-82477000D01*
D10*
%TO.C,R21*%
X165542000Y-96518000D02*
X165542000Y-94994000D01*
D13*
X164399000Y-96518000D02*
X163637000Y-96518000D01*
D10*
X162494000Y-94994000D02*
X162494000Y-96518000D01*
D13*
X164399000Y-94994000D02*
X163637000Y-94994000D01*
%TO.C,U2*%
X136892500Y-89005000D02*
X139342500Y-89005000D01*
X138692500Y-92225000D02*
X136892500Y-92225000D01*
D14*
%TO.C,J2*%
X127488500Y-92799000D02*
X126238500Y-92799000D01*
X122238500Y-83219000D02*
X123518500Y-83219000D01*
X127488500Y-83219000D02*
X126238500Y-83219000D01*
X122238500Y-92799000D02*
X122238500Y-83219000D01*
X123518500Y-92799000D02*
X122238500Y-92799000D01*
D10*
%TO.C,R15*%
X147444500Y-95692500D02*
X148968500Y-95692500D01*
D13*
X147444500Y-94549500D02*
X147444500Y-93787500D01*
D10*
X148968500Y-92644500D02*
X147444500Y-92644500D01*
D13*
X148968500Y-94549500D02*
X148968500Y-93787500D01*
%TO.C,U4*%
X155408055Y-108504957D02*
X155408055Y-106604957D01*
X157728055Y-107104957D02*
X157728055Y-108504957D01*
%TO.C,Q1*%
X165534500Y-86864000D02*
X165534500Y-85404000D01*
X162374500Y-86864000D02*
X162374500Y-84704000D01*
X165534500Y-86864000D02*
X164604500Y-86864000D01*
X162374500Y-86864000D02*
X163304500Y-86864000D01*
%TO.C,R11*%
X126553000Y-107567000D02*
X125791000Y-107567000D01*
X126553000Y-109091000D02*
X125791000Y-109091000D01*
D10*
X127696000Y-109091000D02*
X127696000Y-107567000D01*
X124648000Y-107567000D02*
X124648000Y-109091000D01*
D13*
%TO.C,R7*%
X145031500Y-100772500D02*
X145031500Y-100010500D01*
X146555500Y-100772500D02*
X146555500Y-100010500D01*
D10*
X146555500Y-98867500D02*
X145031500Y-98867500D01*
X145031500Y-101915500D02*
X146555500Y-101915500D01*
%TO.C,C15*%
X161732000Y-97026000D02*
X161732000Y-98550000D01*
D13*
X162875000Y-98550000D02*
X163637000Y-98550000D01*
X162875000Y-97026000D02*
X163637000Y-97026000D01*
D10*
X164780000Y-98550000D02*
X164780000Y-97026000D01*
D13*
%TO.C,R27*%
X153749394Y-104696598D02*
X152987394Y-104696598D01*
X153749394Y-106220598D02*
X152987394Y-106220598D01*
D10*
X151844394Y-104696598D02*
X151844394Y-106220598D01*
X154892394Y-106220598D02*
X154892394Y-104696598D01*
D13*
%TO.C,J5*%
X146813500Y-78035000D02*
X145013500Y-78035000D01*
X135143500Y-78035000D02*
X135143500Y-79025000D01*
X146813500Y-76585000D02*
X146813500Y-78035000D01*
X133343500Y-76585000D02*
X133343500Y-78035000D01*
X134613500Y-73765000D02*
X145543500Y-73765000D01*
X133343500Y-78035000D02*
X135143500Y-78035000D01*
D10*
%TO.C,R13*%
X153858000Y-81151000D02*
X153858000Y-82675000D01*
X156906000Y-82675000D02*
X156906000Y-81151000D01*
D13*
X155001000Y-82675000D02*
X155763000Y-82675000D01*
X155001000Y-81151000D02*
X155763000Y-81151000D01*
D10*
%TO.C,C7*%
X146555500Y-104365000D02*
X145031500Y-104365000D01*
D13*
X146555500Y-105508000D02*
X146555500Y-106270000D01*
X145031500Y-105508000D02*
X145031500Y-106270000D01*
D10*
X145031500Y-107413000D02*
X146555500Y-107413000D01*
D13*
%TO.C,D9*%
X132550500Y-80070000D02*
X132550500Y-81920000D01*
X132550500Y-81920000D02*
X131350500Y-81920000D01*
X131350500Y-80070000D02*
X131350500Y-81920000D01*
%TO.C,C3*%
X141856500Y-86929500D02*
X141856500Y-87691500D01*
D10*
X141856500Y-85786500D02*
X140332500Y-85786500D01*
X140332500Y-88834500D02*
X141856500Y-88834500D01*
D13*
X140332500Y-86929500D02*
X140332500Y-87691500D01*
D10*
%TO.C,C5*%
X144206000Y-93851000D02*
X144206000Y-92327000D01*
D13*
X143063000Y-93851000D02*
X142301000Y-93851000D01*
X143063000Y-92327000D02*
X142301000Y-92327000D01*
D10*
X141158000Y-92327000D02*
X141158000Y-93851000D01*
D13*
%TO.C,R6*%
X141856500Y-82992500D02*
X141856500Y-82230500D01*
D10*
X140332500Y-84135500D02*
X141856500Y-84135500D01*
X141856500Y-81087500D02*
X140332500Y-81087500D01*
D13*
X140332500Y-82992500D02*
X140332500Y-82230500D01*
%TO.C,D2*%
X153285500Y-115883000D02*
X153285500Y-121283000D01*
X149985500Y-115883000D02*
X153285500Y-115883000D01*
X149985500Y-115883000D02*
X149985500Y-121283000D01*
%TO.C,C4*%
X144333000Y-89914000D02*
X143571000Y-89914000D01*
D10*
X142428000Y-89914000D02*
X142428000Y-91438000D01*
X145476000Y-91438000D02*
X145476000Y-89914000D01*
D13*
X144333000Y-91438000D02*
X143571000Y-91438000D01*
D10*
%TO.C,R20*%
X165542000Y-93089000D02*
X165542000Y-91565000D01*
X162494000Y-91565000D02*
X162494000Y-93089000D01*
D13*
X164399000Y-93089000D02*
X163637000Y-93089000D01*
X164399000Y-91565000D02*
X163637000Y-91565000D01*
%TO.C,R24*%
X159255500Y-99629500D02*
X159255500Y-100391500D01*
D10*
X160779500Y-98486500D02*
X159255500Y-98486500D01*
D13*
X160779500Y-99629500D02*
X160779500Y-100391500D01*
D10*
X159255500Y-101534500D02*
X160779500Y-101534500D01*
D13*
%TO.C,R22*%
X163319500Y-78420500D02*
X163319500Y-79182500D01*
D10*
X163319500Y-77277500D02*
X161795500Y-77277500D01*
X161795500Y-80325500D02*
X163319500Y-80325500D01*
D13*
X161795500Y-78420500D02*
X161795500Y-79182500D01*
%TO.C,J4*%
X154343500Y-119800000D02*
X154343500Y-118350000D01*
X162813500Y-119800000D02*
X162813500Y-118350000D01*
X161543500Y-122620000D02*
X155613500Y-122620000D01*
X161013500Y-118350000D02*
X161013500Y-117360000D01*
X154343500Y-118350000D02*
X156143500Y-118350000D01*
X162813500Y-118350000D02*
X161013500Y-118350000D01*
D10*
%TO.C,R3*%
X134236500Y-84008500D02*
X132712500Y-84008500D01*
D13*
X132712500Y-85913500D02*
X132712500Y-85151500D01*
D10*
X132712500Y-87056500D02*
X134236500Y-87056500D01*
D13*
X134236500Y-85913500D02*
X134236500Y-85151500D01*
%TO.C,R18*%
X142618500Y-82357500D02*
X142618500Y-81595500D01*
D10*
X144142500Y-80452500D02*
X142618500Y-80452500D01*
X142618500Y-83500500D02*
X144142500Y-83500500D01*
D13*
X144142500Y-82357500D02*
X144142500Y-81595500D01*
%TO.C,D10*%
X131096500Y-82541000D02*
X132296500Y-82541000D01*
X132296500Y-84391000D02*
X132296500Y-82541000D01*
X131096500Y-84391000D02*
X131096500Y-82541000D01*
%TO.C,C6*%
X125918000Y-97280000D02*
X125156000Y-97280000D01*
D10*
X127061000Y-98804000D02*
X127061000Y-97280000D01*
D13*
X125918000Y-98804000D02*
X125156000Y-98804000D01*
D10*
X124013000Y-97280000D02*
X124013000Y-98804000D01*
D13*
%TO.C,D8*%
X165507500Y-98297000D02*
X170907500Y-98297000D01*
X165507500Y-101597000D02*
X170907500Y-101597000D01*
X165507500Y-101597000D02*
X165507500Y-98297000D01*
D10*
%TO.C,R17*%
X133220500Y-82929000D02*
X134744500Y-82929000D01*
D13*
X133220500Y-81786000D02*
X133220500Y-81024000D01*
D10*
X134744500Y-79881000D02*
X133220500Y-79881000D01*
D13*
X134744500Y-81786000D02*
X134744500Y-81024000D01*
%TO.C,R28*%
X158747500Y-81151000D02*
X158747500Y-81913000D01*
X160271500Y-81151000D02*
X160271500Y-81913000D01*
D10*
X160271500Y-80008000D02*
X158747500Y-80008000D01*
X158747500Y-83056000D02*
X160271500Y-83056000D01*
%TO.C,R12*%
X127696000Y-107059000D02*
X127696000Y-105535000D01*
D13*
X126553000Y-105535000D02*
X125791000Y-105535000D01*
D10*
X124648000Y-105535000D02*
X124648000Y-107059000D01*
D13*
X126553000Y-107059000D02*
X125791000Y-107059000D01*
%TO.C,L1*%
X136806436Y-85252000D02*
X138010564Y-85252000D01*
X136806436Y-87972000D02*
X138010564Y-87972000D01*
%TO.C,C11*%
X152854176Y-111474098D02*
X153616176Y-111474098D01*
X152854176Y-109950098D02*
X153616176Y-109950098D01*
D10*
X154759176Y-111474098D02*
X154759176Y-109950098D01*
X151711176Y-109950098D02*
X151711176Y-111474098D01*
D13*
%TO.C,R19*%
X164272000Y-89660000D02*
X163510000Y-89660000D01*
D10*
X165415000Y-89660000D02*
X165415000Y-88136000D01*
D13*
X164272000Y-88136000D02*
X163510000Y-88136000D01*
D10*
X162367000Y-88136000D02*
X162367000Y-89660000D01*
%TO.C,C13*%
X154867508Y-101682511D02*
X155945139Y-102760142D01*
D13*
X156214546Y-100335473D02*
X155675731Y-100874288D01*
X157292177Y-101413104D02*
X156753362Y-101951919D01*
D10*
X158100400Y-100604881D02*
X157022769Y-99527250D01*
%TO.C,L2*%
X157999648Y-102569966D02*
X156475648Y-102569966D01*
D13*
X156475648Y-104474966D02*
X156475648Y-103712966D01*
D10*
X156475648Y-105617966D02*
X157999648Y-105617966D01*
D13*
X157999648Y-104474966D02*
X157999648Y-103712966D01*
%TO.C,U3*%
X142478500Y-112946500D02*
X130058500Y-112946500D01*
X130058500Y-105096500D02*
X130058500Y-106776500D01*
X142478500Y-96726500D02*
X142478500Y-97176500D01*
X130058500Y-96726500D02*
X130058500Y-97176500D01*
X143168500Y-97176500D02*
X142478500Y-97176500D01*
X142478500Y-112496500D02*
X142478500Y-112946500D01*
X142478500Y-96726500D02*
X130058500Y-96726500D01*
X142478500Y-105096500D02*
X142478500Y-106776500D01*
X130058500Y-112496500D02*
X130058500Y-112936500D01*
D10*
%TO.C,C8*%
X148566693Y-108147592D02*
X150090693Y-108147592D01*
D13*
X150090693Y-107004592D02*
X150090693Y-106242592D01*
D10*
X150090693Y-105099592D02*
X148566693Y-105099592D01*
D13*
X148566693Y-107004592D02*
X148566693Y-106242592D01*
%TO.C,R10*%
X126553000Y-102995000D02*
X125791000Y-102995000D01*
D10*
X124648000Y-101471000D02*
X124648000Y-102995000D01*
X127696000Y-102995000D02*
X127696000Y-101471000D01*
D13*
X126553000Y-101471000D02*
X125791000Y-101471000D01*
%TO.C,R23*%
X152634309Y-108342402D02*
X151872309Y-108342402D01*
D10*
X153777309Y-108342402D02*
X153777309Y-106818402D01*
X150729309Y-106818402D02*
X150729309Y-108342402D01*
D13*
X152634309Y-106818402D02*
X151872309Y-106818402D01*
%TO.C,R25*%
X151508500Y-81849500D02*
X151508500Y-81087500D01*
D10*
X149984500Y-82992500D02*
X151508500Y-82992500D01*
X151508500Y-79944500D02*
X149984500Y-79944500D01*
D13*
X149984500Y-81849500D02*
X149984500Y-81087500D01*
D10*
%TO.C,C10*%
X158620500Y-112342200D02*
X160144500Y-112342200D01*
D13*
X160144500Y-110437200D02*
X160144500Y-111199200D01*
X158620500Y-110437200D02*
X158620500Y-111199200D01*
D10*
X160144500Y-109294200D02*
X158620500Y-109294200D01*
%TO.C,R5*%
X138300500Y-84516500D02*
X139824500Y-84516500D01*
X139824500Y-81468500D02*
X138300500Y-81468500D01*
D13*
X139824500Y-83373500D02*
X139824500Y-82611500D01*
X138300500Y-83373500D02*
X138300500Y-82611500D01*
%TO.C,J3*%
X151738500Y-73765000D02*
X160168500Y-73765000D01*
X161438500Y-78035000D02*
X159638500Y-78035000D01*
X161438500Y-76585000D02*
X161438500Y-78035000D01*
X150468500Y-78035000D02*
X152268500Y-78035000D01*
X150468500Y-76585000D02*
X150468500Y-78035000D01*
X152268500Y-78035000D02*
X152268500Y-79025000D01*
D10*
%TO.C,R16*%
X124648000Y-109599000D02*
X124648000Y-111123000D01*
D13*
X126553000Y-109599000D02*
X125791000Y-109599000D01*
X126553000Y-111123000D02*
X125791000Y-111123000D01*
D10*
X127696000Y-111123000D02*
X127696000Y-109599000D01*
D13*
%TO.C,R8*%
X147190500Y-100772500D02*
X147190500Y-100010500D01*
X148714500Y-100772500D02*
X148714500Y-100010500D01*
D10*
X147190500Y-101915500D02*
X148714500Y-101915500D01*
X148714500Y-98867500D02*
X147190500Y-98867500D01*
D13*
%TO.C,C1*%
X160560500Y-94131000D02*
X160560500Y-90281000D01*
X150904937Y-83411000D02*
X160560500Y-83411000D01*
X148975500Y-92156000D02*
X148975500Y-90906000D01*
X160560500Y-83411000D02*
X160560500Y-87261000D01*
X148350500Y-91531000D02*
X149600500Y-91531000D01*
X149840500Y-84475437D02*
X149840500Y-87261000D01*
X149840500Y-93066563D02*
X149840500Y-90281000D01*
X150904937Y-94131000D02*
X160560500Y-94131000D01*
X149840500Y-84475437D02*
X150904937Y-83411000D01*
X149840500Y-93066563D02*
X150904937Y-94131000D01*
%TO.C,R1*%
X146555500Y-82992500D02*
X146555500Y-83754500D01*
D10*
X145031500Y-84897500D02*
X146555500Y-84897500D01*
X146555500Y-81849500D02*
X145031500Y-81849500D01*
D13*
X145031500Y-82992500D02*
X145031500Y-83754500D01*
%TO.C,Q2*%
X163698500Y-100272000D02*
X163698500Y-101202000D01*
X163698500Y-103432000D02*
X161538500Y-103432000D01*
X163698500Y-103432000D02*
X163698500Y-102502000D01*
X163698500Y-100272000D02*
X162238500Y-100272000D01*
%TO.C,R4*%
X130744000Y-94232000D02*
X131506000Y-94232000D01*
X130744000Y-95756000D02*
X131506000Y-95756000D01*
D10*
X129601000Y-94232000D02*
X129601000Y-95756000D01*
X132649000Y-95756000D02*
X132649000Y-94232000D01*
%TO.C,C14*%
X154474777Y-101730986D02*
X155552408Y-100653355D01*
D13*
X153666554Y-100922763D02*
X153127739Y-100383948D01*
D10*
X153397147Y-98498094D02*
X152319516Y-99575725D01*
D13*
X154744185Y-99845132D02*
X154205370Y-99306317D01*
D10*
%TO.C,C2*%
X127696000Y-100963000D02*
X127696000Y-99439000D01*
D13*
X126553000Y-100963000D02*
X125791000Y-100963000D01*
D10*
X124648000Y-99439000D02*
X124648000Y-100963000D01*
D13*
X126553000Y-99439000D02*
X125791000Y-99439000D01*
D10*
%TO.C,FL1*%
X150492079Y-109185361D02*
X150492079Y-110150361D01*
X150492079Y-109185361D02*
X144692079Y-109185361D01*
X144692079Y-109185361D02*
X144692079Y-110150361D01*
X150492079Y-114285361D02*
X144692079Y-114285361D01*
X151200684Y-109515361D02*
G75*
G03*
X151200684Y-109515361I-179605J0D01*
G01*
D13*
%TO.C,U1*%
X143453500Y-85825000D02*
X145253500Y-85825000D01*
X145253500Y-89045000D02*
X142803500Y-89045000D01*
%TO.C,J1*%
X147025500Y-118303000D02*
X147025500Y-117313000D01*
X147555500Y-122573000D02*
X134125500Y-122573000D01*
X132855500Y-118303000D02*
X134655500Y-118303000D01*
X148825500Y-119753000D02*
X148825500Y-118303000D01*
X132855500Y-119753000D02*
X132855500Y-118303000D01*
X148825500Y-118303000D02*
X147025500Y-118303000D01*
D10*
%TO.C,C12*%
X151825945Y-102524824D02*
X151825945Y-104048824D01*
D13*
X153730945Y-102524824D02*
X152968945Y-102524824D01*
D10*
X154873945Y-104048824D02*
X154873945Y-102524824D01*
D13*
X153730945Y-104048824D02*
X152968945Y-104048824D01*
%TO.C,R14*%
X146682500Y-94422500D02*
X146682500Y-93660500D01*
D10*
X145158500Y-95565500D02*
X146682500Y-95565500D01*
X146682500Y-92517500D02*
X145158500Y-92517500D01*
D13*
X145158500Y-94422500D02*
X145158500Y-93660500D01*
D10*
%TO.C,R2*%
X133792001Y-90485499D02*
X132268001Y-90485499D01*
X132268001Y-93533499D02*
X133792001Y-93533499D01*
D13*
X133792001Y-91628499D02*
X133792001Y-92390499D01*
X132268001Y-91628499D02*
X132268001Y-92390499D01*
D10*
%TO.C,C9*%
X161259510Y-108885392D02*
X161259510Y-107361392D01*
X158211510Y-107361392D02*
X158211510Y-108885392D01*
D13*
X159354510Y-108885392D02*
X160116510Y-108885392D01*
X159354510Y-107361392D02*
X160116510Y-107361392D01*
%TO.C,R9*%
X126553000Y-105027000D02*
X125791000Y-105027000D01*
D10*
X127696000Y-105027000D02*
X127696000Y-103503000D01*
D13*
X126553000Y-103503000D02*
X125791000Y-103503000D01*
D10*
X124648000Y-103503000D02*
X124648000Y-105027000D01*
D13*
%TO.C,BZ1*%
X171114500Y-108075000D02*
G75*
G03*
X171114500Y-108075000I-4620000J0D01*
G01*
%TO.C,Q3*%
X161104500Y-81788000D02*
X161104500Y-83248000D01*
X164264500Y-81788000D02*
X164264500Y-83948000D01*
X161104500Y-81788000D02*
X162034500Y-81788000D01*
X164264500Y-81788000D02*
X163334500Y-81788000D01*
%TO.C,R26*%
X157018384Y-109942797D02*
X156256384Y-109942797D01*
D10*
X155113384Y-109942797D02*
X155113384Y-111466797D01*
D13*
X157018384Y-111466797D02*
X156256384Y-111466797D01*
D10*
X158161384Y-111466797D02*
X158161384Y-109942797D01*
%TD*%
M02*
