M48
; DRILL file {KiCad 6.0.4-6f826c9f35~116~ubuntu20.04.1} date Wed May  4 16:23:00 2022
; FORMAT={-:-/ absolute / metric / decimal}
; #@! TF.CreationDate,2022-05-04T16:23:00+00:00
; #@! TF.GenerationSoftware,Kicad,Pcbnew,6.0.4-6f826c9f35~116~ubuntu20.04.1
; #@! TF.FileFunction,Plated,1,4,PTH
FMAT,2
METRIC
; #@! TA.AperFunction,Plated,PTH,ViaDrill
T1C0.200
; #@! TA.AperFunction,Plated,PTH,ViaDrill
T2C0.300
; #@! TA.AperFunction,Plated,PTH,ViaDrill
T3C0.400
; #@! TA.AperFunction,Plated,PTH,ComponentDrill
T4C0.600
; #@! TA.AperFunction,Plated,PTH,ComponentDrill
T5C3.000
%
G90
G05
T1
X156.637Y-110.705
X161.796Y-86.358
X165.987Y-83.945
X167.129Y-83.945
T2
X132.204Y-78.992
X143.888Y-109.345
X145.26Y-109.04
X146.378Y-109.142
X147.089Y-109.853
X147.089Y-111.123
X148.105Y-109.802
X148.156Y-111.123
X148.867Y-109.091
X152.169Y-112.139
X153.083Y-112.139
X154.031Y-112.139
X154.98Y-112.139
X155.166Y-109.396
X155.776Y-105.535
X155.928Y-112.139
X156.487Y-106.094
X156.599Y-109.65
X156.876Y-112.139
X157.825Y-112.139
X161.224Y-78.928
X171.913Y-88.601
T3
X123.95Y-108.329
X123.975Y-102.233
X124.026Y-104.265
X124.076Y-106.297
X124.076Y-110.361
X126.108Y-85.469
X126.108Y-86.739
X126.108Y-88.009
X126.108Y-89.279
X126.108Y-90.549
X128.267Y-109.218
X128.394Y-110.615
X128.648Y-100.074
X131.175Y-90.409
X131.189Y-118.489
X131.189Y-119.759
X131.189Y-121.029
X131.189Y-122.299
X131.696Y-85.469
X131.823Y-74.039
X131.823Y-75.309
X132.458Y-107.059
X132.458Y-114.044
X132.458Y-115.314
X132.698Y-83.219
X133.728Y-110.869
X133.728Y-112.139
X133.728Y-114.044
X133.728Y-115.314
X133.856Y-94.486
X133.894Y-82.914
X133.982Y-79.119
X134.363Y-103.249
X134.939Y-86.159
X135.317Y-90.422
X135.633Y-80.389
X135.633Y-110.869
X135.633Y-112.139
X136.395Y-116.457
X136.925Y-114.726
X136.929Y-113.409
X137.03Y-80.389
X137.538Y-100.074
X137.623Y-116.626
X138.554Y-80.389
X138.681Y-94.486
X138.72Y-108.356
X138.808Y-98.804
X138.808Y-101.979
X139.062Y-82.789
X139.57Y-109.345
X140.078Y-100.074
X140.522Y-107.323
X140.658Y-90.09
X140.658Y-91.14
X141.094Y-82.421
X141.475Y-116.457
X141.953Y-80.105
X141.983Y-94.994
X143.046Y-95.201
X143.38Y-82.167
X143.938Y-116.467
X144.041Y-107.516
X145.412Y-116.457
X146.047Y-91.819
X146.356Y-98.478
X146.428Y-77.849
X146.428Y-79.119
X146.816Y-91.179
X146.936Y-80.643
X146.936Y-88.263
X146.987Y-112.495
X147.19Y-104.773
X147.445Y-98.296
X147.546Y-107.008
X148.156Y-112.444
X148.969Y-77.849
X149.375Y-104.265
X149.476Y-118.743
X149.68Y-98.271
X149.731Y-101.369
X149.781Y-97.102
X149.984Y-99.388
X149.984Y-108.837
X150.442Y-96.289
X150.604Y-90.556
X150.746Y-103.147
X150.848Y-100.15
X150.848Y-102.081
X150.848Y-104.367
X150.874Y-79.119
X150.874Y-83.564
X150.874Y-84.834
X150.874Y-86.104
X151.0Y-105.84
X151.153Y-108.989
X151.356Y-95.832
X151.559Y-101.369
X151.762Y-118.997
X151.966Y-100.404
X152.143Y-84.834
X152.143Y-86.104
X152.27Y-109.243
X152.372Y-103.351
X152.423Y-95.832
X152.423Y-105.484
X152.778Y-80.008
X152.778Y-101.115
X153.159Y-82.675
X153.312Y-109.243
X153.413Y-84.834
X153.413Y-86.104
X153.439Y-96.188
X153.54Y-101.827
X153.998Y-97.102
X154.048Y-80.516
X154.048Y-116.584
X154.302Y-98.169
X154.353Y-109.243
X155.014Y-98.88
X155.319Y-83.564
X155.623Y-96.391
X155.623Y-103.401
X155.674Y-104.519
X155.725Y-99.591
X156.588Y-79.666
X157.655Y-101.928
X157.858Y-75.563
X157.858Y-84.834
X157.858Y-86.104
X157.858Y-116.457
X157.909Y-95.731
X158.112Y-99.439
X158.163Y-106.754
X158.63Y-80.506
X158.722Y-102.69
X158.722Y-103.757
X158.722Y-104.875
X158.798Y-90.727
X158.824Y-105.992
X159.129Y-84.834
X159.129Y-86.104
X159.636Y-94.105
X159.687Y-95.527
X159.891Y-102.36
X160.329Y-114.877
X160.5Y-105.789
X160.653Y-103.249
X160.906Y-97.407
X162.723Y-104.28
X162.939Y-75.309
X162.939Y-118.489
X163.573Y-105.154
X163.573Y-117.219
X164.208Y-75.309
X164.208Y-107.059
X168.526Y-109.599
X171.828Y-109.599
T5
X127.678Y-78.149
X127.678Y-118.189
X167.719Y-78.149
X167.719Y-118.189
T4
G00X124.438Y-83.689
M15
G01X125.238Y-83.689
M16
G05
G00X124.438Y-92.329
M15
G01X125.238Y-92.329
M16
G05
G00X128.469Y-83.689
M15
G01X129.569Y-83.689
M16
G05
G00X128.469Y-92.329
M15
G01X129.569Y-92.329
M16
G05
T0
M30
