G04 #@! TF.GenerationSoftware,KiCad,Pcbnew,5.99.0-unknown-d90d73416~104~ubuntu18.04.1*
G04 #@! TF.CreationDate,2020-10-29T17:21:16+01:00*
G04 #@! TF.ProjectId,TFGPS01A,54464750-5330-4314-912e-6b696361645f,REV*
G04 #@! TF.SameCoordinates,Original*
G04 #@! TF.FileFunction,Copper,L2,Inr*
G04 #@! TF.FilePolarity,Positive*
%FSLAX46Y46*%
G04 Gerber Fmt 4.6, Leading zero omitted, Abs format (unit mm)*
G04 Created by KiCad (PCBNEW 5.99.0-unknown-d90d73416~104~ubuntu18.04.1) date 2020-10-29 17:21:16*
%MOMM*%
%LPD*%
G01*
G04 APERTURE LIST*
G04 #@! TA.AperFunction,ComponentPad*
%ADD10C,6.000000*%
G04 #@! TD*
G04 #@! TA.AperFunction,ComponentPad*
%ADD11C,4.000000*%
G04 #@! TD*
G04 #@! TA.AperFunction,ComponentPad*
%ADD12O,2.000000X1.000000*%
G04 #@! TD*
G04 #@! TA.AperFunction,ComponentPad*
%ADD13O,2.100000X1.050000*%
G04 #@! TD*
G04 #@! TA.AperFunction,ViaPad*
%ADD14C,0.800000*%
G04 #@! TD*
G04 #@! TA.AperFunction,Conductor*
%ADD15C,0.500000*%
G04 #@! TD*
G04 #@! TA.AperFunction,Conductor*
%ADD16C,1.000000*%
G04 #@! TD*
G04 APERTURE END LIST*
D10*
X45720000Y5080000D03*
X5080000Y5080000D03*
X45720000Y45720000D03*
D11*
X29626000Y25450000D03*
D10*
X5080000Y45720000D03*
D12*
X2540000Y31240000D03*
X2540000Y39880000D03*
D13*
X6720000Y31240000D03*
X6720000Y39880000D03*
D14*
X38030074Y8692139D03*
X15443200Y10922000D03*
X14626252Y8843348D03*
X31038800Y11772010D03*
X32715200Y11772010D03*
X33020000Y41605200D03*
X19685000Y28575000D03*
X40640000Y48260000D03*
X11430000Y12700000D03*
X3810000Y38100000D03*
X3810000Y33020000D03*
X35814000Y18135600D03*
X31115000Y38735000D03*
X40640000Y46355000D03*
X10160000Y9525000D03*
X41910000Y16510000D03*
X17780000Y16510000D03*
X36830000Y22225000D03*
X32385000Y28575000D03*
X9525000Y49530000D03*
X16510000Y24765000D03*
X34239200Y18135600D03*
X32385000Y6350000D03*
X24130000Y44450000D03*
X11430000Y11430000D03*
X35560000Y37465000D03*
X31115000Y21590000D03*
X29845000Y38735000D03*
X10160000Y8255000D03*
X40640000Y5080000D03*
X15240000Y23495000D03*
X20955000Y28575000D03*
X34290000Y28575000D03*
X16510000Y21590000D03*
X32385000Y17780000D03*
X38735000Y24765000D03*
X8890000Y5080000D03*
X31115000Y37465000D03*
X17780000Y23495000D03*
X29845000Y37465000D03*
X9525000Y48260000D03*
X8890000Y2540000D03*
X41910000Y48260000D03*
X8890000Y3810000D03*
X31115000Y22860000D03*
X32156400Y14681200D03*
X8890000Y1270000D03*
X35560000Y38735000D03*
X41275000Y22225000D03*
X13335000Y11430000D03*
X30480000Y41910000D03*
X26035000Y5715000D03*
X28575000Y37465000D03*
X28575000Y38735000D03*
X41275000Y24765000D03*
X41275000Y6350000D03*
X29210000Y28575000D03*
X21945600Y11988800D03*
X3810000Y36830000D03*
X41275000Y18415000D03*
X28575000Y44450000D03*
X30480000Y28575000D03*
X3810000Y35560000D03*
X12065000Y20320000D03*
X24130000Y45720000D03*
X3810000Y34290000D03*
X11430000Y8255000D03*
X27940000Y27940000D03*
X27432000Y12141200D03*
X10160000Y16510000D03*
X13335000Y12700000D03*
X36830000Y37465000D03*
X11430000Y9525000D03*
X49530000Y13970000D03*
X36830000Y38735000D03*
X27381200Y14681200D03*
X41910000Y36195000D03*
X36169600Y16560800D03*
X25857200Y12141200D03*
X28575000Y40005000D03*
X26670000Y45720000D03*
X28702000Y32766000D03*
X6350000Y23495000D03*
X24638000Y35306000D03*
X24638000Y42926000D03*
X24892000Y18796000D03*
X5588000Y25400000D03*
X35560000Y48006000D03*
X30480000Y48006000D03*
X29464000Y4572000D03*
X9398000Y33274000D03*
X46228000Y13970000D03*
X12446000Y35560000D03*
X13019000Y33147000D03*
X9398000Y38100000D03*
X36195000Y14922500D03*
X31750000Y15557500D03*
X33870000Y39116000D03*
X34544000Y41656000D03*
X31750000Y43053000D03*
X48514000Y33147000D03*
X37338000Y29464000D03*
X17272000Y14224000D03*
X6096000Y12954000D03*
X38608000Y26162000D03*
X34290000Y43903000D03*
X14097000Y7112000D03*
X36499999Y32842001D03*
X17018000Y15240000D03*
X5969000Y14351000D03*
X19177000Y7112000D03*
X35560000Y7112000D03*
X1524000Y19431000D03*
X21639041Y7101959D03*
X21082000Y41402000D03*
X11596000Y40654794D03*
X23114000Y7112000D03*
X1524000Y21336000D03*
X11557000Y29083000D03*
X1651000Y15240000D03*
X16764000Y40779989D03*
X18796000Y41148000D03*
X1778000Y17145000D03*
X13335000Y43180000D03*
X23749000Y31750000D03*
X24517223Y32390186D03*
X14732000Y43180000D03*
X16383000Y29083000D03*
X1651000Y13208000D03*
X16256000Y43180000D03*
X11684000Y44450000D03*
X19655000Y43464000D03*
X18359977Y32429000D03*
X23905541Y25243459D03*
X25146000Y25273000D03*
X18359977Y33479000D03*
D15*
X22860000Y26924000D02*
X28702000Y32766000D01*
X3937000Y23495000D02*
X3302000Y24130000D01*
X3302000Y24130000D02*
X3302000Y25654000D01*
X3302000Y25654000D02*
X4572000Y26924000D01*
X4572000Y26924000D02*
X22860000Y26924000D01*
X6350000Y23495000D02*
X3937000Y23495000D01*
D16*
X9652000Y25400000D02*
X16256000Y18796000D01*
X16256000Y18796000D02*
X24892000Y18796000D01*
X5588000Y25400000D02*
X9652000Y25400000D01*
D15*
X35560000Y15557500D02*
X36195000Y14922500D01*
X31750000Y15557500D02*
X35560000Y15557500D01*
X37607509Y12995546D02*
X18500454Y12995546D01*
X37338000Y29464000D02*
X37338000Y24611962D01*
X38800010Y23149953D02*
X38800010Y14188047D01*
X18500454Y12995546D02*
X17272000Y14224000D01*
X38800010Y14188047D02*
X37607509Y12995546D01*
X37338000Y24611962D02*
X38800010Y23149953D01*
X36830000Y41363000D02*
X34290000Y43903000D01*
X36830000Y41363000D02*
X38608000Y39585000D01*
X38608000Y39585000D02*
X38608000Y26162000D01*
X17018000Y15240000D02*
X17583685Y15240000D01*
X18853685Y13970000D02*
X20320000Y13970000D01*
X37592000Y13970000D02*
X20320000Y13970000D01*
X36100000Y32442002D02*
X36100000Y24860000D01*
X37592000Y13970000D02*
X38100000Y14478000D01*
X36499999Y32842001D02*
X36100000Y32442002D01*
X38100000Y15569498D02*
X38100000Y14478000D01*
X36100000Y24860000D02*
X38100000Y22860000D01*
X17583685Y15240000D02*
X18853685Y13970000D01*
X38100000Y22860000D02*
X38100000Y15569498D01*
X1524000Y19431000D02*
X9310000Y19431000D01*
X9310000Y19431000D02*
X21639041Y7101959D01*
X11596000Y40220000D02*
X11596000Y40654794D01*
X14986000Y36830000D02*
X11596000Y40220000D01*
X11557000Y29083000D02*
X14986000Y32512000D01*
X23114000Y7112000D02*
X8890000Y21336000D01*
X14986000Y32512000D02*
X14986000Y36830000D01*
X11595999Y29121999D02*
X11557000Y29083000D01*
X8890000Y21336000D02*
X8787010Y21336000D01*
X1524000Y21336000D02*
X8787010Y21336000D01*
X13335000Y40778998D02*
X13335000Y43180000D01*
X20739999Y34759001D02*
X19354997Y34759001D01*
X23749000Y31750000D02*
X20739999Y34759001D01*
X19354997Y34759001D02*
X13335000Y40778998D01*
X14732000Y41910000D02*
X14732000Y43180000D01*
X24517223Y32390186D02*
X21347409Y35560000D01*
X19558000Y35560000D02*
X15748000Y39370000D01*
X14732000Y40386000D02*
X14732000Y41910000D01*
X15748000Y39370000D02*
X14732000Y40386000D01*
X21347409Y35560000D02*
X19558000Y35560000D01*
X15024999Y44030001D02*
X12926999Y44030001D01*
X16344001Y29121999D02*
X16383000Y29083000D01*
X12926999Y44030001D02*
X12446000Y43549002D01*
X15024999Y44030001D02*
X15405999Y44030001D01*
X16383000Y36449000D02*
X16383000Y29083000D01*
X12446000Y40386000D02*
X16383000Y36449000D01*
X15405999Y44030001D02*
X16256000Y43180000D01*
X12446000Y43549002D02*
X12446000Y40386000D01*
G04 #@! TA.AperFunction,Conductor*
G36*
X50314208Y50325178D02*
G01*
X50346000Y50257000D01*
X50346001Y543000D01*
X50325179Y485792D01*
X50257001Y454000D01*
X543000Y454000D01*
X485792Y474822D01*
X454000Y543000D01*
X454000Y4572000D01*
X28858500Y4572000D01*
X28879132Y4415285D01*
X28939622Y4269250D01*
X29035847Y4143847D01*
X29161250Y4047622D01*
X29307285Y3987132D01*
X29464000Y3966500D01*
X29620715Y3987132D01*
X29766750Y4047622D01*
X29892153Y4143847D01*
X29988378Y4269250D01*
X30048868Y4415285D01*
X30069500Y4572000D01*
X30048868Y4728715D01*
X29988378Y4874750D01*
X29892153Y5000153D01*
X29766750Y5096378D01*
X29620715Y5156868D01*
X29464000Y5177500D01*
X29307285Y5156868D01*
X29161250Y5096378D01*
X29035847Y5000153D01*
X28939622Y4874750D01*
X28879132Y4728715D01*
X28858500Y4572000D01*
X454000Y4572000D01*
X454000Y7112000D01*
X13491500Y7112000D01*
X13512132Y6955285D01*
X13572622Y6809250D01*
X13576172Y6804623D01*
X13576173Y6804622D01*
X13580327Y6799209D01*
X13668847Y6683847D01*
X13794250Y6587622D01*
X13940285Y6527132D01*
X14097000Y6506500D01*
X14253715Y6527132D01*
X14399750Y6587622D01*
X14525153Y6683847D01*
X14613673Y6799209D01*
X14617827Y6804622D01*
X14617828Y6804623D01*
X14621378Y6809250D01*
X14681868Y6955285D01*
X14702500Y7112000D01*
X18571500Y7112000D01*
X18592132Y6955285D01*
X18652622Y6809250D01*
X18656172Y6804623D01*
X18656173Y6804622D01*
X18660327Y6799209D01*
X18748847Y6683847D01*
X18874250Y6587622D01*
X19020285Y6527132D01*
X19177000Y6506500D01*
X19333715Y6527132D01*
X19479750Y6587622D01*
X19605153Y6683847D01*
X19693673Y6799209D01*
X19697827Y6804622D01*
X19697828Y6804623D01*
X19701378Y6809250D01*
X19761868Y6955285D01*
X19782500Y7112000D01*
X19761868Y7268715D01*
X19701378Y7414750D01*
X19605153Y7540153D01*
X19479750Y7636378D01*
X19333715Y7696868D01*
X19177000Y7717500D01*
X19020285Y7696868D01*
X18874250Y7636378D01*
X18748847Y7540153D01*
X18652622Y7414750D01*
X18592132Y7268715D01*
X18571500Y7112000D01*
X14702500Y7112000D01*
X14681868Y7268715D01*
X14621378Y7414750D01*
X14525153Y7540153D01*
X14399750Y7636378D01*
X14253715Y7696868D01*
X14097000Y7717500D01*
X13940285Y7696868D01*
X13794250Y7636378D01*
X13668847Y7540153D01*
X13572622Y7414750D01*
X13512132Y7268715D01*
X13491500Y7112000D01*
X454000Y7112000D01*
X454000Y8843348D01*
X14020752Y8843348D01*
X14041384Y8686633D01*
X14101874Y8540598D01*
X14198099Y8415195D01*
X14323502Y8318970D01*
X14469537Y8258480D01*
X14626252Y8237848D01*
X14782967Y8258480D01*
X14929002Y8318970D01*
X15054405Y8415195D01*
X15150630Y8540598D01*
X15211120Y8686633D01*
X15231752Y8843348D01*
X15211120Y9000063D01*
X15150630Y9146098D01*
X15099321Y9212966D01*
X15057960Y9266868D01*
X15054405Y9271501D01*
X14929002Y9367726D01*
X14782967Y9428216D01*
X14626252Y9448848D01*
X14469537Y9428216D01*
X14323502Y9367726D01*
X14198099Y9271501D01*
X14194544Y9266868D01*
X14153184Y9212966D01*
X14101874Y9146098D01*
X14041384Y9000063D01*
X14020752Y8843348D01*
X454000Y8843348D01*
X454000Y10922000D01*
X14837700Y10922000D01*
X14858332Y10765285D01*
X14918822Y10619250D01*
X15015047Y10493847D01*
X15140450Y10397622D01*
X15286485Y10337132D01*
X15443200Y10316500D01*
X15599915Y10337132D01*
X15745950Y10397622D01*
X15871353Y10493847D01*
X15967578Y10619250D01*
X16028068Y10765285D01*
X16048700Y10922000D01*
X16028068Y11078715D01*
X15967578Y11224750D01*
X15871353Y11350153D01*
X15745950Y11446378D01*
X15599915Y11506868D01*
X15443200Y11527500D01*
X15286485Y11506868D01*
X15140450Y11446378D01*
X15015047Y11350153D01*
X14918822Y11224750D01*
X14858332Y11078715D01*
X14837700Y10922000D01*
X454000Y10922000D01*
X454000Y13208000D01*
X1045500Y13208000D01*
X1066132Y13051285D01*
X1126622Y12905250D01*
X1222847Y12779847D01*
X1227480Y12776292D01*
X1318787Y12706230D01*
X1348250Y12683622D01*
X1456034Y12638976D01*
X1475433Y12630941D01*
X1494285Y12623132D01*
X1651000Y12602500D01*
X1807715Y12623132D01*
X1826568Y12630941D01*
X1845966Y12638976D01*
X1953750Y12683622D01*
X1983214Y12706230D01*
X2074520Y12776292D01*
X2079153Y12779847D01*
X2175378Y12905250D01*
X2195571Y12954000D01*
X5490500Y12954000D01*
X5511132Y12797285D01*
X5571622Y12651250D01*
X5575172Y12646623D01*
X5575173Y12646622D01*
X5650760Y12548115D01*
X5667847Y12525847D01*
X5672480Y12522292D01*
X5771132Y12446594D01*
X5793250Y12429622D01*
X5939285Y12369132D01*
X6096000Y12348500D01*
X6252715Y12369132D01*
X6398750Y12429622D01*
X6420869Y12446594D01*
X6519520Y12522292D01*
X6524153Y12525847D01*
X6541240Y12548115D01*
X6616827Y12646622D01*
X6616828Y12646623D01*
X6620378Y12651250D01*
X6680868Y12797285D01*
X6701500Y12954000D01*
X6680868Y13110715D01*
X6620378Y13256750D01*
X6524153Y13382153D01*
X6444347Y13443390D01*
X6403378Y13474827D01*
X6403377Y13474828D01*
X6398750Y13478378D01*
X6252715Y13538868D01*
X6096000Y13559500D01*
X5939285Y13538868D01*
X5793250Y13478378D01*
X5788623Y13474828D01*
X5788622Y13474827D01*
X5747653Y13443390D01*
X5667847Y13382153D01*
X5571622Y13256750D01*
X5511132Y13110715D01*
X5490500Y12954000D01*
X2195571Y12954000D01*
X2235868Y13051285D01*
X2256500Y13208000D01*
X2235868Y13364715D01*
X2175378Y13510750D01*
X2168198Y13520108D01*
X2082708Y13631520D01*
X2079153Y13636153D01*
X2035225Y13669860D01*
X1958378Y13728827D01*
X1958377Y13728828D01*
X1953750Y13732378D01*
X1807715Y13792868D01*
X1651000Y13813500D01*
X1494285Y13792868D01*
X1348250Y13732378D01*
X1343623Y13728828D01*
X1343622Y13728827D01*
X1266775Y13669860D01*
X1222847Y13636153D01*
X1219292Y13631520D01*
X1133803Y13520108D01*
X1126622Y13510750D01*
X1066132Y13364715D01*
X1045500Y13208000D01*
X454000Y13208000D01*
X454000Y14351000D01*
X5363500Y14351000D01*
X5384132Y14194285D01*
X5444622Y14048250D01*
X5448172Y14043623D01*
X5448173Y14043622D01*
X5500230Y13975780D01*
X5540847Y13922847D01*
X5545480Y13919292D01*
X5630138Y13854332D01*
X5666250Y13826622D01*
X5812285Y13766132D01*
X5969000Y13745500D01*
X6125715Y13766132D01*
X6271750Y13826622D01*
X6307863Y13854332D01*
X6392520Y13919292D01*
X6397153Y13922847D01*
X6437770Y13975780D01*
X6489827Y14043622D01*
X6489828Y14043623D01*
X6493378Y14048250D01*
X6553868Y14194285D01*
X6574500Y14351000D01*
X6553868Y14507715D01*
X6493378Y14653750D01*
X6485050Y14664604D01*
X6400708Y14774520D01*
X6397153Y14779153D01*
X6354545Y14811847D01*
X6276378Y14871827D01*
X6276377Y14871828D01*
X6271750Y14875378D01*
X6144034Y14928280D01*
X6131106Y14933635D01*
X6125715Y14935868D01*
X5969000Y14956500D01*
X5812285Y14935868D01*
X5806894Y14933635D01*
X5793966Y14928280D01*
X5666250Y14875378D01*
X5661623Y14871828D01*
X5661622Y14871827D01*
X5583455Y14811847D01*
X5540847Y14779153D01*
X5537292Y14774520D01*
X5452951Y14664604D01*
X5444622Y14653750D01*
X5384132Y14507715D01*
X5363500Y14351000D01*
X454000Y14351000D01*
X454000Y15240000D01*
X1045500Y15240000D01*
X1066132Y15083285D01*
X1126622Y14937250D01*
X1222847Y14811847D01*
X1227480Y14808292D01*
X1271493Y14774520D01*
X1348250Y14715622D01*
X1468432Y14665841D01*
X1486449Y14658378D01*
X1494285Y14655132D01*
X1651000Y14634500D01*
X1807715Y14655132D01*
X1815552Y14658378D01*
X1833568Y14665841D01*
X1953750Y14715622D01*
X2030508Y14774520D01*
X2074520Y14808292D01*
X2079153Y14811847D01*
X2175378Y14937250D01*
X2235868Y15083285D01*
X2256500Y15240000D01*
X2235868Y15396715D01*
X2175378Y15542750D01*
X2149997Y15575828D01*
X2082708Y15663520D01*
X2079153Y15668153D01*
X1953750Y15764378D01*
X1807715Y15824868D01*
X1651000Y15845500D01*
X1494285Y15824868D01*
X1348250Y15764378D01*
X1222847Y15668153D01*
X1219292Y15663520D01*
X1152004Y15575828D01*
X1126622Y15542750D01*
X1066132Y15396715D01*
X1045500Y15240000D01*
X454000Y15240000D01*
X454000Y17145000D01*
X1172500Y17145000D01*
X1193132Y16988285D01*
X1253622Y16842250D01*
X1349847Y16716847D01*
X1475250Y16620622D01*
X1621285Y16560132D01*
X1778000Y16539500D01*
X1934715Y16560132D01*
X2080750Y16620622D01*
X2206153Y16716847D01*
X2302378Y16842250D01*
X2362868Y16988285D01*
X2383500Y17145000D01*
X2362868Y17301715D01*
X2302378Y17447750D01*
X2206153Y17573153D01*
X2080750Y17669378D01*
X1934715Y17729868D01*
X1778000Y17750500D01*
X1621285Y17729868D01*
X1475250Y17669378D01*
X1349847Y17573153D01*
X1253622Y17447750D01*
X1193132Y17301715D01*
X1172500Y17145000D01*
X454000Y17145000D01*
X454000Y21336000D01*
X918500Y21336000D01*
X939132Y21179285D01*
X999622Y21033250D01*
X1095847Y20907847D01*
X1221250Y20811622D01*
X1367285Y20751132D01*
X1524000Y20730500D01*
X1680715Y20751132D01*
X1826750Y20811622D01*
X1831380Y20815175D01*
X1831384Y20815177D01*
X1899062Y20867108D01*
X1953242Y20885500D01*
X8666532Y20885500D01*
X8729465Y20859433D01*
X9601915Y19986983D01*
X9627643Y19931807D01*
X9611887Y19873002D01*
X9562017Y19838083D01*
X9511327Y19843010D01*
X9510391Y19840052D01*
X9453892Y19857921D01*
X9451242Y19858805D01*
X9401629Y19876227D01*
X9401628Y19876227D01*
X9395352Y19878431D01*
X9389747Y19878651D01*
X9386086Y19879364D01*
X9381256Y19880892D01*
X9376206Y19881289D01*
X9376203Y19881290D01*
X9375278Y19881363D01*
X9375265Y19881363D01*
X9373531Y19881500D01*
X9318990Y19881500D01*
X9315495Y19881569D01*
X9266670Y19883488D01*
X9266667Y19883488D01*
X9260017Y19883749D01*
X9253581Y19882043D01*
X9253531Y19882037D01*
X9243765Y19881500D01*
X1953242Y19881500D01*
X1899062Y19899892D01*
X1831384Y19951823D01*
X1831380Y19951825D01*
X1826750Y19955378D01*
X1680715Y20015868D01*
X1524000Y20036500D01*
X1367285Y20015868D01*
X1221250Y19955378D01*
X1216623Y19951828D01*
X1216622Y19951827D01*
X1148939Y19899892D01*
X1095847Y19859153D01*
X999622Y19733750D01*
X939132Y19587715D01*
X918500Y19431000D01*
X939132Y19274285D01*
X999622Y19128250D01*
X1095847Y19002847D01*
X1221250Y18906622D01*
X1367285Y18846132D01*
X1524000Y18825500D01*
X1680715Y18846132D01*
X1826750Y18906622D01*
X1831380Y18910175D01*
X1831384Y18910177D01*
X1899062Y18962108D01*
X1953242Y18980500D01*
X9086532Y18980500D01*
X9149465Y18954433D01*
X21016970Y7086927D01*
X21042275Y7035612D01*
X21054173Y6945244D01*
X21114663Y6799209D01*
X21210888Y6673806D01*
X21215521Y6670251D01*
X21318578Y6591173D01*
X21336291Y6577581D01*
X21482326Y6517091D01*
X21639041Y6496459D01*
X21795756Y6517091D01*
X21941791Y6577581D01*
X21959505Y6591173D01*
X22062561Y6670251D01*
X22067194Y6673806D01*
X22163419Y6799209D01*
X22223909Y6945244D01*
X22244541Y7101959D01*
X22243780Y7107742D01*
X22242013Y7121166D01*
X22255191Y7180602D01*
X22303491Y7217662D01*
X22364312Y7215006D01*
X22393183Y7195714D01*
X22491928Y7096969D01*
X22517234Y7045654D01*
X22522784Y7003502D01*
X22529132Y6955285D01*
X22589622Y6809250D01*
X22593172Y6804623D01*
X22593173Y6804622D01*
X22597327Y6799209D01*
X22685847Y6683847D01*
X22811250Y6587622D01*
X22957285Y6527132D01*
X23114000Y6506500D01*
X23270715Y6527132D01*
X23416750Y6587622D01*
X23542153Y6683847D01*
X23630673Y6799209D01*
X23634827Y6804622D01*
X23634828Y6804623D01*
X23638378Y6809250D01*
X23698868Y6955285D01*
X23719500Y7112000D01*
X34954500Y7112000D01*
X34975132Y6955285D01*
X35035622Y6809250D01*
X35039172Y6804623D01*
X35039173Y6804622D01*
X35043327Y6799209D01*
X35131847Y6683847D01*
X35257250Y6587622D01*
X35403285Y6527132D01*
X35560000Y6506500D01*
X35716715Y6527132D01*
X35862750Y6587622D01*
X35988153Y6683847D01*
X36076673Y6799209D01*
X36080827Y6804622D01*
X36080828Y6804623D01*
X36084378Y6809250D01*
X36144868Y6955285D01*
X36165500Y7112000D01*
X36144868Y7268715D01*
X36084378Y7414750D01*
X35988153Y7540153D01*
X35862750Y7636378D01*
X35716715Y7696868D01*
X35560000Y7717500D01*
X35403285Y7696868D01*
X35257250Y7636378D01*
X35131847Y7540153D01*
X35035622Y7414750D01*
X34975132Y7268715D01*
X34954500Y7112000D01*
X23719500Y7112000D01*
X23698868Y7268715D01*
X23638378Y7414750D01*
X23542153Y7540153D01*
X23416750Y7636378D01*
X23270715Y7696868D01*
X23210260Y7704827D01*
X23180348Y7708765D01*
X23129033Y7734071D01*
X22170965Y8692139D01*
X37424574Y8692139D01*
X37445206Y8535424D01*
X37505696Y8389389D01*
X37509246Y8384762D01*
X37509247Y8384761D01*
X37559730Y8318970D01*
X37601921Y8263986D01*
X37727324Y8167761D01*
X37873359Y8107271D01*
X38030074Y8086639D01*
X38186789Y8107271D01*
X38332824Y8167761D01*
X38458227Y8263986D01*
X38500418Y8318970D01*
X38550901Y8384761D01*
X38550902Y8384762D01*
X38554452Y8389389D01*
X38614942Y8535424D01*
X38635574Y8692139D01*
X38614942Y8848854D01*
X38554452Y8994889D01*
X38458227Y9120292D01*
X38332824Y9216517D01*
X38186789Y9277007D01*
X38030074Y9297639D01*
X37873359Y9277007D01*
X37727324Y9216517D01*
X37601921Y9120292D01*
X37505696Y8994889D01*
X37445206Y8848854D01*
X37424574Y8692139D01*
X22170965Y8692139D01*
X18471685Y12391418D01*
X18445956Y12446594D01*
X18461712Y12505399D01*
X18538109Y12543282D01*
X18543785Y12543059D01*
X18543787Y12543059D01*
X18550437Y12542798D01*
X18556869Y12544503D01*
X18556921Y12544509D01*
X18566685Y12545046D01*
X37576232Y12545046D01*
X37586693Y12544429D01*
X37621816Y12540272D01*
X37680065Y12550910D01*
X37682823Y12551369D01*
X37734867Y12559193D01*
X37734868Y12559193D01*
X37741444Y12560182D01*
X37747237Y12562964D01*
X37748738Y12563452D01*
X37755053Y12564605D01*
X37807618Y12591910D01*
X37810116Y12593158D01*
X37857541Y12615931D01*
X37857542Y12615932D01*
X37863538Y12618811D01*
X37867667Y12622628D01*
X37870742Y12624701D01*
X37875245Y12627039D01*
X37879100Y12630332D01*
X37879103Y12630334D01*
X37879813Y12630941D01*
X37881137Y12632072D01*
X37919687Y12670622D01*
X37922207Y12673044D01*
X37933650Y12683622D01*
X37962995Y12710748D01*
X37966339Y12716505D01*
X37966374Y12716549D01*
X37972902Y12723837D01*
X39096438Y13847372D01*
X39104271Y13854332D01*
X39126828Y13872115D01*
X39126829Y13872116D01*
X39132055Y13876236D01*
X39165741Y13924975D01*
X39167367Y13927250D01*
X39198611Y13969550D01*
X39198612Y13969553D01*
X39198942Y13970000D01*
X45622500Y13970000D01*
X45643132Y13813285D01*
X45703622Y13667250D01*
X45707172Y13662623D01*
X45707173Y13662622D01*
X45752556Y13603478D01*
X45799847Y13541847D01*
X45804480Y13538292D01*
X45882562Y13478378D01*
X45925250Y13445622D01*
X46071285Y13385132D01*
X46228000Y13364500D01*
X46384715Y13385132D01*
X46530750Y13445622D01*
X46573439Y13478378D01*
X46651520Y13538292D01*
X46656153Y13541847D01*
X46703444Y13603478D01*
X46748827Y13662622D01*
X46748828Y13662623D01*
X46752378Y13667250D01*
X46812868Y13813285D01*
X46833500Y13970000D01*
X46812868Y14126715D01*
X46752378Y14272750D01*
X46678297Y14369295D01*
X46659708Y14393520D01*
X46656153Y14398153D01*
X46530750Y14494378D01*
X46384715Y14554868D01*
X46228000Y14575500D01*
X46071285Y14554868D01*
X45925250Y14494378D01*
X45799847Y14398153D01*
X45796292Y14393520D01*
X45777704Y14369295D01*
X45703622Y14272750D01*
X45643132Y14126715D01*
X45622500Y13970000D01*
X39198942Y13970000D01*
X39202565Y13974904D01*
X39204693Y13980963D01*
X39205410Y13982372D01*
X39209062Y13987655D01*
X39226938Y14044181D01*
X39227815Y14046807D01*
X39245236Y14096414D01*
X39245236Y14096416D01*
X39247441Y14102694D01*
X39247661Y14108301D01*
X39248374Y14111960D01*
X39249902Y14116791D01*
X39250510Y14124516D01*
X39250510Y14179057D01*
X39250579Y14182552D01*
X39252498Y14231377D01*
X39252498Y14231380D01*
X39252759Y14238030D01*
X39251053Y14244466D01*
X39251047Y14244516D01*
X39250510Y14254282D01*
X39250510Y23118668D01*
X39251127Y23129128D01*
X39254503Y23157654D01*
X39255285Y23164261D01*
X39251019Y23187622D01*
X39244643Y23222535D01*
X39244184Y23225291D01*
X39236363Y23277309D01*
X39235374Y23283888D01*
X39232596Y23289674D01*
X39232106Y23291181D01*
X39230952Y23297498D01*
X39203623Y23350109D01*
X39202394Y23352570D01*
X39179625Y23399986D01*
X39179623Y23399989D01*
X39176745Y23405982D01*
X39172930Y23410109D01*
X39170855Y23413188D01*
X39168517Y23417689D01*
X39163484Y23423582D01*
X39124922Y23462143D01*
X39122500Y23464663D01*
X39089329Y23500549D01*
X39089326Y23500552D01*
X39084808Y23505439D01*
X39079051Y23508783D01*
X39079006Y23508819D01*
X39071723Y23515343D01*
X37814568Y24772496D01*
X37788500Y24835429D01*
X37788500Y29034758D01*
X37806892Y29088938D01*
X37858823Y29156616D01*
X37858825Y29156620D01*
X37862378Y29161250D01*
X37894880Y29239715D01*
X37920635Y29301894D01*
X37922868Y29307285D01*
X37943500Y29464000D01*
X37922868Y29620715D01*
X37862378Y29766750D01*
X37838573Y29797774D01*
X37769708Y29887520D01*
X37766153Y29892153D01*
X37697184Y29945075D01*
X37645378Y29984827D01*
X37645377Y29984828D01*
X37640750Y29988378D01*
X37494715Y30048868D01*
X37338000Y30069500D01*
X37181285Y30048868D01*
X37035250Y29988378D01*
X37030623Y29984828D01*
X37030622Y29984827D01*
X36978816Y29945075D01*
X36909847Y29892153D01*
X36906292Y29887520D01*
X36837428Y29797774D01*
X36813622Y29766750D01*
X36753132Y29620715D01*
X36732500Y29464000D01*
X36753132Y29307285D01*
X36755365Y29301894D01*
X36781121Y29239715D01*
X36813622Y29161250D01*
X36817175Y29156620D01*
X36817177Y29156616D01*
X36869108Y29088938D01*
X36887500Y29034758D01*
X36887501Y26944096D01*
X36887501Y24924467D01*
X36866679Y24867259D01*
X36813956Y24836819D01*
X36735568Y24861534D01*
X36576567Y25020535D01*
X36550500Y25083468D01*
X36550500Y32165098D01*
X36571322Y32222306D01*
X36627882Y32253336D01*
X36650925Y32256370D01*
X36650931Y32256372D01*
X36656714Y32257133D01*
X36802749Y32317623D01*
X36817635Y32329045D01*
X36923519Y32410293D01*
X36928152Y32413848D01*
X36963098Y32459391D01*
X37020826Y32534623D01*
X37020827Y32534624D01*
X37024377Y32539251D01*
X37084867Y32685286D01*
X37105499Y32842001D01*
X37084867Y32998716D01*
X37024377Y33144751D01*
X37003768Y33171610D01*
X36931707Y33265521D01*
X36928152Y33270154D01*
X36867239Y33316894D01*
X36807377Y33362828D01*
X36807376Y33362829D01*
X36802749Y33366379D01*
X36656714Y33426869D01*
X36499999Y33447501D01*
X36343284Y33426869D01*
X36197249Y33366379D01*
X36192622Y33362829D01*
X36192621Y33362828D01*
X36132759Y33316894D01*
X36071846Y33270154D01*
X36068291Y33265521D01*
X35996231Y33171610D01*
X35975621Y33144751D01*
X35915131Y32998716D01*
X35912116Y32975815D01*
X35903233Y32908347D01*
X35877927Y32857032D01*
X35803573Y32782677D01*
X35795740Y32775717D01*
X35767955Y32753813D01*
X35763516Y32747390D01*
X35734263Y32705065D01*
X35732637Y32702790D01*
X35718282Y32683355D01*
X35697445Y32655144D01*
X35695317Y32649085D01*
X35694600Y32647676D01*
X35690948Y32642393D01*
X35673081Y32585895D01*
X35672195Y32583241D01*
X35655122Y32534623D01*
X35652569Y32527354D01*
X35652349Y32521747D01*
X35651636Y32518088D01*
X35650108Y32513257D01*
X35649500Y32505532D01*
X35649500Y32450992D01*
X35649431Y32447497D01*
X35648109Y32413848D01*
X35647251Y32392019D01*
X35648957Y32385583D01*
X35648963Y32385533D01*
X35649500Y32375767D01*
X35649501Y24891285D01*
X35648884Y24880824D01*
X35644726Y24845693D01*
X35645921Y24839150D01*
X35645921Y24839148D01*
X35655367Y24787422D01*
X35655826Y24784667D01*
X35656792Y24778240D01*
X35664637Y24726065D01*
X35667414Y24720282D01*
X35667906Y24718768D01*
X35669059Y24712456D01*
X35672125Y24706554D01*
X35696376Y24659867D01*
X35697624Y24657368D01*
X35723266Y24603971D01*
X35727078Y24599847D01*
X35729154Y24596767D01*
X35731493Y24592264D01*
X35736526Y24586372D01*
X35775089Y24547809D01*
X35777511Y24545289D01*
X35815203Y24504514D01*
X35820953Y24501174D01*
X35821003Y24501134D01*
X35828290Y24494608D01*
X37623433Y22699464D01*
X37649500Y22636532D01*
X37649501Y15633054D01*
X37649500Y15633028D01*
X37649501Y14701469D01*
X37623434Y14638537D01*
X37431466Y14446568D01*
X37368533Y14420500D01*
X36746962Y14420500D01*
X36689754Y14441322D01*
X36659314Y14494045D01*
X36676354Y14563680D01*
X36715827Y14615122D01*
X36715828Y14615123D01*
X36719378Y14619750D01*
X36779868Y14765785D01*
X36800500Y14922500D01*
X36779868Y15079215D01*
X36719378Y15225250D01*
X36623153Y15350653D01*
X36497750Y15446878D01*
X36351715Y15507368D01*
X36345932Y15508129D01*
X36345926Y15508131D01*
X36261346Y15519267D01*
X36210032Y15544572D01*
X35900675Y15853927D01*
X35893714Y15861761D01*
X35875931Y15884319D01*
X35875930Y15884320D01*
X35871811Y15889545D01*
X35846150Y15907280D01*
X35823056Y15923242D01*
X35820781Y15924868D01*
X35778495Y15956101D01*
X35778496Y15956101D01*
X35773142Y15960055D01*
X35767083Y15962182D01*
X35765676Y15962899D01*
X35760392Y15966552D01*
X35703892Y15984421D01*
X35701242Y15985305D01*
X35651629Y16002727D01*
X35651628Y16002727D01*
X35645352Y16004931D01*
X35639747Y16005151D01*
X35636086Y16005864D01*
X35631256Y16007392D01*
X35626206Y16007789D01*
X35626203Y16007790D01*
X35625278Y16007863D01*
X35625265Y16007863D01*
X35623531Y16008000D01*
X35568990Y16008000D01*
X35565495Y16008069D01*
X35516670Y16009988D01*
X35516667Y16009988D01*
X35510017Y16010249D01*
X35503581Y16008543D01*
X35503531Y16008537D01*
X35493765Y16008000D01*
X32179242Y16008000D01*
X32125062Y16026392D01*
X32057384Y16078323D01*
X32057380Y16078325D01*
X32052750Y16081878D01*
X31906715Y16142368D01*
X31750000Y16163000D01*
X31593285Y16142368D01*
X31447250Y16081878D01*
X31321847Y15985653D01*
X31318292Y15981020D01*
X31251004Y15893328D01*
X31225622Y15860250D01*
X31165132Y15714215D01*
X31144500Y15557500D01*
X31165132Y15400785D01*
X31225622Y15254750D01*
X31321847Y15129347D01*
X31447250Y15033122D01*
X31593285Y14972632D01*
X31750000Y14952000D01*
X31906715Y14972632D01*
X32052750Y15033122D01*
X32057380Y15036675D01*
X32057384Y15036677D01*
X32125062Y15088608D01*
X32179242Y15107000D01*
X35336533Y15107000D01*
X35399466Y15080932D01*
X35572928Y14907469D01*
X35598234Y14856154D01*
X35610132Y14765785D01*
X35670622Y14619750D01*
X35674172Y14615123D01*
X35674173Y14615122D01*
X35713646Y14563680D01*
X35731953Y14505618D01*
X35708656Y14449372D01*
X35643038Y14420500D01*
X19077153Y14420500D01*
X19014221Y14446567D01*
X17924365Y15536422D01*
X17917404Y15544255D01*
X17899614Y15566821D01*
X17895496Y15572045D01*
X17890025Y15575827D01*
X17890023Y15575828D01*
X17846741Y15605742D01*
X17844466Y15607368D01*
X17802180Y15638601D01*
X17802181Y15638601D01*
X17796827Y15642555D01*
X17790768Y15644682D01*
X17789361Y15645399D01*
X17784077Y15649052D01*
X17727577Y15666921D01*
X17724927Y15667805D01*
X17675314Y15685227D01*
X17675313Y15685227D01*
X17669037Y15687431D01*
X17663432Y15687651D01*
X17659771Y15688364D01*
X17654941Y15689892D01*
X17649891Y15690289D01*
X17649888Y15690290D01*
X17648963Y15690363D01*
X17648950Y15690363D01*
X17647216Y15690500D01*
X17592675Y15690500D01*
X17589180Y15690569D01*
X17540355Y15692488D01*
X17540352Y15692488D01*
X17533702Y15692749D01*
X17527266Y15691043D01*
X17527216Y15691037D01*
X17517450Y15690500D01*
X17447242Y15690500D01*
X17393062Y15708892D01*
X17325384Y15760823D01*
X17325380Y15760825D01*
X17320750Y15764378D01*
X17174715Y15824868D01*
X17018000Y15845500D01*
X16861285Y15824868D01*
X16715250Y15764378D01*
X16589847Y15668153D01*
X16586292Y15663520D01*
X16519004Y15575828D01*
X16493622Y15542750D01*
X16433132Y15396715D01*
X16412500Y15240000D01*
X16433132Y15083285D01*
X16493622Y14937250D01*
X16589847Y14811847D01*
X16594480Y14808292D01*
X16638493Y14774520D01*
X16715250Y14715622D01*
X16720635Y14713391D01*
X16720641Y14713388D01*
X16742629Y14704281D01*
X16787515Y14663152D01*
X16795461Y14602793D01*
X16779181Y14567879D01*
X16747622Y14526750D01*
X16687132Y14380715D01*
X16686371Y14374932D01*
X16684860Y14369295D01*
X16682322Y14369975D01*
X16658742Y14324706D01*
X16602491Y14301422D01*
X16535698Y14327405D01*
X9230680Y21632422D01*
X9223719Y21640255D01*
X9205929Y21662821D01*
X9201811Y21668045D01*
X9196340Y21671827D01*
X9196338Y21671828D01*
X9153056Y21701742D01*
X9150781Y21703368D01*
X9108495Y21734601D01*
X9108496Y21734601D01*
X9103142Y21738555D01*
X9097083Y21740682D01*
X9095676Y21741399D01*
X9090392Y21745052D01*
X9033892Y21762921D01*
X9031242Y21763805D01*
X8981629Y21781227D01*
X8981628Y21781227D01*
X8975352Y21783431D01*
X8969747Y21783651D01*
X8966086Y21784364D01*
X8961256Y21785892D01*
X8956206Y21786289D01*
X8956203Y21786290D01*
X8955278Y21786363D01*
X8955265Y21786363D01*
X8953531Y21786500D01*
X8898990Y21786500D01*
X8895495Y21786569D01*
X8846670Y21788488D01*
X8846667Y21788488D01*
X8840017Y21788749D01*
X8833581Y21787043D01*
X8833531Y21787037D01*
X8823765Y21786500D01*
X1953242Y21786500D01*
X1899062Y21804892D01*
X1831384Y21856823D01*
X1831380Y21856825D01*
X1826750Y21860378D01*
X1680715Y21920868D01*
X1524000Y21941500D01*
X1367285Y21920868D01*
X1221250Y21860378D01*
X1095847Y21764153D01*
X1092292Y21759520D01*
X1025004Y21671828D01*
X999622Y21638750D01*
X939132Y21492715D01*
X918500Y21336000D01*
X454000Y21336000D01*
X454000Y28466529D01*
X2353788Y28466529D01*
X2391085Y28219914D01*
X2467331Y27982436D01*
X2468950Y27979259D01*
X2468951Y27979256D01*
X2483678Y27950353D01*
X2580565Y27760202D01*
X2658104Y27654259D01*
X2723968Y27564267D01*
X2727873Y27558931D01*
X2763557Y27523742D01*
X2902918Y27386312D01*
X2902923Y27386308D01*
X2905465Y27383801D01*
X3108773Y27239317D01*
X3332566Y27129198D01*
X3335977Y27128155D01*
X3335980Y27128154D01*
X3535595Y27067126D01*
X3571087Y27056275D01*
X3818198Y27022425D01*
X3821782Y27022513D01*
X3823546Y27022414D01*
X3879504Y26998435D01*
X3906957Y26944096D01*
X3881517Y26870619D01*
X3005569Y25994671D01*
X2997735Y25987711D01*
X2975181Y25969931D01*
X2975178Y25969927D01*
X2969956Y25965811D01*
X2966176Y25960343D01*
X2966175Y25960341D01*
X2936263Y25917062D01*
X2934637Y25914788D01*
X2899445Y25867142D01*
X2897316Y25861077D01*
X2896603Y25859678D01*
X2892949Y25854392D01*
X2877848Y25806645D01*
X2875089Y25797920D01*
X2874205Y25795270D01*
X2865356Y25770069D01*
X2854569Y25739352D01*
X2854349Y25733734D01*
X2853639Y25730093D01*
X2852109Y25725256D01*
X2851501Y25717531D01*
X2851501Y25663014D01*
X2851432Y25659519D01*
X2850572Y25637622D01*
X2849251Y25604017D01*
X2850958Y25597581D01*
X2850964Y25597522D01*
X2851501Y25587756D01*
X2851500Y24872628D01*
X2851500Y24161277D01*
X2850883Y24150816D01*
X2846726Y24115693D01*
X2847921Y24109150D01*
X2857365Y24057440D01*
X2857824Y24054683D01*
X2866636Y23996066D01*
X2869416Y23990276D01*
X2869906Y23988766D01*
X2871059Y23982456D01*
X2874125Y23976553D01*
X2874126Y23976551D01*
X2898363Y23929892D01*
X2899612Y23927392D01*
X2922381Y23879977D01*
X2925265Y23873972D01*
X2929081Y23869845D01*
X2931154Y23866768D01*
X2933493Y23862264D01*
X2936786Y23858409D01*
X2936788Y23858406D01*
X2937395Y23857696D01*
X2938526Y23856372D01*
X2977082Y23817816D01*
X2979504Y23815296D01*
X3017202Y23774514D01*
X3022959Y23771170D01*
X3023003Y23771135D01*
X3030291Y23764607D01*
X3314201Y23480696D01*
X3596325Y23198572D01*
X3603285Y23190739D01*
X3621068Y23168182D01*
X3625189Y23162955D01*
X3630661Y23159173D01*
X3630662Y23159172D01*
X3673928Y23129269D01*
X3676203Y23127643D01*
X3718503Y23096399D01*
X3718506Y23096398D01*
X3723857Y23092445D01*
X3729916Y23090317D01*
X3731325Y23089600D01*
X3736608Y23085948D01*
X3793140Y23068070D01*
X3795765Y23067193D01*
X3845365Y23049775D01*
X3845368Y23049775D01*
X3851648Y23047569D01*
X3857253Y23047349D01*
X3860914Y23046636D01*
X3865744Y23045108D01*
X3870794Y23044711D01*
X3870797Y23044710D01*
X3871722Y23044637D01*
X3871735Y23044637D01*
X3873469Y23044500D01*
X3928011Y23044500D01*
X3931506Y23044431D01*
X3980331Y23042512D01*
X3980334Y23042512D01*
X3986984Y23042251D01*
X3993420Y23043957D01*
X3993470Y23043963D01*
X4003236Y23044500D01*
X5920758Y23044500D01*
X5974938Y23026108D01*
X6042616Y22974177D01*
X6042620Y22974175D01*
X6047250Y22970622D01*
X6193285Y22910132D01*
X6350000Y22889500D01*
X6506715Y22910132D01*
X6652750Y22970622D01*
X6778153Y23066847D01*
X6847832Y23157654D01*
X6870827Y23187622D01*
X6870828Y23187623D01*
X6874378Y23192250D01*
X6934868Y23338285D01*
X6955500Y23495000D01*
X6934868Y23651715D01*
X6874378Y23797750D01*
X6860915Y23815296D01*
X6781708Y23918520D01*
X6778153Y23923153D01*
X6691616Y23989555D01*
X6657378Y24015827D01*
X6657377Y24015828D01*
X6652750Y24019378D01*
X6506715Y24079868D01*
X6350000Y24100500D01*
X6193285Y24079868D01*
X6187894Y24077635D01*
X6132479Y24054681D01*
X6047250Y24019378D01*
X6042620Y24015825D01*
X6042616Y24015823D01*
X5974938Y23963892D01*
X5920758Y23945500D01*
X4160468Y23945500D01*
X4097536Y23971567D01*
X3778568Y24290534D01*
X3752500Y24353467D01*
X3752500Y25318912D01*
X4887176Y25318912D01*
X4926748Y25154082D01*
X5004495Y25003450D01*
X5115928Y24875711D01*
X5120315Y24872628D01*
X5243510Y24786045D01*
X5254615Y24778240D01*
X5412549Y24716665D01*
X5451087Y24711591D01*
X5540041Y24699880D01*
X5540046Y24699880D01*
X5542930Y24699500D01*
X9324980Y24699500D01*
X9387913Y24673432D01*
X10977402Y23083942D01*
X15742809Y18318534D01*
X15746943Y18314108D01*
X15783928Y18271711D01*
X15836381Y18234847D01*
X15840119Y18232070D01*
X15890531Y18192542D01*
X15899766Y18188372D01*
X15914313Y18180074D01*
X15918224Y18177325D01*
X15918231Y18177321D01*
X15922615Y18174240D01*
X15927609Y18172293D01*
X15982333Y18150957D01*
X15986629Y18149151D01*
X16045025Y18122784D01*
X16055000Y18120935D01*
X16071098Y18116349D01*
X16075544Y18114616D01*
X16075546Y18114615D01*
X16080549Y18112665D01*
X16085873Y18111964D01*
X16085877Y18111963D01*
X16144097Y18104297D01*
X16148696Y18103569D01*
X16189558Y18095997D01*
X16211701Y18091893D01*
X16217062Y18092202D01*
X16217064Y18092202D01*
X16271690Y18095352D01*
X16276813Y18095500D01*
X24933317Y18095500D01*
X25060285Y18110865D01*
X25218855Y18170783D01*
X25276100Y18210126D01*
X25354131Y18263755D01*
X25354135Y18263759D01*
X25358556Y18266797D01*
X25366536Y18275753D01*
X25467751Y18389355D01*
X25471321Y18393362D01*
X25550641Y18543171D01*
X25591937Y18707577D01*
X25592824Y18877088D01*
X25553252Y19041918D01*
X25475505Y19192550D01*
X25364072Y19320289D01*
X25225385Y19417760D01*
X25067451Y19479335D01*
X25028913Y19484409D01*
X24939959Y19496120D01*
X24939954Y19496120D01*
X24937070Y19496500D01*
X16583022Y19496500D01*
X16520090Y19522567D01*
X10799197Y25243459D01*
X23300041Y25243459D01*
X23320673Y25086744D01*
X23381163Y24940709D01*
X23477388Y24815306D01*
X23482021Y24811751D01*
X23559665Y24752173D01*
X23602791Y24719081D01*
X23748826Y24658591D01*
X23905541Y24637959D01*
X24062256Y24658591D01*
X24208291Y24719081D01*
X24251418Y24752173D01*
X24329061Y24811751D01*
X24333694Y24815306D01*
X24429919Y24940709D01*
X24449664Y24988377D01*
X24490794Y25033262D01*
X24551153Y25041208D01*
X24614114Y24988376D01*
X24621622Y24970250D01*
X24625172Y24965623D01*
X24625173Y24965622D01*
X24647841Y24936081D01*
X24717847Y24844847D01*
X24722480Y24841292D01*
X24817191Y24768618D01*
X24843250Y24748622D01*
X24989285Y24688132D01*
X25146000Y24667500D01*
X25302715Y24688132D01*
X25448750Y24748622D01*
X25474810Y24768618D01*
X25569520Y24841292D01*
X25574153Y24844847D01*
X25644159Y24936081D01*
X25666827Y24965622D01*
X25666828Y24965623D01*
X25670378Y24970250D01*
X25730868Y25116285D01*
X25751500Y25273000D01*
X25740354Y25357664D01*
X27422934Y25357664D01*
X27454499Y25067106D01*
X27524215Y24783274D01*
X27630856Y24511157D01*
X27632286Y24508576D01*
X27632289Y24508571D01*
X27771117Y24258119D01*
X27771121Y24258113D01*
X27772551Y24255533D01*
X27774308Y24253167D01*
X27774312Y24253161D01*
X27842552Y24161277D01*
X27946808Y24020896D01*
X28035306Y23929892D01*
X28144295Y23817816D01*
X28150567Y23811366D01*
X28380248Y23630625D01*
X28631815Y23481848D01*
X28900849Y23367650D01*
X28903689Y23366868D01*
X28903694Y23366866D01*
X29179782Y23290819D01*
X29179790Y23290817D01*
X29182623Y23290037D01*
X29185537Y23289638D01*
X29185541Y23289637D01*
X29430263Y23256114D01*
X29472187Y23250371D01*
X29618320Y23249861D01*
X29761492Y23249361D01*
X29761497Y23249361D01*
X29764453Y23249351D01*
X30054287Y23286994D01*
X30294349Y23351318D01*
X30333741Y23361873D01*
X30336596Y23362638D01*
X30339317Y23363771D01*
X30339321Y23363772D01*
X30479813Y23422254D01*
X30606421Y23474956D01*
X30608976Y23476443D01*
X30608980Y23476445D01*
X30732721Y23548464D01*
X30859020Y23621972D01*
X30889909Y23645932D01*
X31087624Y23799295D01*
X31087627Y23799298D01*
X31089957Y23801105D01*
X31205744Y23918520D01*
X31293107Y24007111D01*
X31293113Y24007118D01*
X31295174Y24009208D01*
X31471065Y24242623D01*
X31614541Y24497251D01*
X31621204Y24513908D01*
X31670820Y24637959D01*
X31723080Y24768618D01*
X31794775Y25051955D01*
X31828368Y25342286D01*
X31831000Y25450000D01*
X31830865Y25452034D01*
X31811826Y25738681D01*
X31811825Y25738688D01*
X31811630Y25741625D01*
X31753861Y26028127D01*
X31747745Y26045891D01*
X31659670Y26301678D01*
X31658708Y26304472D01*
X31527843Y26565804D01*
X31510555Y26591242D01*
X31365227Y26805088D01*
X31365222Y26805095D01*
X31363564Y26807534D01*
X31307160Y26870619D01*
X31170729Y27023208D01*
X31170726Y27023211D01*
X31168758Y27025412D01*
X31133315Y27055791D01*
X31015534Y27156741D01*
X30946847Y27215613D01*
X30944387Y27217211D01*
X30944381Y27217215D01*
X30704199Y27373190D01*
X30701731Y27374793D01*
X30437715Y27500157D01*
X30434909Y27501058D01*
X30162245Y27588601D01*
X30162242Y27588602D01*
X30159438Y27589502D01*
X29939672Y27629044D01*
X29874697Y27640735D01*
X29874694Y27640735D01*
X29871789Y27641258D01*
X29579822Y27654516D01*
X29576885Y27654259D01*
X29576883Y27654259D01*
X29472208Y27645101D01*
X29288666Y27629044D01*
X29003437Y27565287D01*
X28923443Y27535855D01*
X28731914Y27465387D01*
X28731907Y27465384D01*
X28729146Y27464368D01*
X28726539Y27462993D01*
X28726538Y27462993D01*
X28473220Y27329434D01*
X28473215Y27329431D01*
X28470611Y27328058D01*
X28232375Y27158753D01*
X28230220Y27156744D01*
X28230217Y27156741D01*
X28020786Y26961443D01*
X28020779Y26961436D01*
X28018624Y26959426D01*
X27833113Y26733581D01*
X27679101Y26485185D01*
X27677892Y26482496D01*
X27677892Y26482495D01*
X27578090Y26260425D01*
X27559293Y26218601D01*
X27558451Y26215775D01*
X27482945Y25962494D01*
X27475796Y25938514D01*
X27430075Y25649845D01*
X27427410Y25540820D01*
X27423832Y25394391D01*
X27422934Y25357664D01*
X25740354Y25357664D01*
X25730868Y25429715D01*
X25670378Y25575750D01*
X25661166Y25587756D01*
X25577708Y25696520D01*
X25574153Y25701153D01*
X25527938Y25736615D01*
X25453378Y25793827D01*
X25453377Y25793828D01*
X25448750Y25797378D01*
X25311107Y25854392D01*
X25308106Y25855635D01*
X25302715Y25857868D01*
X25146000Y25878500D01*
X24989285Y25857868D01*
X24983894Y25855635D01*
X24980893Y25854392D01*
X24843250Y25797378D01*
X24838623Y25793828D01*
X24838622Y25793827D01*
X24764062Y25736615D01*
X24717847Y25701153D01*
X24714292Y25696520D01*
X24630835Y25587756D01*
X24621622Y25575750D01*
X24619390Y25570361D01*
X24601877Y25528082D01*
X24560747Y25483197D01*
X24500388Y25475251D01*
X24437427Y25528083D01*
X24429919Y25546209D01*
X24422023Y25556500D01*
X24337249Y25666979D01*
X24333694Y25671612D01*
X24252237Y25734116D01*
X24212919Y25764286D01*
X24212918Y25764287D01*
X24208291Y25767837D01*
X24062256Y25828327D01*
X23905541Y25848959D01*
X23748826Y25828327D01*
X23602791Y25767837D01*
X23598164Y25764287D01*
X23598163Y25764286D01*
X23558845Y25734116D01*
X23477388Y25671612D01*
X23473833Y25666979D01*
X23389060Y25556500D01*
X23381163Y25546209D01*
X23320673Y25400174D01*
X23300041Y25243459D01*
X10799197Y25243459D01*
X10165206Y25877449D01*
X10161071Y25881876D01*
X10127598Y25920247D01*
X10124072Y25924289D01*
X10071623Y25961151D01*
X10067882Y25963929D01*
X10021691Y26000148D01*
X10021689Y26000149D01*
X10017468Y26003459D01*
X10012577Y26005667D01*
X10012574Y26005669D01*
X10008237Y26007627D01*
X9993685Y26015926D01*
X9985385Y26021760D01*
X9980385Y26023710D01*
X9980380Y26023712D01*
X9925661Y26045045D01*
X9921376Y26046846D01*
X9862973Y26073216D01*
X9857705Y26074192D01*
X9857703Y26074193D01*
X9853007Y26075063D01*
X9836899Y26079652D01*
X9832453Y26081385D01*
X9832452Y26081385D01*
X9827451Y26083335D01*
X9763902Y26091701D01*
X9759306Y26092429D01*
X9717497Y26100178D01*
X9701576Y26103129D01*
X9701574Y26103129D01*
X9696298Y26104107D01*
X9690937Y26103798D01*
X9690936Y26103798D01*
X9636310Y26100648D01*
X9631187Y26100500D01*
X5546683Y26100500D01*
X5419715Y26085135D01*
X5261145Y26025217D01*
X5211305Y25990963D01*
X5125869Y25932245D01*
X5125865Y25932241D01*
X5121444Y25929203D01*
X5117873Y25925194D01*
X5117872Y25925194D01*
X5110627Y25917062D01*
X5008679Y25802638D01*
X5006169Y25797897D01*
X5006168Y25797896D01*
X4934752Y25663014D01*
X4929359Y25652829D01*
X4888063Y25488423D01*
X4887176Y25318912D01*
X3752500Y25318912D01*
X3752500Y25430533D01*
X3778568Y25493466D01*
X4732536Y26447433D01*
X4795468Y26473500D01*
X22828723Y26473500D01*
X22839184Y26472883D01*
X22874307Y26468726D01*
X22932556Y26479364D01*
X22935314Y26479823D01*
X22987358Y26487647D01*
X22987359Y26487647D01*
X22993935Y26488636D01*
X22999728Y26491418D01*
X23001229Y26491906D01*
X23007544Y26493059D01*
X23060109Y26520364D01*
X23062607Y26521612D01*
X23110032Y26544385D01*
X23110033Y26544386D01*
X23116029Y26547265D01*
X23120158Y26551082D01*
X23123233Y26553155D01*
X23127736Y26555493D01*
X23131591Y26558786D01*
X23131594Y26558788D01*
X23132304Y26559395D01*
X23133628Y26560526D01*
X23172178Y26599076D01*
X23174698Y26601498D01*
X23194419Y26619728D01*
X23215486Y26639202D01*
X23218830Y26644959D01*
X23218865Y26645003D01*
X23225393Y26652291D01*
X28717031Y32143928D01*
X28768346Y32169234D01*
X28812428Y32175038D01*
X28858715Y32181132D01*
X29004750Y32241622D01*
X29012785Y32247787D01*
X29125520Y32334292D01*
X29130153Y32337847D01*
X29215638Y32449253D01*
X29222827Y32458622D01*
X29222828Y32458623D01*
X29226378Y32463250D01*
X29286868Y32609285D01*
X29307500Y32766000D01*
X29286868Y32922715D01*
X29226378Y33068750D01*
X29201551Y33101106D01*
X29133708Y33189520D01*
X29130153Y33194153D01*
X29033627Y33268220D01*
X29009378Y33286827D01*
X29009377Y33286828D01*
X29004750Y33290378D01*
X28858715Y33350868D01*
X28702000Y33371500D01*
X28545285Y33350868D01*
X28399250Y33290378D01*
X28394623Y33286828D01*
X28394622Y33286827D01*
X28370373Y33268220D01*
X28273847Y33194153D01*
X28270292Y33189520D01*
X28202450Y33101106D01*
X28177622Y33068750D01*
X28117132Y32922715D01*
X28112921Y32890727D01*
X28105235Y32832347D01*
X28079929Y32781032D01*
X22699466Y27400568D01*
X22636533Y27374500D01*
X5109519Y27374500D01*
X5052311Y27395322D01*
X5021871Y27448045D01*
X5044007Y27523742D01*
X5130357Y27617646D01*
X5267657Y27825873D01*
X5369899Y28053373D01*
X5434454Y28294293D01*
X5459659Y28542435D01*
X5459805Y28556390D01*
X5459979Y28572970D01*
X5459979Y28572976D01*
X5460000Y28575000D01*
X5439997Y28823615D01*
X5380502Y29065834D01*
X5373216Y29083000D01*
X10951500Y29083000D01*
X10972132Y28926285D01*
X11032622Y28780250D01*
X11128847Y28654847D01*
X11254250Y28558622D01*
X11400285Y28498132D01*
X11557000Y28477500D01*
X11713715Y28498132D01*
X11859750Y28558622D01*
X11985153Y28654847D01*
X12081378Y28780250D01*
X12141868Y28926285D01*
X12153766Y29016655D01*
X12179073Y29067971D01*
X15282432Y32171329D01*
X15290265Y32178289D01*
X15312819Y32196069D01*
X15312820Y32196070D01*
X15318045Y32200189D01*
X15337812Y32228790D01*
X15351737Y32248937D01*
X15353343Y32251186D01*
X15388554Y32298857D01*
X15390681Y32304913D01*
X15391397Y32306320D01*
X15395052Y32311608D01*
X15412933Y32368148D01*
X15413815Y32370791D01*
X15418597Y32384406D01*
X15433431Y32426647D01*
X15433651Y32432257D01*
X15434363Y32435911D01*
X15435892Y32440744D01*
X15436500Y32448469D01*
X15436500Y32503026D01*
X15436569Y32506520D01*
X15438487Y32555332D01*
X15438487Y32555334D01*
X15438748Y32561983D01*
X15437043Y32568415D01*
X15437037Y32568467D01*
X15436500Y32578231D01*
X15436500Y36543531D01*
X15457322Y36600739D01*
X15510045Y36631179D01*
X15588433Y36606464D01*
X15906433Y36288464D01*
X15932500Y36225531D01*
X15932501Y29512242D01*
X15914109Y29458062D01*
X15858622Y29385750D01*
X15798132Y29239715D01*
X15777500Y29083000D01*
X15798132Y28926285D01*
X15858622Y28780250D01*
X15954847Y28654847D01*
X16080250Y28558622D01*
X16226285Y28498132D01*
X16383000Y28477500D01*
X16539715Y28498132D01*
X16685750Y28558622D01*
X16811153Y28654847D01*
X16907378Y28780250D01*
X16967868Y28926285D01*
X16988500Y29083000D01*
X16967868Y29239715D01*
X16943538Y29298453D01*
X16909612Y29380357D01*
X16909610Y29380361D01*
X16907378Y29385750D01*
X16903825Y29390380D01*
X16903823Y29390384D01*
X16851892Y29458062D01*
X16833500Y29512242D01*
X16833500Y33479000D01*
X17754477Y33479000D01*
X17775109Y33322285D01*
X17835599Y33176250D01*
X17839149Y33171623D01*
X17839150Y33171622D01*
X17862478Y33141220D01*
X17931824Y33050847D01*
X17936457Y33047292D01*
X17966019Y33024608D01*
X17998729Y32973263D01*
X17990783Y32912904D01*
X17966019Y32883392D01*
X17931824Y32857153D01*
X17928269Y32852520D01*
X17849313Y32749622D01*
X17835599Y32731750D01*
X17775109Y32585715D01*
X17754477Y32429000D01*
X17775109Y32272285D01*
X17835599Y32126250D01*
X17839149Y32121623D01*
X17839150Y32121622D01*
X17872669Y32077939D01*
X17931824Y32000847D01*
X18057227Y31904622D01*
X18203262Y31844132D01*
X18359977Y31823500D01*
X18516692Y31844132D01*
X18662727Y31904622D01*
X18788130Y32000847D01*
X18847285Y32077939D01*
X18880804Y32121622D01*
X18880805Y32121623D01*
X18884355Y32126250D01*
X18944845Y32272285D01*
X18965477Y32429000D01*
X18944845Y32585715D01*
X18884355Y32731750D01*
X18870642Y32749622D01*
X18791685Y32852520D01*
X18788130Y32857153D01*
X18753935Y32883392D01*
X18721225Y32934737D01*
X18729171Y32995096D01*
X18753935Y33024608D01*
X18783497Y33047292D01*
X18788130Y33050847D01*
X18857476Y33141220D01*
X18880804Y33171622D01*
X18880805Y33171623D01*
X18884355Y33176250D01*
X18944845Y33322285D01*
X18965477Y33479000D01*
X18944845Y33635715D01*
X18884355Y33781750D01*
X18788130Y33907153D01*
X18662727Y34003378D01*
X18516692Y34063868D01*
X18359977Y34084500D01*
X18203262Y34063868D01*
X18057227Y34003378D01*
X17931824Y33907153D01*
X17835599Y33781750D01*
X17775109Y33635715D01*
X17754477Y33479000D01*
X16833500Y33479000D01*
X16833500Y36417718D01*
X16834117Y36428176D01*
X16835261Y36437844D01*
X16862661Y36492209D01*
X16918596Y36516243D01*
X16986576Y36490319D01*
X19014330Y34462565D01*
X19021282Y34454740D01*
X19039065Y34432183D01*
X19043186Y34426956D01*
X19048657Y34423174D01*
X19048659Y34423173D01*
X19091934Y34393264D01*
X19094183Y34391658D01*
X19141854Y34356447D01*
X19147910Y34354320D01*
X19149317Y34353604D01*
X19154605Y34349949D01*
X19211145Y34332068D01*
X19213777Y34331190D01*
X19269644Y34311570D01*
X19275254Y34311350D01*
X19278908Y34310638D01*
X19283741Y34309109D01*
X19288791Y34308712D01*
X19288794Y34308711D01*
X19289719Y34308638D01*
X19289732Y34308638D01*
X19291466Y34308501D01*
X19346023Y34308501D01*
X19349517Y34308432D01*
X19398329Y34306514D01*
X19398331Y34306514D01*
X19404980Y34306253D01*
X19411412Y34307958D01*
X19411464Y34307964D01*
X19421228Y34308501D01*
X20516532Y34308501D01*
X20579465Y34282433D01*
X23126928Y31734969D01*
X23152234Y31683654D01*
X23164132Y31593285D01*
X23224622Y31447250D01*
X23320847Y31321847D01*
X23446250Y31225622D01*
X23592285Y31165132D01*
X23749000Y31144500D01*
X23905715Y31165132D01*
X24051750Y31225622D01*
X24177153Y31321847D01*
X24273378Y31447250D01*
X24333868Y31593285D01*
X24350144Y31716914D01*
X24378255Y31770915D01*
X24450000Y31793536D01*
X24511443Y31785447D01*
X24517223Y31784686D01*
X24673938Y31805318D01*
X24819973Y31865808D01*
X24870557Y31904622D01*
X24940743Y31958478D01*
X24945376Y31962033D01*
X24978714Y32005480D01*
X25038050Y32082808D01*
X25038051Y32082809D01*
X25041601Y32087436D01*
X25102091Y32233471D01*
X25122723Y32390186D01*
X25102091Y32546901D01*
X25041601Y32692936D01*
X25010297Y32733733D01*
X24948931Y32813706D01*
X24945376Y32818339D01*
X24890160Y32860708D01*
X24824601Y32911013D01*
X24824600Y32911014D01*
X24819973Y32914564D01*
X24673938Y32975054D01*
X24625721Y32981402D01*
X24583569Y32986952D01*
X24532254Y33012258D01*
X22238512Y35306000D01*
X24032500Y35306000D01*
X24053132Y35149285D01*
X24113622Y35003250D01*
X24117172Y34998623D01*
X24117173Y34998622D01*
X24150445Y34955261D01*
X24209847Y34877847D01*
X24214480Y34874292D01*
X24295747Y34811934D01*
X24335250Y34781622D01*
X24481285Y34721132D01*
X24638000Y34700500D01*
X24794715Y34721132D01*
X24940750Y34781622D01*
X24980254Y34811934D01*
X25061520Y34874292D01*
X25066153Y34877847D01*
X25125555Y34955261D01*
X25158827Y34998622D01*
X25158828Y34998623D01*
X25162378Y35003250D01*
X25222868Y35149285D01*
X25243500Y35306000D01*
X25222868Y35462715D01*
X25162378Y35608750D01*
X25066153Y35734153D01*
X24940750Y35830378D01*
X24794715Y35890868D01*
X24638000Y35911500D01*
X24481285Y35890868D01*
X24335250Y35830378D01*
X24209847Y35734153D01*
X24113622Y35608750D01*
X24053132Y35462715D01*
X24032500Y35306000D01*
X22238512Y35306000D01*
X21688089Y35856422D01*
X21681128Y35864255D01*
X21678666Y35867378D01*
X21659220Y35892045D01*
X21653749Y35895827D01*
X21653747Y35895828D01*
X21610465Y35925742D01*
X21608190Y35927368D01*
X21565904Y35958601D01*
X21565905Y35958601D01*
X21560551Y35962555D01*
X21554492Y35964682D01*
X21553085Y35965399D01*
X21547801Y35969052D01*
X21491301Y35986921D01*
X21488651Y35987805D01*
X21439038Y36005227D01*
X21439037Y36005227D01*
X21432761Y36007431D01*
X21427156Y36007651D01*
X21423495Y36008364D01*
X21418665Y36009892D01*
X21413615Y36010289D01*
X21413612Y36010290D01*
X21412687Y36010363D01*
X21412674Y36010363D01*
X21410940Y36010500D01*
X21356399Y36010500D01*
X21352904Y36010569D01*
X21304079Y36012488D01*
X21304076Y36012488D01*
X21297426Y36012749D01*
X21290990Y36011043D01*
X21290940Y36011037D01*
X21281174Y36010500D01*
X19781469Y36010500D01*
X19718537Y36036567D01*
X16639103Y39116000D01*
X33264500Y39116000D01*
X33285132Y38959285D01*
X33345622Y38813250D01*
X33349172Y38808623D01*
X33349173Y38808622D01*
X33369080Y38782679D01*
X33441847Y38687847D01*
X33446480Y38684292D01*
X33558812Y38598097D01*
X33567250Y38591622D01*
X33713285Y38531132D01*
X33870000Y38510500D01*
X34026715Y38531132D01*
X34172750Y38591622D01*
X34181189Y38598097D01*
X34293520Y38684292D01*
X34298153Y38687847D01*
X34370920Y38782679D01*
X34390827Y38808622D01*
X34390828Y38808623D01*
X34394378Y38813250D01*
X34454868Y38959285D01*
X34475500Y39116000D01*
X34454868Y39272715D01*
X34394378Y39418750D01*
X34389994Y39424464D01*
X34301708Y39539520D01*
X34298153Y39544153D01*
X34237814Y39590453D01*
X34177378Y39636827D01*
X34177377Y39636828D01*
X34172750Y39640378D01*
X34026715Y39700868D01*
X33870000Y39721500D01*
X33713285Y39700868D01*
X33567250Y39640378D01*
X33562623Y39636828D01*
X33562622Y39636827D01*
X33502186Y39590453D01*
X33441847Y39544153D01*
X33438292Y39539520D01*
X33350007Y39424464D01*
X33345622Y39418750D01*
X33285132Y39272715D01*
X33264500Y39116000D01*
X16639103Y39116000D01*
X16111480Y39643622D01*
X16111474Y39643629D01*
X15208568Y40546534D01*
X15182500Y40609467D01*
X15182500Y40779989D01*
X16158500Y40779989D01*
X16179132Y40623274D01*
X16239622Y40477239D01*
X16243172Y40472612D01*
X16243173Y40472611D01*
X16255443Y40456621D01*
X16335847Y40351836D01*
X16340480Y40348281D01*
X16451183Y40263336D01*
X16461250Y40255611D01*
X16607285Y40195121D01*
X16764000Y40174489D01*
X16920715Y40195121D01*
X17066750Y40255611D01*
X17076818Y40263336D01*
X17187520Y40348281D01*
X17192153Y40351836D01*
X17272557Y40456621D01*
X17284827Y40472611D01*
X17284828Y40472612D01*
X17288378Y40477239D01*
X17348868Y40623274D01*
X17369500Y40779989D01*
X17348868Y40936704D01*
X17288378Y41082739D01*
X17252582Y41129390D01*
X17238302Y41148000D01*
X18190500Y41148000D01*
X18211132Y40991285D01*
X18271622Y40845250D01*
X18275172Y40840623D01*
X18275173Y40840622D01*
X18295203Y40814519D01*
X18367847Y40719847D01*
X18372480Y40716292D01*
X18473792Y40638553D01*
X18493250Y40623622D01*
X18639285Y40563132D01*
X18796000Y40542500D01*
X18952715Y40563132D01*
X19098750Y40623622D01*
X19118209Y40638553D01*
X19219520Y40716292D01*
X19224153Y40719847D01*
X19296797Y40814519D01*
X19316827Y40840622D01*
X19316828Y40840623D01*
X19320378Y40845250D01*
X19380868Y40991285D01*
X19401500Y41148000D01*
X19380868Y41304715D01*
X19340572Y41402000D01*
X20476500Y41402000D01*
X20497132Y41245285D01*
X20557622Y41099250D01*
X20561172Y41094623D01*
X20561173Y41094622D01*
X20594445Y41051261D01*
X20653847Y40973847D01*
X20658480Y40970292D01*
X20766003Y40887787D01*
X20779250Y40877622D01*
X20925285Y40817132D01*
X21082000Y40796500D01*
X21238715Y40817132D01*
X21384750Y40877622D01*
X21397998Y40887787D01*
X21505520Y40970292D01*
X21510153Y40973847D01*
X21569555Y41051261D01*
X21602827Y41094622D01*
X21602828Y41094623D01*
X21606378Y41099250D01*
X21666868Y41245285D01*
X21687500Y41402000D01*
X21666868Y41558715D01*
X21647614Y41605200D01*
X32414500Y41605200D01*
X32435132Y41448485D01*
X32495622Y41302450D01*
X32591847Y41177047D01*
X32596480Y41173492D01*
X32709848Y41086502D01*
X32717250Y41080822D01*
X32863285Y41020332D01*
X33020000Y40999700D01*
X33176715Y41020332D01*
X33322750Y41080822D01*
X33330153Y41086502D01*
X33443520Y41173492D01*
X33448153Y41177047D01*
X33544378Y41302450D01*
X33604868Y41448485D01*
X33625500Y41605200D01*
X33618813Y41656000D01*
X33938500Y41656000D01*
X33959132Y41499285D01*
X34019622Y41353250D01*
X34023172Y41348623D01*
X34023173Y41348622D01*
X34098029Y41251068D01*
X34115847Y41227847D01*
X34120480Y41224292D01*
X34179282Y41179172D01*
X34241250Y41131622D01*
X34350179Y41086502D01*
X34372274Y41077350D01*
X34387285Y41071132D01*
X34544000Y41050500D01*
X34700715Y41071132D01*
X34715727Y41077350D01*
X34737821Y41086502D01*
X34846750Y41131622D01*
X34908719Y41179172D01*
X34967520Y41224292D01*
X34972153Y41227847D01*
X34989971Y41251068D01*
X35064827Y41348622D01*
X35064828Y41348623D01*
X35068378Y41353250D01*
X35128868Y41499285D01*
X35149500Y41656000D01*
X35128868Y41812715D01*
X35068378Y41958750D01*
X35046219Y41987629D01*
X34975708Y42079520D01*
X34972153Y42084153D01*
X34846750Y42180378D01*
X34700715Y42240868D01*
X34544000Y42261500D01*
X34387285Y42240868D01*
X34241250Y42180378D01*
X34115847Y42084153D01*
X34112292Y42079520D01*
X34041782Y41987629D01*
X34019622Y41958750D01*
X33959132Y41812715D01*
X33938500Y41656000D01*
X33618813Y41656000D01*
X33604868Y41761915D01*
X33544378Y41907950D01*
X33532963Y41922827D01*
X33451708Y42028720D01*
X33448153Y42033353D01*
X33322750Y42129578D01*
X33176715Y42190068D01*
X33020000Y42210700D01*
X32863285Y42190068D01*
X32717250Y42129578D01*
X32591847Y42033353D01*
X32588292Y42028720D01*
X32507038Y41922827D01*
X32495622Y41907950D01*
X32435132Y41761915D01*
X32414500Y41605200D01*
X21647614Y41605200D01*
X21606378Y41704750D01*
X21584219Y41733629D01*
X21513708Y41825520D01*
X21510153Y41830153D01*
X21449451Y41876731D01*
X21389378Y41922827D01*
X21389377Y41922828D01*
X21384750Y41926378D01*
X21238715Y41986868D01*
X21082000Y42007500D01*
X20925285Y41986868D01*
X20779250Y41926378D01*
X20774623Y41922828D01*
X20774622Y41922827D01*
X20714549Y41876731D01*
X20653847Y41830153D01*
X20650292Y41825520D01*
X20579782Y41733629D01*
X20557622Y41704750D01*
X20497132Y41558715D01*
X20476500Y41402000D01*
X19340572Y41402000D01*
X19320378Y41450750D01*
X19287273Y41493894D01*
X19227708Y41571520D01*
X19224153Y41576153D01*
X19098750Y41672378D01*
X18952715Y41732868D01*
X18796000Y41753500D01*
X18639285Y41732868D01*
X18493250Y41672378D01*
X18367847Y41576153D01*
X18364292Y41571520D01*
X18304728Y41493894D01*
X18271622Y41450750D01*
X18211132Y41304715D01*
X18190500Y41148000D01*
X17238302Y41148000D01*
X17195708Y41203509D01*
X17192153Y41208142D01*
X17124187Y41260294D01*
X17071378Y41300816D01*
X17071377Y41300817D01*
X17066750Y41304367D01*
X16946568Y41354148D01*
X16926106Y41362624D01*
X16920715Y41364857D01*
X16764000Y41385489D01*
X16607285Y41364857D01*
X16601894Y41362624D01*
X16581432Y41354148D01*
X16461250Y41304367D01*
X16456623Y41300817D01*
X16456622Y41300816D01*
X16403813Y41260294D01*
X16335847Y41208142D01*
X16332292Y41203509D01*
X16275419Y41129390D01*
X16239622Y41082739D01*
X16179132Y40936704D01*
X16158500Y40779989D01*
X15182500Y40779989D01*
X15182500Y42750758D01*
X15200892Y42804938D01*
X15252823Y42872616D01*
X15252825Y42872620D01*
X15256378Y42877250D01*
X15282214Y42939622D01*
X15314635Y43017894D01*
X15316868Y43023285D01*
X15337500Y43180000D01*
X15336739Y43185782D01*
X15329059Y43244119D01*
X15342236Y43303555D01*
X15390536Y43340616D01*
X15451357Y43337960D01*
X15480229Y43318668D01*
X15633928Y43164969D01*
X15659234Y43113654D01*
X15671132Y43023285D01*
X15731622Y42877250D01*
X15827847Y42751847D01*
X15953250Y42655622D01*
X16099285Y42595132D01*
X16256000Y42574500D01*
X16412715Y42595132D01*
X16558750Y42655622D01*
X16684153Y42751847D01*
X16780378Y42877250D01*
X16840868Y43023285D01*
X16861500Y43180000D01*
X16840868Y43336715D01*
X16788145Y43464000D01*
X19049500Y43464000D01*
X19070132Y43307285D01*
X19130622Y43161250D01*
X19226847Y43035847D01*
X19352250Y42939622D01*
X19498285Y42879132D01*
X19655000Y42858500D01*
X19811715Y42879132D01*
X19924863Y42926000D01*
X24032500Y42926000D01*
X24053132Y42769285D01*
X24113622Y42623250D01*
X24117172Y42618623D01*
X24117173Y42618622D01*
X24150445Y42575261D01*
X24209847Y42497847D01*
X24214480Y42494292D01*
X24275461Y42447500D01*
X24335250Y42401622D01*
X24481285Y42341132D01*
X24638000Y42320500D01*
X24794715Y42341132D01*
X24940750Y42401622D01*
X25000540Y42447500D01*
X25061520Y42494292D01*
X25066153Y42497847D01*
X25125555Y42575261D01*
X25158827Y42618622D01*
X25158828Y42618623D01*
X25162378Y42623250D01*
X25222868Y42769285D01*
X25243500Y42926000D01*
X25226781Y43053000D01*
X31144500Y43053000D01*
X31165132Y42896285D01*
X31225622Y42750250D01*
X31321847Y42624847D01*
X31326480Y42621292D01*
X31387461Y42574500D01*
X31447250Y42528622D01*
X31593285Y42468132D01*
X31750000Y42447500D01*
X31906715Y42468132D01*
X32052750Y42528622D01*
X32112540Y42574500D01*
X32173520Y42621292D01*
X32178153Y42624847D01*
X32274378Y42750250D01*
X32334868Y42896285D01*
X32355500Y43053000D01*
X32334868Y43209715D01*
X32274378Y43355750D01*
X32258541Y43376390D01*
X32181708Y43476520D01*
X32178153Y43481153D01*
X32113531Y43530739D01*
X32057378Y43573827D01*
X32057377Y43573828D01*
X32052750Y43577378D01*
X31906715Y43637868D01*
X31750000Y43658500D01*
X31593285Y43637868D01*
X31447250Y43577378D01*
X31442623Y43573828D01*
X31442622Y43573827D01*
X31386469Y43530739D01*
X31321847Y43481153D01*
X31318292Y43476520D01*
X31241460Y43376390D01*
X31225622Y43355750D01*
X31165132Y43209715D01*
X31144500Y43053000D01*
X25226781Y43053000D01*
X25222868Y43082715D01*
X25162378Y43228750D01*
X25066153Y43354153D01*
X24940750Y43450378D01*
X24794715Y43510868D01*
X24638000Y43531500D01*
X24481285Y43510868D01*
X24335250Y43450378D01*
X24209847Y43354153D01*
X24113622Y43228750D01*
X24053132Y43082715D01*
X24032500Y42926000D01*
X19924863Y42926000D01*
X19957750Y42939622D01*
X20083153Y43035847D01*
X20179378Y43161250D01*
X20239868Y43307285D01*
X20260500Y43464000D01*
X20239868Y43620715D01*
X20179378Y43766750D01*
X20173959Y43773813D01*
X20086708Y43887520D01*
X20083153Y43892153D01*
X20069017Y43903000D01*
X33684500Y43903000D01*
X33705132Y43746285D01*
X33765622Y43600250D01*
X33769172Y43595623D01*
X33769173Y43595622D01*
X33798048Y43557992D01*
X33861847Y43474847D01*
X33987250Y43378622D01*
X34133285Y43318132D01*
X34183123Y43311571D01*
X34223655Y43306234D01*
X34274971Y43280927D01*
X36534965Y41020932D01*
X36534968Y41020930D01*
X36534973Y41020925D01*
X38131433Y39424464D01*
X38157500Y39361532D01*
X38157501Y26591242D01*
X38139109Y26537062D01*
X38089863Y26472883D01*
X38083622Y26464750D01*
X38023132Y26318715D01*
X38002500Y26162000D01*
X38023132Y26005285D01*
X38083622Y25859250D01*
X38087172Y25854623D01*
X38087173Y25854622D01*
X38133823Y25793827D01*
X38179847Y25733847D01*
X38184480Y25730292D01*
X38292213Y25647626D01*
X38305250Y25637622D01*
X38406866Y25595531D01*
X38443449Y25580378D01*
X38451285Y25577132D01*
X38608000Y25556500D01*
X38764715Y25577132D01*
X38772552Y25580378D01*
X38809134Y25595531D01*
X38910750Y25637622D01*
X38923788Y25647626D01*
X39031520Y25730292D01*
X39036153Y25733847D01*
X39082177Y25793827D01*
X39128827Y25854622D01*
X39128828Y25854623D01*
X39132378Y25859250D01*
X39192868Y26005285D01*
X39213500Y26162000D01*
X39192868Y26318715D01*
X39132378Y26464750D01*
X39128825Y26469380D01*
X39128823Y26469384D01*
X39076892Y26537062D01*
X39058500Y26591242D01*
X39058500Y27704529D01*
X44708788Y27704529D01*
X44746085Y27457914D01*
X44747179Y27454507D01*
X44816776Y27237739D01*
X44822331Y27220436D01*
X44823950Y27217259D01*
X44823951Y27217256D01*
X44852889Y27160462D01*
X44935565Y26998202D01*
X45082873Y26796931D01*
X45147114Y26733581D01*
X45257918Y26624312D01*
X45257923Y26624308D01*
X45260465Y26621801D01*
X45463773Y26477317D01*
X45687566Y26367198D01*
X45690977Y26366155D01*
X45690980Y26366154D01*
X45866806Y26312399D01*
X45926087Y26294275D01*
X46173198Y26260425D01*
X46301103Y26263550D01*
X46418959Y26266430D01*
X46418965Y26266431D01*
X46422542Y26266518D01*
X46459365Y26273409D01*
X46664190Y26311741D01*
X46664194Y26311742D01*
X46667704Y26312399D01*
X46671068Y26313610D01*
X46899011Y26395675D01*
X46899013Y26395676D01*
X46902377Y26396887D01*
X46905502Y26398619D01*
X46905506Y26398621D01*
X47048319Y26477783D01*
X47120524Y26517807D01*
X47174810Y26560526D01*
X47313726Y26669842D01*
X47313731Y26669846D01*
X47316531Y26672050D01*
X47485357Y26855646D01*
X47622657Y27063873D01*
X47724899Y27291373D01*
X47789454Y27532293D01*
X47795174Y27588601D01*
X47812604Y27760202D01*
X47814659Y27780435D01*
X47815000Y27813000D01*
X47794997Y28061615D01*
X47735502Y28303834D01*
X47679595Y28435543D01*
X47639445Y28530132D01*
X47639444Y28530134D01*
X47638047Y28533425D01*
X47505137Y28744482D01*
X47477684Y28775622D01*
X47342552Y28928898D01*
X47340194Y28931573D01*
X47147460Y29089887D01*
X46931893Y29215350D01*
X46928561Y29216629D01*
X46928559Y29216630D01*
X46702376Y29303453D01*
X46702374Y29303454D01*
X46699041Y29304733D01*
X46454893Y29355738D01*
X46384673Y29358927D01*
X46209308Y29366891D01*
X46209303Y29366891D01*
X46205731Y29367053D01*
X46202181Y29366642D01*
X46202175Y29366642D01*
X45961524Y29338797D01*
X45961520Y29338796D01*
X45957966Y29338385D01*
X45717970Y29270473D01*
X45714738Y29268966D01*
X45714733Y29268964D01*
X45495155Y29166574D01*
X45495150Y29166571D01*
X45491920Y29165065D01*
X45285631Y29024871D01*
X45283033Y29022414D01*
X45283029Y29022411D01*
X45175679Y28920894D01*
X45104410Y28853498D01*
X45052528Y28785639D01*
X44955092Y28658199D01*
X44955089Y28658194D01*
X44952919Y28655356D01*
X44908744Y28572970D01*
X44849775Y28462993D01*
X44835056Y28435543D01*
X44833896Y28432173D01*
X44833893Y28432167D01*
X44755016Y28203091D01*
X44753853Y28199713D01*
X44711400Y27953934D01*
X44711363Y27950359D01*
X44711362Y27950353D01*
X44708825Y27708104D01*
X44708788Y27704529D01*
X39058500Y27704529D01*
X39058500Y31133529D01*
X44708788Y31133529D01*
X44746085Y30886914D01*
X44822331Y30649436D01*
X44823950Y30646259D01*
X44823951Y30646256D01*
X44900446Y30496126D01*
X44935565Y30427202D01*
X44956206Y30399000D01*
X45078228Y30232278D01*
X45082873Y30225931D01*
X45171669Y30138366D01*
X45257918Y30053312D01*
X45257923Y30053308D01*
X45260465Y30050801D01*
X45463773Y29906317D01*
X45687566Y29796198D01*
X45690977Y29795155D01*
X45690980Y29795154D01*
X45783886Y29766750D01*
X45926087Y29723275D01*
X46173198Y29689425D01*
X46301103Y29692550D01*
X46418959Y29695430D01*
X46418965Y29695431D01*
X46422542Y29695518D01*
X46459365Y29702409D01*
X46664190Y29740741D01*
X46664194Y29740742D01*
X46667704Y29741399D01*
X46671068Y29742610D01*
X46899011Y29824675D01*
X46899013Y29824676D01*
X46902377Y29825887D01*
X46905502Y29827619D01*
X46905506Y29827621D01*
X47084908Y29927065D01*
X47120524Y29946807D01*
X47173351Y29988378D01*
X47313726Y30098842D01*
X47313731Y30098846D01*
X47316531Y30101050D01*
X47485357Y30284646D01*
X47622657Y30492873D01*
X47724899Y30720373D01*
X47789454Y30961293D01*
X47790370Y30970306D01*
X47808063Y31144500D01*
X47814659Y31209435D01*
X47814805Y31223390D01*
X47814979Y31239970D01*
X47814979Y31239976D01*
X47815000Y31242000D01*
X47794997Y31490615D01*
X47735502Y31732834D01*
X47679058Y31865808D01*
X47639445Y31959132D01*
X47639444Y31959134D01*
X47638047Y31962425D01*
X47550264Y32101822D01*
X47507044Y32170454D01*
X47507043Y32170455D01*
X47505137Y32173482D01*
X47501309Y32177825D01*
X47394604Y32298857D01*
X47340194Y32360573D01*
X47147460Y32518887D01*
X46931893Y32644350D01*
X46928561Y32645629D01*
X46928559Y32645630D01*
X46702376Y32732453D01*
X46702374Y32732454D01*
X46699041Y32733733D01*
X46454893Y32784738D01*
X46384673Y32787927D01*
X46209308Y32795891D01*
X46209303Y32795891D01*
X46205731Y32796053D01*
X46202181Y32795642D01*
X46202175Y32795642D01*
X45961524Y32767797D01*
X45961520Y32767796D01*
X45957966Y32767385D01*
X45717970Y32699473D01*
X45714738Y32697966D01*
X45714733Y32697964D01*
X45495155Y32595574D01*
X45495150Y32595571D01*
X45491920Y32594065D01*
X45285631Y32453871D01*
X45283033Y32451414D01*
X45283029Y32451411D01*
X45126063Y32302974D01*
X45104410Y32282498D01*
X45059027Y32223139D01*
X44955092Y32087199D01*
X44955089Y32087194D01*
X44952919Y32084356D01*
X44835056Y31864543D01*
X44833896Y31861173D01*
X44833893Y31861167D01*
X44790839Y31736128D01*
X44753853Y31628713D01*
X44711400Y31382934D01*
X44711363Y31379359D01*
X44711362Y31379353D01*
X44708825Y31137104D01*
X44708788Y31133529D01*
X39058500Y31133529D01*
X39058500Y34562529D01*
X44708788Y34562529D01*
X44746085Y34315914D01*
X44822331Y34078436D01*
X44823950Y34075259D01*
X44823951Y34075256D01*
X44860575Y34003378D01*
X44935565Y33856202D01*
X44990056Y33781750D01*
X45073435Y33667827D01*
X45082873Y33654931D01*
X45157460Y33581378D01*
X45257918Y33482312D01*
X45257923Y33482308D01*
X45260465Y33479801D01*
X45463773Y33335317D01*
X45687566Y33225198D01*
X45690977Y33224155D01*
X45690980Y33224154D01*
X45862845Y33171610D01*
X45926087Y33152275D01*
X46173198Y33118425D01*
X46301103Y33121550D01*
X46418959Y33124430D01*
X46418965Y33124431D01*
X46422542Y33124518D01*
X46503602Y33139688D01*
X46542673Y33147000D01*
X47908500Y33147000D01*
X47929132Y32990285D01*
X47989622Y32844250D01*
X47993172Y32839623D01*
X47993173Y32839622D01*
X48049351Y32766409D01*
X48085847Y32718847D01*
X48090480Y32715292D01*
X48181108Y32645751D01*
X48211250Y32622622D01*
X48357285Y32562132D01*
X48514000Y32541500D01*
X48670715Y32562132D01*
X48816750Y32622622D01*
X48846893Y32645751D01*
X48937520Y32715292D01*
X48942153Y32718847D01*
X48978649Y32766409D01*
X49034827Y32839622D01*
X49034828Y32839623D01*
X49038378Y32844250D01*
X49098868Y32990285D01*
X49119500Y33147000D01*
X49098868Y33303715D01*
X49038378Y33449750D01*
X48942153Y33575153D01*
X48838184Y33654931D01*
X48821378Y33667827D01*
X48821377Y33667828D01*
X48816750Y33671378D01*
X48670715Y33731868D01*
X48514000Y33752500D01*
X48357285Y33731868D01*
X48211250Y33671378D01*
X48206623Y33667828D01*
X48206622Y33667827D01*
X48189816Y33654931D01*
X48085847Y33575153D01*
X47989622Y33449750D01*
X47929132Y33303715D01*
X47908500Y33147000D01*
X46542673Y33147000D01*
X46664190Y33169741D01*
X46664194Y33169742D01*
X46667704Y33170399D01*
X46712040Y33186361D01*
X46899011Y33253675D01*
X46899013Y33253676D01*
X46902377Y33254887D01*
X46905502Y33256619D01*
X46905506Y33256621D01*
X47071504Y33348635D01*
X47120524Y33375807D01*
X47182574Y33424636D01*
X47313726Y33527842D01*
X47313731Y33527846D01*
X47316531Y33530050D01*
X47485357Y33713646D01*
X47622657Y33921873D01*
X47724899Y34149373D01*
X47789454Y34390293D01*
X47814659Y34638435D01*
X47815000Y34671000D01*
X47794997Y34919615D01*
X47735502Y35161834D01*
X47679595Y35293543D01*
X47639445Y35388132D01*
X47639444Y35388134D01*
X47638047Y35391425D01*
X47535529Y35554220D01*
X47507044Y35599454D01*
X47507043Y35599455D01*
X47505137Y35602482D01*
X47340194Y35789573D01*
X47147460Y35947887D01*
X46931893Y36073350D01*
X46928561Y36074629D01*
X46928559Y36074630D01*
X46702376Y36161453D01*
X46702374Y36161454D01*
X46699041Y36162733D01*
X46454893Y36213738D01*
X46384673Y36216927D01*
X46209308Y36224891D01*
X46209303Y36224891D01*
X46205731Y36225053D01*
X46202181Y36224642D01*
X46202175Y36224642D01*
X45961524Y36196797D01*
X45961520Y36196796D01*
X45957966Y36196385D01*
X45717970Y36128473D01*
X45714738Y36126966D01*
X45714733Y36126964D01*
X45495155Y36024574D01*
X45495150Y36024571D01*
X45491920Y36023065D01*
X45285631Y35882871D01*
X45283033Y35880414D01*
X45283029Y35880411D01*
X45184143Y35786898D01*
X45104410Y35711498D01*
X45032186Y35617033D01*
X44955092Y35516199D01*
X44955089Y35516194D01*
X44952919Y35513356D01*
X44922665Y35456932D01*
X44844835Y35311780D01*
X44835056Y35293543D01*
X44833896Y35290173D01*
X44833893Y35290167D01*
X44755016Y35061091D01*
X44753853Y35057713D01*
X44711400Y34811934D01*
X44711363Y34808359D01*
X44711362Y34808353D01*
X44708825Y34566104D01*
X44708788Y34562529D01*
X39058500Y34562529D01*
X39058500Y37991529D01*
X44708788Y37991529D01*
X44746085Y37744914D01*
X44822331Y37507436D01*
X44935565Y37285202D01*
X45082873Y37083931D01*
X45171669Y36996366D01*
X45257918Y36911312D01*
X45257923Y36911308D01*
X45260465Y36908801D01*
X45463773Y36764317D01*
X45687566Y36654198D01*
X45690977Y36653155D01*
X45690980Y36653154D01*
X45843478Y36606531D01*
X45926087Y36581275D01*
X46173198Y36547425D01*
X46301103Y36550550D01*
X46418959Y36553430D01*
X46418965Y36553431D01*
X46422542Y36553518D01*
X46459365Y36560409D01*
X46664190Y36598741D01*
X46664194Y36598742D01*
X46667704Y36599399D01*
X46809267Y36650365D01*
X46899011Y36682675D01*
X46899013Y36682676D01*
X46902377Y36683887D01*
X46905502Y36685619D01*
X46905506Y36685621D01*
X47117399Y36803075D01*
X47120524Y36804807D01*
X47250042Y36906728D01*
X47313726Y36956842D01*
X47313731Y36956846D01*
X47316531Y36959050D01*
X47485357Y37142646D01*
X47622657Y37350873D01*
X47724899Y37578373D01*
X47789454Y37819293D01*
X47814659Y38067435D01*
X47814800Y38080936D01*
X47814979Y38097970D01*
X47814979Y38097976D01*
X47815000Y38100000D01*
X47794997Y38348615D01*
X47735502Y38590834D01*
X47692356Y38692480D01*
X47639445Y38817132D01*
X47639444Y38817134D01*
X47638047Y38820425D01*
X47505137Y39031482D01*
X47495811Y39042061D01*
X47399810Y39150952D01*
X47340194Y39218573D01*
X47147460Y39376887D01*
X46931893Y39502350D01*
X46928561Y39503629D01*
X46928559Y39503630D01*
X46702376Y39590453D01*
X46702374Y39590454D01*
X46699041Y39591733D01*
X46454893Y39642738D01*
X46384673Y39645927D01*
X46209308Y39653891D01*
X46209303Y39653891D01*
X46205731Y39654053D01*
X46202181Y39653642D01*
X46202175Y39653642D01*
X45961524Y39625797D01*
X45961520Y39625796D01*
X45957966Y39625385D01*
X45717970Y39557473D01*
X45714738Y39555966D01*
X45714733Y39555964D01*
X45495155Y39453574D01*
X45495150Y39453571D01*
X45491920Y39452065D01*
X45285631Y39311871D01*
X45283033Y39309414D01*
X45283029Y39309411D01*
X45133962Y39168444D01*
X45104410Y39140498D01*
X45090099Y39121780D01*
X44955092Y38945199D01*
X44955089Y38945194D01*
X44952919Y38942356D01*
X44835056Y38722543D01*
X44833896Y38719173D01*
X44833893Y38719167D01*
X44755016Y38490091D01*
X44753853Y38486713D01*
X44711400Y38240934D01*
X44711363Y38237359D01*
X44711362Y38237353D01*
X44709099Y38021221D01*
X44708788Y37991529D01*
X39058500Y37991529D01*
X39058500Y39553715D01*
X39059117Y39564175D01*
X39062493Y39592701D01*
X39063275Y39599308D01*
X39062003Y39606271D01*
X39052633Y39657582D01*
X39052174Y39660338D01*
X39044353Y39712356D01*
X39043364Y39718935D01*
X39040586Y39724721D01*
X39040096Y39726228D01*
X39038942Y39732545D01*
X39011613Y39785156D01*
X39010384Y39787617D01*
X38987615Y39835033D01*
X38987613Y39835036D01*
X38984735Y39841029D01*
X38980922Y39845154D01*
X38978843Y39848240D01*
X38976507Y39852736D01*
X38973217Y39856589D01*
X38973215Y39856592D01*
X38972606Y39857304D01*
X38971475Y39858629D01*
X38932900Y39897204D01*
X38930478Y39899724D01*
X38897313Y39935602D01*
X38897312Y39935603D01*
X38892798Y39940486D01*
X38887048Y39943826D01*
X38886998Y39943866D01*
X38879714Y39950390D01*
X37193479Y41636623D01*
X37193474Y41636629D01*
X36055035Y42775068D01*
X34912073Y43918029D01*
X34886766Y43969345D01*
X34881429Y44009877D01*
X34874868Y44059715D01*
X34814378Y44205750D01*
X34718153Y44331153D01*
X34687187Y44354914D01*
X34597378Y44423827D01*
X34597377Y44423828D01*
X34592750Y44427378D01*
X34446715Y44487868D01*
X34290000Y44508500D01*
X34133285Y44487868D01*
X33987250Y44427378D01*
X33982623Y44423828D01*
X33982622Y44423827D01*
X33892813Y44354914D01*
X33861847Y44331153D01*
X33765622Y44205750D01*
X33705132Y44059715D01*
X33684500Y43903000D01*
X20069017Y43903000D01*
X20021589Y43939393D01*
X19962378Y43984827D01*
X19962377Y43984828D01*
X19957750Y43988378D01*
X19811715Y44048868D01*
X19655000Y44069500D01*
X19498285Y44048868D01*
X19352250Y43988378D01*
X19347623Y43984828D01*
X19347622Y43984827D01*
X19288411Y43939393D01*
X19226847Y43892153D01*
X19223292Y43887520D01*
X19136042Y43773813D01*
X19130622Y43766750D01*
X19070132Y43620715D01*
X19049500Y43464000D01*
X16788145Y43464000D01*
X16780378Y43482750D01*
X16767895Y43499019D01*
X16687708Y43603520D01*
X16684153Y43608153D01*
X16619531Y43657739D01*
X16563378Y43700827D01*
X16563377Y43700828D01*
X16558750Y43704378D01*
X16412715Y43764868D01*
X16322347Y43776766D01*
X16271032Y43802071D01*
X15746673Y44326430D01*
X15739714Y44334262D01*
X15721929Y44356822D01*
X15721927Y44356824D01*
X15717810Y44362046D01*
X15712339Y44365828D01*
X15712337Y44365829D01*
X15669055Y44395743D01*
X15666780Y44397369D01*
X15624494Y44428602D01*
X15624495Y44428602D01*
X15619141Y44432556D01*
X15613082Y44434683D01*
X15611675Y44435400D01*
X15606391Y44439053D01*
X15549891Y44456922D01*
X15547241Y44457806D01*
X15497628Y44475228D01*
X15497627Y44475228D01*
X15491351Y44477432D01*
X15485746Y44477652D01*
X15482085Y44478365D01*
X15477255Y44479893D01*
X15472205Y44480290D01*
X15472202Y44480291D01*
X15471277Y44480364D01*
X15471264Y44480364D01*
X15469530Y44480501D01*
X15414989Y44480501D01*
X15411494Y44480570D01*
X15362669Y44482489D01*
X15362666Y44482489D01*
X15356016Y44482750D01*
X15349580Y44481044D01*
X15349530Y44481038D01*
X15339764Y44480501D01*
X12958275Y44480501D01*
X12947814Y44481118D01*
X12936230Y44482489D01*
X12912691Y44485275D01*
X12906148Y44484080D01*
X12906147Y44484080D01*
X12854446Y44474638D01*
X12851689Y44474179D01*
X12819164Y44469289D01*
X12793064Y44465365D01*
X12787277Y44462586D01*
X12785764Y44462095D01*
X12779453Y44460942D01*
X12726844Y44433614D01*
X12724371Y44432379D01*
X12676969Y44409617D01*
X12676968Y44409616D01*
X12670970Y44406736D01*
X12666845Y44402923D01*
X12663765Y44400847D01*
X12659262Y44398508D01*
X12653370Y44393475D01*
X12614809Y44354914D01*
X12612289Y44352492D01*
X12571513Y44314799D01*
X12568173Y44309049D01*
X12568133Y44308999D01*
X12561608Y44301713D01*
X12384211Y44124316D01*
X12329036Y44098587D01*
X12270231Y44114343D01*
X12235312Y44164213D01*
X12239054Y44221307D01*
X12266635Y44287894D01*
X12268868Y44293285D01*
X12289500Y44450000D01*
X12268868Y44606715D01*
X12208378Y44752750D01*
X12112153Y44878153D01*
X11986750Y44974378D01*
X11840715Y45034868D01*
X11684000Y45055500D01*
X11527285Y45034868D01*
X11381250Y44974378D01*
X11255847Y44878153D01*
X11159622Y44752750D01*
X11099132Y44606715D01*
X11078500Y44450000D01*
X11099132Y44293285D01*
X11159622Y44147250D01*
X11163172Y44142623D01*
X11163173Y44142622D01*
X11222653Y44065106D01*
X11255847Y44021847D01*
X11381250Y43925622D01*
X11527285Y43865132D01*
X11684000Y43844500D01*
X11840715Y43865132D01*
X11946416Y43908915D01*
X12007238Y43911571D01*
X12055537Y43874510D01*
X12068714Y43815073D01*
X12052064Y43773813D01*
X12047399Y43767498D01*
X12047398Y43767495D01*
X12043445Y43762144D01*
X12041317Y43756085D01*
X12040600Y43754676D01*
X12036948Y43749393D01*
X12019081Y43692895D01*
X12018195Y43690241D01*
X11998569Y43634354D01*
X11998349Y43628747D01*
X11997636Y43625088D01*
X11996108Y43620257D01*
X11995500Y43612532D01*
X11995500Y43557992D01*
X11995431Y43554497D01*
X11993524Y43505956D01*
X11993251Y43499019D01*
X11994957Y43492583D01*
X11994963Y43492533D01*
X11995500Y43482767D01*
X11995501Y42320500D01*
X11995501Y41272294D01*
X11974679Y41215086D01*
X11921956Y41184646D01*
X11872442Y41190069D01*
X11839996Y41203509D01*
X11752715Y41239662D01*
X11596000Y41260294D01*
X11439285Y41239662D01*
X11293250Y41179172D01*
X11288623Y41175622D01*
X11288622Y41175621D01*
X11184806Y41095960D01*
X11167847Y41082947D01*
X11164292Y41078314D01*
X11077804Y40965600D01*
X11071622Y40957544D01*
X11011132Y40811509D01*
X10990500Y40654794D01*
X11011132Y40498079D01*
X11013365Y40492688D01*
X11028305Y40456621D01*
X11071622Y40352044D01*
X11075173Y40347416D01*
X11075176Y40347411D01*
X11124471Y40283168D01*
X11142245Y40218530D01*
X11140726Y40205693D01*
X11141921Y40199150D01*
X11151365Y40147440D01*
X11151824Y40144683D01*
X11160636Y40086066D01*
X11163416Y40080276D01*
X11163906Y40078766D01*
X11165059Y40072456D01*
X11168125Y40066553D01*
X11168126Y40066551D01*
X11192363Y40019892D01*
X11193612Y40017392D01*
X11216381Y39969977D01*
X11219265Y39963972D01*
X11223081Y39959845D01*
X11225154Y39956768D01*
X11227493Y39952264D01*
X11230786Y39948409D01*
X11230788Y39948406D01*
X11231395Y39947696D01*
X11232526Y39946372D01*
X11271081Y39907817D01*
X11273503Y39905297D01*
X11311202Y39864514D01*
X11316959Y39861170D01*
X11317003Y39861135D01*
X11324291Y39854607D01*
X14509434Y36669463D01*
X14535501Y36606531D01*
X14535500Y32735468D01*
X14509433Y32672536D01*
X11541971Y29705073D01*
X11490655Y29679766D01*
X11450123Y29674429D01*
X11400285Y29667868D01*
X11254250Y29607378D01*
X11128847Y29511153D01*
X11125292Y29506520D01*
X11059056Y29420199D01*
X11032622Y29385750D01*
X10972132Y29239715D01*
X10951500Y29083000D01*
X5373216Y29083000D01*
X5284445Y29292132D01*
X5284444Y29292134D01*
X5283047Y29295425D01*
X5180529Y29458220D01*
X5152044Y29503454D01*
X5152043Y29503455D01*
X5150137Y29506482D01*
X4985194Y29693573D01*
X4792460Y29851887D01*
X4576893Y29977350D01*
X4573561Y29978629D01*
X4573559Y29978630D01*
X4347376Y30065453D01*
X4347374Y30065454D01*
X4344041Y30066733D01*
X4099893Y30117738D01*
X4029673Y30120927D01*
X3854308Y30128891D01*
X3854303Y30128891D01*
X3850731Y30129053D01*
X3847181Y30128642D01*
X3847175Y30128642D01*
X3606524Y30100797D01*
X3606520Y30100796D01*
X3602966Y30100385D01*
X3362970Y30032473D01*
X3359738Y30030966D01*
X3359733Y30030964D01*
X3140155Y29928574D01*
X3140150Y29928571D01*
X3136920Y29927065D01*
X2930631Y29786871D01*
X2928033Y29784414D01*
X2928029Y29784411D01*
X2829143Y29690898D01*
X2749410Y29615498D01*
X2743202Y29607378D01*
X2600092Y29420199D01*
X2600089Y29420194D01*
X2597919Y29417356D01*
X2564880Y29355738D01*
X2499568Y29233932D01*
X2480056Y29197543D01*
X2478896Y29194173D01*
X2478893Y29194167D01*
X2420600Y29024871D01*
X2398853Y28961713D01*
X2356400Y28715934D01*
X2356363Y28712359D01*
X2356362Y28712353D01*
X2353825Y28470104D01*
X2353788Y28466529D01*
X454000Y28466529D01*
X454000Y30979933D01*
X1066527Y30979933D01*
X1066740Y30976124D01*
X1099534Y30864701D01*
X1102781Y30856664D01*
X1190340Y30689179D01*
X1195087Y30681924D01*
X1313513Y30534632D01*
X1319573Y30528444D01*
X1464352Y30406959D01*
X1471506Y30402061D01*
X1637122Y30311014D01*
X1645085Y30307600D01*
X1825233Y30250453D01*
X1833716Y30248650D01*
X1979685Y30232278D01*
X1984649Y30232000D01*
X2270306Y30232000D01*
X2278127Y30234847D01*
X2284117Y30247694D01*
X2793999Y30247694D01*
X2796846Y30239873D01*
X2813729Y30232000D01*
X3088811Y30232000D01*
X3093171Y30232213D01*
X3232422Y30245867D01*
X3240931Y30247552D01*
X3421851Y30302175D01*
X3429873Y30305481D01*
X3596743Y30394208D01*
X3603957Y30399000D01*
X3750424Y30518457D01*
X3756565Y30524555D01*
X3877041Y30670185D01*
X3881886Y30677368D01*
X3971774Y30843613D01*
X3975136Y30851610D01*
X4012096Y30971009D01*
X4011660Y30979933D01*
X5195591Y30979933D01*
X5195804Y30976123D01*
X5231353Y30855336D01*
X5234600Y30847299D01*
X5324421Y30675489D01*
X5329169Y30668234D01*
X5450651Y30517140D01*
X5456711Y30510952D01*
X5605228Y30386331D01*
X5612382Y30381433D01*
X5782273Y30288036D01*
X5790236Y30284622D01*
X5975044Y30225997D01*
X5983510Y30224198D01*
X6134358Y30207277D01*
X6139318Y30207000D01*
X6450306Y30207000D01*
X6458127Y30209847D01*
X6464117Y30222694D01*
X6973999Y30222694D01*
X6976846Y30214873D01*
X6993729Y30207000D01*
X7293809Y30207000D01*
X7298169Y30207213D01*
X7442280Y30221344D01*
X7450781Y30223027D01*
X7636388Y30279064D01*
X7644394Y30282365D01*
X7815577Y30373385D01*
X7822791Y30378178D01*
X7973040Y30500718D01*
X7979181Y30506816D01*
X8102772Y30656211D01*
X8107607Y30663379D01*
X8199826Y30833935D01*
X8203180Y30841913D01*
X8243141Y30971008D01*
X8242516Y30983787D01*
X8241420Y30984971D01*
X8237167Y30986000D01*
X6989694Y30986001D01*
X6981873Y30983154D01*
X6974000Y30966271D01*
X6973999Y30222694D01*
X6464117Y30222694D01*
X6466000Y30226730D01*
X6466001Y30970306D01*
X6463154Y30978127D01*
X6446271Y30986000D01*
X5208591Y30986001D01*
X5196568Y30981625D01*
X5195591Y30979933D01*
X4011660Y30979933D01*
X4011471Y30983787D01*
X4010375Y30984971D01*
X4006122Y30986000D01*
X2809694Y30986001D01*
X2801873Y30983154D01*
X2794000Y30966271D01*
X2793999Y30247694D01*
X2284117Y30247694D01*
X2286000Y30251730D01*
X2286001Y30970306D01*
X2283154Y30978127D01*
X2266271Y30986000D01*
X1079527Y30986001D01*
X1067504Y30981625D01*
X1066527Y30979933D01*
X454000Y30979933D01*
X454000Y31508991D01*
X1067904Y31508991D01*
X1068529Y31496213D01*
X1069625Y31495029D01*
X1073878Y31494000D01*
X2270306Y31493999D01*
X2278127Y31496846D01*
X2284118Y31509694D01*
X2793999Y31509694D01*
X2796846Y31501873D01*
X2813729Y31494000D01*
X4000473Y31493999D01*
X4012496Y31498375D01*
X4013473Y31500067D01*
X4013260Y31503876D01*
X4011755Y31508992D01*
X5196859Y31508992D01*
X5197484Y31496213D01*
X5198580Y31495029D01*
X5202833Y31494000D01*
X6450306Y31493999D01*
X6458127Y31496846D01*
X6464118Y31509694D01*
X6973999Y31509694D01*
X6976846Y31501873D01*
X6993729Y31494000D01*
X8231409Y31493999D01*
X8243432Y31498375D01*
X8244409Y31500067D01*
X8244196Y31503877D01*
X8208647Y31624664D01*
X8205400Y31632701D01*
X8115579Y31804511D01*
X8110831Y31811766D01*
X7989349Y31962860D01*
X7983289Y31969048D01*
X7834772Y32093669D01*
X7827618Y32098567D01*
X7657727Y32191964D01*
X7649764Y32195378D01*
X7464956Y32254003D01*
X7456490Y32255802D01*
X7305642Y32272723D01*
X7300682Y32273000D01*
X6989694Y32273000D01*
X6981873Y32270153D01*
X6974000Y32253270D01*
X6973999Y31509694D01*
X6464118Y31509694D01*
X6466000Y31513729D01*
X6466001Y32155180D01*
X6504976Y32228790D01*
X6523267Y32241221D01*
X6574639Y32276133D01*
X6597322Y32302974D01*
X6663577Y32381377D01*
X6667494Y32386012D01*
X6689400Y32433858D01*
X6721410Y32503775D01*
X6727379Y32516813D01*
X6730044Y32533634D01*
X6749373Y32655673D01*
X6749373Y32655677D01*
X6749884Y32658901D01*
X6750000Y32670000D01*
X6730476Y32812528D01*
X6673343Y32944554D01*
X6582810Y33056353D01*
X6465547Y33139688D01*
X6330193Y33188418D01*
X6324142Y33188862D01*
X6324139Y33188863D01*
X6192770Y33198510D01*
X6192768Y33198510D01*
X6186721Y33198954D01*
X6045701Y33170519D01*
X6040296Y33167765D01*
X5952573Y33123068D01*
X5917522Y33105209D01*
X5811628Y33007835D01*
X5786075Y32966622D01*
X5752769Y32912904D01*
X5735821Y32885570D01*
X5695686Y32747424D01*
X5695622Y32741360D01*
X5695622Y32741357D01*
X5695168Y32697964D01*
X5694179Y32603573D01*
X5731413Y32464617D01*
X5804642Y32340792D01*
X5809023Y32336591D01*
X5812792Y32331835D01*
X5811647Y32330927D01*
X5835593Y32282261D01*
X5821070Y32223139D01*
X5788896Y32194068D01*
X5624423Y32106615D01*
X5617209Y32101822D01*
X5466960Y31979282D01*
X5460819Y31973184D01*
X5337228Y31823789D01*
X5332393Y31816621D01*
X5240174Y31646065D01*
X5236820Y31638087D01*
X5196859Y31508992D01*
X4011755Y31508992D01*
X3980466Y31615299D01*
X3977219Y31623336D01*
X3889660Y31790821D01*
X3884913Y31798076D01*
X3766487Y31945368D01*
X3760427Y31951556D01*
X3615648Y32073041D01*
X3608494Y32077939D01*
X3442878Y32168986D01*
X3434915Y32172400D01*
X3254767Y32229547D01*
X3246284Y32231350D01*
X3100315Y32247722D01*
X3095351Y32248000D01*
X2809694Y32248000D01*
X2801873Y32245153D01*
X2794000Y32228270D01*
X2793999Y31509694D01*
X2284118Y31509694D01*
X2286000Y31513729D01*
X2286001Y32232306D01*
X2283154Y32240127D01*
X2266271Y32248000D01*
X1991189Y32248000D01*
X1986829Y32247787D01*
X1847578Y32234133D01*
X1839069Y32232448D01*
X1658149Y32177825D01*
X1650127Y32174519D01*
X1483257Y32085792D01*
X1476043Y32081000D01*
X1329576Y31961543D01*
X1323435Y31955445D01*
X1202959Y31809815D01*
X1198114Y31802632D01*
X1108226Y31636387D01*
X1104864Y31628390D01*
X1067904Y31508991D01*
X454000Y31508991D01*
X454000Y33274000D01*
X8792500Y33274000D01*
X8813132Y33117285D01*
X8873622Y32971250D01*
X8877172Y32966623D01*
X8877173Y32966622D01*
X8941038Y32883392D01*
X8969847Y32845847D01*
X8974480Y32842292D01*
X9090521Y32753251D01*
X9095250Y32749622D01*
X9241285Y32689132D01*
X9398000Y32668500D01*
X9554715Y32689132D01*
X9700750Y32749622D01*
X9705480Y32753251D01*
X9821520Y32842292D01*
X9826153Y32845847D01*
X9854962Y32883392D01*
X9918827Y32966622D01*
X9918828Y32966623D01*
X9922378Y32971250D01*
X9982868Y33117285D01*
X9986780Y33147000D01*
X12413500Y33147000D01*
X12434132Y32990285D01*
X12494622Y32844250D01*
X12498172Y32839623D01*
X12498173Y32839622D01*
X12554351Y32766409D01*
X12590847Y32718847D01*
X12595480Y32715292D01*
X12686108Y32645751D01*
X12716250Y32622622D01*
X12862285Y32562132D01*
X13019000Y32541500D01*
X13175715Y32562132D01*
X13321750Y32622622D01*
X13351893Y32645751D01*
X13442520Y32715292D01*
X13447153Y32718847D01*
X13483649Y32766409D01*
X13539827Y32839622D01*
X13539828Y32839623D01*
X13543378Y32844250D01*
X13603868Y32990285D01*
X13624500Y33147000D01*
X13603868Y33303715D01*
X13543378Y33449750D01*
X13447153Y33575153D01*
X13343184Y33654931D01*
X13326378Y33667827D01*
X13326377Y33667828D01*
X13321750Y33671378D01*
X13175715Y33731868D01*
X13019000Y33752500D01*
X12862285Y33731868D01*
X12716250Y33671378D01*
X12711623Y33667828D01*
X12711622Y33667827D01*
X12694816Y33654931D01*
X12590847Y33575153D01*
X12494622Y33449750D01*
X12434132Y33303715D01*
X12413500Y33147000D01*
X9986780Y33147000D01*
X10003500Y33274000D01*
X9982868Y33430715D01*
X9922378Y33576750D01*
X9826153Y33702153D01*
X9761531Y33751739D01*
X9705378Y33794827D01*
X9705377Y33794828D01*
X9700750Y33798378D01*
X9554715Y33858868D01*
X9398000Y33879500D01*
X9241285Y33858868D01*
X9095250Y33798378D01*
X9090623Y33794828D01*
X9090622Y33794827D01*
X9034469Y33751739D01*
X8969847Y33702153D01*
X8873622Y33576750D01*
X8813132Y33430715D01*
X8792500Y33274000D01*
X454000Y33274000D01*
X454000Y35560000D01*
X11840500Y35560000D01*
X11861132Y35403285D01*
X11921622Y35257250D01*
X12017847Y35131847D01*
X12143250Y35035622D01*
X12289285Y34975132D01*
X12446000Y34954500D01*
X12602715Y34975132D01*
X12748750Y35035622D01*
X12874153Y35131847D01*
X12970378Y35257250D01*
X13030868Y35403285D01*
X13051500Y35560000D01*
X13030868Y35716715D01*
X12970378Y35862750D01*
X12948219Y35891629D01*
X12877708Y35983520D01*
X12874153Y35988153D01*
X12811059Y36036567D01*
X12753378Y36080827D01*
X12753377Y36080828D01*
X12748750Y36084378D01*
X12602715Y36144868D01*
X12446000Y36165500D01*
X12289285Y36144868D01*
X12143250Y36084378D01*
X12138623Y36080828D01*
X12138622Y36080827D01*
X12080941Y36036567D01*
X12017847Y35988153D01*
X12014292Y35983520D01*
X11943782Y35891629D01*
X11921622Y35862750D01*
X11861132Y35716715D01*
X11840500Y35560000D01*
X454000Y35560000D01*
X454000Y39619933D01*
X1066527Y39619933D01*
X1066740Y39616124D01*
X1099534Y39504701D01*
X1102781Y39496664D01*
X1190340Y39329179D01*
X1195087Y39321924D01*
X1313513Y39174632D01*
X1319573Y39168444D01*
X1464352Y39046959D01*
X1471506Y39042061D01*
X1637122Y38951014D01*
X1645085Y38947600D01*
X1825233Y38890453D01*
X1833716Y38888650D01*
X1979685Y38872278D01*
X1984649Y38872000D01*
X2270306Y38872000D01*
X2278127Y38874847D01*
X2284117Y38887694D01*
X2793999Y38887694D01*
X2796846Y38879873D01*
X2813729Y38872000D01*
X3088811Y38872000D01*
X3093171Y38872213D01*
X3232422Y38885867D01*
X3240931Y38887552D01*
X3421851Y38942175D01*
X3429873Y38945481D01*
X3596743Y39034208D01*
X3603957Y39039000D01*
X3750424Y39158457D01*
X3756565Y39164555D01*
X3877041Y39310185D01*
X3881886Y39317368D01*
X3971774Y39483613D01*
X3975136Y39491610D01*
X4012096Y39611009D01*
X4011660Y39619933D01*
X5195591Y39619933D01*
X5195804Y39616123D01*
X5231353Y39495336D01*
X5234600Y39487299D01*
X5324421Y39315489D01*
X5329169Y39308234D01*
X5450651Y39157140D01*
X5456711Y39150952D01*
X5605228Y39026331D01*
X5612382Y39021433D01*
X5786088Y38925938D01*
X5785317Y38924535D01*
X5825392Y38886894D01*
X5832594Y38826441D01*
X5814938Y38790879D01*
X5811628Y38787835D01*
X5808432Y38782680D01*
X5808431Y38782679D01*
X5746402Y38682635D01*
X5735821Y38665570D01*
X5695686Y38527424D01*
X5695622Y38521360D01*
X5695622Y38521357D01*
X5694924Y38454708D01*
X5694179Y38383573D01*
X5731413Y38244617D01*
X5804642Y38120792D01*
X5824212Y38102025D01*
X5867234Y38060769D01*
X5908474Y38021221D01*
X6035257Y37953241D01*
X6041171Y37951919D01*
X6041174Y37951918D01*
X6169732Y37923182D01*
X6175651Y37921859D01*
X6247482Y37925624D01*
X6313253Y37929070D01*
X6313256Y37929071D01*
X6319312Y37929388D01*
X6455657Y37975273D01*
X6460677Y37978684D01*
X6460680Y37978686D01*
X6529443Y38025418D01*
X6574639Y38056133D01*
X6611709Y38100000D01*
X8792500Y38100000D01*
X8813132Y37943285D01*
X8873622Y37797250D01*
X8969847Y37671847D01*
X9095250Y37575622D01*
X9241285Y37515132D01*
X9398000Y37494500D01*
X9554715Y37515132D01*
X9700750Y37575622D01*
X9826153Y37671847D01*
X9922378Y37797250D01*
X9982868Y37943285D01*
X10003500Y38100000D01*
X9982868Y38256715D01*
X9922378Y38402750D01*
X9894639Y38438901D01*
X9829708Y38523520D01*
X9826153Y38528153D01*
X9746347Y38589390D01*
X9705378Y38620827D01*
X9705377Y38620828D01*
X9700750Y38624378D01*
X9554715Y38684868D01*
X9398000Y38705500D01*
X9241285Y38684868D01*
X9095250Y38624378D01*
X9090623Y38620828D01*
X9090622Y38620827D01*
X9049653Y38589390D01*
X8969847Y38528153D01*
X8966292Y38523520D01*
X8901362Y38438901D01*
X8873622Y38402750D01*
X8813132Y38256715D01*
X8792500Y38100000D01*
X6611709Y38100000D01*
X6667494Y38166012D01*
X6727379Y38296813D01*
X6740193Y38377711D01*
X6749373Y38435673D01*
X6749373Y38435677D01*
X6749884Y38438901D01*
X6750000Y38450000D01*
X6730476Y38592528D01*
X6673343Y38724554D01*
X6582810Y38836353D01*
X6545745Y38862694D01*
X6973999Y38862694D01*
X6976846Y38854873D01*
X6993729Y38847000D01*
X7293809Y38847000D01*
X7298169Y38847213D01*
X7442280Y38861344D01*
X7450781Y38863027D01*
X7636388Y38919064D01*
X7644394Y38922365D01*
X7815577Y39013385D01*
X7822791Y39018178D01*
X7973040Y39140718D01*
X7979181Y39146816D01*
X8102772Y39296211D01*
X8107607Y39303379D01*
X8199826Y39473935D01*
X8203180Y39481913D01*
X8243141Y39611008D01*
X8242516Y39623787D01*
X8241420Y39624971D01*
X8237167Y39626000D01*
X6989694Y39626001D01*
X6981873Y39623154D01*
X6974000Y39606271D01*
X6973999Y38862694D01*
X6545745Y38862694D01*
X6514063Y38885209D01*
X6503444Y38892756D01*
X6466000Y38965302D01*
X6466001Y39610306D01*
X6463154Y39618127D01*
X6446271Y39626000D01*
X5208591Y39626001D01*
X5196568Y39621625D01*
X5195591Y39619933D01*
X4011660Y39619933D01*
X4011471Y39623787D01*
X4010375Y39624971D01*
X4006122Y39626000D01*
X2809694Y39626001D01*
X2801873Y39623154D01*
X2794000Y39606271D01*
X2793999Y38887694D01*
X2284117Y38887694D01*
X2286000Y38891730D01*
X2286001Y39610306D01*
X2283154Y39618127D01*
X2266271Y39626000D01*
X1079527Y39626001D01*
X1067504Y39621625D01*
X1066527Y39619933D01*
X454000Y39619933D01*
X454000Y40148991D01*
X1067904Y40148991D01*
X1068529Y40136213D01*
X1069625Y40135029D01*
X1073878Y40134000D01*
X2270306Y40133999D01*
X2278127Y40136846D01*
X2284118Y40149694D01*
X2793999Y40149694D01*
X2796846Y40141873D01*
X2813729Y40134000D01*
X4000473Y40133999D01*
X4012496Y40138375D01*
X4013473Y40140067D01*
X4013260Y40143876D01*
X4011755Y40148992D01*
X5196859Y40148992D01*
X5197484Y40136213D01*
X5198580Y40135029D01*
X5202833Y40134000D01*
X6450306Y40133999D01*
X6458127Y40136846D01*
X6464118Y40149694D01*
X6973999Y40149694D01*
X6976846Y40141873D01*
X6993729Y40134000D01*
X8231409Y40133999D01*
X8243432Y40138375D01*
X8244409Y40140067D01*
X8244196Y40143877D01*
X8208647Y40264664D01*
X8205400Y40272701D01*
X8115579Y40444511D01*
X8110831Y40451766D01*
X7989349Y40602860D01*
X7983289Y40609048D01*
X7834772Y40733669D01*
X7827618Y40738567D01*
X7657727Y40831964D01*
X7649764Y40835378D01*
X7464956Y40894003D01*
X7456490Y40895802D01*
X7305642Y40912723D01*
X7300682Y40913000D01*
X6989694Y40913000D01*
X6981873Y40910153D01*
X6974000Y40893270D01*
X6973999Y40149694D01*
X6464118Y40149694D01*
X6466000Y40153729D01*
X6466001Y40897306D01*
X6463154Y40905127D01*
X6446271Y40913000D01*
X6146191Y40913000D01*
X6141831Y40912787D01*
X5997720Y40898656D01*
X5989219Y40896973D01*
X5803612Y40840936D01*
X5795606Y40837635D01*
X5624423Y40746615D01*
X5617209Y40741822D01*
X5466960Y40619282D01*
X5460819Y40613184D01*
X5337228Y40463789D01*
X5332393Y40456621D01*
X5240174Y40286065D01*
X5236820Y40278087D01*
X5196859Y40148992D01*
X4011755Y40148992D01*
X3980466Y40255299D01*
X3977219Y40263336D01*
X3889660Y40430821D01*
X3884913Y40438076D01*
X3766487Y40585368D01*
X3760427Y40591556D01*
X3615648Y40713041D01*
X3608494Y40717939D01*
X3442878Y40808986D01*
X3434915Y40812400D01*
X3254767Y40869547D01*
X3246284Y40871350D01*
X3100315Y40887722D01*
X3095351Y40888000D01*
X2809694Y40888000D01*
X2801873Y40885153D01*
X2794000Y40868270D01*
X2793999Y40149694D01*
X2284118Y40149694D01*
X2286000Y40153729D01*
X2286001Y40872306D01*
X2283154Y40880127D01*
X2266271Y40888000D01*
X1991189Y40888000D01*
X1986829Y40887787D01*
X1847578Y40874133D01*
X1839069Y40872448D01*
X1658149Y40817825D01*
X1650127Y40814519D01*
X1483257Y40725792D01*
X1476043Y40721000D01*
X1329576Y40601543D01*
X1323435Y40595445D01*
X1202959Y40449815D01*
X1198114Y40442632D01*
X1108226Y40276387D01*
X1104864Y40268390D01*
X1067904Y40148991D01*
X454000Y40148991D01*
X454000Y48006000D01*
X29874500Y48006000D01*
X29895132Y47849285D01*
X29955622Y47703250D01*
X30051847Y47577847D01*
X30177250Y47481622D01*
X30323285Y47421132D01*
X30480000Y47400500D01*
X30636715Y47421132D01*
X30782750Y47481622D01*
X30908153Y47577847D01*
X31004378Y47703250D01*
X31064868Y47849285D01*
X31085500Y48006000D01*
X34954500Y48006000D01*
X34975132Y47849285D01*
X35035622Y47703250D01*
X35131847Y47577847D01*
X35257250Y47481622D01*
X35403285Y47421132D01*
X35560000Y47400500D01*
X35716715Y47421132D01*
X35862750Y47481622D01*
X35988153Y47577847D01*
X36084378Y47703250D01*
X36144868Y47849285D01*
X36165500Y48006000D01*
X36144868Y48162715D01*
X36084378Y48308750D01*
X35988153Y48434153D01*
X35862750Y48530378D01*
X35716715Y48590868D01*
X35560000Y48611500D01*
X35403285Y48590868D01*
X35257250Y48530378D01*
X35131847Y48434153D01*
X35035622Y48308750D01*
X34975132Y48162715D01*
X34954500Y48006000D01*
X31085500Y48006000D01*
X31064868Y48162715D01*
X31004378Y48308750D01*
X30908153Y48434153D01*
X30782750Y48530378D01*
X30636715Y48590868D01*
X30480000Y48611500D01*
X30323285Y48590868D01*
X30177250Y48530378D01*
X30051847Y48434153D01*
X29955622Y48308750D01*
X29895132Y48162715D01*
X29874500Y48006000D01*
X454000Y48006000D01*
X454000Y50257000D01*
X474822Y50314208D01*
X543000Y50346000D01*
X50257000Y50346000D01*
X50314208Y50325178D01*
G37*
G04 #@! TD.AperFunction*
M02*
