G04 #@! TF.GenerationSoftware,KiCad,Pcbnew,5.99.0-unknown-d90d73416~104~ubuntu18.04.1*
G04 #@! TF.CreationDate,2020-10-29T17:21:16+01:00*
G04 #@! TF.ProjectId,TFGPS01A,54464750-5330-4314-912e-6b696361645f,REV*
G04 #@! TF.SameCoordinates,Original*
G04 #@! TF.FileFunction,Copper,L3,Inr*
G04 #@! TF.FilePolarity,Positive*
%FSLAX46Y46*%
G04 Gerber Fmt 4.6, Leading zero omitted, Abs format (unit mm)*
G04 Created by KiCad (PCBNEW 5.99.0-unknown-d90d73416~104~ubuntu18.04.1) date 2020-10-29 17:21:16*
%MOMM*%
%LPD*%
G01*
G04 APERTURE LIST*
G04 #@! TA.AperFunction,ComponentPad*
%ADD10C,6.000000*%
G04 #@! TD*
G04 #@! TA.AperFunction,ComponentPad*
%ADD11C,4.000000*%
G04 #@! TD*
G04 #@! TA.AperFunction,ComponentPad*
%ADD12O,2.000000X1.000000*%
G04 #@! TD*
G04 #@! TA.AperFunction,ComponentPad*
%ADD13O,2.100000X1.050000*%
G04 #@! TD*
G04 #@! TA.AperFunction,ViaPad*
%ADD14C,0.800000*%
G04 #@! TD*
G04 #@! TA.AperFunction,Conductor*
%ADD15C,0.500000*%
G04 #@! TD*
G04 #@! TA.AperFunction,Conductor*
%ADD16C,1.000000*%
G04 #@! TD*
G04 APERTURE END LIST*
D10*
X45720000Y5080000D03*
X5080000Y5080000D03*
X45720000Y45720000D03*
D11*
X29626000Y25450000D03*
D10*
X5080000Y45720000D03*
D12*
X2540000Y31240000D03*
X2540000Y39880000D03*
D13*
X6720000Y31240000D03*
X6720000Y39880000D03*
D14*
X38030074Y8692139D03*
X15443200Y10922000D03*
X14626252Y8843348D03*
X31038800Y11772010D03*
X32715200Y11772010D03*
X33020000Y41605200D03*
X19685000Y28575000D03*
X40640000Y48260000D03*
X11430000Y12700000D03*
X3810000Y38100000D03*
X3810000Y33020000D03*
X35814000Y18135600D03*
X31115000Y38735000D03*
X40640000Y46355000D03*
X10160000Y9525000D03*
X41910000Y16510000D03*
X17780000Y16510000D03*
X36830000Y22225000D03*
X32385000Y28575000D03*
X9525000Y49530000D03*
X16510000Y24765000D03*
X34239200Y18135600D03*
X32385000Y6350000D03*
X24130000Y44450000D03*
X11430000Y11430000D03*
X35560000Y37465000D03*
X31115000Y21590000D03*
X29845000Y38735000D03*
X10160000Y8255000D03*
X40640000Y5080000D03*
X15240000Y23495000D03*
X20955000Y28575000D03*
X34290000Y28575000D03*
X16510000Y21590000D03*
X32385000Y17780000D03*
X38735000Y24765000D03*
X8890000Y5080000D03*
X31115000Y37465000D03*
X17780000Y23495000D03*
X29845000Y37465000D03*
X9525000Y48260000D03*
X8890000Y2540000D03*
X41910000Y48260000D03*
X8890000Y3810000D03*
X31115000Y22860000D03*
X32156400Y14681200D03*
X8890000Y1270000D03*
X35560000Y38735000D03*
X41275000Y22225000D03*
X13335000Y11430000D03*
X30480000Y41910000D03*
X26035000Y5715000D03*
X28575000Y37465000D03*
X28575000Y38735000D03*
X41275000Y24765000D03*
X41275000Y6350000D03*
X29210000Y28575000D03*
X21945600Y11988800D03*
X3810000Y36830000D03*
X41275000Y18415000D03*
X28575000Y44450000D03*
X30480000Y28575000D03*
X3810000Y35560000D03*
X12065000Y20320000D03*
X24130000Y45720000D03*
X3810000Y34290000D03*
X11430000Y8255000D03*
X27940000Y27940000D03*
X27432000Y12141200D03*
X10160000Y16510000D03*
X13335000Y12700000D03*
X36830000Y37465000D03*
X11430000Y9525000D03*
X49530000Y13970000D03*
X36830000Y38735000D03*
X27381200Y14681200D03*
X41910000Y36195000D03*
X36169600Y16560800D03*
X25857200Y12141200D03*
X28575000Y40005000D03*
X26670000Y45720000D03*
X34848800Y26720800D03*
X30429200Y14020800D03*
X32461200Y26720800D03*
X33629600Y26619200D03*
X33985200Y23215600D03*
X25654000Y13665200D03*
X29260800Y14071600D03*
X27838400Y13360400D03*
X26720800Y13411200D03*
X21945600Y13665200D03*
X34747200Y16205200D03*
X33680400Y16205200D03*
X32766000Y16002000D03*
X23063200Y14020800D03*
X31851600Y23825200D03*
X24333200Y14071600D03*
X35966400Y25298400D03*
X36068000Y24028400D03*
X35864800Y26466800D03*
X28702000Y32766000D03*
X6350000Y23495000D03*
X24638000Y35306000D03*
X24638000Y42926000D03*
X24892000Y18796000D03*
X5588000Y25400000D03*
X35560000Y48006000D03*
X30480000Y48006000D03*
X29464000Y4572000D03*
X9398000Y33274000D03*
X46228000Y13970000D03*
X12446000Y35560000D03*
X13019000Y33147000D03*
X9398000Y38100000D03*
X36195000Y14922500D03*
X31750000Y15557500D03*
X33870000Y39116000D03*
X34544000Y41656000D03*
X31750000Y43053000D03*
X48514000Y33147000D03*
X37338000Y29464000D03*
X17272000Y14224000D03*
X6096000Y12954000D03*
X38608000Y26162000D03*
X34290000Y43903000D03*
X14097000Y7112000D03*
X36499999Y32842001D03*
X17018000Y15240000D03*
X5969000Y14351000D03*
X19177000Y7112000D03*
X35560000Y7112000D03*
X1524000Y19431000D03*
X21639041Y7101959D03*
X21082000Y41402000D03*
X11596000Y40654794D03*
X23114000Y7112000D03*
X1524000Y21336000D03*
X11557000Y29083000D03*
X1651000Y15240000D03*
X16764000Y40779989D03*
X18796000Y41148000D03*
X1778000Y17145000D03*
X13335000Y43180000D03*
X23749000Y31750000D03*
X24517223Y32390186D03*
X14732000Y43180000D03*
X16383000Y29083000D03*
X1651000Y13208000D03*
X16256000Y43180000D03*
X11684000Y44450000D03*
X19655000Y43464000D03*
X18359977Y32429000D03*
X23905541Y25243459D03*
X25146000Y25273000D03*
X18359977Y33479000D03*
D15*
X38007972Y8714241D02*
X38030074Y8692139D01*
X15231704Y9448800D02*
X14626252Y8843348D01*
X14097000Y7112000D02*
X15699241Y8714241D01*
X15699241Y8714241D02*
X38007972Y8714241D01*
X48514000Y33147000D02*
X48514000Y20320000D01*
X48514000Y20320000D02*
X37642800Y9448800D01*
X37642800Y9448800D02*
X15231704Y9448800D01*
X33020000Y41605200D02*
X33020000Y38608000D01*
X33020000Y38608000D02*
X39878000Y31750000D01*
X39878000Y31750000D02*
X39878000Y13716000D01*
X39878000Y13716000D02*
X37084000Y10922000D01*
X37084000Y10922000D02*
X15443200Y10922000D01*
X8382000Y14224000D02*
X17272000Y14224000D01*
X8382000Y14224000D02*
X7366000Y14224000D01*
X7366000Y14224000D02*
X6096000Y12954000D01*
D16*
X26246001Y32342001D02*
X26246001Y20150001D01*
X24638000Y35306000D02*
X24638000Y33950002D01*
X24638000Y33950002D02*
X26246001Y32342001D01*
X26246001Y20150001D02*
X24892000Y18796000D01*
X24638000Y42926000D02*
X24638000Y35306000D01*
X46228000Y13970000D02*
X36830000Y4572000D01*
X12446000Y33528000D02*
X12700000Y33274000D01*
X12446000Y35560000D02*
X12446000Y33528000D01*
D15*
X13019000Y33147000D02*
X13019000Y34987000D01*
X9398000Y33274000D02*
X12192000Y33274000D01*
D16*
X49614001Y39793999D02*
X49614001Y17356001D01*
X12446000Y48006000D02*
X30480000Y48006000D01*
X12446000Y35560000D02*
X11938000Y35560000D01*
X35560000Y48006000D02*
X42483990Y41082010D01*
X30480000Y48006000D02*
X35560000Y48006000D01*
X42483990Y41082010D02*
X48325990Y41082010D01*
D15*
X12892000Y33274000D02*
X13019000Y33147000D01*
D16*
X36830000Y4572000D02*
X29464000Y4572000D01*
D15*
X13019000Y34987000D02*
X12446000Y35560000D01*
D16*
X9906000Y45466000D02*
X12446000Y48006000D01*
X48325990Y41082010D02*
X49614001Y39793999D01*
X9398000Y33274000D02*
X12700000Y33274000D01*
X9906000Y38608000D02*
X9906000Y45466000D01*
D15*
X12192000Y33274000D02*
X12892000Y33274000D01*
D16*
X49614001Y17356001D02*
X46228000Y13970000D01*
X9398000Y38100000D02*
X9906000Y38608000D01*
X11938000Y35560000D02*
X9398000Y38100000D01*
D15*
X33870000Y40982000D02*
X34544000Y41656000D01*
X33870000Y39116000D02*
X33870000Y40982000D01*
X38989000Y43053000D02*
X41910000Y40132000D01*
X48514000Y38735000D02*
X47117000Y40132000D01*
X47117000Y40132000D02*
X41910000Y40132000D01*
X31750000Y43053000D02*
X38989000Y43053000D01*
X48514000Y33147000D02*
X48514000Y38735000D01*
X5969000Y14351000D02*
X6858000Y15240000D01*
X6858000Y15240000D02*
X16510000Y15240000D01*
X36487999Y32830001D02*
X36499999Y32842001D01*
X16510000Y15240000D02*
X17018000Y15240000D01*
X20066000Y8001000D02*
X34671000Y8001000D01*
X34671000Y8001000D02*
X35560000Y7112000D01*
X19177000Y7112000D02*
X20066000Y8001000D01*
X14962046Y41594010D02*
X14962046Y41632046D01*
X13869001Y40500965D02*
X13869001Y29617001D01*
X13869001Y29617001D02*
X3683000Y19431000D01*
X14962046Y41632046D02*
X15659999Y42329999D01*
X20154001Y42329999D02*
X21082000Y41402000D01*
X15659999Y42329999D02*
X20154001Y42329999D01*
X3683000Y19431000D02*
X1524000Y19431000D01*
X14897036Y41529000D02*
X13869001Y40500965D01*
X14897036Y41529000D02*
X14962046Y41594010D01*
X10679998Y29083000D02*
X2932998Y21336000D01*
X11557000Y29083000D02*
X10679998Y29083000D01*
X2932998Y21336000D02*
X1524000Y21336000D01*
X15494000Y29083000D02*
X1651000Y15240000D01*
X15494000Y29083000D02*
X15494000Y39370000D01*
X16764000Y40779989D02*
X15494000Y39509989D01*
X15494000Y39509989D02*
X15494000Y39370000D01*
X14643999Y38696001D02*
X14643999Y40073881D01*
X2413000Y17145000D02*
X1778000Y17145000D01*
X16200107Y41629989D02*
X18314011Y41629989D01*
X14643999Y30060001D02*
X14643999Y29425001D01*
X15464118Y40894000D02*
X16200107Y41629989D01*
X14643999Y29425001D02*
X14643999Y29375999D01*
X14643999Y38696001D02*
X14643999Y30060001D01*
X14643999Y40073881D02*
X15464118Y40894000D01*
X18314011Y41629989D02*
X18796000Y41148000D01*
X14643999Y29375999D02*
X2413000Y17145000D01*
X3796981Y15353981D02*
X16383000Y27940000D01*
X1651000Y13208000D02*
X3796981Y15353981D01*
X16383000Y27940000D02*
X16383000Y29083000D01*
X18669000Y44450000D02*
X19655000Y43464000D01*
X11684000Y44450000D02*
X18669000Y44450000D01*
X19132339Y32004000D02*
X18707339Y32429000D01*
X24165541Y26970798D02*
X19132339Y32004000D01*
X24165541Y25503459D02*
X24165541Y26970798D01*
X23905541Y25243459D02*
X24165541Y25503459D01*
X18707339Y32429000D02*
X18359977Y32429000D01*
X24915541Y27281459D02*
X19662670Y32534330D01*
X24915541Y25503459D02*
X24915541Y27281459D01*
X25146000Y25273000D02*
X24915541Y25503459D01*
X18718000Y33479000D02*
X19662670Y32534330D01*
X18359977Y33479000D02*
X18718000Y33479000D01*
G04 #@! TA.AperFunction,Conductor*
G36*
X50314208Y50325178D02*
G01*
X50346000Y50257000D01*
X50346000Y40252740D01*
X50325178Y40195532D01*
X50272455Y40165092D01*
X50212500Y40175664D01*
X50186394Y40198557D01*
X50182231Y40203983D01*
X50179511Y40207728D01*
X50166512Y40226641D01*
X50143204Y40260555D01*
X50098321Y40300544D01*
X50094612Y40304044D01*
X48839195Y41559460D01*
X48835061Y41563886D01*
X48824360Y41576153D01*
X48798062Y41606299D01*
X48745613Y41643161D01*
X48741872Y41645939D01*
X48695681Y41682158D01*
X48695679Y41682159D01*
X48691458Y41685469D01*
X48686567Y41687677D01*
X48686564Y41687679D01*
X48682227Y41689637D01*
X48667675Y41697936D01*
X48659375Y41703770D01*
X48654375Y41705720D01*
X48654370Y41705722D01*
X48599651Y41727055D01*
X48595366Y41728856D01*
X48536963Y41755226D01*
X48531695Y41756202D01*
X48531693Y41756203D01*
X48526997Y41757073D01*
X48510889Y41761662D01*
X48506443Y41763395D01*
X48506442Y41763395D01*
X48501441Y41765345D01*
X48437892Y41773711D01*
X48433296Y41774439D01*
X48408504Y41779034D01*
X48375566Y41785139D01*
X48375564Y41785139D01*
X48370288Y41786117D01*
X48364927Y41785808D01*
X48364926Y41785808D01*
X48310300Y41782658D01*
X48305177Y41782510D01*
X42811011Y41782510D01*
X42748079Y41808577D01*
X36073206Y48483449D01*
X36069071Y48487876D01*
X36035598Y48526247D01*
X36032072Y48530289D01*
X35979623Y48567151D01*
X35975882Y48569929D01*
X35929691Y48606148D01*
X35929689Y48606149D01*
X35925468Y48609459D01*
X35920577Y48611667D01*
X35920574Y48611669D01*
X35916237Y48613627D01*
X35901685Y48621926D01*
X35893385Y48627760D01*
X35888385Y48629710D01*
X35888380Y48629712D01*
X35833661Y48651045D01*
X35829376Y48652846D01*
X35770973Y48679216D01*
X35765705Y48680192D01*
X35765703Y48680193D01*
X35761007Y48681063D01*
X35744899Y48685652D01*
X35740453Y48687385D01*
X35740452Y48687385D01*
X35735451Y48689335D01*
X35671902Y48697701D01*
X35667306Y48698429D01*
X35642514Y48703024D01*
X35609576Y48709129D01*
X35609574Y48709129D01*
X35604298Y48710107D01*
X35598937Y48709798D01*
X35598936Y48709798D01*
X35544310Y48706648D01*
X35539187Y48706500D01*
X12471263Y48706500D01*
X12465209Y48706706D01*
X12409076Y48710533D01*
X12403793Y48709611D01*
X12394465Y48707983D01*
X12345916Y48699509D01*
X12341321Y48698832D01*
X12277715Y48691135D01*
X12272696Y48689238D01*
X12272690Y48689237D01*
X12268230Y48687552D01*
X12252081Y48683134D01*
X12247371Y48682312D01*
X12247365Y48682310D01*
X12242087Y48681389D01*
X12237177Y48679234D01*
X12237175Y48679233D01*
X12183405Y48655630D01*
X12179092Y48653870D01*
X12124169Y48633116D01*
X12124165Y48633114D01*
X12119145Y48631217D01*
X12110785Y48625472D01*
X12096158Y48617330D01*
X12086871Y48613253D01*
X12082621Y48609992D01*
X12082616Y48609989D01*
X12036019Y48574234D01*
X12032263Y48571505D01*
X11979444Y48535203D01*
X11975873Y48531194D01*
X11975872Y48531194D01*
X11939461Y48490327D01*
X11935943Y48486600D01*
X9428544Y45979199D01*
X9424117Y45975064D01*
X9381712Y45938072D01*
X9378629Y45933685D01*
X9344852Y45885626D01*
X9342074Y45881886D01*
X9302541Y45831468D01*
X9298371Y45822231D01*
X9290068Y45807676D01*
X9284241Y45799385D01*
X9282293Y45794389D01*
X9282292Y45794387D01*
X9260962Y45739679D01*
X9259157Y45735385D01*
X9232784Y45676973D01*
X9231807Y45671701D01*
X9231804Y45671692D01*
X9230935Y45667002D01*
X9226347Y45650895D01*
X9224616Y45646456D01*
X9224613Y45646446D01*
X9222666Y45641451D01*
X9221966Y45636131D01*
X9221964Y45636125D01*
X9214300Y45577917D01*
X9213572Y45573317D01*
X9201893Y45510298D01*
X9202202Y45504937D01*
X9202202Y45504935D01*
X9205353Y45450292D01*
X9205501Y45445169D01*
X9205500Y38935021D01*
X9179433Y38872089D01*
X8889306Y38581961D01*
X8888975Y38581632D01*
X8845105Y38538219D01*
X8842301Y38533643D01*
X8842300Y38533642D01*
X8824602Y38504761D01*
X8818759Y38496353D01*
X8794541Y38465468D01*
X8792334Y38460581D01*
X8792332Y38460577D01*
X8780098Y38433481D01*
X8774868Y38423604D01*
X8756534Y38393685D01*
X8754904Y38388577D01*
X8744605Y38356305D01*
X8740933Y38346739D01*
X8737271Y38338629D01*
X8724784Y38310973D01*
X8718972Y38279609D01*
X8718390Y38276470D01*
X8715666Y38265626D01*
X8706629Y38237313D01*
X8706628Y38237307D01*
X8704997Y38232197D01*
X8704632Y38226841D01*
X8702328Y38193047D01*
X8701044Y38182881D01*
X8697918Y38166012D01*
X8693893Y38144298D01*
X8694202Y38138937D01*
X8694202Y38138935D01*
X8695912Y38109273D01*
X8695854Y38098099D01*
X8695483Y38092654D01*
X8693467Y38063078D01*
X8700217Y38024401D01*
X8701392Y38014236D01*
X8703651Y37975067D01*
X8705228Y37969941D01*
X8705229Y37969935D01*
X8713967Y37941533D01*
X8716576Y37930669D01*
X8722611Y37896089D01*
X8724767Y37891178D01*
X8738385Y37860154D01*
X8741957Y37850550D01*
X8753494Y37813048D01*
X8756245Y37808451D01*
X8756248Y37808445D01*
X8771518Y37782931D01*
X8776643Y37773003D01*
X8790747Y37740872D01*
X8794015Y37736613D01*
X8814632Y37709745D01*
X8820392Y37701271D01*
X8840546Y37667595D01*
X8844321Y37663780D01*
X8844322Y37663779D01*
X8867456Y37640401D01*
X8869640Y37638057D01*
X8870803Y37636542D01*
X8916176Y37591169D01*
X8959781Y37547105D01*
X8960696Y37546544D01*
X8961656Y37545689D01*
X11424809Y35082534D01*
X11428942Y35078109D01*
X11465928Y35035711D01*
X11518381Y34998847D01*
X11522119Y34996070D01*
X11572531Y34956542D01*
X11581766Y34952372D01*
X11596313Y34944074D01*
X11600224Y34941325D01*
X11600231Y34941321D01*
X11604615Y34938240D01*
X11609609Y34936293D01*
X11664333Y34914957D01*
X11668628Y34913151D01*
X11693124Y34902091D01*
X11736695Y34859573D01*
X11745500Y34820976D01*
X11745501Y34063500D01*
X11724679Y34006292D01*
X11656501Y33974500D01*
X9356683Y33974500D01*
X9229715Y33959135D01*
X9071145Y33899217D01*
X9045943Y33881896D01*
X8935869Y33806245D01*
X8935865Y33806241D01*
X8931444Y33803203D01*
X8927873Y33799194D01*
X8927872Y33799194D01*
X8913676Y33783261D01*
X8818679Y33676638D01*
X8816169Y33671897D01*
X8816168Y33671896D01*
X8744356Y33536266D01*
X8739359Y33526829D01*
X8698063Y33362423D01*
X8697176Y33192912D01*
X8736748Y33028082D01*
X8814495Y32877450D01*
X8925928Y32749711D01*
X8989000Y32705383D01*
X9034744Y32673234D01*
X9064615Y32652240D01*
X9222549Y32590665D01*
X9260148Y32585715D01*
X9350041Y32573880D01*
X9350046Y32573880D01*
X9352930Y32573500D01*
X12628059Y32573500D01*
X12644277Y32572010D01*
X12650421Y32570871D01*
X12650426Y32570871D01*
X12655701Y32569893D01*
X12661062Y32570202D01*
X12661063Y32570202D01*
X12715690Y32573352D01*
X12720813Y32573500D01*
X12741317Y32573500D01*
X12751497Y32574732D01*
X12759531Y32575704D01*
X12765098Y32576201D01*
X12767703Y32576351D01*
X12800244Y32578228D01*
X12839427Y32571600D01*
X12862285Y32562132D01*
X13019000Y32541500D01*
X13175715Y32562132D01*
X13198573Y32571600D01*
X13295443Y32611725D01*
X13356265Y32614381D01*
X13404564Y32577320D01*
X13418502Y32529500D01*
X13418502Y29840471D01*
X13392435Y29777538D01*
X7101077Y23486180D01*
X7045901Y23460452D01*
X6987096Y23476208D01*
X6949905Y23537496D01*
X6934868Y23651715D01*
X6874378Y23797750D01*
X6778153Y23923153D01*
X6652750Y24019378D01*
X6506715Y24079868D01*
X6502487Y24080425D01*
X6453109Y24115001D01*
X6437354Y24173807D01*
X6463082Y24228981D01*
X10840534Y28606433D01*
X10903467Y28632500D01*
X11127758Y28632500D01*
X11181938Y28614108D01*
X11249616Y28562177D01*
X11249620Y28562175D01*
X11254250Y28558622D01*
X11259642Y28556388D01*
X11259643Y28556388D01*
X11394894Y28500365D01*
X11400285Y28498132D01*
X11557000Y28477500D01*
X11713715Y28498132D01*
X11859750Y28558622D01*
X11985153Y28654847D01*
X12081378Y28780250D01*
X12141868Y28926285D01*
X12162500Y29083000D01*
X12141868Y29239715D01*
X12081378Y29385750D01*
X12054945Y29420199D01*
X11988708Y29506520D01*
X11985153Y29511153D01*
X11859750Y29607378D01*
X11713715Y29667868D01*
X11557000Y29688500D01*
X11400285Y29667868D01*
X11394894Y29665635D01*
X11279778Y29617952D01*
X11254250Y29607378D01*
X11249620Y29603825D01*
X11249616Y29603823D01*
X11181938Y29551892D01*
X11127758Y29533500D01*
X10711274Y29533500D01*
X10700813Y29534117D01*
X10698729Y29534364D01*
X10665690Y29538274D01*
X10659147Y29537079D01*
X10659146Y29537079D01*
X10607445Y29527637D01*
X10604688Y29527178D01*
X10572163Y29522288D01*
X10546063Y29518364D01*
X10540274Y29515584D01*
X10538765Y29515094D01*
X10532452Y29513941D01*
X10479879Y29486631D01*
X10477418Y29485402D01*
X10429972Y29462619D01*
X10429965Y29462614D01*
X10423969Y29459735D01*
X10419839Y29455917D01*
X10416762Y29453844D01*
X10412261Y29451506D01*
X10408408Y29448215D01*
X10408403Y29448212D01*
X10407712Y29447621D01*
X10406369Y29446474D01*
X10367807Y29407912D01*
X10365287Y29405490D01*
X10324512Y29367798D01*
X10321172Y29362048D01*
X10321132Y29361998D01*
X10314607Y29354712D01*
X8237971Y27278075D01*
X6340473Y25380577D01*
X6285297Y25354848D01*
X6226492Y25370604D01*
X6189301Y25431892D01*
X6172868Y25556715D01*
X6112378Y25702750D01*
X6088517Y25733847D01*
X6019708Y25823520D01*
X6016153Y25828153D01*
X5975627Y25859250D01*
X5895378Y25920827D01*
X5895377Y25920828D01*
X5890750Y25924378D01*
X5744715Y25984868D01*
X5588000Y26005500D01*
X5431285Y25984868D01*
X5285250Y25924378D01*
X5280623Y25920828D01*
X5280622Y25920827D01*
X5200373Y25859250D01*
X5159847Y25828153D01*
X5156292Y25823520D01*
X5087484Y25733847D01*
X5063622Y25702750D01*
X5003132Y25556715D01*
X4982500Y25400000D01*
X5003132Y25243285D01*
X5063622Y25097250D01*
X5067172Y25092623D01*
X5067173Y25092622D01*
X5098378Y25051955D01*
X5159847Y24971847D01*
X5285250Y24875622D01*
X5431285Y24815132D01*
X5556107Y24798699D01*
X5610108Y24770588D01*
X5633405Y24714342D01*
X5607423Y24647527D01*
X2772463Y21812567D01*
X2709530Y21786500D01*
X1953242Y21786500D01*
X1899062Y21804892D01*
X1831384Y21856823D01*
X1831380Y21856825D01*
X1826750Y21860378D01*
X1680715Y21920868D01*
X1524000Y21941500D01*
X1367285Y21920868D01*
X1221250Y21860378D01*
X1095847Y21764153D01*
X999622Y21638750D01*
X939132Y21492715D01*
X918500Y21336000D01*
X939132Y21179285D01*
X999622Y21033250D01*
X1003172Y21028623D01*
X1003173Y21028622D01*
X1076077Y20933612D01*
X1095847Y20907847D01*
X1221250Y20811622D01*
X1367285Y20751132D01*
X1524000Y20730500D01*
X1680715Y20751132D01*
X1826750Y20811622D01*
X1831380Y20815175D01*
X1831384Y20815177D01*
X1899062Y20867108D01*
X1953242Y20885500D01*
X2901721Y20885500D01*
X2912182Y20884883D01*
X2947305Y20880726D01*
X3005554Y20891364D01*
X3008312Y20891823D01*
X3060356Y20899647D01*
X3060357Y20899647D01*
X3066933Y20900636D01*
X3072726Y20903418D01*
X3074227Y20903906D01*
X3080542Y20905059D01*
X3133107Y20932364D01*
X3135605Y20933612D01*
X3183030Y20956385D01*
X3183031Y20956386D01*
X3189027Y20959265D01*
X3193156Y20963082D01*
X3196231Y20965155D01*
X3200734Y20967493D01*
X3204589Y20970786D01*
X3204592Y20970788D01*
X3205302Y20971395D01*
X3206626Y20972526D01*
X3245176Y21011076D01*
X3247696Y21013498D01*
X3264057Y21028622D01*
X3288484Y21051202D01*
X3291828Y21056959D01*
X3291863Y21057003D01*
X3298391Y21064291D01*
X5616020Y23381919D01*
X5671195Y23407647D01*
X5730000Y23391891D01*
X5764576Y23342511D01*
X5765132Y23338285D01*
X5825622Y23192250D01*
X5921847Y23066847D01*
X6047250Y22970622D01*
X6193285Y22910132D01*
X6307506Y22895094D01*
X6361506Y22866984D01*
X6384803Y22810738D01*
X6358821Y22743924D01*
X3522466Y19907568D01*
X3459533Y19881500D01*
X1953242Y19881500D01*
X1899062Y19899892D01*
X1831384Y19951823D01*
X1831380Y19951825D01*
X1826750Y19955378D01*
X1792527Y19969554D01*
X1686106Y20013635D01*
X1680715Y20015868D01*
X1524000Y20036500D01*
X1367285Y20015868D01*
X1221250Y19955378D01*
X1095847Y19859153D01*
X999622Y19733750D01*
X939132Y19587715D01*
X918500Y19431000D01*
X939132Y19274285D01*
X999622Y19128250D01*
X1095847Y19002847D01*
X1221250Y18906622D01*
X1367285Y18846132D01*
X1524000Y18825500D01*
X1680715Y18846132D01*
X1826750Y18906622D01*
X1831380Y18910175D01*
X1831384Y18910177D01*
X1899062Y18962108D01*
X1953242Y18980500D01*
X3396532Y18980500D01*
X3453740Y18959678D01*
X3484180Y18906955D01*
X3459465Y18828567D01*
X2260154Y17629256D01*
X2204978Y17603528D01*
X2143041Y17621581D01*
X2085384Y17665823D01*
X2085380Y17665825D01*
X2080750Y17669378D01*
X2047809Y17683023D01*
X1940106Y17727635D01*
X1934715Y17729868D01*
X1778000Y17750500D01*
X1621285Y17729868D01*
X1475250Y17669378D01*
X1470623Y17665828D01*
X1470622Y17665827D01*
X1378970Y17595500D01*
X1349847Y17573153D01*
X1253622Y17447750D01*
X1193132Y17301715D01*
X1172500Y17145000D01*
X1193132Y16988285D01*
X1253622Y16842250D01*
X1349847Y16716847D01*
X1475250Y16620622D01*
X1621285Y16560132D01*
X1778000Y16539500D01*
X1934715Y16560132D01*
X2080750Y16620622D01*
X2085380Y16624175D01*
X2085384Y16624177D01*
X2153062Y16676108D01*
X2207242Y16694500D01*
X2253532Y16694500D01*
X2310740Y16673678D01*
X2341180Y16620955D01*
X2316465Y16542567D01*
X1635969Y15862071D01*
X1584654Y15836766D01*
X1494285Y15824868D01*
X1348250Y15764378D01*
X1343623Y15760828D01*
X1343622Y15760827D01*
X1287099Y15717455D01*
X1222847Y15668153D01*
X1219292Y15663520D01*
X1185603Y15619615D01*
X1126622Y15542750D01*
X1066132Y15396715D01*
X1045500Y15240000D01*
X1066132Y15083285D01*
X1126622Y14937250D01*
X1222847Y14811847D01*
X1227480Y14808292D01*
X1305562Y14748378D01*
X1348250Y14715622D01*
X1447527Y14674500D01*
X1486449Y14658378D01*
X1494285Y14655132D01*
X1651000Y14634500D01*
X1807715Y14655132D01*
X1815552Y14658378D01*
X1854473Y14674500D01*
X1953750Y14715622D01*
X1996439Y14748378D01*
X2074520Y14808292D01*
X2079153Y14811847D01*
X2175378Y14937250D01*
X2235868Y15083285D01*
X2247766Y15173654D01*
X2273071Y15224969D01*
X15773719Y28725616D01*
X15828895Y28751344D01*
X15907258Y28716866D01*
X15914107Y28707941D01*
X15932501Y28653758D01*
X15932500Y28163469D01*
X15906433Y28100536D01*
X9668510Y21862612D01*
X3523359Y15717461D01*
X3523352Y15717455D01*
X1635969Y13830071D01*
X1584655Y13804766D01*
X1544123Y13799429D01*
X1494285Y13792868D01*
X1348250Y13732378D01*
X1343623Y13728828D01*
X1343622Y13728827D01*
X1302653Y13697390D01*
X1222847Y13636153D01*
X1219292Y13631520D01*
X1130350Y13515608D01*
X1126622Y13510750D01*
X1066132Y13364715D01*
X1045500Y13208000D01*
X1066132Y13051285D01*
X1126622Y12905250D01*
X1222847Y12779847D01*
X1348250Y12683622D01*
X1494285Y12623132D01*
X1651000Y12602500D01*
X1807715Y12623132D01*
X1953750Y12683622D01*
X2079153Y12779847D01*
X2175378Y12905250D01*
X2235868Y13051285D01*
X2247766Y13141655D01*
X2273073Y13192971D01*
X3431102Y14351000D01*
X5363500Y14351000D01*
X5384132Y14194285D01*
X5444622Y14048250D01*
X5540847Y13922847D01*
X5666250Y13826622D01*
X5812285Y13766132D01*
X5969000Y13745500D01*
X5974780Y13746261D01*
X5983683Y13747433D01*
X6033116Y13753941D01*
X6092553Y13740764D01*
X6129614Y13692465D01*
X6126958Y13631643D01*
X6107666Y13602769D01*
X6080968Y13576071D01*
X6029653Y13550766D01*
X5939285Y13538868D01*
X5793250Y13478378D01*
X5667847Y13382153D01*
X5571622Y13256750D01*
X5511132Y13110715D01*
X5490500Y12954000D01*
X5511132Y12797285D01*
X5571622Y12651250D01*
X5575172Y12646623D01*
X5575173Y12646622D01*
X5608445Y12603261D01*
X5667847Y12525847D01*
X5793250Y12429622D01*
X5939285Y12369132D01*
X6096000Y12348500D01*
X6252715Y12369132D01*
X6398750Y12429622D01*
X6524153Y12525847D01*
X6583555Y12603261D01*
X6616827Y12646622D01*
X6616828Y12646623D01*
X6620378Y12651250D01*
X6680868Y12797285D01*
X6692766Y12887653D01*
X6718071Y12938968D01*
X7526536Y13747433D01*
X7589469Y13773500D01*
X16842758Y13773500D01*
X16896938Y13755108D01*
X16964616Y13703177D01*
X16964620Y13703175D01*
X16969250Y13699622D01*
X16974642Y13697388D01*
X16974643Y13697388D01*
X17109894Y13641365D01*
X17115285Y13639132D01*
X17272000Y13618500D01*
X17428715Y13639132D01*
X17442264Y13644744D01*
X17465155Y13654226D01*
X17574750Y13699622D01*
X17588935Y13710506D01*
X17695520Y13792292D01*
X17700153Y13795847D01*
X17796378Y13921250D01*
X17856868Y14067285D01*
X17877500Y14224000D01*
X17856868Y14380715D01*
X17796378Y14526750D01*
X17749531Y14587803D01*
X17703708Y14647520D01*
X17700153Y14652153D01*
X17620347Y14713390D01*
X17579378Y14744827D01*
X17579377Y14744828D01*
X17574750Y14748378D01*
X17569365Y14750609D01*
X17569359Y14750612D01*
X17547371Y14759719D01*
X17502485Y14800848D01*
X17494539Y14861207D01*
X17510819Y14896121D01*
X17531060Y14922500D01*
X35589500Y14922500D01*
X35610132Y14765785D01*
X35670622Y14619750D01*
X35766847Y14494347D01*
X35892250Y14398122D01*
X36038285Y14337632D01*
X36195000Y14317000D01*
X36351715Y14337632D01*
X36497750Y14398122D01*
X36623153Y14494347D01*
X36719378Y14619750D01*
X36779868Y14765785D01*
X36800500Y14922500D01*
X36779868Y15079215D01*
X36719378Y15225250D01*
X36623153Y15350653D01*
X36497750Y15446878D01*
X36351715Y15507368D01*
X36195000Y15528000D01*
X36038285Y15507368D01*
X35892250Y15446878D01*
X35766847Y15350653D01*
X35670622Y15225250D01*
X35610132Y15079215D01*
X35589500Y14922500D01*
X17531060Y14922500D01*
X17542378Y14937250D01*
X17602868Y15083285D01*
X17623500Y15240000D01*
X17602868Y15396715D01*
X17542378Y15542750D01*
X17531061Y15557500D01*
X31144500Y15557500D01*
X31165132Y15400785D01*
X31225622Y15254750D01*
X31321847Y15129347D01*
X31447250Y15033122D01*
X31593285Y14972632D01*
X31750000Y14952000D01*
X31906715Y14972632D01*
X32052750Y15033122D01*
X32178153Y15129347D01*
X32274378Y15254750D01*
X32334868Y15400785D01*
X32355500Y15557500D01*
X32334868Y15714215D01*
X32274378Y15860250D01*
X32178153Y15985653D01*
X32052750Y16081878D01*
X31906715Y16142368D01*
X31750000Y16163000D01*
X31593285Y16142368D01*
X31447250Y16081878D01*
X31321847Y15985653D01*
X31225622Y15860250D01*
X31165132Y15714215D01*
X31144500Y15557500D01*
X17531061Y15557500D01*
X17483398Y15619615D01*
X17449708Y15663520D01*
X17446153Y15668153D01*
X17381901Y15717455D01*
X17325378Y15760827D01*
X17325377Y15760828D01*
X17320750Y15764378D01*
X17174715Y15824868D01*
X17018000Y15845500D01*
X16861285Y15824868D01*
X16715250Y15764378D01*
X16710620Y15760825D01*
X16710616Y15760823D01*
X16642938Y15708892D01*
X16588758Y15690500D01*
X6889282Y15690500D01*
X6878821Y15691117D01*
X6843692Y15695275D01*
X6837149Y15694080D01*
X6837148Y15694080D01*
X6785418Y15684633D01*
X6782662Y15684174D01*
X6752311Y15679611D01*
X6724065Y15675364D01*
X6718279Y15672586D01*
X6716772Y15672096D01*
X6710455Y15670942D01*
X6657844Y15643613D01*
X6655383Y15642384D01*
X6607967Y15619615D01*
X6607964Y15619613D01*
X6601971Y15616735D01*
X6597844Y15612920D01*
X6594765Y15610845D01*
X6590264Y15608507D01*
X6584371Y15603474D01*
X6545809Y15564912D01*
X6543289Y15562490D01*
X6502514Y15524798D01*
X6499174Y15519049D01*
X6499138Y15519003D01*
X6492613Y15511716D01*
X5953968Y14973071D01*
X5902653Y14947766D01*
X5812285Y14935868D01*
X5806894Y14933635D01*
X5793966Y14928280D01*
X5666250Y14875378D01*
X5661623Y14871828D01*
X5661622Y14871827D01*
X5557806Y14792166D01*
X5540847Y14779153D01*
X5537292Y14774520D01*
X5492354Y14715955D01*
X5444622Y14653750D01*
X5384132Y14507715D01*
X5363500Y14351000D01*
X3431102Y14351000D01*
X4139049Y15058946D01*
X4139053Y15058950D01*
X16679437Y27599333D01*
X16687270Y27606293D01*
X16709819Y27624069D01*
X16709820Y27624070D01*
X16715045Y27628189D01*
X16748731Y27676928D01*
X16750357Y27679203D01*
X16781601Y27721503D01*
X16781602Y27721506D01*
X16785555Y27726857D01*
X16787683Y27732916D01*
X16788400Y27734325D01*
X16792052Y27739608D01*
X16809930Y27796140D01*
X16810807Y27798765D01*
X16828225Y27848365D01*
X16828225Y27848368D01*
X16830431Y27854648D01*
X16830651Y27860253D01*
X16831364Y27863914D01*
X16832892Y27868744D01*
X16833500Y27876469D01*
X16833500Y27931011D01*
X16833569Y27934506D01*
X16835488Y27983331D01*
X16835488Y27983334D01*
X16835749Y27989984D01*
X16834043Y27996420D01*
X16834037Y27996470D01*
X16833500Y28006236D01*
X16833500Y28653758D01*
X16851892Y28707938D01*
X16903823Y28775616D01*
X16903825Y28775620D01*
X16907378Y28780250D01*
X16925341Y28823615D01*
X16965635Y28920894D01*
X16967868Y28926285D01*
X16988500Y29083000D01*
X16967868Y29239715D01*
X16907378Y29385750D01*
X16880945Y29420199D01*
X16814708Y29506520D01*
X16811153Y29511153D01*
X16685750Y29607378D01*
X16539715Y29667868D01*
X16383000Y29688500D01*
X16226285Y29667868D01*
X16080250Y29607378D01*
X16077235Y29605064D01*
X16018045Y29594628D01*
X15965322Y29625069D01*
X15944500Y29682276D01*
X15944500Y33479000D01*
X17754477Y33479000D01*
X17775109Y33322285D01*
X17835599Y33176250D01*
X17839149Y33171623D01*
X17839150Y33171622D01*
X17862478Y33141220D01*
X17931824Y33050847D01*
X17936457Y33047292D01*
X17966019Y33024608D01*
X17998729Y32973263D01*
X17990783Y32912904D01*
X17966019Y32883392D01*
X17953005Y32873406D01*
X17931824Y32857153D01*
X17928269Y32852520D01*
X17854003Y32755734D01*
X17835599Y32731750D01*
X17805424Y32658901D01*
X17783813Y32606727D01*
X17775109Y32585715D01*
X17754477Y32429000D01*
X17775109Y32272285D01*
X17835599Y32126250D01*
X17839149Y32121623D01*
X17839150Y32121622D01*
X17883804Y32063428D01*
X17931824Y32000847D01*
X17936457Y31997292D01*
X18047474Y31912106D01*
X18057227Y31904622D01*
X18203262Y31844132D01*
X18359977Y31823500D01*
X18516692Y31844132D01*
X18522083Y31846365D01*
X18559622Y31861914D01*
X18620444Y31864570D01*
X18656614Y31842622D01*
X18837304Y31661932D01*
X18837319Y31661918D01*
X23688975Y26810261D01*
X23715042Y26747329D01*
X23715041Y25873800D01*
X23694219Y25816592D01*
X23660101Y25791576D01*
X23602791Y25767837D01*
X23477388Y25671612D01*
X23473833Y25666979D01*
X23389060Y25556500D01*
X23381163Y25546209D01*
X23320673Y25400174D01*
X23300041Y25243459D01*
X23320673Y25086744D01*
X23381163Y24940709D01*
X23477388Y24815306D01*
X23482021Y24811751D01*
X23578494Y24737725D01*
X23602791Y24719081D01*
X23748826Y24658591D01*
X23905541Y24637959D01*
X24062256Y24658591D01*
X24208291Y24719081D01*
X24232589Y24737725D01*
X24329061Y24811751D01*
X24333694Y24815306D01*
X24429919Y24940709D01*
X24449664Y24988377D01*
X24490794Y25033262D01*
X24551153Y25041208D01*
X24614114Y24988376D01*
X24621622Y24970250D01*
X24625172Y24965623D01*
X24625173Y24965622D01*
X24647841Y24936081D01*
X24717847Y24844847D01*
X24722480Y24841292D01*
X24817191Y24768618D01*
X24843250Y24748622D01*
X24989285Y24688132D01*
X25146000Y24667500D01*
X25302715Y24688132D01*
X25339382Y24703320D01*
X25422443Y24737725D01*
X25483265Y24740381D01*
X25531564Y24703320D01*
X25545502Y24655500D01*
X25545502Y20477023D01*
X25519435Y20414091D01*
X24367457Y19262112D01*
X24330151Y19214535D01*
X24291847Y19165685D01*
X24291845Y19165682D01*
X24288541Y19161468D01*
X24286336Y19156584D01*
X24220990Y19011860D01*
X24220989Y19011856D01*
X24218784Y19006973D01*
X24217807Y19001703D01*
X24217807Y19001702D01*
X24199772Y18904390D01*
X24187893Y18840298D01*
X24197651Y18671067D01*
X24247494Y18509048D01*
X24334546Y18363595D01*
X24453781Y18243105D01*
X24598315Y18154534D01*
X24603421Y18152905D01*
X24603422Y18152904D01*
X24754689Y18104629D01*
X24759803Y18102997D01*
X24928922Y18091467D01*
X25095911Y18120611D01*
X25251128Y18188747D01*
X25255387Y18192015D01*
X25353148Y18267030D01*
X25353152Y18267034D01*
X25355458Y18268803D01*
X26723466Y19636809D01*
X26727892Y19640943D01*
X26766248Y19674403D01*
X26770290Y19677929D01*
X26807149Y19730373D01*
X26809926Y19734112D01*
X26846147Y19780308D01*
X26849460Y19784533D01*
X26851671Y19789429D01*
X26853634Y19793775D01*
X26861927Y19808314D01*
X26864677Y19812227D01*
X26864679Y19812230D01*
X26867761Y19816616D01*
X26891044Y19876335D01*
X26892839Y19880606D01*
X26919217Y19939027D01*
X26921065Y19948996D01*
X26925652Y19965100D01*
X26927388Y19969554D01*
X26929336Y19974550D01*
X26937701Y20038085D01*
X26938430Y20042687D01*
X26949131Y20100425D01*
X26949131Y20100427D01*
X26950109Y20105703D01*
X26946649Y20165710D01*
X26946501Y20170832D01*
X26946501Y25357664D01*
X27422934Y25357664D01*
X27454499Y25067106D01*
X27524215Y24783274D01*
X27630856Y24511157D01*
X27632286Y24508576D01*
X27632289Y24508571D01*
X27771117Y24258119D01*
X27771121Y24258113D01*
X27772551Y24255533D01*
X27774308Y24253167D01*
X27774312Y24253161D01*
X27792270Y24228981D01*
X27946808Y24020896D01*
X28150567Y23811366D01*
X28380248Y23630625D01*
X28631815Y23481848D01*
X28900849Y23367650D01*
X28903689Y23366868D01*
X28903694Y23366866D01*
X29179782Y23290819D01*
X29179790Y23290817D01*
X29182623Y23290037D01*
X29185537Y23289638D01*
X29185541Y23289637D01*
X29430263Y23256114D01*
X29472187Y23250371D01*
X29618320Y23249861D01*
X29761492Y23249361D01*
X29761497Y23249361D01*
X29764453Y23249351D01*
X30054287Y23286994D01*
X30336596Y23362638D01*
X30339317Y23363771D01*
X30339321Y23363772D01*
X30456396Y23412506D01*
X30606421Y23474956D01*
X30608976Y23476443D01*
X30608980Y23476445D01*
X30732721Y23548464D01*
X30859020Y23621972D01*
X30889909Y23645932D01*
X31087624Y23799295D01*
X31087627Y23799298D01*
X31089957Y23801105D01*
X31205744Y23918520D01*
X31293107Y24007111D01*
X31293113Y24007118D01*
X31295174Y24009208D01*
X31471065Y24242623D01*
X31614541Y24497251D01*
X31621204Y24513908D01*
X31670820Y24637959D01*
X31723080Y24768618D01*
X31794775Y25051955D01*
X31828368Y25342286D01*
X31831000Y25450000D01*
X31824610Y25546209D01*
X31811826Y25738681D01*
X31811825Y25738688D01*
X31811630Y25741625D01*
X31753861Y26028127D01*
X31707765Y26162000D01*
X38002500Y26162000D01*
X38023132Y26005285D01*
X38083622Y25859250D01*
X38087172Y25854623D01*
X38087173Y25854622D01*
X38126898Y25802852D01*
X38179847Y25733847D01*
X38184480Y25730292D01*
X38289321Y25649845D01*
X38305250Y25637622D01*
X38451285Y25577132D01*
X38608000Y25556500D01*
X38764715Y25577132D01*
X38910750Y25637622D01*
X38926680Y25649845D01*
X39031520Y25730292D01*
X39036153Y25733847D01*
X39089102Y25802852D01*
X39128827Y25854622D01*
X39128828Y25854623D01*
X39132378Y25859250D01*
X39192868Y26005285D01*
X39213500Y26162000D01*
X39192868Y26318715D01*
X39132378Y26464750D01*
X39036153Y26590153D01*
X38997610Y26619728D01*
X38915378Y26682827D01*
X38915377Y26682828D01*
X38910750Y26686378D01*
X38764715Y26746868D01*
X38608000Y26767500D01*
X38451285Y26746868D01*
X38305250Y26686378D01*
X38300623Y26682828D01*
X38300622Y26682827D01*
X38218390Y26619728D01*
X38179847Y26590153D01*
X38083622Y26464750D01*
X38023132Y26318715D01*
X38002500Y26162000D01*
X31707765Y26162000D01*
X31658708Y26304472D01*
X31527843Y26565804D01*
X31514444Y26585520D01*
X31365227Y26805088D01*
X31365222Y26805095D01*
X31363564Y26807534D01*
X31227757Y26959426D01*
X31170729Y27023208D01*
X31170726Y27023211D01*
X31168758Y27025412D01*
X31165135Y27028518D01*
X31014444Y27157675D01*
X30946847Y27215613D01*
X30944387Y27217211D01*
X30944381Y27217215D01*
X30731607Y27355391D01*
X30701731Y27374793D01*
X30437715Y27500157D01*
X30340140Y27531485D01*
X30162245Y27588601D01*
X30162242Y27588602D01*
X30159438Y27589502D01*
X29939672Y27629044D01*
X29874697Y27640735D01*
X29874694Y27640735D01*
X29871789Y27641258D01*
X29579822Y27654516D01*
X29576885Y27654259D01*
X29576883Y27654259D01*
X29492196Y27646850D01*
X29288666Y27629044D01*
X29003437Y27565287D01*
X28904363Y27528835D01*
X28731914Y27465387D01*
X28731907Y27465384D01*
X28729146Y27464368D01*
X28726539Y27462993D01*
X28726538Y27462993D01*
X28473220Y27329434D01*
X28473215Y27329431D01*
X28470611Y27328058D01*
X28232375Y27158753D01*
X28230220Y27156744D01*
X28230217Y27156741D01*
X28020786Y26961443D01*
X28020779Y26961436D01*
X28018624Y26959426D01*
X27833113Y26733581D01*
X27679101Y26485185D01*
X27677892Y26482496D01*
X27677892Y26482495D01*
X27578090Y26260425D01*
X27559293Y26218601D01*
X27558451Y26215775D01*
X27489615Y25984868D01*
X27475796Y25938514D01*
X27430075Y25649845D01*
X27428298Y25577132D01*
X27423832Y25394391D01*
X27422934Y25357664D01*
X26946501Y25357664D01*
X26946501Y29464000D01*
X36732500Y29464000D01*
X36753132Y29307285D01*
X36813622Y29161250D01*
X36909847Y29035847D01*
X37035250Y28939622D01*
X37181285Y28879132D01*
X37338000Y28858500D01*
X37494715Y28879132D01*
X37640750Y28939622D01*
X37766153Y29035847D01*
X37862378Y29161250D01*
X37922868Y29307285D01*
X37943500Y29464000D01*
X37922868Y29620715D01*
X37862378Y29766750D01*
X37838573Y29797774D01*
X37769708Y29887520D01*
X37766153Y29892153D01*
X37697184Y29945075D01*
X37645378Y29984827D01*
X37645377Y29984828D01*
X37640750Y29988378D01*
X37494715Y30048868D01*
X37338000Y30069500D01*
X37181285Y30048868D01*
X37035250Y29988378D01*
X37030623Y29984828D01*
X37030622Y29984827D01*
X36978816Y29945075D01*
X36909847Y29892153D01*
X36906292Y29887520D01*
X36837428Y29797774D01*
X36813622Y29766750D01*
X36753132Y29620715D01*
X36732500Y29464000D01*
X26946501Y29464000D01*
X26946501Y32316737D01*
X26946707Y32322791D01*
X26947688Y32337185D01*
X26950534Y32378924D01*
X26939513Y32442072D01*
X26938834Y32446676D01*
X26931781Y32504960D01*
X26931780Y32504964D01*
X26931136Y32510286D01*
X26927551Y32519775D01*
X26923135Y32535917D01*
X26921390Y32545913D01*
X26914271Y32562132D01*
X26895631Y32604595D01*
X26893871Y32608908D01*
X26873116Y32663834D01*
X26873115Y32663836D01*
X26871218Y32668856D01*
X26865473Y32677216D01*
X26857331Y32691843D01*
X26855408Y32696223D01*
X26853254Y32701130D01*
X26814246Y32751965D01*
X26811508Y32755734D01*
X26804453Y32766000D01*
X28096500Y32766000D01*
X28117132Y32609285D01*
X28177622Y32463250D01*
X28181172Y32458623D01*
X28181173Y32458622D01*
X28249735Y32369271D01*
X28273847Y32337847D01*
X28278480Y32334292D01*
X28391216Y32247787D01*
X28399250Y32241622D01*
X28545285Y32181132D01*
X28702000Y32160500D01*
X28858715Y32181132D01*
X29004750Y32241622D01*
X29012785Y32247787D01*
X29125520Y32334292D01*
X29130153Y32337847D01*
X29154265Y32369271D01*
X29222827Y32458622D01*
X29222828Y32458623D01*
X29226378Y32463250D01*
X29286868Y32609285D01*
X29307500Y32766000D01*
X29297495Y32842001D01*
X35894499Y32842001D01*
X35915131Y32685286D01*
X35975621Y32539251D01*
X35979171Y32534624D01*
X35979172Y32534623D01*
X36036900Y32459391D01*
X36071846Y32413848D01*
X36076479Y32410293D01*
X36182364Y32329045D01*
X36197249Y32317623D01*
X36343284Y32257133D01*
X36499999Y32236501D01*
X36656714Y32257133D01*
X36802749Y32317623D01*
X36817635Y32329045D01*
X36923519Y32410293D01*
X36928152Y32413848D01*
X36963098Y32459391D01*
X37020826Y32534623D01*
X37020827Y32534624D01*
X37024377Y32539251D01*
X37084867Y32685286D01*
X37105499Y32842001D01*
X37084867Y32998716D01*
X37024377Y33144751D01*
X37003768Y33171610D01*
X36931707Y33265521D01*
X36928152Y33270154D01*
X36867239Y33316894D01*
X36807377Y33362828D01*
X36807376Y33362829D01*
X36802749Y33366379D01*
X36656714Y33426869D01*
X36499999Y33447501D01*
X36343284Y33426869D01*
X36197249Y33366379D01*
X36192622Y33362829D01*
X36192621Y33362828D01*
X36132759Y33316894D01*
X36071846Y33270154D01*
X36068291Y33265521D01*
X35996231Y33171610D01*
X35975621Y33144751D01*
X35915131Y32998716D01*
X35894499Y32842001D01*
X29297495Y32842001D01*
X29286868Y32922715D01*
X29226378Y33068750D01*
X29201551Y33101106D01*
X29133708Y33189520D01*
X29130153Y33194153D01*
X29037144Y33265521D01*
X29009378Y33286827D01*
X29009377Y33286828D01*
X29004750Y33290378D01*
X28858715Y33350868D01*
X28702000Y33371500D01*
X28545285Y33350868D01*
X28399250Y33290378D01*
X28394623Y33286828D01*
X28394622Y33286827D01*
X28366856Y33265521D01*
X28273847Y33194153D01*
X28270292Y33189520D01*
X28202450Y33101106D01*
X28177622Y33068750D01*
X28117132Y32922715D01*
X28096500Y32766000D01*
X26804453Y32766000D01*
X26804171Y32766409D01*
X26775204Y32808557D01*
X26764497Y32818097D01*
X26730322Y32848545D01*
X26726595Y32852063D01*
X26045977Y33532681D01*
X25364568Y34214089D01*
X25338500Y34277022D01*
X25338500Y42967317D01*
X25323135Y43094285D01*
X25263217Y43252855D01*
X25205582Y43336715D01*
X25170245Y43388131D01*
X25170241Y43388135D01*
X25167203Y43392556D01*
X25157056Y43401597D01*
X25044644Y43501751D01*
X25040637Y43505321D01*
X25009340Y43521892D01*
X24895571Y43582130D01*
X24895569Y43582131D01*
X24890828Y43584641D01*
X24880434Y43587252D01*
X24783070Y43611708D01*
X24726422Y43625937D01*
X24648844Y43626343D01*
X24562275Y43626796D01*
X24562274Y43626796D01*
X24556912Y43626824D01*
X24392082Y43587252D01*
X24241450Y43509505D01*
X24113711Y43398071D01*
X24110628Y43393684D01*
X24046117Y43301894D01*
X24016240Y43259384D01*
X23954665Y43101450D01*
X23953965Y43096132D01*
X23943665Y43017894D01*
X23937500Y42971069D01*
X23937501Y35351077D01*
X23937500Y35351069D01*
X23937500Y35351053D01*
X23937501Y33975281D01*
X23937295Y33969228D01*
X23933467Y33913080D01*
X23934389Y33907798D01*
X23934389Y33907796D01*
X23944490Y33849918D01*
X23945170Y33845310D01*
X23952866Y33781717D01*
X23954762Y33776698D01*
X23954763Y33776696D01*
X23956446Y33772243D01*
X23960867Y33756084D01*
X23962611Y33746091D01*
X23988380Y33687387D01*
X23990128Y33683104D01*
X24012784Y33623147D01*
X24015821Y33618729D01*
X24015822Y33618726D01*
X24018526Y33614792D01*
X24026673Y33600154D01*
X24030747Y33590874D01*
X24034015Y33586616D01*
X24034015Y33586615D01*
X24069757Y33540036D01*
X24072495Y33536267D01*
X24108798Y33483446D01*
X24112806Y33479875D01*
X24112807Y33479874D01*
X24153673Y33443464D01*
X24157401Y33439946D01*
X24464223Y33133124D01*
X24489951Y33077948D01*
X24474195Y33019143D01*
X24412907Y32981952D01*
X24360508Y32975054D01*
X24214473Y32914564D01*
X24209846Y32911014D01*
X24209845Y32911013D01*
X24169091Y32879741D01*
X24089070Y32818339D01*
X24085515Y32813706D01*
X24011892Y32717758D01*
X23992845Y32692936D01*
X23932355Y32546901D01*
X23918553Y32442067D01*
X23916079Y32423272D01*
X23887968Y32369271D01*
X23816223Y32346650D01*
X23754780Y32354739D01*
X23749000Y32355500D01*
X23592285Y32334868D01*
X23446250Y32274378D01*
X23441623Y32270828D01*
X23441622Y32270827D01*
X23403039Y32241221D01*
X23320847Y32178153D01*
X23317292Y32173520D01*
X23232816Y32063428D01*
X23224622Y32052750D01*
X23164132Y31906715D01*
X23143500Y31750000D01*
X23164132Y31593285D01*
X23224622Y31447250D01*
X23320847Y31321847D01*
X23446250Y31225622D01*
X23592285Y31165132D01*
X23749000Y31144500D01*
X23905715Y31165132D01*
X24051750Y31225622D01*
X24177153Y31321847D01*
X24273378Y31447250D01*
X24333868Y31593285D01*
X24350144Y31716914D01*
X24378255Y31770915D01*
X24450000Y31793536D01*
X24511443Y31785447D01*
X24517223Y31784686D01*
X24673938Y31805318D01*
X24819973Y31865808D01*
X24853838Y31891793D01*
X24940743Y31958478D01*
X24945376Y31962033D01*
X24993580Y32024854D01*
X25038050Y32082808D01*
X25038051Y32082809D01*
X25041601Y32087436D01*
X25102091Y32233471D01*
X25108989Y32285869D01*
X25137100Y32339869D01*
X25193345Y32363167D01*
X25260161Y32337185D01*
X25519434Y32077912D01*
X25545501Y32014979D01*
X25545502Y28920894D01*
X25545502Y27321969D01*
X25532967Y27287530D01*
X25545502Y27262525D01*
X25545502Y25890500D01*
X25524680Y25833292D01*
X25471957Y25802852D01*
X25422452Y25808271D01*
X25420989Y25808877D01*
X25376101Y25850002D01*
X25366041Y25891105D01*
X25366041Y27250183D01*
X25366658Y27260645D01*
X25368119Y27272987D01*
X25378161Y27292910D01*
X25368950Y27305980D01*
X25360178Y27354012D01*
X25359719Y27356769D01*
X25351894Y27408815D01*
X25350905Y27415394D01*
X25348126Y27421181D01*
X25347635Y27422691D01*
X25346482Y27429005D01*
X25319172Y27481578D01*
X25317943Y27484039D01*
X25295160Y27531485D01*
X25295155Y27531492D01*
X25292276Y27537488D01*
X25288458Y27541618D01*
X25286385Y27544695D01*
X25284047Y27549196D01*
X25280756Y27553049D01*
X25280753Y27553054D01*
X25280150Y27553759D01*
X25279015Y27555088D01*
X25240453Y27593650D01*
X25238031Y27596170D01*
X25228673Y27606293D01*
X25200339Y27636945D01*
X25194589Y27640285D01*
X25194539Y27640325D01*
X25187253Y27646850D01*
X20026170Y32807932D01*
X20026144Y32807959D01*
X19058674Y33775429D01*
X19051715Y33783261D01*
X19033930Y33805821D01*
X19033928Y33805823D01*
X19029811Y33811045D01*
X19024340Y33814827D01*
X19024338Y33814828D01*
X18981056Y33844742D01*
X18978781Y33846368D01*
X18936495Y33877601D01*
X18936496Y33877601D01*
X18931142Y33881555D01*
X18925083Y33883682D01*
X18923676Y33884399D01*
X18918392Y33888052D01*
X18861892Y33905921D01*
X18859242Y33906805D01*
X18809629Y33924227D01*
X18809628Y33924227D01*
X18803352Y33926431D01*
X18797747Y33926651D01*
X18794087Y33927364D01*
X18789256Y33928892D01*
X18784201Y33929290D01*
X18784195Y33929291D01*
X18782712Y33929408D01*
X18781801Y33929758D01*
X18779218Y33930261D01*
X18779307Y33930715D01*
X18735519Y33947524D01*
X18667360Y33999824D01*
X18667355Y33999827D01*
X18662727Y34003378D01*
X18516692Y34063868D01*
X18359977Y34084500D01*
X18203262Y34063868D01*
X18057227Y34003378D01*
X18052600Y33999828D01*
X18052599Y33999827D01*
X17962531Y33930715D01*
X17931824Y33907153D01*
X17923403Y33896178D01*
X17860981Y33814828D01*
X17835599Y33781750D01*
X17775109Y33635715D01*
X17754477Y33479000D01*
X15944500Y33479000D01*
X15944500Y39286522D01*
X15970568Y39349455D01*
X16779031Y40157917D01*
X16830346Y40183223D01*
X16872498Y40188773D01*
X16920715Y40195121D01*
X16929018Y40198560D01*
X16988228Y40223086D01*
X17066750Y40255611D01*
X17076818Y40263336D01*
X17187520Y40348281D01*
X17192153Y40351836D01*
X17261823Y40442632D01*
X17284827Y40472611D01*
X17284828Y40472612D01*
X17288378Y40477239D01*
X17348868Y40623274D01*
X17369500Y40779989D01*
X17348868Y40936704D01*
X17326260Y40991285D01*
X17299276Y41056430D01*
X17296620Y41117252D01*
X17333681Y41165551D01*
X17381501Y41179489D01*
X18090544Y41179489D01*
X18153478Y41153420D01*
X18173929Y41132968D01*
X18199234Y41081654D01*
X18200720Y41070371D01*
X18211132Y40991285D01*
X18271622Y40845250D01*
X18275172Y40840623D01*
X18275173Y40840622D01*
X18295203Y40814519D01*
X18367847Y40719847D01*
X18372480Y40716292D01*
X18465575Y40644858D01*
X18493250Y40623622D01*
X18639285Y40563132D01*
X18796000Y40542500D01*
X18952715Y40563132D01*
X19098750Y40623622D01*
X19126426Y40644858D01*
X19219520Y40716292D01*
X19224153Y40719847D01*
X19296797Y40814519D01*
X19316827Y40840622D01*
X19316828Y40840623D01*
X19320378Y40845250D01*
X19380868Y40991285D01*
X19401500Y41148000D01*
X19380868Y41304715D01*
X19320378Y41450750D01*
X19287273Y41493894D01*
X19227708Y41571520D01*
X19224153Y41576153D01*
X19178766Y41610980D01*
X19103378Y41668827D01*
X19103377Y41668828D01*
X19098750Y41672378D01*
X19022963Y41703770D01*
X19012090Y41708274D01*
X18967205Y41749404D01*
X18959259Y41809762D01*
X18991969Y41861108D01*
X19046149Y41879499D01*
X19930534Y41879499D01*
X19993467Y41853431D01*
X20459928Y41386969D01*
X20485234Y41335654D01*
X20497132Y41245285D01*
X20557622Y41099250D01*
X20561172Y41094623D01*
X20561173Y41094622D01*
X20588327Y41059234D01*
X20653847Y40973847D01*
X20658480Y40970292D01*
X20766003Y40887787D01*
X20779250Y40877622D01*
X20925285Y40817132D01*
X21082000Y40796500D01*
X21238715Y40817132D01*
X21384750Y40877622D01*
X21397998Y40887787D01*
X21505520Y40970292D01*
X21510153Y40973847D01*
X21575673Y41059234D01*
X21602827Y41094622D01*
X21602828Y41094623D01*
X21606378Y41099250D01*
X21666868Y41245285D01*
X21687500Y41402000D01*
X21666868Y41558715D01*
X21606378Y41704750D01*
X21567647Y41755226D01*
X21513708Y41825520D01*
X21510153Y41830153D01*
X21483583Y41850541D01*
X21389378Y41922827D01*
X21389377Y41922828D01*
X21384750Y41926378D01*
X21238715Y41986868D01*
X21148347Y41998766D01*
X21097032Y42024071D01*
X20494675Y42626428D01*
X20487716Y42634260D01*
X20469931Y42656820D01*
X20469929Y42656822D01*
X20465812Y42662044D01*
X20460341Y42665826D01*
X20460339Y42665827D01*
X20417057Y42695741D01*
X20414782Y42697367D01*
X20372496Y42728600D01*
X20372497Y42728600D01*
X20367143Y42732554D01*
X20361084Y42734681D01*
X20359677Y42735398D01*
X20354393Y42739051D01*
X20297893Y42756920D01*
X20295243Y42757804D01*
X20245630Y42775226D01*
X20245629Y42775226D01*
X20239353Y42777430D01*
X20233748Y42777650D01*
X20230087Y42778363D01*
X20225257Y42779891D01*
X20220207Y42780288D01*
X20220204Y42780289D01*
X20219279Y42780362D01*
X20219266Y42780362D01*
X20217532Y42780499D01*
X20162991Y42780499D01*
X20159496Y42780568D01*
X20110671Y42782487D01*
X20110668Y42782487D01*
X20104018Y42782748D01*
X20097582Y42781042D01*
X20097532Y42781036D01*
X20087766Y42780499D01*
X20012562Y42780499D01*
X19955354Y42801321D01*
X19924914Y42854044D01*
X19935486Y42913999D01*
X19958382Y42940107D01*
X20078520Y43032292D01*
X20083153Y43035847D01*
X20179378Y43161250D01*
X20239868Y43307285D01*
X20260500Y43464000D01*
X20239868Y43620715D01*
X20179378Y43766750D01*
X20119135Y43845261D01*
X20086708Y43887520D01*
X20083153Y43892153D01*
X19977228Y43973432D01*
X19962378Y43984827D01*
X19962377Y43984828D01*
X19957750Y43988378D01*
X19811715Y44048868D01*
X19805932Y44049629D01*
X19805926Y44049631D01*
X19721346Y44060767D01*
X19670032Y44086072D01*
X19009676Y44746427D01*
X19002716Y44754259D01*
X18998696Y44759358D01*
X18980811Y44782045D01*
X18955150Y44799780D01*
X18932056Y44815742D01*
X18929781Y44817368D01*
X18887495Y44848601D01*
X18887496Y44848601D01*
X18882142Y44852555D01*
X18876083Y44854682D01*
X18874676Y44855399D01*
X18869392Y44859052D01*
X18812892Y44876921D01*
X18810242Y44877805D01*
X18760629Y44895227D01*
X18760628Y44895227D01*
X18754352Y44897431D01*
X18748747Y44897651D01*
X18745086Y44898364D01*
X18740256Y44899892D01*
X18735206Y44900289D01*
X18735203Y44900290D01*
X18734278Y44900363D01*
X18734265Y44900363D01*
X18732531Y44900500D01*
X18677990Y44900500D01*
X18674495Y44900569D01*
X18625670Y44902488D01*
X18625667Y44902488D01*
X18619017Y44902749D01*
X18612581Y44901043D01*
X18612531Y44901037D01*
X18602765Y44900500D01*
X12113242Y44900500D01*
X12059062Y44918892D01*
X11991384Y44970823D01*
X11991380Y44970825D01*
X11986750Y44974378D01*
X11840715Y45034868D01*
X11684000Y45055500D01*
X11527285Y45034868D01*
X11381250Y44974378D01*
X11255847Y44878153D01*
X11252292Y44873520D01*
X11178092Y44776820D01*
X11159622Y44752750D01*
X11099132Y44606715D01*
X11078500Y44450000D01*
X11099132Y44293285D01*
X11159622Y44147250D01*
X11255847Y44021847D01*
X11381250Y43925622D01*
X11527285Y43865132D01*
X11684000Y43844500D01*
X11840715Y43865132D01*
X11986750Y43925622D01*
X11991380Y43929175D01*
X11991384Y43929177D01*
X12059062Y43981108D01*
X12113242Y43999500D01*
X18445533Y43999500D01*
X18508466Y43973432D01*
X19032928Y43448969D01*
X19058234Y43397654D01*
X19059488Y43388131D01*
X19070132Y43307285D01*
X19130622Y43161250D01*
X19226847Y43035847D01*
X19231480Y43032292D01*
X19351618Y42940107D01*
X19384328Y42888762D01*
X19376382Y42828403D01*
X19331497Y42787274D01*
X19297438Y42780499D01*
X16873500Y42780499D01*
X16816292Y42801321D01*
X16785852Y42854044D01*
X16791275Y42903558D01*
X16792749Y42907115D01*
X16840868Y43023285D01*
X16861500Y43180000D01*
X16840868Y43336715D01*
X16780378Y43482750D01*
X16735335Y43541452D01*
X16687708Y43603520D01*
X16684153Y43608153D01*
X16619531Y43657739D01*
X16563378Y43700827D01*
X16563377Y43700828D01*
X16558750Y43704378D01*
X16412715Y43764868D01*
X16256000Y43785500D01*
X16099285Y43764868D01*
X15953250Y43704378D01*
X15948623Y43700828D01*
X15948622Y43700827D01*
X15892469Y43657739D01*
X15827847Y43608153D01*
X15824292Y43603520D01*
X15776666Y43541452D01*
X15731622Y43482750D01*
X15671132Y43336715D01*
X15650500Y43180000D01*
X15671132Y43023285D01*
X15673365Y43017894D01*
X15719251Y42907115D01*
X15721907Y42846293D01*
X15684846Y42797994D01*
X15645581Y42785878D01*
X15645691Y42785274D01*
X15639148Y42784079D01*
X15639147Y42784079D01*
X15587417Y42774632D01*
X15584661Y42774173D01*
X15554310Y42769610D01*
X15526064Y42765363D01*
X15520278Y42762585D01*
X15518771Y42762095D01*
X15512454Y42760941D01*
X15459843Y42733612D01*
X15457382Y42732383D01*
X15409966Y42709614D01*
X15409963Y42709612D01*
X15403970Y42706734D01*
X15399845Y42702921D01*
X15396759Y42700842D01*
X15392263Y42698506D01*
X15388410Y42695216D01*
X15388407Y42695214D01*
X15387979Y42694848D01*
X15386370Y42693474D01*
X15347796Y42654900D01*
X15345276Y42652478D01*
X15321106Y42630135D01*
X15304513Y42614797D01*
X15301173Y42609047D01*
X15301133Y42608997D01*
X15294609Y42601713D01*
X14954397Y42261500D01*
X14822476Y42129578D01*
X14665619Y41972721D01*
X14657785Y41965760D01*
X14654764Y41963378D01*
X14630001Y41943857D01*
X14626218Y41938383D01*
X14596304Y41895102D01*
X14594678Y41892827D01*
X14559491Y41845188D01*
X14557363Y41839128D01*
X14556648Y41837725D01*
X14552994Y41832438D01*
X14551248Y41826918D01*
X14534715Y41803782D01*
X13572572Y40841639D01*
X13564740Y40834680D01*
X13542180Y40816895D01*
X13542178Y40816893D01*
X13536956Y40812776D01*
X13533175Y40807305D01*
X13533173Y40807303D01*
X13503264Y40764028D01*
X13501638Y40761753D01*
X13466446Y40714107D01*
X13464318Y40708048D01*
X13463601Y40706639D01*
X13459949Y40701356D01*
X13447052Y40660574D01*
X13442082Y40644858D01*
X13441196Y40642204D01*
X13424776Y40595445D01*
X13421570Y40586317D01*
X13421350Y40580710D01*
X13420637Y40577051D01*
X13419109Y40572220D01*
X13418501Y40564495D01*
X13418501Y40509955D01*
X13418432Y40506460D01*
X13417496Y40482628D01*
X13416252Y40450982D01*
X13417958Y40444546D01*
X13417964Y40444496D01*
X13418501Y40434730D01*
X13418501Y35439468D01*
X13397679Y35382260D01*
X13344956Y35351820D01*
X13266568Y35376535D01*
X13172567Y35470536D01*
X13146500Y35533469D01*
X13146500Y35578895D01*
X13146501Y35579361D01*
X13146796Y35635725D01*
X13146796Y35635726D01*
X13146824Y35641088D01*
X13137663Y35679248D01*
X13135849Y35689331D01*
X13131780Y35722954D01*
X13131135Y35728285D01*
X13118728Y35761120D01*
X13115445Y35771791D01*
X13108505Y35800698D01*
X13107252Y35805918D01*
X13089257Y35840783D01*
X13085090Y35850144D01*
X13073117Y35881830D01*
X13073112Y35881839D01*
X13071217Y35886855D01*
X13068177Y35891278D01*
X13068175Y35891282D01*
X13051337Y35915781D01*
X13045604Y35925359D01*
X13029505Y35956550D01*
X13003701Y35986130D01*
X12997439Y35994201D01*
X12975203Y36026556D01*
X12948998Y36049904D01*
X12941146Y36057839D01*
X12921600Y36080245D01*
X12921599Y36080246D01*
X12918072Y36084289D01*
X12885957Y36106860D01*
X12877928Y36113224D01*
X12852644Y36135751D01*
X12848637Y36139321D01*
X12817632Y36155737D01*
X12808104Y36161577D01*
X12783779Y36178673D01*
X12783772Y36178677D01*
X12779385Y36181760D01*
X12774390Y36183707D01*
X12774387Y36183709D01*
X12754423Y36191492D01*
X12742817Y36196017D01*
X12733512Y36200276D01*
X12698828Y36218641D01*
X12664792Y36227190D01*
X12654144Y36230589D01*
X12626452Y36241386D01*
X12626446Y36241387D01*
X12621451Y36243335D01*
X12616135Y36244035D01*
X12616134Y36244035D01*
X12582544Y36248457D01*
X12572478Y36250378D01*
X12539631Y36258629D01*
X12539627Y36258629D01*
X12534422Y36259937D01*
X12496146Y36260137D01*
X12492969Y36260250D01*
X12491070Y36260500D01*
X12427105Y36260500D01*
X12426639Y36260501D01*
X12426488Y36260502D01*
X12364912Y36260824D01*
X12363871Y36260574D01*
X12362586Y36260500D01*
X12265022Y36260500D01*
X12202090Y36286567D01*
X10897487Y37591169D01*
X10451177Y38037478D01*
X10425448Y38092654D01*
X10441294Y38151587D01*
X10467154Y38188382D01*
X10469932Y38192122D01*
X10505367Y38237313D01*
X10509458Y38242531D01*
X10513628Y38251766D01*
X10521926Y38266313D01*
X10524675Y38270224D01*
X10524679Y38270231D01*
X10527760Y38274615D01*
X10551043Y38334333D01*
X10552849Y38338629D01*
X10573142Y38383573D01*
X10579216Y38397025D01*
X10581065Y38407000D01*
X10585651Y38423098D01*
X10587384Y38427544D01*
X10587385Y38427546D01*
X10589335Y38432549D01*
X10590036Y38437873D01*
X10590037Y38437877D01*
X10597703Y38496097D01*
X10598431Y38500696D01*
X10606084Y38541995D01*
X10610107Y38563701D01*
X10609487Y38574464D01*
X10606648Y38623690D01*
X10606500Y38628813D01*
X10606500Y40654794D01*
X10990500Y40654794D01*
X11011132Y40498079D01*
X11071622Y40352044D01*
X11075172Y40347417D01*
X11075173Y40347416D01*
X11108441Y40304061D01*
X11167847Y40226641D01*
X11172480Y40223086D01*
X11288581Y40133999D01*
X11293250Y40130416D01*
X11439285Y40069926D01*
X11596000Y40049294D01*
X11752715Y40069926D01*
X11898750Y40130416D01*
X11903420Y40133999D01*
X12019520Y40223086D01*
X12024153Y40226641D01*
X12083559Y40304061D01*
X12116827Y40347416D01*
X12116828Y40347417D01*
X12120378Y40352044D01*
X12180868Y40498079D01*
X12201500Y40654794D01*
X12180868Y40811509D01*
X12120378Y40957544D01*
X12090251Y40996807D01*
X12027708Y41078314D01*
X12024153Y41082947D01*
X12007194Y41095960D01*
X11903378Y41175621D01*
X11903377Y41175622D01*
X11898750Y41179172D01*
X11752715Y41239662D01*
X11596000Y41260294D01*
X11439285Y41239662D01*
X11293250Y41179172D01*
X11288623Y41175622D01*
X11288622Y41175621D01*
X11184806Y41095960D01*
X11167847Y41082947D01*
X11164292Y41078314D01*
X11101750Y40996807D01*
X11071622Y40957544D01*
X11011132Y40811509D01*
X10990500Y40654794D01*
X10606500Y40654794D01*
X10606500Y43180000D01*
X12729500Y43180000D01*
X12750132Y43023285D01*
X12810622Y42877250D01*
X12814172Y42872623D01*
X12814173Y42872622D01*
X12884809Y42780568D01*
X12906847Y42751847D01*
X12911480Y42748292D01*
X13023881Y42662044D01*
X13032250Y42655622D01*
X13178285Y42595132D01*
X13335000Y42574500D01*
X13491715Y42595132D01*
X13637750Y42655622D01*
X13646120Y42662044D01*
X13758520Y42748292D01*
X13763153Y42751847D01*
X13785191Y42780568D01*
X13855827Y42872622D01*
X13855828Y42872623D01*
X13859378Y42877250D01*
X13919868Y43023285D01*
X13940500Y43180000D01*
X14126500Y43180000D01*
X14147132Y43023285D01*
X14207622Y42877250D01*
X14211172Y42872623D01*
X14211173Y42872622D01*
X14281809Y42780568D01*
X14303847Y42751847D01*
X14308480Y42748292D01*
X14420881Y42662044D01*
X14429250Y42655622D01*
X14575285Y42595132D01*
X14732000Y42574500D01*
X14888715Y42595132D01*
X15034750Y42655622D01*
X15043120Y42662044D01*
X15155520Y42748292D01*
X15160153Y42751847D01*
X15182191Y42780568D01*
X15252827Y42872622D01*
X15252828Y42872623D01*
X15256378Y42877250D01*
X15316868Y43023285D01*
X15337500Y43180000D01*
X15316868Y43336715D01*
X15256378Y43482750D01*
X15211335Y43541452D01*
X15163708Y43603520D01*
X15160153Y43608153D01*
X15095531Y43657739D01*
X15039378Y43700827D01*
X15039377Y43700828D01*
X15034750Y43704378D01*
X14888715Y43764868D01*
X14732000Y43785500D01*
X14575285Y43764868D01*
X14429250Y43704378D01*
X14424623Y43700828D01*
X14424622Y43700827D01*
X14368469Y43657739D01*
X14303847Y43608153D01*
X14300292Y43603520D01*
X14252666Y43541452D01*
X14207622Y43482750D01*
X14147132Y43336715D01*
X14126500Y43180000D01*
X13940500Y43180000D01*
X13919868Y43336715D01*
X13859378Y43482750D01*
X13814335Y43541452D01*
X13766708Y43603520D01*
X13763153Y43608153D01*
X13698531Y43657739D01*
X13642378Y43700827D01*
X13642377Y43700828D01*
X13637750Y43704378D01*
X13491715Y43764868D01*
X13335000Y43785500D01*
X13178285Y43764868D01*
X13032250Y43704378D01*
X13027623Y43700828D01*
X13027622Y43700827D01*
X12971469Y43657739D01*
X12906847Y43608153D01*
X12903292Y43603520D01*
X12855666Y43541452D01*
X12810622Y43482750D01*
X12750132Y43336715D01*
X12729500Y43180000D01*
X10606500Y43180000D01*
X10606500Y45138980D01*
X10632568Y45201913D01*
X12710090Y47279433D01*
X12773022Y47305500D01*
X35232980Y47305500D01*
X35295913Y47279432D01*
X38919911Y43655432D01*
X38945639Y43600257D01*
X38929883Y43541452D01*
X38856978Y43503500D01*
X34907501Y43503500D01*
X34850293Y43524322D01*
X34819853Y43577045D01*
X34825276Y43626559D01*
X34872635Y43740894D01*
X34874868Y43746285D01*
X34895500Y43903000D01*
X34874868Y44059715D01*
X34814378Y44205750D01*
X34718153Y44331153D01*
X34592750Y44427378D01*
X34446715Y44487868D01*
X34290000Y44508500D01*
X34133285Y44487868D01*
X33987250Y44427378D01*
X33861847Y44331153D01*
X33765622Y44205750D01*
X33705132Y44059715D01*
X33684500Y43903000D01*
X33705132Y43746285D01*
X33707365Y43740894D01*
X33754724Y43626559D01*
X33757380Y43565737D01*
X33720319Y43517438D01*
X33672499Y43503500D01*
X32179242Y43503500D01*
X32125062Y43521892D01*
X32057384Y43573823D01*
X32057380Y43573825D01*
X32052750Y43577378D01*
X32032061Y43585948D01*
X31912106Y43635635D01*
X31906715Y43637868D01*
X31750000Y43658500D01*
X31593285Y43637868D01*
X31447250Y43577378D01*
X31321847Y43481153D01*
X31318292Y43476520D01*
X31260802Y43401597D01*
X31225622Y43355750D01*
X31165132Y43209715D01*
X31144500Y43053000D01*
X31165132Y42896285D01*
X31225622Y42750250D01*
X31229172Y42745623D01*
X31229173Y42745622D01*
X31268320Y42694605D01*
X31321847Y42624847D01*
X31326480Y42621292D01*
X31387461Y42574500D01*
X31447250Y42528622D01*
X31593285Y42468132D01*
X31750000Y42447500D01*
X31906715Y42468132D01*
X32052750Y42528622D01*
X32057380Y42532175D01*
X32057384Y42532177D01*
X32125062Y42584108D01*
X32179242Y42602500D01*
X38765533Y42602500D01*
X38828466Y42576432D01*
X40205619Y41199278D01*
X41569325Y39835572D01*
X41576285Y39827739D01*
X41594068Y39805182D01*
X41598189Y39799955D01*
X41603661Y39796173D01*
X41603662Y39796172D01*
X41646928Y39766269D01*
X41649203Y39764643D01*
X41691503Y39733399D01*
X41691506Y39733398D01*
X41696857Y39729445D01*
X41702916Y39727317D01*
X41704325Y39726600D01*
X41709608Y39722948D01*
X41766140Y39705070D01*
X41768765Y39704193D01*
X41818365Y39686775D01*
X41818368Y39686775D01*
X41824648Y39684569D01*
X41830253Y39684349D01*
X41833914Y39683636D01*
X41838744Y39682108D01*
X41843794Y39681711D01*
X41843797Y39681710D01*
X41844722Y39681637D01*
X41844735Y39681637D01*
X41846469Y39681500D01*
X41901011Y39681500D01*
X41904506Y39681431D01*
X41953331Y39679512D01*
X41953334Y39679512D01*
X41959984Y39679251D01*
X41966420Y39680957D01*
X41966470Y39680963D01*
X41976236Y39681500D01*
X45582492Y39681500D01*
X45639700Y39660678D01*
X45670140Y39607955D01*
X45659568Y39548000D01*
X45620105Y39511838D01*
X45589089Y39497375D01*
X45495155Y39453574D01*
X45495150Y39453571D01*
X45491920Y39452065D01*
X45285631Y39311871D01*
X45283033Y39309414D01*
X45283029Y39309411D01*
X45133962Y39168444D01*
X45104410Y39140498D01*
X45096582Y39130259D01*
X44955092Y38945199D01*
X44955089Y38945194D01*
X44952919Y38942356D01*
X44835056Y38722543D01*
X44833896Y38719173D01*
X44833893Y38719167D01*
X44757170Y38496346D01*
X44753853Y38486713D01*
X44711400Y38240934D01*
X44711363Y38237359D01*
X44711362Y38237353D01*
X44708825Y37995104D01*
X44708788Y37991529D01*
X44746085Y37744914D01*
X44822331Y37507436D01*
X44935565Y37285202D01*
X45082873Y37083931D01*
X45171669Y36996366D01*
X45257918Y36911312D01*
X45257923Y36911308D01*
X45260465Y36908801D01*
X45463773Y36764317D01*
X45687566Y36654198D01*
X45690977Y36653155D01*
X45690980Y36653154D01*
X45862845Y36600610D01*
X45926087Y36581275D01*
X46173198Y36547425D01*
X46301103Y36550550D01*
X46418959Y36553430D01*
X46418965Y36553431D01*
X46422542Y36553518D01*
X46459365Y36560409D01*
X46664190Y36598741D01*
X46664194Y36598742D01*
X46667704Y36599399D01*
X46671068Y36600610D01*
X46899011Y36682675D01*
X46899013Y36682676D01*
X46902377Y36683887D01*
X46905502Y36685619D01*
X46905506Y36685621D01*
X47117399Y36803075D01*
X47120524Y36804807D01*
X47250042Y36906728D01*
X47313726Y36956842D01*
X47313731Y36956846D01*
X47316531Y36959050D01*
X47485357Y37142646D01*
X47622657Y37350873D01*
X47724899Y37578373D01*
X47789454Y37819293D01*
X47793605Y37860154D01*
X47799904Y37922177D01*
X47814659Y38067435D01*
X47815000Y38100000D01*
X47794997Y38348615D01*
X47735502Y38590834D01*
X47731485Y38600299D01*
X47703791Y38665541D01*
X47700605Y38726337D01*
X47737243Y38774958D01*
X47796563Y38788653D01*
X47848647Y38763250D01*
X48037435Y38574462D01*
X48063501Y38511531D01*
X48063500Y33576242D01*
X48045108Y33522062D01*
X47993177Y33454384D01*
X47993175Y33454380D01*
X47989622Y33449750D01*
X47987388Y33444358D01*
X47987388Y33444357D01*
X47947739Y33348635D01*
X47929132Y33303715D01*
X47908500Y33147000D01*
X47929132Y32990285D01*
X47931365Y32984894D01*
X47972507Y32885570D01*
X47989622Y32844250D01*
X47993175Y32839620D01*
X47993177Y32839616D01*
X48045108Y32771938D01*
X48063500Y32717758D01*
X48063501Y20543470D01*
X48037434Y20480537D01*
X37482265Y9925367D01*
X37419332Y9899300D01*
X15262980Y9899300D01*
X15252519Y9899917D01*
X15250435Y9900164D01*
X15217396Y9904074D01*
X15210853Y9902879D01*
X15210852Y9902879D01*
X15159151Y9893437D01*
X15156394Y9892978D01*
X15123869Y9888088D01*
X15097769Y9884164D01*
X15091980Y9881384D01*
X15090471Y9880894D01*
X15084158Y9879741D01*
X15031585Y9852431D01*
X15029124Y9851202D01*
X14981678Y9828419D01*
X14981671Y9828414D01*
X14975675Y9825535D01*
X14971545Y9821717D01*
X14968468Y9819644D01*
X14963967Y9817306D01*
X14960114Y9814015D01*
X14960109Y9814012D01*
X14959418Y9813421D01*
X14958075Y9812274D01*
X14919514Y9773713D01*
X14916994Y9771291D01*
X14876218Y9733598D01*
X14872878Y9727849D01*
X14872842Y9727803D01*
X14866317Y9720516D01*
X14611220Y9465419D01*
X14559905Y9440114D01*
X14469537Y9428216D01*
X14323502Y9367726D01*
X14198099Y9271501D01*
X14194544Y9266868D01*
X14153184Y9212966D01*
X14101874Y9146098D01*
X14041384Y9000063D01*
X14020752Y8843348D01*
X14041384Y8686633D01*
X14101874Y8540598D01*
X14198099Y8415195D01*
X14323502Y8318970D01*
X14422475Y8277974D01*
X14443239Y8269373D01*
X14488124Y8228243D01*
X14496070Y8167885D01*
X14472113Y8124215D01*
X14081969Y7734071D01*
X14030654Y7708766D01*
X13940285Y7696868D01*
X13794250Y7636378D01*
X13668847Y7540153D01*
X13665292Y7535520D01*
X13620354Y7476955D01*
X13572622Y7414750D01*
X13512132Y7268715D01*
X13491500Y7112000D01*
X13512132Y6955285D01*
X13572622Y6809250D01*
X13576172Y6804623D01*
X13576173Y6804622D01*
X13580327Y6799209D01*
X13668847Y6683847D01*
X13794250Y6587622D01*
X13940285Y6527132D01*
X14097000Y6506500D01*
X14253715Y6527132D01*
X14399750Y6587622D01*
X14525153Y6683847D01*
X14613673Y6799209D01*
X14617827Y6804622D01*
X14617828Y6804623D01*
X14621378Y6809250D01*
X14681868Y6955285D01*
X14693766Y7045654D01*
X14719071Y7096968D01*
X15859777Y8237674D01*
X15922710Y8263741D01*
X19476772Y8263741D01*
X19533980Y8242919D01*
X19564420Y8190196D01*
X19539705Y8111808D01*
X19161968Y7734071D01*
X19110653Y7708766D01*
X19020285Y7696868D01*
X18874250Y7636378D01*
X18748847Y7540153D01*
X18745292Y7535520D01*
X18700354Y7476955D01*
X18652622Y7414750D01*
X18592132Y7268715D01*
X18571500Y7112000D01*
X18592132Y6955285D01*
X18652622Y6809250D01*
X18656172Y6804623D01*
X18656173Y6804622D01*
X18660327Y6799209D01*
X18748847Y6683847D01*
X18874250Y6587622D01*
X19020285Y6527132D01*
X19177000Y6506500D01*
X19333715Y6527132D01*
X19479750Y6587622D01*
X19605153Y6683847D01*
X19693673Y6799209D01*
X19697827Y6804622D01*
X19697828Y6804623D01*
X19701378Y6809250D01*
X19761868Y6955285D01*
X19773766Y7045654D01*
X19799071Y7096968D01*
X20226536Y7524433D01*
X20289469Y7550500D01*
X21046058Y7550500D01*
X21103266Y7529678D01*
X21133706Y7476955D01*
X21118738Y7415771D01*
X21121131Y7414389D01*
X21118214Y7409337D01*
X21114663Y7404709D01*
X21054173Y7258674D01*
X21033541Y7101959D01*
X21054173Y6945244D01*
X21114663Y6799209D01*
X21210888Y6673806D01*
X21215521Y6670251D01*
X21318578Y6591173D01*
X21336291Y6577581D01*
X21482326Y6517091D01*
X21639041Y6496459D01*
X21795756Y6517091D01*
X21941791Y6577581D01*
X21959505Y6591173D01*
X22062561Y6670251D01*
X22067194Y6673806D01*
X22163419Y6799209D01*
X22223909Y6945244D01*
X22244541Y7101959D01*
X22223909Y7258674D01*
X22163419Y7404709D01*
X22159868Y7409337D01*
X22156951Y7414389D01*
X22158840Y7415480D01*
X22143109Y7465393D01*
X22166413Y7521635D01*
X22232024Y7550500D01*
X22514724Y7550500D01*
X22571932Y7529678D01*
X22602372Y7476955D01*
X22591936Y7417765D01*
X22589622Y7414750D01*
X22529132Y7268715D01*
X22508500Y7112000D01*
X22529132Y6955285D01*
X22589622Y6809250D01*
X22593172Y6804623D01*
X22593173Y6804622D01*
X22597327Y6799209D01*
X22685847Y6683847D01*
X22811250Y6587622D01*
X22957285Y6527132D01*
X23114000Y6506500D01*
X23270715Y6527132D01*
X23416750Y6587622D01*
X23542153Y6683847D01*
X23630673Y6799209D01*
X23634827Y6804622D01*
X23634828Y6804623D01*
X23638378Y6809250D01*
X23698868Y6955285D01*
X23719500Y7112000D01*
X23698868Y7268715D01*
X23638378Y7414750D01*
X23636064Y7417765D01*
X23625628Y7476955D01*
X23656069Y7529678D01*
X23713276Y7550500D01*
X34447533Y7550500D01*
X34510466Y7524432D01*
X34937928Y7096969D01*
X34963234Y7045654D01*
X34968784Y7003502D01*
X34975132Y6955285D01*
X35035622Y6809250D01*
X35039172Y6804623D01*
X35039173Y6804622D01*
X35043327Y6799209D01*
X35131847Y6683847D01*
X35257250Y6587622D01*
X35403285Y6527132D01*
X35560000Y6506500D01*
X35716715Y6527132D01*
X35862750Y6587622D01*
X35988153Y6683847D01*
X36076673Y6799209D01*
X36080827Y6804622D01*
X36080828Y6804623D01*
X36084378Y6809250D01*
X36144868Y6955285D01*
X36165500Y7112000D01*
X36144868Y7268715D01*
X36084378Y7414750D01*
X36036647Y7476955D01*
X35991708Y7535520D01*
X35988153Y7540153D01*
X35862750Y7636378D01*
X35716715Y7696868D01*
X35668498Y7703216D01*
X35626346Y7708766D01*
X35575031Y7734072D01*
X35197294Y8111808D01*
X35171565Y8166984D01*
X35187321Y8225789D01*
X35260226Y8263741D01*
X37572028Y8263741D01*
X37626208Y8245349D01*
X37722690Y8171316D01*
X37722694Y8171314D01*
X37727324Y8167761D01*
X37873359Y8107271D01*
X38030074Y8086639D01*
X38186789Y8107271D01*
X38332824Y8167761D01*
X38423937Y8237674D01*
X38453594Y8260431D01*
X38458227Y8263986D01*
X38500418Y8318970D01*
X38550901Y8384761D01*
X38550902Y8384762D01*
X38554452Y8389389D01*
X38614942Y8535424D01*
X38635574Y8692139D01*
X38614942Y8848854D01*
X38554452Y8994889D01*
X38458227Y9120292D01*
X38332824Y9216517D01*
X38254213Y9249079D01*
X38209328Y9290209D01*
X38201382Y9350567D01*
X38225339Y9394237D01*
X43466364Y14635261D01*
X48761569Y19930466D01*
X48816745Y19956194D01*
X48875550Y19940438D01*
X48913502Y19867533D01*
X48913502Y17683023D01*
X48887435Y17620091D01*
X45764557Y14497212D01*
X45764546Y14497202D01*
X45764540Y14497197D01*
X45764524Y14497181D01*
X36565913Y5298568D01*
X36502980Y5272500D01*
X29422683Y5272500D01*
X29295715Y5257135D01*
X29137145Y5197217D01*
X29079900Y5157874D01*
X29001869Y5104245D01*
X29001865Y5104241D01*
X28997444Y5101203D01*
X28884679Y4974638D01*
X28805359Y4824829D01*
X28764063Y4660423D01*
X28763176Y4490912D01*
X28802748Y4326082D01*
X28880495Y4175450D01*
X28991928Y4047711D01*
X28996315Y4044628D01*
X29120580Y3957293D01*
X29130615Y3950240D01*
X29288549Y3888665D01*
X29307121Y3886220D01*
X29416041Y3871880D01*
X29416046Y3871880D01*
X29418930Y3871500D01*
X36804735Y3871500D01*
X36810788Y3871294D01*
X36866922Y3867467D01*
X36930078Y3878489D01*
X36934667Y3879166D01*
X36975426Y3884099D01*
X36992956Y3886220D01*
X36992957Y3886220D01*
X36998285Y3886865D01*
X37007766Y3890448D01*
X37023922Y3894867D01*
X37028620Y3895687D01*
X37028625Y3895689D01*
X37033911Y3896611D01*
X37038821Y3898766D01*
X37038823Y3898767D01*
X37092582Y3922366D01*
X37096897Y3924127D01*
X37124969Y3934734D01*
X37156855Y3946783D01*
X37161276Y3949821D01*
X37161279Y3949823D01*
X37165215Y3952528D01*
X37179848Y3960673D01*
X37184211Y3962588D01*
X37184215Y3962590D01*
X37189128Y3964747D01*
X37239958Y4003750D01*
X37243727Y4006488D01*
X37292135Y4039758D01*
X37292137Y4039760D01*
X37296556Y4042797D01*
X37336547Y4087682D01*
X37340065Y4091410D01*
X46752543Y13503887D01*
X46752547Y13503891D01*
X50091473Y16842816D01*
X50095900Y16846950D01*
X50134248Y16880403D01*
X50138290Y16883929D01*
X50162270Y16918048D01*
X50175149Y16936373D01*
X50177928Y16940114D01*
X50186965Y16951639D01*
X50238650Y16983810D01*
X50298922Y16975231D01*
X50339579Y16929917D01*
X50346001Y16896722D01*
X50346001Y543000D01*
X50325179Y485792D01*
X50257001Y454000D01*
X543000Y454000D01*
X485792Y474822D01*
X454000Y543000D01*
X454000Y10922000D01*
X14837700Y10922000D01*
X14858332Y10765285D01*
X14918822Y10619250D01*
X14922372Y10614623D01*
X14922373Y10614622D01*
X14995277Y10519612D01*
X15015047Y10493847D01*
X15140450Y10397622D01*
X15286485Y10337132D01*
X15443200Y10316500D01*
X15599915Y10337132D01*
X15745950Y10397622D01*
X15750580Y10401175D01*
X15750584Y10401177D01*
X15818262Y10453108D01*
X15872442Y10471500D01*
X37052723Y10471500D01*
X37063184Y10470883D01*
X37098307Y10466726D01*
X37156556Y10477364D01*
X37159314Y10477823D01*
X37211358Y10485647D01*
X37211359Y10485647D01*
X37217935Y10486636D01*
X37223728Y10489418D01*
X37225229Y10489906D01*
X37231544Y10491059D01*
X37284109Y10518364D01*
X37286607Y10519612D01*
X37334032Y10542385D01*
X37334033Y10542386D01*
X37340029Y10545265D01*
X37344158Y10549082D01*
X37347233Y10551155D01*
X37351736Y10553493D01*
X37355591Y10556786D01*
X37355594Y10556788D01*
X37356304Y10557395D01*
X37357628Y10558526D01*
X37396178Y10597076D01*
X37398698Y10599498D01*
X37415059Y10614622D01*
X37439486Y10637202D01*
X37442830Y10642959D01*
X37442865Y10643003D01*
X37449393Y10650291D01*
X40174428Y13375325D01*
X40182261Y13382285D01*
X40204818Y13400068D01*
X40204819Y13400069D01*
X40210045Y13404189D01*
X40243731Y13452928D01*
X40245357Y13455203D01*
X40276601Y13497503D01*
X40276602Y13497506D01*
X40280555Y13502857D01*
X40282683Y13508916D01*
X40283400Y13510325D01*
X40287052Y13515608D01*
X40304930Y13572140D01*
X40305807Y13574765D01*
X40323225Y13624365D01*
X40323225Y13624368D01*
X40325431Y13630648D01*
X40325651Y13636253D01*
X40326364Y13639914D01*
X40327892Y13644744D01*
X40328500Y13652469D01*
X40328500Y13707011D01*
X40328569Y13710506D01*
X40330488Y13759331D01*
X40330488Y13759334D01*
X40330749Y13765984D01*
X40329043Y13772420D01*
X40329037Y13772470D01*
X40328500Y13782236D01*
X40328500Y27704529D01*
X44708788Y27704529D01*
X44731389Y27555088D01*
X44742320Y27482812D01*
X44746085Y27457914D01*
X44747179Y27454507D01*
X44816776Y27237739D01*
X44822331Y27220436D01*
X44823950Y27217259D01*
X44823951Y27217256D01*
X44897076Y27073741D01*
X44935565Y26998202D01*
X45082873Y26796931D01*
X45147114Y26733581D01*
X45257918Y26624312D01*
X45257923Y26624308D01*
X45260465Y26621801D01*
X45463773Y26477317D01*
X45687566Y26367198D01*
X45690977Y26366155D01*
X45690980Y26366154D01*
X45866806Y26312399D01*
X45926087Y26294275D01*
X46173198Y26260425D01*
X46301103Y26263550D01*
X46418959Y26266430D01*
X46418965Y26266431D01*
X46422542Y26266518D01*
X46459365Y26273409D01*
X46664190Y26311741D01*
X46664194Y26311742D01*
X46667704Y26312399D01*
X46671068Y26313610D01*
X46899011Y26395675D01*
X46899013Y26395676D01*
X46902377Y26396887D01*
X46905502Y26398619D01*
X46905506Y26398621D01*
X47117399Y26516075D01*
X47120524Y26517807D01*
X47181517Y26565804D01*
X47313726Y26669842D01*
X47313731Y26669846D01*
X47316531Y26672050D01*
X47485357Y26855646D01*
X47622657Y27063873D01*
X47724899Y27291373D01*
X47789454Y27532293D01*
X47791635Y27553759D01*
X47804145Y27676928D01*
X47814659Y27780435D01*
X47815000Y27813000D01*
X47794997Y28061615D01*
X47735502Y28303834D01*
X47679595Y28435543D01*
X47639445Y28530132D01*
X47639444Y28530134D01*
X47638047Y28533425D01*
X47505137Y28744482D01*
X47499088Y28751344D01*
X47406863Y28855952D01*
X47340194Y28931573D01*
X47147460Y29089887D01*
X46931893Y29215350D01*
X46928561Y29216629D01*
X46928559Y29216630D01*
X46702376Y29303453D01*
X46702374Y29303454D01*
X46699041Y29304733D01*
X46454893Y29355738D01*
X46384673Y29358927D01*
X46209308Y29366891D01*
X46209303Y29366891D01*
X46205731Y29367053D01*
X46202181Y29366642D01*
X46202175Y29366642D01*
X45961524Y29338797D01*
X45961520Y29338796D01*
X45957966Y29338385D01*
X45717970Y29270473D01*
X45714738Y29268966D01*
X45714733Y29268964D01*
X45495155Y29166574D01*
X45495150Y29166571D01*
X45491920Y29165065D01*
X45285631Y29024871D01*
X45283033Y29022414D01*
X45283029Y29022411D01*
X45175679Y28920894D01*
X45104410Y28853498D01*
X45066609Y28804056D01*
X44955092Y28658199D01*
X44955089Y28658194D01*
X44952919Y28655356D01*
X44908744Y28572970D01*
X44849775Y28462993D01*
X44835056Y28435543D01*
X44833896Y28432173D01*
X44833893Y28432167D01*
X44755016Y28203091D01*
X44753853Y28199713D01*
X44711400Y27953934D01*
X44711363Y27950359D01*
X44711362Y27950353D01*
X44708825Y27708104D01*
X44708788Y27704529D01*
X40328500Y27704529D01*
X40328500Y31133529D01*
X44708788Y31133529D01*
X44746085Y30886914D01*
X44822331Y30649436D01*
X44823950Y30646259D01*
X44823951Y30646256D01*
X44900446Y30496126D01*
X44935565Y30427202D01*
X44956206Y30399000D01*
X45078228Y30232278D01*
X45082873Y30225931D01*
X45171669Y30138366D01*
X45257918Y30053312D01*
X45257923Y30053308D01*
X45260465Y30050801D01*
X45463773Y29906317D01*
X45687566Y29796198D01*
X45690977Y29795155D01*
X45690980Y29795154D01*
X45783886Y29766750D01*
X45926087Y29723275D01*
X46173198Y29689425D01*
X46301103Y29692550D01*
X46418959Y29695430D01*
X46418965Y29695431D01*
X46422542Y29695518D01*
X46459365Y29702409D01*
X46664190Y29740741D01*
X46664194Y29740742D01*
X46667704Y29741399D01*
X46671068Y29742610D01*
X46899011Y29824675D01*
X46899013Y29824676D01*
X46902377Y29825887D01*
X46905502Y29827619D01*
X46905506Y29827621D01*
X47084908Y29927065D01*
X47120524Y29946807D01*
X47173351Y29988378D01*
X47313726Y30098842D01*
X47313731Y30098846D01*
X47316531Y30101050D01*
X47485357Y30284646D01*
X47622657Y30492873D01*
X47724899Y30720373D01*
X47789454Y30961293D01*
X47790370Y30970306D01*
X47808063Y31144500D01*
X47814659Y31209435D01*
X47814805Y31223390D01*
X47814979Y31239970D01*
X47814979Y31239976D01*
X47815000Y31242000D01*
X47794997Y31490615D01*
X47735502Y31732834D01*
X47722142Y31764308D01*
X47639445Y31959132D01*
X47639444Y31959134D01*
X47638047Y31962425D01*
X47550264Y32101822D01*
X47507044Y32170454D01*
X47507043Y32170455D01*
X47505137Y32173482D01*
X47501309Y32177825D01*
X47380027Y32315391D01*
X47340194Y32360573D01*
X47147460Y32518887D01*
X46931893Y32644350D01*
X46928561Y32645629D01*
X46928559Y32645630D01*
X46702376Y32732453D01*
X46702374Y32732454D01*
X46699041Y32733733D01*
X46454893Y32784738D01*
X46384673Y32787927D01*
X46209308Y32795891D01*
X46209303Y32795891D01*
X46205731Y32796053D01*
X46202181Y32795642D01*
X46202175Y32795642D01*
X45961524Y32767797D01*
X45961520Y32767796D01*
X45957966Y32767385D01*
X45717970Y32699473D01*
X45714738Y32697966D01*
X45714733Y32697964D01*
X45495155Y32595574D01*
X45495150Y32595571D01*
X45491920Y32594065D01*
X45285631Y32453871D01*
X45283033Y32451414D01*
X45283029Y32451411D01*
X45139193Y32315391D01*
X45104410Y32282498D01*
X45059027Y32223139D01*
X44955092Y32087199D01*
X44955089Y32087194D01*
X44952919Y32084356D01*
X44906236Y31997292D01*
X44850478Y31893304D01*
X44835056Y31864543D01*
X44833896Y31861173D01*
X44833893Y31861167D01*
X44793625Y31744220D01*
X44753853Y31628713D01*
X44711400Y31382934D01*
X44711363Y31379359D01*
X44711362Y31379353D01*
X44708825Y31137104D01*
X44708788Y31133529D01*
X40328500Y31133529D01*
X40328500Y31718715D01*
X40329117Y31729175D01*
X40332493Y31757701D01*
X40333275Y31764308D01*
X40332068Y31770915D01*
X40322633Y31822582D01*
X40322174Y31825338D01*
X40316425Y31863576D01*
X40313364Y31883935D01*
X40310586Y31889721D01*
X40310096Y31891228D01*
X40308942Y31897545D01*
X40281613Y31950156D01*
X40280384Y31952617D01*
X40257615Y32000033D01*
X40257613Y32000036D01*
X40254735Y32006029D01*
X40250921Y32010155D01*
X40248843Y32013239D01*
X40246507Y32017736D01*
X40243217Y32021589D01*
X40243215Y32021592D01*
X40242606Y32022304D01*
X40241475Y32023629D01*
X40202900Y32062204D01*
X40200478Y32064724D01*
X40167313Y32100602D01*
X40167312Y32100603D01*
X40162798Y32105486D01*
X40157048Y32108826D01*
X40156998Y32108866D01*
X40149714Y32115390D01*
X38588466Y33676638D01*
X37702575Y34562529D01*
X44708788Y34562529D01*
X44746085Y34315914D01*
X44822331Y34078436D01*
X44823950Y34075259D01*
X44823951Y34075256D01*
X44933941Y33859389D01*
X44935565Y33856202D01*
X44988950Y33783261D01*
X45070457Y33671896D01*
X45082873Y33654931D01*
X45162668Y33576242D01*
X45257918Y33482312D01*
X45257923Y33482308D01*
X45260465Y33479801D01*
X45463773Y33335317D01*
X45687566Y33225198D01*
X45690977Y33224155D01*
X45690980Y33224154D01*
X45862845Y33171610D01*
X45926087Y33152275D01*
X46173198Y33118425D01*
X46301103Y33121550D01*
X46418959Y33124430D01*
X46418965Y33124431D01*
X46422542Y33124518D01*
X46503602Y33139688D01*
X46664190Y33169741D01*
X46664194Y33169742D01*
X46667704Y33170399D01*
X46715751Y33187697D01*
X46899011Y33253675D01*
X46899013Y33253676D01*
X46902377Y33254887D01*
X46905502Y33256619D01*
X46905506Y33256621D01*
X47071504Y33348635D01*
X47120524Y33375807D01*
X47204320Y33441748D01*
X47313726Y33527842D01*
X47313731Y33527846D01*
X47316531Y33530050D01*
X47485357Y33713646D01*
X47622657Y33921873D01*
X47724899Y34149373D01*
X47789454Y34390293D01*
X47814659Y34638435D01*
X47815000Y34671000D01*
X47794997Y34919615D01*
X47735502Y35161834D01*
X47679595Y35293543D01*
X47639445Y35388132D01*
X47639444Y35388134D01*
X47638047Y35391425D01*
X47519991Y35578895D01*
X47507044Y35599454D01*
X47507043Y35599455D01*
X47505137Y35602482D01*
X47475830Y35635725D01*
X47394227Y35728285D01*
X47340194Y35789573D01*
X47147460Y35947887D01*
X46931893Y36073350D01*
X46928561Y36074629D01*
X46928559Y36074630D01*
X46702376Y36161453D01*
X46702374Y36161454D01*
X46699041Y36162733D01*
X46454893Y36213738D01*
X46384673Y36216927D01*
X46209308Y36224891D01*
X46209303Y36224891D01*
X46205731Y36225053D01*
X46202181Y36224642D01*
X46202175Y36224642D01*
X45961524Y36196797D01*
X45961520Y36196796D01*
X45957966Y36196385D01*
X45717970Y36128473D01*
X45714738Y36126966D01*
X45714733Y36126964D01*
X45495155Y36024574D01*
X45495150Y36024571D01*
X45491920Y36023065D01*
X45285631Y35882871D01*
X45283033Y35880414D01*
X45283029Y35880411D01*
X45184143Y35786898D01*
X45104410Y35711498D01*
X45046477Y35635725D01*
X44955092Y35516199D01*
X44955089Y35516194D01*
X44952919Y35513356D01*
X44889164Y35394453D01*
X44863663Y35346894D01*
X44835056Y35293543D01*
X44833896Y35290173D01*
X44833893Y35290167D01*
X44755016Y35061091D01*
X44753853Y35057713D01*
X44711400Y34811934D01*
X44711363Y34808359D01*
X44711362Y34808353D01*
X44708825Y34566104D01*
X44708788Y34562529D01*
X37702575Y34562529D01*
X33895642Y38369460D01*
X33869913Y38424636D01*
X33885669Y38483441D01*
X33946957Y38520632D01*
X33967394Y38523322D01*
X34020932Y38530370D01*
X34020937Y38530371D01*
X34026715Y38531132D01*
X34172750Y38591622D01*
X34181189Y38598097D01*
X34293520Y38684292D01*
X34298153Y38687847D01*
X34370920Y38782679D01*
X34390827Y38808622D01*
X34390828Y38808623D01*
X34394378Y38813250D01*
X34454868Y38959285D01*
X34475500Y39116000D01*
X34454868Y39272715D01*
X34445136Y39296211D01*
X34396612Y39413357D01*
X34396612Y39413358D01*
X34394378Y39418750D01*
X34390825Y39423380D01*
X34390823Y39423384D01*
X34338892Y39491062D01*
X34320500Y39545242D01*
X34320500Y40758533D01*
X34346568Y40821466D01*
X34559031Y41033928D01*
X34610346Y41059234D01*
X34652498Y41064784D01*
X34700715Y41071132D01*
X34846750Y41131622D01*
X34908719Y41179172D01*
X34967520Y41224292D01*
X34972153Y41227847D01*
X34989971Y41251068D01*
X35064827Y41348622D01*
X35064828Y41348623D01*
X35068378Y41353250D01*
X35128868Y41499285D01*
X35149500Y41656000D01*
X35128868Y41812715D01*
X35068378Y41958750D01*
X35060505Y41969011D01*
X34975708Y42079520D01*
X34972153Y42084153D01*
X34846750Y42180378D01*
X34700715Y42240868D01*
X34544000Y42261500D01*
X34387285Y42240868D01*
X34241250Y42180378D01*
X34115847Y42084153D01*
X34112292Y42079520D01*
X34027496Y41969011D01*
X34019622Y41958750D01*
X33959132Y41812715D01*
X33955175Y41782658D01*
X33947234Y41722346D01*
X33921928Y41671031D01*
X33775932Y41525035D01*
X33720757Y41499306D01*
X33661952Y41515062D01*
X33627033Y41564932D01*
X33625154Y41593583D01*
X33624739Y41593583D01*
X33624739Y41599420D01*
X33625500Y41605200D01*
X33604868Y41761915D01*
X33544378Y41907950D01*
X33532963Y41922827D01*
X33451708Y42028720D01*
X33448153Y42033353D01*
X33322750Y42129578D01*
X33176715Y42190068D01*
X33020000Y42210700D01*
X32863285Y42190068D01*
X32717250Y42129578D01*
X32591847Y42033353D01*
X32588292Y42028720D01*
X32507038Y41922827D01*
X32495622Y41907950D01*
X32435132Y41761915D01*
X32414500Y41605200D01*
X32435132Y41448485D01*
X32495622Y41302450D01*
X32499175Y41297820D01*
X32499177Y41297816D01*
X32551108Y41230138D01*
X32569500Y41175958D01*
X32569501Y38639285D01*
X32568884Y38628824D01*
X32564726Y38593693D01*
X32565921Y38587150D01*
X32565921Y38587148D01*
X32575367Y38535422D01*
X32575826Y38532667D01*
X32576528Y38527996D01*
X32584637Y38474065D01*
X32587414Y38468282D01*
X32587906Y38466768D01*
X32589059Y38460456D01*
X32608202Y38423604D01*
X32616376Y38407867D01*
X32617624Y38405368D01*
X32643266Y38351971D01*
X32647078Y38347847D01*
X32649154Y38344767D01*
X32651493Y38340264D01*
X32656526Y38334372D01*
X32695089Y38295809D01*
X32697511Y38293289D01*
X32735203Y38252514D01*
X32740953Y38249174D01*
X32741003Y38249134D01*
X32748290Y38242608D01*
X39401433Y31589464D01*
X39427500Y31526532D01*
X39427501Y13939470D01*
X39401434Y13876538D01*
X36923466Y11398568D01*
X36860533Y11372500D01*
X15872442Y11372500D01*
X15818262Y11390892D01*
X15750584Y11442823D01*
X15750580Y11442825D01*
X15745950Y11446378D01*
X15599915Y11506868D01*
X15443200Y11527500D01*
X15286485Y11506868D01*
X15140450Y11446378D01*
X15015047Y11350153D01*
X14918822Y11224750D01*
X14858332Y11078715D01*
X14837700Y10922000D01*
X454000Y10922000D01*
X454000Y28466529D01*
X2353788Y28466529D01*
X2391085Y28219914D01*
X2467331Y27982436D01*
X2468950Y27979259D01*
X2468951Y27979256D01*
X2545446Y27829126D01*
X2580565Y27760202D01*
X2674349Y27632062D01*
X2723968Y27564267D01*
X2727873Y27558931D01*
X2786560Y27501058D01*
X2902918Y27386312D01*
X2902923Y27386308D01*
X2905465Y27383801D01*
X3108773Y27239317D01*
X3332566Y27129198D01*
X3335977Y27128155D01*
X3335980Y27128154D01*
X3507845Y27075610D01*
X3571087Y27056275D01*
X3818198Y27022425D01*
X3946103Y27025550D01*
X4063959Y27028430D01*
X4063965Y27028431D01*
X4067542Y27028518D01*
X4104365Y27035409D01*
X4309190Y27073741D01*
X4309194Y27073742D01*
X4312704Y27074399D01*
X4316068Y27075610D01*
X4544011Y27157675D01*
X4544013Y27157676D01*
X4547377Y27158887D01*
X4550502Y27160619D01*
X4550506Y27160621D01*
X4696216Y27241389D01*
X4765524Y27279807D01*
X4826840Y27328058D01*
X4958726Y27431842D01*
X4958731Y27431846D01*
X4961531Y27434050D01*
X5130357Y27617646D01*
X5267657Y27825873D01*
X5369899Y28053373D01*
X5434454Y28294293D01*
X5459659Y28542435D01*
X5459805Y28556390D01*
X5459979Y28572970D01*
X5459979Y28572976D01*
X5460000Y28575000D01*
X5439997Y28823615D01*
X5380502Y29065834D01*
X5373216Y29083000D01*
X5284445Y29292132D01*
X5284444Y29292134D01*
X5283047Y29295425D01*
X5177759Y29462619D01*
X5152044Y29503454D01*
X5152043Y29503455D01*
X5150137Y29506482D01*
X5146263Y29510877D01*
X5059217Y29609610D01*
X4985194Y29693573D01*
X4792460Y29851887D01*
X4576893Y29977350D01*
X4573561Y29978629D01*
X4573559Y29978630D01*
X4347376Y30065453D01*
X4347374Y30065454D01*
X4344041Y30066733D01*
X4099893Y30117738D01*
X4029673Y30120927D01*
X3854308Y30128891D01*
X3854303Y30128891D01*
X3850731Y30129053D01*
X3847181Y30128642D01*
X3847175Y30128642D01*
X3606524Y30100797D01*
X3606520Y30100796D01*
X3602966Y30100385D01*
X3362970Y30032473D01*
X3359738Y30030966D01*
X3359733Y30030964D01*
X3140155Y29928574D01*
X3140150Y29928571D01*
X3136920Y29927065D01*
X2930631Y29786871D01*
X2928033Y29784414D01*
X2928029Y29784411D01*
X2829143Y29690898D01*
X2749410Y29615498D01*
X2743202Y29607378D01*
X2600092Y29420199D01*
X2600089Y29420194D01*
X2597919Y29417356D01*
X2555796Y29338797D01*
X2499568Y29233932D01*
X2480056Y29197543D01*
X2478896Y29194173D01*
X2478893Y29194167D01*
X2420600Y29024871D01*
X2398853Y28961713D01*
X2356400Y28715934D01*
X2356363Y28712359D01*
X2356362Y28712353D01*
X2353825Y28470104D01*
X2353788Y28466529D01*
X454000Y28466529D01*
X454000Y30979933D01*
X1066527Y30979933D01*
X1066740Y30976124D01*
X1099534Y30864701D01*
X1102781Y30856664D01*
X1190340Y30689179D01*
X1195087Y30681924D01*
X1313513Y30534632D01*
X1319573Y30528444D01*
X1464352Y30406959D01*
X1471506Y30402061D01*
X1637122Y30311014D01*
X1645085Y30307600D01*
X1825233Y30250453D01*
X1833716Y30248650D01*
X1979685Y30232278D01*
X1984649Y30232000D01*
X2270306Y30232000D01*
X2278127Y30234847D01*
X2284117Y30247694D01*
X2793999Y30247694D01*
X2796846Y30239873D01*
X2813729Y30232000D01*
X3088811Y30232000D01*
X3093171Y30232213D01*
X3232422Y30245867D01*
X3240931Y30247552D01*
X3421851Y30302175D01*
X3429873Y30305481D01*
X3596743Y30394208D01*
X3603957Y30399000D01*
X3750424Y30518457D01*
X3756565Y30524555D01*
X3877041Y30670185D01*
X3881886Y30677368D01*
X3971774Y30843613D01*
X3975136Y30851610D01*
X4012096Y30971009D01*
X4011660Y30979933D01*
X5195591Y30979933D01*
X5195804Y30976123D01*
X5231353Y30855336D01*
X5234600Y30847299D01*
X5324421Y30675489D01*
X5329169Y30668234D01*
X5450651Y30517140D01*
X5456711Y30510952D01*
X5605228Y30386331D01*
X5612382Y30381433D01*
X5782273Y30288036D01*
X5790236Y30284622D01*
X5975044Y30225997D01*
X5983510Y30224198D01*
X6134358Y30207277D01*
X6139318Y30207000D01*
X6450306Y30207000D01*
X6458127Y30209847D01*
X6464117Y30222694D01*
X6973999Y30222694D01*
X6976846Y30214873D01*
X6993729Y30207000D01*
X7293809Y30207000D01*
X7298169Y30207213D01*
X7442280Y30221344D01*
X7450781Y30223027D01*
X7636388Y30279064D01*
X7644394Y30282365D01*
X7815577Y30373385D01*
X7822791Y30378178D01*
X7973040Y30500718D01*
X7979181Y30506816D01*
X8102772Y30656211D01*
X8107607Y30663379D01*
X8199826Y30833935D01*
X8203180Y30841913D01*
X8243141Y30971008D01*
X8242516Y30983787D01*
X8241420Y30984971D01*
X8237167Y30986000D01*
X6989694Y30986001D01*
X6981873Y30983154D01*
X6974000Y30966271D01*
X6973999Y30222694D01*
X6464117Y30222694D01*
X6466000Y30226730D01*
X6466001Y30970306D01*
X6463154Y30978127D01*
X6446271Y30986000D01*
X5208591Y30986001D01*
X5196568Y30981625D01*
X5195591Y30979933D01*
X4011660Y30979933D01*
X4011471Y30983787D01*
X4010375Y30984971D01*
X4006122Y30986000D01*
X2809694Y30986001D01*
X2801873Y30983154D01*
X2794000Y30966271D01*
X2793999Y30247694D01*
X2284117Y30247694D01*
X2286000Y30251730D01*
X2286001Y30970306D01*
X2283154Y30978127D01*
X2266271Y30986000D01*
X1079527Y30986001D01*
X1067504Y30981625D01*
X1066527Y30979933D01*
X454000Y30979933D01*
X454000Y31508991D01*
X1067904Y31508991D01*
X1068529Y31496213D01*
X1069625Y31495029D01*
X1073878Y31494000D01*
X2270306Y31493999D01*
X2278127Y31496846D01*
X2284118Y31509694D01*
X2793999Y31509694D01*
X2796846Y31501873D01*
X2813729Y31494000D01*
X4000473Y31493999D01*
X4012496Y31498375D01*
X4013473Y31500067D01*
X4013260Y31503876D01*
X4011755Y31508992D01*
X5196859Y31508992D01*
X5197484Y31496213D01*
X5198580Y31495029D01*
X5202833Y31494000D01*
X6450306Y31493999D01*
X6458127Y31496846D01*
X6464118Y31509694D01*
X6973999Y31509694D01*
X6976846Y31501873D01*
X6993729Y31494000D01*
X8231409Y31493999D01*
X8243432Y31498375D01*
X8244409Y31500067D01*
X8244196Y31503877D01*
X8208647Y31624664D01*
X8205400Y31632701D01*
X8115579Y31804511D01*
X8110831Y31811766D01*
X7989349Y31962860D01*
X7983289Y31969048D01*
X7834772Y32093669D01*
X7827618Y32098567D01*
X7657727Y32191964D01*
X7649764Y32195378D01*
X7464956Y32254003D01*
X7456490Y32255802D01*
X7305642Y32272723D01*
X7300682Y32273000D01*
X6989694Y32273000D01*
X6981873Y32270153D01*
X6974000Y32253270D01*
X6973999Y31509694D01*
X6464118Y31509694D01*
X6466000Y31513729D01*
X6466001Y32155180D01*
X6504976Y32228790D01*
X6523267Y32241221D01*
X6574639Y32276133D01*
X6667494Y32386012D01*
X6727379Y32516813D01*
X6729094Y32527637D01*
X6749373Y32655673D01*
X6749373Y32655677D01*
X6749884Y32658901D01*
X6750000Y32670000D01*
X6730476Y32812528D01*
X6673343Y32944554D01*
X6582810Y33056353D01*
X6465547Y33139688D01*
X6330193Y33188418D01*
X6324142Y33188862D01*
X6324139Y33188863D01*
X6192770Y33198510D01*
X6192768Y33198510D01*
X6186721Y33198954D01*
X6045701Y33170519D01*
X6040296Y33167765D01*
X5984552Y33139362D01*
X5917522Y33105209D01*
X5913060Y33101106D01*
X5828464Y33023316D01*
X5811628Y33007835D01*
X5800747Y32990285D01*
X5752769Y32912904D01*
X5735821Y32885570D01*
X5695686Y32747424D01*
X5695622Y32741360D01*
X5695622Y32741357D01*
X5695115Y32692936D01*
X5694179Y32603573D01*
X5731413Y32464617D01*
X5804642Y32340792D01*
X5809023Y32336591D01*
X5812792Y32331835D01*
X5811647Y32330927D01*
X5835593Y32282261D01*
X5821070Y32223139D01*
X5788896Y32194068D01*
X5624423Y32106615D01*
X5617209Y32101822D01*
X5466960Y31979282D01*
X5460819Y31973184D01*
X5337228Y31823789D01*
X5332393Y31816621D01*
X5240174Y31646065D01*
X5236820Y31638087D01*
X5196859Y31508992D01*
X4011755Y31508992D01*
X3980466Y31615299D01*
X3977219Y31623336D01*
X3889660Y31790821D01*
X3884913Y31798076D01*
X3766487Y31945368D01*
X3760427Y31951556D01*
X3615648Y32073041D01*
X3608494Y32077939D01*
X3442878Y32168986D01*
X3434915Y32172400D01*
X3254767Y32229547D01*
X3246284Y32231350D01*
X3100315Y32247722D01*
X3095351Y32248000D01*
X2809694Y32248000D01*
X2801873Y32245153D01*
X2794000Y32228270D01*
X2793999Y31509694D01*
X2284118Y31509694D01*
X2286000Y31513729D01*
X2286001Y32232306D01*
X2283154Y32240127D01*
X2266271Y32248000D01*
X1991189Y32248000D01*
X1986829Y32247787D01*
X1847578Y32234133D01*
X1839069Y32232448D01*
X1658149Y32177825D01*
X1650127Y32174519D01*
X1483257Y32085792D01*
X1476043Y32081000D01*
X1329576Y31961543D01*
X1323435Y31955445D01*
X1202959Y31809815D01*
X1198114Y31802632D01*
X1108226Y31636387D01*
X1104864Y31628390D01*
X1067904Y31508991D01*
X454000Y31508991D01*
X454000Y39619933D01*
X1066527Y39619933D01*
X1066740Y39616124D01*
X1099534Y39504701D01*
X1102781Y39496664D01*
X1190340Y39329179D01*
X1195087Y39321924D01*
X1313513Y39174632D01*
X1319573Y39168444D01*
X1464352Y39046959D01*
X1471506Y39042061D01*
X1637122Y38951014D01*
X1645085Y38947600D01*
X1825233Y38890453D01*
X1833716Y38888650D01*
X1979685Y38872278D01*
X1984649Y38872000D01*
X2270306Y38872000D01*
X2278127Y38874847D01*
X2284117Y38887694D01*
X2793999Y38887694D01*
X2796846Y38879873D01*
X2813729Y38872000D01*
X3088811Y38872000D01*
X3093171Y38872213D01*
X3232422Y38885867D01*
X3240931Y38887552D01*
X3421851Y38942175D01*
X3429873Y38945481D01*
X3596743Y39034208D01*
X3603957Y39039000D01*
X3750424Y39158457D01*
X3756565Y39164555D01*
X3877041Y39310185D01*
X3881886Y39317368D01*
X3971774Y39483613D01*
X3975136Y39491610D01*
X4012096Y39611009D01*
X4011660Y39619933D01*
X5195591Y39619933D01*
X5195804Y39616123D01*
X5231353Y39495336D01*
X5234600Y39487299D01*
X5324421Y39315489D01*
X5329169Y39308234D01*
X5450651Y39157140D01*
X5456711Y39150952D01*
X5605228Y39026331D01*
X5612382Y39021433D01*
X5786088Y38925938D01*
X5785317Y38924535D01*
X5825392Y38886894D01*
X5832594Y38826441D01*
X5814938Y38790879D01*
X5811628Y38787835D01*
X5808432Y38782680D01*
X5808431Y38782679D01*
X5752506Y38692480D01*
X5735821Y38665570D01*
X5695686Y38527424D01*
X5695622Y38521360D01*
X5695622Y38521357D01*
X5695196Y38480639D01*
X5694179Y38383573D01*
X5731413Y38244617D01*
X5804642Y38120792D01*
X5809023Y38116591D01*
X5867234Y38060769D01*
X5908474Y38021221D01*
X6035257Y37953241D01*
X6041171Y37951919D01*
X6041174Y37951918D01*
X6169732Y37923182D01*
X6175651Y37921859D01*
X6247482Y37925624D01*
X6313253Y37929070D01*
X6313256Y37929071D01*
X6319312Y37929388D01*
X6455657Y37975273D01*
X6460677Y37978684D01*
X6460680Y37978686D01*
X6529443Y38025418D01*
X6574639Y38056133D01*
X6667494Y38166012D01*
X6677527Y38187925D01*
X6710265Y38259432D01*
X6727379Y38296813D01*
X6733651Y38336407D01*
X6749373Y38435673D01*
X6749373Y38435677D01*
X6749884Y38438901D01*
X6750000Y38450000D01*
X6730476Y38592528D01*
X6673343Y38724554D01*
X6582810Y38836353D01*
X6545745Y38862694D01*
X6973999Y38862694D01*
X6976846Y38854873D01*
X6993729Y38847000D01*
X7293809Y38847000D01*
X7298169Y38847213D01*
X7442280Y38861344D01*
X7450781Y38863027D01*
X7636388Y38919064D01*
X7644394Y38922365D01*
X7815577Y39013385D01*
X7822791Y39018178D01*
X7973040Y39140718D01*
X7979181Y39146816D01*
X8102772Y39296211D01*
X8107607Y39303379D01*
X8199826Y39473935D01*
X8203180Y39481913D01*
X8243141Y39611008D01*
X8242516Y39623787D01*
X8241420Y39624971D01*
X8237167Y39626000D01*
X6989694Y39626001D01*
X6981873Y39623154D01*
X6974000Y39606271D01*
X6973999Y38862694D01*
X6545745Y38862694D01*
X6514063Y38885209D01*
X6503444Y38892756D01*
X6466000Y38965302D01*
X6466001Y39610306D01*
X6463154Y39618127D01*
X6446271Y39626000D01*
X5208591Y39626001D01*
X5196568Y39621625D01*
X5195591Y39619933D01*
X4011660Y39619933D01*
X4011471Y39623787D01*
X4010375Y39624971D01*
X4006122Y39626000D01*
X2809694Y39626001D01*
X2801873Y39623154D01*
X2794000Y39606271D01*
X2793999Y38887694D01*
X2284117Y38887694D01*
X2286000Y38891730D01*
X2286001Y39610306D01*
X2283154Y39618127D01*
X2266271Y39626000D01*
X1079527Y39626001D01*
X1067504Y39621625D01*
X1066527Y39619933D01*
X454000Y39619933D01*
X454000Y40148991D01*
X1067904Y40148991D01*
X1068529Y40136213D01*
X1069625Y40135029D01*
X1073878Y40134000D01*
X2270306Y40133999D01*
X2278127Y40136846D01*
X2284118Y40149694D01*
X2793999Y40149694D01*
X2796846Y40141873D01*
X2813729Y40134000D01*
X4000473Y40133999D01*
X4012496Y40138375D01*
X4013473Y40140067D01*
X4013260Y40143876D01*
X4011755Y40148992D01*
X5196859Y40148992D01*
X5197484Y40136213D01*
X5198580Y40135029D01*
X5202833Y40134000D01*
X6450306Y40133999D01*
X6458127Y40136846D01*
X6464118Y40149694D01*
X6973999Y40149694D01*
X6976846Y40141873D01*
X6993729Y40134000D01*
X8231409Y40133999D01*
X8243432Y40138375D01*
X8244409Y40140067D01*
X8244196Y40143877D01*
X8208647Y40264664D01*
X8205400Y40272701D01*
X8115579Y40444511D01*
X8110831Y40451766D01*
X7989349Y40602860D01*
X7983289Y40609048D01*
X7834772Y40733669D01*
X7827618Y40738567D01*
X7657727Y40831964D01*
X7649764Y40835378D01*
X7464956Y40894003D01*
X7456490Y40895802D01*
X7305642Y40912723D01*
X7300682Y40913000D01*
X6989694Y40913000D01*
X6981873Y40910153D01*
X6974000Y40893270D01*
X6973999Y40149694D01*
X6464118Y40149694D01*
X6466000Y40153729D01*
X6466001Y40897306D01*
X6463154Y40905127D01*
X6446271Y40913000D01*
X6146191Y40913000D01*
X6141831Y40912787D01*
X5997720Y40898656D01*
X5989219Y40896973D01*
X5803612Y40840936D01*
X5795606Y40837635D01*
X5624423Y40746615D01*
X5617209Y40741822D01*
X5466960Y40619282D01*
X5460819Y40613184D01*
X5337228Y40463789D01*
X5332393Y40456621D01*
X5240174Y40286065D01*
X5236820Y40278087D01*
X5196859Y40148992D01*
X4011755Y40148992D01*
X3980466Y40255299D01*
X3977219Y40263336D01*
X3889660Y40430821D01*
X3884913Y40438076D01*
X3766487Y40585368D01*
X3760427Y40591556D01*
X3615648Y40713041D01*
X3608494Y40717939D01*
X3442878Y40808986D01*
X3434915Y40812400D01*
X3254767Y40869547D01*
X3246284Y40871350D01*
X3100315Y40887722D01*
X3095351Y40888000D01*
X2809694Y40888000D01*
X2801873Y40885153D01*
X2794000Y40868270D01*
X2793999Y40149694D01*
X2284118Y40149694D01*
X2286000Y40153729D01*
X2286001Y40872306D01*
X2283154Y40880127D01*
X2266271Y40888000D01*
X1991189Y40888000D01*
X1986829Y40887787D01*
X1847578Y40874133D01*
X1839069Y40872448D01*
X1658149Y40817825D01*
X1650127Y40814519D01*
X1483257Y40725792D01*
X1476043Y40721000D01*
X1329576Y40601543D01*
X1323435Y40595445D01*
X1202959Y40449815D01*
X1198114Y40442632D01*
X1108226Y40276387D01*
X1104864Y40268390D01*
X1067904Y40148991D01*
X454000Y40148991D01*
X454000Y50257000D01*
X474822Y50314208D01*
X543000Y50346000D01*
X50257000Y50346000D01*
X50314208Y50325178D01*
G37*
G04 #@! TD.AperFunction*
M02*
