G04 #@! TF.GenerationSoftware,KiCad,Pcbnew,(5.99.0-6591-gee6c8b60ac)*
G04 #@! TF.CreationDate,2020-11-05T12:50:17+01:00*
G04 #@! TF.ProjectId,TFGPS01A,54464750-5330-4314-912e-6b696361645f,REV*
G04 #@! TF.SameCoordinates,Original*
G04 #@! TF.FileFunction,Copper,L3,Inr*
G04 #@! TF.FilePolarity,Positive*
%FSLAX46Y46*%
G04 Gerber Fmt 4.6, Leading zero omitted, Abs format (unit mm)*
G04 Created by KiCad (PCBNEW (5.99.0-6591-gee6c8b60ac)) date 2020-11-05 12:50:17*
%MOMM*%
%LPD*%
G01*
G04 APERTURE LIST*
G04 #@! TA.AperFunction,ComponentPad*
%ADD10C,6.000000*%
G04 #@! TD*
G04 #@! TA.AperFunction,ComponentPad*
%ADD11O,2.000000X1.000000*%
G04 #@! TD*
G04 #@! TA.AperFunction,ComponentPad*
%ADD12O,2.100000X1.050000*%
G04 #@! TD*
G04 #@! TA.AperFunction,ViaPad*
%ADD13C,0.800000*%
G04 #@! TD*
G04 #@! TA.AperFunction,ViaPad*
%ADD14C,0.700000*%
G04 #@! TD*
G04 #@! TA.AperFunction,ViaPad*
%ADD15C,0.600000*%
G04 #@! TD*
G04 #@! TA.AperFunction,Conductor*
%ADD16C,1.000000*%
G04 #@! TD*
G04 #@! TA.AperFunction,Conductor*
%ADD17C,0.500000*%
G04 #@! TD*
G04 APERTURE END LIST*
D10*
X45420000Y5380000D03*
X5380000Y5380000D03*
X45420000Y45420000D03*
X5380000Y45420000D03*
D11*
X2540000Y31240000D03*
X2540000Y39880000D03*
D12*
X6720000Y31240000D03*
X6720000Y39880000D03*
D13*
X19685000Y28575000D03*
X40640000Y48260000D03*
X36423600Y19812000D03*
X11430000Y12700000D03*
X18223610Y16246499D03*
X3810000Y38100000D03*
X3810000Y33020000D03*
X33426400Y23977600D03*
D14*
X34578000Y11430000D03*
D13*
X31115000Y38735000D03*
X40640000Y46355000D03*
X10160000Y9525000D03*
D14*
X35526400Y11430000D03*
D13*
X28549600Y19202400D03*
X41910000Y16510000D03*
X37388800Y28041600D03*
D14*
X32867600Y14173200D03*
D13*
X30073600Y20218400D03*
X9525000Y49530000D03*
D14*
X22961600Y14528800D03*
D13*
X16510000Y24765000D03*
D14*
X30784400Y11430000D03*
D13*
X32004000Y25400000D03*
X28448000Y20421600D03*
X31699200Y26466800D03*
D14*
X25857200Y12446000D03*
D13*
X32385000Y6350000D03*
X24130000Y44450000D03*
X11430000Y11430000D03*
X30480000Y22453600D03*
X35560000Y37465000D03*
X20747970Y28367969D03*
X31242000Y21742400D03*
D14*
X34300065Y13919200D03*
D13*
X29845000Y38735000D03*
X10160000Y8255000D03*
X33375600Y19050000D03*
X25247600Y16560800D03*
X40640000Y5080000D03*
X29667200Y23164800D03*
X15240000Y23495000D03*
X35610800Y27838400D03*
D14*
X24079200Y14427200D03*
D13*
X35356800Y21640800D03*
X29260800Y22199600D03*
D14*
X29870400Y11430000D03*
D13*
X31140400Y27381200D03*
X16510000Y21590000D03*
X32054800Y14325600D03*
X35915600Y26212800D03*
X36423600Y20878800D03*
X8890000Y5080000D03*
X31115000Y37465000D03*
X27381200Y25298400D03*
X27076400Y19304000D03*
D14*
X34188400Y17475200D03*
D13*
X32715200Y24688800D03*
X17780000Y23495000D03*
X29845000Y37465000D03*
X9525000Y48260000D03*
X8890000Y2540000D03*
X35763200Y23977600D03*
D14*
X24790400Y12446000D03*
D13*
X41910000Y48260000D03*
X8890000Y3810000D03*
X38303200Y24536400D03*
X38506400Y22504400D03*
X35864800Y16814800D03*
X8890000Y1270000D03*
X35560000Y38735000D03*
D14*
X26568400Y14478000D03*
D13*
X41275000Y22225000D03*
X13335000Y11430000D03*
X38201600Y17780000D03*
X30480000Y41910000D03*
X28143200Y27279600D03*
X26035000Y5715000D03*
X28575000Y37465000D03*
X27482800Y26466800D03*
X29057600Y27736800D03*
X28575000Y38735000D03*
X28549600Y21488400D03*
X41275000Y24765000D03*
X41275000Y6350000D03*
X36423600Y18694400D03*
D14*
X32681200Y11430000D03*
X31732800Y11430000D03*
D13*
X27686000Y24180800D03*
X3810000Y36830000D03*
D15*
X34338884Y12864203D03*
D13*
X41275000Y18415000D03*
X28575000Y44450000D03*
X33324800Y20167600D03*
X29972000Y14325600D03*
X25857200Y11125200D03*
X3810000Y35560000D03*
X12065000Y20320000D03*
D14*
X24790400Y13716000D03*
D13*
X24130000Y45720000D03*
X30124400Y18084800D03*
X33324800Y27178000D03*
X3810000Y34290000D03*
X11430000Y8255000D03*
X35052000Y24688800D03*
X36525200Y23215600D03*
X27432000Y22199600D03*
X27686000Y14732000D03*
X31013400Y14325600D03*
X38354000Y20320000D03*
X10160000Y16510000D03*
X13335000Y12700000D03*
X36830000Y37465000D03*
X24688800Y11074400D03*
X11430000Y9525000D03*
X49530000Y13970000D03*
X36830000Y38735000D03*
X41910000Y36195000D03*
X28702000Y17729200D03*
X28854400Y14579600D03*
X21742400Y16052800D03*
D14*
X33477200Y18034000D03*
X21590000Y14224000D03*
D13*
X28575000Y40005000D03*
D14*
X33629600Y11430000D03*
D13*
X36525200Y17576800D03*
X28549600Y23418800D03*
X30124400Y27736800D03*
X26670000Y45720000D03*
D14*
X25806400Y13766800D03*
D13*
X28305725Y33013021D03*
X6350000Y23495000D03*
X24638000Y35306000D03*
X24638000Y42926000D03*
X24892000Y18796000D03*
X35560000Y48006000D03*
X30480000Y48006000D03*
X29464000Y4572000D03*
X9398000Y33274000D03*
X46228000Y13970000D03*
X12446000Y35560000D03*
X13019000Y33147000D03*
X9398000Y38100000D03*
X33870000Y39116000D03*
X34544000Y41656000D03*
X14626252Y8843348D03*
X31750000Y43053000D03*
X48514000Y33147000D03*
X37338000Y29464000D03*
X17272000Y14224000D03*
X6096000Y12954000D03*
X38608000Y26162000D03*
X34290000Y43903000D03*
X14097000Y7112000D03*
X38030074Y8692139D03*
X16421990Y15212785D03*
X36499999Y32842001D03*
X5969000Y14351000D03*
X33020000Y41605200D03*
X14630400Y10160000D03*
X19177000Y7112000D03*
X35560000Y7112000D03*
X1727200Y19304000D03*
X21639041Y7101959D03*
X21082000Y41402000D03*
X11596000Y40654794D03*
X23114000Y7112000D03*
X11557000Y29083000D03*
X1676400Y21336000D03*
X1651000Y15240000D03*
X16764000Y40779989D03*
X1778000Y17272000D03*
X18796000Y41148000D03*
X13335000Y43180000D03*
X23749000Y31750000D03*
X24517223Y32390186D03*
X14732000Y43180000D03*
X16383000Y29083000D03*
X1778000Y13208000D03*
X16256000Y43180000D03*
X11684000Y44450000D03*
X19655000Y43464000D03*
X18359977Y32429000D03*
X24057948Y25091052D03*
X25146000Y25273000D03*
X18359977Y33479000D03*
D16*
X24638000Y35306000D02*
X26263600Y33680400D01*
X26263600Y20167600D02*
X24892000Y18796000D01*
X26263600Y33680400D02*
X26263600Y20167600D01*
X24638000Y42926000D02*
X24638000Y35306000D01*
X46228000Y13970000D02*
X36830000Y4572000D01*
X12446000Y33528000D02*
X12700000Y33274000D01*
X12446000Y35560000D02*
X12446000Y33528000D01*
D17*
X13019000Y33147000D02*
X13019000Y34987000D01*
X9398000Y33274000D02*
X12192000Y33274000D01*
D16*
X49614001Y39793999D02*
X49614001Y17356001D01*
X12446000Y48006000D02*
X30480000Y48006000D01*
X12446000Y35560000D02*
X11938000Y35560000D01*
X35560000Y48006000D02*
X42483990Y41082010D01*
X30480000Y48006000D02*
X35560000Y48006000D01*
X42483990Y41082010D02*
X48325990Y41082010D01*
D17*
X12892000Y33274000D02*
X13019000Y33147000D01*
D16*
X36830000Y4572000D02*
X29464000Y4572000D01*
D17*
X13019000Y34987000D02*
X12446000Y35560000D01*
D16*
X9906000Y45466000D02*
X12446000Y48006000D01*
X48325990Y41082010D02*
X49614001Y39793999D01*
X9398000Y33274000D02*
X12700000Y33274000D01*
X9906000Y38608000D02*
X9906000Y45466000D01*
D17*
X12192000Y33274000D02*
X12892000Y33274000D01*
D16*
X49614001Y17356001D02*
X46228000Y13970000D01*
X9398000Y38100000D02*
X9906000Y38608000D01*
X11938000Y35560000D02*
X9398000Y38100000D01*
D17*
X33870000Y40982000D02*
X34544000Y41656000D01*
X33870000Y39116000D02*
X33870000Y40982000D01*
X38989000Y43053000D02*
X41910000Y40132000D01*
X48514000Y20320000D02*
X37642800Y9448800D01*
X48514000Y38735000D02*
X47117000Y40132000D01*
X48514000Y33147000D02*
X48514000Y20320000D01*
X47117000Y40132000D02*
X41910000Y40132000D01*
X31750000Y43053000D02*
X38989000Y43053000D01*
X15231704Y9448800D02*
X14626252Y8843348D01*
X37642800Y9448800D02*
X15231704Y9448800D01*
X48514000Y33147000D02*
X48514000Y38735000D01*
X8382000Y14224000D02*
X7366000Y14224000D01*
X8382000Y14224000D02*
X17272000Y14224000D01*
X7366000Y14224000D02*
X6096000Y12954000D01*
X14097000Y7112000D02*
X15699241Y8714241D01*
X38007972Y8714241D02*
X38030074Y8692139D01*
X15699241Y8714241D02*
X38007972Y8714241D01*
X5969000Y14351000D02*
X6830785Y15212785D01*
X36487999Y32830001D02*
X36499999Y32842001D01*
X6830785Y15212785D02*
X16421990Y15212785D01*
X39878000Y31750000D02*
X39878000Y12801600D01*
X39878000Y12801600D02*
X37236400Y10160000D01*
X33020000Y38608000D02*
X39878000Y31750000D01*
X37236400Y10160000D02*
X14630400Y10160000D01*
X33020000Y41605200D02*
X33020000Y38608000D01*
X20066000Y8001000D02*
X34671000Y8001000D01*
X34671000Y8001000D02*
X35560000Y7112000D01*
X19177000Y7112000D02*
X20066000Y8001000D01*
X21082000Y41402000D02*
X20154001Y42329999D01*
X13869001Y40500965D02*
X13869001Y29617001D01*
X3556000Y19304000D02*
X1727200Y19304000D01*
X15698035Y42329999D02*
X13869001Y40500965D01*
X20154001Y42329999D02*
X15698035Y42329999D01*
X13869001Y29617001D02*
X3556000Y19304000D01*
X9423400Y29083000D02*
X1676400Y21336000D01*
X11557000Y29083000D02*
X9423400Y29083000D01*
X15494000Y29083000D02*
X1651000Y15240000D01*
X15494000Y29083000D02*
X15494000Y39370000D01*
X16764000Y40779989D02*
X15494000Y39509989D01*
X15494000Y39509989D02*
X15494000Y39370000D01*
X14643999Y40073881D02*
X14643999Y29375999D01*
X16200107Y41629989D02*
X14643999Y40073881D01*
X14643999Y29375999D02*
X2540000Y17272000D01*
X18314011Y41629989D02*
X16200107Y41629989D01*
X18796000Y41148000D02*
X18314011Y41629989D01*
X2540000Y17272000D02*
X1778000Y17272000D01*
X16383000Y29083000D02*
X16383000Y27813000D01*
X16383000Y27813000D02*
X1778000Y13208000D01*
X18669000Y44450000D02*
X19655000Y43464000D01*
X11684000Y44450000D02*
X18669000Y44450000D01*
X24057948Y26260088D02*
X24057948Y25091052D01*
X18359977Y32429000D02*
X18359977Y31958059D01*
X18359977Y31958059D02*
X24057948Y26260088D01*
X19304000Y32893000D02*
X18718000Y33479000D01*
X25146000Y25273000D02*
X25146000Y26162000D01*
X19304000Y32004000D02*
X19304000Y32893000D01*
X25146000Y26162000D02*
X19304000Y32004000D01*
X18718000Y33479000D02*
X18359977Y33479000D01*
G04 #@! TA.AperFunction,Conductor*
G36*
X50364208Y50375178D02*
G01*
X50396000Y50307000D01*
X50396000Y40358474D01*
X50375178Y40301266D01*
X50322455Y40270826D01*
X50243850Y40295760D01*
X50217421Y40322374D01*
X50216234Y40323642D01*
X50215538Y40324540D01*
X50176930Y40363148D01*
X50118729Y40421756D01*
X50117904Y40422280D01*
X50116876Y40423202D01*
X48894078Y41645998D01*
X48893422Y41646661D01*
X48838572Y41702673D01*
X48838568Y41702676D01*
X48835090Y41706228D01*
X48830910Y41708922D01*
X48830905Y41708926D01*
X48797478Y41730468D01*
X48790179Y41735713D01*
X48755222Y41763618D01*
X48723367Y41779017D01*
X48713896Y41784333D01*
X48688330Y41800809D01*
X48688326Y41800811D01*
X48684144Y41803506D01*
X48655137Y41814064D01*
X48642104Y41818808D01*
X48633811Y41822311D01*
X48598030Y41839608D01*
X48598022Y41839611D01*
X48593545Y41841775D01*
X48567139Y41847871D01*
X48559075Y41849733D01*
X48548656Y41852819D01*
X48515397Y41864925D01*
X48471024Y41870530D01*
X48462156Y41872109D01*
X48423422Y41881052D01*
X48418571Y41882172D01*
X48379072Y41882309D01*
X48377317Y41882368D01*
X48376192Y41882510D01*
X48321636Y41882510D01*
X48321326Y41882511D01*
X48238997Y41882798D01*
X48238042Y41882585D01*
X48236666Y41882510D01*
X42852433Y41882510D01*
X42789501Y41908577D01*
X36128089Y48569987D01*
X36127433Y48570650D01*
X36072582Y48626663D01*
X36072579Y48626666D01*
X36069100Y48630218D01*
X36064920Y48632912D01*
X36064915Y48632916D01*
X36031488Y48654458D01*
X36024189Y48659703D01*
X35989232Y48687608D01*
X35957377Y48703007D01*
X35947906Y48708323D01*
X35922340Y48724799D01*
X35922336Y48724801D01*
X35918154Y48727496D01*
X35900109Y48734064D01*
X35876114Y48742798D01*
X35867821Y48746301D01*
X35832040Y48763598D01*
X35832032Y48763601D01*
X35827555Y48765765D01*
X35801149Y48771861D01*
X35793085Y48773723D01*
X35782666Y48776809D01*
X35749407Y48788915D01*
X35705034Y48794520D01*
X35696166Y48796099D01*
X35657432Y48805042D01*
X35652581Y48806162D01*
X35613082Y48806299D01*
X35611327Y48806358D01*
X35610202Y48806500D01*
X35555646Y48806500D01*
X35555336Y48806501D01*
X35473007Y48806788D01*
X35472052Y48806575D01*
X35470676Y48806500D01*
X12448679Y48806500D01*
X12447747Y48806505D01*
X12369570Y48807324D01*
X12369569Y48807324D01*
X12364598Y48807376D01*
X12320878Y48797923D01*
X12311997Y48796469D01*
X12267543Y48791483D01*
X12262842Y48789846D01*
X12234122Y48779845D01*
X12223663Y48776905D01*
X12193936Y48770478D01*
X12193931Y48770476D01*
X12189078Y48769427D01*
X12148547Y48750527D01*
X12140205Y48747140D01*
X12102657Y48734064D01*
X12102652Y48734062D01*
X12097955Y48732426D01*
X12093738Y48729791D01*
X12093736Y48729790D01*
X12067946Y48713675D01*
X12058398Y48708491D01*
X12046636Y48703006D01*
X12026326Y48693535D01*
X12022391Y48690483D01*
X12022390Y48690482D01*
X11990987Y48666122D01*
X11983597Y48660967D01*
X11977084Y48656897D01*
X11945665Y48637265D01*
X11917621Y48609416D01*
X11916355Y48608231D01*
X11915458Y48607536D01*
X11876925Y48569003D01*
X11818243Y48510729D01*
X11817719Y48509903D01*
X11816789Y48508867D01*
X9341965Y46034041D01*
X9341303Y46033386D01*
X9281783Y45975100D01*
X9279087Y45970916D01*
X9257554Y45937504D01*
X9252300Y45930192D01*
X9234055Y45907337D01*
X9224392Y45895232D01*
X9222227Y45890753D01*
X9208991Y45863374D01*
X9203675Y45853901D01*
X9184505Y45824154D01*
X9169200Y45782104D01*
X9165707Y45773836D01*
X9146235Y45733555D01*
X9145117Y45728711D01*
X9138276Y45699081D01*
X9135190Y45688662D01*
X9123086Y45655407D01*
X9122463Y45650472D01*
X9117482Y45611042D01*
X9115905Y45602184D01*
X9105838Y45558581D01*
X9105821Y45553598D01*
X9105701Y45519077D01*
X9105643Y45517322D01*
X9105501Y45516202D01*
X9105501Y45461907D01*
X9105212Y45379007D01*
X9105426Y45378049D01*
X9105501Y45376665D01*
X9105500Y38976442D01*
X9079433Y38913510D01*
X8869211Y38703287D01*
X8861316Y38696278D01*
X8836328Y38676615D01*
X8836325Y38676612D01*
X8832416Y38673536D01*
X8829284Y38669668D01*
X8804028Y38638481D01*
X8801875Y38635951D01*
X8800442Y38634518D01*
X8798903Y38632590D01*
X8798893Y38632579D01*
X8774403Y38601901D01*
X8774015Y38601419D01*
X8722535Y38537847D01*
X8722530Y38537839D01*
X8719405Y38533980D01*
X8718156Y38531442D01*
X8716392Y38529232D01*
X8707372Y38510573D01*
X8678665Y38451189D01*
X8678392Y38450630D01*
X8643746Y38380219D01*
X8640121Y38372853D01*
X8639465Y38370099D01*
X8638235Y38367555D01*
X8637115Y38362704D01*
X8618718Y38283021D01*
X8618576Y38282417D01*
X8603730Y38220100D01*
X8598505Y38198166D01*
X8598475Y38195342D01*
X8597838Y38192581D01*
X8597799Y38181363D01*
X8597535Y38105878D01*
X8597531Y38105258D01*
X8597221Y38075614D01*
X8596624Y38018600D01*
X8597222Y38015835D01*
X8597212Y38013007D01*
X8598297Y38008155D01*
X8598297Y38008151D01*
X8616139Y37928332D01*
X8616272Y37927725D01*
X8634573Y37843079D01*
X8635768Y37840517D01*
X8636385Y37837755D01*
X8638518Y37833263D01*
X8638519Y37833260D01*
X8673587Y37759408D01*
X8673851Y37758846D01*
X8710465Y37680327D01*
X8712200Y37678090D01*
X8713412Y37675538D01*
X8716492Y37671624D01*
X8766926Y37607534D01*
X8767297Y37607060D01*
X8796463Y37569460D01*
X8797910Y37568013D01*
X8799990Y37565516D01*
X8824464Y37534416D01*
X8828328Y37531287D01*
X8828330Y37531285D01*
X8857869Y37507365D01*
X8864792Y37501131D01*
X11370005Y34995917D01*
X11370659Y34995256D01*
X11428900Y34935782D01*
X11433083Y34933086D01*
X11433087Y34933083D01*
X11466496Y34911553D01*
X11473810Y34906298D01*
X11508767Y34878392D01*
X11513247Y34876226D01*
X11513249Y34876225D01*
X11540625Y34862991D01*
X11550100Y34857674D01*
X11579846Y34838504D01*
X11586940Y34835922D01*
X11587875Y34835138D01*
X11588982Y34834588D01*
X11588849Y34834320D01*
X11633576Y34796789D01*
X11645500Y34752289D01*
X11645501Y34163500D01*
X11624679Y34106292D01*
X11556501Y34074500D01*
X9353424Y34074500D01*
X9350959Y34074223D01*
X9350950Y34074223D01*
X9224794Y34060072D01*
X9219543Y34059483D01*
X9049955Y34000426D01*
X8897665Y33905265D01*
X8770243Y33778729D01*
X8674021Y33627108D01*
X8672352Y33622421D01*
X8615450Y33462623D01*
X8615449Y33462618D01*
X8613782Y33457937D01*
X8613193Y33453001D01*
X8613193Y33452999D01*
X8593413Y33287110D01*
X8592520Y33279623D01*
X8597974Y33227732D01*
X8605124Y33159703D01*
X8611290Y33101031D01*
X8612893Y33096322D01*
X8612894Y33096318D01*
X8650485Y32985898D01*
X8669162Y32931035D01*
X8690411Y32896495D01*
X8760648Y32782325D01*
X8760651Y32782322D01*
X8763257Y32778085D01*
X8766741Y32774527D01*
X8766742Y32774526D01*
X8791778Y32748960D01*
X8888900Y32649782D01*
X8893083Y32647086D01*
X8893087Y32647083D01*
X9035659Y32555202D01*
X9035661Y32555201D01*
X9039846Y32552504D01*
X9208593Y32491085D01*
X9266378Y32483785D01*
X9345024Y32473850D01*
X9345031Y32473850D01*
X9347798Y32473500D01*
X12704484Y32473500D01*
X12704795Y32473499D01*
X12782012Y32473229D01*
X12782015Y32473229D01*
X12786993Y32473212D01*
X12791851Y32474298D01*
X12796797Y32474835D01*
X12796977Y32473177D01*
X12829636Y32472587D01*
X12923253Y32448027D01*
X13005925Y32446729D01*
X13087377Y32445449D01*
X13087380Y32445449D01*
X13092745Y32445365D01*
X13097975Y32446563D01*
X13097977Y32446563D01*
X13209633Y32472136D01*
X13270045Y32464611D01*
X13311487Y32420014D01*
X13318502Y32385382D01*
X13318502Y29881892D01*
X13292436Y29818961D01*
X12404620Y28931145D01*
X12349446Y28905418D01*
X12290641Y28921174D01*
X12255722Y28971044D01*
X12253577Y29006619D01*
X12261933Y29065332D01*
X12262345Y29068225D01*
X12262500Y29083000D01*
X12242135Y29251285D01*
X12182217Y29409855D01*
X12142255Y29468000D01*
X12089245Y29545131D01*
X12089241Y29545135D01*
X12086203Y29549556D01*
X12023090Y29605788D01*
X11963645Y29658751D01*
X11959638Y29662321D01*
X11951736Y29666505D01*
X11814572Y29739130D01*
X11814570Y29739131D01*
X11809829Y29741641D01*
X11799435Y29744252D01*
X11650622Y29781631D01*
X11650623Y29781631D01*
X11645423Y29782937D01*
X11567865Y29783343D01*
X11481275Y29783796D01*
X11481274Y29783796D01*
X11475912Y29783824D01*
X11311082Y29744252D01*
X11306315Y29741792D01*
X11306316Y29741792D01*
X11165215Y29668965D01*
X11165211Y29668963D01*
X11160450Y29666505D01*
X11147758Y29655433D01*
X11089251Y29633500D01*
X9433439Y29633500D01*
X9429711Y29633578D01*
X9377186Y29635780D01*
X9377185Y29635780D01*
X9371122Y29636034D01*
X9327081Y29625704D01*
X9318852Y29624180D01*
X9280032Y29618862D01*
X9280026Y29618860D01*
X9274015Y29618037D01*
X9268448Y29615628D01*
X9268444Y29615627D01*
X9257185Y29610755D01*
X9242166Y29605788D01*
X9230232Y29602989D01*
X9230229Y29602988D01*
X9224325Y29601603D01*
X9219008Y29598680D01*
X9184691Y29579814D01*
X9177161Y29576125D01*
X9135636Y29558155D01*
X9130923Y29554338D01*
X9130919Y29554336D01*
X9121385Y29546616D01*
X9108255Y29537793D01*
X9096286Y29531213D01*
X9096283Y29531211D01*
X9092196Y29528964D01*
X9082283Y29520408D01*
X9056888Y29495013D01*
X9049965Y29488780D01*
X9018458Y29463266D01*
X9006369Y29446255D01*
X8996760Y29434885D01*
X5300488Y25738612D01*
X1617520Y22055644D01*
X1575364Y22032035D01*
X1430482Y21997252D01*
X1279850Y21919505D01*
X1152111Y21808072D01*
X1054640Y21669385D01*
X993065Y21511451D01*
X970939Y21343388D01*
X971527Y21338062D01*
X971527Y21338060D01*
X984149Y21223733D01*
X989540Y21174898D01*
X1047795Y21015710D01*
X1142340Y20875012D01*
X1146308Y20871402D01*
X1146310Y20871399D01*
X1263746Y20764540D01*
X1267717Y20760927D01*
X1416688Y20680043D01*
X1580653Y20637027D01*
X1663325Y20635729D01*
X1744777Y20634449D01*
X1744780Y20634449D01*
X1750145Y20634365D01*
X1755375Y20635563D01*
X1755377Y20635563D01*
X1910150Y20671011D01*
X1910151Y20671011D01*
X1915380Y20672209D01*
X1990013Y20709746D01*
X2062027Y20745964D01*
X2062029Y20745966D01*
X2066818Y20748374D01*
X2195716Y20858464D01*
X2294634Y20996123D01*
X2357861Y21153403D01*
X2367870Y21223734D01*
X2393050Y21274126D01*
X9625358Y28506433D01*
X9688290Y28532500D01*
X11086879Y28532500D01*
X11138477Y28512542D01*
X11139973Y28514647D01*
X11144351Y28511536D01*
X11148317Y28507927D01*
X11153030Y28505368D01*
X11238041Y28459211D01*
X11297288Y28427043D01*
X11461253Y28384027D01*
X11552946Y28382587D01*
X11625381Y28381449D01*
X11625383Y28381449D01*
X11630745Y28381365D01*
X11632982Y28381877D01*
X11691008Y28367407D01*
X11726789Y28318153D01*
X11722540Y28257421D01*
X11704173Y28230698D01*
X7160469Y23686993D01*
X7105295Y23661266D01*
X7046490Y23677022D01*
X7014283Y23718468D01*
X6977112Y23816839D01*
X6975217Y23821855D01*
X6935874Y23879100D01*
X6882245Y23957131D01*
X6882241Y23957135D01*
X6879203Y23961556D01*
X6869055Y23970598D01*
X6756645Y24070751D01*
X6752638Y24074321D01*
X6717847Y24092742D01*
X6607572Y24151130D01*
X6607570Y24151131D01*
X6602829Y24153641D01*
X6592435Y24156252D01*
X6443622Y24193631D01*
X6443623Y24193631D01*
X6438423Y24194937D01*
X6360865Y24195343D01*
X6274275Y24195796D01*
X6274274Y24195796D01*
X6268912Y24195824D01*
X6104082Y24156252D01*
X5953450Y24078505D01*
X5825711Y23967072D01*
X5728240Y23828385D01*
X5666665Y23670451D01*
X5644539Y23502388D01*
X5663140Y23333898D01*
X5721395Y23174710D01*
X5815940Y23034012D01*
X5819908Y23030402D01*
X5819910Y23030399D01*
X5937346Y22923540D01*
X5941317Y22919927D01*
X6090288Y22839043D01*
X6095476Y22837682D01*
X6116322Y22832213D01*
X6166373Y22797554D01*
X6182437Y22738832D01*
X6156669Y22683193D01*
X3354043Y19880567D01*
X3291110Y19854500D01*
X2196083Y19854500D01*
X2136880Y19877047D01*
X2133845Y19879751D01*
X2133844Y19879751D01*
X2129838Y19883321D01*
X2117290Y19889965D01*
X1984772Y19960130D01*
X1984770Y19960131D01*
X1980029Y19962641D01*
X1969635Y19965252D01*
X1820822Y20002631D01*
X1820823Y20002631D01*
X1815623Y20003937D01*
X1738065Y20004343D01*
X1651475Y20004796D01*
X1651474Y20004796D01*
X1646112Y20004824D01*
X1481282Y19965252D01*
X1330650Y19887505D01*
X1202911Y19776072D01*
X1173680Y19734480D01*
X1123223Y19662687D01*
X1105440Y19637385D01*
X1043865Y19479451D01*
X1021739Y19311388D01*
X1022327Y19306062D01*
X1022327Y19306060D01*
X1031745Y19220755D01*
X1040340Y19142898D01*
X1098595Y18983710D01*
X1193140Y18843012D01*
X1197108Y18839402D01*
X1197110Y18839399D01*
X1314546Y18732540D01*
X1318517Y18728927D01*
X1467488Y18648043D01*
X1631453Y18605027D01*
X1714125Y18603729D01*
X1795577Y18602449D01*
X1795580Y18602449D01*
X1800945Y18602365D01*
X1806175Y18603563D01*
X1806177Y18603563D01*
X1960950Y18639011D01*
X1960951Y18639011D01*
X1966180Y18640209D01*
X2045207Y18679955D01*
X2112827Y18713964D01*
X2112829Y18713966D01*
X2117618Y18716374D01*
X2121700Y18719860D01*
X2136121Y18732176D01*
X2193921Y18753500D01*
X3028110Y18753500D01*
X3085318Y18732678D01*
X3115758Y18679955D01*
X3091043Y18601567D01*
X2338043Y17848567D01*
X2275110Y17822500D01*
X2246883Y17822500D01*
X2187680Y17845047D01*
X2184645Y17847751D01*
X2184644Y17847751D01*
X2180638Y17851321D01*
X2168090Y17857965D01*
X2035572Y17928130D01*
X2035570Y17928131D01*
X2030829Y17930641D01*
X2020435Y17933252D01*
X1871622Y17970631D01*
X1871623Y17970631D01*
X1866423Y17971937D01*
X1788865Y17972343D01*
X1702275Y17972796D01*
X1702274Y17972796D01*
X1696912Y17972824D01*
X1532082Y17933252D01*
X1381450Y17855505D01*
X1253711Y17744072D01*
X1156240Y17605385D01*
X1094665Y17447451D01*
X1072539Y17279388D01*
X1091140Y17110898D01*
X1149395Y16951710D01*
X1243940Y16811012D01*
X1247908Y16807402D01*
X1247910Y16807399D01*
X1365346Y16700540D01*
X1369317Y16696927D01*
X1518288Y16616043D01*
X1682253Y16573027D01*
X1764925Y16571729D01*
X1846377Y16570449D01*
X1846380Y16570449D01*
X1851745Y16570365D01*
X2005588Y16605600D01*
X2065999Y16598075D01*
X2107441Y16553478D01*
X2110522Y16492677D01*
X2088389Y16455913D01*
X1592119Y15959643D01*
X1549963Y15936035D01*
X1452858Y15912722D01*
X1405082Y15901252D01*
X1254450Y15823505D01*
X1126711Y15712072D01*
X1100597Y15674916D01*
X1043062Y15593051D01*
X1029240Y15573385D01*
X967665Y15415451D01*
X945539Y15247388D01*
X946127Y15242062D01*
X946127Y15242060D01*
X958749Y15127732D01*
X964140Y15078898D01*
X1022395Y14919710D01*
X1116940Y14779012D01*
X1120908Y14775402D01*
X1120910Y14775399D01*
X1219014Y14686131D01*
X1242317Y14664927D01*
X1391288Y14584043D01*
X1555253Y14541027D01*
X1637925Y14539729D01*
X1719377Y14538449D01*
X1719380Y14538449D01*
X1724745Y14538365D01*
X1729975Y14539563D01*
X1729977Y14539563D01*
X1884750Y14575011D01*
X1884751Y14575011D01*
X1889980Y14576209D01*
X1964613Y14613746D01*
X2036627Y14649964D01*
X2036629Y14649966D01*
X2041418Y14652374D01*
X2170316Y14762464D01*
X2269234Y14900123D01*
X2332461Y15057403D01*
X2342470Y15127732D01*
X2367649Y15178125D01*
X15680567Y28491042D01*
X15735743Y28516770D01*
X15794548Y28501014D01*
X15832500Y28428109D01*
X15832501Y28077892D01*
X15806434Y28014959D01*
X1719119Y13927643D01*
X1676963Y13904035D01*
X1539509Y13871035D01*
X1532082Y13869252D01*
X1381450Y13791505D01*
X1253711Y13680072D01*
X1221306Y13633964D01*
X1174976Y13568043D01*
X1156240Y13541385D01*
X1094665Y13383451D01*
X1072539Y13215388D01*
X1073127Y13210062D01*
X1073127Y13210060D01*
X1085749Y13095732D01*
X1091140Y13046898D01*
X1149395Y12887710D01*
X1243940Y12747012D01*
X1247908Y12743402D01*
X1247910Y12743399D01*
X1362914Y12638753D01*
X1369317Y12632927D01*
X1518288Y12552043D01*
X1682253Y12509027D01*
X1764925Y12507729D01*
X1846377Y12506449D01*
X1846380Y12506449D01*
X1851745Y12506365D01*
X1856975Y12507563D01*
X1856977Y12507563D01*
X2011750Y12543011D01*
X2011751Y12543011D01*
X2016980Y12544209D01*
X2091613Y12581746D01*
X2163627Y12617964D01*
X2163629Y12617966D01*
X2168418Y12620374D01*
X2297316Y12730464D01*
X2396234Y12868123D01*
X2459461Y13025403D01*
X2469470Y13095732D01*
X2494649Y13146125D01*
X3706912Y14358388D01*
X5263539Y14358388D01*
X5264127Y14353062D01*
X5264127Y14353060D01*
X5280326Y14206332D01*
X5282140Y14189898D01*
X5340395Y14030710D01*
X5434940Y13890012D01*
X5438908Y13886402D01*
X5438910Y13886399D01*
X5543197Y13791505D01*
X5560317Y13775927D01*
X5565035Y13773366D01*
X5565034Y13773366D01*
X5705519Y13697089D01*
X5745859Y13651493D01*
X5747453Y13590634D01*
X5707751Y13544316D01*
X5708657Y13542983D01*
X5704217Y13539966D01*
X5699450Y13537505D01*
X5571711Y13426072D01*
X5474240Y13287385D01*
X5412665Y13129451D01*
X5390539Y12961388D01*
X5391127Y12956062D01*
X5391127Y12956060D01*
X5403749Y12841733D01*
X5409140Y12792898D01*
X5467395Y12633710D01*
X5561940Y12493012D01*
X5565908Y12489402D01*
X5565910Y12489399D01*
X5683346Y12382540D01*
X5687317Y12378927D01*
X5836288Y12298043D01*
X6000253Y12255027D01*
X6082925Y12253729D01*
X6164377Y12252449D01*
X6164380Y12252449D01*
X6169745Y12252365D01*
X6174975Y12253563D01*
X6174977Y12253563D01*
X6329750Y12289011D01*
X6329751Y12289011D01*
X6334980Y12290209D01*
X6409613Y12327746D01*
X6481627Y12363964D01*
X6481629Y12363966D01*
X6486418Y12366374D01*
X6615316Y12476464D01*
X6714234Y12614123D01*
X6777461Y12771403D01*
X6787470Y12841734D01*
X6812650Y12892126D01*
X7567958Y13647433D01*
X7630890Y13673500D01*
X16801879Y13673500D01*
X16853477Y13653542D01*
X16854973Y13655647D01*
X16859351Y13652536D01*
X16863317Y13648927D01*
X17012288Y13568043D01*
X17176253Y13525027D01*
X17258925Y13523729D01*
X17340377Y13522449D01*
X17340380Y13522449D01*
X17345745Y13522365D01*
X17350975Y13523563D01*
X17350977Y13523563D01*
X17505750Y13559011D01*
X17505751Y13559011D01*
X17510980Y13560209D01*
X17585613Y13597746D01*
X17657627Y13633964D01*
X17657629Y13633966D01*
X17662418Y13636374D01*
X17791316Y13746464D01*
X17890234Y13884123D01*
X17953461Y14041403D01*
X17977345Y14209225D01*
X17977500Y14224000D01*
X17957135Y14392285D01*
X17897217Y14550855D01*
X17857874Y14608100D01*
X17804245Y14686131D01*
X17804241Y14686135D01*
X17801203Y14690556D01*
X17674638Y14803321D01*
X17630676Y14826598D01*
X17529572Y14880130D01*
X17529570Y14880131D01*
X17524829Y14882641D01*
X17360423Y14923937D01*
X17190912Y14924824D01*
X17190927Y14927643D01*
X17141492Y14939439D01*
X17105211Y14988327D01*
X17104638Y15030019D01*
X17103451Y15030188D01*
X17126923Y15195117D01*
X17127335Y15198010D01*
X17127490Y15212785D01*
X17107125Y15381070D01*
X17047207Y15539640D01*
X16990945Y15621502D01*
X16954235Y15674916D01*
X16954231Y15674920D01*
X16951193Y15679341D01*
X16914457Y15712072D01*
X16828635Y15788536D01*
X16824628Y15792106D01*
X16760680Y15825965D01*
X16679562Y15868915D01*
X16679560Y15868916D01*
X16674819Y15871426D01*
X16664425Y15874037D01*
X16594493Y15891603D01*
X16510413Y15912722D01*
X16432855Y15913128D01*
X16346265Y15913581D01*
X16346264Y15913581D01*
X16340902Y15913609D01*
X16176072Y15874037D01*
X16171305Y15871577D01*
X16171306Y15871577D01*
X16030205Y15798750D01*
X16030201Y15798748D01*
X16025440Y15796290D01*
X16012748Y15785218D01*
X15954241Y15763285D01*
X6840833Y15763285D01*
X6837106Y15763363D01*
X6784568Y15765565D01*
X6778507Y15765819D01*
X6734447Y15755485D01*
X6726243Y15753965D01*
X6681400Y15747822D01*
X6664575Y15740541D01*
X6649555Y15735574D01*
X6637620Y15732775D01*
X6637619Y15732775D01*
X6631711Y15731389D01*
X6596575Y15712072D01*
X6592060Y15709590D01*
X6584550Y15705911D01*
X6543021Y15687940D01*
X6538304Y15684120D01*
X6528777Y15676406D01*
X6515648Y15667584D01*
X6503668Y15660997D01*
X6499581Y15658750D01*
X6489668Y15650193D01*
X6464273Y15624798D01*
X6457350Y15618565D01*
X6425843Y15593051D01*
X6413754Y15576040D01*
X6404145Y15564670D01*
X5910120Y15070644D01*
X5867964Y15047035D01*
X5723082Y15012252D01*
X5572450Y14934505D01*
X5444711Y14823072D01*
X5441628Y14818685D01*
X5354088Y14694128D01*
X5347240Y14684385D01*
X5285665Y14526451D01*
X5263539Y14358388D01*
X3706912Y14358388D01*
X16765164Y27416639D01*
X16767855Y27419219D01*
X16806557Y27454807D01*
X16811020Y27458911D01*
X16834858Y27497358D01*
X16839608Y27504269D01*
X16863288Y27535466D01*
X16866959Y27540302D01*
X16873707Y27557345D01*
X16880814Y27571476D01*
X16890475Y27587058D01*
X16903098Y27630504D01*
X16905812Y27638431D01*
X16920231Y27674849D01*
X16920233Y27674855D01*
X16922465Y27680494D01*
X16924381Y27698722D01*
X16927426Y27714246D01*
X16932541Y27731851D01*
X16933500Y27744911D01*
X16933500Y27780822D01*
X16933988Y27790125D01*
X16937591Y27824411D01*
X16937591Y27824414D01*
X16938225Y27830448D01*
X16934746Y27851017D01*
X16933500Y27865859D01*
X16933500Y28620201D01*
X16950223Y28672134D01*
X17001234Y28743123D01*
X17064461Y28900403D01*
X17088345Y29068225D01*
X17088500Y29083000D01*
X17068135Y29251285D01*
X17008217Y29409855D01*
X16968255Y29468000D01*
X16915245Y29545131D01*
X16915241Y29545135D01*
X16912203Y29549556D01*
X16849090Y29605788D01*
X16789645Y29658751D01*
X16785638Y29662321D01*
X16777736Y29666505D01*
X16640572Y29739130D01*
X16640570Y29739131D01*
X16635829Y29741641D01*
X16625435Y29744252D01*
X16476622Y29781631D01*
X16476623Y29781631D01*
X16471423Y29782937D01*
X16393865Y29783343D01*
X16307275Y29783796D01*
X16307274Y29783796D01*
X16301912Y29783824D01*
X16154277Y29748380D01*
X16093788Y29755272D01*
X16051882Y29799432D01*
X16044500Y29834921D01*
X16044500Y33486388D01*
X17654516Y33486388D01*
X17655104Y33481062D01*
X17655104Y33481060D01*
X17672063Y33327449D01*
X17673117Y33317898D01*
X17731372Y33158710D01*
X17825917Y33018012D01*
X17829886Y33014400D01*
X17831825Y33012154D01*
X17853442Y32955242D01*
X17833629Y32902519D01*
X17835688Y32901072D01*
X17775898Y32815999D01*
X17738217Y32762385D01*
X17676642Y32604451D01*
X17654516Y32436388D01*
X17655104Y32431062D01*
X17655104Y32431060D01*
X17671093Y32286235D01*
X17673117Y32267898D01*
X17731372Y32108710D01*
X17734367Y32104253D01*
X17794239Y32015153D01*
X17809290Y31961788D01*
X17808009Y31931227D01*
X17806943Y31905782D01*
X17811064Y31888212D01*
X17817272Y31861744D01*
X17818799Y31853502D01*
X17824940Y31808674D01*
X17827348Y31803109D01*
X17827349Y31803106D01*
X17832220Y31791851D01*
X17837186Y31776838D01*
X17841373Y31758986D01*
X17859291Y31726395D01*
X17863171Y31719337D01*
X17866860Y31711805D01*
X17882412Y31675865D01*
X17882414Y31675861D01*
X17884823Y31670295D01*
X17888637Y31665585D01*
X17888642Y31665577D01*
X17896356Y31656052D01*
X17905180Y31642921D01*
X17914012Y31626856D01*
X17922569Y31616943D01*
X17947965Y31591547D01*
X17954198Y31584624D01*
X17979712Y31553117D01*
X17996723Y31541028D01*
X18008094Y31531418D01*
X23481381Y26058130D01*
X23507448Y25995198D01*
X23507449Y25553977D01*
X23491264Y25502802D01*
X23436188Y25424437D01*
X23374613Y25266503D01*
X23352487Y25098440D01*
X23353075Y25093114D01*
X23353075Y25093112D01*
X23363735Y24996557D01*
X23371088Y24929950D01*
X23429343Y24770762D01*
X23523888Y24630064D01*
X23527856Y24626454D01*
X23527858Y24626451D01*
X23611827Y24550045D01*
X23649265Y24515979D01*
X23798236Y24435095D01*
X23962201Y24392079D01*
X24044873Y24390781D01*
X24126325Y24389501D01*
X24126328Y24389501D01*
X24131693Y24389417D01*
X24136923Y24390615D01*
X24136925Y24390615D01*
X24291698Y24426063D01*
X24291699Y24426063D01*
X24296928Y24427261D01*
X24396913Y24477548D01*
X24443575Y24501016D01*
X24443577Y24501018D01*
X24448366Y24503426D01*
X24577264Y24613516D01*
X24620232Y24673312D01*
X24670524Y24707619D01*
X24735963Y24695433D01*
X24737317Y24697927D01*
X24886288Y24617043D01*
X25050253Y24574027D01*
X25132925Y24572729D01*
X25214377Y24571449D01*
X25214380Y24571449D01*
X25219745Y24571365D01*
X25224975Y24572563D01*
X25224977Y24572563D01*
X25321377Y24594642D01*
X25354233Y24602167D01*
X25414644Y24594642D01*
X25456086Y24550045D01*
X25463101Y24515413D01*
X25463101Y20536044D01*
X25437034Y20473112D01*
X24294442Y19330518D01*
X24210392Y19225232D01*
X24132235Y19063555D01*
X24091838Y18888581D01*
X24091821Y18883597D01*
X24091238Y18716374D01*
X24091212Y18709007D01*
X24092297Y18704154D01*
X24092297Y18704152D01*
X24114473Y18604943D01*
X24130385Y18533755D01*
X24207412Y18371538D01*
X24210490Y18367627D01*
X24315385Y18234328D01*
X24315388Y18234325D01*
X24318464Y18230416D01*
X24322328Y18227287D01*
X24322330Y18227285D01*
X24362862Y18194463D01*
X24458020Y18117405D01*
X24462483Y18115209D01*
X24462486Y18115207D01*
X24480464Y18106361D01*
X24619147Y18038121D01*
X24706490Y18017313D01*
X24788989Y17997659D01*
X24788991Y17997659D01*
X24793834Y17996505D01*
X24912077Y17995266D01*
X24968428Y17994676D01*
X24968429Y17994676D01*
X24973400Y17994624D01*
X25148921Y18032573D01*
X25311673Y18108465D01*
X25422540Y18194463D01*
X26827682Y19599604D01*
X26828344Y19600259D01*
X26884260Y19655016D01*
X26887818Y19658500D01*
X26890514Y19662683D01*
X26890517Y19662687D01*
X26912047Y19696096D01*
X26917302Y19703410D01*
X26942105Y19734480D01*
X26945208Y19738367D01*
X26960607Y19770222D01*
X26965926Y19779701D01*
X26982400Y19805263D01*
X26985096Y19809446D01*
X27000401Y19851496D01*
X27003898Y19859774D01*
X27023365Y19900044D01*
X27031323Y19934515D01*
X27034409Y19944934D01*
X27041330Y19963948D01*
X27046515Y19978193D01*
X27052122Y20022579D01*
X27053700Y20031440D01*
X27062642Y20070173D01*
X27063761Y20075018D01*
X27063899Y20114507D01*
X27063957Y20116266D01*
X27064100Y20117398D01*
X27064100Y20172109D01*
X27064388Y20254593D01*
X27064174Y20255548D01*
X27064100Y20256923D01*
X27064100Y25486770D01*
X28121449Y25486770D01*
X28121659Y25483127D01*
X28121659Y25483126D01*
X28127809Y25376481D01*
X28135647Y25240544D01*
X28189868Y24999944D01*
X28191242Y24996560D01*
X28191243Y24996557D01*
X28280881Y24775805D01*
X28282658Y24771429D01*
X28284564Y24768319D01*
X28404524Y24572563D01*
X28411525Y24561138D01*
X28573007Y24374719D01*
X28575816Y24372387D01*
X28759954Y24219511D01*
X28759957Y24219509D01*
X28762767Y24217176D01*
X28765922Y24215332D01*
X28765924Y24215331D01*
X28875792Y24151130D01*
X28975711Y24092742D01*
X28979122Y24091440D01*
X28979125Y24091438D01*
X29070111Y24056694D01*
X29206118Y24004758D01*
X29447802Y23955587D01*
X29451456Y23955453D01*
X29690615Y23946683D01*
X29690616Y23946683D01*
X29694271Y23946549D01*
X29697891Y23947013D01*
X29697896Y23947013D01*
X29882000Y23970598D01*
X29938907Y23977888D01*
X30175140Y24048761D01*
X30178413Y24050364D01*
X30178417Y24050366D01*
X30291917Y24105969D01*
X30396625Y24157265D01*
X30450643Y24195796D01*
X30594438Y24298364D01*
X30594440Y24298365D01*
X30597414Y24300487D01*
X30772115Y24474580D01*
X30868856Y24609209D01*
X30913900Y24671893D01*
X30913904Y24671899D01*
X30916037Y24674868D01*
X31025314Y24895973D01*
X31034106Y24924909D01*
X31095947Y25128455D01*
X31097011Y25131956D01*
X31129203Y25376481D01*
X31131000Y25450000D01*
X31110791Y25695806D01*
X31050707Y25935010D01*
X31031405Y25979403D01*
X30953821Y26157834D01*
X30953820Y26157836D01*
X30952362Y26161189D01*
X30943619Y26174703D01*
X30820379Y26365203D01*
X30820378Y26365204D01*
X30818396Y26368268D01*
X30652408Y26550687D01*
X30559405Y26624136D01*
X30461719Y26701284D01*
X30461714Y26701287D01*
X30458854Y26703546D01*
X30386911Y26743261D01*
X30246136Y26820974D01*
X30246130Y26820977D01*
X30242934Y26822741D01*
X30239489Y26823961D01*
X30013892Y26903849D01*
X30013889Y26903850D01*
X30010446Y26905069D01*
X30006852Y26905709D01*
X30006849Y26905710D01*
X29925086Y26920274D01*
X29767633Y26948321D01*
X29763987Y26948366D01*
X29763982Y26948366D01*
X29644325Y26949828D01*
X29521017Y26951334D01*
X29277219Y26914028D01*
X29160004Y26875716D01*
X29060513Y26843197D01*
X29042789Y26837404D01*
X29005764Y26818130D01*
X28827259Y26725207D01*
X28827255Y26725205D01*
X28824021Y26723521D01*
X28626791Y26575436D01*
X28456395Y26397127D01*
X28317410Y26193383D01*
X28315873Y26190073D01*
X28315873Y26190072D01*
X28302466Y26161189D01*
X28213568Y25969674D01*
X28212593Y25966158D01*
X28157327Y25766873D01*
X28147658Y25732009D01*
X28147271Y25728384D01*
X28147270Y25728381D01*
X28144345Y25701012D01*
X28121449Y25486770D01*
X27064100Y25486770D01*
X27064100Y29471388D01*
X36632539Y29471388D01*
X36633127Y29466062D01*
X36633127Y29466060D01*
X36648908Y29323118D01*
X36651140Y29302898D01*
X36709395Y29143710D01*
X36803940Y29003012D01*
X36807908Y28999402D01*
X36807910Y28999399D01*
X36916705Y28900403D01*
X36929317Y28888927D01*
X37078288Y28808043D01*
X37242253Y28765027D01*
X37324925Y28763729D01*
X37406377Y28762449D01*
X37406380Y28762449D01*
X37411745Y28762365D01*
X37416975Y28763563D01*
X37416977Y28763563D01*
X37571750Y28799011D01*
X37571751Y28799011D01*
X37576980Y28800209D01*
X37651613Y28837746D01*
X37723627Y28873964D01*
X37723629Y28873966D01*
X37728418Y28876374D01*
X37857316Y28986464D01*
X37956234Y29124123D01*
X38019461Y29281403D01*
X38043345Y29449225D01*
X38043500Y29464000D01*
X38023135Y29632285D01*
X37963217Y29790855D01*
X37900649Y29881892D01*
X37870245Y29926131D01*
X37870241Y29926135D01*
X37867203Y29930556D01*
X37857055Y29939598D01*
X37744645Y30039751D01*
X37740638Y30043321D01*
X37732736Y30047505D01*
X37595572Y30120130D01*
X37595570Y30120131D01*
X37590829Y30122641D01*
X37580435Y30125252D01*
X37491228Y30147659D01*
X37426423Y30163937D01*
X37348865Y30164343D01*
X37262275Y30164796D01*
X37262274Y30164796D01*
X37256912Y30164824D01*
X37092082Y30125252D01*
X36941450Y30047505D01*
X36813711Y29936072D01*
X36716240Y29797385D01*
X36654665Y29639451D01*
X36632539Y29471388D01*
X27064100Y29471388D01*
X27064100Y33020409D01*
X27600264Y33020409D01*
X27600852Y33015083D01*
X27600852Y33015081D01*
X27617724Y32862258D01*
X27618865Y32851919D01*
X27677120Y32692731D01*
X27771665Y32552033D01*
X27775633Y32548423D01*
X27775635Y32548420D01*
X27890935Y32443505D01*
X27897042Y32437948D01*
X28046013Y32357064D01*
X28209978Y32314048D01*
X28292650Y32312750D01*
X28374102Y32311470D01*
X28374105Y32311470D01*
X28379470Y32311386D01*
X28384700Y32312584D01*
X28384702Y32312584D01*
X28539475Y32348032D01*
X28539476Y32348032D01*
X28544705Y32349230D01*
X28626137Y32390186D01*
X28691352Y32422985D01*
X28691354Y32422987D01*
X28696143Y32425395D01*
X28825041Y32535485D01*
X28923959Y32673144D01*
X28987186Y32830424D01*
X28989885Y32849389D01*
X35794538Y32849389D01*
X35795126Y32844063D01*
X35795126Y32844061D01*
X35812325Y32688274D01*
X35813139Y32680899D01*
X35871394Y32521711D01*
X35965939Y32381013D01*
X35969907Y32377403D01*
X35969909Y32377400D01*
X36061760Y32293822D01*
X36091316Y32266928D01*
X36240287Y32186044D01*
X36404252Y32143028D01*
X36486924Y32141730D01*
X36568376Y32140450D01*
X36568379Y32140450D01*
X36573744Y32140366D01*
X36578974Y32141564D01*
X36578976Y32141564D01*
X36733749Y32177012D01*
X36733750Y32177012D01*
X36738979Y32178210D01*
X36841052Y32229547D01*
X36885626Y32251965D01*
X36885628Y32251967D01*
X36890417Y32254375D01*
X37019315Y32364465D01*
X37118233Y32502124D01*
X37181460Y32659404D01*
X37205344Y32827226D01*
X37205392Y32831753D01*
X37205468Y32839091D01*
X37205499Y32842001D01*
X37185134Y33010286D01*
X37125216Y33168856D01*
X37062910Y33259512D01*
X37032244Y33304132D01*
X37032240Y33304136D01*
X37029202Y33308557D01*
X37019577Y33317133D01*
X36906644Y33417752D01*
X36902637Y33421322D01*
X36842810Y33452999D01*
X36757571Y33498131D01*
X36757569Y33498132D01*
X36752828Y33500642D01*
X36742434Y33503253D01*
X36593621Y33540632D01*
X36593622Y33540632D01*
X36588422Y33541938D01*
X36510864Y33542344D01*
X36424274Y33542797D01*
X36424273Y33542797D01*
X36418911Y33542825D01*
X36254081Y33503253D01*
X36103449Y33425506D01*
X35975710Y33314073D01*
X35961059Y33293227D01*
X35882019Y33180764D01*
X35878239Y33175386D01*
X35816664Y33017452D01*
X35794538Y32849389D01*
X28989885Y32849389D01*
X29011070Y32998246D01*
X29011225Y33013021D01*
X28990860Y33181306D01*
X28930942Y33339876D01*
X28872090Y33425506D01*
X28837970Y33475152D01*
X28837966Y33475156D01*
X28834928Y33479577D01*
X28827284Y33486388D01*
X28712370Y33588772D01*
X28708363Y33592342D01*
X28695815Y33598986D01*
X28563297Y33669151D01*
X28563295Y33669152D01*
X28558554Y33671662D01*
X28548160Y33674273D01*
X28399347Y33711652D01*
X28399348Y33711652D01*
X28394148Y33712958D01*
X28316590Y33713364D01*
X28230000Y33713817D01*
X28229999Y33713817D01*
X28224637Y33713845D01*
X28059807Y33674273D01*
X27909175Y33596526D01*
X27781436Y33485093D01*
X27683965Y33346406D01*
X27622390Y33188472D01*
X27600264Y33020409D01*
X27064100Y33020409D01*
X27064100Y33677624D01*
X27064105Y33678556D01*
X27064925Y33756829D01*
X27064925Y33756830D01*
X27064977Y33761801D01*
X27055522Y33805530D01*
X27054068Y33814414D01*
X27049638Y33853909D01*
X27049083Y33858857D01*
X27037445Y33892276D01*
X27034508Y33902726D01*
X27031495Y33916660D01*
X27027028Y33937322D01*
X27010564Y33972629D01*
X27008122Y33977866D01*
X27004734Y33986209D01*
X27004642Y33986475D01*
X26990026Y34028445D01*
X26971278Y34058448D01*
X26966094Y34067996D01*
X26953241Y34095559D01*
X26953238Y34095563D01*
X26951135Y34100074D01*
X26948086Y34104005D01*
X26948084Y34104008D01*
X26934582Y34121414D01*
X26923714Y34135425D01*
X26918574Y34142793D01*
X26894865Y34180735D01*
X26867036Y34208759D01*
X26865830Y34210047D01*
X26865137Y34210941D01*
X26826527Y34249551D01*
X26768328Y34308157D01*
X26767503Y34308681D01*
X26766475Y34309603D01*
X25464568Y35611508D01*
X25438500Y35674441D01*
X25438500Y42970576D01*
X25438223Y42973041D01*
X25438223Y42973050D01*
X25424038Y43099509D01*
X25423483Y43104457D01*
X25364426Y43274045D01*
X25269265Y43426335D01*
X25243633Y43452147D01*
X25189304Y43506855D01*
X25142728Y43553757D01*
X24991107Y43649979D01*
X24984783Y43652231D01*
X24826622Y43708550D01*
X24826617Y43708551D01*
X24821936Y43710218D01*
X24817000Y43710807D01*
X24816998Y43710807D01*
X24648565Y43730891D01*
X24648561Y43730891D01*
X24643622Y43731480D01*
X24542808Y43720884D01*
X24469985Y43713231D01*
X24469982Y43713230D01*
X24465031Y43712710D01*
X24460322Y43711107D01*
X24460318Y43711106D01*
X24360267Y43677045D01*
X24295035Y43654838D01*
X24252631Y43628751D01*
X24146325Y43563352D01*
X24146322Y43563349D01*
X24142085Y43560743D01*
X24087057Y43506855D01*
X24017340Y43438584D01*
X24017337Y43438580D01*
X24013782Y43435099D01*
X24011086Y43430916D01*
X24011083Y43430912D01*
X23919202Y43288340D01*
X23916504Y43284153D01*
X23883219Y43192703D01*
X23856858Y43120276D01*
X23855085Y43115406D01*
X23854462Y43110472D01*
X23839577Y42992639D01*
X23837500Y42976201D01*
X23837500Y42973407D01*
X23837501Y35308776D01*
X23837496Y35307844D01*
X23836624Y35224600D01*
X23837675Y35219741D01*
X23846078Y35180874D01*
X23847533Y35171988D01*
X23852518Y35127543D01*
X23854152Y35122850D01*
X23854154Y35122842D01*
X23864154Y35094128D01*
X23867095Y35083666D01*
X23874573Y35049079D01*
X23893480Y35008533D01*
X23896863Y35000199D01*
X23909936Y34962659D01*
X23909939Y34962652D01*
X23911575Y34957955D01*
X23914211Y34953737D01*
X23914213Y34953732D01*
X23930324Y34927948D01*
X23935508Y34918401D01*
X23939842Y34909108D01*
X23950465Y34886327D01*
X23977884Y34850979D01*
X23983030Y34843602D01*
X24004097Y34809887D01*
X24004101Y34809882D01*
X24006736Y34805665D01*
X24034561Y34777646D01*
X24035771Y34776353D01*
X24036463Y34775460D01*
X24075006Y34736917D01*
X24133272Y34678243D01*
X24134098Y34677718D01*
X24135128Y34676794D01*
X25437033Y33374889D01*
X25463100Y33311956D01*
X25463101Y30039751D01*
X25463101Y26838289D01*
X25442279Y26781081D01*
X25389556Y26750641D01*
X25311168Y26775356D01*
X20329136Y31757388D01*
X23043539Y31757388D01*
X23044127Y31752062D01*
X23044127Y31752060D01*
X23058908Y31618178D01*
X23062140Y31588898D01*
X23120395Y31429710D01*
X23214940Y31289012D01*
X23218908Y31285402D01*
X23218910Y31285399D01*
X23336346Y31178540D01*
X23340317Y31174927D01*
X23489288Y31094043D01*
X23653253Y31051027D01*
X23735925Y31049729D01*
X23817377Y31048449D01*
X23817380Y31048449D01*
X23822745Y31048365D01*
X23827975Y31049563D01*
X23827977Y31049563D01*
X23982750Y31085011D01*
X23982751Y31085011D01*
X23987980Y31086209D01*
X24062613Y31123746D01*
X24134627Y31159964D01*
X24134629Y31159966D01*
X24139418Y31162374D01*
X24268316Y31272464D01*
X24367234Y31410123D01*
X24430461Y31567403D01*
X24436967Y31613116D01*
X24465642Y31666819D01*
X24526477Y31689564D01*
X24546278Y31689253D01*
X24585600Y31688635D01*
X24585603Y31688635D01*
X24590968Y31688551D01*
X24596198Y31689749D01*
X24596200Y31689749D01*
X24750973Y31725197D01*
X24750974Y31725197D01*
X24756203Y31726395D01*
X24832740Y31764889D01*
X24902850Y31800150D01*
X24902852Y31800152D01*
X24907641Y31802560D01*
X25036539Y31912650D01*
X25135457Y32050309D01*
X25198684Y32207589D01*
X25222568Y32375411D01*
X25222723Y32390186D01*
X25202358Y32558471D01*
X25142440Y32717041D01*
X25100486Y32778085D01*
X25049468Y32852317D01*
X25049464Y32852321D01*
X25046426Y32856742D01*
X25036278Y32865784D01*
X24923868Y32965937D01*
X24919861Y32969507D01*
X24915119Y32972018D01*
X24774795Y33046316D01*
X24774793Y33046317D01*
X24770052Y33048827D01*
X24759658Y33051438D01*
X24689726Y33069004D01*
X24605646Y33090123D01*
X24528088Y33090529D01*
X24441498Y33090982D01*
X24441497Y33090982D01*
X24436135Y33091010D01*
X24271305Y33051438D01*
X24120673Y32973691D01*
X23992934Y32862258D01*
X23895463Y32723571D01*
X23833888Y32565637D01*
X23833188Y32560320D01*
X23833186Y32560312D01*
X23828909Y32527827D01*
X23800798Y32473827D01*
X23740206Y32450446D01*
X23673275Y32450796D01*
X23673274Y32450796D01*
X23667912Y32450824D01*
X23662697Y32449572D01*
X23614279Y32437948D01*
X23503082Y32411252D01*
X23352450Y32333505D01*
X23224711Y32222072D01*
X23186023Y32167025D01*
X23150519Y32116507D01*
X23127240Y32083385D01*
X23065665Y31925451D01*
X23043539Y31757388D01*
X20329136Y31757388D01*
X19880567Y32205957D01*
X19854500Y32268890D01*
X19854500Y32882952D01*
X19854578Y32886679D01*
X19856780Y32939217D01*
X19857034Y32945278D01*
X19846700Y32989338D01*
X19845180Y32997542D01*
X19839037Y33042385D01*
X19831756Y33059210D01*
X19826789Y33074230D01*
X19823990Y33086165D01*
X19823990Y33086166D01*
X19822604Y33092074D01*
X19800803Y33131728D01*
X19797126Y33139235D01*
X19779155Y33180764D01*
X19767621Y33195008D01*
X19758799Y33208137D01*
X19752212Y33220117D01*
X19752212Y33220118D01*
X19749965Y33224204D01*
X19741408Y33234117D01*
X19716013Y33259512D01*
X19709780Y33266435D01*
X19688084Y33293227D01*
X19684266Y33297942D01*
X19667255Y33310031D01*
X19655885Y33319640D01*
X19114385Y33861139D01*
X19111804Y33863830D01*
X19076193Y33902557D01*
X19072089Y33907020D01*
X19033637Y33930861D01*
X19026726Y33935611D01*
X18995530Y33959291D01*
X18995527Y33959292D01*
X18990697Y33962959D01*
X18973657Y33969706D01*
X18959523Y33976814D01*
X18943942Y33986475D01*
X18900488Y33999100D01*
X18892557Y34001816D01*
X18856150Y34016230D01*
X18850505Y34018465D01*
X18844469Y34019099D01*
X18844467Y34019100D01*
X18832278Y34020381D01*
X18816756Y34023426D01*
X18813878Y34024262D01*
X18779499Y34043278D01*
X18766622Y34054751D01*
X18762615Y34058321D01*
X18750067Y34064965D01*
X18617549Y34135130D01*
X18617547Y34135131D01*
X18612806Y34137641D01*
X18607480Y34138979D01*
X18453599Y34177631D01*
X18453600Y34177631D01*
X18448400Y34178937D01*
X18370842Y34179343D01*
X18284252Y34179796D01*
X18284251Y34179796D01*
X18278889Y34179824D01*
X18114059Y34140252D01*
X17963427Y34062505D01*
X17835688Y33951072D01*
X17805346Y33907900D01*
X17767401Y33853909D01*
X17738217Y33812385D01*
X17676642Y33654451D01*
X17654516Y33486388D01*
X16044500Y33486388D01*
X16044500Y39245100D01*
X16070568Y39308033D01*
X16823719Y40061183D01*
X16866781Y40085004D01*
X17002980Y40116198D01*
X17133058Y40181620D01*
X17149627Y40189953D01*
X17149629Y40189955D01*
X17154418Y40192363D01*
X17283316Y40302453D01*
X17382234Y40440112D01*
X17445461Y40597392D01*
X17469345Y40765214D01*
X17469500Y40779989D01*
X17449135Y40948274D01*
X17447239Y40953291D01*
X17447237Y40953300D01*
X17445071Y40959032D01*
X17444329Y41019907D01*
X17482890Y41067017D01*
X17528326Y41079489D01*
X18019202Y41079489D01*
X18076410Y41058667D01*
X18107664Y41000258D01*
X18108550Y40992237D01*
X18108551Y40992232D01*
X18109140Y40986898D01*
X18167395Y40827710D01*
X18261940Y40687012D01*
X18265908Y40683402D01*
X18265910Y40683399D01*
X18382333Y40577462D01*
X18387317Y40572927D01*
X18536288Y40492043D01*
X18700253Y40449027D01*
X18782925Y40447729D01*
X18864377Y40446449D01*
X18864380Y40446449D01*
X18869745Y40446365D01*
X18874975Y40447563D01*
X18874977Y40447563D01*
X19029750Y40483011D01*
X19029751Y40483011D01*
X19034980Y40484209D01*
X19132257Y40533134D01*
X19181627Y40557964D01*
X19181629Y40557966D01*
X19186418Y40560374D01*
X19315316Y40670464D01*
X19414234Y40808123D01*
X19477461Y40965403D01*
X19501345Y41133225D01*
X19501500Y41148000D01*
X19481135Y41316285D01*
X19421217Y41474855D01*
X19355630Y41570285D01*
X19328245Y41610131D01*
X19328241Y41610135D01*
X19325203Y41614556D01*
X19314550Y41624048D01*
X19285686Y41677650D01*
X19298031Y41737265D01*
X19373754Y41779499D01*
X19889112Y41779499D01*
X19952045Y41753431D01*
X20364423Y41341052D01*
X20389953Y41287886D01*
X20395140Y41240898D01*
X20453395Y41081710D01*
X20547940Y40941012D01*
X20551908Y40937402D01*
X20551910Y40937399D01*
X20666914Y40832753D01*
X20673317Y40826927D01*
X20822288Y40746043D01*
X20986253Y40703027D01*
X21068925Y40701729D01*
X21150377Y40700449D01*
X21150380Y40700449D01*
X21155745Y40700365D01*
X21160975Y40701563D01*
X21160977Y40701563D01*
X21315750Y40737011D01*
X21315751Y40737011D01*
X21320980Y40738209D01*
X21409799Y40782880D01*
X21467627Y40811964D01*
X21467629Y40811966D01*
X21472418Y40814374D01*
X21601316Y40924464D01*
X21700234Y41062123D01*
X21763461Y41219403D01*
X21787345Y41387225D01*
X21787500Y41402000D01*
X21767135Y41570285D01*
X21707217Y41728855D01*
X21654740Y41805209D01*
X21614245Y41864131D01*
X21614241Y41864135D01*
X21611203Y41868556D01*
X21595570Y41882485D01*
X21488645Y41977751D01*
X21484638Y41981321D01*
X21469408Y41989385D01*
X21339572Y42058130D01*
X21339570Y42058131D01*
X21334829Y42060641D01*
X21308195Y42067331D01*
X21181145Y42099244D01*
X21139894Y42122630D01*
X20550373Y42712151D01*
X20547793Y42714842D01*
X20512194Y42753556D01*
X20508090Y42758019D01*
X20469638Y42781860D01*
X20462727Y42786610D01*
X20431531Y42810290D01*
X20431528Y42810291D01*
X20426698Y42813958D01*
X20409658Y42820705D01*
X20395524Y42827813D01*
X20379943Y42837474D01*
X20341638Y42848603D01*
X20336489Y42850099D01*
X20328558Y42852815D01*
X20292151Y42867229D01*
X20286506Y42869464D01*
X20280470Y42870098D01*
X20280468Y42870099D01*
X20268279Y42871380D01*
X20252757Y42874425D01*
X20243125Y42877223D01*
X20242194Y42877494D01*
X20193066Y42913446D01*
X20178541Y42972568D01*
X20194744Y43014893D01*
X20273234Y43124123D01*
X20336461Y43281403D01*
X20360345Y43449225D01*
X20360500Y43464000D01*
X20340135Y43632285D01*
X20280217Y43790855D01*
X20231063Y43862374D01*
X20187245Y43926131D01*
X20187241Y43926135D01*
X20184203Y43930556D01*
X20122649Y43985399D01*
X20061645Y44039751D01*
X20057638Y44043321D01*
X20014890Y44065955D01*
X19912572Y44120130D01*
X19912570Y44120131D01*
X19907829Y44122641D01*
X19902626Y44123948D01*
X19754145Y44161244D01*
X19712894Y44184630D01*
X19065372Y44832152D01*
X19062792Y44834843D01*
X19027193Y44873557D01*
X19023089Y44878020D01*
X18984637Y44901861D01*
X18977726Y44906611D01*
X18946530Y44930291D01*
X18946527Y44930292D01*
X18941697Y44933959D01*
X18924657Y44940706D01*
X18910523Y44947814D01*
X18894942Y44957475D01*
X18851488Y44970100D01*
X18843557Y44972816D01*
X18807150Y44987230D01*
X18801505Y44989465D01*
X18795469Y44990099D01*
X18795467Y44990100D01*
X18783278Y44991381D01*
X18767759Y44994425D01*
X18750149Y44999541D01*
X18745502Y44999882D01*
X18745498Y44999883D01*
X18739270Y45000340D01*
X18737089Y45000500D01*
X18701169Y45000500D01*
X18691866Y45000988D01*
X18657587Y45004591D01*
X18657585Y45004591D01*
X18651552Y45005225D01*
X18645575Y45004214D01*
X18645572Y45004214D01*
X18630983Y45001746D01*
X18616141Y45000500D01*
X12152883Y45000500D01*
X12093680Y45023047D01*
X12090645Y45025751D01*
X12090644Y45025751D01*
X12086638Y45029321D01*
X12074090Y45035965D01*
X11941572Y45106130D01*
X11941570Y45106131D01*
X11936829Y45108641D01*
X11926435Y45111252D01*
X11777622Y45148631D01*
X11777623Y45148631D01*
X11772423Y45149937D01*
X11694865Y45150343D01*
X11608275Y45150796D01*
X11608274Y45150796D01*
X11602912Y45150824D01*
X11438082Y45111252D01*
X11287450Y45033505D01*
X11159711Y44922072D01*
X11062240Y44783385D01*
X11000665Y44625451D01*
X10978539Y44457388D01*
X10979127Y44452062D01*
X10979127Y44452060D01*
X10987627Y44375072D01*
X10997140Y44288898D01*
X11055395Y44129710D01*
X11149940Y43989012D01*
X11153908Y43985402D01*
X11153910Y43985399D01*
X11271346Y43878540D01*
X11275317Y43874927D01*
X11424288Y43794043D01*
X11588253Y43751027D01*
X11670925Y43749729D01*
X11752377Y43748449D01*
X11752380Y43748449D01*
X11757745Y43748365D01*
X11762975Y43749563D01*
X11762977Y43749563D01*
X11917750Y43785011D01*
X11917751Y43785011D01*
X11922980Y43786209D01*
X12027230Y43838641D01*
X12069627Y43859964D01*
X12069629Y43859966D01*
X12074418Y43862374D01*
X12078500Y43865860D01*
X12092921Y43878176D01*
X12150721Y43899500D01*
X12856935Y43899500D01*
X12914143Y43878678D01*
X12944583Y43825955D01*
X12915441Y43743433D01*
X12810711Y43652072D01*
X12776574Y43603500D01*
X12716325Y43517774D01*
X12713240Y43513385D01*
X12651665Y43355451D01*
X12629539Y43187388D01*
X12630127Y43182062D01*
X12630127Y43182060D01*
X12645749Y43040560D01*
X12648140Y43018898D01*
X12706395Y42859710D01*
X12800940Y42719012D01*
X12804908Y42715402D01*
X12804910Y42715399D01*
X12835940Y42687164D01*
X12926317Y42604927D01*
X13075288Y42524043D01*
X13239253Y42481027D01*
X13321925Y42479729D01*
X13403377Y42478449D01*
X13403380Y42478449D01*
X13408745Y42478365D01*
X13413975Y42479563D01*
X13413977Y42479563D01*
X13568750Y42515011D01*
X13568751Y42515011D01*
X13573980Y42516209D01*
X13717515Y42588399D01*
X13720627Y42589964D01*
X13720629Y42589966D01*
X13725418Y42592374D01*
X13854316Y42702464D01*
X13953234Y42840123D01*
X13955236Y42845103D01*
X13955943Y42846389D01*
X14001751Y42886488D01*
X14062617Y42887761D01*
X14107804Y42853149D01*
X14197940Y42719012D01*
X14201908Y42715402D01*
X14201910Y42715399D01*
X14232940Y42687164D01*
X14323317Y42604927D01*
X14472288Y42524043D01*
X14636253Y42481027D01*
X14718925Y42479729D01*
X14800377Y42478449D01*
X14800380Y42478449D01*
X14805745Y42478365D01*
X14810975Y42479563D01*
X14810977Y42479563D01*
X14844194Y42487171D01*
X14904606Y42479646D01*
X14946048Y42435049D01*
X14949129Y42374247D01*
X14926996Y42337484D01*
X13486849Y40897337D01*
X13484158Y40894757D01*
X13459743Y40872306D01*
X13440981Y40855054D01*
X13437783Y40849897D01*
X13437782Y40849895D01*
X13417143Y40816608D01*
X13412394Y40809698D01*
X13388715Y40778502D01*
X13388713Y40778498D01*
X13385042Y40773662D01*
X13378294Y40756619D01*
X13371187Y40742488D01*
X13361526Y40726906D01*
X13359835Y40721084D01*
X13359834Y40721083D01*
X13348905Y40683465D01*
X13346189Y40675533D01*
X13331770Y40639115D01*
X13331768Y40639109D01*
X13329536Y40633470D01*
X13328045Y40619282D01*
X13327620Y40615242D01*
X13324576Y40599723D01*
X13319460Y40582113D01*
X13319119Y40577466D01*
X13319118Y40577462D01*
X13318785Y40572927D01*
X13318501Y40569053D01*
X13318501Y40533134D01*
X13318013Y40523831D01*
X13313776Y40483517D01*
X13314787Y40477540D01*
X13314787Y40477537D01*
X13317255Y40462948D01*
X13318501Y40448106D01*
X13318501Y35984656D01*
X13297679Y35927448D01*
X13244956Y35897008D01*
X13185001Y35907580D01*
X13154025Y35937493D01*
X13126524Y35981504D01*
X13126196Y35982032D01*
X13107913Y36011750D01*
X13080743Y36055915D01*
X13078764Y36057936D01*
X13077265Y36060335D01*
X13073762Y36063863D01*
X13073756Y36063870D01*
X13016171Y36121858D01*
X13015735Y36122300D01*
X12958581Y36180664D01*
X12958578Y36180667D01*
X12955100Y36184218D01*
X12952718Y36185753D01*
X12950728Y36187757D01*
X12877630Y36234147D01*
X12877152Y36234453D01*
X12808341Y36278799D01*
X12808332Y36278803D01*
X12804154Y36281496D01*
X12801494Y36282464D01*
X12799107Y36283979D01*
X12717571Y36313013D01*
X12716987Y36313223D01*
X12640083Y36341213D01*
X12640084Y36341213D01*
X12635407Y36342915D01*
X12632599Y36343270D01*
X12629936Y36344218D01*
X12543821Y36354486D01*
X12543307Y36354549D01*
X12496202Y36360500D01*
X12494153Y36360500D01*
X12490919Y36360794D01*
X12464262Y36363973D01*
X12456563Y36364891D01*
X12456562Y36364891D01*
X12451622Y36365480D01*
X12410233Y36361130D01*
X12408882Y36360988D01*
X12399579Y36360500D01*
X12306443Y36360500D01*
X12243511Y36386567D01*
X10583372Y38046705D01*
X10557643Y38101881D01*
X10576748Y38165163D01*
X10584504Y38174879D01*
X10587608Y38178767D01*
X10591416Y38186643D01*
X10603009Y38210625D01*
X10608326Y38220100D01*
X10617648Y38234565D01*
X10627496Y38249846D01*
X10642800Y38291893D01*
X10646297Y38300171D01*
X10665765Y38340443D01*
X10666883Y38345288D01*
X10666885Y38345292D01*
X10673723Y38374913D01*
X10676809Y38385332D01*
X10687215Y38413922D01*
X10687215Y38413923D01*
X10688915Y38418593D01*
X10694522Y38462979D01*
X10696100Y38471840D01*
X10703392Y38503424D01*
X10706161Y38515418D01*
X10706299Y38554907D01*
X10706357Y38556666D01*
X10706500Y38557798D01*
X10706500Y38612509D01*
X10706788Y38694993D01*
X10706574Y38695948D01*
X10706500Y38697323D01*
X10706500Y40662182D01*
X10890539Y40662182D01*
X10891127Y40656856D01*
X10891127Y40656854D01*
X10905813Y40523831D01*
X10909140Y40493692D01*
X10967395Y40334504D01*
X11061940Y40193806D01*
X11065908Y40190196D01*
X11065910Y40190193D01*
X11148545Y40115001D01*
X11187317Y40079721D01*
X11336288Y39998837D01*
X11500253Y39955821D01*
X11582925Y39954523D01*
X11664377Y39953243D01*
X11664380Y39953243D01*
X11669745Y39953159D01*
X11674975Y39954357D01*
X11674977Y39954357D01*
X11829750Y39989805D01*
X11829751Y39989805D01*
X11834980Y39991003D01*
X11909613Y40028540D01*
X11981627Y40064758D01*
X11981629Y40064760D01*
X11986418Y40067168D01*
X12115316Y40177258D01*
X12214234Y40314917D01*
X12277461Y40472197D01*
X12301345Y40640019D01*
X12301500Y40654794D01*
X12281135Y40823079D01*
X12221217Y40981649D01*
X12162484Y41067106D01*
X12128245Y41116925D01*
X12128241Y41116929D01*
X12125203Y41121350D01*
X12115055Y41130392D01*
X12002645Y41230545D01*
X11998638Y41234115D01*
X11986090Y41240759D01*
X11853572Y41310924D01*
X11853570Y41310925D01*
X11848829Y41313435D01*
X11838435Y41316046D01*
X11689622Y41353425D01*
X11689623Y41353425D01*
X11684423Y41354731D01*
X11606865Y41355137D01*
X11520275Y41355590D01*
X11520274Y41355590D01*
X11514912Y41355618D01*
X11350082Y41316046D01*
X11199450Y41238299D01*
X11071711Y41126866D01*
X11043519Y41086753D01*
X10978768Y40994621D01*
X10974240Y40988179D01*
X10912665Y40830245D01*
X10890539Y40662182D01*
X10706500Y40662182D01*
X10706500Y45097558D01*
X10732568Y45160491D01*
X12751511Y47179433D01*
X12814443Y47205500D01*
X35191558Y47205500D01*
X35254491Y47179432D01*
X38678490Y43755432D01*
X38704218Y43700257D01*
X38688462Y43641452D01*
X38615557Y43603500D01*
X35055456Y43603500D01*
X34998248Y43624322D01*
X34967808Y43677045D01*
X34969487Y43715493D01*
X34971461Y43720403D01*
X34972964Y43730959D01*
X34993915Y43878176D01*
X34995345Y43888225D01*
X34995500Y43903000D01*
X34975135Y44071285D01*
X34915217Y44229855D01*
X34870973Y44294230D01*
X34822245Y44365131D01*
X34822241Y44365135D01*
X34819203Y44369556D01*
X34809055Y44378598D01*
X34696645Y44478751D01*
X34692638Y44482321D01*
X34680090Y44488965D01*
X34547572Y44559130D01*
X34547570Y44559131D01*
X34542829Y44561641D01*
X34532435Y44564252D01*
X34383622Y44601631D01*
X34383623Y44601631D01*
X34378423Y44602937D01*
X34300865Y44603343D01*
X34214275Y44603796D01*
X34214274Y44603796D01*
X34208912Y44603824D01*
X34044082Y44564252D01*
X33893450Y44486505D01*
X33765711Y44375072D01*
X33668240Y44236385D01*
X33606665Y44078451D01*
X33584539Y43910388D01*
X33585127Y43905062D01*
X33585127Y43905060D01*
X33602417Y43748449D01*
X33603140Y43741898D01*
X33609061Y43725719D01*
X33610025Y43723085D01*
X33610130Y43662205D01*
X33571079Y43615501D01*
X33526445Y43603500D01*
X32218883Y43603500D01*
X32159680Y43626047D01*
X32156645Y43628751D01*
X32156644Y43628751D01*
X32152638Y43632321D01*
X32135393Y43641452D01*
X32007572Y43709130D01*
X32007570Y43709131D01*
X32002829Y43711641D01*
X31992435Y43714252D01*
X31876260Y43743433D01*
X31838423Y43752937D01*
X31760865Y43753343D01*
X31674275Y43753796D01*
X31674274Y43753796D01*
X31668912Y43753824D01*
X31504082Y43714252D01*
X31353450Y43636505D01*
X31225711Y43525072D01*
X31212908Y43506855D01*
X31170372Y43446332D01*
X31128240Y43386385D01*
X31066665Y43228451D01*
X31044539Y43060388D01*
X31045127Y43055062D01*
X31045127Y43055060D01*
X31062100Y42901321D01*
X31063140Y42891898D01*
X31121395Y42732710D01*
X31215940Y42592012D01*
X31219908Y42588402D01*
X31219910Y42588399D01*
X31337346Y42481540D01*
X31341317Y42477927D01*
X31490288Y42397043D01*
X31654253Y42354027D01*
X31736925Y42352729D01*
X31818377Y42351449D01*
X31818380Y42351449D01*
X31823745Y42351365D01*
X31828975Y42352563D01*
X31828977Y42352563D01*
X31983750Y42388011D01*
X31983751Y42388011D01*
X31988980Y42389209D01*
X32080123Y42435049D01*
X32135627Y42462964D01*
X32135629Y42462966D01*
X32140418Y42465374D01*
X32144500Y42468860D01*
X32158921Y42481176D01*
X32216721Y42502500D01*
X34317738Y42502500D01*
X34374946Y42481678D01*
X34405386Y42428955D01*
X34394814Y42369000D01*
X34338514Y42326959D01*
X34303299Y42318505D01*
X34303295Y42318504D01*
X34298082Y42317252D01*
X34147450Y42239505D01*
X34019711Y42128072D01*
X33922240Y41989385D01*
X33917704Y41977751D01*
X33876517Y41872109D01*
X33860665Y41831451D01*
X33859966Y41826141D01*
X33859259Y41823388D01*
X33824863Y41773156D01*
X33766226Y41756785D01*
X33710785Y41781936D01*
X33689802Y41814062D01*
X33645217Y41932055D01*
X33602800Y41993772D01*
X33552245Y42067331D01*
X33552241Y42067335D01*
X33549203Y42071756D01*
X33539055Y42080798D01*
X33426645Y42180951D01*
X33422638Y42184521D01*
X33410090Y42191165D01*
X33277572Y42261330D01*
X33277570Y42261331D01*
X33272829Y42263841D01*
X33262435Y42266452D01*
X33113622Y42303831D01*
X33113623Y42303831D01*
X33108423Y42305137D01*
X33030865Y42305543D01*
X32944275Y42305996D01*
X32944274Y42305996D01*
X32938912Y42306024D01*
X32774082Y42266452D01*
X32623450Y42188705D01*
X32495711Y42077272D01*
X32484941Y42061948D01*
X32429354Y41982855D01*
X32398240Y41938585D01*
X32336665Y41780651D01*
X32314539Y41612588D01*
X32315127Y41607262D01*
X32315127Y41607260D01*
X32330455Y41468423D01*
X32333140Y41444098D01*
X32391395Y41284910D01*
X32394390Y41280453D01*
X32454371Y41191191D01*
X32469500Y41141552D01*
X32469501Y38618072D01*
X32469423Y38614345D01*
X32466966Y38555723D01*
X32477301Y38511655D01*
X32478822Y38503454D01*
X32484964Y38458615D01*
X32487372Y38453051D01*
X32487373Y38453046D01*
X32492244Y38441789D01*
X32497209Y38426776D01*
X32501396Y38408927D01*
X32522225Y38371040D01*
X32523191Y38369282D01*
X32526880Y38361752D01*
X32538040Y38335963D01*
X32544846Y38320236D01*
X32548664Y38315521D01*
X32548666Y38315518D01*
X32556379Y38305993D01*
X32565203Y38292862D01*
X32574035Y38276797D01*
X32582592Y38266884D01*
X32607988Y38241488D01*
X32614221Y38234565D01*
X32639735Y38203058D01*
X32644681Y38199543D01*
X32644682Y38199542D01*
X32656736Y38190976D01*
X32668113Y38181363D01*
X39301433Y31548043D01*
X39327500Y31485110D01*
X39327500Y26638298D01*
X39306678Y26581090D01*
X39253955Y26550650D01*
X39194000Y26561222D01*
X39165156Y26587884D01*
X39137203Y26628556D01*
X39127055Y26637598D01*
X39014645Y26737751D01*
X39010638Y26741321D01*
X38993036Y26750641D01*
X38865572Y26818130D01*
X38865570Y26818131D01*
X38860829Y26820641D01*
X38850435Y26823252D01*
X38701622Y26860631D01*
X38701623Y26860631D01*
X38696423Y26861937D01*
X38618865Y26862343D01*
X38532275Y26862796D01*
X38532274Y26862796D01*
X38526912Y26862824D01*
X38362082Y26823252D01*
X38211450Y26745505D01*
X38083711Y26634072D01*
X37986240Y26495385D01*
X37924665Y26337451D01*
X37902539Y26169388D01*
X37903127Y26164062D01*
X37903127Y26164060D01*
X37914822Y26058130D01*
X37921140Y26000898D01*
X37979395Y25841710D01*
X38073940Y25701012D01*
X38077908Y25697402D01*
X38077910Y25697399D01*
X38195346Y25590540D01*
X38199317Y25586927D01*
X38348288Y25506043D01*
X38512253Y25463027D01*
X38594925Y25461729D01*
X38676377Y25460449D01*
X38676380Y25460449D01*
X38681745Y25460365D01*
X38686975Y25461563D01*
X38686977Y25461563D01*
X38841750Y25497011D01*
X38841751Y25497011D01*
X38846980Y25498209D01*
X38957863Y25553977D01*
X38993627Y25571964D01*
X38993629Y25571966D01*
X38998418Y25574374D01*
X39127316Y25684464D01*
X39166227Y25738614D01*
X39216517Y25772919D01*
X39277095Y25766873D01*
X39319615Y25723302D01*
X39327500Y25686677D01*
X39327501Y13066491D01*
X39301434Y13003558D01*
X37034443Y10736567D01*
X36971510Y10710500D01*
X15099283Y10710500D01*
X15040080Y10733047D01*
X15037045Y10735751D01*
X15037044Y10735751D01*
X15033038Y10739321D01*
X15020490Y10745965D01*
X14887972Y10816130D01*
X14887970Y10816131D01*
X14883229Y10818641D01*
X14872835Y10821252D01*
X14724022Y10858631D01*
X14724023Y10858631D01*
X14718823Y10859937D01*
X14641265Y10860343D01*
X14554675Y10860796D01*
X14554674Y10860796D01*
X14549312Y10860824D01*
X14384482Y10821252D01*
X14233850Y10743505D01*
X14106111Y10632072D01*
X14008640Y10493385D01*
X13947065Y10335451D01*
X13924939Y10167388D01*
X13943540Y9998898D01*
X14001795Y9839710D01*
X14096340Y9699012D01*
X14100308Y9695402D01*
X14100310Y9695399D01*
X14217746Y9588540D01*
X14221717Y9584927D01*
X14226431Y9582367D01*
X14226436Y9582364D01*
X14227702Y9581677D01*
X14228208Y9581105D01*
X14230807Y9579258D01*
X14230377Y9578653D01*
X14268043Y9536082D01*
X14269637Y9475223D01*
X14235263Y9429853D01*
X14234469Y9429314D01*
X14229702Y9426853D01*
X14101963Y9315420D01*
X14004492Y9176733D01*
X13942917Y9018799D01*
X13920791Y8850736D01*
X13921379Y8845410D01*
X13921379Y8845408D01*
X13938300Y8692139D01*
X13939392Y8682246D01*
X13997647Y8523058D01*
X14092192Y8382360D01*
X14096160Y8378750D01*
X14096162Y8378747D01*
X14213598Y8271888D01*
X14217569Y8268275D01*
X14222287Y8265714D01*
X14222286Y8265714D01*
X14279508Y8234645D01*
X14319848Y8189049D01*
X14321442Y8128190D01*
X14299977Y8093502D01*
X14038118Y7831642D01*
X13995964Y7808035D01*
X13851082Y7773252D01*
X13700450Y7695505D01*
X13572711Y7584072D01*
X13475240Y7445385D01*
X13413665Y7287451D01*
X13391539Y7119388D01*
X13392127Y7114062D01*
X13392127Y7114060D01*
X13404953Y6997885D01*
X13410140Y6950898D01*
X13468395Y6791710D01*
X13562940Y6651012D01*
X13566908Y6647402D01*
X13566910Y6647399D01*
X13684346Y6540540D01*
X13688317Y6536927D01*
X13837288Y6456043D01*
X14001253Y6413027D01*
X14083925Y6411729D01*
X14165377Y6410449D01*
X14165380Y6410449D01*
X14170745Y6410365D01*
X14175975Y6411563D01*
X14175977Y6411563D01*
X14330750Y6447011D01*
X14330751Y6447011D01*
X14335980Y6448209D01*
X14474379Y6517816D01*
X14482627Y6521964D01*
X14482629Y6521966D01*
X14487418Y6524374D01*
X14616316Y6634464D01*
X14715234Y6772123D01*
X14778461Y6929403D01*
X14788470Y6999734D01*
X14813650Y7050126D01*
X15901199Y8137674D01*
X15964131Y8163741D01*
X19235351Y8163741D01*
X19292559Y8142919D01*
X19322999Y8090196D01*
X19298284Y8011808D01*
X19118119Y7831643D01*
X19075963Y7808035D01*
X18938509Y7775035D01*
X18931082Y7773252D01*
X18780450Y7695505D01*
X18652711Y7584072D01*
X18555240Y7445385D01*
X18493665Y7287451D01*
X18471539Y7119388D01*
X18472127Y7114062D01*
X18472127Y7114060D01*
X18484953Y6997885D01*
X18490140Y6950898D01*
X18548395Y6791710D01*
X18642940Y6651012D01*
X18646908Y6647402D01*
X18646910Y6647399D01*
X18764346Y6540540D01*
X18768317Y6536927D01*
X18917288Y6456043D01*
X19081253Y6413027D01*
X19163925Y6411729D01*
X19245377Y6410449D01*
X19245380Y6410449D01*
X19250745Y6410365D01*
X19255975Y6411563D01*
X19255977Y6411563D01*
X19410750Y6447011D01*
X19410751Y6447011D01*
X19415980Y6448209D01*
X19554379Y6517816D01*
X19562627Y6521964D01*
X19562629Y6521966D01*
X19567418Y6524374D01*
X19696316Y6634464D01*
X19795234Y6772123D01*
X19858461Y6929403D01*
X19868470Y6999731D01*
X19893649Y7050124D01*
X20267958Y7424433D01*
X20330891Y7450500D01*
X20892965Y7450500D01*
X20950173Y7429678D01*
X20980613Y7376955D01*
X20975886Y7329172D01*
X20957655Y7282411D01*
X20957653Y7282405D01*
X20955706Y7277410D01*
X20933580Y7109347D01*
X20934168Y7104021D01*
X20934168Y7104019D01*
X20950484Y6956231D01*
X20952181Y6940857D01*
X21010436Y6781669D01*
X21104981Y6640971D01*
X21108949Y6637361D01*
X21108951Y6637358D01*
X21226387Y6530499D01*
X21230358Y6526886D01*
X21379329Y6446002D01*
X21543294Y6402986D01*
X21625966Y6401688D01*
X21707418Y6400408D01*
X21707421Y6400408D01*
X21712786Y6400324D01*
X21718016Y6401522D01*
X21718018Y6401522D01*
X21872791Y6436970D01*
X21872792Y6436970D01*
X21878021Y6438168D01*
X21952654Y6475705D01*
X22024668Y6511923D01*
X22024670Y6511925D01*
X22029459Y6514333D01*
X22158357Y6624423D01*
X22257275Y6762082D01*
X22295887Y6858131D01*
X22336544Y6903444D01*
X22396817Y6912022D01*
X22462043Y6855521D01*
X22483549Y6796753D01*
X22483551Y6796749D01*
X22485395Y6791710D01*
X22579940Y6651012D01*
X22583908Y6647402D01*
X22583910Y6647399D01*
X22701346Y6540540D01*
X22705317Y6536927D01*
X22854288Y6456043D01*
X23018253Y6413027D01*
X23100925Y6411729D01*
X23182377Y6410449D01*
X23182380Y6410449D01*
X23187745Y6410365D01*
X23192975Y6411563D01*
X23192977Y6411563D01*
X23347750Y6447011D01*
X23347751Y6447011D01*
X23352980Y6448209D01*
X23491379Y6517816D01*
X23499627Y6521964D01*
X23499629Y6521966D01*
X23504418Y6524374D01*
X23633316Y6634464D01*
X23732234Y6772123D01*
X23795461Y6929403D01*
X23819345Y7097225D01*
X23819500Y7112000D01*
X23799135Y7280285D01*
X23780334Y7330041D01*
X23779591Y7390916D01*
X23818151Y7438027D01*
X23863589Y7450500D01*
X34406111Y7450500D01*
X34469044Y7424432D01*
X34842423Y7051052D01*
X34867953Y6997886D01*
X34873140Y6950898D01*
X34931395Y6791710D01*
X35025940Y6651012D01*
X35029908Y6647402D01*
X35029910Y6647399D01*
X35147346Y6540540D01*
X35151317Y6536927D01*
X35300288Y6456043D01*
X35464253Y6413027D01*
X35546925Y6411729D01*
X35628377Y6410449D01*
X35628380Y6410449D01*
X35633745Y6410365D01*
X35638975Y6411563D01*
X35638977Y6411563D01*
X35793750Y6447011D01*
X35793751Y6447011D01*
X35798980Y6448209D01*
X35937379Y6517816D01*
X35945627Y6521964D01*
X35945629Y6521966D01*
X35950418Y6524374D01*
X36079316Y6634464D01*
X36178234Y6772123D01*
X36241461Y6929403D01*
X36265345Y7097225D01*
X36265500Y7112000D01*
X36245135Y7280285D01*
X36185217Y7438855D01*
X36145874Y7496100D01*
X36092245Y7574131D01*
X36092241Y7574135D01*
X36089203Y7578556D01*
X36079055Y7587598D01*
X35966645Y7687751D01*
X35962638Y7691321D01*
X35950090Y7697965D01*
X35817572Y7768130D01*
X35817570Y7768131D01*
X35812829Y7770641D01*
X35807626Y7771948D01*
X35659145Y7809244D01*
X35617894Y7832630D01*
X35438716Y8011808D01*
X35412988Y8066984D01*
X35428744Y8125789D01*
X35501649Y8163741D01*
X37535665Y8163741D01*
X37595562Y8140569D01*
X37621391Y8117066D01*
X37770362Y8036182D01*
X37934327Y7993166D01*
X38016999Y7991868D01*
X38098451Y7990588D01*
X38098454Y7990588D01*
X38103819Y7990504D01*
X38109049Y7991702D01*
X38109051Y7991702D01*
X38263824Y8027150D01*
X38263825Y8027150D01*
X38269054Y8028348D01*
X38392026Y8090196D01*
X38415701Y8102103D01*
X38415703Y8102105D01*
X38420492Y8104513D01*
X38549390Y8214603D01*
X38648308Y8352262D01*
X38711535Y8509542D01*
X38735419Y8677364D01*
X38735574Y8692139D01*
X38715209Y8860424D01*
X38655291Y9018994D01*
X38615948Y9076239D01*
X38562319Y9154270D01*
X38562315Y9154274D01*
X38559277Y9158695D01*
X38432712Y9271460D01*
X38415808Y9280410D01*
X38374993Y9325582D01*
X38372764Y9386421D01*
X38394522Y9421998D01*
X48661569Y19689044D01*
X48716745Y19714772D01*
X48775550Y19699016D01*
X48813502Y19626111D01*
X48813502Y17724445D01*
X48787435Y17661513D01*
X45697476Y14571552D01*
X45697465Y14571542D01*
X45697459Y14571537D01*
X38813675Y7687751D01*
X36524492Y5398568D01*
X36461559Y5372500D01*
X29419424Y5372500D01*
X29416959Y5372223D01*
X29416950Y5372223D01*
X29290794Y5358072D01*
X29285543Y5357483D01*
X29115955Y5298426D01*
X28963665Y5203265D01*
X28836243Y5076729D01*
X28740021Y4925108D01*
X28738352Y4920421D01*
X28681450Y4760623D01*
X28681449Y4760618D01*
X28679782Y4755937D01*
X28658520Y4577623D01*
X28677290Y4399031D01*
X28735162Y4229035D01*
X28737769Y4224798D01*
X28826648Y4080325D01*
X28826651Y4080322D01*
X28829257Y4076085D01*
X28954900Y3947782D01*
X28959083Y3945086D01*
X28959087Y3945083D01*
X29101659Y3853202D01*
X29101661Y3853201D01*
X29105846Y3850504D01*
X29274593Y3789085D01*
X29332378Y3781785D01*
X29411024Y3771850D01*
X29411031Y3771850D01*
X29413798Y3771500D01*
X36827319Y3771500D01*
X36828251Y3771495D01*
X36906428Y3770676D01*
X36906429Y3770676D01*
X36911400Y3770624D01*
X36955116Y3780076D01*
X36964004Y3781531D01*
X37003512Y3785962D01*
X37003515Y3785963D01*
X37008457Y3786517D01*
X37013150Y3788151D01*
X37013153Y3788152D01*
X37041883Y3798157D01*
X37052344Y3801097D01*
X37061991Y3803183D01*
X37086921Y3808573D01*
X37127458Y3827476D01*
X37135795Y3830861D01*
X37178045Y3845574D01*
X37208060Y3864329D01*
X37217604Y3869511D01*
X37249673Y3884465D01*
X37285015Y3911879D01*
X37292401Y3917031D01*
X37326113Y3938097D01*
X37330335Y3940735D01*
X37334714Y3945083D01*
X37358365Y3968569D01*
X37359654Y3969775D01*
X37360540Y3970463D01*
X37398936Y4008859D01*
X37457757Y4067271D01*
X37458282Y4068099D01*
X37459209Y4069132D01*
X46825558Y13435480D01*
X46825576Y13435499D01*
X50178084Y16788006D01*
X50178746Y16788661D01*
X50201570Y16811012D01*
X50238219Y16846901D01*
X50239013Y16848132D01*
X50290321Y16878721D01*
X50350418Y16868989D01*
X50390200Y16822905D01*
X50396001Y16791298D01*
X50396001Y493000D01*
X50375179Y435792D01*
X50307001Y404000D01*
X493000Y404000D01*
X435792Y424822D01*
X404000Y493000D01*
X404000Y28575000D01*
X2250000Y28575000D01*
X2270376Y28316101D01*
X2271191Y28312706D01*
X2271192Y28312700D01*
X2330184Y28066980D01*
X2331001Y28063577D01*
X2430384Y27823646D01*
X2566077Y27602215D01*
X2734738Y27404738D01*
X2932215Y27236077D01*
X3153646Y27100384D01*
X3393577Y27001001D01*
X3396980Y27000184D01*
X3642700Y26941192D01*
X3642706Y26941191D01*
X3646101Y26940376D01*
X3905000Y26920000D01*
X4163899Y26940376D01*
X4167294Y26941191D01*
X4167300Y26941192D01*
X4413020Y27000184D01*
X4416423Y27001001D01*
X4656354Y27100384D01*
X4877785Y27236077D01*
X5075262Y27404738D01*
X5243923Y27602215D01*
X5379616Y27823646D01*
X5478999Y28063577D01*
X5479816Y28066980D01*
X5538808Y28312700D01*
X5538809Y28312706D01*
X5539624Y28316101D01*
X5560000Y28575000D01*
X5539624Y28833899D01*
X5530006Y28873964D01*
X5479816Y29083020D01*
X5478999Y29086423D01*
X5379616Y29326354D01*
X5243923Y29547785D01*
X5075262Y29745262D01*
X4877785Y29913923D01*
X4656354Y30049616D01*
X4416423Y30148999D01*
X4413020Y30149816D01*
X4167300Y30208808D01*
X4167294Y30208809D01*
X4163899Y30209624D01*
X3905000Y30230000D01*
X3646101Y30209624D01*
X3642706Y30208809D01*
X3642700Y30208808D01*
X3603439Y30199382D01*
X3542951Y30206274D01*
X3501044Y30250435D01*
X3497328Y30311201D01*
X3540880Y30364505D01*
X3596743Y30394208D01*
X3603957Y30399000D01*
X3750424Y30518457D01*
X3756565Y30524555D01*
X3877041Y30670185D01*
X3881886Y30677368D01*
X3971774Y30843613D01*
X3975136Y30851610D01*
X4012096Y30971009D01*
X4011660Y30979933D01*
X5195591Y30979933D01*
X5195804Y30976123D01*
X5231353Y30855336D01*
X5234600Y30847299D01*
X5324421Y30675489D01*
X5329169Y30668234D01*
X5450651Y30517140D01*
X5456711Y30510952D01*
X5605228Y30386331D01*
X5612382Y30381433D01*
X5782273Y30288036D01*
X5790236Y30284622D01*
X5975044Y30225997D01*
X5983510Y30224198D01*
X6134358Y30207277D01*
X6139318Y30207000D01*
X6450306Y30207000D01*
X6458127Y30209847D01*
X6464117Y30222694D01*
X6973999Y30222694D01*
X6976846Y30214873D01*
X6993729Y30207000D01*
X7293809Y30207000D01*
X7298169Y30207213D01*
X7442280Y30221344D01*
X7450781Y30223027D01*
X7636388Y30279064D01*
X7644394Y30282365D01*
X7815577Y30373385D01*
X7822791Y30378178D01*
X7973040Y30500718D01*
X7979181Y30506816D01*
X8102772Y30656211D01*
X8107607Y30663379D01*
X8199826Y30833935D01*
X8203180Y30841913D01*
X8243141Y30971008D01*
X8242516Y30983787D01*
X8241420Y30984971D01*
X8237167Y30986000D01*
X6989694Y30986001D01*
X6981873Y30983154D01*
X6974000Y30966271D01*
X6973999Y30222694D01*
X6464117Y30222694D01*
X6466000Y30226730D01*
X6466001Y30970306D01*
X6463154Y30978127D01*
X6446271Y30986000D01*
X5208591Y30986001D01*
X5196568Y30981625D01*
X5195591Y30979933D01*
X4011660Y30979933D01*
X4011471Y30983787D01*
X4010375Y30984971D01*
X4006122Y30986000D01*
X2809694Y30986001D01*
X2801873Y30983154D01*
X2794000Y30966271D01*
X2793999Y30247694D01*
X2796846Y30239873D01*
X2813729Y30232000D01*
X3088811Y30232000D01*
X3093171Y30232213D01*
X3153715Y30238150D01*
X3212682Y30223010D01*
X3248121Y30173509D01*
X3243451Y30112809D01*
X3196459Y30067350D01*
X3156882Y30050957D01*
X3156876Y30050954D01*
X3153646Y30049616D01*
X2932215Y29913923D01*
X2734738Y29745262D01*
X2566077Y29547785D01*
X2430384Y29326354D01*
X2331001Y29086423D01*
X2330184Y29083020D01*
X2279995Y28873964D01*
X2270376Y28833899D01*
X2250000Y28575000D01*
X404000Y28575000D01*
X404000Y30979933D01*
X1066527Y30979933D01*
X1066740Y30976124D01*
X1099534Y30864701D01*
X1102781Y30856664D01*
X1190340Y30689179D01*
X1195087Y30681924D01*
X1313513Y30534632D01*
X1319573Y30528444D01*
X1464352Y30406959D01*
X1471506Y30402061D01*
X1637122Y30311014D01*
X1645085Y30307600D01*
X1825233Y30250453D01*
X1833716Y30248650D01*
X1979685Y30232278D01*
X1984649Y30232000D01*
X2270306Y30232000D01*
X2278127Y30234847D01*
X2286000Y30251730D01*
X2286001Y30970306D01*
X2283154Y30978127D01*
X2266271Y30986000D01*
X1079527Y30986001D01*
X1067504Y30981625D01*
X1066527Y30979933D01*
X404000Y30979933D01*
X404000Y31508991D01*
X1067904Y31508991D01*
X1068529Y31496213D01*
X1069625Y31495029D01*
X1073878Y31494000D01*
X2270306Y31493999D01*
X2278127Y31496846D01*
X2284118Y31509694D01*
X2793999Y31509694D01*
X2796846Y31501873D01*
X2813729Y31494000D01*
X4000473Y31493999D01*
X4012496Y31498375D01*
X4013473Y31500067D01*
X4013260Y31503876D01*
X4011755Y31508992D01*
X5196859Y31508992D01*
X5197484Y31496213D01*
X5198580Y31495029D01*
X5202833Y31494000D01*
X6465998Y31493999D01*
X6466004Y31494000D01*
X8231409Y31493999D01*
X8243432Y31498375D01*
X8244409Y31500067D01*
X8244196Y31503877D01*
X8208647Y31624664D01*
X8205400Y31632701D01*
X8115579Y31804511D01*
X8110831Y31811766D01*
X7989349Y31962860D01*
X7983289Y31969048D01*
X7834772Y32093669D01*
X7827618Y32098567D01*
X7657727Y32191964D01*
X7649764Y32195378D01*
X7464956Y32254003D01*
X7456490Y32255802D01*
X7305642Y32272723D01*
X7300682Y32273000D01*
X6866015Y32273000D01*
X6808807Y32293822D01*
X6778367Y32346545D01*
X6783265Y32394763D01*
X6830207Y32513325D01*
X6831267Y32521711D01*
X6849298Y32664443D01*
X6850000Y32670000D01*
X6846491Y32697774D01*
X6830909Y32821119D01*
X6830909Y32821120D01*
X6830207Y32826675D01*
X6772073Y32973505D01*
X6688294Y33088817D01*
X6682540Y33096737D01*
X6682539Y33096738D01*
X6679250Y33101265D01*
X6615036Y33154388D01*
X6561886Y33198358D01*
X6561882Y33198360D01*
X6557571Y33201927D01*
X6544374Y33208137D01*
X6419746Y33266783D01*
X6419743Y33266784D01*
X6414681Y33269166D01*
X6409185Y33270214D01*
X6409183Y33270215D01*
X6265060Y33297708D01*
X6265056Y33297708D01*
X6259558Y33298757D01*
X6206920Y33295445D01*
X6107541Y33289193D01*
X6107539Y33289193D01*
X6101950Y33288841D01*
X5951759Y33240041D01*
X5880799Y33195008D01*
X5849880Y33175386D01*
X5818423Y33155423D01*
X5814588Y33151339D01*
X5715964Y33046316D01*
X5710319Y33040305D01*
X5707623Y33035401D01*
X5687197Y32998246D01*
X5634241Y32901918D01*
X5594968Y32748960D01*
X5594968Y32591040D01*
X5634241Y32438082D01*
X5710319Y32299695D01*
X5714150Y32295616D01*
X5714151Y32295614D01*
X5722959Y32286235D01*
X5746942Y32230279D01*
X5729347Y32171998D01*
X5699864Y32146728D01*
X5624423Y32106615D01*
X5617209Y32101822D01*
X5466960Y31979282D01*
X5460819Y31973184D01*
X5337228Y31823789D01*
X5332393Y31816621D01*
X5240174Y31646065D01*
X5236820Y31638087D01*
X5196859Y31508992D01*
X4011755Y31508992D01*
X3980466Y31615299D01*
X3977219Y31623336D01*
X3889660Y31790821D01*
X3884913Y31798076D01*
X3766487Y31945368D01*
X3760427Y31951556D01*
X3615648Y32073041D01*
X3608494Y32077939D01*
X3442878Y32168986D01*
X3434915Y32172400D01*
X3254767Y32229547D01*
X3246284Y32231350D01*
X3100315Y32247722D01*
X3095351Y32248000D01*
X2809694Y32248000D01*
X2801873Y32245153D01*
X2794000Y32228270D01*
X2793999Y31509694D01*
X2284118Y31509694D01*
X2286000Y31513729D01*
X2286001Y32232306D01*
X2283154Y32240127D01*
X2266271Y32248000D01*
X1991189Y32248000D01*
X1986829Y32247787D01*
X1847578Y32234133D01*
X1839069Y32232448D01*
X1658149Y32177825D01*
X1650127Y32174519D01*
X1483257Y32085792D01*
X1476043Y32081000D01*
X1329576Y31961543D01*
X1323435Y31955445D01*
X1202959Y31809815D01*
X1198114Y31802632D01*
X1108226Y31636387D01*
X1104864Y31628390D01*
X1067904Y31508991D01*
X404000Y31508991D01*
X404000Y39619933D01*
X1066527Y39619933D01*
X1066740Y39616124D01*
X1099534Y39504701D01*
X1102781Y39496664D01*
X1190340Y39329179D01*
X1195087Y39321924D01*
X1313513Y39174632D01*
X1319573Y39168444D01*
X1464352Y39046959D01*
X1471506Y39042061D01*
X1637122Y38951014D01*
X1645085Y38947600D01*
X1825233Y38890453D01*
X1833716Y38888650D01*
X1979685Y38872278D01*
X1984649Y38872000D01*
X2270306Y38872000D01*
X2278127Y38874847D01*
X2284117Y38887694D01*
X2793999Y38887694D01*
X2796846Y38879873D01*
X2813729Y38872000D01*
X3088811Y38872000D01*
X3093171Y38872213D01*
X3232422Y38885867D01*
X3240931Y38887552D01*
X3421851Y38942175D01*
X3429873Y38945481D01*
X3596743Y39034208D01*
X3603957Y39039000D01*
X3750424Y39158457D01*
X3756565Y39164555D01*
X3877041Y39310185D01*
X3881886Y39317368D01*
X3971774Y39483613D01*
X3975136Y39491610D01*
X4012096Y39611009D01*
X4011660Y39619933D01*
X5195591Y39619933D01*
X5195804Y39616123D01*
X5231353Y39495336D01*
X5234600Y39487299D01*
X5324421Y39315489D01*
X5329169Y39308234D01*
X5450651Y39157140D01*
X5456711Y39150952D01*
X5605228Y39026331D01*
X5612382Y39021433D01*
X5700993Y38972719D01*
X5741094Y38926913D01*
X5742369Y38866047D01*
X5722995Y38833803D01*
X5710319Y38820305D01*
X5634241Y38681918D01*
X5594968Y38528960D01*
X5594968Y38371040D01*
X5634241Y38218082D01*
X5710319Y38079695D01*
X5714150Y38075616D01*
X5714151Y38075614D01*
X5776748Y38008956D01*
X5818423Y37964577D01*
X5951759Y37879959D01*
X6101950Y37831159D01*
X6107539Y37830807D01*
X6107541Y37830807D01*
X6206920Y37824555D01*
X6259558Y37821243D01*
X6265056Y37822292D01*
X6265060Y37822292D01*
X6409183Y37849785D01*
X6409185Y37849786D01*
X6414681Y37850834D01*
X6419743Y37853216D01*
X6419746Y37853217D01*
X6552503Y37915688D01*
X6552504Y37915689D01*
X6557571Y37918073D01*
X6561882Y37921640D01*
X6561886Y37921642D01*
X6667429Y38008956D01*
X6679250Y38018735D01*
X6772073Y38146495D01*
X6830207Y38293325D01*
X6836160Y38340443D01*
X6849298Y38444443D01*
X6850000Y38450000D01*
X6840025Y38528960D01*
X6830909Y38601119D01*
X6830909Y38601120D01*
X6830207Y38606675D01*
X6783265Y38725237D01*
X6781565Y38786093D01*
X6819380Y38833804D01*
X6866015Y38847000D01*
X7293809Y38847000D01*
X7298169Y38847213D01*
X7442280Y38861344D01*
X7450781Y38863027D01*
X7636388Y38919064D01*
X7644394Y38922365D01*
X7815577Y39013385D01*
X7822791Y39018178D01*
X7973040Y39140718D01*
X7979181Y39146816D01*
X8102772Y39296211D01*
X8107607Y39303379D01*
X8199826Y39473935D01*
X8203180Y39481913D01*
X8243141Y39611008D01*
X8242516Y39623787D01*
X8241420Y39624971D01*
X8237167Y39626000D01*
X6974002Y39626001D01*
X6973996Y39626000D01*
X5208591Y39626001D01*
X5196568Y39621625D01*
X5195591Y39619933D01*
X4011660Y39619933D01*
X4011471Y39623787D01*
X4010375Y39624971D01*
X4006122Y39626000D01*
X2809694Y39626001D01*
X2801873Y39623154D01*
X2794000Y39606271D01*
X2793999Y38887694D01*
X2284117Y38887694D01*
X2286000Y38891730D01*
X2286001Y39610306D01*
X2283154Y39618127D01*
X2266271Y39626000D01*
X1079527Y39626001D01*
X1067504Y39621625D01*
X1066527Y39619933D01*
X404000Y39619933D01*
X404000Y40148991D01*
X1067904Y40148991D01*
X1068529Y40136213D01*
X1069625Y40135029D01*
X1073878Y40134000D01*
X2270306Y40133999D01*
X2278127Y40136846D01*
X2284118Y40149694D01*
X2793999Y40149694D01*
X2796846Y40141873D01*
X2813729Y40134000D01*
X4000473Y40133999D01*
X4012496Y40138375D01*
X4013473Y40140067D01*
X4013260Y40143876D01*
X4011755Y40148992D01*
X5196859Y40148992D01*
X5197484Y40136213D01*
X5198580Y40135029D01*
X5202833Y40134000D01*
X6450306Y40133999D01*
X6458127Y40136846D01*
X6464118Y40149694D01*
X6973999Y40149694D01*
X6976846Y40141873D01*
X6993729Y40134000D01*
X8231409Y40133999D01*
X8243432Y40138375D01*
X8244409Y40140067D01*
X8244196Y40143877D01*
X8208647Y40264664D01*
X8205400Y40272701D01*
X8115579Y40444511D01*
X8110831Y40451766D01*
X7989349Y40602860D01*
X7983289Y40609048D01*
X7834772Y40733669D01*
X7827618Y40738567D01*
X7657727Y40831964D01*
X7649764Y40835378D01*
X7464956Y40894003D01*
X7456490Y40895802D01*
X7305642Y40912723D01*
X7300682Y40913000D01*
X6989694Y40913000D01*
X6981873Y40910153D01*
X6974000Y40893270D01*
X6973999Y40149694D01*
X6464118Y40149694D01*
X6466000Y40153729D01*
X6466001Y40897306D01*
X6463154Y40905127D01*
X6446271Y40913000D01*
X6146191Y40913000D01*
X6141831Y40912787D01*
X5997720Y40898656D01*
X5989219Y40896973D01*
X5803612Y40840936D01*
X5795606Y40837635D01*
X5624423Y40746615D01*
X5617209Y40741822D01*
X5466960Y40619282D01*
X5460819Y40613184D01*
X5337228Y40463789D01*
X5332393Y40456621D01*
X5240174Y40286065D01*
X5236820Y40278087D01*
X5196859Y40148992D01*
X4011755Y40148992D01*
X3980466Y40255299D01*
X3977219Y40263336D01*
X3889660Y40430821D01*
X3884913Y40438076D01*
X3766487Y40585368D01*
X3760427Y40591556D01*
X3615648Y40713041D01*
X3608494Y40717939D01*
X3442878Y40808986D01*
X3434915Y40812400D01*
X3254767Y40869547D01*
X3246284Y40871350D01*
X3100315Y40887722D01*
X3095351Y40888000D01*
X2809694Y40888000D01*
X2801873Y40885153D01*
X2794000Y40868270D01*
X2793999Y40149694D01*
X2284118Y40149694D01*
X2286000Y40153729D01*
X2286001Y40872306D01*
X2283154Y40880127D01*
X2266271Y40888000D01*
X1991189Y40888000D01*
X1986829Y40887787D01*
X1847578Y40874133D01*
X1839069Y40872448D01*
X1658149Y40817825D01*
X1650127Y40814519D01*
X1483257Y40725792D01*
X1476043Y40721000D01*
X1329576Y40601543D01*
X1323435Y40595445D01*
X1202959Y40449815D01*
X1198114Y40442632D01*
X1108226Y40276387D01*
X1104864Y40268390D01*
X1067904Y40148991D01*
X404000Y40148991D01*
X404000Y50307000D01*
X424822Y50364208D01*
X493000Y50396000D01*
X50307000Y50396000D01*
X50364208Y50375178D01*
G37*
G04 #@! TD.AperFunction*
G04 #@! TA.AperFunction,Conductor*
G36*
X38787044Y42476432D02*
G01*
X40176722Y41086753D01*
X41513627Y39749848D01*
X41516207Y39747158D01*
X41555911Y39703980D01*
X41594358Y39680142D01*
X41601269Y39675392D01*
X41637302Y39648041D01*
X41654345Y39641293D01*
X41668476Y39634186D01*
X41684058Y39624525D01*
X41689880Y39622834D01*
X41689881Y39622833D01*
X41694039Y39621625D01*
X41727504Y39611902D01*
X41735431Y39609188D01*
X41771849Y39594769D01*
X41771855Y39594767D01*
X41777494Y39592535D01*
X41791619Y39591050D01*
X41795722Y39590619D01*
X41811245Y39587574D01*
X41828851Y39582459D01*
X41841911Y39581500D01*
X41877824Y39581500D01*
X41887127Y39581012D01*
X41921413Y39577408D01*
X41921415Y39577408D01*
X41927448Y39576774D01*
X41933425Y39577785D01*
X41933428Y39577785D01*
X41948022Y39580254D01*
X41962865Y39581500D01*
X45212906Y39581500D01*
X45270114Y39560678D01*
X45300554Y39507955D01*
X45270707Y39424824D01*
X45144892Y39317368D01*
X45089738Y39270262D01*
X44921077Y39072785D01*
X44785384Y38851354D01*
X44686001Y38611423D01*
X44685184Y38608020D01*
X44626985Y38365600D01*
X44625376Y38358899D01*
X44605000Y38100000D01*
X44625376Y37841101D01*
X44626191Y37837706D01*
X44626192Y37837700D01*
X44665898Y37672311D01*
X44686001Y37588577D01*
X44785384Y37348646D01*
X44921077Y37127215D01*
X45089738Y36929738D01*
X45287215Y36761077D01*
X45508646Y36625384D01*
X45748577Y36526001D01*
X45751980Y36525184D01*
X45973339Y36472041D01*
X46024106Y36438439D01*
X46041397Y36380067D01*
X46017121Y36324237D01*
X45973339Y36298959D01*
X45748577Y36244999D01*
X45508646Y36145616D01*
X45287215Y36009923D01*
X45089738Y35841262D01*
X44921077Y35643785D01*
X44785384Y35422354D01*
X44686001Y35182423D01*
X44685184Y35179020D01*
X44627643Y34939340D01*
X44625376Y34929899D01*
X44605000Y34671000D01*
X44625376Y34412101D01*
X44626191Y34408706D01*
X44626192Y34408700D01*
X44673266Y34212621D01*
X44686001Y34159577D01*
X44785384Y33919646D01*
X44921077Y33698215D01*
X44923348Y33695556D01*
X44996485Y33609924D01*
X45089738Y33500738D01*
X45092404Y33498461D01*
X45261516Y33354026D01*
X45287215Y33332077D01*
X45508646Y33196384D01*
X45748577Y33097001D01*
X45751980Y33096184D01*
X45973339Y33043041D01*
X46024106Y33009439D01*
X46041397Y32951067D01*
X46017121Y32895237D01*
X45973339Y32869959D01*
X45769904Y32821119D01*
X45748577Y32815999D01*
X45508646Y32716616D01*
X45287215Y32580923D01*
X45284556Y32578652D01*
X45131614Y32448027D01*
X45089738Y32412262D01*
X44921077Y32214785D01*
X44785384Y31993354D01*
X44686001Y31753423D01*
X44685184Y31750020D01*
X44627319Y31508991D01*
X44625376Y31500899D01*
X44605000Y31242000D01*
X44625376Y30983101D01*
X44626191Y30979706D01*
X44626192Y30979700D01*
X44656049Y30855336D01*
X44686001Y30730577D01*
X44785384Y30490646D01*
X44921077Y30269215D01*
X44923348Y30266556D01*
X45002818Y30173509D01*
X45089738Y30071738D01*
X45287215Y29903077D01*
X45508646Y29767384D01*
X45748577Y29668001D01*
X45751980Y29667184D01*
X45973339Y29614041D01*
X46024106Y29580439D01*
X46041397Y29522067D01*
X46017121Y29466237D01*
X45973339Y29440959D01*
X45748577Y29386999D01*
X45508646Y29287616D01*
X45287215Y29151923D01*
X45089738Y28983262D01*
X44921077Y28785785D01*
X44785384Y28564354D01*
X44686001Y28324423D01*
X44685184Y28321020D01*
X44626815Y28077892D01*
X44625376Y28071899D01*
X44605000Y27813000D01*
X44625376Y27554101D01*
X44626191Y27550706D01*
X44626192Y27550700D01*
X44661781Y27402461D01*
X44686001Y27301577D01*
X44785384Y27061646D01*
X44921077Y26840215D01*
X45089738Y26642738D01*
X45287215Y26474077D01*
X45508646Y26338384D01*
X45748577Y26239001D01*
X45751980Y26238184D01*
X45997700Y26179192D01*
X45997706Y26179191D01*
X46001101Y26178376D01*
X46260000Y26158000D01*
X46518899Y26178376D01*
X46522294Y26179191D01*
X46522300Y26179192D01*
X46768020Y26238184D01*
X46771423Y26239001D01*
X47011354Y26338384D01*
X47232785Y26474077D01*
X47430262Y26642738D01*
X47598923Y26840215D01*
X47734616Y27061646D01*
X47792276Y27200849D01*
X47833404Y27245733D01*
X47893763Y27253679D01*
X47945108Y27220969D01*
X47963500Y27166789D01*
X47963501Y20584891D01*
X47937434Y20521959D01*
X44203482Y16788006D01*
X40580433Y13164957D01*
X40525257Y13139228D01*
X40466452Y13154984D01*
X40428500Y13227889D01*
X40428500Y31739952D01*
X40428578Y31743679D01*
X40430780Y31796217D01*
X40431034Y31802277D01*
X40428956Y31811136D01*
X40420706Y31846315D01*
X40419179Y31854557D01*
X40413862Y31893369D01*
X40413860Y31893375D01*
X40413037Y31899385D01*
X40405756Y31916210D01*
X40400791Y31931227D01*
X40397992Y31943160D01*
X40397990Y31943166D01*
X40396604Y31949074D01*
X40374801Y31988733D01*
X40371121Y31996247D01*
X40355567Y32032190D01*
X40353155Y32037764D01*
X40349336Y32042479D01*
X40349333Y32042485D01*
X40341621Y32052008D01*
X40332795Y32065142D01*
X40326214Y32077113D01*
X40326211Y32077117D01*
X40323965Y32081203D01*
X40315408Y32091116D01*
X40290017Y32116507D01*
X40283784Y32123430D01*
X40266811Y32144390D01*
X40258266Y32154942D01*
X40241254Y32167032D01*
X40229885Y32176639D01*
X34093170Y38313354D01*
X34067442Y38368530D01*
X34083198Y38427335D01*
X34116114Y38455797D01*
X34255627Y38525964D01*
X34255629Y38525966D01*
X34260418Y38528374D01*
X34389316Y38638464D01*
X34488234Y38776123D01*
X34551461Y38933403D01*
X34575345Y39101225D01*
X34575500Y39116000D01*
X34555135Y39284285D01*
X34495217Y39442855D01*
X34436153Y39528794D01*
X34420500Y39579204D01*
X34420500Y40717111D01*
X34446568Y40780044D01*
X34521579Y40855054D01*
X34603719Y40937194D01*
X34646781Y40961015D01*
X34782980Y40992209D01*
X34857613Y41029746D01*
X34929627Y41065964D01*
X34929629Y41065966D01*
X34934418Y41068374D01*
X35063316Y41178464D01*
X35162234Y41316123D01*
X35225461Y41473403D01*
X35249345Y41641225D01*
X35249399Y41646323D01*
X35249469Y41653090D01*
X35249500Y41656000D01*
X35229135Y41824285D01*
X35169217Y41982855D01*
X35101903Y42080798D01*
X35076245Y42118131D01*
X35076241Y42118135D01*
X35073203Y42122556D01*
X35063055Y42131598D01*
X34950645Y42231751D01*
X34946638Y42235321D01*
X34897516Y42261330D01*
X34801572Y42312130D01*
X34801570Y42312131D01*
X34796829Y42314641D01*
X34746905Y42327181D01*
X34696493Y42361313D01*
X34679815Y42419863D01*
X34704674Y42475436D01*
X34768587Y42502500D01*
X38724111Y42502500D01*
X38787044Y42476432D01*
G37*
G04 #@! TD.AperFunction*
M02*
