G04 #@! TF.GenerationSoftware,KiCad,Pcbnew,(5.99.0-10394-g2e15de97e0)*
G04 #@! TF.CreationDate,2021-07-16T10:39:39+02:00*
G04 #@! TF.ProjectId,TFGPS01B,54464750-5330-4314-922e-6b696361645f,REV*
G04 #@! TF.SameCoordinates,Original*
G04 #@! TF.FileFunction,Copper,L2,Inr*
G04 #@! TF.FilePolarity,Positive*
%FSLAX46Y46*%
G04 Gerber Fmt 4.6, Leading zero omitted, Abs format (unit mm)*
G04 Created by KiCad (PCBNEW (5.99.0-10394-g2e15de97e0)) date 2021-07-16 10:39:39*
%MOMM*%
%LPD*%
G01*
G04 APERTURE LIST*
G04 #@! TA.AperFunction,ComponentPad*
%ADD10C,6.000000*%
G04 #@! TD*
G04 #@! TA.AperFunction,ComponentPad*
%ADD11O,2.000000X1.000000*%
G04 #@! TD*
G04 #@! TA.AperFunction,ComponentPad*
%ADD12O,2.100000X1.050000*%
G04 #@! TD*
G04 #@! TA.AperFunction,ViaPad*
%ADD13C,0.800000*%
G04 #@! TD*
G04 #@! TA.AperFunction,ViaPad*
%ADD14C,0.700000*%
G04 #@! TD*
G04 #@! TA.AperFunction,ViaPad*
%ADD15C,0.600000*%
G04 #@! TD*
G04 #@! TA.AperFunction,Conductor*
%ADD16C,0.500000*%
G04 #@! TD*
G04 APERTURE END LIST*
D10*
X45420000Y5380000D03*
X5380000Y5380000D03*
X45420000Y45420000D03*
X5380000Y45420000D03*
D11*
X2540000Y31240000D03*
X2540000Y39880000D03*
D12*
X6720000Y31240000D03*
X6720000Y39880000D03*
D13*
X19685000Y28575000D03*
X40640000Y48260000D03*
X36423600Y19812000D03*
X11430000Y12700000D03*
X18223610Y16246499D03*
X3810000Y38100000D03*
X3810000Y33020000D03*
X33426400Y23977600D03*
D14*
X34578000Y11430000D03*
D13*
X31115000Y38735000D03*
D15*
X44831000Y39624000D03*
D13*
X10160000Y9525000D03*
D14*
X35526400Y11430000D03*
D13*
X28549600Y19202400D03*
X41910000Y16510000D03*
X37388800Y28041600D03*
D14*
X32867600Y14173200D03*
D13*
X30073600Y20218400D03*
X9525000Y49530000D03*
D14*
X22961600Y14528800D03*
D13*
X16510000Y24765000D03*
D14*
X30784400Y11430000D03*
D13*
X32004000Y25400000D03*
X28448000Y20421600D03*
X31699200Y26466800D03*
D14*
X25857200Y12446000D03*
D13*
X31750000Y6985000D03*
X24130000Y44450000D03*
X11430000Y11430000D03*
X30480000Y22453600D03*
X35560000Y37465000D03*
X20747970Y28367969D03*
X31242000Y21742400D03*
D14*
X34300065Y13919200D03*
D13*
X29845000Y38735000D03*
X10160000Y8255000D03*
X33375600Y19050000D03*
X25247600Y16560800D03*
X40640000Y5080000D03*
X29667200Y23164800D03*
X15240000Y23495000D03*
X35610800Y27838400D03*
D14*
X24079200Y14427200D03*
D13*
X35356800Y21640800D03*
X29260800Y22199600D03*
D14*
X29870400Y11430000D03*
D13*
X31140400Y27381200D03*
X16510000Y21590000D03*
X32054800Y14325600D03*
X36423600Y20878800D03*
X8890000Y5080000D03*
X31115000Y37465000D03*
X27381200Y25298400D03*
X27076400Y19304000D03*
D14*
X34188400Y17475200D03*
D13*
X32715200Y24688800D03*
X17780000Y23495000D03*
X29845000Y37465000D03*
X9525000Y48260000D03*
X8890000Y2540000D03*
D15*
X43688000Y39624000D03*
D14*
X24790400Y12446000D03*
D13*
X41910000Y48260000D03*
X8890000Y3810000D03*
X35864800Y16814800D03*
X8890000Y1270000D03*
X35560000Y38735000D03*
D14*
X26568400Y14478000D03*
D13*
X37592000Y21209000D03*
X13335000Y11430000D03*
X38201600Y17780000D03*
X30861000Y40894000D03*
X28143200Y27279600D03*
X27178000Y4826000D03*
X28575000Y37465000D03*
X27482800Y26466800D03*
X29057600Y27736800D03*
X28575000Y38735000D03*
X28549600Y21488400D03*
X41275000Y6350000D03*
X36423600Y18694400D03*
D14*
X32681200Y11430000D03*
X31732800Y11430000D03*
D13*
X27686000Y24180800D03*
X3810000Y36830000D03*
D15*
X34338884Y12864203D03*
D13*
X41275000Y18415000D03*
X28575000Y44450000D03*
D15*
X39497000Y37211000D03*
D13*
X33324800Y20167600D03*
X29972000Y14325600D03*
X25857200Y11125200D03*
X3810000Y35560000D03*
X12065000Y20320000D03*
D14*
X24790400Y13716000D03*
D13*
X24130000Y45720000D03*
X30124400Y18084800D03*
X33324800Y27178000D03*
X3810000Y34290000D03*
X11430000Y8255000D03*
X35814000Y24130000D03*
X27432000Y22199600D03*
X27686000Y14732000D03*
X31013400Y14325600D03*
X38354000Y20320000D03*
X10160000Y16510000D03*
X13335000Y12700000D03*
X36830000Y37465000D03*
X24688800Y11074400D03*
X11430000Y9525000D03*
X49530000Y13970000D03*
X36830000Y38735000D03*
X28702000Y17729200D03*
X28854400Y14579600D03*
X21742400Y16052800D03*
D14*
X33477200Y18034000D03*
X21590000Y14224000D03*
D13*
X28575000Y40005000D03*
D14*
X33629600Y11430000D03*
D13*
X36525200Y17576800D03*
X28549600Y23418800D03*
X30124400Y27736800D03*
X26670000Y45720000D03*
D14*
X25806400Y13766800D03*
D13*
X28305725Y33013021D03*
X6350000Y23495000D03*
X24638000Y35306000D03*
X24638000Y42926000D03*
X24892000Y18796000D03*
X35560000Y48006000D03*
D14*
X49614001Y34967999D03*
D13*
X29464000Y4572000D03*
D14*
X9906000Y44577000D03*
D13*
X46228000Y13970000D03*
D14*
X38925500Y44640500D03*
D13*
X14626252Y8843348D03*
X36331688Y43062688D03*
X31750000Y43053000D03*
X37338000Y29464000D03*
X17272000Y14224000D03*
X6096000Y12954000D03*
X38608000Y26162000D03*
X34290000Y43903000D03*
X40424999Y19288997D03*
X14097000Y7112000D03*
X38030074Y8692139D03*
X16421990Y15212785D03*
X36499999Y32842001D03*
X5969000Y14351000D03*
X14630400Y10160000D03*
X33020000Y40005000D03*
X19177000Y7112000D03*
X35560000Y7112000D03*
X1727200Y19304000D03*
X21639041Y7101959D03*
X21082000Y41402000D03*
X11596000Y40654794D03*
X23114000Y7112000D03*
X11557000Y29083000D03*
X1676400Y21336000D03*
X1651000Y15240000D03*
X16764000Y40779989D03*
X1778000Y17272000D03*
X18796000Y41148000D03*
X13335000Y43180000D03*
X23749000Y31750000D03*
X24517223Y32390186D03*
X14732000Y43180000D03*
X16383000Y29083000D03*
X1778000Y13208000D03*
X16256000Y43180000D03*
X11684000Y44450000D03*
X19655000Y43464000D03*
X18359977Y32429000D03*
X24057948Y25091052D03*
X25146000Y25273000D03*
X18359977Y33479000D03*
X15324759Y6942759D03*
X30480000Y43561000D03*
X9398000Y38100000D03*
X8877000Y33160000D03*
X13019000Y33147000D03*
X12640000Y37410000D03*
X10400000Y40350000D03*
D16*
X22216704Y26924000D02*
X28305725Y33013021D01*
X9779000Y26924000D02*
X22216704Y26924000D01*
X6350000Y23495000D02*
X9779000Y26924000D01*
X27228800Y29464000D02*
X17272000Y19507200D01*
X17272000Y19507200D02*
X17272000Y14224000D01*
X37338000Y29464000D02*
X27228800Y29464000D01*
X38608000Y26162000D02*
X40424999Y24345001D01*
X36830000Y41363000D02*
X34290000Y43903000D01*
X40424999Y24345001D02*
X40424999Y19288997D01*
X36830000Y41363000D02*
X38608000Y39585000D01*
X38608000Y39585000D02*
X38608000Y26162000D01*
X36499999Y32842001D02*
X29336801Y32842001D01*
X16421990Y19927190D02*
X16421990Y15212785D01*
X29336801Y32842001D02*
X16421990Y19927190D01*
X21639041Y7101959D02*
X9437000Y19304000D01*
X9437000Y19304000D02*
X1727200Y19304000D01*
X11596000Y40220000D02*
X11596000Y40654794D01*
X14986000Y36830000D02*
X11596000Y40220000D01*
X11557000Y29083000D02*
X14986000Y32512000D01*
X8890000Y21336000D02*
X1676400Y21336000D01*
X23114000Y7112000D02*
X8890000Y21336000D01*
X14986000Y32512000D02*
X14986000Y36830000D01*
X11595999Y29121999D02*
X11557000Y29083000D01*
X13335000Y40778998D02*
X13335000Y43180000D01*
X20739999Y34759001D02*
X19354997Y34759001D01*
X23749000Y31750000D02*
X20739999Y34759001D01*
X19354997Y34759001D02*
X13335000Y40778998D01*
X14732000Y41910000D02*
X14732000Y43180000D01*
X24517223Y32390186D02*
X21347409Y35560000D01*
X19558000Y35560000D02*
X15748000Y39370000D01*
X14732000Y40386000D02*
X14732000Y41910000D01*
X15748000Y39370000D02*
X14732000Y40386000D01*
X21347409Y35560000D02*
X19558000Y35560000D01*
X15024999Y44030001D02*
X12926999Y44030001D01*
X16344001Y29121999D02*
X16383000Y29083000D01*
X12926999Y44030001D02*
X12446000Y43549002D01*
X15024999Y44030001D02*
X15405999Y44030001D01*
X16383000Y36449000D02*
X16383000Y29083000D01*
X12446000Y40386000D02*
X16383000Y36449000D01*
X15405999Y44030001D02*
X16256000Y43180000D01*
X12446000Y43549002D02*
X12446000Y40386000D01*
G04 #@! TA.AperFunction,Conductor*
G36*
X50364208Y50375178D02*
G01*
X50394648Y50322455D01*
X50396000Y50307000D01*
X50396000Y35226055D01*
X50375178Y35168847D01*
X50322455Y35138407D01*
X50262500Y35148979D01*
X50224250Y35193292D01*
X50190480Y35278586D01*
X50188420Y35283789D01*
X50091840Y35416720D01*
X50084756Y35422581D01*
X50013593Y35481451D01*
X49965235Y35521456D01*
X49816562Y35591417D01*
X49655160Y35622206D01*
X49592865Y35618286D01*
X49496765Y35612240D01*
X49496764Y35612240D01*
X49491173Y35611888D01*
X49485848Y35610158D01*
X49485844Y35610157D01*
X49428169Y35591417D01*
X49334903Y35561113D01*
X49196170Y35473070D01*
X49083690Y35353292D01*
X49080994Y35348387D01*
X49080992Y35348385D01*
X49042620Y35278586D01*
X49004533Y35209305D01*
X49003142Y35203888D01*
X49003141Y35203885D01*
X48996798Y35179181D01*
X48963670Y35050155D01*
X48963670Y34885843D01*
X48977283Y34832826D01*
X49000422Y34742706D01*
X49004533Y34726693D01*
X49007230Y34721788D01*
X49007230Y34721787D01*
X49071737Y34604449D01*
X49083690Y34582706D01*
X49196170Y34462928D01*
X49334903Y34374885D01*
X49380985Y34359912D01*
X49485844Y34325841D01*
X49485848Y34325840D01*
X49491173Y34324110D01*
X49496764Y34323758D01*
X49496765Y34323758D01*
X49592865Y34317712D01*
X49655160Y34313792D01*
X49816562Y34344581D01*
X49965235Y34414542D01*
X50091840Y34519278D01*
X50188420Y34652209D01*
X50224250Y34742706D01*
X50264669Y34788232D01*
X50324896Y34797125D01*
X50376749Y34765225D01*
X50396000Y34709943D01*
X50396000Y493000D01*
X50375178Y435792D01*
X50322455Y405352D01*
X50307000Y404000D01*
X493000Y404000D01*
X435792Y424822D01*
X405352Y477545D01*
X404000Y493000D01*
X404000Y4579388D01*
X28758539Y4579388D01*
X28759127Y4574062D01*
X28759127Y4574060D01*
X28759355Y4572000D01*
X28777140Y4410898D01*
X28835395Y4251710D01*
X28929940Y4111012D01*
X28933908Y4107402D01*
X28933910Y4107399D01*
X29051346Y4000540D01*
X29055317Y3996927D01*
X29204288Y3916043D01*
X29368253Y3873027D01*
X29450925Y3871729D01*
X29532377Y3870449D01*
X29532380Y3870449D01*
X29537745Y3870365D01*
X29542975Y3871563D01*
X29542977Y3871563D01*
X29697750Y3907011D01*
X29697751Y3907011D01*
X29702980Y3908209D01*
X29777613Y3945746D01*
X29849627Y3981964D01*
X29849629Y3981966D01*
X29854418Y3984374D01*
X29983316Y4094464D01*
X30082234Y4232123D01*
X30145461Y4389403D01*
X30169345Y4557225D01*
X30169500Y4572000D01*
X30149135Y4740285D01*
X30089217Y4898855D01*
X30049874Y4956100D01*
X29996245Y5034131D01*
X29996241Y5034135D01*
X29993203Y5038556D01*
X29983055Y5047598D01*
X29870645Y5147751D01*
X29866638Y5151321D01*
X29854090Y5157965D01*
X29721572Y5228130D01*
X29721570Y5228131D01*
X29716829Y5230641D01*
X29706435Y5233252D01*
X29557622Y5270631D01*
X29557623Y5270631D01*
X29552423Y5271937D01*
X29474865Y5272343D01*
X29388275Y5272796D01*
X29388274Y5272796D01*
X29382912Y5272824D01*
X29218082Y5233252D01*
X29067450Y5155505D01*
X28939711Y5044072D01*
X28842240Y4905385D01*
X28780665Y4747451D01*
X28758539Y4579388D01*
X404000Y4579388D01*
X404000Y7119388D01*
X13391539Y7119388D01*
X13392127Y7114062D01*
X13392127Y7114060D01*
X13400192Y7041012D01*
X13410140Y6950898D01*
X13468395Y6791710D01*
X13562940Y6651012D01*
X13566908Y6647402D01*
X13566910Y6647399D01*
X13620626Y6598521D01*
X13688317Y6536927D01*
X13837288Y6456043D01*
X14001253Y6413027D01*
X14083925Y6411729D01*
X14165377Y6410449D01*
X14165380Y6410449D01*
X14170745Y6410365D01*
X14175975Y6411563D01*
X14175977Y6411563D01*
X14330750Y6447011D01*
X14330751Y6447011D01*
X14335980Y6448209D01*
X14474379Y6517816D01*
X14482627Y6521964D01*
X14482629Y6521966D01*
X14487418Y6524374D01*
X14585963Y6608540D01*
X14642987Y6629861D01*
X14700375Y6609539D01*
X14717632Y6590506D01*
X14790699Y6481771D01*
X14794667Y6478161D01*
X14794669Y6478158D01*
X14912105Y6371299D01*
X14916076Y6367686D01*
X15065047Y6286802D01*
X15229012Y6243786D01*
X15311684Y6242488D01*
X15393136Y6241208D01*
X15393139Y6241208D01*
X15398504Y6241124D01*
X15403734Y6242322D01*
X15403736Y6242322D01*
X15558509Y6277770D01*
X15558510Y6277770D01*
X15563739Y6278968D01*
X15638372Y6316505D01*
X15710386Y6352723D01*
X15710388Y6352725D01*
X15715177Y6355133D01*
X15844075Y6465223D01*
X15942993Y6602882D01*
X16006220Y6760162D01*
X16030104Y6927984D01*
X16030259Y6942759D01*
X16009894Y7111044D01*
X16006741Y7119388D01*
X18471539Y7119388D01*
X18472127Y7114062D01*
X18472127Y7114060D01*
X18480192Y7041012D01*
X18490140Y6950898D01*
X18548395Y6791710D01*
X18642940Y6651012D01*
X18646908Y6647402D01*
X18646910Y6647399D01*
X18700626Y6598521D01*
X18768317Y6536927D01*
X18917288Y6456043D01*
X19081253Y6413027D01*
X19163925Y6411729D01*
X19245377Y6410449D01*
X19245380Y6410449D01*
X19250745Y6410365D01*
X19255975Y6411563D01*
X19255977Y6411563D01*
X19410750Y6447011D01*
X19410751Y6447011D01*
X19415980Y6448209D01*
X19554379Y6517816D01*
X19562627Y6521964D01*
X19562629Y6521966D01*
X19567418Y6524374D01*
X19696316Y6634464D01*
X19795234Y6772123D01*
X19858461Y6929403D01*
X19882345Y7097225D01*
X19882500Y7112000D01*
X19862135Y7280285D01*
X19802217Y7438855D01*
X19743292Y7524591D01*
X19709245Y7574131D01*
X19709241Y7574135D01*
X19706203Y7578556D01*
X19696055Y7587598D01*
X19583645Y7687751D01*
X19579638Y7691321D01*
X19567090Y7697965D01*
X19434572Y7768130D01*
X19434570Y7768131D01*
X19429829Y7770641D01*
X19419435Y7773252D01*
X19270622Y7810631D01*
X19270623Y7810631D01*
X19265423Y7811937D01*
X19187865Y7812343D01*
X19101275Y7812796D01*
X19101274Y7812796D01*
X19095912Y7812824D01*
X18931082Y7773252D01*
X18780450Y7695505D01*
X18652711Y7584072D01*
X18555240Y7445385D01*
X18493665Y7287451D01*
X18471539Y7119388D01*
X16006741Y7119388D01*
X15949976Y7269614D01*
X15894165Y7350820D01*
X15857004Y7404890D01*
X15857000Y7404894D01*
X15853962Y7409315D01*
X15727397Y7522080D01*
X15714849Y7528724D01*
X15582331Y7598889D01*
X15582329Y7598890D01*
X15577588Y7601400D01*
X15567194Y7604011D01*
X15418381Y7641390D01*
X15418382Y7641390D01*
X15413182Y7642696D01*
X15335624Y7643102D01*
X15249034Y7643555D01*
X15249033Y7643555D01*
X15243671Y7643583D01*
X15078841Y7604011D01*
X14928209Y7526264D01*
X14919321Y7518510D01*
X14837145Y7446824D01*
X14780347Y7424907D01*
X14722750Y7444627D01*
X14705292Y7463481D01*
X14629245Y7574131D01*
X14629241Y7574135D01*
X14626203Y7578556D01*
X14616055Y7587598D01*
X14503645Y7687751D01*
X14499638Y7691321D01*
X14487090Y7697965D01*
X14354572Y7768130D01*
X14354570Y7768131D01*
X14349829Y7770641D01*
X14339435Y7773252D01*
X14190622Y7810631D01*
X14190623Y7810631D01*
X14185423Y7811937D01*
X14107865Y7812343D01*
X14021275Y7812796D01*
X14021274Y7812796D01*
X14015912Y7812824D01*
X13851082Y7773252D01*
X13700450Y7695505D01*
X13572711Y7584072D01*
X13475240Y7445385D01*
X13413665Y7287451D01*
X13391539Y7119388D01*
X404000Y7119388D01*
X404000Y8850736D01*
X13920791Y8850736D01*
X13921379Y8845410D01*
X13921379Y8845408D01*
X13938300Y8692139D01*
X13939392Y8682246D01*
X13997647Y8523058D01*
X14092192Y8382360D01*
X14096160Y8378750D01*
X14096162Y8378747D01*
X14213598Y8271888D01*
X14217569Y8268275D01*
X14366540Y8187391D01*
X14530505Y8144375D01*
X14613177Y8143077D01*
X14694629Y8141797D01*
X14694632Y8141797D01*
X14699997Y8141713D01*
X14705227Y8142911D01*
X14705229Y8142911D01*
X14860002Y8178359D01*
X14860003Y8178359D01*
X14865232Y8179557D01*
X14939865Y8217094D01*
X15011879Y8253312D01*
X15011881Y8253314D01*
X15016670Y8255722D01*
X15145568Y8365812D01*
X15244486Y8503471D01*
X15307713Y8660751D01*
X15331597Y8828573D01*
X15331752Y8843348D01*
X15311387Y9011633D01*
X15251469Y9170203D01*
X15212126Y9227448D01*
X15158497Y9305479D01*
X15158493Y9305483D01*
X15155455Y9309904D01*
X15149264Y9315420D01*
X15032896Y9419100D01*
X15032895Y9419101D01*
X15028890Y9422669D01*
X15024147Y9425180D01*
X15021212Y9427220D01*
X14986118Y9476966D01*
X14991211Y9537632D01*
X15020902Y9572275D01*
X15020818Y9572374D01*
X15021450Y9572914D01*
X15024896Y9575857D01*
X15024899Y9575859D01*
X15145633Y9678977D01*
X15149716Y9682464D01*
X15248634Y9820123D01*
X15311861Y9977403D01*
X15335745Y10145225D01*
X15335900Y10160000D01*
X15315535Y10328285D01*
X15255617Y10486855D01*
X15216274Y10544100D01*
X15162645Y10622131D01*
X15162641Y10622135D01*
X15159603Y10626556D01*
X15149455Y10635598D01*
X15037045Y10735751D01*
X15033038Y10739321D01*
X15020490Y10745965D01*
X14887972Y10816130D01*
X14887970Y10816131D01*
X14883229Y10818641D01*
X14872835Y10821252D01*
X14724022Y10858631D01*
X14724023Y10858631D01*
X14718823Y10859937D01*
X14641265Y10860343D01*
X14554675Y10860796D01*
X14554674Y10860796D01*
X14549312Y10860824D01*
X14384482Y10821252D01*
X14233850Y10743505D01*
X14106111Y10632072D01*
X14008640Y10493385D01*
X13947065Y10335451D01*
X13924939Y10167388D01*
X13925527Y10162062D01*
X13925527Y10162060D01*
X13925755Y10160000D01*
X13943540Y9998898D01*
X14001795Y9839710D01*
X14096340Y9699012D01*
X14100308Y9695402D01*
X14100310Y9695399D01*
X14217746Y9588540D01*
X14221717Y9584927D01*
X14226431Y9582367D01*
X14226436Y9582364D01*
X14227702Y9581677D01*
X14228208Y9581105D01*
X14230807Y9579258D01*
X14230377Y9578653D01*
X14268043Y9536082D01*
X14269637Y9475223D01*
X14235263Y9429853D01*
X14234469Y9429314D01*
X14229702Y9426853D01*
X14101963Y9315420D01*
X14004492Y9176733D01*
X13942917Y9018799D01*
X13920791Y8850736D01*
X404000Y8850736D01*
X404000Y13215388D01*
X1072539Y13215388D01*
X1073127Y13210062D01*
X1073127Y13210060D01*
X1081475Y13134449D01*
X1091140Y13046898D01*
X1149395Y12887710D01*
X1243940Y12747012D01*
X1247908Y12743402D01*
X1247910Y12743399D01*
X1362914Y12638753D01*
X1369317Y12632927D01*
X1518288Y12552043D01*
X1682253Y12509027D01*
X1764925Y12507729D01*
X1846377Y12506449D01*
X1846380Y12506449D01*
X1851745Y12506365D01*
X1856975Y12507563D01*
X1856977Y12507563D01*
X2011750Y12543011D01*
X2011751Y12543011D01*
X2016980Y12544209D01*
X2091613Y12581746D01*
X2163627Y12617964D01*
X2163629Y12617966D01*
X2168418Y12620374D01*
X2297316Y12730464D01*
X2396234Y12868123D01*
X2459461Y13025403D01*
X2483345Y13193225D01*
X2483500Y13208000D01*
X2463135Y13376285D01*
X2403217Y13534855D01*
X2347962Y13615252D01*
X2310245Y13670131D01*
X2310241Y13670135D01*
X2307203Y13674556D01*
X2297055Y13683598D01*
X2184645Y13783751D01*
X2180638Y13787321D01*
X2149407Y13803857D01*
X2035572Y13864130D01*
X2035570Y13864131D01*
X2030829Y13866641D01*
X2020435Y13869252D01*
X1871622Y13906631D01*
X1871623Y13906631D01*
X1866423Y13907937D01*
X1788865Y13908343D01*
X1702275Y13908796D01*
X1702274Y13908796D01*
X1696912Y13908824D01*
X1532082Y13869252D01*
X1381450Y13791505D01*
X1253711Y13680072D01*
X1222108Y13635106D01*
X1160739Y13547786D01*
X1156240Y13541385D01*
X1094665Y13383451D01*
X1072539Y13215388D01*
X404000Y13215388D01*
X404000Y14358388D01*
X5263539Y14358388D01*
X5264127Y14353062D01*
X5264127Y14353060D01*
X5280326Y14206332D01*
X5282140Y14189898D01*
X5340395Y14030710D01*
X5434940Y13890012D01*
X5438908Y13886402D01*
X5438910Y13886399D01*
X5553178Y13782423D01*
X5560317Y13775927D01*
X5565035Y13773366D01*
X5565034Y13773366D01*
X5705519Y13697089D01*
X5745859Y13651493D01*
X5747453Y13590634D01*
X5709554Y13542989D01*
X5704353Y13540058D01*
X5704216Y13539965D01*
X5699450Y13537505D01*
X5571711Y13426072D01*
X5539306Y13379964D01*
X5492976Y13314043D01*
X5474240Y13287385D01*
X5412665Y13129451D01*
X5390539Y12961388D01*
X5391127Y12956062D01*
X5391127Y12956060D01*
X5401317Y12863762D01*
X5409140Y12792898D01*
X5467395Y12633710D01*
X5561940Y12493012D01*
X5565908Y12489402D01*
X5565910Y12489399D01*
X5683346Y12382540D01*
X5687317Y12378927D01*
X5836288Y12298043D01*
X6000253Y12255027D01*
X6082925Y12253729D01*
X6164377Y12252449D01*
X6164380Y12252449D01*
X6169745Y12252365D01*
X6174975Y12253563D01*
X6174977Y12253563D01*
X6329750Y12289011D01*
X6329751Y12289011D01*
X6334980Y12290209D01*
X6409613Y12327746D01*
X6481627Y12363964D01*
X6481629Y12363966D01*
X6486418Y12366374D01*
X6615316Y12476464D01*
X6714234Y12614123D01*
X6777461Y12771403D01*
X6801345Y12939225D01*
X6801500Y12954000D01*
X6781135Y13122285D01*
X6721217Y13280855D01*
X6654360Y13378133D01*
X6628245Y13416131D01*
X6628241Y13416135D01*
X6625203Y13420556D01*
X6615055Y13429598D01*
X6502645Y13529751D01*
X6498638Y13533321D01*
X6480379Y13542989D01*
X6360025Y13606713D01*
X6319210Y13651884D01*
X6316979Y13712723D01*
X6352419Y13759498D01*
X6354624Y13760963D01*
X6359418Y13763374D01*
X6363496Y13766857D01*
X6363499Y13766859D01*
X6480504Y13866792D01*
X6488316Y13873464D01*
X6587234Y14011123D01*
X6650461Y14168403D01*
X6674345Y14336225D01*
X6674500Y14351000D01*
X6654135Y14519285D01*
X6594217Y14677855D01*
X6554874Y14735100D01*
X6501245Y14813131D01*
X6501241Y14813135D01*
X6498203Y14817556D01*
X6488055Y14826598D01*
X6375645Y14926751D01*
X6371638Y14930321D01*
X6359090Y14936965D01*
X6226572Y15007130D01*
X6226570Y15007131D01*
X6221829Y15009641D01*
X6211435Y15012252D01*
X6062622Y15049631D01*
X6062623Y15049631D01*
X6057423Y15050937D01*
X5979865Y15051343D01*
X5893275Y15051796D01*
X5893274Y15051796D01*
X5887912Y15051824D01*
X5723082Y15012252D01*
X5572450Y14934505D01*
X5444711Y14823072D01*
X5347240Y14684385D01*
X5285665Y14526451D01*
X5263539Y14358388D01*
X404000Y14358388D01*
X404000Y15247388D01*
X945539Y15247388D01*
X946127Y15242062D01*
X946127Y15242060D01*
X946355Y15240000D01*
X964140Y15078898D01*
X1022395Y14919710D01*
X1116940Y14779012D01*
X1120908Y14775402D01*
X1120910Y14775399D01*
X1235836Y14670824D01*
X1242317Y14664927D01*
X1391288Y14584043D01*
X1555253Y14541027D01*
X1637925Y14539729D01*
X1719377Y14538449D01*
X1719380Y14538449D01*
X1724745Y14538365D01*
X1729975Y14539563D01*
X1729977Y14539563D01*
X1884750Y14575011D01*
X1884751Y14575011D01*
X1889980Y14576209D01*
X1964613Y14613746D01*
X2036627Y14649964D01*
X2036629Y14649966D01*
X2041418Y14652374D01*
X2170316Y14762464D01*
X2269234Y14900123D01*
X2332461Y15057403D01*
X2356345Y15225225D01*
X2356500Y15240000D01*
X2336135Y15408285D01*
X2276217Y15566855D01*
X2201404Y15675709D01*
X2183245Y15702131D01*
X2183241Y15702135D01*
X2180203Y15706556D01*
X2170055Y15715598D01*
X2057645Y15815751D01*
X2053638Y15819321D01*
X2041090Y15825965D01*
X1908572Y15896130D01*
X1908570Y15896131D01*
X1903829Y15898641D01*
X1893435Y15901252D01*
X1744622Y15938631D01*
X1744623Y15938631D01*
X1739423Y15939937D01*
X1661865Y15940343D01*
X1575275Y15940796D01*
X1575274Y15940796D01*
X1569912Y15940824D01*
X1405082Y15901252D01*
X1254450Y15823505D01*
X1126711Y15712072D01*
X1029240Y15573385D01*
X967665Y15415451D01*
X945539Y15247388D01*
X404000Y15247388D01*
X404000Y17279388D01*
X1072539Y17279388D01*
X1073127Y17274062D01*
X1073127Y17274060D01*
X1073355Y17272000D01*
X1091140Y17110898D01*
X1149395Y16951710D01*
X1243940Y16811012D01*
X1247908Y16807402D01*
X1247910Y16807399D01*
X1365346Y16700540D01*
X1369317Y16696927D01*
X1518288Y16616043D01*
X1682253Y16573027D01*
X1764925Y16571729D01*
X1846377Y16570449D01*
X1846380Y16570449D01*
X1851745Y16570365D01*
X1856975Y16571563D01*
X1856977Y16571563D01*
X2011750Y16607011D01*
X2011751Y16607011D01*
X2016980Y16608209D01*
X2091613Y16645746D01*
X2163627Y16681964D01*
X2163629Y16681966D01*
X2168418Y16684374D01*
X2297316Y16794464D01*
X2396234Y16932123D01*
X2459461Y17089403D01*
X2483345Y17257225D01*
X2483500Y17272000D01*
X2463135Y17440285D01*
X2403217Y17598855D01*
X2363874Y17656100D01*
X2310245Y17734131D01*
X2310241Y17734135D01*
X2307203Y17738556D01*
X2297055Y17747598D01*
X2184645Y17847751D01*
X2180638Y17851321D01*
X2168090Y17857965D01*
X2035572Y17928130D01*
X2035570Y17928131D01*
X2030829Y17930641D01*
X2020435Y17933252D01*
X1871622Y17970631D01*
X1871623Y17970631D01*
X1866423Y17971937D01*
X1788865Y17972343D01*
X1702275Y17972796D01*
X1702274Y17972796D01*
X1696912Y17972824D01*
X1532082Y17933252D01*
X1381450Y17855505D01*
X1253711Y17744072D01*
X1156240Y17605385D01*
X1094665Y17447451D01*
X1072539Y17279388D01*
X404000Y17279388D01*
X404000Y21343388D01*
X970939Y21343388D01*
X989540Y21174898D01*
X1047795Y21015710D01*
X1142340Y20875012D01*
X1146308Y20871402D01*
X1146310Y20871399D01*
X1263746Y20764540D01*
X1267717Y20760927D01*
X1416688Y20680043D01*
X1580653Y20637027D01*
X1663325Y20635729D01*
X1744777Y20634449D01*
X1744780Y20634449D01*
X1750145Y20634365D01*
X1755375Y20635563D01*
X1755377Y20635563D01*
X1910150Y20671011D01*
X1910151Y20671011D01*
X1915380Y20672209D01*
X1990013Y20709746D01*
X2062027Y20745964D01*
X2062029Y20745966D01*
X2066818Y20748374D01*
X2070900Y20751860D01*
X2085321Y20764176D01*
X2143121Y20785500D01*
X8625110Y20785500D01*
X8682318Y20764678D01*
X8688043Y20759433D01*
X9441043Y20006433D01*
X9466771Y19951257D01*
X9451015Y19892452D01*
X9401145Y19857533D01*
X9378110Y19854500D01*
X2196083Y19854500D01*
X2136880Y19877047D01*
X2133845Y19879751D01*
X2133844Y19879751D01*
X2129838Y19883321D01*
X2091234Y19903761D01*
X1984772Y19960130D01*
X1984770Y19960131D01*
X1980029Y19962641D01*
X1969635Y19965252D01*
X1820822Y20002631D01*
X1820823Y20002631D01*
X1815623Y20003937D01*
X1738065Y20004343D01*
X1651475Y20004796D01*
X1651474Y20004796D01*
X1646112Y20004824D01*
X1481282Y19965252D01*
X1330650Y19887505D01*
X1202911Y19776072D01*
X1105440Y19637385D01*
X1043865Y19479451D01*
X1021739Y19311388D01*
X1022327Y19306062D01*
X1022327Y19306060D01*
X1026736Y19266128D01*
X1040340Y19142898D01*
X1098595Y18983710D01*
X1193140Y18843012D01*
X1197108Y18839402D01*
X1197110Y18839399D01*
X1314546Y18732540D01*
X1318517Y18728927D01*
X1467488Y18648043D01*
X1631453Y18605027D01*
X1714125Y18603729D01*
X1795577Y18602449D01*
X1795580Y18602449D01*
X1800945Y18602365D01*
X1806175Y18603563D01*
X1806177Y18603563D01*
X1960950Y18639011D01*
X1960951Y18639011D01*
X1966180Y18640209D01*
X2112747Y18713924D01*
X2112827Y18713964D01*
X2112829Y18713966D01*
X2117618Y18716374D01*
X2121700Y18719860D01*
X2136121Y18732176D01*
X2193921Y18753500D01*
X9172110Y18753500D01*
X9229318Y18732678D01*
X9235043Y18727433D01*
X20921464Y7041012D01*
X20946994Y6987844D01*
X20951073Y6950898D01*
X20952181Y6940857D01*
X21010436Y6781669D01*
X21104981Y6640971D01*
X21108949Y6637361D01*
X21108951Y6637358D01*
X21226387Y6530499D01*
X21230358Y6526886D01*
X21379329Y6446002D01*
X21543294Y6402986D01*
X21625966Y6401688D01*
X21707418Y6400408D01*
X21707421Y6400408D01*
X21712786Y6400324D01*
X21718016Y6401522D01*
X21718018Y6401522D01*
X21872791Y6436970D01*
X21872792Y6436970D01*
X21878021Y6438168D01*
X21973574Y6486226D01*
X22024668Y6511923D01*
X22024670Y6511925D01*
X22029459Y6514333D01*
X22158357Y6624423D01*
X22257275Y6762082D01*
X22295887Y6858131D01*
X22336544Y6903444D01*
X22396817Y6912022D01*
X22448501Y6879851D01*
X22462043Y6855521D01*
X22483549Y6796753D01*
X22483551Y6796749D01*
X22485395Y6791710D01*
X22579940Y6651012D01*
X22583908Y6647402D01*
X22583910Y6647399D01*
X22637626Y6598521D01*
X22705317Y6536927D01*
X22854288Y6456043D01*
X23018253Y6413027D01*
X23100925Y6411729D01*
X23182377Y6410449D01*
X23182380Y6410449D01*
X23187745Y6410365D01*
X23192975Y6411563D01*
X23192977Y6411563D01*
X23347750Y6447011D01*
X23347751Y6447011D01*
X23352980Y6448209D01*
X23491379Y6517816D01*
X23499627Y6521964D01*
X23499629Y6521966D01*
X23504418Y6524374D01*
X23633316Y6634464D01*
X23732234Y6772123D01*
X23795461Y6929403D01*
X23819345Y7097225D01*
X23819500Y7112000D01*
X23818606Y7119388D01*
X34854539Y7119388D01*
X34855127Y7114062D01*
X34855127Y7114060D01*
X34863192Y7041012D01*
X34873140Y6950898D01*
X34931395Y6791710D01*
X35025940Y6651012D01*
X35029908Y6647402D01*
X35029910Y6647399D01*
X35083626Y6598521D01*
X35151317Y6536927D01*
X35300288Y6456043D01*
X35464253Y6413027D01*
X35546925Y6411729D01*
X35628377Y6410449D01*
X35628380Y6410449D01*
X35633745Y6410365D01*
X35638975Y6411563D01*
X35638977Y6411563D01*
X35793750Y6447011D01*
X35793751Y6447011D01*
X35798980Y6448209D01*
X35937379Y6517816D01*
X35945627Y6521964D01*
X35945629Y6521966D01*
X35950418Y6524374D01*
X36079316Y6634464D01*
X36178234Y6772123D01*
X36241461Y6929403D01*
X36265345Y7097225D01*
X36265500Y7112000D01*
X36245135Y7280285D01*
X36185217Y7438855D01*
X36126292Y7524591D01*
X36092245Y7574131D01*
X36092241Y7574135D01*
X36089203Y7578556D01*
X36079055Y7587598D01*
X35966645Y7687751D01*
X35962638Y7691321D01*
X35950090Y7697965D01*
X35817572Y7768130D01*
X35817570Y7768131D01*
X35812829Y7770641D01*
X35802435Y7773252D01*
X35653622Y7810631D01*
X35653623Y7810631D01*
X35648423Y7811937D01*
X35570865Y7812343D01*
X35484275Y7812796D01*
X35484274Y7812796D01*
X35478912Y7812824D01*
X35314082Y7773252D01*
X35163450Y7695505D01*
X35035711Y7584072D01*
X34938240Y7445385D01*
X34876665Y7287451D01*
X34854539Y7119388D01*
X23818606Y7119388D01*
X23799135Y7280285D01*
X23739217Y7438855D01*
X23680292Y7524591D01*
X23646245Y7574131D01*
X23646241Y7574135D01*
X23643203Y7578556D01*
X23633055Y7587598D01*
X23520645Y7687751D01*
X23516638Y7691321D01*
X23504090Y7697965D01*
X23371572Y7768130D01*
X23371570Y7768131D01*
X23366829Y7770641D01*
X23356435Y7773252D01*
X23327164Y7780604D01*
X23213146Y7809244D01*
X23171896Y7832629D01*
X22304998Y8699527D01*
X37324613Y8699527D01*
X37325201Y8694201D01*
X37325201Y8694199D01*
X37329444Y8655771D01*
X37343214Y8531037D01*
X37401469Y8371849D01*
X37496014Y8231151D01*
X37499982Y8227541D01*
X37499984Y8227538D01*
X37594212Y8141797D01*
X37621391Y8117066D01*
X37770362Y8036182D01*
X37934327Y7993166D01*
X38016999Y7991868D01*
X38098451Y7990588D01*
X38098454Y7990588D01*
X38103819Y7990504D01*
X38109049Y7991702D01*
X38109051Y7991702D01*
X38263824Y8027150D01*
X38263825Y8027150D01*
X38269054Y8028348D01*
X38343687Y8065885D01*
X38415701Y8102103D01*
X38415703Y8102105D01*
X38420492Y8104513D01*
X38549390Y8214603D01*
X38648308Y8352262D01*
X38711535Y8509542D01*
X38735419Y8677364D01*
X38735574Y8692139D01*
X38715209Y8860424D01*
X38655291Y9018994D01*
X38615948Y9076239D01*
X38562319Y9154270D01*
X38562315Y9154274D01*
X38559277Y9158695D01*
X38549129Y9167737D01*
X38436719Y9267890D01*
X38432712Y9271460D01*
X38420164Y9278104D01*
X38287646Y9348269D01*
X38287644Y9348270D01*
X38282903Y9350780D01*
X38272509Y9353391D01*
X38123696Y9390770D01*
X38123697Y9390770D01*
X38118497Y9392076D01*
X38040939Y9392482D01*
X37954349Y9392935D01*
X37954348Y9392935D01*
X37948986Y9392963D01*
X37784156Y9353391D01*
X37633524Y9275644D01*
X37505785Y9164211D01*
X37408314Y9025524D01*
X37346739Y8867590D01*
X37324613Y8699527D01*
X22304998Y8699527D01*
X17553722Y13450803D01*
X17527994Y13505979D01*
X17543750Y13564784D01*
X17576664Y13593245D01*
X17623970Y13617037D01*
X17657627Y13633964D01*
X17657629Y13633966D01*
X17662418Y13636374D01*
X17791316Y13746464D01*
X17890234Y13884123D01*
X17927727Y13977388D01*
X45522539Y13977388D01*
X45523127Y13972062D01*
X45523127Y13972060D01*
X45534749Y13866792D01*
X45541140Y13808898D01*
X45599395Y13649710D01*
X45693940Y13509012D01*
X45697908Y13505402D01*
X45697910Y13505399D01*
X45791151Y13420556D01*
X45819317Y13394927D01*
X45968288Y13314043D01*
X46132253Y13271027D01*
X46214925Y13269729D01*
X46296377Y13268449D01*
X46296380Y13268449D01*
X46301745Y13268365D01*
X46306975Y13269563D01*
X46306977Y13269563D01*
X46461750Y13305011D01*
X46461751Y13305011D01*
X46466980Y13306209D01*
X46595714Y13370955D01*
X46613627Y13379964D01*
X46613629Y13379966D01*
X46618418Y13382374D01*
X46747316Y13492464D01*
X46846234Y13630123D01*
X46909461Y13787403D01*
X46933345Y13955225D01*
X46933500Y13970000D01*
X46913135Y14138285D01*
X46853217Y14296855D01*
X46813874Y14354100D01*
X46760245Y14432131D01*
X46760241Y14432135D01*
X46757203Y14436556D01*
X46747055Y14445598D01*
X46634645Y14545751D01*
X46630638Y14549321D01*
X46618090Y14555965D01*
X46485572Y14626130D01*
X46485570Y14626131D01*
X46480829Y14628641D01*
X46470435Y14631252D01*
X46372478Y14655857D01*
X46316423Y14669937D01*
X46238865Y14670343D01*
X46152275Y14670796D01*
X46152274Y14670796D01*
X46146912Y14670824D01*
X45982082Y14631252D01*
X45831450Y14553505D01*
X45703711Y14442072D01*
X45606240Y14303385D01*
X45544665Y14145451D01*
X45522539Y13977388D01*
X17927727Y13977388D01*
X17953461Y14041403D01*
X17977345Y14209225D01*
X17977500Y14224000D01*
X17957135Y14392285D01*
X17897217Y14550855D01*
X17843756Y14628641D01*
X17838153Y14636794D01*
X17822500Y14687204D01*
X17822500Y18803388D01*
X24186539Y18803388D01*
X24187127Y18798062D01*
X24187127Y18798060D01*
X24203689Y18648043D01*
X24205140Y18634898D01*
X24263395Y18475710D01*
X24357940Y18335012D01*
X24361908Y18331402D01*
X24361910Y18331399D01*
X24479346Y18224540D01*
X24483317Y18220927D01*
X24632288Y18140043D01*
X24796253Y18097027D01*
X24878925Y18095729D01*
X24960377Y18094449D01*
X24960380Y18094449D01*
X24965745Y18094365D01*
X24970975Y18095563D01*
X24970977Y18095563D01*
X25125750Y18131011D01*
X25125751Y18131011D01*
X25130980Y18132209D01*
X25205613Y18169746D01*
X25277627Y18205964D01*
X25277629Y18205966D01*
X25282418Y18208374D01*
X25411316Y18318464D01*
X25510234Y18456123D01*
X25573461Y18613403D01*
X25597345Y18781225D01*
X25597500Y18796000D01*
X25577135Y18964285D01*
X25517217Y19122855D01*
X25477874Y19180100D01*
X25424245Y19258131D01*
X25424241Y19258135D01*
X25421203Y19262556D01*
X25411357Y19271329D01*
X25298645Y19371751D01*
X25294638Y19375321D01*
X25149908Y19451952D01*
X25149572Y19452130D01*
X25149570Y19452131D01*
X25144829Y19454641D01*
X25134435Y19457252D01*
X25046056Y19479451D01*
X24980423Y19495937D01*
X24902865Y19496343D01*
X24816275Y19496796D01*
X24816274Y19496796D01*
X24810912Y19496824D01*
X24646082Y19457252D01*
X24495450Y19379505D01*
X24367711Y19268072D01*
X24349606Y19242311D01*
X24283485Y19148230D01*
X24270240Y19129385D01*
X24208665Y18971451D01*
X24186539Y18803388D01*
X17822500Y18803388D01*
X17822500Y19242311D01*
X17843322Y19299519D01*
X17848568Y19305244D01*
X23306543Y24763218D01*
X23361718Y24788946D01*
X23420523Y24773190D01*
X23443345Y24749926D01*
X23464505Y24718436D01*
X23518901Y24637486D01*
X23523888Y24630064D01*
X23527856Y24626454D01*
X23527858Y24626451D01*
X23637998Y24526231D01*
X23649265Y24515979D01*
X23798236Y24435095D01*
X23962201Y24392079D01*
X24044873Y24390781D01*
X24126325Y24389501D01*
X24126328Y24389501D01*
X24131693Y24389417D01*
X24136923Y24390615D01*
X24136925Y24390615D01*
X24291698Y24426063D01*
X24291699Y24426063D01*
X24296928Y24427261D01*
X24371561Y24464798D01*
X24443575Y24501016D01*
X24443577Y24501018D01*
X24448366Y24503426D01*
X24577264Y24613516D01*
X24620232Y24673312D01*
X24670524Y24707619D01*
X24731103Y24701573D01*
X24737308Y24697911D01*
X24737317Y24697927D01*
X24886288Y24617043D01*
X25050253Y24574027D01*
X25132925Y24572729D01*
X25214377Y24571449D01*
X25214380Y24571449D01*
X25219745Y24571365D01*
X25224975Y24572563D01*
X25224977Y24572563D01*
X25379750Y24608011D01*
X25379751Y24608011D01*
X25384980Y24609209D01*
X25472411Y24653182D01*
X25531627Y24682964D01*
X25531629Y24682966D01*
X25536418Y24685374D01*
X25665316Y24795464D01*
X25764234Y24933123D01*
X25827461Y25090403D01*
X25851345Y25258225D01*
X25851500Y25273000D01*
X25842789Y25344982D01*
X28124167Y25344982D01*
X28161486Y25101104D01*
X28238135Y24866595D01*
X28352056Y24647755D01*
X28372846Y24620065D01*
X28497997Y24453379D01*
X28498001Y24453375D01*
X28500190Y24450459D01*
X28502828Y24447938D01*
X28517692Y24433734D01*
X28678558Y24280007D01*
X28882371Y24140975D01*
X29106154Y24037099D01*
X29109671Y24036124D01*
X29109670Y24036124D01*
X29340380Y23972142D01*
X29340384Y23972141D01*
X29343897Y23971167D01*
X29347522Y23970780D01*
X29347525Y23970779D01*
X29544276Y23949752D01*
X29546634Y23949500D01*
X29686815Y23949500D01*
X29871887Y23964716D01*
X30111171Y24024820D01*
X30114515Y24026274D01*
X30114518Y24026275D01*
X30240296Y24080965D01*
X30337425Y24123198D01*
X30340487Y24125179D01*
X30340491Y24125181D01*
X30541499Y24255219D01*
X30544574Y24257208D01*
X30727053Y24423251D01*
X30796515Y24511205D01*
X30877701Y24614004D01*
X30877704Y24614009D01*
X30879963Y24616869D01*
X30999197Y24832861D01*
X31081553Y25065426D01*
X31086949Y25095716D01*
X31115380Y25255332D01*
X31124819Y25308320D01*
X31127833Y25555018D01*
X31090514Y25798896D01*
X31013865Y26033405D01*
X30899944Y26252245D01*
X30841350Y26330285D01*
X30754003Y26446621D01*
X30753999Y26446625D01*
X30751810Y26449541D01*
X30573442Y26619993D01*
X30369629Y26759025D01*
X30145846Y26862901D01*
X30098367Y26876068D01*
X29911620Y26927858D01*
X29911616Y26927859D01*
X29908103Y26928833D01*
X29904478Y26929220D01*
X29904475Y26929221D01*
X29707724Y26950248D01*
X29705366Y26950500D01*
X29565185Y26950500D01*
X29380113Y26935284D01*
X29140829Y26875180D01*
X29137485Y26873726D01*
X29137482Y26873725D01*
X29066599Y26842904D01*
X28914575Y26776802D01*
X28911513Y26774821D01*
X28911509Y26774819D01*
X28787826Y26694805D01*
X28707426Y26642792D01*
X28524947Y26476749D01*
X28501153Y26446621D01*
X28374299Y26285996D01*
X28374296Y26285991D01*
X28372037Y26283131D01*
X28252803Y26067139D01*
X28251583Y26063693D01*
X28172739Y25841045D01*
X28170447Y25834574D01*
X28127181Y25591680D01*
X28127136Y25588034D01*
X28127136Y25588029D01*
X28126777Y25558625D01*
X28124167Y25344982D01*
X25842789Y25344982D01*
X25831135Y25441285D01*
X25771217Y25599855D01*
X25728410Y25662139D01*
X25678245Y25735131D01*
X25678241Y25735135D01*
X25675203Y25739556D01*
X25663826Y25749693D01*
X25552645Y25848751D01*
X25548638Y25852321D01*
X25536090Y25858965D01*
X25403572Y25929130D01*
X25403570Y25929131D01*
X25398829Y25931641D01*
X25388435Y25934252D01*
X25239622Y25971631D01*
X25239623Y25971631D01*
X25234423Y25972937D01*
X25156865Y25973343D01*
X25070275Y25973796D01*
X25070274Y25973796D01*
X25064912Y25973824D01*
X24900082Y25934252D01*
X24749450Y25856505D01*
X24621711Y25745072D01*
X24588206Y25697399D01*
X24584102Y25691559D01*
X24534172Y25656727D01*
X24473533Y25662139D01*
X24463045Y25668183D01*
X24460586Y25670373D01*
X24420573Y25691559D01*
X24405657Y25699457D01*
X24364842Y25744629D01*
X24362611Y25805467D01*
X24384370Y25841045D01*
X27430758Y28887433D01*
X27485934Y28913161D01*
X27493691Y28913500D01*
X36867879Y28913500D01*
X36919477Y28893542D01*
X36920973Y28895647D01*
X36925351Y28892536D01*
X36929317Y28888927D01*
X37078288Y28808043D01*
X37242253Y28765027D01*
X37324925Y28763729D01*
X37406377Y28762449D01*
X37406380Y28762449D01*
X37411745Y28762365D01*
X37416975Y28763563D01*
X37416977Y28763563D01*
X37571750Y28799011D01*
X37571751Y28799011D01*
X37576980Y28800209D01*
X37651613Y28837746D01*
X37723627Y28873964D01*
X37723629Y28873966D01*
X37728418Y28876374D01*
X37857316Y28986464D01*
X37896227Y29040614D01*
X37946517Y29074919D01*
X38007095Y29068873D01*
X38049615Y29025302D01*
X38057500Y28988677D01*
X38057500Y26624924D01*
X38041315Y26573749D01*
X37989329Y26499781D01*
X37989327Y26499778D01*
X37986240Y26495385D01*
X37924665Y26337451D01*
X37902539Y26169388D01*
X37903127Y26164062D01*
X37903127Y26164060D01*
X37914208Y26063693D01*
X37921140Y26000898D01*
X37979395Y25841710D01*
X38073940Y25701012D01*
X38077908Y25697402D01*
X38077910Y25697399D01*
X38195346Y25590540D01*
X38199317Y25586927D01*
X38348288Y25506043D01*
X38510902Y25463381D01*
X38551249Y25440227D01*
X39848432Y24143043D01*
X39874160Y24087868D01*
X39874499Y24080111D01*
X39874499Y19751921D01*
X39858314Y19700746D01*
X39806328Y19626778D01*
X39806326Y19626775D01*
X39803239Y19622382D01*
X39741664Y19464448D01*
X39719538Y19296385D01*
X39720126Y19291059D01*
X39720126Y19291057D01*
X39736483Y19142898D01*
X39738139Y19127895D01*
X39739982Y19122858D01*
X39739983Y19122855D01*
X39764244Y19056560D01*
X39796394Y18968707D01*
X39890939Y18828009D01*
X39894907Y18824399D01*
X39894909Y18824396D01*
X40009792Y18719860D01*
X40016316Y18713924D01*
X40165287Y18633040D01*
X40329252Y18590024D01*
X40411924Y18588726D01*
X40493376Y18587446D01*
X40493379Y18587446D01*
X40498744Y18587362D01*
X40503974Y18588560D01*
X40503976Y18588560D01*
X40658749Y18624008D01*
X40658750Y18624008D01*
X40663979Y18625206D01*
X40738612Y18662743D01*
X40810626Y18698961D01*
X40810628Y18698963D01*
X40815417Y18701371D01*
X40944315Y18811461D01*
X41043233Y18949120D01*
X41106460Y19106400D01*
X41130344Y19274222D01*
X41130499Y19288997D01*
X41110134Y19457282D01*
X41050216Y19615852D01*
X40991152Y19701791D01*
X40975499Y19752201D01*
X40975499Y24334937D01*
X40975577Y24338665D01*
X40977780Y24391218D01*
X40978034Y24397278D01*
X40972519Y24420793D01*
X40967704Y24441323D01*
X40966177Y24449565D01*
X40960861Y24488372D01*
X40960859Y24488380D01*
X40960036Y24494386D01*
X40952755Y24511211D01*
X40947788Y24526231D01*
X40944988Y24538169D01*
X40943603Y24544075D01*
X40921800Y24583734D01*
X40918120Y24591248D01*
X40908273Y24614004D01*
X40900154Y24632765D01*
X40896335Y24637480D01*
X40896332Y24637486D01*
X40888620Y24647009D01*
X40879794Y24660143D01*
X40873212Y24672115D01*
X40873211Y24672116D01*
X40870964Y24676204D01*
X40862408Y24686117D01*
X40837012Y24711513D01*
X40830779Y24718436D01*
X40809083Y24745228D01*
X40805265Y24749943D01*
X40788254Y24762032D01*
X40776884Y24771641D01*
X40085143Y25463382D01*
X39325177Y26223347D01*
X39299754Y26275588D01*
X39293780Y26324955D01*
X39293135Y26330285D01*
X39233217Y26488855D01*
X39174153Y26574794D01*
X39158500Y26625204D01*
X39158500Y34671000D01*
X44604500Y34671000D01*
X44624882Y34412023D01*
X44685526Y34159422D01*
X44784939Y33919419D01*
X44786767Y33916436D01*
X44786769Y33916432D01*
X44845895Y33819948D01*
X44920672Y33697922D01*
X45089385Y33500385D01*
X45286922Y33331672D01*
X45356015Y33289332D01*
X45505432Y33197769D01*
X45505436Y33197767D01*
X45508419Y33195939D01*
X45748422Y33096526D01*
X45964377Y33044680D01*
X45971204Y33043041D01*
X46021970Y33009439D01*
X46039261Y32951067D01*
X46014985Y32895237D01*
X45971204Y32869959D01*
X45748422Y32816474D01*
X45508419Y32717061D01*
X45505436Y32715233D01*
X45505432Y32715231D01*
X45431622Y32670000D01*
X45286922Y32581328D01*
X45089385Y32412615D01*
X44920672Y32215078D01*
X44875623Y32141564D01*
X44840815Y32084762D01*
X44784939Y31993581D01*
X44685526Y31753578D01*
X44624882Y31500977D01*
X44604500Y31242000D01*
X44624882Y30983023D01*
X44685526Y30730422D01*
X44784939Y30490419D01*
X44920672Y30268922D01*
X45089385Y30071385D01*
X45286922Y29902672D01*
X45351297Y29863223D01*
X45505432Y29768769D01*
X45505436Y29768767D01*
X45508419Y29766939D01*
X45748422Y29667526D01*
X45895212Y29632285D01*
X45971204Y29614041D01*
X46021970Y29580439D01*
X46039261Y29522067D01*
X46014985Y29466237D01*
X45971204Y29440959D01*
X45748422Y29387474D01*
X45508419Y29288061D01*
X45505436Y29286233D01*
X45505432Y29286231D01*
X45439708Y29245955D01*
X45286922Y29152328D01*
X45089385Y28983615D01*
X44920672Y28786078D01*
X44908607Y28766389D01*
X44789191Y28571519D01*
X44784939Y28564581D01*
X44685526Y28324578D01*
X44624882Y28071977D01*
X44604500Y27813000D01*
X44624882Y27554023D01*
X44685526Y27301422D01*
X44784939Y27061419D01*
X44786767Y27058436D01*
X44786769Y27058432D01*
X44852910Y26950500D01*
X44920672Y26839922D01*
X45089385Y26642385D01*
X45286922Y26473672D01*
X45388977Y26411133D01*
X45505432Y26339769D01*
X45505436Y26339767D01*
X45508419Y26337939D01*
X45748422Y26238526D01*
X46001023Y26177882D01*
X46004504Y26177608D01*
X46194722Y26162637D01*
X46194734Y26162637D01*
X46196469Y26162500D01*
X46323531Y26162500D01*
X46325266Y26162637D01*
X46325278Y26162637D01*
X46515496Y26177608D01*
X46518977Y26177882D01*
X46771578Y26238526D01*
X47011581Y26337939D01*
X47014564Y26339767D01*
X47014568Y26339769D01*
X47131023Y26411133D01*
X47233078Y26473672D01*
X47430615Y26642385D01*
X47599328Y26839922D01*
X47667090Y26950500D01*
X47733231Y27058432D01*
X47733233Y27058436D01*
X47735061Y27061419D01*
X47834474Y27301422D01*
X47895118Y27554023D01*
X47915500Y27813000D01*
X47895118Y28071977D01*
X47834474Y28324578D01*
X47735061Y28564581D01*
X47730810Y28571519D01*
X47611393Y28766389D01*
X47599328Y28786078D01*
X47430615Y28983615D01*
X47233078Y29152328D01*
X47080292Y29245955D01*
X47014568Y29286231D01*
X47014564Y29286233D01*
X47011581Y29288061D01*
X46771578Y29387474D01*
X46548796Y29440959D01*
X46498030Y29474561D01*
X46480739Y29532933D01*
X46505015Y29588763D01*
X46548796Y29614041D01*
X46624788Y29632285D01*
X46771578Y29667526D01*
X47011581Y29766939D01*
X47014564Y29768767D01*
X47014568Y29768769D01*
X47168703Y29863223D01*
X47233078Y29902672D01*
X47430615Y30071385D01*
X47599328Y30268922D01*
X47735061Y30490419D01*
X47834474Y30730422D01*
X47895118Y30983023D01*
X47915500Y31242000D01*
X47895118Y31500977D01*
X47834474Y31753578D01*
X47735061Y31993581D01*
X47679186Y32084762D01*
X47644377Y32141564D01*
X47599328Y32215078D01*
X47430615Y32412615D01*
X47233078Y32581328D01*
X47088378Y32670000D01*
X47014568Y32715231D01*
X47014564Y32715233D01*
X47011581Y32717061D01*
X46771578Y32816474D01*
X46548796Y32869959D01*
X46498030Y32903561D01*
X46480739Y32961933D01*
X46505015Y33017763D01*
X46548796Y33043041D01*
X46555623Y33044680D01*
X46771578Y33096526D01*
X47011581Y33195939D01*
X47014564Y33197767D01*
X47014568Y33197769D01*
X47163985Y33289332D01*
X47233078Y33331672D01*
X47430615Y33500385D01*
X47599328Y33697922D01*
X47674105Y33819948D01*
X47733231Y33916432D01*
X47733233Y33916436D01*
X47735061Y33919419D01*
X47834474Y34159422D01*
X47895118Y34412023D01*
X47915500Y34671000D01*
X47895118Y34929977D01*
X47834474Y35182578D01*
X47735061Y35422581D01*
X47704122Y35473070D01*
X47633060Y35589032D01*
X47599328Y35644078D01*
X47430615Y35841615D01*
X47233078Y36010328D01*
X47114788Y36082816D01*
X47014568Y36144231D01*
X47014564Y36144233D01*
X47011581Y36146061D01*
X46771578Y36245474D01*
X46518977Y36306118D01*
X46339109Y36320274D01*
X46283711Y36345521D01*
X46257881Y36399676D01*
X46247255Y36358590D01*
X46197692Y36323237D01*
X46180891Y36320274D01*
X46001023Y36306118D01*
X45748422Y36245474D01*
X45508419Y36146061D01*
X45505436Y36144233D01*
X45505432Y36144231D01*
X45405212Y36082816D01*
X45286922Y36010328D01*
X45089385Y35841615D01*
X44920672Y35644078D01*
X44886940Y35589032D01*
X44815879Y35473070D01*
X44784939Y35422581D01*
X44685526Y35182578D01*
X44624882Y34929977D01*
X44604500Y34671000D01*
X39158500Y34671000D01*
X39158500Y38147000D01*
X44604500Y38147000D01*
X44624882Y37888023D01*
X44685526Y37635422D01*
X44784939Y37395419D01*
X44786767Y37392436D01*
X44786769Y37392432D01*
X44858133Y37275977D01*
X44920672Y37173922D01*
X45089385Y36976385D01*
X45286922Y36807672D01*
X45370259Y36756603D01*
X45505432Y36673769D01*
X45505436Y36673767D01*
X45508419Y36671939D01*
X45748422Y36572526D01*
X46001023Y36511882D01*
X46004504Y36511608D01*
X46180891Y36497726D01*
X46236289Y36472479D01*
X46262119Y36418324D01*
X46272745Y36459410D01*
X46322308Y36494763D01*
X46339109Y36497726D01*
X46515496Y36511608D01*
X46518977Y36511882D01*
X46771578Y36572526D01*
X47011581Y36671939D01*
X47014564Y36673767D01*
X47014568Y36673769D01*
X47149741Y36756603D01*
X47233078Y36807672D01*
X47430615Y36976385D01*
X47599328Y37173922D01*
X47661867Y37275977D01*
X47733231Y37392432D01*
X47733233Y37392436D01*
X47735061Y37395419D01*
X47834474Y37635422D01*
X47895118Y37888023D01*
X47915500Y38147000D01*
X47895118Y38405977D01*
X47834474Y38658578D01*
X47735061Y38898581D01*
X47720487Y38922365D01*
X47630425Y39069332D01*
X47599328Y39120078D01*
X47430615Y39317615D01*
X47233078Y39486328D01*
X47131023Y39548867D01*
X47014568Y39620231D01*
X47014564Y39620233D01*
X47011581Y39622061D01*
X46771578Y39721474D01*
X46518977Y39782118D01*
X46515496Y39782392D01*
X46325278Y39797363D01*
X46325266Y39797363D01*
X46323531Y39797500D01*
X46196469Y39797500D01*
X46194734Y39797363D01*
X46194722Y39797363D01*
X46004504Y39782392D01*
X46001023Y39782118D01*
X45748422Y39721474D01*
X45508419Y39622061D01*
X45505436Y39620233D01*
X45505432Y39620231D01*
X45388977Y39548867D01*
X45286922Y39486328D01*
X45089385Y39317615D01*
X44920672Y39120078D01*
X44889575Y39069332D01*
X44799514Y38922365D01*
X44784939Y38898581D01*
X44685526Y38658578D01*
X44624882Y38405977D01*
X44604500Y38147000D01*
X39158500Y38147000D01*
X39158500Y39574936D01*
X39158578Y39578664D01*
X39160781Y39631217D01*
X39161035Y39637277D01*
X39159650Y39643183D01*
X39150705Y39681322D01*
X39149178Y39689564D01*
X39143862Y39728371D01*
X39143860Y39728379D01*
X39143037Y39734385D01*
X39135756Y39751210D01*
X39130789Y39766230D01*
X39127989Y39778168D01*
X39126604Y39784074D01*
X39104801Y39823733D01*
X39101121Y39831247D01*
X39085567Y39867190D01*
X39083155Y39872764D01*
X39079336Y39877479D01*
X39079333Y39877485D01*
X39071621Y39887008D01*
X39062795Y39900142D01*
X39056213Y39912114D01*
X39056212Y39912115D01*
X39053965Y39916203D01*
X39045409Y39926116D01*
X39020013Y39951512D01*
X39013780Y39958435D01*
X38992084Y39985227D01*
X38988266Y39989942D01*
X38971255Y40002031D01*
X38959885Y40011640D01*
X37193452Y41778072D01*
X36659070Y42312454D01*
X36633341Y42367630D01*
X36649097Y42426435D01*
X36682012Y42454897D01*
X36687009Y42457410D01*
X36722106Y42475062D01*
X36851004Y42585152D01*
X36949922Y42722811D01*
X37013149Y42880091D01*
X37037033Y43047913D01*
X37037087Y43053000D01*
X37037157Y43059778D01*
X37037188Y43062688D01*
X37016823Y43230973D01*
X36956905Y43389543D01*
X36903745Y43466891D01*
X36863933Y43524819D01*
X36863929Y43524823D01*
X36860891Y43529244D01*
X36850743Y43538286D01*
X36738333Y43638439D01*
X36734326Y43642009D01*
X36729584Y43644520D01*
X36589260Y43718818D01*
X36589258Y43718819D01*
X36584517Y43721329D01*
X36574123Y43723940D01*
X36460862Y43752389D01*
X36420111Y43762625D01*
X36342553Y43763031D01*
X36255963Y43763484D01*
X36255962Y43763484D01*
X36250600Y43763512D01*
X36085770Y43723940D01*
X35935138Y43646193D01*
X35807399Y43534760D01*
X35788474Y43507832D01*
X35715305Y43403724D01*
X35665375Y43368892D01*
X35604736Y43374304D01*
X35579557Y43391967D01*
X35007176Y43964348D01*
X34981754Y44016589D01*
X34975780Y44065955D01*
X34975135Y44071285D01*
X34915217Y44229855D01*
X34838751Y44341114D01*
X34822245Y44365131D01*
X34822241Y44365135D01*
X34819203Y44369556D01*
X34809055Y44378598D01*
X34696645Y44478751D01*
X34692638Y44482321D01*
X34679223Y44489424D01*
X34547572Y44559130D01*
X34547570Y44559131D01*
X34542829Y44561641D01*
X34533673Y44563941D01*
X34383622Y44601631D01*
X34383623Y44601631D01*
X34378423Y44602937D01*
X34300865Y44603343D01*
X34214275Y44603796D01*
X34214274Y44603796D01*
X34208912Y44603824D01*
X34044082Y44564252D01*
X33893450Y44486505D01*
X33765711Y44375072D01*
X33741845Y44341114D01*
X33684578Y44259631D01*
X33668240Y44236385D01*
X33606665Y44078451D01*
X33584539Y43910388D01*
X33585127Y43905062D01*
X33585127Y43905060D01*
X33602417Y43748449D01*
X33603140Y43741898D01*
X33661395Y43582710D01*
X33755940Y43442012D01*
X33759908Y43438402D01*
X33759910Y43438399D01*
X33877346Y43331540D01*
X33881317Y43327927D01*
X34030288Y43247043D01*
X34148787Y43215955D01*
X34192900Y43204382D01*
X34233248Y43181228D01*
X36392592Y41021884D01*
X38031433Y39383042D01*
X38057161Y39327866D01*
X38057500Y39320109D01*
X38057500Y29940299D01*
X38036678Y29883091D01*
X37983955Y29852651D01*
X37924000Y29863223D01*
X37895153Y29889888D01*
X37877101Y29916155D01*
X37867203Y29930556D01*
X37740638Y30043321D01*
X37728090Y30049965D01*
X37595572Y30120130D01*
X37595570Y30120131D01*
X37590829Y30122641D01*
X37580435Y30125252D01*
X37489329Y30148136D01*
X37426423Y30163937D01*
X37348865Y30164343D01*
X37262275Y30164796D01*
X37262274Y30164796D01*
X37256912Y30164824D01*
X37092082Y30125252D01*
X37087315Y30122792D01*
X37087316Y30122792D01*
X36946215Y30049965D01*
X36946211Y30049963D01*
X36941450Y30047505D01*
X36928758Y30036433D01*
X36870251Y30014500D01*
X27502690Y30014500D01*
X27445482Y30035322D01*
X27415042Y30088045D01*
X27425614Y30148000D01*
X27439757Y30166433D01*
X29538758Y32265434D01*
X29593934Y32291162D01*
X29601691Y32291501D01*
X36029878Y32291501D01*
X36081476Y32271543D01*
X36082972Y32273648D01*
X36087350Y32270537D01*
X36091316Y32266928D01*
X36096029Y32264369D01*
X36134237Y32243624D01*
X36240287Y32186044D01*
X36404252Y32143028D01*
X36486924Y32141730D01*
X36568376Y32140450D01*
X36568379Y32140450D01*
X36573744Y32140366D01*
X36578974Y32141564D01*
X36578976Y32141564D01*
X36733749Y32177012D01*
X36733750Y32177012D01*
X36738979Y32178210D01*
X36844637Y32231350D01*
X36885626Y32251965D01*
X36885628Y32251967D01*
X36890417Y32254375D01*
X37019315Y32364465D01*
X37118233Y32502124D01*
X37181460Y32659404D01*
X37205344Y32827226D01*
X37205392Y32831753D01*
X37205468Y32839091D01*
X37205499Y32842001D01*
X37185134Y33010286D01*
X37125216Y33168856D01*
X37057587Y33267257D01*
X37032244Y33304132D01*
X37032240Y33304136D01*
X37029202Y33308557D01*
X37019577Y33317133D01*
X36906644Y33417752D01*
X36902637Y33421322D01*
X36890089Y33427966D01*
X36757571Y33498131D01*
X36757569Y33498132D01*
X36752828Y33500642D01*
X36743238Y33503051D01*
X36593621Y33540632D01*
X36593622Y33540632D01*
X36588422Y33541938D01*
X36510864Y33542344D01*
X36424274Y33542797D01*
X36424273Y33542797D01*
X36418911Y33542825D01*
X36254081Y33503253D01*
X36244157Y33498131D01*
X36108214Y33427966D01*
X36108210Y33427964D01*
X36103449Y33425506D01*
X36090757Y33414434D01*
X36032250Y33392501D01*
X29346865Y33392501D01*
X29343137Y33392579D01*
X29290584Y33394782D01*
X29284524Y33395036D01*
X29278620Y33393651D01*
X29278618Y33393651D01*
X29240479Y33384706D01*
X29232237Y33383179D01*
X29193430Y33377863D01*
X29193422Y33377861D01*
X29187416Y33377038D01*
X29170591Y33369757D01*
X29155572Y33364790D01*
X29137727Y33360605D01*
X29098068Y33338802D01*
X29090555Y33335123D01*
X29049037Y33317156D01*
X29047442Y33315865D01*
X28989285Y33304351D01*
X28935936Y33333682D01*
X28929556Y33341893D01*
X28837970Y33475152D01*
X28837966Y33475156D01*
X28834928Y33479577D01*
X28827284Y33486388D01*
X28712370Y33588772D01*
X28708363Y33592342D01*
X28695815Y33598986D01*
X28563297Y33669151D01*
X28563295Y33669152D01*
X28558554Y33671662D01*
X28548160Y33674273D01*
X28399347Y33711652D01*
X28399348Y33711652D01*
X28394148Y33712958D01*
X28316590Y33713364D01*
X28230000Y33713817D01*
X28229999Y33713817D01*
X28224637Y33713845D01*
X28059807Y33674273D01*
X27909175Y33596526D01*
X27781436Y33485093D01*
X27738382Y33423833D01*
X27691891Y33357683D01*
X27683965Y33346406D01*
X27622390Y33188472D01*
X27615370Y33135147D01*
X27614165Y33125996D01*
X27588859Y33074679D01*
X22014747Y27500567D01*
X21959571Y27474839D01*
X21951814Y27474500D01*
X9789048Y27474500D01*
X9785321Y27474578D01*
X9732783Y27476780D01*
X9726723Y27477034D01*
X9720818Y27475649D01*
X9720817Y27475649D01*
X9682685Y27466706D01*
X9674443Y27465179D01*
X9635631Y27459862D01*
X9635625Y27459860D01*
X9629615Y27459037D01*
X9612790Y27451756D01*
X9597773Y27446791D01*
X9585840Y27443992D01*
X9585834Y27443990D01*
X9579926Y27442604D01*
X9540267Y27420801D01*
X9532754Y27417122D01*
X9491236Y27399155D01*
X9486521Y27395336D01*
X9486515Y27395333D01*
X9476992Y27387621D01*
X9463858Y27378795D01*
X9451887Y27372214D01*
X9451883Y27372211D01*
X9447797Y27369965D01*
X9437884Y27361408D01*
X9412493Y27336017D01*
X9405570Y27329784D01*
X9374058Y27304266D01*
X9361968Y27287254D01*
X9352361Y27275885D01*
X6291119Y24214643D01*
X6248963Y24191035D01*
X6111509Y24158035D01*
X6104082Y24156252D01*
X5953450Y24078505D01*
X5825711Y23967072D01*
X5728240Y23828385D01*
X5666665Y23670451D01*
X5644539Y23502388D01*
X5645127Y23497062D01*
X5645127Y23497060D01*
X5657749Y23382732D01*
X5663140Y23333898D01*
X5721395Y23174710D01*
X5815940Y23034012D01*
X5819908Y23030402D01*
X5819910Y23030399D01*
X5937346Y22923540D01*
X5941317Y22919927D01*
X6090288Y22839043D01*
X6254253Y22796027D01*
X6336925Y22794729D01*
X6418377Y22793449D01*
X6418380Y22793449D01*
X6423745Y22793365D01*
X6428975Y22794563D01*
X6428977Y22794563D01*
X6583750Y22830011D01*
X6583751Y22830011D01*
X6588980Y22831209D01*
X6663613Y22868746D01*
X6735627Y22904964D01*
X6735629Y22904966D01*
X6740418Y22907374D01*
X6869316Y23017464D01*
X6968234Y23155123D01*
X7031461Y23312403D01*
X7041470Y23382732D01*
X7066649Y23433125D01*
X9980957Y26347433D01*
X10036133Y26373161D01*
X10043890Y26373500D01*
X21874910Y26373500D01*
X21932118Y26352678D01*
X21962558Y26299955D01*
X21951986Y26240000D01*
X21937843Y26221567D01*
X16039838Y20323562D01*
X16037148Y20320983D01*
X15993970Y20281279D01*
X15990776Y20276127D01*
X15970129Y20242827D01*
X15965379Y20235916D01*
X15941699Y20204720D01*
X15941698Y20204717D01*
X15938031Y20199887D01*
X15931284Y20182847D01*
X15924177Y20168715D01*
X15914515Y20153132D01*
X15912823Y20147308D01*
X15901890Y20109678D01*
X15899174Y20101747D01*
X15882525Y20059695D01*
X15881891Y20053659D01*
X15880609Y20041468D01*
X15877564Y20025945D01*
X15872449Y20008339D01*
X15871490Y19995279D01*
X15871490Y19959365D01*
X15871002Y19950062D01*
X15866764Y19909741D01*
X15867775Y19903764D01*
X15867775Y19903761D01*
X15870244Y19889167D01*
X15871490Y19874324D01*
X15871490Y15675709D01*
X15855305Y15624534D01*
X15803319Y15550566D01*
X15803317Y15550563D01*
X15800230Y15546170D01*
X15798280Y15541168D01*
X15753828Y15427154D01*
X15713647Y15381417D01*
X15653468Y15372208D01*
X15607974Y15396550D01*
X9286372Y21718152D01*
X9283792Y21720843D01*
X9248193Y21759557D01*
X9244089Y21764020D01*
X9205637Y21787861D01*
X9198726Y21792611D01*
X9167530Y21816291D01*
X9167527Y21816292D01*
X9162697Y21819959D01*
X9145657Y21826706D01*
X9131523Y21833814D01*
X9115942Y21843475D01*
X9072488Y21856100D01*
X9064557Y21858816D01*
X9055366Y21862455D01*
X9022505Y21875465D01*
X9008622Y21876924D01*
X9004278Y21877381D01*
X8988755Y21880426D01*
X8975624Y21884241D01*
X8975623Y21884241D01*
X8971149Y21885541D01*
X8958089Y21886500D01*
X8922175Y21886500D01*
X8912872Y21886988D01*
X8878586Y21890592D01*
X8878584Y21890592D01*
X8872551Y21891226D01*
X8866574Y21890215D01*
X8866571Y21890215D01*
X8851977Y21887746D01*
X8837134Y21886500D01*
X2145283Y21886500D01*
X2086080Y21909047D01*
X2083045Y21911751D01*
X2083044Y21911751D01*
X2079038Y21915321D01*
X2066490Y21921965D01*
X1933972Y21992130D01*
X1933970Y21992131D01*
X1929229Y21994641D01*
X1918835Y21997252D01*
X1770022Y22034631D01*
X1770023Y22034631D01*
X1764823Y22035937D01*
X1687265Y22036343D01*
X1600675Y22036796D01*
X1600674Y22036796D01*
X1595312Y22036824D01*
X1430482Y21997252D01*
X1279850Y21919505D01*
X1152111Y21808072D01*
X1054640Y21669385D01*
X993065Y21511451D01*
X970939Y21343388D01*
X404000Y21343388D01*
X404000Y28575000D01*
X2249500Y28575000D01*
X2269882Y28316023D01*
X2330526Y28063422D01*
X2429939Y27823419D01*
X2431767Y27820436D01*
X2431769Y27820432D01*
X2438457Y27809519D01*
X2565672Y27601922D01*
X2734385Y27404385D01*
X2931922Y27235672D01*
X3033977Y27173133D01*
X3150432Y27101769D01*
X3150436Y27101767D01*
X3153419Y27099939D01*
X3393422Y27000526D01*
X3646023Y26939882D01*
X3649504Y26939608D01*
X3839722Y26924637D01*
X3839734Y26924637D01*
X3841469Y26924500D01*
X3968531Y26924500D01*
X3970266Y26924637D01*
X3970278Y26924637D01*
X4160496Y26939608D01*
X4163977Y26939882D01*
X4416578Y27000526D01*
X4656581Y27099939D01*
X4659564Y27101767D01*
X4659568Y27101769D01*
X4776023Y27173133D01*
X4878078Y27235672D01*
X5075615Y27404385D01*
X5244328Y27601922D01*
X5371543Y27809519D01*
X5378231Y27820432D01*
X5378233Y27820436D01*
X5380061Y27823419D01*
X5479474Y28063422D01*
X5540118Y28316023D01*
X5560500Y28575000D01*
X5540118Y28833977D01*
X5479474Y29086578D01*
X5380061Y29326581D01*
X5342247Y29388289D01*
X5277008Y29494749D01*
X5244328Y29548078D01*
X5075615Y29745615D01*
X4878078Y29914328D01*
X4714612Y30014500D01*
X4659568Y30048231D01*
X4659564Y30048233D01*
X4656581Y30050061D01*
X4416578Y30149474D01*
X4163977Y30210118D01*
X4160496Y30210392D01*
X3970278Y30225363D01*
X3970266Y30225363D01*
X3968531Y30225500D01*
X3841469Y30225500D01*
X3839734Y30225363D01*
X3839722Y30225363D01*
X3649504Y30210392D01*
X3646023Y30210118D01*
X3605199Y30200317D01*
X3544710Y30207209D01*
X3502804Y30251369D01*
X3499087Y30312135D01*
X3535300Y30361074D01*
X3542639Y30365440D01*
X3596743Y30394208D01*
X3603957Y30399000D01*
X3750424Y30518457D01*
X3756565Y30524555D01*
X3877041Y30670185D01*
X3881886Y30677368D01*
X3971774Y30843613D01*
X3975136Y30851610D01*
X4012096Y30971009D01*
X4011660Y30979932D01*
X5195591Y30979932D01*
X5195804Y30976122D01*
X5231353Y30855336D01*
X5234600Y30847299D01*
X5324421Y30675489D01*
X5329169Y30668234D01*
X5450651Y30517140D01*
X5456711Y30510952D01*
X5605228Y30386331D01*
X5612382Y30381433D01*
X5782273Y30288036D01*
X5790236Y30284622D01*
X5975044Y30225997D01*
X5983510Y30224198D01*
X6134358Y30207277D01*
X6139318Y30207000D01*
X6450306Y30207000D01*
X6462329Y30211376D01*
X6466000Y30217734D01*
X6466000Y30970306D01*
X6464195Y30975266D01*
X6974000Y30975266D01*
X6974000Y30222694D01*
X6978376Y30210671D01*
X6984734Y30207000D01*
X7293809Y30207000D01*
X7298169Y30207213D01*
X7442280Y30221344D01*
X7450781Y30223027D01*
X7636388Y30279064D01*
X7644394Y30282365D01*
X7815577Y30373385D01*
X7822791Y30378178D01*
X7973040Y30500718D01*
X7979181Y30506816D01*
X8102772Y30656211D01*
X8107607Y30663379D01*
X8199826Y30833935D01*
X8203180Y30841913D01*
X8243141Y30971008D01*
X8242516Y30983787D01*
X8241420Y30984971D01*
X8237167Y30986000D01*
X6989694Y30986000D01*
X6977671Y30981624D01*
X6974000Y30975266D01*
X6464195Y30975266D01*
X6461624Y30982329D01*
X6455266Y30986000D01*
X5208591Y30986000D01*
X5196568Y30981624D01*
X5195591Y30979932D01*
X4011660Y30979932D01*
X4011471Y30983787D01*
X4010375Y30984971D01*
X4006122Y30986000D01*
X2809694Y30986000D01*
X2797671Y30981624D01*
X2794000Y30975266D01*
X2794000Y30247694D01*
X2798376Y30235671D01*
X2804734Y30232000D01*
X3088811Y30232000D01*
X3093173Y30232213D01*
X3152011Y30237982D01*
X3210978Y30222842D01*
X3246417Y30173340D01*
X3241746Y30112640D01*
X3194755Y30067183D01*
X3153419Y30050061D01*
X3150436Y30048233D01*
X3150432Y30048231D01*
X3095388Y30014500D01*
X2931922Y29914328D01*
X2734385Y29745615D01*
X2565672Y29548078D01*
X2532992Y29494749D01*
X2467754Y29388289D01*
X2429939Y29326581D01*
X2330526Y29086578D01*
X2269882Y28833977D01*
X2249500Y28575000D01*
X404000Y28575000D01*
X404000Y30979932D01*
X1066527Y30979932D01*
X1066740Y30976123D01*
X1099536Y30864693D01*
X1102778Y30856670D01*
X1190340Y30689179D01*
X1195087Y30681924D01*
X1313513Y30534632D01*
X1319573Y30528444D01*
X1464352Y30406959D01*
X1471506Y30402061D01*
X1637122Y30311014D01*
X1645085Y30307600D01*
X1825233Y30250453D01*
X1833716Y30248650D01*
X1979685Y30232278D01*
X1984649Y30232000D01*
X2270306Y30232000D01*
X2282329Y30236376D01*
X2286000Y30242734D01*
X2286000Y30970306D01*
X2281624Y30982329D01*
X2275266Y30986000D01*
X1079527Y30986000D01*
X1067504Y30981624D01*
X1066527Y30979932D01*
X404000Y30979932D01*
X404000Y31508991D01*
X1067904Y31508991D01*
X1068529Y31496213D01*
X1069625Y31495029D01*
X1073878Y31494000D01*
X2270306Y31494000D01*
X2282329Y31498376D01*
X2286000Y31504734D01*
X2286000Y32232306D01*
X2284195Y32237266D01*
X2794000Y32237266D01*
X2794000Y31509694D01*
X2798376Y31497671D01*
X2804734Y31494000D01*
X4000473Y31494000D01*
X4012496Y31498376D01*
X4013473Y31500068D01*
X4013260Y31503877D01*
X4011755Y31508992D01*
X5196859Y31508992D01*
X5197484Y31496213D01*
X5198580Y31495029D01*
X5202833Y31494000D01*
X8231409Y31494000D01*
X8243432Y31498376D01*
X8244409Y31500068D01*
X8244196Y31503878D01*
X8208647Y31624664D01*
X8205400Y31632701D01*
X8115579Y31804511D01*
X8110831Y31811766D01*
X7989349Y31962860D01*
X7983289Y31969048D01*
X7834772Y32093669D01*
X7827618Y32098567D01*
X7657727Y32191964D01*
X7649764Y32195378D01*
X7464956Y32254003D01*
X7456490Y32255802D01*
X7305642Y32272723D01*
X7300682Y32273000D01*
X6866549Y32273000D01*
X6809341Y32293822D01*
X6778901Y32346545D01*
X6783799Y32394763D01*
X6828631Y32507995D01*
X6828631Y32507997D01*
X6830692Y32513201D01*
X6832745Y32529448D01*
X6849798Y32664443D01*
X6850500Y32670000D01*
X6830692Y32826799D01*
X6823584Y32844753D01*
X6774571Y32968543D01*
X6772511Y32973746D01*
X6679615Y33101607D01*
X6626890Y33145225D01*
X6600100Y33167388D01*
X8171539Y33167388D01*
X8172127Y33162062D01*
X8172127Y33162060D01*
X8188883Y33010286D01*
X8190140Y32998898D01*
X8248395Y32839710D01*
X8342940Y32699012D01*
X8346908Y32695402D01*
X8346910Y32695399D01*
X8455517Y32596574D01*
X8468317Y32584927D01*
X8617288Y32504043D01*
X8781253Y32461027D01*
X8863925Y32459729D01*
X8945377Y32458449D01*
X8945380Y32458449D01*
X8950745Y32458365D01*
X8955975Y32459563D01*
X8955977Y32459563D01*
X9110750Y32495011D01*
X9110751Y32495011D01*
X9115980Y32496209D01*
X9222976Y32550022D01*
X9262627Y32569964D01*
X9262629Y32569966D01*
X9267418Y32572374D01*
X9396316Y32682464D01*
X9495234Y32820123D01*
X9558461Y32977403D01*
X9582345Y33145225D01*
X9582441Y33154388D01*
X12313539Y33154388D01*
X12314127Y33149062D01*
X12314127Y33149060D01*
X12330705Y32998898D01*
X12332140Y32985898D01*
X12390395Y32826710D01*
X12484940Y32686012D01*
X12488908Y32682402D01*
X12488910Y32682399D01*
X12602481Y32579057D01*
X12610317Y32571927D01*
X12759288Y32491043D01*
X12923253Y32448027D01*
X13005925Y32446729D01*
X13087377Y32445449D01*
X13087380Y32445449D01*
X13092745Y32445365D01*
X13097975Y32446563D01*
X13097977Y32446563D01*
X13252750Y32482011D01*
X13252751Y32482011D01*
X13257980Y32483209D01*
X13337917Y32523413D01*
X13404627Y32556964D01*
X13404629Y32556966D01*
X13409418Y32559374D01*
X13538316Y32669464D01*
X13637234Y32807123D01*
X13700461Y32964403D01*
X13724345Y33132225D01*
X13724500Y33147000D01*
X13704135Y33315285D01*
X13644217Y33473855D01*
X13597406Y33541966D01*
X13551245Y33609131D01*
X13551241Y33609135D01*
X13548203Y33613556D01*
X13538055Y33622598D01*
X13425645Y33722751D01*
X13421638Y33726321D01*
X13403828Y33735751D01*
X13276572Y33803130D01*
X13276570Y33803131D01*
X13271829Y33805641D01*
X13261435Y33808252D01*
X13112622Y33845631D01*
X13112623Y33845631D01*
X13107423Y33846937D01*
X13029865Y33847343D01*
X12943275Y33847796D01*
X12943274Y33847796D01*
X12937912Y33847824D01*
X12773082Y33808252D01*
X12622450Y33730505D01*
X12494711Y33619072D01*
X12477690Y33594853D01*
X12402867Y33488391D01*
X12397240Y33480385D01*
X12335665Y33322451D01*
X12313539Y33154388D01*
X9582441Y33154388D01*
X9582500Y33160000D01*
X9562135Y33328285D01*
X9502217Y33486855D01*
X9462874Y33544100D01*
X9409245Y33622131D01*
X9409241Y33622135D01*
X9406203Y33626556D01*
X9396055Y33635598D01*
X9283645Y33735751D01*
X9279638Y33739321D01*
X9267090Y33745965D01*
X9134572Y33816130D01*
X9134570Y33816131D01*
X9129829Y33818641D01*
X9119435Y33821252D01*
X9017178Y33846937D01*
X8965423Y33859937D01*
X8887865Y33860343D01*
X8801275Y33860796D01*
X8801274Y33860796D01*
X8795912Y33860824D01*
X8631082Y33821252D01*
X8480450Y33743505D01*
X8352711Y33632072D01*
X8342208Y33617128D01*
X8258576Y33498131D01*
X8255240Y33493385D01*
X8193665Y33335451D01*
X8171539Y33167388D01*
X6600100Y33167388D01*
X6562154Y33198780D01*
X6562150Y33198782D01*
X6557839Y33202349D01*
X6414835Y33269641D01*
X6409338Y33270690D01*
X6409337Y33270690D01*
X6265091Y33298207D01*
X6265087Y33298207D01*
X6259589Y33299256D01*
X6197214Y33295332D01*
X6107448Y33289684D01*
X6107447Y33289684D01*
X6101856Y33289332D01*
X6044482Y33270690D01*
X5956876Y33242225D01*
X5956875Y33242224D01*
X5951546Y33240493D01*
X5818104Y33155809D01*
X5709915Y33040599D01*
X5707218Y33035694D01*
X5707217Y33035692D01*
X5666668Y32961933D01*
X5633776Y32902103D01*
X5594472Y32749023D01*
X5594472Y32590977D01*
X5633776Y32437897D01*
X5636474Y32432989D01*
X5636475Y32432987D01*
X5676063Y32360978D01*
X5709915Y32299401D01*
X5717334Y32291501D01*
X5722505Y32285994D01*
X5746488Y32230037D01*
X5728892Y32171756D01*
X5699410Y32146487D01*
X5624423Y32106615D01*
X5617209Y32101822D01*
X5466960Y31979282D01*
X5460819Y31973184D01*
X5337228Y31823789D01*
X5332393Y31816621D01*
X5240174Y31646065D01*
X5236820Y31638087D01*
X5196859Y31508992D01*
X4011755Y31508992D01*
X3980464Y31615307D01*
X3977222Y31623330D01*
X3889660Y31790821D01*
X3884913Y31798076D01*
X3766487Y31945368D01*
X3760427Y31951556D01*
X3615648Y32073041D01*
X3608494Y32077939D01*
X3442878Y32168986D01*
X3434915Y32172400D01*
X3254767Y32229547D01*
X3246284Y32231350D01*
X3100315Y32247722D01*
X3095351Y32248000D01*
X2809694Y32248000D01*
X2797671Y32243624D01*
X2794000Y32237266D01*
X2284195Y32237266D01*
X2281624Y32244329D01*
X2275266Y32248000D01*
X1991189Y32248000D01*
X1986829Y32247787D01*
X1847578Y32234133D01*
X1839069Y32232448D01*
X1658149Y32177825D01*
X1650127Y32174519D01*
X1483257Y32085792D01*
X1476043Y32081000D01*
X1329576Y31961543D01*
X1323435Y31955445D01*
X1202959Y31809815D01*
X1198114Y31802632D01*
X1108226Y31636387D01*
X1104864Y31628390D01*
X1067904Y31508991D01*
X404000Y31508991D01*
X404000Y39619932D01*
X1066527Y39619932D01*
X1066740Y39616123D01*
X1099536Y39504693D01*
X1102778Y39496670D01*
X1190340Y39329179D01*
X1195087Y39321924D01*
X1313513Y39174632D01*
X1319573Y39168444D01*
X1464352Y39046959D01*
X1471506Y39042061D01*
X1637122Y38951014D01*
X1645085Y38947600D01*
X1825233Y38890453D01*
X1833716Y38888650D01*
X1979685Y38872278D01*
X1984649Y38872000D01*
X2270306Y38872000D01*
X2282329Y38876376D01*
X2286000Y38882734D01*
X2286000Y39610306D01*
X2284195Y39615266D01*
X2794000Y39615266D01*
X2794000Y38887694D01*
X2798376Y38875671D01*
X2804734Y38872000D01*
X3088811Y38872000D01*
X3093171Y38872213D01*
X3232422Y38885867D01*
X3240931Y38887552D01*
X3421851Y38942175D01*
X3429873Y38945481D01*
X3596743Y39034208D01*
X3603957Y39039000D01*
X3750424Y39158457D01*
X3756565Y39164555D01*
X3877041Y39310185D01*
X3881886Y39317368D01*
X3971774Y39483613D01*
X3975136Y39491610D01*
X4012096Y39611009D01*
X4011660Y39619932D01*
X5195591Y39619932D01*
X5195804Y39616122D01*
X5231353Y39495336D01*
X5234600Y39487299D01*
X5324421Y39315489D01*
X5329169Y39308234D01*
X5450651Y39157140D01*
X5456711Y39150952D01*
X5605228Y39026331D01*
X5612382Y39021433D01*
X5700544Y38972966D01*
X5740645Y38927160D01*
X5741920Y38866294D01*
X5722547Y38834051D01*
X5709915Y38820599D01*
X5707218Y38815694D01*
X5707217Y38815692D01*
X5673162Y38753746D01*
X5633776Y38682103D01*
X5594472Y38529023D01*
X5594472Y38370977D01*
X5633776Y38217897D01*
X5636474Y38212989D01*
X5636475Y38212987D01*
X5705107Y38088147D01*
X5709915Y38079401D01*
X5818104Y37964191D01*
X5822833Y37961190D01*
X5943480Y37884626D01*
X5951546Y37879507D01*
X5956875Y37877776D01*
X5956876Y37877775D01*
X6032422Y37853229D01*
X6101856Y37830668D01*
X6107447Y37830316D01*
X6107448Y37830316D01*
X6197214Y37824668D01*
X6259589Y37820744D01*
X6265087Y37821793D01*
X6265091Y37821793D01*
X6409337Y37849310D01*
X6409338Y37849310D01*
X6414835Y37850359D01*
X6557839Y37917651D01*
X6562150Y37921218D01*
X6562154Y37921220D01*
X6675303Y38014826D01*
X6679615Y38018393D01*
X6744273Y38107388D01*
X8692539Y38107388D01*
X8693127Y38102062D01*
X8693127Y38102060D01*
X8708348Y37964191D01*
X8711140Y37938898D01*
X8769395Y37779710D01*
X8863940Y37639012D01*
X8867908Y37635402D01*
X8867910Y37635399D01*
X8985346Y37528540D01*
X8989317Y37524927D01*
X9138288Y37444043D01*
X9302253Y37401027D01*
X9384925Y37399729D01*
X9466377Y37398449D01*
X9466380Y37398449D01*
X9471745Y37398365D01*
X9476975Y37399563D01*
X9476977Y37399563D01*
X9631750Y37435011D01*
X9631751Y37435011D01*
X9636980Y37436209D01*
X9713947Y37474919D01*
X9783627Y37509964D01*
X9783629Y37509966D01*
X9788418Y37512374D01*
X9917316Y37622464D01*
X10016234Y37760123D01*
X10079461Y37917403D01*
X10103345Y38085225D01*
X10103500Y38100000D01*
X10083135Y38268285D01*
X10023217Y38426855D01*
X9983874Y38484100D01*
X9930245Y38562131D01*
X9930241Y38562135D01*
X9927203Y38566556D01*
X9917055Y38575598D01*
X9804645Y38675751D01*
X9800638Y38679321D01*
X9788090Y38685965D01*
X9655572Y38756130D01*
X9655570Y38756131D01*
X9650829Y38758641D01*
X9640435Y38761252D01*
X9491622Y38798631D01*
X9491623Y38798631D01*
X9486423Y38799937D01*
X9408865Y38800343D01*
X9322275Y38800796D01*
X9322274Y38800796D01*
X9316912Y38800824D01*
X9152082Y38761252D01*
X9001450Y38683505D01*
X8873711Y38572072D01*
X8847266Y38534444D01*
X8784012Y38444443D01*
X8776240Y38433385D01*
X8714665Y38275451D01*
X8692539Y38107388D01*
X6744273Y38107388D01*
X6772511Y38146254D01*
X6830692Y38293201D01*
X6846943Y38421839D01*
X6849798Y38444443D01*
X6850500Y38450000D01*
X6830692Y38606799D01*
X6803025Y38676677D01*
X6783799Y38725237D01*
X6782099Y38786093D01*
X6819914Y38833804D01*
X6866549Y38847000D01*
X7293809Y38847000D01*
X7298169Y38847213D01*
X7442280Y38861344D01*
X7450781Y38863027D01*
X7636388Y38919064D01*
X7644394Y38922365D01*
X7815577Y39013385D01*
X7822791Y39018178D01*
X7973040Y39140718D01*
X7979181Y39146816D01*
X8102772Y39296211D01*
X8107607Y39303379D01*
X8199826Y39473935D01*
X8203180Y39481913D01*
X8243141Y39611008D01*
X8242516Y39623787D01*
X8241420Y39624971D01*
X8237167Y39626000D01*
X5208591Y39626000D01*
X5196568Y39621624D01*
X5195591Y39619932D01*
X4011660Y39619932D01*
X4011471Y39623787D01*
X4010375Y39624971D01*
X4006122Y39626000D01*
X2809694Y39626000D01*
X2797671Y39621624D01*
X2794000Y39615266D01*
X2284195Y39615266D01*
X2281624Y39622329D01*
X2275266Y39626000D01*
X1079527Y39626000D01*
X1067504Y39621624D01*
X1066527Y39619932D01*
X404000Y39619932D01*
X404000Y40148991D01*
X1067904Y40148991D01*
X1068529Y40136213D01*
X1069625Y40135029D01*
X1073878Y40134000D01*
X2270306Y40134000D01*
X2282329Y40138376D01*
X2286000Y40144734D01*
X2286000Y40872306D01*
X2284195Y40877266D01*
X2794000Y40877266D01*
X2794000Y40149694D01*
X2798376Y40137671D01*
X2804734Y40134000D01*
X4000473Y40134000D01*
X4012496Y40138376D01*
X4013473Y40140068D01*
X4013260Y40143877D01*
X4011755Y40148992D01*
X5196859Y40148992D01*
X5197484Y40136213D01*
X5198580Y40135029D01*
X5202833Y40134000D01*
X6450306Y40134000D01*
X6462329Y40138376D01*
X6466000Y40144734D01*
X6466000Y40897306D01*
X6464195Y40902266D01*
X6974000Y40902266D01*
X6974000Y40149694D01*
X6978376Y40137671D01*
X6984734Y40134000D01*
X8231409Y40134000D01*
X8243432Y40138376D01*
X8244409Y40140068D01*
X8244196Y40143878D01*
X8208647Y40264664D01*
X8205400Y40272701D01*
X8161126Y40357388D01*
X9694539Y40357388D01*
X9695127Y40352062D01*
X9695127Y40352060D01*
X9711372Y40204916D01*
X9713140Y40188898D01*
X9771395Y40029710D01*
X9865940Y39889012D01*
X9869908Y39885402D01*
X9869910Y39885399D01*
X9983113Y39782392D01*
X9991317Y39774927D01*
X10140288Y39694043D01*
X10304253Y39651027D01*
X10386925Y39649729D01*
X10468377Y39648449D01*
X10468380Y39648449D01*
X10473745Y39648365D01*
X10478975Y39649563D01*
X10478977Y39649563D01*
X10633750Y39685011D01*
X10633751Y39685011D01*
X10638980Y39686209D01*
X10768209Y39751204D01*
X10785627Y39759964D01*
X10785629Y39759966D01*
X10790418Y39762374D01*
X10919316Y39872464D01*
X10970227Y39943314D01*
X11020519Y39977621D01*
X11081098Y39971575D01*
X11118538Y39937568D01*
X11120845Y39932236D01*
X11124664Y39927521D01*
X11124667Y39927515D01*
X11132379Y39917992D01*
X11141205Y39904858D01*
X11147786Y39892887D01*
X11147789Y39892883D01*
X11150035Y39888797D01*
X11158592Y39878884D01*
X11183983Y39853493D01*
X11190216Y39846570D01*
X11215734Y39815058D01*
X11232746Y39802968D01*
X11244115Y39793361D01*
X12775522Y38261954D01*
X12801250Y38206778D01*
X12785494Y38147973D01*
X12735624Y38113054D01*
X12712125Y38110022D01*
X12590427Y38110659D01*
X12564275Y38110796D01*
X12564274Y38110796D01*
X12558912Y38110824D01*
X12394082Y38071252D01*
X12243450Y37993505D01*
X12115711Y37882072D01*
X12080800Y37832399D01*
X12030004Y37760123D01*
X12018240Y37743385D01*
X11956665Y37585451D01*
X11934539Y37417388D01*
X11935127Y37412062D01*
X11935127Y37412060D01*
X11935355Y37410000D01*
X11953140Y37248898D01*
X12011395Y37089710D01*
X12105940Y36949012D01*
X12109908Y36945402D01*
X12109910Y36945399D01*
X12227346Y36838540D01*
X12231317Y36834927D01*
X12380288Y36754043D01*
X12544253Y36711027D01*
X12626925Y36709729D01*
X12708377Y36708449D01*
X12708380Y36708449D01*
X12713745Y36708365D01*
X12718975Y36709563D01*
X12718977Y36709563D01*
X12873750Y36745011D01*
X12873751Y36745011D01*
X12878980Y36746209D01*
X12997554Y36805845D01*
X13025627Y36819964D01*
X13025629Y36819966D01*
X13030418Y36822374D01*
X13159316Y36932464D01*
X13258234Y37070123D01*
X13321461Y37227403D01*
X13345345Y37395225D01*
X13345500Y37410000D01*
X13341380Y37444043D01*
X13337644Y37474919D01*
X13351442Y37534214D01*
X13400127Y37570767D01*
X13460917Y37567475D01*
X13488932Y37548544D01*
X14409433Y36628043D01*
X14435161Y36572867D01*
X14435500Y36565110D01*
X14435500Y32776890D01*
X14414678Y32719682D01*
X14409433Y32713957D01*
X11498119Y29802643D01*
X11455963Y29779035D01*
X11326244Y29747892D01*
X11311082Y29744252D01*
X11160450Y29666505D01*
X11032711Y29555072D01*
X11009515Y29522067D01*
X10938330Y29420781D01*
X10935240Y29416385D01*
X10873665Y29258451D01*
X10851539Y29090388D01*
X10852127Y29085062D01*
X10852127Y29085060D01*
X10864749Y28970732D01*
X10870140Y28921898D01*
X10928395Y28762710D01*
X11022940Y28622012D01*
X11026908Y28618402D01*
X11026910Y28618399D01*
X11144346Y28511540D01*
X11148317Y28507927D01*
X11297288Y28427043D01*
X11461253Y28384027D01*
X11543925Y28382729D01*
X11625377Y28381449D01*
X11625380Y28381449D01*
X11630745Y28381365D01*
X11635975Y28382563D01*
X11635977Y28382563D01*
X11790750Y28418011D01*
X11790751Y28418011D01*
X11795980Y28419209D01*
X11870613Y28456746D01*
X11942627Y28492964D01*
X11942629Y28492966D01*
X11947418Y28495374D01*
X12076316Y28605464D01*
X12175234Y28743123D01*
X12238461Y28900403D01*
X12248470Y28970732D01*
X12273649Y29021125D01*
X15368152Y32115628D01*
X15370843Y32118208D01*
X15409557Y32153807D01*
X15414020Y32157911D01*
X15437861Y32196363D01*
X15442611Y32203274D01*
X15466291Y32234470D01*
X15466292Y32234473D01*
X15469959Y32239303D01*
X15472193Y32244945D01*
X15472195Y32244949D01*
X15476706Y32256343D01*
X15483817Y32270482D01*
X15490276Y32280899D01*
X15493475Y32286058D01*
X15495167Y32291884D01*
X15495169Y32291887D01*
X15506097Y32329503D01*
X15508813Y32337436D01*
X15523232Y32373853D01*
X15523233Y32373856D01*
X15525465Y32379494D01*
X15527381Y32397722D01*
X15530426Y32413245D01*
X15534241Y32426376D01*
X15534241Y32426377D01*
X15535541Y32430851D01*
X15536500Y32443911D01*
X15536500Y32479824D01*
X15536988Y32489127D01*
X15540592Y32523413D01*
X15540592Y32523415D01*
X15541226Y32529448D01*
X15537746Y32550023D01*
X15536500Y32564865D01*
X15536500Y36302109D01*
X15557322Y36359317D01*
X15610045Y36389757D01*
X15670000Y36379185D01*
X15688433Y36365042D01*
X15806433Y36247042D01*
X15832161Y36191866D01*
X15832500Y36184109D01*
X15832500Y29545924D01*
X15816315Y29494749D01*
X15764329Y29420781D01*
X15764327Y29420778D01*
X15761240Y29416385D01*
X15699665Y29258451D01*
X15677539Y29090388D01*
X15678127Y29085062D01*
X15678127Y29085060D01*
X15690749Y28970732D01*
X15696140Y28921898D01*
X15754395Y28762710D01*
X15848940Y28622012D01*
X15852908Y28618402D01*
X15852910Y28618399D01*
X15970346Y28511540D01*
X15974317Y28507927D01*
X16123288Y28427043D01*
X16287253Y28384027D01*
X16369925Y28382729D01*
X16451377Y28381449D01*
X16451380Y28381449D01*
X16456745Y28381365D01*
X16461975Y28382563D01*
X16461977Y28382563D01*
X16616750Y28418011D01*
X16616751Y28418011D01*
X16621980Y28419209D01*
X16696613Y28456746D01*
X16768627Y28492964D01*
X16768629Y28492966D01*
X16773418Y28495374D01*
X16902316Y28605464D01*
X17001234Y28743123D01*
X17064461Y28900403D01*
X17088345Y29068225D01*
X17088500Y29083000D01*
X17068135Y29251285D01*
X17008217Y29409855D01*
X16949153Y29495794D01*
X16933500Y29546204D01*
X16933500Y33486388D01*
X17654516Y33486388D01*
X17655104Y33481062D01*
X17655104Y33481060D01*
X17672063Y33327449D01*
X17673117Y33317898D01*
X17731372Y33158710D01*
X17825917Y33018012D01*
X17829886Y33014400D01*
X17831825Y33012154D01*
X17853442Y32955242D01*
X17833629Y32902519D01*
X17835688Y32901072D01*
X17773162Y32812106D01*
X17738217Y32762385D01*
X17676642Y32604451D01*
X17654516Y32436388D01*
X17655104Y32431062D01*
X17655104Y32431060D01*
X17671682Y32280899D01*
X17673117Y32267898D01*
X17731372Y32108710D01*
X17825917Y31968012D01*
X17829885Y31964402D01*
X17829887Y31964399D01*
X17947323Y31857540D01*
X17951294Y31853927D01*
X18100265Y31773043D01*
X18264230Y31730027D01*
X18346902Y31728729D01*
X18428354Y31727449D01*
X18428357Y31727449D01*
X18433722Y31727365D01*
X18438952Y31728563D01*
X18438954Y31728563D01*
X18593727Y31764011D01*
X18593728Y31764011D01*
X18598957Y31765209D01*
X18715431Y31823789D01*
X18745604Y31838964D01*
X18745606Y31838966D01*
X18750395Y31841374D01*
X18879293Y31951464D01*
X18978211Y32089123D01*
X19041438Y32246403D01*
X19065322Y32414225D01*
X19065477Y32429000D01*
X19045112Y32597285D01*
X18985194Y32755855D01*
X18889180Y32895556D01*
X18887856Y32896735D01*
X18866105Y32952245D01*
X18882804Y33006350D01*
X18975077Y33134762D01*
X18978211Y33139123D01*
X19041438Y33296403D01*
X19065322Y33464225D01*
X19065371Y33468839D01*
X19065423Y33473855D01*
X19065477Y33479000D01*
X19045112Y33647285D01*
X18985194Y33805855D01*
X18945851Y33863100D01*
X18892222Y33941131D01*
X18892218Y33941135D01*
X18889180Y33945556D01*
X18879032Y33954598D01*
X18766622Y34054751D01*
X18762615Y34058321D01*
X18750067Y34064965D01*
X18617549Y34135130D01*
X18617547Y34135131D01*
X18612806Y34137641D01*
X18602412Y34140252D01*
X18453599Y34177631D01*
X18453600Y34177631D01*
X18448400Y34178937D01*
X18370842Y34179343D01*
X18284252Y34179796D01*
X18284251Y34179796D01*
X18278889Y34179824D01*
X18114059Y34140252D01*
X17963427Y34062505D01*
X17835688Y33951072D01*
X17815716Y33922655D01*
X17762501Y33846937D01*
X17738217Y33812385D01*
X17676642Y33654451D01*
X17654516Y33486388D01*
X16933500Y33486388D01*
X16933500Y36187108D01*
X16954322Y36244316D01*
X17007045Y36274756D01*
X17067000Y36264184D01*
X17085433Y36250041D01*
X18958625Y34376849D01*
X18961204Y34374159D01*
X19000908Y34330981D01*
X19011990Y34324110D01*
X19039360Y34307140D01*
X19046271Y34302390D01*
X19077467Y34278710D01*
X19077470Y34278709D01*
X19082300Y34275042D01*
X19087942Y34272808D01*
X19087946Y34272806D01*
X19099340Y34268295D01*
X19113480Y34261184D01*
X19129055Y34251526D01*
X19134881Y34249834D01*
X19134884Y34249832D01*
X19172500Y34238904D01*
X19180433Y34236188D01*
X19216850Y34221769D01*
X19216853Y34221768D01*
X19222491Y34219536D01*
X19234382Y34218286D01*
X19240719Y34217620D01*
X19256242Y34214575D01*
X19273848Y34209460D01*
X19286908Y34208501D01*
X19322821Y34208501D01*
X19332124Y34208013D01*
X19366410Y34204409D01*
X19366412Y34204409D01*
X19372445Y34203775D01*
X19378422Y34204786D01*
X19378425Y34204786D01*
X19393019Y34207255D01*
X19407862Y34208501D01*
X20475109Y34208501D01*
X20532317Y34187679D01*
X20538042Y34182434D01*
X23031423Y31689053D01*
X23056953Y31635886D01*
X23062140Y31588898D01*
X23120395Y31429710D01*
X23214940Y31289012D01*
X23218908Y31285402D01*
X23218910Y31285399D01*
X23336346Y31178540D01*
X23340317Y31174927D01*
X23489288Y31094043D01*
X23653253Y31051027D01*
X23735925Y31049729D01*
X23817377Y31048449D01*
X23817380Y31048449D01*
X23822745Y31048365D01*
X23827975Y31049563D01*
X23827977Y31049563D01*
X23982750Y31085011D01*
X23982751Y31085011D01*
X23987980Y31086209D01*
X24062613Y31123746D01*
X24134627Y31159964D01*
X24134629Y31159966D01*
X24139418Y31162374D01*
X24268316Y31272464D01*
X24367234Y31410123D01*
X24430461Y31567403D01*
X24436967Y31613116D01*
X24465642Y31666819D01*
X24526477Y31689564D01*
X24546278Y31689253D01*
X24585600Y31688635D01*
X24585603Y31688635D01*
X24590968Y31688551D01*
X24596198Y31689749D01*
X24596200Y31689749D01*
X24750973Y31725197D01*
X24750974Y31725197D01*
X24756203Y31726395D01*
X24854043Y31775603D01*
X24902850Y31800150D01*
X24902852Y31800152D01*
X24907641Y31802560D01*
X25036539Y31912650D01*
X25135457Y32050309D01*
X25198684Y32207589D01*
X25222568Y32375411D01*
X25222723Y32390186D01*
X25202358Y32558471D01*
X25142440Y32717041D01*
X25101307Y32776890D01*
X25049468Y32852317D01*
X25049464Y32852321D01*
X25046426Y32856742D01*
X25023557Y32877118D01*
X24923868Y32965937D01*
X24919861Y32969507D01*
X24911855Y32973746D01*
X24774795Y33046316D01*
X24774793Y33046317D01*
X24770052Y33048827D01*
X24764849Y33050134D01*
X24616368Y33087430D01*
X24575118Y33110816D01*
X22372545Y35313388D01*
X23932539Y35313388D01*
X23933127Y35308062D01*
X23933127Y35308060D01*
X23946624Y35185807D01*
X23951140Y35144898D01*
X24009395Y34985710D01*
X24103940Y34845012D01*
X24107908Y34841402D01*
X24107910Y34841399D01*
X24166340Y34788232D01*
X24229317Y34730927D01*
X24378288Y34650043D01*
X24542253Y34607027D01*
X24624925Y34605729D01*
X24706377Y34604449D01*
X24706380Y34604449D01*
X24711745Y34604365D01*
X24716975Y34605563D01*
X24716977Y34605563D01*
X24871750Y34641011D01*
X24871751Y34641011D01*
X24876980Y34642209D01*
X25011655Y34709943D01*
X25023627Y34715964D01*
X25023629Y34715966D01*
X25028418Y34718374D01*
X25157316Y34828464D01*
X25256234Y34966123D01*
X25319461Y35123403D01*
X25343345Y35291225D01*
X25343500Y35306000D01*
X25323135Y35474285D01*
X25263217Y35632855D01*
X25223874Y35690100D01*
X25170245Y35768131D01*
X25170241Y35768135D01*
X25167203Y35772556D01*
X25157055Y35781598D01*
X25044645Y35881751D01*
X25040638Y35885321D01*
X24933328Y35942139D01*
X24895572Y35962130D01*
X24895570Y35962131D01*
X24890829Y35964641D01*
X24880435Y35967252D01*
X24797753Y35988020D01*
X24726423Y36005937D01*
X24648865Y36006343D01*
X24562275Y36006796D01*
X24562274Y36006796D01*
X24556912Y36006824D01*
X24392082Y35967252D01*
X24241450Y35889505D01*
X24113711Y35778072D01*
X24016240Y35639385D01*
X23954665Y35481451D01*
X23932539Y35313388D01*
X22372545Y35313388D01*
X21743794Y35942139D01*
X21741213Y35944830D01*
X21705602Y35983557D01*
X21701498Y35988020D01*
X21663046Y36011861D01*
X21656135Y36016611D01*
X21624939Y36040291D01*
X21624936Y36040292D01*
X21620106Y36043959D01*
X21603066Y36050706D01*
X21588932Y36057814D01*
X21573351Y36067475D01*
X21529897Y36080100D01*
X21521966Y36082816D01*
X21512775Y36086455D01*
X21479914Y36099465D01*
X21466031Y36100924D01*
X21461687Y36101381D01*
X21446164Y36104426D01*
X21433033Y36108241D01*
X21433032Y36108241D01*
X21428558Y36109541D01*
X21415498Y36110500D01*
X21379584Y36110500D01*
X21370281Y36110988D01*
X21335995Y36114592D01*
X21335993Y36114592D01*
X21329960Y36115226D01*
X21323983Y36114215D01*
X21323980Y36114215D01*
X21309386Y36111746D01*
X21294543Y36110500D01*
X19822890Y36110500D01*
X19765682Y36131322D01*
X19759958Y36136567D01*
X16111452Y39785072D01*
X15884136Y40012388D01*
X32314539Y40012388D01*
X32315127Y40007062D01*
X32315127Y40007060D01*
X32332445Y39850197D01*
X32333140Y39843898D01*
X32391395Y39684710D01*
X32485940Y39544012D01*
X32489908Y39540402D01*
X32489910Y39540399D01*
X32548266Y39487299D01*
X32611317Y39429927D01*
X32760288Y39349043D01*
X32924253Y39306027D01*
X33006925Y39304729D01*
X33088377Y39303449D01*
X33088380Y39303449D01*
X33093745Y39303365D01*
X33098975Y39304563D01*
X33098977Y39304563D01*
X33253750Y39340011D01*
X33253751Y39340011D01*
X33258980Y39341209D01*
X33342156Y39383042D01*
X33405627Y39414964D01*
X33405629Y39414966D01*
X33410418Y39417374D01*
X33539316Y39527464D01*
X33638234Y39665123D01*
X33701461Y39822403D01*
X33725345Y39990225D01*
X33725500Y40005000D01*
X33705135Y40173285D01*
X33645217Y40331855D01*
X33605874Y40389100D01*
X33552245Y40467131D01*
X33552241Y40467135D01*
X33549203Y40471556D01*
X33539055Y40480598D01*
X33426645Y40580751D01*
X33422638Y40584321D01*
X33407357Y40592412D01*
X33277572Y40661130D01*
X33277570Y40661131D01*
X33272829Y40663641D01*
X33262435Y40666252D01*
X33113622Y40703631D01*
X33113623Y40703631D01*
X33108423Y40704937D01*
X33030865Y40705343D01*
X32944275Y40705796D01*
X32944274Y40705796D01*
X32938912Y40705824D01*
X32774082Y40666252D01*
X32623450Y40588505D01*
X32495711Y40477072D01*
X32476001Y40449027D01*
X32411596Y40357388D01*
X32398240Y40338385D01*
X32336665Y40180451D01*
X32314539Y40012388D01*
X15884136Y40012388D01*
X15308568Y40587956D01*
X15282839Y40643132D01*
X15282500Y40650889D01*
X15282500Y40787377D01*
X16058539Y40787377D01*
X16059127Y40782051D01*
X16059127Y40782049D01*
X16072183Y40663792D01*
X16077140Y40618887D01*
X16135395Y40459699D01*
X16229940Y40319001D01*
X16233908Y40315391D01*
X16233910Y40315388D01*
X16285560Y40268390D01*
X16355317Y40204916D01*
X16504288Y40124032D01*
X16668253Y40081016D01*
X16750925Y40079718D01*
X16832377Y40078438D01*
X16832380Y40078438D01*
X16837745Y40078354D01*
X16842975Y40079552D01*
X16842977Y40079552D01*
X16997750Y40115000D01*
X16997751Y40115000D01*
X17002980Y40116198D01*
X17105888Y40167955D01*
X17149627Y40189953D01*
X17149629Y40189955D01*
X17154418Y40192363D01*
X17283316Y40302453D01*
X17382234Y40440112D01*
X17445461Y40597392D01*
X17469345Y40765214D01*
X17469500Y40779989D01*
X17449135Y40948274D01*
X17389217Y41106844D01*
X17355854Y41155388D01*
X18090539Y41155388D01*
X18091127Y41150062D01*
X18091127Y41150060D01*
X18107017Y41006130D01*
X18109140Y40986898D01*
X18167395Y40827710D01*
X18261940Y40687012D01*
X18265908Y40683402D01*
X18265910Y40683399D01*
X18383346Y40576540D01*
X18387317Y40572927D01*
X18536288Y40492043D01*
X18700253Y40449027D01*
X18782925Y40447729D01*
X18864377Y40446449D01*
X18864380Y40446449D01*
X18869745Y40446365D01*
X18874975Y40447563D01*
X18874977Y40447563D01*
X19029750Y40483011D01*
X19029751Y40483011D01*
X19034980Y40484209D01*
X19116981Y40525451D01*
X19181627Y40557964D01*
X19181629Y40557966D01*
X19186418Y40560374D01*
X19315316Y40670464D01*
X19414234Y40808123D01*
X19477461Y40965403D01*
X19501345Y41133225D01*
X19501500Y41148000D01*
X19481135Y41316285D01*
X19445955Y41409388D01*
X20376539Y41409388D01*
X20377127Y41404062D01*
X20377127Y41404060D01*
X20394517Y41246545D01*
X20395140Y41240898D01*
X20453395Y41081710D01*
X20547940Y40941012D01*
X20551908Y40937402D01*
X20551910Y40937399D01*
X20669346Y40830540D01*
X20673317Y40826927D01*
X20822288Y40746043D01*
X20986253Y40703027D01*
X21068925Y40701729D01*
X21150377Y40700449D01*
X21150380Y40700449D01*
X21155745Y40700365D01*
X21160975Y40701563D01*
X21160977Y40701563D01*
X21315750Y40737011D01*
X21315751Y40737011D01*
X21320980Y40738209D01*
X21429308Y40792692D01*
X21467627Y40811964D01*
X21467629Y40811966D01*
X21472418Y40814374D01*
X21601316Y40924464D01*
X21700234Y41062123D01*
X21763461Y41219403D01*
X21787345Y41387225D01*
X21787500Y41402000D01*
X21767135Y41570285D01*
X21707217Y41728855D01*
X21626272Y41846631D01*
X21614245Y41864131D01*
X21614241Y41864135D01*
X21611203Y41868556D01*
X21601055Y41877598D01*
X21488645Y41977751D01*
X21484638Y41981321D01*
X21472090Y41987965D01*
X21339572Y42058130D01*
X21339570Y42058131D01*
X21334829Y42060641D01*
X21324435Y42063252D01*
X21175622Y42100631D01*
X21175623Y42100631D01*
X21170423Y42101937D01*
X21092865Y42102343D01*
X21006275Y42102796D01*
X21006274Y42102796D01*
X21000912Y42102824D01*
X20836082Y42063252D01*
X20685450Y41985505D01*
X20557711Y41874072D01*
X20460240Y41735385D01*
X20398665Y41577451D01*
X20376539Y41409388D01*
X19445955Y41409388D01*
X19421217Y41474855D01*
X19354360Y41572133D01*
X19328245Y41610131D01*
X19328241Y41610135D01*
X19325203Y41614556D01*
X19315055Y41623598D01*
X19202645Y41723751D01*
X19198638Y41727321D01*
X19183408Y41735385D01*
X19053572Y41804130D01*
X19053570Y41804131D01*
X19048829Y41806641D01*
X19038435Y41809252D01*
X18889622Y41846631D01*
X18889623Y41846631D01*
X18884423Y41847937D01*
X18806865Y41848343D01*
X18720275Y41848796D01*
X18720274Y41848796D01*
X18714912Y41848824D01*
X18550082Y41809252D01*
X18399450Y41731505D01*
X18271711Y41620072D01*
X18174240Y41481385D01*
X18112665Y41323451D01*
X18090539Y41155388D01*
X17355854Y41155388D01*
X17315280Y41214423D01*
X17296245Y41242120D01*
X17296241Y41242124D01*
X17293203Y41246545D01*
X17283055Y41255587D01*
X17170645Y41355740D01*
X17166638Y41359310D01*
X17113916Y41387225D01*
X17021572Y41436119D01*
X17021570Y41436120D01*
X17016829Y41438630D01*
X17006435Y41441241D01*
X16857622Y41478620D01*
X16857623Y41478620D01*
X16852423Y41479926D01*
X16774865Y41480332D01*
X16688275Y41480785D01*
X16688274Y41480785D01*
X16682912Y41480813D01*
X16518082Y41441241D01*
X16367450Y41363494D01*
X16239711Y41252061D01*
X16220493Y41224716D01*
X16156192Y41133225D01*
X16142240Y41113374D01*
X16080665Y40955440D01*
X16058539Y40787377D01*
X15282500Y40787377D01*
X15282500Y42717201D01*
X15299223Y42769134D01*
X15350234Y42840123D01*
X15412595Y42995248D01*
X15453251Y43040560D01*
X15513523Y43049138D01*
X15565208Y43016967D01*
X15578750Y42992637D01*
X15586681Y42970964D01*
X15627395Y42859710D01*
X15721940Y42719012D01*
X15725908Y42715402D01*
X15725910Y42715399D01*
X15840914Y42610753D01*
X15847317Y42604927D01*
X15996288Y42524043D01*
X16160253Y42481027D01*
X16242925Y42479729D01*
X16324377Y42478449D01*
X16324380Y42478449D01*
X16329745Y42478365D01*
X16334975Y42479563D01*
X16334977Y42479563D01*
X16489750Y42515011D01*
X16489751Y42515011D01*
X16494980Y42516209D01*
X16605863Y42571977D01*
X16641627Y42589964D01*
X16641629Y42589966D01*
X16646418Y42592374D01*
X16775316Y42702464D01*
X16874234Y42840123D01*
X16937461Y42997403D01*
X16961345Y43165225D01*
X16961500Y43180000D01*
X16941135Y43348285D01*
X16894619Y43471388D01*
X18949539Y43471388D01*
X18950127Y43466062D01*
X18950127Y43466060D01*
X18965660Y43325366D01*
X18968140Y43302898D01*
X19026395Y43143710D01*
X19120940Y43003012D01*
X19124908Y42999402D01*
X19124910Y42999399D01*
X19242346Y42892540D01*
X19246317Y42888927D01*
X19395288Y42808043D01*
X19559253Y42765027D01*
X19641925Y42763729D01*
X19723377Y42762449D01*
X19723380Y42762449D01*
X19728745Y42762365D01*
X19733975Y42763563D01*
X19733977Y42763563D01*
X19888750Y42799011D01*
X19888751Y42799011D01*
X19893980Y42800209D01*
X19999240Y42853149D01*
X20040627Y42873964D01*
X20040629Y42873966D01*
X20045418Y42876374D01*
X20112172Y42933388D01*
X23932539Y42933388D01*
X23933127Y42928062D01*
X23933127Y42928060D01*
X23947242Y42800209D01*
X23951140Y42764898D01*
X24009395Y42605710D01*
X24103940Y42465012D01*
X24107908Y42461402D01*
X24107910Y42461399D01*
X24224413Y42355389D01*
X24229317Y42350927D01*
X24378288Y42270043D01*
X24542253Y42227027D01*
X24624925Y42225729D01*
X24706377Y42224449D01*
X24706380Y42224449D01*
X24711745Y42224365D01*
X24716975Y42225563D01*
X24716977Y42225563D01*
X24871750Y42261011D01*
X24871751Y42261011D01*
X24876980Y42262209D01*
X24976882Y42312454D01*
X25023627Y42335964D01*
X25023629Y42335966D01*
X25028418Y42338374D01*
X25157316Y42448464D01*
X25256234Y42586123D01*
X25319461Y42743403D01*
X25343345Y42911225D01*
X25343500Y42926000D01*
X25323135Y43094285D01*
X25263217Y43252855D01*
X25223874Y43310100D01*
X25170245Y43388131D01*
X25170241Y43388135D01*
X25167203Y43392556D01*
X25158963Y43399898D01*
X25044645Y43501751D01*
X25040638Y43505321D01*
X25028090Y43511965D01*
X24921526Y43568388D01*
X29774539Y43568388D01*
X29775127Y43563062D01*
X29775127Y43563060D01*
X29788890Y43438399D01*
X29793140Y43399898D01*
X29851395Y43240710D01*
X29945940Y43100012D01*
X29949908Y43096402D01*
X29949910Y43096399D01*
X30064178Y42992423D01*
X30071317Y42985927D01*
X30220288Y42905043D01*
X30384253Y42862027D01*
X30466925Y42860729D01*
X30548377Y42859449D01*
X30548380Y42859449D01*
X30553745Y42859365D01*
X30558975Y42860563D01*
X30558977Y42860563D01*
X30713750Y42896011D01*
X30713751Y42896011D01*
X30718980Y42897209D01*
X30801482Y42938703D01*
X30865627Y42970964D01*
X30865629Y42970966D01*
X30870418Y42973374D01*
X30910495Y43007604D01*
X30967518Y43028925D01*
X31024906Y43008603D01*
X31055805Y42956148D01*
X31056758Y42949695D01*
X31062287Y42899621D01*
X31063140Y42891898D01*
X31121395Y42732710D01*
X31215940Y42592012D01*
X31219908Y42588402D01*
X31219910Y42588399D01*
X31300562Y42515011D01*
X31341317Y42477927D01*
X31490288Y42397043D01*
X31654253Y42354027D01*
X31736925Y42352729D01*
X31818377Y42351449D01*
X31818380Y42351449D01*
X31823745Y42351365D01*
X31828975Y42352563D01*
X31828977Y42352563D01*
X31983750Y42388011D01*
X31983751Y42388011D01*
X31988980Y42389209D01*
X32099863Y42444977D01*
X32135627Y42462964D01*
X32135629Y42462966D01*
X32140418Y42465374D01*
X32269316Y42575464D01*
X32368234Y42713123D01*
X32431461Y42870403D01*
X32455345Y43038225D01*
X32455500Y43053000D01*
X32435135Y43221285D01*
X32375217Y43379855D01*
X32308655Y43476703D01*
X32282245Y43515131D01*
X32282241Y43515135D01*
X32279203Y43519556D01*
X32268330Y43529244D01*
X32156645Y43628751D01*
X32152638Y43632321D01*
X32143227Y43637304D01*
X32007572Y43709130D01*
X32007570Y43709131D01*
X32002829Y43711641D01*
X31992435Y43714252D01*
X31902440Y43736857D01*
X31838423Y43752937D01*
X31760865Y43753343D01*
X31674275Y43753796D01*
X31674274Y43753796D01*
X31668912Y43753824D01*
X31504082Y43714252D01*
X31353450Y43636505D01*
X31319938Y43607270D01*
X31263141Y43585355D01*
X31205544Y43605076D01*
X31174098Y43657205D01*
X31173078Y43663647D01*
X31165780Y43723955D01*
X31165135Y43729285D01*
X31105217Y43887855D01*
X31037710Y43986078D01*
X31012245Y44023131D01*
X31012241Y44023135D01*
X31009203Y44027556D01*
X30999055Y44036598D01*
X30886645Y44136751D01*
X30882638Y44140321D01*
X30838725Y44163572D01*
X30737572Y44217130D01*
X30737570Y44217131D01*
X30732829Y44219641D01*
X30722435Y44222252D01*
X30573622Y44259631D01*
X30573623Y44259631D01*
X30568423Y44260937D01*
X30490865Y44261343D01*
X30404275Y44261796D01*
X30404274Y44261796D01*
X30398912Y44261824D01*
X30234082Y44222252D01*
X30083450Y44144505D01*
X29955711Y44033072D01*
X29919927Y43982156D01*
X29865743Y43905060D01*
X29858240Y43894385D01*
X29796665Y43736451D01*
X29774539Y43568388D01*
X24921526Y43568388D01*
X24895572Y43582130D01*
X24895570Y43582131D01*
X24890829Y43584641D01*
X24880435Y43587252D01*
X24731622Y43624631D01*
X24731623Y43624631D01*
X24726423Y43625937D01*
X24648865Y43626343D01*
X24562275Y43626796D01*
X24562274Y43626796D01*
X24556912Y43626824D01*
X24392082Y43587252D01*
X24241450Y43509505D01*
X24113711Y43398072D01*
X24078720Y43348285D01*
X24028215Y43276423D01*
X24016240Y43259385D01*
X23954665Y43101451D01*
X23932539Y42933388D01*
X20112172Y42933388D01*
X20174316Y42986464D01*
X20273234Y43124123D01*
X20336461Y43281403D01*
X20360345Y43449225D01*
X20360500Y43464000D01*
X20340135Y43632285D01*
X20280217Y43790855D01*
X20222436Y43874927D01*
X20187245Y43926131D01*
X20187241Y43926135D01*
X20184203Y43930556D01*
X20179393Y43934842D01*
X20061645Y44039751D01*
X20057638Y44043321D01*
X20009277Y44068927D01*
X19912572Y44120130D01*
X19912570Y44120131D01*
X19907829Y44122641D01*
X19897435Y44125252D01*
X19748622Y44162631D01*
X19748623Y44162631D01*
X19743423Y44163937D01*
X19665865Y44164343D01*
X19579275Y44164796D01*
X19579274Y44164796D01*
X19573912Y44164824D01*
X19409082Y44125252D01*
X19258450Y44047505D01*
X19130711Y43936072D01*
X19033240Y43797385D01*
X18971665Y43639451D01*
X18949539Y43471388D01*
X16894619Y43471388D01*
X16881217Y43506855D01*
X16841874Y43564100D01*
X16788245Y43642131D01*
X16788241Y43642135D01*
X16785203Y43646556D01*
X16766021Y43663647D01*
X16662645Y43755751D01*
X16658638Y43759321D01*
X16653896Y43761832D01*
X16513572Y43836130D01*
X16513570Y43836131D01*
X16508829Y43838641D01*
X16503626Y43839948D01*
X16355145Y43877244D01*
X16313895Y43900630D01*
X15802384Y44412140D01*
X15799803Y44414831D01*
X15764192Y44453558D01*
X15760088Y44458021D01*
X15721636Y44481862D01*
X15714725Y44486612D01*
X15683529Y44510292D01*
X15683526Y44510293D01*
X15678696Y44513960D01*
X15661656Y44520707D01*
X15647522Y44527815D01*
X15631941Y44537476D01*
X15593636Y44548605D01*
X15588487Y44550101D01*
X15580556Y44552817D01*
X15568073Y44557759D01*
X15538504Y44569466D01*
X15524621Y44570925D01*
X15520277Y44571382D01*
X15504754Y44574427D01*
X15491623Y44578242D01*
X15491622Y44578242D01*
X15487148Y44579542D01*
X15474088Y44580501D01*
X15438174Y44580501D01*
X15428871Y44580989D01*
X15394585Y44584593D01*
X15394583Y44584593D01*
X15388550Y44585227D01*
X15382573Y44584216D01*
X15382570Y44584216D01*
X15367976Y44581747D01*
X15353133Y44580501D01*
X12937047Y44580501D01*
X12933320Y44580579D01*
X12907767Y44581650D01*
X12874722Y44583035D01*
X12868817Y44581650D01*
X12868816Y44581650D01*
X12830684Y44572707D01*
X12822442Y44571180D01*
X12783630Y44565863D01*
X12783624Y44565861D01*
X12777614Y44565038D01*
X12760789Y44557757D01*
X12745772Y44552792D01*
X12733839Y44549993D01*
X12733833Y44549991D01*
X12727925Y44548605D01*
X12688266Y44526802D01*
X12680753Y44523123D01*
X12639235Y44505156D01*
X12634520Y44501337D01*
X12634514Y44501334D01*
X12624991Y44493622D01*
X12611857Y44484796D01*
X12599886Y44478215D01*
X12599882Y44478212D01*
X12595796Y44475966D01*
X12585883Y44467409D01*
X12560492Y44442018D01*
X12553569Y44435785D01*
X12530746Y44417303D01*
X12473183Y44397483D01*
X12416347Y44419299D01*
X12386381Y44475776D01*
X12369780Y44612956D01*
X12369780Y44612957D01*
X12369135Y44618285D01*
X12329697Y44722656D01*
X38275169Y44722656D01*
X38275169Y44558344D01*
X38294806Y44481862D01*
X38312235Y44413984D01*
X38316032Y44399194D01*
X38318729Y44394289D01*
X38318729Y44394288D01*
X38392240Y44260572D01*
X38395189Y44255207D01*
X38507669Y44135429D01*
X38512398Y44132428D01*
X38512399Y44132427D01*
X38531776Y44120130D01*
X38646402Y44047386D01*
X38679604Y44036598D01*
X38797343Y43998342D01*
X38797347Y43998341D01*
X38802672Y43996611D01*
X38808263Y43996259D01*
X38808264Y43996259D01*
X38904364Y43990213D01*
X38966659Y43986293D01*
X39128061Y44017082D01*
X39258475Y44078451D01*
X39271670Y44084660D01*
X39276734Y44087043D01*
X39403339Y44191779D01*
X39427359Y44224839D01*
X39453585Y44260937D01*
X39499919Y44324710D01*
X39560406Y44477484D01*
X39561857Y44488965D01*
X39580298Y44634943D01*
X39581000Y44640500D01*
X39560406Y44803516D01*
X39499919Y44956290D01*
X39403339Y45089221D01*
X39382900Y45106130D01*
X39331524Y45148631D01*
X39276734Y45193957D01*
X39128061Y45263918D01*
X38966659Y45294707D01*
X38904364Y45290787D01*
X38808264Y45284741D01*
X38808263Y45284741D01*
X38802672Y45284389D01*
X38797347Y45282659D01*
X38797343Y45282658D01*
X38739668Y45263918D01*
X38646402Y45233614D01*
X38626351Y45220889D01*
X38512491Y45148631D01*
X38507669Y45145571D01*
X38395189Y45025793D01*
X38392493Y45020888D01*
X38392491Y45020886D01*
X38335136Y44916556D01*
X38316032Y44881806D01*
X38314641Y44876389D01*
X38314640Y44876386D01*
X38299728Y44818306D01*
X38275169Y44722656D01*
X12329697Y44722656D01*
X12309217Y44776855D01*
X12269874Y44834100D01*
X12216245Y44912131D01*
X12216241Y44912135D01*
X12213203Y44916556D01*
X12203055Y44925598D01*
X12090645Y45025751D01*
X12086638Y45029321D01*
X12074090Y45035965D01*
X11941572Y45106130D01*
X11941570Y45106131D01*
X11936829Y45108641D01*
X11926435Y45111252D01*
X11806064Y45141487D01*
X11772423Y45149937D01*
X11694865Y45150343D01*
X11608275Y45150796D01*
X11608274Y45150796D01*
X11602912Y45150824D01*
X11438082Y45111252D01*
X11287450Y45033505D01*
X11159711Y44922072D01*
X11062240Y44783385D01*
X11000665Y44625451D01*
X10978539Y44457388D01*
X10979127Y44452062D01*
X10979127Y44452060D01*
X10991974Y44335694D01*
X10997140Y44288898D01*
X11055395Y44129710D01*
X11149940Y43989012D01*
X11153908Y43985402D01*
X11153910Y43985399D01*
X11269754Y43879989D01*
X11275317Y43874927D01*
X11424288Y43794043D01*
X11588253Y43751027D01*
X11670925Y43749729D01*
X11752377Y43748449D01*
X11752380Y43748449D01*
X11757745Y43748365D01*
X11763981Y43749793D01*
X11795568Y43757027D01*
X11855980Y43749502D01*
X11897422Y43704904D01*
X11900902Y43645443D01*
X11896459Y43630151D01*
X11895500Y43617091D01*
X11895500Y43581177D01*
X11895012Y43571874D01*
X11891482Y43538286D01*
X11890774Y43531553D01*
X11891785Y43525576D01*
X11891785Y43525573D01*
X11894254Y43510979D01*
X11895500Y43496136D01*
X11895500Y41415832D01*
X11874678Y41358624D01*
X11821955Y41328184D01*
X11784820Y41329513D01*
X11684423Y41354731D01*
X11606865Y41355137D01*
X11520275Y41355590D01*
X11520274Y41355590D01*
X11514912Y41355618D01*
X11350082Y41316046D01*
X11199450Y41238299D01*
X11071711Y41126866D01*
X11058719Y41108380D01*
X10989540Y41009948D01*
X10974240Y40988179D01*
X10972293Y40983185D01*
X10959483Y40950329D01*
X10919302Y40904592D01*
X10859123Y40895383D01*
X10817357Y40916207D01*
X10806645Y40925751D01*
X10802638Y40929321D01*
X10790090Y40935965D01*
X10657572Y41006130D01*
X10657570Y41006131D01*
X10652829Y41008641D01*
X10642435Y41011252D01*
X10493622Y41048631D01*
X10493623Y41048631D01*
X10488423Y41049937D01*
X10410865Y41050343D01*
X10324275Y41050796D01*
X10324274Y41050796D01*
X10318912Y41050824D01*
X10154082Y41011252D01*
X10003450Y40933505D01*
X9875711Y40822072D01*
X9833717Y40762321D01*
X9791986Y40702943D01*
X9778240Y40683385D01*
X9716665Y40525451D01*
X9694539Y40357388D01*
X8161126Y40357388D01*
X8115579Y40444511D01*
X8110831Y40451766D01*
X7989349Y40602860D01*
X7983289Y40609048D01*
X7834772Y40733669D01*
X7827618Y40738567D01*
X7657727Y40831964D01*
X7649764Y40835378D01*
X7464956Y40894003D01*
X7456490Y40895802D01*
X7305642Y40912723D01*
X7300682Y40913000D01*
X6989694Y40913000D01*
X6977671Y40908624D01*
X6974000Y40902266D01*
X6464195Y40902266D01*
X6461624Y40909329D01*
X6455266Y40913000D01*
X6146191Y40913000D01*
X6141831Y40912787D01*
X5997720Y40898656D01*
X5989219Y40896973D01*
X5803612Y40840936D01*
X5795606Y40837635D01*
X5624423Y40746615D01*
X5617209Y40741822D01*
X5466960Y40619282D01*
X5460819Y40613184D01*
X5337228Y40463789D01*
X5332393Y40456621D01*
X5240174Y40286065D01*
X5236820Y40278087D01*
X5196859Y40148992D01*
X4011755Y40148992D01*
X3980464Y40255307D01*
X3977222Y40263330D01*
X3889660Y40430821D01*
X3884913Y40438076D01*
X3766487Y40585368D01*
X3760427Y40591556D01*
X3615648Y40713041D01*
X3608494Y40717939D01*
X3442878Y40808986D01*
X3434915Y40812400D01*
X3254767Y40869547D01*
X3246284Y40871350D01*
X3100315Y40887722D01*
X3095351Y40888000D01*
X2809694Y40888000D01*
X2797671Y40883624D01*
X2794000Y40877266D01*
X2284195Y40877266D01*
X2281624Y40884329D01*
X2275266Y40888000D01*
X1991189Y40888000D01*
X1986829Y40887787D01*
X1847578Y40874133D01*
X1839069Y40872448D01*
X1658149Y40817825D01*
X1650127Y40814519D01*
X1483257Y40725792D01*
X1476043Y40721000D01*
X1329576Y40601543D01*
X1323435Y40595445D01*
X1202959Y40449815D01*
X1198114Y40442632D01*
X1108226Y40276387D01*
X1104864Y40268390D01*
X1067904Y40148991D01*
X404000Y40148991D01*
X404000Y44659156D01*
X9255669Y44659156D01*
X9255669Y44494844D01*
X9270079Y44438722D01*
X9287838Y44369556D01*
X9296532Y44335694D01*
X9299229Y44330789D01*
X9299229Y44330788D01*
X9361713Y44217130D01*
X9375689Y44191707D01*
X9488169Y44071929D01*
X9492898Y44068928D01*
X9492899Y44068927D01*
X9552461Y44031128D01*
X9626902Y43983886D01*
X9672984Y43968913D01*
X9777843Y43934842D01*
X9777847Y43934841D01*
X9783172Y43933111D01*
X9788763Y43932759D01*
X9788764Y43932759D01*
X9884864Y43926713D01*
X9947159Y43922793D01*
X10108561Y43953582D01*
X10257234Y44023543D01*
X10344681Y44095885D01*
X10379524Y44124709D01*
X10379525Y44124711D01*
X10383839Y44128279D01*
X10394413Y44142832D01*
X10458754Y44231391D01*
X10480419Y44261210D01*
X10540906Y44413984D01*
X10545906Y44453558D01*
X10560798Y44571443D01*
X10561500Y44577000D01*
X10540906Y44740016D01*
X10480419Y44892790D01*
X10383839Y45025721D01*
X10379488Y45029321D01*
X10315723Y45082071D01*
X10257234Y45130457D01*
X10108561Y45200418D01*
X9947159Y45231207D01*
X9884864Y45227287D01*
X9788764Y45221241D01*
X9788763Y45221241D01*
X9783172Y45220889D01*
X9777847Y45219159D01*
X9777843Y45219158D01*
X9700283Y45193957D01*
X9626902Y45170114D01*
X9622174Y45167114D01*
X9622175Y45167114D01*
X9499436Y45089221D01*
X9488169Y45082071D01*
X9375689Y44962293D01*
X9372993Y44957388D01*
X9372991Y44957386D01*
X9299229Y44823212D01*
X9296532Y44818306D01*
X9295141Y44812889D01*
X9295140Y44812886D01*
X9285889Y44776855D01*
X9255669Y44659156D01*
X404000Y44659156D01*
X404000Y48013388D01*
X34854539Y48013388D01*
X34855127Y48008062D01*
X34855127Y48008060D01*
X34855355Y48006000D01*
X34873140Y47844898D01*
X34931395Y47685710D01*
X35025940Y47545012D01*
X35029908Y47541402D01*
X35029910Y47541399D01*
X35147346Y47434540D01*
X35151317Y47430927D01*
X35300288Y47350043D01*
X35464253Y47307027D01*
X35546925Y47305729D01*
X35628377Y47304449D01*
X35628380Y47304449D01*
X35633745Y47304365D01*
X35638975Y47305563D01*
X35638977Y47305563D01*
X35793750Y47341011D01*
X35793751Y47341011D01*
X35798980Y47342209D01*
X35873613Y47379746D01*
X35945627Y47415964D01*
X35945629Y47415966D01*
X35950418Y47418374D01*
X36079316Y47528464D01*
X36178234Y47666123D01*
X36241461Y47823403D01*
X36265345Y47991225D01*
X36265500Y48006000D01*
X36245135Y48174285D01*
X36185217Y48332855D01*
X36145874Y48390100D01*
X36092245Y48468131D01*
X36092241Y48468135D01*
X36089203Y48472556D01*
X36079055Y48481598D01*
X35966645Y48581751D01*
X35962638Y48585321D01*
X35950090Y48591965D01*
X35817572Y48662130D01*
X35817570Y48662131D01*
X35812829Y48664641D01*
X35802435Y48667252D01*
X35653622Y48704631D01*
X35653623Y48704631D01*
X35648423Y48705937D01*
X35570865Y48706343D01*
X35484275Y48706796D01*
X35484274Y48706796D01*
X35478912Y48706824D01*
X35314082Y48667252D01*
X35163450Y48589505D01*
X35035711Y48478072D01*
X34938240Y48339385D01*
X34876665Y48181451D01*
X34854539Y48013388D01*
X404000Y48013388D01*
X404000Y50307000D01*
X424822Y50364208D01*
X477545Y50394648D01*
X493000Y50396000D01*
X50307000Y50396000D01*
X50364208Y50375178D01*
G37*
G04 #@! TD.AperFunction*
M02*
