G04 #@! TF.GenerationSoftware,KiCad,Pcbnew,(5.99.0-10394-g2e15de97e0)*
G04 #@! TF.CreationDate,2021-07-16T10:39:39+02:00*
G04 #@! TF.ProjectId,TFGPS01B,54464750-5330-4314-922e-6b696361645f,REV*
G04 #@! TF.SameCoordinates,Original*
G04 #@! TF.FileFunction,Copper,L1,Top*
G04 #@! TF.FilePolarity,Positive*
%FSLAX46Y46*%
G04 Gerber Fmt 4.6, Leading zero omitted, Abs format (unit mm)*
G04 Created by KiCad (PCBNEW (5.99.0-10394-g2e15de97e0)) date 2021-07-16 10:39:39*
%MOMM*%
%LPD*%
G01*
G04 APERTURE LIST*
G04 #@! TA.AperFunction,ComponentPad*
%ADD10C,6.000000*%
G04 #@! TD*
G04 #@! TA.AperFunction,ComponentPad*
%ADD11O,2.000000X1.000000*%
G04 #@! TD*
G04 #@! TA.AperFunction,ComponentPad*
%ADD12O,2.100000X1.050000*%
G04 #@! TD*
G04 #@! TA.AperFunction,ViaPad*
%ADD13C,0.800000*%
G04 #@! TD*
G04 #@! TA.AperFunction,ViaPad*
%ADD14C,0.700000*%
G04 #@! TD*
G04 #@! TA.AperFunction,ViaPad*
%ADD15C,0.600000*%
G04 #@! TD*
G04 APERTURE END LIST*
D10*
X45420000Y5380000D03*
X5380000Y5380000D03*
X45420000Y45420000D03*
X5380000Y45420000D03*
D11*
X2540000Y31240000D03*
X2540000Y39880000D03*
D12*
X6720000Y31240000D03*
X6720000Y39880000D03*
D13*
X19685000Y28575000D03*
X40640000Y48260000D03*
X36423600Y19812000D03*
X11430000Y12700000D03*
X18223610Y16246499D03*
X3810000Y38100000D03*
X3810000Y33020000D03*
X33426400Y23977600D03*
D14*
X34578000Y11430000D03*
D13*
X31115000Y38735000D03*
D15*
X44831000Y39624000D03*
D13*
X10160000Y9525000D03*
D14*
X35526400Y11430000D03*
D13*
X28549600Y19202400D03*
X41910000Y16510000D03*
X37388800Y28041600D03*
D14*
X32867600Y14173200D03*
D13*
X30073600Y20218400D03*
X9525000Y49530000D03*
D14*
X22961600Y14528800D03*
D13*
X16510000Y24765000D03*
D14*
X30784400Y11430000D03*
D13*
X32004000Y25400000D03*
X28448000Y20421600D03*
X31699200Y26466800D03*
D14*
X25857200Y12446000D03*
D13*
X31750000Y6985000D03*
X24130000Y44450000D03*
X11430000Y11430000D03*
X30480000Y22453600D03*
X35560000Y37465000D03*
X20747970Y28367969D03*
X31242000Y21742400D03*
D14*
X34300065Y13919200D03*
D13*
X29845000Y38735000D03*
X10160000Y8255000D03*
X33375600Y19050000D03*
X25247600Y16560800D03*
X40640000Y5080000D03*
X29667200Y23164800D03*
X15240000Y23495000D03*
X35610800Y27838400D03*
D14*
X24079200Y14427200D03*
D13*
X35356800Y21640800D03*
X29260800Y22199600D03*
D14*
X29870400Y11430000D03*
D13*
X31140400Y27381200D03*
X16510000Y21590000D03*
X32054800Y14325600D03*
X36423600Y20878800D03*
X8890000Y5080000D03*
X31115000Y37465000D03*
X27381200Y25298400D03*
X27076400Y19304000D03*
D14*
X34188400Y17475200D03*
D13*
X32715200Y24688800D03*
X17780000Y23495000D03*
X29845000Y37465000D03*
X9525000Y48260000D03*
X8890000Y2540000D03*
D15*
X43688000Y39624000D03*
D14*
X24790400Y12446000D03*
D13*
X41910000Y48260000D03*
X8890000Y3810000D03*
X35864800Y16814800D03*
X8890000Y1270000D03*
X35560000Y38735000D03*
D14*
X26568400Y14478000D03*
D13*
X37592000Y21209000D03*
X13335000Y11430000D03*
X38201600Y17780000D03*
X30861000Y40894000D03*
X28143200Y27279600D03*
X27178000Y4826000D03*
X28575000Y37465000D03*
X27482800Y26466800D03*
X29057600Y27736800D03*
X28575000Y38735000D03*
X28549600Y21488400D03*
X41275000Y6350000D03*
X36423600Y18694400D03*
D14*
X32681200Y11430000D03*
X31732800Y11430000D03*
D13*
X27686000Y24180800D03*
X3810000Y36830000D03*
D15*
X34338884Y12864203D03*
D13*
X41275000Y18415000D03*
X28575000Y44450000D03*
D15*
X39497000Y37211000D03*
D13*
X33324800Y20167600D03*
X29972000Y14325600D03*
X25857200Y11125200D03*
X3810000Y35560000D03*
X12065000Y20320000D03*
D14*
X24790400Y13716000D03*
D13*
X24130000Y45720000D03*
X30124400Y18084800D03*
X33324800Y27178000D03*
X3810000Y34290000D03*
X11430000Y8255000D03*
X35814000Y24130000D03*
X27432000Y22199600D03*
X27686000Y14732000D03*
X31013400Y14325600D03*
X38354000Y20320000D03*
X10160000Y16510000D03*
X13335000Y12700000D03*
X36830000Y37465000D03*
X24688800Y11074400D03*
X11430000Y9525000D03*
X49530000Y13970000D03*
X36830000Y38735000D03*
X28702000Y17729200D03*
X28854400Y14579600D03*
X21742400Y16052800D03*
D14*
X33477200Y18034000D03*
X21590000Y14224000D03*
D13*
X28575000Y40005000D03*
D14*
X33629600Y11430000D03*
D13*
X36525200Y17576800D03*
X28549600Y23418800D03*
X30124400Y27736800D03*
X26670000Y45720000D03*
D14*
X25806400Y13766800D03*
D13*
X28305725Y33013021D03*
X6350000Y23495000D03*
X24638000Y35306000D03*
X24638000Y42926000D03*
X24892000Y18796000D03*
X35560000Y48006000D03*
D14*
X49614001Y34967999D03*
D13*
X29464000Y4572000D03*
D14*
X9906000Y44577000D03*
D13*
X46228000Y13970000D03*
D14*
X38925500Y44640500D03*
D13*
X14626252Y8843348D03*
X36331688Y43062688D03*
X31750000Y43053000D03*
X37338000Y29464000D03*
X17272000Y14224000D03*
X6096000Y12954000D03*
X38608000Y26162000D03*
X34290000Y43903000D03*
X40424999Y19288997D03*
X14097000Y7112000D03*
X38030074Y8692139D03*
X16421990Y15212785D03*
X36499999Y32842001D03*
X5969000Y14351000D03*
X14630400Y10160000D03*
X33020000Y40005000D03*
X19177000Y7112000D03*
X35560000Y7112000D03*
X1727200Y19304000D03*
X21639041Y7101959D03*
X21082000Y41402000D03*
X11596000Y40654794D03*
X23114000Y7112000D03*
X11557000Y29083000D03*
X1676400Y21336000D03*
X1651000Y15240000D03*
X16764000Y40779989D03*
X1778000Y17272000D03*
X18796000Y41148000D03*
X13335000Y43180000D03*
X23749000Y31750000D03*
X24517223Y32390186D03*
X14732000Y43180000D03*
X16383000Y29083000D03*
X1778000Y13208000D03*
X16256000Y43180000D03*
X11684000Y44450000D03*
X19655000Y43464000D03*
X18359977Y32429000D03*
X24057948Y25091052D03*
X25146000Y25273000D03*
X18359977Y33479000D03*
X15324759Y6942759D03*
X30480000Y43561000D03*
X9398000Y38100000D03*
X8877000Y33160000D03*
X13019000Y33147000D03*
X12640000Y37410000D03*
X10400000Y40350000D03*
G04 #@! TA.AperFunction,Conductor*
G36*
X50364208Y50375178D02*
G01*
X50394648Y50322455D01*
X50396000Y50307000D01*
X50396000Y493000D01*
X50375178Y435792D01*
X50322455Y405352D01*
X50307000Y404000D01*
X493000Y404000D01*
X435792Y424822D01*
X405352Y477545D01*
X404000Y493000D01*
X404000Y4572000D01*
X28858500Y4572000D01*
X28879132Y4415285D01*
X28939622Y4269250D01*
X29035847Y4143847D01*
X29161250Y4047622D01*
X29307285Y3987132D01*
X29464000Y3966500D01*
X29620715Y3987132D01*
X29766750Y4047622D01*
X29892153Y4143847D01*
X29988378Y4269250D01*
X30048868Y4415285D01*
X30069500Y4572000D01*
X30048868Y4728715D01*
X29988378Y4874750D01*
X29892153Y5000153D01*
X29766750Y5096378D01*
X29620715Y5156868D01*
X29464000Y5177500D01*
X29307285Y5156868D01*
X29161250Y5096378D01*
X29035847Y5000153D01*
X28939622Y4874750D01*
X28879132Y4728715D01*
X28858500Y4572000D01*
X404000Y4572000D01*
X404000Y7112000D01*
X13491500Y7112000D01*
X13512132Y6955285D01*
X13572622Y6809250D01*
X13576172Y6804623D01*
X13576173Y6804622D01*
X13594565Y6780653D01*
X13668847Y6683847D01*
X13794250Y6587622D01*
X13940285Y6527132D01*
X14097000Y6506500D01*
X14253715Y6527132D01*
X14399750Y6587622D01*
X14525153Y6683847D01*
X14598260Y6779122D01*
X14649605Y6811832D01*
X14709964Y6803886D01*
X14751092Y6759002D01*
X14800381Y6640009D01*
X14803931Y6635382D01*
X14803932Y6635381D01*
X14845559Y6581132D01*
X14896606Y6514606D01*
X15022009Y6418381D01*
X15168044Y6357891D01*
X15324759Y6337259D01*
X15481474Y6357891D01*
X15627509Y6418381D01*
X15752912Y6514606D01*
X15803959Y6581132D01*
X15845586Y6635381D01*
X15845587Y6635382D01*
X15849137Y6640009D01*
X15909627Y6786044D01*
X15930259Y6942759D01*
X15909627Y7099474D01*
X15904439Y7112000D01*
X18571500Y7112000D01*
X18592132Y6955285D01*
X18652622Y6809250D01*
X18656172Y6804623D01*
X18656173Y6804622D01*
X18674565Y6780653D01*
X18748847Y6683847D01*
X18874250Y6587622D01*
X19020285Y6527132D01*
X19177000Y6506500D01*
X19333715Y6527132D01*
X19479750Y6587622D01*
X19605153Y6683847D01*
X19679435Y6780653D01*
X19697827Y6804622D01*
X19697828Y6804623D01*
X19701378Y6809250D01*
X19761868Y6955285D01*
X19781178Y7101959D01*
X21033541Y7101959D01*
X21054173Y6945244D01*
X21114663Y6799209D01*
X21118213Y6794582D01*
X21118214Y6794581D01*
X21130076Y6779122D01*
X21210888Y6673806D01*
X21215521Y6670251D01*
X21318578Y6591173D01*
X21336291Y6577581D01*
X21482326Y6517091D01*
X21639041Y6496459D01*
X21795756Y6517091D01*
X21941791Y6577581D01*
X21959505Y6591173D01*
X22062561Y6670251D01*
X22067194Y6673806D01*
X22148006Y6779122D01*
X22159868Y6794581D01*
X22159869Y6794582D01*
X22163419Y6799209D01*
X22223909Y6945244D01*
X22244541Y7101959D01*
X22243219Y7112000D01*
X22508500Y7112000D01*
X22529132Y6955285D01*
X22589622Y6809250D01*
X22593172Y6804623D01*
X22593173Y6804622D01*
X22611565Y6780653D01*
X22685847Y6683847D01*
X22811250Y6587622D01*
X22957285Y6527132D01*
X23114000Y6506500D01*
X23270715Y6527132D01*
X23416750Y6587622D01*
X23542153Y6683847D01*
X23616435Y6780653D01*
X23634827Y6804622D01*
X23634828Y6804623D01*
X23638378Y6809250D01*
X23698868Y6955285D01*
X23719500Y7112000D01*
X34954500Y7112000D01*
X34975132Y6955285D01*
X35035622Y6809250D01*
X35039172Y6804623D01*
X35039173Y6804622D01*
X35057565Y6780653D01*
X35131847Y6683847D01*
X35257250Y6587622D01*
X35403285Y6527132D01*
X35560000Y6506500D01*
X35716715Y6527132D01*
X35862750Y6587622D01*
X35988153Y6683847D01*
X36062435Y6780653D01*
X36080827Y6804622D01*
X36080828Y6804623D01*
X36084378Y6809250D01*
X36144868Y6955285D01*
X36165500Y7112000D01*
X36144868Y7268715D01*
X36084378Y7414750D01*
X36042468Y7469369D01*
X35991708Y7535520D01*
X35988153Y7540153D01*
X35971194Y7553166D01*
X35867378Y7632827D01*
X35867377Y7632828D01*
X35862750Y7636378D01*
X35716715Y7696868D01*
X35560000Y7717500D01*
X35403285Y7696868D01*
X35257250Y7636378D01*
X35252623Y7632828D01*
X35252622Y7632827D01*
X35148806Y7553166D01*
X35131847Y7540153D01*
X35128292Y7535520D01*
X35077533Y7469369D01*
X35035622Y7414750D01*
X34975132Y7268715D01*
X34954500Y7112000D01*
X23719500Y7112000D01*
X23698868Y7268715D01*
X23638378Y7414750D01*
X23596468Y7469369D01*
X23545708Y7535520D01*
X23542153Y7540153D01*
X23525194Y7553166D01*
X23421378Y7632827D01*
X23421377Y7632828D01*
X23416750Y7636378D01*
X23270715Y7696868D01*
X23114000Y7717500D01*
X22957285Y7696868D01*
X22811250Y7636378D01*
X22806623Y7632828D01*
X22806622Y7632827D01*
X22702806Y7553166D01*
X22685847Y7540153D01*
X22682292Y7535520D01*
X22631533Y7469369D01*
X22589622Y7414750D01*
X22529132Y7268715D01*
X22508500Y7112000D01*
X22243219Y7112000D01*
X22223909Y7258674D01*
X22163419Y7404709D01*
X22159850Y7409361D01*
X22070749Y7525479D01*
X22067194Y7530112D01*
X21941791Y7626337D01*
X21795756Y7686827D01*
X21639041Y7707459D01*
X21482326Y7686827D01*
X21336291Y7626337D01*
X21210888Y7530112D01*
X21207333Y7525479D01*
X21118233Y7409361D01*
X21114663Y7404709D01*
X21054173Y7258674D01*
X21033541Y7101959D01*
X19781178Y7101959D01*
X19782500Y7112000D01*
X19761868Y7268715D01*
X19701378Y7414750D01*
X19659468Y7469369D01*
X19608708Y7535520D01*
X19605153Y7540153D01*
X19588194Y7553166D01*
X19484378Y7632827D01*
X19484377Y7632828D01*
X19479750Y7636378D01*
X19333715Y7696868D01*
X19177000Y7717500D01*
X19020285Y7696868D01*
X18874250Y7636378D01*
X18869623Y7632828D01*
X18869622Y7632827D01*
X18765806Y7553166D01*
X18748847Y7540153D01*
X18745292Y7535520D01*
X18694533Y7469369D01*
X18652622Y7414750D01*
X18592132Y7268715D01*
X18571500Y7112000D01*
X15904439Y7112000D01*
X15849137Y7245509D01*
X15834899Y7264065D01*
X15756467Y7366279D01*
X15752912Y7370912D01*
X15627509Y7467137D01*
X15481474Y7527627D01*
X15324759Y7548259D01*
X15168044Y7527627D01*
X15022009Y7467137D01*
X14896606Y7370912D01*
X14893051Y7366279D01*
X14823499Y7275637D01*
X14772154Y7242927D01*
X14711795Y7250873D01*
X14670666Y7295758D01*
X14623610Y7409361D01*
X14621378Y7414750D01*
X14579468Y7469369D01*
X14528708Y7535520D01*
X14525153Y7540153D01*
X14508194Y7553166D01*
X14404378Y7632827D01*
X14404377Y7632828D01*
X14399750Y7636378D01*
X14253715Y7696868D01*
X14097000Y7717500D01*
X13940285Y7696868D01*
X13794250Y7636378D01*
X13789623Y7632828D01*
X13789622Y7632827D01*
X13685806Y7553166D01*
X13668847Y7540153D01*
X13665292Y7535520D01*
X13614533Y7469369D01*
X13572622Y7414750D01*
X13512132Y7268715D01*
X13491500Y7112000D01*
X404000Y7112000D01*
X404000Y8843348D01*
X14020752Y8843348D01*
X14041384Y8686633D01*
X14101874Y8540598D01*
X14198099Y8415195D01*
X14323502Y8318970D01*
X14469537Y8258480D01*
X14626252Y8237848D01*
X14782967Y8258480D01*
X14929002Y8318970D01*
X15054405Y8415195D01*
X15150630Y8540598D01*
X15211120Y8686633D01*
X15211845Y8692139D01*
X37424574Y8692139D01*
X37445206Y8535424D01*
X37505696Y8389389D01*
X37509246Y8384762D01*
X37509247Y8384761D01*
X37559730Y8318970D01*
X37601921Y8263986D01*
X37727324Y8167761D01*
X37873359Y8107271D01*
X38030074Y8086639D01*
X38186789Y8107271D01*
X38332824Y8167761D01*
X38458227Y8263986D01*
X38500418Y8318970D01*
X38550901Y8384761D01*
X38550902Y8384762D01*
X38554452Y8389389D01*
X38614942Y8535424D01*
X38635574Y8692139D01*
X38614942Y8848854D01*
X38554452Y8994889D01*
X38458227Y9120292D01*
X38332824Y9216517D01*
X38186789Y9277007D01*
X38030074Y9297639D01*
X37873359Y9277007D01*
X37727324Y9216517D01*
X37601921Y9120292D01*
X37505696Y8994889D01*
X37445206Y8848854D01*
X37424574Y8692139D01*
X15211845Y8692139D01*
X15231752Y8843348D01*
X15211120Y9000063D01*
X15150630Y9146098D01*
X15099321Y9212966D01*
X15057960Y9266868D01*
X15054405Y9271501D01*
X14929002Y9367726D01*
X14806206Y9418590D01*
X14761321Y9459720D01*
X14753375Y9520078D01*
X14786085Y9571424D01*
X14806206Y9583040D01*
X14810354Y9584758D01*
X14933150Y9635622D01*
X15058553Y9731847D01*
X15154778Y9857250D01*
X15215268Y10003285D01*
X15235900Y10160000D01*
X15215268Y10316715D01*
X15154778Y10462750D01*
X15058553Y10588153D01*
X14933150Y10684378D01*
X14787115Y10744868D01*
X14630400Y10765500D01*
X14473685Y10744868D01*
X14327650Y10684378D01*
X14202247Y10588153D01*
X14106022Y10462750D01*
X14045532Y10316715D01*
X14024900Y10160000D01*
X14045532Y10003285D01*
X14106022Y9857250D01*
X14202247Y9731847D01*
X14327650Y9635622D01*
X14450446Y9584758D01*
X14495331Y9543628D01*
X14503277Y9483270D01*
X14470567Y9431924D01*
X14450447Y9420309D01*
X14323502Y9367726D01*
X14198099Y9271501D01*
X14194544Y9266868D01*
X14153184Y9212966D01*
X14101874Y9146098D01*
X14041384Y9000063D01*
X14020752Y8843348D01*
X404000Y8843348D01*
X404000Y13208000D01*
X1172500Y13208000D01*
X1193132Y13051285D01*
X1253622Y12905250D01*
X1349847Y12779847D01*
X1475250Y12683622D01*
X1621285Y12623132D01*
X1778000Y12602500D01*
X1934715Y12623132D01*
X2080750Y12683622D01*
X2206153Y12779847D01*
X2302378Y12905250D01*
X2322571Y12954000D01*
X5490500Y12954000D01*
X5511132Y12797285D01*
X5571622Y12651250D01*
X5575172Y12646623D01*
X5575173Y12646622D01*
X5608445Y12603261D01*
X5667847Y12525847D01*
X5793250Y12429622D01*
X5939285Y12369132D01*
X6096000Y12348500D01*
X6252715Y12369132D01*
X6398750Y12429622D01*
X6524153Y12525847D01*
X6583555Y12603261D01*
X6616827Y12646622D01*
X6616828Y12646623D01*
X6620378Y12651250D01*
X6680868Y12797285D01*
X6701500Y12954000D01*
X6680868Y13110715D01*
X6620378Y13256750D01*
X6524153Y13382153D01*
X6444347Y13443390D01*
X6403378Y13474827D01*
X6403377Y13474828D01*
X6398750Y13478378D01*
X6252715Y13538868D01*
X6096000Y13559500D01*
X5939285Y13538868D01*
X5793250Y13478378D01*
X5788623Y13474828D01*
X5788622Y13474827D01*
X5747653Y13443390D01*
X5667847Y13382153D01*
X5571622Y13256750D01*
X5511132Y13110715D01*
X5490500Y12954000D01*
X2322571Y12954000D01*
X2362868Y13051285D01*
X2383500Y13208000D01*
X2362868Y13364715D01*
X2302378Y13510750D01*
X2280219Y13539629D01*
X2209708Y13631520D01*
X2206153Y13636153D01*
X2165627Y13667250D01*
X2085378Y13728827D01*
X2085377Y13728828D01*
X2080750Y13732378D01*
X1934715Y13792868D01*
X1778000Y13813500D01*
X1621285Y13792868D01*
X1475250Y13732378D01*
X1470623Y13728828D01*
X1470622Y13728827D01*
X1390373Y13667250D01*
X1349847Y13636153D01*
X1346292Y13631520D01*
X1275782Y13539629D01*
X1253622Y13510750D01*
X1193132Y13364715D01*
X1172500Y13208000D01*
X404000Y13208000D01*
X404000Y14351000D01*
X5363500Y14351000D01*
X5384132Y14194285D01*
X5444622Y14048250D01*
X5540847Y13922847D01*
X5666250Y13826622D01*
X5812285Y13766132D01*
X5969000Y13745500D01*
X6125715Y13766132D01*
X6271750Y13826622D01*
X6397153Y13922847D01*
X6493378Y14048250D01*
X6553868Y14194285D01*
X6574500Y14351000D01*
X6553868Y14507715D01*
X6493378Y14653750D01*
X6468498Y14686175D01*
X6400708Y14774520D01*
X6397153Y14779153D01*
X6354545Y14811847D01*
X6276378Y14871827D01*
X6276377Y14871828D01*
X6271750Y14875378D01*
X6151568Y14925159D01*
X6131106Y14933635D01*
X6125715Y14935868D01*
X5969000Y14956500D01*
X5812285Y14935868D01*
X5806894Y14933635D01*
X5786432Y14925159D01*
X5666250Y14875378D01*
X5661623Y14871828D01*
X5661622Y14871827D01*
X5583455Y14811847D01*
X5540847Y14779153D01*
X5537292Y14774520D01*
X5469503Y14686175D01*
X5444622Y14653750D01*
X5384132Y14507715D01*
X5363500Y14351000D01*
X404000Y14351000D01*
X404000Y15240000D01*
X1045500Y15240000D01*
X1066132Y15083285D01*
X1126622Y14937250D01*
X1222847Y14811847D01*
X1227480Y14808292D01*
X1305562Y14748378D01*
X1348250Y14715622D01*
X1419341Y14686175D01*
X1486449Y14658378D01*
X1494285Y14655132D01*
X1651000Y14634500D01*
X1807715Y14655132D01*
X1815552Y14658378D01*
X1882659Y14686175D01*
X1953750Y14715622D01*
X1996439Y14748378D01*
X2074520Y14808292D01*
X2079153Y14811847D01*
X2175378Y14937250D01*
X2235868Y15083285D01*
X2252917Y15212785D01*
X15816490Y15212785D01*
X15837122Y15056070D01*
X15897612Y14910035D01*
X15901162Y14905408D01*
X15901163Y14905407D01*
X15967180Y14819372D01*
X15993837Y14784632D01*
X16119240Y14688407D01*
X16265275Y14627917D01*
X16421990Y14607285D01*
X16578705Y14627917D01*
X16626031Y14647520D01*
X16636410Y14651819D01*
X16697232Y14654475D01*
X16745531Y14617413D01*
X16758708Y14557977D01*
X16748492Y14527884D01*
X16747622Y14526750D01*
X16687132Y14380715D01*
X16666500Y14224000D01*
X16687132Y14067285D01*
X16747622Y13921250D01*
X16843847Y13795847D01*
X16848480Y13792292D01*
X16926562Y13732378D01*
X16969250Y13699622D01*
X17115285Y13639132D01*
X17272000Y13618500D01*
X17428715Y13639132D01*
X17574750Y13699622D01*
X17617439Y13732378D01*
X17695520Y13792292D01*
X17700153Y13795847D01*
X17796378Y13921250D01*
X17816571Y13970000D01*
X45622500Y13970000D01*
X45643132Y13813285D01*
X45703622Y13667250D01*
X45707172Y13662623D01*
X45707173Y13662622D01*
X45740445Y13619261D01*
X45799847Y13541847D01*
X45804480Y13538292D01*
X45882562Y13478378D01*
X45925250Y13445622D01*
X46071285Y13385132D01*
X46228000Y13364500D01*
X46384715Y13385132D01*
X46530750Y13445622D01*
X46573439Y13478378D01*
X46651520Y13538292D01*
X46656153Y13541847D01*
X46715555Y13619261D01*
X46748827Y13662622D01*
X46748828Y13662623D01*
X46752378Y13667250D01*
X46812868Y13813285D01*
X46833500Y13970000D01*
X46812868Y14126715D01*
X46752378Y14272750D01*
X46656153Y14398153D01*
X46530750Y14494378D01*
X46384715Y14554868D01*
X46228000Y14575500D01*
X46071285Y14554868D01*
X45925250Y14494378D01*
X45799847Y14398153D01*
X45703622Y14272750D01*
X45643132Y14126715D01*
X45622500Y13970000D01*
X17816571Y13970000D01*
X17856868Y14067285D01*
X17877500Y14224000D01*
X17856868Y14380715D01*
X17796378Y14526750D01*
X17774219Y14555629D01*
X17703708Y14647520D01*
X17700153Y14652153D01*
X17620347Y14713390D01*
X17579378Y14744827D01*
X17579377Y14744828D01*
X17574750Y14748378D01*
X17428715Y14808868D01*
X17272000Y14829500D01*
X17115285Y14808868D01*
X17109894Y14806635D01*
X17057580Y14784966D01*
X16996758Y14782310D01*
X16948459Y14819372D01*
X16935282Y14878808D01*
X16945498Y14908901D01*
X16946368Y14910035D01*
X17006858Y15056070D01*
X17027490Y15212785D01*
X17006858Y15369500D01*
X16946368Y15515535D01*
X16850143Y15640938D01*
X16724740Y15737163D01*
X16578705Y15797653D01*
X16421990Y15818285D01*
X16265275Y15797653D01*
X16119240Y15737163D01*
X15993837Y15640938D01*
X15897612Y15515535D01*
X15837122Y15369500D01*
X15816490Y15212785D01*
X2252917Y15212785D01*
X2256500Y15240000D01*
X2235868Y15396715D01*
X2175378Y15542750D01*
X2079153Y15668153D01*
X1953750Y15764378D01*
X1807715Y15824868D01*
X1651000Y15845500D01*
X1494285Y15824868D01*
X1348250Y15764378D01*
X1222847Y15668153D01*
X1126622Y15542750D01*
X1066132Y15396715D01*
X1045500Y15240000D01*
X404000Y15240000D01*
X404000Y17272000D01*
X1172500Y17272000D01*
X1193132Y17115285D01*
X1253622Y16969250D01*
X1349847Y16843847D01*
X1475250Y16747622D01*
X1621285Y16687132D01*
X1778000Y16666500D01*
X1934715Y16687132D01*
X2080750Y16747622D01*
X2206153Y16843847D01*
X2302378Y16969250D01*
X2362868Y17115285D01*
X2383500Y17272000D01*
X2362868Y17428715D01*
X2302378Y17574750D01*
X2206153Y17700153D01*
X2080750Y17796378D01*
X1934715Y17856868D01*
X1778000Y17877500D01*
X1621285Y17856868D01*
X1475250Y17796378D01*
X1349847Y17700153D01*
X1253622Y17574750D01*
X1193132Y17428715D01*
X1172500Y17272000D01*
X404000Y17272000D01*
X404000Y19304000D01*
X1121700Y19304000D01*
X1142332Y19147285D01*
X1202822Y19001250D01*
X1206372Y18996623D01*
X1206373Y18996622D01*
X1240064Y18952715D01*
X1299047Y18875847D01*
X1424450Y18779622D01*
X1570485Y18719132D01*
X1727200Y18698500D01*
X1883915Y18719132D01*
X2029950Y18779622D01*
X2051294Y18796000D01*
X24286500Y18796000D01*
X24307132Y18639285D01*
X24367622Y18493250D01*
X24463847Y18367847D01*
X24589250Y18271622D01*
X24735285Y18211132D01*
X24892000Y18190500D01*
X25048715Y18211132D01*
X25194750Y18271622D01*
X25320153Y18367847D01*
X25416378Y18493250D01*
X25476868Y18639285D01*
X25497500Y18796000D01*
X25476868Y18952715D01*
X25416378Y19098750D01*
X25383273Y19141894D01*
X25323708Y19219520D01*
X25320153Y19224153D01*
X25235647Y19288997D01*
X39819499Y19288997D01*
X39840131Y19132282D01*
X39900621Y18986247D01*
X39996846Y18860844D01*
X40001479Y18857289D01*
X40102697Y18779622D01*
X40122249Y18764619D01*
X40268284Y18704129D01*
X40424999Y18683497D01*
X40581714Y18704129D01*
X40727749Y18764619D01*
X40747302Y18779622D01*
X40848519Y18857289D01*
X40853152Y18860844D01*
X40949377Y18986247D01*
X41009867Y19132282D01*
X41030499Y19288997D01*
X41009867Y19445712D01*
X40949377Y19591747D01*
X40853152Y19717150D01*
X40727749Y19813375D01*
X40581714Y19873865D01*
X40424999Y19894497D01*
X40268284Y19873865D01*
X40122249Y19813375D01*
X39996846Y19717150D01*
X39900621Y19591747D01*
X39840131Y19445712D01*
X39819499Y19288997D01*
X25235647Y19288997D01*
X25194750Y19320378D01*
X25048715Y19380868D01*
X24892000Y19401500D01*
X24735285Y19380868D01*
X24589250Y19320378D01*
X24463847Y19224153D01*
X24460292Y19219520D01*
X24400728Y19141894D01*
X24367622Y19098750D01*
X24307132Y18952715D01*
X24286500Y18796000D01*
X2051294Y18796000D01*
X2155353Y18875847D01*
X2214336Y18952715D01*
X2248027Y18996622D01*
X2248028Y18996623D01*
X2251578Y19001250D01*
X2312068Y19147285D01*
X2332700Y19304000D01*
X2312068Y19460715D01*
X2251578Y19606750D01*
X2155353Y19732153D01*
X2054130Y19809824D01*
X2034578Y19824827D01*
X2034577Y19824828D01*
X2029950Y19828378D01*
X1883915Y19888868D01*
X1727200Y19909500D01*
X1570485Y19888868D01*
X1424450Y19828378D01*
X1419823Y19824828D01*
X1419822Y19824827D01*
X1400270Y19809824D01*
X1299047Y19732153D01*
X1202822Y19606750D01*
X1142332Y19460715D01*
X1121700Y19304000D01*
X404000Y19304000D01*
X404000Y21336000D01*
X1070900Y21336000D01*
X1091532Y21179285D01*
X1152022Y21033250D01*
X1248247Y20907847D01*
X1373650Y20811622D01*
X1519685Y20751132D01*
X1676400Y20730500D01*
X1833115Y20751132D01*
X1979150Y20811622D01*
X2104553Y20907847D01*
X2200778Y21033250D01*
X2261268Y21179285D01*
X2281900Y21336000D01*
X2261268Y21492715D01*
X2200778Y21638750D01*
X2104553Y21764153D01*
X1979150Y21860378D01*
X1833115Y21920868D01*
X1676400Y21941500D01*
X1519685Y21920868D01*
X1373650Y21860378D01*
X1248247Y21764153D01*
X1152022Y21638750D01*
X1091532Y21492715D01*
X1070900Y21336000D01*
X404000Y21336000D01*
X404000Y23495000D01*
X5744500Y23495000D01*
X5765132Y23338285D01*
X5825622Y23192250D01*
X5921847Y23066847D01*
X6047250Y22970622D01*
X6193285Y22910132D01*
X6350000Y22889500D01*
X6506715Y22910132D01*
X6652750Y22970622D01*
X6778153Y23066847D01*
X6874378Y23192250D01*
X6934868Y23338285D01*
X6955500Y23495000D01*
X6934868Y23651715D01*
X6874378Y23797750D01*
X6778153Y23923153D01*
X6743623Y23949649D01*
X6657378Y24015827D01*
X6657377Y24015828D01*
X6652750Y24019378D01*
X6506715Y24079868D01*
X6350000Y24100500D01*
X6193285Y24079868D01*
X6047250Y24019378D01*
X6042623Y24015828D01*
X6042622Y24015827D01*
X5956377Y23949649D01*
X5921847Y23923153D01*
X5825622Y23797750D01*
X5765132Y23651715D01*
X5744500Y23495000D01*
X404000Y23495000D01*
X404000Y25091052D01*
X23452448Y25091052D01*
X23473080Y24934337D01*
X23533570Y24788302D01*
X23537120Y24783675D01*
X23537121Y24783674D01*
X23565730Y24746390D01*
X23629795Y24662899D01*
X23634428Y24659344D01*
X23689783Y24616869D01*
X23755198Y24566674D01*
X23901233Y24506184D01*
X24057948Y24485552D01*
X24214663Y24506184D01*
X24360698Y24566674D01*
X24426114Y24616869D01*
X24481468Y24659344D01*
X24486101Y24662899D01*
X24550166Y24746390D01*
X24578775Y24783674D01*
X24578776Y24783675D01*
X24582326Y24788302D01*
X24588398Y24802961D01*
X24629528Y24847846D01*
X24689886Y24855792D01*
X24724801Y24839511D01*
X24843250Y24748622D01*
X24989285Y24688132D01*
X25146000Y24667500D01*
X25302715Y24688132D01*
X25448750Y24748622D01*
X25574153Y24844847D01*
X25642821Y24934337D01*
X25666827Y24965622D01*
X25666828Y24965623D01*
X25670378Y24970250D01*
X25730868Y25116285D01*
X25751500Y25273000D01*
X25742023Y25344982D01*
X28124167Y25344982D01*
X28161486Y25101104D01*
X28238135Y24866595D01*
X28352056Y24647755D01*
X28354250Y24644833D01*
X28497997Y24453379D01*
X28498001Y24453375D01*
X28500190Y24450459D01*
X28678558Y24280007D01*
X28882371Y24140975D01*
X28885681Y24139439D01*
X28885682Y24139438D01*
X29018826Y24077635D01*
X29106154Y24037099D01*
X29109671Y24036124D01*
X29109670Y24036124D01*
X29340380Y23972142D01*
X29340384Y23972141D01*
X29343897Y23971167D01*
X29347522Y23970780D01*
X29347525Y23970779D01*
X29544276Y23949752D01*
X29546634Y23949500D01*
X29686815Y23949500D01*
X29871887Y23964716D01*
X30111171Y24024820D01*
X30114515Y24026274D01*
X30114518Y24026275D01*
X30285223Y24100500D01*
X30337425Y24123198D01*
X30340487Y24125179D01*
X30340491Y24125181D01*
X30541499Y24255219D01*
X30544574Y24257208D01*
X30727053Y24423251D01*
X30776856Y24486313D01*
X30877701Y24614004D01*
X30877704Y24614009D01*
X30879963Y24616869D01*
X30999197Y24832861D01*
X31081553Y25065426D01*
X31091643Y25122068D01*
X31096713Y25150535D01*
X31124819Y25308320D01*
X31127833Y25555018D01*
X31090514Y25798896D01*
X31013865Y26033405D01*
X30946923Y26162000D01*
X38002500Y26162000D01*
X38023132Y26005285D01*
X38083622Y25859250D01*
X38087172Y25854623D01*
X38087173Y25854622D01*
X38127271Y25802365D01*
X38179847Y25733847D01*
X38184480Y25730292D01*
X38228493Y25696520D01*
X38305250Y25637622D01*
X38358826Y25615430D01*
X38443449Y25580378D01*
X38451285Y25577132D01*
X38608000Y25556500D01*
X38764715Y25577132D01*
X38772552Y25580378D01*
X38857174Y25615430D01*
X38910750Y25637622D01*
X38987508Y25696520D01*
X39031520Y25730292D01*
X39036153Y25733847D01*
X39088729Y25802365D01*
X39128827Y25854622D01*
X39128828Y25854623D01*
X39132378Y25859250D01*
X39192868Y26005285D01*
X39213500Y26162000D01*
X39192868Y26318715D01*
X39132378Y26464750D01*
X39073952Y26540893D01*
X39039708Y26585520D01*
X39036153Y26590153D01*
X38970764Y26640328D01*
X38915378Y26682827D01*
X38915377Y26682828D01*
X38910750Y26686378D01*
X38764715Y26746868D01*
X38608000Y26767500D01*
X38451285Y26746868D01*
X38305250Y26686378D01*
X38300623Y26682828D01*
X38300622Y26682827D01*
X38245236Y26640328D01*
X38179847Y26590153D01*
X38176292Y26585520D01*
X38142049Y26540893D01*
X38083622Y26464750D01*
X38023132Y26318715D01*
X38002500Y26162000D01*
X30946923Y26162000D01*
X30899944Y26252245D01*
X30845989Y26324106D01*
X30754003Y26446621D01*
X30753999Y26446625D01*
X30751810Y26449541D01*
X30573442Y26619993D01*
X30369629Y26759025D01*
X30145846Y26862901D01*
X30098367Y26876068D01*
X29911620Y26927858D01*
X29911616Y26927859D01*
X29908103Y26928833D01*
X29904478Y26929220D01*
X29904475Y26929221D01*
X29707724Y26950248D01*
X29705366Y26950500D01*
X29565185Y26950500D01*
X29380113Y26935284D01*
X29140829Y26875180D01*
X29137485Y26873726D01*
X29137482Y26873725D01*
X29027702Y26825991D01*
X28914575Y26776802D01*
X28911513Y26774821D01*
X28911509Y26774819D01*
X28864852Y26744635D01*
X28707426Y26642792D01*
X28524947Y26476749D01*
X28501153Y26446621D01*
X28374299Y26285996D01*
X28374296Y26285991D01*
X28372037Y26283131D01*
X28252803Y26067139D01*
X28251583Y26063693D01*
X28181094Y25864639D01*
X28170447Y25834574D01*
X28127181Y25591680D01*
X28127136Y25588034D01*
X28127136Y25588029D01*
X28126259Y25516206D01*
X28124167Y25344982D01*
X25742023Y25344982D01*
X25730868Y25429715D01*
X25670378Y25575750D01*
X25658155Y25591680D01*
X25577708Y25696520D01*
X25574153Y25701153D01*
X25531545Y25733847D01*
X25453378Y25793827D01*
X25453377Y25793828D01*
X25448750Y25797378D01*
X25328568Y25847159D01*
X25308106Y25855635D01*
X25302715Y25857868D01*
X25146000Y25878500D01*
X24989285Y25857868D01*
X24983894Y25855635D01*
X24963432Y25847159D01*
X24843250Y25797378D01*
X24838623Y25793828D01*
X24838622Y25793827D01*
X24760455Y25733847D01*
X24717847Y25701153D01*
X24714292Y25696520D01*
X24633846Y25591680D01*
X24621622Y25575750D01*
X24619390Y25570361D01*
X24615550Y25561091D01*
X24574420Y25516206D01*
X24514062Y25508260D01*
X24479147Y25524541D01*
X24360698Y25615430D01*
X24214663Y25675920D01*
X24057948Y25696552D01*
X23901233Y25675920D01*
X23755198Y25615430D01*
X23629795Y25519205D01*
X23626240Y25514572D01*
X23556690Y25423932D01*
X23533570Y25393802D01*
X23473080Y25247767D01*
X23452448Y25091052D01*
X404000Y25091052D01*
X404000Y28575000D01*
X2549500Y28575000D01*
X2570093Y28339620D01*
X2631247Y28111392D01*
X2731103Y27897250D01*
X2866627Y27703701D01*
X3033701Y27536627D01*
X3227250Y27401103D01*
X3441392Y27301247D01*
X3445154Y27300239D01*
X3665861Y27241100D01*
X3665863Y27241100D01*
X3669620Y27240093D01*
X3723794Y27235353D01*
X3845913Y27224669D01*
X3845924Y27224669D01*
X3847850Y27224500D01*
X3962150Y27224500D01*
X3964076Y27224669D01*
X3964087Y27224669D01*
X4086206Y27235353D01*
X4140380Y27240093D01*
X4144137Y27241100D01*
X4144139Y27241100D01*
X4364846Y27300239D01*
X4368608Y27301247D01*
X4582750Y27401103D01*
X4776299Y27536627D01*
X4943373Y27703701D01*
X5019905Y27813000D01*
X44904500Y27813000D01*
X44925093Y27577620D01*
X44926100Y27573863D01*
X44926100Y27573861D01*
X44936077Y27536627D01*
X44986247Y27349392D01*
X45086103Y27135250D01*
X45221627Y26941701D01*
X45388701Y26774627D01*
X45399966Y26766739D01*
X45576982Y26642792D01*
X45582250Y26639103D01*
X45796392Y26539247D01*
X45800154Y26538239D01*
X46020861Y26479100D01*
X46020863Y26479100D01*
X46024620Y26478093D01*
X46078794Y26473353D01*
X46200913Y26462669D01*
X46200924Y26462669D01*
X46202850Y26462500D01*
X46317150Y26462500D01*
X46319076Y26462669D01*
X46319087Y26462669D01*
X46441206Y26473353D01*
X46495380Y26478093D01*
X46499137Y26479100D01*
X46499139Y26479100D01*
X46719846Y26538239D01*
X46723608Y26539247D01*
X46937750Y26639103D01*
X46943019Y26642792D01*
X47120034Y26766739D01*
X47131299Y26774627D01*
X47298373Y26941701D01*
X47433897Y27135250D01*
X47533753Y27349392D01*
X47583923Y27536627D01*
X47593900Y27573861D01*
X47593900Y27573863D01*
X47594907Y27577620D01*
X47615500Y27813000D01*
X47594907Y28048380D01*
X47533753Y28276608D01*
X47433897Y28490750D01*
X47298373Y28684299D01*
X47131299Y28851373D01*
X46937750Y28986897D01*
X46723608Y29086753D01*
X46692083Y29095200D01*
X46499139Y29146900D01*
X46499137Y29146900D01*
X46495380Y29147907D01*
X46441206Y29152647D01*
X46319087Y29163331D01*
X46319076Y29163331D01*
X46317150Y29163500D01*
X46202850Y29163500D01*
X46200924Y29163331D01*
X46200913Y29163331D01*
X46078794Y29152647D01*
X46024620Y29147907D01*
X46020863Y29146900D01*
X46020861Y29146900D01*
X45827917Y29095200D01*
X45796392Y29086753D01*
X45582250Y28986897D01*
X45388701Y28851373D01*
X45221627Y28684299D01*
X45086103Y28490750D01*
X44986247Y28276608D01*
X44925093Y28048380D01*
X44904500Y27813000D01*
X5019905Y27813000D01*
X5078897Y27897250D01*
X5178753Y28111392D01*
X5239907Y28339620D01*
X5260500Y28575000D01*
X5239907Y28810380D01*
X5229659Y28848628D01*
X5179761Y29034846D01*
X5178753Y29038608D01*
X5158053Y29083000D01*
X10951500Y29083000D01*
X10972132Y28926285D01*
X11032622Y28780250D01*
X11128847Y28654847D01*
X11254250Y28558622D01*
X11400285Y28498132D01*
X11557000Y28477500D01*
X11713715Y28498132D01*
X11859750Y28558622D01*
X11985153Y28654847D01*
X12081378Y28780250D01*
X12141868Y28926285D01*
X12162500Y29083000D01*
X15777500Y29083000D01*
X15798132Y28926285D01*
X15858622Y28780250D01*
X15954847Y28654847D01*
X16080250Y28558622D01*
X16226285Y28498132D01*
X16383000Y28477500D01*
X16539715Y28498132D01*
X16685750Y28558622D01*
X16811153Y28654847D01*
X16907378Y28780250D01*
X16967868Y28926285D01*
X16988500Y29083000D01*
X16967868Y29239715D01*
X16907378Y29385750D01*
X16847335Y29464000D01*
X36732500Y29464000D01*
X36753132Y29307285D01*
X36813622Y29161250D01*
X36817172Y29156623D01*
X36817173Y29156622D01*
X36873665Y29083000D01*
X36909847Y29035847D01*
X36914480Y29032292D01*
X36976544Y28984669D01*
X37035250Y28939622D01*
X37181285Y28879132D01*
X37338000Y28858500D01*
X37494715Y28879132D01*
X37640750Y28939622D01*
X37699457Y28984669D01*
X37761520Y29032292D01*
X37766153Y29035847D01*
X37802335Y29083000D01*
X37858827Y29156622D01*
X37858828Y29156623D01*
X37862378Y29161250D01*
X37922868Y29307285D01*
X37943500Y29464000D01*
X37922868Y29620715D01*
X37862378Y29766750D01*
X37798682Y29849761D01*
X37769708Y29887520D01*
X37766153Y29892153D01*
X37640750Y29988378D01*
X37494715Y30048868D01*
X37338000Y30069500D01*
X37181285Y30048868D01*
X37035250Y29988378D01*
X36909847Y29892153D01*
X36906292Y29887520D01*
X36877319Y29849761D01*
X36813622Y29766750D01*
X36753132Y29620715D01*
X36732500Y29464000D01*
X16847335Y29464000D01*
X16811153Y29511153D01*
X16685750Y29607378D01*
X16539715Y29667868D01*
X16383000Y29688500D01*
X16226285Y29667868D01*
X16080250Y29607378D01*
X15954847Y29511153D01*
X15858622Y29385750D01*
X15798132Y29239715D01*
X15777500Y29083000D01*
X12162500Y29083000D01*
X12141868Y29239715D01*
X12081378Y29385750D01*
X11985153Y29511153D01*
X11859750Y29607378D01*
X11713715Y29667868D01*
X11557000Y29688500D01*
X11400285Y29667868D01*
X11254250Y29607378D01*
X11128847Y29511153D01*
X11032622Y29385750D01*
X10972132Y29239715D01*
X10951500Y29083000D01*
X5158053Y29083000D01*
X5078897Y29252750D01*
X4943373Y29446299D01*
X4776299Y29613373D01*
X4582750Y29748897D01*
X4368608Y29848753D01*
X4223929Y29887520D01*
X4144139Y29908900D01*
X4144137Y29908900D01*
X4140380Y29909907D01*
X4086206Y29914647D01*
X3964087Y29925331D01*
X3964076Y29925331D01*
X3962150Y29925500D01*
X3847850Y29925500D01*
X3845924Y29925331D01*
X3845913Y29925331D01*
X3723794Y29914647D01*
X3669620Y29909907D01*
X3665863Y29908900D01*
X3665861Y29908900D01*
X3586071Y29887520D01*
X3441392Y29848753D01*
X3227250Y29748897D01*
X3033701Y29613373D01*
X2866627Y29446299D01*
X2731103Y29252750D01*
X2631247Y29038608D01*
X2630239Y29034846D01*
X2580342Y28848628D01*
X2570093Y28810380D01*
X2549500Y28575000D01*
X404000Y28575000D01*
X404000Y31750000D01*
X23143500Y31750000D01*
X23164132Y31593285D01*
X23224622Y31447250D01*
X23320847Y31321847D01*
X23446250Y31225622D01*
X23592285Y31165132D01*
X23749000Y31144500D01*
X23905715Y31165132D01*
X24051750Y31225622D01*
X24073094Y31242000D01*
X44904500Y31242000D01*
X44925093Y31006620D01*
X44986247Y30778392D01*
X45086103Y30564250D01*
X45221627Y30370701D01*
X45388701Y30203627D01*
X45582250Y30068103D01*
X45796392Y29968247D01*
X45800154Y29967239D01*
X46020861Y29908100D01*
X46020863Y29908100D01*
X46024620Y29907093D01*
X46078794Y29902353D01*
X46200913Y29891669D01*
X46200924Y29891669D01*
X46202850Y29891500D01*
X46317150Y29891500D01*
X46319076Y29891669D01*
X46319087Y29891669D01*
X46441206Y29902353D01*
X46495380Y29907093D01*
X46499137Y29908100D01*
X46499139Y29908100D01*
X46719846Y29967239D01*
X46723608Y29968247D01*
X46937750Y30068103D01*
X47131299Y30203627D01*
X47298373Y30370701D01*
X47433897Y30564250D01*
X47533753Y30778392D01*
X47594907Y31006620D01*
X47615500Y31242000D01*
X47594907Y31477380D01*
X47533753Y31705608D01*
X47433897Y31919750D01*
X47298373Y32113299D01*
X47131299Y32280373D01*
X46937750Y32415897D01*
X46723608Y32515753D01*
X46635913Y32539251D01*
X46499139Y32575900D01*
X46499137Y32575900D01*
X46495380Y32576907D01*
X46441206Y32581647D01*
X46319087Y32592331D01*
X46319076Y32592331D01*
X46317150Y32592500D01*
X46202850Y32592500D01*
X46200924Y32592331D01*
X46200913Y32592331D01*
X46078794Y32581647D01*
X46024620Y32576907D01*
X46020863Y32575900D01*
X46020861Y32575900D01*
X45884087Y32539251D01*
X45796392Y32515753D01*
X45582250Y32415897D01*
X45388701Y32280373D01*
X45221627Y32113299D01*
X45086103Y31919750D01*
X44986247Y31705608D01*
X44925093Y31477380D01*
X44904500Y31242000D01*
X24073094Y31242000D01*
X24177153Y31321847D01*
X24273378Y31447250D01*
X24333868Y31593285D01*
X24350144Y31716914D01*
X24378255Y31770915D01*
X24434501Y31794212D01*
X24450000Y31793536D01*
X24511443Y31785447D01*
X24517223Y31784686D01*
X24673938Y31805318D01*
X24819973Y31865808D01*
X24870557Y31904622D01*
X24940743Y31958478D01*
X24945376Y31962033D01*
X24978714Y32005480D01*
X25038050Y32082808D01*
X25038051Y32082809D01*
X25041601Y32087436D01*
X25102091Y32233471D01*
X25122723Y32390186D01*
X25102091Y32546901D01*
X25041601Y32692936D01*
X25028300Y32710271D01*
X24948931Y32813706D01*
X24945376Y32818339D01*
X24900830Y32852520D01*
X24824601Y32911013D01*
X24824600Y32911014D01*
X24819973Y32914564D01*
X24673938Y32975054D01*
X24517223Y32995686D01*
X24360508Y32975054D01*
X24214473Y32914564D01*
X24209846Y32911014D01*
X24209845Y32911013D01*
X24133616Y32852520D01*
X24089070Y32818339D01*
X24085515Y32813706D01*
X24006147Y32710271D01*
X23992845Y32692936D01*
X23932355Y32546901D01*
X23916621Y32427392D01*
X23916079Y32423272D01*
X23887968Y32369271D01*
X23831722Y32345974D01*
X23816223Y32346650D01*
X23754780Y32354739D01*
X23749000Y32355500D01*
X23592285Y32334868D01*
X23446250Y32274378D01*
X23441623Y32270828D01*
X23441622Y32270827D01*
X23426686Y32259366D01*
X23320847Y32178153D01*
X23317292Y32173520D01*
X23255373Y32092825D01*
X23224622Y32052750D01*
X23164132Y31906715D01*
X23143500Y31750000D01*
X404000Y31750000D01*
X404000Y32603511D01*
X5693683Y32603511D01*
X5695254Y32597648D01*
X5723511Y32492194D01*
X5730952Y32464423D01*
X5804251Y32340481D01*
X5908180Y32240816D01*
X6035083Y32172772D01*
X6175609Y32141361D01*
X6247507Y32145129D01*
X6313347Y32148579D01*
X6313350Y32148580D01*
X6319406Y32148897D01*
X6455879Y32194825D01*
X6460899Y32198236D01*
X6460902Y32198238D01*
X6521254Y32239254D01*
X6574974Y32275762D01*
X6580754Y32282601D01*
X6663999Y32381109D01*
X6667916Y32385744D01*
X6679156Y32410293D01*
X6725331Y32511150D01*
X6727858Y32516669D01*
X6731731Y32541118D01*
X6749873Y32655663D01*
X6749873Y32655665D01*
X6750384Y32658890D01*
X6750500Y32670000D01*
X6730958Y32812662D01*
X6673771Y32944813D01*
X6583152Y33056718D01*
X6514341Y33105620D01*
X6470728Y33136614D01*
X6465779Y33140131D01*
X6410590Y33160000D01*
X8271500Y33160000D01*
X8292132Y33003285D01*
X8352622Y32857250D01*
X8356172Y32852623D01*
X8356173Y32852622D01*
X8391447Y32806652D01*
X8448847Y32731847D01*
X8453480Y32728292D01*
X8543927Y32658890D01*
X8574250Y32635622D01*
X8720285Y32575132D01*
X8877000Y32554500D01*
X9033715Y32575132D01*
X9179750Y32635622D01*
X9210074Y32658890D01*
X9300520Y32728292D01*
X9305153Y32731847D01*
X9362553Y32806652D01*
X9397827Y32852622D01*
X9397828Y32852623D01*
X9401378Y32857250D01*
X9461868Y33003285D01*
X9480789Y33147000D01*
X12413500Y33147000D01*
X12434132Y32990285D01*
X12494622Y32844250D01*
X12590847Y32718847D01*
X12595480Y32715292D01*
X12668985Y32658890D01*
X12716250Y32622622D01*
X12862285Y32562132D01*
X13019000Y32541500D01*
X13175715Y32562132D01*
X13321750Y32622622D01*
X13369016Y32658890D01*
X13442520Y32715292D01*
X13447153Y32718847D01*
X13543378Y32844250D01*
X13603868Y32990285D01*
X13624500Y33147000D01*
X13603868Y33303715D01*
X13543378Y33449750D01*
X13520934Y33479000D01*
X17754477Y33479000D01*
X17775109Y33322285D01*
X17835599Y33176250D01*
X17839149Y33171623D01*
X17839150Y33171622D01*
X17840597Y33169736D01*
X17931824Y33050847D01*
X17936457Y33047292D01*
X17966019Y33024608D01*
X17998729Y32973263D01*
X17990783Y32912904D01*
X17966019Y32883392D01*
X17938593Y32862347D01*
X17931824Y32857153D01*
X17835599Y32731750D01*
X17775109Y32585715D01*
X17754477Y32429000D01*
X17775109Y32272285D01*
X17835599Y32126250D01*
X17839149Y32121623D01*
X17839150Y32121622D01*
X17847978Y32110117D01*
X17931824Y32000847D01*
X17936457Y31997292D01*
X18047474Y31912106D01*
X18057227Y31904622D01*
X18203262Y31844132D01*
X18359977Y31823500D01*
X18516692Y31844132D01*
X18662727Y31904622D01*
X18672481Y31912106D01*
X18783497Y31997292D01*
X18788130Y32000847D01*
X18871976Y32110117D01*
X18880804Y32121622D01*
X18880805Y32121623D01*
X18884355Y32126250D01*
X18944845Y32272285D01*
X18965477Y32429000D01*
X18944845Y32585715D01*
X18884355Y32731750D01*
X18788130Y32857153D01*
X18781361Y32862347D01*
X18753935Y32883392D01*
X18721225Y32934737D01*
X18729171Y32995096D01*
X18744212Y33013021D01*
X27700225Y33013021D01*
X27720857Y32856306D01*
X27781347Y32710271D01*
X27784897Y32705644D01*
X27784898Y32705643D01*
X27804655Y32679895D01*
X27877572Y32584868D01*
X27882205Y32581313D01*
X27969790Y32514107D01*
X28002975Y32488643D01*
X28149010Y32428153D01*
X28305725Y32407521D01*
X28462440Y32428153D01*
X28608475Y32488643D01*
X28641661Y32514107D01*
X28729245Y32581313D01*
X28733878Y32584868D01*
X28806795Y32679895D01*
X28826552Y32705643D01*
X28826553Y32705644D01*
X28830103Y32710271D01*
X28884668Y32842001D01*
X35894499Y32842001D01*
X35915131Y32685286D01*
X35975621Y32539251D01*
X35979171Y32534624D01*
X35979172Y32534623D01*
X36028543Y32470281D01*
X36071846Y32413848D01*
X36076479Y32410293D01*
X36182364Y32329045D01*
X36197249Y32317623D01*
X36343284Y32257133D01*
X36499999Y32236501D01*
X36656714Y32257133D01*
X36802749Y32317623D01*
X36817635Y32329045D01*
X36923519Y32410293D01*
X36928152Y32413848D01*
X36971455Y32470281D01*
X37020826Y32534623D01*
X37020827Y32534624D01*
X37024377Y32539251D01*
X37084867Y32685286D01*
X37105499Y32842001D01*
X37084867Y32998716D01*
X37024377Y33144751D01*
X37005206Y33169736D01*
X36931707Y33265521D01*
X36928152Y33270154D01*
X36868703Y33315771D01*
X36807377Y33362828D01*
X36807376Y33362829D01*
X36802749Y33366379D01*
X36656714Y33426869D01*
X36499999Y33447501D01*
X36343284Y33426869D01*
X36197249Y33366379D01*
X36192622Y33362829D01*
X36192621Y33362828D01*
X36131295Y33315771D01*
X36071846Y33270154D01*
X36068291Y33265521D01*
X35994793Y33169736D01*
X35975621Y33144751D01*
X35915131Y32998716D01*
X35894499Y32842001D01*
X28884668Y32842001D01*
X28890593Y32856306D01*
X28911225Y33013021D01*
X28890593Y33169736D01*
X28830103Y33315771D01*
X28814510Y33336093D01*
X28737433Y33436541D01*
X28733878Y33441174D01*
X28684582Y33479000D01*
X28613103Y33533848D01*
X28613102Y33533849D01*
X28608475Y33537399D01*
X28462440Y33597889D01*
X28305725Y33618521D01*
X28149010Y33597889D01*
X28002975Y33537399D01*
X27998348Y33533849D01*
X27998347Y33533848D01*
X27926868Y33479000D01*
X27877572Y33441174D01*
X27874017Y33436541D01*
X27796941Y33336093D01*
X27781347Y33315771D01*
X27720857Y33169736D01*
X27700225Y33013021D01*
X18744212Y33013021D01*
X18753935Y33024608D01*
X18783497Y33047292D01*
X18788130Y33050847D01*
X18879357Y33169736D01*
X18880804Y33171622D01*
X18880805Y33171623D01*
X18884355Y33176250D01*
X18944845Y33322285D01*
X18965477Y33479000D01*
X18944845Y33635715D01*
X18884355Y33781750D01*
X18788130Y33907153D01*
X18662727Y34003378D01*
X18516692Y34063868D01*
X18359977Y34084500D01*
X18203262Y34063868D01*
X18057227Y34003378D01*
X17931824Y33907153D01*
X17835599Y33781750D01*
X17775109Y33635715D01*
X17754477Y33479000D01*
X13520934Y33479000D01*
X13447153Y33575153D01*
X13416531Y33598650D01*
X13326378Y33667827D01*
X13326377Y33667828D01*
X13321750Y33671378D01*
X13175715Y33731868D01*
X13019000Y33752500D01*
X12862285Y33731868D01*
X12716250Y33671378D01*
X12711623Y33667828D01*
X12711622Y33667827D01*
X12621469Y33598650D01*
X12590847Y33575153D01*
X12494622Y33449750D01*
X12434132Y33303715D01*
X12413500Y33147000D01*
X9480789Y33147000D01*
X9482500Y33160000D01*
X9461868Y33316715D01*
X9401378Y33462750D01*
X9373309Y33499331D01*
X9308708Y33583520D01*
X9305153Y33588153D01*
X9265577Y33618521D01*
X9184378Y33680827D01*
X9184377Y33680828D01*
X9179750Y33684378D01*
X9033715Y33744868D01*
X8877000Y33765500D01*
X8720285Y33744868D01*
X8574250Y33684378D01*
X8569623Y33680828D01*
X8569622Y33680827D01*
X8488423Y33618521D01*
X8448847Y33588153D01*
X8445292Y33583520D01*
X8380692Y33499331D01*
X8352622Y33462750D01*
X8292132Y33316715D01*
X8271500Y33160000D01*
X6410590Y33160000D01*
X6330297Y33188907D01*
X6324246Y33189351D01*
X6324243Y33189352D01*
X6192739Y33199009D01*
X6192737Y33199009D01*
X6186690Y33199453D01*
X6045536Y33170992D01*
X6040133Y33168239D01*
X5922644Y33108376D01*
X5922641Y33108374D01*
X5917236Y33105620D01*
X5811243Y33008153D01*
X5808044Y33002993D01*
X5808042Y33002991D01*
X5738561Y32890931D01*
X5738560Y32890928D01*
X5735364Y32885774D01*
X5733672Y32879951D01*
X5733671Y32879948D01*
X5716805Y32821894D01*
X5695191Y32747497D01*
X5695127Y32741433D01*
X5695127Y32741430D01*
X5694600Y32691069D01*
X5693683Y32603511D01*
X404000Y32603511D01*
X404000Y34671000D01*
X44904500Y34671000D01*
X44925093Y34435620D01*
X44986247Y34207392D01*
X45086103Y33993250D01*
X45221627Y33799701D01*
X45388701Y33632627D01*
X45391883Y33630399D01*
X45529773Y33533848D01*
X45582250Y33497103D01*
X45796392Y33397247D01*
X45800154Y33396239D01*
X46020861Y33337100D01*
X46020863Y33337100D01*
X46024620Y33336093D01*
X46078794Y33331353D01*
X46200913Y33320669D01*
X46200924Y33320669D01*
X46202850Y33320500D01*
X46317150Y33320500D01*
X46319076Y33320669D01*
X46319087Y33320669D01*
X46441206Y33331353D01*
X46495380Y33336093D01*
X46499137Y33337100D01*
X46499139Y33337100D01*
X46719846Y33396239D01*
X46723608Y33397247D01*
X46937750Y33497103D01*
X46990228Y33533848D01*
X47128117Y33630399D01*
X47131299Y33632627D01*
X47298373Y33799701D01*
X47433897Y33993250D01*
X47533753Y34207392D01*
X47594907Y34435620D01*
X47615500Y34671000D01*
X47595607Y34898376D01*
X49062881Y34898376D01*
X49101906Y34752734D01*
X49178659Y34622951D01*
X49287486Y34518590D01*
X49420369Y34447339D01*
X49426283Y34446017D01*
X49426286Y34446016D01*
X49561599Y34415770D01*
X49567518Y34414447D01*
X49642805Y34418393D01*
X49712032Y34422020D01*
X49712035Y34422021D01*
X49718091Y34422338D01*
X49800896Y34450205D01*
X49855247Y34468496D01*
X49855249Y34468497D01*
X49860996Y34470431D01*
X49927643Y34515724D01*
X49980684Y34551771D01*
X49985703Y34555182D01*
X50083025Y34670347D01*
X50145792Y34807442D01*
X50169379Y34956365D01*
X50169501Y34967999D01*
X50149038Y35117384D01*
X50089156Y35255763D01*
X49994267Y35372941D01*
X49871362Y35460285D01*
X49729496Y35511360D01*
X49631017Y35518592D01*
X49585170Y35521959D01*
X49585168Y35521959D01*
X49579121Y35522403D01*
X49431316Y35492600D01*
X49425911Y35489846D01*
X49367895Y35460285D01*
X49296970Y35424147D01*
X49292508Y35420044D01*
X49211144Y35345226D01*
X49185981Y35322088D01*
X49182783Y35316930D01*
X49144858Y35255763D01*
X49106526Y35193941D01*
X49064460Y35049148D01*
X49062881Y34898376D01*
X47595607Y34898376D01*
X47594907Y34906380D01*
X47581514Y34956365D01*
X47534761Y35130846D01*
X47533753Y35134608D01*
X47433897Y35348750D01*
X47298373Y35542299D01*
X47131299Y35709373D01*
X46937750Y35844897D01*
X46723608Y35944753D01*
X46692083Y35953200D01*
X46499139Y36004900D01*
X46499137Y36004900D01*
X46495380Y36005907D01*
X46441206Y36010647D01*
X46319087Y36021331D01*
X46319076Y36021331D01*
X46317150Y36021500D01*
X46202850Y36021500D01*
X46200924Y36021331D01*
X46200913Y36021331D01*
X46078794Y36010647D01*
X46024620Y36005907D01*
X46020863Y36004900D01*
X46020861Y36004900D01*
X45827917Y35953200D01*
X45796392Y35944753D01*
X45582250Y35844897D01*
X45388701Y35709373D01*
X45221627Y35542299D01*
X45086103Y35348750D01*
X44986247Y35134608D01*
X44985239Y35130846D01*
X44938487Y34956365D01*
X44925093Y34906380D01*
X44904500Y34671000D01*
X404000Y34671000D01*
X404000Y35306000D01*
X24032500Y35306000D01*
X24053132Y35149285D01*
X24113622Y35003250D01*
X24117172Y34998623D01*
X24117173Y34998622D01*
X24187953Y34906380D01*
X24209847Y34877847D01*
X24214480Y34874292D01*
X24293787Y34813438D01*
X24335250Y34781622D01*
X24481285Y34721132D01*
X24638000Y34700500D01*
X24794715Y34721132D01*
X24940750Y34781622D01*
X24982214Y34813438D01*
X25061520Y34874292D01*
X25066153Y34877847D01*
X25088047Y34906380D01*
X25158827Y34998622D01*
X25158828Y34998623D01*
X25162378Y35003250D01*
X25222868Y35149285D01*
X25243500Y35306000D01*
X25222868Y35462715D01*
X25162378Y35608750D01*
X25066153Y35734153D01*
X24940750Y35830378D01*
X24794715Y35890868D01*
X24638000Y35911500D01*
X24481285Y35890868D01*
X24335250Y35830378D01*
X24209847Y35734153D01*
X24113622Y35608750D01*
X24053132Y35462715D01*
X24032500Y35306000D01*
X404000Y35306000D01*
X404000Y37410000D01*
X12034500Y37410000D01*
X12055132Y37253285D01*
X12115622Y37107250D01*
X12211847Y36981847D01*
X12337250Y36885622D01*
X12483285Y36825132D01*
X12640000Y36804500D01*
X12796715Y36825132D01*
X12942750Y36885622D01*
X13068153Y36981847D01*
X13164378Y37107250D01*
X13224868Y37253285D01*
X13245500Y37410000D01*
X13224868Y37566715D01*
X13164378Y37712750D01*
X13068153Y37838153D01*
X12957990Y37922684D01*
X12947378Y37930827D01*
X12947377Y37930828D01*
X12942750Y37934378D01*
X12796715Y37994868D01*
X12640000Y38015500D01*
X12483285Y37994868D01*
X12337250Y37934378D01*
X12332623Y37930828D01*
X12332622Y37930827D01*
X12322010Y37922684D01*
X12211847Y37838153D01*
X12115622Y37712750D01*
X12055132Y37566715D01*
X12034500Y37410000D01*
X404000Y37410000D01*
X404000Y38383511D01*
X5693683Y38383511D01*
X5695254Y38377648D01*
X5726214Y38262106D01*
X5730952Y38244423D01*
X5804251Y38120481D01*
X5908180Y38020816D01*
X6035083Y37952772D01*
X6175609Y37921361D01*
X6247508Y37925129D01*
X6313347Y37928579D01*
X6313350Y37928580D01*
X6319406Y37928897D01*
X6455879Y37974825D01*
X6460899Y37978236D01*
X6460902Y37978238D01*
X6519332Y38017948D01*
X6574974Y38055762D01*
X6612358Y38100000D01*
X8792500Y38100000D01*
X8813132Y37943285D01*
X8873622Y37797250D01*
X8969847Y37671847D01*
X9095250Y37575622D01*
X9241285Y37515132D01*
X9398000Y37494500D01*
X9554715Y37515132D01*
X9700750Y37575622D01*
X9826153Y37671847D01*
X9922378Y37797250D01*
X9982868Y37943285D01*
X10003500Y38100000D01*
X9997312Y38147000D01*
X44904500Y38147000D01*
X44925093Y37911620D01*
X44926100Y37907863D01*
X44926100Y37907861D01*
X44956979Y37792622D01*
X44986247Y37683392D01*
X44987893Y37679863D01*
X44987893Y37679862D01*
X44993288Y37668292D01*
X45086103Y37469250D01*
X45221627Y37275701D01*
X45388701Y37108627D01*
X45582250Y36973103D01*
X45796392Y36873247D01*
X45800154Y36872239D01*
X46020861Y36813100D01*
X46020863Y36813100D01*
X46024620Y36812093D01*
X46078794Y36807353D01*
X46200913Y36796669D01*
X46200924Y36796669D01*
X46202850Y36796500D01*
X46317150Y36796500D01*
X46319076Y36796669D01*
X46319087Y36796669D01*
X46441206Y36807353D01*
X46495380Y36812093D01*
X46499137Y36813100D01*
X46499139Y36813100D01*
X46719846Y36872239D01*
X46723608Y36873247D01*
X46937750Y36973103D01*
X47131299Y37108627D01*
X47298373Y37275701D01*
X47433897Y37469250D01*
X47526712Y37668292D01*
X47532107Y37679862D01*
X47532107Y37679863D01*
X47533753Y37683392D01*
X47563021Y37792622D01*
X47593900Y37907861D01*
X47593900Y37907863D01*
X47594907Y37911620D01*
X47615500Y38147000D01*
X47594907Y38382380D01*
X47533753Y38610608D01*
X47433897Y38824750D01*
X47298373Y39018299D01*
X47131299Y39185373D01*
X46937750Y39320897D01*
X46723608Y39420753D01*
X46500176Y39480622D01*
X46499139Y39480900D01*
X46499137Y39480900D01*
X46495380Y39481907D01*
X46441206Y39486647D01*
X46319087Y39497331D01*
X46319076Y39497331D01*
X46317150Y39497500D01*
X46202850Y39497500D01*
X46200924Y39497331D01*
X46200913Y39497331D01*
X46078794Y39486647D01*
X46024620Y39481907D01*
X46020863Y39480900D01*
X46020861Y39480900D01*
X46019824Y39480622D01*
X45796392Y39420753D01*
X45582250Y39320897D01*
X45388701Y39185373D01*
X45221627Y39018299D01*
X45086103Y38824750D01*
X44986247Y38610608D01*
X44925093Y38382380D01*
X44904500Y38147000D01*
X9997312Y38147000D01*
X9982868Y38256715D01*
X9922378Y38402750D01*
X9826153Y38528153D01*
X9742083Y38592662D01*
X9705378Y38620827D01*
X9705377Y38620828D01*
X9700750Y38624378D01*
X9554715Y38684868D01*
X9398000Y38705500D01*
X9241285Y38684868D01*
X9095250Y38624378D01*
X9090623Y38620828D01*
X9090622Y38620827D01*
X9053917Y38592662D01*
X8969847Y38528153D01*
X8873622Y38402750D01*
X8813132Y38256715D01*
X8792500Y38100000D01*
X6612358Y38100000D01*
X6617243Y38105780D01*
X6663999Y38161109D01*
X6667916Y38165744D01*
X6727858Y38296669D01*
X6740820Y38378503D01*
X6749873Y38435663D01*
X6749873Y38435665D01*
X6750384Y38438890D01*
X6750500Y38450000D01*
X6730958Y38592662D01*
X6673771Y38724813D01*
X6583152Y38836718D01*
X6514341Y38885620D01*
X6470728Y38916614D01*
X6465779Y38920131D01*
X6330297Y38968907D01*
X6324246Y38969351D01*
X6324243Y38969352D01*
X6192739Y38979009D01*
X6192737Y38979009D01*
X6186690Y38979453D01*
X6045536Y38950992D01*
X6040133Y38948239D01*
X5922644Y38888376D01*
X5922641Y38888374D01*
X5917236Y38885620D01*
X5811243Y38788153D01*
X5808044Y38782993D01*
X5808042Y38782991D01*
X5738561Y38670931D01*
X5738560Y38670928D01*
X5735364Y38665774D01*
X5695191Y38527497D01*
X5693683Y38383511D01*
X404000Y38383511D01*
X404000Y40350000D01*
X9794500Y40350000D01*
X9815132Y40193285D01*
X9875622Y40047250D01*
X9879172Y40042623D01*
X9879173Y40042622D01*
X9912477Y39999220D01*
X9971847Y39921847D01*
X9976480Y39918292D01*
X10074741Y39842894D01*
X10097250Y39825622D01*
X10243285Y39765132D01*
X10400000Y39744500D01*
X10556715Y39765132D01*
X10702750Y39825622D01*
X10725260Y39842894D01*
X10823520Y39918292D01*
X10828153Y39921847D01*
X10887523Y39999220D01*
X10891958Y40005000D01*
X32414500Y40005000D01*
X32435132Y39848285D01*
X32495622Y39702250D01*
X32591847Y39576847D01*
X32717250Y39480622D01*
X32863285Y39420132D01*
X33020000Y39399500D01*
X33176715Y39420132D01*
X33322750Y39480622D01*
X33448153Y39576847D01*
X33544378Y39702250D01*
X33604868Y39848285D01*
X33625500Y40005000D01*
X33604868Y40161715D01*
X33544378Y40307750D01*
X33511959Y40350000D01*
X33451708Y40428520D01*
X33448153Y40433153D01*
X33383676Y40482628D01*
X33327378Y40525827D01*
X33327377Y40525828D01*
X33322750Y40529378D01*
X33176715Y40589868D01*
X33020000Y40610500D01*
X32863285Y40589868D01*
X32717250Y40529378D01*
X32712623Y40525828D01*
X32712622Y40525827D01*
X32656324Y40482628D01*
X32591847Y40433153D01*
X32588292Y40428520D01*
X32528042Y40350000D01*
X32495622Y40307750D01*
X32435132Y40161715D01*
X32414500Y40005000D01*
X10891958Y40005000D01*
X10920827Y40042622D01*
X10920828Y40042623D01*
X10924378Y40047250D01*
X10984868Y40193285D01*
X10985629Y40199065D01*
X10985630Y40199069D01*
X10987367Y40212268D01*
X11015477Y40266269D01*
X11071722Y40289568D01*
X11129784Y40271263D01*
X11146213Y40254835D01*
X11167847Y40226641D01*
X11172480Y40223086D01*
X11245435Y40167106D01*
X11293250Y40130416D01*
X11439285Y40069926D01*
X11596000Y40049294D01*
X11752715Y40069926D01*
X11898750Y40130416D01*
X11946566Y40167106D01*
X12019520Y40223086D01*
X12024153Y40226641D01*
X12089941Y40312378D01*
X12116827Y40347416D01*
X12116828Y40347417D01*
X12120378Y40352044D01*
X12180868Y40498079D01*
X12201500Y40654794D01*
X12185018Y40779989D01*
X16158500Y40779989D01*
X16179132Y40623274D01*
X16239622Y40477239D01*
X16335847Y40351836D01*
X16461250Y40255611D01*
X16607285Y40195121D01*
X16764000Y40174489D01*
X16920715Y40195121D01*
X17066750Y40255611D01*
X17192153Y40351836D01*
X17288378Y40477239D01*
X17348868Y40623274D01*
X17369500Y40779989D01*
X17348868Y40936704D01*
X17288378Y41082739D01*
X17238302Y41148000D01*
X18190500Y41148000D01*
X18211132Y40991285D01*
X18271622Y40845250D01*
X18275172Y40840623D01*
X18275173Y40840622D01*
X18353515Y40738525D01*
X18367847Y40719847D01*
X18372480Y40716292D01*
X18455290Y40652750D01*
X18493250Y40623622D01*
X18639285Y40563132D01*
X18796000Y40542500D01*
X18952715Y40563132D01*
X19098750Y40623622D01*
X19136711Y40652750D01*
X19219520Y40716292D01*
X19224153Y40719847D01*
X19238485Y40738525D01*
X19316827Y40840622D01*
X19316828Y40840623D01*
X19320378Y40845250D01*
X19380868Y40991285D01*
X19401500Y41148000D01*
X19380868Y41304715D01*
X19340571Y41402000D01*
X20476500Y41402000D01*
X20497132Y41245285D01*
X20557622Y41099250D01*
X20653847Y40973847D01*
X20658480Y40970292D01*
X20707556Y40932635D01*
X20779250Y40877622D01*
X20925285Y40817132D01*
X21082000Y40796500D01*
X21238715Y40817132D01*
X21384750Y40877622D01*
X21456445Y40932635D01*
X21505520Y40970292D01*
X21510153Y40973847D01*
X21606378Y41099250D01*
X21666868Y41245285D01*
X21687500Y41402000D01*
X21666868Y41558715D01*
X21606378Y41704750D01*
X21584219Y41733629D01*
X21513708Y41825520D01*
X21510153Y41830153D01*
X21384750Y41926378D01*
X21238715Y41986868D01*
X21082000Y42007500D01*
X20925285Y41986868D01*
X20779250Y41926378D01*
X20653847Y41830153D01*
X20650292Y41825520D01*
X20579782Y41733629D01*
X20557622Y41704750D01*
X20497132Y41558715D01*
X20476500Y41402000D01*
X19340571Y41402000D01*
X19320378Y41450750D01*
X19224153Y41576153D01*
X19098750Y41672378D01*
X18952715Y41732868D01*
X18796000Y41753500D01*
X18639285Y41732868D01*
X18493250Y41672378D01*
X18367847Y41576153D01*
X18271622Y41450750D01*
X18211132Y41304715D01*
X18190500Y41148000D01*
X17238302Y41148000D01*
X17192153Y41208142D01*
X17066750Y41304367D01*
X16920715Y41364857D01*
X16764000Y41385489D01*
X16607285Y41364857D01*
X16461250Y41304367D01*
X16335847Y41208142D01*
X16239622Y41082739D01*
X16179132Y40936704D01*
X16158500Y40779989D01*
X12185018Y40779989D01*
X12180868Y40811509D01*
X12120378Y40957544D01*
X12024153Y41082947D01*
X12007194Y41095960D01*
X11903378Y41175621D01*
X11903377Y41175622D01*
X11898750Y41179172D01*
X11752715Y41239662D01*
X11596000Y41260294D01*
X11439285Y41239662D01*
X11293250Y41179172D01*
X11288623Y41175622D01*
X11288622Y41175621D01*
X11184806Y41095960D01*
X11167847Y41082947D01*
X11071622Y40957544D01*
X11011132Y40811509D01*
X11010371Y40805729D01*
X11010370Y40805725D01*
X11008633Y40792526D01*
X10980523Y40738525D01*
X10924278Y40715226D01*
X10866216Y40733531D01*
X10849786Y40749960D01*
X10828153Y40778153D01*
X10777355Y40817132D01*
X10707378Y40870827D01*
X10707377Y40870828D01*
X10702750Y40874378D01*
X10556715Y40934868D01*
X10400000Y40955500D01*
X10243285Y40934868D01*
X10097250Y40874378D01*
X10092623Y40870828D01*
X10092622Y40870827D01*
X10022645Y40817132D01*
X9971847Y40778153D01*
X9968292Y40773520D01*
X9881626Y40660574D01*
X9875622Y40652750D01*
X9815132Y40506715D01*
X9794500Y40350000D01*
X404000Y40350000D01*
X404000Y43180000D01*
X12729500Y43180000D01*
X12750132Y43023285D01*
X12810622Y42877250D01*
X12906847Y42751847D01*
X13032250Y42655622D01*
X13178285Y42595132D01*
X13335000Y42574500D01*
X13491715Y42595132D01*
X13637750Y42655622D01*
X13763153Y42751847D01*
X13859378Y42877250D01*
X13919868Y43023285D01*
X13940500Y43180000D01*
X14126500Y43180000D01*
X14147132Y43023285D01*
X14207622Y42877250D01*
X14303847Y42751847D01*
X14429250Y42655622D01*
X14575285Y42595132D01*
X14732000Y42574500D01*
X14888715Y42595132D01*
X15034750Y42655622D01*
X15160153Y42751847D01*
X15256378Y42877250D01*
X15316868Y43023285D01*
X15337500Y43180000D01*
X15650500Y43180000D01*
X15671132Y43023285D01*
X15731622Y42877250D01*
X15827847Y42751847D01*
X15953250Y42655622D01*
X16099285Y42595132D01*
X16256000Y42574500D01*
X16412715Y42595132D01*
X16558750Y42655622D01*
X16684153Y42751847D01*
X16780378Y42877250D01*
X16840868Y43023285D01*
X16861500Y43180000D01*
X16840868Y43336715D01*
X16788145Y43464000D01*
X19049500Y43464000D01*
X19070132Y43307285D01*
X19130622Y43161250D01*
X19226847Y43035847D01*
X19231480Y43032292D01*
X19330566Y42956261D01*
X19352250Y42939622D01*
X19498285Y42879132D01*
X19655000Y42858500D01*
X19811715Y42879132D01*
X19924864Y42926000D01*
X24032500Y42926000D01*
X24053132Y42769285D01*
X24113622Y42623250D01*
X24117172Y42618623D01*
X24117173Y42618622D01*
X24150445Y42575261D01*
X24209847Y42497847D01*
X24214480Y42494292D01*
X24275461Y42447500D01*
X24335250Y42401622D01*
X24481285Y42341132D01*
X24638000Y42320500D01*
X24794715Y42341132D01*
X24940750Y42401622D01*
X25000540Y42447500D01*
X25061520Y42494292D01*
X25066153Y42497847D01*
X25125555Y42575261D01*
X25158827Y42618622D01*
X25158828Y42618623D01*
X25162378Y42623250D01*
X25222868Y42769285D01*
X25243500Y42926000D01*
X25222868Y43082715D01*
X25162378Y43228750D01*
X25155623Y43237554D01*
X25069708Y43349520D01*
X25066153Y43354153D01*
X24940750Y43450378D01*
X24794715Y43510868D01*
X24638000Y43531500D01*
X24481285Y43510868D01*
X24335250Y43450378D01*
X24209847Y43354153D01*
X24206292Y43349520D01*
X24120378Y43237554D01*
X24113622Y43228750D01*
X24053132Y43082715D01*
X24032500Y42926000D01*
X19924864Y42926000D01*
X19957750Y42939622D01*
X19979435Y42956261D01*
X20078520Y43032292D01*
X20083153Y43035847D01*
X20179378Y43161250D01*
X20239868Y43307285D01*
X20260500Y43464000D01*
X20247730Y43561000D01*
X29874500Y43561000D01*
X29895132Y43404285D01*
X29955622Y43258250D01*
X29959172Y43253623D01*
X29959173Y43253622D01*
X30030053Y43161250D01*
X30051847Y43132847D01*
X30177250Y43036622D01*
X30323285Y42976132D01*
X30480000Y42955500D01*
X30636715Y42976132D01*
X30782750Y43036622D01*
X30908153Y43132847D01*
X30929947Y43161250D01*
X31003937Y43257675D01*
X31055282Y43290385D01*
X31115641Y43282439D01*
X31156770Y43237554D01*
X31162784Y43191879D01*
X31144500Y43053000D01*
X31165132Y42896285D01*
X31225622Y42750250D01*
X31321847Y42624847D01*
X31326480Y42621292D01*
X31429997Y42541861D01*
X31447250Y42528622D01*
X31593285Y42468132D01*
X31750000Y42447500D01*
X31906715Y42468132D01*
X32052750Y42528622D01*
X32070004Y42541861D01*
X32173520Y42621292D01*
X32178153Y42624847D01*
X32274378Y42750250D01*
X32334868Y42896285D01*
X32355500Y43053000D01*
X32354225Y43062688D01*
X35726188Y43062688D01*
X35746820Y42905973D01*
X35807310Y42759938D01*
X35903535Y42634535D01*
X36028938Y42538310D01*
X36174973Y42477820D01*
X36331688Y42457188D01*
X36488403Y42477820D01*
X36634438Y42538310D01*
X36759841Y42634535D01*
X36856066Y42759938D01*
X36916556Y42905973D01*
X36937188Y43062688D01*
X36916556Y43219403D01*
X36856066Y43365438D01*
X36759841Y43490841D01*
X36660875Y43566780D01*
X36639066Y43583515D01*
X36639065Y43583516D01*
X36634438Y43587066D01*
X36488403Y43647556D01*
X36331688Y43668188D01*
X36174973Y43647556D01*
X36028938Y43587066D01*
X36024311Y43583516D01*
X36024310Y43583515D01*
X36002501Y43566780D01*
X35903535Y43490841D01*
X35807310Y43365438D01*
X35746820Y43219403D01*
X35726188Y43062688D01*
X32354225Y43062688D01*
X32334868Y43209715D01*
X32274378Y43355750D01*
X32258541Y43376390D01*
X32181708Y43476520D01*
X32178153Y43481153D01*
X32113531Y43530739D01*
X32057378Y43573827D01*
X32057377Y43573828D01*
X32052750Y43577378D01*
X31906715Y43637868D01*
X31750000Y43658500D01*
X31593285Y43637868D01*
X31447250Y43577378D01*
X31442623Y43573828D01*
X31442622Y43573827D01*
X31386469Y43530739D01*
X31321847Y43481153D01*
X31318292Y43476520D01*
X31226063Y43356325D01*
X31174718Y43323615D01*
X31114359Y43331561D01*
X31073230Y43376446D01*
X31067216Y43422122D01*
X31071969Y43458220D01*
X31085500Y43561000D01*
X31064868Y43717715D01*
X31004378Y43863750D01*
X30974261Y43903000D01*
X33684500Y43903000D01*
X33705132Y43746285D01*
X33765622Y43600250D01*
X33769172Y43595623D01*
X33769173Y43595622D01*
X33800175Y43555220D01*
X33861847Y43474847D01*
X33987250Y43378622D01*
X34133285Y43318132D01*
X34290000Y43297500D01*
X34446715Y43318132D01*
X34592750Y43378622D01*
X34718153Y43474847D01*
X34779825Y43555220D01*
X34810827Y43595622D01*
X34810828Y43595623D01*
X34814378Y43600250D01*
X34874868Y43746285D01*
X34895500Y43903000D01*
X34874868Y44059715D01*
X34814378Y44205750D01*
X34753670Y44284867D01*
X34721708Y44326520D01*
X34718153Y44331153D01*
X34607001Y44416443D01*
X34597378Y44423827D01*
X34597377Y44423828D01*
X34592750Y44427378D01*
X34446715Y44487868D01*
X34290000Y44508500D01*
X34133285Y44487868D01*
X33987250Y44427378D01*
X33982623Y44423828D01*
X33982622Y44423827D01*
X33972999Y44416443D01*
X33861847Y44331153D01*
X33858292Y44326520D01*
X33826331Y44284867D01*
X33765622Y44205750D01*
X33705132Y44059715D01*
X33684500Y43903000D01*
X30974261Y43903000D01*
X30911708Y43984520D01*
X30908153Y43989153D01*
X30861735Y44024771D01*
X30787378Y44081827D01*
X30787377Y44081828D01*
X30782750Y44085378D01*
X30648475Y44140997D01*
X30642106Y44143635D01*
X30636715Y44145868D01*
X30480000Y44166500D01*
X30323285Y44145868D01*
X30317894Y44143635D01*
X30311525Y44140997D01*
X30177250Y44085378D01*
X30172623Y44081828D01*
X30172622Y44081827D01*
X30098265Y44024771D01*
X30051847Y43989153D01*
X30048292Y43984520D01*
X29985740Y43903000D01*
X29955622Y43863750D01*
X29895132Y43717715D01*
X29874500Y43561000D01*
X20247730Y43561000D01*
X20239868Y43620715D01*
X20179378Y43766750D01*
X20119135Y43845261D01*
X20086708Y43887520D01*
X20083153Y43892153D01*
X19957750Y43988378D01*
X19811715Y44048868D01*
X19655000Y44069500D01*
X19498285Y44048868D01*
X19352250Y43988378D01*
X19226847Y43892153D01*
X19223292Y43887520D01*
X19190866Y43845261D01*
X19130622Y43766750D01*
X19070132Y43620715D01*
X19049500Y43464000D01*
X16788145Y43464000D01*
X16780378Y43482750D01*
X16758219Y43511629D01*
X16687708Y43603520D01*
X16684153Y43608153D01*
X16619531Y43657739D01*
X16563378Y43700827D01*
X16563377Y43700828D01*
X16558750Y43704378D01*
X16412715Y43764868D01*
X16256000Y43785500D01*
X16099285Y43764868D01*
X15953250Y43704378D01*
X15948623Y43700828D01*
X15948622Y43700827D01*
X15892469Y43657739D01*
X15827847Y43608153D01*
X15824292Y43603520D01*
X15753782Y43511629D01*
X15731622Y43482750D01*
X15671132Y43336715D01*
X15650500Y43180000D01*
X15337500Y43180000D01*
X15316868Y43336715D01*
X15256378Y43482750D01*
X15234219Y43511629D01*
X15163708Y43603520D01*
X15160153Y43608153D01*
X15095531Y43657739D01*
X15039378Y43700827D01*
X15039377Y43700828D01*
X15034750Y43704378D01*
X14888715Y43764868D01*
X14732000Y43785500D01*
X14575285Y43764868D01*
X14429250Y43704378D01*
X14424623Y43700828D01*
X14424622Y43700827D01*
X14368469Y43657739D01*
X14303847Y43608153D01*
X14300292Y43603520D01*
X14229782Y43511629D01*
X14207622Y43482750D01*
X14147132Y43336715D01*
X14126500Y43180000D01*
X13940500Y43180000D01*
X13919868Y43336715D01*
X13859378Y43482750D01*
X13837219Y43511629D01*
X13766708Y43603520D01*
X13763153Y43608153D01*
X13698531Y43657739D01*
X13642378Y43700827D01*
X13642377Y43700828D01*
X13637750Y43704378D01*
X13491715Y43764868D01*
X13335000Y43785500D01*
X13178285Y43764868D01*
X13032250Y43704378D01*
X13027623Y43700828D01*
X13027622Y43700827D01*
X12971469Y43657739D01*
X12906847Y43608153D01*
X12903292Y43603520D01*
X12832782Y43511629D01*
X12810622Y43482750D01*
X12750132Y43336715D01*
X12729500Y43180000D01*
X404000Y43180000D01*
X404000Y44507377D01*
X9354880Y44507377D01*
X9393905Y44361735D01*
X9470658Y44231952D01*
X9475039Y44227751D01*
X9563811Y44142622D01*
X9579485Y44127591D01*
X9712368Y44056340D01*
X9718282Y44055018D01*
X9718285Y44055017D01*
X9853598Y44024771D01*
X9859517Y44023448D01*
X9934803Y44027393D01*
X10004031Y44031021D01*
X10004034Y44031022D01*
X10010090Y44031339D01*
X10094407Y44059715D01*
X10147246Y44077497D01*
X10147248Y44077498D01*
X10152995Y44079432D01*
X10161745Y44085378D01*
X10272683Y44160772D01*
X10277702Y44164183D01*
X10375024Y44279348D01*
X10437791Y44416443D01*
X10439877Y44429610D01*
X10443106Y44450000D01*
X11078500Y44450000D01*
X11099132Y44293285D01*
X11159622Y44147250D01*
X11163172Y44142623D01*
X11163173Y44142622D01*
X11222653Y44065106D01*
X11255847Y44021847D01*
X11260480Y44018292D01*
X11304493Y43984520D01*
X11381250Y43925622D01*
X11462051Y43892153D01*
X11519449Y43868378D01*
X11527285Y43865132D01*
X11684000Y43844500D01*
X11840715Y43865132D01*
X11848552Y43868378D01*
X11905949Y43892153D01*
X11986750Y43925622D01*
X12063508Y43984520D01*
X12107520Y44018292D01*
X12112153Y44021847D01*
X12145347Y44065106D01*
X12204827Y44142622D01*
X12204828Y44142623D01*
X12208378Y44147250D01*
X12268868Y44293285D01*
X12289500Y44450000D01*
X12273586Y44570877D01*
X38374380Y44570877D01*
X38413405Y44425235D01*
X38490158Y44295452D01*
X38530714Y44256560D01*
X38583699Y44205750D01*
X38598985Y44191091D01*
X38731868Y44119840D01*
X38737782Y44118518D01*
X38737785Y44118517D01*
X38873098Y44088271D01*
X38879017Y44086948D01*
X38954304Y44090894D01*
X39023531Y44094521D01*
X39023534Y44094522D01*
X39029590Y44094839D01*
X39118394Y44124725D01*
X39166746Y44140997D01*
X39166748Y44140998D01*
X39172495Y44142932D01*
X39186779Y44152639D01*
X39292183Y44224272D01*
X39297202Y44227683D01*
X39394524Y44342848D01*
X39400779Y44356509D01*
X39454764Y44474424D01*
X39457291Y44479943D01*
X39458547Y44487868D01*
X39472146Y44573732D01*
X39480878Y44628866D01*
X39481000Y44640500D01*
X39460537Y44789885D01*
X39400655Y44928264D01*
X39305766Y45045442D01*
X39277164Y45065769D01*
X39187810Y45129269D01*
X39182861Y45132786D01*
X39040995Y45183861D01*
X38942516Y45191093D01*
X38896669Y45194460D01*
X38896667Y45194460D01*
X38890620Y45194904D01*
X38742815Y45165101D01*
X38737410Y45162347D01*
X38679394Y45132786D01*
X38608469Y45096648D01*
X38604007Y45092545D01*
X38542406Y45035900D01*
X38497480Y44994589D01*
X38484949Y44974378D01*
X38422414Y44873520D01*
X38418025Y44866442D01*
X38416333Y44860619D01*
X38416332Y44860616D01*
X38397884Y44797116D01*
X38375959Y44721649D01*
X38374380Y44570877D01*
X12273586Y44570877D01*
X12268868Y44606715D01*
X12208378Y44752750D01*
X12112153Y44878153D01*
X12054103Y44922696D01*
X11991378Y44970827D01*
X11991377Y44970828D01*
X11986750Y44974378D01*
X11840715Y45034868D01*
X11684000Y45055500D01*
X11527285Y45034868D01*
X11381250Y44974378D01*
X11376623Y44970828D01*
X11376622Y44970827D01*
X11313897Y44922696D01*
X11255847Y44878153D01*
X11159622Y44752750D01*
X11099132Y44606715D01*
X11078500Y44450000D01*
X10443106Y44450000D01*
X10452371Y44508500D01*
X10461378Y44565366D01*
X10461500Y44577000D01*
X10441037Y44726385D01*
X10381155Y44864764D01*
X10286266Y44981942D01*
X10262693Y44998695D01*
X10168310Y45065769D01*
X10163361Y45069286D01*
X10021495Y45120361D01*
X9923016Y45127593D01*
X9877169Y45130960D01*
X9877167Y45130960D01*
X9871120Y45131404D01*
X9723315Y45101601D01*
X9717910Y45098847D01*
X9603844Y45040727D01*
X9588969Y45033148D01*
X9584507Y45029045D01*
X9533283Y44981942D01*
X9477980Y44931089D01*
X9474782Y44925931D01*
X9434285Y44860616D01*
X9398525Y44802942D01*
X9396833Y44797119D01*
X9396832Y44797116D01*
X9383943Y44752750D01*
X9356459Y44658149D01*
X9356395Y44652085D01*
X9356395Y44652082D01*
X9356152Y44628866D01*
X9354880Y44507377D01*
X404000Y44507377D01*
X404000Y48006000D01*
X34954500Y48006000D01*
X34975132Y47849285D01*
X35035622Y47703250D01*
X35131847Y47577847D01*
X35257250Y47481622D01*
X35403285Y47421132D01*
X35560000Y47400500D01*
X35716715Y47421132D01*
X35862750Y47481622D01*
X35988153Y47577847D01*
X36084378Y47703250D01*
X36144868Y47849285D01*
X36165500Y48006000D01*
X36144868Y48162715D01*
X36084378Y48308750D01*
X35988153Y48434153D01*
X35862750Y48530378D01*
X35716715Y48590868D01*
X35560000Y48611500D01*
X35403285Y48590868D01*
X35257250Y48530378D01*
X35131847Y48434153D01*
X35035622Y48308750D01*
X34975132Y48162715D01*
X34954500Y48006000D01*
X404000Y48006000D01*
X404000Y50307000D01*
X424822Y50364208D01*
X477545Y50394648D01*
X493000Y50396000D01*
X50307000Y50396000D01*
X50364208Y50375178D01*
G37*
G04 #@! TD.AperFunction*
M02*
