G04 #@! TF.GenerationSoftware,KiCad,Pcbnew,(5.99.0-6591-gee6c8b60ac)*
G04 #@! TF.CreationDate,2020-11-09T16:27:33+01:00*
G04 #@! TF.ProjectId,TFGPS01A,54464750-5330-4314-912e-6b696361645f,REV*
G04 #@! TF.SameCoordinates,Original*
G04 #@! TF.FileFunction,Soldermask,Bot*
G04 #@! TF.FilePolarity,Negative*
%FSLAX46Y46*%
G04 Gerber Fmt 4.6, Leading zero omitted, Abs format (unit mm)*
G04 Created by KiCad (PCBNEW (5.99.0-6591-gee6c8b60ac)) date 2020-11-09 16:27:33*
%MOMM*%
%LPD*%
G01*
G04 APERTURE LIST*
G04 Aperture macros list*
%AMRoundRect*
0 Rectangle with rounded corners*
0 $1 Rounding radius*
0 $2 $3 $4 $5 $6 $7 $8 $9 X,Y pos of 4 corners*
0 Add a 4 corners polygon primitive as box body*
4,1,4,$2,$3,$4,$5,$6,$7,$8,$9,$2,$3,0*
0 Add four circle primitives for the rounded corners*
1,1,$1+$1,$2,$3,0*
1,1,$1+$1,$4,$5,0*
1,1,$1+$1,$6,$7,0*
1,1,$1+$1,$8,$9,0*
0 Add four rect primitives between the rounded corners*
20,1,$1+$1,$2,$3,$4,$5,0*
20,1,$1+$1,$4,$5,$6,$7,0*
20,1,$1+$1,$6,$7,$8,$9,0*
20,1,$1+$1,$8,$9,$2,$3,0*%
G04 Aperture macros list end*
%ADD10C,6.400000*%
%ADD11C,1.200000*%
%ADD12C,2.900000*%
%ADD13RoundRect,0.200000X0.850000X-0.650000X0.850000X0.650000X-0.850000X0.650000X-0.850000X-0.650000X0*%
%ADD14RoundRect,0.200000X0.444500X0.698500X-0.444500X0.698500X-0.444500X-0.698500X0.444500X-0.698500X0*%
%ADD15RoundRect,0.200000X0.530000X0.325000X-0.530000X0.325000X-0.530000X-0.325000X0.530000X-0.325000X0*%
%ADD16RoundRect,0.200000X0.575000X-0.300000X0.575000X0.300000X-0.575000X0.300000X-0.575000X-0.300000X0*%
%ADD17RoundRect,0.200000X0.575000X-0.150000X0.575000X0.150000X-0.575000X0.150000X-0.575000X-0.150000X0*%
%ADD18O,2.400000X1.400000*%
%ADD19O,2.500000X1.450000*%
%ADD20C,1.050000*%
%ADD21RoundRect,0.200000X0.698500X-0.444500X0.698500X0.444500X-0.698500X0.444500X-0.698500X-0.444500X0*%
%ADD22RoundRect,0.200000X-0.200000X0.325000X-0.200000X-0.325000X0.200000X-0.325000X0.200000X0.325000X0*%
%ADD23C,2.700000*%
%ADD24RoundRect,0.200000X0.475000X0.750000X-0.475000X0.750000X-0.475000X-0.750000X0.475000X-0.750000X0*%
%ADD25RoundRect,0.200000X-0.400000X0.450000X-0.400000X-0.450000X0.400000X-0.450000X0.400000X0.450000X0*%
%ADD26RoundRect,0.200000X-0.444500X-0.698500X0.444500X-0.698500X0.444500X0.698500X-0.444500X0.698500X0*%
%ADD27RoundRect,0.250000X-0.250000X-0.800000X0.250000X-0.800000X0.250000X0.800000X-0.250000X0.800000X0*%
%ADD28RoundRect,0.350000X-0.350000X-1.200000X0.350000X-1.200000X0.350000X1.200000X-0.350000X1.200000X0*%
%ADD29RoundRect,0.200000X-0.698500X0.444500X-0.698500X-0.444500X0.698500X-0.444500X0.698500X0.444500X0*%
%ADD30RoundRect,0.200000X-0.900000X1.250000X-0.900000X-1.250000X0.900000X-1.250000X0.900000X1.250000X0*%
%ADD31RoundRect,0.250000X0.250000X0.800000X-0.250000X0.800000X-0.250000X-0.800000X0.250000X-0.800000X0*%
%ADD32RoundRect,0.350000X0.350000X1.200000X-0.350000X1.200000X-0.350000X-1.200000X0.350000X-1.200000X0*%
%ADD33RoundRect,0.200000X-1.250000X-0.900000X1.250000X-0.900000X1.250000X0.900000X-1.250000X0.900000X0*%
%ADD34RoundRect,0.330000X-0.495000X-1.195000X0.495000X-1.195000X0.495000X1.195000X-0.495000X1.195000X0*%
%ADD35RoundRect,0.200000X-0.179605X0.808223X-0.808223X0.179605X0.179605X-0.808223X0.808223X-0.179605X0*%
%ADD36RoundRect,0.300000X0.800000X0.300000X-0.800000X0.300000X-0.800000X-0.300000X0.800000X-0.300000X0*%
%ADD37RoundRect,0.290000X-2.110000X-1.160000X2.110000X-1.160000X2.110000X1.160000X-2.110000X1.160000X0*%
%ADD38RoundRect,0.200000X-0.450000X-0.400000X0.450000X-0.400000X0.450000X0.400000X-0.450000X0.400000X0*%
%ADD39RoundRect,0.200000X0.808223X0.179605X0.179605X0.808223X-0.808223X-0.179605X-0.179605X-0.808223X0*%
%ADD40RoundRect,0.200000X-0.475000X-0.750000X0.475000X-0.750000X0.475000X0.750000X-0.475000X0.750000X0*%
%ADD41RoundRect,0.200000X0.900000X0.500000X-0.900000X0.500000X-0.900000X-0.500000X0.900000X-0.500000X0*%
%ADD42RoundRect,0.200000X1.200000X0.850000X-1.200000X0.850000X-1.200000X-0.850000X1.200000X-0.850000X0*%
%ADD43RoundRect,0.200000X-0.530000X-0.325000X0.530000X-0.325000X0.530000X0.325000X-0.530000X0.325000X0*%
%ADD44RoundRect,0.200000X1.250000X-1.525000X1.250000X1.525000X-1.250000X1.525000X-1.250000X-1.525000X0*%
%ADD45RoundRect,0.200000X0.400000X-0.450000X0.400000X0.450000X-0.400000X0.450000X-0.400000X-0.450000X0*%
G04 APERTURE END LIST*
D10*
X45420000Y5380000D03*
X5380000Y5380000D03*
X45420000Y45420000D03*
D11*
X29626000Y25450000D03*
D12*
X29626000Y25450000D03*
D10*
X5380000Y45420000D03*
D13*
X25781000Y37592000D03*
X25781000Y41092000D03*
D14*
X42672000Y27813000D03*
X40767000Y27813000D03*
D15*
X16594000Y33904000D03*
X16594000Y32954000D03*
X16594000Y32004000D03*
X14394000Y32004000D03*
X14394000Y32954000D03*
X14394000Y33904000D03*
D16*
X7295000Y32360000D03*
X7295000Y33160000D03*
D17*
X7295000Y34310000D03*
X7295000Y35310000D03*
X7295000Y35810000D03*
X7295000Y36810000D03*
D16*
X7295000Y38760000D03*
X7295000Y37960000D03*
D17*
X7295000Y37310000D03*
X7295000Y36310000D03*
X7295000Y34810000D03*
X7295000Y33810000D03*
D18*
X2540000Y31240000D03*
X2540000Y39880000D03*
D19*
X6720000Y31240000D03*
X6720000Y39880000D03*
D20*
X6220000Y38450000D03*
X6220000Y32670000D03*
D21*
X25908000Y28448000D03*
X25908000Y30353000D03*
D22*
X33619555Y16714043D03*
X34269555Y16714043D03*
X34919555Y16714043D03*
X34919555Y14814043D03*
X34269555Y14814043D03*
X33619555Y14814043D03*
D23*
X46260000Y27813000D03*
D24*
X44185000Y27813000D03*
X48335000Y27813000D03*
D25*
X40706000Y38465000D03*
X42606000Y38465000D03*
X41656000Y36465000D03*
D14*
X4826000Y15240000D03*
X2921000Y15240000D03*
D21*
X23495000Y22225000D03*
X23495000Y24130000D03*
D26*
X40005000Y25781000D03*
X41910000Y25781000D03*
D14*
X32022394Y18110402D03*
X30117394Y18110402D03*
D27*
X13405000Y45394000D03*
X14655000Y45394000D03*
X15905000Y45394000D03*
X17155000Y45394000D03*
X18405000Y45394000D03*
X19655000Y45394000D03*
X20905000Y45394000D03*
X22155000Y45394000D03*
D28*
X11555000Y48594000D03*
X24005000Y48594000D03*
D26*
X32131000Y41656000D03*
X34036000Y41656000D03*
D23*
X46260000Y31242000D03*
D24*
X44185000Y31242000D03*
X48335000Y31242000D03*
D29*
X23495000Y18632500D03*
X23495000Y16727500D03*
D23*
X46260000Y34671000D03*
D24*
X44185000Y34671000D03*
X48335000Y34671000D03*
D29*
X18796000Y37211000D03*
X18796000Y35306000D03*
D14*
X21336000Y30480000D03*
X19431000Y30480000D03*
D21*
X18796000Y40005000D03*
X18796000Y41910000D03*
D30*
X29337000Y6286000D03*
X29337000Y2286000D03*
D14*
X22606000Y32893000D03*
X20701000Y32893000D03*
X42672000Y31242000D03*
X40767000Y31242000D03*
D29*
X37719000Y24511000D03*
X37719000Y22606000D03*
X40259000Y45720000D03*
X40259000Y43815000D03*
D31*
X38155000Y5359000D03*
X36905000Y5359000D03*
X35655000Y5359000D03*
X34405000Y5359000D03*
D32*
X32555000Y2159000D03*
X40005000Y2159000D03*
D21*
X11176000Y37084000D03*
X11176000Y38989000D03*
X21082000Y40640000D03*
X21082000Y42545000D03*
D14*
X4191000Y25527000D03*
X2286000Y25527000D03*
D33*
X44609000Y23622000D03*
X48609000Y23622000D03*
D21*
X11684000Y41211500D03*
X11684000Y43116500D03*
D29*
X37211000Y42989500D03*
X37211000Y41084500D03*
D14*
X4826000Y17272000D03*
X2921000Y17272000D03*
D23*
X46260000Y38147000D03*
D24*
X44185000Y38147000D03*
X48335000Y38147000D03*
D34*
X13710000Y36957000D03*
X16510000Y36957000D03*
D26*
X29984176Y12856902D03*
X31889176Y12856902D03*
D14*
X42545000Y34671000D03*
X40640000Y34671000D03*
D35*
X34858973Y23098823D03*
X33511935Y21751785D03*
D21*
X34939148Y18522534D03*
X34939148Y20427534D03*
D36*
X19970000Y25732500D03*
X19970000Y24632500D03*
X19970000Y23532500D03*
X19970000Y22432500D03*
X19970000Y21332500D03*
X19970000Y20232500D03*
X19970000Y19132500D03*
X19970000Y16132500D03*
X19970000Y15032500D03*
X19970000Y13932500D03*
X19970000Y12832500D03*
X19970000Y11732500D03*
X7970000Y11732500D03*
X7970000Y12832500D03*
X7970000Y13932500D03*
X7970000Y15032500D03*
X7970000Y16132500D03*
X7970000Y19132500D03*
X7970000Y20232500D03*
X7970000Y21332500D03*
X7970000Y22432500D03*
X7970000Y23532500D03*
X7970000Y24632500D03*
X7970000Y25732500D03*
D21*
X27030193Y15992908D03*
X27030193Y17897908D03*
D14*
X4826000Y21336000D03*
X2921000Y21336000D03*
X30907309Y15988598D03*
X29002309Y15988598D03*
D29*
X37084000Y13703300D03*
X37084000Y11798300D03*
D21*
X16764000Y39624000D03*
X16764000Y41529000D03*
D27*
X30530000Y45394000D03*
X31780000Y45394000D03*
X33030000Y45394000D03*
X34280000Y45394000D03*
X35530000Y45394000D03*
X36780000Y45394000D03*
D28*
X28680000Y48594000D03*
X38630000Y48594000D03*
D14*
X4826000Y13208000D03*
X2921000Y13208000D03*
D21*
X25654000Y22225000D03*
X25654000Y24130000D03*
D37*
X28702000Y34798000D03*
X37102000Y34798000D03*
D29*
X23495000Y41148000D03*
X23495000Y39243000D03*
D38*
X39640000Y20767000D03*
X39640000Y22667000D03*
X41640000Y21717000D03*
D26*
X7874000Y28575000D03*
X9779000Y28575000D03*
D39*
X32310981Y22780941D03*
X30963943Y24127979D03*
D23*
X3905000Y28575000D03*
D40*
X5980000Y28575000D03*
X1830000Y28575000D03*
D14*
X4826000Y23368000D03*
X2921000Y23368000D03*
D41*
X28093579Y12783639D03*
X22493579Y12783639D03*
D42*
X22793579Y10483639D03*
X27793579Y10483639D03*
D43*
X20955000Y35184000D03*
X20955000Y36134000D03*
X20955000Y37084000D03*
X23155000Y37084000D03*
X23155000Y35184000D03*
D31*
X24167000Y5406000D03*
X22917000Y5406000D03*
X21667000Y5406000D03*
X20417000Y5406000D03*
X19167000Y5406000D03*
X17917000Y5406000D03*
X16667000Y5406000D03*
X15417000Y5406000D03*
X14167000Y5406000D03*
X12917000Y5406000D03*
D32*
X26017000Y2206000D03*
X11067000Y2206000D03*
D14*
X32003945Y20282176D03*
X30098945Y20282176D03*
D21*
X23622000Y28575000D03*
X23622000Y30480000D03*
D29*
X10731501Y32512001D03*
X10731501Y30607001D03*
D26*
X36484510Y15445608D03*
X38389510Y15445608D03*
D14*
X4826000Y19304000D03*
X2921000Y19304000D03*
D44*
X44196000Y11269000D03*
X44196000Y19719000D03*
D45*
X41336000Y40021000D03*
X39436000Y40021000D03*
X40386000Y42021000D03*
D14*
X35291384Y12864203D03*
X33386384Y12864203D03*
G36*
X34185898Y21153664D02*
G01*
X34185814Y21152381D01*
X34171487Y21117791D01*
X34185452Y21084076D01*
X34227707Y21071258D01*
X34229074Y21069798D01*
X34228493Y21067884D01*
X34227516Y21067382D01*
X34164890Y21054925D01*
X34100669Y21012013D01*
X34057757Y20947792D01*
X34045401Y20885678D01*
X34044082Y20884174D01*
X34042120Y20884564D01*
X34041477Y20885678D01*
X34034663Y20919937D01*
X34004321Y20940210D01*
X33960117Y20926802D01*
X33958169Y20927256D01*
X33957588Y20929170D01*
X33958122Y20930130D01*
X34182552Y21154560D01*
X34184484Y21155078D01*
X34185898Y21153664D01*
G37*
G36*
X33270357Y22831890D02*
G01*
X33270525Y22830615D01*
X33263711Y22796358D01*
X33284050Y22765917D01*
X33318309Y22759103D01*
X33319813Y22757784D01*
X33319423Y22755822D01*
X33318309Y22755179D01*
X33256572Y22742899D01*
X33192183Y22699875D01*
X32563845Y22071537D01*
X32520821Y22007148D01*
X32506734Y21936331D01*
X32505415Y21934827D01*
X32503453Y21935217D01*
X32502810Y21936331D01*
X32495997Y21970590D01*
X32465654Y21990863D01*
X32421450Y21977455D01*
X32419502Y21977909D01*
X32418921Y21979823D01*
X32419455Y21980783D01*
X33259071Y22820399D01*
X33266900Y22832116D01*
X33268694Y22833001D01*
X33270357Y22831890D01*
G37*
G36*
X44977911Y28219902D02*
G01*
X44978312Y28218097D01*
X44932486Y28047073D01*
X44912007Y27813000D01*
X44932486Y27578927D01*
X44975076Y27419981D01*
X44974558Y27418049D01*
X44972626Y27417531D01*
X44971251Y27418817D01*
X44955551Y27464803D01*
X44931082Y27492608D01*
X44894544Y27494938D01*
X44866921Y27470629D01*
X44861948Y27449218D01*
X44860582Y27447757D01*
X44858634Y27448209D01*
X44858000Y27449670D01*
X44858000Y28182279D01*
X44859000Y28184011D01*
X44861000Y28184011D01*
X44861848Y28183044D01*
X44876175Y28148455D01*
X44909999Y28134445D01*
X44944006Y28148530D01*
X44955193Y28166108D01*
X44974500Y28219297D01*
X44976031Y28220584D01*
X44977911Y28219902D01*
G37*
G36*
X47532502Y28267732D02*
G01*
X47535005Y28262176D01*
X47535118Y28261857D01*
X47563442Y28152731D01*
X47585759Y28123169D01*
X47622019Y28118106D01*
X47651353Y28140250D01*
X47658070Y28164930D01*
X47659490Y28166339D01*
X47661420Y28165814D01*
X47662000Y28164405D01*
X47662000Y27460713D01*
X47661000Y27458981D01*
X47659000Y27458981D01*
X47658152Y27459948D01*
X47643825Y27494537D01*
X47610001Y27508547D01*
X47576032Y27494477D01*
X47563713Y27473415D01*
X47556138Y27446375D01*
X47554708Y27444977D01*
X47552782Y27445517D01*
X47552280Y27447433D01*
X47587514Y27578927D01*
X47607993Y27813000D01*
X47587514Y28047073D01*
X47528747Y28266393D01*
X47529265Y28268325D01*
X47531197Y28268843D01*
X47532502Y28267732D01*
G37*
G36*
X2622911Y28981902D02*
G01*
X2623312Y28980097D01*
X2577486Y28809073D01*
X2557007Y28575000D01*
X2577486Y28340927D01*
X2620076Y28181981D01*
X2619558Y28180049D01*
X2617626Y28179531D01*
X2616251Y28180817D01*
X2600551Y28226803D01*
X2576082Y28254608D01*
X2539544Y28256938D01*
X2511921Y28232629D01*
X2506948Y28211218D01*
X2505582Y28209757D01*
X2503634Y28210209D01*
X2503000Y28211670D01*
X2503000Y28944279D01*
X2504000Y28946011D01*
X2506000Y28946011D01*
X2506848Y28945044D01*
X2521175Y28910455D01*
X2554999Y28896445D01*
X2589006Y28910530D01*
X2600193Y28928108D01*
X2619500Y28981297D01*
X2621031Y28982584D01*
X2622911Y28981902D01*
G37*
G36*
X5177502Y29029732D02*
G01*
X5180005Y29024176D01*
X5180118Y29023857D01*
X5208442Y28914731D01*
X5230759Y28885169D01*
X5267019Y28880106D01*
X5296353Y28902250D01*
X5303070Y28926930D01*
X5304490Y28928339D01*
X5306420Y28927814D01*
X5307000Y28926405D01*
X5307000Y28222713D01*
X5306000Y28220981D01*
X5304000Y28220981D01*
X5303152Y28221948D01*
X5288825Y28256537D01*
X5255001Y28270547D01*
X5221032Y28256477D01*
X5208713Y28235415D01*
X5201138Y28208375D01*
X5199708Y28206977D01*
X5197782Y28207517D01*
X5197280Y28209433D01*
X5232514Y28340927D01*
X5252993Y28575000D01*
X5232514Y28809073D01*
X5173747Y29028393D01*
X5174265Y29030325D01*
X5176197Y29030843D01*
X5177502Y29029732D01*
G37*
G36*
X44977911Y31648902D02*
G01*
X44978312Y31647097D01*
X44932486Y31476073D01*
X44912007Y31242000D01*
X44932486Y31007927D01*
X44975076Y30848981D01*
X44974558Y30847049D01*
X44972626Y30846531D01*
X44971251Y30847817D01*
X44955551Y30893803D01*
X44931082Y30921608D01*
X44894544Y30923938D01*
X44866921Y30899629D01*
X44861948Y30878218D01*
X44860582Y30876757D01*
X44858634Y30877209D01*
X44858000Y30878670D01*
X44858000Y31611279D01*
X44859000Y31613011D01*
X44861000Y31613011D01*
X44861848Y31612044D01*
X44876175Y31577455D01*
X44909999Y31563445D01*
X44944006Y31577530D01*
X44955193Y31595108D01*
X44974500Y31648297D01*
X44976031Y31649584D01*
X44977911Y31648902D01*
G37*
G36*
X47532502Y31696732D02*
G01*
X47535005Y31691176D01*
X47535118Y31690857D01*
X47563442Y31581731D01*
X47585759Y31552169D01*
X47622019Y31547106D01*
X47651353Y31569250D01*
X47658070Y31593930D01*
X47659490Y31595339D01*
X47661420Y31594814D01*
X47662000Y31593405D01*
X47662000Y30889713D01*
X47661000Y30887981D01*
X47659000Y30887981D01*
X47658152Y30888948D01*
X47643825Y30923537D01*
X47610001Y30937547D01*
X47576032Y30923477D01*
X47563713Y30902415D01*
X47556138Y30875375D01*
X47554708Y30873977D01*
X47552782Y30874517D01*
X47552280Y30876433D01*
X47587514Y31007927D01*
X47607993Y31242000D01*
X47587514Y31476073D01*
X47528747Y31695393D01*
X47529265Y31697325D01*
X47531197Y31697843D01*
X47532502Y31696732D01*
G37*
G36*
X44977911Y35077902D02*
G01*
X44978312Y35076097D01*
X44932486Y34905073D01*
X44912007Y34671000D01*
X44932486Y34436927D01*
X44975076Y34277981D01*
X44974558Y34276049D01*
X44972626Y34275531D01*
X44971251Y34276817D01*
X44955551Y34322803D01*
X44931082Y34350608D01*
X44894544Y34352938D01*
X44866921Y34328629D01*
X44861948Y34307218D01*
X44860582Y34305757D01*
X44858634Y34306209D01*
X44858000Y34307670D01*
X44858000Y35040279D01*
X44859000Y35042011D01*
X44861000Y35042011D01*
X44861848Y35041044D01*
X44876175Y35006455D01*
X44909999Y34992445D01*
X44944006Y35006530D01*
X44955193Y35024108D01*
X44974500Y35077297D01*
X44976031Y35078584D01*
X44977911Y35077902D01*
G37*
G36*
X47532502Y35125732D02*
G01*
X47535005Y35120176D01*
X47535118Y35119857D01*
X47563442Y35010731D01*
X47585759Y34981169D01*
X47622019Y34976106D01*
X47651353Y34998250D01*
X47658070Y35022930D01*
X47659490Y35024339D01*
X47661420Y35023814D01*
X47662000Y35022405D01*
X47662000Y34318713D01*
X47661000Y34316981D01*
X47659000Y34316981D01*
X47658152Y34317948D01*
X47643825Y34352537D01*
X47610001Y34366547D01*
X47576032Y34352477D01*
X47563713Y34331415D01*
X47556138Y34304375D01*
X47554708Y34302977D01*
X47552782Y34303517D01*
X47552280Y34305433D01*
X47587514Y34436927D01*
X47607993Y34671000D01*
X47587514Y34905073D01*
X47528747Y35124393D01*
X47529265Y35126325D01*
X47531197Y35126843D01*
X47532502Y35125732D01*
G37*
G36*
X44977911Y38553902D02*
G01*
X44978312Y38552097D01*
X44932486Y38381073D01*
X44912007Y38147000D01*
X44932486Y37912927D01*
X44975076Y37753981D01*
X44974558Y37752049D01*
X44972626Y37751531D01*
X44971251Y37752817D01*
X44955551Y37798803D01*
X44931082Y37826608D01*
X44894544Y37828938D01*
X44866921Y37804629D01*
X44861948Y37783218D01*
X44860582Y37781757D01*
X44858634Y37782209D01*
X44858000Y37783670D01*
X44858000Y38516279D01*
X44859000Y38518011D01*
X44861000Y38518011D01*
X44861848Y38517044D01*
X44876175Y38482455D01*
X44909999Y38468445D01*
X44944006Y38482530D01*
X44955193Y38500108D01*
X44974500Y38553297D01*
X44976031Y38554584D01*
X44977911Y38553902D01*
G37*
G36*
X47532502Y38601732D02*
G01*
X47535005Y38596176D01*
X47535118Y38595857D01*
X47563442Y38486731D01*
X47585759Y38457169D01*
X47622019Y38452106D01*
X47651353Y38474250D01*
X47658070Y38498930D01*
X47659490Y38500339D01*
X47661420Y38499814D01*
X47662000Y38498405D01*
X47662000Y37794713D01*
X47661000Y37792981D01*
X47659000Y37792981D01*
X47658152Y37793948D01*
X47643825Y37828537D01*
X47610001Y37842547D01*
X47576032Y37828477D01*
X47563713Y37807415D01*
X47556138Y37780375D01*
X47554708Y37778977D01*
X47552782Y37779517D01*
X47552280Y37781433D01*
X47587514Y37912927D01*
X47607993Y38147000D01*
X47587514Y38381073D01*
X47528747Y38600393D01*
X47529265Y38602325D01*
X47531197Y38602843D01*
X47532502Y38601732D01*
G37*
M02*
