M48
; DRILL file {KiCad (5.99.0-6591-gee6c8b60ac)} date 11/05/20 12:50:25
; FORMAT={3:3/ absolute / metric / suppress leading zeros}
; #@! TF.CreationDate,2020-11-05T12:50:25+01:00
; #@! TF.GenerationSoftware,Kicad,Pcbnew,(5.99.0-6591-gee6c8b60ac)
; #@! TF.FileFunction,Plated,1,4,PTH
FMAT,2
METRIC,TZ
T1C0.200
T2C0.300
T3C0.400
T4C0.600
T5C3.000
%
G90
G05
T1
X34339Y12864
T2
X21590Y14224
X22962Y14529
X24079Y14427
X24790Y13716
X24790Y12446
X25806Y13767
X25857Y12446
X26568Y14478
X29870Y11430
X30784Y11430
X31733Y11430
X32681Y11430
X32868Y14173
X33477Y18034
X33630Y11430
X34188Y17475
X34300Y13919
X34578Y11430
X35526Y11430
T3
X1651Y15240
X1676Y21336
X1727Y19304
X1778Y17272
X1778Y13208
X3810Y38100
X3810Y36830
X3810Y35560
X3810Y34290
X3810Y33020
X5969Y14351
X6096Y12954
X6350Y23495
X8890Y5080
X8890Y3810
X8890Y2540
X8890Y1270
X9398Y38100
X9398Y33274
X9525Y49530
X9525Y48260
X10160Y16510
X10160Y9525
X10160Y8255
X11430Y12700
X11430Y11430
X11430Y9525
X11430Y8255
X11557Y29083
X11596Y40655
X11684Y44450
X12065Y20320
X12446Y35560
X13019Y33147
X13335Y43180
X13335Y12700
X13335Y11430
X14097Y7112
X14626Y8843
X14630Y10160
X14732Y43180
X15240Y23495
X16256Y43180
X16383Y29083
X16422Y15213
X16510Y24765
X16510Y21590
X16764Y40780
X17272Y14224
X17780Y23495
X18224Y16246
X18360Y33479
X18360Y32429
X18796Y41148
X19177Y7112
X19655Y43464
X19685Y28575
X20748Y28368
X21082Y41402
X21639Y7102
X21742Y16053
X23114Y7112
X23749Y31750
X24058Y25091
X24130Y45720
X24130Y44450
X24517Y32390
X24638Y42926
X24638Y35306
X24689Y11074
X24892Y18796
X25146Y25273
X25248Y16561
X25857Y11125
X26035Y5715
X26670Y45720
X27076Y19304
X27381Y25298
X27432Y22200
X27483Y26467
X27686Y24181
X27686Y14732
X28143Y27280
X28306Y33013
X28448Y20422
X28550Y23419
X28550Y21488
X28550Y19202
X28575Y44450
X28575Y40005
X28575Y38735
X28575Y37465
X28702Y17729
X28854Y14580
X29058Y27737
X29261Y22200
X29464Y4572
X29667Y23165
X29845Y38735
X29845Y37465
X29972Y14326
X30074Y20218
X30124Y27737
X30124Y18085
X30480Y48006
X30480Y41910
X30480Y22454
X31013Y14326
X31115Y38735
X31115Y37465
X31140Y27381
X31242Y21742
X31699Y26467
X31750Y43053
X32004Y25400
X32055Y14326
X32385Y6350
X32715Y24689
X33020Y41605
X33325Y27178
X33325Y20168
X33376Y19050
X33426Y23978
X33870Y39116
X34290Y43903
X34544Y41656
X35052Y24689
X35357Y21641
X35560Y48006
X35560Y38735
X35560Y37465
X35560Y7112
X35611Y27838
X35763Y23978
X35865Y16815
X35916Y26213
X36424Y20879
X36424Y19812
X36424Y18694
X36500Y32842
X36525Y23216
X36525Y17577
X36830Y38735
X36830Y37465
X37338Y29464
X37389Y28042
X38030Y8692
X38202Y17780
X38303Y24536
X38354Y20320
X38506Y22504
X38608Y26162
X40640Y48260
X40640Y46355
X40640Y5080
X41275Y24765
X41275Y22225
X41275Y18415
X41275Y6350
X41910Y48260
X41910Y36195
X41910Y16510
X46228Y13970
X48514Y33147
X49530Y13970
T5
X45420Y45420
X45420Y5380
X5380Y45420
X5380Y5380
T4
G00X2140Y39880
M15
G01X2940Y39880
M16
G05
G00X2140Y31240
M15
G01X2940Y31240
M16
G05
G00X6170Y39880
M15
G01X7270Y39880
M16
G05
G00X6170Y31240
M15
G01X7270Y31240
M16
G05
T0
M30
