G04 #@! TF.GenerationSoftware,KiCad,Pcbnew,5.99.0-unknown-d90d73416~104~ubuntu18.04.1*
G04 #@! TF.CreationDate,2020-10-29T17:21:16+01:00*
G04 #@! TF.ProjectId,TFGPS01A,54464750-5330-4314-912e-6b696361645f,REV*
G04 #@! TF.SameCoordinates,Original*
G04 #@! TF.FileFunction,Soldermask,Bot*
G04 #@! TF.FilePolarity,Negative*
%FSLAX46Y46*%
G04 Gerber Fmt 4.6, Leading zero omitted, Abs format (unit mm)*
G04 Created by KiCad (PCBNEW 5.99.0-unknown-d90d73416~104~ubuntu18.04.1) date 2020-10-29 17:21:16*
%MOMM*%
%LPD*%
G01*
G04 APERTURE LIST*
G04 Aperture macros list*
%AMRoundRect*
0 Rectangle with rounded corners*
0 $1 Rounding radius*
0 $2 $3 $4 $5 $6 $7 $8 $9 X,Y pos of 4 corners*
0 Add a 4 corners polygon primitive as box body*
4,1,4,$2,$3,$4,$5,$6,$7,$8,$9,$2,$3,0*
0 Add four circle primitives for the rounded corners*
1,1,$1+$1,$2,$3,0*
1,1,$1+$1,$4,$5,0*
1,1,$1+$1,$6,$7,0*
1,1,$1+$1,$8,$9,0*
0 Add four rect primitives between the rounded corners*
20,1,$1+$1,$2,$3,$4,$5,0*
20,1,$1+$1,$4,$5,$6,$7,0*
20,1,$1+$1,$6,$7,$8,$9,0*
20,1,$1+$1,$8,$9,$2,$3,0*%
G04 Aperture macros list end*
%ADD10C,6.400000*%
%ADD11C,4.400000*%
%ADD12RoundRect,0.200000X0.850000X-0.650000X0.850000X0.650000X-0.850000X0.650000X-0.850000X-0.650000X0*%
%ADD13RoundRect,0.200000X0.444500X0.698500X-0.444500X0.698500X-0.444500X-0.698500X0.444500X-0.698500X0*%
%ADD14RoundRect,0.200000X0.530000X0.325000X-0.530000X0.325000X-0.530000X-0.325000X0.530000X-0.325000X0*%
%ADD15RoundRect,0.200000X0.575000X-0.300000X0.575000X0.300000X-0.575000X0.300000X-0.575000X-0.300000X0*%
%ADD16RoundRect,0.200000X0.575000X-0.150000X0.575000X0.150000X-0.575000X0.150000X-0.575000X-0.150000X0*%
%ADD17O,2.400000X1.400000*%
%ADD18O,2.500000X1.450000*%
%ADD19C,1.050000*%
%ADD20RoundRect,0.200000X0.698500X-0.444500X0.698500X0.444500X-0.698500X0.444500X-0.698500X-0.444500X0*%
%ADD21RoundRect,0.200000X-0.200000X0.325000X-0.200000X-0.325000X0.200000X-0.325000X0.200000X0.325000X0*%
%ADD22C,3.100000*%
%ADD23RoundRect,0.200000X0.525000X0.750000X-0.525000X0.750000X-0.525000X-0.750000X0.525000X-0.750000X0*%
%ADD24RoundRect,0.200000X-0.400000X0.450000X-0.400000X-0.450000X0.400000X-0.450000X0.400000X0.450000X0*%
%ADD25RoundRect,0.250000X-0.250000X-0.800000X0.250000X-0.800000X0.250000X0.800000X-0.250000X0.800000X0*%
%ADD26RoundRect,0.350000X-0.350000X-1.200000X0.350000X-1.200000X0.350000X1.200000X-0.350000X1.200000X0*%
%ADD27RoundRect,0.200000X-0.444500X-0.698500X0.444500X-0.698500X0.444500X0.698500X-0.444500X0.698500X0*%
%ADD28RoundRect,0.200000X-0.698500X0.444500X-0.698500X-0.444500X0.698500X-0.444500X0.698500X0.444500X0*%
%ADD29RoundRect,0.200000X-0.900000X1.250000X-0.900000X-1.250000X0.900000X-1.250000X0.900000X1.250000X0*%
%ADD30RoundRect,0.250000X0.250000X0.800000X-0.250000X0.800000X-0.250000X-0.800000X0.250000X-0.800000X0*%
%ADD31RoundRect,0.350000X0.350000X1.200000X-0.350000X1.200000X-0.350000X-1.200000X0.350000X-1.200000X0*%
%ADD32RoundRect,0.330000X-0.495000X-1.195000X0.495000X-1.195000X0.495000X1.195000X-0.495000X1.195000X0*%
%ADD33RoundRect,0.300000X0.800000X0.300000X-0.800000X0.300000X-0.800000X-0.300000X0.800000X-0.300000X0*%
%ADD34RoundRect,0.290000X-2.110000X-1.160000X2.110000X-1.160000X2.110000X1.160000X-2.110000X1.160000X0*%
%ADD35RoundRect,0.200000X0.450000X0.400000X-0.450000X0.400000X-0.450000X-0.400000X0.450000X-0.400000X0*%
%ADD36RoundRect,0.200000X-0.525000X-0.750000X0.525000X-0.750000X0.525000X0.750000X-0.525000X0.750000X0*%
%ADD37RoundRect,0.200000X0.900000X0.500000X-0.900000X0.500000X-0.900000X-0.500000X0.900000X-0.500000X0*%
%ADD38RoundRect,0.200000X1.200000X0.850000X-1.200000X0.850000X-1.200000X-0.850000X1.200000X-0.850000X0*%
%ADD39RoundRect,0.200000X-0.530000X-0.325000X0.530000X-0.325000X0.530000X0.325000X-0.530000X0.325000X0*%
%ADD40RoundRect,0.200000X1.250000X-1.525000X1.250000X1.525000X-1.250000X1.525000X-1.250000X-1.525000X0*%
G04 APERTURE END LIST*
D10*
X45720000Y5080000D03*
X5080000Y5080000D03*
X45720000Y45720000D03*
D11*
X29626000Y25450000D03*
D10*
X5080000Y45720000D03*
D12*
X25781000Y37592000D03*
X25781000Y41092000D03*
D13*
X42672000Y27813000D03*
X40767000Y27813000D03*
D14*
X16594000Y33904000D03*
X16594000Y32954000D03*
X16594000Y32004000D03*
X14394000Y32004000D03*
X14394000Y32954000D03*
X14394000Y33904000D03*
D15*
X7295000Y32360000D03*
X7295000Y33160000D03*
D16*
X7295000Y34310000D03*
X7295000Y35310000D03*
X7295000Y35810000D03*
X7295000Y36810000D03*
D15*
X7295000Y38760000D03*
X7295000Y37960000D03*
D16*
X7295000Y37310000D03*
X7295000Y36310000D03*
X7295000Y34810000D03*
X7295000Y33810000D03*
D17*
X2540000Y31240000D03*
X2540000Y39880000D03*
D18*
X6720000Y31240000D03*
X6720000Y39880000D03*
D19*
X6220000Y38450000D03*
X6220000Y32670000D03*
D20*
X25908000Y28448000D03*
X25908000Y30353000D03*
D21*
X33640000Y17142500D03*
X34290000Y17142500D03*
X34940000Y17142500D03*
X34940000Y15242500D03*
X34290000Y15242500D03*
X33640000Y15242500D03*
D22*
X46260000Y27813000D03*
D23*
X44260000Y27813000D03*
X48260000Y27813000D03*
D24*
X39624000Y41910000D03*
X41524000Y41910000D03*
X40574000Y39910000D03*
D13*
X4826000Y15240000D03*
X2921000Y15240000D03*
D20*
X23495000Y22225000D03*
X23495000Y24130000D03*
D13*
X30480000Y19367500D03*
X28575000Y19367500D03*
D25*
X13405000Y45394000D03*
X14655000Y45394000D03*
X15905000Y45394000D03*
X17155000Y45394000D03*
X18405000Y45394000D03*
X19655000Y45394000D03*
X20905000Y45394000D03*
X22155000Y45394000D03*
D26*
X11555000Y48594000D03*
X24005000Y48594000D03*
D27*
X35877500Y41656000D03*
X37782500Y41656000D03*
D22*
X46260000Y31242000D03*
D23*
X44260000Y31242000D03*
X48260000Y31242000D03*
D28*
X23495000Y18632500D03*
X23495000Y16727500D03*
D22*
X46260000Y38100000D03*
D23*
X44260000Y38100000D03*
X48260000Y38100000D03*
D28*
X18796000Y37211000D03*
X18796000Y35306000D03*
D13*
X21336000Y30480000D03*
X19431000Y30480000D03*
D20*
X18796000Y40005000D03*
X18796000Y41910000D03*
D29*
X29337000Y6286000D03*
X29337000Y2286000D03*
D13*
X22606000Y32893000D03*
X20701000Y32893000D03*
X42672000Y31242000D03*
X40767000Y31242000D03*
X48895000Y24638000D03*
X46990000Y24638000D03*
X42672000Y34671000D03*
X40767000Y34671000D03*
D30*
X38155000Y5359000D03*
X36905000Y5359000D03*
X35655000Y5359000D03*
X34405000Y5359000D03*
D31*
X32555000Y2159000D03*
X40005000Y2159000D03*
D20*
X11176000Y37084000D03*
X11176000Y38989000D03*
X21082000Y40640000D03*
X21082000Y42545000D03*
D13*
X4191000Y25527000D03*
X2286000Y25527000D03*
D20*
X11684000Y41211500D03*
X11684000Y43116500D03*
D13*
X4826000Y17272000D03*
X2921000Y17272000D03*
D22*
X46260000Y34671000D03*
D23*
X44260000Y34671000D03*
X48260000Y34671000D03*
D32*
X13710000Y36957000D03*
X16510000Y36957000D03*
D27*
X31750000Y13017500D03*
X33655000Y13017500D03*
D13*
X42672000Y38100000D03*
X40767000Y38100000D03*
D27*
X33020000Y23063200D03*
X34925000Y23063200D03*
D20*
X34904720Y19309350D03*
X34904720Y21214350D03*
D33*
X19970000Y25732500D03*
X19970000Y24632500D03*
X19970000Y23532500D03*
X19970000Y22432500D03*
X19970000Y21332500D03*
X19970000Y20232500D03*
X19970000Y19132500D03*
X19970000Y16132500D03*
X19970000Y15032500D03*
X19970000Y13932500D03*
X19970000Y12832500D03*
X19970000Y11732500D03*
X7970000Y11732500D03*
X7970000Y12832500D03*
X7970000Y13932500D03*
X7970000Y15032500D03*
X7970000Y16132500D03*
X7970000Y19132500D03*
X7970000Y20232500D03*
X7970000Y21332500D03*
X7970000Y22432500D03*
X7970000Y23532500D03*
X7970000Y24632500D03*
X7970000Y25732500D03*
D20*
X26035000Y15557500D03*
X26035000Y17462500D03*
D13*
X4826000Y21336000D03*
X2921000Y21336000D03*
X30480000Y15557500D03*
X28575000Y15557500D03*
D27*
X35941000Y13017500D03*
X37846000Y13017500D03*
D20*
X16764000Y39624000D03*
X16764000Y41529000D03*
D25*
X30530000Y45394000D03*
X31780000Y45394000D03*
X33030000Y45394000D03*
X34280000Y45394000D03*
X35530000Y45394000D03*
X36780000Y45394000D03*
D26*
X28680000Y48594000D03*
X38630000Y48594000D03*
D13*
X4826000Y13208000D03*
X2921000Y13208000D03*
D20*
X25654000Y22225000D03*
X25654000Y24130000D03*
D34*
X28702000Y34798000D03*
X37102000Y34798000D03*
D28*
X23495000Y41148000D03*
X23495000Y39243000D03*
D35*
X45212000Y24506000D03*
X45212000Y22606000D03*
X43212000Y23556000D03*
D13*
X48895000Y22606000D03*
X46990000Y22606000D03*
D27*
X7874000Y28575000D03*
X9779000Y28575000D03*
D13*
X34582100Y25247600D03*
X32677100Y25247600D03*
D22*
X3905000Y28575000D03*
D36*
X5905000Y28575000D03*
X1905000Y28575000D03*
D13*
X4826000Y23368000D03*
X2921000Y23368000D03*
D37*
X29510000Y12777500D03*
X23910000Y12777500D03*
D38*
X24210000Y10477500D03*
X29210000Y10477500D03*
D39*
X20955000Y35184000D03*
X20955000Y36134000D03*
X20955000Y37084000D03*
X23155000Y37084000D03*
X23155000Y35184000D03*
D30*
X24167000Y5406000D03*
X22917000Y5406000D03*
X21667000Y5406000D03*
X20417000Y5406000D03*
X19167000Y5406000D03*
X17917000Y5406000D03*
X16667000Y5406000D03*
X15417000Y5406000D03*
X14167000Y5406000D03*
X12917000Y5406000D03*
D31*
X26017000Y2206000D03*
X11067000Y2206000D03*
D20*
X33020000Y19367500D03*
X33020000Y21272500D03*
X23622000Y28575000D03*
X23622000Y30480000D03*
D28*
X10731501Y32512001D03*
X10731501Y30607001D03*
D13*
X30480000Y17462500D03*
X28575000Y17462500D03*
X4826000Y19304000D03*
X2921000Y19304000D03*
D40*
X44196000Y11269000D03*
X44196000Y19719000D03*
D13*
X35966207Y10987116D03*
X34061207Y10987116D03*
M02*
