G04 #@! TF.GenerationSoftware,KiCad,Pcbnew,(5.99.0-6591-gee6c8b60ac)*
G04 #@! TF.CreationDate,2020-11-05T12:50:17+01:00*
G04 #@! TF.ProjectId,TFGPS01A,54464750-5330-4314-912e-6b696361645f,REV*
G04 #@! TF.SameCoordinates,Original*
G04 #@! TF.FileFunction,Legend,Top*
G04 #@! TF.FilePolarity,Positive*
%FSLAX46Y46*%
G04 Gerber Fmt 4.6, Leading zero omitted, Abs format (unit mm)*
G04 Created by KiCad (PCBNEW (5.99.0-6591-gee6c8b60ac)) date 2020-11-05 12:50:17*
%MOMM*%
%LPD*%
G01*
G04 APERTURE LIST*
%ADD10C,0.300000*%
%ADD11C,0.150000*%
G04 APERTURE END LIST*
D10*
X45370857Y24213428D02*
X44870857Y24927714D01*
X44513714Y24213428D02*
X44513714Y25713428D01*
X45085142Y25713428D01*
X45228000Y25642000D01*
X45299428Y25570571D01*
X45370857Y25427714D01*
X45370857Y25213428D01*
X45299428Y25070571D01*
X45228000Y24999142D01*
X45085142Y24927714D01*
X44513714Y24927714D01*
X45799428Y25713428D02*
X46656571Y25713428D01*
X46228000Y24213428D02*
X46228000Y25713428D01*
X47156571Y24213428D02*
X47156571Y25713428D01*
X48013714Y24213428D02*
X47370857Y25070571D01*
X48013714Y25713428D02*
X47156571Y24856285D01*
X13965028Y5134800D02*
X14679314Y5134800D01*
X13822171Y4706228D02*
X14322171Y6206228D01*
X14822171Y4706228D01*
X15965028Y5706228D02*
X15965028Y4706228D01*
X15322171Y5706228D02*
X15322171Y4920514D01*
X15393600Y4777657D01*
X15536457Y4706228D01*
X15750742Y4706228D01*
X15893600Y4777657D01*
X15965028Y4849085D01*
X16465028Y5706228D02*
X17036457Y5706228D01*
X16679314Y6206228D02*
X16679314Y4920514D01*
X16750742Y4777657D01*
X16893600Y4706228D01*
X17036457Y4706228D01*
X17750742Y4706228D02*
X17607885Y4777657D01*
X17536457Y4849085D01*
X17465028Y4991942D01*
X17465028Y5420514D01*
X17536457Y5563371D01*
X17607885Y5634800D01*
X17750742Y5706228D01*
X17965028Y5706228D01*
X18107885Y5634800D01*
X18179314Y5563371D01*
X18250742Y5420514D01*
X18250742Y4991942D01*
X18179314Y4849085D01*
X18107885Y4777657D01*
X17965028Y4706228D01*
X17750742Y4706228D01*
X18893600Y5706228D02*
X18893600Y4206228D01*
X18893600Y5634800D02*
X19036457Y5706228D01*
X19322171Y5706228D01*
X19465028Y5634800D01*
X19536457Y5563371D01*
X19607885Y5420514D01*
X19607885Y4991942D01*
X19536457Y4849085D01*
X19465028Y4777657D01*
X19322171Y4706228D01*
X19036457Y4706228D01*
X18893600Y4777657D01*
X20250742Y4706228D02*
X20250742Y5706228D01*
X20250742Y6206228D02*
X20179314Y6134800D01*
X20250742Y6063371D01*
X20322171Y6134800D01*
X20250742Y6206228D01*
X20250742Y6063371D01*
X21179314Y4706228D02*
X21036457Y4777657D01*
X20965028Y4920514D01*
X20965028Y6206228D01*
X21965028Y4706228D02*
X21822171Y4777657D01*
X21750742Y4849085D01*
X21679314Y4991942D01*
X21679314Y5420514D01*
X21750742Y5563371D01*
X21822171Y5634800D01*
X21965028Y5706228D01*
X22179314Y5706228D01*
X22322171Y5634800D01*
X22393600Y5563371D01*
X22465028Y5420514D01*
X22465028Y4991942D01*
X22393600Y4849085D01*
X22322171Y4777657D01*
X22179314Y4706228D01*
X21965028Y4706228D01*
X22893600Y5706228D02*
X23465028Y5706228D01*
X23107885Y6206228D02*
X23107885Y4920514D01*
X23179314Y4777657D01*
X23322171Y4706228D01*
X23465028Y4706228D01*
X22003828Y46246171D02*
X22003828Y44746171D01*
X21432400Y44746171D01*
X21289542Y44817600D01*
X21218114Y44889028D01*
X21146685Y45031885D01*
X21146685Y45246171D01*
X21218114Y45389028D01*
X21289542Y45460457D01*
X21432400Y45531885D01*
X22003828Y45531885D01*
X19860971Y46246171D02*
X19860971Y45460457D01*
X19932400Y45317600D01*
X20075257Y45246171D01*
X20360971Y45246171D01*
X20503828Y45317600D01*
X19860971Y46174742D02*
X20003828Y46246171D01*
X20360971Y46246171D01*
X20503828Y46174742D01*
X20575257Y46031885D01*
X20575257Y45889028D01*
X20503828Y45746171D01*
X20360971Y45674742D01*
X20003828Y45674742D01*
X19860971Y45603314D01*
X19289542Y45246171D02*
X18932400Y46246171D01*
X18575257Y45246171D02*
X18932400Y46246171D01*
X19075257Y46603314D01*
X19146685Y46674742D01*
X19289542Y46746171D01*
X17789542Y46246171D02*
X17932400Y46174742D01*
X18003828Y46031885D01*
X18003828Y44746171D01*
X17003828Y46246171D02*
X17146685Y46174742D01*
X17218114Y46103314D01*
X17289542Y45960457D01*
X17289542Y45531885D01*
X17218114Y45389028D01*
X17146685Y45317600D01*
X17003828Y45246171D01*
X16789542Y45246171D01*
X16646685Y45317600D01*
X16575257Y45389028D01*
X16503828Y45531885D01*
X16503828Y45960457D01*
X16575257Y46103314D01*
X16646685Y46174742D01*
X16789542Y46246171D01*
X17003828Y46246171D01*
X15218114Y46246171D02*
X15218114Y45460457D01*
X15289542Y45317600D01*
X15432400Y45246171D01*
X15718114Y45246171D01*
X15860971Y45317600D01*
X15218114Y46174742D02*
X15360971Y46246171D01*
X15718114Y46246171D01*
X15860971Y46174742D01*
X15932400Y46031885D01*
X15932400Y45889028D01*
X15860971Y45746171D01*
X15718114Y45674742D01*
X15360971Y45674742D01*
X15218114Y45603314D01*
X13860971Y46246171D02*
X13860971Y44746171D01*
X13860971Y46174742D02*
X14003828Y46246171D01*
X14289542Y46246171D01*
X14432400Y46174742D01*
X14503828Y46103314D01*
X14575257Y45960457D01*
X14575257Y45531885D01*
X14503828Y45389028D01*
X14432400Y45317600D01*
X14289542Y45246171D01*
X14003828Y45246171D01*
X13860971Y45317600D01*
X49272000Y33595714D02*
X49272000Y34310000D01*
X49700571Y33452857D02*
X48200571Y33952857D01*
X49700571Y34452857D01*
X49700571Y35810000D02*
X48986285Y35310000D01*
X49700571Y34952857D02*
X48200571Y34952857D01*
X48200571Y35524285D01*
X48272000Y35667142D01*
X48343428Y35738571D01*
X48486285Y35810000D01*
X48700571Y35810000D01*
X48843428Y35738571D01*
X48914857Y35667142D01*
X48986285Y35524285D01*
X48986285Y34952857D01*
X49700571Y36452857D02*
X48200571Y36452857D01*
X49272000Y36952857D01*
X48200571Y37452857D01*
X49700571Y37452857D01*
X48272000Y29408571D02*
X48200571Y29265714D01*
X48200571Y29051428D01*
X48272000Y28837142D01*
X48414857Y28694285D01*
X48557714Y28622857D01*
X48843428Y28551428D01*
X49057714Y28551428D01*
X49343428Y28622857D01*
X49486285Y28694285D01*
X49629142Y28837142D01*
X49700571Y29051428D01*
X49700571Y29194285D01*
X49629142Y29408571D01*
X49557714Y29480000D01*
X49057714Y29480000D01*
X49057714Y29194285D01*
X48914857Y30122857D02*
X48914857Y30622857D01*
X49700571Y30837142D02*
X49700571Y30122857D01*
X48200571Y30122857D01*
X48200571Y30837142D01*
X48200571Y31765714D02*
X48200571Y32051428D01*
X48272000Y32194285D01*
X48414857Y32337142D01*
X48700571Y32408571D01*
X49200571Y32408571D01*
X49486285Y32337142D01*
X49629142Y32194285D01*
X49700571Y32051428D01*
X49700571Y31765714D01*
X49629142Y31622857D01*
X49486285Y31480000D01*
X49200571Y31408571D01*
X48700571Y31408571D01*
X48414857Y31480000D01*
X48272000Y31622857D01*
X48200571Y31765714D01*
X44326071Y10517857D02*
X44326071Y11375000D01*
X45826071Y10946428D02*
X44326071Y10946428D01*
X45040357Y12375000D02*
X45040357Y11875000D01*
X45826071Y11875000D02*
X44326071Y11875000D01*
X44326071Y12589285D01*
X44397500Y13946428D02*
X44326071Y13803571D01*
X44326071Y13589285D01*
X44397500Y13375000D01*
X44540357Y13232142D01*
X44683214Y13160714D01*
X44968928Y13089285D01*
X45183214Y13089285D01*
X45468928Y13160714D01*
X45611785Y13232142D01*
X45754642Y13375000D01*
X45826071Y13589285D01*
X45826071Y13732142D01*
X45754642Y13946428D01*
X45683214Y14017857D01*
X45183214Y14017857D01*
X45183214Y13732142D01*
X45826071Y14660714D02*
X44326071Y14660714D01*
X44326071Y15232142D01*
X44397500Y15375000D01*
X44468928Y15446428D01*
X44611785Y15517857D01*
X44826071Y15517857D01*
X44968928Y15446428D01*
X45040357Y15375000D01*
X45111785Y15232142D01*
X45111785Y14660714D01*
X45754642Y16089285D02*
X45826071Y16303571D01*
X45826071Y16660714D01*
X45754642Y16803571D01*
X45683214Y16875000D01*
X45540357Y16946428D01*
X45397500Y16946428D01*
X45254642Y16875000D01*
X45183214Y16803571D01*
X45111785Y16660714D01*
X45040357Y16375000D01*
X44968928Y16232142D01*
X44897500Y16160714D01*
X44754642Y16089285D01*
X44611785Y16089285D01*
X44468928Y16160714D01*
X44397500Y16232142D01*
X44326071Y16375000D01*
X44326071Y16732142D01*
X44397500Y16946428D01*
X44326071Y17875000D02*
X44326071Y18017857D01*
X44397500Y18160714D01*
X44468928Y18232142D01*
X44611785Y18303571D01*
X44897500Y18375000D01*
X45254642Y18375000D01*
X45540357Y18303571D01*
X45683214Y18232142D01*
X45754642Y18160714D01*
X45826071Y18017857D01*
X45826071Y17875000D01*
X45754642Y17732142D01*
X45683214Y17660714D01*
X45540357Y17589285D01*
X45254642Y17517857D01*
X44897500Y17517857D01*
X44611785Y17589285D01*
X44468928Y17660714D01*
X44397500Y17732142D01*
X44326071Y17875000D01*
X45826071Y19803571D02*
X45826071Y18946428D01*
X45826071Y19375000D02*
X44326071Y19375000D01*
X44540357Y19232142D01*
X44683214Y19089285D01*
X44754642Y18946428D01*
X45397500Y20375000D02*
X45397500Y21089285D01*
X45826071Y20232142D02*
X44326071Y20732142D01*
X45826071Y21232142D01*
X46741071Y9696428D02*
X47812500Y9696428D01*
X48026785Y9625000D01*
X48169642Y9482142D01*
X48241071Y9267857D01*
X48241071Y9125000D01*
X47812500Y10339285D02*
X47812500Y11053571D01*
X48241071Y10196428D02*
X46741071Y10696428D01*
X48241071Y11196428D01*
X48098214Y12553571D02*
X48169642Y12482142D01*
X48241071Y12267857D01*
X48241071Y12125000D01*
X48169642Y11910714D01*
X48026785Y11767857D01*
X47883928Y11696428D01*
X47598214Y11625000D01*
X47383928Y11625000D01*
X47098214Y11696428D01*
X46955357Y11767857D01*
X46812500Y11910714D01*
X46741071Y12125000D01*
X46741071Y12267857D01*
X46812500Y12482142D01*
X46883928Y12553571D01*
X48241071Y13196428D02*
X46741071Y13196428D01*
X47455357Y13196428D02*
X47455357Y14053571D01*
X48241071Y14053571D02*
X46741071Y14053571D01*
X46741071Y15053571D02*
X46741071Y15339285D01*
X46812500Y15482142D01*
X46955357Y15625000D01*
X47241071Y15696428D01*
X47741071Y15696428D01*
X48026785Y15625000D01*
X48169642Y15482142D01*
X48241071Y15339285D01*
X48241071Y15053571D01*
X48169642Y14910714D01*
X48026785Y14767857D01*
X47741071Y14696428D01*
X47241071Y14696428D01*
X46955357Y14767857D01*
X46812500Y14910714D01*
X46741071Y15053571D01*
X46883928Y17410714D02*
X46812500Y17482142D01*
X46741071Y17625000D01*
X46741071Y17982142D01*
X46812500Y18125000D01*
X46883928Y18196428D01*
X47026785Y18267857D01*
X47169642Y18267857D01*
X47383928Y18196428D01*
X48241071Y17339285D01*
X48241071Y18267857D01*
X46741071Y19196428D02*
X46741071Y19339285D01*
X46812500Y19482142D01*
X46883928Y19553571D01*
X47026785Y19625000D01*
X47312500Y19696428D01*
X47669642Y19696428D01*
X47955357Y19625000D01*
X48098214Y19553571D01*
X48169642Y19482142D01*
X48241071Y19339285D01*
X48241071Y19196428D01*
X48169642Y19053571D01*
X48098214Y18982142D01*
X47955357Y18910714D01*
X47669642Y18839285D01*
X47312500Y18839285D01*
X47026785Y18910714D01*
X46883928Y18982142D01*
X46812500Y19053571D01*
X46741071Y19196428D01*
X46883928Y20267857D02*
X46812500Y20339285D01*
X46741071Y20482142D01*
X46741071Y20839285D01*
X46812500Y20982142D01*
X46883928Y21053571D01*
X47026785Y21125000D01*
X47169642Y21125000D01*
X47383928Y21053571D01*
X48241071Y20196428D01*
X48241071Y21125000D01*
X46741071Y22053571D02*
X46741071Y22196428D01*
X46812500Y22339285D01*
X46883928Y22410714D01*
X47026785Y22482142D01*
X47312500Y22553571D01*
X47669642Y22553571D01*
X47955357Y22482142D01*
X48098214Y22410714D01*
X48169642Y22339285D01*
X48241071Y22196428D01*
X48241071Y22053571D01*
X48169642Y21910714D01*
X48098214Y21839285D01*
X47955357Y21767857D01*
X47669642Y21696428D01*
X47312500Y21696428D01*
X47026785Y21767857D01*
X46883928Y21839285D01*
X46812500Y21910714D01*
X46741071Y22053571D01*
X7171428Y29503571D02*
X7171428Y29217857D01*
X7100000Y29075000D01*
X6957142Y28932142D01*
X6671428Y28860714D01*
X6171428Y28860714D01*
X5885714Y28932142D01*
X5742857Y29075000D01*
X5671428Y29217857D01*
X5671428Y29503571D01*
X5742857Y29646428D01*
X5885714Y29789285D01*
X6171428Y29860714D01*
X6671428Y29860714D01*
X6957142Y29789285D01*
X7100000Y29646428D01*
X7171428Y29503571D01*
X5671428Y28217857D02*
X7171428Y28217857D01*
X5671428Y27360714D01*
X7171428Y27360714D01*
X32110171Y2290000D02*
X32824457Y2290000D01*
X31967314Y1861428D02*
X32467314Y3361428D01*
X32967314Y1861428D01*
X33467314Y3361428D02*
X33467314Y2147142D01*
X33538742Y2004285D01*
X33610171Y1932857D01*
X33753028Y1861428D01*
X34038742Y1861428D01*
X34181600Y1932857D01*
X34253028Y2004285D01*
X34324457Y2147142D01*
X34324457Y3361428D01*
X34895885Y3361428D02*
X35895885Y1861428D01*
X35895885Y3361428D02*
X34895885Y1861428D01*
X37610171Y1861428D02*
X37610171Y3361428D01*
X38253028Y3218571D02*
X38324457Y3290000D01*
X38467314Y3361428D01*
X38824457Y3361428D01*
X38967314Y3290000D01*
X39038742Y3218571D01*
X39110171Y3075714D01*
X39110171Y2932857D01*
X39038742Y2718571D01*
X38181600Y1861428D01*
X39110171Y1861428D01*
X40610171Y2004285D02*
X40538742Y1932857D01*
X40324457Y1861428D01*
X40181600Y1861428D01*
X39967314Y1932857D01*
X39824457Y2075714D01*
X39753028Y2218571D01*
X39681600Y2504285D01*
X39681600Y2718571D01*
X39753028Y3004285D01*
X39824457Y3147142D01*
X39967314Y3290000D01*
X40181600Y3361428D01*
X40324457Y3361428D01*
X40538742Y3290000D01*
X40610171Y3218571D01*
X44442285Y41715428D02*
X45299428Y41715428D01*
X44870857Y40215428D02*
X44870857Y41715428D01*
X45799428Y40215428D02*
X45799428Y41715428D01*
X46370857Y41715428D01*
X46513714Y41644000D01*
X46585142Y41572571D01*
X46656571Y41429714D01*
X46656571Y41215428D01*
X46585142Y41072571D01*
X46513714Y41001142D01*
X46370857Y40929714D01*
X45799428Y40929714D01*
X48013714Y40215428D02*
X47299428Y40215428D01*
X47299428Y41715428D01*
X39125600Y48867142D02*
X38911314Y48938571D01*
X38554171Y48938571D01*
X38411314Y48867142D01*
X38339885Y48795714D01*
X38268457Y48652857D01*
X38268457Y48510000D01*
X38339885Y48367142D01*
X38411314Y48295714D01*
X38554171Y48224285D01*
X38839885Y48152857D01*
X38982742Y48081428D01*
X39054171Y48010000D01*
X39125600Y47867142D01*
X39125600Y47724285D01*
X39054171Y47581428D01*
X38982742Y47510000D01*
X38839885Y47438571D01*
X38482742Y47438571D01*
X38268457Y47510000D01*
X37697028Y48510000D02*
X36982742Y48510000D01*
X37839885Y48938571D02*
X37339885Y47438571D01*
X36839885Y48938571D01*
X35839885Y48152857D02*
X36339885Y48152857D01*
X36339885Y48938571D02*
X36339885Y47438571D01*
X35625600Y47438571D01*
X35054171Y48152857D02*
X34554171Y48152857D01*
X34339885Y48938571D02*
X35054171Y48938571D01*
X35054171Y47438571D01*
X34339885Y47438571D01*
X33911314Y47438571D02*
X33054171Y47438571D01*
X33482742Y48938571D02*
X33482742Y47438571D01*
X32268457Y48224285D02*
X32268457Y48938571D01*
X32768457Y47438571D02*
X32268457Y48224285D01*
X31768457Y47438571D01*
X30197028Y48867142D02*
X29982742Y48938571D01*
X29625600Y48938571D01*
X29482742Y48867142D01*
X29411314Y48795714D01*
X29339885Y48652857D01*
X29339885Y48510000D01*
X29411314Y48367142D01*
X29482742Y48295714D01*
X29625600Y48224285D01*
X29911314Y48152857D01*
X30054171Y48081428D01*
X30125600Y48010000D01*
X30197028Y47867142D01*
X30197028Y47724285D01*
X30125600Y47581428D01*
X30054171Y47510000D01*
X29911314Y47438571D01*
X29554171Y47438571D01*
X29339885Y47510000D01*
X28839885Y47438571D02*
X28482742Y48938571D01*
X28197028Y47867142D01*
X27911314Y48938571D01*
X27554171Y47438571D01*
X12522142Y3290000D02*
X12379285Y3361428D01*
X12165000Y3361428D01*
X11950714Y3290000D01*
X11807857Y3147142D01*
X11736428Y3004285D01*
X11665000Y2718571D01*
X11665000Y2504285D01*
X11736428Y2218571D01*
X11807857Y2075714D01*
X11950714Y1932857D01*
X12165000Y1861428D01*
X12307857Y1861428D01*
X12522142Y1932857D01*
X12593571Y2004285D01*
X12593571Y2504285D01*
X12307857Y2504285D01*
X13236428Y1861428D02*
X13236428Y3361428D01*
X13807857Y3361428D01*
X13950714Y3290000D01*
X14022142Y3218571D01*
X14093571Y3075714D01*
X14093571Y2861428D01*
X14022142Y2718571D01*
X13950714Y2647142D01*
X13807857Y2575714D01*
X13236428Y2575714D01*
X14665000Y1932857D02*
X14879285Y1861428D01*
X15236428Y1861428D01*
X15379285Y1932857D01*
X15450714Y2004285D01*
X15522142Y2147142D01*
X15522142Y2290000D01*
X15450714Y2432857D01*
X15379285Y2504285D01*
X15236428Y2575714D01*
X14950714Y2647142D01*
X14807857Y2718571D01*
X14736428Y2790000D01*
X14665000Y2932857D01*
X14665000Y3075714D01*
X14736428Y3218571D01*
X14807857Y3290000D01*
X14950714Y3361428D01*
X15307857Y3361428D01*
X15522142Y3290000D01*
X17379285Y1861428D02*
X17307857Y1861428D01*
X17165000Y1932857D01*
X16950714Y2147142D01*
X16593571Y2575714D01*
X16450714Y2790000D01*
X16379285Y3004285D01*
X16379285Y3147142D01*
X16450714Y3290000D01*
X16593571Y3361428D01*
X16665000Y3361428D01*
X16807857Y3290000D01*
X16879285Y3147142D01*
X16879285Y3075714D01*
X16807857Y2932857D01*
X16736428Y2861428D01*
X16307857Y2575714D01*
X16236428Y2504285D01*
X16165000Y2361428D01*
X16165000Y2147142D01*
X16236428Y2004285D01*
X16307857Y1932857D01*
X16450714Y1861428D01*
X16665000Y1861428D01*
X16807857Y1932857D01*
X16879285Y2004285D01*
X17093571Y2290000D01*
X17165000Y2504285D01*
X17165000Y2647142D01*
X17950714Y1932857D02*
X18165000Y1861428D01*
X18522142Y1861428D01*
X18665000Y1932857D01*
X18736428Y2004285D01*
X18807857Y2147142D01*
X18807857Y2290000D01*
X18736428Y2432857D01*
X18665000Y2504285D01*
X18522142Y2575714D01*
X18236428Y2647142D01*
X18093571Y2718571D01*
X18022142Y2790000D01*
X17950714Y2932857D01*
X17950714Y3075714D01*
X18022142Y3218571D01*
X18093571Y3290000D01*
X18236428Y3361428D01*
X18593571Y3361428D01*
X18807857Y3290000D01*
X19379285Y2290000D02*
X20093571Y2290000D01*
X19236428Y1861428D02*
X19736428Y3361428D01*
X20236428Y1861428D01*
X21236428Y2647142D02*
X20736428Y2647142D01*
X20736428Y1861428D02*
X20736428Y3361428D01*
X21450714Y3361428D01*
X22022142Y2647142D02*
X22522142Y2647142D01*
X22736428Y1861428D02*
X22022142Y1861428D01*
X22022142Y3361428D01*
X22736428Y3361428D01*
X23165000Y3361428D02*
X24022142Y3361428D01*
X23593571Y1861428D02*
X23593571Y3361428D01*
X24807857Y2575714D02*
X24807857Y1861428D01*
X24307857Y3361428D02*
X24807857Y2575714D01*
X25307857Y3361428D01*
X24539542Y47510000D02*
X24682400Y47438571D01*
X24896685Y47438571D01*
X25110971Y47510000D01*
X25253828Y47652857D01*
X25325257Y47795714D01*
X25396685Y48081428D01*
X25396685Y48295714D01*
X25325257Y48581428D01*
X25253828Y48724285D01*
X25110971Y48867142D01*
X24896685Y48938571D01*
X24753828Y48938571D01*
X24539542Y48867142D01*
X24468114Y48795714D01*
X24468114Y48295714D01*
X24753828Y48295714D01*
X23825257Y48938571D02*
X23825257Y47438571D01*
X23253828Y47438571D01*
X23110971Y47510000D01*
X23039542Y47581428D01*
X22968114Y47724285D01*
X22968114Y47938571D01*
X23039542Y48081428D01*
X23110971Y48152857D01*
X23253828Y48224285D01*
X23825257Y48224285D01*
X22396685Y48867142D02*
X22182400Y48938571D01*
X21825257Y48938571D01*
X21682400Y48867142D01*
X21610971Y48795714D01*
X21539542Y48652857D01*
X21539542Y48510000D01*
X21610971Y48367142D01*
X21682400Y48295714D01*
X21825257Y48224285D01*
X22110971Y48152857D01*
X22253828Y48081428D01*
X22325257Y48010000D01*
X22396685Y47867142D01*
X22396685Y47724285D01*
X22325257Y47581428D01*
X22253828Y47510000D01*
X22110971Y47438571D01*
X21753828Y47438571D01*
X21539542Y47510000D01*
X19753828Y48938571D02*
X19753828Y47438571D01*
X19039542Y47938571D02*
X19039542Y48938571D01*
X19039542Y48081428D02*
X18968114Y48010000D01*
X18825257Y47938571D01*
X18610971Y47938571D01*
X18468114Y48010000D01*
X18396685Y48152857D01*
X18396685Y48938571D01*
X17896685Y47938571D02*
X17325257Y47938571D01*
X17682400Y47438571D02*
X17682400Y48724285D01*
X17610971Y48867142D01*
X17468114Y48938571D01*
X17325257Y48938571D01*
X16253828Y48867142D02*
X16396685Y48938571D01*
X16682400Y48938571D01*
X16825257Y48867142D01*
X16896685Y48724285D01*
X16896685Y48152857D01*
X16825257Y48010000D01*
X16682400Y47938571D01*
X16396685Y47938571D01*
X16253828Y48010000D01*
X16182400Y48152857D01*
X16182400Y48295714D01*
X16896685Y48438571D01*
X15539542Y48938571D02*
X15539542Y47938571D01*
X15539542Y48224285D02*
X15468114Y48081428D01*
X15396685Y48010000D01*
X15253828Y47938571D01*
X15110971Y47938571D01*
X14825257Y47938571D02*
X14253828Y47938571D01*
X14610971Y48938571D02*
X14610971Y47652857D01*
X14539542Y47510000D01*
X14396685Y47438571D01*
X14253828Y47438571D01*
X13110971Y48938571D02*
X13110971Y48152857D01*
X13182400Y48010000D01*
X13325257Y47938571D01*
X13610971Y47938571D01*
X13753828Y48010000D01*
X13110971Y48867142D02*
X13253828Y48938571D01*
X13610971Y48938571D01*
X13753828Y48867142D01*
X13825257Y48724285D01*
X13825257Y48581428D01*
X13753828Y48438571D01*
X13610971Y48367142D01*
X13253828Y48367142D01*
X13110971Y48295714D01*
X11753828Y48867142D02*
X11896685Y48938571D01*
X12182400Y48938571D01*
X12325257Y48867142D01*
X12396685Y48795714D01*
X12468114Y48652857D01*
X12468114Y48224285D01*
X12396685Y48081428D01*
X12325257Y48010000D01*
X12182400Y47938571D01*
X11896685Y47938571D01*
X11753828Y48010000D01*
X10539542Y48867142D02*
X10682400Y48938571D01*
X10968114Y48938571D01*
X11110971Y48867142D01*
X11182400Y48724285D01*
X11182400Y48152857D01*
X11110971Y48010000D01*
X10968114Y47938571D01*
X10682400Y47938571D01*
X10539542Y48010000D01*
X10468114Y48152857D01*
X10468114Y48295714D01*
X11182400Y48438571D01*
D11*
X23826933Y27214533D02*
X24303123Y27214533D01*
X23731695Y26928819D02*
X24065028Y27928819D01*
X24398361Y26928819D01*
X24731695Y27452628D02*
X25065028Y27452628D01*
X25207885Y26928819D02*
X24731695Y26928819D01*
X24731695Y27928819D01*
X25207885Y27928819D01*
X26160266Y26928819D02*
X25588838Y26928819D01*
X25874552Y26928819D02*
X25874552Y27928819D01*
X25779314Y27785961D01*
X25684076Y27690723D01*
X25588838Y27643104D01*
X42926000Y7950000D02*
X7926000Y7950000D01*
X7926000Y7950000D02*
X7926000Y42950000D01*
X7926000Y42950000D02*
X42926000Y42950000D01*
X42926000Y42950000D02*
X42926000Y7950000D01*
G36*
X3338394Y23057748D02*
G01*
X3369346Y23052996D01*
X3413530Y23045855D01*
X3466656Y23037009D01*
X3479762Y23034793D01*
X3626259Y23009945D01*
X3629174Y22650569D01*
X3632089Y22291194D01*
X3798102Y22260707D01*
X3857346Y22250020D01*
X3909902Y22240896D01*
X3951442Y22234060D01*
X3977634Y22230237D01*
X3983483Y22229686D01*
X3989461Y22230894D01*
X3994070Y22236572D01*
X3997487Y22249239D01*
X3999887Y22271414D01*
X4001447Y22305619D01*
X4002344Y22354373D01*
X4002753Y22420196D01*
X4002852Y22505608D01*
X4002852Y22506584D01*
X4002940Y22592074D01*
X4003323Y22657902D01*
X4004177Y22706543D01*
X4005677Y22740469D01*
X4008002Y22762154D01*
X4011325Y22774072D01*
X4015825Y22778696D01*
X4021676Y22778500D01*
X4022220Y22778347D01*
X4038874Y22774661D01*
X4071394Y22768314D01*
X4114530Y22760252D01*
X4163031Y22751417D01*
X4211647Y22742755D01*
X4255127Y22735209D01*
X4288220Y22729724D01*
X4305678Y22727244D01*
X4306689Y22727189D01*
X4308337Y22716613D01*
X4309815Y22686851D01*
X4311060Y22640852D01*
X4312008Y22581563D01*
X4312594Y22511935D01*
X4312760Y22447734D01*
X4312778Y22168278D01*
X4559013Y22125706D01*
X4640181Y22111660D01*
X4723246Y22097261D01*
X4802544Y22083495D01*
X4872414Y22071343D01*
X4927192Y22061788D01*
X4935292Y22060372D01*
X5065335Y22037609D01*
X5065335Y21877536D01*
X5065247Y21815157D01*
X5064635Y21771651D01*
X5062976Y21743754D01*
X5059747Y21728204D01*
X5054425Y21721739D01*
X5046488Y21721096D01*
X5040433Y21722113D01*
X5025799Y21724722D01*
X4991080Y21730849D01*
X4937995Y21740190D01*
X4868263Y21752444D01*
X4783603Y21767310D01*
X4685733Y21784486D01*
X4576372Y21803670D01*
X4457239Y21824561D01*
X4330052Y21846856D01*
X4196531Y21870255D01*
X4166129Y21875582D01*
X3316726Y22024400D01*
X3316695Y22541808D01*
X3316861Y22646459D01*
X3317347Y22744031D01*
X3318119Y22832357D01*
X3319143Y22909268D01*
X3320384Y22972596D01*
X3321807Y23020172D01*
X3323378Y23049828D01*
X3324965Y23059428D01*
X3338394Y23057748D01*
G37*
G36*
X5518232Y24485049D02*
G01*
X5552041Y24479609D01*
X5604240Y24470901D01*
X5673126Y24459218D01*
X5756996Y24444852D01*
X5854148Y24428097D01*
X5962876Y24409245D01*
X6081480Y24388591D01*
X6208254Y24366426D01*
X6341496Y24343044D01*
X6372931Y24337516D01*
X6507041Y24313933D01*
X6634790Y24291496D01*
X6754508Y24270496D01*
X6864525Y24251224D01*
X6963173Y24233973D01*
X7048782Y24219033D01*
X7119682Y24206696D01*
X7174204Y24197254D01*
X7210679Y24190998D01*
X7227436Y24188221D01*
X7228347Y24188104D01*
X7230548Y24177686D01*
X7232408Y24149024D01*
X7233774Y24106009D01*
X7234497Y24052534D01*
X7234573Y24027625D01*
X7234034Y23970941D01*
X7232553Y23923121D01*
X7230329Y23888037D01*
X7227565Y23869562D01*
X7226272Y23867688D01*
X7214324Y23869650D01*
X7182238Y23875168D01*
X7131676Y23883952D01*
X7064297Y23895709D01*
X6981762Y23910151D01*
X6885733Y23926984D01*
X6777870Y23945920D01*
X6659833Y23966666D01*
X6533283Y23988931D01*
X6399881Y24012425D01*
X6354703Y24020387D01*
X5491435Y24172543D01*
X5488365Y24329735D01*
X5487368Y24391809D01*
X5487443Y24435090D01*
X5488931Y24462911D01*
X5492175Y24478602D01*
X5497517Y24485494D01*
X5504517Y24486928D01*
X5518232Y24485049D01*
G37*
G36*
X3340588Y25434986D02*
G01*
X3367403Y25414568D01*
X3408382Y25383143D01*
X3461862Y25341992D01*
X3526181Y25292396D01*
X3599678Y25235636D01*
X3680688Y25172994D01*
X3767551Y25105751D01*
X3809170Y25073507D01*
X3898074Y25004641D01*
X3981810Y24939835D01*
X4058727Y24880364D01*
X4127174Y24827499D01*
X4185503Y24782515D01*
X4232062Y24746684D01*
X4265201Y24721280D01*
X4283271Y24707575D01*
X4286082Y24705542D01*
X4298224Y24702617D01*
X4329123Y24696377D01*
X4375745Y24687376D01*
X4435053Y24676166D01*
X4504012Y24663303D01*
X4579584Y24649340D01*
X4658735Y24634832D01*
X4738427Y24620331D01*
X4815626Y24606392D01*
X4887295Y24593570D01*
X4950398Y24582417D01*
X5001899Y24573489D01*
X5038762Y24567338D01*
X5057951Y24564520D01*
X5059610Y24564400D01*
X5061633Y24553981D01*
X5063342Y24525316D01*
X5064599Y24482294D01*
X5065265Y24428803D01*
X5065335Y24403710D01*
X5065335Y24243020D01*
X5040433Y24248809D01*
X5020116Y24252885D01*
X4982155Y24259896D01*
X4929705Y24269301D01*
X4865923Y24280558D01*
X4793965Y24293124D01*
X4716986Y24306458D01*
X4638142Y24320019D01*
X4560589Y24333264D01*
X4487484Y24345651D01*
X4421982Y24356639D01*
X4367240Y24365685D01*
X4326412Y24372249D01*
X4302656Y24375787D01*
X4298172Y24376252D01*
X4284823Y24372071D01*
X4253220Y24360100D01*
X4205485Y24341204D01*
X4143737Y24316243D01*
X4070099Y24286082D01*
X3986690Y24251581D01*
X3895632Y24213603D01*
X3818475Y24181201D01*
X3722645Y24140896D01*
X3632656Y24103161D01*
X3550651Y24068887D01*
X3478769Y24038962D01*
X3419154Y24014277D01*
X3373945Y23995722D01*
X3345285Y23984187D01*
X3335737Y23980618D01*
X3328255Y23979919D01*
X3323057Y23984819D01*
X3319827Y23998438D01*
X3318245Y24023899D01*
X3317997Y24064324D01*
X3318763Y24122834D01*
X3319135Y24143967D01*
X3322198Y24312848D01*
X3662525Y24451106D01*
X3743804Y24484342D01*
X3818130Y24515150D01*
X3883113Y24542509D01*
X3936364Y24565394D01*
X3975495Y24582784D01*
X3998117Y24593655D01*
X4002852Y24596817D01*
X3994260Y24604841D01*
X3969767Y24624521D01*
X3931298Y24654389D01*
X3880776Y24692977D01*
X3820125Y24738817D01*
X3751271Y24790442D01*
X3676137Y24846383D01*
X3660125Y24858257D01*
X3317399Y25112244D01*
X3317032Y25281677D01*
X3317334Y25349715D01*
X3318692Y25397714D01*
X3321266Y25427752D01*
X3325218Y25441905D01*
X3329599Y25443116D01*
X3340588Y25434986D01*
G37*
G36*
X3626555Y11106274D02*
G01*
X5065335Y11106274D01*
X5065335Y10785315D01*
X3626555Y10785315D01*
X3626555Y10287276D01*
X3316664Y10287276D01*
X3316664Y11604313D01*
X3626555Y11604313D01*
X3626555Y11106274D01*
G37*
G36*
X1161261Y22721814D02*
G01*
X1175953Y22719015D01*
X1210705Y22712722D01*
X1263769Y22703244D01*
X1333399Y22690889D01*
X1417847Y22675965D01*
X1515368Y22658780D01*
X1624214Y22639642D01*
X1742638Y22618860D01*
X1868894Y22596742D01*
X2001235Y22573596D01*
X2010695Y22571943D01*
X2143564Y22548715D01*
X2270598Y22526486D01*
X2390033Y22505566D01*
X2500107Y22486264D01*
X2599059Y22468890D01*
X2685126Y22453753D01*
X2756547Y22441163D01*
X2811558Y22431431D01*
X2848399Y22424865D01*
X2865307Y22421775D01*
X2865662Y22421704D01*
X2896098Y22415539D01*
X2896098Y22093940D01*
X2871196Y22099940D01*
X2856438Y22102789D01*
X2821654Y22109124D01*
X2768622Y22118632D01*
X2699122Y22130998D01*
X2614933Y22145907D01*
X2517835Y22163044D01*
X2409606Y22182096D01*
X2292026Y22202747D01*
X2166875Y22224683D01*
X2049431Y22245230D01*
X1917945Y22268233D01*
X1791646Y22290368D01*
X1672412Y22311303D01*
X1562118Y22330706D01*
X1462644Y22348246D01*
X1375866Y22363593D01*
X1303662Y22376413D01*
X1247909Y22386376D01*
X1210484Y22393151D01*
X1194464Y22396159D01*
X1136359Y22407800D01*
X1136359Y22727611D01*
X1161261Y22721814D01*
G37*
G36*
X1166795Y23975765D02*
G01*
X1182323Y23973165D01*
X1217920Y23967041D01*
X1271852Y23957697D01*
X1342387Y23945434D01*
X1427791Y23930554D01*
X1526330Y23913361D01*
X1636272Y23894155D01*
X1755883Y23873240D01*
X1883431Y23850918D01*
X2017181Y23827490D01*
X2046625Y23822330D01*
X2896018Y23673464D01*
X2896058Y23515751D01*
X2895638Y23451062D01*
X2894167Y23405721D01*
X2891390Y23376957D01*
X2887050Y23361995D01*
X2881447Y23358039D01*
X2868180Y23359915D01*
X2835155Y23365307D01*
X2784401Y23373857D01*
X2717950Y23385209D01*
X2637832Y23399007D01*
X2546076Y23414893D01*
X2444712Y23432511D01*
X2335772Y23451504D01*
X2221286Y23471517D01*
X2103282Y23492191D01*
X1983792Y23513171D01*
X1864847Y23534099D01*
X1748475Y23554620D01*
X1636707Y23574376D01*
X1531574Y23593011D01*
X1435106Y23610169D01*
X1349333Y23625492D01*
X1276285Y23638624D01*
X1217992Y23649209D01*
X1176484Y23656889D01*
X1153792Y23661308D01*
X1150194Y23662161D01*
X1144270Y23671023D01*
X1140138Y23694093D01*
X1137603Y23733671D01*
X1136467Y23792057D01*
X1136359Y23823784D01*
X1136359Y23980333D01*
X1166795Y23975765D01*
G37*
G36*
X3997090Y15012969D02*
G01*
X4116000Y15012440D01*
X4217032Y15011389D01*
X4302314Y15009681D01*
X4373971Y15007178D01*
X4434133Y15003742D01*
X4484927Y14999237D01*
X4528480Y14993525D01*
X4566920Y14986468D01*
X4602375Y14977931D01*
X4636971Y14967775D01*
X4655730Y14961675D01*
X4769184Y14913806D01*
X4866002Y14851370D01*
X4946405Y14774149D01*
X5010609Y14681926D01*
X5058832Y14574484D01*
X5065736Y14553812D01*
X5079858Y14493218D01*
X5089773Y14417429D01*
X5095318Y14333016D01*
X5096328Y14246548D01*
X5092642Y14164594D01*
X5084094Y14093722D01*
X5077924Y14064408D01*
X5038846Y13949430D01*
X4983597Y13849255D01*
X4911845Y13763552D01*
X4823262Y13691990D01*
X4717518Y13634235D01*
X4611385Y13594987D01*
X4592895Y13589539D01*
X4574957Y13584926D01*
X4555601Y13581064D01*
X4532855Y13577870D01*
X4504749Y13575261D01*
X4469312Y13573155D01*
X4424572Y13571468D01*
X4368559Y13570116D01*
X4299301Y13569018D01*
X4214829Y13568090D01*
X4113171Y13567248D01*
X3992355Y13566410D01*
X3922612Y13565957D01*
X3316664Y13562056D01*
X3316664Y13882965D01*
X3894943Y13886695D01*
X4023086Y13887548D01*
X4131094Y13888371D01*
X4220966Y13889251D01*
X4294703Y13890276D01*
X4354304Y13891532D01*
X4401769Y13893105D01*
X4439097Y13895082D01*
X4468288Y13897550D01*
X4491342Y13900595D01*
X4510259Y13904305D01*
X4527039Y13908765D01*
X4543680Y13914062D01*
X4546233Y13914916D01*
X4630125Y13952862D01*
X4696713Y14004606D01*
X4745987Y14070129D01*
X4777935Y14149410D01*
X4792548Y14242431D01*
X4789814Y14349171D01*
X4789013Y14356791D01*
X4771050Y14444627D01*
X4737605Y14517992D01*
X4687966Y14577527D01*
X4621422Y14623874D01*
X4537261Y14657673D01*
X4434772Y14679566D01*
X4429996Y14680243D01*
X4397965Y14683066D01*
X4345838Y14685583D01*
X4275652Y14687752D01*
X4189445Y14689533D01*
X4089255Y14690887D01*
X3977118Y14691771D01*
X3855072Y14692146D01*
X3830504Y14692156D01*
X3316664Y14692156D01*
X3316664Y15013115D01*
X3858173Y15013115D01*
X3997090Y15012969D01*
G37*
G36*
X5065335Y18853551D02*
G01*
X3316664Y18853551D01*
X3316664Y19982440D01*
X3626555Y19982440D01*
X3626555Y19185577D01*
X4002852Y19185577D01*
X4002852Y19794291D01*
X4312743Y19794291D01*
X4312743Y19185577D01*
X4755444Y19185577D01*
X4755444Y20004575D01*
X5065335Y20004575D01*
X5065335Y18853551D01*
G37*
G36*
X5065335Y12910283D02*
G01*
X4312743Y12910283D01*
X4312743Y12102352D01*
X5065335Y12102352D01*
X5065335Y11781394D01*
X3316664Y11781394D01*
X3316664Y12102352D01*
X4002852Y12102352D01*
X4002852Y12910283D01*
X3316664Y12910283D01*
X3316664Y13231241D01*
X5065335Y13231241D01*
X5065335Y12910283D01*
G37*
G36*
X3319589Y17506078D02*
G01*
X3320891Y17621501D01*
X3322340Y17717477D01*
X3324315Y17796695D01*
X3327193Y17861841D01*
X3331354Y17915603D01*
X3337177Y17960669D01*
X3345040Y17999725D01*
X3355321Y18035461D01*
X3368400Y18070562D01*
X3384655Y18107717D01*
X3404464Y18149613D01*
X3412656Y18166616D01*
X3440270Y18220419D01*
X3467485Y18263967D01*
X3499749Y18304796D01*
X3542512Y18350443D01*
X3553826Y18361836D01*
X3601562Y18407651D01*
X3642839Y18441773D01*
X3685197Y18469657D01*
X3736177Y18496756D01*
X3749045Y18503031D01*
X3814766Y18533538D01*
X3871584Y18556351D01*
X3924817Y18572552D01*
X3979782Y18583222D01*
X4041797Y18589441D01*
X4116179Y18592291D01*
X4191000Y18592872D01*
X4280037Y18591982D01*
X4352250Y18588589D01*
X4412906Y18581613D01*
X4467271Y18569972D01*
X4520610Y18552584D01*
X4578189Y18528369D01*
X4633701Y18501952D01*
X4741757Y18436783D01*
X4836652Y18354605D01*
X4916705Y18257334D01*
X4980235Y18146888D01*
X5010746Y18072179D01*
X5024685Y18030252D01*
X5036064Y17990118D01*
X5045136Y17948960D01*
X5052153Y17903956D01*
X5057370Y17852287D01*
X5061038Y17791134D01*
X5063410Y17717676D01*
X5064741Y17629094D01*
X5065282Y17522568D01*
X5065335Y17463601D01*
X5065335Y17082745D01*
X3315038Y17082745D01*
X3318488Y17403703D01*
X3602899Y17403703D01*
X4779420Y17403703D01*
X4772046Y17896209D01*
X4736913Y17970369D01*
X4685450Y18055366D01*
X4618870Y18124763D01*
X4536945Y18178678D01*
X4439447Y18217227D01*
X4326149Y18240525D01*
X4196823Y18248688D01*
X4191000Y18248702D01*
X4060991Y18241175D01*
X3947020Y18218520D01*
X3848859Y18180618D01*
X3766280Y18127355D01*
X3699056Y18058614D01*
X3646959Y17974279D01*
X3645087Y17970369D01*
X3609954Y17896209D01*
X3606426Y17649956D01*
X3602899Y17403703D01*
X3318488Y17403703D01*
X3319589Y17506078D01*
G37*
G36*
X5065335Y16466552D02*
G01*
X3864507Y15666124D01*
X5065335Y15666100D01*
X5065335Y15345141D01*
X3316664Y15345141D01*
X3316664Y15663738D01*
X3878342Y16035645D01*
X4440019Y16407552D01*
X3878342Y16407588D01*
X3316664Y16407625D01*
X3316664Y16728583D01*
X5065335Y16728583D01*
X5065335Y16466552D01*
G37*
G36*
X5510804Y23221626D02*
G01*
X5525483Y23218795D01*
X5560227Y23212467D01*
X5613297Y23202952D01*
X5682950Y23190555D01*
X5767448Y23175586D01*
X5865049Y23158351D01*
X5974012Y23139158D01*
X6092599Y23118316D01*
X6219067Y23096132D01*
X6351676Y23072914D01*
X6365771Y23070448D01*
X6498754Y23047160D01*
X6625651Y23024880D01*
X6744738Y23003913D01*
X6854289Y22984567D01*
X6952579Y22967149D01*
X7037882Y22951963D01*
X7108473Y22939318D01*
X7162626Y22929519D01*
X7198616Y22922873D01*
X7214717Y22919687D01*
X7215205Y22919560D01*
X7222861Y22915220D01*
X7228206Y22905194D01*
X7231646Y22886051D01*
X7233583Y22854362D01*
X7234421Y22806696D01*
X7234573Y22755148D01*
X7234371Y22692895D01*
X7233496Y22649557D01*
X7231543Y22621916D01*
X7228109Y22606754D01*
X7222788Y22600853D01*
X7215205Y22600987D01*
X7201419Y22603580D01*
X7167559Y22609672D01*
X7115356Y22618956D01*
X7046542Y22631129D01*
X6962848Y22645886D01*
X6866005Y22662921D01*
X6757746Y22681929D01*
X6639801Y22702606D01*
X6513902Y22724648D01*
X6381781Y22747748D01*
X6371305Y22749578D01*
X6238435Y22772804D01*
X6111401Y22795031D01*
X5991966Y22815950D01*
X5881891Y22835253D01*
X5782939Y22852628D01*
X5696872Y22867766D01*
X5625452Y22880358D01*
X5570440Y22890095D01*
X5533600Y22896665D01*
X5516693Y22899760D01*
X5516337Y22899831D01*
X5485902Y22906028D01*
X5485902Y23227628D01*
X5510804Y23221626D01*
G37*
G36*
X5511963Y21961655D02*
G01*
X5544836Y21956230D01*
X5596133Y21947543D01*
X5664169Y21935888D01*
X5747255Y21921556D01*
X5843707Y21904839D01*
X5951836Y21886029D01*
X6069955Y21865418D01*
X6196379Y21843298D01*
X6329420Y21819960D01*
X6362678Y21814117D01*
X6497005Y21790534D01*
X6625073Y21768096D01*
X6745201Y21747096D01*
X6855709Y21727824D01*
X6954916Y21710572D01*
X7041141Y21695632D01*
X7112705Y21683295D01*
X7167926Y21673854D01*
X7205125Y21667599D01*
X7222620Y21664822D01*
X7223713Y21664705D01*
X7228055Y21654043D01*
X7231416Y21623644D01*
X7233637Y21575892D01*
X7234557Y21513170D01*
X7234573Y21502843D01*
X7234573Y21340980D01*
X7204137Y21346726D01*
X7188593Y21349514D01*
X7152985Y21355814D01*
X7099052Y21365320D01*
X7028535Y21377725D01*
X6943173Y21392726D01*
X6844706Y21410015D01*
X6734872Y21429288D01*
X6615413Y21450239D01*
X6488067Y21472562D01*
X6354574Y21495953D01*
X6329826Y21500288D01*
X5485950Y21648104D01*
X5485926Y21805817D01*
X5486484Y21872833D01*
X5488299Y21919835D01*
X5491549Y21948916D01*
X5496408Y21962170D01*
X5499203Y21963529D01*
X5511963Y21961655D01*
G37*
G36*
X4790930Y23942767D02*
G01*
X4825263Y23937719D01*
X4871642Y23930231D01*
X4925197Y23921063D01*
X4928453Y23920490D01*
X5065335Y23896361D01*
X5065335Y23433518D01*
X5065271Y23334736D01*
X5065089Y23243178D01*
X5064802Y23161132D01*
X5064423Y23090887D01*
X5063967Y23034733D01*
X5063447Y22994958D01*
X5062877Y22973852D01*
X5062568Y22971014D01*
X5043865Y22973904D01*
X5006101Y22980248D01*
X4951276Y22989691D01*
X4881387Y23001873D01*
X4798432Y23016438D01*
X4704410Y23033028D01*
X4601318Y23051286D01*
X4491154Y23070854D01*
X4375916Y23091374D01*
X4257603Y23112490D01*
X4138213Y23133842D01*
X4019742Y23155075D01*
X3904191Y23175831D01*
X3793555Y23195751D01*
X3689835Y23214479D01*
X3595026Y23231657D01*
X3511129Y23246927D01*
X3440140Y23259933D01*
X3384058Y23270315D01*
X3344880Y23277718D01*
X3324605Y23281783D01*
X3322182Y23282427D01*
X3320169Y23295140D01*
X3318881Y23325799D01*
X3318395Y23370223D01*
X3318793Y23424230D01*
X3319118Y23442782D01*
X3322198Y23596993D01*
X3997318Y23478554D01*
X4117872Y23457414D01*
X4232863Y23437267D01*
X4340282Y23418465D01*
X4438120Y23401357D01*
X4524367Y23386295D01*
X4597014Y23373630D01*
X4654051Y23363712D01*
X4693468Y23356893D01*
X4713257Y23353524D01*
X4713941Y23353413D01*
X4755444Y23346710D01*
X4755444Y23645664D01*
X4755552Y23735244D01*
X4755972Y23805095D01*
X4756849Y23857623D01*
X4758329Y23895234D01*
X4760557Y23920333D01*
X4763679Y23935325D01*
X4767840Y23942617D01*
X4773185Y23944614D01*
X4773508Y23944618D01*
X4790930Y23942767D01*
G37*
G36*
X3316664Y20639188D02*
G01*
X3316762Y20743021D01*
X3317144Y20827461D01*
X3317939Y20895250D01*
X3319279Y20949128D01*
X3321295Y20991839D01*
X3324117Y21026123D01*
X3327876Y21054722D01*
X3332704Y21080378D01*
X3338730Y21105832D01*
X3338974Y21106791D01*
X3375397Y21215303D01*
X3424936Y21306004D01*
X3487804Y21379061D01*
X3564213Y21434638D01*
X3654378Y21472900D01*
X3758511Y21494013D01*
X3845190Y21498692D01*
X3956615Y21490664D01*
X4054068Y21466090D01*
X4139069Y21424235D01*
X4213135Y21364363D01*
X4274006Y21291197D01*
X4299735Y21255631D01*
X4321130Y21228216D01*
X4334834Y21213169D01*
X4337449Y21211555D01*
X4348549Y21216444D01*
X4376494Y21230456D01*
X4418650Y21252195D01*
X4472388Y21280263D01*
X4535074Y21313265D01*
X4604077Y21349803D01*
X4676766Y21388481D01*
X4750509Y21427903D01*
X4822673Y21466673D01*
X4890628Y21503393D01*
X4951742Y21536667D01*
X4996163Y21561098D01*
X5065335Y21599384D01*
X5065102Y21418994D01*
X5064868Y21238605D01*
X4741376Y21070803D01*
X4417884Y20903002D01*
X4414822Y20741544D01*
X4411759Y20580087D01*
X5065335Y20580087D01*
X5065335Y20259128D01*
X3316664Y20259128D01*
X3316664Y20580087D01*
X3580095Y20580087D01*
X4148961Y20580087D01*
X4145079Y20765468D01*
X4143497Y20834005D01*
X4141634Y20884704D01*
X4138857Y20921856D01*
X4134531Y20949755D01*
X4128023Y20972695D01*
X4118701Y20994968D01*
X4107993Y21016774D01*
X4067416Y21080265D01*
X4018255Y21124591D01*
X3957871Y21151909D01*
X3935933Y21157372D01*
X3853067Y21165826D01*
X3777489Y21156012D01*
X3711593Y21128924D01*
X3657773Y21085554D01*
X3618422Y21026897D01*
X3617695Y21025351D01*
X3606834Y21000815D01*
X3598894Y20978029D01*
X3593318Y20952780D01*
X3589550Y20920851D01*
X3587032Y20878029D01*
X3585208Y20820097D01*
X3584103Y20771002D01*
X3580095Y20580087D01*
X3316664Y20580087D01*
X3316664Y20639188D01*
G37*
G36*
X1152743Y25248720D02*
G01*
X1184305Y25243351D01*
X1233639Y25234836D01*
X1298732Y25223529D01*
X1377570Y25209784D01*
X1468142Y25193955D01*
X1568434Y25176396D01*
X1676433Y25157461D01*
X1790127Y25137504D01*
X1907503Y25116880D01*
X2026549Y25095943D01*
X2145251Y25075045D01*
X2261596Y25054543D01*
X2373573Y25034790D01*
X2479168Y25016139D01*
X2576368Y24998945D01*
X2663161Y24983562D01*
X2737534Y24970345D01*
X2797474Y24959647D01*
X2840968Y24951822D01*
X2866005Y24947225D01*
X2871196Y24946196D01*
X2880930Y24943085D01*
X2887726Y24936833D01*
X2892113Y24923942D01*
X2894616Y24900917D01*
X2895764Y24864262D01*
X2896084Y24810480D01*
X2896098Y24781043D01*
X2895897Y24718668D01*
X2895026Y24675214D01*
X2893083Y24647466D01*
X2889666Y24632212D01*
X2884372Y24626238D01*
X2876798Y24626331D01*
X2876730Y24626347D01*
X2862944Y24628942D01*
X2829085Y24635037D01*
X2776883Y24644328D01*
X2708070Y24656509D01*
X2624378Y24671275D01*
X2527537Y24688322D01*
X2419279Y24707343D01*
X2301336Y24728035D01*
X2175440Y24750091D01*
X2043321Y24773208D01*
X2032830Y24775042D01*
X1899793Y24798303D01*
X1772467Y24820571D01*
X1652627Y24841532D01*
X1542052Y24860878D01*
X1442519Y24878295D01*
X1355805Y24893474D01*
X1283687Y24906103D01*
X1227944Y24915872D01*
X1190352Y24922468D01*
X1172689Y24925582D01*
X1172329Y24925646D01*
X1136359Y24932093D01*
X1136359Y25091340D01*
X1136660Y25147847D01*
X1137489Y25195530D01*
X1138731Y25230481D01*
X1140275Y25248795D01*
X1140964Y25250588D01*
X1152743Y25248720D01*
G37*
M02*
