G04 #@! TF.GenerationSoftware,KiCad,Pcbnew,(5.99.0-10394-g2e15de97e0)*
G04 #@! TF.CreationDate,2021-07-16T10:39:39+02:00*
G04 #@! TF.ProjectId,TFGPS01B,54464750-5330-4314-922e-6b696361645f,REV*
G04 #@! TF.SameCoordinates,Original*
G04 #@! TF.FileFunction,Soldermask,Bot*
G04 #@! TF.FilePolarity,Negative*
%FSLAX46Y46*%
G04 Gerber Fmt 4.6, Leading zero omitted, Abs format (unit mm)*
G04 Created by KiCad (PCBNEW (5.99.0-10394-g2e15de97e0)) date 2021-07-16 10:39:39*
%MOMM*%
%LPD*%
G01*
G04 APERTURE LIST*
G04 Aperture macros list*
%AMRoundRect*
0 Rectangle with rounded corners*
0 $1 Rounding radius*
0 $2 $3 $4 $5 $6 $7 $8 $9 X,Y pos of 4 corners*
0 Add a 4 corners polygon primitive as box body*
4,1,4,$2,$3,$4,$5,$6,$7,$8,$9,$2,$3,0*
0 Add four circle primitives for the rounded corners*
1,1,$1+$1,$2,$3*
1,1,$1+$1,$4,$5*
1,1,$1+$1,$6,$7*
1,1,$1+$1,$8,$9*
0 Add four rect primitives between the rounded corners*
20,1,$1+$1,$2,$3,$4,$5,0*
20,1,$1+$1,$4,$5,$6,$7,0*
20,1,$1+$1,$6,$7,$8,$9,0*
20,1,$1+$1,$8,$9,$2,$3,0*%
G04 Aperture macros list end*
%ADD10C,6.400000*%
%ADD11C,1.200000*%
%ADD12C,2.900000*%
%ADD13RoundRect,0.200000X0.850000X-0.650000X0.850000X0.650000X-0.850000X0.650000X-0.850000X-0.650000X0*%
%ADD14RoundRect,0.200000X0.444500X0.698500X-0.444500X0.698500X-0.444500X-0.698500X0.444500X-0.698500X0*%
%ADD15RoundRect,0.200000X0.530000X0.325000X-0.530000X0.325000X-0.530000X-0.325000X0.530000X-0.325000X0*%
%ADD16RoundRect,0.200000X0.575000X-0.300000X0.575000X0.300000X-0.575000X0.300000X-0.575000X-0.300000X0*%
%ADD17RoundRect,0.200000X0.575000X-0.150000X0.575000X0.150000X-0.575000X0.150000X-0.575000X-0.150000X0*%
%ADD18O,2.400000X1.400000*%
%ADD19O,2.500000X1.450000*%
%ADD20C,1.050000*%
%ADD21RoundRect,0.200000X0.698500X-0.444500X0.698500X0.444500X-0.698500X0.444500X-0.698500X-0.444500X0*%
%ADD22RoundRect,0.200000X-0.200000X0.325000X-0.200000X-0.325000X0.200000X-0.325000X0.200000X0.325000X0*%
%ADD23C,2.700000*%
%ADD24RoundRect,0.200000X0.475000X0.750000X-0.475000X0.750000X-0.475000X-0.750000X0.475000X-0.750000X0*%
%ADD25RoundRect,0.200000X-0.400000X0.450000X-0.400000X-0.450000X0.400000X-0.450000X0.400000X0.450000X0*%
%ADD26RoundRect,0.200000X-0.444500X-0.698500X0.444500X-0.698500X0.444500X0.698500X-0.444500X0.698500X0*%
%ADD27RoundRect,0.250000X-0.250000X-0.800000X0.250000X-0.800000X0.250000X0.800000X-0.250000X0.800000X0*%
%ADD28RoundRect,0.350000X-0.350000X-1.200000X0.350000X-1.200000X0.350000X1.200000X-0.350000X1.200000X0*%
%ADD29RoundRect,0.200000X-0.698500X0.444500X-0.698500X-0.444500X0.698500X-0.444500X0.698500X0.444500X0*%
%ADD30RoundRect,0.200000X-0.350000X0.300000X-0.350000X-0.300000X0.350000X-0.300000X0.350000X0.300000X0*%
%ADD31RoundRect,0.200000X-0.900000X1.250000X-0.900000X-1.250000X0.900000X-1.250000X0.900000X1.250000X0*%
%ADD32RoundRect,0.250000X0.250000X0.800000X-0.250000X0.800000X-0.250000X-0.800000X0.250000X-0.800000X0*%
%ADD33RoundRect,0.350000X0.350000X1.200000X-0.350000X1.200000X-0.350000X-1.200000X0.350000X-1.200000X0*%
%ADD34RoundRect,0.200000X0.350000X-0.300000X0.350000X0.300000X-0.350000X0.300000X-0.350000X-0.300000X0*%
%ADD35RoundRect,0.200000X-1.250000X-0.900000X1.250000X-0.900000X1.250000X0.900000X-1.250000X0.900000X0*%
%ADD36RoundRect,0.330000X-0.495000X-1.195000X0.495000X-1.195000X0.495000X1.195000X-0.495000X1.195000X0*%
%ADD37RoundRect,0.200000X-0.179605X0.808223X-0.808223X0.179605X0.179605X-0.808223X0.808223X-0.179605X0*%
%ADD38RoundRect,0.300000X0.800000X0.300000X-0.800000X0.300000X-0.800000X-0.300000X0.800000X-0.300000X0*%
%ADD39RoundRect,0.290000X-2.110000X-1.160000X2.110000X-1.160000X2.110000X1.160000X-2.110000X1.160000X0*%
%ADD40RoundRect,0.200000X-0.450000X-0.400000X0.450000X-0.400000X0.450000X0.400000X-0.450000X0.400000X0*%
%ADD41RoundRect,0.200000X0.808223X0.179605X0.179605X0.808223X-0.808223X-0.179605X-0.179605X-0.808223X0*%
%ADD42RoundRect,0.200000X-0.475000X-0.750000X0.475000X-0.750000X0.475000X0.750000X-0.475000X0.750000X0*%
%ADD43RoundRect,0.200000X0.900000X0.500000X-0.900000X0.500000X-0.900000X-0.500000X0.900000X-0.500000X0*%
%ADD44RoundRect,0.200000X1.200000X0.850000X-1.200000X0.850000X-1.200000X-0.850000X1.200000X-0.850000X0*%
%ADD45RoundRect,0.200000X-0.530000X-0.325000X0.530000X-0.325000X0.530000X0.325000X-0.530000X0.325000X0*%
%ADD46RoundRect,0.200000X1.250000X-1.525000X1.250000X1.525000X-1.250000X1.525000X-1.250000X-1.525000X0*%
%ADD47RoundRect,0.200000X0.400000X-0.450000X0.400000X0.450000X-0.400000X0.450000X-0.400000X-0.450000X0*%
G04 APERTURE END LIST*
D10*
X45420000Y5380000D03*
X5380000Y5380000D03*
X45420000Y45420000D03*
D11*
X29626000Y25450000D03*
D12*
X29626000Y25450000D03*
D10*
X5380000Y45420000D03*
D13*
X25781000Y37592000D03*
X25781000Y41092000D03*
D14*
X42672000Y27813000D03*
X40767000Y27813000D03*
D15*
X16594000Y33904000D03*
X16594000Y32954000D03*
X16594000Y32004000D03*
X14394000Y32004000D03*
X14394000Y32954000D03*
X14394000Y33904000D03*
D16*
X7295000Y32360000D03*
X7295000Y33160000D03*
D17*
X7295000Y34310000D03*
X7295000Y35310000D03*
X7295000Y35810000D03*
X7295000Y36810000D03*
D16*
X7295000Y38760000D03*
X7295000Y37960000D03*
D17*
X7295000Y37310000D03*
X7295000Y36310000D03*
X7295000Y34810000D03*
X7295000Y33810000D03*
D18*
X2540000Y31240000D03*
X2540000Y39880000D03*
D19*
X6720000Y31240000D03*
X6720000Y39880000D03*
D20*
X6220000Y38450000D03*
X6220000Y32670000D03*
D21*
X25908000Y28448000D03*
X25908000Y30353000D03*
D22*
X33619555Y16714043D03*
X34269555Y16714043D03*
X34919555Y16714043D03*
X34919555Y14814043D03*
X34269555Y14814043D03*
X33619555Y14814043D03*
D23*
X46260000Y27813000D03*
D24*
X44185000Y27813000D03*
X48335000Y27813000D03*
D25*
X40706000Y38465000D03*
X42606000Y38465000D03*
X41656000Y36465000D03*
D14*
X4826000Y15240000D03*
X2921000Y15240000D03*
D21*
X23495000Y22225000D03*
X23495000Y24130000D03*
D26*
X40005000Y25781000D03*
X41910000Y25781000D03*
D14*
X32022394Y18110402D03*
X30117394Y18110402D03*
D27*
X13405000Y45394000D03*
X14655000Y45394000D03*
X15905000Y45394000D03*
X17155000Y45394000D03*
X18405000Y45394000D03*
X19655000Y45394000D03*
X20905000Y45394000D03*
X22155000Y45394000D03*
D28*
X11555000Y48594000D03*
X24005000Y48594000D03*
D26*
X32131000Y41656000D03*
X34036000Y41656000D03*
D23*
X46260000Y31242000D03*
D24*
X44185000Y31242000D03*
X48335000Y31242000D03*
D29*
X23495000Y18632500D03*
X23495000Y16727500D03*
D30*
X9652000Y42099000D03*
X9652000Y43499000D03*
D23*
X46260000Y34671000D03*
D24*
X44185000Y34671000D03*
X48335000Y34671000D03*
D29*
X18796000Y37211000D03*
X18796000Y35306000D03*
D14*
X21336000Y30480000D03*
X19431000Y30480000D03*
D21*
X18796000Y40005000D03*
X18796000Y41910000D03*
D31*
X29337000Y6286000D03*
X29337000Y2286000D03*
D14*
X22606000Y32893000D03*
X20701000Y32893000D03*
X42672000Y31242000D03*
X40767000Y31242000D03*
D29*
X37719000Y24511000D03*
X37719000Y22606000D03*
X40259000Y45720000D03*
X40259000Y43815000D03*
D32*
X38155000Y5359000D03*
X36905000Y5359000D03*
X35655000Y5359000D03*
X34405000Y5359000D03*
D33*
X32555000Y2159000D03*
X40005000Y2159000D03*
D21*
X11176000Y37084000D03*
X11176000Y38989000D03*
X21082000Y40640000D03*
X21082000Y42545000D03*
D34*
X9398000Y40578000D03*
X9398000Y39178000D03*
D14*
X4191000Y25527000D03*
X2286000Y25527000D03*
D35*
X44609000Y23622000D03*
X48609000Y23622000D03*
D21*
X11684000Y41211500D03*
X11684000Y43116500D03*
D29*
X37211000Y42989500D03*
X37211000Y41084500D03*
D14*
X4826000Y17272000D03*
X2921000Y17272000D03*
D23*
X46260000Y38147000D03*
D24*
X44185000Y38147000D03*
X48335000Y38147000D03*
D36*
X13710000Y36957000D03*
X16510000Y36957000D03*
D26*
X29984176Y12856902D03*
X31889176Y12856902D03*
D14*
X42545000Y34671000D03*
X40640000Y34671000D03*
D37*
X34858973Y23098823D03*
X33511935Y21751785D03*
D21*
X34939148Y18522534D03*
X34939148Y20427534D03*
D38*
X19970000Y25732500D03*
X19970000Y24632500D03*
X19970000Y23532500D03*
X19970000Y22432500D03*
X19970000Y21332500D03*
X19970000Y20232500D03*
X19970000Y19132500D03*
X19970000Y16132500D03*
X19970000Y15032500D03*
X19970000Y13932500D03*
X19970000Y12832500D03*
X19970000Y11732500D03*
X7970000Y11732500D03*
X7970000Y12832500D03*
X7970000Y13932500D03*
X7970000Y15032500D03*
X7970000Y16132500D03*
X7970000Y19132500D03*
X7970000Y20232500D03*
X7970000Y21332500D03*
X7970000Y22432500D03*
X7970000Y23532500D03*
X7970000Y24632500D03*
X7970000Y25732500D03*
D21*
X27030193Y15992908D03*
X27030193Y17897908D03*
D14*
X4826000Y21336000D03*
X2921000Y21336000D03*
X30907309Y15988598D03*
X29002309Y15988598D03*
D21*
X28448000Y41148000D03*
X28448000Y43053000D03*
D29*
X37084000Y13703300D03*
X37084000Y11798300D03*
D21*
X16764000Y39624000D03*
X16764000Y41529000D03*
D27*
X30530000Y45394000D03*
X31780000Y45394000D03*
X33030000Y45394000D03*
X34280000Y45394000D03*
X35530000Y45394000D03*
X36780000Y45394000D03*
D28*
X28680000Y48594000D03*
X38630000Y48594000D03*
D14*
X4826000Y13208000D03*
X2921000Y13208000D03*
D21*
X25654000Y22225000D03*
X25654000Y24130000D03*
D39*
X28702000Y34798000D03*
X37102000Y34798000D03*
D29*
X23495000Y41148000D03*
X23495000Y39243000D03*
D40*
X39640000Y20767000D03*
X39640000Y22667000D03*
X41640000Y21717000D03*
D26*
X7874000Y28575000D03*
X9779000Y28575000D03*
D41*
X32310981Y22780941D03*
X30963943Y24127979D03*
D23*
X3905000Y28575000D03*
D42*
X5980000Y28575000D03*
X1830000Y28575000D03*
D14*
X4826000Y23368000D03*
X2921000Y23368000D03*
D43*
X28093579Y12783639D03*
X22493579Y12783639D03*
D44*
X22793579Y10483639D03*
X27793579Y10483639D03*
D45*
X20955000Y35184000D03*
X20955000Y36134000D03*
X20955000Y37084000D03*
X23155000Y37084000D03*
X23155000Y35184000D03*
D32*
X24167000Y5406000D03*
X22917000Y5406000D03*
X21667000Y5406000D03*
X20417000Y5406000D03*
X19167000Y5406000D03*
X17917000Y5406000D03*
X16667000Y5406000D03*
X15417000Y5406000D03*
X14167000Y5406000D03*
X12917000Y5406000D03*
D33*
X26017000Y2206000D03*
X11067000Y2206000D03*
D14*
X32003945Y20282176D03*
X30098945Y20282176D03*
D21*
X23622000Y28575000D03*
X23622000Y30480000D03*
D29*
X10731501Y32512001D03*
X10731501Y30607001D03*
D26*
X36484510Y15445608D03*
X38389510Y15445608D03*
D14*
X4826000Y19304000D03*
X2921000Y19304000D03*
D46*
X44196000Y11269000D03*
X44196000Y19719000D03*
D47*
X41336000Y40021000D03*
X39436000Y40021000D03*
X40386000Y42021000D03*
D14*
X35291384Y12864203D03*
X33386384Y12864203D03*
M02*
