G04 #@! TF.GenerationSoftware,KiCad,Pcbnew,(5.99.0-10394-g2e15de97e0)*
G04 #@! TF.CreationDate,2021-07-16T10:39:39+02:00*
G04 #@! TF.ProjectId,TFGPS01B,54464750-5330-4314-922e-6b696361645f,REV*
G04 #@! TF.SameCoordinates,Original*
G04 #@! TF.FileFunction,Copper,L3,Inr*
G04 #@! TF.FilePolarity,Positive*
%FSLAX46Y46*%
G04 Gerber Fmt 4.6, Leading zero omitted, Abs format (unit mm)*
G04 Created by KiCad (PCBNEW (5.99.0-10394-g2e15de97e0)) date 2021-07-16 10:39:39*
%MOMM*%
%LPD*%
G01*
G04 APERTURE LIST*
G04 #@! TA.AperFunction,ComponentPad*
%ADD10C,6.000000*%
G04 #@! TD*
G04 #@! TA.AperFunction,ComponentPad*
%ADD11O,2.000000X1.000000*%
G04 #@! TD*
G04 #@! TA.AperFunction,ComponentPad*
%ADD12O,2.100000X1.050000*%
G04 #@! TD*
G04 #@! TA.AperFunction,ViaPad*
%ADD13C,0.800000*%
G04 #@! TD*
G04 #@! TA.AperFunction,ViaPad*
%ADD14C,0.700000*%
G04 #@! TD*
G04 #@! TA.AperFunction,ViaPad*
%ADD15C,0.600000*%
G04 #@! TD*
G04 #@! TA.AperFunction,Conductor*
%ADD16C,1.000000*%
G04 #@! TD*
G04 #@! TA.AperFunction,Conductor*
%ADD17C,0.500000*%
G04 #@! TD*
G04 APERTURE END LIST*
D10*
X45420000Y5380000D03*
X5380000Y5380000D03*
X45420000Y45420000D03*
X5380000Y45420000D03*
D11*
X2540000Y31240000D03*
X2540000Y39880000D03*
D12*
X6720000Y31240000D03*
X6720000Y39880000D03*
D13*
X19685000Y28575000D03*
X40640000Y48260000D03*
X36423600Y19812000D03*
X11430000Y12700000D03*
X18223610Y16246499D03*
X3810000Y38100000D03*
X3810000Y33020000D03*
X33426400Y23977600D03*
D14*
X34578000Y11430000D03*
D13*
X31115000Y38735000D03*
D15*
X44831000Y39624000D03*
D13*
X10160000Y9525000D03*
D14*
X35526400Y11430000D03*
D13*
X28549600Y19202400D03*
X41910000Y16510000D03*
X37388800Y28041600D03*
D14*
X32867600Y14173200D03*
D13*
X30073600Y20218400D03*
X9525000Y49530000D03*
D14*
X22961600Y14528800D03*
D13*
X16510000Y24765000D03*
D14*
X30784400Y11430000D03*
D13*
X32004000Y25400000D03*
X28448000Y20421600D03*
X31699200Y26466800D03*
D14*
X25857200Y12446000D03*
D13*
X31750000Y6985000D03*
X24130000Y44450000D03*
X11430000Y11430000D03*
X30480000Y22453600D03*
X35560000Y37465000D03*
X20747970Y28367969D03*
X31242000Y21742400D03*
D14*
X34300065Y13919200D03*
D13*
X29845000Y38735000D03*
X10160000Y8255000D03*
X33375600Y19050000D03*
X25247600Y16560800D03*
X40640000Y5080000D03*
X29667200Y23164800D03*
X15240000Y23495000D03*
X35610800Y27838400D03*
D14*
X24079200Y14427200D03*
D13*
X35356800Y21640800D03*
X29260800Y22199600D03*
D14*
X29870400Y11430000D03*
D13*
X31140400Y27381200D03*
X16510000Y21590000D03*
X32054800Y14325600D03*
X36423600Y20878800D03*
X8890000Y5080000D03*
X31115000Y37465000D03*
X27381200Y25298400D03*
X27076400Y19304000D03*
D14*
X34188400Y17475200D03*
D13*
X32715200Y24688800D03*
X17780000Y23495000D03*
X29845000Y37465000D03*
X9525000Y48260000D03*
X8890000Y2540000D03*
D15*
X43688000Y39624000D03*
D14*
X24790400Y12446000D03*
D13*
X41910000Y48260000D03*
X8890000Y3810000D03*
X35864800Y16814800D03*
X8890000Y1270000D03*
X35560000Y38735000D03*
D14*
X26568400Y14478000D03*
D13*
X37592000Y21209000D03*
X13335000Y11430000D03*
X38201600Y17780000D03*
X30861000Y40894000D03*
X28143200Y27279600D03*
X27178000Y4826000D03*
X28575000Y37465000D03*
X27482800Y26466800D03*
X29057600Y27736800D03*
X28575000Y38735000D03*
X28549600Y21488400D03*
X41275000Y6350000D03*
X36423600Y18694400D03*
D14*
X32681200Y11430000D03*
X31732800Y11430000D03*
D13*
X27686000Y24180800D03*
X3810000Y36830000D03*
D15*
X34338884Y12864203D03*
D13*
X41275000Y18415000D03*
X28575000Y44450000D03*
D15*
X39497000Y37211000D03*
D13*
X33324800Y20167600D03*
X29972000Y14325600D03*
X25857200Y11125200D03*
X3810000Y35560000D03*
X12065000Y20320000D03*
D14*
X24790400Y13716000D03*
D13*
X24130000Y45720000D03*
X30124400Y18084800D03*
X33324800Y27178000D03*
X3810000Y34290000D03*
X11430000Y8255000D03*
X35814000Y24130000D03*
X27432000Y22199600D03*
X27686000Y14732000D03*
X31013400Y14325600D03*
X38354000Y20320000D03*
X10160000Y16510000D03*
X13335000Y12700000D03*
X36830000Y37465000D03*
X24688800Y11074400D03*
X11430000Y9525000D03*
X49530000Y13970000D03*
X36830000Y38735000D03*
X28702000Y17729200D03*
X28854400Y14579600D03*
X21742400Y16052800D03*
D14*
X33477200Y18034000D03*
X21590000Y14224000D03*
D13*
X28575000Y40005000D03*
D14*
X33629600Y11430000D03*
D13*
X36525200Y17576800D03*
X28549600Y23418800D03*
X30124400Y27736800D03*
X26670000Y45720000D03*
D14*
X25806400Y13766800D03*
D13*
X28305725Y33013021D03*
X6350000Y23495000D03*
X24638000Y35306000D03*
X24638000Y42926000D03*
X24892000Y18796000D03*
X35560000Y48006000D03*
D14*
X49614001Y34967999D03*
D13*
X29464000Y4572000D03*
D14*
X9906000Y44577000D03*
D13*
X46228000Y13970000D03*
D14*
X38925500Y44640500D03*
D13*
X14626252Y8843348D03*
X36331688Y43062688D03*
X31750000Y43053000D03*
X37338000Y29464000D03*
X17272000Y14224000D03*
X6096000Y12954000D03*
X38608000Y26162000D03*
X34290000Y43903000D03*
X40424999Y19288997D03*
X14097000Y7112000D03*
X38030074Y8692139D03*
X16421990Y15212785D03*
X36499999Y32842001D03*
X5969000Y14351000D03*
X14630400Y10160000D03*
X33020000Y40005000D03*
X19177000Y7112000D03*
X35560000Y7112000D03*
X1727200Y19304000D03*
X21639041Y7101959D03*
X21082000Y41402000D03*
X11596000Y40654794D03*
X23114000Y7112000D03*
X11557000Y29083000D03*
X1676400Y21336000D03*
X1651000Y15240000D03*
X16764000Y40779989D03*
X1778000Y17272000D03*
X18796000Y41148000D03*
X13335000Y43180000D03*
X23749000Y31750000D03*
X24517223Y32390186D03*
X14732000Y43180000D03*
X16383000Y29083000D03*
X1778000Y13208000D03*
X16256000Y43180000D03*
X11684000Y44450000D03*
X19655000Y43464000D03*
X18359977Y32429000D03*
X24057948Y25091052D03*
X25146000Y25273000D03*
X18359977Y33479000D03*
X15324759Y6942759D03*
X30480000Y43561000D03*
X9398000Y38100000D03*
X8877000Y33160000D03*
X13019000Y33147000D03*
X12640000Y37410000D03*
X10400000Y40350000D03*
D16*
X24638000Y35306000D02*
X26263600Y33680400D01*
X26263600Y20167600D02*
X24892000Y18796000D01*
X26263600Y33680400D02*
X26263600Y20167600D01*
X24638000Y42926000D02*
X24638000Y35306000D01*
X46228000Y13970000D02*
X36830000Y4572000D01*
X49614001Y39793999D02*
X49614001Y34967999D01*
X9906000Y45466000D02*
X9906000Y44577000D01*
X12446000Y48006000D02*
X30480000Y48006000D01*
X30480000Y48006000D02*
X35560000Y48006000D01*
X42483990Y41082010D02*
X48325990Y41082010D01*
X49614001Y34967999D02*
X49614001Y17356001D01*
X35560000Y48006000D02*
X38925500Y44640500D01*
X36830000Y4572000D02*
X29464000Y4572000D01*
X9906000Y45466000D02*
X12446000Y48006000D01*
X48325990Y41082010D02*
X49614001Y39793999D01*
X38925500Y44640500D02*
X42483990Y41082010D01*
X49614001Y17356001D02*
X46228000Y13970000D01*
D17*
X36322000Y43053000D02*
X36331688Y43062688D01*
X31750000Y43053000D02*
X36322000Y43053000D01*
X43180000Y14986000D02*
X37642800Y9448800D01*
X37302274Y43062688D02*
X43460011Y36904951D01*
X36331688Y43062688D02*
X37302274Y43062688D01*
X37311963Y43053000D02*
X36341376Y43053000D01*
X43460011Y35459011D02*
X43460011Y35840011D01*
X15231704Y9448800D02*
X14626252Y8843348D01*
X43460011Y15266011D02*
X43460011Y35459011D01*
X36341376Y43053000D02*
X36331688Y43062688D01*
X37642800Y9448800D02*
X15231704Y9448800D01*
X43460011Y36904951D02*
X43460011Y35459011D01*
X43180000Y14986000D02*
X43460011Y15266011D01*
X8382000Y14224000D02*
X7366000Y14224000D01*
X8382000Y14224000D02*
X17272000Y14224000D01*
X7366000Y14224000D02*
X6096000Y12954000D01*
X14097000Y7112000D02*
X15699241Y8714241D01*
X38007972Y8714241D02*
X38030074Y8692139D01*
X15699241Y8714241D02*
X38007972Y8714241D01*
X5969000Y14351000D02*
X6830785Y15212785D01*
X36487999Y32830001D02*
X36499999Y32842001D01*
X6830785Y15212785D02*
X16421990Y15212785D01*
X41592500Y37782500D02*
X39370000Y40005000D01*
X39878000Y12801600D02*
X37236400Y10160000D01*
X42760001Y15683601D02*
X42748200Y15671800D01*
X37236400Y10160000D02*
X14630400Y10160000D01*
X41592500Y37782500D02*
X42760001Y36614999D01*
X39878000Y12801600D02*
X42748200Y15671800D01*
X33020000Y40005000D02*
X39370000Y40005000D01*
X42760001Y36614999D02*
X42760001Y15683601D01*
X20066000Y8001000D02*
X34671000Y8001000D01*
X34671000Y8001000D02*
X35560000Y7112000D01*
X19177000Y7112000D02*
X20066000Y8001000D01*
X21082000Y41402000D02*
X20154001Y42329999D01*
X13869001Y40500965D02*
X13869001Y29617001D01*
X3556000Y19304000D02*
X1727200Y19304000D01*
X15698035Y42329999D02*
X13869001Y40500965D01*
X20154001Y42329999D02*
X15698035Y42329999D01*
X13869001Y29617001D02*
X3556000Y19304000D01*
X9423400Y29083000D02*
X1676400Y21336000D01*
X11557000Y29083000D02*
X9423400Y29083000D01*
X15494000Y29083000D02*
X1651000Y15240000D01*
X15494000Y29083000D02*
X15494000Y39370000D01*
X16764000Y40779989D02*
X15494000Y39509989D01*
X15494000Y39509989D02*
X15494000Y39370000D01*
X14643999Y40073881D02*
X14643999Y29375999D01*
X16200107Y41629989D02*
X14643999Y40073881D01*
X14643999Y29375999D02*
X2540000Y17272000D01*
X18314011Y41629989D02*
X16200107Y41629989D01*
X18796000Y41148000D02*
X18314011Y41629989D01*
X2540000Y17272000D02*
X1778000Y17272000D01*
X16383000Y29083000D02*
X16383000Y27813000D01*
X16383000Y27813000D02*
X1778000Y13208000D01*
X18669000Y44450000D02*
X19655000Y43464000D01*
X11684000Y44450000D02*
X18669000Y44450000D01*
X24057948Y26260088D02*
X24057948Y25091052D01*
X18359977Y32429000D02*
X18359977Y31958059D01*
X18359977Y31958059D02*
X24057948Y26260088D01*
X19304000Y32893000D02*
X18718000Y33479000D01*
X25146000Y25273000D02*
X25146000Y26162000D01*
X19304000Y32004000D02*
X19304000Y32893000D01*
X25146000Y26162000D02*
X19304000Y32004000D01*
X18718000Y33479000D02*
X18359977Y33479000D01*
X16132519Y6134999D02*
X15324759Y6942759D01*
X37619001Y43903001D02*
X44160021Y37361981D01*
X27216999Y6134999D02*
X16132519Y6134999D01*
X44160021Y37361981D02*
X44160021Y13564084D01*
X32131000Y45212000D02*
X30480000Y43561000D01*
X37619001Y43903001D02*
X36769001Y44753001D01*
X36322000Y45212000D02*
X32131000Y45212000D01*
X36769001Y44753001D02*
X36769001Y44764999D01*
X27216999Y6134999D02*
X36730936Y6134999D01*
X36769001Y44764999D02*
X36322000Y45212000D01*
X44160021Y13564084D02*
X36730936Y6134999D01*
X13019000Y34479000D02*
X9398000Y38100000D01*
X13019000Y33147000D02*
X8890000Y33147000D01*
X8890000Y33147000D02*
X8877000Y33160000D01*
X13019000Y33147000D02*
X13019000Y34479000D01*
X12640000Y38110000D02*
X10400000Y40350000D01*
X12640000Y37410000D02*
X12640000Y38110000D01*
G04 #@! TA.AperFunction,Conductor*
G36*
X50364208Y50375178D02*
G01*
X50394648Y50322455D01*
X50396000Y50307000D01*
X50396000Y40358474D01*
X50375178Y40301266D01*
X50322455Y40270826D01*
X50262500Y40281398D01*
X50243853Y40295757D01*
X50217418Y40322377D01*
X50216233Y40323643D01*
X50215538Y40324540D01*
X50176999Y40363079D01*
X50139937Y40400401D01*
X50120704Y40419769D01*
X50120697Y40419776D01*
X50118730Y40421756D01*
X50117904Y40422280D01*
X50116872Y40423206D01*
X48893937Y41646141D01*
X48893282Y41646804D01*
X48835090Y41706228D01*
X48797489Y41730460D01*
X48790175Y41735716D01*
X48767984Y41753431D01*
X48755222Y41763619D01*
X48750742Y41765785D01*
X48750740Y41765786D01*
X48723368Y41779018D01*
X48713892Y41784335D01*
X48688320Y41800815D01*
X48688318Y41800816D01*
X48684144Y41803506D01*
X48666234Y41810025D01*
X48642115Y41818804D01*
X48633822Y41822307D01*
X48598031Y41839609D01*
X48598023Y41839612D01*
X48593546Y41841776D01*
X48588698Y41842895D01*
X48588693Y41842897D01*
X48559075Y41849734D01*
X48548653Y41852821D01*
X48520072Y41863224D01*
X48520067Y41863225D01*
X48515397Y41864925D01*
X48486140Y41868621D01*
X48471021Y41870531D01*
X48462156Y41872110D01*
X48423418Y41881053D01*
X48418571Y41882172D01*
X48379065Y41882310D01*
X48377315Y41882368D01*
X48376192Y41882510D01*
X48321792Y41882510D01*
X48321481Y41882511D01*
X48320787Y41882513D01*
X48238996Y41882799D01*
X48238038Y41882585D01*
X48236655Y41882510D01*
X42852434Y41882510D01*
X42795226Y41903332D01*
X42789501Y41908577D01*
X36127947Y48570131D01*
X36127292Y48570794D01*
X36091311Y48607537D01*
X36069100Y48630218D01*
X36031499Y48654450D01*
X36024185Y48659706D01*
X35993121Y48684504D01*
X35989232Y48687609D01*
X35984752Y48689775D01*
X35984750Y48689776D01*
X35957378Y48703008D01*
X35947902Y48708325D01*
X35922330Y48724805D01*
X35922328Y48724806D01*
X35918154Y48727496D01*
X35900112Y48734063D01*
X35876125Y48742794D01*
X35867832Y48746297D01*
X35832041Y48763599D01*
X35832033Y48763602D01*
X35827556Y48765766D01*
X35822708Y48766885D01*
X35822703Y48766887D01*
X35793085Y48773724D01*
X35782663Y48776811D01*
X35754082Y48787214D01*
X35754077Y48787215D01*
X35749407Y48788915D01*
X35720150Y48792611D01*
X35705031Y48794521D01*
X35696166Y48796100D01*
X35657428Y48805043D01*
X35652581Y48806162D01*
X35613075Y48806300D01*
X35611325Y48806358D01*
X35610202Y48806500D01*
X35555802Y48806500D01*
X35555491Y48806501D01*
X35554345Y48806505D01*
X35473006Y48806789D01*
X35472048Y48806575D01*
X35470665Y48806500D01*
X12448776Y48806500D01*
X12447844Y48806505D01*
X12369571Y48807325D01*
X12369570Y48807325D01*
X12364599Y48807377D01*
X12320870Y48797922D01*
X12311989Y48796468D01*
X12267543Y48791483D01*
X12234124Y48779845D01*
X12223674Y48776908D01*
X12218395Y48775767D01*
X12189078Y48769428D01*
X12155061Y48753566D01*
X12148534Y48750522D01*
X12140194Y48747135D01*
X12097955Y48732426D01*
X12093735Y48729789D01*
X12067952Y48713678D01*
X12058404Y48708494D01*
X12030841Y48695641D01*
X12030837Y48695638D01*
X12026326Y48693535D01*
X12022395Y48690486D01*
X12022392Y48690484D01*
X12018686Y48687609D01*
X11990975Y48666114D01*
X11983607Y48660974D01*
X11945665Y48637265D01*
X11917622Y48609417D01*
X11916356Y48608232D01*
X11915459Y48607537D01*
X11876996Y48569074D01*
X11876776Y48568855D01*
X11820230Y48512703D01*
X11820223Y48512696D01*
X11818243Y48510729D01*
X11817719Y48509903D01*
X11816793Y48508871D01*
X9341869Y46033947D01*
X9341206Y46033292D01*
X9281782Y45975100D01*
X9279088Y45970919D01*
X9257550Y45937499D01*
X9252294Y45930185D01*
X9224391Y45895232D01*
X9222225Y45890752D01*
X9222224Y45890750D01*
X9208992Y45863378D01*
X9203675Y45853902D01*
X9184504Y45824154D01*
X9182804Y45819483D01*
X9169206Y45782125D01*
X9165703Y45773832D01*
X9148401Y45738041D01*
X9148398Y45738033D01*
X9146234Y45733556D01*
X9145115Y45728708D01*
X9145113Y45728703D01*
X9138276Y45699085D01*
X9135189Y45688663D01*
X9124786Y45660082D01*
X9124785Y45660077D01*
X9123085Y45655407D01*
X9122183Y45648267D01*
X9117479Y45611031D01*
X9115900Y45602166D01*
X9112473Y45587322D01*
X9105838Y45558581D01*
X9105821Y45553606D01*
X9105700Y45519086D01*
X9105642Y45517325D01*
X9105500Y45516202D01*
X9105500Y45461777D01*
X9105211Y45379006D01*
X9105425Y45378048D01*
X9105500Y45376665D01*
X9105500Y44532424D01*
X9105777Y44529959D01*
X9105777Y44529950D01*
X9118305Y44418267D01*
X9120517Y44398543D01*
X9179574Y44228955D01*
X9274735Y44076665D01*
X9401271Y43949243D01*
X9552892Y43853021D01*
X9557579Y43851352D01*
X9717377Y43794450D01*
X9717382Y43794449D01*
X9722063Y43792782D01*
X9726999Y43792193D01*
X9727001Y43792193D01*
X9895434Y43772109D01*
X9895438Y43772109D01*
X9900377Y43771520D01*
X10001105Y43782107D01*
X10074015Y43789769D01*
X10074018Y43789770D01*
X10078969Y43790290D01*
X10083678Y43791893D01*
X10083682Y43791894D01*
X10244256Y43846559D01*
X10244255Y43846559D01*
X10248965Y43848162D01*
X10315982Y43889391D01*
X10397675Y43939648D01*
X10397678Y43939651D01*
X10401915Y43942257D01*
X10530218Y44067900D01*
X10532914Y44072083D01*
X10532917Y44072087D01*
X10624798Y44214659D01*
X10624799Y44214661D01*
X10627496Y44218846D01*
X10676242Y44352774D01*
X10687215Y44382922D01*
X10687215Y44382923D01*
X10688915Y44387593D01*
X10698403Y44462703D01*
X10706150Y44524024D01*
X10706150Y44524031D01*
X10706500Y44526798D01*
X10706500Y45097556D01*
X10727322Y45154764D01*
X10732567Y45160489D01*
X12751511Y47179433D01*
X12806687Y47205161D01*
X12814444Y47205500D01*
X35191556Y47205500D01*
X35248764Y47184678D01*
X35254489Y47179433D01*
X36532403Y45901519D01*
X36558131Y45846343D01*
X36542375Y45787538D01*
X36492505Y45752619D01*
X36454583Y45752222D01*
X36454503Y45751465D01*
X36443526Y45752619D01*
X36436278Y45753381D01*
X36420755Y45756426D01*
X36407624Y45760241D01*
X36407623Y45760241D01*
X36403149Y45761541D01*
X36390089Y45762500D01*
X36354175Y45762500D01*
X36344872Y45762988D01*
X36310586Y45766592D01*
X36310584Y45766592D01*
X36304551Y45767226D01*
X36298574Y45766215D01*
X36298571Y45766215D01*
X36283977Y45763746D01*
X36269134Y45762500D01*
X32141064Y45762500D01*
X32137336Y45762578D01*
X32084783Y45764781D01*
X32078723Y45765035D01*
X32072819Y45763650D01*
X32072817Y45763650D01*
X32034678Y45754705D01*
X32026436Y45753178D01*
X31987629Y45747862D01*
X31987621Y45747860D01*
X31981615Y45747037D01*
X31964790Y45739756D01*
X31949771Y45734789D01*
X31931926Y45730604D01*
X31892267Y45708801D01*
X31884754Y45705122D01*
X31843236Y45687155D01*
X31838521Y45683336D01*
X31838515Y45683333D01*
X31828992Y45675621D01*
X31815858Y45666795D01*
X31803886Y45660213D01*
X31799797Y45657965D01*
X31789884Y45649409D01*
X31764488Y45624013D01*
X31757565Y45617780D01*
X31726058Y45592266D01*
X31713969Y45575255D01*
X31704360Y45563885D01*
X31058161Y44917685D01*
X30421120Y44280644D01*
X30378964Y44257035D01*
X30311224Y44240772D01*
X30234082Y44222252D01*
X30083450Y44144505D01*
X29955711Y44033072D01*
X29952628Y44028685D01*
X29862250Y43900090D01*
X29858240Y43894385D01*
X29796665Y43736451D01*
X29774539Y43568388D01*
X29775127Y43563062D01*
X29775127Y43563060D01*
X29789254Y43435100D01*
X29793140Y43399898D01*
X29851395Y43240710D01*
X29945940Y43100012D01*
X29949908Y43096402D01*
X29949910Y43096399D01*
X30064055Y42992535D01*
X30071317Y42985927D01*
X30220288Y42905043D01*
X30384253Y42862027D01*
X30466925Y42860729D01*
X30548377Y42859449D01*
X30548380Y42859449D01*
X30553745Y42859365D01*
X30558975Y42860563D01*
X30558977Y42860563D01*
X30713750Y42896011D01*
X30713751Y42896011D01*
X30718980Y42897209D01*
X30793613Y42934746D01*
X30865627Y42970964D01*
X30865629Y42970966D01*
X30870418Y42973374D01*
X30910495Y43007604D01*
X30967518Y43028925D01*
X31024906Y43008603D01*
X31055805Y42956148D01*
X31056758Y42949695D01*
X31062287Y42899621D01*
X31063140Y42891898D01*
X31121395Y42732710D01*
X31215940Y42592012D01*
X31219908Y42588402D01*
X31219910Y42588399D01*
X31337346Y42481540D01*
X31341317Y42477927D01*
X31490288Y42397043D01*
X31654253Y42354027D01*
X31736925Y42352729D01*
X31818377Y42351449D01*
X31818380Y42351449D01*
X31823745Y42351365D01*
X31828975Y42352563D01*
X31828977Y42352563D01*
X31983750Y42388011D01*
X31983751Y42388011D01*
X31988980Y42389209D01*
X32080123Y42435049D01*
X32135627Y42462964D01*
X32135629Y42462966D01*
X32140418Y42465374D01*
X32144500Y42468860D01*
X32158921Y42481176D01*
X32216721Y42502500D01*
X35874769Y42502500D01*
X35922769Y42487181D01*
X35923005Y42487615D01*
X36071976Y42406731D01*
X36235941Y42363715D01*
X36318613Y42362417D01*
X36400065Y42361137D01*
X36400068Y42361137D01*
X36405433Y42361053D01*
X36410663Y42362251D01*
X36410665Y42362251D01*
X36565438Y42397699D01*
X36565439Y42397699D01*
X36570668Y42398897D01*
X36698052Y42462964D01*
X36717315Y42472652D01*
X36717317Y42472654D01*
X36722106Y42475062D01*
X36729267Y42481178D01*
X36787066Y42502500D01*
X37047072Y42502500D01*
X37104280Y42481678D01*
X37110005Y42476433D01*
X38879005Y40707433D01*
X38904733Y40652257D01*
X38888977Y40593452D01*
X38839107Y40558533D01*
X38816072Y40555500D01*
X33488883Y40555500D01*
X33429680Y40578047D01*
X33426645Y40580751D01*
X33426644Y40580751D01*
X33422638Y40584321D01*
X33405393Y40593452D01*
X33277572Y40661130D01*
X33277570Y40661131D01*
X33272829Y40663641D01*
X33262435Y40666252D01*
X33113622Y40703631D01*
X33113623Y40703631D01*
X33108423Y40704937D01*
X33030865Y40705343D01*
X32944275Y40705796D01*
X32944274Y40705796D01*
X32938912Y40705824D01*
X32774082Y40666252D01*
X32623450Y40588505D01*
X32495711Y40477072D01*
X32474972Y40447563D01*
X32411596Y40357388D01*
X32398240Y40338385D01*
X32336665Y40180451D01*
X32314539Y40012388D01*
X32315127Y40007062D01*
X32315127Y40007060D01*
X32329488Y39876980D01*
X32333140Y39843898D01*
X32391395Y39684710D01*
X32485940Y39544012D01*
X32489908Y39540402D01*
X32489910Y39540399D01*
X32607346Y39433540D01*
X32611317Y39429927D01*
X32760288Y39349043D01*
X32924253Y39306027D01*
X33006925Y39304729D01*
X33088377Y39303449D01*
X33088380Y39303449D01*
X33093745Y39303365D01*
X33098975Y39304563D01*
X33098977Y39304563D01*
X33253750Y39340011D01*
X33253751Y39340011D01*
X33258980Y39341209D01*
X33333613Y39378746D01*
X33405627Y39414964D01*
X33405629Y39414966D01*
X33410418Y39417374D01*
X33419997Y39425555D01*
X33428921Y39433176D01*
X33486721Y39454500D01*
X39105111Y39454500D01*
X39162319Y39433678D01*
X39168044Y39428432D01*
X41229048Y37367427D01*
X41229051Y37367425D01*
X41229056Y37367420D01*
X42183434Y36413041D01*
X42209162Y36357866D01*
X42209501Y36350109D01*
X42209501Y15948491D01*
X42188679Y15891283D01*
X42183434Y15885559D01*
X40853152Y14555276D01*
X39536891Y13239015D01*
X39536884Y13239009D01*
X39536870Y13238995D01*
X37034444Y10736568D01*
X36979268Y10710839D01*
X36971511Y10710500D01*
X15099283Y10710500D01*
X15040080Y10733047D01*
X15037045Y10735751D01*
X15037044Y10735751D01*
X15033038Y10739321D01*
X15020490Y10745965D01*
X14887972Y10816130D01*
X14887970Y10816131D01*
X14883229Y10818641D01*
X14872835Y10821252D01*
X14724022Y10858631D01*
X14724023Y10858631D01*
X14718823Y10859937D01*
X14641265Y10860343D01*
X14554675Y10860796D01*
X14554674Y10860796D01*
X14549312Y10860824D01*
X14384482Y10821252D01*
X14233850Y10743505D01*
X14106111Y10632072D01*
X14008640Y10493385D01*
X13947065Y10335451D01*
X13924939Y10167388D01*
X13943540Y9998898D01*
X14001795Y9839710D01*
X14096340Y9699012D01*
X14100308Y9695402D01*
X14100310Y9695399D01*
X14217746Y9588540D01*
X14221717Y9584927D01*
X14226431Y9582367D01*
X14226436Y9582364D01*
X14227702Y9581677D01*
X14228208Y9581105D01*
X14230807Y9579258D01*
X14230377Y9578653D01*
X14268043Y9536082D01*
X14269637Y9475223D01*
X14235263Y9429853D01*
X14234469Y9429314D01*
X14229702Y9426853D01*
X14101963Y9315420D01*
X14004492Y9176733D01*
X13942917Y9018799D01*
X13920791Y8850736D01*
X13939392Y8682246D01*
X13997647Y8523058D01*
X14092192Y8382360D01*
X14096160Y8378750D01*
X14096162Y8378747D01*
X14213598Y8271888D01*
X14217569Y8268275D01*
X14222287Y8265714D01*
X14222286Y8265714D01*
X14279508Y8234645D01*
X14319848Y8189049D01*
X14321442Y8128190D01*
X14299977Y8093502D01*
X14038118Y7831642D01*
X13995964Y7808035D01*
X13851082Y7773252D01*
X13700450Y7695505D01*
X13572711Y7584072D01*
X13530907Y7524591D01*
X13478597Y7450161D01*
X13475240Y7445385D01*
X13413665Y7287451D01*
X13391539Y7119388D01*
X13392127Y7114062D01*
X13392127Y7114060D01*
X13404953Y6997885D01*
X13410140Y6950898D01*
X13468395Y6791710D01*
X13562940Y6651012D01*
X13566908Y6647402D01*
X13566910Y6647399D01*
X13629438Y6590503D01*
X13688317Y6536927D01*
X13837288Y6456043D01*
X14001253Y6413027D01*
X14083925Y6411729D01*
X14165377Y6410449D01*
X14165380Y6410449D01*
X14170745Y6410365D01*
X14175975Y6411563D01*
X14175977Y6411563D01*
X14330750Y6447011D01*
X14330751Y6447011D01*
X14335980Y6448209D01*
X14411569Y6486226D01*
X14482627Y6521964D01*
X14482629Y6521966D01*
X14487418Y6524374D01*
X14585963Y6608540D01*
X14642987Y6629861D01*
X14700375Y6609539D01*
X14717632Y6590506D01*
X14790699Y6481771D01*
X14794667Y6478161D01*
X14794669Y6478158D01*
X14912105Y6371299D01*
X14916076Y6367686D01*
X15065047Y6286802D01*
X15227659Y6244141D01*
X15268007Y6220987D01*
X15736147Y5752847D01*
X15738726Y5750157D01*
X15778430Y5706979D01*
X15816882Y5683138D01*
X15823793Y5678388D01*
X15854989Y5654708D01*
X15854992Y5654707D01*
X15859822Y5651040D01*
X15865464Y5648806D01*
X15865468Y5648804D01*
X15876862Y5644293D01*
X15891002Y5637182D01*
X15906577Y5627524D01*
X15912403Y5625832D01*
X15912406Y5625830D01*
X15950022Y5614902D01*
X15957955Y5612186D01*
X15994372Y5597767D01*
X15994375Y5597766D01*
X16000013Y5595534D01*
X16011904Y5594284D01*
X16018241Y5593618D01*
X16033764Y5590573D01*
X16051370Y5585458D01*
X16064430Y5584499D01*
X16100343Y5584499D01*
X16109646Y5584011D01*
X16143932Y5580407D01*
X16143934Y5580407D01*
X16149967Y5579773D01*
X16155944Y5580784D01*
X16155947Y5580784D01*
X16170541Y5583253D01*
X16185384Y5584499D01*
X36495555Y5584499D01*
X36552763Y5563677D01*
X36583203Y5510954D01*
X36572631Y5450999D01*
X36558488Y5432566D01*
X36524489Y5398567D01*
X36469313Y5372839D01*
X36461556Y5372500D01*
X29419424Y5372500D01*
X29416959Y5372223D01*
X29416950Y5372223D01*
X29290794Y5358072D01*
X29285543Y5357483D01*
X29115955Y5298426D01*
X28963665Y5203265D01*
X28836243Y5076729D01*
X28740021Y4925108D01*
X28738352Y4920421D01*
X28681450Y4760623D01*
X28681449Y4760618D01*
X28679782Y4755937D01*
X28658520Y4577623D01*
X28677290Y4399031D01*
X28735162Y4229035D01*
X28737769Y4224798D01*
X28826648Y4080325D01*
X28826651Y4080322D01*
X28829257Y4076085D01*
X28954900Y3947782D01*
X28959083Y3945086D01*
X28959087Y3945083D01*
X29101659Y3853202D01*
X29101661Y3853201D01*
X29105846Y3850504D01*
X29274593Y3789085D01*
X29332378Y3781785D01*
X29411024Y3771850D01*
X29411031Y3771850D01*
X29413798Y3771500D01*
X36827224Y3771500D01*
X36828156Y3771495D01*
X36906429Y3770675D01*
X36906430Y3770675D01*
X36911401Y3770623D01*
X36955130Y3780078D01*
X36964011Y3781532D01*
X37008457Y3786517D01*
X37041876Y3798155D01*
X37052326Y3801092D01*
X37057605Y3802233D01*
X37086922Y3808572D01*
X37127466Y3827478D01*
X37135806Y3830865D01*
X37178045Y3845574D01*
X37208048Y3864322D01*
X37217596Y3869506D01*
X37245159Y3882359D01*
X37245163Y3882362D01*
X37249674Y3884465D01*
X37253605Y3887514D01*
X37253608Y3887516D01*
X37271014Y3901018D01*
X37285025Y3911886D01*
X37292393Y3917026D01*
X37330335Y3940735D01*
X37358378Y3968583D01*
X37359644Y3969768D01*
X37360541Y3970463D01*
X37399080Y4009002D01*
X37399312Y4009233D01*
X37455770Y4065297D01*
X37455777Y4065304D01*
X37457757Y4067271D01*
X37458281Y4068097D01*
X37459207Y4069129D01*
X50178132Y16788054D01*
X50178795Y16788709D01*
X50234664Y16843419D01*
X50234667Y16843422D01*
X50238219Y16846901D01*
X50239013Y16848134D01*
X50290325Y16878720D01*
X50350421Y16868985D01*
X50390200Y16822899D01*
X50396000Y16791296D01*
X50396000Y493000D01*
X50375178Y435792D01*
X50322455Y405352D01*
X50307000Y404000D01*
X493000Y404000D01*
X435792Y424822D01*
X405352Y477545D01*
X404000Y493000D01*
X404000Y15247388D01*
X945539Y15247388D01*
X946127Y15242062D01*
X946127Y15242060D01*
X958749Y15127732D01*
X964140Y15078898D01*
X1022395Y14919710D01*
X1116940Y14779012D01*
X1120908Y14775402D01*
X1120910Y14775399D01*
X1219014Y14686131D01*
X1242317Y14664927D01*
X1391288Y14584043D01*
X1555253Y14541027D01*
X1637925Y14539729D01*
X1719377Y14538449D01*
X1719380Y14538449D01*
X1724745Y14538365D01*
X1729975Y14539563D01*
X1729977Y14539563D01*
X1884750Y14575011D01*
X1884751Y14575011D01*
X1889980Y14576209D01*
X1964613Y14613746D01*
X2036627Y14649964D01*
X2036629Y14649966D01*
X2041418Y14652374D01*
X2170316Y14762464D01*
X2269234Y14900123D01*
X2332461Y15057403D01*
X2342470Y15127732D01*
X2367649Y15178125D01*
X15680567Y28491043D01*
X15735743Y28516771D01*
X15794548Y28501015D01*
X15829467Y28451145D01*
X15832500Y28428110D01*
X15832500Y28077890D01*
X15811678Y28020682D01*
X15806433Y28014957D01*
X1719119Y13927643D01*
X1676963Y13904035D01*
X1539509Y13871035D01*
X1532082Y13869252D01*
X1381450Y13791505D01*
X1253711Y13680072D01*
X1221306Y13633964D01*
X1174976Y13568043D01*
X1156240Y13541385D01*
X1094665Y13383451D01*
X1072539Y13215388D01*
X1073127Y13210062D01*
X1073127Y13210060D01*
X1085749Y13095732D01*
X1091140Y13046898D01*
X1149395Y12887710D01*
X1243940Y12747012D01*
X1247908Y12743402D01*
X1247910Y12743399D01*
X1362914Y12638753D01*
X1369317Y12632927D01*
X1518288Y12552043D01*
X1682253Y12509027D01*
X1764925Y12507729D01*
X1846377Y12506449D01*
X1846380Y12506449D01*
X1851745Y12506365D01*
X1856975Y12507563D01*
X1856977Y12507563D01*
X2011750Y12543011D01*
X2011751Y12543011D01*
X2016980Y12544209D01*
X2091613Y12581746D01*
X2163627Y12617964D01*
X2163629Y12617966D01*
X2168418Y12620374D01*
X2297316Y12730464D01*
X2396234Y12868123D01*
X2459461Y13025403D01*
X2469470Y13095732D01*
X2494649Y13146125D01*
X3706912Y14358388D01*
X5263539Y14358388D01*
X5264127Y14353062D01*
X5264127Y14353060D01*
X5280326Y14206332D01*
X5282140Y14189898D01*
X5340395Y14030710D01*
X5434940Y13890012D01*
X5438908Y13886402D01*
X5438910Y13886399D01*
X5542533Y13792109D01*
X5560317Y13775927D01*
X5565035Y13773366D01*
X5565034Y13773366D01*
X5705519Y13697089D01*
X5745859Y13651493D01*
X5747453Y13590634D01*
X5709554Y13542989D01*
X5704353Y13540058D01*
X5704216Y13539965D01*
X5699450Y13537505D01*
X5571711Y13426072D01*
X5474240Y13287385D01*
X5412665Y13129451D01*
X5390539Y12961388D01*
X5391127Y12956062D01*
X5391127Y12956060D01*
X5403749Y12841732D01*
X5409140Y12792898D01*
X5467395Y12633710D01*
X5561940Y12493012D01*
X5565908Y12489402D01*
X5565910Y12489399D01*
X5683346Y12382540D01*
X5687317Y12378927D01*
X5836288Y12298043D01*
X6000253Y12255027D01*
X6082925Y12253729D01*
X6164377Y12252449D01*
X6164380Y12252449D01*
X6169745Y12252365D01*
X6174975Y12253563D01*
X6174977Y12253563D01*
X6329750Y12289011D01*
X6329751Y12289011D01*
X6334980Y12290209D01*
X6409613Y12327746D01*
X6481627Y12363964D01*
X6481629Y12363966D01*
X6486418Y12366374D01*
X6615316Y12476464D01*
X6714234Y12614123D01*
X6777461Y12771403D01*
X6787470Y12841732D01*
X6812649Y12892125D01*
X7567957Y13647433D01*
X7623133Y13673161D01*
X7630890Y13673500D01*
X16801879Y13673500D01*
X16853477Y13653542D01*
X16854973Y13655647D01*
X16859351Y13652536D01*
X16863317Y13648927D01*
X17012288Y13568043D01*
X17176253Y13525027D01*
X17258925Y13523729D01*
X17340377Y13522449D01*
X17340380Y13522449D01*
X17345745Y13522365D01*
X17350975Y13523563D01*
X17350977Y13523563D01*
X17505750Y13559011D01*
X17505751Y13559011D01*
X17510980Y13560209D01*
X17608935Y13609475D01*
X17657627Y13633964D01*
X17657629Y13633966D01*
X17662418Y13636374D01*
X17791316Y13746464D01*
X17890234Y13884123D01*
X17953461Y14041403D01*
X17977345Y14209225D01*
X17977500Y14224000D01*
X17957135Y14392285D01*
X17897217Y14550855D01*
X17838013Y14636997D01*
X17804245Y14686131D01*
X17804241Y14686135D01*
X17801203Y14690556D01*
X17674638Y14803321D01*
X17630676Y14826598D01*
X17529572Y14880130D01*
X17529570Y14880131D01*
X17524829Y14882641D01*
X17360423Y14923937D01*
X17190912Y14924824D01*
X17190927Y14927643D01*
X17141492Y14939439D01*
X17105211Y14988327D01*
X17104638Y15030019D01*
X17103451Y15030188D01*
X17126923Y15195117D01*
X17127335Y15198010D01*
X17127490Y15212785D01*
X17107125Y15381070D01*
X17047207Y15539640D01*
X16971226Y15650193D01*
X16954235Y15674916D01*
X16954231Y15674920D01*
X16951193Y15679341D01*
X16945832Y15684118D01*
X16828635Y15788536D01*
X16824628Y15792106D01*
X16760680Y15825965D01*
X16679562Y15868915D01*
X16679560Y15868916D01*
X16674819Y15871426D01*
X16664425Y15874037D01*
X16594493Y15891603D01*
X16510413Y15912722D01*
X16432855Y15913128D01*
X16346265Y15913581D01*
X16346264Y15913581D01*
X16340902Y15913609D01*
X16176072Y15874037D01*
X16171305Y15871577D01*
X16171306Y15871577D01*
X16030205Y15798750D01*
X16030201Y15798748D01*
X16025440Y15796290D01*
X16012748Y15785218D01*
X15954241Y15763285D01*
X6840849Y15763285D01*
X6837121Y15763363D01*
X6784568Y15765566D01*
X6778508Y15765820D01*
X6772604Y15764435D01*
X6772602Y15764435D01*
X6734463Y15755490D01*
X6726221Y15753963D01*
X6687414Y15748647D01*
X6687406Y15748645D01*
X6681400Y15747822D01*
X6664575Y15740541D01*
X6649556Y15735574D01*
X6631711Y15731389D01*
X6592052Y15709586D01*
X6584539Y15705907D01*
X6543021Y15687940D01*
X6538306Y15684121D01*
X6538300Y15684118D01*
X6528777Y15676406D01*
X6515643Y15667580D01*
X6503672Y15660999D01*
X6503668Y15660996D01*
X6499582Y15658750D01*
X6489669Y15650193D01*
X6464278Y15624802D01*
X6457355Y15618569D01*
X6425843Y15593051D01*
X6413753Y15576039D01*
X6404146Y15564670D01*
X5910119Y15070643D01*
X5867963Y15047035D01*
X5797791Y15030188D01*
X5723082Y15012252D01*
X5572450Y14934505D01*
X5444711Y14823072D01*
X5441628Y14818685D01*
X5354088Y14694128D01*
X5347240Y14684385D01*
X5285665Y14526451D01*
X5263539Y14358388D01*
X3706912Y14358388D01*
X16765152Y27416628D01*
X16767843Y27419208D01*
X16806557Y27454807D01*
X16811020Y27458911D01*
X16834861Y27497363D01*
X16839611Y27504274D01*
X16863291Y27535470D01*
X16863292Y27535473D01*
X16866959Y27540303D01*
X16869193Y27545945D01*
X16869195Y27545949D01*
X16873706Y27557343D01*
X16880817Y27571482D01*
X16887276Y27581899D01*
X16890475Y27587058D01*
X16892167Y27592884D01*
X16892169Y27592887D01*
X16903097Y27630503D01*
X16905813Y27638436D01*
X16920232Y27674853D01*
X16920233Y27674856D01*
X16922465Y27680494D01*
X16924381Y27698722D01*
X16927426Y27714245D01*
X16931241Y27727376D01*
X16931241Y27727377D01*
X16932541Y27731851D01*
X16933500Y27744911D01*
X16933500Y27780824D01*
X16933988Y27790127D01*
X16937592Y27824414D01*
X16937592Y27824416D01*
X16938226Y27830449D01*
X16934746Y27851024D01*
X16933500Y27865866D01*
X16933500Y28620201D01*
X16950223Y28672134D01*
X17001234Y28743123D01*
X17064461Y28900403D01*
X17088345Y29068225D01*
X17088500Y29083000D01*
X17068135Y29251285D01*
X17008217Y29409855D01*
X16968874Y29467100D01*
X16915245Y29545131D01*
X16915241Y29545135D01*
X16912203Y29549556D01*
X16906842Y29554333D01*
X16789645Y29658751D01*
X16785638Y29662321D01*
X16777347Y29666711D01*
X16640572Y29739130D01*
X16640570Y29739131D01*
X16635829Y29741641D01*
X16625435Y29744252D01*
X16476622Y29781631D01*
X16476623Y29781631D01*
X16471423Y29782937D01*
X16393865Y29783343D01*
X16307275Y29783796D01*
X16307274Y29783796D01*
X16301912Y29783824D01*
X16154277Y29748380D01*
X16093788Y29755272D01*
X16051882Y29799432D01*
X16044500Y29834921D01*
X16044500Y33486388D01*
X17654516Y33486388D01*
X17655104Y33481062D01*
X17655104Y33481060D01*
X17671346Y33333943D01*
X17673117Y33317898D01*
X17731372Y33158710D01*
X17825917Y33018012D01*
X17829886Y33014400D01*
X17831825Y33012154D01*
X17853442Y32955242D01*
X17833629Y32902519D01*
X17835688Y32901072D01*
X17789430Y32835253D01*
X17738217Y32762385D01*
X17676642Y32604451D01*
X17654516Y32436388D01*
X17655104Y32431062D01*
X17655104Y32431060D01*
X17670090Y32295320D01*
X17673117Y32267898D01*
X17731372Y32108710D01*
X17770375Y32050668D01*
X17794239Y32015154D01*
X17809290Y31961788D01*
X17806942Y31905782D01*
X17808327Y31899878D01*
X17808327Y31899876D01*
X17817272Y31861737D01*
X17818799Y31853495D01*
X17824115Y31814688D01*
X17824117Y31814680D01*
X17824940Y31808674D01*
X17832221Y31791849D01*
X17837188Y31776830D01*
X17841373Y31758985D01*
X17863176Y31719326D01*
X17866855Y31711813D01*
X17884822Y31670295D01*
X17888641Y31665580D01*
X17888644Y31665574D01*
X17896356Y31656051D01*
X17905182Y31642917D01*
X17911763Y31630946D01*
X17911766Y31630942D01*
X17914012Y31626856D01*
X17922569Y31616943D01*
X17947960Y31591552D01*
X17954193Y31584629D01*
X17979711Y31553117D01*
X17996723Y31541027D01*
X18008092Y31531420D01*
X23481381Y26058131D01*
X23507109Y26002955D01*
X23507448Y25995198D01*
X23507448Y25553976D01*
X23491263Y25502801D01*
X23439277Y25428833D01*
X23439275Y25428830D01*
X23436188Y25424437D01*
X23374613Y25266503D01*
X23352487Y25098440D01*
X23353075Y25093114D01*
X23353075Y25093112D01*
X23356132Y25065426D01*
X23371088Y24929950D01*
X23429343Y24770762D01*
X23523888Y24630064D01*
X23527856Y24626454D01*
X23527858Y24626451D01*
X23611827Y24550045D01*
X23649265Y24515979D01*
X23798236Y24435095D01*
X23962201Y24392079D01*
X24044873Y24390781D01*
X24126325Y24389501D01*
X24126328Y24389501D01*
X24131693Y24389417D01*
X24136923Y24390615D01*
X24136925Y24390615D01*
X24291698Y24426063D01*
X24291699Y24426063D01*
X24296928Y24427261D01*
X24371561Y24464798D01*
X24443575Y24501016D01*
X24443577Y24501018D01*
X24448366Y24503426D01*
X24577264Y24613516D01*
X24620232Y24673312D01*
X24670524Y24707619D01*
X24731103Y24701573D01*
X24737308Y24697911D01*
X24737317Y24697927D01*
X24886288Y24617043D01*
X25050253Y24574027D01*
X25132925Y24572729D01*
X25214377Y24571449D01*
X25214380Y24571449D01*
X25219745Y24571365D01*
X25354232Y24602167D01*
X25414643Y24594642D01*
X25456085Y24550045D01*
X25463100Y24515413D01*
X25463100Y20536044D01*
X25442278Y20478836D01*
X25437033Y20473111D01*
X24294441Y19330519D01*
X24292891Y19328577D01*
X24292888Y19328574D01*
X24271435Y19301700D01*
X24210391Y19225232D01*
X24132234Y19063556D01*
X24131116Y19058711D01*
X24131114Y19058707D01*
X24092956Y18893426D01*
X24092955Y18893421D01*
X24091838Y18888581D01*
X24091679Y18843012D01*
X24091237Y18716374D01*
X24091211Y18709006D01*
X24092296Y18704154D01*
X24092296Y18704150D01*
X24109403Y18627618D01*
X24130384Y18533755D01*
X24207411Y18371537D01*
X24318464Y18230416D01*
X24322328Y18227287D01*
X24322329Y18227286D01*
X24454153Y18120535D01*
X24454156Y18120533D01*
X24458020Y18117404D01*
X24619147Y18038121D01*
X24793834Y17996504D01*
X24912143Y17995265D01*
X24968429Y17994675D01*
X24968430Y17994675D01*
X24973401Y17994623D01*
X25148922Y18032572D01*
X25153431Y18034675D01*
X25153435Y18034676D01*
X25230298Y18070518D01*
X25311674Y18108465D01*
X25422541Y18194463D01*
X26524463Y19296385D01*
X39719538Y19296385D01*
X39720126Y19291059D01*
X39720126Y19291057D01*
X39736483Y19142898D01*
X39738139Y19127895D01*
X39796394Y18968707D01*
X39890939Y18828009D01*
X39894907Y18824399D01*
X39894909Y18824396D01*
X40009792Y18719860D01*
X40016316Y18713924D01*
X40165287Y18633040D01*
X40329252Y18590024D01*
X40411924Y18588726D01*
X40493376Y18587446D01*
X40493379Y18587446D01*
X40498744Y18587362D01*
X40503974Y18588560D01*
X40503976Y18588560D01*
X40658749Y18624008D01*
X40658750Y18624008D01*
X40663979Y18625206D01*
X40772836Y18679955D01*
X40810626Y18698961D01*
X40810628Y18698963D01*
X40815417Y18701371D01*
X40944315Y18811461D01*
X41043233Y18949120D01*
X41106460Y19106400D01*
X41130344Y19274222D01*
X41130499Y19288997D01*
X41110134Y19457282D01*
X41050216Y19615852D01*
X40990034Y19703417D01*
X40957244Y19751128D01*
X40957240Y19751132D01*
X40954202Y19755553D01*
X40944054Y19764595D01*
X40831644Y19864748D01*
X40827637Y19868318D01*
X40804503Y19880567D01*
X40682571Y19945127D01*
X40682569Y19945128D01*
X40677828Y19947638D01*
X40667434Y19950249D01*
X40597502Y19967815D01*
X40513422Y19988934D01*
X40435864Y19989340D01*
X40349274Y19989793D01*
X40349273Y19989793D01*
X40343911Y19989821D01*
X40179081Y19950249D01*
X40028449Y19872502D01*
X39900710Y19761069D01*
X39882023Y19734480D01*
X39816867Y19641772D01*
X39803239Y19622382D01*
X39741664Y19464448D01*
X39719538Y19296385D01*
X26524463Y19296385D01*
X26827731Y19599653D01*
X26828394Y19600308D01*
X26884260Y19655016D01*
X26887818Y19658500D01*
X26912062Y19696120D01*
X26917307Y19703417D01*
X26942104Y19734480D01*
X26945208Y19738368D01*
X26960607Y19770221D01*
X26965922Y19779692D01*
X26982403Y19805265D01*
X26982408Y19805275D01*
X26985096Y19809446D01*
X27000397Y19851485D01*
X27003895Y19859768D01*
X27023366Y19900044D01*
X27031325Y19934517D01*
X27034411Y19944937D01*
X27044813Y19973516D01*
X27044814Y19973519D01*
X27046515Y19978193D01*
X27052121Y20022569D01*
X27053700Y20031434D01*
X27062643Y20070172D01*
X27063762Y20075018D01*
X27063899Y20114518D01*
X27063958Y20116273D01*
X27064100Y20117398D01*
X27064100Y20171978D01*
X27064388Y20254594D01*
X27064175Y20255549D01*
X27064100Y20256925D01*
X27064100Y25344982D01*
X28124167Y25344982D01*
X28161486Y25101104D01*
X28238135Y24866595D01*
X28352056Y24647755D01*
X28372846Y24620065D01*
X28497997Y24453379D01*
X28498001Y24453375D01*
X28500190Y24450459D01*
X28502828Y24447938D01*
X28517692Y24433734D01*
X28678558Y24280007D01*
X28882371Y24140975D01*
X29106154Y24037099D01*
X29109671Y24036124D01*
X29109670Y24036124D01*
X29340380Y23972142D01*
X29340384Y23972141D01*
X29343897Y23971167D01*
X29347522Y23970780D01*
X29347525Y23970779D01*
X29544276Y23949752D01*
X29546634Y23949500D01*
X29686815Y23949500D01*
X29871887Y23964716D01*
X30111171Y24024820D01*
X30114515Y24026274D01*
X30114518Y24026275D01*
X30240296Y24080965D01*
X30337425Y24123198D01*
X30340487Y24125179D01*
X30340491Y24125181D01*
X30541499Y24255219D01*
X30544574Y24257208D01*
X30727053Y24423251D01*
X30793122Y24506909D01*
X30877701Y24614004D01*
X30877704Y24614009D01*
X30879963Y24616869D01*
X30999197Y24832861D01*
X31081553Y25065426D01*
X31088381Y25103755D01*
X31117370Y25266503D01*
X31124819Y25308320D01*
X31127833Y25555018D01*
X31090514Y25798896D01*
X31033143Y25974423D01*
X31014999Y26029936D01*
X31014998Y26029938D01*
X31013865Y26033405D01*
X30943077Y26169388D01*
X37902539Y26169388D01*
X37903127Y26164062D01*
X37903127Y26164060D01*
X37914822Y26058131D01*
X37921140Y26000898D01*
X37979395Y25841710D01*
X38073940Y25701012D01*
X38077908Y25697402D01*
X38077910Y25697399D01*
X38195346Y25590540D01*
X38199317Y25586927D01*
X38348288Y25506043D01*
X38512253Y25463027D01*
X38594925Y25461729D01*
X38676377Y25460449D01*
X38676380Y25460449D01*
X38681745Y25460365D01*
X38686975Y25461563D01*
X38686977Y25461563D01*
X38841750Y25497011D01*
X38841751Y25497011D01*
X38846980Y25498209D01*
X38921613Y25535746D01*
X38993627Y25571964D01*
X38993629Y25571966D01*
X38998418Y25574374D01*
X39127316Y25684464D01*
X39226234Y25822123D01*
X39289461Y25979403D01*
X39313345Y26147225D01*
X39313500Y26162000D01*
X39293135Y26330285D01*
X39233217Y26488855D01*
X39193874Y26546100D01*
X39140245Y26624131D01*
X39140241Y26624135D01*
X39137203Y26628556D01*
X39127055Y26637598D01*
X39014645Y26737751D01*
X39010638Y26741321D01*
X38993034Y26750642D01*
X38865572Y26818130D01*
X38865570Y26818131D01*
X38860829Y26820641D01*
X38850435Y26823252D01*
X38701622Y26860631D01*
X38701623Y26860631D01*
X38696423Y26861937D01*
X38618865Y26862343D01*
X38532275Y26862796D01*
X38532274Y26862796D01*
X38526912Y26862824D01*
X38362082Y26823252D01*
X38211450Y26745505D01*
X38083711Y26634072D01*
X37986240Y26495385D01*
X37924665Y26337451D01*
X37902539Y26169388D01*
X30943077Y26169388D01*
X30899944Y26252245D01*
X30841350Y26330285D01*
X30754003Y26446621D01*
X30753999Y26446625D01*
X30751810Y26449541D01*
X30573442Y26619993D01*
X30369629Y26759025D01*
X30145846Y26862901D01*
X30098367Y26876068D01*
X29911620Y26927858D01*
X29911616Y26927859D01*
X29908103Y26928833D01*
X29904478Y26929220D01*
X29904475Y26929221D01*
X29707724Y26950248D01*
X29705366Y26950500D01*
X29565185Y26950500D01*
X29380113Y26935284D01*
X29140829Y26875180D01*
X29137485Y26873726D01*
X29137482Y26873725D01*
X29066599Y26842904D01*
X28914575Y26776802D01*
X28911513Y26774821D01*
X28911509Y26774819D01*
X28860743Y26741977D01*
X28707426Y26642792D01*
X28524947Y26476749D01*
X28501153Y26446621D01*
X28374299Y26285996D01*
X28374296Y26285991D01*
X28372037Y26283131D01*
X28252803Y26067139D01*
X28170447Y25834574D01*
X28169807Y25830980D01*
X28169806Y25830977D01*
X28168229Y25822123D01*
X28127181Y25591680D01*
X28127136Y25588034D01*
X28127136Y25588029D01*
X28126940Y25571964D01*
X28124167Y25344982D01*
X27064100Y25344982D01*
X27064100Y29471388D01*
X36632539Y29471388D01*
X36633127Y29466062D01*
X36633127Y29466060D01*
X36648883Y29323345D01*
X36651140Y29302898D01*
X36709395Y29143710D01*
X36803940Y29003012D01*
X36807908Y28999402D01*
X36807910Y28999399D01*
X36916705Y28900403D01*
X36929317Y28888927D01*
X37078288Y28808043D01*
X37242253Y28765027D01*
X37324925Y28763729D01*
X37406377Y28762449D01*
X37406380Y28762449D01*
X37411745Y28762365D01*
X37416975Y28763563D01*
X37416977Y28763563D01*
X37571750Y28799011D01*
X37571751Y28799011D01*
X37576980Y28800209D01*
X37651613Y28837746D01*
X37723627Y28873964D01*
X37723629Y28873966D01*
X37728418Y28876374D01*
X37857316Y28986464D01*
X37956234Y29124123D01*
X38019461Y29281403D01*
X38043345Y29449225D01*
X38043500Y29464000D01*
X38023135Y29632285D01*
X37963217Y29790855D01*
X37887623Y29900845D01*
X37870245Y29926131D01*
X37870241Y29926135D01*
X37867203Y29930556D01*
X37857055Y29939598D01*
X37744645Y30039751D01*
X37740638Y30043321D01*
X37728090Y30049965D01*
X37595572Y30120130D01*
X37595570Y30120131D01*
X37590829Y30122641D01*
X37580435Y30125252D01*
X37489329Y30148136D01*
X37426423Y30163937D01*
X37348865Y30164343D01*
X37262275Y30164796D01*
X37262274Y30164796D01*
X37256912Y30164824D01*
X37092082Y30125252D01*
X36941450Y30047505D01*
X36813711Y29936072D01*
X36716240Y29797385D01*
X36654665Y29639451D01*
X36632539Y29471388D01*
X27064100Y29471388D01*
X27064100Y33020409D01*
X27600264Y33020409D01*
X27600852Y33015083D01*
X27600852Y33015081D01*
X27617724Y32862258D01*
X27618865Y32851919D01*
X27677120Y32692731D01*
X27771665Y32552033D01*
X27775633Y32548423D01*
X27775635Y32548420D01*
X27891135Y32443323D01*
X27897042Y32437948D01*
X28046013Y32357064D01*
X28209978Y32314048D01*
X28292650Y32312750D01*
X28374102Y32311470D01*
X28374105Y32311470D01*
X28379470Y32311386D01*
X28384700Y32312584D01*
X28384702Y32312584D01*
X28539475Y32348032D01*
X28539476Y32348032D01*
X28544705Y32349230D01*
X28626137Y32390186D01*
X28691352Y32422985D01*
X28691354Y32422987D01*
X28696143Y32425395D01*
X28825041Y32535485D01*
X28923959Y32673144D01*
X28987186Y32830424D01*
X28989885Y32849389D01*
X35794538Y32849389D01*
X35795126Y32844063D01*
X35795126Y32844061D01*
X35812325Y32688274D01*
X35813139Y32680899D01*
X35871394Y32521711D01*
X35965939Y32381013D01*
X35969907Y32377403D01*
X35969909Y32377400D01*
X36084390Y32273230D01*
X36091316Y32266928D01*
X36240287Y32186044D01*
X36404252Y32143028D01*
X36486924Y32141730D01*
X36568376Y32140450D01*
X36568379Y32140450D01*
X36573744Y32140366D01*
X36578974Y32141564D01*
X36578976Y32141564D01*
X36733749Y32177012D01*
X36733750Y32177012D01*
X36738979Y32178210D01*
X36845977Y32232024D01*
X36885626Y32251965D01*
X36885628Y32251967D01*
X36890417Y32254375D01*
X37019315Y32364465D01*
X37118233Y32502124D01*
X37181460Y32659404D01*
X37205344Y32827226D01*
X37205499Y32842001D01*
X37185134Y33010286D01*
X37125216Y33168856D01*
X37074791Y33242225D01*
X37032244Y33304132D01*
X37032240Y33304136D01*
X37029202Y33308557D01*
X37019054Y33317599D01*
X36906644Y33417752D01*
X36902637Y33421322D01*
X36890089Y33427966D01*
X36757571Y33498131D01*
X36757569Y33498132D01*
X36752828Y33500642D01*
X36743238Y33503051D01*
X36593621Y33540632D01*
X36593622Y33540632D01*
X36588422Y33541938D01*
X36510864Y33542344D01*
X36424274Y33542797D01*
X36424273Y33542797D01*
X36418911Y33542825D01*
X36254081Y33503253D01*
X36103449Y33425506D01*
X35975710Y33314073D01*
X35965049Y33298904D01*
X35882019Y33180764D01*
X35878239Y33175386D01*
X35816664Y33017452D01*
X35794538Y32849389D01*
X28989885Y32849389D01*
X29011070Y32998246D01*
X29011225Y33013021D01*
X28990860Y33181306D01*
X28930942Y33339876D01*
X28872090Y33425506D01*
X28837970Y33475152D01*
X28837966Y33475156D01*
X28834928Y33479577D01*
X28827284Y33486388D01*
X28712370Y33588772D01*
X28708363Y33592342D01*
X28641612Y33627685D01*
X28563297Y33669151D01*
X28563295Y33669152D01*
X28558554Y33671662D01*
X28548160Y33674273D01*
X28399347Y33711652D01*
X28399348Y33711652D01*
X28394148Y33712958D01*
X28316590Y33713364D01*
X28230000Y33713817D01*
X28229999Y33713817D01*
X28224637Y33713845D01*
X28059807Y33674273D01*
X27909175Y33596526D01*
X27781436Y33485093D01*
X27683965Y33346406D01*
X27622390Y33188472D01*
X27600264Y33020409D01*
X27064100Y33020409D01*
X27064100Y33677623D01*
X27064105Y33678555D01*
X27064925Y33756828D01*
X27064925Y33756829D01*
X27064977Y33761800D01*
X27055523Y33805526D01*
X27054068Y33814413D01*
X27049638Y33853912D01*
X27049637Y33853915D01*
X27049083Y33858857D01*
X27047448Y33863552D01*
X27047446Y33863561D01*
X27037447Y33892272D01*
X27034506Y33902735D01*
X27031545Y33916432D01*
X27027028Y33937321D01*
X27008121Y33977867D01*
X27004738Y33986201D01*
X26991665Y34023741D01*
X26991662Y34023748D01*
X26990026Y34028445D01*
X26987390Y34032663D01*
X26987388Y34032668D01*
X26971277Y34058452D01*
X26966093Y34067999D01*
X26953237Y34095568D01*
X26953236Y34095570D01*
X26951136Y34100073D01*
X26923715Y34135424D01*
X26918574Y34142793D01*
X26894865Y34180735D01*
X26891357Y34184268D01*
X26867031Y34208765D01*
X26865825Y34210054D01*
X26865137Y34210940D01*
X26826738Y34249339D01*
X26768329Y34308157D01*
X26767502Y34308681D01*
X26766463Y34309614D01*
X25464567Y35611511D01*
X25438839Y35666686D01*
X25438500Y35674443D01*
X25438500Y42970576D01*
X25438223Y42973041D01*
X25438223Y42973050D01*
X25424038Y43099509D01*
X25423483Y43104457D01*
X25364426Y43274045D01*
X25269265Y43426335D01*
X25142729Y43553757D01*
X24991108Y43649979D01*
X24984784Y43652231D01*
X24826623Y43708550D01*
X24826618Y43708551D01*
X24821937Y43710218D01*
X24817001Y43710807D01*
X24816999Y43710807D01*
X24648566Y43730891D01*
X24648562Y43730891D01*
X24643623Y43731480D01*
X24547039Y43721329D01*
X24469985Y43713231D01*
X24469982Y43713230D01*
X24465031Y43712710D01*
X24460322Y43711107D01*
X24460318Y43711106D01*
X24360267Y43677045D01*
X24295035Y43654838D01*
X24252631Y43628751D01*
X24146325Y43563352D01*
X24146322Y43563349D01*
X24142085Y43560743D01*
X24013782Y43435100D01*
X24011086Y43430917D01*
X24011083Y43430913D01*
X23925335Y43297857D01*
X23916504Y43284154D01*
X23855085Y43115407D01*
X23854462Y43110473D01*
X23838729Y42985927D01*
X23837500Y42976202D01*
X23837500Y35308776D01*
X23837495Y35307844D01*
X23836623Y35224599D01*
X23837674Y35219740D01*
X23846077Y35180873D01*
X23847532Y35171989D01*
X23852517Y35127543D01*
X23864155Y35094124D01*
X23867092Y35083674D01*
X23874572Y35049078D01*
X23890434Y35015061D01*
X23893478Y35008534D01*
X23896865Y35000194D01*
X23911574Y34957955D01*
X23914211Y34953735D01*
X23930322Y34927952D01*
X23935506Y34918404D01*
X23948359Y34890841D01*
X23948362Y34890837D01*
X23950465Y34886326D01*
X23953514Y34882395D01*
X23953516Y34882392D01*
X23977882Y34850981D01*
X23983026Y34843607D01*
X24006735Y34805665D01*
X24034583Y34777622D01*
X24035768Y34776356D01*
X24036463Y34775459D01*
X24074926Y34736996D01*
X24075145Y34736776D01*
X24131297Y34680230D01*
X24131304Y34680223D01*
X24133271Y34678243D01*
X24134097Y34677719D01*
X24135129Y34676793D01*
X25437033Y33374889D01*
X25462761Y33319713D01*
X25463100Y33311956D01*
X25463100Y26838290D01*
X25442278Y26781082D01*
X25389555Y26750642D01*
X25329600Y26761214D01*
X25311168Y26775357D01*
X20329136Y31757388D01*
X23043539Y31757388D01*
X23044127Y31752062D01*
X23044127Y31752060D01*
X23058908Y31618178D01*
X23062140Y31588898D01*
X23120395Y31429710D01*
X23214940Y31289012D01*
X23218908Y31285402D01*
X23218910Y31285399D01*
X23336346Y31178540D01*
X23340317Y31174927D01*
X23489288Y31094043D01*
X23653253Y31051027D01*
X23735925Y31049729D01*
X23817377Y31048449D01*
X23817380Y31048449D01*
X23822745Y31048365D01*
X23827975Y31049563D01*
X23827977Y31049563D01*
X23982750Y31085011D01*
X23982751Y31085011D01*
X23987980Y31086209D01*
X24062613Y31123746D01*
X24134627Y31159964D01*
X24134629Y31159966D01*
X24139418Y31162374D01*
X24268316Y31272464D01*
X24367234Y31410123D01*
X24430461Y31567403D01*
X24436967Y31613116D01*
X24465642Y31666819D01*
X24526477Y31689564D01*
X24546278Y31689253D01*
X24585600Y31688635D01*
X24585603Y31688635D01*
X24590968Y31688551D01*
X24596198Y31689749D01*
X24596200Y31689749D01*
X24750973Y31725197D01*
X24750974Y31725197D01*
X24756203Y31726395D01*
X24832744Y31764891D01*
X24902850Y31800150D01*
X24902852Y31800152D01*
X24907641Y31802560D01*
X25036539Y31912650D01*
X25135457Y32050309D01*
X25198684Y32207589D01*
X25222568Y32375411D01*
X25222723Y32390186D01*
X25202358Y32558471D01*
X25142440Y32717041D01*
X25075021Y32815136D01*
X25049468Y32852317D01*
X25049464Y32852321D01*
X25046426Y32856742D01*
X25036278Y32865784D01*
X24923868Y32965937D01*
X24919861Y32969507D01*
X24903307Y32978272D01*
X24774795Y33046316D01*
X24774793Y33046317D01*
X24770052Y33048827D01*
X24759658Y33051438D01*
X24689726Y33069004D01*
X24605646Y33090123D01*
X24528088Y33090529D01*
X24441498Y33090982D01*
X24441497Y33090982D01*
X24436135Y33091010D01*
X24271305Y33051438D01*
X24120673Y32973691D01*
X23992934Y32862258D01*
X23895463Y32723571D01*
X23833888Y32565637D01*
X23833188Y32560320D01*
X23833186Y32560312D01*
X23828909Y32527827D01*
X23800798Y32473827D01*
X23740206Y32450446D01*
X23673275Y32450796D01*
X23673274Y32450796D01*
X23667912Y32450824D01*
X23503082Y32411252D01*
X23352450Y32333505D01*
X23224711Y32222072D01*
X23175975Y32152728D01*
X23142365Y32104905D01*
X23127240Y32083385D01*
X23065665Y31925451D01*
X23043539Y31757388D01*
X20329136Y31757388D01*
X19880568Y32205956D01*
X19854839Y32261132D01*
X19854500Y32268889D01*
X19854500Y32882952D01*
X19854578Y32886679D01*
X19856780Y32939217D01*
X19857034Y32945277D01*
X19853128Y32961933D01*
X19846706Y32989315D01*
X19845179Y32997557D01*
X19839862Y33036369D01*
X19839860Y33036375D01*
X19839037Y33042385D01*
X19831756Y33059210D01*
X19826791Y33074227D01*
X19823992Y33086160D01*
X19823990Y33086166D01*
X19822604Y33092074D01*
X19800801Y33131733D01*
X19797121Y33139247D01*
X19781567Y33175190D01*
X19779155Y33180764D01*
X19775336Y33185479D01*
X19775333Y33185485D01*
X19767621Y33195008D01*
X19758795Y33208142D01*
X19752214Y33220113D01*
X19752211Y33220117D01*
X19749965Y33224203D01*
X19741408Y33234116D01*
X19716017Y33259507D01*
X19709784Y33266430D01*
X19688084Y33293227D01*
X19684266Y33297942D01*
X19667254Y33310032D01*
X19655885Y33319639D01*
X19114372Y33861152D01*
X19111792Y33863843D01*
X19076193Y33902557D01*
X19072089Y33907020D01*
X19033637Y33930861D01*
X19026726Y33935611D01*
X18995530Y33959291D01*
X18995527Y33959292D01*
X18990697Y33962959D01*
X18973657Y33969706D01*
X18959523Y33976814D01*
X18957841Y33977857D01*
X18943942Y33986475D01*
X18900488Y33999100D01*
X18892557Y34001816D01*
X18883366Y34005455D01*
X18850505Y34018465D01*
X18836622Y34019924D01*
X18832278Y34020381D01*
X18816768Y34023422D01*
X18813882Y34024261D01*
X18779499Y34043278D01*
X18766622Y34054751D01*
X18762615Y34058321D01*
X18754713Y34062505D01*
X18617549Y34135130D01*
X18617547Y34135131D01*
X18612806Y34137641D01*
X18607484Y34138978D01*
X18453599Y34177631D01*
X18453600Y34177631D01*
X18448400Y34178937D01*
X18370842Y34179343D01*
X18284252Y34179796D01*
X18284251Y34179796D01*
X18278889Y34179824D01*
X18114059Y34140252D01*
X17963427Y34062505D01*
X17835688Y33951072D01*
X17804728Y33907020D01*
X17772261Y33860824D01*
X17738217Y33812385D01*
X17676642Y33654451D01*
X17654516Y33486388D01*
X16044500Y33486388D01*
X16044500Y39245099D01*
X16065322Y39302307D01*
X16070567Y39308032D01*
X16823719Y40061184D01*
X16866782Y40085004D01*
X16957774Y40105844D01*
X16997750Y40115000D01*
X16997751Y40115000D01*
X17002980Y40116198D01*
X17120160Y40175133D01*
X17149627Y40189953D01*
X17149629Y40189955D01*
X17154418Y40192363D01*
X17283316Y40302453D01*
X17382234Y40440112D01*
X17445461Y40597392D01*
X17469345Y40765214D01*
X17469500Y40779989D01*
X17449135Y40948274D01*
X17447239Y40953291D01*
X17447237Y40953300D01*
X17445071Y40959032D01*
X17444329Y41019907D01*
X17482890Y41067017D01*
X17528326Y41079489D01*
X18019202Y41079489D01*
X18076410Y41058667D01*
X18107664Y41000258D01*
X18108550Y40992237D01*
X18108551Y40992232D01*
X18109140Y40986898D01*
X18167395Y40827710D01*
X18261940Y40687012D01*
X18265908Y40683402D01*
X18265910Y40683399D01*
X18383346Y40576540D01*
X18387317Y40572927D01*
X18536288Y40492043D01*
X18700253Y40449027D01*
X18782925Y40447729D01*
X18864377Y40446449D01*
X18864380Y40446449D01*
X18869745Y40446365D01*
X18874975Y40447563D01*
X18874977Y40447563D01*
X19029750Y40483011D01*
X19029751Y40483011D01*
X19034980Y40484209D01*
X19123004Y40528480D01*
X19181627Y40557964D01*
X19181629Y40557966D01*
X19186418Y40560374D01*
X19315316Y40670464D01*
X19414234Y40808123D01*
X19477461Y40965403D01*
X19501345Y41133225D01*
X19501500Y41148000D01*
X19481135Y41316285D01*
X19421217Y41474855D01*
X19355630Y41570285D01*
X19328245Y41610131D01*
X19328241Y41610135D01*
X19325203Y41614556D01*
X19314550Y41624048D01*
X19285686Y41677650D01*
X19298031Y41737265D01*
X19345807Y41774997D01*
X19373754Y41779499D01*
X19889112Y41779499D01*
X19946320Y41758677D01*
X19952045Y41753431D01*
X20364423Y41341052D01*
X20389953Y41287886D01*
X20395140Y41240898D01*
X20453395Y41081710D01*
X20547940Y40941012D01*
X20551908Y40937402D01*
X20551910Y40937399D01*
X20669346Y40830540D01*
X20673317Y40826927D01*
X20822288Y40746043D01*
X20986253Y40703027D01*
X21068925Y40701729D01*
X21150377Y40700449D01*
X21150380Y40700449D01*
X21155745Y40700365D01*
X21160975Y40701563D01*
X21160977Y40701563D01*
X21315750Y40737011D01*
X21315751Y40737011D01*
X21320980Y40738209D01*
X21409799Y40782880D01*
X21467627Y40811964D01*
X21467629Y40811966D01*
X21472418Y40814374D01*
X21601316Y40924464D01*
X21700234Y41062123D01*
X21763461Y41219403D01*
X21787345Y41387225D01*
X21787500Y41402000D01*
X21767135Y41570285D01*
X21707217Y41728855D01*
X21655911Y41803506D01*
X21614245Y41864131D01*
X21614241Y41864135D01*
X21611203Y41868556D01*
X21595570Y41882485D01*
X21488645Y41977751D01*
X21484638Y41981321D01*
X21479896Y41983832D01*
X21339572Y42058130D01*
X21339570Y42058131D01*
X21334829Y42060641D01*
X21329626Y42061948D01*
X21181145Y42099244D01*
X21139895Y42122630D01*
X20550386Y42712138D01*
X20547805Y42714829D01*
X20512194Y42753556D01*
X20508090Y42758019D01*
X20469638Y42781860D01*
X20462727Y42786610D01*
X20431531Y42810290D01*
X20431528Y42810291D01*
X20426698Y42813958D01*
X20409658Y42820705D01*
X20395524Y42827813D01*
X20379943Y42837474D01*
X20341638Y42848603D01*
X20336489Y42850099D01*
X20328558Y42852815D01*
X20312014Y42859365D01*
X20286506Y42869464D01*
X20272623Y42870923D01*
X20268279Y42871380D01*
X20252760Y42874424D01*
X20250453Y42875094D01*
X20242196Y42877493D01*
X20193067Y42913444D01*
X20178541Y42972565D01*
X20194744Y43014893D01*
X20273234Y43124123D01*
X20336461Y43281403D01*
X20360345Y43449225D01*
X20360500Y43464000D01*
X20340135Y43632285D01*
X20280217Y43790855D01*
X20239039Y43850769D01*
X20187245Y43926131D01*
X20187241Y43926135D01*
X20184203Y43930556D01*
X20122649Y43985399D01*
X20061645Y44039751D01*
X20057638Y44043321D01*
X20014890Y44065955D01*
X19912572Y44120130D01*
X19912570Y44120131D01*
X19907829Y44122641D01*
X19902626Y44123948D01*
X19754145Y44161244D01*
X19712895Y44184630D01*
X19065385Y44832139D01*
X19062804Y44834830D01*
X19027193Y44873557D01*
X19023089Y44878020D01*
X18984637Y44901861D01*
X18977726Y44906611D01*
X18946530Y44930291D01*
X18946527Y44930292D01*
X18941697Y44933959D01*
X18924657Y44940706D01*
X18910523Y44947814D01*
X18894942Y44957475D01*
X18851488Y44970100D01*
X18843557Y44972816D01*
X18834366Y44976455D01*
X18801505Y44989465D01*
X18787622Y44990924D01*
X18783278Y44991381D01*
X18767755Y44994426D01*
X18754624Y44998241D01*
X18754623Y44998241D01*
X18750149Y44999541D01*
X18737089Y45000500D01*
X18701175Y45000500D01*
X18691872Y45000988D01*
X18657586Y45004592D01*
X18657584Y45004592D01*
X18651551Y45005226D01*
X18645574Y45004215D01*
X18645571Y45004215D01*
X18630977Y45001746D01*
X18616134Y45000500D01*
X12152883Y45000500D01*
X12093680Y45023047D01*
X12090645Y45025751D01*
X12090644Y45025751D01*
X12086638Y45029321D01*
X12074090Y45035965D01*
X11941572Y45106130D01*
X11941570Y45106131D01*
X11936829Y45108641D01*
X11926435Y45111252D01*
X11777622Y45148631D01*
X11777623Y45148631D01*
X11772423Y45149937D01*
X11694865Y45150343D01*
X11608275Y45150796D01*
X11608274Y45150796D01*
X11602912Y45150824D01*
X11438082Y45111252D01*
X11287450Y45033505D01*
X11159711Y44922072D01*
X11062240Y44783385D01*
X11000665Y44625451D01*
X10978539Y44457388D01*
X10979127Y44452062D01*
X10979127Y44452060D01*
X10990609Y44348059D01*
X10997140Y44288898D01*
X11055395Y44129710D01*
X11149940Y43989012D01*
X11153908Y43985402D01*
X11153910Y43985399D01*
X11271346Y43878540D01*
X11275317Y43874927D01*
X11424288Y43794043D01*
X11588253Y43751027D01*
X11670925Y43749729D01*
X11752377Y43748449D01*
X11752380Y43748449D01*
X11757745Y43748365D01*
X11762975Y43749563D01*
X11762977Y43749563D01*
X11917750Y43785011D01*
X11917751Y43785011D01*
X11922980Y43786209D01*
X12027230Y43838641D01*
X12069627Y43859964D01*
X12069629Y43859966D01*
X12074418Y43862374D01*
X12078500Y43865860D01*
X12092921Y43878176D01*
X12150721Y43899500D01*
X12856935Y43899500D01*
X12914143Y43878678D01*
X12944583Y43825955D01*
X12934011Y43766000D01*
X12915441Y43743433D01*
X12810711Y43652072D01*
X12783383Y43613188D01*
X12716325Y43517774D01*
X12713240Y43513385D01*
X12651665Y43355451D01*
X12629539Y43187388D01*
X12630127Y43182062D01*
X12630127Y43182060D01*
X12645749Y43040559D01*
X12648140Y43018898D01*
X12706395Y42859710D01*
X12800940Y42719012D01*
X12804908Y42715402D01*
X12804910Y42715399D01*
X12922346Y42608540D01*
X12926317Y42604927D01*
X13075288Y42524043D01*
X13239253Y42481027D01*
X13321925Y42479729D01*
X13403377Y42478449D01*
X13403380Y42478449D01*
X13408745Y42478365D01*
X13413975Y42479563D01*
X13413977Y42479563D01*
X13568750Y42515011D01*
X13568751Y42515011D01*
X13573980Y42516209D01*
X13717515Y42588399D01*
X13720627Y42589964D01*
X13720629Y42589966D01*
X13725418Y42592374D01*
X13854316Y42702464D01*
X13953234Y42840123D01*
X13955236Y42845103D01*
X13955943Y42846389D01*
X14001751Y42886488D01*
X14062617Y42887761D01*
X14107804Y42853149D01*
X14197940Y42719012D01*
X14201908Y42715402D01*
X14201910Y42715399D01*
X14319346Y42608540D01*
X14323317Y42604927D01*
X14472288Y42524043D01*
X14636253Y42481027D01*
X14718925Y42479729D01*
X14800377Y42478449D01*
X14800380Y42478449D01*
X14805745Y42478365D01*
X14810975Y42479563D01*
X14810977Y42479563D01*
X14844194Y42487171D01*
X14904606Y42479646D01*
X14946048Y42435049D01*
X14949129Y42374247D01*
X14926996Y42337485D01*
X13486862Y40897350D01*
X13484171Y40894769D01*
X13459743Y40872306D01*
X13440981Y40855054D01*
X13427154Y40832753D01*
X13417140Y40816602D01*
X13412390Y40809691D01*
X13388710Y40778495D01*
X13388709Y40778492D01*
X13385042Y40773662D01*
X13378295Y40756622D01*
X13371188Y40742490D01*
X13361526Y40726907D01*
X13357497Y40713041D01*
X13348901Y40683453D01*
X13346185Y40675522D01*
X13344183Y40670464D01*
X13329536Y40633470D01*
X13328902Y40627434D01*
X13327620Y40615243D01*
X13324575Y40599720D01*
X13319460Y40582114D01*
X13318501Y40569054D01*
X13318501Y40533140D01*
X13318013Y40523837D01*
X13313775Y40483516D01*
X13314786Y40477539D01*
X13314786Y40477536D01*
X13317255Y40462942D01*
X13318501Y40448099D01*
X13318501Y38364854D01*
X13297679Y38307646D01*
X13244956Y38277206D01*
X13185001Y38287778D01*
X13151511Y38321976D01*
X13136806Y38348725D01*
X13133121Y38356247D01*
X13117567Y38392190D01*
X13115155Y38397764D01*
X13111336Y38402479D01*
X13111333Y38402485D01*
X13103621Y38412008D01*
X13094795Y38425142D01*
X13088214Y38437113D01*
X13088211Y38437117D01*
X13085965Y38441203D01*
X13077408Y38451116D01*
X13052017Y38476507D01*
X13045784Y38483430D01*
X13024084Y38510227D01*
X13020266Y38514942D01*
X13003254Y38527032D01*
X12991885Y38536639D01*
X11706720Y39821804D01*
X11680992Y39876980D01*
X11696748Y39935785D01*
X11749783Y39971490D01*
X11811410Y39985605D01*
X11829750Y39989805D01*
X11829751Y39989805D01*
X11834980Y39991003D01*
X11921968Y40034753D01*
X11981627Y40064758D01*
X11981629Y40064760D01*
X11986418Y40067168D01*
X12115316Y40177258D01*
X12214234Y40314917D01*
X12277461Y40472197D01*
X12301345Y40640019D01*
X12301500Y40654794D01*
X12281135Y40823079D01*
X12221217Y40981649D01*
X12181874Y41038894D01*
X12128245Y41116925D01*
X12128241Y41116929D01*
X12125203Y41121350D01*
X12115055Y41130392D01*
X12002645Y41230545D01*
X11998638Y41234115D01*
X11986090Y41240759D01*
X11853572Y41310924D01*
X11853570Y41310925D01*
X11848829Y41313435D01*
X11838435Y41316046D01*
X11689622Y41353425D01*
X11689623Y41353425D01*
X11684423Y41354731D01*
X11606865Y41355137D01*
X11520275Y41355590D01*
X11520274Y41355590D01*
X11514912Y41355618D01*
X11350082Y41316046D01*
X11199450Y41238299D01*
X11071711Y41126866D01*
X11043519Y41086753D01*
X10989540Y41009948D01*
X10974240Y40988179D01*
X10972293Y40983185D01*
X10959483Y40950329D01*
X10919302Y40904592D01*
X10859123Y40895383D01*
X10817357Y40916207D01*
X10806645Y40925751D01*
X10802638Y40929321D01*
X10790090Y40935965D01*
X10657572Y41006130D01*
X10657570Y41006131D01*
X10652829Y41008641D01*
X10642435Y41011252D01*
X10493622Y41048631D01*
X10493623Y41048631D01*
X10488423Y41049937D01*
X10410865Y41050343D01*
X10324275Y41050796D01*
X10324274Y41050796D01*
X10318912Y41050824D01*
X10154082Y41011252D01*
X10003450Y40933505D01*
X9875711Y40822072D01*
X9833717Y40762321D01*
X9791986Y40702943D01*
X9778240Y40683385D01*
X9716665Y40525451D01*
X9694539Y40357388D01*
X9695127Y40352062D01*
X9695127Y40352060D01*
X9706110Y40252579D01*
X9713140Y40188898D01*
X9771395Y40029710D01*
X9865940Y39889012D01*
X9869908Y39885402D01*
X9869910Y39885399D01*
X9966660Y39797363D01*
X9991317Y39774927D01*
X10140288Y39694043D01*
X10302900Y39651382D01*
X10343248Y39628228D01*
X12051953Y37919523D01*
X12077681Y37864347D01*
X12061836Y37805417D01*
X12018240Y37743385D01*
X11956665Y37585451D01*
X11934539Y37417388D01*
X11935127Y37412062D01*
X11935127Y37412060D01*
X11940055Y37367427D01*
X11953140Y37248898D01*
X12011395Y37089710D01*
X12105940Y36949012D01*
X12109908Y36945402D01*
X12109910Y36945399D01*
X12183699Y36878256D01*
X12231317Y36834927D01*
X12380288Y36754043D01*
X12544253Y36711027D01*
X12626925Y36709729D01*
X12708377Y36708449D01*
X12708380Y36708449D01*
X12713745Y36708365D01*
X12718975Y36709563D01*
X12718977Y36709563D01*
X12873750Y36745011D01*
X12873751Y36745011D01*
X12878980Y36746209D01*
X12997554Y36805845D01*
X13025627Y36819964D01*
X13025629Y36819966D01*
X13030418Y36822374D01*
X13159316Y36932464D01*
X13162450Y36936826D01*
X13163987Y36938497D01*
X13218037Y36966515D01*
X13277450Y36953235D01*
X13314428Y36904872D01*
X13318501Y36878256D01*
X13318501Y35172889D01*
X13297679Y35115681D01*
X13244956Y35085241D01*
X13185001Y35095813D01*
X13166568Y35109956D01*
X10115176Y38161348D01*
X10089754Y38213589D01*
X10083780Y38262955D01*
X10083135Y38268285D01*
X10023217Y38426855D01*
X9965917Y38510227D01*
X9930245Y38562131D01*
X9930241Y38562135D01*
X9927203Y38566556D01*
X9917055Y38575598D01*
X9804645Y38675751D01*
X9800638Y38679321D01*
X9788090Y38685965D01*
X9655572Y38756130D01*
X9655570Y38756131D01*
X9650829Y38758641D01*
X9640435Y38761252D01*
X9491622Y38798631D01*
X9491623Y38798631D01*
X9486423Y38799937D01*
X9408865Y38800343D01*
X9322275Y38800796D01*
X9322274Y38800796D01*
X9316912Y38800824D01*
X9152082Y38761252D01*
X9001450Y38683505D01*
X8873711Y38572072D01*
X8848808Y38536639D01*
X8781735Y38441203D01*
X8776240Y38433385D01*
X8714665Y38275451D01*
X8692539Y38107388D01*
X8693127Y38102062D01*
X8693127Y38102060D01*
X8708348Y37964191D01*
X8711140Y37938898D01*
X8769395Y37779710D01*
X8863940Y37639012D01*
X8867908Y37635402D01*
X8867910Y37635399D01*
X8985346Y37528540D01*
X8989317Y37524927D01*
X9138288Y37444043D01*
X9300900Y37401382D01*
X9341248Y37378228D01*
X12442433Y34277043D01*
X12468161Y34221867D01*
X12468500Y34214110D01*
X12468500Y33786500D01*
X12447678Y33729292D01*
X12394955Y33698852D01*
X12379500Y33697500D01*
X9360473Y33697500D01*
X9301267Y33720050D01*
X9283645Y33735751D01*
X9279638Y33739321D01*
X9267090Y33745965D01*
X9134572Y33816130D01*
X9134570Y33816131D01*
X9129829Y33818641D01*
X9119435Y33821252D01*
X8970622Y33858631D01*
X8970623Y33858631D01*
X8965423Y33859937D01*
X8887865Y33860343D01*
X8801275Y33860796D01*
X8801274Y33860796D01*
X8795912Y33860824D01*
X8631082Y33821252D01*
X8480450Y33743505D01*
X8352711Y33632072D01*
X8349628Y33627685D01*
X8258576Y33498131D01*
X8255240Y33493385D01*
X8193665Y33335451D01*
X8171539Y33167388D01*
X8172127Y33162062D01*
X8172127Y33162060D01*
X8188883Y33010286D01*
X8190140Y32998898D01*
X8248395Y32839710D01*
X8342940Y32699012D01*
X8346908Y32695402D01*
X8346910Y32695399D01*
X8461668Y32590977D01*
X8468317Y32584927D01*
X8617288Y32504043D01*
X8781253Y32461027D01*
X8863925Y32459729D01*
X8945377Y32458449D01*
X8945380Y32458449D01*
X8950745Y32458365D01*
X8955975Y32459563D01*
X8955977Y32459563D01*
X9110750Y32495011D01*
X9110751Y32495011D01*
X9115980Y32496209D01*
X9219791Y32548420D01*
X9262627Y32569964D01*
X9262629Y32569966D01*
X9267418Y32572374D01*
X9271495Y32575856D01*
X9275968Y32578828D01*
X9276879Y32577457D01*
X9328500Y32596500D01*
X12548879Y32596500D01*
X12600477Y32576542D01*
X12601973Y32578647D01*
X12606351Y32575536D01*
X12610317Y32571927D01*
X12759288Y32491043D01*
X12923253Y32448027D01*
X13005925Y32446729D01*
X13087377Y32445449D01*
X13087380Y32445449D01*
X13092745Y32445365D01*
X13097975Y32446563D01*
X13097977Y32446563D01*
X13176777Y32464611D01*
X13209633Y32472136D01*
X13270044Y32464611D01*
X13311486Y32420014D01*
X13318501Y32385382D01*
X13318501Y29881891D01*
X13297679Y29824683D01*
X13292445Y29818970D01*
X12404620Y28931145D01*
X12349446Y28905418D01*
X12290641Y28921174D01*
X12255722Y28971044D01*
X12253577Y29006619D01*
X12261933Y29065332D01*
X12262345Y29068225D01*
X12262500Y29083000D01*
X12242135Y29251285D01*
X12182217Y29409855D01*
X12142874Y29467100D01*
X12089245Y29545131D01*
X12089241Y29545135D01*
X12086203Y29549556D01*
X12080842Y29554333D01*
X11963645Y29658751D01*
X11959638Y29662321D01*
X11951347Y29666711D01*
X11814572Y29739130D01*
X11814570Y29739131D01*
X11809829Y29741641D01*
X11799435Y29744252D01*
X11650622Y29781631D01*
X11650623Y29781631D01*
X11645423Y29782937D01*
X11567865Y29783343D01*
X11481275Y29783796D01*
X11481274Y29783796D01*
X11475912Y29783824D01*
X11311082Y29744252D01*
X11306315Y29741792D01*
X11306316Y29741792D01*
X11165215Y29668965D01*
X11165211Y29668963D01*
X11160450Y29666505D01*
X11147758Y29655433D01*
X11089251Y29633500D01*
X9433448Y29633500D01*
X9429721Y29633578D01*
X9377183Y29635780D01*
X9371123Y29636034D01*
X9365218Y29634649D01*
X9365217Y29634649D01*
X9327085Y29625706D01*
X9318843Y29624179D01*
X9280031Y29618862D01*
X9280025Y29618860D01*
X9274015Y29618037D01*
X9257190Y29610756D01*
X9242173Y29605791D01*
X9230240Y29602992D01*
X9230234Y29602990D01*
X9224326Y29601604D01*
X9184667Y29579801D01*
X9177154Y29576122D01*
X9135636Y29558155D01*
X9130921Y29554336D01*
X9130915Y29554333D01*
X9121392Y29546621D01*
X9108258Y29537795D01*
X9096287Y29531214D01*
X9096283Y29531211D01*
X9092197Y29528965D01*
X9082284Y29520408D01*
X9056893Y29495017D01*
X9049970Y29488784D01*
X9018458Y29463266D01*
X9006368Y29446254D01*
X8996761Y29434885D01*
X1617519Y22055643D01*
X1575363Y22032035D01*
X1437909Y21999035D01*
X1430482Y21997252D01*
X1279850Y21919505D01*
X1152111Y21808072D01*
X1054640Y21669385D01*
X993065Y21511451D01*
X970939Y21343388D01*
X971527Y21338062D01*
X971527Y21338060D01*
X984149Y21223733D01*
X989540Y21174898D01*
X1047795Y21015710D01*
X1142340Y20875012D01*
X1146308Y20871402D01*
X1146310Y20871399D01*
X1263746Y20764540D01*
X1267717Y20760927D01*
X1416688Y20680043D01*
X1580653Y20637027D01*
X1663325Y20635729D01*
X1744777Y20634449D01*
X1744780Y20634449D01*
X1750145Y20634365D01*
X1755375Y20635563D01*
X1755377Y20635563D01*
X1910150Y20671011D01*
X1910151Y20671011D01*
X1915380Y20672209D01*
X1990013Y20709746D01*
X2062027Y20745964D01*
X2062029Y20745966D01*
X2066818Y20748374D01*
X2195716Y20858464D01*
X2294634Y20996123D01*
X2357861Y21153403D01*
X2367870Y21223734D01*
X2393050Y21274126D01*
X9625358Y28506433D01*
X9680533Y28532161D01*
X9688290Y28532500D01*
X11086879Y28532500D01*
X11138477Y28512542D01*
X11139973Y28514647D01*
X11144351Y28511536D01*
X11148317Y28507927D01*
X11297288Y28427043D01*
X11461253Y28384027D01*
X11552946Y28382587D01*
X11625381Y28381449D01*
X11625383Y28381449D01*
X11630745Y28381365D01*
X11632982Y28381877D01*
X11691008Y28367407D01*
X11726789Y28318153D01*
X11722540Y28257421D01*
X11704173Y28230698D01*
X7160469Y23686993D01*
X7105295Y23661266D01*
X7046490Y23677022D01*
X7014283Y23718468D01*
X6977112Y23816839D01*
X6975217Y23821855D01*
X6935874Y23879100D01*
X6882245Y23957131D01*
X6882241Y23957135D01*
X6879203Y23961556D01*
X6874659Y23965605D01*
X6756645Y24070751D01*
X6752638Y24074321D01*
X6660326Y24123198D01*
X6607572Y24151130D01*
X6607570Y24151131D01*
X6602829Y24153641D01*
X6592435Y24156252D01*
X6443622Y24193631D01*
X6443623Y24193631D01*
X6438423Y24194937D01*
X6360865Y24195343D01*
X6274275Y24195796D01*
X6274274Y24195796D01*
X6268912Y24195824D01*
X6104082Y24156252D01*
X5953450Y24078505D01*
X5825711Y23967072D01*
X5728240Y23828385D01*
X5666665Y23670451D01*
X5644539Y23502388D01*
X5663140Y23333898D01*
X5721395Y23174710D01*
X5815940Y23034012D01*
X5819908Y23030402D01*
X5819910Y23030399D01*
X5937346Y22923540D01*
X5941317Y22919927D01*
X6090288Y22839043D01*
X6095476Y22837682D01*
X6116322Y22832213D01*
X6166373Y22797554D01*
X6182437Y22738832D01*
X6156669Y22683193D01*
X3354043Y19880567D01*
X3298867Y19854839D01*
X3291110Y19854500D01*
X2196083Y19854500D01*
X2136880Y19877047D01*
X2133845Y19879751D01*
X2133844Y19879751D01*
X2129838Y19883321D01*
X2117290Y19889965D01*
X1984772Y19960130D01*
X1984770Y19960131D01*
X1980029Y19962641D01*
X1969635Y19965252D01*
X1875241Y19988962D01*
X1815623Y20003937D01*
X1738065Y20004343D01*
X1651475Y20004796D01*
X1651474Y20004796D01*
X1646112Y20004824D01*
X1481282Y19965252D01*
X1330650Y19887505D01*
X1202911Y19776072D01*
X1105440Y19637385D01*
X1043865Y19479451D01*
X1021739Y19311388D01*
X1022327Y19306062D01*
X1022327Y19306060D01*
X1031746Y19220746D01*
X1040340Y19142898D01*
X1098595Y18983710D01*
X1193140Y18843012D01*
X1197108Y18839402D01*
X1197110Y18839399D01*
X1314546Y18732540D01*
X1318517Y18728927D01*
X1467488Y18648043D01*
X1631453Y18605027D01*
X1714125Y18603729D01*
X1795577Y18602449D01*
X1795580Y18602449D01*
X1800945Y18602365D01*
X1806175Y18603563D01*
X1806177Y18603563D01*
X1960950Y18639011D01*
X1960951Y18639011D01*
X1966180Y18640209D01*
X2087788Y18701371D01*
X2112827Y18713964D01*
X2112829Y18713966D01*
X2117618Y18716374D01*
X2121700Y18719860D01*
X2136121Y18732176D01*
X2193921Y18753500D01*
X3028110Y18753500D01*
X3085318Y18732678D01*
X3115758Y18679955D01*
X3105186Y18620000D01*
X3091043Y18601567D01*
X2338043Y17848567D01*
X2282867Y17822839D01*
X2275110Y17822500D01*
X2246883Y17822500D01*
X2187680Y17845047D01*
X2184645Y17847751D01*
X2184644Y17847751D01*
X2180638Y17851321D01*
X2168090Y17857965D01*
X2035572Y17928130D01*
X2035570Y17928131D01*
X2030829Y17930641D01*
X2020435Y17933252D01*
X1871622Y17970631D01*
X1871623Y17970631D01*
X1866423Y17971937D01*
X1788865Y17972343D01*
X1702275Y17972796D01*
X1702274Y17972796D01*
X1696912Y17972824D01*
X1532082Y17933252D01*
X1381450Y17855505D01*
X1253711Y17744072D01*
X1156240Y17605385D01*
X1094665Y17447451D01*
X1072539Y17279388D01*
X1091140Y17110898D01*
X1149395Y16951710D01*
X1243940Y16811012D01*
X1247908Y16807402D01*
X1247910Y16807399D01*
X1365346Y16700540D01*
X1369317Y16696927D01*
X1518288Y16616043D01*
X1682253Y16573027D01*
X1764925Y16571729D01*
X1846377Y16570449D01*
X1846380Y16570449D01*
X1851745Y16570365D01*
X2005588Y16605600D01*
X2065999Y16598075D01*
X2107441Y16553478D01*
X2110522Y16492677D01*
X2088389Y16455913D01*
X1592119Y15959643D01*
X1549963Y15936035D01*
X1452858Y15912722D01*
X1405082Y15901252D01*
X1254450Y15823505D01*
X1126711Y15712072D01*
X1090816Y15660999D01*
X1039588Y15588108D01*
X1029240Y15573385D01*
X967665Y15415451D01*
X945539Y15247388D01*
X404000Y15247388D01*
X404000Y28575000D01*
X2249500Y28575000D01*
X2269882Y28316023D01*
X2330526Y28063422D01*
X2429939Y27823419D01*
X2431767Y27820436D01*
X2431769Y27820432D01*
X2479041Y27743291D01*
X2565672Y27601922D01*
X2734385Y27404385D01*
X2931922Y27235672D01*
X3033977Y27173133D01*
X3150432Y27101769D01*
X3150436Y27101767D01*
X3153419Y27099939D01*
X3393422Y27000526D01*
X3646023Y26939882D01*
X3649504Y26939608D01*
X3839722Y26924637D01*
X3839734Y26924637D01*
X3841469Y26924500D01*
X3968531Y26924500D01*
X3970266Y26924637D01*
X3970278Y26924637D01*
X4160496Y26939608D01*
X4163977Y26939882D01*
X4416578Y27000526D01*
X4656581Y27099939D01*
X4659564Y27101767D01*
X4659568Y27101769D01*
X4776023Y27173133D01*
X4878078Y27235672D01*
X5075615Y27404385D01*
X5244328Y27601922D01*
X5330959Y27743291D01*
X5378231Y27820432D01*
X5378233Y27820436D01*
X5380061Y27823419D01*
X5479474Y28063422D01*
X5540118Y28316023D01*
X5560500Y28575000D01*
X5540118Y28833977D01*
X5479474Y29086578D01*
X5380061Y29326581D01*
X5342247Y29388289D01*
X5293961Y29467084D01*
X5244328Y29548078D01*
X5075615Y29745615D01*
X4878078Y29914328D01*
X4776023Y29976867D01*
X4659568Y30048231D01*
X4659564Y30048233D01*
X4656581Y30050061D01*
X4416578Y30149474D01*
X4163977Y30210118D01*
X4160496Y30210392D01*
X3970278Y30225363D01*
X3970266Y30225363D01*
X3968531Y30225500D01*
X3841469Y30225500D01*
X3839734Y30225363D01*
X3839722Y30225363D01*
X3649504Y30210392D01*
X3646023Y30210118D01*
X3605199Y30200317D01*
X3544710Y30207209D01*
X3502804Y30251369D01*
X3499087Y30312135D01*
X3535300Y30361074D01*
X3542639Y30365440D01*
X3596743Y30394208D01*
X3603957Y30399000D01*
X3750424Y30518457D01*
X3756565Y30524555D01*
X3877041Y30670185D01*
X3881886Y30677368D01*
X3971774Y30843613D01*
X3975136Y30851610D01*
X4012096Y30971009D01*
X4011660Y30979932D01*
X5195591Y30979932D01*
X5195804Y30976122D01*
X5231353Y30855336D01*
X5234600Y30847299D01*
X5324421Y30675489D01*
X5329169Y30668234D01*
X5450651Y30517140D01*
X5456711Y30510952D01*
X5605228Y30386331D01*
X5612382Y30381433D01*
X5782273Y30288036D01*
X5790236Y30284622D01*
X5975044Y30225997D01*
X5983510Y30224198D01*
X6134358Y30207277D01*
X6139318Y30207000D01*
X6450306Y30207000D01*
X6462329Y30211376D01*
X6466000Y30217734D01*
X6466000Y30970306D01*
X6464195Y30975266D01*
X6974000Y30975266D01*
X6974000Y30222694D01*
X6978376Y30210671D01*
X6984734Y30207000D01*
X7293809Y30207000D01*
X7298169Y30207213D01*
X7442280Y30221344D01*
X7450781Y30223027D01*
X7636388Y30279064D01*
X7644394Y30282365D01*
X7815577Y30373385D01*
X7822791Y30378178D01*
X7973040Y30500718D01*
X7979181Y30506816D01*
X8102772Y30656211D01*
X8107607Y30663379D01*
X8199826Y30833935D01*
X8203180Y30841913D01*
X8243141Y30971008D01*
X8242516Y30983787D01*
X8241420Y30984971D01*
X8237167Y30986000D01*
X6989694Y30986000D01*
X6977671Y30981624D01*
X6974000Y30975266D01*
X6464195Y30975266D01*
X6461624Y30982329D01*
X6455266Y30986000D01*
X5208591Y30986000D01*
X5196568Y30981624D01*
X5195591Y30979932D01*
X4011660Y30979932D01*
X4011471Y30983787D01*
X4010375Y30984971D01*
X4006122Y30986000D01*
X2809694Y30986000D01*
X2797671Y30981624D01*
X2794000Y30975266D01*
X2794000Y30247694D01*
X2798376Y30235671D01*
X2804734Y30232000D01*
X3088811Y30232000D01*
X3093173Y30232213D01*
X3152011Y30237982D01*
X3210978Y30222842D01*
X3246417Y30173340D01*
X3241746Y30112640D01*
X3194755Y30067183D01*
X3153419Y30050061D01*
X3150436Y30048233D01*
X3150432Y30048231D01*
X3033977Y29976867D01*
X2931922Y29914328D01*
X2734385Y29745615D01*
X2565672Y29548078D01*
X2516039Y29467084D01*
X2467754Y29388289D01*
X2429939Y29326581D01*
X2330526Y29086578D01*
X2269882Y28833977D01*
X2249500Y28575000D01*
X404000Y28575000D01*
X404000Y30979932D01*
X1066527Y30979932D01*
X1066740Y30976123D01*
X1099536Y30864693D01*
X1102778Y30856670D01*
X1190340Y30689179D01*
X1195087Y30681924D01*
X1313513Y30534632D01*
X1319573Y30528444D01*
X1464352Y30406959D01*
X1471506Y30402061D01*
X1637122Y30311014D01*
X1645085Y30307600D01*
X1825233Y30250453D01*
X1833716Y30248650D01*
X1979685Y30232278D01*
X1984649Y30232000D01*
X2270306Y30232000D01*
X2282329Y30236376D01*
X2286000Y30242734D01*
X2286000Y30970306D01*
X2281624Y30982329D01*
X2275266Y30986000D01*
X1079527Y30986000D01*
X1067504Y30981624D01*
X1066527Y30979932D01*
X404000Y30979932D01*
X404000Y31508991D01*
X1067904Y31508991D01*
X1068529Y31496213D01*
X1069625Y31495029D01*
X1073878Y31494000D01*
X2270306Y31494000D01*
X2282329Y31498376D01*
X2286000Y31504734D01*
X2286000Y32232306D01*
X2284195Y32237266D01*
X2794000Y32237266D01*
X2794000Y31509694D01*
X2798376Y31497671D01*
X2804734Y31494000D01*
X4000473Y31494000D01*
X4012496Y31498376D01*
X4013473Y31500068D01*
X4013260Y31503877D01*
X4011755Y31508992D01*
X5196859Y31508992D01*
X5197484Y31496213D01*
X5198580Y31495029D01*
X5202833Y31494000D01*
X8231409Y31494000D01*
X8243432Y31498376D01*
X8244409Y31500068D01*
X8244196Y31503878D01*
X8208647Y31624664D01*
X8205400Y31632701D01*
X8115579Y31804511D01*
X8110831Y31811766D01*
X7989349Y31962860D01*
X7983289Y31969048D01*
X7834772Y32093669D01*
X7827618Y32098567D01*
X7657727Y32191964D01*
X7649764Y32195378D01*
X7464956Y32254003D01*
X7456490Y32255802D01*
X7305642Y32272723D01*
X7300682Y32273000D01*
X6866549Y32273000D01*
X6809341Y32293822D01*
X6778901Y32346545D01*
X6783799Y32394763D01*
X6828631Y32507995D01*
X6828631Y32507997D01*
X6830692Y32513201D01*
X6836161Y32556489D01*
X6849798Y32664443D01*
X6850500Y32670000D01*
X6848450Y32686231D01*
X6831394Y32821243D01*
X6831394Y32821244D01*
X6830692Y32826799D01*
X6823858Y32844061D01*
X6774571Y32968543D01*
X6772511Y32973746D01*
X6755212Y32997557D01*
X6743976Y33013021D01*
X6679615Y33101607D01*
X6634116Y33139247D01*
X6562154Y33198780D01*
X6562150Y33198782D01*
X6557839Y33202349D01*
X6414835Y33269641D01*
X6409338Y33270690D01*
X6409337Y33270690D01*
X6265091Y33298207D01*
X6265087Y33298207D01*
X6259589Y33299256D01*
X6197214Y33295332D01*
X6107448Y33289684D01*
X6107447Y33289684D01*
X6101856Y33289332D01*
X6096528Y33287601D01*
X6096529Y33287601D01*
X5956876Y33242225D01*
X5956875Y33242224D01*
X5951546Y33240493D01*
X5946814Y33237490D01*
X5946812Y33237489D01*
X5885816Y33198780D01*
X5818104Y33155809D01*
X5709915Y33040599D01*
X5707218Y33035694D01*
X5707217Y33035692D01*
X5636475Y32907013D01*
X5633776Y32902103D01*
X5594472Y32749023D01*
X5594472Y32590977D01*
X5633776Y32437897D01*
X5636474Y32432989D01*
X5636475Y32432987D01*
X5702668Y32312584D01*
X5709915Y32299401D01*
X5722505Y32285994D01*
X5746488Y32230037D01*
X5728892Y32171756D01*
X5699410Y32146487D01*
X5624423Y32106615D01*
X5617209Y32101822D01*
X5466960Y31979282D01*
X5460819Y31973184D01*
X5337228Y31823789D01*
X5332393Y31816621D01*
X5240174Y31646065D01*
X5236820Y31638087D01*
X5196859Y31508992D01*
X4011755Y31508992D01*
X3980464Y31615307D01*
X3977222Y31623330D01*
X3889660Y31790821D01*
X3884913Y31798076D01*
X3766487Y31945368D01*
X3760427Y31951556D01*
X3615648Y32073041D01*
X3608494Y32077939D01*
X3442878Y32168986D01*
X3434915Y32172400D01*
X3254767Y32229547D01*
X3246284Y32231350D01*
X3100315Y32247722D01*
X3095351Y32248000D01*
X2809694Y32248000D01*
X2797671Y32243624D01*
X2794000Y32237266D01*
X2284195Y32237266D01*
X2281624Y32244329D01*
X2275266Y32248000D01*
X1991189Y32248000D01*
X1986829Y32247787D01*
X1847578Y32234133D01*
X1839069Y32232448D01*
X1658149Y32177825D01*
X1650127Y32174519D01*
X1483257Y32085792D01*
X1476043Y32081000D01*
X1329576Y31961543D01*
X1323435Y31955445D01*
X1202959Y31809815D01*
X1198114Y31802632D01*
X1108226Y31636387D01*
X1104864Y31628390D01*
X1067904Y31508991D01*
X404000Y31508991D01*
X404000Y39619932D01*
X1066527Y39619932D01*
X1066740Y39616123D01*
X1099536Y39504693D01*
X1102778Y39496670D01*
X1190340Y39329179D01*
X1195087Y39321924D01*
X1313513Y39174632D01*
X1319573Y39168444D01*
X1464352Y39046959D01*
X1471506Y39042061D01*
X1637122Y38951014D01*
X1645085Y38947600D01*
X1825233Y38890453D01*
X1833716Y38888650D01*
X1979685Y38872278D01*
X1984649Y38872000D01*
X2270306Y38872000D01*
X2282329Y38876376D01*
X2286000Y38882734D01*
X2286000Y39610306D01*
X2284195Y39615266D01*
X2794000Y39615266D01*
X2794000Y38887694D01*
X2798376Y38875671D01*
X2804734Y38872000D01*
X3088811Y38872000D01*
X3093171Y38872213D01*
X3232422Y38885867D01*
X3240931Y38887552D01*
X3421851Y38942175D01*
X3429873Y38945481D01*
X3596743Y39034208D01*
X3603957Y39039000D01*
X3750424Y39158457D01*
X3756565Y39164555D01*
X3877041Y39310185D01*
X3881886Y39317368D01*
X3971774Y39483613D01*
X3975136Y39491610D01*
X4012096Y39611009D01*
X4011660Y39619932D01*
X5195591Y39619932D01*
X5195804Y39616122D01*
X5231353Y39495336D01*
X5234600Y39487299D01*
X5324421Y39315489D01*
X5329169Y39308234D01*
X5450651Y39157140D01*
X5456711Y39150952D01*
X5605228Y39026331D01*
X5612382Y39021433D01*
X5700544Y38972966D01*
X5740645Y38927160D01*
X5741920Y38866294D01*
X5722547Y38834051D01*
X5709915Y38820599D01*
X5707218Y38815694D01*
X5707217Y38815692D01*
X5673162Y38753746D01*
X5633776Y38682103D01*
X5594472Y38529023D01*
X5594472Y38370977D01*
X5633776Y38217897D01*
X5636474Y38212989D01*
X5636475Y38212987D01*
X5674666Y38143519D01*
X5709915Y38079401D01*
X5818104Y37964191D01*
X5822833Y37961190D01*
X5943480Y37884626D01*
X5951546Y37879507D01*
X5956875Y37877776D01*
X5956876Y37877775D01*
X5998203Y37864347D01*
X6101856Y37830668D01*
X6107447Y37830316D01*
X6107448Y37830316D01*
X6197214Y37824668D01*
X6259589Y37820744D01*
X6265087Y37821793D01*
X6265091Y37821793D01*
X6409337Y37849310D01*
X6409338Y37849310D01*
X6414835Y37850359D01*
X6557839Y37917651D01*
X6562150Y37921218D01*
X6562154Y37921220D01*
X6675303Y38014826D01*
X6679615Y38018393D01*
X6772511Y38146254D01*
X6830692Y38293201D01*
X6838657Y38356247D01*
X6849798Y38444443D01*
X6850500Y38450000D01*
X6830692Y38606799D01*
X6803025Y38676677D01*
X6783799Y38725237D01*
X6782099Y38786093D01*
X6819914Y38833804D01*
X6866549Y38847000D01*
X7293809Y38847000D01*
X7298169Y38847213D01*
X7442280Y38861344D01*
X7450781Y38863027D01*
X7636388Y38919064D01*
X7644394Y38922365D01*
X7815577Y39013385D01*
X7822791Y39018178D01*
X7973040Y39140718D01*
X7979181Y39146816D01*
X8102772Y39296211D01*
X8107607Y39303379D01*
X8199826Y39473935D01*
X8203180Y39481913D01*
X8243141Y39611008D01*
X8242516Y39623787D01*
X8241420Y39624971D01*
X8237167Y39626000D01*
X5208591Y39626000D01*
X5196568Y39621624D01*
X5195591Y39619932D01*
X4011660Y39619932D01*
X4011471Y39623787D01*
X4010375Y39624971D01*
X4006122Y39626000D01*
X2809694Y39626000D01*
X2797671Y39621624D01*
X2794000Y39615266D01*
X2284195Y39615266D01*
X2281624Y39622329D01*
X2275266Y39626000D01*
X1079527Y39626000D01*
X1067504Y39621624D01*
X1066527Y39619932D01*
X404000Y39619932D01*
X404000Y40148991D01*
X1067904Y40148991D01*
X1068529Y40136213D01*
X1069625Y40135029D01*
X1073878Y40134000D01*
X2270306Y40134000D01*
X2282329Y40138376D01*
X2286000Y40144734D01*
X2286000Y40872306D01*
X2284195Y40877266D01*
X2794000Y40877266D01*
X2794000Y40149694D01*
X2798376Y40137671D01*
X2804734Y40134000D01*
X4000473Y40134000D01*
X4012496Y40138376D01*
X4013473Y40140068D01*
X4013260Y40143877D01*
X4011755Y40148992D01*
X5196859Y40148992D01*
X5197484Y40136213D01*
X5198580Y40135029D01*
X5202833Y40134000D01*
X6450306Y40134000D01*
X6462329Y40138376D01*
X6466000Y40144734D01*
X6466000Y40897306D01*
X6464195Y40902266D01*
X6974000Y40902266D01*
X6974000Y40149694D01*
X6978376Y40137671D01*
X6984734Y40134000D01*
X8231409Y40134000D01*
X8243432Y40138376D01*
X8244409Y40140068D01*
X8244196Y40143878D01*
X8208647Y40264664D01*
X8205400Y40272701D01*
X8115579Y40444511D01*
X8110831Y40451766D01*
X7989349Y40602860D01*
X7983289Y40609048D01*
X7834772Y40733669D01*
X7827618Y40738567D01*
X7657727Y40831964D01*
X7649764Y40835378D01*
X7464956Y40894003D01*
X7456490Y40895802D01*
X7305642Y40912723D01*
X7300682Y40913000D01*
X6989694Y40913000D01*
X6977671Y40908624D01*
X6974000Y40902266D01*
X6464195Y40902266D01*
X6461624Y40909329D01*
X6455266Y40913000D01*
X6146191Y40913000D01*
X6141831Y40912787D01*
X5997720Y40898656D01*
X5989219Y40896973D01*
X5803612Y40840936D01*
X5795606Y40837635D01*
X5624423Y40746615D01*
X5617209Y40741822D01*
X5466960Y40619282D01*
X5460819Y40613184D01*
X5337228Y40463789D01*
X5332393Y40456621D01*
X5240174Y40286065D01*
X5236820Y40278087D01*
X5196859Y40148992D01*
X4011755Y40148992D01*
X3980464Y40255307D01*
X3977222Y40263330D01*
X3889660Y40430821D01*
X3884913Y40438076D01*
X3766487Y40585368D01*
X3760427Y40591556D01*
X3615648Y40713041D01*
X3608494Y40717939D01*
X3442878Y40808986D01*
X3434915Y40812400D01*
X3254767Y40869547D01*
X3246284Y40871350D01*
X3100315Y40887722D01*
X3095351Y40888000D01*
X2809694Y40888000D01*
X2797671Y40883624D01*
X2794000Y40877266D01*
X2284195Y40877266D01*
X2281624Y40884329D01*
X2275266Y40888000D01*
X1991189Y40888000D01*
X1986829Y40887787D01*
X1847578Y40874133D01*
X1839069Y40872448D01*
X1658149Y40817825D01*
X1650127Y40814519D01*
X1483257Y40725792D01*
X1476043Y40721000D01*
X1329576Y40601543D01*
X1323435Y40595445D01*
X1202959Y40449815D01*
X1198114Y40442632D01*
X1108226Y40276387D01*
X1104864Y40268390D01*
X1067904Y40148991D01*
X404000Y40148991D01*
X404000Y50307000D01*
X424822Y50364208D01*
X477545Y50394648D01*
X493000Y50396000D01*
X50307000Y50396000D01*
X50364208Y50375178D01*
G37*
G04 #@! TD.AperFunction*
G04 #@! TA.AperFunction,Conductor*
G36*
X34463318Y7429678D02*
G01*
X34469043Y7424433D01*
X34842423Y7051053D01*
X34867953Y6997886D01*
X34873140Y6950898D01*
X34874985Y6945857D01*
X34926500Y6805085D01*
X34926607Y6744205D01*
X34887555Y6697501D01*
X34842921Y6685499D01*
X23829111Y6685499D01*
X23771903Y6706321D01*
X23741463Y6759044D01*
X23746534Y6807695D01*
X23793459Y6924423D01*
X23795461Y6929403D01*
X23819345Y7097225D01*
X23819500Y7112000D01*
X23799135Y7280285D01*
X23780334Y7330041D01*
X23779591Y7390916D01*
X23818151Y7438027D01*
X23863589Y7450500D01*
X34406110Y7450500D01*
X34463318Y7429678D01*
G37*
G04 #@! TD.AperFunction*
G04 #@! TA.AperFunction,Conductor*
G36*
X42215803Y40322549D02*
G01*
X42216434Y40322244D01*
X42250905Y40314286D01*
X42261327Y40311199D01*
X42289908Y40300796D01*
X42289913Y40300795D01*
X42294583Y40299095D01*
X42320983Y40295760D01*
X42338959Y40293489D01*
X42347824Y40291910D01*
X42373143Y40286065D01*
X42391409Y40281848D01*
X42430915Y40281710D01*
X42432665Y40281652D01*
X42433788Y40281510D01*
X42488188Y40281510D01*
X42488504Y40281509D01*
X42570984Y40281221D01*
X42571942Y40281435D01*
X42573325Y40281510D01*
X47957546Y40281510D01*
X48014754Y40260688D01*
X48020479Y40255443D01*
X48787434Y39488488D01*
X48813162Y39433312D01*
X48813501Y39425555D01*
X48813501Y17724443D01*
X48792679Y17667235D01*
X48787433Y17661510D01*
X45697459Y14571537D01*
X44862453Y13736531D01*
X44807278Y13710803D01*
X44748473Y13726559D01*
X44713554Y13776429D01*
X44710521Y13799464D01*
X44710521Y26867288D01*
X44731343Y26924496D01*
X44784066Y26954936D01*
X44844021Y26944364D01*
X44875406Y26913790D01*
X44920672Y26839922D01*
X45089385Y26642385D01*
X45286922Y26473672D01*
X45388977Y26411133D01*
X45505432Y26339769D01*
X45505436Y26339767D01*
X45508419Y26337939D01*
X45748422Y26238526D01*
X46001023Y26177882D01*
X46004504Y26177608D01*
X46194722Y26162637D01*
X46194734Y26162637D01*
X46196469Y26162500D01*
X46323531Y26162500D01*
X46325266Y26162637D01*
X46325278Y26162637D01*
X46515496Y26177608D01*
X46518977Y26177882D01*
X46771578Y26238526D01*
X47011581Y26337939D01*
X47014564Y26339767D01*
X47014568Y26339769D01*
X47131023Y26411133D01*
X47233078Y26473672D01*
X47430615Y26642385D01*
X47599328Y26839922D01*
X47669808Y26954936D01*
X47733231Y27058432D01*
X47733233Y27058436D01*
X47735061Y27061419D01*
X47834474Y27301422D01*
X47895118Y27554023D01*
X47915500Y27813000D01*
X47895118Y28071977D01*
X47834474Y28324578D01*
X47735061Y28564581D01*
X47730810Y28571519D01*
X47644594Y28712210D01*
X47599328Y28786078D01*
X47430615Y28983615D01*
X47233078Y29152328D01*
X47080292Y29245955D01*
X47014568Y29286231D01*
X47014564Y29286233D01*
X47011581Y29288061D01*
X46771578Y29387474D01*
X46548796Y29440959D01*
X46498030Y29474561D01*
X46480739Y29532933D01*
X46505015Y29588763D01*
X46548796Y29614041D01*
X46771578Y29667526D01*
X47011581Y29766939D01*
X47014564Y29768767D01*
X47014568Y29768769D01*
X47199166Y29881891D01*
X47233078Y29902672D01*
X47430615Y30071385D01*
X47599328Y30268922D01*
X47735061Y30490419D01*
X47834474Y30730422D01*
X47895118Y30983023D01*
X47915500Y31242000D01*
X47895118Y31500977D01*
X47834474Y31753578D01*
X47735061Y31993581D01*
X47599328Y32215078D01*
X47430615Y32412615D01*
X47233078Y32581328D01*
X47088378Y32670000D01*
X47014568Y32715231D01*
X47014564Y32715233D01*
X47011581Y32717061D01*
X46771578Y32816474D01*
X46548796Y32869959D01*
X46498030Y32903561D01*
X46480739Y32961933D01*
X46505015Y33017763D01*
X46548796Y33043041D01*
X46555623Y33044680D01*
X46771578Y33096526D01*
X47011581Y33195939D01*
X47014564Y33197767D01*
X47014568Y33197769D01*
X47163985Y33289332D01*
X47233078Y33331672D01*
X47430615Y33500385D01*
X47599328Y33697922D01*
X47669808Y33812936D01*
X47733231Y33916432D01*
X47733233Y33916436D01*
X47735061Y33919419D01*
X47834474Y34159422D01*
X47895118Y34412023D01*
X47915500Y34671000D01*
X47895118Y34929977D01*
X47834474Y35182578D01*
X47735061Y35422581D01*
X47599328Y35644078D01*
X47430615Y35841615D01*
X47233078Y36010328D01*
X47131023Y36072867D01*
X47014568Y36144231D01*
X47014564Y36144233D01*
X47011581Y36146061D01*
X46771578Y36245474D01*
X46518977Y36306118D01*
X46339109Y36320274D01*
X46283711Y36345521D01*
X46257881Y36399676D01*
X46247255Y36358590D01*
X46197692Y36323237D01*
X46180891Y36320274D01*
X46001023Y36306118D01*
X45748422Y36245474D01*
X45508419Y36146061D01*
X45505436Y36144233D01*
X45505432Y36144231D01*
X45388977Y36072867D01*
X45286922Y36010328D01*
X45089385Y35841615D01*
X44920672Y35644078D01*
X44875406Y35570210D01*
X44827761Y35532311D01*
X44766903Y35533905D01*
X44721306Y35574245D01*
X44710521Y35616712D01*
X44710521Y37201288D01*
X44731343Y37258496D01*
X44784066Y37288936D01*
X44844021Y37278364D01*
X44875406Y37247790D01*
X44920672Y37173922D01*
X45089385Y36976385D01*
X45286922Y36807672D01*
X45370259Y36756603D01*
X45505432Y36673769D01*
X45505436Y36673767D01*
X45508419Y36671939D01*
X45748422Y36572526D01*
X46001023Y36511882D01*
X46004504Y36511608D01*
X46180891Y36497726D01*
X46236289Y36472479D01*
X46262119Y36418324D01*
X46272745Y36459410D01*
X46322308Y36494763D01*
X46339109Y36497726D01*
X46515496Y36511608D01*
X46518977Y36511882D01*
X46771578Y36572526D01*
X47011581Y36671939D01*
X47014564Y36673767D01*
X47014568Y36673769D01*
X47149741Y36756603D01*
X47233078Y36807672D01*
X47430615Y36976385D01*
X47599328Y37173922D01*
X47669808Y37288936D01*
X47733231Y37392432D01*
X47733233Y37392436D01*
X47735061Y37395419D01*
X47834474Y37635422D01*
X47895118Y37888023D01*
X47915500Y38147000D01*
X47895118Y38405977D01*
X47834474Y38658578D01*
X47735061Y38898581D01*
X47720487Y38922365D01*
X47630425Y39069332D01*
X47599328Y39120078D01*
X47430615Y39317615D01*
X47233078Y39486328D01*
X47131023Y39548867D01*
X47014568Y39620231D01*
X47014564Y39620233D01*
X47011581Y39622061D01*
X46771578Y39721474D01*
X46518977Y39782118D01*
X46515496Y39782392D01*
X46325278Y39797363D01*
X46325266Y39797363D01*
X46323531Y39797500D01*
X46196469Y39797500D01*
X46194734Y39797363D01*
X46194722Y39797363D01*
X46004504Y39782392D01*
X46001023Y39782118D01*
X45748422Y39721474D01*
X45508419Y39622061D01*
X45505436Y39620233D01*
X45505432Y39620231D01*
X45388977Y39548867D01*
X45286922Y39486328D01*
X45089385Y39317615D01*
X44920672Y39120078D01*
X44889575Y39069332D01*
X44799514Y38922365D01*
X44784939Y38898581D01*
X44685526Y38658578D01*
X44624882Y38405977D01*
X44604500Y38147000D01*
X44604774Y38143519D01*
X44604774Y38143518D01*
X44624096Y37898005D01*
X44607826Y37839339D01*
X44557654Y37804857D01*
X44497054Y37810692D01*
X44472437Y37828089D01*
X42124919Y40175607D01*
X42099191Y40230783D01*
X42114947Y40289588D01*
X42164817Y40324507D01*
X42215803Y40322549D01*
G37*
G04 #@! TD.AperFunction*
M02*
