  0
SECTION
  2
HEADER
  9
$ANGBASE
  50
0.0
  9
$ANGDIR
  70
1
  9
$MEASUREMENT
  70
0
  0
ENDSEC
  0
SECTION
  2
TABLES
  0
TABLE
  2
LTYPE
  70
4
  0
LTYPE
  5
40F
  2
CONTINUOUS
  70
0
  3
Solid line
  72
65
  73
0
  40
0.0
  0
LTYPE
  5
410
  2
DASHDOT
 70
0
  3
Dash Dot ____ _ ____ _
 72
65
 73
4
 40
2.0
 49
1.25
 49
-0.25
 49
0.25
 49
-0.25
  0
LTYPE
  5
411
  2
DASHED
 70
0
  3
Dashed __ __ __ __ __
 72
65
 73
2
 40
0.75
 49
0.5
 49
-0.25
  0
LTYPE
  5
43B
  2
DOTTED
 70
0
  3
Dotted .  .  .  .
 72
65
 73
2
 40
0.2
 49
0.0
 49
-0.2
  0
ENDTAB
  0
TABLE
  2
STYLE
  70
4
  0
STYLE
  2
KICAD
  70
0
  40
0
  41
1
  42
1
  50
0
  71
0
  3
isocp.shx
  0
STYLE
  2
KICADB
  70
0
  40
0
  41
1
  42
1
  50
0
  71
0
  3
isocp.shx
  0
STYLE
  2
KICADI
  70
0
  40
0
  41
1
  42
1
  50
15
  71
0
  3
isocp.shx
  0
STYLE
  2
KICADBI
  70
0
  40
0
  41
1
  42
1
  50
15
  71
0
  3
isocp.shx
  0
ENDTAB
  0
TABLE
  2
LAYER
  70
1
  0
LAYER
  2
BLACK
  70
0
  62
7
  6
CONTINUOUS
  0
ENDTAB
  0
ENDSEC
  0
SECTION
  2
ENTITIES
0
LINE
8
BLACK
6
CONTINUOUS
10
5.99269
20
-3.44253
11
5.99394
21
-3.44411
0
LINE
8
BLACK
6
CONTINUOUS
10
5.99394
20
-3.44411
11
5.99702
21
-3.45334
0
LINE
8
BLACK
6
CONTINUOUS
10
5.99702
20
-3.45334
11
6.01151
21
-3.45334
0
LINE
8
BLACK
6
CONTINUOUS
10
6.01151
20
-3.45334
11
6.01459
21
-3.44411
0
LINE
8
BLACK
6
CONTINUOUS
10
6.01459
20
-3.44411
11
6.01507
21
-3.44321
0
LINE
8
BLACK
6
CONTINUOUS
10
6.01507
20
-3.44321
11
6.0168
21
-3.44215
0
LINE
8
BLACK
6
CONTINUOUS
10
6.0168
20
-3.44215
11
6.01879
21
-3.44245
0
LINE
8
BLACK
6
CONTINUOUS
10
6.01879
20
-3.44245
11
6.02013
21
-3.44396
0
LINE
8
BLACK
6
CONTINUOUS
10
6.02013
20
-3.44396
11
6.02019
21
-3.44598
0
LINE
8
BLACK
6
CONTINUOUS
10
6.02019
20
-3.44598
11
6.00707
21
-3.48535
0
LINE
8
BLACK
6
CONTINUOUS
10
6.00707
20
-3.48535
11
6.00658
21
-3.48625
0
LINE
8
BLACK
6
CONTINUOUS
10
6.00658
20
-3.48625
11
6.0065
21
-3.4863
0
LINE
8
BLACK
6
CONTINUOUS
10
6.0065
20
-3.4863
11
6.00647
21
-3.48638
0
LINE
8
BLACK
6
CONTINUOUS
10
6.00647
20
-3.48638
11
6.00565
21
-3.48682
0
LINE
8
BLACK
6
CONTINUOUS
10
6.00565
20
-3.48682
11
6.00486
21
-3.48731
0
LINE
8
BLACK
6
CONTINUOUS
10
6.00486
20
-3.48731
11
6.00477
21
-3.4873
0
LINE
8
BLACK
6
CONTINUOUS
10
6.00477
20
-3.4873
11
6.0047
21
-3.48734
0
LINE
8
BLACK
6
CONTINUOUS
10
6.0047
20
-3.48734
11
6.00378
21
-3.48715
0
LINE
8
BLACK
6
CONTINUOUS
10
6.00378
20
-3.48715
11
6.00286
21
-3.48701
0
LINE
8
BLACK
6
CONTINUOUS
10
6.00286
20
-3.48701
11
6.0028
21
-3.48695
0
LINE
8
BLACK
6
CONTINUOUS
10
6.0028
20
-3.48695
11
6.00272
21
-3.48693
0
LINE
8
BLACK
6
CONTINUOUS
10
6.00272
20
-3.48693
11
6.00214
21
-3.4862
0
LINE
8
BLACK
6
CONTINUOUS
10
6.00214
20
-3.4862
11
6.00152
21
-3.4855
0
LINE
8
BLACK
6
CONTINUOUS
10
6.00152
20
-3.4855
11
6.00152
21
-3.48542
0
LINE
8
BLACK
6
CONTINUOUS
10
6.00152
20
-3.48542
11
6.00146
21
-3.48535
0
LINE
8
BLACK
6
CONTINUOUS
10
6.00146
20
-3.48535
11
5.98834
21
-3.44598
0
LINE
8
BLACK
6
CONTINUOUS
10
5.98834
20
-3.44598
11
5.98819
21
-3.44497
0
LINE
8
BLACK
6
CONTINUOUS
10
5.98819
20
-3.44497
11
5.98893
21
-3.44309
0
LINE
8
BLACK
6
CONTINUOUS
10
5.98893
20
-3.44309
11
5.99071
21
-3.44213
0
LINE
8
BLACK
6
CONTINUOUS
10
5.99071
20
-3.44213
11
5.99269
21
-3.44253
0
LINE
8
BLACK
6
CONTINUOUS
10
6.00426
20
-3.47508
11
6.00954
21
-3.45925
0
LINE
8
BLACK
6
CONTINUOUS
10
6.00954
20
-3.45925
11
5.99899
21
-3.45925
0
LINE
8
BLACK
6
CONTINUOUS
10
5.99899
20
-3.45925
11
6.00426
21
-3.47508
0
LINE
8
BLACK
6
CONTINUOUS
10
5.93778
20
-3.44227
11
5.93792
21
-3.44239
0
LINE
8
BLACK
6
CONTINUOUS
10
5.93792
20
-3.44239
11
5.93809
21
-3.44241
0
LINE
8
BLACK
6
CONTINUOUS
10
5.93809
20
-3.44241
11
5.94184
21
-3.44428
0
LINE
8
BLACK
6
CONTINUOUS
10
5.94184
20
-3.44428
11
5.94267
21
-3.44489
0
LINE
8
BLACK
6
CONTINUOUS
10
5.94267
20
-3.44489
11
5.94284
21
-3.4453
0
LINE
8
BLACK
6
CONTINUOUS
10
5.94284
20
-3.4453
11
5.94316
21
-3.4456
0
LINE
8
BLACK
6
CONTINUOUS
10
5.94316
20
-3.4456
11
5.94504
21
-3.44935
0
LINE
8
BLACK
6
CONTINUOUS
10
5.94504
20
-3.44935
11
5.94533
21
-3.45033
0
LINE
8
BLACK
6
CONTINUOUS
10
5.94533
20
-3.45033
11
5.94529
21
-3.4505
0
LINE
8
BLACK
6
CONTINUOUS
10
5.94529
20
-3.4505
11
5.94535
21
-3.45067
0
LINE
8
BLACK
6
CONTINUOUS
10
5.94535
20
-3.45067
11
5.94535
21
-3.46834
0
LINE
8
BLACK
6
CONTINUOUS
10
5.94535
20
-3.46834
11
5.94802
21
-3.46834
0
LINE
8
BLACK
6
CONTINUOUS
10
5.94802
20
-3.46834
11
5.94903
21
-3.46852
0
LINE
8
BLACK
6
CONTINUOUS
10
5.94903
20
-3.46852
11
5.95058
21
-3.46982
0
LINE
8
BLACK
6
CONTINUOUS
10
5.95058
20
-3.46982
11
5.95093
21
-3.47181
0
LINE
8
BLACK
6
CONTINUOUS
10
5.95093
20
-3.47181
11
5.94992
21
-3.47356
0
LINE
8
BLACK
6
CONTINUOUS
10
5.94992
20
-3.47356
11
5.94802
21
-3.47425
0
LINE
8
BLACK
6
CONTINUOUS
10
5.94802
20
-3.47425
11
5.94535
21
-3.47425
0
LINE
8
BLACK
6
CONTINUOUS
10
5.94535
20
-3.47425
11
5.94535
21
-3.48442
0
LINE
8
BLACK
6
CONTINUOUS
10
5.94535
20
-3.48442
11
5.94517
21
-3.48543
0
LINE
8
BLACK
6
CONTINUOUS
10
5.94517
20
-3.48543
11
5.94387
21
-3.48697
0
LINE
8
BLACK
6
CONTINUOUS
10
5.94387
20
-3.48697
11
5.94188
21
-3.48732
0
LINE
8
BLACK
6
CONTINUOUS
10
5.94188
20
-3.48732
11
5.94013
21
-3.48631
0
LINE
8
BLACK
6
CONTINUOUS
10
5.94013
20
-3.48631
11
5.93944
21
-3.48442
0
LINE
8
BLACK
6
CONTINUOUS
10
5.93944
20
-3.48442
11
5.93944
21
-3.47425
0
LINE
8
BLACK
6
CONTINUOUS
10
5.93944
20
-3.47425
11
5.93302
21
-3.47425
0
LINE
8
BLACK
6
CONTINUOUS
10
5.93302
20
-3.47425
11
5.93201
21
-3.47407
0
LINE
8
BLACK
6
CONTINUOUS
10
5.93201
20
-3.47407
11
5.93047
21
-3.47277
0
LINE
8
BLACK
6
CONTINUOUS
10
5.93047
20
-3.47277
11
5.93012
21
-3.47078
0
LINE
8
BLACK
6
CONTINUOUS
10
5.93012
20
-3.47078
11
5.93113
21
-3.46903
0
LINE
8
BLACK
6
CONTINUOUS
10
5.93113
20
-3.46903
11
5.93302
21
-3.46834
0
LINE
8
BLACK
6
CONTINUOUS
10
5.93302
20
-3.46834
11
5.93944
21
-3.46834
0
LINE
8
BLACK
6
CONTINUOUS
10
5.93944
20
-3.46834
11
5.93944
21
-3.45137
0
LINE
8
BLACK
6
CONTINUOUS
10
5.93944
20
-3.45137
11
5.93832
21
-3.44912
0
LINE
8
BLACK
6
CONTINUOUS
10
5.93832
20
-3.44912
11
5.93608
21
-3.448
0
LINE
8
BLACK
6
CONTINUOUS
10
5.93608
20
-3.448
11
5.93302
21
-3.448
0
LINE
8
BLACK
6
CONTINUOUS
10
5.93302
20
-3.448
11
5.93201
21
-3.44782
0
LINE
8
BLACK
6
CONTINUOUS
10
5.93201
20
-3.44782
11
5.93047
21
-3.44652
0
LINE
8
BLACK
6
CONTINUOUS
10
5.93047
20
-3.44652
11
5.93012
21
-3.44453
0
LINE
8
BLACK
6
CONTINUOUS
10
5.93012
20
-3.44453
11
5.93113
21
-3.44278
0
LINE
8
BLACK
6
CONTINUOUS
10
5.93113
20
-3.44278
11
5.93302
21
-3.44209
0
LINE
8
BLACK
6
CONTINUOUS
10
5.93302
20
-3.44209
11
5.93677
21
-3.44209
0
LINE
8
BLACK
6
CONTINUOUS
10
5.93677
20
-3.44209
11
5.93778
21
-3.44227
0
LINE
8
BLACK
6
CONTINUOUS
10
5.81217
20
-3.44227
11
5.81231
21
-3.44239
0
LINE
8
BLACK
6
CONTINUOUS
10
5.81231
20
-3.44239
11
5.81248
21
-3.44241
0
LINE
8
BLACK
6
CONTINUOUS
10
5.81248
20
-3.44241
11
5.81623
21
-3.44428
0
LINE
8
BLACK
6
CONTINUOUS
10
5.81623
20
-3.44428
11
5.81706
21
-3.44489
0
LINE
8
BLACK
6
CONTINUOUS
10
5.81706
20
-3.44489
11
5.81723
21
-3.4453
0
LINE
8
BLACK
6
CONTINUOUS
10
5.81723
20
-3.4453
11
5.81755
21
-3.4456
0
LINE
8
BLACK
6
CONTINUOUS
10
5.81755
20
-3.4456
11
5.81943
21
-3.44935
0
LINE
8
BLACK
6
CONTINUOUS
10
5.81943
20
-3.44935
11
5.81972
21
-3.45033
0
LINE
8
BLACK
6
CONTINUOUS
10
5.81972
20
-3.45033
11
5.81968
21
-3.4505
0
LINE
8
BLACK
6
CONTINUOUS
10
5.81968
20
-3.4505
11
5.81974
21
-3.45067
0
LINE
8
BLACK
6
CONTINUOUS
10
5.81974
20
-3.45067
11
5.81974
21
-3.45442
0
LINE
8
BLACK
6
CONTINUOUS
10
5.81974
20
-3.45442
11
5.81956
21
-3.45543
0
LINE
8
BLACK
6
CONTINUOUS
10
5.81956
20
-3.45543
11
5.81945
21
-3.45557
0
LINE
8
BLACK
6
CONTINUOUS
10
5.81945
20
-3.45557
11
5.81943
21
-3.45574
0
LINE
8
BLACK
6
CONTINUOUS
10
5.81943
20
-3.45574
11
5.81755
21
-3.45949
0
LINE
8
BLACK
6
CONTINUOUS
10
5.81755
20
-3.45949
11
5.81694
21
-3.46031
0
LINE
8
BLACK
6
CONTINUOUS
10
5.81694
20
-3.46031
11
5.81654
21
-3.46049
0
LINE
8
BLACK
6
CONTINUOUS
10
5.81654
20
-3.46049
11
5.81623
21
-3.46081
0
LINE
8
BLACK
6
CONTINUOUS
10
5.81623
20
-3.46081
11
5.81248
21
-3.46269
0
LINE
8
BLACK
6
CONTINUOUS
10
5.81248
20
-3.46269
11
5.8115
21
-3.46298
0
LINE
8
BLACK
6
CONTINUOUS
10
5.8115
20
-3.46298
11
5.81133
21
-3.46294
0
LINE
8
BLACK
6
CONTINUOUS
10
5.81133
20
-3.46294
11
5.81116
21
-3.463
0
LINE
8
BLACK
6
CONTINUOUS
10
5.81116
20
-3.463
11
5.80249
21
-3.463
0
LINE
8
BLACK
6
CONTINUOUS
10
5.80249
20
-3.463
11
5.80099
21
-3.46374
0
LINE
8
BLACK
6
CONTINUOUS
10
5.80099
20
-3.46374
11
5.80099
21
-3.46497
0
LINE
8
BLACK
6
CONTINUOUS
10
5.80099
20
-3.46497
11
5.80212
21
-3.46722
0
LINE
8
BLACK
6
CONTINUOUS
10
5.80212
20
-3.46722
11
5.80436
21
-3.46834
0
LINE
8
BLACK
6
CONTINUOUS
10
5.80436
20
-3.46834
11
5.81047
21
-3.46834
0
LINE
8
BLACK
6
CONTINUOUS
10
5.81047
20
-3.46834
11
5.81359
21
-3.46678
0
LINE
8
BLACK
6
CONTINUOUS
10
5.81359
20
-3.46678
11
5.81458
21
-3.46649
0
LINE
8
BLACK
6
CONTINUOUS
10
5.81458
20
-3.46649
11
5.81654
21
-3.46695
0
LINE
8
BLACK
6
CONTINUOUS
10
5.81654
20
-3.46695
11
5.81774
21
-3.46858
0
LINE
8
BLACK
6
CONTINUOUS
10
5.81774
20
-3.46858
11
5.81762
21
-3.47059
0
LINE
8
BLACK
6
CONTINUOUS
10
5.81762
20
-3.47059
11
5.81623
21
-3.47206
0
LINE
8
BLACK
6
CONTINUOUS
10
5.81623
20
-3.47206
11
5.81248
21
-3.47393
0
LINE
8
BLACK
6
CONTINUOUS
10
5.81248
20
-3.47393
11
5.8115
21
-3.47423
0
LINE
8
BLACK
6
CONTINUOUS
10
5.8115
20
-3.47423
11
5.81133
21
-3.47419
0
LINE
8
BLACK
6
CONTINUOUS
10
5.81133
20
-3.47419
11
5.81116
21
-3.47425
0
LINE
8
BLACK
6
CONTINUOUS
10
5.81116
20
-3.47425
11
5.80366
21
-3.47425
0
LINE
8
BLACK
6
CONTINUOUS
10
5.80366
20
-3.47425
11
5.80265
21
-3.47407
0
LINE
8
BLACK
6
CONTINUOUS
10
5.80265
20
-3.47407
11
5.80252
21
-3.47395
0
LINE
8
BLACK
6
CONTINUOUS
10
5.80252
20
-3.47395
11
5.80234
21
-3.47393
0
LINE
8
BLACK
6
CONTINUOUS
10
5.80234
20
-3.47393
11
5.79859
21
-3.47206
0
LINE
8
BLACK
6
CONTINUOUS
10
5.79859
20
-3.47206
11
5.79777
21
-3.47145
0
LINE
8
BLACK
6
CONTINUOUS
10
5.79777
20
-3.47145
11
5.79759
21
-3.47104
0
LINE
8
BLACK
6
CONTINUOUS
10
5.79759
20
-3.47104
11
5.79727
21
-3.47074
0
LINE
8
BLACK
6
CONTINUOUS
10
5.79727
20
-3.47074
11
5.7954
21
-3.46699
0
LINE
8
BLACK
6
CONTINUOUS
10
5.7954
20
-3.46699
11
5.79511
21
-3.46601
0
LINE
8
BLACK
6
CONTINUOUS
10
5.79511
20
-3.46601
11
5.79515
21
-3.46583
0
LINE
8
BLACK
6
CONTINUOUS
10
5.79515
20
-3.46583
11
5.79509
21
-3.46567
0
LINE
8
BLACK
6
CONTINUOUS
10
5.79509
20
-3.46567
11
5.79509
21
-3.44505
0
LINE
8
BLACK
6
CONTINUOUS
10
5.79509
20
-3.44505
11
5.79527
21
-3.44404
0
LINE
8
BLACK
6
CONTINUOUS
10
5.79527
20
-3.44404
11
5.79656
21
-3.44249
0
LINE
8
BLACK
6
CONTINUOUS
10
5.79656
20
-3.44249
11
5.79855
21
-3.44214
0
LINE
8
BLACK
6
CONTINUOUS
10
5.79855
20
-3.44214
11
5.79969
21
-3.4428
0
LINE
8
BLACK
6
CONTINUOUS
10
5.79969
20
-3.4428
11
5.80047
21
-3.44241
0
LINE
8
BLACK
6
CONTINUOUS
10
5.80047
20
-3.44241
11
5.80145
21
-3.44211
0
LINE
8
BLACK
6
CONTINUOUS
10
5.80145
20
-3.44211
11
5.80162
21
-3.44215
0
LINE
8
BLACK
6
CONTINUOUS
10
5.80162
20
-3.44215
11
5.80179
21
-3.44209
0
LINE
8
BLACK
6
CONTINUOUS
10
5.80179
20
-3.44209
11
5.81116
21
-3.44209
0
LINE
8
BLACK
6
CONTINUOUS
10
5.81116
20
-3.44209
11
5.81217
21
-3.44227
0
LINE
8
BLACK
6
CONTINUOUS
10
5.80099
20
-3.44875
11
5.80099
21
-3.45725
0
LINE
8
BLACK
6
CONTINUOUS
10
5.80099
20
-3.45725
11
5.80145
21
-3.45711
0
LINE
8
BLACK
6
CONTINUOUS
10
5.80145
20
-3.45711
11
5.80162
21
-3.45715
0
LINE
8
BLACK
6
CONTINUOUS
10
5.80162
20
-3.45715
11
5.80179
21
-3.45709
0
LINE
8
BLACK
6
CONTINUOUS
10
5.80179
20
-3.45709
11
5.81047
21
-3.45709
0
LINE
8
BLACK
6
CONTINUOUS
10
5.81047
20
-3.45709
11
5.81271
21
-3.45597
0
LINE
8
BLACK
6
CONTINUOUS
10
5.81271
20
-3.45597
11
5.81383
21
-3.45372
0
LINE
8
BLACK
6
CONTINUOUS
10
5.81383
20
-3.45372
11
5.81383
21
-3.45137
0
LINE
8
BLACK
6
CONTINUOUS
10
5.81383
20
-3.45137
11
5.81271
21
-3.44912
0
LINE
8
BLACK
6
CONTINUOUS
10
5.81271
20
-3.44912
11
5.81047
21
-3.448
0
LINE
8
BLACK
6
CONTINUOUS
10
5.81047
20
-3.448
11
5.80249
21
-3.448
0
LINE
8
BLACK
6
CONTINUOUS
10
5.80249
20
-3.448
11
5.80099
21
-3.44875
0
LINE
8
BLACK
6
CONTINUOUS
10
5.8528
20
-3.44315
11
5.85349
21
-3.44505
0
LINE
8
BLACK
6
CONTINUOUS
10
5.85349
20
-3.44505
11
5.85349
21
-3.47129
0
LINE
8
BLACK
6
CONTINUOUS
10
5.85349
20
-3.47129
11
5.85331
21
-3.4723
0
LINE
8
BLACK
6
CONTINUOUS
10
5.85331
20
-3.4723
11
5.85201
21
-3.47385
0
LINE
8
BLACK
6
CONTINUOUS
10
5.85201
20
-3.47385
11
5.85002
21
-3.4742
0
LINE
8
BLACK
6
CONTINUOUS
10
5.85002
20
-3.4742
11
5.84827
21
-3.47319
0
LINE
8
BLACK
6
CONTINUOUS
10
5.84827
20
-3.47319
11
5.84819
21
-3.47296
0
LINE
8
BLACK
6
CONTINUOUS
10
5.84819
20
-3.47296
11
5.84623
21
-3.47393
0
LINE
8
BLACK
6
CONTINUOUS
10
5.84623
20
-3.47393
11
5.84525
21
-3.47423
0
LINE
8
BLACK
6
CONTINUOUS
10
5.84525
20
-3.47423
11
5.84507
21
-3.47419
0
LINE
8
BLACK
6
CONTINUOUS
10
5.84507
20
-3.47419
11
5.84491
21
-3.47425
0
LINE
8
BLACK
6
CONTINUOUS
10
5.84491
20
-3.47425
11
5.83928
21
-3.47425
0
LINE
8
BLACK
6
CONTINUOUS
10
5.83928
20
-3.47425
11
5.83827
21
-3.47407
0
LINE
8
BLACK
6
CONTINUOUS
10
5.83827
20
-3.47407
11
5.83814
21
-3.47395
0
LINE
8
BLACK
6
CONTINUOUS
10
5.83814
20
-3.47395
11
5.83796
21
-3.47393
0
LINE
8
BLACK
6
CONTINUOUS
10
5.83796
20
-3.47393
11
5.83421
21
-3.47206
0
LINE
8
BLACK
6
CONTINUOUS
10
5.83421
20
-3.47206
11
5.83339
21
-3.47145
0
LINE
8
BLACK
6
CONTINUOUS
10
5.83339
20
-3.47145
11
5.83322
21
-3.47104
0
LINE
8
BLACK
6
CONTINUOUS
10
5.83322
20
-3.47104
11
5.83289
21
-3.47074
0
LINE
8
BLACK
6
CONTINUOUS
10
5.83289
20
-3.47074
11
5.83102
21
-3.46699
0
LINE
8
BLACK
6
CONTINUOUS
10
5.83102
20
-3.46699
11
5.83073
21
-3.46601
0
LINE
8
BLACK
6
CONTINUOUS
10
5.83073
20
-3.46601
11
5.83077
21
-3.46583
0
LINE
8
BLACK
6
CONTINUOUS
10
5.83077
20
-3.46583
11
5.83071
21
-3.46567
0
LINE
8
BLACK
6
CONTINUOUS
10
5.83071
20
-3.46567
11
5.83071
21
-3.44505
0
LINE
8
BLACK
6
CONTINUOUS
10
5.83071
20
-3.44505
11
5.83089
21
-3.44404
0
LINE
8
BLACK
6
CONTINUOUS
10
5.83089
20
-3.44404
11
5.83218
21
-3.44249
0
LINE
8
BLACK
6
CONTINUOUS
10
5.83218
20
-3.44249
11
5.83417
21
-3.44214
0
LINE
8
BLACK
6
CONTINUOUS
10
5.83417
20
-3.44214
11
5.83592
21
-3.44315
0
LINE
8
BLACK
6
CONTINUOUS
10
5.83592
20
-3.44315
11
5.83661
21
-3.44505
0
LINE
8
BLACK
6
CONTINUOUS
10
5.83661
20
-3.44505
11
5.83661
21
-3.46497
0
LINE
8
BLACK
6
CONTINUOUS
10
5.83661
20
-3.46497
11
5.83774
21
-3.46722
0
LINE
8
BLACK
6
CONTINUOUS
10
5.83774
20
-3.46722
11
5.83998
21
-3.46834
0
LINE
8
BLACK
6
CONTINUOUS
10
5.83998
20
-3.46834
11
5.84421
21
-3.46834
0
LINE
8
BLACK
6
CONTINUOUS
10
5.84421
20
-3.46834
11
5.84691
21
-3.46699
0
LINE
8
BLACK
6
CONTINUOUS
10
5.84691
20
-3.46699
11
5.84758
21
-3.46632
0
LINE
8
BLACK
6
CONTINUOUS
10
5.84758
20
-3.46632
11
5.84758
21
-3.44505
0
LINE
8
BLACK
6
CONTINUOUS
10
5.84758
20
-3.44505
11
5.84776
21
-3.44404
0
LINE
8
BLACK
6
CONTINUOUS
10
5.84776
20
-3.44404
11
5.84906
21
-3.44249
0
LINE
8
BLACK
6
CONTINUOUS
10
5.84906
20
-3.44249
11
5.85105
21
-3.44214
0
LINE
8
BLACK
6
CONTINUOUS
10
5.85105
20
-3.44214
11
5.8528
21
-3.44315
0
LINE
8
BLACK
6
CONTINUOUS
10
5.88842
20
-3.44315
11
5.88911
21
-3.44505
0
LINE
8
BLACK
6
CONTINUOUS
10
5.88911
20
-3.44505
11
5.88911
21
-3.47129
0
LINE
8
BLACK
6
CONTINUOUS
10
5.88911
20
-3.47129
11
5.88893
21
-3.4723
0
LINE
8
BLACK
6
CONTINUOUS
10
5.88893
20
-3.4723
11
5.88763
21
-3.47385
0
LINE
8
BLACK
6
CONTINUOUS
10
5.88763
20
-3.47385
11
5.88564
21
-3.4742
0
LINE
8
BLACK
6
CONTINUOUS
10
5.88564
20
-3.4742
11
5.88389
21
-3.47319
0
LINE
8
BLACK
6
CONTINUOUS
10
5.88389
20
-3.47319
11
5.88381
21
-3.47296
0
LINE
8
BLACK
6
CONTINUOUS
10
5.88381
20
-3.47296
11
5.88185
21
-3.47393
0
LINE
8
BLACK
6
CONTINUOUS
10
5.88185
20
-3.47393
11
5.88087
21
-3.47423
0
LINE
8
BLACK
6
CONTINUOUS
10
5.88087
20
-3.47423
11
5.8807
21
-3.47419
0
LINE
8
BLACK
6
CONTINUOUS
10
5.8807
20
-3.47419
11
5.88053
21
-3.47425
0
LINE
8
BLACK
6
CONTINUOUS
10
5.88053
20
-3.47425
11
5.87491
21
-3.47425
0
LINE
8
BLACK
6
CONTINUOUS
10
5.87491
20
-3.47425
11
5.8739
21
-3.47407
0
LINE
8
BLACK
6
CONTINUOUS
10
5.8739
20
-3.47407
11
5.87376
21
-3.47395
0
LINE
8
BLACK
6
CONTINUOUS
10
5.87376
20
-3.47395
11
5.87358
21
-3.47393
0
LINE
8
BLACK
6
CONTINUOUS
10
5.87358
20
-3.47393
11
5.86984
21
-3.47206
0
LINE
8
BLACK
6
CONTINUOUS
10
5.86984
20
-3.47206
11
5.86901
21
-3.47145
0
LINE
8
BLACK
6
CONTINUOUS
10
5.86901
20
-3.47145
11
5.86884
21
-3.47104
0
LINE
8
BLACK
6
CONTINUOUS
10
5.86884
20
-3.47104
11
5.86851
21
-3.47074
0
LINE
8
BLACK
6
CONTINUOUS
10
5.86851
20
-3.47074
11
5.86664
21
-3.46699
0
LINE
8
BLACK
6
CONTINUOUS
10
5.86664
20
-3.46699
11
5.86635
21
-3.46601
0
LINE
8
BLACK
6
CONTINUOUS
10
5.86635
20
-3.46601
11
5.86639
21
-3.46583
0
LINE
8
BLACK
6
CONTINUOUS
10
5.86639
20
-3.46583
11
5.86633
21
-3.46567
0
LINE
8
BLACK
6
CONTINUOUS
10
5.86633
20
-3.46567
11
5.86633
21
-3.44505
0
LINE
8
BLACK
6
CONTINUOUS
10
5.86633
20
-3.44505
11
5.86651
21
-3.44404
0
LINE
8
BLACK
6
CONTINUOUS
10
5.86651
20
-3.44404
11
5.8678
21
-3.44249
0
LINE
8
BLACK
6
CONTINUOUS
10
5.8678
20
-3.44249
11
5.86979
21
-3.44214
0
LINE
8
BLACK
6
CONTINUOUS
10
5.86979
20
-3.44214
11
5.87154
21
-3.44315
0
LINE
8
BLACK
6
CONTINUOUS
10
5.87154
20
-3.44315
11
5.87223
21
-3.44505
0
LINE
8
BLACK
6
CONTINUOUS
10
5.87223
20
-3.44505
11
5.87223
21
-3.46497
0
LINE
8
BLACK
6
CONTINUOUS
10
5.87223
20
-3.46497
11
5.87336
21
-3.46722
0
LINE
8
BLACK
6
CONTINUOUS
10
5.87336
20
-3.46722
11
5.8756
21
-3.46834
0
LINE
8
BLACK
6
CONTINUOUS
10
5.8756
20
-3.46834
11
5.87983
21
-3.46834
0
LINE
8
BLACK
6
CONTINUOUS
10
5.87983
20
-3.46834
11
5.88253
21
-3.46699
0
LINE
8
BLACK
6
CONTINUOUS
10
5.88253
20
-3.46699
11
5.8832
21
-3.46632
0
LINE
8
BLACK
6
CONTINUOUS
10
5.8832
20
-3.46632
11
5.8832
21
-3.44505
0
LINE
8
BLACK
6
CONTINUOUS
10
5.8832
20
-3.44505
11
5.88338
21
-3.44404
0
LINE
8
BLACK
6
CONTINUOUS
10
5.88338
20
-3.44404
11
5.88468
21
-3.44249
0
LINE
8
BLACK
6
CONTINUOUS
10
5.88468
20
-3.44249
11
5.88667
21
-3.44214
0
LINE
8
BLACK
6
CONTINUOUS
10
5.88667
20
-3.44214
11
5.88842
21
-3.44315
0
LINE
8
BLACK
6
CONTINUOUS
10
5.91716
20
-3.44227
11
5.9173
21
-3.44239
0
LINE
8
BLACK
6
CONTINUOUS
10
5.9173
20
-3.44239
11
5.91747
21
-3.44241
0
LINE
8
BLACK
6
CONTINUOUS
10
5.91747
20
-3.44241
11
5.92122
21
-3.44428
0
LINE
8
BLACK
6
CONTINUOUS
10
5.92122
20
-3.44428
11
5.92204
21
-3.44489
0
LINE
8
BLACK
6
CONTINUOUS
10
5.92204
20
-3.44489
11
5.92222
21
-3.4453
0
LINE
8
BLACK
6
CONTINUOUS
10
5.92222
20
-3.4453
11
5.92254
21
-3.4456
0
LINE
8
BLACK
6
CONTINUOUS
10
5.92254
20
-3.4456
11
5.92442
21
-3.44935
0
LINE
8
BLACK
6
CONTINUOUS
10
5.92442
20
-3.44935
11
5.92471
21
-3.45033
0
LINE
8
BLACK
6
CONTINUOUS
10
5.92471
20
-3.45033
11
5.92467
21
-3.4505
0
LINE
8
BLACK
6
CONTINUOUS
10
5.92467
20
-3.4505
11
5.92473
21
-3.45067
0
LINE
8
BLACK
6
CONTINUOUS
10
5.92473
20
-3.45067
11
5.92473
21
-3.46567
0
LINE
8
BLACK
6
CONTINUOUS
10
5.92473
20
-3.46567
11
5.92455
21
-3.46668
0
LINE
8
BLACK
6
CONTINUOUS
10
5.92455
20
-3.46668
11
5.92444
21
-3.46681
0
LINE
8
BLACK
6
CONTINUOUS
10
5.92444
20
-3.46681
11
5.92442
21
-3.46699
0
LINE
8
BLACK
6
CONTINUOUS
10
5.92442
20
-3.46699
11
5.92254
21
-3.47074
0
LINE
8
BLACK
6
CONTINUOUS
10
5.92254
20
-3.47074
11
5.92193
21
-3.47156
0
LINE
8
BLACK
6
CONTINUOUS
10
5.92193
20
-3.47156
11
5.92152
21
-3.47174
0
LINE
8
BLACK
6
CONTINUOUS
10
5.92152
20
-3.47174
11
5.92122
21
-3.47206
0
LINE
8
BLACK
6
CONTINUOUS
10
5.92122
20
-3.47206
11
5.91747
21
-3.47393
0
LINE
8
BLACK
6
CONTINUOUS
10
5.91747
20
-3.47393
11
5.91649
21
-3.47423
0
LINE
8
BLACK
6
CONTINUOUS
10
5.91649
20
-3.47423
11
5.91632
21
-3.47419
0
LINE
8
BLACK
6
CONTINUOUS
10
5.91632
20
-3.47419
11
5.91615
21
-3.47425
0
LINE
8
BLACK
6
CONTINUOUS
10
5.91615
20
-3.47425
11
5.90865
21
-3.47425
0
LINE
8
BLACK
6
CONTINUOUS
10
5.90865
20
-3.47425
11
5.90764
21
-3.47407
0
LINE
8
BLACK
6
CONTINUOUS
10
5.90764
20
-3.47407
11
5.90751
21
-3.47395
0
LINE
8
BLACK
6
CONTINUOUS
10
5.90751
20
-3.47395
11
5.90733
21
-3.47393
0
LINE
8
BLACK
6
CONTINUOUS
10
5.90733
20
-3.47393
11
5.90358
21
-3.47206
0
LINE
8
BLACK
6
CONTINUOUS
10
5.90358
20
-3.47206
11
5.90276
21
-3.47145
0
LINE
8
BLACK
6
CONTINUOUS
10
5.90276
20
-3.47145
11
5.90258
21
-3.47104
0
LINE
8
BLACK
6
CONTINUOUS
10
5.90258
20
-3.47104
11
5.90226
21
-3.47074
0
LINE
8
BLACK
6
CONTINUOUS
10
5.90226
20
-3.47074
11
5.90039
21
-3.46699
0
LINE
8
BLACK
6
CONTINUOUS
10
5.90039
20
-3.46699
11
5.90009
21
-3.46601
0
LINE
8
BLACK
6
CONTINUOUS
10
5.90009
20
-3.46601
11
5.90013
21
-3.46583
0
LINE
8
BLACK
6
CONTINUOUS
10
5.90013
20
-3.46583
11
5.90007
21
-3.46567
0
LINE
8
BLACK
6
CONTINUOUS
10
5.90007
20
-3.46567
11
5.90007
21
-3.46192
0
LINE
8
BLACK
6
CONTINUOUS
10
5.90007
20
-3.46192
11
5.90025
21
-3.46091
0
LINE
8
BLACK
6
CONTINUOUS
10
5.90025
20
-3.46091
11
5.90057
21
-3.46054
0
LINE
8
BLACK
6
CONTINUOUS
10
5.90057
20
-3.46054
11
5.90072
21
-3.46007
0
LINE
8
BLACK
6
CONTINUOUS
10
5.90072
20
-3.46007
11
5.90119
21
-3.45979
0
LINE
8
BLACK
6
CONTINUOUS
10
5.90119
20
-3.45979
11
5.90155
21
-3.45936
0
LINE
8
BLACK
6
CONTINUOUS
10
5.90155
20
-3.45936
11
5.90203
21
-3.45928
0
LINE
8
BLACK
6
CONTINUOUS
10
5.90203
20
-3.45928
11
5.90245
21
-3.45902
0
LINE
8
BLACK
6
CONTINUOUS
10
5.90245
20
-3.45902
11
5.91882
21
-3.45575
0
LINE
8
BLACK
6
CONTINUOUS
10
5.91882
20
-3.45575
11
5.91882
21
-3.45137
0
LINE
8
BLACK
6
CONTINUOUS
10
5.91882
20
-3.45137
11
5.9177
21
-3.44912
0
LINE
8
BLACK
6
CONTINUOUS
10
5.9177
20
-3.44912
11
5.91545
21
-3.448
0
LINE
8
BLACK
6
CONTINUOUS
10
5.91545
20
-3.448
11
5.90935
21
-3.448
0
LINE
8
BLACK
6
CONTINUOUS
10
5.90935
20
-3.448
11
5.90622
21
-3.44956
0
LINE
8
BLACK
6
CONTINUOUS
10
5.90622
20
-3.44956
11
5.90524
21
-3.44985
0
LINE
8
BLACK
6
CONTINUOUS
10
5.90524
20
-3.44985
11
5.90327
21
-3.44939
0
LINE
8
BLACK
6
CONTINUOUS
10
5.90327
20
-3.44939
11
5.90207
21
-3.44776
0
LINE
8
BLACK
6
CONTINUOUS
10
5.90207
20
-3.44776
11
5.90219
21
-3.44575
0
LINE
8
BLACK
6
CONTINUOUS
10
5.90219
20
-3.44575
11
5.90358
21
-3.44428
0
LINE
8
BLACK
6
CONTINUOUS
10
5.90358
20
-3.44428
11
5.90733
21
-3.44241
0
LINE
8
BLACK
6
CONTINUOUS
10
5.90733
20
-3.44241
11
5.90831
21
-3.44211
0
LINE
8
BLACK
6
CONTINUOUS
10
5.90831
20
-3.44211
11
5.90849
21
-3.44215
0
LINE
8
BLACK
6
CONTINUOUS
10
5.90849
20
-3.44215
11
5.90865
21
-3.44209
0
LINE
8
BLACK
6
CONTINUOUS
10
5.90865
20
-3.44209
11
5.91615
21
-3.44209
0
LINE
8
BLACK
6
CONTINUOUS
10
5.91615
20
-3.44209
11
5.91716
21
-3.44227
0
LINE
8
BLACK
6
CONTINUOUS
10
5.90598
20
-3.46434
11
5.90598
21
-3.46497
0
LINE
8
BLACK
6
CONTINUOUS
10
5.90598
20
-3.46497
11
5.9071
21
-3.46722
0
LINE
8
BLACK
6
CONTINUOUS
10
5.9071
20
-3.46722
11
5.90935
21
-3.46834
0
LINE
8
BLACK
6
CONTINUOUS
10
5.90935
20
-3.46834
11
5.91545
21
-3.46834
0
LINE
8
BLACK
6
CONTINUOUS
10
5.91545
20
-3.46834
11
5.9177
21
-3.46722
0
LINE
8
BLACK
6
CONTINUOUS
10
5.9177
20
-3.46722
11
5.91882
21
-3.46497
0
LINE
8
BLACK
6
CONTINUOUS
10
5.91882
20
-3.46497
11
5.91882
21
-3.46177
0
LINE
8
BLACK
6
CONTINUOUS
10
5.91882
20
-3.46177
11
5.90598
21
-3.46434
0
LINE
8
BLACK
6
CONTINUOUS
10
5.98028
20
-3.44315
11
5.98097
21
-3.44505
0
LINE
8
BLACK
6
CONTINUOUS
10
5.98097
20
-3.44505
11
5.98097
21
-3.47129
0
LINE
8
BLACK
6
CONTINUOUS
10
5.98097
20
-3.47129
11
5.98079
21
-3.4723
0
LINE
8
BLACK
6
CONTINUOUS
10
5.98079
20
-3.4723
11
5.97949
21
-3.47385
0
LINE
8
BLACK
6
CONTINUOUS
10
5.97949
20
-3.47385
11
5.9775
21
-3.4742
0
LINE
8
BLACK
6
CONTINUOUS
10
5.9775
20
-3.4742
11
5.97576
21
-3.47319
0
LINE
8
BLACK
6
CONTINUOUS
10
5.97576
20
-3.47319
11
5.97567
21
-3.47296
0
LINE
8
BLACK
6
CONTINUOUS
10
5.97567
20
-3.47296
11
5.97371
21
-3.47393
0
LINE
8
BLACK
6
CONTINUOUS
10
5.97371
20
-3.47393
11
5.97273
21
-3.47423
0
LINE
8
BLACK
6
CONTINUOUS
10
5.97273
20
-3.47423
11
5.97256
21
-3.47419
0
LINE
8
BLACK
6
CONTINUOUS
10
5.97256
20
-3.47419
11
5.97239
21
-3.47425
0
LINE
8
BLACK
6
CONTINUOUS
10
5.97239
20
-3.47425
11
5.96677
21
-3.47425
0
LINE
8
BLACK
6
CONTINUOUS
10
5.96677
20
-3.47425
11
5.96576
21
-3.47407
0
LINE
8
BLACK
6
CONTINUOUS
10
5.96576
20
-3.47407
11
5.96562
21
-3.47395
0
LINE
8
BLACK
6
CONTINUOUS
10
5.96562
20
-3.47395
11
5.96545
21
-3.47393
0
LINE
8
BLACK
6
CONTINUOUS
10
5.96545
20
-3.47393
11
5.9617
21
-3.47206
0
LINE
8
BLACK
6
CONTINUOUS
10
5.9617
20
-3.47206
11
5.96088
21
-3.47145
0
LINE
8
BLACK
6
CONTINUOUS
10
5.96088
20
-3.47145
11
5.9607
21
-3.47104
0
LINE
8
BLACK
6
CONTINUOUS
10
5.9607
20
-3.47104
11
5.96038
21
-3.47074
0
LINE
8
BLACK
6
CONTINUOUS
10
5.96038
20
-3.47074
11
5.9585
21
-3.46699
0
LINE
8
BLACK
6
CONTINUOUS
10
5.9585
20
-3.46699
11
5.95821
21
-3.46601
0
LINE
8
BLACK
6
CONTINUOUS
10
5.95821
20
-3.46601
11
5.95825
21
-3.46583
0
LINE
8
BLACK
6
CONTINUOUS
10
5.95825
20
-3.46583
11
5.95819
21
-3.46567
0
LINE
8
BLACK
6
CONTINUOUS
10
5.95819
20
-3.46567
11
5.95819
21
-3.44505
0
LINE
8
BLACK
6
CONTINUOUS
10
5.95819
20
-3.44505
11
5.95837
21
-3.44404
0
LINE
8
BLACK
6
CONTINUOUS
10
5.95837
20
-3.44404
11
5.95967
21
-3.44249
0
LINE
8
BLACK
6
CONTINUOUS
10
5.95967
20
-3.44249
11
5.96166
21
-3.44214
0
LINE
8
BLACK
6
CONTINUOUS
10
5.96166
20
-3.44214
11
5.96341
21
-3.44315
0
LINE
8
BLACK
6
CONTINUOUS
10
5.96341
20
-3.44315
11
5.9641
21
-3.44505
0
LINE
8
BLACK
6
CONTINUOUS
10
5.9641
20
-3.44505
11
5.9641
21
-3.46497
0
LINE
8
BLACK
6
CONTINUOUS
10
5.9641
20
-3.46497
11
5.96522
21
-3.46722
0
LINE
8
BLACK
6
CONTINUOUS
10
5.96522
20
-3.46722
11
5.96747
21
-3.46834
0
LINE
8
BLACK
6
CONTINUOUS
10
5.96747
20
-3.46834
11
5.9717
21
-3.46834
0
LINE
8
BLACK
6
CONTINUOUS
10
5.9717
20
-3.46834
11
5.97439
21
-3.46699
0
LINE
8
BLACK
6
CONTINUOUS
10
5.97439
20
-3.46699
11
5.97506
21
-3.46632
0
LINE
8
BLACK
6
CONTINUOUS
10
5.97506
20
-3.46632
11
5.97506
21
-3.44505
0
LINE
8
BLACK
6
CONTINUOUS
10
5.97506
20
-3.44505
11
5.97524
21
-3.44404
0
LINE
8
BLACK
6
CONTINUOUS
10
5.97524
20
-3.44404
11
5.97654
21
-3.44249
0
LINE
8
BLACK
6
CONTINUOUS
10
5.97654
20
-3.44249
11
5.97853
21
-3.44214
0
LINE
8
BLACK
6
CONTINUOUS
10
5.97853
20
-3.44214
11
5.98028
21
-3.44315
0
LINE
8
BLACK
6
CONTINUOUS
10
6.5049
20
-3.17201
11
6.50629
21
-3.17258
0
LINE
8
BLACK
6
CONTINUOUS
10
6.50629
20
-3.17258
11
6.50687
21
-3.17398
0
LINE
8
BLACK
6
CONTINUOUS
10
6.50687
20
-3.17398
11
6.50687
21
-4.55193
0
LINE
8
BLACK
6
CONTINUOUS
10
6.50687
20
-4.55193
11
6.50629
21
-4.55332
0
LINE
8
BLACK
6
CONTINUOUS
10
6.50629
20
-4.55332
11
6.5049
21
-4.5539
0
LINE
8
BLACK
6
CONTINUOUS
10
6.5049
20
-4.5539
11
5.12695
21
-4.5539
0
LINE
8
BLACK
6
CONTINUOUS
10
5.12695
20
-4.5539
11
5.12556
21
-4.55332
0
LINE
8
BLACK
6
CONTINUOUS
10
5.12556
20
-4.55332
11
5.12498
21
-4.55193
0
LINE
8
BLACK
6
CONTINUOUS
10
5.12498
20
-4.55193
11
5.12498
21
-4.55193
0
LINE
8
BLACK
6
CONTINUOUS
10
5.12498
20
-4.55193
11
5.12498
21
-3.17398
0
LINE
8
BLACK
6
CONTINUOUS
10
5.12498
20
-3.17398
11
5.12556
21
-3.17258
0
LINE
8
BLACK
6
CONTINUOUS
10
5.12556
20
-3.17258
11
5.12695
21
-3.17201
0
LINE
8
BLACK
6
CONTINUOUS
10
5.12695
20
-3.17201
11
6.5049
21
-3.17201
0
LINE
8
BLACK
6
CONTINUOUS
10
5.12892
20
-3.17594
11
5.12892
21
-4.54996
0
LINE
8
BLACK
6
CONTINUOUS
10
5.12892
20
-4.54996
11
6.50293
21
-4.54996
0
LINE
8
BLACK
6
CONTINUOUS
10
6.50293
20
-4.54996
11
6.50293
21
-3.17594
0
LINE
8
BLACK
6
CONTINUOUS
10
6.50293
20
-3.17594
11
5.12892
21
-3.17594
0
LINE
8
BLACK
6
CONTINUOUS
10
6.56873
20
-3.75212
11
6.56943
21
-3.75401
0
LINE
8
BLACK
6
CONTINUOUS
10
6.56943
20
-3.75401
11
6.56943
21
-3.79339
0
LINE
8
BLACK
6
CONTINUOUS
10
6.56943
20
-3.79339
11
6.56925
21
-3.79439
0
LINE
8
BLACK
6
CONTINUOUS
10
6.56925
20
-3.79439
11
6.56795
21
-3.79594
0
LINE
8
BLACK
6
CONTINUOUS
10
6.56795
20
-3.79594
11
6.56596
21
-3.79629
0
LINE
8
BLACK
6
CONTINUOUS
10
6.56596
20
-3.79629
11
6.56421
21
-3.79528
0
LINE
8
BLACK
6
CONTINUOUS
10
6.56421
20
-3.79528
11
6.56352
21
-3.79339
0
LINE
8
BLACK
6
CONTINUOUS
10
6.56352
20
-3.79339
11
6.56352
21
-3.77802
0
LINE
8
BLACK
6
CONTINUOUS
10
6.56352
20
-3.77802
11
6.54606
21
-3.79547
0
LINE
8
BLACK
6
CONTINUOUS
10
6.54606
20
-3.79547
11
6.54522
21
-3.79606
0
LINE
8
BLACK
6
CONTINUOUS
10
6.54522
20
-3.79606
11
6.54321
21
-3.79624
0
LINE
8
BLACK
6
CONTINUOUS
10
6.54321
20
-3.79624
11
6.54156
21
-3.79508
0
LINE
8
BLACK
6
CONTINUOUS
10
6.54156
20
-3.79508
11
6.54103
21
-3.79313
0
LINE
8
BLACK
6
CONTINUOUS
10
6.54103
20
-3.79313
11
6.54189
21
-3.7913
0
LINE
8
BLACK
6
CONTINUOUS
10
6.54189
20
-3.7913
11
6.55695
21
-3.77624
0
LINE
8
BLACK
6
CONTINUOUS
10
6.55695
20
-3.77624
11
6.54161
21
-3.75579
0
LINE
8
BLACK
6
CONTINUOUS
10
6.54161
20
-3.75579
11
6.54115
21
-3.75487
0
LINE
8
BLACK
6
CONTINUOUS
10
6.54115
20
-3.75487
11
6.54126
21
-3.75286
0
LINE
8
BLACK
6
CONTINUOUS
10
6.54126
20
-3.75286
11
6.54264
21
-3.75138
0
LINE
8
BLACK
6
CONTINUOUS
10
6.54264
20
-3.75138
11
6.54465
21
-3.75114
0
LINE
8
BLACK
6
CONTINUOUS
10
6.54465
20
-3.75114
11
6.54634
21
-3.75224
0
LINE
8
BLACK
6
CONTINUOUS
10
6.54634
20
-3.75224
11
6.56117
21
-3.77202
0
LINE
8
BLACK
6
CONTINUOUS
10
6.56117
20
-3.77202
11
6.56352
21
-3.76966
0
LINE
8
BLACK
6
CONTINUOUS
10
6.56352
20
-3.76966
11
6.56352
21
-3.75401
0
LINE
8
BLACK
6
CONTINUOUS
10
6.56352
20
-3.75401
11
6.5637
21
-3.75301
0
LINE
8
BLACK
6
CONTINUOUS
10
6.5637
20
-3.75301
11
6.565
21
-3.75146
0
LINE
8
BLACK
6
CONTINUOUS
10
6.565
20
-3.75146
11
6.56699
21
-3.75111
0
LINE
8
BLACK
6
CONTINUOUS
10
6.56699
20
-3.75111
11
6.56873
21
-3.75212
0
LINE
8
BLACK
6
CONTINUOUS
10
5.04059
20
-3.71456
11
5.04128
21
-3.71646
0
LINE
8
BLACK
6
CONTINUOUS
10
5.04128
20
-3.71646
11
5.04128
21
-3.73183
0
LINE
8
BLACK
6
CONTINUOUS
10
5.04128
20
-3.73183
11
5.05874
21
-3.71437
0
LINE
8
BLACK
6
CONTINUOUS
10
5.05874
20
-3.71437
11
5.05958
21
-3.71378
0
LINE
8
BLACK
6
CONTINUOUS
10
5.05958
20
-3.71378
11
5.06159
21
-3.71361
0
LINE
8
BLACK
6
CONTINUOUS
10
5.06159
20
-3.71361
11
5.06325
21
-3.71476
0
LINE
8
BLACK
6
CONTINUOUS
10
5.06325
20
-3.71476
11
5.06377
21
-3.71671
0
LINE
8
BLACK
6
CONTINUOUS
10
5.06377
20
-3.71671
11
5.06292
21
-3.71855
0
LINE
8
BLACK
6
CONTINUOUS
10
5.06292
20
-3.71855
11
5.04785
21
-3.73361
0
LINE
8
BLACK
6
CONTINUOUS
10
5.04785
20
-3.73361
11
5.06319
21
-3.75406
0
LINE
8
BLACK
6
CONTINUOUS
10
5.06319
20
-3.75406
11
5.06365
21
-3.75497
0
LINE
8
BLACK
6
CONTINUOUS
10
5.06365
20
-3.75497
11
5.06354
21
-3.75699
0
LINE
8
BLACK
6
CONTINUOUS
10
5.06354
20
-3.75699
11
5.06216
21
-3.75846
0
LINE
8
BLACK
6
CONTINUOUS
10
5.06216
20
-3.75846
11
5.06016
21
-3.7587
0
LINE
8
BLACK
6
CONTINUOUS
10
5.06016
20
-3.7587
11
5.05847
21
-3.7576
0
LINE
8
BLACK
6
CONTINUOUS
10
5.05847
20
-3.7576
11
5.04364
21
-3.73783
0
LINE
8
BLACK
6
CONTINUOUS
10
5.04364
20
-3.73783
11
5.04128
21
-3.74018
0
LINE
8
BLACK
6
CONTINUOUS
10
5.04128
20
-3.74018
11
5.04128
21
-3.75583
0
LINE
8
BLACK
6
CONTINUOUS
10
5.04128
20
-3.75583
11
5.04111
21
-3.75684
0
LINE
8
BLACK
6
CONTINUOUS
10
5.04111
20
-3.75684
11
5.03981
21
-3.75838
0
LINE
8
BLACK
6
CONTINUOUS
10
5.03981
20
-3.75838
11
5.03782
21
-3.75874
0
LINE
8
BLACK
6
CONTINUOUS
10
5.03782
20
-3.75874
11
5.03607
21
-3.75773
0
LINE
8
BLACK
6
CONTINUOUS
10
5.03607
20
-3.75773
11
5.03538
21
-3.75583
0
LINE
8
BLACK
6
CONTINUOUS
10
5.03538
20
-3.75583
11
5.03538
21
-3.71646
0
LINE
8
BLACK
6
CONTINUOUS
10
5.03538
20
-3.71646
11
5.03556
21
-3.71545
0
LINE
8
BLACK
6
CONTINUOUS
10
5.03556
20
-3.71545
11
5.03685
21
-3.7139
0
LINE
8
BLACK
6
CONTINUOUS
10
5.03685
20
-3.7139
11
5.03884
21
-3.71355
0
LINE
8
BLACK
6
CONTINUOUS
10
5.03884
20
-3.71355
11
5.04059
21
-3.71456
0
LINE
8
BLACK
6
CONTINUOUS
10
6.56873
20
-3.61712
11
6.56943
21
-3.61901
0
LINE
8
BLACK
6
CONTINUOUS
10
6.56943
20
-3.61901
11
6.56943
21
-3.65839
0
LINE
8
BLACK
6
CONTINUOUS
10
6.56943
20
-3.65839
11
6.56925
21
-3.65939
0
LINE
8
BLACK
6
CONTINUOUS
10
6.56925
20
-3.65939
11
6.56795
21
-3.66094
0
LINE
8
BLACK
6
CONTINUOUS
10
6.56795
20
-3.66094
11
6.56596
21
-3.66129
0
LINE
8
BLACK
6
CONTINUOUS
10
6.56596
20
-3.66129
11
6.56421
21
-3.66028
0
LINE
8
BLACK
6
CONTINUOUS
10
6.56421
20
-3.66028
11
6.56352
21
-3.65839
0
LINE
8
BLACK
6
CONTINUOUS
10
6.56352
20
-3.65839
11
6.56352
21
-3.64302
0
LINE
8
BLACK
6
CONTINUOUS
10
6.56352
20
-3.64302
11
6.54606
21
-3.66047
0
LINE
8
BLACK
6
CONTINUOUS
10
6.54606
20
-3.66047
11
6.54522
21
-3.66106
0
LINE
8
BLACK
6
CONTINUOUS
10
6.54522
20
-3.66106
11
6.54321
21
-3.66124
0
LINE
8
BLACK
6
CONTINUOUS
10
6.54321
20
-3.66124
11
6.54156
21
-3.66008
0
LINE
8
BLACK
6
CONTINUOUS
10
6.54156
20
-3.66008
11
6.54103
21
-3.65813
0
LINE
8
BLACK
6
CONTINUOUS
10
6.54103
20
-3.65813
11
6.54189
21
-3.6563
0
LINE
8
BLACK
6
CONTINUOUS
10
6.54189
20
-3.6563
11
6.55695
21
-3.64124
0
LINE
8
BLACK
6
CONTINUOUS
10
6.55695
20
-3.64124
11
6.54161
21
-3.62079
0
LINE
8
BLACK
6
CONTINUOUS
10
6.54161
20
-3.62079
11
6.54115
21
-3.61987
0
LINE
8
BLACK
6
CONTINUOUS
10
6.54115
20
-3.61987
11
6.54126
21
-3.61786
0
LINE
8
BLACK
6
CONTINUOUS
10
6.54126
20
-3.61786
11
6.54264
21
-3.61638
0
LINE
8
BLACK
6
CONTINUOUS
10
6.54264
20
-3.61638
11
6.54465
21
-3.61614
0
LINE
8
BLACK
6
CONTINUOUS
10
6.54465
20
-3.61614
11
6.54634
21
-3.61724
0
LINE
8
BLACK
6
CONTINUOUS
10
6.54634
20
-3.61724
11
6.56117
21
-3.63702
0
LINE
8
BLACK
6
CONTINUOUS
10
6.56117
20
-3.63702
11
6.56352
21
-3.63466
0
LINE
8
BLACK
6
CONTINUOUS
10
6.56352
20
-3.63466
11
6.56352
21
-3.61901
0
LINE
8
BLACK
6
CONTINUOUS
10
6.56352
20
-3.61901
11
6.5637
21
-3.61801
0
LINE
8
BLACK
6
CONTINUOUS
10
6.5637
20
-3.61801
11
6.565
21
-3.61646
0
LINE
8
BLACK
6
CONTINUOUS
10
6.565
20
-3.61646
11
6.56699
21
-3.61611
0
LINE
8
BLACK
6
CONTINUOUS
10
6.56699
20
-3.61611
11
6.56873
21
-3.61712
0
LINE
8
BLACK
6
CONTINUOUS
10
6.56873
20
-3.48212
11
6.56943
21
-3.48401
0
LINE
8
BLACK
6
CONTINUOUS
10
6.56943
20
-3.48401
11
6.56943
21
-3.52339
0
LINE
8
BLACK
6
CONTINUOUS
10
6.56943
20
-3.52339
11
6.56925
21
-3.52439
0
LINE
8
BLACK
6
CONTINUOUS
10
6.56925
20
-3.52439
11
6.56795
21
-3.52594
0
LINE
8
BLACK
6
CONTINUOUS
10
6.56795
20
-3.52594
11
6.56596
21
-3.52629
0
LINE
8
BLACK
6
CONTINUOUS
10
6.56596
20
-3.52629
11
6.56421
21
-3.52528
0
LINE
8
BLACK
6
CONTINUOUS
10
6.56421
20
-3.52528
11
6.56352
21
-3.52339
0
LINE
8
BLACK
6
CONTINUOUS
10
6.56352
20
-3.52339
11
6.56352
21
-3.50802
0
LINE
8
BLACK
6
CONTINUOUS
10
6.56352
20
-3.50802
11
6.54606
21
-3.52547
0
LINE
8
BLACK
6
CONTINUOUS
10
6.54606
20
-3.52547
11
6.54522
21
-3.52606
0
LINE
8
BLACK
6
CONTINUOUS
10
6.54522
20
-3.52606
11
6.54321
21
-3.52624
0
LINE
8
BLACK
6
CONTINUOUS
10
6.54321
20
-3.52624
11
6.54156
21
-3.52508
0
LINE
8
BLACK
6
CONTINUOUS
10
6.54156
20
-3.52508
11
6.54103
21
-3.52313
0
LINE
8
BLACK
6
CONTINUOUS
10
6.54103
20
-3.52313
11
6.54189
21
-3.5213
0
LINE
8
BLACK
6
CONTINUOUS
10
6.54189
20
-3.5213
11
6.55695
21
-3.50624
0
LINE
8
BLACK
6
CONTINUOUS
10
6.55695
20
-3.50624
11
6.54161
21
-3.48579
0
LINE
8
BLACK
6
CONTINUOUS
10
6.54161
20
-3.48579
11
6.54115
21
-3.48487
0
LINE
8
BLACK
6
CONTINUOUS
10
6.54115
20
-3.48487
11
6.54126
21
-3.48286
0
LINE
8
BLACK
6
CONTINUOUS
10
6.54126
20
-3.48286
11
6.54264
21
-3.48138
0
LINE
8
BLACK
6
CONTINUOUS
10
6.54264
20
-3.48138
11
6.54465
21
-3.48114
0
LINE
8
BLACK
6
CONTINUOUS
10
6.54465
20
-3.48114
11
6.54634
21
-3.48224
0
LINE
8
BLACK
6
CONTINUOUS
10
6.54634
20
-3.48224
11
6.56117
21
-3.50202
0
LINE
8
BLACK
6
CONTINUOUS
10
6.56117
20
-3.50202
11
6.56352
21
-3.49966
0
LINE
8
BLACK
6
CONTINUOUS
10
6.56352
20
-3.49966
11
6.56352
21
-3.48401
0
LINE
8
BLACK
6
CONTINUOUS
10
6.56352
20
-3.48401
11
6.5637
21
-3.48301
0
LINE
8
BLACK
6
CONTINUOUS
10
6.5637
20
-3.48301
11
6.565
21
-3.48146
0
LINE
8
BLACK
6
CONTINUOUS
10
6.565
20
-3.48146
11
6.56699
21
-3.48111
0
LINE
8
BLACK
6
CONTINUOUS
10
6.56699
20
-3.48111
11
6.56873
21
-3.48212
0
LINE
8
BLACK
6
CONTINUOUS
10
6.56873
20
-3.34527
11
6.56943
21
-3.34716
0
LINE
8
BLACK
6
CONTINUOUS
10
6.56943
20
-3.34716
11
6.56943
21
-3.38653
0
LINE
8
BLACK
6
CONTINUOUS
10
6.56943
20
-3.38653
11
6.56925
21
-3.38754
0
LINE
8
BLACK
6
CONTINUOUS
10
6.56925
20
-3.38754
11
6.56795
21
-3.38909
0
LINE
8
BLACK
6
CONTINUOUS
10
6.56795
20
-3.38909
11
6.56596
21
-3.38944
0
LINE
8
BLACK
6
CONTINUOUS
10
6.56596
20
-3.38944
11
6.56421
21
-3.38843
0
LINE
8
BLACK
6
CONTINUOUS
10
6.56421
20
-3.38843
11
6.56352
21
-3.38653
0
LINE
8
BLACK
6
CONTINUOUS
10
6.56352
20
-3.38653
11
6.56352
21
-3.37117
0
LINE
8
BLACK
6
CONTINUOUS
10
6.56352
20
-3.37117
11
6.54606
21
-3.38862
0
LINE
8
BLACK
6
CONTINUOUS
10
6.54606
20
-3.38862
11
6.54522
21
-3.38921
0
LINE
8
BLACK
6
CONTINUOUS
10
6.54522
20
-3.38921
11
6.54321
21
-3.38939
0
LINE
8
BLACK
6
CONTINUOUS
10
6.54321
20
-3.38939
11
6.54156
21
-3.38823
0
LINE
8
BLACK
6
CONTINUOUS
10
6.54156
20
-3.38823
11
6.54103
21
-3.38628
0
LINE
8
BLACK
6
CONTINUOUS
10
6.54103
20
-3.38628
11
6.54189
21
-3.38445
0
LINE
8
BLACK
6
CONTINUOUS
10
6.54189
20
-3.38445
11
6.55695
21
-3.36938
0
LINE
8
BLACK
6
CONTINUOUS
10
6.55695
20
-3.36938
11
6.54161
21
-3.34894
0
LINE
8
BLACK
6
CONTINUOUS
10
6.54161
20
-3.34894
11
6.54115
21
-3.34802
0
LINE
8
BLACK
6
CONTINUOUS
10
6.54115
20
-3.34802
11
6.54126
21
-3.346
0
LINE
8
BLACK
6
CONTINUOUS
10
6.54126
20
-3.346
11
6.54264
21
-3.34453
0
LINE
8
BLACK
6
CONTINUOUS
10
6.54264
20
-3.34453
11
6.54465
21
-3.34429
0
LINE
8
BLACK
6
CONTINUOUS
10
6.54465
20
-3.34429
11
6.54634
21
-3.34539
0
LINE
8
BLACK
6
CONTINUOUS
10
6.54634
20
-3.34539
11
6.56117
21
-3.36517
0
LINE
8
BLACK
6
CONTINUOUS
10
6.56117
20
-3.36517
11
6.56352
21
-3.36281
0
LINE
8
BLACK
6
CONTINUOUS
10
6.56352
20
-3.36281
11
6.56352
21
-3.34716
0
LINE
8
BLACK
6
CONTINUOUS
10
6.56352
20
-3.34716
11
6.5637
21
-3.34615
0
LINE
8
BLACK
6
CONTINUOUS
10
6.5637
20
-3.34615
11
6.565
21
-3.34461
0
LINE
8
BLACK
6
CONTINUOUS
10
6.565
20
-3.34461
11
6.56699
21
-3.34426
0
LINE
8
BLACK
6
CONTINUOUS
10
6.56699
20
-3.34426
11
6.56873
21
-3.34527
  0
ENDSEC
  0
EOF
