  0
SECTION
  2
HEADER
  9
$ANGBASE
  50
0.0
  9
$ANGDIR
  70
1
  9
$MEASUREMENT
  70
0
  0
ENDSEC
  0
SECTION
  2
TABLES
  0
TABLE
  2
LTYPE
  70
4
  0
LTYPE
  5
40F
  2
CONTINUOUS
  70
0
  3
Solid line
  72
65
  73
0
  40
0.0
  0
LTYPE
  5
410
  2
DASHDOT
 70
0
  3
Dash Dot ____ _ ____ _
 72
65
 73
4
 40
2.0
 49
1.25
 49
-0.25
 49
0.25
 49
-0.25
  0
LTYPE
  5
411
  2
DASHED
 70
0
  3
Dashed __ __ __ __ __
 72
65
 73
2
 40
0.75
 49
0.5
 49
-0.25
  0
LTYPE
  5
43B
  2
DOTTED
 70
0
  3
Dotted .  .  .  .
 72
65
 73
2
 40
0.2
 49
0.0
 49
-0.2
  0
ENDTAB
  0
TABLE
  2
STYLE
  70
4
  0
STYLE
  2
KICAD
  70
0
  40
0
  41
1
  42
1
  50
0
  71
0
  3
isocp.shx
  0
STYLE
  2
KICADB
  70
0
  40
0
  41
1
  42
1
  50
0
  71
0
  3
isocp.shx
  0
STYLE
  2
KICADI
  70
0
  40
0
  41
1
  42
1
  50
15
  71
0
  3
isocp.shx
  0
STYLE
  2
KICADBI
  70
0
  40
0
  41
1
  42
1
  50
15
  71
0
  3
isocp.shx
  0
ENDTAB
  0
TABLE
  2
LAYER
  70
1
  0
LAYER
  2
BLACK
  70
0
  62
7
  6
CONTINUOUS
  0
ENDTAB
  0
ENDSEC
  0
SECTION
  2
ENTITIES
0
LINE
8
BLACK
6
CONTINUOUS
10
5.04082
20
-4.52792
11
5.05475
21
-4.53028
0
LINE
8
BLACK
6
CONTINUOUS
10
5.05475
20
-4.53028
11
5.06832
21
-4.5342
0
LINE
8
BLACK
6
CONTINUOUS
10
5.06832
20
-4.5342
11
5.08138
21
-4.5396
0
LINE
8
BLACK
6
CONTINUOUS
10
5.08138
20
-4.5396
11
5.09374
21
-4.54644
0
LINE
8
BLACK
6
CONTINUOUS
10
5.09374
20
-4.54644
11
5.10526
21
-4.55461
0
LINE
8
BLACK
6
CONTINUOUS
10
5.10526
20
-4.55461
11
5.1158
21
-4.56403
0
LINE
8
BLACK
6
CONTINUOUS
10
5.1158
20
-4.56403
11
5.12521
21
-4.57456
0
LINE
8
BLACK
6
CONTINUOUS
10
5.12521
20
-4.57456
11
5.13339
21
-4.58608
0
LINE
8
BLACK
6
CONTINUOUS
10
5.13339
20
-4.58608
11
5.14022
21
-4.59845
0
LINE
8
BLACK
6
CONTINUOUS
10
5.14022
20
-4.59845
11
5.14563
21
-4.6115
0
LINE
8
BLACK
6
CONTINUOUS
10
5.14563
20
-4.6115
11
5.14954
21
-4.62508
0
LINE
8
BLACK
6
CONTINUOUS
10
5.14954
20
-4.62508
11
5.1519
21
-4.639
0
LINE
8
BLACK
6
CONTINUOUS
10
5.1519
20
-4.639
11
5.1527
21
-4.65311
0
LINE
8
BLACK
6
CONTINUOUS
10
5.1527
20
-4.65311
11
5.1519
21
-4.66722
0
LINE
8
BLACK
6
CONTINUOUS
10
5.1519
20
-4.66722
11
5.14954
21
-4.68114
0
LINE
8
BLACK
6
CONTINUOUS
10
5.14954
20
-4.68114
11
5.14563
21
-4.69472
0
LINE
8
BLACK
6
CONTINUOUS
10
5.14563
20
-4.69472
11
5.14022
21
-4.70777
0
LINE
8
BLACK
6
CONTINUOUS
10
5.14022
20
-4.70777
11
5.13339
21
-4.72014
0
LINE
8
BLACK
6
CONTINUOUS
10
5.13339
20
-4.72014
11
5.12521
21
-4.73166
0
LINE
8
BLACK
6
CONTINUOUS
10
5.12521
20
-4.73166
11
5.1158
21
-4.74219
0
LINE
8
BLACK
6
CONTINUOUS
10
5.1158
20
-4.74219
11
5.10526
21
-4.75161
0
LINE
8
BLACK
6
CONTINUOUS
10
5.10526
20
-4.75161
11
5.09374
21
-4.75978
0
LINE
8
BLACK
6
CONTINUOUS
10
5.09374
20
-4.75978
11
5.08138
21
-4.76662
0
LINE
8
BLACK
6
CONTINUOUS
10
5.08138
20
-4.76662
11
5.06832
21
-4.77202
0
LINE
8
BLACK
6
CONTINUOUS
10
5.06832
20
-4.77202
11
5.05475
21
-4.77594
0
LINE
8
BLACK
6
CONTINUOUS
10
5.05475
20
-4.77594
11
5.04082
21
-4.7783
0
LINE
8
BLACK
6
CONTINUOUS
10
5.04082
20
-4.7783
11
5.02671
21
-4.77909
0
LINE
8
BLACK
6
CONTINUOUS
10
5.02671
20
-4.77909
11
5.01261
21
-4.7783
0
LINE
8
BLACK
6
CONTINUOUS
10
5.01261
20
-4.7783
11
4.99868
21
-4.77594
0
LINE
8
BLACK
6
CONTINUOUS
10
4.99868
20
-4.77594
11
4.9851
21
-4.77202
0
LINE
8
BLACK
6
CONTINUOUS
10
4.9851
20
-4.77202
11
4.97205
21
-4.76662
0
LINE
8
BLACK
6
CONTINUOUS
10
4.97205
20
-4.76662
11
4.95968
21
-4.75978
0
LINE
8
BLACK
6
CONTINUOUS
10
4.95968
20
-4.75978
11
4.94816
21
-4.75161
0
LINE
8
BLACK
6
CONTINUOUS
10
4.94816
20
-4.75161
11
4.93763
21
-4.74219
0
LINE
8
BLACK
6
CONTINUOUS
10
4.93763
20
-4.74219
11
4.92821
21
-4.73166
0
LINE
8
BLACK
6
CONTINUOUS
10
4.92821
20
-4.73166
11
4.92004
21
-4.72014
0
LINE
8
BLACK
6
CONTINUOUS
10
4.92004
20
-4.72014
11
4.9132
21
-4.70777
0
LINE
8
BLACK
6
CONTINUOUS
10
4.9132
20
-4.70777
11
4.9078
21
-4.69472
0
LINE
8
BLACK
6
CONTINUOUS
10
4.9078
20
-4.69472
11
4.90389
21
-4.68114
0
LINE
8
BLACK
6
CONTINUOUS
10
4.90389
20
-4.68114
11
4.90152
21
-4.66722
0
LINE
8
BLACK
6
CONTINUOUS
10
4.90152
20
-4.66722
11
4.90073
21
-4.65311
0
LINE
8
BLACK
6
CONTINUOUS
10
4.90073
20
-4.65311
11
4.90152
21
-4.639
0
LINE
8
BLACK
6
CONTINUOUS
10
4.90152
20
-4.639
11
4.90389
21
-4.62508
0
LINE
8
BLACK
6
CONTINUOUS
10
4.90389
20
-4.62508
11
4.9078
21
-4.6115
0
LINE
8
BLACK
6
CONTINUOUS
10
4.9078
20
-4.6115
11
4.9132
21
-4.59845
0
LINE
8
BLACK
6
CONTINUOUS
10
4.9132
20
-4.59845
11
4.92004
21
-4.58608
0
LINE
8
BLACK
6
CONTINUOUS
10
4.92004
20
-4.58608
11
4.92821
21
-4.57456
0
LINE
8
BLACK
6
CONTINUOUS
10
4.92821
20
-4.57456
11
4.93763
21
-4.56403
0
LINE
8
BLACK
6
CONTINUOUS
10
4.93763
20
-4.56403
11
4.94816
21
-4.55461
0
LINE
8
BLACK
6
CONTINUOUS
10
4.94816
20
-4.55461
11
4.95968
21
-4.54644
0
LINE
8
BLACK
6
CONTINUOUS
10
4.95968
20
-4.54644
11
4.97205
21
-4.5396
0
LINE
8
BLACK
6
CONTINUOUS
10
4.97205
20
-4.5396
11
4.9851
21
-4.5342
0
LINE
8
BLACK
6
CONTINUOUS
10
4.9851
20
-4.5342
11
4.99868
21
-4.53028
0
LINE
8
BLACK
6
CONTINUOUS
10
4.99868
20
-4.53028
11
5.01261
21
-4.52792
0
LINE
8
BLACK
6
CONTINUOUS
10
5.01261
20
-4.52792
11
5.02671
21
-4.52713
0
LINE
8
BLACK
6
CONTINUOUS
10
5.02671
20
-4.52713
11
5.04082
21
-4.52792
0
LINE
8
BLACK
6
CONTINUOUS
10
6.6172
20
-4.52792
11
6.63112
21
-4.53028
0
LINE
8
BLACK
6
CONTINUOUS
10
6.63112
20
-4.53028
11
6.6447
21
-4.5342
0
LINE
8
BLACK
6
CONTINUOUS
10
6.6447
20
-4.5342
11
6.65775
21
-4.5396
0
LINE
8
BLACK
6
CONTINUOUS
10
6.65775
20
-4.5396
11
6.67012
21
-4.54644
0
LINE
8
BLACK
6
CONTINUOUS
10
6.67012
20
-4.54644
11
6.68164
21
-4.55461
0
LINE
8
BLACK
6
CONTINUOUS
10
6.68164
20
-4.55461
11
6.69217
21
-4.56403
0
LINE
8
BLACK
6
CONTINUOUS
10
6.69217
20
-4.56403
11
6.70159
21
-4.57456
0
LINE
8
BLACK
6
CONTINUOUS
10
6.70159
20
-4.57456
11
6.70976
21
-4.58608
0
LINE
8
BLACK
6
CONTINUOUS
10
6.70976
20
-4.58608
11
6.7166
21
-4.59845
0
LINE
8
BLACK
6
CONTINUOUS
10
6.7166
20
-4.59845
11
6.72201
21
-4.6115
0
LINE
8
BLACK
6
CONTINUOUS
10
6.72201
20
-4.6115
11
6.72592
21
-4.62508
0
LINE
8
BLACK
6
CONTINUOUS
10
6.72592
20
-4.62508
11
6.72828
21
-4.639
0
LINE
8
BLACK
6
CONTINUOUS
10
6.72828
20
-4.639
11
6.72907
21
-4.65311
0
LINE
8
BLACK
6
CONTINUOUS
10
6.72907
20
-4.65311
11
6.72828
21
-4.66722
0
LINE
8
BLACK
6
CONTINUOUS
10
6.72828
20
-4.66722
11
6.72592
21
-4.68114
0
LINE
8
BLACK
6
CONTINUOUS
10
6.72592
20
-4.68114
11
6.72201
21
-4.69472
0
LINE
8
BLACK
6
CONTINUOUS
10
6.72201
20
-4.69472
11
6.7166
21
-4.70777
0
LINE
8
BLACK
6
CONTINUOUS
10
6.7166
20
-4.70777
11
6.70976
21
-4.72014
0
LINE
8
BLACK
6
CONTINUOUS
10
6.70976
20
-4.72014
11
6.70159
21
-4.73166
0
LINE
8
BLACK
6
CONTINUOUS
10
6.70159
20
-4.73166
11
6.69217
21
-4.74219
0
LINE
8
BLACK
6
CONTINUOUS
10
6.69217
20
-4.74219
11
6.68164
21
-4.75161
0
LINE
8
BLACK
6
CONTINUOUS
10
6.68164
20
-4.75161
11
6.67012
21
-4.75978
0
LINE
8
BLACK
6
CONTINUOUS
10
6.67012
20
-4.75978
11
6.65775
21
-4.76662
0
LINE
8
BLACK
6
CONTINUOUS
10
6.65775
20
-4.76662
11
6.6447
21
-4.77202
0
LINE
8
BLACK
6
CONTINUOUS
10
6.6447
20
-4.77202
11
6.63112
21
-4.77594
0
LINE
8
BLACK
6
CONTINUOUS
10
6.63112
20
-4.77594
11
6.6172
21
-4.7783
0
LINE
8
BLACK
6
CONTINUOUS
10
6.6172
20
-4.7783
11
6.60309
21
-4.77909
0
LINE
8
BLACK
6
CONTINUOUS
10
6.60309
20
-4.77909
11
6.58898
21
-4.7783
0
LINE
8
BLACK
6
CONTINUOUS
10
6.58898
20
-4.7783
11
6.57506
21
-4.77594
0
LINE
8
BLACK
6
CONTINUOUS
10
6.57506
20
-4.77594
11
6.56148
21
-4.77202
0
LINE
8
BLACK
6
CONTINUOUS
10
6.56148
20
-4.77202
11
6.54843
21
-4.76662
0
LINE
8
BLACK
6
CONTINUOUS
10
6.54843
20
-4.76662
11
6.53606
21
-4.75978
0
LINE
8
BLACK
6
CONTINUOUS
10
6.53606
20
-4.75978
11
6.52454
21
-4.75161
0
LINE
8
BLACK
6
CONTINUOUS
10
6.52454
20
-4.75161
11
6.51401
21
-4.74219
0
LINE
8
BLACK
6
CONTINUOUS
10
6.51401
20
-4.74219
11
6.50459
21
-4.73166
0
LINE
8
BLACK
6
CONTINUOUS
10
6.50459
20
-4.73166
11
6.49642
21
-4.72014
0
LINE
8
BLACK
6
CONTINUOUS
10
6.49642
20
-4.72014
11
6.48958
21
-4.70777
0
LINE
8
BLACK
6
CONTINUOUS
10
6.48958
20
-4.70777
11
6.48418
21
-4.69472
0
LINE
8
BLACK
6
CONTINUOUS
10
6.48418
20
-4.69472
11
6.48027
21
-4.68114
0
LINE
8
BLACK
6
CONTINUOUS
10
6.48027
20
-4.68114
11
6.4779
21
-4.66722
0
LINE
8
BLACK
6
CONTINUOUS
10
6.4779
20
-4.66722
11
6.47711
21
-4.65311
0
LINE
8
BLACK
6
CONTINUOUS
10
6.47711
20
-4.65311
11
6.4779
21
-4.639
0
LINE
8
BLACK
6
CONTINUOUS
10
6.4779
20
-4.639
11
6.48027
21
-4.62508
0
LINE
8
BLACK
6
CONTINUOUS
10
6.48027
20
-4.62508
11
6.48418
21
-4.6115
0
LINE
8
BLACK
6
CONTINUOUS
10
6.48418
20
-4.6115
11
6.48958
21
-4.59845
0
LINE
8
BLACK
6
CONTINUOUS
10
6.48958
20
-4.59845
11
6.49642
21
-4.58608
0
LINE
8
BLACK
6
CONTINUOUS
10
6.49642
20
-4.58608
11
6.50459
21
-4.57456
0
LINE
8
BLACK
6
CONTINUOUS
10
6.50459
20
-4.57456
11
6.51401
21
-4.56403
0
LINE
8
BLACK
6
CONTINUOUS
10
6.51401
20
-4.56403
11
6.52454
21
-4.55461
0
LINE
8
BLACK
6
CONTINUOUS
10
6.52454
20
-4.55461
11
6.53606
21
-4.54644
0
LINE
8
BLACK
6
CONTINUOUS
10
6.53606
20
-4.54644
11
6.54843
21
-4.5396
0
LINE
8
BLACK
6
CONTINUOUS
10
6.54843
20
-4.5396
11
6.56148
21
-4.5342
0
LINE
8
BLACK
6
CONTINUOUS
10
6.56148
20
-4.5342
11
6.57506
21
-4.53028
0
LINE
8
BLACK
6
CONTINUOUS
10
6.57506
20
-4.53028
11
6.58898
21
-4.52792
0
LINE
8
BLACK
6
CONTINUOUS
10
6.58898
20
-4.52792
11
6.60309
21
-4.52713
0
LINE
8
BLACK
6
CONTINUOUS
10
6.60309
20
-4.52713
11
6.6172
21
-4.52792
0
LINE
8
BLACK
6
CONTINUOUS
10
5.98739
20
-3.84014
11
5.99309
21
-3.8425
0
LINE
8
BLACK
6
CONTINUOUS
10
5.99309
20
-3.8425
11
5.99798
21
-3.84625
0
LINE
8
BLACK
6
CONTINUOUS
10
5.99798
20
-3.84625
11
6.00174
21
-3.85114
0
LINE
8
BLACK
6
CONTINUOUS
10
6.00174
20
-3.85114
11
6.0041
21
-3.85684
0
LINE
8
BLACK
6
CONTINUOUS
10
6.0041
20
-3.85684
11
6.0049
21
-3.86295
0
LINE
8
BLACK
6
CONTINUOUS
10
6.0049
20
-3.86295
11
6.0041
21
-3.86907
0
LINE
8
BLACK
6
CONTINUOUS
10
6.0041
20
-3.86907
11
6.00174
21
-3.87476
0
LINE
8
BLACK
6
CONTINUOUS
10
6.00174
20
-3.87476
11
5.99798
21
-3.87966
0
LINE
8
BLACK
6
CONTINUOUS
10
5.99798
20
-3.87966
11
5.99309
21
-3.88341
0
LINE
8
BLACK
6
CONTINUOUS
10
5.99309
20
-3.88341
11
5.98739
21
-3.88577
0
LINE
8
BLACK
6
CONTINUOUS
10
5.98739
20
-3.88577
11
5.98128
21
-3.88657
0
LINE
8
BLACK
6
CONTINUOUS
10
5.98128
20
-3.88657
11
5.97517
21
-3.88577
0
LINE
8
BLACK
6
CONTINUOUS
10
5.97517
20
-3.88577
11
5.96947
21
-3.88341
0
LINE
8
BLACK
6
CONTINUOUS
10
5.96947
20
-3.88341
11
5.96458
21
-3.87966
0
LINE
8
BLACK
6
CONTINUOUS
10
5.96458
20
-3.87966
11
5.96082
21
-3.87476
0
LINE
8
BLACK
6
CONTINUOUS
10
5.96082
20
-3.87476
11
5.95846
21
-3.86907
0
LINE
8
BLACK
6
CONTINUOUS
10
5.95846
20
-3.86907
11
5.95766
21
-3.86295
0
LINE
8
BLACK
6
CONTINUOUS
10
5.95766
20
-3.86295
11
5.95846
21
-3.85684
0
LINE
8
BLACK
6
CONTINUOUS
10
5.95846
20
-3.85684
11
5.96082
21
-3.85114
0
LINE
8
BLACK
6
CONTINUOUS
10
5.96082
20
-3.85114
11
5.96458
21
-3.84625
0
LINE
8
BLACK
6
CONTINUOUS
10
5.96458
20
-3.84625
11
5.96947
21
-3.8425
0
LINE
8
BLACK
6
CONTINUOUS
10
5.96947
20
-3.8425
11
5.97517
21
-3.84014
0
LINE
8
BLACK
6
CONTINUOUS
10
5.97517
20
-3.84014
11
5.98128
21
-3.83933
0
LINE
8
BLACK
6
CONTINUOUS
10
5.98128
20
-3.83933
11
5.98739
21
-3.84014
0
LINE
8
BLACK
6
CONTINUOUS
10
6.64539
20
-3.71758
11
6.65434
21
-3.71998
0
LINE
8
BLACK
6
CONTINUOUS
10
6.65434
20
-3.71998
11
6.66274
21
-3.72389
0
LINE
8
BLACK
6
CONTINUOUS
10
6.66274
20
-3.72389
11
6.67033
21
-3.72921
0
LINE
8
BLACK
6
CONTINUOUS
10
6.67033
20
-3.72921
11
6.67688
21
-3.73576
0
LINE
8
BLACK
6
CONTINUOUS
10
6.67688
20
-3.73576
11
6.68219
21
-3.74335
0
LINE
8
BLACK
6
CONTINUOUS
10
6.68219
20
-3.74335
11
6.68611
21
-3.75174
0
LINE
8
BLACK
6
CONTINUOUS
10
6.68611
20
-3.75174
11
6.6885
21
-3.76069
0
LINE
8
BLACK
6
CONTINUOUS
10
6.6885
20
-3.76069
11
6.68931
21
-3.76992
0
LINE
8
BLACK
6
CONTINUOUS
10
6.68931
20
-3.76992
11
6.6885
21
-3.77915
0
LINE
8
BLACK
6
CONTINUOUS
10
6.6885
20
-3.77915
11
6.68611
21
-3.7881
0
LINE
8
BLACK
6
CONTINUOUS
10
6.68611
20
-3.7881
11
6.68219
21
-3.7965
0
LINE
8
BLACK
6
CONTINUOUS
10
6.68219
20
-3.7965
11
6.67688
21
-3.80409
0
LINE
8
BLACK
6
CONTINUOUS
10
6.67688
20
-3.80409
11
6.67033
21
-3.81064
0
LINE
8
BLACK
6
CONTINUOUS
10
6.67033
20
-3.81064
11
6.66274
21
-3.81595
0
LINE
8
BLACK
6
CONTINUOUS
10
6.66274
20
-3.81595
11
6.65434
21
-3.81987
0
LINE
8
BLACK
6
CONTINUOUS
10
6.65434
20
-3.81987
11
6.64539
21
-3.82226
0
LINE
8
BLACK
6
CONTINUOUS
10
6.64539
20
-3.82226
11
6.63616
21
-3.82307
0
LINE
8
BLACK
6
CONTINUOUS
10
6.63616
20
-3.82307
11
6.62693
21
-3.82226
0
LINE
8
BLACK
6
CONTINUOUS
10
6.62693
20
-3.82226
11
6.61798
21
-3.81987
0
LINE
8
BLACK
6
CONTINUOUS
10
6.61798
20
-3.81987
11
6.60959
21
-3.81595
0
LINE
8
BLACK
6
CONTINUOUS
10
6.60959
20
-3.81595
11
6.602
21
-3.81064
0
LINE
8
BLACK
6
CONTINUOUS
10
6.602
20
-3.81064
11
6.59545
21
-3.80409
0
LINE
8
BLACK
6
CONTINUOUS
10
6.59545
20
-3.80409
11
6.59013
21
-3.7965
0
LINE
8
BLACK
6
CONTINUOUS
10
6.59013
20
-3.7965
11
6.58622
21
-3.7881
0
LINE
8
BLACK
6
CONTINUOUS
10
6.58622
20
-3.7881
11
6.58382
21
-3.77915
0
LINE
8
BLACK
6
CONTINUOUS
10
6.58382
20
-3.77915
11
6.58301
21
-3.76992
0
LINE
8
BLACK
6
CONTINUOUS
10
6.58301
20
-3.76992
11
6.58382
21
-3.76069
0
LINE
8
BLACK
6
CONTINUOUS
10
6.58382
20
-3.76069
11
6.58622
21
-3.75174
0
LINE
8
BLACK
6
CONTINUOUS
10
6.58622
20
-3.75174
11
6.59013
21
-3.74335
0
LINE
8
BLACK
6
CONTINUOUS
10
6.59013
20
-3.74335
11
6.59545
21
-3.73576
0
LINE
8
BLACK
6
CONTINUOUS
10
6.59545
20
-3.73576
11
6.602
21
-3.72921
0
LINE
8
BLACK
6
CONTINUOUS
10
6.602
20
-3.72921
11
6.60959
21
-3.72389
0
LINE
8
BLACK
6
CONTINUOUS
10
6.60959
20
-3.72389
11
6.61798
21
-3.71998
0
LINE
8
BLACK
6
CONTINUOUS
10
6.61798
20
-3.71998
11
6.62693
21
-3.71758
0
LINE
8
BLACK
6
CONTINUOUS
10
6.62693
20
-3.71758
11
6.63616
21
-3.71677
0
LINE
8
BLACK
6
CONTINUOUS
10
6.63616
20
-3.71677
11
6.64539
21
-3.71758
0
LINE
8
BLACK
6
CONTINUOUS
10
4.97787
20
-3.68758
11
4.98682
21
-3.68998
0
LINE
8
BLACK
6
CONTINUOUS
10
4.98682
20
-3.68998
11
4.99522
21
-3.69389
0
LINE
8
BLACK
6
CONTINUOUS
10
4.99522
20
-3.69389
11
5.00281
21
-3.69921
0
LINE
8
BLACK
6
CONTINUOUS
10
5.00281
20
-3.69921
11
5.00936
21
-3.70576
0
LINE
8
BLACK
6
CONTINUOUS
10
5.00936
20
-3.70576
11
5.01467
21
-3.71335
0
LINE
8
BLACK
6
CONTINUOUS
10
5.01467
20
-3.71335
11
5.01859
21
-3.72174
0
LINE
8
BLACK
6
CONTINUOUS
10
5.01859
20
-3.72174
11
5.02098
21
-3.73069
0
LINE
8
BLACK
6
CONTINUOUS
10
5.02098
20
-3.73069
11
5.02179
21
-3.73992
0
LINE
8
BLACK
6
CONTINUOUS
10
5.02179
20
-3.73992
11
5.02098
21
-3.74915
0
LINE
8
BLACK
6
CONTINUOUS
10
5.02098
20
-3.74915
11
5.01859
21
-3.7581
0
LINE
8
BLACK
6
CONTINUOUS
10
5.01859
20
-3.7581
11
5.01467
21
-3.7665
0
LINE
8
BLACK
6
CONTINUOUS
10
5.01467
20
-3.7665
11
5.00936
21
-3.77409
0
LINE
8
BLACK
6
CONTINUOUS
10
5.00936
20
-3.77409
11
5.00281
21
-3.78064
0
LINE
8
BLACK
6
CONTINUOUS
10
5.00281
20
-3.78064
11
4.99522
21
-3.78595
0
LINE
8
BLACK
6
CONTINUOUS
10
4.99522
20
-3.78595
11
4.98682
21
-3.78987
0
LINE
8
BLACK
6
CONTINUOUS
10
4.98682
20
-3.78987
11
4.97787
21
-3.79226
0
LINE
8
BLACK
6
CONTINUOUS
10
4.97787
20
-3.79226
11
4.96864
21
-3.79307
0
LINE
8
BLACK
6
CONTINUOUS
10
4.96864
20
-3.79307
11
4.95941
21
-3.79226
0
LINE
8
BLACK
6
CONTINUOUS
10
4.95941
20
-3.79226
11
4.95046
21
-3.78987
0
LINE
8
BLACK
6
CONTINUOUS
10
4.95046
20
-3.78987
11
4.94207
21
-3.78595
0
LINE
8
BLACK
6
CONTINUOUS
10
4.94207
20
-3.78595
11
4.93448
21
-3.78064
0
LINE
8
BLACK
6
CONTINUOUS
10
4.93448
20
-3.78064
11
4.92793
21
-3.77409
0
LINE
8
BLACK
6
CONTINUOUS
10
4.92793
20
-3.77409
11
4.92261
21
-3.7665
0
LINE
8
BLACK
6
CONTINUOUS
10
4.92261
20
-3.7665
11
4.9187
21
-3.7581
0
LINE
8
BLACK
6
CONTINUOUS
10
4.9187
20
-3.7581
11
4.9163
21
-3.74915
0
LINE
8
BLACK
6
CONTINUOUS
10
4.9163
20
-3.74915
11
4.91549
21
-3.73992
0
LINE
8
BLACK
6
CONTINUOUS
10
4.91549
20
-3.73992
11
4.9163
21
-3.73069
0
LINE
8
BLACK
6
CONTINUOUS
10
4.9163
20
-3.73069
11
4.9187
21
-3.72174
0
LINE
8
BLACK
6
CONTINUOUS
10
4.9187
20
-3.72174
11
4.92261
21
-3.71335
0
LINE
8
BLACK
6
CONTINUOUS
10
4.92261
20
-3.71335
11
4.92793
21
-3.70576
0
LINE
8
BLACK
6
CONTINUOUS
10
4.92793
20
-3.70576
11
4.93448
21
-3.69921
0
LINE
8
BLACK
6
CONTINUOUS
10
4.93448
20
-3.69921
11
4.94207
21
-3.69389
0
LINE
8
BLACK
6
CONTINUOUS
10
4.94207
20
-3.69389
11
4.95046
21
-3.68998
0
LINE
8
BLACK
6
CONTINUOUS
10
4.95046
20
-3.68998
11
4.95941
21
-3.68758
0
LINE
8
BLACK
6
CONTINUOUS
10
4.95941
20
-3.68758
11
4.96864
21
-3.68677
0
LINE
8
BLACK
6
CONTINUOUS
10
4.96864
20
-3.68677
11
4.97787
21
-3.68758
0
LINE
8
BLACK
6
CONTINUOUS
10
6.64539
20
-3.58258
11
6.65434
21
-3.58498
0
LINE
8
BLACK
6
CONTINUOUS
10
6.65434
20
-3.58498
11
6.66274
21
-3.58889
0
LINE
8
BLACK
6
CONTINUOUS
10
6.66274
20
-3.58889
11
6.67033
21
-3.59421
0
LINE
8
BLACK
6
CONTINUOUS
10
6.67033
20
-3.59421
11
6.67688
21
-3.60076
0
LINE
8
BLACK
6
CONTINUOUS
10
6.67688
20
-3.60076
11
6.68219
21
-3.60835
0
LINE
8
BLACK
6
CONTINUOUS
10
6.68219
20
-3.60835
11
6.68611
21
-3.61674
0
LINE
8
BLACK
6
CONTINUOUS
10
6.68611
20
-3.61674
11
6.6885
21
-3.62569
0
LINE
8
BLACK
6
CONTINUOUS
10
6.6885
20
-3.62569
11
6.68931
21
-3.63492
0
LINE
8
BLACK
6
CONTINUOUS
10
6.68931
20
-3.63492
11
6.6885
21
-3.64415
0
LINE
8
BLACK
6
CONTINUOUS
10
6.6885
20
-3.64415
11
6.68611
21
-3.6531
0
LINE
8
BLACK
6
CONTINUOUS
10
6.68611
20
-3.6531
11
6.68219
21
-3.6615
0
LINE
8
BLACK
6
CONTINUOUS
10
6.68219
20
-3.6615
11
6.67688
21
-3.66909
0
LINE
8
BLACK
6
CONTINUOUS
10
6.67688
20
-3.66909
11
6.67033
21
-3.67564
0
LINE
8
BLACK
6
CONTINUOUS
10
6.67033
20
-3.67564
11
6.66274
21
-3.68095
0
LINE
8
BLACK
6
CONTINUOUS
10
6.66274
20
-3.68095
11
6.65434
21
-3.68487
0
LINE
8
BLACK
6
CONTINUOUS
10
6.65434
20
-3.68487
11
6.64539
21
-3.68726
0
LINE
8
BLACK
6
CONTINUOUS
10
6.64539
20
-3.68726
11
6.63616
21
-3.68807
0
LINE
8
BLACK
6
CONTINUOUS
10
6.63616
20
-3.68807
11
6.62693
21
-3.68726
0
LINE
8
BLACK
6
CONTINUOUS
10
6.62693
20
-3.68726
11
6.61798
21
-3.68487
0
LINE
8
BLACK
6
CONTINUOUS
10
6.61798
20
-3.68487
11
6.60959
21
-3.68095
0
LINE
8
BLACK
6
CONTINUOUS
10
6.60959
20
-3.68095
11
6.602
21
-3.67564
0
LINE
8
BLACK
6
CONTINUOUS
10
6.602
20
-3.67564
11
6.59545
21
-3.66909
0
LINE
8
BLACK
6
CONTINUOUS
10
6.59545
20
-3.66909
11
6.59013
21
-3.6615
0
LINE
8
BLACK
6
CONTINUOUS
10
6.59013
20
-3.6615
11
6.58622
21
-3.6531
0
LINE
8
BLACK
6
CONTINUOUS
10
6.58622
20
-3.6531
11
6.58382
21
-3.64415
0
LINE
8
BLACK
6
CONTINUOUS
10
6.58382
20
-3.64415
11
6.58301
21
-3.63492
0
LINE
8
BLACK
6
CONTINUOUS
10
6.58301
20
-3.63492
11
6.58382
21
-3.62569
0
LINE
8
BLACK
6
CONTINUOUS
10
6.58382
20
-3.62569
11
6.58622
21
-3.61674
0
LINE
8
BLACK
6
CONTINUOUS
10
6.58622
20
-3.61674
11
6.59013
21
-3.60835
0
LINE
8
BLACK
6
CONTINUOUS
10
6.59013
20
-3.60835
11
6.59545
21
-3.60076
0
LINE
8
BLACK
6
CONTINUOUS
10
6.59545
20
-3.60076
11
6.602
21
-3.59421
0
LINE
8
BLACK
6
CONTINUOUS
10
6.602
20
-3.59421
11
6.60959
21
-3.58889
0
LINE
8
BLACK
6
CONTINUOUS
10
6.60959
20
-3.58889
11
6.61798
21
-3.58498
0
LINE
8
BLACK
6
CONTINUOUS
10
6.61798
20
-3.58498
11
6.62693
21
-3.58258
0
LINE
8
BLACK
6
CONTINUOUS
10
6.62693
20
-3.58258
11
6.63616
21
-3.58177
0
LINE
8
BLACK
6
CONTINUOUS
10
6.63616
20
-3.58177
11
6.64539
21
-3.58258
0
LINE
8
BLACK
6
CONTINUOUS
10
5.10345
20
-3.60665
11
5.1099
21
-3.60818
0
LINE
8
BLACK
6
CONTINUOUS
10
5.1099
20
-3.60818
11
5.11582
21
-3.61115
0
LINE
8
BLACK
6
CONTINUOUS
10
5.11582
20
-3.61115
11
5.1209
21
-3.61541
0
LINE
8
BLACK
6
CONTINUOUS
10
5.1209
20
-3.61541
11
5.12486
21
-3.62073
0
LINE
8
BLACK
6
CONTINUOUS
10
5.12486
20
-3.62073
11
5.12748
21
-3.62681
0
LINE
8
BLACK
6
CONTINUOUS
10
5.12748
20
-3.62681
11
5.12863
21
-3.63334
0
LINE
8
BLACK
6
CONTINUOUS
10
5.12863
20
-3.63334
11
5.12825
21
-3.63996
0
LINE
8
BLACK
6
CONTINUOUS
10
5.12825
20
-3.63996
11
5.12635
21
-3.64631
0
LINE
8
BLACK
6
CONTINUOUS
10
5.12635
20
-3.64631
11
5.12303
21
-3.65204
0
LINE
8
BLACK
6
CONTINUOUS
10
5.12303
20
-3.65204
11
5.11849
21
-3.65687
0
LINE
8
BLACK
6
CONTINUOUS
10
5.11849
20
-3.65687
11
5.11295
21
-3.66051
0
LINE
8
BLACK
6
CONTINUOUS
10
5.11295
20
-3.66051
11
5.10672
21
-3.66277
0
LINE
8
BLACK
6
CONTINUOUS
10
5.10672
20
-3.66277
11
5.10014
21
-3.66354
0
LINE
8
BLACK
6
CONTINUOUS
10
5.10014
20
-3.66354
11
5.0588
21
-3.66354
0
LINE
8
BLACK
6
CONTINUOUS
10
5.0588
20
-3.66354
11
5.05549
21
-3.66335
0
LINE
8
BLACK
6
CONTINUOUS
10
5.05549
20
-3.66335
11
5.04904
21
-3.66182
0
LINE
8
BLACK
6
CONTINUOUS
10
5.04904
20
-3.66182
11
5.04311
21
-3.65885
0
LINE
8
BLACK
6
CONTINUOUS
10
5.04311
20
-3.65885
11
5.03804
21
-3.65459
0
LINE
8
BLACK
6
CONTINUOUS
10
5.03804
20
-3.65459
11
5.03408
21
-3.64927
0
LINE
8
BLACK
6
CONTINUOUS
10
5.03408
20
-3.64927
11
5.03146
21
-3.64319
0
LINE
8
BLACK
6
CONTINUOUS
10
5.03146
20
-3.64319
11
5.0303
21
-3.63666
0
LINE
8
BLACK
6
CONTINUOUS
10
5.0303
20
-3.63666
11
5.03069
21
-3.63004
0
LINE
8
BLACK
6
CONTINUOUS
10
5.03069
20
-3.63004
11
5.03259
21
-3.62369
0
LINE
8
BLACK
6
CONTINUOUS
10
5.03259
20
-3.62369
11
5.0359
21
-3.61796
0
LINE
8
BLACK
6
CONTINUOUS
10
5.0359
20
-3.61796
11
5.04045
21
-3.61313
0
LINE
8
BLACK
6
CONTINUOUS
10
5.04045
20
-3.61313
11
5.04599
21
-3.60949
0
LINE
8
BLACK
6
CONTINUOUS
10
5.04599
20
-3.60949
11
5.05222
21
-3.60723
0
LINE
8
BLACK
6
CONTINUOUS
10
5.05222
20
-3.60723
11
5.0588
21
-3.60646
0
LINE
8
BLACK
6
CONTINUOUS
10
5.0588
20
-3.60646
11
5.10014
21
-3.60646
0
LINE
8
BLACK
6
CONTINUOUS
10
5.10014
20
-3.60646
11
5.10345
21
-3.60665
0
LINE
8
BLACK
6
CONTINUOUS
10
4.94118
20
-3.60824
11
4.94739
21
-3.6106
0
LINE
8
BLACK
6
CONTINUOUS
10
4.94739
20
-3.6106
11
4.95286
21
-3.61437
0
LINE
8
BLACK
6
CONTINUOUS
10
4.95286
20
-3.61437
11
4.95727
21
-3.61934
0
LINE
8
BLACK
6
CONTINUOUS
10
4.95727
20
-3.61934
11
4.96035
21
-3.62523
0
LINE
8
BLACK
6
CONTINUOUS
10
4.96035
20
-3.62523
11
4.96194
21
-3.63168
0
LINE
8
BLACK
6
CONTINUOUS
10
4.96194
20
-3.63168
11
4.96194
21
-3.63832
0
LINE
8
BLACK
6
CONTINUOUS
10
4.96194
20
-3.63832
11
4.96035
21
-3.64477
0
LINE
8
BLACK
6
CONTINUOUS
10
4.96035
20
-3.64477
11
4.95727
21
-3.65066
0
LINE
8
BLACK
6
CONTINUOUS
10
4.95727
20
-3.65066
11
4.95286
21
-3.65563
0
LINE
8
BLACK
6
CONTINUOUS
10
4.95286
20
-3.65563
11
4.94739
21
-3.6594
0
LINE
8
BLACK
6
CONTINUOUS
10
4.94739
20
-3.6594
11
4.94118
21
-3.66176
0
LINE
8
BLACK
6
CONTINUOUS
10
4.94118
20
-3.66176
11
4.93459
21
-3.66256
0
LINE
8
BLACK
6
CONTINUOUS
10
4.93459
20
-3.66256
11
4.89522
21
-3.66256
0
LINE
8
BLACK
6
CONTINUOUS
10
4.89522
20
-3.66256
11
4.88862
21
-3.66176
0
LINE
8
BLACK
6
CONTINUOUS
10
4.88862
20
-3.66176
11
4.88241
21
-3.6594
0
LINE
8
BLACK
6
CONTINUOUS
10
4.88241
20
-3.6594
11
4.87694
21
-3.65563
0
LINE
8
BLACK
6
CONTINUOUS
10
4.87694
20
-3.65563
11
4.87254
21
-3.65066
0
LINE
8
BLACK
6
CONTINUOUS
10
4.87254
20
-3.65066
11
4.86945
21
-3.64477
0
LINE
8
BLACK
6
CONTINUOUS
10
4.86945
20
-3.64477
11
4.86786
21
-3.63832
0
LINE
8
BLACK
6
CONTINUOUS
10
4.86786
20
-3.63832
11
4.86786
21
-3.63168
0
LINE
8
BLACK
6
CONTINUOUS
10
4.86786
20
-3.63168
11
4.86945
21
-3.62523
0
LINE
8
BLACK
6
CONTINUOUS
10
4.86945
20
-3.62523
11
4.87254
21
-3.61934
0
LINE
8
BLACK
6
CONTINUOUS
10
4.87254
20
-3.61934
11
4.87694
21
-3.61437
0
LINE
8
BLACK
6
CONTINUOUS
10
4.87694
20
-3.61437
11
4.88241
21
-3.6106
0
LINE
8
BLACK
6
CONTINUOUS
10
4.88241
20
-3.6106
11
4.88862
21
-3.60824
0
LINE
8
BLACK
6
CONTINUOUS
10
4.88862
20
-3.60824
11
4.89522
21
-3.60744
0
LINE
8
BLACK
6
CONTINUOUS
10
4.89522
20
-3.60744
11
4.93459
21
-3.60744
0
LINE
8
BLACK
6
CONTINUOUS
10
4.93459
20
-3.60744
11
4.94118
21
-3.60824
0
LINE
8
BLACK
6
CONTINUOUS
10
5.06513
20
-3.55874
11
5.07012
21
-3.5608
0
LINE
8
BLACK
6
CONTINUOUS
10
5.07012
20
-3.5608
11
5.0744
21
-3.56409
0
LINE
8
BLACK
6
CONTINUOUS
10
5.0744
20
-3.56409
11
5.07768
21
-3.56837
0
LINE
8
BLACK
6
CONTINUOUS
10
5.07768
20
-3.56837
11
5.07975
21
-3.57335
0
LINE
8
BLACK
6
CONTINUOUS
10
5.07975
20
-3.57335
11
5.08045
21
-3.5787
0
LINE
8
BLACK
6
CONTINUOUS
10
5.08045
20
-3.5787
11
5.07975
21
-3.58405
0
LINE
8
BLACK
6
CONTINUOUS
10
5.07975
20
-3.58405
11
5.07768
21
-3.58904
0
LINE
8
BLACK
6
CONTINUOUS
10
5.07768
20
-3.58904
11
5.0744
21
-3.59332
0
LINE
8
BLACK
6
CONTINUOUS
10
5.0744
20
-3.59332
11
5.07012
21
-3.5966
0
LINE
8
BLACK
6
CONTINUOUS
10
5.07012
20
-3.5966
11
5.06513
21
-3.59867
0
LINE
8
BLACK
6
CONTINUOUS
10
5.06513
20
-3.59867
11
5.05978
21
-3.59937
0
LINE
8
BLACK
6
CONTINUOUS
10
5.05978
20
-3.59937
11
5.05443
21
-3.59867
0
LINE
8
BLACK
6
CONTINUOUS
10
5.05443
20
-3.59867
11
5.04945
21
-3.5966
0
LINE
8
BLACK
6
CONTINUOUS
10
5.04945
20
-3.5966
11
5.04517
21
-3.59332
0
LINE
8
BLACK
6
CONTINUOUS
10
5.04517
20
-3.59332
11
5.04188
21
-3.58904
0
LINE
8
BLACK
6
CONTINUOUS
10
5.04188
20
-3.58904
11
5.03982
21
-3.58405
0
LINE
8
BLACK
6
CONTINUOUS
10
5.03982
20
-3.58405
11
5.03911
21
-3.5787
0
LINE
8
BLACK
6
CONTINUOUS
10
5.03911
20
-3.5787
11
5.03982
21
-3.57335
0
LINE
8
BLACK
6
CONTINUOUS
10
5.03982
20
-3.57335
11
5.04188
21
-3.56837
0
LINE
8
BLACK
6
CONTINUOUS
10
5.04188
20
-3.56837
11
5.04517
21
-3.56409
0
LINE
8
BLACK
6
CONTINUOUS
10
5.04517
20
-3.56409
11
5.04945
21
-3.5608
0
LINE
8
BLACK
6
CONTINUOUS
10
5.04945
20
-3.5608
11
5.05443
21
-3.55874
0
LINE
8
BLACK
6
CONTINUOUS
10
5.05443
20
-3.55874
11
5.05978
21
-3.55803
0
LINE
8
BLACK
6
CONTINUOUS
10
5.05978
20
-3.55803
11
5.06513
21
-3.55874
0
LINE
8
BLACK
6
CONTINUOUS
10
6.64539
20
-3.44758
11
6.65434
21
-3.44998
0
LINE
8
BLACK
6
CONTINUOUS
10
6.65434
20
-3.44998
11
6.66274
21
-3.45389
0
LINE
8
BLACK
6
CONTINUOUS
10
6.66274
20
-3.45389
11
6.67033
21
-3.45921
0
LINE
8
BLACK
6
CONTINUOUS
10
6.67033
20
-3.45921
11
6.67688
21
-3.46576
0
LINE
8
BLACK
6
CONTINUOUS
10
6.67688
20
-3.46576
11
6.68219
21
-3.47335
0
LINE
8
BLACK
6
CONTINUOUS
10
6.68219
20
-3.47335
11
6.68611
21
-3.48174
0
LINE
8
BLACK
6
CONTINUOUS
10
6.68611
20
-3.48174
11
6.6885
21
-3.49069
0
LINE
8
BLACK
6
CONTINUOUS
10
6.6885
20
-3.49069
11
6.68931
21
-3.49992
0
LINE
8
BLACK
6
CONTINUOUS
10
6.68931
20
-3.49992
11
6.6885
21
-3.50915
0
LINE
8
BLACK
6
CONTINUOUS
10
6.6885
20
-3.50915
11
6.68611
21
-3.5181
0
LINE
8
BLACK
6
CONTINUOUS
10
6.68611
20
-3.5181
11
6.68219
21
-3.5265
0
LINE
8
BLACK
6
CONTINUOUS
10
6.68219
20
-3.5265
11
6.67688
21
-3.53409
0
LINE
8
BLACK
6
CONTINUOUS
10
6.67688
20
-3.53409
11
6.67033
21
-3.54064
0
LINE
8
BLACK
6
CONTINUOUS
10
6.67033
20
-3.54064
11
6.66274
21
-3.54595
0
LINE
8
BLACK
6
CONTINUOUS
10
6.66274
20
-3.54595
11
6.65434
21
-3.54987
0
LINE
8
BLACK
6
CONTINUOUS
10
6.65434
20
-3.54987
11
6.64539
21
-3.55226
0
LINE
8
BLACK
6
CONTINUOUS
10
6.64539
20
-3.55226
11
6.63616
21
-3.55307
0
LINE
8
BLACK
6
CONTINUOUS
10
6.63616
20
-3.55307
11
6.62693
21
-3.55226
0
LINE
8
BLACK
6
CONTINUOUS
10
6.62693
20
-3.55226
11
6.61798
21
-3.54987
0
LINE
8
BLACK
6
CONTINUOUS
10
6.61798
20
-3.54987
11
6.60959
21
-3.54595
0
LINE
8
BLACK
6
CONTINUOUS
10
6.60959
20
-3.54595
11
6.602
21
-3.54064
0
LINE
8
BLACK
6
CONTINUOUS
10
6.602
20
-3.54064
11
6.59545
21
-3.53409
0
LINE
8
BLACK
6
CONTINUOUS
10
6.59545
20
-3.53409
11
6.59013
21
-3.5265
0
LINE
8
BLACK
6
CONTINUOUS
10
6.59013
20
-3.5265
11
6.58622
21
-3.5181
0
LINE
8
BLACK
6
CONTINUOUS
10
6.58622
20
-3.5181
11
6.58382
21
-3.50915
0
LINE
8
BLACK
6
CONTINUOUS
10
6.58382
20
-3.50915
11
6.58301
21
-3.49992
0
LINE
8
BLACK
6
CONTINUOUS
10
6.58301
20
-3.49992
11
6.58382
21
-3.49069
0
LINE
8
BLACK
6
CONTINUOUS
10
6.58382
20
-3.49069
11
6.58622
21
-3.48174
0
LINE
8
BLACK
6
CONTINUOUS
10
6.58622
20
-3.48174
11
6.59013
21
-3.47335
0
LINE
8
BLACK
6
CONTINUOUS
10
6.59013
20
-3.47335
11
6.59545
21
-3.46576
0
LINE
8
BLACK
6
CONTINUOUS
10
6.59545
20
-3.46576
11
6.602
21
-3.45921
0
LINE
8
BLACK
6
CONTINUOUS
10
6.602
20
-3.45921
11
6.60959
21
-3.45389
0
LINE
8
BLACK
6
CONTINUOUS
10
6.60959
20
-3.45389
11
6.61798
21
-3.44998
0
LINE
8
BLACK
6
CONTINUOUS
10
6.61798
20
-3.44998
11
6.62693
21
-3.44758
0
LINE
8
BLACK
6
CONTINUOUS
10
6.62693
20
-3.44758
11
6.63616
21
-3.44677
0
LINE
8
BLACK
6
CONTINUOUS
10
6.63616
20
-3.44677
11
6.64539
21
-3.44758
0
LINE
8
BLACK
6
CONTINUOUS
10
6.64539
20
-3.31073
11
6.65434
21
-3.31313
0
LINE
8
BLACK
6
CONTINUOUS
10
6.65434
20
-3.31313
11
6.66274
21
-3.31704
0
LINE
8
BLACK
6
CONTINUOUS
10
6.66274
20
-3.31704
11
6.67033
21
-3.32236
0
LINE
8
BLACK
6
CONTINUOUS
10
6.67033
20
-3.32236
11
6.67688
21
-3.32891
0
LINE
8
BLACK
6
CONTINUOUS
10
6.67688
20
-3.32891
11
6.68219
21
-3.3365
0
LINE
8
BLACK
6
CONTINUOUS
10
6.68219
20
-3.3365
11
6.68611
21
-3.34489
0
LINE
8
BLACK
6
CONTINUOUS
10
6.68611
20
-3.34489
11
6.6885
21
-3.35384
0
LINE
8
BLACK
6
CONTINUOUS
10
6.6885
20
-3.35384
11
6.68931
21
-3.36307
0
LINE
8
BLACK
6
CONTINUOUS
10
6.68931
20
-3.36307
11
6.6885
21
-3.3723
0
LINE
8
BLACK
6
CONTINUOUS
10
6.6885
20
-3.3723
11
6.68611
21
-3.38125
0
LINE
8
BLACK
6
CONTINUOUS
10
6.68611
20
-3.38125
11
6.68219
21
-3.38965
0
LINE
8
BLACK
6
CONTINUOUS
10
6.68219
20
-3.38965
11
6.67688
21
-3.39723
0
LINE
8
BLACK
6
CONTINUOUS
10
6.67688
20
-3.39723
11
6.67033
21
-3.40379
0
LINE
8
BLACK
6
CONTINUOUS
10
6.67033
20
-3.40379
11
6.66274
21
-3.4091
0
LINE
8
BLACK
6
CONTINUOUS
10
6.66274
20
-3.4091
11
6.65434
21
-3.41302
0
LINE
8
BLACK
6
CONTINUOUS
10
6.65434
20
-3.41302
11
6.64539
21
-3.41541
0
LINE
8
BLACK
6
CONTINUOUS
10
6.64539
20
-3.41541
11
6.63616
21
-3.41622
0
LINE
8
BLACK
6
CONTINUOUS
10
6.63616
20
-3.41622
11
6.62693
21
-3.41541
0
LINE
8
BLACK
6
CONTINUOUS
10
6.62693
20
-3.41541
11
6.61798
21
-3.41302
0
LINE
8
BLACK
6
CONTINUOUS
10
6.61798
20
-3.41302
11
6.60959
21
-3.4091
0
LINE
8
BLACK
6
CONTINUOUS
10
6.60959
20
-3.4091
11
6.602
21
-3.40379
0
LINE
8
BLACK
6
CONTINUOUS
10
6.602
20
-3.40379
11
6.59545
21
-3.39723
0
LINE
8
BLACK
6
CONTINUOUS
10
6.59545
20
-3.39723
11
6.59013
21
-3.38965
0
LINE
8
BLACK
6
CONTINUOUS
10
6.59013
20
-3.38965
11
6.58622
21
-3.38125
0
LINE
8
BLACK
6
CONTINUOUS
10
6.58622
20
-3.38125
11
6.58382
21
-3.3723
0
LINE
8
BLACK
6
CONTINUOUS
10
6.58382
20
-3.3723
11
6.58301
21
-3.36307
0
LINE
8
BLACK
6
CONTINUOUS
10
6.58301
20
-3.36307
11
6.58382
21
-3.35384
0
LINE
8
BLACK
6
CONTINUOUS
10
6.58382
20
-3.35384
11
6.58622
21
-3.34489
0
LINE
8
BLACK
6
CONTINUOUS
10
6.58622
20
-3.34489
11
6.59013
21
-3.3365
0
LINE
8
BLACK
6
CONTINUOUS
10
6.59013
20
-3.3365
11
6.59545
21
-3.32891
0
LINE
8
BLACK
6
CONTINUOUS
10
6.59545
20
-3.32891
11
6.602
21
-3.32236
0
LINE
8
BLACK
6
CONTINUOUS
10
6.602
20
-3.32236
11
6.60959
21
-3.31704
0
LINE
8
BLACK
6
CONTINUOUS
10
6.60959
20
-3.31704
11
6.61798
21
-3.31313
0
LINE
8
BLACK
6
CONTINUOUS
10
6.61798
20
-3.31313
11
6.62693
21
-3.31073
0
LINE
8
BLACK
6
CONTINUOUS
10
6.62693
20
-3.31073
11
6.63616
21
-3.30992
0
LINE
8
BLACK
6
CONTINUOUS
10
6.63616
20
-3.30992
11
6.64539
21
-3.31073
0
LINE
8
BLACK
6
CONTINUOUS
10
5.06513
20
-3.33118
11
5.07012
21
-3.33324
0
LINE
8
BLACK
6
CONTINUOUS
10
5.07012
20
-3.33324
11
5.0744
21
-3.33653
0
LINE
8
BLACK
6
CONTINUOUS
10
5.0744
20
-3.33653
11
5.07768
21
-3.34081
0
LINE
8
BLACK
6
CONTINUOUS
10
5.07768
20
-3.34081
11
5.07975
21
-3.34579
0
LINE
8
BLACK
6
CONTINUOUS
10
5.07975
20
-3.34579
11
5.08045
21
-3.35114
0
LINE
8
BLACK
6
CONTINUOUS
10
5.08045
20
-3.35114
11
5.07975
21
-3.35649
0
LINE
8
BLACK
6
CONTINUOUS
10
5.07975
20
-3.35649
11
5.07768
21
-3.36148
0
LINE
8
BLACK
6
CONTINUOUS
10
5.07768
20
-3.36148
11
5.0744
21
-3.36576
0
LINE
8
BLACK
6
CONTINUOUS
10
5.0744
20
-3.36576
11
5.07012
21
-3.36904
0
LINE
8
BLACK
6
CONTINUOUS
10
5.07012
20
-3.36904
11
5.06513
21
-3.37111
0
LINE
8
BLACK
6
CONTINUOUS
10
5.06513
20
-3.37111
11
5.05978
21
-3.37181
0
LINE
8
BLACK
6
CONTINUOUS
10
5.05978
20
-3.37181
11
5.05443
21
-3.37111
0
LINE
8
BLACK
6
CONTINUOUS
10
5.05443
20
-3.37111
11
5.04945
21
-3.36904
0
LINE
8
BLACK
6
CONTINUOUS
10
5.04945
20
-3.36904
11
5.04517
21
-3.36576
0
LINE
8
BLACK
6
CONTINUOUS
10
5.04517
20
-3.36576
11
5.04188
21
-3.36148
0
LINE
8
BLACK
6
CONTINUOUS
10
5.04188
20
-3.36148
11
5.03982
21
-3.35649
0
LINE
8
BLACK
6
CONTINUOUS
10
5.03982
20
-3.35649
11
5.03911
21
-3.35114
0
LINE
8
BLACK
6
CONTINUOUS
10
5.03911
20
-3.35114
11
5.03982
21
-3.34579
0
LINE
8
BLACK
6
CONTINUOUS
10
5.03982
20
-3.34579
11
5.04188
21
-3.34081
0
LINE
8
BLACK
6
CONTINUOUS
10
5.04188
20
-3.34081
11
5.04517
21
-3.33653
0
LINE
8
BLACK
6
CONTINUOUS
10
5.04517
20
-3.33653
11
5.04945
21
-3.33324
0
LINE
8
BLACK
6
CONTINUOUS
10
5.04945
20
-3.33324
11
5.05443
21
-3.33118
0
LINE
8
BLACK
6
CONTINUOUS
10
5.05443
20
-3.33118
11
5.05978
21
-3.33047
0
LINE
8
BLACK
6
CONTINUOUS
10
5.05978
20
-3.33047
11
5.06513
21
-3.33118
0
LINE
8
BLACK
6
CONTINUOUS
10
5.10345
20
-3.26649
11
5.1099
21
-3.26802
0
LINE
8
BLACK
6
CONTINUOUS
10
5.1099
20
-3.26802
11
5.11582
21
-3.27099
0
LINE
8
BLACK
6
CONTINUOUS
10
5.11582
20
-3.27099
11
5.1209
21
-3.27525
0
LINE
8
BLACK
6
CONTINUOUS
10
5.1209
20
-3.27525
11
5.12486
21
-3.28057
0
LINE
8
BLACK
6
CONTINUOUS
10
5.12486
20
-3.28057
11
5.12748
21
-3.28666
0
LINE
8
BLACK
6
CONTINUOUS
10
5.12748
20
-3.28666
11
5.12863
21
-3.29318
0
LINE
8
BLACK
6
CONTINUOUS
10
5.12863
20
-3.29318
11
5.12825
21
-3.2998
0
LINE
8
BLACK
6
CONTINUOUS
10
5.12825
20
-3.2998
11
5.12635
21
-3.30615
0
LINE
8
BLACK
6
CONTINUOUS
10
5.12635
20
-3.30615
11
5.12303
21
-3.31189
0
LINE
8
BLACK
6
CONTINUOUS
10
5.12303
20
-3.31189
11
5.11849
21
-3.31671
0
LINE
8
BLACK
6
CONTINUOUS
10
5.11849
20
-3.31671
11
5.11295
21
-3.32035
0
LINE
8
BLACK
6
CONTINUOUS
10
5.11295
20
-3.32035
11
5.10672
21
-3.32262
0
LINE
8
BLACK
6
CONTINUOUS
10
5.10672
20
-3.32262
11
5.10014
21
-3.32339
0
LINE
8
BLACK
6
CONTINUOUS
10
5.10014
20
-3.32339
11
5.0588
21
-3.32339
0
LINE
8
BLACK
6
CONTINUOUS
10
5.0588
20
-3.32339
11
5.05549
21
-3.32319
0
LINE
8
BLACK
6
CONTINUOUS
10
5.05549
20
-3.32319
11
5.04904
21
-3.32166
0
LINE
8
BLACK
6
CONTINUOUS
10
5.04904
20
-3.32166
11
5.04311
21
-3.31869
0
LINE
8
BLACK
6
CONTINUOUS
10
5.04311
20
-3.31869
11
5.03804
21
-3.31443
0
LINE
8
BLACK
6
CONTINUOUS
10
5.03804
20
-3.31443
11
5.03408
21
-3.30911
0
LINE
8
BLACK
6
CONTINUOUS
10
5.03408
20
-3.30911
11
5.03146
21
-3.30303
0
LINE
8
BLACK
6
CONTINUOUS
10
5.03146
20
-3.30303
11
5.0303
21
-3.2965
0
LINE
8
BLACK
6
CONTINUOUS
10
5.0303
20
-3.2965
11
5.03069
21
-3.28989
0
LINE
8
BLACK
6
CONTINUOUS
10
5.03069
20
-3.28989
11
5.03259
21
-3.28354
0
LINE
8
BLACK
6
CONTINUOUS
10
5.03259
20
-3.28354
11
5.0359
21
-3.2778
0
LINE
8
BLACK
6
CONTINUOUS
10
5.0359
20
-3.2778
11
5.04045
21
-3.27298
0
LINE
8
BLACK
6
CONTINUOUS
10
5.04045
20
-3.27298
11
5.04599
21
-3.26934
0
LINE
8
BLACK
6
CONTINUOUS
10
5.04599
20
-3.26934
11
5.05222
21
-3.26707
0
LINE
8
BLACK
6
CONTINUOUS
10
5.05222
20
-3.26707
11
5.0588
21
-3.2663
0
LINE
8
BLACK
6
CONTINUOUS
10
5.0588
20
-3.2663
11
5.10014
21
-3.2663
0
LINE
8
BLACK
6
CONTINUOUS
10
5.10014
20
-3.2663
11
5.10345
21
-3.26649
0
LINE
8
BLACK
6
CONTINUOUS
10
4.94118
20
-3.26808
11
4.94739
21
-3.27044
0
LINE
8
BLACK
6
CONTINUOUS
10
4.94739
20
-3.27044
11
4.95286
21
-3.27421
0
LINE
8
BLACK
6
CONTINUOUS
10
4.95286
20
-3.27421
11
4.95727
21
-3.27919
0
LINE
8
BLACK
6
CONTINUOUS
10
4.95727
20
-3.27919
11
4.96035
21
-3.28507
0
LINE
8
BLACK
6
CONTINUOUS
10
4.96035
20
-3.28507
11
4.96194
21
-3.29152
0
LINE
8
BLACK
6
CONTINUOUS
10
4.96194
20
-3.29152
11
4.96194
21
-3.29816
0
LINE
8
BLACK
6
CONTINUOUS
10
4.96194
20
-3.29816
11
4.96035
21
-3.30462
0
LINE
8
BLACK
6
CONTINUOUS
10
4.96035
20
-3.30462
11
4.95727
21
-3.3105
0
LINE
8
BLACK
6
CONTINUOUS
10
4.95727
20
-3.3105
11
4.95286
21
-3.31547
0
LINE
8
BLACK
6
CONTINUOUS
10
4.95286
20
-3.31547
11
4.94739
21
-3.31924
0
LINE
8
BLACK
6
CONTINUOUS
10
4.94739
20
-3.31924
11
4.94118
21
-3.3216
0
LINE
8
BLACK
6
CONTINUOUS
10
4.94118
20
-3.3216
11
4.93459
21
-3.3224
0
LINE
8
BLACK
6
CONTINUOUS
10
4.93459
20
-3.3224
11
4.89522
21
-3.3224
0
LINE
8
BLACK
6
CONTINUOUS
10
4.89522
20
-3.3224
11
4.88862
21
-3.3216
0
LINE
8
BLACK
6
CONTINUOUS
10
4.88862
20
-3.3216
11
4.88241
21
-3.31924
0
LINE
8
BLACK
6
CONTINUOUS
10
4.88241
20
-3.31924
11
4.87694
21
-3.31547
0
LINE
8
BLACK
6
CONTINUOUS
10
4.87694
20
-3.31547
11
4.87254
21
-3.3105
0
LINE
8
BLACK
6
CONTINUOUS
10
4.87254
20
-3.3105
11
4.86945
21
-3.30462
0
LINE
8
BLACK
6
CONTINUOUS
10
4.86945
20
-3.30462
11
4.86786
21
-3.29816
0
LINE
8
BLACK
6
CONTINUOUS
10
4.86786
20
-3.29816
11
4.86786
21
-3.29152
0
LINE
8
BLACK
6
CONTINUOUS
10
4.86786
20
-3.29152
11
4.86945
21
-3.28507
0
LINE
8
BLACK
6
CONTINUOUS
10
4.86945
20
-3.28507
11
4.87254
21
-3.27919
0
LINE
8
BLACK
6
CONTINUOUS
10
4.87254
20
-3.27919
11
4.87694
21
-3.27421
0
LINE
8
BLACK
6
CONTINUOUS
10
4.87694
20
-3.27421
11
4.88241
21
-3.27044
0
LINE
8
BLACK
6
CONTINUOUS
10
4.88241
20
-3.27044
11
4.88862
21
-3.26808
0
LINE
8
BLACK
6
CONTINUOUS
10
4.88862
20
-3.26808
11
4.89522
21
-3.26728
0
LINE
8
BLACK
6
CONTINUOUS
10
4.89522
20
-3.26728
11
4.93459
21
-3.26728
0
LINE
8
BLACK
6
CONTINUOUS
10
4.93459
20
-3.26728
11
4.94118
21
-3.26808
0
LINE
8
BLACK
6
CONTINUOUS
10
5.04082
20
-2.95154
11
5.05475
21
-2.95391
0
LINE
8
BLACK
6
CONTINUOUS
10
5.05475
20
-2.95391
11
5.06832
21
-2.95782
0
LINE
8
BLACK
6
CONTINUOUS
10
5.06832
20
-2.95782
11
5.08138
21
-2.96322
0
LINE
8
BLACK
6
CONTINUOUS
10
5.08138
20
-2.96322
11
5.09374
21
-2.97006
0
LINE
8
BLACK
6
CONTINUOUS
10
5.09374
20
-2.97006
11
5.10526
21
-2.97823
0
LINE
8
BLACK
6
CONTINUOUS
10
5.10526
20
-2.97823
11
5.1158
21
-2.98765
0
LINE
8
BLACK
6
CONTINUOUS
10
5.1158
20
-2.98765
11
5.12521
21
-2.99818
0
LINE
8
BLACK
6
CONTINUOUS
10
5.12521
20
-2.99818
11
5.13339
21
-3.0097
0
LINE
8
BLACK
6
CONTINUOUS
10
5.13339
20
-3.0097
11
5.14022
21
-3.02207
0
LINE
8
BLACK
6
CONTINUOUS
10
5.14022
20
-3.02207
11
5.14563
21
-3.03512
0
LINE
8
BLACK
6
CONTINUOUS
10
5.14563
20
-3.03512
11
5.14954
21
-3.0487
0
LINE
8
BLACK
6
CONTINUOUS
10
5.14954
20
-3.0487
11
5.1519
21
-3.06263
0
LINE
8
BLACK
6
CONTINUOUS
10
5.1519
20
-3.06263
11
5.1527
21
-3.07673
0
LINE
8
BLACK
6
CONTINUOUS
10
5.1527
20
-3.07673
11
5.1519
21
-3.09084
0
LINE
8
BLACK
6
CONTINUOUS
10
5.1519
20
-3.09084
11
5.14954
21
-3.10477
0
LINE
8
BLACK
6
CONTINUOUS
10
5.14954
20
-3.10477
11
5.14563
21
-3.11834
0
LINE
8
BLACK
6
CONTINUOUS
10
5.14563
20
-3.11834
11
5.14022
21
-3.13139
0
LINE
8
BLACK
6
CONTINUOUS
10
5.14022
20
-3.13139
11
5.13339
21
-3.14376
0
LINE
8
BLACK
6
CONTINUOUS
10
5.13339
20
-3.14376
11
5.12521
21
-3.15528
0
LINE
8
BLACK
6
CONTINUOUS
10
5.12521
20
-3.15528
11
5.1158
21
-3.16582
0
LINE
8
BLACK
6
CONTINUOUS
10
5.1158
20
-3.16582
11
5.10526
21
-3.17523
0
LINE
8
BLACK
6
CONTINUOUS
10
5.10526
20
-3.17523
11
5.09374
21
-3.18341
0
LINE
8
BLACK
6
CONTINUOUS
10
5.09374
20
-3.18341
11
5.08138
21
-3.19024
0
LINE
8
BLACK
6
CONTINUOUS
10
5.08138
20
-3.19024
11
5.06832
21
-3.19565
0
LINE
8
BLACK
6
CONTINUOUS
10
5.06832
20
-3.19565
11
5.05475
21
-3.19956
0
LINE
8
BLACK
6
CONTINUOUS
10
5.05475
20
-3.19956
11
5.04082
21
-3.20192
0
LINE
8
BLACK
6
CONTINUOUS
10
5.04082
20
-3.20192
11
5.02671
21
-3.20272
0
LINE
8
BLACK
6
CONTINUOUS
10
5.02671
20
-3.20272
11
5.01261
21
-3.20192
0
LINE
8
BLACK
6
CONTINUOUS
10
5.01261
20
-3.20192
11
4.99868
21
-3.19956
0
LINE
8
BLACK
6
CONTINUOUS
10
4.99868
20
-3.19956
11
4.9851
21
-3.19565
0
LINE
8
BLACK
6
CONTINUOUS
10
4.9851
20
-3.19565
11
4.97205
21
-3.19024
0
LINE
8
BLACK
6
CONTINUOUS
10
4.97205
20
-3.19024
11
4.95968
21
-3.18341
0
LINE
8
BLACK
6
CONTINUOUS
10
4.95968
20
-3.18341
11
4.94816
21
-3.17523
0
LINE
8
BLACK
6
CONTINUOUS
10
4.94816
20
-3.17523
11
4.93763
21
-3.16582
0
LINE
8
BLACK
6
CONTINUOUS
10
4.93763
20
-3.16582
11
4.92821
21
-3.15528
0
LINE
8
BLACK
6
CONTINUOUS
10
4.92821
20
-3.15528
11
4.92004
21
-3.14376
0
LINE
8
BLACK
6
CONTINUOUS
10
4.92004
20
-3.14376
11
4.9132
21
-3.13139
0
LINE
8
BLACK
6
CONTINUOUS
10
4.9132
20
-3.13139
11
4.9078
21
-3.11834
0
LINE
8
BLACK
6
CONTINUOUS
10
4.9078
20
-3.11834
11
4.90389
21
-3.10477
0
LINE
8
BLACK
6
CONTINUOUS
10
4.90389
20
-3.10477
11
4.90152
21
-3.09084
0
LINE
8
BLACK
6
CONTINUOUS
10
4.90152
20
-3.09084
11
4.90073
21
-3.07673
0
LINE
8
BLACK
6
CONTINUOUS
10
4.90073
20
-3.07673
11
4.90152
21
-3.06263
0
LINE
8
BLACK
6
CONTINUOUS
10
4.90152
20
-3.06263
11
4.90389
21
-3.0487
0
LINE
8
BLACK
6
CONTINUOUS
10
4.90389
20
-3.0487
11
4.9078
21
-3.03512
0
LINE
8
BLACK
6
CONTINUOUS
10
4.9078
20
-3.03512
11
4.9132
21
-3.02207
0
LINE
8
BLACK
6
CONTINUOUS
10
4.9132
20
-3.02207
11
4.92004
21
-3.0097
0
LINE
8
BLACK
6
CONTINUOUS
10
4.92004
20
-3.0097
11
4.92821
21
-2.99818
0
LINE
8
BLACK
6
CONTINUOUS
10
4.92821
20
-2.99818
11
4.93763
21
-2.98765
0
LINE
8
BLACK
6
CONTINUOUS
10
4.93763
20
-2.98765
11
4.94816
21
-2.97823
0
LINE
8
BLACK
6
CONTINUOUS
10
4.94816
20
-2.97823
11
4.95968
21
-2.97006
0
LINE
8
BLACK
6
CONTINUOUS
10
4.95968
20
-2.97006
11
4.97205
21
-2.96322
0
LINE
8
BLACK
6
CONTINUOUS
10
4.97205
20
-2.96322
11
4.9851
21
-2.95782
0
LINE
8
BLACK
6
CONTINUOUS
10
4.9851
20
-2.95782
11
4.99868
21
-2.95391
0
LINE
8
BLACK
6
CONTINUOUS
10
4.99868
20
-2.95391
11
5.01261
21
-2.95154
0
LINE
8
BLACK
6
CONTINUOUS
10
5.01261
20
-2.95154
11
5.02671
21
-2.95075
0
LINE
8
BLACK
6
CONTINUOUS
10
5.02671
20
-2.95075
11
5.04082
21
-2.95154
0
LINE
8
BLACK
6
CONTINUOUS
10
6.6172
20
-2.95154
11
6.63112
21
-2.95391
0
LINE
8
BLACK
6
CONTINUOUS
10
6.63112
20
-2.95391
11
6.6447
21
-2.95782
0
LINE
8
BLACK
6
CONTINUOUS
10
6.6447
20
-2.95782
11
6.65775
21
-2.96322
0
LINE
8
BLACK
6
CONTINUOUS
10
6.65775
20
-2.96322
11
6.67012
21
-2.97006
0
LINE
8
BLACK
6
CONTINUOUS
10
6.67012
20
-2.97006
11
6.68164
21
-2.97823
0
LINE
8
BLACK
6
CONTINUOUS
10
6.68164
20
-2.97823
11
6.69217
21
-2.98765
0
LINE
8
BLACK
6
CONTINUOUS
10
6.69217
20
-2.98765
11
6.70159
21
-2.99818
0
LINE
8
BLACK
6
CONTINUOUS
10
6.70159
20
-2.99818
11
6.70976
21
-3.0097
0
LINE
8
BLACK
6
CONTINUOUS
10
6.70976
20
-3.0097
11
6.7166
21
-3.02207
0
LINE
8
BLACK
6
CONTINUOUS
10
6.7166
20
-3.02207
11
6.72201
21
-3.03512
0
LINE
8
BLACK
6
CONTINUOUS
10
6.72201
20
-3.03512
11
6.72592
21
-3.0487
0
LINE
8
BLACK
6
CONTINUOUS
10
6.72592
20
-3.0487
11
6.72828
21
-3.06263
0
LINE
8
BLACK
6
CONTINUOUS
10
6.72828
20
-3.06263
11
6.72907
21
-3.07673
0
LINE
8
BLACK
6
CONTINUOUS
10
6.72907
20
-3.07673
11
6.72828
21
-3.09084
0
LINE
8
BLACK
6
CONTINUOUS
10
6.72828
20
-3.09084
11
6.72592
21
-3.10477
0
LINE
8
BLACK
6
CONTINUOUS
10
6.72592
20
-3.10477
11
6.72201
21
-3.11834
0
LINE
8
BLACK
6
CONTINUOUS
10
6.72201
20
-3.11834
11
6.7166
21
-3.13139
0
LINE
8
BLACK
6
CONTINUOUS
10
6.7166
20
-3.13139
11
6.70976
21
-3.14376
0
LINE
8
BLACK
6
CONTINUOUS
10
6.70976
20
-3.14376
11
6.70159
21
-3.15528
0
LINE
8
BLACK
6
CONTINUOUS
10
6.70159
20
-3.15528
11
6.69217
21
-3.16582
0
LINE
8
BLACK
6
CONTINUOUS
10
6.69217
20
-3.16582
11
6.68164
21
-3.17523
0
LINE
8
BLACK
6
CONTINUOUS
10
6.68164
20
-3.17523
11
6.67012
21
-3.18341
0
LINE
8
BLACK
6
CONTINUOUS
10
6.67012
20
-3.18341
11
6.65775
21
-3.19024
0
LINE
8
BLACK
6
CONTINUOUS
10
6.65775
20
-3.19024
11
6.6447
21
-3.19565
0
LINE
8
BLACK
6
CONTINUOUS
10
6.6447
20
-3.19565
11
6.63112
21
-3.19956
0
LINE
8
BLACK
6
CONTINUOUS
10
6.63112
20
-3.19956
11
6.6172
21
-3.20192
0
LINE
8
BLACK
6
CONTINUOUS
10
6.6172
20
-3.20192
11
6.60309
21
-3.20272
0
LINE
8
BLACK
6
CONTINUOUS
10
6.60309
20
-3.20272
11
6.58898
21
-3.20192
0
LINE
8
BLACK
6
CONTINUOUS
10
6.58898
20
-3.20192
11
6.57506
21
-3.19956
0
LINE
8
BLACK
6
CONTINUOUS
10
6.57506
20
-3.19956
11
6.56148
21
-3.19565
0
LINE
8
BLACK
6
CONTINUOUS
10
6.56148
20
-3.19565
11
6.54843
21
-3.19024
0
LINE
8
BLACK
6
CONTINUOUS
10
6.54843
20
-3.19024
11
6.53606
21
-3.18341
0
LINE
8
BLACK
6
CONTINUOUS
10
6.53606
20
-3.18341
11
6.52454
21
-3.17523
0
LINE
8
BLACK
6
CONTINUOUS
10
6.52454
20
-3.17523
11
6.51401
21
-3.16582
0
LINE
8
BLACK
6
CONTINUOUS
10
6.51401
20
-3.16582
11
6.50459
21
-3.15528
0
LINE
8
BLACK
6
CONTINUOUS
10
6.50459
20
-3.15528
11
6.49642
21
-3.14376
0
LINE
8
BLACK
6
CONTINUOUS
10
6.49642
20
-3.14376
11
6.48958
21
-3.13139
0
LINE
8
BLACK
6
CONTINUOUS
10
6.48958
20
-3.13139
11
6.48418
21
-3.11834
0
LINE
8
BLACK
6
CONTINUOUS
10
6.48418
20
-3.11834
11
6.48027
21
-3.10477
0
LINE
8
BLACK
6
CONTINUOUS
10
6.48027
20
-3.10477
11
6.4779
21
-3.09084
0
LINE
8
BLACK
6
CONTINUOUS
10
6.4779
20
-3.09084
11
6.47711
21
-3.07673
0
LINE
8
BLACK
6
CONTINUOUS
10
6.47711
20
-3.07673
11
6.4779
21
-3.06263
0
LINE
8
BLACK
6
CONTINUOUS
10
6.4779
20
-3.06263
11
6.48027
21
-3.0487
0
LINE
8
BLACK
6
CONTINUOUS
10
6.48027
20
-3.0487
11
6.48418
21
-3.03512
0
LINE
8
BLACK
6
CONTINUOUS
10
6.48418
20
-3.03512
11
6.48958
21
-3.02207
0
LINE
8
BLACK
6
CONTINUOUS
10
6.48958
20
-3.02207
11
6.49642
21
-3.0097
0
LINE
8
BLACK
6
CONTINUOUS
10
6.49642
20
-3.0097
11
6.50459
21
-2.99818
0
LINE
8
BLACK
6
CONTINUOUS
10
6.50459
20
-2.99818
11
6.51401
21
-2.98765
0
LINE
8
BLACK
6
CONTINUOUS
10
6.51401
20
-2.98765
11
6.52454
21
-2.97823
0
LINE
8
BLACK
6
CONTINUOUS
10
6.52454
20
-2.97823
11
6.53606
21
-2.97006
0
LINE
8
BLACK
6
CONTINUOUS
10
6.53606
20
-2.97006
11
6.54843
21
-2.96322
0
LINE
8
BLACK
6
CONTINUOUS
10
6.54843
20
-2.96322
11
6.56148
21
-2.95782
0
LINE
8
BLACK
6
CONTINUOUS
10
6.56148
20
-2.95782
11
6.57506
21
-2.95391
0
LINE
8
BLACK
6
CONTINUOUS
10
6.57506
20
-2.95391
11
6.58898
21
-2.95154
0
LINE
8
BLACK
6
CONTINUOUS
10
6.58898
20
-2.95154
11
6.60309
21
-2.95075
0
LINE
8
BLACK
6
CONTINUOUS
10
6.60309
20
-2.95075
11
6.6172
21
-2.95154
  0
ENDSEC
  0
EOF
