  0
SECTION
  2
HEADER
  9
$ANGBASE
  50
0.0
  9
$ANGDIR
  70
1
  9
$MEASUREMENT
  70
0
  0
ENDSEC
  0
SECTION
  2
TABLES
  0
TABLE
  2
LTYPE
  70
4
  0
LTYPE
  5
40F
  2
CONTINUOUS
  70
0
  3
Solid line
  72
65
  73
0
  40
0.0
  0
LTYPE
  5
410
  2
DASHDOT
 70
0
  3
Dash Dot ____ _ ____ _
 72
65
 73
4
 40
2.0
 49
1.25
 49
-0.25
 49
0.25
 49
-0.25
  0
LTYPE
  5
411
  2
DASHED
 70
0
  3
Dashed __ __ __ __ __
 72
65
 73
2
 40
0.75
 49
0.5
 49
-0.25
  0
LTYPE
  5
43B
  2
DOTTED
 70
0
  3
Dotted .  .  .  .
 72
65
 73
2
 40
0.2
 49
0.0
 49
-0.2
  0
ENDTAB
  0
TABLE
  2
STYLE
  70
4
  0
STYLE
  2
KICAD
  70
0
  40
0
  41
1
  42
1
  50
0
  71
0
  3
isocp.shx
  0
STYLE
  2
KICADB
  70
0
  40
0
  41
1
  42
1
  50
0
  71
0
  3
isocp.shx
  0
STYLE
  2
KICADI
  70
0
  40
0
  41
1
  42
1
  50
15
  71
0
  3
isocp.shx
  0
STYLE
  2
KICADBI
  70
0
  40
0
  41
1
  42
1
  50
15
  71
0
  3
isocp.shx
  0
ENDTAB
  0
TABLE
  2
LAYER
  70
1
  0
LAYER
  2
BLACK
  70
0
  62
7
  6
CONTINUOUS
  0
ENDTAB
  0
ENDSEC
  0
SECTION
  2
ENTITIES
0
LINE
8
BLACK
6
CONTINUOUS
10
6.6676574803149604
20
-3.729566929133858
11
6.6716114566929132
21
-3.730193188976378
0
LINE
8
BLACK
6
CONTINUOUS
10
6.6716114566929132
20
-3.730193188976378
11
6.6751783464566925
21
-3.7320105905511811
0
LINE
8
BLACK
6
CONTINUOUS
10
6.6751783464566925
20
-3.7320105905511811
11
6.6780090944881891
21
-3.7348413385826769
0
LINE
8
BLACK
6
CONTINUOUS
10
6.6780090944881891
20
-3.7348413385826769
11
6.6798264960629918
21
-3.7384082283464566
0
LINE
8
BLACK
6
CONTINUOUS
10
6.6798264960629918
20
-3.7384082283464566
11
6.6804527559055114
21
-3.7423622047244094
0
LINE
8
BLACK
6
CONTINUOUS
10
6.6804527559055114
20
-3.7423622047244094
11
6.6804527559055114
21
-3.7974803149606298
0
LINE
8
BLACK
6
CONTINUOUS
10
6.6804527559055114
20
-3.7974803149606298
11
6.6798264960629918
21
-3.8014342913385826
0
LINE
8
BLACK
6
CONTINUOUS
10
6.6798264960629918
20
-3.8014342913385826
11
6.6780090944881891
21
-3.8050011811023623
0
LINE
8
BLACK
6
CONTINUOUS
10
6.6780090944881891
20
-3.8050011811023623
11
6.6751783464566925
21
-3.807831929133858
0
LINE
8
BLACK
6
CONTINUOUS
10
6.6751783464566925
20
-3.807831929133858
11
6.6716114566929132
21
-3.8096493307086612
0
LINE
8
BLACK
6
CONTINUOUS
10
6.6716114566929132
20
-3.8096493307086612
11
6.6676574803149604
21
-3.8102755905511811
0
LINE
8
BLACK
6
CONTINUOUS
10
6.6676574803149604
20
-3.8102755905511811
11
6.6046653543307086
21
-3.8102755905511811
0
LINE
8
BLACK
6
CONTINUOUS
10
6.6046653543307086
20
-3.8102755905511811
11
6.6007113779527558
21
-3.8096493307086612
0
LINE
8
BLACK
6
CONTINUOUS
10
6.6007113779527558
20
-3.8096493307086612
11
6.5971444881889765
21
-3.807831929133858
0
LINE
8
BLACK
6
CONTINUOUS
10
6.5971444881889765
20
-3.807831929133858
11
6.5943137401574798
21
-3.8050011811023623
0
LINE
8
BLACK
6
CONTINUOUS
10
6.5943137401574798
20
-3.8050011811023623
11
6.5924963385826771
21
-3.8014342913385826
0
LINE
8
BLACK
6
CONTINUOUS
10
6.5924963385826771
20
-3.8014342913385826
11
6.5918700787401576
21
-3.7974803149606298
0
LINE
8
BLACK
6
CONTINUOUS
10
6.5918700787401576
20
-3.7974803149606298
11
6.5918700787401576
21
-3.7423622047244094
0
LINE
8
BLACK
6
CONTINUOUS
10
6.5918700787401576
20
-3.7423622047244094
11
6.5924963385826771
21
-3.7384082283464566
0
LINE
8
BLACK
6
CONTINUOUS
10
6.5924963385826771
20
-3.7384082283464566
11
6.5943137401574798
21
-3.7348413385826769
0
LINE
8
BLACK
6
CONTINUOUS
10
6.5943137401574798
20
-3.7348413385826769
11
6.5971444881889765
21
-3.7320105905511811
0
LINE
8
BLACK
6
CONTINUOUS
10
6.5971444881889765
20
-3.7320105905511811
11
6.6007113779527558
21
-3.730193188976378
0
LINE
8
BLACK
6
CONTINUOUS
10
6.6007113779527558
20
-3.730193188976378
11
6.6046653543307086
21
-3.729566929133858
0
LINE
8
BLACK
6
CONTINUOUS
10
6.6046653543307086
20
-3.729566929133858
11
6.6676574803149604
21
-3.729566929133858
0
LINE
8
BLACK
6
CONTINUOUS
10
6.6046653543307086
20
-3.7315354330708659
11
6.6029505511811024
21
-3.7315354330708659
0
LINE
8
BLACK
6
CONTINUOUS
10
6.6029505511811024
20
-3.7315354330708659
11
6.5996888188976373
21
-3.7325952362204724
0
LINE
8
BLACK
6
CONTINUOUS
10
6.5996888188976373
20
-3.7325952362204724
11
6.5969142519685038
21
-3.7346111023622046
0
LINE
8
BLACK
6
CONTINUOUS
10
6.5969142519685038
20
-3.7346111023622046
11
6.5948983858267711
21
-3.7373856692913385
0
LINE
8
BLACK
6
CONTINUOUS
10
6.5948983858267711
20
-3.7373856692913385
11
6.593838582677165
21
-3.7406474015748032
0
LINE
8
BLACK
6
CONTINUOUS
10
6.593838582677165
20
-3.7406474015748032
11
6.593838582677165
21
-3.7423622047244094
0
LINE
8
BLACK
6
CONTINUOUS
10
6.593838582677165
20
-3.7423622047244094
11
6.593838582677165
21
-3.7974803149606298
0
LINE
8
BLACK
6
CONTINUOUS
10
6.593838582677165
20
-3.7974803149606298
11
6.593838582677165
21
-3.7991951181102359
0
LINE
8
BLACK
6
CONTINUOUS
10
6.593838582677165
20
-3.7991951181102359
11
6.5948983858267711
21
-3.8024568503937006
0
LINE
8
BLACK
6
CONTINUOUS
10
6.5948983858267711
20
-3.8024568503937006
11
6.5969142519685038
21
-3.8052314173228345
0
LINE
8
BLACK
6
CONTINUOUS
10
6.5969142519685038
20
-3.8052314173228345
11
6.5996888188976373
21
-3.8072472834645668
0
LINE
8
BLACK
6
CONTINUOUS
10
6.5996888188976373
20
-3.8072472834645668
11
6.6029505511811024
21
-3.8083070866141733
0
LINE
8
BLACK
6
CONTINUOUS
10
6.6029505511811024
20
-3.8083070866141733
11
6.6046653543307086
21
-3.8083070866141733
0
LINE
8
BLACK
6
CONTINUOUS
10
6.6046653543307086
20
-3.8083070866141733
11
6.6676574803149604
21
-3.8083070866141733
0
LINE
8
BLACK
6
CONTINUOUS
10
6.6676574803149604
20
-3.8083070866141733
11
6.6693722834645666
21
-3.8083070866141733
0
LINE
8
BLACK
6
CONTINUOUS
10
6.6693722834645666
20
-3.8083070866141733
11
6.6726340157480317
21
-3.8072472834645668
0
LINE
8
BLACK
6
CONTINUOUS
10
6.6726340157480317
20
-3.8072472834645668
11
6.6754085826771652
21
-3.8052314173228345
0
LINE
8
BLACK
6
CONTINUOUS
10
6.6754085826771652
20
-3.8052314173228345
11
6.6774244488188979
21
-3.8024568503937006
0
LINE
8
BLACK
6
CONTINUOUS
10
6.6774244488188979
20
-3.8024568503937006
11
6.6784842519685039
21
-3.7991951181102359
0
LINE
8
BLACK
6
CONTINUOUS
10
6.6784842519685039
20
-3.7991951181102359
11
6.6784842519685039
21
-3.7974803149606298
0
LINE
8
BLACK
6
CONTINUOUS
10
6.6784842519685039
20
-3.7974803149606298
11
6.6784842519685039
21
-3.7423622047244094
0
LINE
8
BLACK
6
CONTINUOUS
10
6.6784842519685039
20
-3.7423622047244094
11
6.6784842519685039
21
-3.7406474015748032
0
LINE
8
BLACK
6
CONTINUOUS
10
6.6784842519685039
20
-3.7406474015748032
11
6.6774244488188979
21
-3.7373856692913385
0
LINE
8
BLACK
6
CONTINUOUS
10
6.6774244488188979
20
-3.7373856692913385
11
6.6754085826771652
21
-3.7346111023622046
0
LINE
8
BLACK
6
CONTINUOUS
10
6.6754085826771652
20
-3.7346111023622046
11
6.6726340157480317
21
-3.7325952362204724
0
LINE
8
BLACK
6
CONTINUOUS
10
6.6726340157480317
20
-3.7325952362204724
11
6.6693722834645666
21
-3.7315354330708659
0
LINE
8
BLACK
6
CONTINUOUS
10
6.6693722834645666
20
-3.7315354330708659
11
6.6676574803149604
21
-3.7315354330708659
0
LINE
8
BLACK
6
CONTINUOUS
10
6.6676574803149604
20
-3.7315354330708659
11
6.6046653543307086
21
-3.7315354330708659
0
LINE
8
BLACK
6
CONTINUOUS
10
5.0001377952755908
20
-3.6995669291338582
11
5.0040917716535436
21
-3.7001931889763777
0
LINE
8
BLACK
6
CONTINUOUS
10
5.0040917716535436
20
-3.7001931889763777
11
5.0076586614173229
21
-3.7020105905511809
0
LINE
8
BLACK
6
CONTINUOUS
10
5.0076586614173229
20
-3.7020105905511809
11
5.0104894094488186
21
-3.7048413385826771
0
LINE
8
BLACK
6
CONTINUOUS
10
5.0104894094488186
20
-3.7048413385826771
11
5.0123068110236222
21
-3.7084082283464568
0
LINE
8
BLACK
6
CONTINUOUS
10
5.0123068110236222
20
-3.7084082283464568
11
5.0129330708661417
21
-3.7123622047244091
0
LINE
8
BLACK
6
CONTINUOUS
10
5.0129330708661417
20
-3.7123622047244091
11
5.0129330708661417
21
-3.76748031496063
0
LINE
8
BLACK
6
CONTINUOUS
10
5.0129330708661417
20
-3.76748031496063
11
5.0123068110236222
21
-3.7714342913385828
0
LINE
8
BLACK
6
CONTINUOUS
10
5.0123068110236222
20
-3.7714342913385828
11
5.0104894094488186
21
-3.775001181102362
0
LINE
8
BLACK
6
CONTINUOUS
10
5.0104894094488186
20
-3.775001181102362
11
5.0076586614173229
21
-3.7778319291338582
0
LINE
8
BLACK
6
CONTINUOUS
10
5.0076586614173229
20
-3.7778319291338582
11
5.0040917716535436
21
-3.7796493307086614
0
LINE
8
BLACK
6
CONTINUOUS
10
5.0040917716535436
20
-3.7796493307086614
11
5.0001377952755908
21
-3.7802755905511809
0
LINE
8
BLACK
6
CONTINUOUS
10
5.0001377952755908
20
-3.7802755905511809
11
4.9371456692913389
21
-3.7802755905511809
0
LINE
8
BLACK
6
CONTINUOUS
10
4.9371456692913389
20
-3.7802755905511809
11
4.9331916929133861
21
-3.7796493307086614
0
LINE
8
BLACK
6
CONTINUOUS
10
4.9331916929133861
20
-3.7796493307086614
11
4.9296248031496059
21
-3.7778319291338582
0
LINE
8
BLACK
6
CONTINUOUS
10
4.9296248031496059
20
-3.7778319291338582
11
4.9267940551181102
21
-3.775001181102362
0
LINE
8
BLACK
6
CONTINUOUS
10
4.9267940551181102
20
-3.775001181102362
11
4.9249766535433066
21
-3.7714342913385828
0
LINE
8
BLACK
6
CONTINUOUS
10
4.9249766535433066
20
-3.7714342913385828
11
4.9243503937007871
21
-3.76748031496063
0
LINE
8
BLACK
6
CONTINUOUS
10
4.9243503937007871
20
-3.76748031496063
11
4.9243503937007871
21
-3.7123622047244091
0
LINE
8
BLACK
6
CONTINUOUS
10
4.9243503937007871
20
-3.7123622047244091
11
4.9249766535433066
21
-3.7084082283464568
0
LINE
8
BLACK
6
CONTINUOUS
10
4.9249766535433066
20
-3.7084082283464568
11
4.9267940551181102
21
-3.7048413385826771
0
LINE
8
BLACK
6
CONTINUOUS
10
4.9267940551181102
20
-3.7048413385826771
11
4.9296248031496059
21
-3.7020105905511809
0
LINE
8
BLACK
6
CONTINUOUS
10
4.9296248031496059
20
-3.7020105905511809
11
4.9331916929133861
21
-3.7001931889763777
0
LINE
8
BLACK
6
CONTINUOUS
10
4.9331916929133861
20
-3.7001931889763777
11
4.9371456692913389
21
-3.6995669291338582
0
LINE
8
BLACK
6
CONTINUOUS
10
4.9371456692913389
20
-3.6995669291338582
11
5.0001377952755908
21
-3.6995669291338582
0
LINE
8
BLACK
6
CONTINUOUS
10
4.9371456692913389
20
-3.7015354330708661
11
4.9354308661417319
21
-3.7015354330708661
0
LINE
8
BLACK
6
CONTINUOUS
10
4.9354308661417319
20
-3.7015354330708661
11
4.9321691338582676
21
-3.7025952362204722
0
LINE
8
BLACK
6
CONTINUOUS
10
4.9321691338582676
20
-3.7025952362204722
11
4.9293945669291341
21
-3.7046111023622048
0
LINE
8
BLACK
6
CONTINUOUS
10
4.9293945669291341
20
-3.7046111023622048
11
4.9273787007874015
21
-3.7073856692913383
0
LINE
8
BLACK
6
CONTINUOUS
10
4.9273787007874015
20
-3.7073856692913383
11
4.9263188976377954
21
-3.710647401574803
0
LINE
8
BLACK
6
CONTINUOUS
10
4.9263188976377954
20
-3.710647401574803
11
4.9263188976377954
21
-3.7123622047244091
0
LINE
8
BLACK
6
CONTINUOUS
10
4.9263188976377954
20
-3.7123622047244091
11
4.9263188976377954
21
-3.76748031496063
0
LINE
8
BLACK
6
CONTINUOUS
10
4.9263188976377954
20
-3.76748031496063
11
4.9263188976377954
21
-3.7691951181102361
0
LINE
8
BLACK
6
CONTINUOUS
10
4.9263188976377954
20
-3.7691951181102361
11
4.9273787007874015
21
-3.7724568503937008
0
LINE
8
BLACK
6
CONTINUOUS
10
4.9273787007874015
20
-3.7724568503937008
11
4.9293945669291341
21
-3.7752314173228347
0
LINE
8
BLACK
6
CONTINUOUS
10
4.9293945669291341
20
-3.7752314173228347
11
4.9321691338582676
21
-3.777247283464567
0
LINE
8
BLACK
6
CONTINUOUS
10
4.9321691338582676
20
-3.777247283464567
11
4.9354308661417319
21
-3.778307086614173
0
LINE
8
BLACK
6
CONTINUOUS
10
4.9354308661417319
20
-3.778307086614173
11
4.9371456692913389
21
-3.778307086614173
0
LINE
8
BLACK
6
CONTINUOUS
10
4.9371456692913389
20
-3.778307086614173
11
5.0001377952755908
21
-3.778307086614173
0
LINE
8
BLACK
6
CONTINUOUS
10
5.0001377952755908
20
-3.778307086614173
11
5.0018525984251969
21
-3.778307086614173
0
LINE
8
BLACK
6
CONTINUOUS
10
5.0018525984251969
20
-3.778307086614173
11
5.0051143307086612
21
-3.777247283464567
0
LINE
8
BLACK
6
CONTINUOUS
10
5.0051143307086612
20
-3.777247283464567
11
5.0078888976377955
21
-3.7752314173228347
0
LINE
8
BLACK
6
CONTINUOUS
10
5.0078888976377955
20
-3.7752314173228347
11
5.0099047637795273
21
-3.7724568503937008
0
LINE
8
BLACK
6
CONTINUOUS
10
5.0099047637795273
20
-3.7724568503937008
11
5.0109645669291334
21
-3.7691951181102361
0
LINE
8
BLACK
6
CONTINUOUS
10
5.0109645669291334
20
-3.7691951181102361
11
5.0109645669291334
21
-3.76748031496063
0
LINE
8
BLACK
6
CONTINUOUS
10
5.0109645669291334
20
-3.76748031496063
11
5.0109645669291334
21
-3.7123622047244091
0
LINE
8
BLACK
6
CONTINUOUS
10
5.0109645669291334
20
-3.7123622047244091
11
5.0109645669291334
21
-3.710647401574803
0
LINE
8
BLACK
6
CONTINUOUS
10
5.0109645669291334
20
-3.710647401574803
11
5.0099047637795273
21
-3.7073856692913383
0
LINE
8
BLACK
6
CONTINUOUS
10
5.0099047637795273
20
-3.7073856692913383
11
5.0078888976377955
21
-3.7046111023622048
0
LINE
8
BLACK
6
CONTINUOUS
10
5.0078888976377955
20
-3.7046111023622048
11
5.0051143307086612
21
-3.7025952362204722
0
LINE
8
BLACK
6
CONTINUOUS
10
5.0051143307086612
20
-3.7025952362204722
11
5.0018525984251969
21
-3.7015354330708661
0
LINE
8
BLACK
6
CONTINUOUS
10
5.0018525984251969
20
-3.7015354330708661
11
5.0001377952755908
21
-3.7015354330708661
0
LINE
8
BLACK
6
CONTINUOUS
10
5.0001377952755908
20
-3.7015354330708661
11
4.9371456692913389
21
-3.7015354330708661
0
LINE
8
BLACK
6
CONTINUOUS
10
6.6676574803149604
20
-3.5945669291338582
11
6.6716114566929132
21
-3.5951931889763777
0
LINE
8
BLACK
6
CONTINUOUS
10
6.6716114566929132
20
-3.5951931889763777
11
6.6751783464566925
21
-3.5970105905511809
0
LINE
8
BLACK
6
CONTINUOUS
10
6.6751783464566925
20
-3.5970105905511809
11
6.6780090944881891
21
-3.5998413385826771
0
LINE
8
BLACK
6
CONTINUOUS
10
6.6780090944881891
20
-3.5998413385826771
11
6.6798264960629918
21
-3.6034082283464568
0
LINE
8
BLACK
6
CONTINUOUS
10
6.6798264960629918
20
-3.6034082283464568
11
6.6804527559055114
21
-3.6073622047244092
0
LINE
8
BLACK
6
CONTINUOUS
10
6.6804527559055114
20
-3.6073622047244092
11
6.6804527559055114
21
-3.66248031496063
0
LINE
8
BLACK
6
CONTINUOUS
10
6.6804527559055114
20
-3.66248031496063
11
6.6798264960629918
21
-3.6664342913385828
0
LINE
8
BLACK
6
CONTINUOUS
10
6.6798264960629918
20
-3.6664342913385828
11
6.6780090944881891
21
-3.6700011811023621
0
LINE
8
BLACK
6
CONTINUOUS
10
6.6780090944881891
20
-3.6700011811023621
11
6.6751783464566925
21
-3.6728319291338583
0
LINE
8
BLACK
6
CONTINUOUS
10
6.6751783464566925
20
-3.6728319291338583
11
6.6716114566929132
21
-3.6746493307086614
0
LINE
8
BLACK
6
CONTINUOUS
10
6.6716114566929132
20
-3.6746493307086614
11
6.6676574803149604
21
-3.6752755905511809
0
LINE
8
BLACK
6
CONTINUOUS
10
6.6676574803149604
20
-3.6752755905511809
11
6.6046653543307086
21
-3.6752755905511809
0
LINE
8
BLACK
6
CONTINUOUS
10
6.6046653543307086
20
-3.6752755905511809
11
6.6007113779527558
21
-3.6746493307086614
0
LINE
8
BLACK
6
CONTINUOUS
10
6.6007113779527558
20
-3.6746493307086614
11
6.5971444881889765
21
-3.6728319291338583
0
LINE
8
BLACK
6
CONTINUOUS
10
6.5971444881889765
20
-3.6728319291338583
11
6.5943137401574798
21
-3.6700011811023621
0
LINE
8
BLACK
6
CONTINUOUS
10
6.5943137401574798
20
-3.6700011811023621
11
6.5924963385826771
21
-3.6664342913385828
0
LINE
8
BLACK
6
CONTINUOUS
10
6.5924963385826771
20
-3.6664342913385828
11
6.5918700787401576
21
-3.66248031496063
0
LINE
8
BLACK
6
CONTINUOUS
10
6.5918700787401576
20
-3.66248031496063
11
6.5918700787401576
21
-3.6073622047244092
0
LINE
8
BLACK
6
CONTINUOUS
10
6.5918700787401576
20
-3.6073622047244092
11
6.5924963385826771
21
-3.6034082283464568
0
LINE
8
BLACK
6
CONTINUOUS
10
6.5924963385826771
20
-3.6034082283464568
11
6.5943137401574798
21
-3.5998413385826771
0
LINE
8
BLACK
6
CONTINUOUS
10
6.5943137401574798
20
-3.5998413385826771
11
6.5971444881889765
21
-3.5970105905511809
0
LINE
8
BLACK
6
CONTINUOUS
10
6.5971444881889765
20
-3.5970105905511809
11
6.6007113779527558
21
-3.5951931889763777
0
LINE
8
BLACK
6
CONTINUOUS
10
6.6007113779527558
20
-3.5951931889763777
11
6.6046653543307086
21
-3.5945669291338582
0
LINE
8
BLACK
6
CONTINUOUS
10
6.6046653543307086
20
-3.5945669291338582
11
6.6676574803149604
21
-3.5945669291338582
0
LINE
8
BLACK
6
CONTINUOUS
10
6.6046653543307086
20
-3.5965354330708661
11
6.6029505511811024
21
-3.5965354330708661
0
LINE
8
BLACK
6
CONTINUOUS
10
6.6029505511811024
20
-3.5965354330708661
11
6.5996888188976373
21
-3.5975952362204722
0
LINE
8
BLACK
6
CONTINUOUS
10
6.5996888188976373
20
-3.5975952362204722
11
6.5969142519685038
21
-3.5996111023622048
0
LINE
8
BLACK
6
CONTINUOUS
10
6.5969142519685038
20
-3.5996111023622048
11
6.5948983858267711
21
-3.6023856692913383
0
LINE
8
BLACK
6
CONTINUOUS
10
6.5948983858267711
20
-3.6023856692913383
11
6.593838582677165
21
-3.605647401574803
0
LINE
8
BLACK
6
CONTINUOUS
10
6.593838582677165
20
-3.605647401574803
11
6.593838582677165
21
-3.6073622047244092
0
LINE
8
BLACK
6
CONTINUOUS
10
6.593838582677165
20
-3.6073622047244092
11
6.593838582677165
21
-3.66248031496063
0
LINE
8
BLACK
6
CONTINUOUS
10
6.593838582677165
20
-3.66248031496063
11
6.593838582677165
21
-3.6641951181102361
0
LINE
8
BLACK
6
CONTINUOUS
10
6.593838582677165
20
-3.6641951181102361
11
6.5948983858267711
21
-3.6674568503937008
0
LINE
8
BLACK
6
CONTINUOUS
10
6.5948983858267711
20
-3.6674568503937008
11
6.5969142519685038
21
-3.6702314173228348
0
LINE
8
BLACK
6
CONTINUOUS
10
6.5969142519685038
20
-3.6702314173228348
11
6.5996888188976373
21
-3.672247283464567
0
LINE
8
BLACK
6
CONTINUOUS
10
6.5996888188976373
20
-3.672247283464567
11
6.6029505511811024
21
-3.673307086614173
0
LINE
8
BLACK
6
CONTINUOUS
10
6.6029505511811024
20
-3.673307086614173
11
6.6046653543307086
21
-3.673307086614173
0
LINE
8
BLACK
6
CONTINUOUS
10
6.6046653543307086
20
-3.673307086614173
11
6.6676574803149604
21
-3.673307086614173
0
LINE
8
BLACK
6
CONTINUOUS
10
6.6676574803149604
20
-3.673307086614173
11
6.6693722834645666
21
-3.673307086614173
0
LINE
8
BLACK
6
CONTINUOUS
10
6.6693722834645666
20
-3.673307086614173
11
6.6726340157480317
21
-3.672247283464567
0
LINE
8
BLACK
6
CONTINUOUS
10
6.6726340157480317
20
-3.672247283464567
11
6.6754085826771652
21
-3.6702314173228348
0
LINE
8
BLACK
6
CONTINUOUS
10
6.6754085826771652
20
-3.6702314173228348
11
6.6774244488188979
21
-3.6674568503937008
0
LINE
8
BLACK
6
CONTINUOUS
10
6.6774244488188979
20
-3.6674568503937008
11
6.6784842519685039
21
-3.6641951181102361
0
LINE
8
BLACK
6
CONTINUOUS
10
6.6784842519685039
20
-3.6641951181102361
11
6.6784842519685039
21
-3.66248031496063
0
LINE
8
BLACK
6
CONTINUOUS
10
6.6784842519685039
20
-3.66248031496063
11
6.6784842519685039
21
-3.6073622047244092
0
LINE
8
BLACK
6
CONTINUOUS
10
6.6784842519685039
20
-3.6073622047244092
11
6.6784842519685039
21
-3.605647401574803
0
LINE
8
BLACK
6
CONTINUOUS
10
6.6784842519685039
20
-3.605647401574803
11
6.6774244488188979
21
-3.6023856692913383
0
LINE
8
BLACK
6
CONTINUOUS
10
6.6774244488188979
20
-3.6023856692913383
11
6.6754085826771652
21
-3.5996111023622048
0
LINE
8
BLACK
6
CONTINUOUS
10
6.6754085826771652
20
-3.5996111023622048
11
6.6726340157480317
21
-3.5975952362204722
0
LINE
8
BLACK
6
CONTINUOUS
10
6.6726340157480317
20
-3.5975952362204722
11
6.6693722834645666
21
-3.5965354330708661
0
LINE
8
BLACK
6
CONTINUOUS
10
6.6693722834645666
20
-3.5965354330708661
11
6.6676574803149604
21
-3.5965354330708661
0
LINE
8
BLACK
6
CONTINUOUS
10
6.6676574803149604
20
-3.5965354330708661
11
6.6046653543307086
21
-3.5965354330708661
0
LINE
8
BLACK
6
CONTINUOUS
10
6.6676574803149604
20
-3.459566929133858
11
6.6716114566929132
21
-3.460193188976378
0
LINE
8
BLACK
6
CONTINUOUS
10
6.6716114566929132
20
-3.460193188976378
11
6.6751783464566925
21
-3.4620105905511811
0
LINE
8
BLACK
6
CONTINUOUS
10
6.6751783464566925
20
-3.4620105905511811
11
6.6780090944881891
21
-3.4648413385826773
0
LINE
8
BLACK
6
CONTINUOUS
10
6.6780090944881891
20
-3.4648413385826773
11
6.6798264960629918
21
-3.4684082283464566
0
LINE
8
BLACK
6
CONTINUOUS
10
6.6798264960629918
20
-3.4684082283464566
11
6.6804527559055114
21
-3.4723622047244094
0
LINE
8
BLACK
6
CONTINUOUS
10
6.6804527559055114
20
-3.4723622047244094
11
6.6804527559055114
21
-3.5274803149606297
0
LINE
8
BLACK
6
CONTINUOUS
10
6.6804527559055114
20
-3.5274803149606297
11
6.6798264960629918
21
-3.5314342913385826
0
LINE
8
BLACK
6
CONTINUOUS
10
6.6798264960629918
20
-3.5314342913385826
11
6.6780090944881891
21
-3.5350011811023623
0
LINE
8
BLACK
6
CONTINUOUS
10
6.6780090944881891
20
-3.5350011811023623
11
6.6751783464566925
21
-3.537831929133858
0
LINE
8
BLACK
6
CONTINUOUS
10
6.6751783464566925
20
-3.537831929133858
11
6.6716114566929132
21
-3.5396493307086612
0
LINE
8
BLACK
6
CONTINUOUS
10
6.6716114566929132
20
-3.5396493307086612
11
6.6676574803149604
21
-3.5402755905511811
0
LINE
8
BLACK
6
CONTINUOUS
10
6.6676574803149604
20
-3.5402755905511811
11
6.6046653543307086
21
-3.5402755905511811
0
LINE
8
BLACK
6
CONTINUOUS
10
6.6046653543307086
20
-3.5402755905511811
11
6.6007113779527558
21
-3.5396493307086612
0
LINE
8
BLACK
6
CONTINUOUS
10
6.6007113779527558
20
-3.5396493307086612
11
6.5971444881889765
21
-3.537831929133858
0
LINE
8
BLACK
6
CONTINUOUS
10
6.5971444881889765
20
-3.537831929133858
11
6.5943137401574798
21
-3.5350011811023623
0
LINE
8
BLACK
6
CONTINUOUS
10
6.5943137401574798
20
-3.5350011811023623
11
6.5924963385826771
21
-3.5314342913385826
0
LINE
8
BLACK
6
CONTINUOUS
10
6.5924963385826771
20
-3.5314342913385826
11
6.5918700787401576
21
-3.5274803149606297
0
LINE
8
BLACK
6
CONTINUOUS
10
6.5918700787401576
20
-3.5274803149606297
11
6.5918700787401576
21
-3.4723622047244094
0
LINE
8
BLACK
6
CONTINUOUS
10
6.5918700787401576
20
-3.4723622047244094
11
6.5924963385826771
21
-3.4684082283464566
0
LINE
8
BLACK
6
CONTINUOUS
10
6.5924963385826771
20
-3.4684082283464566
11
6.5943137401574798
21
-3.4648413385826773
0
LINE
8
BLACK
6
CONTINUOUS
10
6.5943137401574798
20
-3.4648413385826773
11
6.5971444881889765
21
-3.4620105905511811
0
LINE
8
BLACK
6
CONTINUOUS
10
6.5971444881889765
20
-3.4620105905511811
11
6.6007113779527558
21
-3.460193188976378
0
LINE
8
BLACK
6
CONTINUOUS
10
6.6007113779527558
20
-3.460193188976378
11
6.6046653543307086
21
-3.459566929133858
0
LINE
8
BLACK
6
CONTINUOUS
10
6.6046653543307086
20
-3.459566929133858
11
6.6676574803149604
21
-3.459566929133858
0
LINE
8
BLACK
6
CONTINUOUS
10
6.6046653543307086
20
-3.4615354330708659
11
6.6029505511811024
21
-3.4615354330708659
0
LINE
8
BLACK
6
CONTINUOUS
10
6.6029505511811024
20
-3.4615354330708659
11
6.5996888188976373
21
-3.4625952362204724
0
LINE
8
BLACK
6
CONTINUOUS
10
6.5996888188976373
20
-3.4625952362204724
11
6.5969142519685038
21
-3.4646111023622046
0
LINE
8
BLACK
6
CONTINUOUS
10
6.5969142519685038
20
-3.4646111023622046
11
6.5948983858267711
21
-3.4673856692913385
0
LINE
8
BLACK
6
CONTINUOUS
10
6.5948983858267711
20
-3.4673856692913385
11
6.593838582677165
21
-3.4706474015748032
0
LINE
8
BLACK
6
CONTINUOUS
10
6.593838582677165
20
-3.4706474015748032
11
6.593838582677165
21
-3.4723622047244094
0
LINE
8
BLACK
6
CONTINUOUS
10
6.593838582677165
20
-3.4723622047244094
11
6.593838582677165
21
-3.5274803149606297
0
LINE
8
BLACK
6
CONTINUOUS
10
6.593838582677165
20
-3.5274803149606297
11
6.593838582677165
21
-3.5291951181102363
0
LINE
8
BLACK
6
CONTINUOUS
10
6.593838582677165
20
-3.5291951181102363
11
6.5948983858267711
21
-3.5324568503937006
0
LINE
8
BLACK
6
CONTINUOUS
10
6.5948983858267711
20
-3.5324568503937006
11
6.5969142519685038
21
-3.5352314173228345
0
LINE
8
BLACK
6
CONTINUOUS
10
6.5969142519685038
20
-3.5352314173228345
11
6.5996888188976373
21
-3.5372472834645667
0
LINE
8
BLACK
6
CONTINUOUS
10
6.5996888188976373
20
-3.5372472834645667
11
6.6029505511811024
21
-3.5383070866141733
0
LINE
8
BLACK
6
CONTINUOUS
10
6.6029505511811024
20
-3.5383070866141733
11
6.6046653543307086
21
-3.5383070866141733
0
LINE
8
BLACK
6
CONTINUOUS
10
6.6046653543307086
20
-3.5383070866141733
11
6.6676574803149604
21
-3.5383070866141733
0
LINE
8
BLACK
6
CONTINUOUS
10
6.6676574803149604
20
-3.5383070866141733
11
6.6693722834645666
21
-3.5383070866141733
0
LINE
8
BLACK
6
CONTINUOUS
10
6.6693722834645666
20
-3.5383070866141733
11
6.6726340157480317
21
-3.5372472834645667
0
LINE
8
BLACK
6
CONTINUOUS
10
6.6726340157480317
20
-3.5372472834645667
11
6.6754085826771652
21
-3.5352314173228345
0
LINE
8
BLACK
6
CONTINUOUS
10
6.6754085826771652
20
-3.5352314173228345
11
6.6774244488188979
21
-3.5324568503937006
0
LINE
8
BLACK
6
CONTINUOUS
10
6.6774244488188979
20
-3.5324568503937006
11
6.6784842519685039
21
-3.5291951181102363
0
LINE
8
BLACK
6
CONTINUOUS
10
6.6784842519685039
20
-3.5291951181102363
11
6.6784842519685039
21
-3.5274803149606297
0
LINE
8
BLACK
6
CONTINUOUS
10
6.6784842519685039
20
-3.5274803149606297
11
6.6784842519685039
21
-3.4723622047244094
0
LINE
8
BLACK
6
CONTINUOUS
10
6.6784842519685039
20
-3.4723622047244094
11
6.6784842519685039
21
-3.4706474015748032
0
LINE
8
BLACK
6
CONTINUOUS
10
6.6784842519685039
20
-3.4706474015748032
11
6.6774244488188979
21
-3.4673856692913385
0
LINE
8
BLACK
6
CONTINUOUS
10
6.6774244488188979
20
-3.4673856692913385
11
6.6754085826771652
21
-3.4646111023622046
0
LINE
8
BLACK
6
CONTINUOUS
10
6.6754085826771652
20
-3.4646111023622046
11
6.6726340157480317
21
-3.4625952362204724
0
LINE
8
BLACK
6
CONTINUOUS
10
6.6726340157480317
20
-3.4625952362204724
11
6.6693722834645666
21
-3.4615354330708659
0
LINE
8
BLACK
6
CONTINUOUS
10
6.6693722834645666
20
-3.4615354330708659
11
6.6676574803149604
21
-3.4615354330708659
0
LINE
8
BLACK
6
CONTINUOUS
10
6.6676574803149604
20
-3.4615354330708659
11
6.6046653543307086
21
-3.4615354330708659
0
LINE
8
BLACK
6
CONTINUOUS
10
6.6676574803149604
20
-3.322716535433071
11
6.6716114566929132
21
-3.3233427952755905
0
LINE
8
BLACK
6
CONTINUOUS
10
6.6716114566929132
20
-3.3233427952755905
11
6.6751783464566925
21
-3.3251601968503937
0
LINE
8
BLACK
6
CONTINUOUS
10
6.6751783464566925
20
-3.3251601968503937
11
6.6780090944881891
21
-3.3279909448818898
0
LINE
8
BLACK
6
CONTINUOUS
10
6.6780090944881891
20
-3.3279909448818898
11
6.6798264960629918
21
-3.3315578346456691
0
LINE
8
BLACK
6
CONTINUOUS
10
6.6798264960629918
20
-3.3315578346456691
11
6.6804527559055114
21
-3.3355118110236219
0
LINE
8
BLACK
6
CONTINUOUS
10
6.6804527559055114
20
-3.3355118110236219
11
6.6804527559055114
21
-3.3906299212598423
0
LINE
8
BLACK
6
CONTINUOUS
10
6.6804527559055114
20
-3.3906299212598423
11
6.6798264960629918
21
-3.3945838976377951
0
LINE
8
BLACK
6
CONTINUOUS
10
6.6798264960629918
20
-3.3945838976377951
11
6.6780090944881891
21
-3.3981507874015748
0
LINE
8
BLACK
6
CONTINUOUS
10
6.6780090944881891
20
-3.3981507874015748
11
6.6751783464566925
21
-3.4009815354330706
0
LINE
8
BLACK
6
CONTINUOUS
10
6.6751783464566925
20
-3.4009815354330706
11
6.6716114566929132
21
-3.4027989370078737
0
LINE
8
BLACK
6
CONTINUOUS
10
6.6716114566929132
20
-3.4027989370078737
11
6.6676574803149604
21
-3.4034251968503937
0
LINE
8
BLACK
6
CONTINUOUS
10
6.6676574803149604
20
-3.4034251968503937
11
6.6046653543307086
21
-3.4034251968503937
0
LINE
8
BLACK
6
CONTINUOUS
10
6.6046653543307086
20
-3.4034251968503937
11
6.6007113779527558
21
-3.4027989370078737
0
LINE
8
BLACK
6
CONTINUOUS
10
6.6007113779527558
20
-3.4027989370078737
11
6.5971444881889765
21
-3.4009815354330706
0
LINE
8
BLACK
6
CONTINUOUS
10
6.5971444881889765
20
-3.4009815354330706
11
6.5943137401574798
21
-3.3981507874015748
0
LINE
8
BLACK
6
CONTINUOUS
10
6.5943137401574798
20
-3.3981507874015748
11
6.5924963385826771
21
-3.3945838976377951
0
LINE
8
BLACK
6
CONTINUOUS
10
6.5924963385826771
20
-3.3945838976377951
11
6.5918700787401576
21
-3.3906299212598423
0
LINE
8
BLACK
6
CONTINUOUS
10
6.5918700787401576
20
-3.3906299212598423
11
6.5918700787401576
21
-3.3355118110236219
0
LINE
8
BLACK
6
CONTINUOUS
10
6.5918700787401576
20
-3.3355118110236219
11
6.5924963385826771
21
-3.3315578346456691
0
LINE
8
BLACK
6
CONTINUOUS
10
6.5924963385826771
20
-3.3315578346456691
11
6.5943137401574798
21
-3.3279909448818898
0
LINE
8
BLACK
6
CONTINUOUS
10
6.5943137401574798
20
-3.3279909448818898
11
6.5971444881889765
21
-3.3251601968503937
0
LINE
8
BLACK
6
CONTINUOUS
10
6.5971444881889765
20
-3.3251601968503937
11
6.6007113779527558
21
-3.3233427952755905
0
LINE
8
BLACK
6
CONTINUOUS
10
6.6007113779527558
20
-3.3233427952755905
11
6.6046653543307086
21
-3.322716535433071
0
LINE
8
BLACK
6
CONTINUOUS
10
6.6046653543307086
20
-3.322716535433071
11
6.6676574803149604
21
-3.322716535433071
0
LINE
8
BLACK
6
CONTINUOUS
10
6.6046653543307086
20
-3.3246850393700789
11
6.6029505511811024
21
-3.3246850393700789
0
LINE
8
BLACK
6
CONTINUOUS
10
6.6029505511811024
20
-3.3246850393700789
11
6.5996888188976373
21
-3.3257448425196849
0
LINE
8
BLACK
6
CONTINUOUS
10
6.5996888188976373
20
-3.3257448425196849
11
6.5969142519685038
21
-3.3277607086614172
0
LINE
8
BLACK
6
CONTINUOUS
10
6.5969142519685038
20
-3.3277607086614172
11
6.5948983858267711
21
-3.3305352755905511
0
LINE
8
BLACK
6
CONTINUOUS
10
6.5948983858267711
20
-3.3305352755905511
11
6.593838582677165
21
-3.3337970078740158
0
LINE
8
BLACK
6
CONTINUOUS
10
6.593838582677165
20
-3.3337970078740158
11
6.593838582677165
21
-3.3355118110236219
0
LINE
8
BLACK
6
CONTINUOUS
10
6.593838582677165
20
-3.3355118110236219
11
6.593838582677165
21
-3.3906299212598423
0
LINE
8
BLACK
6
CONTINUOUS
10
6.593838582677165
20
-3.3906299212598423
11
6.593838582677165
21
-3.3923447244094489
0
LINE
8
BLACK
6
CONTINUOUS
10
6.593838582677165
20
-3.3923447244094489
11
6.5948983858267711
21
-3.3956064566929132
0
LINE
8
BLACK
6
CONTINUOUS
10
6.5948983858267711
20
-3.3956064566929132
11
6.5969142519685038
21
-3.3983810236220471
0
LINE
8
BLACK
6
CONTINUOUS
10
6.5969142519685038
20
-3.3983810236220471
11
6.5996888188976373
21
-3.4003968897637793
0
LINE
8
BLACK
6
CONTINUOUS
10
6.5996888188976373
20
-3.4003968897637793
11
6.6029505511811024
21
-3.4014566929133858
0
LINE
8
BLACK
6
CONTINUOUS
10
6.6029505511811024
20
-3.4014566929133858
11
6.6046653543307086
21
-3.4014566929133858
0
LINE
8
BLACK
6
CONTINUOUS
10
6.6046653543307086
20
-3.4014566929133858
11
6.6676574803149604
21
-3.4014566929133858
0
LINE
8
BLACK
6
CONTINUOUS
10
6.6676574803149604
20
-3.4014566929133858
11
6.6693722834645666
21
-3.4014566929133858
0
LINE
8
BLACK
6
CONTINUOUS
10
6.6693722834645666
20
-3.4014566929133858
11
6.6726340157480317
21
-3.4003968897637793
0
LINE
8
BLACK
6
CONTINUOUS
10
6.6726340157480317
20
-3.4003968897637793
11
6.6754085826771652
21
-3.3983810236220471
0
LINE
8
BLACK
6
CONTINUOUS
10
6.6754085826771652
20
-3.3983810236220471
11
6.6774244488188979
21
-3.3956064566929132
0
LINE
8
BLACK
6
CONTINUOUS
10
6.6774244488188979
20
-3.3956064566929132
11
6.6784842519685039
21
-3.3923447244094489
0
LINE
8
BLACK
6
CONTINUOUS
10
6.6784842519685039
20
-3.3923447244094489
11
6.6784842519685039
21
-3.3906299212598423
0
LINE
8
BLACK
6
CONTINUOUS
10
6.6784842519685039
20
-3.3906299212598423
11
6.6784842519685039
21
-3.3355118110236219
0
LINE
8
BLACK
6
CONTINUOUS
10
6.6784842519685039
20
-3.3355118110236219
11
6.6784842519685039
21
-3.3337970078740158
0
LINE
8
BLACK
6
CONTINUOUS
10
6.6784842519685039
20
-3.3337970078740158
11
6.6774244488188979
21
-3.3305352755905511
0
LINE
8
BLACK
6
CONTINUOUS
10
6.6774244488188979
20
-3.3305352755905511
11
6.6754085826771652
21
-3.3277607086614172
0
LINE
8
BLACK
6
CONTINUOUS
10
6.6754085826771652
20
-3.3277607086614172
11
6.6726340157480317
21
-3.3257448425196849
0
LINE
8
BLACK
6
CONTINUOUS
10
6.6726340157480317
20
-3.3257448425196849
11
6.6693722834645666
21
-3.3246850393700789
0
LINE
8
BLACK
6
CONTINUOUS
10
6.6693722834645666
20
-3.3246850393700789
11
6.6676574803149604
21
-3.3246850393700789
0
LINE
8
BLACK
6
CONTINUOUS
10
6.6676574803149604
20
-3.3246850393700789
11
6.6046653543307086
21
-3.3246850393700789
0
LINE
8
BLACK
6
CONTINUOUS
10
6.8192571653543306
20
-2.8582457086614173
11
6.8203215748031498
21
-2.8586866141732283
0
LINE
8
BLACK
6
CONTINUOUS
10
6.8203215748031498
20
-2.8586866141732283
11
6.8211362204724404
21
-2.8595012598425198
0
LINE
8
BLACK
6
CONTINUOUS
10
6.8211362204724404
20
-2.8595012598425198
11
6.8215771259842519
21
-2.8605656692913386
0
LINE
8
BLACK
6
CONTINUOUS
10
6.8215771259842519
20
-2.8605656692913386
11
6.8216338582677167
21
-2.8611417322834645
0
LINE
8
BLACK
6
CONTINUOUS
10
6.8216338582677167
20
-2.8611417322834645
11
6.8216338582677167
21
-4.8687007874015746
0
LINE
8
BLACK
6
CONTINUOUS
10
6.8216338582677167
20
-4.8687007874015746
11
6.8215771259842519
21
-4.8692768503937005
0
LINE
8
BLACK
6
CONTINUOUS
10
6.8215771259842519
20
-4.8692768503937005
11
6.8211362204724404
21
-4.8703412598425198
0
LINE
8
BLACK
6
CONTINUOUS
10
6.8211362204724404
20
-4.8703412598425198
11
6.8203215748031498
21
-4.8711559055118112
0
LINE
8
BLACK
6
CONTINUOUS
10
6.8203215748031498
20
-4.8711559055118112
11
6.8192571653543306
21
-4.8715968110236219
0
LINE
8
BLACK
6
CONTINUOUS
10
6.8192571653543306
20
-4.8715968110236219
11
6.8186811023622047
21
-4.8716535433070867
0
LINE
8
BLACK
6
CONTINUOUS
10
6.8186811023622047
20
-4.8716535433070867
11
4.8111220472440941
21
-4.8716535433070867
0
LINE
8
BLACK
6
CONTINUOUS
10
4.8111220472440941
20
-4.8716535433070867
11
4.8105459842519682
21
-4.8715968110236219
0
LINE
8
BLACK
6
CONTINUOUS
10
4.8105459842519682
20
-4.8715968110236219
11
4.8094815748031499
21
-4.8711559055118112
0
LINE
8
BLACK
6
CONTINUOUS
10
4.8094815748031499
20
-4.8711559055118112
11
4.8086669291338584
21
-4.8703412598425198
0
LINE
8
BLACK
6
CONTINUOUS
10
4.8086669291338584
20
-4.8703412598425198
11
4.8082260236220469
21
-4.8692768503937005
0
LINE
8
BLACK
6
CONTINUOUS
10
4.8082260236220469
20
-4.8692768503937005
11
4.808169291338583
21
-4.8687007874015746
0
LINE
8
BLACK
6
CONTINUOUS
10
4.808169291338583
20
-4.8687007874015746
11
4.808169291338583
21
-2.8611417322834645
0
LINE
8
BLACK
6
CONTINUOUS
10
4.808169291338583
20
-2.8611417322834645
11
4.8082260236220469
21
-2.8605656692913386
0
LINE
8
BLACK
6
CONTINUOUS
10
4.8082260236220469
20
-2.8605656692913386
11
4.8086669291338584
21
-2.8595012598425198
0
LINE
8
BLACK
6
CONTINUOUS
10
4.8086669291338584
20
-2.8595012598425198
11
4.8094815748031499
21
-2.8586866141732283
0
LINE
8
BLACK
6
CONTINUOUS
10
4.8094815748031499
20
-2.8586866141732283
11
4.8105459842519682
21
-2.8582457086614173
0
LINE
8
BLACK
6
CONTINUOUS
10
4.8105459842519682
20
-2.8582457086614173
11
4.8111220472440941
21
-2.8581889763779529
0
LINE
8
BLACK
6
CONTINUOUS
10
4.8111220472440941
20
-2.8581889763779529
11
6.8186811023622047
21
-2.8581889763779529
0
LINE
8
BLACK
6
CONTINUOUS
10
6.8186811023622047
20
-2.8581889763779529
11
6.8192571653543306
21
-2.8582457086614173
0
LINE
8
BLACK
6
CONTINUOUS
10
4.8140748031496061
20
-2.8640944881889765
11
4.8140748031496061
21
-4.8657480314960626
0
LINE
8
BLACK
6
CONTINUOUS
10
4.8140748031496061
20
-4.8657480314960626
11
6.8157283464566927
21
-4.8657480314960626
0
LINE
8
BLACK
6
CONTINUOUS
10
6.8157283464566927
20
-4.8657480314960626
11
6.8157283464566927
21
-2.8640944881889765
0
LINE
8
BLACK
6
CONTINUOUS
10
6.8157283464566927
20
-2.8640944881889765
11
4.8140748031496061
21
-2.8640944881889765
0
CIRCLE
8
BLACK
10
6.6030905511811024
20
-4.6531102362204724
40
0.0068897637795276
0
CIRCLE
8
BLACK
10
5.0267125984251964
20
-4.6531102362204724
40
0.0068897637795276
0
CIRCLE
8
BLACK
10
6.6030905511811024
20
-3.0767322834645667
40
0.0068897637795276
0
CIRCLE
8
BLACK
10
5.9812795275590549
20
-3.8629527559055119
40
0.0068897637795276
0
CIRCLE
8
BLACK
10
5.0267125984251964
20
-3.0767322834645667
40
0.0068897637795276
0
CIRCLE
8
BLACK
10
5.0597834645669293
20
-3.5787007874015746
40
0.0068897637795276
0
CIRCLE
8
BLACK
10
5.0597834645669293
20
-3.3511417322834647
40
0.0068897637795276
0
LINE
8
BLACK
6
CONTINUOUS
10
4.9321912598425195
20
-3.6232900393700787
11
4.9351694881889765
21
-3.6240880314960631
0
LINE
8
BLACK
6
CONTINUOUS
10
4.9351694881889765
20
-3.6240880314960631
11
4.9378396850393695
21
-3.6256296850393701
0
LINE
8
BLACK
6
CONTINUOUS
10
4.9378396850393695
20
-3.6256296850393701
11
4.9400199212598421
21
-3.6278099212598423
0
LINE
8
BLACK
6
CONTINUOUS
10
4.9400199212598421
20
-3.6278099212598423
11
4.9415615748031492
21
-3.6304801181102362
0
LINE
8
BLACK
6
CONTINUOUS
10
4.9415615748031492
20
-3.6304801181102362
11
4.9423595669291336
21
-3.6334583464566927
0
LINE
8
BLACK
6
CONTINUOUS
10
4.9423595669291336
20
-3.6334583464566927
11
4.9423595669291336
21
-3.6365416535433068
0
LINE
8
BLACK
6
CONTINUOUS
10
4.9423595669291336
20
-3.6365416535433068
11
4.9415615748031492
21
-3.6395198818897638
0
LINE
8
BLACK
6
CONTINUOUS
10
4.9415615748031492
20
-3.6395198818897638
11
4.9400199212598421
21
-3.6421900787401573
0
LINE
8
BLACK
6
CONTINUOUS
10
4.9400199212598421
20
-3.6421900787401573
11
4.9378396850393695
21
-3.6443703149606299
0
LINE
8
BLACK
6
CONTINUOUS
10
4.9378396850393695
20
-3.6443703149606299
11
4.9351694881889765
21
-3.645911968503937
0
LINE
8
BLACK
6
CONTINUOUS
10
4.9351694881889765
20
-3.645911968503937
11
4.9321912598425195
21
-3.6467099606299214
0
LINE
8
BLACK
6
CONTINUOUS
10
4.9321912598425195
20
-3.6467099606299214
11
4.9306496062992125
21
-3.646811023622047
0
LINE
8
BLACK
6
CONTINUOUS
10
4.9306496062992125
20
-3.646811023622047
11
4.8991535433070865
21
-3.646811023622047
0
LINE
8
BLACK
6
CONTINUOUS
10
4.8991535433070865
20
-3.646811023622047
11
4.8976118897637795
21
-3.6467099606299214
0
LINE
8
BLACK
6
CONTINUOUS
10
4.8976118897637795
20
-3.6467099606299214
11
4.8946336614173225
21
-3.645911968503937
0
LINE
8
BLACK
6
CONTINUOUS
10
4.8946336614173225
20
-3.645911968503937
11
4.8919634645669294
21
-3.6443703149606299
0
LINE
8
BLACK
6
CONTINUOUS
10
4.8919634645669294
20
-3.6443703149606299
11
4.8897832283464568
21
-3.6421900787401573
0
LINE
8
BLACK
6
CONTINUOUS
10
4.8897832283464568
20
-3.6421900787401573
11
4.8882415748031498
21
-3.6395198818897638
0
LINE
8
BLACK
6
CONTINUOUS
10
4.8882415748031498
20
-3.6395198818897638
11
4.8874435826771654
21
-3.6365416535433068
0
LINE
8
BLACK
6
CONTINUOUS
10
4.8874435826771654
20
-3.6365416535433068
11
4.8874435826771654
21
-3.6334583464566927
0
LINE
8
BLACK
6
CONTINUOUS
10
4.8874435826771654
20
-3.6334583464566927
11
4.8882415748031498
21
-3.6304801181102362
0
LINE
8
BLACK
6
CONTINUOUS
10
4.8882415748031498
20
-3.6304801181102362
11
4.8897832283464568
21
-3.6278099212598423
0
LINE
8
BLACK
6
CONTINUOUS
10
4.8897832283464568
20
-3.6278099212598423
11
4.8919634645669294
21
-3.6256296850393701
0
LINE
8
BLACK
6
CONTINUOUS
10
4.8919634645669294
20
-3.6256296850393701
11
4.8946336614173225
21
-3.6240880314960631
0
LINE
8
BLACK
6
CONTINUOUS
10
4.8946336614173225
20
-3.6240880314960631
11
4.8976118897637795
21
-3.6232900393700787
0
LINE
8
BLACK
6
CONTINUOUS
10
4.8976118897637795
20
-3.6232900393700787
11
4.8991535433070865
21
-3.6231889763779526
0
LINE
8
BLACK
6
CONTINUOUS
10
4.8991535433070865
20
-3.6231889763779526
11
4.9306496062992125
21
-3.6231889763779526
0
LINE
8
BLACK
6
CONTINUOUS
10
4.9306496062992125
20
-3.6231889763779526
11
4.9321912598425195
21
-3.6232900393700787
0
LINE
8
BLACK
6
CONTINUOUS
10
4.9321912598425195
20
-3.2831325590551179
11
4.9351694881889765
21
-3.2839305511811023
0
LINE
8
BLACK
6
CONTINUOUS
10
4.9351694881889765
20
-3.2839305511811023
11
4.9378396850393695
21
-3.2854722047244094
0
LINE
8
BLACK
6
CONTINUOUS
10
4.9378396850393695
20
-3.2854722047244094
11
4.9400199212598421
21
-3.287652440944882
0
LINE
8
BLACK
6
CONTINUOUS
10
4.9400199212598421
20
-3.287652440944882
11
4.9415615748031492
21
-3.2903226377952755
0
LINE
8
BLACK
6
CONTINUOUS
10
4.9415615748031492
20
-3.2903226377952755
11
4.9423595669291336
21
-3.293300866141732
0
LINE
8
BLACK
6
CONTINUOUS
10
4.9423595669291336
20
-3.293300866141732
11
4.9423595669291336
21
-3.2963841732283465
0
LINE
8
BLACK
6
CONTINUOUS
10
4.9423595669291336
20
-3.2963841732283465
11
4.9415615748031492
21
-3.2993624015748031
0
LINE
8
BLACK
6
CONTINUOUS
10
4.9415615748031492
20
-3.2993624015748031
11
4.9400199212598421
21
-3.3020325984251966
0
LINE
8
BLACK
6
CONTINUOUS
10
4.9400199212598421
20
-3.3020325984251966
11
4.9378396850393695
21
-3.3042128346456692
0
LINE
8
BLACK
6
CONTINUOUS
10
4.9378396850393695
20
-3.3042128346456692
11
4.9351694881889765
21
-3.3057544881889762
0
LINE
8
BLACK
6
CONTINUOUS
10
4.9351694881889765
20
-3.3057544881889762
11
4.9321912598425195
21
-3.3065524803149606
0
LINE
8
BLACK
6
CONTINUOUS
10
4.9321912598425195
20
-3.3065524803149606
11
4.9306496062992125
21
-3.3066535433070867
0
LINE
8
BLACK
6
CONTINUOUS
10
4.9306496062992125
20
-3.3066535433070867
11
4.8991535433070865
21
-3.3066535433070867
0
LINE
8
BLACK
6
CONTINUOUS
10
4.8991535433070865
20
-3.3066535433070867
11
4.8976118897637795
21
-3.3065524803149606
0
LINE
8
BLACK
6
CONTINUOUS
10
4.8976118897637795
20
-3.3065524803149606
11
4.8946336614173225
21
-3.3057544881889762
0
LINE
8
BLACK
6
CONTINUOUS
10
4.8946336614173225
20
-3.3057544881889762
11
4.8919634645669294
21
-3.3042128346456692
0
LINE
8
BLACK
6
CONTINUOUS
10
4.8919634645669294
20
-3.3042128346456692
11
4.8897832283464568
21
-3.3020325984251966
0
LINE
8
BLACK
6
CONTINUOUS
10
4.8897832283464568
20
-3.3020325984251966
11
4.8882415748031498
21
-3.2993624015748031
0
LINE
8
BLACK
6
CONTINUOUS
10
4.8882415748031498
20
-3.2993624015748031
11
4.8874435826771654
21
-3.2963841732283465
0
LINE
8
BLACK
6
CONTINUOUS
10
4.8874435826771654
20
-3.2963841732283465
11
4.8874435826771654
21
-3.293300866141732
0
LINE
8
BLACK
6
CONTINUOUS
10
4.8874435826771654
20
-3.293300866141732
11
4.8882415748031498
21
-3.2903226377952755
0
LINE
8
BLACK
6
CONTINUOUS
10
4.8882415748031498
20
-3.2903226377952755
11
4.8897832283464568
21
-3.287652440944882
0
LINE
8
BLACK
6
CONTINUOUS
10
4.8897832283464568
20
-3.287652440944882
11
4.8919634645669294
21
-3.2854722047244094
0
LINE
8
BLACK
6
CONTINUOUS
10
4.8919634645669294
20
-3.2854722047244094
11
4.8946336614173225
21
-3.2839305511811023
0
LINE
8
BLACK
6
CONTINUOUS
10
4.8946336614173225
20
-3.2839305511811023
11
4.8976118897637795
21
-3.2831325590551179
0
LINE
8
BLACK
6
CONTINUOUS
10
4.8976118897637795
20
-3.2831325590551179
11
4.8991535433070865
21
-3.2830314960629923
0
LINE
8
BLACK
6
CONTINUOUS
10
4.8991535433070865
20
-3.2830314960629923
11
4.9306496062992125
21
-3.2830314960629923
0
LINE
8
BLACK
6
CONTINUOUS
10
4.9306496062992125
20
-3.2830314960629923
11
4.9321912598425195
21
-3.2831325590551179
0
LINE
8
BLACK
6
CONTINUOUS
10
5.1026637007874012
20
-3.6232900393700787
11
5.1056419291338582
21
-3.6240880314960631
0
LINE
8
BLACK
6
CONTINUOUS
10
5.1056419291338582
20
-3.6240880314960631
11
5.1083121259842521
21
-3.6256296850393701
0
LINE
8
BLACK
6
CONTINUOUS
10
5.1083121259842521
20
-3.6256296850393701
11
5.1104923622047247
21
-3.6278099212598423
0
LINE
8
BLACK
6
CONTINUOUS
10
5.1104923622047247
20
-3.6278099212598423
11
5.1120340157480317
21
-3.6304801181102362
0
LINE
8
BLACK
6
CONTINUOUS
10
5.1120340157480317
20
-3.6304801181102362
11
5.1128320078740153
21
-3.6334583464566927
0
LINE
8
BLACK
6
CONTINUOUS
10
5.1128320078740153
20
-3.6334583464566927
11
5.1128320078740153
21
-3.6365416535433068
0
LINE
8
BLACK
6
CONTINUOUS
10
5.1128320078740153
20
-3.6365416535433068
11
5.1120340157480317
21
-3.6395198818897638
0
LINE
8
BLACK
6
CONTINUOUS
10
5.1120340157480317
20
-3.6395198818897638
11
5.1104923622047247
21
-3.6421900787401573
0
LINE
8
BLACK
6
CONTINUOUS
10
5.1104923622047247
20
-3.6421900787401573
11
5.1083121259842521
21
-3.6443703149606299
0
LINE
8
BLACK
6
CONTINUOUS
10
5.1083121259842521
20
-3.6443703149606299
11
5.1056419291338582
21
-3.645911968503937
0
LINE
8
BLACK
6
CONTINUOUS
10
5.1056419291338582
20
-3.645911968503937
11
5.1026637007874012
21
-3.6467099606299214
0
LINE
8
BLACK
6
CONTINUOUS
10
5.1026637007874012
20
-3.6467099606299214
11
5.1011220472440941
21
-3.646811023622047
0
LINE
8
BLACK
6
CONTINUOUS
10
5.1011220472440941
20
-3.646811023622047
11
5.057814960629921
21
-3.646811023622047
0
LINE
8
BLACK
6
CONTINUOUS
10
5.057814960629921
20
-3.646811023622047
11
5.0562733070866139
21
-3.6467099606299214
0
LINE
8
BLACK
6
CONTINUOUS
10
5.0562733070866139
20
-3.6467099606299214
11
5.0532950787401569
21
-3.645911968503937
0
LINE
8
BLACK
6
CONTINUOUS
10
5.0532950787401569
20
-3.645911968503937
11
5.0506248818897639
21
-3.6443703149606299
0
LINE
8
BLACK
6
CONTINUOUS
10
5.0506248818897639
20
-3.6443703149606299
11
5.0484446456692913
21
-3.6421900787401573
0
LINE
8
BLACK
6
CONTINUOUS
10
5.0484446456692913
20
-3.6421900787401573
11
5.0469029921259843
21
-3.6395198818897638
0
LINE
8
BLACK
6
CONTINUOUS
10
5.0469029921259843
20
-3.6395198818897638
11
5.0461049999999998
21
-3.6365416535433068
0
LINE
8
BLACK
6
CONTINUOUS
10
5.0461049999999998
20
-3.6365416535433068
11
5.0461049999999998
21
-3.6334583464566927
0
LINE
8
BLACK
6
CONTINUOUS
10
5.0461049999999998
20
-3.6334583464566927
11
5.0469029921259843
21
-3.6304801181102362
0
LINE
8
BLACK
6
CONTINUOUS
10
5.0469029921259843
20
-3.6304801181102362
11
5.0484446456692913
21
-3.6278099212598423
0
LINE
8
BLACK
6
CONTINUOUS
10
5.0484446456692913
20
-3.6278099212598423
11
5.0506248818897639
21
-3.6256296850393701
0
LINE
8
BLACK
6
CONTINUOUS
10
5.0506248818897639
20
-3.6256296850393701
11
5.0532950787401569
21
-3.6240880314960631
0
LINE
8
BLACK
6
CONTINUOUS
10
5.0532950787401569
20
-3.6240880314960631
11
5.0562733070866139
21
-3.6232900393700787
0
LINE
8
BLACK
6
CONTINUOUS
10
5.0562733070866139
20
-3.6232900393700787
11
5.057814960629921
21
-3.6231889763779526
0
LINE
8
BLACK
6
CONTINUOUS
10
5.057814960629921
20
-3.6231889763779526
11
5.1011220472440941
21
-3.6231889763779526
0
LINE
8
BLACK
6
CONTINUOUS
10
5.1011220472440941
20
-3.6231889763779526
11
5.1026637007874012
21
-3.6232900393700787
0
LINE
8
BLACK
6
CONTINUOUS
10
5.1026637007874012
20
-3.2831325590551179
11
5.1056419291338582
21
-3.2839305511811023
0
LINE
8
BLACK
6
CONTINUOUS
10
5.1056419291338582
20
-3.2839305511811023
11
5.1083121259842521
21
-3.2854722047244094
0
LINE
8
BLACK
6
CONTINUOUS
10
5.1083121259842521
20
-3.2854722047244094
11
5.1104923622047247
21
-3.287652440944882
0
LINE
8
BLACK
6
CONTINUOUS
10
5.1104923622047247
20
-3.287652440944882
11
5.1120340157480317
21
-3.2903226377952755
0
LINE
8
BLACK
6
CONTINUOUS
10
5.1120340157480317
20
-3.2903226377952755
11
5.1128320078740153
21
-3.293300866141732
0
LINE
8
BLACK
6
CONTINUOUS
10
5.1128320078740153
20
-3.293300866141732
11
5.1128320078740153
21
-3.2963841732283465
0
LINE
8
BLACK
6
CONTINUOUS
10
5.1128320078740153
20
-3.2963841732283465
11
5.1120340157480317
21
-3.2993624015748031
0
LINE
8
BLACK
6
CONTINUOUS
10
5.1120340157480317
20
-3.2993624015748031
11
5.1104923622047247
21
-3.3020325984251966
0
LINE
8
BLACK
6
CONTINUOUS
10
5.1104923622047247
20
-3.3020325984251966
11
5.1083121259842521
21
-3.3042128346456692
0
LINE
8
BLACK
6
CONTINUOUS
10
5.1083121259842521
20
-3.3042128346456692
11
5.1056419291338582
21
-3.3057544881889762
0
LINE
8
BLACK
6
CONTINUOUS
10
5.1056419291338582
20
-3.3057544881889762
11
5.1026637007874012
21
-3.3065524803149606
0
LINE
8
BLACK
6
CONTINUOUS
10
5.1026637007874012
20
-3.3065524803149606
11
5.1011220472440941
21
-3.3066535433070867
0
LINE
8
BLACK
6
CONTINUOUS
10
5.1011220472440941
20
-3.3066535433070867
11
5.057814960629921
21
-3.3066535433070867
0
LINE
8
BLACK
6
CONTINUOUS
10
5.057814960629921
20
-3.3066535433070867
11
5.0562733070866139
21
-3.3065524803149606
0
LINE
8
BLACK
6
CONTINUOUS
10
5.0562733070866139
20
-3.3065524803149606
11
5.0532950787401569
21
-3.3057544881889762
0
LINE
8
BLACK
6
CONTINUOUS
10
5.0532950787401569
20
-3.3057544881889762
11
5.0506248818897639
21
-3.3042128346456692
0
LINE
8
BLACK
6
CONTINUOUS
10
5.0506248818897639
20
-3.3042128346456692
11
5.0484446456692913
21
-3.3020325984251966
0
LINE
8
BLACK
6
CONTINUOUS
10
5.0484446456692913
20
-3.3020325984251966
11
5.0469029921259843
21
-3.2993624015748031
0
LINE
8
BLACK
6
CONTINUOUS
10
5.0469029921259843
20
-3.2993624015748031
11
5.0461049999999998
21
-3.2963841732283465
0
LINE
8
BLACK
6
CONTINUOUS
10
5.0461049999999998
20
-3.2963841732283465
11
5.0461049999999998
21
-3.293300866141732
0
LINE
8
BLACK
6
CONTINUOUS
10
5.0461049999999998
20
-3.293300866141732
11
5.0469029921259843
21
-3.2903226377952755
0
LINE
8
BLACK
6
CONTINUOUS
10
5.0469029921259843
20
-3.2903226377952755
11
5.0484446456692913
21
-3.287652440944882
0
LINE
8
BLACK
6
CONTINUOUS
10
5.0484446456692913
20
-3.287652440944882
11
5.0506248818897639
21
-3.2854722047244094
0
LINE
8
BLACK
6
CONTINUOUS
10
5.0506248818897639
20
-3.2854722047244094
11
5.0532950787401569
21
-3.2839305511811023
0
LINE
8
BLACK
6
CONTINUOUS
10
5.0532950787401569
20
-3.2839305511811023
11
5.0562733070866139
21
-3.2831325590551179
0
LINE
8
BLACK
6
CONTINUOUS
10
5.0562733070866139
20
-3.2831325590551179
11
5.057814960629921
21
-3.2830314960629923
0
LINE
8
BLACK
6
CONTINUOUS
10
5.057814960629921
20
-3.2830314960629923
11
5.1011220472440941
21
-3.2830314960629923
0
LINE
8
BLACK
6
CONTINUOUS
10
5.1011220472440941
20
-3.2830314960629923
11
5.1026637007874012
21
-3.2831325590551179
0
CIRCLE
8
BLACK
10
6.6030905511811024
20
-4.6531102362204724
40
0.0068897637795276
0
CIRCLE
8
BLACK
10
5.0267125984251964
20
-4.6531102362204724
40
0.0068897637795276
0
CIRCLE
8
BLACK
10
6.6030905511811024
20
-3.0767322834645667
40
0.0068897637795276
0
CIRCLE
8
BLACK
10
5.9812795275590549
20
-3.8629527559055119
40
0.0068897637795276
0
CIRCLE
8
BLACK
10
5.0267125984251964
20
-3.0767322834645667
40
0.0068897637795276
0
CIRCLE
8
BLACK
10
5.0597834645669293
20
-3.5787007874015746
40
0.0068897637795276
0
CIRCLE
8
BLACK
10
5.0597834645669293
20
-3.3511417322834647
40
0.0068897637795276
0
LINE
8
BLACK
6
CONTINUOUS
10
4.8991535433070865
20
-3.646811023622047
11
4.9306496062992125
21
-3.646811023622047
0
ARC
8
BLACK
10
4.9306496062992125
20
-3.6349999999999998
40
0.0118110236220472
50
-90.00000000
51
90.00000000
0
LINE
8
BLACK
6
CONTINUOUS
10
4.9306496062992125
20
-3.6231889763779526
11
4.8991535433070865
21
-3.6231889763779526
0
ARC
8
BLACK
10
4.8991535433070865
20
-3.6349999999999998
40
0.0118110236220472
50
90.00000000
51
270.00000000
0
LINE
8
BLACK
6
CONTINUOUS
10
4.8991535433070865
20
-3.3066535433070867
11
4.9306496062992125
21
-3.3066535433070867
0
ARC
8
BLACK
10
4.9306496062992125
20
-3.2948425196850395
40
0.0118110236220472
50
-90.00000000
51
90.00000000
0
LINE
8
BLACK
6
CONTINUOUS
10
4.9306496062992125
20
-3.2830314960629923
11
4.8991535433070865
21
-3.2830314960629923
0
ARC
8
BLACK
10
4.8991535433070865
20
-3.2948425196850395
40
0.0118110236220472
50
90.00000000
51
270.00000000
0
LINE
8
BLACK
6
CONTINUOUS
10
5.057814960629921
20
-3.646811023622047
11
5.1011220472440941
21
-3.646811023622047
0
ARC
8
BLACK
10
5.1011220472440941
20
-3.6349999999999998
40
0.0118110236220472
50
-90.00000000
51
90.00000000
0
LINE
8
BLACK
6
CONTINUOUS
10
5.1011220472440941
20
-3.6231889763779526
11
5.057814960629921
21
-3.6231889763779526
0
ARC
8
BLACK
10
5.057814960629921
20
-3.6349999999999998
40
0.0118110236220472
50
90.00000000
51
270.00000000
0
LINE
8
BLACK
6
CONTINUOUS
10
5.057814960629921
20
-3.3066535433070867
11
5.1011220472440941
21
-3.3066535433070867
0
ARC
8
BLACK
10
5.1011220472440941
20
-3.2948425196850395
40
0.0118110236220472
50
-90.00000000
51
90.00000000
0
LINE
8
BLACK
6
CONTINUOUS
10
5.1011220472440941
20
-3.2830314960629923
11
5.057814960629921
21
-3.2830314960629923
0
ARC
8
BLACK
10
5.057814960629921
20
-3.2948425196850395
40
0.0118110236220472
50
90.00000000
51
270.00000000
  0
ENDSEC
  0
EOF
