  0
SECTION
  2
HEADER
  9
$ANGBASE
  50
0.0
  9
$ANGDIR
  70
1
  9
$MEASUREMENT
  70
0
  0
ENDSEC
  0
SECTION
  2
TABLES
  0
TABLE
  2
LTYPE
  70
4
  0
LTYPE
  5
40F
  2
CONTINUOUS
  70
0
  3
Solid line
  72
65
  73
0
  40
0.0
  0
LTYPE
  5
410
  2
DASHDOT
 70
0
  3
Dash Dot ____ _ ____ _
 72
65
 73
4
 40
2.0
 49
1.25
 49
-0.25
 49
0.25
 49
-0.25
  0
LTYPE
  5
411
  2
DASHED
 70
0
  3
Dashed __ __ __ __ __
 72
65
 73
2
 40
0.75
 49
0.5
 49
-0.25
  0
LTYPE
  5
43B
  2
DOTTED
 70
0
  3
Dotted .  .  .  .
 72
65
 73
2
 40
0.2
 49
0.0
 49
-0.2
  0
ENDTAB
  0
TABLE
  2
STYLE
  70
4
  0
STYLE
  2
KICAD
  70
0
  40
0
  41
1
  42
1
  50
0
  71
0
  3
isocp.shx
  0
STYLE
  2
KICADB
  70
0
  40
0
  41
1
  42
1
  50
0
  71
0
  3
isocp.shx
  0
STYLE
  2
KICADI
  70
0
  40
0
  41
1
  42
1
  50
15
  71
0
  3
isocp.shx
  0
STYLE
  2
KICADBI
  70
0
  40
0
  41
1
  42
1
  50
15
  71
0
  3
isocp.shx
  0
ENDTAB
  0
TABLE
  2
LAYER
  70
1
  0
LAYER
  2
BLACK
  70
0
  62
7
  6
CONTINUOUS
  0
ENDTAB
  0
ENDSEC
  0
SECTION
  2
ENTITIES
0
LINE
8
BLACK
6
CONTINUOUS
10
5.04078
20
-4.5283
11
5.05466
21
-4.53066
0
LINE
8
BLACK
6
CONTINUOUS
10
5.05466
20
-4.53066
11
5.0682
21
-4.53456
0
LINE
8
BLACK
6
CONTINUOUS
10
5.0682
20
-4.53456
11
5.08121
21
-4.53995
0
LINE
8
BLACK
6
CONTINUOUS
10
5.08121
20
-4.53995
11
5.09354
21
-4.54676
0
LINE
8
BLACK
6
CONTINUOUS
10
5.09354
20
-4.54676
11
5.10502
21
-4.55491
0
LINE
8
BLACK
6
CONTINUOUS
10
5.10502
20
-4.55491
11
5.11553
21
-4.5643
0
LINE
8
BLACK
6
CONTINUOUS
10
5.11553
20
-4.5643
11
5.12491
21
-4.5748
0
LINE
8
BLACK
6
CONTINUOUS
10
5.12491
20
-4.5748
11
5.13306
21
-4.58629
0
LINE
8
BLACK
6
CONTINUOUS
10
5.13306
20
-4.58629
11
5.13987
21
-4.59861
0
LINE
8
BLACK
6
CONTINUOUS
10
5.13987
20
-4.59861
11
5.14526
21
-4.61163
0
LINE
8
BLACK
6
CONTINUOUS
10
5.14526
20
-4.61163
11
5.14916
21
-4.62516
0
LINE
8
BLACK
6
CONTINUOUS
10
5.14916
20
-4.62516
11
5.15152
21
-4.63905
0
LINE
8
BLACK
6
CONTINUOUS
10
5.15152
20
-4.63905
11
5.15231
21
-4.65311
0
LINE
8
BLACK
6
CONTINUOUS
10
5.15231
20
-4.65311
11
5.15152
21
-4.66717
0
LINE
8
BLACK
6
CONTINUOUS
10
5.15152
20
-4.66717
11
5.14916
21
-4.68106
0
LINE
8
BLACK
6
CONTINUOUS
10
5.14916
20
-4.68106
11
5.14526
21
-4.69459
0
LINE
8
BLACK
6
CONTINUOUS
10
5.14526
20
-4.69459
11
5.13987
21
-4.70761
0
LINE
8
BLACK
6
CONTINUOUS
10
5.13987
20
-4.70761
11
5.13306
21
-4.71993
0
LINE
8
BLACK
6
CONTINUOUS
10
5.13306
20
-4.71993
11
5.12491
21
-4.73142
0
LINE
8
BLACK
6
CONTINUOUS
10
5.12491
20
-4.73142
11
5.11553
21
-4.74192
0
LINE
8
BLACK
6
CONTINUOUS
10
5.11553
20
-4.74192
11
5.10502
21
-4.75131
0
LINE
8
BLACK
6
CONTINUOUS
10
5.10502
20
-4.75131
11
5.09354
21
-4.75946
0
LINE
8
BLACK
6
CONTINUOUS
10
5.09354
20
-4.75946
11
5.08121
21
-4.76627
0
LINE
8
BLACK
6
CONTINUOUS
10
5.08121
20
-4.76627
11
5.0682
21
-4.77166
0
LINE
8
BLACK
6
CONTINUOUS
10
5.0682
20
-4.77166
11
5.05466
21
-4.77556
0
LINE
8
BLACK
6
CONTINUOUS
10
5.05466
20
-4.77556
11
5.04078
21
-4.77792
0
LINE
8
BLACK
6
CONTINUOUS
10
5.04078
20
-4.77792
11
5.02671
21
-4.77871
0
LINE
8
BLACK
6
CONTINUOUS
10
5.02671
20
-4.77871
11
5.01265
21
-4.77792
0
LINE
8
BLACK
6
CONTINUOUS
10
5.01265
20
-4.77792
11
4.99876
21
-4.77556
0
LINE
8
BLACK
6
CONTINUOUS
10
4.99876
20
-4.77556
11
4.98523
21
-4.77166
0
LINE
8
BLACK
6
CONTINUOUS
10
4.98523
20
-4.77166
11
4.97222
21
-4.76627
0
LINE
8
BLACK
6
CONTINUOUS
10
4.97222
20
-4.76627
11
4.95989
21
-4.75946
0
LINE
8
BLACK
6
CONTINUOUS
10
4.95989
20
-4.75946
11
4.9484
21
-4.75131
0
LINE
8
BLACK
6
CONTINUOUS
10
4.9484
20
-4.75131
11
4.9379
21
-4.74192
0
LINE
8
BLACK
6
CONTINUOUS
10
4.9379
20
-4.74192
11
4.92851
21
-4.73142
0
LINE
8
BLACK
6
CONTINUOUS
10
4.92851
20
-4.73142
11
4.92036
21
-4.71993
0
LINE
8
BLACK
6
CONTINUOUS
10
4.92036
20
-4.71993
11
4.91355
21
-4.70761
0
LINE
8
BLACK
6
CONTINUOUS
10
4.91355
20
-4.70761
11
4.90816
21
-4.69459
0
LINE
8
BLACK
6
CONTINUOUS
10
4.90816
20
-4.69459
11
4.90426
21
-4.68106
0
LINE
8
BLACK
6
CONTINUOUS
10
4.90426
20
-4.68106
11
4.9019
21
-4.66717
0
LINE
8
BLACK
6
CONTINUOUS
10
4.9019
20
-4.66717
11
4.90111
21
-4.65311
0
LINE
8
BLACK
6
CONTINUOUS
10
4.90111
20
-4.65311
11
4.9019
21
-4.63905
0
LINE
8
BLACK
6
CONTINUOUS
10
4.9019
20
-4.63905
11
4.90426
21
-4.62516
0
LINE
8
BLACK
6
CONTINUOUS
10
4.90426
20
-4.62516
11
4.90816
21
-4.61163
0
LINE
8
BLACK
6
CONTINUOUS
10
4.90816
20
-4.61163
11
4.91355
21
-4.59861
0
LINE
8
BLACK
6
CONTINUOUS
10
4.91355
20
-4.59861
11
4.92036
21
-4.58629
0
LINE
8
BLACK
6
CONTINUOUS
10
4.92036
20
-4.58629
11
4.92851
21
-4.5748
0
LINE
8
BLACK
6
CONTINUOUS
10
4.92851
20
-4.5748
11
4.9379
21
-4.5643
0
LINE
8
BLACK
6
CONTINUOUS
10
4.9379
20
-4.5643
11
4.9484
21
-4.55491
0
LINE
8
BLACK
6
CONTINUOUS
10
4.9484
20
-4.55491
11
4.95989
21
-4.54676
0
LINE
8
BLACK
6
CONTINUOUS
10
4.95989
20
-4.54676
11
4.97222
21
-4.53995
0
LINE
8
BLACK
6
CONTINUOUS
10
4.97222
20
-4.53995
11
4.98523
21
-4.53456
0
LINE
8
BLACK
6
CONTINUOUS
10
4.98523
20
-4.53456
11
4.99876
21
-4.53066
0
LINE
8
BLACK
6
CONTINUOUS
10
4.99876
20
-4.53066
11
5.01265
21
-4.5283
0
LINE
8
BLACK
6
CONTINUOUS
10
5.01265
20
-4.5283
11
5.02671
21
-4.52751
0
LINE
8
BLACK
6
CONTINUOUS
10
5.02671
20
-4.52751
11
5.04078
21
-4.5283
0
LINE
8
BLACK
6
CONTINUOUS
10
4.91667
20
-4.66597
11
4.91891
21
-4.67866
0
LINE
8
BLACK
6
CONTINUOUS
10
4.91891
20
-4.67866
11
4.92261
21
-4.691
0
LINE
8
BLACK
6
CONTINUOUS
10
4.92261
20
-4.691
11
4.92771
21
-4.70283
0
LINE
8
BLACK
6
CONTINUOUS
10
4.92771
20
-4.70283
11
4.93415
21
-4.71399
0
LINE
8
BLACK
6
CONTINUOUS
10
4.93415
20
-4.71399
11
4.94184
21
-4.72432
0
LINE
8
BLACK
6
CONTINUOUS
10
4.94184
20
-4.72432
11
4.95069
21
-4.73369
0
LINE
8
BLACK
6
CONTINUOUS
10
4.95069
20
-4.73369
11
4.96055
21
-4.74198
0
LINE
8
BLACK
6
CONTINUOUS
10
4.96055
20
-4.74198
11
4.97132
21
-4.74905
0
LINE
8
BLACK
6
CONTINUOUS
10
4.97132
20
-4.74905
11
4.98283
21
-4.75484
0
LINE
8
BLACK
6
CONTINUOUS
10
4.98283
20
-4.75484
11
4.99494
21
-4.75924
0
LINE
8
BLACK
6
CONTINUOUS
10
4.99494
20
-4.75924
11
5.00747
21
-4.76221
0
LINE
8
BLACK
6
CONTINUOUS
10
5.00747
20
-4.76221
11
5.02027
21
-4.76371
0
LINE
8
BLACK
6
CONTINUOUS
10
5.02027
20
-4.76371
11
5.03315
21
-4.76371
0
LINE
8
BLACK
6
CONTINUOUS
10
5.03315
20
-4.76371
11
5.04595
21
-4.76221
0
LINE
8
BLACK
6
CONTINUOUS
10
5.04595
20
-4.76221
11
5.05849
21
-4.75924
0
LINE
8
BLACK
6
CONTINUOUS
10
5.05849
20
-4.75924
11
5.07059
21
-4.75484
0
LINE
8
BLACK
6
CONTINUOUS
10
5.07059
20
-4.75484
11
5.08211
21
-4.74905
0
LINE
8
BLACK
6
CONTINUOUS
10
5.08211
20
-4.74905
11
5.09287
21
-4.74198
0
LINE
8
BLACK
6
CONTINUOUS
10
5.09287
20
-4.74198
11
5.10274
21
-4.73369
0
LINE
8
BLACK
6
CONTINUOUS
10
5.10274
20
-4.73369
11
5.11158
21
-4.72432
0
LINE
8
BLACK
6
CONTINUOUS
10
5.11158
20
-4.72432
11
5.11927
21
-4.71399
0
LINE
8
BLACK
6
CONTINUOUS
10
5.11927
20
-4.71399
11
5.12572
21
-4.70283
0
LINE
8
BLACK
6
CONTINUOUS
10
5.12572
20
-4.70283
11
5.13082
21
-4.691
0
LINE
8
BLACK
6
CONTINUOUS
10
5.13082
20
-4.691
11
5.13451
21
-4.67866
0
LINE
8
BLACK
6
CONTINUOUS
10
5.13451
20
-4.67866
11
5.13675
21
-4.66597
0
LINE
8
BLACK
6
CONTINUOUS
10
5.13675
20
-4.66597
11
5.1375
21
-4.65311
0
LINE
8
BLACK
6
CONTINUOUS
10
5.1375
20
-4.65311
11
5.13675
21
-4.64025
0
LINE
8
BLACK
6
CONTINUOUS
10
5.13675
20
-4.64025
11
5.13451
21
-4.62756
0
LINE
8
BLACK
6
CONTINUOUS
10
5.13451
20
-4.62756
11
5.13082
21
-4.61522
0
LINE
8
BLACK
6
CONTINUOUS
10
5.13082
20
-4.61522
11
5.12572
21
-4.60339
0
LINE
8
BLACK
6
CONTINUOUS
10
5.12572
20
-4.60339
11
5.11927
21
-4.59223
0
LINE
8
BLACK
6
CONTINUOUS
10
5.11927
20
-4.59223
11
5.11158
21
-4.5819
0
LINE
8
BLACK
6
CONTINUOUS
10
5.11158
20
-4.5819
11
5.10274
21
-4.57253
0
LINE
8
BLACK
6
CONTINUOUS
10
5.10274
20
-4.57253
11
5.09287
21
-4.56425
0
LINE
8
BLACK
6
CONTINUOUS
10
5.09287
20
-4.56425
11
5.08211
21
-4.55717
0
LINE
8
BLACK
6
CONTINUOUS
10
5.08211
20
-4.55717
11
5.07059
21
-4.55138
0
LINE
8
BLACK
6
CONTINUOUS
10
5.07059
20
-4.55138
11
5.05849
21
-4.54698
0
LINE
8
BLACK
6
CONTINUOUS
10
5.05849
20
-4.54698
11
5.04595
21
-4.54401
0
LINE
8
BLACK
6
CONTINUOUS
10
5.04595
20
-4.54401
11
5.03315
21
-4.54251
0
LINE
8
BLACK
6
CONTINUOUS
10
5.03315
20
-4.54251
11
5.02027
21
-4.54251
0
LINE
8
BLACK
6
CONTINUOUS
10
5.02027
20
-4.54251
11
5.00747
21
-4.54401
0
LINE
8
BLACK
6
CONTINUOUS
10
5.00747
20
-4.54401
11
4.99494
21
-4.54698
0
LINE
8
BLACK
6
CONTINUOUS
10
4.99494
20
-4.54698
11
4.98283
21
-4.55138
0
LINE
8
BLACK
6
CONTINUOUS
10
4.98283
20
-4.55138
11
4.97132
21
-4.55717
0
LINE
8
BLACK
6
CONTINUOUS
10
4.97132
20
-4.55717
11
4.96055
21
-4.56425
0
LINE
8
BLACK
6
CONTINUOUS
10
4.96055
20
-4.56425
11
4.95069
21
-4.57253
0
LINE
8
BLACK
6
CONTINUOUS
10
4.95069
20
-4.57253
11
4.94184
21
-4.5819
0
LINE
8
BLACK
6
CONTINUOUS
10
4.94184
20
-4.5819
11
4.93415
21
-4.59223
0
LINE
8
BLACK
6
CONTINUOUS
10
4.93415
20
-4.59223
11
4.92771
21
-4.60339
0
LINE
8
BLACK
6
CONTINUOUS
10
4.92771
20
-4.60339
11
4.92261
21
-4.61522
0
LINE
8
BLACK
6
CONTINUOUS
10
4.92261
20
-4.61522
11
4.91891
21
-4.62756
0
LINE
8
BLACK
6
CONTINUOUS
10
4.91891
20
-4.62756
11
4.91667
21
-4.64025
0
LINE
8
BLACK
6
CONTINUOUS
10
4.91667
20
-4.64025
11
4.91593
21
-4.65311
0
LINE
8
BLACK
6
CONTINUOUS
10
4.91593
20
-4.65311
11
4.91667
21
-4.66597
0
LINE
8
BLACK
6
CONTINUOUS
10
6.61715
20
-4.5283
11
6.63104
21
-4.53066
0
LINE
8
BLACK
6
CONTINUOUS
10
6.63104
20
-4.53066
11
6.64457
21
-4.53456
0
LINE
8
BLACK
6
CONTINUOUS
10
6.64457
20
-4.53456
11
6.65759
21
-4.53995
0
LINE
8
BLACK
6
CONTINUOUS
10
6.65759
20
-4.53995
11
6.66991
21
-4.54676
0
LINE
8
BLACK
6
CONTINUOUS
10
6.66991
20
-4.54676
11
6.6814
21
-4.55491
0
LINE
8
BLACK
6
CONTINUOUS
10
6.6814
20
-4.55491
11
6.6919
21
-4.5643
0
LINE
8
BLACK
6
CONTINUOUS
10
6.6919
20
-4.5643
11
6.70129
21
-4.5748
0
LINE
8
BLACK
6
CONTINUOUS
10
6.70129
20
-4.5748
11
6.70944
21
-4.58629
0
LINE
8
BLACK
6
CONTINUOUS
10
6.70944
20
-4.58629
11
6.71625
21
-4.59861
0
LINE
8
BLACK
6
CONTINUOUS
10
6.71625
20
-4.59861
11
6.72164
21
-4.61163
0
LINE
8
BLACK
6
CONTINUOUS
10
6.72164
20
-4.61163
11
6.72554
21
-4.62516
0
LINE
8
BLACK
6
CONTINUOUS
10
6.72554
20
-4.62516
11
6.7279
21
-4.63905
0
LINE
8
BLACK
6
CONTINUOUS
10
6.7279
20
-4.63905
11
6.72869
21
-4.65311
0
LINE
8
BLACK
6
CONTINUOUS
10
6.72869
20
-4.65311
11
6.7279
21
-4.66717
0
LINE
8
BLACK
6
CONTINUOUS
10
6.7279
20
-4.66717
11
6.72554
21
-4.68106
0
LINE
8
BLACK
6
CONTINUOUS
10
6.72554
20
-4.68106
11
6.72164
21
-4.69459
0
LINE
8
BLACK
6
CONTINUOUS
10
6.72164
20
-4.69459
11
6.71625
21
-4.70761
0
LINE
8
BLACK
6
CONTINUOUS
10
6.71625
20
-4.70761
11
6.70944
21
-4.71993
0
LINE
8
BLACK
6
CONTINUOUS
10
6.70944
20
-4.71993
11
6.70129
21
-4.73142
0
LINE
8
BLACK
6
CONTINUOUS
10
6.70129
20
-4.73142
11
6.6919
21
-4.74192
0
LINE
8
BLACK
6
CONTINUOUS
10
6.6919
20
-4.74192
11
6.6814
21
-4.75131
0
LINE
8
BLACK
6
CONTINUOUS
10
6.6814
20
-4.75131
11
6.66991
21
-4.75946
0
LINE
8
BLACK
6
CONTINUOUS
10
6.66991
20
-4.75946
11
6.65759
21
-4.76627
0
LINE
8
BLACK
6
CONTINUOUS
10
6.65759
20
-4.76627
11
6.64457
21
-4.77166
0
LINE
8
BLACK
6
CONTINUOUS
10
6.64457
20
-4.77166
11
6.63104
21
-4.77556
0
LINE
8
BLACK
6
CONTINUOUS
10
6.63104
20
-4.77556
11
6.61715
21
-4.77792
0
LINE
8
BLACK
6
CONTINUOUS
10
6.61715
20
-4.77792
11
6.60309
21
-4.77871
0
LINE
8
BLACK
6
CONTINUOUS
10
6.60309
20
-4.77871
11
6.58903
21
-4.77792
0
LINE
8
BLACK
6
CONTINUOUS
10
6.58903
20
-4.77792
11
6.57514
21
-4.77556
0
LINE
8
BLACK
6
CONTINUOUS
10
6.57514
20
-4.77556
11
6.56161
21
-4.77166
0
LINE
8
BLACK
6
CONTINUOUS
10
6.56161
20
-4.77166
11
6.54859
21
-4.76627
0
LINE
8
BLACK
6
CONTINUOUS
10
6.54859
20
-4.76627
11
6.53627
21
-4.75946
0
LINE
8
BLACK
6
CONTINUOUS
10
6.53627
20
-4.75946
11
6.52478
21
-4.75131
0
LINE
8
BLACK
6
CONTINUOUS
10
6.52478
20
-4.75131
11
6.51428
21
-4.74192
0
LINE
8
BLACK
6
CONTINUOUS
10
6.51428
20
-4.74192
11
6.50489
21
-4.73142
0
LINE
8
BLACK
6
CONTINUOUS
10
6.50489
20
-4.73142
11
6.49674
21
-4.71993
0
LINE
8
BLACK
6
CONTINUOUS
10
6.49674
20
-4.71993
11
6.48993
21
-4.70761
0
LINE
8
BLACK
6
CONTINUOUS
10
6.48993
20
-4.70761
11
6.48454
21
-4.69459
0
LINE
8
BLACK
6
CONTINUOUS
10
6.48454
20
-4.69459
11
6.48064
21
-4.68106
0
LINE
8
BLACK
6
CONTINUOUS
10
6.48064
20
-4.68106
11
6.47828
21
-4.66717
0
LINE
8
BLACK
6
CONTINUOUS
10
6.47828
20
-4.66717
11
6.47749
21
-4.65311
0
LINE
8
BLACK
6
CONTINUOUS
10
6.47749
20
-4.65311
11
6.47828
21
-4.63905
0
LINE
8
BLACK
6
CONTINUOUS
10
6.47828
20
-4.63905
11
6.48064
21
-4.62516
0
LINE
8
BLACK
6
CONTINUOUS
10
6.48064
20
-4.62516
11
6.48454
21
-4.61163
0
LINE
8
BLACK
6
CONTINUOUS
10
6.48454
20
-4.61163
11
6.48993
21
-4.59861
0
LINE
8
BLACK
6
CONTINUOUS
10
6.48993
20
-4.59861
11
6.49674
21
-4.58629
0
LINE
8
BLACK
6
CONTINUOUS
10
6.49674
20
-4.58629
11
6.50489
21
-4.5748
0
LINE
8
BLACK
6
CONTINUOUS
10
6.50489
20
-4.5748
11
6.51428
21
-4.5643
0
LINE
8
BLACK
6
CONTINUOUS
10
6.51428
20
-4.5643
11
6.52478
21
-4.55491
0
LINE
8
BLACK
6
CONTINUOUS
10
6.52478
20
-4.55491
11
6.53627
21
-4.54676
0
LINE
8
BLACK
6
CONTINUOUS
10
6.53627
20
-4.54676
11
6.54859
21
-4.53995
0
LINE
8
BLACK
6
CONTINUOUS
10
6.54859
20
-4.53995
11
6.56161
21
-4.53456
0
LINE
8
BLACK
6
CONTINUOUS
10
6.56161
20
-4.53456
11
6.57514
21
-4.53066
0
LINE
8
BLACK
6
CONTINUOUS
10
6.57514
20
-4.53066
11
6.58903
21
-4.5283
0
LINE
8
BLACK
6
CONTINUOUS
10
6.58903
20
-4.5283
11
6.60309
21
-4.52751
0
LINE
8
BLACK
6
CONTINUOUS
10
6.60309
20
-4.52751
11
6.61715
21
-4.5283
0
LINE
8
BLACK
6
CONTINUOUS
10
6.49305
20
-4.66597
11
6.49529
21
-4.67866
0
LINE
8
BLACK
6
CONTINUOUS
10
6.49529
20
-4.67866
11
6.49898
21
-4.691
0
LINE
8
BLACK
6
CONTINUOUS
10
6.49898
20
-4.691
11
6.50409
21
-4.70283
0
LINE
8
BLACK
6
CONTINUOUS
10
6.50409
20
-4.70283
11
6.51053
21
-4.71399
0
LINE
8
BLACK
6
CONTINUOUS
10
6.51053
20
-4.71399
11
6.51822
21
-4.72432
0
LINE
8
BLACK
6
CONTINUOUS
10
6.51822
20
-4.72432
11
6.52706
21
-4.73369
0
LINE
8
BLACK
6
CONTINUOUS
10
6.52706
20
-4.73369
11
6.53693
21
-4.74198
0
LINE
8
BLACK
6
CONTINUOUS
10
6.53693
20
-4.74198
11
6.5477
21
-4.74905
0
LINE
8
BLACK
6
CONTINUOUS
10
6.5477
20
-4.74905
11
6.55921
21
-4.75484
0
LINE
8
BLACK
6
CONTINUOUS
10
6.55921
20
-4.75484
11
6.57132
21
-4.75924
0
LINE
8
BLACK
6
CONTINUOUS
10
6.57132
20
-4.75924
11
6.58385
21
-4.76221
0
LINE
8
BLACK
6
CONTINUOUS
10
6.58385
20
-4.76221
11
6.59665
21
-4.76371
0
LINE
8
BLACK
6
CONTINUOUS
10
6.59665
20
-4.76371
11
6.60953
21
-4.76371
0
LINE
8
BLACK
6
CONTINUOUS
10
6.60953
20
-4.76371
11
6.62233
21
-4.76221
0
LINE
8
BLACK
6
CONTINUOUS
10
6.62233
20
-4.76221
11
6.63486
21
-4.75924
0
LINE
8
BLACK
6
CONTINUOUS
10
6.63486
20
-4.75924
11
6.64697
21
-4.75484
0
LINE
8
BLACK
6
CONTINUOUS
10
6.64697
20
-4.75484
11
6.65848
21
-4.74905
0
LINE
8
BLACK
6
CONTINUOUS
10
6.65848
20
-4.74905
11
6.66925
21
-4.74198
0
LINE
8
BLACK
6
CONTINUOUS
10
6.66925
20
-4.74198
11
6.67912
21
-4.73369
0
LINE
8
BLACK
6
CONTINUOUS
10
6.67912
20
-4.73369
11
6.68796
21
-4.72432
0
LINE
8
BLACK
6
CONTINUOUS
10
6.68796
20
-4.72432
11
6.69565
21
-4.71399
0
LINE
8
BLACK
6
CONTINUOUS
10
6.69565
20
-4.71399
11
6.70209
21
-4.70283
0
LINE
8
BLACK
6
CONTINUOUS
10
6.70209
20
-4.70283
11
6.7072
21
-4.691
0
LINE
8
BLACK
6
CONTINUOUS
10
6.7072
20
-4.691
11
6.71089
21
-4.67866
0
LINE
8
BLACK
6
CONTINUOUS
10
6.71089
20
-4.67866
11
6.71313
21
-4.66597
0
LINE
8
BLACK
6
CONTINUOUS
10
6.71313
20
-4.66597
11
6.71388
21
-4.65311
0
LINE
8
BLACK
6
CONTINUOUS
10
6.71388
20
-4.65311
11
6.71313
21
-4.64025
0
LINE
8
BLACK
6
CONTINUOUS
10
6.71313
20
-4.64025
11
6.71089
21
-4.62756
0
LINE
8
BLACK
6
CONTINUOUS
10
6.71089
20
-4.62756
11
6.7072
21
-4.61522
0
LINE
8
BLACK
6
CONTINUOUS
10
6.7072
20
-4.61522
11
6.70209
21
-4.60339
0
LINE
8
BLACK
6
CONTINUOUS
10
6.70209
20
-4.60339
11
6.69565
21
-4.59223
0
LINE
8
BLACK
6
CONTINUOUS
10
6.69565
20
-4.59223
11
6.68796
21
-4.5819
0
LINE
8
BLACK
6
CONTINUOUS
10
6.68796
20
-4.5819
11
6.67912
21
-4.57253
0
LINE
8
BLACK
6
CONTINUOUS
10
6.67912
20
-4.57253
11
6.66925
21
-4.56425
0
LINE
8
BLACK
6
CONTINUOUS
10
6.66925
20
-4.56425
11
6.65848
21
-4.55717
0
LINE
8
BLACK
6
CONTINUOUS
10
6.65848
20
-4.55717
11
6.64697
21
-4.55138
0
LINE
8
BLACK
6
CONTINUOUS
10
6.64697
20
-4.55138
11
6.63486
21
-4.54698
0
LINE
8
BLACK
6
CONTINUOUS
10
6.63486
20
-4.54698
11
6.62233
21
-4.54401
0
LINE
8
BLACK
6
CONTINUOUS
10
6.62233
20
-4.54401
11
6.60953
21
-4.54251
0
LINE
8
BLACK
6
CONTINUOUS
10
6.60953
20
-4.54251
11
6.59665
21
-4.54251
0
LINE
8
BLACK
6
CONTINUOUS
10
6.59665
20
-4.54251
11
6.58385
21
-4.54401
0
LINE
8
BLACK
6
CONTINUOUS
10
6.58385
20
-4.54401
11
6.57132
21
-4.54698
0
LINE
8
BLACK
6
CONTINUOUS
10
6.57132
20
-4.54698
11
6.55921
21
-4.55138
0
LINE
8
BLACK
6
CONTINUOUS
10
6.55921
20
-4.55138
11
6.5477
21
-4.55717
0
LINE
8
BLACK
6
CONTINUOUS
10
6.5477
20
-4.55717
11
6.53693
21
-4.56425
0
LINE
8
BLACK
6
CONTINUOUS
10
6.53693
20
-4.56425
11
6.52706
21
-4.57253
0
LINE
8
BLACK
6
CONTINUOUS
10
6.52706
20
-4.57253
11
6.51822
21
-4.5819
0
LINE
8
BLACK
6
CONTINUOUS
10
6.51822
20
-4.5819
11
6.51053
21
-4.59223
0
LINE
8
BLACK
6
CONTINUOUS
10
6.51053
20
-4.59223
11
6.50409
21
-4.60339
0
LINE
8
BLACK
6
CONTINUOUS
10
6.50409
20
-4.60339
11
6.49898
21
-4.61522
0
LINE
8
BLACK
6
CONTINUOUS
10
6.49898
20
-4.61522
11
6.49529
21
-4.62756
0
LINE
8
BLACK
6
CONTINUOUS
10
6.49529
20
-4.62756
11
6.49305
21
-4.64025
0
LINE
8
BLACK
6
CONTINUOUS
10
6.49305
20
-4.64025
11
6.4923
21
-4.65311
0
LINE
8
BLACK
6
CONTINUOUS
10
6.4923
20
-4.65311
11
6.49305
21
-4.66597
0
LINE
8
BLACK
6
CONTINUOUS
10
5.04078
20
-2.95192
11
5.05466
21
-2.95428
0
LINE
8
BLACK
6
CONTINUOUS
10
5.05466
20
-2.95428
11
5.0682
21
-2.95818
0
LINE
8
BLACK
6
CONTINUOUS
10
5.0682
20
-2.95818
11
5.08121
21
-2.96357
0
LINE
8
BLACK
6
CONTINUOUS
10
5.08121
20
-2.96357
11
5.09354
21
-2.97038
0
LINE
8
BLACK
6
CONTINUOUS
10
5.09354
20
-2.97038
11
5.10502
21
-2.97853
0
LINE
8
BLACK
6
CONTINUOUS
10
5.10502
20
-2.97853
11
5.11553
21
-2.98792
0
LINE
8
BLACK
6
CONTINUOUS
10
5.11553
20
-2.98792
11
5.12491
21
-2.99842
0
LINE
8
BLACK
6
CONTINUOUS
10
5.12491
20
-2.99842
11
5.13306
21
-3.00991
0
LINE
8
BLACK
6
CONTINUOUS
10
5.13306
20
-3.00991
11
5.13987
21
-3.02224
0
LINE
8
BLACK
6
CONTINUOUS
10
5.13987
20
-3.02224
11
5.14526
21
-3.03525
0
LINE
8
BLACK
6
CONTINUOUS
10
5.14526
20
-3.03525
11
5.14916
21
-3.04878
0
LINE
8
BLACK
6
CONTINUOUS
10
5.14916
20
-3.04878
11
5.15152
21
-3.06267
0
LINE
8
BLACK
6
CONTINUOUS
10
5.15152
20
-3.06267
11
5.15231
21
-3.07673
0
LINE
8
BLACK
6
CONTINUOUS
10
5.15231
20
-3.07673
11
5.15152
21
-3.0908
0
LINE
8
BLACK
6
CONTINUOUS
10
5.15152
20
-3.0908
11
5.14916
21
-3.10468
0
LINE
8
BLACK
6
CONTINUOUS
10
5.14916
20
-3.10468
11
5.14526
21
-3.11822
0
LINE
8
BLACK
6
CONTINUOUS
10
5.14526
20
-3.11822
11
5.13987
21
-3.13123
0
LINE
8
BLACK
6
CONTINUOUS
10
5.13987
20
-3.13123
11
5.13306
21
-3.14356
0
LINE
8
BLACK
6
CONTINUOUS
10
5.13306
20
-3.14356
11
5.12491
21
-3.15504
0
LINE
8
BLACK
6
CONTINUOUS
10
5.12491
20
-3.15504
11
5.11553
21
-3.16554
0
LINE
8
BLACK
6
CONTINUOUS
10
5.11553
20
-3.16554
11
5.10502
21
-3.17493
0
LINE
8
BLACK
6
CONTINUOUS
10
5.10502
20
-3.17493
11
5.09354
21
-3.18308
0
LINE
8
BLACK
6
CONTINUOUS
10
5.09354
20
-3.18308
11
5.08121
21
-3.18989
0
LINE
8
BLACK
6
CONTINUOUS
10
5.08121
20
-3.18989
11
5.0682
21
-3.19528
0
LINE
8
BLACK
6
CONTINUOUS
10
5.0682
20
-3.19528
11
5.05466
21
-3.19918
0
LINE
8
BLACK
6
CONTINUOUS
10
5.05466
20
-3.19918
11
5.04078
21
-3.20154
0
LINE
8
BLACK
6
CONTINUOUS
10
5.04078
20
-3.20154
11
5.02671
21
-3.20233
0
LINE
8
BLACK
6
CONTINUOUS
10
5.02671
20
-3.20233
11
5.01265
21
-3.20154
0
LINE
8
BLACK
6
CONTINUOUS
10
5.01265
20
-3.20154
11
4.99876
21
-3.19918
0
LINE
8
BLACK
6
CONTINUOUS
10
4.99876
20
-3.19918
11
4.98523
21
-3.19528
0
LINE
8
BLACK
6
CONTINUOUS
10
4.98523
20
-3.19528
11
4.97222
21
-3.18989
0
LINE
8
BLACK
6
CONTINUOUS
10
4.97222
20
-3.18989
11
4.95989
21
-3.18308
0
LINE
8
BLACK
6
CONTINUOUS
10
4.95989
20
-3.18308
11
4.9484
21
-3.17493
0
LINE
8
BLACK
6
CONTINUOUS
10
4.9484
20
-3.17493
11
4.9379
21
-3.16554
0
LINE
8
BLACK
6
CONTINUOUS
10
4.9379
20
-3.16554
11
4.92851
21
-3.15504
0
LINE
8
BLACK
6
CONTINUOUS
10
4.92851
20
-3.15504
11
4.92036
21
-3.14356
0
LINE
8
BLACK
6
CONTINUOUS
10
4.92036
20
-3.14356
11
4.91355
21
-3.13123
0
LINE
8
BLACK
6
CONTINUOUS
10
4.91355
20
-3.13123
11
4.90816
21
-3.11822
0
LINE
8
BLACK
6
CONTINUOUS
10
4.90816
20
-3.11822
11
4.90426
21
-3.10468
0
LINE
8
BLACK
6
CONTINUOUS
10
4.90426
20
-3.10468
11
4.9019
21
-3.0908
0
LINE
8
BLACK
6
CONTINUOUS
10
4.9019
20
-3.0908
11
4.90111
21
-3.07673
0
LINE
8
BLACK
6
CONTINUOUS
10
4.90111
20
-3.07673
11
4.9019
21
-3.06267
0
LINE
8
BLACK
6
CONTINUOUS
10
4.9019
20
-3.06267
11
4.90426
21
-3.04878
0
LINE
8
BLACK
6
CONTINUOUS
10
4.90426
20
-3.04878
11
4.90816
21
-3.03525
0
LINE
8
BLACK
6
CONTINUOUS
10
4.90816
20
-3.03525
11
4.91355
21
-3.02224
0
LINE
8
BLACK
6
CONTINUOUS
10
4.91355
20
-3.02224
11
4.92036
21
-3.00991
0
LINE
8
BLACK
6
CONTINUOUS
10
4.92036
20
-3.00991
11
4.92851
21
-2.99842
0
LINE
8
BLACK
6
CONTINUOUS
10
4.92851
20
-2.99842
11
4.9379
21
-2.98792
0
LINE
8
BLACK
6
CONTINUOUS
10
4.9379
20
-2.98792
11
4.9484
21
-2.97853
0
LINE
8
BLACK
6
CONTINUOUS
10
4.9484
20
-2.97853
11
4.95989
21
-2.97038
0
LINE
8
BLACK
6
CONTINUOUS
10
4.95989
20
-2.97038
11
4.97222
21
-2.96357
0
LINE
8
BLACK
6
CONTINUOUS
10
4.97222
20
-2.96357
11
4.98523
21
-2.95818
0
LINE
8
BLACK
6
CONTINUOUS
10
4.98523
20
-2.95818
11
4.99876
21
-2.95428
0
LINE
8
BLACK
6
CONTINUOUS
10
4.99876
20
-2.95428
11
5.01265
21
-2.95192
0
LINE
8
BLACK
6
CONTINUOUS
10
5.01265
20
-2.95192
11
5.02671
21
-2.95113
0
LINE
8
BLACK
6
CONTINUOUS
10
5.02671
20
-2.95113
11
5.04078
21
-2.95192
0
LINE
8
BLACK
6
CONTINUOUS
10
4.91667
20
-3.08959
11
4.91891
21
-3.10228
0
LINE
8
BLACK
6
CONTINUOUS
10
4.91891
20
-3.10228
11
4.92261
21
-3.11462
0
LINE
8
BLACK
6
CONTINUOUS
10
4.92261
20
-3.11462
11
4.92771
21
-3.12645
0
LINE
8
BLACK
6
CONTINUOUS
10
4.92771
20
-3.12645
11
4.93415
21
-3.13761
0
LINE
8
BLACK
6
CONTINUOUS
10
4.93415
20
-3.13761
11
4.94184
21
-3.14795
0
LINE
8
BLACK
6
CONTINUOUS
10
4.94184
20
-3.14795
11
4.95069
21
-3.15732
0
LINE
8
BLACK
6
CONTINUOUS
10
4.95069
20
-3.15732
11
4.96055
21
-3.1656
0
LINE
8
BLACK
6
CONTINUOUS
10
4.96055
20
-3.1656
11
4.97132
21
-3.17268
0
LINE
8
BLACK
6
CONTINUOUS
10
4.97132
20
-3.17268
11
4.98283
21
-3.17846
0
LINE
8
BLACK
6
CONTINUOUS
10
4.98283
20
-3.17846
11
4.99494
21
-3.18287
0
LINE
8
BLACK
6
CONTINUOUS
10
4.99494
20
-3.18287
11
5.00747
21
-3.18584
0
LINE
8
BLACK
6
CONTINUOUS
10
5.00747
20
-3.18584
11
5.02027
21
-3.18733
0
LINE
8
BLACK
6
CONTINUOUS
10
5.02027
20
-3.18733
11
5.03315
21
-3.18733
0
LINE
8
BLACK
6
CONTINUOUS
10
5.03315
20
-3.18733
11
5.04595
21
-3.18584
0
LINE
8
BLACK
6
CONTINUOUS
10
5.04595
20
-3.18584
11
5.05849
21
-3.18287
0
LINE
8
BLACK
6
CONTINUOUS
10
5.05849
20
-3.18287
11
5.07059
21
-3.17846
0
LINE
8
BLACK
6
CONTINUOUS
10
5.07059
20
-3.17846
11
5.08211
21
-3.17268
0
LINE
8
BLACK
6
CONTINUOUS
10
5.08211
20
-3.17268
11
5.09287
21
-3.1656
0
LINE
8
BLACK
6
CONTINUOUS
10
5.09287
20
-3.1656
11
5.10274
21
-3.15732
0
LINE
8
BLACK
6
CONTINUOUS
10
5.10274
20
-3.15732
11
5.11158
21
-3.14795
0
LINE
8
BLACK
6
CONTINUOUS
10
5.11158
20
-3.14795
11
5.11927
21
-3.13761
0
LINE
8
BLACK
6
CONTINUOUS
10
5.11927
20
-3.13761
11
5.12572
21
-3.12645
0
LINE
8
BLACK
6
CONTINUOUS
10
5.12572
20
-3.12645
11
5.13082
21
-3.11462
0
LINE
8
BLACK
6
CONTINUOUS
10
5.13082
20
-3.11462
11
5.13451
21
-3.10228
0
LINE
8
BLACK
6
CONTINUOUS
10
5.13451
20
-3.10228
11
5.13675
21
-3.08959
0
LINE
8
BLACK
6
CONTINUOUS
10
5.13675
20
-3.08959
11
5.1375
21
-3.07673
0
LINE
8
BLACK
6
CONTINUOUS
10
5.1375
20
-3.07673
11
5.13675
21
-3.06387
0
LINE
8
BLACK
6
CONTINUOUS
10
5.13675
20
-3.06387
11
5.13451
21
-3.05118
0
LINE
8
BLACK
6
CONTINUOUS
10
5.13451
20
-3.05118
11
5.13082
21
-3.03884
0
LINE
8
BLACK
6
CONTINUOUS
10
5.13082
20
-3.03884
11
5.12572
21
-3.02701
0
LINE
8
BLACK
6
CONTINUOUS
10
5.12572
20
-3.02701
11
5.11927
21
-3.01585
0
LINE
8
BLACK
6
CONTINUOUS
10
5.11927
20
-3.01585
11
5.11158
21
-3.00552
0
LINE
8
BLACK
6
CONTINUOUS
10
5.11158
20
-3.00552
11
5.10274
21
-2.99615
0
LINE
8
BLACK
6
CONTINUOUS
10
5.10274
20
-2.99615
11
5.09287
21
-2.98787
0
LINE
8
BLACK
6
CONTINUOUS
10
5.09287
20
-2.98787
11
5.08211
21
-2.98079
0
LINE
8
BLACK
6
CONTINUOUS
10
5.08211
20
-2.98079
11
5.07059
21
-2.97501
0
LINE
8
BLACK
6
CONTINUOUS
10
5.07059
20
-2.97501
11
5.05849
21
-2.9706
0
LINE
8
BLACK
6
CONTINUOUS
10
5.05849
20
-2.9706
11
5.04595
21
-2.96763
0
LINE
8
BLACK
6
CONTINUOUS
10
5.04595
20
-2.96763
11
5.03315
21
-2.96613
0
LINE
8
BLACK
6
CONTINUOUS
10
5.03315
20
-2.96613
11
5.02027
21
-2.96613
0
LINE
8
BLACK
6
CONTINUOUS
10
5.02027
20
-2.96613
11
5.00747
21
-2.96763
0
LINE
8
BLACK
6
CONTINUOUS
10
5.00747
20
-2.96763
11
4.99494
21
-2.9706
0
LINE
8
BLACK
6
CONTINUOUS
10
4.99494
20
-2.9706
11
4.98283
21
-2.97501
0
LINE
8
BLACK
6
CONTINUOUS
10
4.98283
20
-2.97501
11
4.97132
21
-2.98079
0
LINE
8
BLACK
6
CONTINUOUS
10
4.97132
20
-2.98079
11
4.96055
21
-2.98787
0
LINE
8
BLACK
6
CONTINUOUS
10
4.96055
20
-2.98787
11
4.95069
21
-2.99615
0
LINE
8
BLACK
6
CONTINUOUS
10
4.95069
20
-2.99615
11
4.94184
21
-3.00552
0
LINE
8
BLACK
6
CONTINUOUS
10
4.94184
20
-3.00552
11
4.93415
21
-3.01585
0
LINE
8
BLACK
6
CONTINUOUS
10
4.93415
20
-3.01585
11
4.92771
21
-3.02701
0
LINE
8
BLACK
6
CONTINUOUS
10
4.92771
20
-3.02701
11
4.92261
21
-3.03884
0
LINE
8
BLACK
6
CONTINUOUS
10
4.92261
20
-3.03884
11
4.91891
21
-3.05118
0
LINE
8
BLACK
6
CONTINUOUS
10
4.91891
20
-3.05118
11
4.91667
21
-3.06387
0
LINE
8
BLACK
6
CONTINUOUS
10
4.91667
20
-3.06387
11
4.91593
21
-3.07673
0
LINE
8
BLACK
6
CONTINUOUS
10
4.91593
20
-3.07673
11
4.91667
21
-3.08959
0
LINE
8
BLACK
6
CONTINUOUS
10
6.61715
20
-2.95192
11
6.63104
21
-2.95428
0
LINE
8
BLACK
6
CONTINUOUS
10
6.63104
20
-2.95428
11
6.64457
21
-2.95818
0
LINE
8
BLACK
6
CONTINUOUS
10
6.64457
20
-2.95818
11
6.65759
21
-2.96357
0
LINE
8
BLACK
6
CONTINUOUS
10
6.65759
20
-2.96357
11
6.66991
21
-2.97038
0
LINE
8
BLACK
6
CONTINUOUS
10
6.66991
20
-2.97038
11
6.6814
21
-2.97853
0
LINE
8
BLACK
6
CONTINUOUS
10
6.6814
20
-2.97853
11
6.6919
21
-2.98792
0
LINE
8
BLACK
6
CONTINUOUS
10
6.6919
20
-2.98792
11
6.70129
21
-2.99842
0
LINE
8
BLACK
6
CONTINUOUS
10
6.70129
20
-2.99842
11
6.70944
21
-3.00991
0
LINE
8
BLACK
6
CONTINUOUS
10
6.70944
20
-3.00991
11
6.71625
21
-3.02224
0
LINE
8
BLACK
6
CONTINUOUS
10
6.71625
20
-3.02224
11
6.72164
21
-3.03525
0
LINE
8
BLACK
6
CONTINUOUS
10
6.72164
20
-3.03525
11
6.72554
21
-3.04878
0
LINE
8
BLACK
6
CONTINUOUS
10
6.72554
20
-3.04878
11
6.7279
21
-3.06267
0
LINE
8
BLACK
6
CONTINUOUS
10
6.7279
20
-3.06267
11
6.72869
21
-3.07673
0
LINE
8
BLACK
6
CONTINUOUS
10
6.72869
20
-3.07673
11
6.7279
21
-3.0908
0
LINE
8
BLACK
6
CONTINUOUS
10
6.7279
20
-3.0908
11
6.72554
21
-3.10468
0
LINE
8
BLACK
6
CONTINUOUS
10
6.72554
20
-3.10468
11
6.72164
21
-3.11822
0
LINE
8
BLACK
6
CONTINUOUS
10
6.72164
20
-3.11822
11
6.71625
21
-3.13123
0
LINE
8
BLACK
6
CONTINUOUS
10
6.71625
20
-3.13123
11
6.70944
21
-3.14356
0
LINE
8
BLACK
6
CONTINUOUS
10
6.70944
20
-3.14356
11
6.70129
21
-3.15504
0
LINE
8
BLACK
6
CONTINUOUS
10
6.70129
20
-3.15504
11
6.6919
21
-3.16554
0
LINE
8
BLACK
6
CONTINUOUS
10
6.6919
20
-3.16554
11
6.6814
21
-3.17493
0
LINE
8
BLACK
6
CONTINUOUS
10
6.6814
20
-3.17493
11
6.66991
21
-3.18308
0
LINE
8
BLACK
6
CONTINUOUS
10
6.66991
20
-3.18308
11
6.65759
21
-3.18989
0
LINE
8
BLACK
6
CONTINUOUS
10
6.65759
20
-3.18989
11
6.64457
21
-3.19528
0
LINE
8
BLACK
6
CONTINUOUS
10
6.64457
20
-3.19528
11
6.63104
21
-3.19918
0
LINE
8
BLACK
6
CONTINUOUS
10
6.63104
20
-3.19918
11
6.61715
21
-3.20154
0
LINE
8
BLACK
6
CONTINUOUS
10
6.61715
20
-3.20154
11
6.60309
21
-3.20233
0
LINE
8
BLACK
6
CONTINUOUS
10
6.60309
20
-3.20233
11
6.58903
21
-3.20154
0
LINE
8
BLACK
6
CONTINUOUS
10
6.58903
20
-3.20154
11
6.57514
21
-3.19918
0
LINE
8
BLACK
6
CONTINUOUS
10
6.57514
20
-3.19918
11
6.56161
21
-3.19528
0
LINE
8
BLACK
6
CONTINUOUS
10
6.56161
20
-3.19528
11
6.54859
21
-3.18989
0
LINE
8
BLACK
6
CONTINUOUS
10
6.54859
20
-3.18989
11
6.53627
21
-3.18308
0
LINE
8
BLACK
6
CONTINUOUS
10
6.53627
20
-3.18308
11
6.52478
21
-3.17493
0
LINE
8
BLACK
6
CONTINUOUS
10
6.52478
20
-3.17493
11
6.51428
21
-3.16554
0
LINE
8
BLACK
6
CONTINUOUS
10
6.51428
20
-3.16554
11
6.50489
21
-3.15504
0
LINE
8
BLACK
6
CONTINUOUS
10
6.50489
20
-3.15504
11
6.49674
21
-3.14356
0
LINE
8
BLACK
6
CONTINUOUS
10
6.49674
20
-3.14356
11
6.48993
21
-3.13123
0
LINE
8
BLACK
6
CONTINUOUS
10
6.48993
20
-3.13123
11
6.48454
21
-3.11822
0
LINE
8
BLACK
6
CONTINUOUS
10
6.48454
20
-3.11822
11
6.48064
21
-3.10468
0
LINE
8
BLACK
6
CONTINUOUS
10
6.48064
20
-3.10468
11
6.47828
21
-3.0908
0
LINE
8
BLACK
6
CONTINUOUS
10
6.47828
20
-3.0908
11
6.47749
21
-3.07673
0
LINE
8
BLACK
6
CONTINUOUS
10
6.47749
20
-3.07673
11
6.47828
21
-3.06267
0
LINE
8
BLACK
6
CONTINUOUS
10
6.47828
20
-3.06267
11
6.48064
21
-3.04878
0
LINE
8
BLACK
6
CONTINUOUS
10
6.48064
20
-3.04878
11
6.48454
21
-3.03525
0
LINE
8
BLACK
6
CONTINUOUS
10
6.48454
20
-3.03525
11
6.48993
21
-3.02224
0
LINE
8
BLACK
6
CONTINUOUS
10
6.48993
20
-3.02224
11
6.49674
21
-3.00991
0
LINE
8
BLACK
6
CONTINUOUS
10
6.49674
20
-3.00991
11
6.50489
21
-2.99842
0
LINE
8
BLACK
6
CONTINUOUS
10
6.50489
20
-2.99842
11
6.51428
21
-2.98792
0
LINE
8
BLACK
6
CONTINUOUS
10
6.51428
20
-2.98792
11
6.52478
21
-2.97853
0
LINE
8
BLACK
6
CONTINUOUS
10
6.52478
20
-2.97853
11
6.53627
21
-2.97038
0
LINE
8
BLACK
6
CONTINUOUS
10
6.53627
20
-2.97038
11
6.54859
21
-2.96357
0
LINE
8
BLACK
6
CONTINUOUS
10
6.54859
20
-2.96357
11
6.56161
21
-2.95818
0
LINE
8
BLACK
6
CONTINUOUS
10
6.56161
20
-2.95818
11
6.57514
21
-2.95428
0
LINE
8
BLACK
6
CONTINUOUS
10
6.57514
20
-2.95428
11
6.58903
21
-2.95192
0
LINE
8
BLACK
6
CONTINUOUS
10
6.58903
20
-2.95192
11
6.60309
21
-2.95113
0
LINE
8
BLACK
6
CONTINUOUS
10
6.60309
20
-2.95113
11
6.61715
21
-2.95192
0
LINE
8
BLACK
6
CONTINUOUS
10
6.49305
20
-3.08959
11
6.49529
21
-3.10228
0
LINE
8
BLACK
6
CONTINUOUS
10
6.49529
20
-3.10228
11
6.49898
21
-3.11462
0
LINE
8
BLACK
6
CONTINUOUS
10
6.49898
20
-3.11462
11
6.50409
21
-3.12645
0
LINE
8
BLACK
6
CONTINUOUS
10
6.50409
20
-3.12645
11
6.51053
21
-3.13761
0
LINE
8
BLACK
6
CONTINUOUS
10
6.51053
20
-3.13761
11
6.51822
21
-3.14795
0
LINE
8
BLACK
6
CONTINUOUS
10
6.51822
20
-3.14795
11
6.52706
21
-3.15732
0
LINE
8
BLACK
6
CONTINUOUS
10
6.52706
20
-3.15732
11
6.53693
21
-3.1656
0
LINE
8
BLACK
6
CONTINUOUS
10
6.53693
20
-3.1656
11
6.5477
21
-3.17268
0
LINE
8
BLACK
6
CONTINUOUS
10
6.5477
20
-3.17268
11
6.55921
21
-3.17846
0
LINE
8
BLACK
6
CONTINUOUS
10
6.55921
20
-3.17846
11
6.57132
21
-3.18287
0
LINE
8
BLACK
6
CONTINUOUS
10
6.57132
20
-3.18287
11
6.58385
21
-3.18584
0
LINE
8
BLACK
6
CONTINUOUS
10
6.58385
20
-3.18584
11
6.59665
21
-3.18733
0
LINE
8
BLACK
6
CONTINUOUS
10
6.59665
20
-3.18733
11
6.60953
21
-3.18733
0
LINE
8
BLACK
6
CONTINUOUS
10
6.60953
20
-3.18733
11
6.62233
21
-3.18584
0
LINE
8
BLACK
6
CONTINUOUS
10
6.62233
20
-3.18584
11
6.63486
21
-3.18287
0
LINE
8
BLACK
6
CONTINUOUS
10
6.63486
20
-3.18287
11
6.64697
21
-3.17846
0
LINE
8
BLACK
6
CONTINUOUS
10
6.64697
20
-3.17846
11
6.65848
21
-3.17268
0
LINE
8
BLACK
6
CONTINUOUS
10
6.65848
20
-3.17268
11
6.66925
21
-3.1656
0
LINE
8
BLACK
6
CONTINUOUS
10
6.66925
20
-3.1656
11
6.67912
21
-3.15732
0
LINE
8
BLACK
6
CONTINUOUS
10
6.67912
20
-3.15732
11
6.68796
21
-3.14795
0
LINE
8
BLACK
6
CONTINUOUS
10
6.68796
20
-3.14795
11
6.69565
21
-3.13761
0
LINE
8
BLACK
6
CONTINUOUS
10
6.69565
20
-3.13761
11
6.70209
21
-3.12645
0
LINE
8
BLACK
6
CONTINUOUS
10
6.70209
20
-3.12645
11
6.7072
21
-3.11462
0
LINE
8
BLACK
6
CONTINUOUS
10
6.7072
20
-3.11462
11
6.71089
21
-3.10228
0
LINE
8
BLACK
6
CONTINUOUS
10
6.71089
20
-3.10228
11
6.71313
21
-3.08959
0
LINE
8
BLACK
6
CONTINUOUS
10
6.71313
20
-3.08959
11
6.71388
21
-3.07673
0
LINE
8
BLACK
6
CONTINUOUS
10
6.71388
20
-3.07673
11
6.71313
21
-3.06387
0
LINE
8
BLACK
6
CONTINUOUS
10
6.71313
20
-3.06387
11
6.71089
21
-3.05118
0
LINE
8
BLACK
6
CONTINUOUS
10
6.71089
20
-3.05118
11
6.7072
21
-3.03884
0
LINE
8
BLACK
6
CONTINUOUS
10
6.7072
20
-3.03884
11
6.70209
21
-3.02701
0
LINE
8
BLACK
6
CONTINUOUS
10
6.70209
20
-3.02701
11
6.69565
21
-3.01585
0
LINE
8
BLACK
6
CONTINUOUS
10
6.69565
20
-3.01585
11
6.68796
21
-3.00552
0
LINE
8
BLACK
6
CONTINUOUS
10
6.68796
20
-3.00552
11
6.67912
21
-2.99615
0
LINE
8
BLACK
6
CONTINUOUS
10
6.67912
20
-2.99615
11
6.66925
21
-2.98787
0
LINE
8
BLACK
6
CONTINUOUS
10
6.66925
20
-2.98787
11
6.65848
21
-2.98079
0
LINE
8
BLACK
6
CONTINUOUS
10
6.65848
20
-2.98079
11
6.64697
21
-2.97501
0
LINE
8
BLACK
6
CONTINUOUS
10
6.64697
20
-2.97501
11
6.63486
21
-2.9706
0
LINE
8
BLACK
6
CONTINUOUS
10
6.63486
20
-2.9706
11
6.62233
21
-2.96763
0
LINE
8
BLACK
6
CONTINUOUS
10
6.62233
20
-2.96763
11
6.60953
21
-2.96613
0
LINE
8
BLACK
6
CONTINUOUS
10
6.60953
20
-2.96613
11
6.59665
21
-2.96613
0
LINE
8
BLACK
6
CONTINUOUS
10
6.59665
20
-2.96613
11
6.58385
21
-2.96763
0
LINE
8
BLACK
6
CONTINUOUS
10
6.58385
20
-2.96763
11
6.57132
21
-2.9706
0
LINE
8
BLACK
6
CONTINUOUS
10
6.57132
20
-2.9706
11
6.55921
21
-2.97501
0
LINE
8
BLACK
6
CONTINUOUS
10
6.55921
20
-2.97501
11
6.5477
21
-2.98079
0
LINE
8
BLACK
6
CONTINUOUS
10
6.5477
20
-2.98079
11
6.53693
21
-2.98787
0
LINE
8
BLACK
6
CONTINUOUS
10
6.53693
20
-2.98787
11
6.52706
21
-2.99615
0
LINE
8
BLACK
6
CONTINUOUS
10
6.52706
20
-2.99615
11
6.51822
21
-3.00552
0
LINE
8
BLACK
6
CONTINUOUS
10
6.51822
20
-3.00552
11
6.51053
21
-3.01585
0
LINE
8
BLACK
6
CONTINUOUS
10
6.51053
20
-3.01585
11
6.50409
21
-3.02701
0
LINE
8
BLACK
6
CONTINUOUS
10
6.50409
20
-3.02701
11
6.49898
21
-3.03884
0
LINE
8
BLACK
6
CONTINUOUS
10
6.49898
20
-3.03884
11
6.49529
21
-3.05118
0
LINE
8
BLACK
6
CONTINUOUS
10
6.49529
20
-3.05118
11
6.49305
21
-3.06387
0
LINE
8
BLACK
6
CONTINUOUS
10
6.49305
20
-3.06387
11
6.4923
21
-3.07673
0
LINE
8
BLACK
6
CONTINUOUS
10
6.4923
20
-3.07673
11
6.49305
21
-3.08959
  0
ENDSEC
  0
EOF
