  0
SECTION
  2
HEADER
  9
$ANGBASE
  50
0.0
  9
$ANGDIR
  70
1
  9
$MEASUREMENT
  70
0
  0
ENDSEC
  0
SECTION
  2
TABLES
  0
TABLE
  2
LTYPE
  70
4
  0
LTYPE
  5
40F
  2
CONTINUOUS
  70
0
  3
Solid line
  72
65
  73
0
  40
0.0
  0
LTYPE
  5
410
  2
DASHDOT
 70
0
  3
Dash Dot ____ _ ____ _
 72
65
 73
4
 40
2.0
 49
1.25
 49
-0.25
 49
0.25
 49
-0.25
  0
LTYPE
  5
411
  2
DASHED
 70
0
  3
Dashed __ __ __ __ __
 72
65
 73
2
 40
0.75
 49
0.5
 49
-0.25
  0
LTYPE
  5
43B
  2
DOTTED
 70
0
  3
Dotted .  .  .  .
 72
65
 73
2
 40
0.2
 49
0.0
 49
-0.2
  0
ENDTAB
  0
TABLE
  2
STYLE
  70
4
  0
STYLE
  2
KICAD
  70
0
  40
0
  41
1
  42
1
  50
0
  71
0
  3
isocp.shx
  0
STYLE
  2
KICADB
  70
0
  40
0
  41
1
  42
1
  50
0
  71
0
  3
isocp.shx
  0
STYLE
  2
KICADI
  70
0
  40
0
  41
1
  42
1
  50
15
  71
0
  3
isocp.shx
  0
STYLE
  2
KICADBI
  70
0
  40
0
  41
1
  42
1
  50
15
  71
0
  3
isocp.shx
  0
ENDTAB
  0
TABLE
  2
LAYER
  70
1
  0
LAYER
  2
BLACK
  70
0
  62
7
  6
CONTINUOUS
  0
ENDTAB
  0
ENDSEC
  0
SECTION
  2
ENTITIES
0
LINE
8
BLACK
6
CONTINUOUS
10
6.48101
20
-4.62358
11
6.48507
21
-4.61015
0
LINE
8
BLACK
6
CONTINUOUS
10
6.48507
20
-4.61015
11
6.49059
21
-4.59726
0
LINE
8
BLACK
6
CONTINUOUS
10
6.49059
20
-4.59726
11
6.49752
21
-4.58507
0
LINE
8
BLACK
6
CONTINUOUS
10
6.49752
20
-4.58507
11
6.50576
21
-4.57373
0
LINE
8
BLACK
6
CONTINUOUS
10
6.50576
20
-4.57373
11
6.51521
21
-4.56337
0
LINE
8
BLACK
6
CONTINUOUS
10
6.51521
20
-4.56337
11
6.52576
21
-4.55414
0
LINE
8
BLACK
6
CONTINUOUS
10
6.52576
20
-4.55414
11
6.53728
21
-4.54613
0
LINE
8
BLACK
6
CONTINUOUS
10
6.53728
20
-4.54613
11
6.54961
21
-4.53946
0
LINE
8
BLACK
6
CONTINUOUS
10
6.54961
20
-4.53946
11
6.56261
21
-4.53421
0
LINE
8
BLACK
6
CONTINUOUS
10
6.56261
20
-4.53421
11
6.57612
21
-4.53044
0
LINE
8
BLACK
6
CONTINUOUS
10
6.57612
20
-4.53044
11
6.58996
21
-4.5282
0
LINE
8
BLACK
6
CONTINUOUS
10
6.58996
20
-4.5282
11
6.60397
21
-4.52751
0
LINE
8
BLACK
6
CONTINUOUS
10
6.60397
20
-4.52751
11
6.61796
21
-4.52839
0
LINE
8
BLACK
6
CONTINUOUS
10
6.61796
20
-4.52839
11
6.63177
21
-4.53083
0
LINE
8
BLACK
6
CONTINUOUS
10
6.63177
20
-4.53083
11
6.64522
21
-4.53479
0
LINE
8
BLACK
6
CONTINUOUS
10
6.64522
20
-4.53479
11
6.65815
21
-4.54022
0
LINE
8
BLACK
6
CONTINUOUS
10
6.65815
20
-4.54022
11
6.67039
21
-4.54706
0
LINE
8
BLACK
6
CONTINUOUS
10
6.67039
20
-4.54706
11
6.68179
21
-4.55523
0
LINE
8
BLACK
6
CONTINUOUS
10
6.68179
20
-4.55523
11
6.69221
21
-4.56461
0
LINE
8
BLACK
6
CONTINUOUS
10
6.69221
20
-4.56461
11
6.70152
21
-4.57509
0
LINE
8
BLACK
6
CONTINUOUS
10
6.70152
20
-4.57509
11
6.70961
21
-4.58655
0
LINE
8
BLACK
6
CONTINUOUS
10
6.70961
20
-4.58655
11
6.71636
21
-4.59884
0
LINE
8
BLACK
6
CONTINUOUS
10
6.71636
20
-4.59884
11
6.7217
21
-4.6118
0
LINE
8
BLACK
6
CONTINUOUS
10
6.7217
20
-4.6118
11
6.72557
21
-4.62528
0
LINE
8
BLACK
6
CONTINUOUS
10
6.72557
20
-4.62528
11
6.72791
21
-4.63911
0
LINE
8
BLACK
6
CONTINUOUS
10
6.72791
20
-4.63911
11
6.72869
21
-4.65311
0
LINE
8
BLACK
6
CONTINUOUS
10
6.72869
20
-4.65311
11
6.72864
21
-4.65662
0
LINE
8
BLACK
6
CONTINUOUS
10
6.72864
20
-4.65662
11
6.72747
21
-4.67059
0
LINE
8
BLACK
6
CONTINUOUS
10
6.72747
20
-4.67059
11
6.72474
21
-4.68435
0
LINE
8
BLACK
6
CONTINUOUS
10
6.72474
20
-4.68435
11
6.7205
21
-4.69771
0
LINE
8
BLACK
6
CONTINUOUS
10
6.7205
20
-4.69771
11
6.7148
21
-4.71052
0
LINE
8
BLACK
6
CONTINUOUS
10
6.7148
20
-4.71052
11
6.70771
21
-4.72262
0
LINE
8
BLACK
6
CONTINUOUS
10
6.70771
20
-4.72262
11
6.69931
21
-4.73384
0
LINE
8
BLACK
6
CONTINUOUS
10
6.69931
20
-4.73384
11
6.68971
21
-4.74407
0
LINE
8
BLACK
6
CONTINUOUS
10
6.68971
20
-4.74407
11
6.67903
21
-4.75315
0
LINE
8
BLACK
6
CONTINUOUS
10
6.67903
20
-4.75315
11
6.6674
21
-4.761
0
LINE
8
BLACK
6
CONTINUOUS
10
6.6674
20
-4.761
11
6.65498
21
-4.76749
0
LINE
8
BLACK
6
CONTINUOUS
10
6.65498
20
-4.76749
11
6.6419
21
-4.77256
0
LINE
8
BLACK
6
CONTINUOUS
10
6.6419
20
-4.77256
11
6.62835
21
-4.77614
0
LINE
8
BLACK
6
CONTINUOUS
10
6.62835
20
-4.77614
11
6.61447
21
-4.77819
0
LINE
8
BLACK
6
CONTINUOUS
10
6.61447
20
-4.77819
11
6.60046
21
-4.77868
0
LINE
8
BLACK
6
CONTINUOUS
10
6.60046
20
-4.77868
11
6.58648
21
-4.77761
0
LINE
8
BLACK
6
CONTINUOUS
10
6.58648
20
-4.77761
11
6.57271
21
-4.77498
0
LINE
8
BLACK
6
CONTINUOUS
10
6.57271
20
-4.77498
11
6.55931
21
-4.77083
0
LINE
8
BLACK
6
CONTINUOUS
10
6.55931
20
-4.77083
11
6.54646
21
-4.76522
0
LINE
8
BLACK
6
CONTINUOUS
10
6.54646
20
-4.76522
11
6.53432
21
-4.75821
0
LINE
8
BLACK
6
CONTINUOUS
10
6.53432
20
-4.75821
11
6.52303
21
-4.74989
0
LINE
8
BLACK
6
CONTINUOUS
10
6.52303
20
-4.74989
11
6.51274
21
-4.74036
0
LINE
8
BLACK
6
CONTINUOUS
10
6.51274
20
-4.74036
11
6.50358
21
-4.72974
0
LINE
8
BLACK
6
CONTINUOUS
10
6.50358
20
-4.72974
11
6.49566
21
-4.71817
0
LINE
8
BLACK
6
CONTINUOUS
10
6.49566
20
-4.71817
11
6.48907
21
-4.70579
0
LINE
8
BLACK
6
CONTINUOUS
10
6.48907
20
-4.70579
11
6.48391
21
-4.69276
0
LINE
8
BLACK
6
CONTINUOUS
10
6.48391
20
-4.69276
11
6.48024
21
-4.67922
0
LINE
8
BLACK
6
CONTINUOUS
10
6.48024
20
-4.67922
11
6.47809
21
-4.66537
0
LINE
8
BLACK
6
CONTINUOUS
10
6.47809
20
-4.66537
11
6.4775
21
-4.65136
0
LINE
8
BLACK
6
CONTINUOUS
10
6.4775
20
-4.65136
11
6.47762
21
-4.64963
0
LINE
8
BLACK
6
CONTINUOUS
10
6.47762
20
-4.64963
11
6.47848
21
-4.63737
0
LINE
8
BLACK
6
CONTINUOUS
10
6.47848
20
-4.63737
11
6.48101
21
-4.62358
0
LINE
8
BLACK
6
CONTINUOUS
10
6.49449
20
-4.67501
11
6.49773
21
-4.68735
0
LINE
8
BLACK
6
CONTINUOUS
10
6.49773
20
-4.68735
11
6.50236
21
-4.69923
0
LINE
8
BLACK
6
CONTINUOUS
10
6.50236
20
-4.69923
11
6.50833
21
-4.7105
0
LINE
8
BLACK
6
CONTINUOUS
10
6.50833
20
-4.7105
11
6.51555
21
-4.72101
0
LINE
8
BLACK
6
CONTINUOUS
10
6.51555
20
-4.72101
11
6.52394
21
-4.73062
0
LINE
8
BLACK
6
CONTINUOUS
10
6.52394
20
-4.73062
11
6.53337
21
-4.73921
0
LINE
8
BLACK
6
CONTINUOUS
10
6.53337
20
-4.73921
11
6.54373
21
-4.74665
0
LINE
8
BLACK
6
CONTINUOUS
10
6.54373
20
-4.74665
11
6.55487
21
-4.75285
0
LINE
8
BLACK
6
CONTINUOUS
10
6.55487
20
-4.75285
11
6.56666
21
-4.75774
0
LINE
8
BLACK
6
CONTINUOUS
10
6.56666
20
-4.75774
11
6.57892
21
-4.76123
0
LINE
8
BLACK
6
CONTINUOUS
10
6.57892
20
-4.76123
11
6.59151
21
-4.76329
0
LINE
8
BLACK
6
CONTINUOUS
10
6.59151
20
-4.76329
11
6.60425
21
-4.76389
0
LINE
8
BLACK
6
CONTINUOUS
10
6.60425
20
-4.76389
11
6.61698
21
-4.76302
0
LINE
8
BLACK
6
CONTINUOUS
10
6.61698
20
-4.76302
11
6.62952
21
-4.7607
0
LINE
8
BLACK
6
CONTINUOUS
10
6.62952
20
-4.7607
11
6.64171
21
-4.75695
0
LINE
8
BLACK
6
CONTINUOUS
10
6.64171
20
-4.75695
11
6.65339
21
-4.75182
0
LINE
8
BLACK
6
CONTINUOUS
10
6.65339
20
-4.75182
11
6.6644
21
-4.74539
0
LINE
8
BLACK
6
CONTINUOUS
10
6.6644
20
-4.74539
11
6.6746
21
-4.73773
0
LINE
8
BLACK
6
CONTINUOUS
10
6.6746
20
-4.73773
11
6.68385
21
-4.72895
0
LINE
8
BLACK
6
CONTINUOUS
10
6.68385
20
-4.72895
11
6.69203
21
-4.71916
0
LINE
8
BLACK
6
CONTINUOUS
10
6.69203
20
-4.71916
11
6.69904
21
-4.7085
0
LINE
8
BLACK
6
CONTINUOUS
10
6.69904
20
-4.7085
11
6.70477
21
-4.69711
0
LINE
8
BLACK
6
CONTINUOUS
10
6.70477
20
-4.69711
11
6.70915
21
-4.68513
0
LINE
8
BLACK
6
CONTINUOUS
10
6.70915
20
-4.68513
11
6.71213
21
-4.67273
0
LINE
8
BLACK
6
CONTINUOUS
10
6.71213
20
-4.67273
11
6.71366
21
-4.66007
0
LINE
8
BLACK
6
CONTINUOUS
10
6.71366
20
-4.66007
11
6.71388
21
-4.65311
0
LINE
8
BLACK
6
CONTINUOUS
10
6.71388
20
-4.65311
11
6.71314
21
-4.64038
0
LINE
8
BLACK
6
CONTINUOUS
10
6.71314
20
-4.64038
11
6.71095
21
-4.62781
0
LINE
8
BLACK
6
CONTINUOUS
10
6.71095
20
-4.62781
11
6.70733
21
-4.61558
0
LINE
8
BLACK
6
CONTINUOUS
10
6.70733
20
-4.61558
11
6.70232
21
-4.60385
0
LINE
8
BLACK
6
CONTINUOUS
10
6.70232
20
-4.60385
11
6.696
21
-4.59277
0
LINE
8
BLACK
6
CONTINUOUS
10
6.696
20
-4.59277
11
6.68845
21
-4.58249
0
LINE
8
BLACK
6
CONTINUOUS
10
6.68845
20
-4.58249
11
6.67977
21
-4.57315
0
LINE
8
BLACK
6
CONTINUOUS
10
6.67977
20
-4.57315
11
6.67007
21
-4.56486
0
LINE
8
BLACK
6
CONTINUOUS
10
6.67007
20
-4.56486
11
6.65949
21
-4.55775
0
LINE
8
BLACK
6
CONTINUOUS
10
6.65949
20
-4.55775
11
6.64815
21
-4.5519
0
LINE
8
BLACK
6
CONTINUOUS
10
6.64815
20
-4.5519
11
6.63622
21
-4.54739
0
LINE
8
BLACK
6
CONTINUOUS
10
6.63622
20
-4.54739
11
6.62385
21
-4.54429
0
LINE
8
BLACK
6
CONTINUOUS
10
6.62385
20
-4.54429
11
6.6112
21
-4.54262
0
LINE
8
BLACK
6
CONTINUOUS
10
6.6112
20
-4.54262
11
6.59845
21
-4.54242
0
LINE
8
BLACK
6
CONTINUOUS
10
6.59845
20
-4.54242
11
6.58576
21
-4.54369
0
LINE
8
BLACK
6
CONTINUOUS
10
6.58576
20
-4.54369
11
6.5733
21
-4.5464
0
LINE
8
BLACK
6
CONTINUOUS
10
6.5733
20
-4.5464
11
6.56123
21
-4.55054
0
LINE
8
BLACK
6
CONTINUOUS
10
6.56123
20
-4.55054
11
6.54972
21
-4.55603
0
LINE
8
BLACK
6
CONTINUOUS
10
6.54972
20
-4.55603
11
6.53891
21
-4.5628
0
LINE
8
BLACK
6
CONTINUOUS
10
6.53891
20
-4.5628
11
6.52896
21
-4.57078
0
LINE
8
BLACK
6
CONTINUOUS
10
6.52896
20
-4.57078
11
6.51999
21
-4.57985
0
LINE
8
BLACK
6
CONTINUOUS
10
6.51999
20
-4.57985
11
6.51212
21
-4.58988
0
LINE
8
BLACK
6
CONTINUOUS
10
6.51212
20
-4.58988
11
6.50545
21
-4.60076
0
LINE
8
BLACK
6
CONTINUOUS
10
6.50545
20
-4.60076
11
6.50008
21
-4.61233
0
LINE
8
BLACK
6
CONTINUOUS
10
6.50008
20
-4.61233
11
6.49608
21
-4.62444
0
LINE
8
BLACK
6
CONTINUOUS
10
6.49608
20
-4.62444
11
6.49349
21
-4.63693
0
LINE
8
BLACK
6
CONTINUOUS
10
6.49349
20
-4.63693
11
6.49236
21
-4.64963
0
LINE
8
BLACK
6
CONTINUOUS
10
6.49236
20
-4.64963
11
6.49269
21
-4.66238
0
LINE
8
BLACK
6
CONTINUOUS
10
6.49269
20
-4.66238
11
6.49449
21
-4.67501
0
LINE
8
BLACK
6
CONTINUOUS
10
4.90463
20
-4.62358
11
4.90869
21
-4.61015
0
LINE
8
BLACK
6
CONTINUOUS
10
4.90869
20
-4.61015
11
4.91421
21
-4.59726
0
LINE
8
BLACK
6
CONTINUOUS
10
4.91421
20
-4.59726
11
4.92114
21
-4.58507
0
LINE
8
BLACK
6
CONTINUOUS
10
4.92114
20
-4.58507
11
4.92938
21
-4.57373
0
LINE
8
BLACK
6
CONTINUOUS
10
4.92938
20
-4.57373
11
4.93883
21
-4.56337
0
LINE
8
BLACK
6
CONTINUOUS
10
4.93883
20
-4.56337
11
4.94939
21
-4.55414
0
LINE
8
BLACK
6
CONTINUOUS
10
4.94939
20
-4.55414
11
4.9609
21
-4.54613
0
LINE
8
BLACK
6
CONTINUOUS
10
4.9609
20
-4.54613
11
4.97323
21
-4.53946
0
LINE
8
BLACK
6
CONTINUOUS
10
4.97323
20
-4.53946
11
4.98624
21
-4.53421
0
LINE
8
BLACK
6
CONTINUOUS
10
4.98624
20
-4.53421
11
4.99974
21
-4.53044
0
LINE
8
BLACK
6
CONTINUOUS
10
4.99974
20
-4.53044
11
5.01358
21
-4.5282
0
LINE
8
BLACK
6
CONTINUOUS
10
5.01358
20
-4.5282
11
5.02759
21
-4.52751
0
LINE
8
BLACK
6
CONTINUOUS
10
5.02759
20
-4.52751
11
5.04158
21
-4.52839
0
LINE
8
BLACK
6
CONTINUOUS
10
5.04158
20
-4.52839
11
5.05539
21
-4.53083
0
LINE
8
BLACK
6
CONTINUOUS
10
5.05539
20
-4.53083
11
5.06885
21
-4.53479
0
LINE
8
BLACK
6
CONTINUOUS
10
5.06885
20
-4.53479
11
5.08177
21
-4.54022
0
LINE
8
BLACK
6
CONTINUOUS
10
5.08177
20
-4.54022
11
5.09401
21
-4.54706
0
LINE
8
BLACK
6
CONTINUOUS
10
5.09401
20
-4.54706
11
5.10541
21
-4.55523
0
LINE
8
BLACK
6
CONTINUOUS
10
5.10541
20
-4.55523
11
5.11583
21
-4.56461
0
LINE
8
BLACK
6
CONTINUOUS
10
5.11583
20
-4.56461
11
5.12514
21
-4.57509
0
LINE
8
BLACK
6
CONTINUOUS
10
5.12514
20
-4.57509
11
5.13323
21
-4.58655
0
LINE
8
BLACK
6
CONTINUOUS
10
5.13323
20
-4.58655
11
5.13998
21
-4.59884
0
LINE
8
BLACK
6
CONTINUOUS
10
5.13998
20
-4.59884
11
5.14533
21
-4.6118
0
LINE
8
BLACK
6
CONTINUOUS
10
5.14533
20
-4.6118
11
5.14919
21
-4.62528
0
LINE
8
BLACK
6
CONTINUOUS
10
5.14919
20
-4.62528
11
5.15153
21
-4.63911
0
LINE
8
BLACK
6
CONTINUOUS
10
5.15153
20
-4.63911
11
5.15231
21
-4.65311
0
LINE
8
BLACK
6
CONTINUOUS
10
5.15231
20
-4.65311
11
5.15226
21
-4.65662
0
LINE
8
BLACK
6
CONTINUOUS
10
5.15226
20
-4.65662
11
5.15109
21
-4.67059
0
LINE
8
BLACK
6
CONTINUOUS
10
5.15109
20
-4.67059
11
5.14837
21
-4.68435
0
LINE
8
BLACK
6
CONTINUOUS
10
5.14837
20
-4.68435
11
5.14413
21
-4.69771
0
LINE
8
BLACK
6
CONTINUOUS
10
5.14413
20
-4.69771
11
5.13842
21
-4.71052
0
LINE
8
BLACK
6
CONTINUOUS
10
5.13842
20
-4.71052
11
5.13133
21
-4.72262
0
LINE
8
BLACK
6
CONTINUOUS
10
5.13133
20
-4.72262
11
5.12293
21
-4.73384
0
LINE
8
BLACK
6
CONTINUOUS
10
5.12293
20
-4.73384
11
5.11333
21
-4.74407
0
LINE
8
BLACK
6
CONTINUOUS
10
5.11333
20
-4.74407
11
5.10265
21
-4.75315
0
LINE
8
BLACK
6
CONTINUOUS
10
5.10265
20
-4.75315
11
5.09103
21
-4.761
0
LINE
8
BLACK
6
CONTINUOUS
10
5.09103
20
-4.761
11
5.0786
21
-4.76749
0
LINE
8
BLACK
6
CONTINUOUS
10
5.0786
20
-4.76749
11
5.06553
21
-4.77256
0
LINE
8
BLACK
6
CONTINUOUS
10
5.06553
20
-4.77256
11
5.05197
21
-4.77614
0
LINE
8
BLACK
6
CONTINUOUS
10
5.05197
20
-4.77614
11
5.0381
21
-4.77819
0
LINE
8
BLACK
6
CONTINUOUS
10
5.0381
20
-4.77819
11
5.02408
21
-4.77868
0
LINE
8
BLACK
6
CONTINUOUS
10
5.02408
20
-4.77868
11
5.0101
21
-4.77761
0
LINE
8
BLACK
6
CONTINUOUS
10
5.0101
20
-4.77761
11
4.99633
21
-4.77498
0
LINE
8
BLACK
6
CONTINUOUS
10
4.99633
20
-4.77498
11
4.98293
21
-4.77083
0
LINE
8
BLACK
6
CONTINUOUS
10
4.98293
20
-4.77083
11
4.97008
21
-4.76522
0
LINE
8
BLACK
6
CONTINUOUS
10
4.97008
20
-4.76522
11
4.95794
21
-4.75821
0
LINE
8
BLACK
6
CONTINUOUS
10
4.95794
20
-4.75821
11
4.94665
21
-4.74989
0
LINE
8
BLACK
6
CONTINUOUS
10
4.94665
20
-4.74989
11
4.93636
21
-4.74036
0
LINE
8
BLACK
6
CONTINUOUS
10
4.93636
20
-4.74036
11
4.9272
21
-4.72974
0
LINE
8
BLACK
6
CONTINUOUS
10
4.9272
20
-4.72974
11
4.91928
21
-4.71817
0
LINE
8
BLACK
6
CONTINUOUS
10
4.91928
20
-4.71817
11
4.9127
21
-4.70579
0
LINE
8
BLACK
6
CONTINUOUS
10
4.9127
20
-4.70579
11
4.90753
21
-4.69276
0
LINE
8
BLACK
6
CONTINUOUS
10
4.90753
20
-4.69276
11
4.90386
21
-4.67922
0
LINE
8
BLACK
6
CONTINUOUS
10
4.90386
20
-4.67922
11
4.90171
21
-4.66537
0
LINE
8
BLACK
6
CONTINUOUS
10
4.90171
20
-4.66537
11
4.90112
21
-4.65136
0
LINE
8
BLACK
6
CONTINUOUS
10
4.90112
20
-4.65136
11
4.90125
21
-4.64963
0
LINE
8
BLACK
6
CONTINUOUS
10
4.90125
20
-4.64963
11
4.9021
21
-4.63737
0
LINE
8
BLACK
6
CONTINUOUS
10
4.9021
20
-4.63737
11
4.90463
21
-4.62358
0
LINE
8
BLACK
6
CONTINUOUS
10
4.91811
20
-4.67501
11
4.92135
21
-4.68735
0
LINE
8
BLACK
6
CONTINUOUS
10
4.92135
20
-4.68735
11
4.92598
21
-4.69923
0
LINE
8
BLACK
6
CONTINUOUS
10
4.92598
20
-4.69923
11
4.93195
21
-4.7105
0
LINE
8
BLACK
6
CONTINUOUS
10
4.93195
20
-4.7105
11
4.93917
21
-4.72101
0
LINE
8
BLACK
6
CONTINUOUS
10
4.93917
20
-4.72101
11
4.94756
21
-4.73062
0
LINE
8
BLACK
6
CONTINUOUS
10
4.94756
20
-4.73062
11
4.95699
21
-4.73921
0
LINE
8
BLACK
6
CONTINUOUS
10
4.95699
20
-4.73921
11
4.96735
21
-4.74665
0
LINE
8
BLACK
6
CONTINUOUS
10
4.96735
20
-4.74665
11
4.97849
21
-4.75285
0
LINE
8
BLACK
6
CONTINUOUS
10
4.97849
20
-4.75285
11
4.99028
21
-4.75774
0
LINE
8
BLACK
6
CONTINUOUS
10
4.99028
20
-4.75774
11
5.00255
21
-4.76123
0
LINE
8
BLACK
6
CONTINUOUS
10
5.00255
20
-4.76123
11
5.01513
21
-4.76329
0
LINE
8
BLACK
6
CONTINUOUS
10
5.01513
20
-4.76329
11
5.02787
21
-4.76389
0
LINE
8
BLACK
6
CONTINUOUS
10
5.02787
20
-4.76389
11
5.0406
21
-4.76302
0
LINE
8
BLACK
6
CONTINUOUS
10
5.0406
20
-4.76302
11
5.05314
21
-4.7607
0
LINE
8
BLACK
6
CONTINUOUS
10
5.05314
20
-4.7607
11
5.06533
21
-4.75695
0
LINE
8
BLACK
6
CONTINUOUS
10
5.06533
20
-4.75695
11
5.07701
21
-4.75182
0
LINE
8
BLACK
6
CONTINUOUS
10
5.07701
20
-4.75182
11
5.08802
21
-4.74539
0
LINE
8
BLACK
6
CONTINUOUS
10
5.08802
20
-4.74539
11
5.09822
21
-4.73773
0
LINE
8
BLACK
6
CONTINUOUS
10
5.09822
20
-4.73773
11
5.10747
21
-4.72895
0
LINE
8
BLACK
6
CONTINUOUS
10
5.10747
20
-4.72895
11
5.11565
21
-4.71916
0
LINE
8
BLACK
6
CONTINUOUS
10
5.11565
20
-4.71916
11
5.12266
21
-4.7085
0
LINE
8
BLACK
6
CONTINUOUS
10
5.12266
20
-4.7085
11
5.12839
21
-4.69711
0
LINE
8
BLACK
6
CONTINUOUS
10
5.12839
20
-4.69711
11
5.13277
21
-4.68513
0
LINE
8
BLACK
6
CONTINUOUS
10
5.13277
20
-4.68513
11
5.13575
21
-4.67273
0
LINE
8
BLACK
6
CONTINUOUS
10
5.13575
20
-4.67273
11
5.13728
21
-4.66007
0
LINE
8
BLACK
6
CONTINUOUS
10
5.13728
20
-4.66007
11
5.1375
21
-4.65311
0
LINE
8
BLACK
6
CONTINUOUS
10
5.1375
20
-4.65311
11
5.13677
21
-4.64038
0
LINE
8
BLACK
6
CONTINUOUS
10
5.13677
20
-4.64038
11
5.13457
21
-4.62781
0
LINE
8
BLACK
6
CONTINUOUS
10
5.13457
20
-4.62781
11
5.13095
21
-4.61558
0
LINE
8
BLACK
6
CONTINUOUS
10
5.13095
20
-4.61558
11
5.12595
21
-4.60385
0
LINE
8
BLACK
6
CONTINUOUS
10
5.12595
20
-4.60385
11
5.11963
21
-4.59277
0
LINE
8
BLACK
6
CONTINUOUS
10
5.11963
20
-4.59277
11
5.11208
21
-4.58249
0
LINE
8
BLACK
6
CONTINUOUS
10
5.11208
20
-4.58249
11
5.10339
21
-4.57315
0
LINE
8
BLACK
6
CONTINUOUS
10
5.10339
20
-4.57315
11
5.09369
21
-4.56486
0
LINE
8
BLACK
6
CONTINUOUS
10
5.09369
20
-4.56486
11
5.08311
21
-4.55775
0
LINE
8
BLACK
6
CONTINUOUS
10
5.08311
20
-4.55775
11
5.07177
21
-4.5519
0
LINE
8
BLACK
6
CONTINUOUS
10
5.07177
20
-4.5519
11
5.05984
21
-4.54739
0
LINE
8
BLACK
6
CONTINUOUS
10
5.05984
20
-4.54739
11
5.04747
21
-4.54429
0
LINE
8
BLACK
6
CONTINUOUS
10
5.04747
20
-4.54429
11
5.03483
21
-4.54262
0
LINE
8
BLACK
6
CONTINUOUS
10
5.03483
20
-4.54262
11
5.02207
21
-4.54242
0
LINE
8
BLACK
6
CONTINUOUS
10
5.02207
20
-4.54242
11
5.00938
21
-4.54369
0
LINE
8
BLACK
6
CONTINUOUS
10
5.00938
20
-4.54369
11
4.99692
21
-4.5464
0
LINE
8
BLACK
6
CONTINUOUS
10
4.99692
20
-4.5464
11
4.98485
21
-4.55054
0
LINE
8
BLACK
6
CONTINUOUS
10
4.98485
20
-4.55054
11
4.97334
21
-4.55603
0
LINE
8
BLACK
6
CONTINUOUS
10
4.97334
20
-4.55603
11
4.96254
21
-4.5628
0
LINE
8
BLACK
6
CONTINUOUS
10
4.96254
20
-4.5628
11
4.95258
21
-4.57078
0
LINE
8
BLACK
6
CONTINUOUS
10
4.95258
20
-4.57078
11
4.94361
21
-4.57985
0
LINE
8
BLACK
6
CONTINUOUS
10
4.94361
20
-4.57985
11
4.93574
21
-4.58988
0
LINE
8
BLACK
6
CONTINUOUS
10
4.93574
20
-4.58988
11
4.92908
21
-4.60076
0
LINE
8
BLACK
6
CONTINUOUS
10
4.92908
20
-4.60076
11
4.92371
21
-4.61233
0
LINE
8
BLACK
6
CONTINUOUS
10
4.92371
20
-4.61233
11
4.9197
21
-4.62444
0
LINE
8
BLACK
6
CONTINUOUS
10
4.9197
20
-4.62444
11
4.91711
21
-4.63693
0
LINE
8
BLACK
6
CONTINUOUS
10
4.91711
20
-4.63693
11
4.91598
21
-4.64963
0
LINE
8
BLACK
6
CONTINUOUS
10
4.91598
20
-4.64963
11
4.91631
21
-4.66238
0
LINE
8
BLACK
6
CONTINUOUS
10
4.91631
20
-4.66238
11
4.91811
21
-4.67501
0
LINE
8
BLACK
6
CONTINUOUS
10
6.48101
20
-3.0472
11
6.48507
21
-3.03377
0
LINE
8
BLACK
6
CONTINUOUS
10
6.48507
20
-3.03377
11
6.49059
21
-3.02089
0
LINE
8
BLACK
6
CONTINUOUS
10
6.49059
20
-3.02089
11
6.49752
21
-3.00869
0
LINE
8
BLACK
6
CONTINUOUS
10
6.49752
20
-3.00869
11
6.50576
21
-2.99735
0
LINE
8
BLACK
6
CONTINUOUS
10
6.50576
20
-2.99735
11
6.51521
21
-2.98699
0
LINE
8
BLACK
6
CONTINUOUS
10
6.51521
20
-2.98699
11
6.52576
21
-2.97776
0
LINE
8
BLACK
6
CONTINUOUS
10
6.52576
20
-2.97776
11
6.53728
21
-2.96976
0
LINE
8
BLACK
6
CONTINUOUS
10
6.53728
20
-2.96976
11
6.54961
21
-2.96309
0
LINE
8
BLACK
6
CONTINUOUS
10
6.54961
20
-2.96309
11
6.56261
21
-2.95783
0
LINE
8
BLACK
6
CONTINUOUS
10
6.56261
20
-2.95783
11
6.57612
21
-2.95406
0
LINE
8
BLACK
6
CONTINUOUS
10
6.57612
20
-2.95406
11
6.58996
21
-2.95182
0
LINE
8
BLACK
6
CONTINUOUS
10
6.58996
20
-2.95182
11
6.60397
21
-2.95114
0
LINE
8
BLACK
6
CONTINUOUS
10
6.60397
20
-2.95114
11
6.61796
21
-2.95202
0
LINE
8
BLACK
6
CONTINUOUS
10
6.61796
20
-2.95202
11
6.63177
21
-2.95445
0
LINE
8
BLACK
6
CONTINUOUS
10
6.63177
20
-2.95445
11
6.64522
21
-2.95841
0
LINE
8
BLACK
6
CONTINUOUS
10
6.64522
20
-2.95841
11
6.65815
21
-2.96384
0
LINE
8
BLACK
6
CONTINUOUS
10
6.65815
20
-2.96384
11
6.67039
21
-2.97068
0
LINE
8
BLACK
6
CONTINUOUS
10
6.67039
20
-2.97068
11
6.68179
21
-2.97885
0
LINE
8
BLACK
6
CONTINUOUS
10
6.68179
20
-2.97885
11
6.69221
21
-2.98823
0
LINE
8
BLACK
6
CONTINUOUS
10
6.69221
20
-2.98823
11
6.70152
21
-2.99872
0
LINE
8
BLACK
6
CONTINUOUS
10
6.70152
20
-2.99872
11
6.70961
21
-3.01017
0
LINE
8
BLACK
6
CONTINUOUS
10
6.70961
20
-3.01017
11
6.71636
21
-3.02246
0
LINE
8
BLACK
6
CONTINUOUS
10
6.71636
20
-3.02246
11
6.7217
21
-3.03543
0
LINE
8
BLACK
6
CONTINUOUS
10
6.7217
20
-3.03543
11
6.72557
21
-3.04891
0
LINE
8
BLACK
6
CONTINUOUS
10
6.72557
20
-3.04891
11
6.72791
21
-3.06273
0
LINE
8
BLACK
6
CONTINUOUS
10
6.72791
20
-3.06273
11
6.72869
21
-3.07673
0
LINE
8
BLACK
6
CONTINUOUS
10
6.72869
20
-3.07673
11
6.72864
21
-3.08024
0
LINE
8
BLACK
6
CONTINUOUS
10
6.72864
20
-3.08024
11
6.72747
21
-3.09421
0
LINE
8
BLACK
6
CONTINUOUS
10
6.72747
20
-3.09421
11
6.72474
21
-3.10797
0
LINE
8
BLACK
6
CONTINUOUS
10
6.72474
20
-3.10797
11
6.7205
21
-3.12133
0
LINE
8
BLACK
6
CONTINUOUS
10
6.7205
20
-3.12133
11
6.7148
21
-3.13414
0
LINE
8
BLACK
6
CONTINUOUS
10
6.7148
20
-3.13414
11
6.70771
21
-3.14624
0
LINE
8
BLACK
6
CONTINUOUS
10
6.70771
20
-3.14624
11
6.69931
21
-3.15747
0
LINE
8
BLACK
6
CONTINUOUS
10
6.69931
20
-3.15747
11
6.68971
21
-3.16769
0
LINE
8
BLACK
6
CONTINUOUS
10
6.68971
20
-3.16769
11
6.67903
21
-3.17678
0
LINE
8
BLACK
6
CONTINUOUS
10
6.67903
20
-3.17678
11
6.6674
21
-3.18462
0
LINE
8
BLACK
6
CONTINUOUS
10
6.6674
20
-3.18462
11
6.65498
21
-3.19111
0
LINE
8
BLACK
6
CONTINUOUS
10
6.65498
20
-3.19111
11
6.6419
21
-3.19618
0
LINE
8
BLACK
6
CONTINUOUS
10
6.6419
20
-3.19618
11
6.62835
21
-3.19977
0
LINE
8
BLACK
6
CONTINUOUS
10
6.62835
20
-3.19977
11
6.61447
21
-3.20182
0
LINE
8
BLACK
6
CONTINUOUS
10
6.61447
20
-3.20182
11
6.60046
21
-3.2023
0
LINE
8
BLACK
6
CONTINUOUS
10
6.60046
20
-3.2023
11
6.58648
21
-3.20123
0
LINE
8
BLACK
6
CONTINUOUS
10
6.58648
20
-3.20123
11
6.57271
21
-3.1986
0
LINE
8
BLACK
6
CONTINUOUS
10
6.57271
20
-3.1986
11
6.55931
21
-3.19445
0
LINE
8
BLACK
6
CONTINUOUS
10
6.55931
20
-3.19445
11
6.54646
21
-3.18884
0
LINE
8
BLACK
6
CONTINUOUS
10
6.54646
20
-3.18884
11
6.53432
21
-3.18183
0
LINE
8
BLACK
6
CONTINUOUS
10
6.53432
20
-3.18183
11
6.52303
21
-3.17351
0
LINE
8
BLACK
6
CONTINUOUS
10
6.52303
20
-3.17351
11
6.51274
21
-3.16398
0
LINE
8
BLACK
6
CONTINUOUS
10
6.51274
20
-3.16398
11
6.50358
21
-3.15337
0
LINE
8
BLACK
6
CONTINUOUS
10
6.50358
20
-3.15337
11
6.49566
21
-3.1418
0
LINE
8
BLACK
6
CONTINUOUS
10
6.49566
20
-3.1418
11
6.48907
21
-3.12942
0
LINE
8
BLACK
6
CONTINUOUS
10
6.48907
20
-3.12942
11
6.48391
21
-3.11638
0
LINE
8
BLACK
6
CONTINUOUS
10
6.48391
20
-3.11638
11
6.48024
21
-3.10285
0
LINE
8
BLACK
6
CONTINUOUS
10
6.48024
20
-3.10285
11
6.47809
21
-3.08899
0
LINE
8
BLACK
6
CONTINUOUS
10
6.47809
20
-3.08899
11
6.4775
21
-3.07498
0
LINE
8
BLACK
6
CONTINUOUS
10
6.4775
20
-3.07498
11
6.47762
21
-3.07325
0
LINE
8
BLACK
6
CONTINUOUS
10
6.47762
20
-3.07325
11
6.47848
21
-3.06099
0
LINE
8
BLACK
6
CONTINUOUS
10
6.47848
20
-3.06099
11
6.48101
21
-3.0472
0
LINE
8
BLACK
6
CONTINUOUS
10
6.49449
20
-3.09863
11
6.49773
21
-3.11097
0
LINE
8
BLACK
6
CONTINUOUS
10
6.49773
20
-3.11097
11
6.50236
21
-3.12285
0
LINE
8
BLACK
6
CONTINUOUS
10
6.50236
20
-3.12285
11
6.50833
21
-3.13412
0
LINE
8
BLACK
6
CONTINUOUS
10
6.50833
20
-3.13412
11
6.51555
21
-3.14463
0
LINE
8
BLACK
6
CONTINUOUS
10
6.51555
20
-3.14463
11
6.52394
21
-3.15425
0
LINE
8
BLACK
6
CONTINUOUS
10
6.52394
20
-3.15425
11
6.53337
21
-3.16283
0
LINE
8
BLACK
6
CONTINUOUS
10
6.53337
20
-3.16283
11
6.54373
21
-3.17027
0
LINE
8
BLACK
6
CONTINUOUS
10
6.54373
20
-3.17027
11
6.55487
21
-3.17648
0
LINE
8
BLACK
6
CONTINUOUS
10
6.55487
20
-3.17648
11
6.56666
21
-3.18136
0
LINE
8
BLACK
6
CONTINUOUS
10
6.56666
20
-3.18136
11
6.57892
21
-3.18485
0
LINE
8
BLACK
6
CONTINUOUS
10
6.57892
20
-3.18485
11
6.59151
21
-3.18691
0
LINE
8
BLACK
6
CONTINUOUS
10
6.59151
20
-3.18691
11
6.60425
21
-3.18751
0
LINE
8
BLACK
6
CONTINUOUS
10
6.60425
20
-3.18751
11
6.61698
21
-3.18665
0
LINE
8
BLACK
6
CONTINUOUS
10
6.61698
20
-3.18665
11
6.62952
21
-3.18432
0
LINE
8
BLACK
6
CONTINUOUS
10
6.62952
20
-3.18432
11
6.64171
21
-3.18057
0
LINE
8
BLACK
6
CONTINUOUS
10
6.64171
20
-3.18057
11
6.65339
21
-3.17544
0
LINE
8
BLACK
6
CONTINUOUS
10
6.65339
20
-3.17544
11
6.6644
21
-3.16901
0
LINE
8
BLACK
6
CONTINUOUS
10
6.6644
20
-3.16901
11
6.6746
21
-3.16135
0
LINE
8
BLACK
6
CONTINUOUS
10
6.6746
20
-3.16135
11
6.68385
21
-3.15257
0
LINE
8
BLACK
6
CONTINUOUS
10
6.68385
20
-3.15257
11
6.69203
21
-3.14279
0
LINE
8
BLACK
6
CONTINUOUS
10
6.69203
20
-3.14279
11
6.69904
21
-3.13213
0
LINE
8
BLACK
6
CONTINUOUS
10
6.69904
20
-3.13213
11
6.70477
21
-3.12073
0
LINE
8
BLACK
6
CONTINUOUS
10
6.70477
20
-3.12073
11
6.70915
21
-3.10875
0
LINE
8
BLACK
6
CONTINUOUS
10
6.70915
20
-3.10875
11
6.71213
21
-3.09635
0
LINE
8
BLACK
6
CONTINUOUS
10
6.71213
20
-3.09635
11
6.71366
21
-3.08369
0
LINE
8
BLACK
6
CONTINUOUS
10
6.71366
20
-3.08369
11
6.71388
21
-3.07673
0
LINE
8
BLACK
6
CONTINUOUS
10
6.71388
20
-3.07673
11
6.71314
21
-3.064
0
LINE
8
BLACK
6
CONTINUOUS
10
6.71314
20
-3.064
11
6.71095
21
-3.05143
0
LINE
8
BLACK
6
CONTINUOUS
10
6.71095
20
-3.05143
11
6.70733
21
-3.0392
0
LINE
8
BLACK
6
CONTINUOUS
10
6.70733
20
-3.0392
11
6.70232
21
-3.02747
0
LINE
8
BLACK
6
CONTINUOUS
10
6.70232
20
-3.02747
11
6.696
21
-3.01639
0
LINE
8
BLACK
6
CONTINUOUS
10
6.696
20
-3.01639
11
6.68845
21
-3.00611
0
LINE
8
BLACK
6
CONTINUOUS
10
6.68845
20
-3.00611
11
6.67977
21
-2.99677
0
LINE
8
BLACK
6
CONTINUOUS
10
6.67977
20
-2.99677
11
6.67007
21
-2.98849
0
LINE
8
BLACK
6
CONTINUOUS
10
6.67007
20
-2.98849
11
6.65949
21
-2.98137
0
LINE
8
BLACK
6
CONTINUOUS
10
6.65949
20
-2.98137
11
6.64815
21
-2.97552
0
LINE
8
BLACK
6
CONTINUOUS
10
6.64815
20
-2.97552
11
6.63622
21
-2.97101
0
LINE
8
BLACK
6
CONTINUOUS
10
6.63622
20
-2.97101
11
6.62385
21
-2.96791
0
LINE
8
BLACK
6
CONTINUOUS
10
6.62385
20
-2.96791
11
6.6112
21
-2.96624
0
LINE
8
BLACK
6
CONTINUOUS
10
6.6112
20
-2.96624
11
6.59845
21
-2.96604
0
LINE
8
BLACK
6
CONTINUOUS
10
6.59845
20
-2.96604
11
6.58576
21
-2.96731
0
LINE
8
BLACK
6
CONTINUOUS
10
6.58576
20
-2.96731
11
6.5733
21
-2.97003
0
LINE
8
BLACK
6
CONTINUOUS
10
6.5733
20
-2.97003
11
6.56123
21
-2.97416
0
LINE
8
BLACK
6
CONTINUOUS
10
6.56123
20
-2.97416
11
6.54972
21
-2.97965
0
LINE
8
BLACK
6
CONTINUOUS
10
6.54972
20
-2.97965
11
6.53891
21
-2.98643
0
LINE
8
BLACK
6
CONTINUOUS
10
6.53891
20
-2.98643
11
6.52896
21
-2.9944
0
LINE
8
BLACK
6
CONTINUOUS
10
6.52896
20
-2.9944
11
6.51999
21
-3.00347
0
LINE
8
BLACK
6
CONTINUOUS
10
6.51999
20
-3.00347
11
6.51212
21
-3.0135
0
LINE
8
BLACK
6
CONTINUOUS
10
6.51212
20
-3.0135
11
6.50545
21
-3.02438
0
LINE
8
BLACK
6
CONTINUOUS
10
6.50545
20
-3.02438
11
6.50008
21
-3.03595
0
LINE
8
BLACK
6
CONTINUOUS
10
6.50008
20
-3.03595
11
6.49608
21
-3.04806
0
LINE
8
BLACK
6
CONTINUOUS
10
6.49608
20
-3.04806
11
6.49349
21
-3.06055
0
LINE
8
BLACK
6
CONTINUOUS
10
6.49349
20
-3.06055
11
6.49236
21
-3.07325
0
LINE
8
BLACK
6
CONTINUOUS
10
6.49236
20
-3.07325
11
6.49269
21
-3.086
0
LINE
8
BLACK
6
CONTINUOUS
10
6.49269
20
-3.086
11
6.49449
21
-3.09863
0
LINE
8
BLACK
6
CONTINUOUS
10
4.90463
20
-3.0472
11
4.90869
21
-3.03377
0
LINE
8
BLACK
6
CONTINUOUS
10
4.90869
20
-3.03377
11
4.91421
21
-3.02089
0
LINE
8
BLACK
6
CONTINUOUS
10
4.91421
20
-3.02089
11
4.92114
21
-3.00869
0
LINE
8
BLACK
6
CONTINUOUS
10
4.92114
20
-3.00869
11
4.92938
21
-2.99735
0
LINE
8
BLACK
6
CONTINUOUS
10
4.92938
20
-2.99735
11
4.93883
21
-2.98699
0
LINE
8
BLACK
6
CONTINUOUS
10
4.93883
20
-2.98699
11
4.94939
21
-2.97776
0
LINE
8
BLACK
6
CONTINUOUS
10
4.94939
20
-2.97776
11
4.9609
21
-2.96976
0
LINE
8
BLACK
6
CONTINUOUS
10
4.9609
20
-2.96976
11
4.97323
21
-2.96309
0
LINE
8
BLACK
6
CONTINUOUS
10
4.97323
20
-2.96309
11
4.98624
21
-2.95783
0
LINE
8
BLACK
6
CONTINUOUS
10
4.98624
20
-2.95783
11
4.99974
21
-2.95406
0
LINE
8
BLACK
6
CONTINUOUS
10
4.99974
20
-2.95406
11
5.01358
21
-2.95182
0
LINE
8
BLACK
6
CONTINUOUS
10
5.01358
20
-2.95182
11
5.02759
21
-2.95114
0
LINE
8
BLACK
6
CONTINUOUS
10
5.02759
20
-2.95114
11
5.04158
21
-2.95202
0
LINE
8
BLACK
6
CONTINUOUS
10
5.04158
20
-2.95202
11
5.05539
21
-2.95445
0
LINE
8
BLACK
6
CONTINUOUS
10
5.05539
20
-2.95445
11
5.06885
21
-2.95841
0
LINE
8
BLACK
6
CONTINUOUS
10
5.06885
20
-2.95841
11
5.08177
21
-2.96384
0
LINE
8
BLACK
6
CONTINUOUS
10
5.08177
20
-2.96384
11
5.09401
21
-2.97068
0
LINE
8
BLACK
6
CONTINUOUS
10
5.09401
20
-2.97068
11
5.10541
21
-2.97885
0
LINE
8
BLACK
6
CONTINUOUS
10
5.10541
20
-2.97885
11
5.11583
21
-2.98823
0
LINE
8
BLACK
6
CONTINUOUS
10
5.11583
20
-2.98823
11
5.12514
21
-2.99872
0
LINE
8
BLACK
6
CONTINUOUS
10
5.12514
20
-2.99872
11
5.13323
21
-3.01017
0
LINE
8
BLACK
6
CONTINUOUS
10
5.13323
20
-3.01017
11
5.13998
21
-3.02246
0
LINE
8
BLACK
6
CONTINUOUS
10
5.13998
20
-3.02246
11
5.14533
21
-3.03543
0
LINE
8
BLACK
6
CONTINUOUS
10
5.14533
20
-3.03543
11
5.14919
21
-3.04891
0
LINE
8
BLACK
6
CONTINUOUS
10
5.14919
20
-3.04891
11
5.15153
21
-3.06273
0
LINE
8
BLACK
6
CONTINUOUS
10
5.15153
20
-3.06273
11
5.15231
21
-3.07673
0
LINE
8
BLACK
6
CONTINUOUS
10
5.15231
20
-3.07673
11
5.15226
21
-3.08024
0
LINE
8
BLACK
6
CONTINUOUS
10
5.15226
20
-3.08024
11
5.15109
21
-3.09421
0
LINE
8
BLACK
6
CONTINUOUS
10
5.15109
20
-3.09421
11
5.14837
21
-3.10797
0
LINE
8
BLACK
6
CONTINUOUS
10
5.14837
20
-3.10797
11
5.14413
21
-3.12133
0
LINE
8
BLACK
6
CONTINUOUS
10
5.14413
20
-3.12133
11
5.13842
21
-3.13414
0
LINE
8
BLACK
6
CONTINUOUS
10
5.13842
20
-3.13414
11
5.13133
21
-3.14624
0
LINE
8
BLACK
6
CONTINUOUS
10
5.13133
20
-3.14624
11
5.12293
21
-3.15747
0
LINE
8
BLACK
6
CONTINUOUS
10
5.12293
20
-3.15747
11
5.11333
21
-3.16769
0
LINE
8
BLACK
6
CONTINUOUS
10
5.11333
20
-3.16769
11
5.10265
21
-3.17678
0
LINE
8
BLACK
6
CONTINUOUS
10
5.10265
20
-3.17678
11
5.09103
21
-3.18462
0
LINE
8
BLACK
6
CONTINUOUS
10
5.09103
20
-3.18462
11
5.0786
21
-3.19111
0
LINE
8
BLACK
6
CONTINUOUS
10
5.0786
20
-3.19111
11
5.06553
21
-3.19618
0
LINE
8
BLACK
6
CONTINUOUS
10
5.06553
20
-3.19618
11
5.05197
21
-3.19977
0
LINE
8
BLACK
6
CONTINUOUS
10
5.05197
20
-3.19977
11
5.0381
21
-3.20182
0
LINE
8
BLACK
6
CONTINUOUS
10
5.0381
20
-3.20182
11
5.02408
21
-3.2023
0
LINE
8
BLACK
6
CONTINUOUS
10
5.02408
20
-3.2023
11
5.0101
21
-3.20123
0
LINE
8
BLACK
6
CONTINUOUS
10
5.0101
20
-3.20123
11
4.99633
21
-3.1986
0
LINE
8
BLACK
6
CONTINUOUS
10
4.99633
20
-3.1986
11
4.98293
21
-3.19445
0
LINE
8
BLACK
6
CONTINUOUS
10
4.98293
20
-3.19445
11
4.97008
21
-3.18884
0
LINE
8
BLACK
6
CONTINUOUS
10
4.97008
20
-3.18884
11
4.95794
21
-3.18183
0
LINE
8
BLACK
6
CONTINUOUS
10
4.95794
20
-3.18183
11
4.94665
21
-3.17351
0
LINE
8
BLACK
6
CONTINUOUS
10
4.94665
20
-3.17351
11
4.93636
21
-3.16398
0
LINE
8
BLACK
6
CONTINUOUS
10
4.93636
20
-3.16398
11
4.9272
21
-3.15337
0
LINE
8
BLACK
6
CONTINUOUS
10
4.9272
20
-3.15337
11
4.91928
21
-3.1418
0
LINE
8
BLACK
6
CONTINUOUS
10
4.91928
20
-3.1418
11
4.9127
21
-3.12942
0
LINE
8
BLACK
6
CONTINUOUS
10
4.9127
20
-3.12942
11
4.90753
21
-3.11638
0
LINE
8
BLACK
6
CONTINUOUS
10
4.90753
20
-3.11638
11
4.90386
21
-3.10285
0
LINE
8
BLACK
6
CONTINUOUS
10
4.90386
20
-3.10285
11
4.90171
21
-3.08899
0
LINE
8
BLACK
6
CONTINUOUS
10
4.90171
20
-3.08899
11
4.90112
21
-3.07498
0
LINE
8
BLACK
6
CONTINUOUS
10
4.90112
20
-3.07498
11
4.90125
21
-3.07325
0
LINE
8
BLACK
6
CONTINUOUS
10
4.90125
20
-3.07325
11
4.9021
21
-3.06099
0
LINE
8
BLACK
6
CONTINUOUS
10
4.9021
20
-3.06099
11
4.90463
21
-3.0472
0
LINE
8
BLACK
6
CONTINUOUS
10
4.91811
20
-3.09863
11
4.92135
21
-3.11097
0
LINE
8
BLACK
6
CONTINUOUS
10
4.92135
20
-3.11097
11
4.92598
21
-3.12285
0
LINE
8
BLACK
6
CONTINUOUS
10
4.92598
20
-3.12285
11
4.93195
21
-3.13412
0
LINE
8
BLACK
6
CONTINUOUS
10
4.93195
20
-3.13412
11
4.93917
21
-3.14463
0
LINE
8
BLACK
6
CONTINUOUS
10
4.93917
20
-3.14463
11
4.94756
21
-3.15425
0
LINE
8
BLACK
6
CONTINUOUS
10
4.94756
20
-3.15425
11
4.95699
21
-3.16283
0
LINE
8
BLACK
6
CONTINUOUS
10
4.95699
20
-3.16283
11
4.96735
21
-3.17027
0
LINE
8
BLACK
6
CONTINUOUS
10
4.96735
20
-3.17027
11
4.97849
21
-3.17648
0
LINE
8
BLACK
6
CONTINUOUS
10
4.97849
20
-3.17648
11
4.99028
21
-3.18136
0
LINE
8
BLACK
6
CONTINUOUS
10
4.99028
20
-3.18136
11
5.00255
21
-3.18485
0
LINE
8
BLACK
6
CONTINUOUS
10
5.00255
20
-3.18485
11
5.01513
21
-3.18691
0
LINE
8
BLACK
6
CONTINUOUS
10
5.01513
20
-3.18691
11
5.02787
21
-3.18751
0
LINE
8
BLACK
6
CONTINUOUS
10
5.02787
20
-3.18751
11
5.0406
21
-3.18665
0
LINE
8
BLACK
6
CONTINUOUS
10
5.0406
20
-3.18665
11
5.05314
21
-3.18432
0
LINE
8
BLACK
6
CONTINUOUS
10
5.05314
20
-3.18432
11
5.06533
21
-3.18057
0
LINE
8
BLACK
6
CONTINUOUS
10
5.06533
20
-3.18057
11
5.07701
21
-3.17544
0
LINE
8
BLACK
6
CONTINUOUS
10
5.07701
20
-3.17544
11
5.08802
21
-3.16901
0
LINE
8
BLACK
6
CONTINUOUS
10
5.08802
20
-3.16901
11
5.09822
21
-3.16135
0
LINE
8
BLACK
6
CONTINUOUS
10
5.09822
20
-3.16135
11
5.10747
21
-3.15257
0
LINE
8
BLACK
6
CONTINUOUS
10
5.10747
20
-3.15257
11
5.11565
21
-3.14279
0
LINE
8
BLACK
6
CONTINUOUS
10
5.11565
20
-3.14279
11
5.12266
21
-3.13213
0
LINE
8
BLACK
6
CONTINUOUS
10
5.12266
20
-3.13213
11
5.12839
21
-3.12073
0
LINE
8
BLACK
6
CONTINUOUS
10
5.12839
20
-3.12073
11
5.13277
21
-3.10875
0
LINE
8
BLACK
6
CONTINUOUS
10
5.13277
20
-3.10875
11
5.13575
21
-3.09635
0
LINE
8
BLACK
6
CONTINUOUS
10
5.13575
20
-3.09635
11
5.13728
21
-3.08369
0
LINE
8
BLACK
6
CONTINUOUS
10
5.13728
20
-3.08369
11
5.1375
21
-3.07673
0
LINE
8
BLACK
6
CONTINUOUS
10
5.1375
20
-3.07673
11
5.13677
21
-3.064
0
LINE
8
BLACK
6
CONTINUOUS
10
5.13677
20
-3.064
11
5.13457
21
-3.05143
0
LINE
8
BLACK
6
CONTINUOUS
10
5.13457
20
-3.05143
11
5.13095
21
-3.0392
0
LINE
8
BLACK
6
CONTINUOUS
10
5.13095
20
-3.0392
11
5.12595
21
-3.02747
0
LINE
8
BLACK
6
CONTINUOUS
10
5.12595
20
-3.02747
11
5.11963
21
-3.01639
0
LINE
8
BLACK
6
CONTINUOUS
10
5.11963
20
-3.01639
11
5.11208
21
-3.00611
0
LINE
8
BLACK
6
CONTINUOUS
10
5.11208
20
-3.00611
11
5.10339
21
-2.99677
0
LINE
8
BLACK
6
CONTINUOUS
10
5.10339
20
-2.99677
11
5.09369
21
-2.98849
0
LINE
8
BLACK
6
CONTINUOUS
10
5.09369
20
-2.98849
11
5.08311
21
-2.98137
0
LINE
8
BLACK
6
CONTINUOUS
10
5.08311
20
-2.98137
11
5.07177
21
-2.97552
0
LINE
8
BLACK
6
CONTINUOUS
10
5.07177
20
-2.97552
11
5.05984
21
-2.97101
0
LINE
8
BLACK
6
CONTINUOUS
10
5.05984
20
-2.97101
11
5.04747
21
-2.96791
0
LINE
8
BLACK
6
CONTINUOUS
10
5.04747
20
-2.96791
11
5.03483
21
-2.96624
0
LINE
8
BLACK
6
CONTINUOUS
10
5.03483
20
-2.96624
11
5.02207
21
-2.96604
0
LINE
8
BLACK
6
CONTINUOUS
10
5.02207
20
-2.96604
11
5.00938
21
-2.96731
0
LINE
8
BLACK
6
CONTINUOUS
10
5.00938
20
-2.96731
11
4.99692
21
-2.97003
0
LINE
8
BLACK
6
CONTINUOUS
10
4.99692
20
-2.97003
11
4.98485
21
-2.97416
0
LINE
8
BLACK
6
CONTINUOUS
10
4.98485
20
-2.97416
11
4.97334
21
-2.97965
0
LINE
8
BLACK
6
CONTINUOUS
10
4.97334
20
-2.97965
11
4.96254
21
-2.98643
0
LINE
8
BLACK
6
CONTINUOUS
10
4.96254
20
-2.98643
11
4.95258
21
-2.9944
0
LINE
8
BLACK
6
CONTINUOUS
10
4.95258
20
-2.9944
11
4.94361
21
-3.00347
0
LINE
8
BLACK
6
CONTINUOUS
10
4.94361
20
-3.00347
11
4.93574
21
-3.0135
0
LINE
8
BLACK
6
CONTINUOUS
10
4.93574
20
-3.0135
11
4.92908
21
-3.02438
0
LINE
8
BLACK
6
CONTINUOUS
10
4.92908
20
-3.02438
11
4.92371
21
-3.03595
0
LINE
8
BLACK
6
CONTINUOUS
10
4.92371
20
-3.03595
11
4.9197
21
-3.04806
0
LINE
8
BLACK
6
CONTINUOUS
10
4.9197
20
-3.04806
11
4.91711
21
-3.06055
0
LINE
8
BLACK
6
CONTINUOUS
10
4.91711
20
-3.06055
11
4.91598
21
-3.07325
0
LINE
8
BLACK
6
CONTINUOUS
10
4.91598
20
-3.07325
11
4.91631
21
-3.086
0
LINE
8
BLACK
6
CONTINUOUS
10
4.91631
20
-3.086
11
4.91811
21
-3.09863
  0
ENDSEC
  0
EOF
