  0
SECTION
  2
HEADER
  9
$ANGBASE
  50
0.0
  9
$ANGDIR
  70
1
  9
$MEASUREMENT
  70
0
  0
ENDSEC
  0
SECTION
  2
TABLES
  0
TABLE
  2
LTYPE
  70
4
  0
LTYPE
  5
40F
  2
CONTINUOUS
  70
0
  3
Solid line
  72
65
  73
0
  40
0.0
  0
LTYPE
  5
410
  2
DASHDOT
 70
0
  3
Dash Dot ____ _ ____ _
 72
65
 73
4
 40
2.0
 49
1.25
 49
-0.25
 49
0.25
 49
-0.25
  0
LTYPE
  5
411
  2
DASHED
 70
0
  3
Dashed __ __ __ __ __
 72
65
 73
2
 40
0.75
 49
0.5
 49
-0.25
  0
LTYPE
  5
43B
  2
DOTTED
 70
0
  3
Dotted .  .  .  .
 72
65
 73
2
 40
0.2
 49
0.0
 49
-0.2
  0
ENDTAB
  0
TABLE
  2
STYLE
  70
4
  0
STYLE
  2
KICAD
  70
0
  40
0
  41
1
  42
1
  50
0
  71
0
  3
isocp.shx
  0
STYLE
  2
KICADB
  70
0
  40
0
  41
1
  42
1
  50
0
  71
0
  3
isocp.shx
  0
STYLE
  2
KICADI
  70
0
  40
0
  41
1
  42
1
  50
15
  71
0
  3
isocp.shx
  0
STYLE
  2
KICADBI
  70
0
  40
0
  41
1
  42
1
  50
15
  71
0
  3
isocp.shx
  0
ENDTAB
  0
TABLE
  2
LAYER
  70
1
  0
LAYER
  2
BLACK
  70
0
  62
7
  6
CONTINUOUS
  0
ENDTAB
  0
ENDSEC
  0
SECTION
  2
ENTITIES
0
LINE
8
BLACK
6
CONTINUOUS
10
6.81906
20
-2.85826
11
6.81919
21
-2.85823
0
LINE
8
BLACK
6
CONTINUOUS
10
6.81919
20
-2.85823
11
6.81931
21
-2.8583
0
LINE
8
BLACK
6
CONTINUOUS
10
6.81931
20
-2.8583
11
6.81969
21
-2.85837
0
LINE
8
BLACK
6
CONTINUOUS
10
6.81969
20
-2.85837
11
6.82028
21
-2.85886
0
LINE
8
BLACK
6
CONTINUOUS
10
6.82028
20
-2.85886
11
6.82094
21
-2.85924
0
LINE
8
BLACK
6
CONTINUOUS
10
6.82094
20
-2.85924
11
6.82103
21
-2.85949
0
LINE
8
BLACK
6
CONTINUOUS
10
6.82103
20
-2.85949
11
6.82124
21
-2.85967
0
LINE
8
BLACK
6
CONTINUOUS
10
6.82124
20
-2.85967
11
6.82137
21
-2.86042
0
LINE
8
BLACK
6
CONTINUOUS
10
6.82137
20
-2.86042
11
6.82163
21
-2.86114
0
LINE
8
BLACK
6
CONTINUOUS
10
6.82163
20
-2.86114
11
6.82163
21
-4.8687
0
LINE
8
BLACK
6
CONTINUOUS
10
6.82163
20
-4.8687
11
6.82157
21
-4.86908
0
LINE
8
BLACK
6
CONTINUOUS
10
6.82157
20
-4.86908
11
6.82159
21
-4.86921
0
LINE
8
BLACK
6
CONTINUOUS
10
6.82159
20
-4.86921
11
6.82152
21
-4.86933
0
LINE
8
BLACK
6
CONTINUOUS
10
6.82152
20
-4.86933
11
6.82146
21
-4.86971
0
LINE
8
BLACK
6
CONTINUOUS
10
6.82146
20
-4.86971
11
6.82096
21
-4.8703
0
LINE
8
BLACK
6
CONTINUOUS
10
6.82096
20
-4.8703
11
6.82058
21
-4.87096
0
LINE
8
BLACK
6
CONTINUOUS
10
6.82058
20
-4.87096
11
6.82033
21
-4.87105
0
LINE
8
BLACK
6
CONTINUOUS
10
6.82033
20
-4.87105
11
6.82016
21
-4.87126
0
LINE
8
BLACK
6
CONTINUOUS
10
6.82016
20
-4.87126
11
6.8194
21
-4.87139
0
LINE
8
BLACK
6
CONTINUOUS
10
6.8194
20
-4.87139
11
6.81868
21
-4.87165
0
LINE
8
BLACK
6
CONTINUOUS
10
6.81868
20
-4.87165
11
4.81112
21
-4.87165
0
LINE
8
BLACK
6
CONTINUOUS
10
4.81112
20
-4.87165
11
4.81074
21
-4.87159
0
LINE
8
BLACK
6
CONTINUOUS
10
4.81074
20
-4.87159
11
4.81061
21
-4.87161
0
LINE
8
BLACK
6
CONTINUOUS
10
4.81061
20
-4.87161
11
4.8105
21
-4.87154
0
LINE
8
BLACK
6
CONTINUOUS
10
4.8105
20
-4.87154
11
4.81011
21
-4.87148
0
LINE
8
BLACK
6
CONTINUOUS
10
4.81011
20
-4.87148
11
4.80952
21
-4.87098
0
LINE
8
BLACK
6
CONTINUOUS
10
4.80952
20
-4.87098
11
4.80886
21
-4.8706
0
LINE
8
BLACK
6
CONTINUOUS
10
4.80886
20
-4.8706
11
4.80877
21
-4.87035
0
LINE
8
BLACK
6
CONTINUOUS
10
4.80877
20
-4.87035
11
4.80856
21
-4.87018
0
LINE
8
BLACK
6
CONTINUOUS
10
4.80856
20
-4.87018
11
4.80843
21
-4.86942
0
LINE
8
BLACK
6
CONTINUOUS
10
4.80843
20
-4.86942
11
4.80817
21
-4.8687
0
LINE
8
BLACK
6
CONTINUOUS
10
4.80817
20
-4.8687
11
4.80817
21
-2.86114
0
LINE
8
BLACK
6
CONTINUOUS
10
4.80817
20
-2.86114
11
4.80824
21
-2.86076
0
LINE
8
BLACK
6
CONTINUOUS
10
4.80824
20
-2.86076
11
4.80821
21
-2.86063
0
LINE
8
BLACK
6
CONTINUOUS
10
4.80821
20
-2.86063
11
4.80828
21
-2.86052
0
LINE
8
BLACK
6
CONTINUOUS
10
4.80828
20
-2.86052
11
4.80835
21
-2.86013
0
LINE
8
BLACK
6
CONTINUOUS
10
4.80835
20
-2.86013
11
4.80884
21
-2.85954
0
LINE
8
BLACK
6
CONTINUOUS
10
4.80884
20
-2.85954
11
4.80922
21
-2.85888
0
LINE
8
BLACK
6
CONTINUOUS
10
4.80922
20
-2.85888
11
4.80947
21
-2.85879
0
LINE
8
BLACK
6
CONTINUOUS
10
4.80947
20
-2.85879
11
4.80965
21
-2.85858
0
LINE
8
BLACK
6
CONTINUOUS
10
4.80965
20
-2.85858
11
4.8104
21
-2.85845
0
LINE
8
BLACK
6
CONTINUOUS
10
4.8104
20
-2.85845
11
4.81112
21
-2.85819
0
LINE
8
BLACK
6
CONTINUOUS
10
4.81112
20
-2.85819
11
6.81868
21
-2.85819
0
LINE
8
BLACK
6
CONTINUOUS
10
6.81868
20
-2.85819
11
6.81906
21
-2.85826
0
LINE
8
BLACK
6
CONTINUOUS
10
4.81407
20
-2.86409
11
4.81407
21
-4.86575
0
LINE
8
BLACK
6
CONTINUOUS
10
4.81407
20
-4.86575
11
6.81573
21
-4.86575
0
LINE
8
BLACK
6
CONTINUOUS
10
6.81573
20
-4.86575
11
6.81573
21
-2.86409
0
LINE
8
BLACK
6
CONTINUOUS
10
6.81573
20
-2.86409
11
4.81407
21
-2.86409
  0
ENDSEC
  0
EOF
