  0
SECTION
  2
HEADER
  9
$ANGBASE
  50
0.0
  9
$ANGDIR
  70
1
  9
$MEASUREMENT
  70
0
  0
ENDSEC
  0
SECTION
  2
TABLES
  0
TABLE
  2
LTYPE
  70
4
  0
LTYPE
  5
40F
  2
CONTINUOUS
  70
0
  3
Solid line
  72
65
  73
0
  40
0.0
  0
LTYPE
  5
410
  2
DASHDOT
 70
0
  3
Dash Dot ____ _ ____ _
 72
65
 73
4
 40
2.0
 49
1.25
 49
-0.25
 49
0.25
 49
-0.25
  0
LTYPE
  5
411
  2
DASHED
 70
0
  3
Dashed __ __ __ __ __
 72
65
 73
2
 40
0.75
 49
0.5
 49
-0.25
  0
LTYPE
  5
43B
  2
DOTTED
 70
0
  3
Dotted .  .  .  .
 72
65
 73
2
 40
0.2
 49
0.0
 49
-0.2
  0
ENDTAB
  0
TABLE
  2
STYLE
  70
4
  0
STYLE
  2
KICAD
  70
0
  40
0
  41
1
  42
1
  50
0
  71
0
  3
isocp.shx
  0
STYLE
  2
KICADB
  70
0
  40
0
  41
1
  42
1
  50
0
  71
0
  3
isocp.shx
  0
STYLE
  2
KICADI
  70
0
  40
0
  41
1
  42
1
  50
15
  71
0
  3
isocp.shx
  0
STYLE
  2
KICADBI
  70
0
  40
0
  41
1
  42
1
  50
15
  71
0
  3
isocp.shx
  0
ENDTAB
  0
TABLE
  2
LAYER
  70
1
  0
LAYER
  2
BLACK
  70
0
  62
7
  6
CONTINUOUS
  0
ENDTAB
  0
ENDSEC
  0
SECTION
  2
ENTITIES
0
LINE
8
BLACK
6
CONTINUOUS
10
6.05673
20
-4.85345
11
6.05644
21
-4.85276
0
LINE
8
BLACK
6
CONTINUOUS
10
6.05644
20
-4.85276
11
6.05644
21
-4.60079
0
LINE
8
BLACK
6
CONTINUOUS
10
6.05644
20
-4.60079
11
6.05673
21
-4.60009
0
LINE
8
BLACK
6
CONTINUOUS
10
6.05673
20
-4.60009
11
6.05742
21
-4.5998
0
LINE
8
BLACK
6
CONTINUOUS
10
6.05742
20
-4.5998
11
6.42907
21
-4.5998
0
LINE
8
BLACK
6
CONTINUOUS
10
6.42907
20
-4.5998
11
6.42977
21
-4.60009
0
LINE
8
BLACK
6
CONTINUOUS
10
6.42977
20
-4.60009
11
6.43006
21
-4.60079
0
LINE
8
BLACK
6
CONTINUOUS
10
6.43006
20
-4.60079
11
6.43006
21
-4.85276
0
LINE
8
BLACK
6
CONTINUOUS
10
6.43006
20
-4.85276
11
6.42977
21
-4.85345
0
LINE
8
BLACK
6
CONTINUOUS
10
6.42977
20
-4.85345
11
6.42907
21
-4.85374
0
LINE
8
BLACK
6
CONTINUOUS
10
6.42907
20
-4.85374
11
6.05742
21
-4.85374
0
LINE
8
BLACK
6
CONTINUOUS
10
6.05742
20
-4.85374
11
6.05673
21
-4.85345
0
LINE
8
BLACK
6
CONTINUOUS
10
6.05841
20
-4.60177
11
6.05841
21
-4.85177
0
LINE
8
BLACK
6
CONTINUOUS
10
6.05841
20
-4.85177
11
6.42809
21
-4.85177
0
LINE
8
BLACK
6
CONTINUOUS
10
6.42809
20
-4.85177
11
6.42809
21
-4.60177
0
LINE
8
BLACK
6
CONTINUOUS
10
6.42809
20
-4.60177
11
6.05841
21
-4.60177
0
LINE
8
BLACK
6
CONTINUOUS
10
5.21035
20
-4.8516
11
5.21006
21
-4.85091
0
LINE
8
BLACK
6
CONTINUOUS
10
5.21006
20
-4.85091
11
5.21006
21
-4.59894
0
LINE
8
BLACK
6
CONTINUOUS
10
5.21006
20
-4.59894
11
5.21035
21
-4.59824
0
LINE
8
BLACK
6
CONTINUOUS
10
5.21035
20
-4.59824
11
5.21104
21
-4.59795
0
LINE
8
BLACK
6
CONTINUOUS
10
5.21104
20
-4.59795
11
5.87876
21
-4.59795
0
LINE
8
BLACK
6
CONTINUOUS
10
5.87876
20
-4.59795
11
5.87946
21
-4.59824
0
LINE
8
BLACK
6
CONTINUOUS
10
5.87946
20
-4.59824
11
5.87974
21
-4.59894
0
LINE
8
BLACK
6
CONTINUOUS
10
5.87974
20
-4.59894
11
5.87974
21
-4.85091
0
LINE
8
BLACK
6
CONTINUOUS
10
5.87974
20
-4.85091
11
5.87946
21
-4.8516
0
LINE
8
BLACK
6
CONTINUOUS
10
5.87946
20
-4.8516
11
5.87876
21
-4.85189
0
LINE
8
BLACK
6
CONTINUOUS
10
5.87876
20
-4.85189
11
5.21104
21
-4.85189
0
LINE
8
BLACK
6
CONTINUOUS
10
5.21104
20
-4.85189
11
5.21035
21
-4.8516
0
LINE
8
BLACK
6
CONTINUOUS
10
5.21203
20
-4.59992
11
5.21203
21
-4.84992
0
LINE
8
BLACK
6
CONTINUOUS
10
5.21203
20
-4.84992
11
5.87778
21
-4.84992
0
LINE
8
BLACK
6
CONTINUOUS
10
5.87778
20
-4.84992
11
5.87778
21
-4.59992
0
LINE
8
BLACK
6
CONTINUOUS
10
5.87778
20
-4.59992
11
5.21203
21
-4.59992
0
LINE
8
BLACK
6
CONTINUOUS
10
5.90031
20
-4.83467
11
5.90002
21
-4.83398
0
LINE
8
BLACK
6
CONTINUOUS
10
5.90002
20
-4.83398
11
5.90002
21
-4.55839
0
LINE
8
BLACK
6
CONTINUOUS
10
5.90002
20
-4.55839
11
5.90031
21
-4.55769
0
LINE
8
BLACK
6
CONTINUOUS
10
5.90031
20
-4.55769
11
5.901
21
-4.5574
0
LINE
8
BLACK
6
CONTINUOUS
10
5.901
20
-4.5574
11
6.0388
21
-4.5574
0
LINE
8
BLACK
6
CONTINUOUS
10
6.0388
20
-4.5574
11
6.0395
21
-4.55769
0
LINE
8
BLACK
6
CONTINUOUS
10
6.0395
20
-4.55769
11
6.03978
21
-4.55839
0
LINE
8
BLACK
6
CONTINUOUS
10
6.03978
20
-4.55839
11
6.03978
21
-4.83398
0
LINE
8
BLACK
6
CONTINUOUS
10
6.03978
20
-4.83398
11
6.0395
21
-4.83467
0
LINE
8
BLACK
6
CONTINUOUS
10
6.0395
20
-4.83467
11
6.0388
21
-4.83496
0
LINE
8
BLACK
6
CONTINUOUS
10
6.0388
20
-4.83496
11
5.901
21
-4.83496
0
LINE
8
BLACK
6
CONTINUOUS
10
5.901
20
-4.83496
11
5.90031
21
-4.83467
0
LINE
8
BLACK
6
CONTINUOUS
10
5.90199
20
-4.55937
11
5.90199
21
-4.83299
0
LINE
8
BLACK
6
CONTINUOUS
10
5.90199
20
-4.83299
11
6.03781
21
-4.83299
0
LINE
8
BLACK
6
CONTINUOUS
10
6.03781
20
-4.83299
11
6.03781
21
-4.55937
0
LINE
8
BLACK
6
CONTINUOUS
10
6.03781
20
-4.55937
11
5.90199
21
-4.55937
0
LINE
8
BLACK
6
CONTINUOUS
10
5.08271
20
-4.45292
11
5.08242
21
-4.45222
0
LINE
8
BLACK
6
CONTINUOUS
10
5.08242
20
-4.45222
11
5.08242
21
-3.80262
0
LINE
8
BLACK
6
CONTINUOUS
10
5.08242
20
-3.80262
11
5.08271
21
-3.80192
0
LINE
8
BLACK
6
CONTINUOUS
10
5.08271
20
-3.80192
11
5.08341
21
-3.80163
0
LINE
8
BLACK
6
CONTINUOUS
10
5.08341
20
-3.80163
11
5.6464
21
-3.80163
0
LINE
8
BLACK
6
CONTINUOUS
10
5.6464
20
-3.80163
11
5.64709
21
-3.80192
0
LINE
8
BLACK
6
CONTINUOUS
10
5.64709
20
-3.80192
11
5.64738
21
-3.80262
0
LINE
8
BLACK
6
CONTINUOUS
10
5.64738
20
-3.80262
11
5.64738
21
-4.45222
0
LINE
8
BLACK
6
CONTINUOUS
10
5.64738
20
-4.45222
11
5.64709
21
-4.45292
0
LINE
8
BLACK
6
CONTINUOUS
10
5.64709
20
-4.45292
11
5.6464
21
-4.45321
0
LINE
8
BLACK
6
CONTINUOUS
10
5.6464
20
-4.45321
11
5.08341
21
-4.45321
0
LINE
8
BLACK
6
CONTINUOUS
10
5.08341
20
-4.45321
11
5.08271
21
-4.45292
0
LINE
8
BLACK
6
CONTINUOUS
10
5.08439
20
-3.8036
11
5.08439
21
-4.45124
0
LINE
8
BLACK
6
CONTINUOUS
10
5.08439
20
-4.45124
11
5.64541
21
-4.45124
0
LINE
8
BLACK
6
CONTINUOUS
10
5.64541
20
-4.45124
11
5.64541
21
-3.8036
0
LINE
8
BLACK
6
CONTINUOUS
10
5.64541
20
-3.8036
11
5.08439
21
-3.8036
0
LINE
8
BLACK
6
CONTINUOUS
10
6.80195
20
-4.14665
11
6.80195
21
-4.36319
0
LINE
8
BLACK
6
CONTINUOUS
10
6.80195
20
-4.36319
11
6.80166
21
-4.36388
0
LINE
8
BLACK
6
CONTINUOUS
10
6.80166
20
-4.36388
11
6.80096
21
-4.36417
0
LINE
8
BLACK
6
CONTINUOUS
10
6.80096
20
-4.36417
11
6.70816
21
-4.36417
0
LINE
8
BLACK
6
CONTINUOUS
10
6.70816
20
-4.36417
11
6.69773
21
-4.3775
0
LINE
8
BLACK
6
CONTINUOUS
10
6.69773
20
-4.3775
11
6.68612
21
-4.38986
0
LINE
8
BLACK
6
CONTINUOUS
10
6.68612
20
-4.38986
11
6.67344
21
-4.40112
0
LINE
8
BLACK
6
CONTINUOUS
10
6.67344
20
-4.40112
11
6.6598
21
-4.4112
0
LINE
8
BLACK
6
CONTINUOUS
10
6.6598
20
-4.4112
11
6.64531
21
-4.42001
0
LINE
8
BLACK
6
CONTINUOUS
10
6.64531
20
-4.42001
11
6.63008
21
-4.42747
0
LINE
8
BLACK
6
CONTINUOUS
10
6.63008
20
-4.42747
11
6.61424
21
-4.43354
0
LINE
8
BLACK
6
CONTINUOUS
10
6.61424
20
-4.43354
11
6.59792
21
-4.43816
0
LINE
8
BLACK
6
CONTINUOUS
10
6.59792
20
-4.43816
11
6.58126
21
-4.44128
0
LINE
8
BLACK
6
CONTINUOUS
10
6.58126
20
-4.44128
11
6.56437
21
-4.4429
0
LINE
8
BLACK
6
CONTINUOUS
10
6.56437
20
-4.4429
11
6.54742
21
-4.44299
0
LINE
8
BLACK
6
CONTINUOUS
10
6.54742
20
-4.44299
11
6.53052
21
-4.44155
0
LINE
8
BLACK
6
CONTINUOUS
10
6.53052
20
-4.44155
11
6.51382
21
-4.4386
0
LINE
8
BLACK
6
CONTINUOUS
10
6.51382
20
-4.4386
11
6.49745
21
-4.43416
0
LINE
8
BLACK
6
CONTINUOUS
10
6.49745
20
-4.43416
11
6.48155
21
-4.42826
0
LINE
8
BLACK
6
CONTINUOUS
10
6.48155
20
-4.42826
11
6.46625
21
-4.42095
0
LINE
8
BLACK
6
CONTINUOUS
10
6.46625
20
-4.42095
11
6.45166
21
-4.4123
0
LINE
8
BLACK
6
CONTINUOUS
10
6.45166
20
-4.4123
11
6.43791
21
-4.40237
0
LINE
8
BLACK
6
CONTINUOUS
10
6.43791
20
-4.40237
11
6.42512
21
-4.39124
0
LINE
8
BLACK
6
CONTINUOUS
10
6.42512
20
-4.39124
11
6.41337
21
-4.379
0
LINE
8
BLACK
6
CONTINUOUS
10
6.41337
20
-4.379
11
6.40278
21
-4.36576
0
LINE
8
BLACK
6
CONTINUOUS
10
6.40278
20
-4.36576
11
6.39342
21
-4.35162
0
LINE
8
BLACK
6
CONTINUOUS
10
6.39342
20
-4.35162
11
6.38537
21
-4.33669
0
LINE
8
BLACK
6
CONTINUOUS
10
6.38537
20
-4.33669
11
6.3787
21
-4.3211
0
LINE
8
BLACK
6
CONTINUOUS
10
6.3787
20
-4.3211
11
6.37346
21
-4.30497
0
LINE
8
BLACK
6
CONTINUOUS
10
6.37346
20
-4.30497
11
6.36969
21
-4.28843
0
LINE
8
BLACK
6
CONTINUOUS
10
6.36969
20
-4.28843
11
6.36743
21
-4.27163
0
LINE
8
BLACK
6
CONTINUOUS
10
6.36743
20
-4.27163
11
6.36668
21
-4.25468
0
LINE
8
BLACK
6
CONTINUOUS
10
6.36668
20
-4.25468
11
6.36747
21
-4.23774
0
LINE
8
BLACK
6
CONTINUOUS
10
6.36747
20
-4.23774
11
6.36978
21
-4.22094
0
LINE
8
BLACK
6
CONTINUOUS
10
6.36978
20
-4.22094
11
6.37359
21
-4.20442
0
LINE
8
BLACK
6
CONTINUOUS
10
6.37359
20
-4.20442
11
6.37887
21
-4.1883
0
LINE
8
BLACK
6
CONTINUOUS
10
6.37887
20
-4.1883
11
6.38558
21
-4.17273
0
LINE
8
BLACK
6
CONTINUOUS
10
6.38558
20
-4.17273
11
6.39367
21
-4.15782
0
LINE
8
BLACK
6
CONTINUOUS
10
6.39367
20
-4.15782
11
6.40306
21
-4.1437
0
LINE
8
BLACK
6
CONTINUOUS
10
6.40306
20
-4.1437
11
6.41369
21
-4.13048
0
LINE
8
BLACK
6
CONTINUOUS
10
6.41369
20
-4.13048
11
6.42546
21
-4.11828
0
LINE
8
BLACK
6
CONTINUOUS
10
6.42546
20
-4.11828
11
6.43829
21
-4.10718
0
LINE
8
BLACK
6
CONTINUOUS
10
6.43829
20
-4.10718
11
6.45206
21
-4.09728
0
LINE
8
BLACK
6
CONTINUOUS
10
6.45206
20
-4.09728
11
6.46667
21
-4.08867
0
LINE
8
BLACK
6
CONTINUOUS
10
6.46667
20
-4.08867
11
6.48199
21
-4.0814
0
LINE
8
BLACK
6
CONTINUOUS
10
6.48199
20
-4.0814
11
6.4979
21
-4.07554
0
LINE
8
BLACK
6
CONTINUOUS
10
6.4979
20
-4.07554
11
6.51428
21
-4.07114
0
LINE
8
BLACK
6
CONTINUOUS
10
6.51428
20
-4.07114
11
6.53099
21
-4.06823
0
LINE
8
BLACK
6
CONTINUOUS
10
6.53099
20
-4.06823
11
6.54789
21
-4.06683
0
LINE
8
BLACK
6
CONTINUOUS
10
6.54789
20
-4.06683
11
6.56485
21
-4.06697
0
LINE
8
BLACK
6
CONTINUOUS
10
6.56485
20
-4.06697
11
6.58173
21
-4.06863
0
LINE
8
BLACK
6
CONTINUOUS
10
6.58173
20
-4.06863
11
6.59839
21
-4.0718
0
LINE
8
BLACK
6
CONTINUOUS
10
6.59839
20
-4.0718
11
6.61469
21
-4.07645
0
LINE
8
BLACK
6
CONTINUOUS
10
6.61469
20
-4.07645
11
6.63052
21
-4.08256
0
LINE
8
BLACK
6
CONTINUOUS
10
6.63052
20
-4.08256
11
6.64572
21
-4.09007
0
LINE
8
BLACK
6
CONTINUOUS
10
6.64572
20
-4.09007
11
6.66019
21
-4.09891
0
LINE
8
BLACK
6
CONTINUOUS
10
6.66019
20
-4.09891
11
6.67381
21
-4.10902
0
LINE
8
BLACK
6
CONTINUOUS
10
6.67381
20
-4.10902
11
6.68646
21
-4.12032
0
LINE
8
BLACK
6
CONTINUOUS
10
6.68646
20
-4.12032
11
6.69804
21
-4.1327
0
LINE
8
BLACK
6
CONTINUOUS
10
6.69804
20
-4.1327
11
6.70814
21
-4.14567
0
LINE
8
BLACK
6
CONTINUOUS
10
6.70814
20
-4.14567
11
6.80096
21
-4.14567
0
LINE
8
BLACK
6
CONTINUOUS
10
6.80096
20
-4.14567
11
6.80166
21
-4.14596
0
LINE
8
BLACK
6
CONTINUOUS
10
6.80166
20
-4.14596
11
6.80195
21
-4.14665
0
LINE
8
BLACK
6
CONTINUOUS
10
6.53122
20
-4.07
11
6.51467
21
-4.07288
0
LINE
8
BLACK
6
CONTINUOUS
10
6.51467
20
-4.07288
11
6.49844
21
-4.07724
0
LINE
8
BLACK
6
CONTINUOUS
10
6.49844
20
-4.07724
11
6.48268
21
-4.08304
0
LINE
8
BLACK
6
CONTINUOUS
10
6.48268
20
-4.08304
11
6.4675
21
-4.09024
0
LINE
8
BLACK
6
CONTINUOUS
10
6.4675
20
-4.09024
11
6.45303
21
-4.09878
0
LINE
8
BLACK
6
CONTINUOUS
10
6.45303
20
-4.09878
11
6.43939
21
-4.10858
0
LINE
8
BLACK
6
CONTINUOUS
10
6.43939
20
-4.10858
11
6.42669
21
-4.11957
0
LINE
8
BLACK
6
CONTINUOUS
10
6.42669
20
-4.11957
11
6.41502
21
-4.13166
0
LINE
8
BLACK
6
CONTINUOUS
10
6.41502
20
-4.13166
11
6.4045
21
-4.14475
0
LINE
8
BLACK
6
CONTINUOUS
10
6.4045
20
-4.14475
11
6.39519
21
-4.15874
0
LINE
8
BLACK
6
CONTINUOUS
10
6.39519
20
-4.15874
11
6.38718
21
-4.1735
0
LINE
8
BLACK
6
CONTINUOUS
10
6.38718
20
-4.1735
11
6.38053
21
-4.18893
0
LINE
8
BLACK
6
CONTINUOUS
10
6.38053
20
-4.18893
11
6.3753
21
-4.20489
0
LINE
8
BLACK
6
CONTINUOUS
10
6.3753
20
-4.20489
11
6.37153
21
-4.22126
0
LINE
8
BLACK
6
CONTINUOUS
10
6.37153
20
-4.22126
11
6.36924
21
-4.23791
0
LINE
8
BLACK
6
CONTINUOUS
10
6.36924
20
-4.23791
11
6.36847
21
-4.25469
0
LINE
8
BLACK
6
CONTINUOUS
10
6.36847
20
-4.25469
11
6.3692
21
-4.27147
0
LINE
8
BLACK
6
CONTINUOUS
10
6.3692
20
-4.27147
11
6.37144
21
-4.28812
0
LINE
8
BLACK
6
CONTINUOUS
10
6.37144
20
-4.28812
11
6.37518
21
-4.30449
0
LINE
8
BLACK
6
CONTINUOUS
10
6.37518
20
-4.30449
11
6.38037
21
-4.32047
0
LINE
8
BLACK
6
CONTINUOUS
10
6.38037
20
-4.32047
11
6.38698
21
-4.33591
0
LINE
8
BLACK
6
CONTINUOUS
10
6.38698
20
-4.33591
11
6.39495
21
-4.3507
0
LINE
8
BLACK
6
CONTINUOUS
10
6.39495
20
-4.3507
11
6.40422
21
-4.36471
0
LINE
8
BLACK
6
CONTINUOUS
10
6.40422
20
-4.36471
11
6.41471
21
-4.37783
0
LINE
8
BLACK
6
CONTINUOUS
10
6.41471
20
-4.37783
11
6.42635
21
-4.38995
0
LINE
8
BLACK
6
CONTINUOUS
10
6.42635
20
-4.38995
11
6.43902
21
-4.40097
0
LINE
8
BLACK
6
CONTINUOUS
10
6.43902
20
-4.40097
11
6.45264
21
-4.41081
0
LINE
8
BLACK
6
CONTINUOUS
10
6.45264
20
-4.41081
11
6.46708
21
-4.41938
0
LINE
8
BLACK
6
CONTINUOUS
10
6.46708
20
-4.41938
11
6.48224
21
-4.42662
0
LINE
8
BLACK
6
CONTINUOUS
10
6.48224
20
-4.42662
11
6.49799
21
-4.43246
0
LINE
8
BLACK
6
CONTINUOUS
10
6.49799
20
-4.43246
11
6.51421
21
-4.43686
0
LINE
8
BLACK
6
CONTINUOUS
10
6.51421
20
-4.43686
11
6.53075
21
-4.43979
0
LINE
8
BLACK
6
CONTINUOUS
10
6.53075
20
-4.43979
11
6.54749
21
-4.44121
0
LINE
8
BLACK
6
CONTINUOUS
10
6.54749
20
-4.44121
11
6.56428
21
-4.44112
0
LINE
8
BLACK
6
CONTINUOUS
10
6.56428
20
-4.44112
11
6.58101
21
-4.43952
0
LINE
8
BLACK
6
CONTINUOUS
10
6.58101
20
-4.43952
11
6.59752
21
-4.43642
0
LINE
8
BLACK
6
CONTINUOUS
10
6.59752
20
-4.43642
11
6.61368
21
-4.43185
0
LINE
8
BLACK
6
CONTINUOUS
10
6.61368
20
-4.43185
11
6.62937
21
-4.42584
0
LINE
8
BLACK
6
CONTINUOUS
10
6.62937
20
-4.42584
11
6.64445
21
-4.41844
0
LINE
8
BLACK
6
CONTINUOUS
10
6.64445
20
-4.41844
11
6.65881
21
-4.40972
0
LINE
8
BLACK
6
CONTINUOUS
10
6.65881
20
-4.40972
11
6.67232
21
-4.39974
0
LINE
8
BLACK
6
CONTINUOUS
10
6.67232
20
-4.39974
11
6.68488
21
-4.38858
0
LINE
8
BLACK
6
CONTINUOUS
10
6.68488
20
-4.38858
11
6.69638
21
-4.37634
0
LINE
8
BLACK
6
CONTINUOUS
10
6.69638
20
-4.37634
11
6.70648
21
-4.36343
0
LINE
8
BLACK
6
CONTINUOUS
10
6.70648
20
-4.36343
11
6.70658
21
-4.363
0
LINE
8
BLACK
6
CONTINUOUS
10
6.70658
20
-4.363
11
6.70681
21
-4.36286
0
LINE
8
BLACK
6
CONTINUOUS
10
6.70681
20
-4.36286
11
6.70696
21
-4.36249
0
LINE
8
BLACK
6
CONTINUOUS
10
6.70696
20
-4.36249
11
6.70766
21
-4.3622
0
LINE
8
BLACK
6
CONTINUOUS
10
6.70766
20
-4.3622
11
6.79998
21
-4.3622
0
LINE
8
BLACK
6
CONTINUOUS
10
6.79998
20
-4.3622
11
6.79998
21
-4.14764
0
LINE
8
BLACK
6
CONTINUOUS
10
6.79998
20
-4.14764
11
6.70766
21
-4.14764
0
LINE
8
BLACK
6
CONTINUOUS
10
6.70766
20
-4.14764
11
6.70758
21
-4.1476
0
LINE
8
BLACK
6
CONTINUOUS
10
6.70758
20
-4.1476
11
6.70749
21
-4.14762
0
LINE
8
BLACK
6
CONTINUOUS
10
6.70749
20
-4.14762
11
6.70724
21
-4.14746
0
LINE
8
BLACK
6
CONTINUOUS
10
6.70724
20
-4.14746
11
6.70696
21
-4.14735
0
LINE
8
BLACK
6
CONTINUOUS
10
6.70696
20
-4.14735
11
6.70693
21
-4.14727
0
LINE
8
BLACK
6
CONTINUOUS
10
6.70693
20
-4.14727
11
6.70685
21
-4.14722
0
LINE
8
BLACK
6
CONTINUOUS
10
6.70685
20
-4.14722
11
6.70679
21
-4.14693
0
LINE
8
BLACK
6
CONTINUOUS
10
6.70679
20
-4.14693
11
6.7067
21
-4.14672
0
LINE
8
BLACK
6
CONTINUOUS
10
6.7067
20
-4.14672
11
6.69669
21
-4.13386
0
LINE
8
BLACK
6
CONTINUOUS
10
6.69669
20
-4.13386
11
6.68521
21
-4.12159
0
LINE
8
BLACK
6
CONTINUOUS
10
6.68521
20
-4.12159
11
6.67268
21
-4.1104
0
LINE
8
BLACK
6
CONTINUOUS
10
6.67268
20
-4.1104
11
6.6592
21
-4.10039
0
LINE
8
BLACK
6
CONTINUOUS
10
6.6592
20
-4.10039
11
6.64486
21
-4.09163
0
LINE
8
BLACK
6
CONTINUOUS
10
6.64486
20
-4.09163
11
6.6298
21
-4.08419
0
LINE
8
BLACK
6
CONTINUOUS
10
6.6298
20
-4.08419
11
6.61413
21
-4.07814
0
LINE
8
BLACK
6
CONTINUOUS
10
6.61413
20
-4.07814
11
6.59798
21
-4.07353
0
LINE
8
BLACK
6
CONTINUOUS
10
6.59798
20
-4.07353
11
6.58147
21
-4.07039
0
LINE
8
BLACK
6
CONTINUOUS
10
6.58147
20
-4.07039
11
6.56475
21
-4.06875
0
LINE
8
BLACK
6
CONTINUOUS
10
6.56475
20
-4.06875
11
6.54796
21
-4.06861
0
LINE
8
BLACK
6
CONTINUOUS
10
6.54796
20
-4.06861
11
6.53122
21
-4.07
0
LINE
8
BLACK
6
CONTINUOUS
10
6.10828
20
-4.30798
11
6.10799
21
-4.30728
0
LINE
8
BLACK
6
CONTINUOUS
10
6.10799
20
-4.30728
11
6.10799
21
-4.1813
0
LINE
8
BLACK
6
CONTINUOUS
10
6.10799
20
-4.1813
11
6.10828
21
-4.1806
0
LINE
8
BLACK
6
CONTINUOUS
10
6.10828
20
-4.1806
11
6.10898
21
-4.18031
0
LINE
8
BLACK
6
CONTINUOUS
10
6.10898
20
-4.18031
11
6.21921
21
-4.18031
0
LINE
8
BLACK
6
CONTINUOUS
10
6.21921
20
-4.18031
11
6.21991
21
-4.1806
0
LINE
8
BLACK
6
CONTINUOUS
10
6.21991
20
-4.1806
11
6.2202
21
-4.1813
0
LINE
8
BLACK
6
CONTINUOUS
10
6.2202
20
-4.1813
11
6.2202
21
-4.30728
0
LINE
8
BLACK
6
CONTINUOUS
10
6.2202
20
-4.30728
11
6.21991
21
-4.30798
0
LINE
8
BLACK
6
CONTINUOUS
10
6.21991
20
-4.30798
11
6.21921
21
-4.30827
0
LINE
8
BLACK
6
CONTINUOUS
10
6.21921
20
-4.30827
11
6.10898
21
-4.30827
0
LINE
8
BLACK
6
CONTINUOUS
10
6.10898
20
-4.30827
11
6.10828
21
-4.30798
0
LINE
8
BLACK
6
CONTINUOUS
10
6.10996
20
-4.18228
11
6.10996
21
-4.3063
0
LINE
8
BLACK
6
CONTINUOUS
10
6.10996
20
-4.3063
11
6.21823
21
-4.3063
0
LINE
8
BLACK
6
CONTINUOUS
10
6.21823
20
-4.3063
11
6.21823
21
-4.18228
0
LINE
8
BLACK
6
CONTINUOUS
10
6.21823
20
-4.18228
11
6.10996
21
-4.18228
0
LINE
8
BLACK
6
CONTINUOUS
10
6.34728
20
-4.07951
11
6.34699
21
-4.07882
0
LINE
8
BLACK
6
CONTINUOUS
10
6.34699
20
-4.07882
11
6.34699
21
-3.94102
0
LINE
8
BLACK
6
CONTINUOUS
10
6.34699
20
-3.94102
11
6.34728
21
-3.94033
0
LINE
8
BLACK
6
CONTINUOUS
10
6.34728
20
-3.94033
11
6.34797
21
-3.94004
0
LINE
8
BLACK
6
CONTINUOUS
10
6.34797
20
-3.94004
11
6.48183
21
-3.94004
0
LINE
8
BLACK
6
CONTINUOUS
10
6.48183
20
-3.94004
11
6.48253
21
-3.94033
0
LINE
8
BLACK
6
CONTINUOUS
10
6.48253
20
-3.94033
11
6.48281
21
-3.94102
0
LINE
8
BLACK
6
CONTINUOUS
10
6.48281
20
-3.94102
11
6.48281
21
-4.07882
0
LINE
8
BLACK
6
CONTINUOUS
10
6.48281
20
-4.07882
11
6.48253
21
-4.07951
0
LINE
8
BLACK
6
CONTINUOUS
10
6.48253
20
-4.07951
11
6.48183
21
-4.0798
0
LINE
8
BLACK
6
CONTINUOUS
10
6.48183
20
-4.0798
11
6.34797
21
-4.0798
0
LINE
8
BLACK
6
CONTINUOUS
10
6.34797
20
-4.0798
11
6.34728
21
-4.07951
0
LINE
8
BLACK
6
CONTINUOUS
10
6.34896
20
-3.94201
11
6.34896
21
-4.07783
0
LINE
8
BLACK
6
CONTINUOUS
10
6.34896
20
-4.07783
11
6.48085
21
-4.07783
0
LINE
8
BLACK
6
CONTINUOUS
10
6.48085
20
-4.07783
11
6.48085
21
-3.94201
0
LINE
8
BLACK
6
CONTINUOUS
10
6.48085
20
-3.94201
11
6.34896
21
-3.94201
0
LINE
8
BLACK
6
CONTINUOUS
10
6.51141
20
-4.00451
11
6.51112
21
-4.00382
0
LINE
8
BLACK
6
CONTINUOUS
10
6.51112
20
-4.00382
11
6.51112
21
-3.86602
0
LINE
8
BLACK
6
CONTINUOUS
10
6.51112
20
-3.86602
11
6.51141
21
-3.86533
0
LINE
8
BLACK
6
CONTINUOUS
10
6.51141
20
-3.86533
11
6.51211
21
-3.86504
0
LINE
8
BLACK
6
CONTINUOUS
10
6.51211
20
-3.86504
11
6.7877
21
-3.86504
0
LINE
8
BLACK
6
CONTINUOUS
10
6.7877
20
-3.86504
11
6.78839
21
-3.86533
0
LINE
8
BLACK
6
CONTINUOUS
10
6.78839
20
-3.86533
11
6.78868
21
-3.86602
0
LINE
8
BLACK
6
CONTINUOUS
10
6.78868
20
-3.86602
11
6.78868
21
-4.00382
0
LINE
8
BLACK
6
CONTINUOUS
10
6.78868
20
-4.00382
11
6.78839
21
-4.00451
0
LINE
8
BLACK
6
CONTINUOUS
10
6.78839
20
-4.00451
11
6.7877
21
-4.0048
0
LINE
8
BLACK
6
CONTINUOUS
10
6.7877
20
-4.0048
11
6.51211
21
-4.0048
0
LINE
8
BLACK
6
CONTINUOUS
10
6.51211
20
-4.0048
11
6.51141
21
-4.00451
0
LINE
8
BLACK
6
CONTINUOUS
10
6.51309
20
-3.86701
11
6.51309
21
-4.00283
0
LINE
8
BLACK
6
CONTINUOUS
10
6.51309
20
-4.00283
11
6.78671
21
-4.00283
0
LINE
8
BLACK
6
CONTINUOUS
10
6.78671
20
-4.00283
11
6.78671
21
-3.86701
0
LINE
8
BLACK
6
CONTINUOUS
10
6.78671
20
-3.86701
11
6.51309
21
-3.86701
0
LINE
8
BLACK
6
CONTINUOUS
10
6.32778
20
-3.27839
11
6.32778
21
-3.43488
0
LINE
8
BLACK
6
CONTINUOUS
10
6.32778
20
-3.43488
11
6.37207
21
-3.43488
0
LINE
8
BLACK
6
CONTINUOUS
10
6.37207
20
-3.43488
11
6.37276
21
-3.43517
0
LINE
8
BLACK
6
CONTINUOUS
10
6.37276
20
-3.43517
11
6.37305
21
-3.43587
0
LINE
8
BLACK
6
CONTINUOUS
10
6.37305
20
-3.43587
11
6.37305
21
-3.55398
0
LINE
8
BLACK
6
CONTINUOUS
10
6.37305
20
-3.55398
11
6.37276
21
-3.55467
0
LINE
8
BLACK
6
CONTINUOUS
10
6.37276
20
-3.55467
11
6.37207
21
-3.55496
0
LINE
8
BLACK
6
CONTINUOUS
10
6.37207
20
-3.55496
11
6.32778
21
-3.55496
0
LINE
8
BLACK
6
CONTINUOUS
10
6.32778
20
-3.55496
11
6.32778
21
-3.71146
0
LINE
8
BLACK
6
CONTINUOUS
10
6.32778
20
-3.71146
11
6.32749
21
-3.71215
0
LINE
8
BLACK
6
CONTINUOUS
10
6.32749
20
-3.71215
11
6.32679
21
-3.71244
0
LINE
8
BLACK
6
CONTINUOUS
10
6.32679
20
-3.71244
11
5.939
21
-3.71244
0
LINE
8
BLACK
6
CONTINUOUS
10
5.939
20
-3.71244
11
5.939
21
-3.71244
0
LINE
8
BLACK
6
CONTINUOUS
10
5.939
20
-3.71244
11
5.9385
21
-3.71224
0
LINE
8
BLACK
6
CONTINUOUS
10
5.9385
20
-3.71224
11
5.9383
21
-3.71215
0
LINE
8
BLACK
6
CONTINUOUS
10
5.9383
20
-3.71215
11
5.9383
21
-3.71215
0
LINE
8
BLACK
6
CONTINUOUS
10
5.9383
20
-3.71215
11
5.89302
21
-3.66688
0
LINE
8
BLACK
6
CONTINUOUS
10
5.89302
20
-3.66688
11
5.89274
21
-3.66618
0
LINE
8
BLACK
6
CONTINUOUS
10
5.89274
20
-3.66618
11
5.89274
21
-3.55496
0
LINE
8
BLACK
6
CONTINUOUS
10
5.89274
20
-3.55496
11
5.84844
21
-3.55496
0
LINE
8
BLACK
6
CONTINUOUS
10
5.84844
20
-3.55496
11
5.84775
21
-3.55467
0
LINE
8
BLACK
6
CONTINUOUS
10
5.84775
20
-3.55467
11
5.84746
21
-3.55398
0
LINE
8
BLACK
6
CONTINUOUS
10
5.84746
20
-3.55398
11
5.84746
21
-3.43587
0
LINE
8
BLACK
6
CONTINUOUS
10
5.84746
20
-3.43587
11
5.84775
21
-3.43517
0
LINE
8
BLACK
6
CONTINUOUS
10
5.84775
20
-3.43517
11
5.84844
21
-3.43488
0
LINE
8
BLACK
6
CONTINUOUS
10
5.84844
20
-3.43488
11
5.89274
21
-3.43488
0
LINE
8
BLACK
6
CONTINUOUS
10
5.89274
20
-3.43488
11
5.89274
21
-3.32366
0
LINE
8
BLACK
6
CONTINUOUS
10
5.89274
20
-3.32366
11
5.89302
21
-3.32297
0
LINE
8
BLACK
6
CONTINUOUS
10
5.89302
20
-3.32297
11
5.9383
21
-3.27769
0
LINE
8
BLACK
6
CONTINUOUS
10
5.9383
20
-3.27769
11
5.9383
21
-3.27769
0
LINE
8
BLACK
6
CONTINUOUS
10
5.9383
20
-3.27769
11
5.9385
21
-3.27761
0
LINE
8
BLACK
6
CONTINUOUS
10
5.9385
20
-3.27761
11
5.939
21
-3.2774
0
LINE
8
BLACK
6
CONTINUOUS
10
5.939
20
-3.2774
11
5.939
21
-3.2774
0
LINE
8
BLACK
6
CONTINUOUS
10
5.939
20
-3.2774
11
6.32679
21
-3.2774
0
LINE
8
BLACK
6
CONTINUOUS
10
6.32679
20
-3.2774
11
6.32749
21
-3.27769
0
LINE
8
BLACK
6
CONTINUOUS
10
6.32749
20
-3.27769
11
6.32778
21
-3.27839
0
LINE
8
BLACK
6
CONTINUOUS
10
5.84943
20
-3.55299
11
5.89372
21
-3.55299
0
LINE
8
BLACK
6
CONTINUOUS
10
5.89372
20
-3.55299
11
5.89442
21
-3.55328
0
LINE
8
BLACK
6
CONTINUOUS
10
5.89442
20
-3.55328
11
5.8947
21
-3.55398
0
LINE
8
BLACK
6
CONTINUOUS
10
5.8947
20
-3.55398
11
5.8947
21
-3.66577
0
LINE
8
BLACK
6
CONTINUOUS
10
5.8947
20
-3.66577
11
5.9394
21
-3.71047
0
LINE
8
BLACK
6
CONTINUOUS
10
5.9394
20
-3.71047
11
6.32581
21
-3.71047
0
LINE
8
BLACK
6
CONTINUOUS
10
6.32581
20
-3.71047
11
6.32581
21
-3.55398
0
LINE
8
BLACK
6
CONTINUOUS
10
6.32581
20
-3.55398
11
6.3261
21
-3.55328
0
LINE
8
BLACK
6
CONTINUOUS
10
6.3261
20
-3.55328
11
6.32679
21
-3.55299
0
LINE
8
BLACK
6
CONTINUOUS
10
6.32679
20
-3.55299
11
6.37108
21
-3.55299
0
LINE
8
BLACK
6
CONTINUOUS
10
6.37108
20
-3.55299
11
6.37108
21
-3.43685
0
LINE
8
BLACK
6
CONTINUOUS
10
6.37108
20
-3.43685
11
6.32679
21
-3.43685
0
LINE
8
BLACK
6
CONTINUOUS
10
6.32679
20
-3.43685
11
6.3261
21
-3.43656
0
LINE
8
BLACK
6
CONTINUOUS
10
6.3261
20
-3.43656
11
6.32581
21
-3.43587
0
LINE
8
BLACK
6
CONTINUOUS
10
6.32581
20
-3.43587
11
6.32581
21
-3.27937
0
LINE
8
BLACK
6
CONTINUOUS
10
6.32581
20
-3.27937
11
5.9394
21
-3.27937
0
LINE
8
BLACK
6
CONTINUOUS
10
5.9394
20
-3.27937
11
5.8947
21
-3.32407
0
LINE
8
BLACK
6
CONTINUOUS
10
5.8947
20
-3.32407
11
5.8947
21
-3.43587
0
LINE
8
BLACK
6
CONTINUOUS
10
5.8947
20
-3.43587
11
5.89442
21
-3.43656
0
LINE
8
BLACK
6
CONTINUOUS
10
5.89442
20
-3.43656
11
5.89372
21
-3.43685
0
LINE
8
BLACK
6
CONTINUOUS
10
5.89372
20
-3.43685
11
5.84943
21
-3.43685
0
LINE
8
BLACK
6
CONTINUOUS
10
5.84943
20
-3.43685
11
5.84943
21
-3.55299
0
LINE
8
BLACK
6
CONTINUOUS
10
4.802
20
-3.6664
11
4.80171
21
-3.66571
0
LINE
8
BLACK
6
CONTINUOUS
10
4.80171
20
-3.66571
11
4.80171
21
-3.26413
0
LINE
8
BLACK
6
CONTINUOUS
10
4.80171
20
-3.26413
11
4.802
21
-3.26344
0
LINE
8
BLACK
6
CONTINUOUS
10
4.802
20
-3.26344
11
4.8027
21
-3.26315
0
LINE
8
BLACK
6
CONTINUOUS
10
4.8027
20
-3.26315
11
5.13459
21
-3.26315
0
LINE
8
BLACK
6
CONTINUOUS
10
5.13459
20
-3.26315
11
5.13528
21
-3.26344
0
LINE
8
BLACK
6
CONTINUOUS
10
5.13528
20
-3.26344
11
5.13557
21
-3.26413
0
LINE
8
BLACK
6
CONTINUOUS
10
5.13557
20
-3.26413
11
5.13557
21
-3.66571
0
LINE
8
BLACK
6
CONTINUOUS
10
5.13557
20
-3.66571
11
5.13528
21
-3.6664
0
LINE
8
BLACK
6
CONTINUOUS
10
5.13528
20
-3.6664
11
5.13459
21
-3.66669
0
LINE
8
BLACK
6
CONTINUOUS
10
5.13459
20
-3.66669
11
4.8027
21
-3.66669
0
LINE
8
BLACK
6
CONTINUOUS
10
4.8027
20
-3.66669
11
4.802
21
-3.6664
0
LINE
8
BLACK
6
CONTINUOUS
10
4.80368
20
-3.26512
11
4.80368
21
-3.66472
0
LINE
8
BLACK
6
CONTINUOUS
10
4.80368
20
-3.66472
11
5.1336
21
-3.66472
0
LINE
8
BLACK
6
CONTINUOUS
10
5.1336
20
-3.66472
11
5.1336
21
-3.26512
0
LINE
8
BLACK
6
CONTINUOUS
10
5.1336
20
-3.26512
11
4.80368
21
-3.26512
0
LINE
8
BLACK
6
CONTINUOUS
10
5.3494
20
-3.63908
11
5.34911
21
-3.63839
0
LINE
8
BLACK
6
CONTINUOUS
10
5.34911
20
-3.63839
11
5.34911
21
-3.49665
0
LINE
8
BLACK
6
CONTINUOUS
10
5.34911
20
-3.49665
11
5.3494
21
-3.49596
0
LINE
8
BLACK
6
CONTINUOUS
10
5.3494
20
-3.49596
11
5.3501
21
-3.49567
0
LINE
8
BLACK
6
CONTINUOUS
10
5.3501
20
-3.49567
11
5.4997
21
-3.49567
0
LINE
8
BLACK
6
CONTINUOUS
10
5.4997
20
-3.49567
11
5.5004
21
-3.49596
0
LINE
8
BLACK
6
CONTINUOUS
10
5.5004
20
-3.49596
11
5.50069
21
-3.49665
0
LINE
8
BLACK
6
CONTINUOUS
10
5.50069
20
-3.49665
11
5.50069
21
-3.63839
0
LINE
8
BLACK
6
CONTINUOUS
10
5.50069
20
-3.63839
11
5.5004
21
-3.63908
0
LINE
8
BLACK
6
CONTINUOUS
10
5.5004
20
-3.63908
11
5.4997
21
-3.63937
0
LINE
8
BLACK
6
CONTINUOUS
10
5.4997
20
-3.63937
11
5.3501
21
-3.63937
0
LINE
8
BLACK
6
CONTINUOUS
10
5.3501
20
-3.63937
11
5.3494
21
-3.63908
0
LINE
8
BLACK
6
CONTINUOUS
10
5.35108
20
-3.49764
11
5.35108
21
-3.6374
0
LINE
8
BLACK
6
CONTINUOUS
10
5.35108
20
-3.6374
11
5.49872
21
-3.6374
0
LINE
8
BLACK
6
CONTINUOUS
10
5.49872
20
-3.6374
11
5.49872
21
-3.49764
0
LINE
8
BLACK
6
CONTINUOUS
10
5.49872
20
-3.49764
11
5.35108
21
-3.49764
0
LINE
8
BLACK
6
CONTINUOUS
10
5.60771
20
-3.51388
11
5.60742
21
-3.51319
0
LINE
8
BLACK
6
CONTINUOUS
10
5.60742
20
-3.51319
11
5.60742
21
-3.37146
0
LINE
8
BLACK
6
CONTINUOUS
10
5.60742
20
-3.37146
11
5.60771
21
-3.37076
0
LINE
8
BLACK
6
CONTINUOUS
10
5.60771
20
-3.37076
11
5.60841
21
-3.37047
0
LINE
8
BLACK
6
CONTINUOUS
10
5.60841
20
-3.37047
11
5.75801
21
-3.37047
0
LINE
8
BLACK
6
CONTINUOUS
10
5.75801
20
-3.37047
11
5.75871
21
-3.37076
0
LINE
8
BLACK
6
CONTINUOUS
10
5.75871
20
-3.37076
11
5.759
21
-3.37146
0
LINE
8
BLACK
6
CONTINUOUS
10
5.759
20
-3.37146
11
5.759
21
-3.51319
0
LINE
8
BLACK
6
CONTINUOUS
10
5.759
20
-3.51319
11
5.75871
21
-3.51388
0
LINE
8
BLACK
6
CONTINUOUS
10
5.75871
20
-3.51388
11
5.75801
21
-3.51417
0
LINE
8
BLACK
6
CONTINUOUS
10
5.75801
20
-3.51417
11
5.60841
21
-3.51417
0
LINE
8
BLACK
6
CONTINUOUS
10
5.60841
20
-3.51417
11
5.60771
21
-3.51388
0
LINE
8
BLACK
6
CONTINUOUS
10
5.60939
20
-3.37244
11
5.60939
21
-3.5122
0
LINE
8
BLACK
6
CONTINUOUS
10
5.60939
20
-3.5122
11
5.75703
21
-3.5122
0
LINE
8
BLACK
6
CONTINUOUS
10
5.75703
20
-3.5122
11
5.75703
21
-3.37244
0
LINE
8
BLACK
6
CONTINUOUS
10
5.75703
20
-3.37244
11
5.60939
21
-3.37244
0
LINE
8
BLACK
6
CONTINUOUS
10
5.31932
20
-3.47282
11
5.31904
21
-3.47213
0
LINE
8
BLACK
6
CONTINUOUS
10
5.31904
20
-3.47213
11
5.31904
21
-3.34772
0
LINE
8
BLACK
6
CONTINUOUS
10
5.31904
20
-3.34772
11
5.31932
21
-3.34702
0
LINE
8
BLACK
6
CONTINUOUS
10
5.31932
20
-3.34702
11
5.32002
21
-3.34673
0
LINE
8
BLACK
6
CONTINUOUS
10
5.32002
20
-3.34673
11
5.49955
21
-3.34673
0
LINE
8
BLACK
6
CONTINUOUS
10
5.49955
20
-3.34673
11
5.50024
21
-3.34702
0
LINE
8
BLACK
6
CONTINUOUS
10
5.50024
20
-3.34702
11
5.50053
21
-3.34772
0
LINE
8
BLACK
6
CONTINUOUS
10
5.50053
20
-3.34772
11
5.50053
21
-3.47213
0
LINE
8
BLACK
6
CONTINUOUS
10
5.50053
20
-3.47213
11
5.50024
21
-3.47282
0
LINE
8
BLACK
6
CONTINUOUS
10
5.50024
20
-3.47282
11
5.49955
21
-3.47311
0
LINE
8
BLACK
6
CONTINUOUS
10
5.49955
20
-3.47311
11
5.32002
21
-3.47311
0
LINE
8
BLACK
6
CONTINUOUS
10
5.32002
20
-3.47311
11
5.31932
21
-3.47282
0
LINE
8
BLACK
6
CONTINUOUS
10
5.321
20
-3.3487
11
5.321
21
-3.47114
0
LINE
8
BLACK
6
CONTINUOUS
10
5.321
20
-3.47114
11
5.49856
21
-3.47114
0
LINE
8
BLACK
6
CONTINUOUS
10
5.49856
20
-3.47114
11
5.49856
21
-3.3487
0
LINE
8
BLACK
6
CONTINUOUS
10
5.49856
20
-3.3487
11
5.321
21
-3.3487
0
LINE
8
BLACK
6
CONTINUOUS
10
6.38531
20
-3.45755
11
6.38502
21
-3.45685
0
LINE
8
BLACK
6
CONTINUOUS
10
6.38502
20
-3.45685
11
6.38502
21
-3.32299
0
LINE
8
BLACK
6
CONTINUOUS
10
6.38502
20
-3.32299
11
6.38531
21
-3.3223
0
LINE
8
BLACK
6
CONTINUOUS
10
6.38531
20
-3.3223
11
6.386
21
-3.32201
0
LINE
8
BLACK
6
CONTINUOUS
10
6.386
20
-3.32201
11
6.5238
21
-3.32201
0
LINE
8
BLACK
6
CONTINUOUS
10
6.5238
20
-3.32201
11
6.5245
21
-3.3223
0
LINE
8
BLACK
6
CONTINUOUS
10
6.5245
20
-3.3223
11
6.52478
21
-3.32299
0
LINE
8
BLACK
6
CONTINUOUS
10
6.52478
20
-3.32299
11
6.52478
21
-3.45685
0
LINE
8
BLACK
6
CONTINUOUS
10
6.52478
20
-3.45685
11
6.5245
21
-3.45755
0
LINE
8
BLACK
6
CONTINUOUS
10
6.5245
20
-3.45755
11
6.5238
21
-3.45783
0
LINE
8
BLACK
6
CONTINUOUS
10
6.5238
20
-3.45783
11
6.386
21
-3.45783
0
LINE
8
BLACK
6
CONTINUOUS
10
6.386
20
-3.45783
11
6.38531
21
-3.45755
0
LINE
8
BLACK
6
CONTINUOUS
10
6.38699
20
-3.32398
11
6.38699
21
-3.45587
0
LINE
8
BLACK
6
CONTINUOUS
10
6.38699
20
-3.45587
11
6.52281
21
-3.45587
0
LINE
8
BLACK
6
CONTINUOUS
10
6.52281
20
-3.45587
11
6.52281
21
-3.32398
0
LINE
8
BLACK
6
CONTINUOUS
10
6.52281
20
-3.32398
11
6.38699
21
-3.32398
0
LINE
8
BLACK
6
CONTINUOUS
10
5.7859
20
-3.42105
11
5.78561
21
-3.42035
0
LINE
8
BLACK
6
CONTINUOUS
10
5.78561
20
-3.42035
11
5.78561
21
-3.21169
0
LINE
8
BLACK
6
CONTINUOUS
10
5.78561
20
-3.21169
11
5.7859
21
-3.211
0
LINE
8
BLACK
6
CONTINUOUS
10
5.7859
20
-3.211
11
5.78659
21
-3.21071
0
LINE
8
BLACK
6
CONTINUOUS
10
5.78659
20
-3.21071
11
5.87321
21
-3.21071
0
LINE
8
BLACK
6
CONTINUOUS
10
5.87321
20
-3.21071
11
5.8739
21
-3.211
0
LINE
8
BLACK
6
CONTINUOUS
10
5.8739
20
-3.211
11
5.87419
21
-3.21169
0
LINE
8
BLACK
6
CONTINUOUS
10
5.87419
20
-3.21169
11
5.87419
21
-3.42035
0
LINE
8
BLACK
6
CONTINUOUS
10
5.87419
20
-3.42035
11
5.8739
21
-3.42105
0
LINE
8
BLACK
6
CONTINUOUS
10
5.8739
20
-3.42105
11
5.87321
21
-3.42134
0
LINE
8
BLACK
6
CONTINUOUS
10
5.87321
20
-3.42134
11
5.78659
21
-3.42134
0
LINE
8
BLACK
6
CONTINUOUS
10
5.78659
20
-3.42134
11
5.7859
21
-3.42105
0
LINE
8
BLACK
6
CONTINUOUS
10
5.78758
20
-3.21268
11
5.78758
21
-3.41937
0
LINE
8
BLACK
6
CONTINUOUS
10
5.78758
20
-3.41937
11
5.87222
21
-3.41937
0
LINE
8
BLACK
6
CONTINUOUS
10
5.87222
20
-3.41937
11
5.87222
21
-3.21268
0
LINE
8
BLACK
6
CONTINUOUS
10
5.87222
20
-3.21268
11
5.78758
21
-3.21268
0
LINE
8
BLACK
6
CONTINUOUS
10
5.15665
20
-3.34483
11
5.15636
21
-3.34413
0
LINE
8
BLACK
6
CONTINUOUS
10
5.15636
20
-3.34413
11
5.15636
21
-3.24571
0
LINE
8
BLACK
6
CONTINUOUS
10
5.15636
20
-3.24571
11
5.15665
21
-3.24501
0
LINE
8
BLACK
6
CONTINUOUS
10
5.15665
20
-3.24501
11
5.15734
21
-3.24472
0
LINE
8
BLACK
6
CONTINUOUS
10
5.15734
20
-3.24472
11
5.21246
21
-3.24472
0
LINE
8
BLACK
6
CONTINUOUS
10
5.21246
20
-3.24472
11
5.21316
21
-3.24501
0
LINE
8
BLACK
6
CONTINUOUS
10
5.21316
20
-3.24501
11
5.21344
21
-3.24571
0
LINE
8
BLACK
6
CONTINUOUS
10
5.21344
20
-3.24571
11
5.21344
21
-3.34413
0
LINE
8
BLACK
6
CONTINUOUS
10
5.21344
20
-3.34413
11
5.21316
21
-3.34483
0
LINE
8
BLACK
6
CONTINUOUS
10
5.21316
20
-3.34483
11
5.21246
21
-3.34512
0
LINE
8
BLACK
6
CONTINUOUS
10
5.21246
20
-3.34512
11
5.15734
21
-3.34512
0
LINE
8
BLACK
6
CONTINUOUS
10
5.15734
20
-3.34512
11
5.15665
21
-3.34483
0
LINE
8
BLACK
6
CONTINUOUS
10
5.15833
20
-3.24669
11
5.15833
21
-3.34315
0
LINE
8
BLACK
6
CONTINUOUS
10
5.15833
20
-3.34315
11
5.21148
21
-3.34315
0
LINE
8
BLACK
6
CONTINUOUS
10
5.21148
20
-3.34315
11
5.21148
21
-3.24669
0
LINE
8
BLACK
6
CONTINUOUS
10
5.21148
20
-3.24669
11
5.15833
21
-3.24669
0
LINE
8
BLACK
6
CONTINUOUS
10
6.33531
20
-3.31755
11
6.33502
21
-3.31685
0
LINE
8
BLACK
6
CONTINUOUS
10
6.33502
20
-3.31685
11
6.33502
21
-3.18299
0
LINE
8
BLACK
6
CONTINUOUS
10
6.33502
20
-3.18299
11
6.33531
21
-3.1823
0
LINE
8
BLACK
6
CONTINUOUS
10
6.33531
20
-3.1823
11
6.336
21
-3.18201
0
LINE
8
BLACK
6
CONTINUOUS
10
6.336
20
-3.18201
11
6.4738
21
-3.18201
0
LINE
8
BLACK
6
CONTINUOUS
10
6.4738
20
-3.18201
11
6.4745
21
-3.1823
0
LINE
8
BLACK
6
CONTINUOUS
10
6.4745
20
-3.1823
11
6.47478
21
-3.18299
0
LINE
8
BLACK
6
CONTINUOUS
10
6.47478
20
-3.18299
11
6.47478
21
-3.31685
0
LINE
8
BLACK
6
CONTINUOUS
10
6.47478
20
-3.31685
11
6.4745
21
-3.31755
0
LINE
8
BLACK
6
CONTINUOUS
10
6.4745
20
-3.31755
11
6.4738
21
-3.31783
0
LINE
8
BLACK
6
CONTINUOUS
10
6.4738
20
-3.31783
11
6.336
21
-3.31783
0
LINE
8
BLACK
6
CONTINUOUS
10
6.336
20
-3.31783
11
6.33531
21
-3.31755
0
LINE
8
BLACK
6
CONTINUOUS
10
6.33699
20
-3.18398
11
6.33699
21
-3.31587
0
LINE
8
BLACK
6
CONTINUOUS
10
6.33699
20
-3.31587
11
6.47281
21
-3.31587
0
LINE
8
BLACK
6
CONTINUOUS
10
6.47281
20
-3.31587
11
6.47281
21
-3.18398
0
LINE
8
BLACK
6
CONTINUOUS
10
6.47281
20
-3.18398
11
6.33699
21
-3.18398
0
LINE
8
BLACK
6
CONTINUOUS
10
5.16665
20
-3.22983
11
5.16636
21
-3.22913
0
LINE
8
BLACK
6
CONTINUOUS
10
5.16636
20
-3.22913
11
5.16636
21
-3.13071
0
LINE
8
BLACK
6
CONTINUOUS
10
5.16636
20
-3.13071
11
5.16665
21
-3.13001
0
LINE
8
BLACK
6
CONTINUOUS
10
5.16665
20
-3.13001
11
5.16734
21
-3.12972
0
LINE
8
BLACK
6
CONTINUOUS
10
5.16734
20
-3.12972
11
5.22246
21
-3.12972
0
LINE
8
BLACK
6
CONTINUOUS
10
5.22246
20
-3.12972
11
5.22316
21
-3.13001
0
LINE
8
BLACK
6
CONTINUOUS
10
5.22316
20
-3.13001
11
5.22344
21
-3.13071
0
LINE
8
BLACK
6
CONTINUOUS
10
5.22344
20
-3.13071
11
5.22344
21
-3.22913
0
LINE
8
BLACK
6
CONTINUOUS
10
5.22344
20
-3.22913
11
5.22316
21
-3.22983
0
LINE
8
BLACK
6
CONTINUOUS
10
5.22316
20
-3.22983
11
5.22246
21
-3.23012
0
LINE
8
BLACK
6
CONTINUOUS
10
5.22246
20
-3.23012
11
5.16734
21
-3.23012
0
LINE
8
BLACK
6
CONTINUOUS
10
5.16734
20
-3.23012
11
5.16665
21
-3.22983
0
LINE
8
BLACK
6
CONTINUOUS
10
5.16833
20
-3.13169
11
5.16833
21
-3.22815
0
LINE
8
BLACK
6
CONTINUOUS
10
5.16833
20
-3.22815
11
5.22148
21
-3.22815
0
LINE
8
BLACK
6
CONTINUOUS
10
5.22148
20
-3.22815
11
5.22148
21
-3.13169
0
LINE
8
BLACK
6
CONTINUOUS
10
5.22148
20
-3.13169
11
5.16833
21
-3.13169
0
LINE
8
BLACK
6
CONTINUOUS
10
5.22995
20
-3.1316
11
5.22967
21
-3.13091
0
LINE
8
BLACK
6
CONTINUOUS
10
5.22967
20
-3.13091
11
5.22967
21
-2.87894
0
LINE
8
BLACK
6
CONTINUOUS
10
5.22967
20
-2.87894
11
5.22995
21
-2.87824
0
LINE
8
BLACK
6
CONTINUOUS
10
5.22995
20
-2.87824
11
5.23065
21
-2.87795
0
LINE
8
BLACK
6
CONTINUOUS
10
5.23065
20
-2.87795
11
5.79915
21
-2.87795
0
LINE
8
BLACK
6
CONTINUOUS
10
5.79915
20
-2.87795
11
5.79985
21
-2.87824
0
LINE
8
BLACK
6
CONTINUOUS
10
5.79985
20
-2.87824
11
5.80014
21
-2.87894
0
LINE
8
BLACK
6
CONTINUOUS
10
5.80014
20
-2.87894
11
5.80014
21
-3.13091
0
LINE
8
BLACK
6
CONTINUOUS
10
5.80014
20
-3.13091
11
5.79985
21
-3.1316
0
LINE
8
BLACK
6
CONTINUOUS
10
5.79985
20
-3.1316
11
5.79915
21
-3.13189
0
LINE
8
BLACK
6
CONTINUOUS
10
5.79915
20
-3.13189
11
5.23065
21
-3.13189
0
LINE
8
BLACK
6
CONTINUOUS
10
5.23065
20
-3.13189
11
5.22995
21
-3.1316
0
LINE
8
BLACK
6
CONTINUOUS
10
5.23163
20
-2.87992
11
5.23163
21
-3.12992
0
LINE
8
BLACK
6
CONTINUOUS
10
5.23163
20
-3.12992
11
5.79817
21
-3.12992
0
LINE
8
BLACK
6
CONTINUOUS
10
5.79817
20
-3.12992
11
5.79817
21
-2.87992
0
LINE
8
BLACK
6
CONTINUOUS
10
5.79817
20
-2.87992
11
5.23163
21
-2.87992
0
LINE
8
BLACK
6
CONTINUOUS
10
5.90377
20
-3.1316
11
5.90348
21
-3.13091
0
LINE
8
BLACK
6
CONTINUOUS
10
5.90348
20
-3.13091
11
5.90348
21
-2.87894
0
LINE
8
BLACK
6
CONTINUOUS
10
5.90348
20
-2.87894
11
5.90377
21
-2.87824
0
LINE
8
BLACK
6
CONTINUOUS
10
5.90377
20
-2.87824
11
5.90447
21
-2.87795
0
LINE
8
BLACK
6
CONTINUOUS
10
5.90447
20
-2.87795
11
6.37533
21
-2.87795
0
LINE
8
BLACK
6
CONTINUOUS
10
6.37533
20
-2.87795
11
6.37603
21
-2.87824
0
LINE
8
BLACK
6
CONTINUOUS
10
6.37603
20
-2.87824
11
6.37632
21
-2.87894
0
LINE
8
BLACK
6
CONTINUOUS
10
6.37632
20
-2.87894
11
6.37632
21
-3.13091
0
LINE
8
BLACK
6
CONTINUOUS
10
6.37632
20
-3.13091
11
6.37603
21
-3.1316
0
LINE
8
BLACK
6
CONTINUOUS
10
6.37603
20
-3.1316
11
6.37533
21
-3.13189
0
LINE
8
BLACK
6
CONTINUOUS
10
6.37533
20
-3.13189
11
5.90447
21
-3.13189
0
LINE
8
BLACK
6
CONTINUOUS
10
5.90447
20
-3.13189
11
5.90377
21
-3.1316
0
LINE
8
BLACK
6
CONTINUOUS
10
5.90545
20
-2.87992
11
5.90545
21
-3.12992
0
LINE
8
BLACK
6
CONTINUOUS
10
5.90545
20
-3.12992
11
6.37435
21
-3.12992
0
LINE
8
BLACK
6
CONTINUOUS
10
6.37435
20
-3.12992
11
6.37435
21
-2.87992
0
LINE
8
BLACK
6
CONTINUOUS
10
6.37435
20
-2.87992
11
5.90545
21
-2.87992
  0
ENDSEC
  0
EOF
