  0
SECTION
  2
HEADER
  9
$ANGBASE
  50
0.0
  9
$ANGDIR
  70
1
  9
$MEASUREMENT
  70
0
  0
ENDSEC
  0
SECTION
  2
TABLES
  0
TABLE
  2
LTYPE
  70
4
  0
LTYPE
  5
40F
  2
CONTINUOUS
  70
0
  3
Solid line
  72
65
  73
0
  40
0.0
  0
LTYPE
  5
410
  2
DASHDOT
 70
0
  3
Dash Dot ____ _ ____ _
 72
65
 73
4
 40
2.0
 49
1.25
 49
-0.25
 49
0.25
 49
-0.25
  0
LTYPE
  5
411
  2
DASHED
 70
0
  3
Dashed __ __ __ __ __
 72
65
 73
2
 40
0.75
 49
0.5
 49
-0.25
  0
LTYPE
  5
43B
  2
DOTTED
 70
0
  3
Dotted .  .  .  .
 72
65
 73
2
 40
0.2
 49
0.0
 49
-0.2
  0
ENDTAB
  0
TABLE
  2
STYLE
  70
4
  0
STYLE
  2
KICAD
  70
0
  40
0
  41
1
  42
1
  50
0
  71
0
  3
isocp.shx
  0
STYLE
  2
KICADB
  70
0
  40
0
  41
1
  42
1
  50
0
  71
0
  3
isocp.shx
  0
STYLE
  2
KICADI
  70
0
  40
0
  41
1
  42
1
  50
15
  71
0
  3
isocp.shx
  0
STYLE
  2
KICADBI
  70
0
  40
0
  41
1
  42
1
  50
15
  71
0
  3
isocp.shx
  0
ENDTAB
  0
TABLE
  2
LAYER
  70
1
  0
LAYER
  2
BLACK
  70
0
  62
7
  6
CONTINUOUS
  0
ENDTAB
  0
ENDSEC
  0
SECTION
  2
ENTITIES
0
LINE
8
BLACK
6
CONTINUOUS
10
5.12556
20
-4.55332
11
5.12498
21
-4.55193
0
LINE
8
BLACK
6
CONTINUOUS
10
5.12498
20
-4.55193
11
5.12498
21
-3.17398
0
LINE
8
BLACK
6
CONTINUOUS
10
5.12498
20
-3.17398
11
5.12556
21
-3.17258
0
LINE
8
BLACK
6
CONTINUOUS
10
5.12556
20
-3.17258
11
5.12695
21
-3.17201
0
LINE
8
BLACK
6
CONTINUOUS
10
5.12695
20
-3.17201
11
6.5049
21
-3.17201
0
LINE
8
BLACK
6
CONTINUOUS
10
6.5049
20
-3.17201
11
6.50629
21
-3.17258
0
LINE
8
BLACK
6
CONTINUOUS
10
6.50629
20
-3.17258
11
6.50687
21
-3.17398
0
LINE
8
BLACK
6
CONTINUOUS
10
6.50687
20
-3.17398
11
6.50687
21
-4.55193
0
LINE
8
BLACK
6
CONTINUOUS
10
6.50687
20
-4.55193
11
6.50629
21
-4.55332
0
LINE
8
BLACK
6
CONTINUOUS
10
6.50629
20
-4.55332
11
6.5049
21
-4.5539
0
LINE
8
BLACK
6
CONTINUOUS
10
6.5049
20
-4.5539
11
5.12695
21
-4.5539
0
LINE
8
BLACK
6
CONTINUOUS
10
5.12695
20
-4.5539
11
5.12556
21
-4.55332
0
LINE
8
BLACK
6
CONTINUOUS
10
5.12892
20
-3.17594
11
5.12892
21
-4.54996
0
LINE
8
BLACK
6
CONTINUOUS
10
5.12892
20
-4.54996
11
6.50293
21
-4.54996
0
LINE
8
BLACK
6
CONTINUOUS
10
6.50293
20
-4.54996
11
6.50293
21
-3.17594
0
LINE
8
BLACK
6
CONTINUOUS
10
6.50293
20
-3.17594
11
5.12892
21
-3.17594
0
LINE
8
BLACK
6
CONTINUOUS
10
5.99269
20
-3.44263
11
5.99394
21
-3.44421
0
LINE
8
BLACK
6
CONTINUOUS
10
5.99394
20
-3.44421
11
5.99702
21
-3.45344
0
LINE
8
BLACK
6
CONTINUOUS
10
5.99702
20
-3.45344
11
6.01151
21
-3.45344
0
LINE
8
BLACK
6
CONTINUOUS
10
6.01151
20
-3.45344
11
6.01459
21
-3.44421
0
LINE
8
BLACK
6
CONTINUOUS
10
6.01459
20
-3.44421
11
6.01507
21
-3.44331
0
LINE
8
BLACK
6
CONTINUOUS
10
6.01507
20
-3.44331
11
6.0168
21
-3.44225
0
LINE
8
BLACK
6
CONTINUOUS
10
6.0168
20
-3.44225
11
6.01879
21
-3.44255
0
LINE
8
BLACK
6
CONTINUOUS
10
6.01879
20
-3.44255
11
6.02013
21
-3.44406
0
LINE
8
BLACK
6
CONTINUOUS
10
6.02013
20
-3.44406
11
6.02019
21
-3.44608
0
LINE
8
BLACK
6
CONTINUOUS
10
6.02019
20
-3.44608
11
6.00707
21
-3.48545
0
LINE
8
BLACK
6
CONTINUOUS
10
6.00707
20
-3.48545
11
6.00658
21
-3.48635
0
LINE
8
BLACK
6
CONTINUOUS
10
6.00658
20
-3.48635
11
6.0065
21
-3.48639
0
LINE
8
BLACK
6
CONTINUOUS
10
6.0065
20
-3.48639
11
6.00647
21
-3.48647
0
LINE
8
BLACK
6
CONTINUOUS
10
6.00647
20
-3.48647
11
6.00565
21
-3.48692
0
LINE
8
BLACK
6
CONTINUOUS
10
6.00565
20
-3.48692
11
6.00486
21
-3.48741
0
LINE
8
BLACK
6
CONTINUOUS
10
6.00486
20
-3.48741
11
6.00477
21
-3.48739
0
LINE
8
BLACK
6
CONTINUOUS
10
6.00477
20
-3.48739
11
6.0047
21
-3.48743
0
LINE
8
BLACK
6
CONTINUOUS
10
6.0047
20
-3.48743
11
6.00378
21
-3.48725
0
LINE
8
BLACK
6
CONTINUOUS
10
6.00378
20
-3.48725
11
6.00286
21
-3.48711
0
LINE
8
BLACK
6
CONTINUOUS
10
6.00286
20
-3.48711
11
6.0028
21
-3.48705
0
LINE
8
BLACK
6
CONTINUOUS
10
6.0028
20
-3.48705
11
6.00272
21
-3.48703
0
LINE
8
BLACK
6
CONTINUOUS
10
6.00272
20
-3.48703
11
6.00214
21
-3.4863
0
LINE
8
BLACK
6
CONTINUOUS
10
6.00214
20
-3.4863
11
6.00152
21
-3.4856
0
LINE
8
BLACK
6
CONTINUOUS
10
6.00152
20
-3.4856
11
6.00152
21
-3.48551
0
LINE
8
BLACK
6
CONTINUOUS
10
6.00152
20
-3.48551
11
6.00146
21
-3.48545
0
LINE
8
BLACK
6
CONTINUOUS
10
6.00146
20
-3.48545
11
5.98834
21
-3.44608
0
LINE
8
BLACK
6
CONTINUOUS
10
5.98834
20
-3.44608
11
5.98819
21
-3.44506
0
LINE
8
BLACK
6
CONTINUOUS
10
5.98819
20
-3.44506
11
5.98893
21
-3.44318
0
LINE
8
BLACK
6
CONTINUOUS
10
5.98893
20
-3.44318
11
5.99071
21
-3.44222
0
LINE
8
BLACK
6
CONTINUOUS
10
5.99071
20
-3.44222
11
5.99269
21
-3.44263
0
LINE
8
BLACK
6
CONTINUOUS
10
5.99899
20
-3.45934
11
6.00426
21
-3.47518
0
LINE
8
BLACK
6
CONTINUOUS
10
6.00426
20
-3.47518
11
6.00954
21
-3.45934
0
LINE
8
BLACK
6
CONTINUOUS
10
6.00954
20
-3.45934
11
5.99899
21
-3.45934
0
LINE
8
BLACK
6
CONTINUOUS
10
5.93778
20
-3.44237
11
5.93792
21
-3.44248
0
LINE
8
BLACK
6
CONTINUOUS
10
5.93792
20
-3.44248
11
5.93809
21
-3.4425
0
LINE
8
BLACK
6
CONTINUOUS
10
5.93809
20
-3.4425
11
5.94184
21
-3.44438
0
LINE
8
BLACK
6
CONTINUOUS
10
5.94184
20
-3.44438
11
5.94267
21
-3.44499
0
LINE
8
BLACK
6
CONTINUOUS
10
5.94267
20
-3.44499
11
5.94284
21
-3.44539
0
LINE
8
BLACK
6
CONTINUOUS
10
5.94284
20
-3.44539
11
5.94316
21
-3.4457
0
LINE
8
BLACK
6
CONTINUOUS
10
5.94316
20
-3.4457
11
5.94504
21
-3.44945
0
LINE
8
BLACK
6
CONTINUOUS
10
5.94504
20
-3.44945
11
5.94533
21
-3.45043
0
LINE
8
BLACK
6
CONTINUOUS
10
5.94533
20
-3.45043
11
5.94529
21
-3.4506
0
LINE
8
BLACK
6
CONTINUOUS
10
5.94529
20
-3.4506
11
5.94535
21
-3.45077
0
LINE
8
BLACK
6
CONTINUOUS
10
5.94535
20
-3.45077
11
5.94535
21
-3.46844
0
LINE
8
BLACK
6
CONTINUOUS
10
5.94535
20
-3.46844
11
5.94802
21
-3.46844
0
LINE
8
BLACK
6
CONTINUOUS
10
5.94802
20
-3.46844
11
5.94903
21
-3.46861
0
LINE
8
BLACK
6
CONTINUOUS
10
5.94903
20
-3.46861
11
5.95058
21
-3.46991
0
LINE
8
BLACK
6
CONTINUOUS
10
5.95058
20
-3.46991
11
5.95093
21
-3.4719
0
LINE
8
BLACK
6
CONTINUOUS
10
5.95093
20
-3.4719
11
5.94992
21
-3.47365
0
LINE
8
BLACK
6
CONTINUOUS
10
5.94992
20
-3.47365
11
5.94802
21
-3.47434
0
LINE
8
BLACK
6
CONTINUOUS
10
5.94802
20
-3.47434
11
5.94535
21
-3.47434
0
LINE
8
BLACK
6
CONTINUOUS
10
5.94535
20
-3.47434
11
5.94535
21
-3.48451
0
LINE
8
BLACK
6
CONTINUOUS
10
5.94535
20
-3.48451
11
5.94517
21
-3.48552
0
LINE
8
BLACK
6
CONTINUOUS
10
5.94517
20
-3.48552
11
5.94387
21
-3.48707
0
LINE
8
BLACK
6
CONTINUOUS
10
5.94387
20
-3.48707
11
5.94188
21
-3.48742
0
LINE
8
BLACK
6
CONTINUOUS
10
5.94188
20
-3.48742
11
5.94013
21
-3.48641
0
LINE
8
BLACK
6
CONTINUOUS
10
5.94013
20
-3.48641
11
5.93944
21
-3.48451
0
LINE
8
BLACK
6
CONTINUOUS
10
5.93944
20
-3.48451
11
5.93944
21
-3.47434
0
LINE
8
BLACK
6
CONTINUOUS
10
5.93944
20
-3.47434
11
5.93302
21
-3.47434
0
LINE
8
BLACK
6
CONTINUOUS
10
5.93302
20
-3.47434
11
5.93201
21
-3.47416
0
LINE
8
BLACK
6
CONTINUOUS
10
5.93201
20
-3.47416
11
5.93047
21
-3.47287
0
LINE
8
BLACK
6
CONTINUOUS
10
5.93047
20
-3.47287
11
5.93012
21
-3.47088
0
LINE
8
BLACK
6
CONTINUOUS
10
5.93012
20
-3.47088
11
5.93113
21
-3.46913
0
LINE
8
BLACK
6
CONTINUOUS
10
5.93113
20
-3.46913
11
5.93302
21
-3.46844
0
LINE
8
BLACK
6
CONTINUOUS
10
5.93302
20
-3.46844
11
5.93944
21
-3.46844
0
LINE
8
BLACK
6
CONTINUOUS
10
5.93944
20
-3.46844
11
5.93944
21
-3.45146
0
LINE
8
BLACK
6
CONTINUOUS
10
5.93944
20
-3.45146
11
5.93832
21
-3.44922
0
LINE
8
BLACK
6
CONTINUOUS
10
5.93832
20
-3.44922
11
5.93608
21
-3.4481
0
LINE
8
BLACK
6
CONTINUOUS
10
5.93608
20
-3.4481
11
5.93302
21
-3.4481
0
LINE
8
BLACK
6
CONTINUOUS
10
5.93302
20
-3.4481
11
5.93201
21
-3.44792
0
LINE
8
BLACK
6
CONTINUOUS
10
5.93201
20
-3.44792
11
5.93047
21
-3.44662
0
LINE
8
BLACK
6
CONTINUOUS
10
5.93047
20
-3.44662
11
5.93012
21
-3.44463
0
LINE
8
BLACK
6
CONTINUOUS
10
5.93012
20
-3.44463
11
5.93113
21
-3.44288
0
LINE
8
BLACK
6
CONTINUOUS
10
5.93113
20
-3.44288
11
5.93302
21
-3.44219
0
LINE
8
BLACK
6
CONTINUOUS
10
5.93302
20
-3.44219
11
5.93677
21
-3.44219
0
LINE
8
BLACK
6
CONTINUOUS
10
5.93677
20
-3.44219
11
5.93778
21
-3.44237
0
LINE
8
BLACK
6
CONTINUOUS
10
5.98028
20
-3.44324
11
5.98097
21
-3.44514
0
LINE
8
BLACK
6
CONTINUOUS
10
5.98097
20
-3.44514
11
5.98097
21
-3.47139
0
LINE
8
BLACK
6
CONTINUOUS
10
5.98097
20
-3.47139
11
5.98079
21
-3.4724
0
LINE
8
BLACK
6
CONTINUOUS
10
5.98079
20
-3.4724
11
5.97949
21
-3.47395
0
LINE
8
BLACK
6
CONTINUOUS
10
5.97949
20
-3.47395
11
5.9775
21
-3.4743
0
LINE
8
BLACK
6
CONTINUOUS
10
5.9775
20
-3.4743
11
5.97576
21
-3.47329
0
LINE
8
BLACK
6
CONTINUOUS
10
5.97576
20
-3.47329
11
5.97567
21
-3.47305
0
LINE
8
BLACK
6
CONTINUOUS
10
5.97567
20
-3.47305
11
5.97371
21
-3.47403
0
LINE
8
BLACK
6
CONTINUOUS
10
5.97371
20
-3.47403
11
5.97273
21
-3.47432
0
LINE
8
BLACK
6
CONTINUOUS
10
5.97273
20
-3.47432
11
5.97256
21
-3.47428
0
LINE
8
BLACK
6
CONTINUOUS
10
5.97256
20
-3.47428
11
5.97239
21
-3.47434
0
LINE
8
BLACK
6
CONTINUOUS
10
5.97239
20
-3.47434
11
5.96677
21
-3.47434
0
LINE
8
BLACK
6
CONTINUOUS
10
5.96677
20
-3.47434
11
5.96576
21
-3.47416
0
LINE
8
BLACK
6
CONTINUOUS
10
5.96576
20
-3.47416
11
5.96562
21
-3.47405
0
LINE
8
BLACK
6
CONTINUOUS
10
5.96562
20
-3.47405
11
5.96545
21
-3.47403
0
LINE
8
BLACK
6
CONTINUOUS
10
5.96545
20
-3.47403
11
5.9617
21
-3.47216
0
LINE
8
BLACK
6
CONTINUOUS
10
5.9617
20
-3.47216
11
5.96088
21
-3.47154
0
LINE
8
BLACK
6
CONTINUOUS
10
5.96088
20
-3.47154
11
5.9607
21
-3.47114
0
LINE
8
BLACK
6
CONTINUOUS
10
5.9607
20
-3.47114
11
5.96038
21
-3.47083
0
LINE
8
BLACK
6
CONTINUOUS
10
5.96038
20
-3.47083
11
5.9585
21
-3.46709
0
LINE
8
BLACK
6
CONTINUOUS
10
5.9585
20
-3.46709
11
5.95821
21
-3.4661
0
LINE
8
BLACK
6
CONTINUOUS
10
5.95821
20
-3.4661
11
5.95825
21
-3.46593
0
LINE
8
BLACK
6
CONTINUOUS
10
5.95825
20
-3.46593
11
5.95819
21
-3.46576
0
LINE
8
BLACK
6
CONTINUOUS
10
5.95819
20
-3.46576
11
5.95819
21
-3.44514
0
LINE
8
BLACK
6
CONTINUOUS
10
5.95819
20
-3.44514
11
5.95837
21
-3.44413
0
LINE
8
BLACK
6
CONTINUOUS
10
5.95837
20
-3.44413
11
5.95967
21
-3.44259
0
LINE
8
BLACK
6
CONTINUOUS
10
5.95967
20
-3.44259
11
5.96166
21
-3.44223
0
LINE
8
BLACK
6
CONTINUOUS
10
5.96166
20
-3.44223
11
5.96341
21
-3.44324
0
LINE
8
BLACK
6
CONTINUOUS
10
5.96341
20
-3.44324
11
5.9641
21
-3.44514
0
LINE
8
BLACK
6
CONTINUOUS
10
5.9641
20
-3.44514
11
5.9641
21
-3.46507
0
LINE
8
BLACK
6
CONTINUOUS
10
5.9641
20
-3.46507
11
5.96522
21
-3.46731
0
LINE
8
BLACK
6
CONTINUOUS
10
5.96522
20
-3.46731
11
5.96747
21
-3.46844
0
LINE
8
BLACK
6
CONTINUOUS
10
5.96747
20
-3.46844
11
5.9717
21
-3.46844
0
LINE
8
BLACK
6
CONTINUOUS
10
5.9717
20
-3.46844
11
5.97439
21
-3.46709
0
LINE
8
BLACK
6
CONTINUOUS
10
5.97439
20
-3.46709
11
5.97506
21
-3.46642
0
LINE
8
BLACK
6
CONTINUOUS
10
5.97506
20
-3.46642
11
5.97506
21
-3.44514
0
LINE
8
BLACK
6
CONTINUOUS
10
5.97506
20
-3.44514
11
5.97524
21
-3.44413
0
LINE
8
BLACK
6
CONTINUOUS
10
5.97524
20
-3.44413
11
5.97654
21
-3.44259
0
LINE
8
BLACK
6
CONTINUOUS
10
5.97654
20
-3.44259
11
5.97853
21
-3.44223
0
LINE
8
BLACK
6
CONTINUOUS
10
5.97853
20
-3.44223
11
5.98028
21
-3.44324
0
LINE
8
BLACK
6
CONTINUOUS
10
5.81217
20
-3.44237
11
5.81231
21
-3.44248
0
LINE
8
BLACK
6
CONTINUOUS
10
5.81231
20
-3.44248
11
5.81248
21
-3.4425
0
LINE
8
BLACK
6
CONTINUOUS
10
5.81248
20
-3.4425
11
5.81623
21
-3.44438
0
LINE
8
BLACK
6
CONTINUOUS
10
5.81623
20
-3.44438
11
5.81706
21
-3.44499
0
LINE
8
BLACK
6
CONTINUOUS
10
5.81706
20
-3.44499
11
5.81723
21
-3.44539
0
LINE
8
BLACK
6
CONTINUOUS
10
5.81723
20
-3.44539
11
5.81755
21
-3.4457
0
LINE
8
BLACK
6
CONTINUOUS
10
5.81755
20
-3.4457
11
5.81943
21
-3.44945
0
LINE
8
BLACK
6
CONTINUOUS
10
5.81943
20
-3.44945
11
5.81972
21
-3.45043
0
LINE
8
BLACK
6
CONTINUOUS
10
5.81972
20
-3.45043
11
5.81968
21
-3.4506
0
LINE
8
BLACK
6
CONTINUOUS
10
5.81968
20
-3.4506
11
5.81974
21
-3.45077
0
LINE
8
BLACK
6
CONTINUOUS
10
5.81974
20
-3.45077
11
5.81974
21
-3.45452
0
LINE
8
BLACK
6
CONTINUOUS
10
5.81974
20
-3.45452
11
5.81956
21
-3.45553
0
LINE
8
BLACK
6
CONTINUOUS
10
5.81956
20
-3.45553
11
5.81945
21
-3.45566
0
LINE
8
BLACK
6
CONTINUOUS
10
5.81945
20
-3.45566
11
5.81943
21
-3.45584
0
LINE
8
BLACK
6
CONTINUOUS
10
5.81943
20
-3.45584
11
5.81755
21
-3.45959
0
LINE
8
BLACK
6
CONTINUOUS
10
5.81755
20
-3.45959
11
5.81694
21
-3.46041
0
LINE
8
BLACK
6
CONTINUOUS
10
5.81694
20
-3.46041
11
5.81654
21
-3.46059
0
LINE
8
BLACK
6
CONTINUOUS
10
5.81654
20
-3.46059
11
5.81623
21
-3.46091
0
LINE
8
BLACK
6
CONTINUOUS
10
5.81623
20
-3.46091
11
5.81248
21
-3.46278
0
LINE
8
BLACK
6
CONTINUOUS
10
5.81248
20
-3.46278
11
5.8115
21
-3.46307
0
LINE
8
BLACK
6
CONTINUOUS
10
5.8115
20
-3.46307
11
5.81133
21
-3.46303
0
LINE
8
BLACK
6
CONTINUOUS
10
5.81133
20
-3.46303
11
5.81116
21
-3.46309
0
LINE
8
BLACK
6
CONTINUOUS
10
5.81116
20
-3.46309
11
5.80249
21
-3.46309
0
LINE
8
BLACK
6
CONTINUOUS
10
5.80249
20
-3.46309
11
5.80099
21
-3.46384
0
LINE
8
BLACK
6
CONTINUOUS
10
5.80099
20
-3.46384
11
5.80099
21
-3.46507
0
LINE
8
BLACK
6
CONTINUOUS
10
5.80099
20
-3.46507
11
5.80212
21
-3.46731
0
LINE
8
BLACK
6
CONTINUOUS
10
5.80212
20
-3.46731
11
5.80436
21
-3.46844
0
LINE
8
BLACK
6
CONTINUOUS
10
5.80436
20
-3.46844
11
5.81047
21
-3.46844
0
LINE
8
BLACK
6
CONTINUOUS
10
5.81047
20
-3.46844
11
5.81359
21
-3.46687
0
LINE
8
BLACK
6
CONTINUOUS
10
5.81359
20
-3.46687
11
5.81458
21
-3.46658
0
LINE
8
BLACK
6
CONTINUOUS
10
5.81458
20
-3.46658
11
5.81654
21
-3.46705
0
LINE
8
BLACK
6
CONTINUOUS
10
5.81654
20
-3.46705
11
5.81774
21
-3.46867
0
LINE
8
BLACK
6
CONTINUOUS
10
5.81774
20
-3.46867
11
5.81762
21
-3.47069
0
LINE
8
BLACK
6
CONTINUOUS
10
5.81762
20
-3.47069
11
5.81623
21
-3.47216
0
LINE
8
BLACK
6
CONTINUOUS
10
5.81623
20
-3.47216
11
5.81248
21
-3.47403
0
LINE
8
BLACK
6
CONTINUOUS
10
5.81248
20
-3.47403
11
5.8115
21
-3.47432
0
LINE
8
BLACK
6
CONTINUOUS
10
5.8115
20
-3.47432
11
5.81133
21
-3.47428
0
LINE
8
BLACK
6
CONTINUOUS
10
5.81133
20
-3.47428
11
5.81116
21
-3.47434
0
LINE
8
BLACK
6
CONTINUOUS
10
5.81116
20
-3.47434
11
5.80366
21
-3.47434
0
LINE
8
BLACK
6
CONTINUOUS
10
5.80366
20
-3.47434
11
5.80265
21
-3.47416
0
LINE
8
BLACK
6
CONTINUOUS
10
5.80265
20
-3.47416
11
5.80252
21
-3.47405
0
LINE
8
BLACK
6
CONTINUOUS
10
5.80252
20
-3.47405
11
5.80234
21
-3.47403
0
LINE
8
BLACK
6
CONTINUOUS
10
5.80234
20
-3.47403
11
5.79859
21
-3.47216
0
LINE
8
BLACK
6
CONTINUOUS
10
5.79859
20
-3.47216
11
5.79777
21
-3.47154
0
LINE
8
BLACK
6
CONTINUOUS
10
5.79777
20
-3.47154
11
5.79759
21
-3.47114
0
LINE
8
BLACK
6
CONTINUOUS
10
5.79759
20
-3.47114
11
5.79727
21
-3.47083
0
LINE
8
BLACK
6
CONTINUOUS
10
5.79727
20
-3.47083
11
5.7954
21
-3.46709
0
LINE
8
BLACK
6
CONTINUOUS
10
5.7954
20
-3.46709
11
5.79511
21
-3.4661
0
LINE
8
BLACK
6
CONTINUOUS
10
5.79511
20
-3.4661
11
5.79515
21
-3.46593
0
LINE
8
BLACK
6
CONTINUOUS
10
5.79515
20
-3.46593
11
5.79509
21
-3.46576
0
LINE
8
BLACK
6
CONTINUOUS
10
5.79509
20
-3.46576
11
5.79509
21
-3.44514
0
LINE
8
BLACK
6
CONTINUOUS
10
5.79509
20
-3.44514
11
5.79527
21
-3.44413
0
LINE
8
BLACK
6
CONTINUOUS
10
5.79527
20
-3.44413
11
5.79656
21
-3.44259
0
LINE
8
BLACK
6
CONTINUOUS
10
5.79656
20
-3.44259
11
5.79855
21
-3.44223
0
LINE
8
BLACK
6
CONTINUOUS
10
5.79855
20
-3.44223
11
5.79969
21
-3.44289
0
LINE
8
BLACK
6
CONTINUOUS
10
5.79969
20
-3.44289
11
5.80047
21
-3.4425
0
LINE
8
BLACK
6
CONTINUOUS
10
5.80047
20
-3.4425
11
5.80145
21
-3.44221
0
LINE
8
BLACK
6
CONTINUOUS
10
5.80145
20
-3.44221
11
5.80162
21
-3.44225
0
LINE
8
BLACK
6
CONTINUOUS
10
5.80162
20
-3.44225
11
5.80179
21
-3.44219
0
LINE
8
BLACK
6
CONTINUOUS
10
5.80179
20
-3.44219
11
5.81116
21
-3.44219
0
LINE
8
BLACK
6
CONTINUOUS
10
5.81116
20
-3.44219
11
5.81217
21
-3.44237
0
LINE
8
BLACK
6
CONTINUOUS
10
5.80249
20
-3.4481
11
5.80099
21
-3.44884
0
LINE
8
BLACK
6
CONTINUOUS
10
5.80099
20
-3.44884
11
5.80099
21
-3.45734
0
LINE
8
BLACK
6
CONTINUOUS
10
5.80099
20
-3.45734
11
5.80145
21
-3.45721
0
LINE
8
BLACK
6
CONTINUOUS
10
5.80145
20
-3.45721
11
5.80162
21
-3.45725
0
LINE
8
BLACK
6
CONTINUOUS
10
5.80162
20
-3.45725
11
5.80179
21
-3.45719
0
LINE
8
BLACK
6
CONTINUOUS
10
5.80179
20
-3.45719
11
5.81047
21
-3.45719
0
LINE
8
BLACK
6
CONTINUOUS
10
5.81047
20
-3.45719
11
5.81271
21
-3.45606
0
LINE
8
BLACK
6
CONTINUOUS
10
5.81271
20
-3.45606
11
5.81383
21
-3.45382
0
LINE
8
BLACK
6
CONTINUOUS
10
5.81383
20
-3.45382
11
5.81383
21
-3.45146
0
LINE
8
BLACK
6
CONTINUOUS
10
5.81383
20
-3.45146
11
5.81271
21
-3.44922
0
LINE
8
BLACK
6
CONTINUOUS
10
5.81271
20
-3.44922
11
5.81047
21
-3.4481
0
LINE
8
BLACK
6
CONTINUOUS
10
5.81047
20
-3.4481
11
5.80249
21
-3.4481
0
LINE
8
BLACK
6
CONTINUOUS
10
5.8528
20
-3.44324
11
5.85349
21
-3.44514
0
LINE
8
BLACK
6
CONTINUOUS
10
5.85349
20
-3.44514
11
5.85349
21
-3.47139
0
LINE
8
BLACK
6
CONTINUOUS
10
5.85349
20
-3.47139
11
5.85331
21
-3.4724
0
LINE
8
BLACK
6
CONTINUOUS
10
5.85331
20
-3.4724
11
5.85201
21
-3.47395
0
LINE
8
BLACK
6
CONTINUOUS
10
5.85201
20
-3.47395
11
5.85002
21
-3.4743
0
LINE
8
BLACK
6
CONTINUOUS
10
5.85002
20
-3.4743
11
5.84827
21
-3.47329
0
LINE
8
BLACK
6
CONTINUOUS
10
5.84827
20
-3.47329
11
5.84819
21
-3.47305
0
LINE
8
BLACK
6
CONTINUOUS
10
5.84819
20
-3.47305
11
5.84623
21
-3.47403
0
LINE
8
BLACK
6
CONTINUOUS
10
5.84623
20
-3.47403
11
5.84525
21
-3.47432
0
LINE
8
BLACK
6
CONTINUOUS
10
5.84525
20
-3.47432
11
5.84507
21
-3.47428
0
LINE
8
BLACK
6
CONTINUOUS
10
5.84507
20
-3.47428
11
5.84491
21
-3.47434
0
LINE
8
BLACK
6
CONTINUOUS
10
5.84491
20
-3.47434
11
5.83928
21
-3.47434
0
LINE
8
BLACK
6
CONTINUOUS
10
5.83928
20
-3.47434
11
5.83827
21
-3.47416
0
LINE
8
BLACK
6
CONTINUOUS
10
5.83827
20
-3.47416
11
5.83814
21
-3.47405
0
LINE
8
BLACK
6
CONTINUOUS
10
5.83814
20
-3.47405
11
5.83796
21
-3.47403
0
LINE
8
BLACK
6
CONTINUOUS
10
5.83796
20
-3.47403
11
5.83421
21
-3.47216
0
LINE
8
BLACK
6
CONTINUOUS
10
5.83421
20
-3.47216
11
5.83339
21
-3.47154
0
LINE
8
BLACK
6
CONTINUOUS
10
5.83339
20
-3.47154
11
5.83322
21
-3.47114
0
LINE
8
BLACK
6
CONTINUOUS
10
5.83322
20
-3.47114
11
5.83289
21
-3.47083
0
LINE
8
BLACK
6
CONTINUOUS
10
5.83289
20
-3.47083
11
5.83102
21
-3.46709
0
LINE
8
BLACK
6
CONTINUOUS
10
5.83102
20
-3.46709
11
5.83073
21
-3.4661
0
LINE
8
BLACK
6
CONTINUOUS
10
5.83073
20
-3.4661
11
5.83077
21
-3.46593
0
LINE
8
BLACK
6
CONTINUOUS
10
5.83077
20
-3.46593
11
5.83071
21
-3.46576
0
LINE
8
BLACK
6
CONTINUOUS
10
5.83071
20
-3.46576
11
5.83071
21
-3.44514
0
LINE
8
BLACK
6
CONTINUOUS
10
5.83071
20
-3.44514
11
5.83089
21
-3.44413
0
LINE
8
BLACK
6
CONTINUOUS
10
5.83089
20
-3.44413
11
5.83218
21
-3.44259
0
LINE
8
BLACK
6
CONTINUOUS
10
5.83218
20
-3.44259
11
5.83417
21
-3.44223
0
LINE
8
BLACK
6
CONTINUOUS
10
5.83417
20
-3.44223
11
5.83592
21
-3.44324
0
LINE
8
BLACK
6
CONTINUOUS
10
5.83592
20
-3.44324
11
5.83661
21
-3.44514
0
LINE
8
BLACK
6
CONTINUOUS
10
5.83661
20
-3.44514
11
5.83661
21
-3.46507
0
LINE
8
BLACK
6
CONTINUOUS
10
5.83661
20
-3.46507
11
5.83774
21
-3.46731
0
LINE
8
BLACK
6
CONTINUOUS
10
5.83774
20
-3.46731
11
5.83998
21
-3.46844
0
LINE
8
BLACK
6
CONTINUOUS
10
5.83998
20
-3.46844
11
5.84421
21
-3.46844
0
LINE
8
BLACK
6
CONTINUOUS
10
5.84421
20
-3.46844
11
5.84691
21
-3.46709
0
LINE
8
BLACK
6
CONTINUOUS
10
5.84691
20
-3.46709
11
5.84758
21
-3.46642
0
LINE
8
BLACK
6
CONTINUOUS
10
5.84758
20
-3.46642
11
5.84758
21
-3.44514
0
LINE
8
BLACK
6
CONTINUOUS
10
5.84758
20
-3.44514
11
5.84776
21
-3.44413
0
LINE
8
BLACK
6
CONTINUOUS
10
5.84776
20
-3.44413
11
5.84906
21
-3.44259
0
LINE
8
BLACK
6
CONTINUOUS
10
5.84906
20
-3.44259
11
5.85105
21
-3.44223
0
LINE
8
BLACK
6
CONTINUOUS
10
5.85105
20
-3.44223
11
5.8528
21
-3.44324
0
LINE
8
BLACK
6
CONTINUOUS
10
5.88842
20
-3.44324
11
5.88911
21
-3.44514
0
LINE
8
BLACK
6
CONTINUOUS
10
5.88911
20
-3.44514
11
5.88911
21
-3.47139
0
LINE
8
BLACK
6
CONTINUOUS
10
5.88911
20
-3.47139
11
5.88893
21
-3.4724
0
LINE
8
BLACK
6
CONTINUOUS
10
5.88893
20
-3.4724
11
5.88763
21
-3.47395
0
LINE
8
BLACK
6
CONTINUOUS
10
5.88763
20
-3.47395
11
5.88564
21
-3.4743
0
LINE
8
BLACK
6
CONTINUOUS
10
5.88564
20
-3.4743
11
5.88389
21
-3.47329
0
LINE
8
BLACK
6
CONTINUOUS
10
5.88389
20
-3.47329
11
5.88381
21
-3.47305
0
LINE
8
BLACK
6
CONTINUOUS
10
5.88381
20
-3.47305
11
5.88185
21
-3.47403
0
LINE
8
BLACK
6
CONTINUOUS
10
5.88185
20
-3.47403
11
5.88087
21
-3.47432
0
LINE
8
BLACK
6
CONTINUOUS
10
5.88087
20
-3.47432
11
5.8807
21
-3.47428
0
LINE
8
BLACK
6
CONTINUOUS
10
5.8807
20
-3.47428
11
5.88053
21
-3.47434
0
LINE
8
BLACK
6
CONTINUOUS
10
5.88053
20
-3.47434
11
5.87491
21
-3.47434
0
LINE
8
BLACK
6
CONTINUOUS
10
5.87491
20
-3.47434
11
5.8739
21
-3.47416
0
LINE
8
BLACK
6
CONTINUOUS
10
5.8739
20
-3.47416
11
5.87376
21
-3.47405
0
LINE
8
BLACK
6
CONTINUOUS
10
5.87376
20
-3.47405
11
5.87358
21
-3.47403
0
LINE
8
BLACK
6
CONTINUOUS
10
5.87358
20
-3.47403
11
5.86984
21
-3.47216
0
LINE
8
BLACK
6
CONTINUOUS
10
5.86984
20
-3.47216
11
5.86901
21
-3.47154
0
LINE
8
BLACK
6
CONTINUOUS
10
5.86901
20
-3.47154
11
5.86884
21
-3.47114
0
LINE
8
BLACK
6
CONTINUOUS
10
5.86884
20
-3.47114
11
5.86851
21
-3.47083
0
LINE
8
BLACK
6
CONTINUOUS
10
5.86851
20
-3.47083
11
5.86664
21
-3.46709
0
LINE
8
BLACK
6
CONTINUOUS
10
5.86664
20
-3.46709
11
5.86635
21
-3.4661
0
LINE
8
BLACK
6
CONTINUOUS
10
5.86635
20
-3.4661
11
5.86639
21
-3.46593
0
LINE
8
BLACK
6
CONTINUOUS
10
5.86639
20
-3.46593
11
5.86633
21
-3.46576
0
LINE
8
BLACK
6
CONTINUOUS
10
5.86633
20
-3.46576
11
5.86633
21
-3.44514
0
LINE
8
BLACK
6
CONTINUOUS
10
5.86633
20
-3.44514
11
5.86651
21
-3.44413
0
LINE
8
BLACK
6
CONTINUOUS
10
5.86651
20
-3.44413
11
5.8678
21
-3.44259
0
LINE
8
BLACK
6
CONTINUOUS
10
5.8678
20
-3.44259
11
5.86979
21
-3.44223
0
LINE
8
BLACK
6
CONTINUOUS
10
5.86979
20
-3.44223
11
5.87154
21
-3.44324
0
LINE
8
BLACK
6
CONTINUOUS
10
5.87154
20
-3.44324
11
5.87223
21
-3.44514
0
LINE
8
BLACK
6
CONTINUOUS
10
5.87223
20
-3.44514
11
5.87223
21
-3.46507
0
LINE
8
BLACK
6
CONTINUOUS
10
5.87223
20
-3.46507
11
5.87336
21
-3.46731
0
LINE
8
BLACK
6
CONTINUOUS
10
5.87336
20
-3.46731
11
5.8756
21
-3.46844
0
LINE
8
BLACK
6
CONTINUOUS
10
5.8756
20
-3.46844
11
5.87983
21
-3.46844
0
LINE
8
BLACK
6
CONTINUOUS
10
5.87983
20
-3.46844
11
5.88253
21
-3.46709
0
LINE
8
BLACK
6
CONTINUOUS
10
5.88253
20
-3.46709
11
5.8832
21
-3.46642
0
LINE
8
BLACK
6
CONTINUOUS
10
5.8832
20
-3.46642
11
5.8832
21
-3.44514
0
LINE
8
BLACK
6
CONTINUOUS
10
5.8832
20
-3.44514
11
5.88338
21
-3.44413
0
LINE
8
BLACK
6
CONTINUOUS
10
5.88338
20
-3.44413
11
5.88468
21
-3.44259
0
LINE
8
BLACK
6
CONTINUOUS
10
5.88468
20
-3.44259
11
5.88667
21
-3.44223
0
LINE
8
BLACK
6
CONTINUOUS
10
5.88667
20
-3.44223
11
5.88842
21
-3.44324
0
LINE
8
BLACK
6
CONTINUOUS
10
5.91716
20
-3.44237
11
5.9173
21
-3.44248
0
LINE
8
BLACK
6
CONTINUOUS
10
5.9173
20
-3.44248
11
5.91747
21
-3.4425
0
LINE
8
BLACK
6
CONTINUOUS
10
5.91747
20
-3.4425
11
5.92122
21
-3.44438
0
LINE
8
BLACK
6
CONTINUOUS
10
5.92122
20
-3.44438
11
5.92204
21
-3.44499
0
LINE
8
BLACK
6
CONTINUOUS
10
5.92204
20
-3.44499
11
5.92222
21
-3.44539
0
LINE
8
BLACK
6
CONTINUOUS
10
5.92222
20
-3.44539
11
5.92254
21
-3.4457
0
LINE
8
BLACK
6
CONTINUOUS
10
5.92254
20
-3.4457
11
5.92442
21
-3.44945
0
LINE
8
BLACK
6
CONTINUOUS
10
5.92442
20
-3.44945
11
5.92471
21
-3.45043
0
LINE
8
BLACK
6
CONTINUOUS
10
5.92471
20
-3.45043
11
5.92467
21
-3.4506
0
LINE
8
BLACK
6
CONTINUOUS
10
5.92467
20
-3.4506
11
5.92473
21
-3.45077
0
LINE
8
BLACK
6
CONTINUOUS
10
5.92473
20
-3.45077
11
5.92473
21
-3.46576
0
LINE
8
BLACK
6
CONTINUOUS
10
5.92473
20
-3.46576
11
5.92455
21
-3.46677
0
LINE
8
BLACK
6
CONTINUOUS
10
5.92455
20
-3.46677
11
5.92444
21
-3.46691
0
LINE
8
BLACK
6
CONTINUOUS
10
5.92444
20
-3.46691
11
5.92442
21
-3.46709
0
LINE
8
BLACK
6
CONTINUOUS
10
5.92442
20
-3.46709
11
5.92254
21
-3.47083
0
LINE
8
BLACK
6
CONTINUOUS
10
5.92254
20
-3.47083
11
5.92193
21
-3.47166
0
LINE
8
BLACK
6
CONTINUOUS
10
5.92193
20
-3.47166
11
5.92152
21
-3.47183
0
LINE
8
BLACK
6
CONTINUOUS
10
5.92152
20
-3.47183
11
5.92122
21
-3.47216
0
LINE
8
BLACK
6
CONTINUOUS
10
5.92122
20
-3.47216
11
5.91747
21
-3.47403
0
LINE
8
BLACK
6
CONTINUOUS
10
5.91747
20
-3.47403
11
5.91649
21
-3.47432
0
LINE
8
BLACK
6
CONTINUOUS
10
5.91649
20
-3.47432
11
5.91632
21
-3.47428
0
LINE
8
BLACK
6
CONTINUOUS
10
5.91632
20
-3.47428
11
5.91615
21
-3.47434
0
LINE
8
BLACK
6
CONTINUOUS
10
5.91615
20
-3.47434
11
5.90865
21
-3.47434
0
LINE
8
BLACK
6
CONTINUOUS
10
5.90865
20
-3.47434
11
5.90764
21
-3.47416
0
LINE
8
BLACK
6
CONTINUOUS
10
5.90764
20
-3.47416
11
5.90751
21
-3.47405
0
LINE
8
BLACK
6
CONTINUOUS
10
5.90751
20
-3.47405
11
5.90733
21
-3.47403
0
LINE
8
BLACK
6
CONTINUOUS
10
5.90733
20
-3.47403
11
5.90358
21
-3.47216
0
LINE
8
BLACK
6
CONTINUOUS
10
5.90358
20
-3.47216
11
5.90276
21
-3.47154
0
LINE
8
BLACK
6
CONTINUOUS
10
5.90276
20
-3.47154
11
5.90258
21
-3.47114
0
LINE
8
BLACK
6
CONTINUOUS
10
5.90258
20
-3.47114
11
5.90226
21
-3.47083
0
LINE
8
BLACK
6
CONTINUOUS
10
5.90226
20
-3.47083
11
5.90039
21
-3.46709
0
LINE
8
BLACK
6
CONTINUOUS
10
5.90039
20
-3.46709
11
5.90009
21
-3.4661
0
LINE
8
BLACK
6
CONTINUOUS
10
5.90009
20
-3.4661
11
5.90013
21
-3.46593
0
LINE
8
BLACK
6
CONTINUOUS
10
5.90013
20
-3.46593
11
5.90007
21
-3.46576
0
LINE
8
BLACK
6
CONTINUOUS
10
5.90007
20
-3.46576
11
5.90007
21
-3.46202
0
LINE
8
BLACK
6
CONTINUOUS
10
5.90007
20
-3.46202
11
5.90025
21
-3.46101
0
LINE
8
BLACK
6
CONTINUOUS
10
5.90025
20
-3.46101
11
5.90057
21
-3.46063
0
LINE
8
BLACK
6
CONTINUOUS
10
5.90057
20
-3.46063
11
5.90072
21
-3.46017
0
LINE
8
BLACK
6
CONTINUOUS
10
5.90072
20
-3.46017
11
5.90119
21
-3.45988
0
LINE
8
BLACK
6
CONTINUOUS
10
5.90119
20
-3.45988
11
5.90155
21
-3.45946
0
LINE
8
BLACK
6
CONTINUOUS
10
5.90155
20
-3.45946
11
5.90203
21
-3.45937
0
LINE
8
BLACK
6
CONTINUOUS
10
5.90203
20
-3.45937
11
5.90245
21
-3.45912
0
LINE
8
BLACK
6
CONTINUOUS
10
5.90245
20
-3.45912
11
5.91882
21
-3.45585
0
LINE
8
BLACK
6
CONTINUOUS
10
5.91882
20
-3.45585
11
5.91882
21
-3.45146
0
LINE
8
BLACK
6
CONTINUOUS
10
5.91882
20
-3.45146
11
5.9177
21
-3.44922
0
LINE
8
BLACK
6
CONTINUOUS
10
5.9177
20
-3.44922
11
5.91545
21
-3.4481
0
LINE
8
BLACK
6
CONTINUOUS
10
5.91545
20
-3.4481
11
5.90935
21
-3.4481
0
LINE
8
BLACK
6
CONTINUOUS
10
5.90935
20
-3.4481
11
5.90622
21
-3.44966
0
LINE
8
BLACK
6
CONTINUOUS
10
5.90622
20
-3.44966
11
5.90524
21
-3.44995
0
LINE
8
BLACK
6
CONTINUOUS
10
5.90524
20
-3.44995
11
5.90327
21
-3.44948
0
LINE
8
BLACK
6
CONTINUOUS
10
5.90327
20
-3.44948
11
5.90207
21
-3.44786
0
LINE
8
BLACK
6
CONTINUOUS
10
5.90207
20
-3.44786
11
5.90219
21
-3.44584
0
LINE
8
BLACK
6
CONTINUOUS
10
5.90219
20
-3.44584
11
5.90358
21
-3.44438
0
LINE
8
BLACK
6
CONTINUOUS
10
5.90358
20
-3.44438
11
5.90733
21
-3.4425
0
LINE
8
BLACK
6
CONTINUOUS
10
5.90733
20
-3.4425
11
5.90831
21
-3.44221
0
LINE
8
BLACK
6
CONTINUOUS
10
5.90831
20
-3.44221
11
5.90849
21
-3.44225
0
LINE
8
BLACK
6
CONTINUOUS
10
5.90849
20
-3.44225
11
5.90865
21
-3.44219
0
LINE
8
BLACK
6
CONTINUOUS
10
5.90865
20
-3.44219
11
5.91615
21
-3.44219
0
LINE
8
BLACK
6
CONTINUOUS
10
5.91615
20
-3.44219
11
5.91716
21
-3.44237
0
LINE
8
BLACK
6
CONTINUOUS
10
5.90598
20
-3.46444
11
5.90598
21
-3.46507
0
LINE
8
BLACK
6
CONTINUOUS
10
5.90598
20
-3.46507
11
5.9071
21
-3.46731
0
LINE
8
BLACK
6
CONTINUOUS
10
5.9071
20
-3.46731
11
5.90935
21
-3.46844
0
LINE
8
BLACK
6
CONTINUOUS
10
5.90935
20
-3.46844
11
5.91545
21
-3.46844
0
LINE
8
BLACK
6
CONTINUOUS
10
5.91545
20
-3.46844
11
5.9177
21
-3.46731
0
LINE
8
BLACK
6
CONTINUOUS
10
5.9177
20
-3.46731
11
5.91882
21
-3.46507
0
LINE
8
BLACK
6
CONTINUOUS
10
5.91882
20
-3.46507
11
5.91882
21
-3.46187
0
LINE
8
BLACK
6
CONTINUOUS
10
5.91882
20
-3.46187
11
5.90598
21
-3.46444
0
LINE
8
BLACK
6
CONTINUOUS
10
6.56873
20
-3.75221
11
6.56943
21
-3.75411
0
LINE
8
BLACK
6
CONTINUOUS
10
6.56943
20
-3.75411
11
6.56943
21
-3.79348
0
LINE
8
BLACK
6
CONTINUOUS
10
6.56943
20
-3.79348
11
6.56925
21
-3.79449
0
LINE
8
BLACK
6
CONTINUOUS
10
6.56925
20
-3.79449
11
6.56795
21
-3.79604
0
LINE
8
BLACK
6
CONTINUOUS
10
6.56795
20
-3.79604
11
6.56596
21
-3.79639
0
LINE
8
BLACK
6
CONTINUOUS
10
6.56596
20
-3.79639
11
6.56421
21
-3.79538
0
LINE
8
BLACK
6
CONTINUOUS
10
6.56421
20
-3.79538
11
6.56352
21
-3.79348
0
LINE
8
BLACK
6
CONTINUOUS
10
6.56352
20
-3.79348
11
6.56352
21
-3.77811
0
LINE
8
BLACK
6
CONTINUOUS
10
6.56352
20
-3.77811
11
6.54606
21
-3.79557
0
LINE
8
BLACK
6
CONTINUOUS
10
6.54606
20
-3.79557
11
6.54522
21
-3.79616
0
LINE
8
BLACK
6
CONTINUOUS
10
6.54522
20
-3.79616
11
6.54321
21
-3.79633
0
LINE
8
BLACK
6
CONTINUOUS
10
6.54321
20
-3.79633
11
6.54156
21
-3.79517
0
LINE
8
BLACK
6
CONTINUOUS
10
6.54156
20
-3.79517
11
6.54103
21
-3.79322
0
LINE
8
BLACK
6
CONTINUOUS
10
6.54103
20
-3.79322
11
6.54189
21
-3.79139
0
LINE
8
BLACK
6
CONTINUOUS
10
6.54189
20
-3.79139
11
6.55695
21
-3.77633
0
LINE
8
BLACK
6
CONTINUOUS
10
6.55695
20
-3.77633
11
6.54161
21
-3.75588
0
LINE
8
BLACK
6
CONTINUOUS
10
6.54161
20
-3.75588
11
6.54115
21
-3.75497
0
LINE
8
BLACK
6
CONTINUOUS
10
6.54115
20
-3.75497
11
6.54126
21
-3.75295
0
LINE
8
BLACK
6
CONTINUOUS
10
6.54126
20
-3.75295
11
6.54264
21
-3.75148
0
LINE
8
BLACK
6
CONTINUOUS
10
6.54264
20
-3.75148
11
6.54465
21
-3.75124
0
LINE
8
BLACK
6
CONTINUOUS
10
6.54465
20
-3.75124
11
6.54634
21
-3.75234
0
LINE
8
BLACK
6
CONTINUOUS
10
6.54634
20
-3.75234
11
6.56117
21
-3.77211
0
LINE
8
BLACK
6
CONTINUOUS
10
6.56117
20
-3.77211
11
6.56352
21
-3.76976
0
LINE
8
BLACK
6
CONTINUOUS
10
6.56352
20
-3.76976
11
6.56352
21
-3.75411
0
LINE
8
BLACK
6
CONTINUOUS
10
6.56352
20
-3.75411
11
6.5637
21
-3.7531
0
LINE
8
BLACK
6
CONTINUOUS
10
6.5637
20
-3.7531
11
6.565
21
-3.75155
0
LINE
8
BLACK
6
CONTINUOUS
10
6.565
20
-3.75155
11
6.56699
21
-3.7512
0
LINE
8
BLACK
6
CONTINUOUS
10
6.56699
20
-3.7512
11
6.56873
21
-3.75221
0
LINE
8
BLACK
6
CONTINUOUS
10
5.04059
20
-3.71446
11
5.04128
21
-3.71636
0
LINE
8
BLACK
6
CONTINUOUS
10
5.04128
20
-3.71636
11
5.04128
21
-3.73173
0
LINE
8
BLACK
6
CONTINUOUS
10
5.04128
20
-3.73173
11
5.05874
21
-3.71427
0
LINE
8
BLACK
6
CONTINUOUS
10
5.05874
20
-3.71427
11
5.05958
21
-3.71369
0
LINE
8
BLACK
6
CONTINUOUS
10
5.05958
20
-3.71369
11
5.06159
21
-3.71351
0
LINE
8
BLACK
6
CONTINUOUS
10
5.06159
20
-3.71351
11
5.06325
21
-3.71467
0
LINE
8
BLACK
6
CONTINUOUS
10
5.06325
20
-3.71467
11
5.06377
21
-3.71662
0
LINE
8
BLACK
6
CONTINUOUS
10
5.06377
20
-3.71662
11
5.06292
21
-3.71845
0
LINE
8
BLACK
6
CONTINUOUS
10
5.06292
20
-3.71845
11
5.04785
21
-3.73351
0
LINE
8
BLACK
6
CONTINUOUS
10
5.04785
20
-3.73351
11
5.06319
21
-3.75396
0
LINE
8
BLACK
6
CONTINUOUS
10
5.06319
20
-3.75396
11
5.06365
21
-3.75487
0
LINE
8
BLACK
6
CONTINUOUS
10
5.06365
20
-3.75487
11
5.06354
21
-3.75689
0
LINE
8
BLACK
6
CONTINUOUS
10
5.06354
20
-3.75689
11
5.06216
21
-3.75837
0
LINE
8
BLACK
6
CONTINUOUS
10
5.06216
20
-3.75837
11
5.06016
21
-3.75861
0
LINE
8
BLACK
6
CONTINUOUS
10
5.06016
20
-3.75861
11
5.05847
21
-3.7575
0
LINE
8
BLACK
6
CONTINUOUS
10
5.05847
20
-3.7575
11
5.04364
21
-3.73773
0
LINE
8
BLACK
6
CONTINUOUS
10
5.04364
20
-3.73773
11
5.04128
21
-3.74008
0
LINE
8
BLACK
6
CONTINUOUS
10
5.04128
20
-3.74008
11
5.04128
21
-3.75573
0
LINE
8
BLACK
6
CONTINUOUS
10
5.04128
20
-3.75573
11
5.04111
21
-3.75674
0
LINE
8
BLACK
6
CONTINUOUS
10
5.04111
20
-3.75674
11
5.03981
21
-3.75829
0
LINE
8
BLACK
6
CONTINUOUS
10
5.03981
20
-3.75829
11
5.03782
21
-3.75864
0
LINE
8
BLACK
6
CONTINUOUS
10
5.03782
20
-3.75864
11
5.03607
21
-3.75763
0
LINE
8
BLACK
6
CONTINUOUS
10
5.03607
20
-3.75763
11
5.03538
21
-3.75573
0
LINE
8
BLACK
6
CONTINUOUS
10
5.03538
20
-3.75573
11
5.03538
21
-3.71636
0
LINE
8
BLACK
6
CONTINUOUS
10
5.03538
20
-3.71636
11
5.03556
21
-3.71535
0
LINE
8
BLACK
6
CONTINUOUS
10
5.03556
20
-3.71535
11
5.03685
21
-3.7138
0
LINE
8
BLACK
6
CONTINUOUS
10
5.03685
20
-3.7138
11
5.03884
21
-3.71345
0
LINE
8
BLACK
6
CONTINUOUS
10
5.03884
20
-3.71345
11
5.04059
21
-3.71446
0
LINE
8
BLACK
6
CONTINUOUS
10
6.56873
20
-3.61721
11
6.56943
21
-3.61911
0
LINE
8
BLACK
6
CONTINUOUS
10
6.56943
20
-3.61911
11
6.56943
21
-3.65848
0
LINE
8
BLACK
6
CONTINUOUS
10
6.56943
20
-3.65848
11
6.56925
21
-3.65949
0
LINE
8
BLACK
6
CONTINUOUS
10
6.56925
20
-3.65949
11
6.56795
21
-3.66104
0
LINE
8
BLACK
6
CONTINUOUS
10
6.56795
20
-3.66104
11
6.56596
21
-3.66139
0
LINE
8
BLACK
6
CONTINUOUS
10
6.56596
20
-3.66139
11
6.56421
21
-3.66038
0
LINE
8
BLACK
6
CONTINUOUS
10
6.56421
20
-3.66038
11
6.56352
21
-3.65848
0
LINE
8
BLACK
6
CONTINUOUS
10
6.56352
20
-3.65848
11
6.56352
21
-3.64311
0
LINE
8
BLACK
6
CONTINUOUS
10
6.56352
20
-3.64311
11
6.54606
21
-3.66057
0
LINE
8
BLACK
6
CONTINUOUS
10
6.54606
20
-3.66057
11
6.54522
21
-3.66116
0
LINE
8
BLACK
6
CONTINUOUS
10
6.54522
20
-3.66116
11
6.54321
21
-3.66133
0
LINE
8
BLACK
6
CONTINUOUS
10
6.54321
20
-3.66133
11
6.54156
21
-3.66017
0
LINE
8
BLACK
6
CONTINUOUS
10
6.54156
20
-3.66017
11
6.54103
21
-3.65822
0
LINE
8
BLACK
6
CONTINUOUS
10
6.54103
20
-3.65822
11
6.54189
21
-3.65639
0
LINE
8
BLACK
6
CONTINUOUS
10
6.54189
20
-3.65639
11
6.55695
21
-3.64133
0
LINE
8
BLACK
6
CONTINUOUS
10
6.55695
20
-3.64133
11
6.54161
21
-3.62088
0
LINE
8
BLACK
6
CONTINUOUS
10
6.54161
20
-3.62088
11
6.54115
21
-3.61997
0
LINE
8
BLACK
6
CONTINUOUS
10
6.54115
20
-3.61997
11
6.54126
21
-3.61795
0
LINE
8
BLACK
6
CONTINUOUS
10
6.54126
20
-3.61795
11
6.54264
21
-3.61648
0
LINE
8
BLACK
6
CONTINUOUS
10
6.54264
20
-3.61648
11
6.54465
21
-3.61624
0
LINE
8
BLACK
6
CONTINUOUS
10
6.54465
20
-3.61624
11
6.54634
21
-3.61734
0
LINE
8
BLACK
6
CONTINUOUS
10
6.54634
20
-3.61734
11
6.56117
21
-3.63711
0
LINE
8
BLACK
6
CONTINUOUS
10
6.56117
20
-3.63711
11
6.56352
21
-3.63476
0
LINE
8
BLACK
6
CONTINUOUS
10
6.56352
20
-3.63476
11
6.56352
21
-3.61911
0
LINE
8
BLACK
6
CONTINUOUS
10
6.56352
20
-3.61911
11
6.5637
21
-3.6181
0
LINE
8
BLACK
6
CONTINUOUS
10
6.5637
20
-3.6181
11
6.565
21
-3.61655
0
LINE
8
BLACK
6
CONTINUOUS
10
6.565
20
-3.61655
11
6.56699
21
-3.6162
0
LINE
8
BLACK
6
CONTINUOUS
10
6.56699
20
-3.6162
11
6.56873
21
-3.61721
0
LINE
8
BLACK
6
CONTINUOUS
10
6.56873
20
-3.48221
11
6.56943
21
-3.48411
0
LINE
8
BLACK
6
CONTINUOUS
10
6.56943
20
-3.48411
11
6.56943
21
-3.52348
0
LINE
8
BLACK
6
CONTINUOUS
10
6.56943
20
-3.52348
11
6.56925
21
-3.52449
0
LINE
8
BLACK
6
CONTINUOUS
10
6.56925
20
-3.52449
11
6.56795
21
-3.52604
0
LINE
8
BLACK
6
CONTINUOUS
10
6.56795
20
-3.52604
11
6.56596
21
-3.52639
0
LINE
8
BLACK
6
CONTINUOUS
10
6.56596
20
-3.52639
11
6.56421
21
-3.52538
0
LINE
8
BLACK
6
CONTINUOUS
10
6.56421
20
-3.52538
11
6.56352
21
-3.52348
0
LINE
8
BLACK
6
CONTINUOUS
10
6.56352
20
-3.52348
11
6.56352
21
-3.50811
0
LINE
8
BLACK
6
CONTINUOUS
10
6.56352
20
-3.50811
11
6.54606
21
-3.52557
0
LINE
8
BLACK
6
CONTINUOUS
10
6.54606
20
-3.52557
11
6.54522
21
-3.52616
0
LINE
8
BLACK
6
CONTINUOUS
10
6.54522
20
-3.52616
11
6.54321
21
-3.52633
0
LINE
8
BLACK
6
CONTINUOUS
10
6.54321
20
-3.52633
11
6.54156
21
-3.52517
0
LINE
8
BLACK
6
CONTINUOUS
10
6.54156
20
-3.52517
11
6.54103
21
-3.52322
0
LINE
8
BLACK
6
CONTINUOUS
10
6.54103
20
-3.52322
11
6.54189
21
-3.52139
0
LINE
8
BLACK
6
CONTINUOUS
10
6.54189
20
-3.52139
11
6.55695
21
-3.50633
0
LINE
8
BLACK
6
CONTINUOUS
10
6.55695
20
-3.50633
11
6.54161
21
-3.48588
0
LINE
8
BLACK
6
CONTINUOUS
10
6.54161
20
-3.48588
11
6.54115
21
-3.48497
0
LINE
8
BLACK
6
CONTINUOUS
10
6.54115
20
-3.48497
11
6.54126
21
-3.48295
0
LINE
8
BLACK
6
CONTINUOUS
10
6.54126
20
-3.48295
11
6.54264
21
-3.48148
0
LINE
8
BLACK
6
CONTINUOUS
10
6.54264
20
-3.48148
11
6.54465
21
-3.48124
0
LINE
8
BLACK
6
CONTINUOUS
10
6.54465
20
-3.48124
11
6.54634
21
-3.48234
0
LINE
8
BLACK
6
CONTINUOUS
10
6.54634
20
-3.48234
11
6.56117
21
-3.50211
0
LINE
8
BLACK
6
CONTINUOUS
10
6.56117
20
-3.50211
11
6.56352
21
-3.49976
0
LINE
8
BLACK
6
CONTINUOUS
10
6.56352
20
-3.49976
11
6.56352
21
-3.48411
0
LINE
8
BLACK
6
CONTINUOUS
10
6.56352
20
-3.48411
11
6.5637
21
-3.4831
0
LINE
8
BLACK
6
CONTINUOUS
10
6.5637
20
-3.4831
11
6.565
21
-3.48155
0
LINE
8
BLACK
6
CONTINUOUS
10
6.565
20
-3.48155
11
6.56699
21
-3.4812
0
LINE
8
BLACK
6
CONTINUOUS
10
6.56699
20
-3.4812
11
6.56873
21
-3.48221
0
LINE
8
BLACK
6
CONTINUOUS
10
6.56873
20
-3.34536
11
6.56943
21
-3.34726
0
LINE
8
BLACK
6
CONTINUOUS
10
6.56943
20
-3.34726
11
6.56943
21
-3.38663
0
LINE
8
BLACK
6
CONTINUOUS
10
6.56943
20
-3.38663
11
6.56925
21
-3.38764
0
LINE
8
BLACK
6
CONTINUOUS
10
6.56925
20
-3.38764
11
6.56795
21
-3.38919
0
LINE
8
BLACK
6
CONTINUOUS
10
6.56795
20
-3.38919
11
6.56596
21
-3.38954
0
LINE
8
BLACK
6
CONTINUOUS
10
6.56596
20
-3.38954
11
6.56421
21
-3.38853
0
LINE
8
BLACK
6
CONTINUOUS
10
6.56421
20
-3.38853
11
6.56352
21
-3.38663
0
LINE
8
BLACK
6
CONTINUOUS
10
6.56352
20
-3.38663
11
6.56352
21
-3.37126
0
LINE
8
BLACK
6
CONTINUOUS
10
6.56352
20
-3.37126
11
6.54606
21
-3.38872
0
LINE
8
BLACK
6
CONTINUOUS
10
6.54606
20
-3.38872
11
6.54522
21
-3.38931
0
LINE
8
BLACK
6
CONTINUOUS
10
6.54522
20
-3.38931
11
6.54321
21
-3.38948
0
LINE
8
BLACK
6
CONTINUOUS
10
6.54321
20
-3.38948
11
6.54156
21
-3.38832
0
LINE
8
BLACK
6
CONTINUOUS
10
6.54156
20
-3.38832
11
6.54103
21
-3.38637
0
LINE
8
BLACK
6
CONTINUOUS
10
6.54103
20
-3.38637
11
6.54189
21
-3.38454
0
LINE
8
BLACK
6
CONTINUOUS
10
6.54189
20
-3.38454
11
6.55695
21
-3.36948
0
LINE
8
BLACK
6
CONTINUOUS
10
6.55695
20
-3.36948
11
6.54161
21
-3.34903
0
LINE
8
BLACK
6
CONTINUOUS
10
6.54161
20
-3.34903
11
6.54115
21
-3.34812
0
LINE
8
BLACK
6
CONTINUOUS
10
6.54115
20
-3.34812
11
6.54126
21
-3.3461
0
LINE
8
BLACK
6
CONTINUOUS
10
6.54126
20
-3.3461
11
6.54264
21
-3.34463
0
LINE
8
BLACK
6
CONTINUOUS
10
6.54264
20
-3.34463
11
6.54465
21
-3.34439
0
LINE
8
BLACK
6
CONTINUOUS
10
6.54465
20
-3.34439
11
6.54634
21
-3.34549
0
LINE
8
BLACK
6
CONTINUOUS
10
6.54634
20
-3.34549
11
6.56117
21
-3.36526
0
LINE
8
BLACK
6
CONTINUOUS
10
6.56117
20
-3.36526
11
6.56352
21
-3.36291
0
LINE
8
BLACK
6
CONTINUOUS
10
6.56352
20
-3.36291
11
6.56352
21
-3.34726
0
LINE
8
BLACK
6
CONTINUOUS
10
6.56352
20
-3.34726
11
6.5637
21
-3.34625
0
LINE
8
BLACK
6
CONTINUOUS
10
6.5637
20
-3.34625
11
6.565
21
-3.3447
0
LINE
8
BLACK
6
CONTINUOUS
10
6.565
20
-3.3447
11
6.56699
21
-3.34435
0
LINE
8
BLACK
6
CONTINUOUS
10
6.56699
20
-3.34435
11
6.56873
21
-3.34536
  0
ENDSEC
  0
EOF
