  0
SECTION
  2
HEADER
  9
$ANGBASE
  50
0.0
  9
$ANGDIR
  70
1
  9
$MEASUREMENT
  70
0
  0
ENDSEC
  0
SECTION
  2
TABLES
  0
TABLE
  2
LTYPE
  70
4
  0
LTYPE
  5
40F
  2
CONTINUOUS
  70
0
  3
Solid line
  72
65
  73
0
  40
0.0
  0
LTYPE
  5
410
  2
DASHDOT
 70
0
  3
Dash Dot ____ _ ____ _
 72
65
 73
4
 40
2.0
 49
1.25
 49
-0.25
 49
0.25
 49
-0.25
  0
LTYPE
  5
411
  2
DASHED
 70
0
  3
Dashed __ __ __ __ __
 72
65
 73
2
 40
0.75
 49
0.5
 49
-0.25
  0
LTYPE
  5
43B
  2
DOTTED
 70
0
  3
Dotted .  .  .  .
 72
65
 73
2
 40
0.2
 49
0.0
 49
-0.2
  0
ENDTAB
  0
TABLE
  2
STYLE
  70
4
  0
STYLE
  2
KICAD
  70
0
  40
0
  41
1
  42
1
  50
0
  71
0
  3
isocp.shx
  0
STYLE
  2
KICADB
  70
0
  40
0
  41
1
  42
1
  50
0
  71
0
  3
isocp.shx
  0
STYLE
  2
KICADI
  70
0
  40
0
  41
1
  42
1
  50
15
  71
0
  3
isocp.shx
  0
STYLE
  2
KICADBI
  70
0
  40
0
  41
1
  42
1
  50
15
  71
0
  3
isocp.shx
  0
ENDTAB
  0
TABLE
  2
LAYER
  70
1
  0
LAYER
  2
BLACK
  70
0
  62
7
  6
CONTINUOUS
  0
ENDTAB
  0
ENDSEC
  0
SECTION
  2
ENTITIES
0
LINE
8
BLACK
6
CONTINUOUS
10
5.0468265354330706
20
-4.5347280708661417
11
5.0599546456692917
21
-4.5377244881889762
0
LINE
8
BLACK
6
CONTINUOUS
10
5.0599546456692917
20
-4.5377244881889762
11
5.0726647244094485
21
-4.5421719291338585
0
LINE
8
BLACK
6
CONTINUOUS
10
5.0726647244094485
20
-4.5421719291338585
11
5.0847969685039365
21
-4.5480145275590553
0
LINE
8
BLACK
6
CONTINUOUS
10
5.0847969685039365
20
-4.5480145275590553
11
5.0961987007874017
21
-4.5551787007874012
0
LINE
8
BLACK
6
CONTINUOUS
10
5.0961987007874017
20
-4.5551787007874012
11
5.1067266535433067
21
-4.5635744488188976
0
LINE
8
BLACK
6
CONTINUOUS
10
5.1067266535433067
20
-4.5635744488188976
11
5.1162483858267711
21
-4.573096181102362
0
LINE
8
BLACK
6
CONTINUOUS
10
5.1162483858267711
20
-4.573096181102362
11
5.1246441338582676
21
-4.5836241338582679
0
LINE
8
BLACK
6
CONTINUOUS
10
5.1246441338582676
20
-4.5836241338582679
11
5.1318083070866143
21
-4.5950258661417323
0
LINE
8
BLACK
6
CONTINUOUS
10
5.1318083070866143
20
-4.5950258661417323
11
5.1376509055118111
21
-4.6071581102362202
0
LINE
8
BLACK
6
CONTINUOUS
10
5.1376509055118111
20
-4.6071581102362202
11
5.1420983464566925
21
-4.619868188976378
0
LINE
8
BLACK
6
CONTINUOUS
10
5.1420983464566925
20
-4.619868188976378
11
5.145094763779527
21
-4.6329962992125981
0
LINE
8
BLACK
6
CONTINUOUS
10
5.145094763779527
20
-4.6329962992125981
11
5.1466024409448821
21
-4.6463773622047242
0
LINE
8
BLACK
6
CONTINUOUS
10
5.1466024409448821
20
-4.6463773622047242
11
5.1466024409448821
21
-4.6598431102362206
0
LINE
8
BLACK
6
CONTINUOUS
10
5.1466024409448821
20
-4.6598431102362206
11
5.145094763779527
21
-4.6732241732283466
0
LINE
8
BLACK
6
CONTINUOUS
10
5.145094763779527
20
-4.6732241732283466
11
5.1420983464566925
21
-4.6863522834645668
0
LINE
8
BLACK
6
CONTINUOUS
10
5.1420983464566925
20
-4.6863522834645668
11
5.1376509055118111
21
-4.6990623622047245
0
LINE
8
BLACK
6
CONTINUOUS
10
5.1376509055118111
20
-4.6990623622047245
11
5.1318083070866143
21
-4.7111946062992125
0
LINE
8
BLACK
6
CONTINUOUS
10
5.1318083070866143
20
-4.7111946062992125
11
5.1246441338582676
21
-4.7225963385826768
0
LINE
8
BLACK
6
CONTINUOUS
10
5.1246441338582676
20
-4.7225963385826768
11
5.1162483858267711
21
-4.7331242913385827
0
LINE
8
BLACK
6
CONTINUOUS
10
5.1162483858267711
20
-4.7331242913385827
11
5.1067266535433067
21
-4.7426460236220471
0
LINE
8
BLACK
6
CONTINUOUS
10
5.1067266535433067
20
-4.7426460236220471
11
5.0961987007874017
21
-4.7510417716535436
0
LINE
8
BLACK
6
CONTINUOUS
10
5.0961987007874017
20
-4.7510417716535436
11
5.0847969685039365
21
-4.7582059448818894
0
LINE
8
BLACK
6
CONTINUOUS
10
5.0847969685039365
20
-4.7582059448818894
11
5.0726647244094485
21
-4.7640485433070863
0
LINE
8
BLACK
6
CONTINUOUS
10
5.0726647244094485
20
-4.7640485433070863
11
5.0599546456692917
21
-4.7684959842519685
0
LINE
8
BLACK
6
CONTINUOUS
10
5.0599546456692917
20
-4.7684959842519685
11
5.0468265354330706
21
-4.771492401574803
0
LINE
8
BLACK
6
CONTINUOUS
10
5.0468265354330706
20
-4.771492401574803
11
5.0334454724409445
21
-4.7730000787401572
0
LINE
8
BLACK
6
CONTINUOUS
10
5.0334454724409445
20
-4.7730000787401572
11
5.0199797244094491
21
-4.7730000787401572
0
LINE
8
BLACK
6
CONTINUOUS
10
5.0199797244094491
20
-4.7730000787401572
11
5.006598661417323
21
-4.771492401574803
0
LINE
8
BLACK
6
CONTINUOUS
10
5.006598661417323
20
-4.771492401574803
11
4.9934705511811019
21
-4.7684959842519685
0
LINE
8
BLACK
6
CONTINUOUS
10
4.9934705511811019
20
-4.7684959842519685
11
4.9807604724409451
21
-4.7640485433070863
0
LINE
8
BLACK
6
CONTINUOUS
10
4.9807604724409451
20
-4.7640485433070863
11
4.9686282283464562
21
-4.7582059448818894
0
LINE
8
BLACK
6
CONTINUOUS
10
4.9686282283464562
20
-4.7582059448818894
11
4.9572264960629919
21
-4.7510417716535436
0
LINE
8
BLACK
6
CONTINUOUS
10
4.9572264960629919
20
-4.7510417716535436
11
4.9466985433070869
21
-4.7426460236220471
0
LINE
8
BLACK
6
CONTINUOUS
10
4.9466985433070869
20
-4.7426460236220471
11
4.9371768110236216
21
-4.7331242913385827
0
LINE
8
BLACK
6
CONTINUOUS
10
4.9371768110236216
20
-4.7331242913385827
11
4.928781062992126
21
-4.7225963385826768
0
LINE
8
BLACK
6
CONTINUOUS
10
4.928781062992126
20
-4.7225963385826768
11
4.9216168897637793
21
-4.7111946062992125
0
LINE
8
BLACK
6
CONTINUOUS
10
4.9216168897637793
20
-4.7111946062992125
11
4.9157742913385825
21
-4.6990623622047245
0
LINE
8
BLACK
6
CONTINUOUS
10
4.9157742913385825
20
-4.6990623622047245
11
4.9113268503937011
21
-4.6863522834645668
0
LINE
8
BLACK
6
CONTINUOUS
10
4.9113268503937011
20
-4.6863522834645668
11
4.9083304330708657
21
-4.6732241732283466
0
LINE
8
BLACK
6
CONTINUOUS
10
4.9083304330708657
20
-4.6732241732283466
11
4.9068227559055115
21
-4.6598431102362206
0
LINE
8
BLACK
6
CONTINUOUS
10
4.9068227559055115
20
-4.6598431102362206
11
4.9068227559055115
21
-4.6463773622047242
0
LINE
8
BLACK
6
CONTINUOUS
10
4.9068227559055115
20
-4.6463773622047242
11
4.9083304330708657
21
-4.6329962992125981
0
LINE
8
BLACK
6
CONTINUOUS
10
4.9083304330708657
20
-4.6329962992125981
11
4.9113268503937011
21
-4.619868188976378
0
LINE
8
BLACK
6
CONTINUOUS
10
4.9113268503937011
20
-4.619868188976378
11
4.9157742913385825
21
-4.6071581102362202
0
LINE
8
BLACK
6
CONTINUOUS
10
4.9157742913385825
20
-4.6071581102362202
11
4.9216168897637793
21
-4.5950258661417323
0
LINE
8
BLACK
6
CONTINUOUS
10
4.9216168897637793
20
-4.5950258661417323
11
4.928781062992126
21
-4.5836241338582679
0
LINE
8
BLACK
6
CONTINUOUS
10
4.928781062992126
20
-4.5836241338582679
11
4.9371768110236216
21
-4.573096181102362
0
LINE
8
BLACK
6
CONTINUOUS
10
4.9371768110236216
20
-4.573096181102362
11
4.9466985433070869
21
-4.5635744488188976
0
LINE
8
BLACK
6
CONTINUOUS
10
4.9466985433070869
20
-4.5635744488188976
11
4.9572264960629919
21
-4.5551787007874012
0
LINE
8
BLACK
6
CONTINUOUS
10
4.9572264960629919
20
-4.5551787007874012
11
4.9686282283464562
21
-4.5480145275590553
0
LINE
8
BLACK
6
CONTINUOUS
10
4.9686282283464562
20
-4.5480145275590553
11
4.9807604724409451
21
-4.5421719291338585
0
LINE
8
BLACK
6
CONTINUOUS
10
4.9807604724409451
20
-4.5421719291338585
11
4.9934705511811019
21
-4.5377244881889762
0
LINE
8
BLACK
6
CONTINUOUS
10
4.9934705511811019
20
-4.5377244881889762
11
5.006598661417323
21
-4.5347280708661417
0
LINE
8
BLACK
6
CONTINUOUS
10
5.006598661417323
20
-4.5347280708661417
11
5.0199797244094491
21
-4.5332203937007876
0
LINE
8
BLACK
6
CONTINUOUS
10
5.0199797244094491
20
-4.5332203937007876
11
5.0334454724409445
21
-4.5332203937007876
0
LINE
8
BLACK
6
CONTINUOUS
10
5.0334454724409445
20
-4.5332203937007876
11
5.0468265354330706
21
-4.5347280708661417
0
LINE
8
BLACK
6
CONTINUOUS
10
6.6232044881889767
20
-4.5347280708661417
11
6.6363325984251968
21
-4.5377244881889762
0
LINE
8
BLACK
6
CONTINUOUS
10
6.6363325984251968
20
-4.5377244881889762
11
6.6490426771653546
21
-4.5421719291338585
0
LINE
8
BLACK
6
CONTINUOUS
10
6.6490426771653546
20
-4.5421719291338585
11
6.6611749212598426
21
-4.5480145275590553
0
LINE
8
BLACK
6
CONTINUOUS
10
6.6611749212598426
20
-4.5480145275590553
11
6.6725766535433069
21
-4.5551787007874012
0
LINE
8
BLACK
6
CONTINUOUS
10
6.6725766535433069
20
-4.5551787007874012
11
6.6831046062992128
21
-4.5635744488188976
0
LINE
8
BLACK
6
CONTINUOUS
10
6.6831046062992128
20
-4.5635744488188976
11
6.6926263385826772
21
-4.573096181102362
0
LINE
8
BLACK
6
CONTINUOUS
10
6.6926263385826772
20
-4.573096181102362
11
6.7010220866141728
21
-4.5836241338582679
0
LINE
8
BLACK
6
CONTINUOUS
10
6.7010220866141728
20
-4.5836241338582679
11
6.7081862598425195
21
-4.5950258661417323
0
LINE
8
BLACK
6
CONTINUOUS
10
6.7081862598425195
20
-4.5950258661417323
11
6.7140288582677163
21
-4.6071581102362202
0
LINE
8
BLACK
6
CONTINUOUS
10
6.7140288582677163
20
-4.6071581102362202
11
6.7184762992125986
21
-4.619868188976378
0
LINE
8
BLACK
6
CONTINUOUS
10
6.7184762992125986
20
-4.619868188976378
11
6.7214727165354331
21
-4.6329962992125981
0
LINE
8
BLACK
6
CONTINUOUS
10
6.7214727165354331
20
-4.6329962992125981
11
6.7229803937007873
21
-4.6463773622047242
0
LINE
8
BLACK
6
CONTINUOUS
10
6.7229803937007873
20
-4.6463773622047242
11
6.7229803937007873
21
-4.6598431102362206
0
LINE
8
BLACK
6
CONTINUOUS
10
6.7229803937007873
20
-4.6598431102362206
11
6.7214727165354331
21
-4.6732241732283466
0
LINE
8
BLACK
6
CONTINUOUS
10
6.7214727165354331
20
-4.6732241732283466
11
6.7184762992125986
21
-4.6863522834645668
0
LINE
8
BLACK
6
CONTINUOUS
10
6.7184762992125986
20
-4.6863522834645668
11
6.7140288582677163
21
-4.6990623622047245
0
LINE
8
BLACK
6
CONTINUOUS
10
6.7140288582677163
20
-4.6990623622047245
11
6.7081862598425195
21
-4.7111946062992125
0
LINE
8
BLACK
6
CONTINUOUS
10
6.7081862598425195
20
-4.7111946062992125
11
6.7010220866141728
21
-4.7225963385826768
0
LINE
8
BLACK
6
CONTINUOUS
10
6.7010220866141728
20
-4.7225963385826768
11
6.6926263385826772
21
-4.7331242913385827
0
LINE
8
BLACK
6
CONTINUOUS
10
6.6926263385826772
20
-4.7331242913385827
11
6.6831046062992128
21
-4.7426460236220471
0
LINE
8
BLACK
6
CONTINUOUS
10
6.6831046062992128
20
-4.7426460236220471
11
6.6725766535433069
21
-4.7510417716535436
0
LINE
8
BLACK
6
CONTINUOUS
10
6.6725766535433069
20
-4.7510417716535436
11
6.6611749212598426
21
-4.7582059448818894
0
LINE
8
BLACK
6
CONTINUOUS
10
6.6611749212598426
20
-4.7582059448818894
11
6.6490426771653546
21
-4.7640485433070863
0
LINE
8
BLACK
6
CONTINUOUS
10
6.6490426771653546
20
-4.7640485433070863
11
6.6363325984251968
21
-4.7684959842519685
0
LINE
8
BLACK
6
CONTINUOUS
10
6.6363325984251968
20
-4.7684959842519685
11
6.6232044881889767
21
-4.771492401574803
0
LINE
8
BLACK
6
CONTINUOUS
10
6.6232044881889767
20
-4.771492401574803
11
6.6098234251968506
21
-4.7730000787401572
0
LINE
8
BLACK
6
CONTINUOUS
10
6.6098234251968506
20
-4.7730000787401572
11
6.5963576771653543
21
-4.7730000787401572
0
LINE
8
BLACK
6
CONTINUOUS
10
6.5963576771653543
20
-4.7730000787401572
11
6.5829766141732282
21
-4.771492401574803
0
LINE
8
BLACK
6
CONTINUOUS
10
6.5829766141732282
20
-4.771492401574803
11
6.569848503937008
21
-4.7684959842519685
0
LINE
8
BLACK
6
CONTINUOUS
10
6.569848503937008
20
-4.7684959842519685
11
6.5571384251968503
21
-4.7640485433070863
0
LINE
8
BLACK
6
CONTINUOUS
10
6.5571384251968503
20
-4.7640485433070863
11
6.5450061811023623
21
-4.7582059448818894
0
LINE
8
BLACK
6
CONTINUOUS
10
6.5450061811023623
20
-4.7582059448818894
11
6.5336044488188971
21
-4.7510417716535436
0
LINE
8
BLACK
6
CONTINUOUS
10
6.5336044488188971
20
-4.7510417716535436
11
6.5230764960629921
21
-4.7426460236220471
0
LINE
8
BLACK
6
CONTINUOUS
10
6.5230764960629921
20
-4.7426460236220471
11
6.5135547637795277
21
-4.7331242913385827
0
LINE
8
BLACK
6
CONTINUOUS
10
6.5135547637795277
20
-4.7331242913385827
11
6.5051590157480312
21
-4.7225963385826768
0
LINE
8
BLACK
6
CONTINUOUS
10
6.5051590157480312
20
-4.7225963385826768
11
6.4979948425196845
21
-4.7111946062992125
0
LINE
8
BLACK
6
CONTINUOUS
10
6.4979948425196845
20
-4.7111946062992125
11
6.4921522440944877
21
-4.6990623622047245
0
LINE
8
BLACK
6
CONTINUOUS
10
6.4921522440944877
20
-4.6990623622047245
11
6.4877048031496063
21
-4.6863522834645668
0
LINE
8
BLACK
6
CONTINUOUS
10
6.4877048031496063
20
-4.6863522834645668
11
6.4847083858267718
21
-4.6732241732283466
0
LINE
8
BLACK
6
CONTINUOUS
10
6.4847083858267718
20
-4.6732241732283466
11
6.4832007086614167
21
-4.6598431102362206
0
LINE
8
BLACK
6
CONTINUOUS
10
6.4832007086614167
20
-4.6598431102362206
11
6.4832007086614167
21
-4.6463773622047242
0
LINE
8
BLACK
6
CONTINUOUS
10
6.4832007086614167
20
-4.6463773622047242
11
6.4847083858267718
21
-4.6329962992125981
0
LINE
8
BLACK
6
CONTINUOUS
10
6.4847083858267718
20
-4.6329962992125981
11
6.4877048031496063
21
-4.619868188976378
0
LINE
8
BLACK
6
CONTINUOUS
10
6.4877048031496063
20
-4.619868188976378
11
6.4921522440944877
21
-4.6071581102362202
0
LINE
8
BLACK
6
CONTINUOUS
10
6.4921522440944877
20
-4.6071581102362202
11
6.4979948425196845
21
-4.5950258661417323
0
LINE
8
BLACK
6
CONTINUOUS
10
6.4979948425196845
20
-4.5950258661417323
11
6.5051590157480312
21
-4.5836241338582679
0
LINE
8
BLACK
6
CONTINUOUS
10
6.5051590157480312
20
-4.5836241338582679
11
6.5135547637795277
21
-4.573096181102362
0
LINE
8
BLACK
6
CONTINUOUS
10
6.5135547637795277
20
-4.573096181102362
11
6.5230764960629921
21
-4.5635744488188976
0
LINE
8
BLACK
6
CONTINUOUS
10
6.5230764960629921
20
-4.5635744488188976
11
6.5336044488188971
21
-4.5551787007874012
0
LINE
8
BLACK
6
CONTINUOUS
10
6.5336044488188971
20
-4.5551787007874012
11
6.5450061811023623
21
-4.5480145275590553
0
LINE
8
BLACK
6
CONTINUOUS
10
6.5450061811023623
20
-4.5480145275590553
11
6.5571384251968503
21
-4.5421719291338585
0
LINE
8
BLACK
6
CONTINUOUS
10
6.5571384251968503
20
-4.5421719291338585
11
6.569848503937008
21
-4.5377244881889762
0
LINE
8
BLACK
6
CONTINUOUS
10
6.569848503937008
20
-4.5377244881889762
11
6.5829766141732282
21
-4.5347280708661417
0
LINE
8
BLACK
6
CONTINUOUS
10
6.5829766141732282
20
-4.5347280708661417
11
6.5963576771653543
21
-4.5332203937007876
0
LINE
8
BLACK
6
CONTINUOUS
10
6.5963576771653543
20
-4.5332203937007876
11
6.6098234251968506
21
-4.5332203937007876
0
LINE
8
BLACK
6
CONTINUOUS
10
6.6098234251968506
20
-4.5332203937007876
11
6.6232044881889767
21
-4.5347280708661417
0
LINE
8
BLACK
6
CONTINUOUS
10
5.9903192913385821
20
-3.8411288188976376
11
5.9956597244094487
21
-3.8442121259842517
0
LINE
8
BLACK
6
CONTINUOUS
10
5.9956597244094487
20
-3.8442121259842517
11
6.0000201574803151
21
-3.8485725590551181
0
LINE
8
BLACK
6
CONTINUOUS
10
6.0000201574803151
20
-3.8485725590551181
11
6.0031034645669292
21
-3.8539129921259843
0
LINE
8
BLACK
6
CONTINUOUS
10
6.0031034645669292
20
-3.8539129921259843
11
6.0046994881889759
21
-3.8598694488188974
0
LINE
8
BLACK
6
CONTINUOUS
10
6.0046994881889759
20
-3.8598694488188974
11
6.0046994881889759
21
-3.866036062992126
0
LINE
8
BLACK
6
CONTINUOUS
10
6.0046994881889759
20
-3.866036062992126
11
6.0031034645669292
21
-3.8719925196850391
0
LINE
8
BLACK
6
CONTINUOUS
10
6.0031034645669292
20
-3.8719925196850391
11
6.0000201574803151
21
-3.8773329527559053
0
LINE
8
BLACK
6
CONTINUOUS
10
6.0000201574803151
20
-3.8773329527559053
11
5.9956597244094487
21
-3.8816933858267717
0
LINE
8
BLACK
6
CONTINUOUS
10
5.9956597244094487
20
-3.8816933858267717
11
5.9903192913385821
21
-3.8847766929133858
0
LINE
8
BLACK
6
CONTINUOUS
10
5.9903192913385821
20
-3.8847766929133858
11
5.984362834645669
21
-3.8863727165354329
0
LINE
8
BLACK
6
CONTINUOUS
10
5.984362834645669
20
-3.8863727165354329
11
5.9781962204724408
21
-3.8863727165354329
0
LINE
8
BLACK
6
CONTINUOUS
10
5.9781962204724408
20
-3.8863727165354329
11
5.9722397637795277
21
-3.8847766929133858
0
LINE
8
BLACK
6
CONTINUOUS
10
5.9722397637795277
20
-3.8847766929133858
11
5.9668993307086611
21
-3.8816933858267717
0
LINE
8
BLACK
6
CONTINUOUS
10
5.9668993307086611
20
-3.8816933858267717
11
5.9625388976377955
21
-3.8773329527559053
0
LINE
8
BLACK
6
CONTINUOUS
10
5.9625388976377955
20
-3.8773329527559053
11
5.9594555905511806
21
-3.8719925196850391
0
LINE
8
BLACK
6
CONTINUOUS
10
5.9594555905511806
20
-3.8719925196850391
11
5.9578595669291339
21
-3.866036062992126
0
LINE
8
BLACK
6
CONTINUOUS
10
5.9578595669291339
20
-3.866036062992126
11
5.9578595669291339
21
-3.8598694488188974
0
LINE
8
BLACK
6
CONTINUOUS
10
5.9578595669291339
20
-3.8598694488188974
11
5.9594555905511806
21
-3.8539129921259843
0
LINE
8
BLACK
6
CONTINUOUS
10
5.9594555905511806
20
-3.8539129921259843
11
5.9625388976377955
21
-3.8485725590551181
0
LINE
8
BLACK
6
CONTINUOUS
10
5.9625388976377955
20
-3.8485725590551181
11
5.9668993307086611
21
-3.8442121259842517
0
LINE
8
BLACK
6
CONTINUOUS
10
5.9668993307086611
20
-3.8442121259842517
11
5.9722397637795277
21
-3.8411288188976376
0
LINE
8
BLACK
6
CONTINUOUS
10
5.9722397637795277
20
-3.8411288188976376
11
5.9781962204724408
21
-3.8395327952755904
0
LINE
8
BLACK
6
CONTINUOUS
10
5.9781962204724408
20
-3.8395327952755904
11
5.984362834645669
21
-3.8395327952755904
0
LINE
8
BLACK
6
CONTINUOUS
10
5.984362834645669
20
-3.8395327952755904
11
5.9903192913385821
21
-3.8411288188976376
0
LINE
8
BLACK
6
CONTINUOUS
10
5.1030926377952754
20
-3.6125558661417321
11
5.1088009055118109
21
-3.6140853937007873
0
LINE
8
BLACK
6
CONTINUOUS
10
5.1088009055118109
20
-3.6140853937007873
11
5.1139188188976377
21
-3.6170402362204723
0
LINE
8
BLACK
6
CONTINUOUS
10
5.1139188188976377
20
-3.6170402362204723
11
5.1180975590551183
21
-3.6212189763779525
0
LINE
8
BLACK
6
CONTINUOUS
10
5.1180975590551183
20
-3.6212189763779525
11
5.1210524015748033
21
-3.6263368897637793
0
LINE
8
BLACK
6
CONTINUOUS
10
5.1210524015748033
20
-3.6263368897637793
11
5.1225819291338581
21
-3.6320451574803148
0
LINE
8
BLACK
6
CONTINUOUS
10
5.1225819291338581
20
-3.6320451574803148
11
5.1225819291338581
21
-3.6379548425196848
0
LINE
8
BLACK
6
CONTINUOUS
10
5.1225819291338581
20
-3.6379548425196848
11
5.1210524015748033
21
-3.6436631102362202
0
LINE
8
BLACK
6
CONTINUOUS
10
5.1210524015748033
20
-3.6436631102362202
11
5.1180975590551183
21
-3.648781023622047
0
LINE
8
BLACK
6
CONTINUOUS
10
5.1180975590551183
20
-3.648781023622047
11
5.1139188188976377
21
-3.6529597637795277
0
LINE
8
BLACK
6
CONTINUOUS
10
5.1139188188976377
20
-3.6529597637795277
11
5.1088009055118109
21
-3.6559146062992127
0
LINE
8
BLACK
6
CONTINUOUS
10
5.1088009055118109
20
-3.6559146062992127
11
5.1030926377952754
21
-3.6574441338582675
0
LINE
8
BLACK
6
CONTINUOUS
10
5.1030926377952754
20
-3.6574441338582675
11
5.1001377952755904
21
-3.6576377952755905
0
LINE
8
BLACK
6
CONTINUOUS
10
5.1001377952755904
20
-3.6576377952755905
11
5.0587992125984247
21
-3.6576377952755905
0
LINE
8
BLACK
6
CONTINUOUS
10
5.0587992125984247
20
-3.6576377952755905
11
5.0558443700787397
21
-3.6574441338582675
0
LINE
8
BLACK
6
CONTINUOUS
10
5.0558443700787397
20
-3.6574441338582675
11
5.0501361023622042
21
-3.6559146062992127
0
LINE
8
BLACK
6
CONTINUOUS
10
5.0501361023622042
20
-3.6559146062992127
11
5.0450181889763774
21
-3.6529597637795277
0
LINE
8
BLACK
6
CONTINUOUS
10
5.0450181889763774
20
-3.6529597637795277
11
5.0408394488188977
21
-3.648781023622047
0
LINE
8
BLACK
6
CONTINUOUS
10
5.0408394488188977
20
-3.648781023622047
11
5.0378846062992126
21
-3.6436631102362202
0
LINE
8
BLACK
6
CONTINUOUS
10
5.0378846062992126
20
-3.6436631102362202
11
5.036355078740157
21
-3.6379548425196848
0
LINE
8
BLACK
6
CONTINUOUS
10
5.036355078740157
20
-3.6379548425196848
11
5.036355078740157
21
-3.6320451574803148
0
LINE
8
BLACK
6
CONTINUOUS
10
5.036355078740157
20
-3.6320451574803148
11
5.0378846062992126
21
-3.6263368897637793
0
LINE
8
BLACK
6
CONTINUOUS
10
5.0378846062992126
20
-3.6263368897637793
11
5.0408394488188977
21
-3.6212189763779525
0
LINE
8
BLACK
6
CONTINUOUS
10
5.0408394488188977
20
-3.6212189763779525
11
5.0450181889763774
21
-3.6170402362204723
0
LINE
8
BLACK
6
CONTINUOUS
10
5.0450181889763774
20
-3.6170402362204723
11
5.0501361023622042
21
-3.6140853937007873
0
LINE
8
BLACK
6
CONTINUOUS
10
5.0501361023622042
20
-3.6140853937007873
11
5.0558443700787397
21
-3.6125558661417321
0
LINE
8
BLACK
6
CONTINUOUS
10
5.0558443700787397
20
-3.6125558661417321
11
5.0587992125984247
21
-3.6123622047244095
0
LINE
8
BLACK
6
CONTINUOUS
10
5.0587992125984247
20
-3.6123622047244095
11
5.1001377952755904
21
-3.6123622047244095
0
LINE
8
BLACK
6
CONTINUOUS
10
5.1001377952755904
20
-3.6123622047244095
11
5.1030926377952754
21
-3.6125558661417321
0
LINE
8
BLACK
6
CONTINUOUS
10
4.9374129527559054
20
-3.6135316929133858
11
4.9428730708661419
21
-3.6149947244094487
0
LINE
8
BLACK
6
CONTINUOUS
10
4.9428730708661419
20
-3.6149947244094487
11
4.9477684645669289
21
-3.6178211023622047
0
LINE
8
BLACK
6
CONTINUOUS
10
4.9477684645669289
20
-3.6178211023622047
11
4.9517655118110238
21
-3.6218181496062991
0
LINE
8
BLACK
6
CONTINUOUS
10
4.9517655118110238
20
-3.6218181496062991
11
4.9545918897637797
21
-3.6267135433070865
0
LINE
8
BLACK
6
CONTINUOUS
10
4.9545918897637797
20
-3.6267135433070865
11
4.9560549212598426
21
-3.6321736614173226
0
LINE
8
BLACK
6
CONTINUOUS
10
4.9560549212598426
20
-3.6321736614173226
11
4.9560549212598426
21
-3.637826338582677
0
LINE
8
BLACK
6
CONTINUOUS
10
4.9560549212598426
20
-3.637826338582677
11
4.9545918897637797
21
-3.6432864566929135
0
LINE
8
BLACK
6
CONTINUOUS
10
4.9545918897637797
20
-3.6432864566929135
11
4.9517655118110238
21
-3.6481818503937009
0
LINE
8
BLACK
6
CONTINUOUS
10
4.9517655118110238
20
-3.6481818503937009
11
4.9477684645669289
21
-3.6521788976377954
0
LINE
8
BLACK
6
CONTINUOUS
10
4.9477684645669289
20
-3.6521788976377954
11
4.9428730708661419
21
-3.6550052755905509
0
LINE
8
BLACK
6
CONTINUOUS
10
4.9428730708661419
20
-3.6550052755905509
11
4.9374129527559054
21
-3.6564683070866142
0
LINE
8
BLACK
6
CONTINUOUS
10
4.9374129527559054
20
-3.6564683070866142
11
4.9345866141732282
21
-3.6566535433070864
0
LINE
8
BLACK
6
CONTINUOUS
10
4.9345866141732282
20
-3.6566535433070864
11
4.8952165354330708
21
-3.6566535433070864
0
LINE
8
BLACK
6
CONTINUOUS
10
4.8952165354330708
20
-3.6566535433070864
11
4.8923901968503936
21
-3.6564683070866142
0
LINE
8
BLACK
6
CONTINUOUS
10
4.8923901968503936
20
-3.6564683070866142
11
4.8869300787401571
21
-3.6550052755905509
0
LINE
8
BLACK
6
CONTINUOUS
10
4.8869300787401571
20
-3.6550052755905509
11
4.8820346850393701
21
-3.6521788976377954
0
LINE
8
BLACK
6
CONTINUOUS
10
4.8820346850393701
20
-3.6521788976377954
11
4.8780376377952752
21
-3.6481818503937009
0
LINE
8
BLACK
6
CONTINUOUS
10
4.8780376377952752
20
-3.6481818503937009
11
4.8752112598425192
21
-3.6432864566929135
0
LINE
8
BLACK
6
CONTINUOUS
10
4.8752112598425192
20
-3.6432864566929135
11
4.8737482283464564
21
-3.637826338582677
0
LINE
8
BLACK
6
CONTINUOUS
10
4.8737482283464564
20
-3.637826338582677
11
4.8737482283464564
21
-3.6321736614173226
0
LINE
8
BLACK
6
CONTINUOUS
10
4.8737482283464564
20
-3.6321736614173226
11
4.8752112598425192
21
-3.6267135433070865
0
LINE
8
BLACK
6
CONTINUOUS
10
4.8752112598425192
20
-3.6267135433070865
11
4.8780376377952752
21
-3.6218181496062991
0
LINE
8
BLACK
6
CONTINUOUS
10
4.8780376377952752
20
-3.6218181496062991
11
4.8820346850393701
21
-3.6178211023622047
0
LINE
8
BLACK
6
CONTINUOUS
10
4.8820346850393701
20
-3.6178211023622047
11
4.8869300787401571
21
-3.6149947244094487
0
LINE
8
BLACK
6
CONTINUOUS
10
4.8869300787401571
20
-3.6149947244094487
11
4.8923901968503936
21
-3.6135316929133858
0
LINE
8
BLACK
6
CONTINUOUS
10
4.8923901968503936
20
-3.6135316929133858
11
4.8952165354330708
21
-3.6133464566929132
0
LINE
8
BLACK
6
CONTINUOUS
10
4.8952165354330708
20
-3.6133464566929132
11
4.9345866141732282
21
-3.6133464566929132
0
LINE
8
BLACK
6
CONTINUOUS
10
4.9345866141732282
20
-3.6133464566929132
11
4.9374129527559054
21
-3.6135316929133858
0
LINE
8
BLACK
6
CONTINUOUS
10
5.0654333070866144
20
-3.5650608267716533
11
5.0687711023622049
21
-3.5669878740157479
0
LINE
8
BLACK
6
CONTINUOUS
10
5.0687711023622049
20
-3.5669878740157479
11
5.071496377952756
21
-3.569713149606299
0
LINE
8
BLACK
6
CONTINUOUS
10
5.071496377952756
20
-3.569713149606299
11
5.0734234251968502
21
-3.5730509448818899
0
LINE
8
BLACK
6
CONTINUOUS
10
5.0734234251968502
20
-3.5730509448818899
11
5.07442094488189
21
-3.5767737401574804
0
LINE
8
BLACK
6
CONTINUOUS
10
5.07442094488189
20
-3.5767737401574804
11
5.07442094488189
21
-3.5806278346456692
0
LINE
8
BLACK
6
CONTINUOUS
10
5.07442094488189
20
-3.5806278346456692
11
5.0734234251968502
21
-3.5843506299212597
0
LINE
8
BLACK
6
CONTINUOUS
10
5.0734234251968502
20
-3.5843506299212597
11
5.071496377952756
21
-3.5876884251968502
0
LINE
8
BLACK
6
CONTINUOUS
10
5.071496377952756
20
-3.5876884251968502
11
5.0687711023622049
21
-3.5904137007874013
0
LINE
8
BLACK
6
CONTINUOUS
10
5.0687711023622049
20
-3.5904137007874013
11
5.0654333070866144
21
-3.5923407480314959
0
LINE
8
BLACK
6
CONTINUOUS
10
5.0654333070866144
20
-3.5923407480314959
11
5.0617105118110235
21
-3.5933382677165353
0
LINE
8
BLACK
6
CONTINUOUS
10
5.0617105118110235
20
-3.5933382677165353
11
5.0578564173228342
21
-3.5933382677165353
0
LINE
8
BLACK
6
CONTINUOUS
10
5.0578564173228342
20
-3.5933382677165353
11
5.0541336220472441
21
-3.5923407480314959
0
LINE
8
BLACK
6
CONTINUOUS
10
5.0541336220472441
20
-3.5923407480314959
11
5.0507958267716537
21
-3.5904137007874013
0
LINE
8
BLACK
6
CONTINUOUS
10
5.0507958267716537
20
-3.5904137007874013
11
5.0480705511811026
21
-3.5876884251968502
0
LINE
8
BLACK
6
CONTINUOUS
10
5.0480705511811026
20
-3.5876884251968502
11
5.0461435039370075
21
-3.5843506299212597
0
LINE
8
BLACK
6
CONTINUOUS
10
5.0461435039370075
20
-3.5843506299212597
11
5.0451459842519686
21
-3.5806278346456692
0
LINE
8
BLACK
6
CONTINUOUS
10
5.0451459842519686
20
-3.5806278346456692
11
5.0451459842519686
21
-3.5767737401574804
0
LINE
8
BLACK
6
CONTINUOUS
10
5.0451459842519686
20
-3.5767737401574804
11
5.0461435039370075
21
-3.5730509448818899
0
LINE
8
BLACK
6
CONTINUOUS
10
5.0461435039370075
20
-3.5730509448818899
11
5.0480705511811026
21
-3.569713149606299
0
LINE
8
BLACK
6
CONTINUOUS
10
5.0480705511811026
20
-3.569713149606299
11
5.0507958267716537
21
-3.5669878740157479
0
LINE
8
BLACK
6
CONTINUOUS
10
5.0507958267716537
20
-3.5669878740157479
11
5.0541336220472441
21
-3.5650608267716533
0
LINE
8
BLACK
6
CONTINUOUS
10
5.0541336220472441
20
-3.5650608267716533
11
5.0578564173228342
21
-3.5640633070866139
0
LINE
8
BLACK
6
CONTINUOUS
10
5.0578564173228342
20
-3.5640633070866139
11
5.0617105118110235
21
-3.5640633070866139
0
LINE
8
BLACK
6
CONTINUOUS
10
5.0617105118110235
20
-3.5640633070866139
11
5.0654333070866144
21
-3.5650608267716533
0
LINE
8
BLACK
6
CONTINUOUS
10
5.0654333070866144
20
-3.3375017716535433
11
5.0687711023622049
21
-3.3394288188976375
0
LINE
8
BLACK
6
CONTINUOUS
10
5.0687711023622049
20
-3.3394288188976375
11
5.071496377952756
21
-3.3421540944881891
0
LINE
8
BLACK
6
CONTINUOUS
10
5.071496377952756
20
-3.3421540944881891
11
5.0734234251968502
21
-3.3454918897637795
0
LINE
8
BLACK
6
CONTINUOUS
10
5.0734234251968502
20
-3.3454918897637795
11
5.07442094488189
21
-3.34921468503937
0
LINE
8
BLACK
6
CONTINUOUS
10
5.07442094488189
20
-3.34921468503937
11
5.07442094488189
21
-3.3530687795275589
0
LINE
8
BLACK
6
CONTINUOUS
10
5.07442094488189
20
-3.3530687795275589
11
5.0734234251968502
21
-3.3567915748031494
0
LINE
8
BLACK
6
CONTINUOUS
10
5.0734234251968502
20
-3.3567915748031494
11
5.071496377952756
21
-3.3601293700787402
0
LINE
8
BLACK
6
CONTINUOUS
10
5.071496377952756
20
-3.3601293700787402
11
5.0687711023622049
21
-3.3628546456692914
0
LINE
8
BLACK
6
CONTINUOUS
10
5.0687711023622049
20
-3.3628546456692914
11
5.0654333070866144
21
-3.3647816929133856
0
LINE
8
BLACK
6
CONTINUOUS
10
5.0654333070866144
20
-3.3647816929133856
11
5.0617105118110235
21
-3.3657792125984249
0
LINE
8
BLACK
6
CONTINUOUS
10
5.0617105118110235
20
-3.3657792125984249
11
5.0578564173228342
21
-3.3657792125984249
0
LINE
8
BLACK
6
CONTINUOUS
10
5.0578564173228342
20
-3.3657792125984249
11
5.0541336220472441
21
-3.3647816929133856
0
LINE
8
BLACK
6
CONTINUOUS
10
5.0541336220472441
20
-3.3647816929133856
11
5.0507958267716537
21
-3.3628546456692914
0
LINE
8
BLACK
6
CONTINUOUS
10
5.0507958267716537
20
-3.3628546456692914
11
5.0480705511811026
21
-3.3601293700787402
0
LINE
8
BLACK
6
CONTINUOUS
10
5.0480705511811026
20
-3.3601293700787402
11
5.0461435039370075
21
-3.3567915748031494
0
LINE
8
BLACK
6
CONTINUOUS
10
5.0461435039370075
20
-3.3567915748031494
11
5.0451459842519686
21
-3.3530687795275589
0
LINE
8
BLACK
6
CONTINUOUS
10
5.0451459842519686
20
-3.3530687795275589
11
5.0451459842519686
21
-3.34921468503937
0
LINE
8
BLACK
6
CONTINUOUS
10
5.0451459842519686
20
-3.34921468503937
11
5.0461435039370075
21
-3.3454918897637795
0
LINE
8
BLACK
6
CONTINUOUS
10
5.0461435039370075
20
-3.3454918897637795
11
5.0480705511811026
21
-3.3421540944881891
0
LINE
8
BLACK
6
CONTINUOUS
10
5.0480705511811026
20
-3.3421540944881891
11
5.0507958267716537
21
-3.3394288188976375
0
LINE
8
BLACK
6
CONTINUOUS
10
5.0507958267716537
20
-3.3394288188976375
11
5.0541336220472441
21
-3.3375017716535433
0
LINE
8
BLACK
6
CONTINUOUS
10
5.0541336220472441
20
-3.3375017716535433
11
5.0578564173228342
21
-3.336504251968504
0
LINE
8
BLACK
6
CONTINUOUS
10
5.0578564173228342
20
-3.336504251968504
11
5.0617105118110235
21
-3.336504251968504
0
LINE
8
BLACK
6
CONTINUOUS
10
5.0617105118110235
20
-3.336504251968504
11
5.0654333070866144
21
-3.3375017716535433
0
LINE
8
BLACK
6
CONTINUOUS
10
5.1030926377952754
20
-3.2723983858267718
11
5.1088009055118109
21
-3.2739279133858266
0
LINE
8
BLACK
6
CONTINUOUS
10
5.1088009055118109
20
-3.2739279133858266
11
5.1139188188976377
21
-3.2768827559055116
0
LINE
8
BLACK
6
CONTINUOUS
10
5.1139188188976377
20
-3.2768827559055116
11
5.1180975590551183
21
-3.2810614960629922
0
LINE
8
BLACK
6
CONTINUOUS
10
5.1180975590551183
20
-3.2810614960629922
11
5.1210524015748033
21
-3.286179409448819
0
LINE
8
BLACK
6
CONTINUOUS
10
5.1210524015748033
20
-3.286179409448819
11
5.1225819291338581
21
-3.2918876771653545
0
LINE
8
BLACK
6
CONTINUOUS
10
5.1225819291338581
20
-3.2918876771653545
11
5.1225819291338581
21
-3.2977973622047245
0
LINE
8
BLACK
6
CONTINUOUS
10
5.1225819291338581
20
-3.2977973622047245
11
5.1210524015748033
21
-3.30350562992126
0
LINE
8
BLACK
6
CONTINUOUS
10
5.1210524015748033
20
-3.30350562992126
11
5.1180975590551183
21
-3.3086235433070867
0
LINE
8
BLACK
6
CONTINUOUS
10
5.1180975590551183
20
-3.3086235433070867
11
5.1139188188976377
21
-3.312802283464567
0
LINE
8
BLACK
6
CONTINUOUS
10
5.1139188188976377
20
-3.312802283464567
11
5.1088009055118109
21
-3.315757125984252
0
LINE
8
BLACK
6
CONTINUOUS
10
5.1088009055118109
20
-3.315757125984252
11
5.1030926377952754
21
-3.3172866535433072
0
LINE
8
BLACK
6
CONTINUOUS
10
5.1030926377952754
20
-3.3172866535433072
11
5.1001377952755904
21
-3.3174803149606298
0
LINE
8
BLACK
6
CONTINUOUS
10
5.1001377952755904
20
-3.3174803149606298
11
5.0587992125984247
21
-3.3174803149606298
0
LINE
8
BLACK
6
CONTINUOUS
10
5.0587992125984247
20
-3.3174803149606298
11
5.0558443700787397
21
-3.3172866535433072
0
LINE
8
BLACK
6
CONTINUOUS
10
5.0558443700787397
20
-3.3172866535433072
11
5.0501361023622042
21
-3.315757125984252
0
LINE
8
BLACK
6
CONTINUOUS
10
5.0501361023622042
20
-3.315757125984252
11
5.0450181889763774
21
-3.312802283464567
0
LINE
8
BLACK
6
CONTINUOUS
10
5.0450181889763774
20
-3.312802283464567
11
5.0408394488188977
21
-3.3086235433070867
0
LINE
8
BLACK
6
CONTINUOUS
10
5.0408394488188977
20
-3.3086235433070867
11
5.0378846062992126
21
-3.30350562992126
0
LINE
8
BLACK
6
CONTINUOUS
10
5.0378846062992126
20
-3.30350562992126
11
5.036355078740157
21
-3.2977973622047245
0
LINE
8
BLACK
6
CONTINUOUS
10
5.036355078740157
20
-3.2977973622047245
11
5.036355078740157
21
-3.2918876771653545
0
LINE
8
BLACK
6
CONTINUOUS
10
5.036355078740157
20
-3.2918876771653545
11
5.0378846062992126
21
-3.286179409448819
0
LINE
8
BLACK
6
CONTINUOUS
10
5.0378846062992126
20
-3.286179409448819
11
5.0408394488188977
21
-3.2810614960629922
0
LINE
8
BLACK
6
CONTINUOUS
10
5.0408394488188977
20
-3.2810614960629922
11
5.0450181889763774
21
-3.2768827559055116
0
LINE
8
BLACK
6
CONTINUOUS
10
5.0450181889763774
20
-3.2768827559055116
11
5.0501361023622042
21
-3.2739279133858266
0
LINE
8
BLACK
6
CONTINUOUS
10
5.0501361023622042
20
-3.2739279133858266
11
5.0558443700787397
21
-3.2723983858267718
0
LINE
8
BLACK
6
CONTINUOUS
10
5.0558443700787397
20
-3.2723983858267718
11
5.0587992125984247
21
-3.2722047244094488
0
LINE
8
BLACK
6
CONTINUOUS
10
5.0587992125984247
20
-3.2722047244094488
11
5.1001377952755904
21
-3.2722047244094488
0
LINE
8
BLACK
6
CONTINUOUS
10
5.1001377952755904
20
-3.2722047244094488
11
5.1030926377952754
21
-3.2723983858267718
0
LINE
8
BLACK
6
CONTINUOUS
10
4.9374129527559054
20
-3.2733742125984251
11
4.9428730708661419
21
-3.274837244094488
0
LINE
8
BLACK
6
CONTINUOUS
10
4.9428730708661419
20
-3.274837244094488
11
4.9477684645669289
21
-3.2776636220472439
0
LINE
8
BLACK
6
CONTINUOUS
10
4.9477684645669289
20
-3.2776636220472439
11
4.9517655118110238
21
-3.2816606692913384
0
LINE
8
BLACK
6
CONTINUOUS
10
4.9517655118110238
20
-3.2816606692913384
11
4.9545918897637797
21
-3.2865560629921258
0
LINE
8
BLACK
6
CONTINUOUS
10
4.9545918897637797
20
-3.2865560629921258
11
4.9560549212598426
21
-3.2920161811023623
0
LINE
8
BLACK
6
CONTINUOUS
10
4.9560549212598426
20
-3.2920161811023623
11
4.9560549212598426
21
-3.2976688582677163
0
LINE
8
BLACK
6
CONTINUOUS
10
4.9560549212598426
20
-3.2976688582677163
11
4.9545918897637797
21
-3.3031289763779528
0
LINE
8
BLACK
6
CONTINUOUS
10
4.9545918897637797
20
-3.3031289763779528
11
4.9517655118110238
21
-3.3080243700787402
0
LINE
8
BLACK
6
CONTINUOUS
10
4.9517655118110238
20
-3.3080243700787402
11
4.9477684645669289
21
-3.3120214173228346
0
LINE
8
BLACK
6
CONTINUOUS
10
4.9477684645669289
20
-3.3120214173228346
11
4.9428730708661419
21
-3.3148477952755906
0
LINE
8
BLACK
6
CONTINUOUS
10
4.9428730708661419
20
-3.3148477952755906
11
4.9374129527559054
21
-3.3163108267716535
0
LINE
8
BLACK
6
CONTINUOUS
10
4.9374129527559054
20
-3.3163108267716535
11
4.9345866141732282
21
-3.3164960629921261
0
LINE
8
BLACK
6
CONTINUOUS
10
4.9345866141732282
20
-3.3164960629921261
11
4.8952165354330708
21
-3.3164960629921261
0
LINE
8
BLACK
6
CONTINUOUS
10
4.8952165354330708
20
-3.3164960629921261
11
4.8923901968503936
21
-3.3163108267716535
0
LINE
8
BLACK
6
CONTINUOUS
10
4.8923901968503936
20
-3.3163108267716535
11
4.8869300787401571
21
-3.3148477952755906
0
LINE
8
BLACK
6
CONTINUOUS
10
4.8869300787401571
20
-3.3148477952755906
11
4.8820346850393701
21
-3.3120214173228346
0
LINE
8
BLACK
6
CONTINUOUS
10
4.8820346850393701
20
-3.3120214173228346
11
4.8780376377952752
21
-3.3080243700787402
0
LINE
8
BLACK
6
CONTINUOUS
10
4.8780376377952752
20
-3.3080243700787402
11
4.8752112598425192
21
-3.3031289763779528
0
LINE
8
BLACK
6
CONTINUOUS
10
4.8752112598425192
20
-3.3031289763779528
11
4.8737482283464564
21
-3.2976688582677163
0
LINE
8
BLACK
6
CONTINUOUS
10
4.8737482283464564
20
-3.2976688582677163
11
4.8737482283464564
21
-3.2920161811023623
0
LINE
8
BLACK
6
CONTINUOUS
10
4.8737482283464564
20
-3.2920161811023623
11
4.8752112598425192
21
-3.2865560629921258
0
LINE
8
BLACK
6
CONTINUOUS
10
4.8752112598425192
20
-3.2865560629921258
11
4.8780376377952752
21
-3.2816606692913384
0
LINE
8
BLACK
6
CONTINUOUS
10
4.8780376377952752
20
-3.2816606692913384
11
4.8820346850393701
21
-3.2776636220472439
0
LINE
8
BLACK
6
CONTINUOUS
10
4.8820346850393701
20
-3.2776636220472439
11
4.8869300787401571
21
-3.274837244094488
0
LINE
8
BLACK
6
CONTINUOUS
10
4.8869300787401571
20
-3.274837244094488
11
4.8923901968503936
21
-3.2733742125984251
0
LINE
8
BLACK
6
CONTINUOUS
10
4.8923901968503936
20
-3.2733742125984251
11
4.8952165354330708
21
-3.2731889763779525
0
LINE
8
BLACK
6
CONTINUOUS
10
4.8952165354330708
20
-3.2731889763779525
11
4.9345866141732282
21
-3.2731889763779525
0
LINE
8
BLACK
6
CONTINUOUS
10
4.9345866141732282
20
-3.2731889763779525
11
4.9374129527559054
21
-3.2733742125984251
0
LINE
8
BLACK
6
CONTINUOUS
10
5.0468265354330706
20
-2.9583501181102361
11
5.0599546456692917
21
-2.9613465354330706
0
LINE
8
BLACK
6
CONTINUOUS
10
5.0599546456692917
20
-2.9613465354330706
11
5.0726647244094485
21
-2.9657939763779528
0
LINE
8
BLACK
6
CONTINUOUS
10
5.0726647244094485
20
-2.9657939763779528
11
5.0847969685039365
21
-2.9716365748031497
0
LINE
8
BLACK
6
CONTINUOUS
10
5.0847969685039365
20
-2.9716365748031497
11
5.0961987007874017
21
-2.978800748031496
0
LINE
8
BLACK
6
CONTINUOUS
10
5.0961987007874017
20
-2.978800748031496
11
5.1067266535433067
21
-2.987196496062992
0
LINE
8
BLACK
6
CONTINUOUS
10
5.1067266535433067
20
-2.987196496062992
11
5.1162483858267711
21
-2.9967182283464564
0
LINE
8
BLACK
6
CONTINUOUS
10
5.1162483858267711
20
-2.9967182283464564
11
5.1246441338582676
21
-3.0072461811023623
0
LINE
8
BLACK
6
CONTINUOUS
10
5.1246441338582676
20
-3.0072461811023623
11
5.1318083070866143
21
-3.0186479133858266
0
LINE
8
BLACK
6
CONTINUOUS
10
5.1318083070866143
20
-3.0186479133858266
11
5.1376509055118111
21
-3.030780157480315
0
LINE
8
BLACK
6
CONTINUOUS
10
5.1376509055118111
20
-3.030780157480315
11
5.1420983464566925
21
-3.0434902362204723
0
LINE
8
BLACK
6
CONTINUOUS
10
5.1420983464566925
20
-3.0434902362204723
11
5.145094763779527
21
-3.0566183464566929
0
LINE
8
BLACK
6
CONTINUOUS
10
5.145094763779527
20
-3.0566183464566929
11
5.1466024409448821
21
-3.069999409448819
0
LINE
8
BLACK
6
CONTINUOUS
10
5.1466024409448821
20
-3.069999409448819
11
5.1466024409448821
21
-3.0834651574803149
0
LINE
8
BLACK
6
CONTINUOUS
10
5.1466024409448821
20
-3.0834651574803149
11
5.145094763779527
21
-3.096846220472441
0
LINE
8
BLACK
6
CONTINUOUS
10
5.145094763779527
20
-3.096846220472441
11
5.1420983464566925
21
-3.1099743307086611
0
LINE
8
BLACK
6
CONTINUOUS
10
5.1420983464566925
20
-3.1099743307086611
11
5.1376509055118111
21
-3.1226844094488189
0
LINE
8
BLACK
6
CONTINUOUS
10
5.1376509055118111
20
-3.1226844094488189
11
5.1318083070866143
21
-3.1348166535433069
0
LINE
8
BLACK
6
CONTINUOUS
10
5.1318083070866143
20
-3.1348166535433069
11
5.1246441338582676
21
-3.1462183858267716
0
LINE
8
BLACK
6
CONTINUOUS
10
5.1246441338582676
20
-3.1462183858267716
11
5.1162483858267711
21
-3.1567463385826771
0
LINE
8
BLACK
6
CONTINUOUS
10
5.1162483858267711
20
-3.1567463385826771
11
5.1067266535433067
21
-3.1662680708661415
0
LINE
8
BLACK
6
CONTINUOUS
10
5.1067266535433067
20
-3.1662680708661415
11
5.0961987007874017
21
-3.1746638188976379
0
LINE
8
BLACK
6
CONTINUOUS
10
5.0961987007874017
20
-3.1746638188976379
11
5.0847969685039365
21
-3.1818279921259842
0
LINE
8
BLACK
6
CONTINUOUS
10
5.0847969685039365
20
-3.1818279921259842
11
5.0726647244094485
21
-3.1876705905511811
0
LINE
8
BLACK
6
CONTINUOUS
10
5.0726647244094485
20
-3.1876705905511811
11
5.0599546456692917
21
-3.1921180314960629
0
LINE
8
BLACK
6
CONTINUOUS
10
5.0599546456692917
20
-3.1921180314960629
11
5.0468265354330706
21
-3.1951144488188974
0
LINE
8
BLACK
6
CONTINUOUS
10
5.0468265354330706
20
-3.1951144488188974
11
5.0334454724409445
21
-3.196622125984252
0
LINE
8
BLACK
6
CONTINUOUS
10
5.0334454724409445
20
-3.196622125984252
11
5.0199797244094491
21
-3.196622125984252
0
LINE
8
BLACK
6
CONTINUOUS
10
5.0199797244094491
20
-3.196622125984252
11
5.006598661417323
21
-3.1951144488188974
0
LINE
8
BLACK
6
CONTINUOUS
10
5.006598661417323
20
-3.1951144488188974
11
4.9934705511811019
21
-3.1921180314960629
0
LINE
8
BLACK
6
CONTINUOUS
10
4.9934705511811019
20
-3.1921180314960629
11
4.9807604724409451
21
-3.1876705905511811
0
LINE
8
BLACK
6
CONTINUOUS
10
4.9807604724409451
20
-3.1876705905511811
11
4.9686282283464562
21
-3.1818279921259842
0
LINE
8
BLACK
6
CONTINUOUS
10
4.9686282283464562
20
-3.1818279921259842
11
4.9572264960629919
21
-3.1746638188976379
0
LINE
8
BLACK
6
CONTINUOUS
10
4.9572264960629919
20
-3.1746638188976379
11
4.9466985433070869
21
-3.1662680708661415
0
LINE
8
BLACK
6
CONTINUOUS
10
4.9466985433070869
20
-3.1662680708661415
11
4.9371768110236216
21
-3.1567463385826771
0
LINE
8
BLACK
6
CONTINUOUS
10
4.9371768110236216
20
-3.1567463385826771
11
4.928781062992126
21
-3.1462183858267716
0
LINE
8
BLACK
6
CONTINUOUS
10
4.928781062992126
20
-3.1462183858267716
11
4.9216168897637793
21
-3.1348166535433069
0
LINE
8
BLACK
6
CONTINUOUS
10
4.9216168897637793
20
-3.1348166535433069
11
4.9157742913385825
21
-3.1226844094488189
0
LINE
8
BLACK
6
CONTINUOUS
10
4.9157742913385825
20
-3.1226844094488189
11
4.9113268503937011
21
-3.1099743307086611
0
LINE
8
BLACK
6
CONTINUOUS
10
4.9113268503937011
20
-3.1099743307086611
11
4.9083304330708657
21
-3.096846220472441
0
LINE
8
BLACK
6
CONTINUOUS
10
4.9083304330708657
20
-3.096846220472441
11
4.9068227559055115
21
-3.0834651574803149
0
LINE
8
BLACK
6
CONTINUOUS
10
4.9068227559055115
20
-3.0834651574803149
11
4.9068227559055115
21
-3.069999409448819
0
LINE
8
BLACK
6
CONTINUOUS
10
4.9068227559055115
20
-3.069999409448819
11
4.9083304330708657
21
-3.0566183464566929
0
LINE
8
BLACK
6
CONTINUOUS
10
4.9083304330708657
20
-3.0566183464566929
11
4.9113268503937011
21
-3.0434902362204723
0
LINE
8
BLACK
6
CONTINUOUS
10
4.9113268503937011
20
-3.0434902362204723
11
4.9157742913385825
21
-3.030780157480315
0
LINE
8
BLACK
6
CONTINUOUS
10
4.9157742913385825
20
-3.030780157480315
11
4.9216168897637793
21
-3.0186479133858266
0
LINE
8
BLACK
6
CONTINUOUS
10
4.9216168897637793
20
-3.0186479133858266
11
4.928781062992126
21
-3.0072461811023623
0
LINE
8
BLACK
6
CONTINUOUS
10
4.928781062992126
20
-3.0072461811023623
11
4.9371768110236216
21
-2.9967182283464564
0
LINE
8
BLACK
6
CONTINUOUS
10
4.9371768110236216
20
-2.9967182283464564
11
4.9466985433070869
21
-2.987196496062992
0
LINE
8
BLACK
6
CONTINUOUS
10
4.9466985433070869
20
-2.987196496062992
11
4.9572264960629919
21
-2.978800748031496
0
LINE
8
BLACK
6
CONTINUOUS
10
4.9572264960629919
20
-2.978800748031496
11
4.9686282283464562
21
-2.9716365748031497
0
LINE
8
BLACK
6
CONTINUOUS
10
4.9686282283464562
20
-2.9716365748031497
11
4.9807604724409451
21
-2.9657939763779528
0
LINE
8
BLACK
6
CONTINUOUS
10
4.9807604724409451
20
-2.9657939763779528
11
4.9934705511811019
21
-2.9613465354330706
0
LINE
8
BLACK
6
CONTINUOUS
10
4.9934705511811019
20
-2.9613465354330706
11
5.006598661417323
21
-2.9583501181102361
0
LINE
8
BLACK
6
CONTINUOUS
10
5.006598661417323
20
-2.9583501181102361
11
5.0199797244094491
21
-2.9568424409448819
0
LINE
8
BLACK
6
CONTINUOUS
10
5.0199797244094491
20
-2.9568424409448819
11
5.0334454724409445
21
-2.9568424409448819
0
LINE
8
BLACK
6
CONTINUOUS
10
5.0334454724409445
20
-2.9568424409448819
11
5.0468265354330706
21
-2.9583501181102361
0
LINE
8
BLACK
6
CONTINUOUS
10
6.6232044881889767
20
-2.9583501181102361
11
6.6363325984251968
21
-2.9613465354330706
0
LINE
8
BLACK
6
CONTINUOUS
10
6.6363325984251968
20
-2.9613465354330706
11
6.6490426771653546
21
-2.9657939763779528
0
LINE
8
BLACK
6
CONTINUOUS
10
6.6490426771653546
20
-2.9657939763779528
11
6.6611749212598426
21
-2.9716365748031497
0
LINE
8
BLACK
6
CONTINUOUS
10
6.6611749212598426
20
-2.9716365748031497
11
6.6725766535433069
21
-2.978800748031496
0
LINE
8
BLACK
6
CONTINUOUS
10
6.6725766535433069
20
-2.978800748031496
11
6.6831046062992128
21
-2.987196496062992
0
LINE
8
BLACK
6
CONTINUOUS
10
6.6831046062992128
20
-2.987196496062992
11
6.6926263385826772
21
-2.9967182283464564
0
LINE
8
BLACK
6
CONTINUOUS
10
6.6926263385826772
20
-2.9967182283464564
11
6.7010220866141728
21
-3.0072461811023623
0
LINE
8
BLACK
6
CONTINUOUS
10
6.7010220866141728
20
-3.0072461811023623
11
6.7081862598425195
21
-3.0186479133858266
0
LINE
8
BLACK
6
CONTINUOUS
10
6.7081862598425195
20
-3.0186479133858266
11
6.7140288582677163
21
-3.030780157480315
0
LINE
8
BLACK
6
CONTINUOUS
10
6.7140288582677163
20
-3.030780157480315
11
6.7184762992125986
21
-3.0434902362204723
0
LINE
8
BLACK
6
CONTINUOUS
10
6.7184762992125986
20
-3.0434902362204723
11
6.7214727165354331
21
-3.0566183464566929
0
LINE
8
BLACK
6
CONTINUOUS
10
6.7214727165354331
20
-3.0566183464566929
11
6.7229803937007873
21
-3.069999409448819
0
LINE
8
BLACK
6
CONTINUOUS
10
6.7229803937007873
20
-3.069999409448819
11
6.7229803937007873
21
-3.0834651574803149
0
LINE
8
BLACK
6
CONTINUOUS
10
6.7229803937007873
20
-3.0834651574803149
11
6.7214727165354331
21
-3.096846220472441
0
LINE
8
BLACK
6
CONTINUOUS
10
6.7214727165354331
20
-3.096846220472441
11
6.7184762992125986
21
-3.1099743307086611
0
LINE
8
BLACK
6
CONTINUOUS
10
6.7184762992125986
20
-3.1099743307086611
11
6.7140288582677163
21
-3.1226844094488189
0
LINE
8
BLACK
6
CONTINUOUS
10
6.7140288582677163
20
-3.1226844094488189
11
6.7081862598425195
21
-3.1348166535433069
0
LINE
8
BLACK
6
CONTINUOUS
10
6.7081862598425195
20
-3.1348166535433069
11
6.7010220866141728
21
-3.1462183858267716
0
LINE
8
BLACK
6
CONTINUOUS
10
6.7010220866141728
20
-3.1462183858267716
11
6.6926263385826772
21
-3.1567463385826771
0
LINE
8
BLACK
6
CONTINUOUS
10
6.6926263385826772
20
-3.1567463385826771
11
6.6831046062992128
21
-3.1662680708661415
0
LINE
8
BLACK
6
CONTINUOUS
10
6.6831046062992128
20
-3.1662680708661415
11
6.6725766535433069
21
-3.1746638188976379
0
LINE
8
BLACK
6
CONTINUOUS
10
6.6725766535433069
20
-3.1746638188976379
11
6.6611749212598426
21
-3.1818279921259842
0
LINE
8
BLACK
6
CONTINUOUS
10
6.6611749212598426
20
-3.1818279921259842
11
6.6490426771653546
21
-3.1876705905511811
0
LINE
8
BLACK
6
CONTINUOUS
10
6.6490426771653546
20
-3.1876705905511811
11
6.6363325984251968
21
-3.1921180314960629
0
LINE
8
BLACK
6
CONTINUOUS
10
6.6363325984251968
20
-3.1921180314960629
11
6.6232044881889767
21
-3.1951144488188974
0
LINE
8
BLACK
6
CONTINUOUS
10
6.6232044881889767
20
-3.1951144488188974
11
6.6098234251968506
21
-3.196622125984252
0
LINE
8
BLACK
6
CONTINUOUS
10
6.6098234251968506
20
-3.196622125984252
11
6.5963576771653543
21
-3.196622125984252
0
LINE
8
BLACK
6
CONTINUOUS
10
6.5963576771653543
20
-3.196622125984252
11
6.5829766141732282
21
-3.1951144488188974
0
LINE
8
BLACK
6
CONTINUOUS
10
6.5829766141732282
20
-3.1951144488188974
11
6.569848503937008
21
-3.1921180314960629
0
LINE
8
BLACK
6
CONTINUOUS
10
6.569848503937008
20
-3.1921180314960629
11
6.5571384251968503
21
-3.1876705905511811
0
LINE
8
BLACK
6
CONTINUOUS
10
6.5571384251968503
20
-3.1876705905511811
11
6.5450061811023623
21
-3.1818279921259842
0
LINE
8
BLACK
6
CONTINUOUS
10
6.5450061811023623
20
-3.1818279921259842
11
6.5336044488188971
21
-3.1746638188976379
0
LINE
8
BLACK
6
CONTINUOUS
10
6.5336044488188971
20
-3.1746638188976379
11
6.5230764960629921
21
-3.1662680708661415
0
LINE
8
BLACK
6
CONTINUOUS
10
6.5230764960629921
20
-3.1662680708661415
11
6.5135547637795277
21
-3.1567463385826771
0
LINE
8
BLACK
6
CONTINUOUS
10
6.5135547637795277
20
-3.1567463385826771
11
6.5051590157480312
21
-3.1462183858267716
0
LINE
8
BLACK
6
CONTINUOUS
10
6.5051590157480312
20
-3.1462183858267716
11
6.4979948425196845
21
-3.1348166535433069
0
LINE
8
BLACK
6
CONTINUOUS
10
6.4979948425196845
20
-3.1348166535433069
11
6.4921522440944877
21
-3.1226844094488189
0
LINE
8
BLACK
6
CONTINUOUS
10
6.4921522440944877
20
-3.1226844094488189
11
6.4877048031496063
21
-3.1099743307086611
0
LINE
8
BLACK
6
CONTINUOUS
10
6.4877048031496063
20
-3.1099743307086611
11
6.4847083858267718
21
-3.096846220472441
0
LINE
8
BLACK
6
CONTINUOUS
10
6.4847083858267718
20
-3.096846220472441
11
6.4832007086614167
21
-3.0834651574803149
0
LINE
8
BLACK
6
CONTINUOUS
10
6.4832007086614167
20
-3.0834651574803149
11
6.4832007086614167
21
-3.069999409448819
0
LINE
8
BLACK
6
CONTINUOUS
10
6.4832007086614167
20
-3.069999409448819
11
6.4847083858267718
21
-3.0566183464566929
0
LINE
8
BLACK
6
CONTINUOUS
10
6.4847083858267718
20
-3.0566183464566929
11
6.4877048031496063
21
-3.0434902362204723
0
LINE
8
BLACK
6
CONTINUOUS
10
6.4877048031496063
20
-3.0434902362204723
11
6.4921522440944877
21
-3.030780157480315
0
LINE
8
BLACK
6
CONTINUOUS
10
6.4921522440944877
20
-3.030780157480315
11
6.4979948425196845
21
-3.0186479133858266
0
LINE
8
BLACK
6
CONTINUOUS
10
6.4979948425196845
20
-3.0186479133858266
11
6.5051590157480312
21
-3.0072461811023623
0
LINE
8
BLACK
6
CONTINUOUS
10
6.5051590157480312
20
-3.0072461811023623
11
6.5135547637795277
21
-2.9967182283464564
0
LINE
8
BLACK
6
CONTINUOUS
10
6.5135547637795277
20
-2.9967182283464564
11
6.5230764960629921
21
-2.987196496062992
0
LINE
8
BLACK
6
CONTINUOUS
10
6.5230764960629921
20
-2.987196496062992
11
6.5336044488188971
21
-2.978800748031496
0
LINE
8
BLACK
6
CONTINUOUS
10
6.5336044488188971
20
-2.978800748031496
11
6.5450061811023623
21
-2.9716365748031497
0
LINE
8
BLACK
6
CONTINUOUS
10
6.5450061811023623
20
-2.9716365748031497
11
6.5571384251968503
21
-2.9657939763779528
0
LINE
8
BLACK
6
CONTINUOUS
10
6.5571384251968503
20
-2.9657939763779528
11
6.569848503937008
21
-2.9613465354330706
0
LINE
8
BLACK
6
CONTINUOUS
10
6.569848503937008
20
-2.9613465354330706
11
6.5829766141732282
21
-2.9583501181102361
0
LINE
8
BLACK
6
CONTINUOUS
10
6.5829766141732282
20
-2.9583501181102361
11
6.5963576771653543
21
-2.9568424409448819
0
LINE
8
BLACK
6
CONTINUOUS
10
6.5963576771653543
20
-2.9568424409448819
11
6.6098234251968506
21
-2.9568424409448819
0
LINE
8
BLACK
6
CONTINUOUS
10
6.6098234251968506
20
-2.9568424409448819
11
6.6232044881889767
21
-2.9583501181102361
0
CIRCLE
8
BLACK
10
6.6030905511811024
20
-4.6531102362204724
40
0.0068897637795276
0
CIRCLE
8
BLACK
10
5.0267125984251964
20
-4.6531102362204724
40
0.0068897637795276
0
CIRCLE
8
BLACK
10
6.6030905511811024
20
-3.0767322834645667
40
0.0068897637795276
0
CIRCLE
8
BLACK
10
5.9812795275590549
20
-3.8629527559055119
40
0.0068897637795276
0
CIRCLE
8
BLACK
10
5.0267125984251964
20
-3.0767322834645667
40
0.0068897637795276
0
CIRCLE
8
BLACK
10
5.0597834645669293
20
-3.5787007874015746
40
0.0068897637795276
0
CIRCLE
8
BLACK
10
5.0597834645669293
20
-3.3511417322834647
40
0.0068897637795276
0
LINE
8
BLACK
6
CONTINUOUS
10
4.9321912598425195
20
-3.6232900393700787
11
4.9351694881889765
21
-3.6240880314960631
0
LINE
8
BLACK
6
CONTINUOUS
10
4.9351694881889765
20
-3.6240880314960631
11
4.9378396850393695
21
-3.6256296850393701
0
LINE
8
BLACK
6
CONTINUOUS
10
4.9378396850393695
20
-3.6256296850393701
11
4.9400199212598421
21
-3.6278099212598423
0
LINE
8
BLACK
6
CONTINUOUS
10
4.9400199212598421
20
-3.6278099212598423
11
4.9415615748031492
21
-3.6304801181102362
0
LINE
8
BLACK
6
CONTINUOUS
10
4.9415615748031492
20
-3.6304801181102362
11
4.9423595669291336
21
-3.6334583464566927
0
LINE
8
BLACK
6
CONTINUOUS
10
4.9423595669291336
20
-3.6334583464566927
11
4.9423595669291336
21
-3.6365416535433068
0
LINE
8
BLACK
6
CONTINUOUS
10
4.9423595669291336
20
-3.6365416535433068
11
4.9415615748031492
21
-3.6395198818897638
0
LINE
8
BLACK
6
CONTINUOUS
10
4.9415615748031492
20
-3.6395198818897638
11
4.9400199212598421
21
-3.6421900787401573
0
LINE
8
BLACK
6
CONTINUOUS
10
4.9400199212598421
20
-3.6421900787401573
11
4.9378396850393695
21
-3.6443703149606299
0
LINE
8
BLACK
6
CONTINUOUS
10
4.9378396850393695
20
-3.6443703149606299
11
4.9351694881889765
21
-3.645911968503937
0
LINE
8
BLACK
6
CONTINUOUS
10
4.9351694881889765
20
-3.645911968503937
11
4.9321912598425195
21
-3.6467099606299214
0
LINE
8
BLACK
6
CONTINUOUS
10
4.9321912598425195
20
-3.6467099606299214
11
4.9306496062992125
21
-3.646811023622047
0
LINE
8
BLACK
6
CONTINUOUS
10
4.9306496062992125
20
-3.646811023622047
11
4.8991535433070865
21
-3.646811023622047
0
LINE
8
BLACK
6
CONTINUOUS
10
4.8991535433070865
20
-3.646811023622047
11
4.8976118897637795
21
-3.6467099606299214
0
LINE
8
BLACK
6
CONTINUOUS
10
4.8976118897637795
20
-3.6467099606299214
11
4.8946336614173225
21
-3.645911968503937
0
LINE
8
BLACK
6
CONTINUOUS
10
4.8946336614173225
20
-3.645911968503937
11
4.8919634645669294
21
-3.6443703149606299
0
LINE
8
BLACK
6
CONTINUOUS
10
4.8919634645669294
20
-3.6443703149606299
11
4.8897832283464568
21
-3.6421900787401573
0
LINE
8
BLACK
6
CONTINUOUS
10
4.8897832283464568
20
-3.6421900787401573
11
4.8882415748031498
21
-3.6395198818897638
0
LINE
8
BLACK
6
CONTINUOUS
10
4.8882415748031498
20
-3.6395198818897638
11
4.8874435826771654
21
-3.6365416535433068
0
LINE
8
BLACK
6
CONTINUOUS
10
4.8874435826771654
20
-3.6365416535433068
11
4.8874435826771654
21
-3.6334583464566927
0
LINE
8
BLACK
6
CONTINUOUS
10
4.8874435826771654
20
-3.6334583464566927
11
4.8882415748031498
21
-3.6304801181102362
0
LINE
8
BLACK
6
CONTINUOUS
10
4.8882415748031498
20
-3.6304801181102362
11
4.8897832283464568
21
-3.6278099212598423
0
LINE
8
BLACK
6
CONTINUOUS
10
4.8897832283464568
20
-3.6278099212598423
11
4.8919634645669294
21
-3.6256296850393701
0
LINE
8
BLACK
6
CONTINUOUS
10
4.8919634645669294
20
-3.6256296850393701
11
4.8946336614173225
21
-3.6240880314960631
0
LINE
8
BLACK
6
CONTINUOUS
10
4.8946336614173225
20
-3.6240880314960631
11
4.8976118897637795
21
-3.6232900393700787
0
LINE
8
BLACK
6
CONTINUOUS
10
4.8976118897637795
20
-3.6232900393700787
11
4.8991535433070865
21
-3.6231889763779526
0
LINE
8
BLACK
6
CONTINUOUS
10
4.8991535433070865
20
-3.6231889763779526
11
4.9306496062992125
21
-3.6231889763779526
0
LINE
8
BLACK
6
CONTINUOUS
10
4.9306496062992125
20
-3.6231889763779526
11
4.9321912598425195
21
-3.6232900393700787
0
LINE
8
BLACK
6
CONTINUOUS
10
4.9321912598425195
20
-3.2831325590551179
11
4.9351694881889765
21
-3.2839305511811023
0
LINE
8
BLACK
6
CONTINUOUS
10
4.9351694881889765
20
-3.2839305511811023
11
4.9378396850393695
21
-3.2854722047244094
0
LINE
8
BLACK
6
CONTINUOUS
10
4.9378396850393695
20
-3.2854722047244094
11
4.9400199212598421
21
-3.287652440944882
0
LINE
8
BLACK
6
CONTINUOUS
10
4.9400199212598421
20
-3.287652440944882
11
4.9415615748031492
21
-3.2903226377952755
0
LINE
8
BLACK
6
CONTINUOUS
10
4.9415615748031492
20
-3.2903226377952755
11
4.9423595669291336
21
-3.293300866141732
0
LINE
8
BLACK
6
CONTINUOUS
10
4.9423595669291336
20
-3.293300866141732
11
4.9423595669291336
21
-3.2963841732283465
0
LINE
8
BLACK
6
CONTINUOUS
10
4.9423595669291336
20
-3.2963841732283465
11
4.9415615748031492
21
-3.2993624015748031
0
LINE
8
BLACK
6
CONTINUOUS
10
4.9415615748031492
20
-3.2993624015748031
11
4.9400199212598421
21
-3.3020325984251966
0
LINE
8
BLACK
6
CONTINUOUS
10
4.9400199212598421
20
-3.3020325984251966
11
4.9378396850393695
21
-3.3042128346456692
0
LINE
8
BLACK
6
CONTINUOUS
10
4.9378396850393695
20
-3.3042128346456692
11
4.9351694881889765
21
-3.3057544881889762
0
LINE
8
BLACK
6
CONTINUOUS
10
4.9351694881889765
20
-3.3057544881889762
11
4.9321912598425195
21
-3.3065524803149606
0
LINE
8
BLACK
6
CONTINUOUS
10
4.9321912598425195
20
-3.3065524803149606
11
4.9306496062992125
21
-3.3066535433070867
0
LINE
8
BLACK
6
CONTINUOUS
10
4.9306496062992125
20
-3.3066535433070867
11
4.8991535433070865
21
-3.3066535433070867
0
LINE
8
BLACK
6
CONTINUOUS
10
4.8991535433070865
20
-3.3066535433070867
11
4.8976118897637795
21
-3.3065524803149606
0
LINE
8
BLACK
6
CONTINUOUS
10
4.8976118897637795
20
-3.3065524803149606
11
4.8946336614173225
21
-3.3057544881889762
0
LINE
8
BLACK
6
CONTINUOUS
10
4.8946336614173225
20
-3.3057544881889762
11
4.8919634645669294
21
-3.3042128346456692
0
LINE
8
BLACK
6
CONTINUOUS
10
4.8919634645669294
20
-3.3042128346456692
11
4.8897832283464568
21
-3.3020325984251966
0
LINE
8
BLACK
6
CONTINUOUS
10
4.8897832283464568
20
-3.3020325984251966
11
4.8882415748031498
21
-3.2993624015748031
0
LINE
8
BLACK
6
CONTINUOUS
10
4.8882415748031498
20
-3.2993624015748031
11
4.8874435826771654
21
-3.2963841732283465
0
LINE
8
BLACK
6
CONTINUOUS
10
4.8874435826771654
20
-3.2963841732283465
11
4.8874435826771654
21
-3.293300866141732
0
LINE
8
BLACK
6
CONTINUOUS
10
4.8874435826771654
20
-3.293300866141732
11
4.8882415748031498
21
-3.2903226377952755
0
LINE
8
BLACK
6
CONTINUOUS
10
4.8882415748031498
20
-3.2903226377952755
11
4.8897832283464568
21
-3.287652440944882
0
LINE
8
BLACK
6
CONTINUOUS
10
4.8897832283464568
20
-3.287652440944882
11
4.8919634645669294
21
-3.2854722047244094
0
LINE
8
BLACK
6
CONTINUOUS
10
4.8919634645669294
20
-3.2854722047244094
11
4.8946336614173225
21
-3.2839305511811023
0
LINE
8
BLACK
6
CONTINUOUS
10
4.8946336614173225
20
-3.2839305511811023
11
4.8976118897637795
21
-3.2831325590551179
0
LINE
8
BLACK
6
CONTINUOUS
10
4.8976118897637795
20
-3.2831325590551179
11
4.8991535433070865
21
-3.2830314960629923
0
LINE
8
BLACK
6
CONTINUOUS
10
4.8991535433070865
20
-3.2830314960629923
11
4.9306496062992125
21
-3.2830314960629923
0
LINE
8
BLACK
6
CONTINUOUS
10
4.9306496062992125
20
-3.2830314960629923
11
4.9321912598425195
21
-3.2831325590551179
0
LINE
8
BLACK
6
CONTINUOUS
10
5.1026637007874012
20
-3.6232900393700787
11
5.1056419291338582
21
-3.6240880314960631
0
LINE
8
BLACK
6
CONTINUOUS
10
5.1056419291338582
20
-3.6240880314960631
11
5.1083121259842521
21
-3.6256296850393701
0
LINE
8
BLACK
6
CONTINUOUS
10
5.1083121259842521
20
-3.6256296850393701
11
5.1104923622047247
21
-3.6278099212598423
0
LINE
8
BLACK
6
CONTINUOUS
10
5.1104923622047247
20
-3.6278099212598423
11
5.1120340157480317
21
-3.6304801181102362
0
LINE
8
BLACK
6
CONTINUOUS
10
5.1120340157480317
20
-3.6304801181102362
11
5.1128320078740153
21
-3.6334583464566927
0
LINE
8
BLACK
6
CONTINUOUS
10
5.1128320078740153
20
-3.6334583464566927
11
5.1128320078740153
21
-3.6365416535433068
0
LINE
8
BLACK
6
CONTINUOUS
10
5.1128320078740153
20
-3.6365416535433068
11
5.1120340157480317
21
-3.6395198818897638
0
LINE
8
BLACK
6
CONTINUOUS
10
5.1120340157480317
20
-3.6395198818897638
11
5.1104923622047247
21
-3.6421900787401573
0
LINE
8
BLACK
6
CONTINUOUS
10
5.1104923622047247
20
-3.6421900787401573
11
5.1083121259842521
21
-3.6443703149606299
0
LINE
8
BLACK
6
CONTINUOUS
10
5.1083121259842521
20
-3.6443703149606299
11
5.1056419291338582
21
-3.645911968503937
0
LINE
8
BLACK
6
CONTINUOUS
10
5.1056419291338582
20
-3.645911968503937
11
5.1026637007874012
21
-3.6467099606299214
0
LINE
8
BLACK
6
CONTINUOUS
10
5.1026637007874012
20
-3.6467099606299214
11
5.1011220472440941
21
-3.646811023622047
0
LINE
8
BLACK
6
CONTINUOUS
10
5.1011220472440941
20
-3.646811023622047
11
5.057814960629921
21
-3.646811023622047
0
LINE
8
BLACK
6
CONTINUOUS
10
5.057814960629921
20
-3.646811023622047
11
5.0562733070866139
21
-3.6467099606299214
0
LINE
8
BLACK
6
CONTINUOUS
10
5.0562733070866139
20
-3.6467099606299214
11
5.0532950787401569
21
-3.645911968503937
0
LINE
8
BLACK
6
CONTINUOUS
10
5.0532950787401569
20
-3.645911968503937
11
5.0506248818897639
21
-3.6443703149606299
0
LINE
8
BLACK
6
CONTINUOUS
10
5.0506248818897639
20
-3.6443703149606299
11
5.0484446456692913
21
-3.6421900787401573
0
LINE
8
BLACK
6
CONTINUOUS
10
5.0484446456692913
20
-3.6421900787401573
11
5.0469029921259843
21
-3.6395198818897638
0
LINE
8
BLACK
6
CONTINUOUS
10
5.0469029921259843
20
-3.6395198818897638
11
5.0461049999999998
21
-3.6365416535433068
0
LINE
8
BLACK
6
CONTINUOUS
10
5.0461049999999998
20
-3.6365416535433068
11
5.0461049999999998
21
-3.6334583464566927
0
LINE
8
BLACK
6
CONTINUOUS
10
5.0461049999999998
20
-3.6334583464566927
11
5.0469029921259843
21
-3.6304801181102362
0
LINE
8
BLACK
6
CONTINUOUS
10
5.0469029921259843
20
-3.6304801181102362
11
5.0484446456692913
21
-3.6278099212598423
0
LINE
8
BLACK
6
CONTINUOUS
10
5.0484446456692913
20
-3.6278099212598423
11
5.0506248818897639
21
-3.6256296850393701
0
LINE
8
BLACK
6
CONTINUOUS
10
5.0506248818897639
20
-3.6256296850393701
11
5.0532950787401569
21
-3.6240880314960631
0
LINE
8
BLACK
6
CONTINUOUS
10
5.0532950787401569
20
-3.6240880314960631
11
5.0562733070866139
21
-3.6232900393700787
0
LINE
8
BLACK
6
CONTINUOUS
10
5.0562733070866139
20
-3.6232900393700787
11
5.057814960629921
21
-3.6231889763779526
0
LINE
8
BLACK
6
CONTINUOUS
10
5.057814960629921
20
-3.6231889763779526
11
5.1011220472440941
21
-3.6231889763779526
0
LINE
8
BLACK
6
CONTINUOUS
10
5.1011220472440941
20
-3.6231889763779526
11
5.1026637007874012
21
-3.6232900393700787
0
LINE
8
BLACK
6
CONTINUOUS
10
5.1026637007874012
20
-3.2831325590551179
11
5.1056419291338582
21
-3.2839305511811023
0
LINE
8
BLACK
6
CONTINUOUS
10
5.1056419291338582
20
-3.2839305511811023
11
5.1083121259842521
21
-3.2854722047244094
0
LINE
8
BLACK
6
CONTINUOUS
10
5.1083121259842521
20
-3.2854722047244094
11
5.1104923622047247
21
-3.287652440944882
0
LINE
8
BLACK
6
CONTINUOUS
10
5.1104923622047247
20
-3.287652440944882
11
5.1120340157480317
21
-3.2903226377952755
0
LINE
8
BLACK
6
CONTINUOUS
10
5.1120340157480317
20
-3.2903226377952755
11
5.1128320078740153
21
-3.293300866141732
0
LINE
8
BLACK
6
CONTINUOUS
10
5.1128320078740153
20
-3.293300866141732
11
5.1128320078740153
21
-3.2963841732283465
0
LINE
8
BLACK
6
CONTINUOUS
10
5.1128320078740153
20
-3.2963841732283465
11
5.1120340157480317
21
-3.2993624015748031
0
LINE
8
BLACK
6
CONTINUOUS
10
5.1120340157480317
20
-3.2993624015748031
11
5.1104923622047247
21
-3.3020325984251966
0
LINE
8
BLACK
6
CONTINUOUS
10
5.1104923622047247
20
-3.3020325984251966
11
5.1083121259842521
21
-3.3042128346456692
0
LINE
8
BLACK
6
CONTINUOUS
10
5.1083121259842521
20
-3.3042128346456692
11
5.1056419291338582
21
-3.3057544881889762
0
LINE
8
BLACK
6
CONTINUOUS
10
5.1056419291338582
20
-3.3057544881889762
11
5.1026637007874012
21
-3.3065524803149606
0
LINE
8
BLACK
6
CONTINUOUS
10
5.1026637007874012
20
-3.3065524803149606
11
5.1011220472440941
21
-3.3066535433070867
0
LINE
8
BLACK
6
CONTINUOUS
10
5.1011220472440941
20
-3.3066535433070867
11
5.057814960629921
21
-3.3066535433070867
0
LINE
8
BLACK
6
CONTINUOUS
10
5.057814960629921
20
-3.3066535433070867
11
5.0562733070866139
21
-3.3065524803149606
0
LINE
8
BLACK
6
CONTINUOUS
10
5.0562733070866139
20
-3.3065524803149606
11
5.0532950787401569
21
-3.3057544881889762
0
LINE
8
BLACK
6
CONTINUOUS
10
5.0532950787401569
20
-3.3057544881889762
11
5.0506248818897639
21
-3.3042128346456692
0
LINE
8
BLACK
6
CONTINUOUS
10
5.0506248818897639
20
-3.3042128346456692
11
5.0484446456692913
21
-3.3020325984251966
0
LINE
8
BLACK
6
CONTINUOUS
10
5.0484446456692913
20
-3.3020325984251966
11
5.0469029921259843
21
-3.2993624015748031
0
LINE
8
BLACK
6
CONTINUOUS
10
5.0469029921259843
20
-3.2993624015748031
11
5.0461049999999998
21
-3.2963841732283465
0
LINE
8
BLACK
6
CONTINUOUS
10
5.0461049999999998
20
-3.2963841732283465
11
5.0461049999999998
21
-3.293300866141732
0
LINE
8
BLACK
6
CONTINUOUS
10
5.0461049999999998
20
-3.293300866141732
11
5.0469029921259843
21
-3.2903226377952755
0
LINE
8
BLACK
6
CONTINUOUS
10
5.0469029921259843
20
-3.2903226377952755
11
5.0484446456692913
21
-3.287652440944882
0
LINE
8
BLACK
6
CONTINUOUS
10
5.0484446456692913
20
-3.287652440944882
11
5.0506248818897639
21
-3.2854722047244094
0
LINE
8
BLACK
6
CONTINUOUS
10
5.0506248818897639
20
-3.2854722047244094
11
5.0532950787401569
21
-3.2839305511811023
0
LINE
8
BLACK
6
CONTINUOUS
10
5.0532950787401569
20
-3.2839305511811023
11
5.0562733070866139
21
-3.2831325590551179
0
LINE
8
BLACK
6
CONTINUOUS
10
5.0562733070866139
20
-3.2831325590551179
11
5.057814960629921
21
-3.2830314960629923
0
LINE
8
BLACK
6
CONTINUOUS
10
5.057814960629921
20
-3.2830314960629923
11
5.1011220472440941
21
-3.2830314960629923
0
LINE
8
BLACK
6
CONTINUOUS
10
5.1011220472440941
20
-3.2830314960629923
11
5.1026637007874012
21
-3.2831325590551179
0
CIRCLE
8
WHITE
10
6.6030905511811024
20
-4.6531102362204724
40
0.0068897637795276
0
CIRCLE
8
WHITE
10
5.0267125984251964
20
-4.6531102362204724
40
0.0068897637795276
0
CIRCLE
8
WHITE
10
6.6030905511811024
20
-3.0767322834645667
40
0.0068897637795276
0
CIRCLE
8
WHITE
10
5.9812795275590549
20
-3.8629527559055119
40
0.0068897637795276
0
CIRCLE
8
WHITE
10
5.0267125984251964
20
-3.0767322834645667
40
0.0068897637795276
0
CIRCLE
8
WHITE
10
5.0597834645669293
20
-3.5787007874015746
40
0.0068897637795276
0
CIRCLE
8
WHITE
10
5.0597834645669293
20
-3.3511417322834647
40
0.0068897637795276
0
LINE
8
WHITE
6
CONTINUOUS
10
4.8991535433070865
20
-3.646811023622047
11
4.9306496062992125
21
-3.646811023622047
0
ARC
8
WHITE
10
4.9306496062992125
20
-3.6349999999999998
40
0.0118110236220472
50
-90.00000000
51
90.00000000
0
LINE
8
WHITE
6
CONTINUOUS
10
4.9306496062992125
20
-3.6231889763779526
11
4.8991535433070865
21
-3.6231889763779526
0
ARC
8
WHITE
10
4.8991535433070865
20
-3.6349999999999998
40
0.0118110236220472
50
90.00000000
51
270.00000000
0
LINE
8
WHITE
6
CONTINUOUS
10
4.8991535433070865
20
-3.3066535433070867
11
4.9306496062992125
21
-3.3066535433070867
0
ARC
8
WHITE
10
4.9306496062992125
20
-3.2948425196850395
40
0.0118110236220472
50
-90.00000000
51
90.00000000
0
LINE
8
WHITE
6
CONTINUOUS
10
4.9306496062992125
20
-3.2830314960629923
11
4.8991535433070865
21
-3.2830314960629923
0
ARC
8
WHITE
10
4.8991535433070865
20
-3.2948425196850395
40
0.0118110236220472
50
90.00000000
51
270.00000000
0
LINE
8
WHITE
6
CONTINUOUS
10
5.057814960629921
20
-3.646811023622047
11
5.1011220472440941
21
-3.646811023622047
0
ARC
8
WHITE
10
5.1011220472440941
20
-3.6349999999999998
40
0.0118110236220472
50
-90.00000000
51
90.00000000
0
LINE
8
WHITE
6
CONTINUOUS
10
5.1011220472440941
20
-3.6231889763779526
11
5.057814960629921
21
-3.6231889763779526
0
ARC
8
WHITE
10
5.057814960629921
20
-3.6349999999999998
40
0.0118110236220472
50
90.00000000
51
270.00000000
0
LINE
8
WHITE
6
CONTINUOUS
10
5.057814960629921
20
-3.3066535433070867
11
5.1011220472440941
21
-3.3066535433070867
0
ARC
8
WHITE
10
5.1011220472440941
20
-3.2948425196850395
40
0.0118110236220472
50
-90.00000000
51
90.00000000
0
LINE
8
WHITE
6
CONTINUOUS
10
5.1011220472440941
20
-3.2830314960629923
11
5.057814960629921
21
-3.2830314960629923
0
ARC
8
WHITE
10
5.057814960629921
20
-3.2948425196850395
40
0.0118110236220472
50
90.00000000
51
270.00000000
  0
ENDSEC
  0
EOF
