  0
SECTION
  2
HEADER
  9
$ANGBASE
  50
0.0
  9
$ANGDIR
  70
1
  9
$MEASUREMENT
  70
0
  0
ENDSEC
  0
SECTION
  2
TABLES
  0
TABLE
  2
LTYPE
  70
4
  0
LTYPE
  5
40F
  2
CONTINUOUS
  70
0
  3
Solid line
  72
65
  73
0
  40
0.0
  0
LTYPE
  5
410
  2
DASHDOT
 70
0
  3
Dash Dot ____ _ ____ _
 72
65
 73
4
 40
2.0
 49
1.25
 49
-0.25
 49
0.25
 49
-0.25
  0
LTYPE
  5
411
  2
DASHED
 70
0
  3
Dashed __ __ __ __ __
 72
65
 73
2
 40
0.75
 49
0.5
 49
-0.25
  0
LTYPE
  5
43B
  2
DOTTED
 70
0
  3
Dotted .  .  .  .
 72
65
 73
2
 40
0.2
 49
0.0
 49
-0.2
  0
ENDTAB
  0
TABLE
  2
STYLE
  70
4
  0
STYLE
  2
KICAD
  70
0
  40
0
  41
1
  42
1
  50
0
  71
0
  3
isocp.shx
  0
STYLE
  2
KICADB
  70
0
  40
0
  41
1
  42
1
  50
0
  71
0
  3
isocp.shx
  0
STYLE
  2
KICADI
  70
0
  40
0
  41
1
  42
1
  50
15
  71
0
  3
isocp.shx
  0
STYLE
  2
KICADBI
  70
0
  40
0
  41
1
  42
1
  50
15
  71
0
  3
isocp.shx
  0
ENDTAB
  0
TABLE
  2
LAYER
  70
1
  0
LAYER
  2
BLACK
  70
0
  62
7
  6
CONTINUOUS
  0
ENDTAB
  0
ENDSEC
  0
SECTION
  2
ENTITIES
0
LINE
8
BLACK
6
CONTINUOUS
10
5.0478157480314962
20
-4.5289060236220475
11
5.0615895275590548
21
-4.5320498031496061
0
LINE
8
BLACK
6
CONTINUOUS
10
5.0615895275590548
20
-4.5320498031496061
11
5.0749246850393703
21
-4.5367159448818892
0
LINE
8
BLACK
6
CONTINUOUS
10
5.0749246850393703
20
-4.5367159448818892
11
5.0876535433070869
21
-4.5428458661417324
0
LINE
8
BLACK
6
CONTINUOUS
10
5.0876535433070869
20
-4.5428458661417324
11
5.0996160629921254
21
-4.5503624015748034
0
LINE
8
BLACK
6
CONTINUOUS
10
5.0996160629921254
20
-4.5503624015748034
11
5.1106617716535432
21
-4.5591710629921263
0
LINE
8
BLACK
6
CONTINUOUS
10
5.1106617716535432
20
-4.5591710629921263
11
5.1206517716535433
21
-4.5691610629921255
0
LINE
8
BLACK
6
CONTINUOUS
10
5.1206517716535433
20
-4.5691610629921255
11
5.1294604330708662
21
-4.5802067716535433
0
LINE
8
BLACK
6
CONTINUOUS
10
5.1294604330708662
20
-4.5802067716535433
11
5.1369769685039373
21
-4.5921692913385828
0
LINE
8
BLACK
6
CONTINUOUS
10
5.1369769685039373
20
-4.5921692913385828
11
5.1431068897637795
21
-4.6048981496062993
0
LINE
8
BLACK
6
CONTINUOUS
10
5.1431068897637795
20
-4.6048981496062993
11
5.1477730314960626
21
-4.6182333070866139
0
LINE
8
BLACK
6
CONTINUOUS
10
5.1477730314960626
20
-4.6182333070866139
11
5.1509168110236221
21
-4.6320070866141734
0
LINE
8
BLACK
6
CONTINUOUS
10
5.1509168110236221
20
-4.6320070866141734
11
5.1524986614173232
21
-4.6460462598425192
0
LINE
8
BLACK
6
CONTINUOUS
10
5.1524986614173232
20
-4.6460462598425192
11
5.1524986614173232
21
-4.6601742125984247
0
LINE
8
BLACK
6
CONTINUOUS
10
5.1524986614173232
20
-4.6601742125984247
11
5.1509168110236221
21
-4.6742133858267714
0
LINE
8
BLACK
6
CONTINUOUS
10
5.1509168110236221
20
-4.6742133858267714
11
5.1477730314960626
21
-4.6879871653543308
0
LINE
8
BLACK
6
CONTINUOUS
10
5.1477730314960626
20
-4.6879871653543308
11
5.1431068897637795
21
-4.7013223228346455
0
LINE
8
BLACK
6
CONTINUOUS
10
5.1431068897637795
20
-4.7013223228346455
11
5.1369769685039373
21
-4.714051181102362
0
LINE
8
BLACK
6
CONTINUOUS
10
5.1369769685039373
20
-4.714051181102362
11
5.1294604330708662
21
-4.7260137007874015
0
LINE
8
BLACK
6
CONTINUOUS
10
5.1294604330708662
20
-4.7260137007874015
11
5.1206517716535433
21
-4.7370594094488192
0
LINE
8
BLACK
6
CONTINUOUS
10
5.1206517716535433
20
-4.7370594094488192
11
5.1106617716535432
21
-4.7470494094488185
0
LINE
8
BLACK
6
CONTINUOUS
10
5.1106617716535432
20
-4.7470494094488185
11
5.0996160629921254
21
-4.7558580708661413
0
LINE
8
BLACK
6
CONTINUOUS
10
5.0996160629921254
20
-4.7558580708661413
11
5.0876535433070869
21
-4.7633746062992124
0
LINE
8
BLACK
6
CONTINUOUS
10
5.0876535433070869
20
-4.7633746062992124
11
5.0749246850393703
21
-4.7695045275590546
0
LINE
8
BLACK
6
CONTINUOUS
10
5.0749246850393703
20
-4.7695045275590546
11
5.0615895275590548
21
-4.7741706692913386
0
LINE
8
BLACK
6
CONTINUOUS
10
5.0615895275590548
20
-4.7741706692913386
11
5.0478157480314962
21
-4.7773144488188972
0
LINE
8
BLACK
6
CONTINUOUS
10
5.0478157480314962
20
-4.7773144488188972
11
5.0337765748031496
21
-4.7788962992125983
0
LINE
8
BLACK
6
CONTINUOUS
10
5.0337765748031496
20
-4.7788962992125983
11
5.019648622047244
21
-4.7788962992125983
0
LINE
8
BLACK
6
CONTINUOUS
10
5.019648622047244
20
-4.7788962992125983
11
5.0056094488188974
21
-4.7773144488188972
0
LINE
8
BLACK
6
CONTINUOUS
10
5.0056094488188974
20
-4.7773144488188972
11
4.9918356692913388
21
-4.7741706692913386
0
LINE
8
BLACK
6
CONTINUOUS
10
4.9918356692913388
20
-4.7741706692913386
11
4.9785005118110233
21
-4.7695045275590546
0
LINE
8
BLACK
6
CONTINUOUS
10
4.9785005118110233
20
-4.7695045275590546
11
4.9657716535433067
21
-4.7633746062992124
0
LINE
8
BLACK
6
CONTINUOUS
10
4.9657716535433067
20
-4.7633746062992124
11
4.9538091338582673
21
-4.7558580708661413
0
LINE
8
BLACK
6
CONTINUOUS
10
4.9538091338582673
20
-4.7558580708661413
11
4.9427634251968504
21
-4.7470494094488185
0
LINE
8
BLACK
6
CONTINUOUS
10
4.9427634251968504
20
-4.7470494094488185
11
4.9327734251968502
21
-4.7370594094488192
0
LINE
8
BLACK
6
CONTINUOUS
10
4.9327734251968502
20
-4.7370594094488192
11
4.9239647637795274
21
-4.7260137007874015
0
LINE
8
BLACK
6
CONTINUOUS
10
4.9239647637795274
20
-4.7260137007874015
11
4.9164482283464563
21
-4.714051181102362
0
LINE
8
BLACK
6
CONTINUOUS
10
4.9164482283464563
20
-4.714051181102362
11
4.9103183070866141
21
-4.7013223228346455
0
LINE
8
BLACK
6
CONTINUOUS
10
4.9103183070866141
20
-4.7013223228346455
11
4.905652165354331
21
-4.6879871653543308
0
LINE
8
BLACK
6
CONTINUOUS
10
4.905652165354331
20
-4.6879871653543308
11
4.9025083858267715
21
-4.6742133858267714
0
LINE
8
BLACK
6
CONTINUOUS
10
4.9025083858267715
20
-4.6742133858267714
11
4.9009265354330704
21
-4.6601742125984247
0
LINE
8
BLACK
6
CONTINUOUS
10
4.9009265354330704
20
-4.6601742125984247
11
4.9009265354330704
21
-4.6460462598425192
0
LINE
8
BLACK
6
CONTINUOUS
10
4.9009265354330704
20
-4.6460462598425192
11
4.9025083858267715
21
-4.6320070866141734
0
LINE
8
BLACK
6
CONTINUOUS
10
4.9025083858267715
20
-4.6320070866141734
11
4.905652165354331
21
-4.6182333070866139
0
LINE
8
BLACK
6
CONTINUOUS
10
4.905652165354331
20
-4.6182333070866139
11
4.9103183070866141
21
-4.6048981496062993
0
LINE
8
BLACK
6
CONTINUOUS
10
4.9103183070866141
20
-4.6048981496062993
11
4.9164482283464563
21
-4.5921692913385828
0
LINE
8
BLACK
6
CONTINUOUS
10
4.9164482283464563
20
-4.5921692913385828
11
4.9239647637795274
21
-4.5802067716535433
0
LINE
8
BLACK
6
CONTINUOUS
10
4.9239647637795274
20
-4.5802067716535433
11
4.9327734251968502
21
-4.5691610629921255
0
LINE
8
BLACK
6
CONTINUOUS
10
4.9327734251968502
20
-4.5691610629921255
11
4.9427634251968504
21
-4.5591710629921263
0
LINE
8
BLACK
6
CONTINUOUS
10
4.9427634251968504
20
-4.5591710629921263
11
4.9538091338582673
21
-4.5503624015748034
0
LINE
8
BLACK
6
CONTINUOUS
10
4.9538091338582673
20
-4.5503624015748034
11
4.9657716535433067
21
-4.5428458661417324
0
LINE
8
BLACK
6
CONTINUOUS
10
4.9657716535433067
20
-4.5428458661417324
11
4.9785005118110233
21
-4.5367159448818892
0
LINE
8
BLACK
6
CONTINUOUS
10
4.9785005118110233
20
-4.5367159448818892
11
4.9918356692913388
21
-4.5320498031496061
0
LINE
8
BLACK
6
CONTINUOUS
10
4.9918356692913388
20
-4.5320498031496061
11
5.0056094488188974
21
-4.5289060236220475
0
LINE
8
BLACK
6
CONTINUOUS
10
5.0056094488188974
20
-4.5289060236220475
11
5.019648622047244
21
-4.5273241732283465
0
LINE
8
BLACK
6
CONTINUOUS
10
5.019648622047244
20
-4.5273241732283465
11
5.0337765748031496
21
-4.5273241732283465
0
LINE
8
BLACK
6
CONTINUOUS
10
5.0337765748031496
20
-4.5273241732283465
11
5.0478157480314962
21
-4.5289060236220475
0
LINE
8
BLACK
6
CONTINUOUS
10
6.6241937007874014
20
-4.5289060236220475
11
6.6379674803149609
21
-4.5320498031496061
0
LINE
8
BLACK
6
CONTINUOUS
10
6.6379674803149609
20
-4.5320498031496061
11
6.6513026377952755
21
-4.5367159448818892
0
LINE
8
BLACK
6
CONTINUOUS
10
6.6513026377952755
20
-4.5367159448818892
11
6.6640314960629921
21
-4.5428458661417324
0
LINE
8
BLACK
6
CONTINUOUS
10
6.6640314960629921
20
-4.5428458661417324
11
6.6759940157480315
21
-4.5503624015748034
0
LINE
8
BLACK
6
CONTINUOUS
10
6.6759940157480315
20
-4.5503624015748034
11
6.6870397244094484
21
-4.5591710629921263
0
LINE
8
BLACK
6
CONTINUOUS
10
6.6870397244094484
20
-4.5591710629921263
11
6.6970297244094485
21
-4.5691610629921255
0
LINE
8
BLACK
6
CONTINUOUS
10
6.6970297244094485
20
-4.5691610629921255
11
6.7058383858267714
21
-4.5802067716535433
0
LINE
8
BLACK
6
CONTINUOUS
10
6.7058383858267714
20
-4.5802067716535433
11
6.7133549212598425
21
-4.5921692913385828
0
LINE
8
BLACK
6
CONTINUOUS
10
6.7133549212598425
20
-4.5921692913385828
11
6.7194848425196847
21
-4.6048981496062993
0
LINE
8
BLACK
6
CONTINUOUS
10
6.7194848425196847
20
-4.6048981496062993
11
6.7241509842519687
21
-4.6182333070866139
0
LINE
8
BLACK
6
CONTINUOUS
10
6.7241509842519687
20
-4.6182333070866139
11
6.7272947637795273
21
-4.6320070866141734
0
LINE
8
BLACK
6
CONTINUOUS
10
6.7272947637795273
20
-4.6320070866141734
11
6.7288766141732284
21
-4.6460462598425192
0
LINE
8
BLACK
6
CONTINUOUS
10
6.7288766141732284
20
-4.6460462598425192
11
6.7288766141732284
21
-4.6601742125984247
0
LINE
8
BLACK
6
CONTINUOUS
10
6.7288766141732284
20
-4.6601742125984247
11
6.7272947637795273
21
-4.6742133858267714
0
LINE
8
BLACK
6
CONTINUOUS
10
6.7272947637795273
20
-4.6742133858267714
11
6.7241509842519687
21
-4.6879871653543308
0
LINE
8
BLACK
6
CONTINUOUS
10
6.7241509842519687
20
-4.6879871653543308
11
6.7194848425196847
21
-4.7013223228346455
0
LINE
8
BLACK
6
CONTINUOUS
10
6.7194848425196847
20
-4.7013223228346455
11
6.7133549212598425
21
-4.714051181102362
0
LINE
8
BLACK
6
CONTINUOUS
10
6.7133549212598425
20
-4.714051181102362
11
6.7058383858267714
21
-4.7260137007874015
0
LINE
8
BLACK
6
CONTINUOUS
10
6.7058383858267714
20
-4.7260137007874015
11
6.6970297244094485
21
-4.7370594094488192
0
LINE
8
BLACK
6
CONTINUOUS
10
6.6970297244094485
20
-4.7370594094488192
11
6.6870397244094484
21
-4.7470494094488185
0
LINE
8
BLACK
6
CONTINUOUS
10
6.6870397244094484
20
-4.7470494094488185
11
6.6759940157480315
21
-4.7558580708661413
0
LINE
8
BLACK
6
CONTINUOUS
10
6.6759940157480315
20
-4.7558580708661413
11
6.6640314960629921
21
-4.7633746062992124
0
LINE
8
BLACK
6
CONTINUOUS
10
6.6640314960629921
20
-4.7633746062992124
11
6.6513026377952755
21
-4.7695045275590546
0
LINE
8
BLACK
6
CONTINUOUS
10
6.6513026377952755
20
-4.7695045275590546
11
6.6379674803149609
21
-4.7741706692913386
0
LINE
8
BLACK
6
CONTINUOUS
10
6.6379674803149609
20
-4.7741706692913386
11
6.6241937007874014
21
-4.7773144488188972
0
LINE
8
BLACK
6
CONTINUOUS
10
6.6241937007874014
20
-4.7773144488188972
11
6.6101545275590547
21
-4.7788962992125983
0
LINE
8
BLACK
6
CONTINUOUS
10
6.6101545275590547
20
-4.7788962992125983
11
6.5960265748031492
21
-4.7788962992125983
0
LINE
8
BLACK
6
CONTINUOUS
10
6.5960265748031492
20
-4.7788962992125983
11
6.5819874015748034
21
-4.7773144488188972
0
LINE
8
BLACK
6
CONTINUOUS
10
6.5819874015748034
20
-4.7773144488188972
11
6.568213622047244
21
-4.7741706692913386
0
LINE
8
BLACK
6
CONTINUOUS
10
6.568213622047244
20
-4.7741706692913386
11
6.5548784645669294
21
-4.7695045275590546
0
LINE
8
BLACK
6
CONTINUOUS
10
6.5548784645669294
20
-4.7695045275590546
11
6.5421496062992128
21
-4.7633746062992124
0
LINE
8
BLACK
6
CONTINUOUS
10
6.5421496062992128
20
-4.7633746062992124
11
6.5301870866141734
21
-4.7558580708661413
0
LINE
8
BLACK
6
CONTINUOUS
10
6.5301870866141734
20
-4.7558580708661413
11
6.5191413779527556
21
-4.7470494094488185
0
LINE
8
BLACK
6
CONTINUOUS
10
6.5191413779527556
20
-4.7470494094488185
11
6.5091513779527554
21
-4.7370594094488192
0
LINE
8
BLACK
6
CONTINUOUS
10
6.5091513779527554
20
-4.7370594094488192
11
6.5003427165354326
21
-4.7260137007874015
0
LINE
8
BLACK
6
CONTINUOUS
10
6.5003427165354326
20
-4.7260137007874015
11
6.4928261811023624
21
-4.714051181102362
0
LINE
8
BLACK
6
CONTINUOUS
10
6.4928261811023624
20
-4.714051181102362
11
6.4866962598425193
21
-4.7013223228346455
0
LINE
8
BLACK
6
CONTINUOUS
10
6.4866962598425193
20
-4.7013223228346455
11
6.4820301181102362
21
-4.6879871653543308
0
LINE
8
BLACK
6
CONTINUOUS
10
6.4820301181102362
20
-4.6879871653543308
11
6.4788863385826767
21
-4.6742133858267714
0
LINE
8
BLACK
6
CONTINUOUS
10
6.4788863385826767
20
-4.6742133858267714
11
6.4773044881889765
21
-4.6601742125984247
0
LINE
8
BLACK
6
CONTINUOUS
10
6.4773044881889765
20
-4.6601742125984247
11
6.4773044881889765
21
-4.6460462598425192
0
LINE
8
BLACK
6
CONTINUOUS
10
6.4773044881889765
20
-4.6460462598425192
11
6.4788863385826767
21
-4.6320070866141734
0
LINE
8
BLACK
6
CONTINUOUS
10
6.4788863385826767
20
-4.6320070866141734
11
6.4820301181102362
21
-4.6182333070866139
0
LINE
8
BLACK
6
CONTINUOUS
10
6.4820301181102362
20
-4.6182333070866139
11
6.4866962598425193
21
-4.6048981496062993
0
LINE
8
BLACK
6
CONTINUOUS
10
6.4866962598425193
20
-4.6048981496062993
11
6.4928261811023624
21
-4.5921692913385828
0
LINE
8
BLACK
6
CONTINUOUS
10
6.4928261811023624
20
-4.5921692913385828
11
6.5003427165354326
21
-4.5802067716535433
0
LINE
8
BLACK
6
CONTINUOUS
10
6.5003427165354326
20
-4.5802067716535433
11
6.5091513779527554
21
-4.5691610629921255
0
LINE
8
BLACK
6
CONTINUOUS
10
6.5091513779527554
20
-4.5691610629921255
11
6.5191413779527556
21
-4.5591710629921263
0
LINE
8
BLACK
6
CONTINUOUS
10
6.5191413779527556
20
-4.5591710629921263
11
6.5301870866141734
21
-4.5503624015748034
0
LINE
8
BLACK
6
CONTINUOUS
10
6.5301870866141734
20
-4.5503624015748034
11
6.5421496062992128
21
-4.5428458661417324
0
LINE
8
BLACK
6
CONTINUOUS
10
6.5421496062992128
20
-4.5428458661417324
11
6.5548784645669294
21
-4.5367159448818892
0
LINE
8
BLACK
6
CONTINUOUS
10
6.5548784645669294
20
-4.5367159448818892
11
6.568213622047244
21
-4.5320498031496061
0
LINE
8
BLACK
6
CONTINUOUS
10
6.568213622047244
20
-4.5320498031496061
11
6.5819874015748034
21
-4.5289060236220475
0
LINE
8
BLACK
6
CONTINUOUS
10
6.5819874015748034
20
-4.5289060236220475
11
6.5960265748031492
21
-4.5273241732283465
0
LINE
8
BLACK
6
CONTINUOUS
10
6.5960265748031492
20
-4.5273241732283465
11
6.6101545275590547
21
-4.5273241732283465
0
LINE
8
BLACK
6
CONTINUOUS
10
6.6101545275590547
20
-4.5273241732283465
11
6.6241937007874014
21
-4.5289060236220475
0
LINE
8
BLACK
6
CONTINUOUS
10
5.9903192913385821
20
-3.8411288188976376
11
5.9956597244094487
21
-3.8442121259842517
0
LINE
8
BLACK
6
CONTINUOUS
10
5.9956597244094487
20
-3.8442121259842517
11
6.0000201574803151
21
-3.8485725590551181
0
LINE
8
BLACK
6
CONTINUOUS
10
6.0000201574803151
20
-3.8485725590551181
11
6.0031034645669292
21
-3.8539129921259843
0
LINE
8
BLACK
6
CONTINUOUS
10
6.0031034645669292
20
-3.8539129921259843
11
6.0046994881889759
21
-3.8598694488188974
0
LINE
8
BLACK
6
CONTINUOUS
10
6.0046994881889759
20
-3.8598694488188974
11
6.0046994881889759
21
-3.866036062992126
0
LINE
8
BLACK
6
CONTINUOUS
10
6.0046994881889759
20
-3.866036062992126
11
6.0031034645669292
21
-3.8719925196850391
0
LINE
8
BLACK
6
CONTINUOUS
10
6.0031034645669292
20
-3.8719925196850391
11
6.0000201574803151
21
-3.8773329527559053
0
LINE
8
BLACK
6
CONTINUOUS
10
6.0000201574803151
20
-3.8773329527559053
11
5.9956597244094487
21
-3.8816933858267717
0
LINE
8
BLACK
6
CONTINUOUS
10
5.9956597244094487
20
-3.8816933858267717
11
5.9903192913385821
21
-3.8847766929133858
0
LINE
8
BLACK
6
CONTINUOUS
10
5.9903192913385821
20
-3.8847766929133858
11
5.984362834645669
21
-3.8863727165354329
0
LINE
8
BLACK
6
CONTINUOUS
10
5.984362834645669
20
-3.8863727165354329
11
5.9781962204724408
21
-3.8863727165354329
0
LINE
8
BLACK
6
CONTINUOUS
10
5.9781962204724408
20
-3.8863727165354329
11
5.9722397637795277
21
-3.8847766929133858
0
LINE
8
BLACK
6
CONTINUOUS
10
5.9722397637795277
20
-3.8847766929133858
11
5.9668993307086611
21
-3.8816933858267717
0
LINE
8
BLACK
6
CONTINUOUS
10
5.9668993307086611
20
-3.8816933858267717
11
5.9625388976377955
21
-3.8773329527559053
0
LINE
8
BLACK
6
CONTINUOUS
10
5.9625388976377955
20
-3.8773329527559053
11
5.9594555905511806
21
-3.8719925196850391
0
LINE
8
BLACK
6
CONTINUOUS
10
5.9594555905511806
20
-3.8719925196850391
11
5.9578595669291339
21
-3.866036062992126
0
LINE
8
BLACK
6
CONTINUOUS
10
5.9578595669291339
20
-3.866036062992126
11
5.9578595669291339
21
-3.8598694488188974
0
LINE
8
BLACK
6
CONTINUOUS
10
5.9578595669291339
20
-3.8598694488188974
11
5.9594555905511806
21
-3.8539129921259843
0
LINE
8
BLACK
6
CONTINUOUS
10
5.9594555905511806
20
-3.8539129921259843
11
5.9625388976377955
21
-3.8485725590551181
0
LINE
8
BLACK
6
CONTINUOUS
10
5.9625388976377955
20
-3.8485725590551181
11
5.9668993307086611
21
-3.8442121259842517
0
LINE
8
BLACK
6
CONTINUOUS
10
5.9668993307086611
20
-3.8442121259842517
11
5.9722397637795277
21
-3.8411288188976376
0
LINE
8
BLACK
6
CONTINUOUS
10
5.9722397637795277
20
-3.8411288188976376
11
5.9781962204724408
21
-3.8395327952755904
0
LINE
8
BLACK
6
CONTINUOUS
10
5.9781962204724408
20
-3.8395327952755904
11
5.984362834645669
21
-3.8395327952755904
0
LINE
8
BLACK
6
CONTINUOUS
10
5.984362834645669
20
-3.8395327952755904
11
5.9903192913385821
21
-3.8411288188976376
0
LINE
8
BLACK
6
CONTINUOUS
10
6.648568937007874
20
-3.7182401968503935
11
6.6565009055118107
21
-3.7208174409448818
0
LINE
8
BLACK
6
CONTINUOUS
10
6.6565009055118107
20
-3.7208174409448818
11
6.6639320078740152
21
-3.7246037795275591
0
LINE
8
BLACK
6
CONTINUOUS
10
6.6639320078740152
20
-3.7246037795275591
11
6.6706793307086611
21
-3.7295059842519684
0
LINE
8
BLACK
6
CONTINUOUS
10
6.6706793307086611
20
-3.7295059842519684
11
6.6765766929133861
21
-3.7354033464566929
0
LINE
8
BLACK
6
CONTINUOUS
10
6.6765766929133861
20
-3.7354033464566929
11
6.6814788976377955
21
-3.7421506692913384
0
LINE
8
BLACK
6
CONTINUOUS
10
6.6814788976377955
20
-3.7421506692913384
11
6.6852652362204719
21
-3.7495817716535433
0
LINE
8
BLACK
6
CONTINUOUS
10
6.6852652362204719
20
-3.7495817716535433
11
6.6878424803149601
21
-3.7575137401574801
0
LINE
8
BLACK
6
CONTINUOUS
10
6.6878424803149601
20
-3.7575137401574801
11
6.6891471653543304
21
-3.7657511811023623
0
LINE
8
BLACK
6
CONTINUOUS
10
6.6891471653543304
20
-3.7657511811023623
11
6.6891471653543304
21
-3.7740913385826769
0
LINE
8
BLACK
6
CONTINUOUS
10
6.6891471653543304
20
-3.7740913385826769
11
6.6878424803149601
21
-3.7823287795275591
0
LINE
8
BLACK
6
CONTINUOUS
10
6.6878424803149601
20
-3.7823287795275591
11
6.6852652362204719
21
-3.7902607480314958
0
LINE
8
BLACK
6
CONTINUOUS
10
6.6852652362204719
20
-3.7902607480314958
11
6.6814788976377955
21
-3.7976918503937007
0
LINE
8
BLACK
6
CONTINUOUS
10
6.6814788976377955
20
-3.7976918503937007
11
6.6765766929133861
21
-3.8044391732283462
0
LINE
8
BLACK
6
CONTINUOUS
10
6.6765766929133861
20
-3.8044391732283462
11
6.6706793307086611
21
-3.8103365354330707
0
LINE
8
BLACK
6
CONTINUOUS
10
6.6706793307086611
20
-3.8103365354330707
11
6.6639320078740152
21
-3.8152387401574801
0
LINE
8
BLACK
6
CONTINUOUS
10
6.6639320078740152
20
-3.8152387401574801
11
6.6565009055118107
21
-3.8190250787401574
0
LINE
8
BLACK
6
CONTINUOUS
10
6.6565009055118107
20
-3.8190250787401574
11
6.648568937007874
21
-3.8216023228346456
0
LINE
8
BLACK
6
CONTINUOUS
10
6.648568937007874
20
-3.8216023228346456
11
6.6403314960629922
21
-3.8229070078740155
0
LINE
8
BLACK
6
CONTINUOUS
10
6.6403314960629922
20
-3.8229070078740155
11
6.6319913385826768
21
-3.8229070078740155
0
LINE
8
BLACK
6
CONTINUOUS
10
6.6319913385826768
20
-3.8229070078740155
11
6.623753897637795
21
-3.8216023228346456
0
LINE
8
BLACK
6
CONTINUOUS
10
6.623753897637795
20
-3.8216023228346456
11
6.6158219291338582
21
-3.8190250787401574
0
LINE
8
BLACK
6
CONTINUOUS
10
6.6158219291338582
20
-3.8190250787401574
11
6.6083908267716538
21
-3.8152387401574801
0
LINE
8
BLACK
6
CONTINUOUS
10
6.6083908267716538
20
-3.8152387401574801
11
6.6016435039370078
21
-3.8103365354330707
0
LINE
8
BLACK
6
CONTINUOUS
10
6.6016435039370078
20
-3.8103365354330707
11
6.5957461417322829
21
-3.8044391732283462
0
LINE
8
BLACK
6
CONTINUOUS
10
6.5957461417322829
20
-3.8044391732283462
11
6.5908439370078735
21
-3.7976918503937007
0
LINE
8
BLACK
6
CONTINUOUS
10
6.5908439370078735
20
-3.7976918503937007
11
6.5870575984251971
21
-3.7902607480314958
0
LINE
8
BLACK
6
CONTINUOUS
10
6.5870575984251971
20
-3.7902607480314958
11
6.5844803543307089
21
-3.7823287795275591
0
LINE
8
BLACK
6
CONTINUOUS
10
6.5844803543307089
20
-3.7823287795275591
11
6.5831756692913386
21
-3.7740913385826769
0
LINE
8
BLACK
6
CONTINUOUS
10
6.5831756692913386
20
-3.7740913385826769
11
6.5831756692913386
21
-3.7657511811023623
0
LINE
8
BLACK
6
CONTINUOUS
10
6.5831756692913386
20
-3.7657511811023623
11
6.5844803543307089
21
-3.7575137401574801
0
LINE
8
BLACK
6
CONTINUOUS
10
6.5844803543307089
20
-3.7575137401574801
11
6.5870575984251971
21
-3.7495817716535433
0
LINE
8
BLACK
6
CONTINUOUS
10
6.5870575984251971
20
-3.7495817716535433
11
6.5908439370078735
21
-3.7421506692913384
0
LINE
8
BLACK
6
CONTINUOUS
10
6.5908439370078735
20
-3.7421506692913384
11
6.5957461417322829
21
-3.7354033464566929
0
LINE
8
BLACK
6
CONTINUOUS
10
6.5957461417322829
20
-3.7354033464566929
11
6.6016435039370078
21
-3.7295059842519684
0
LINE
8
BLACK
6
CONTINUOUS
10
6.6016435039370078
20
-3.7295059842519684
11
6.6083908267716538
21
-3.7246037795275591
0
LINE
8
BLACK
6
CONTINUOUS
10
6.6083908267716538
20
-3.7246037795275591
11
6.6158219291338582
21
-3.7208174409448818
0
LINE
8
BLACK
6
CONTINUOUS
10
6.6158219291338582
20
-3.7208174409448818
11
6.623753897637795
21
-3.7182401968503935
0
LINE
8
BLACK
6
CONTINUOUS
10
6.623753897637795
20
-3.7182401968503935
11
6.6319913385826768
21
-3.7169355118110237
0
LINE
8
BLACK
6
CONTINUOUS
10
6.6319913385826768
20
-3.7169355118110237
11
6.6403314960629922
21
-3.7169355118110237
0
LINE
8
BLACK
6
CONTINUOUS
10
6.6403314960629922
20
-3.7169355118110237
11
6.648568937007874
21
-3.7182401968503935
0
LINE
8
BLACK
6
CONTINUOUS
10
4.9810492519685035
20
-3.6882401968503937
11
4.9889812204724411
21
-3.690817440944882
0
LINE
8
BLACK
6
CONTINUOUS
10
4.9889812204724411
20
-3.690817440944882
11
4.9964123228346455
21
-3.6946037795275588
0
LINE
8
BLACK
6
CONTINUOUS
10
4.9964123228346455
20
-3.6946037795275588
11
5.0031596456692915
21
-3.6995059842519686
0
LINE
8
BLACK
6
CONTINUOUS
10
5.0031596456692915
20
-3.6995059842519686
11
5.0090570078740155
21
-3.7054033464566927
0
LINE
8
BLACK
6
CONTINUOUS
10
5.0090570078740155
20
-3.7054033464566927
11
5.0139592125984249
21
-3.7121506692913386
0
LINE
8
BLACK
6
CONTINUOUS
10
5.0139592125984249
20
-3.7121506692913386
11
5.0177455511811022
21
-3.7195817716535431
0
LINE
8
BLACK
6
CONTINUOUS
10
5.0177455511811022
20
-3.7195817716535431
11
5.0203227952755904
21
-3.7275137401574803
0
LINE
8
BLACK
6
CONTINUOUS
10
5.0203227952755904
20
-3.7275137401574803
11
5.0216274803149608
21
-3.735751181102362
0
LINE
8
BLACK
6
CONTINUOUS
10
5.0216274803149608
20
-3.735751181102362
11
5.0216274803149608
21
-3.7440913385826771
0
LINE
8
BLACK
6
CONTINUOUS
10
5.0216274803149608
20
-3.7440913385826771
11
5.0203227952755904
21
-3.7523287795275588
0
LINE
8
BLACK
6
CONTINUOUS
10
5.0203227952755904
20
-3.7523287795275588
11
5.0177455511811022
21
-3.760260748031496
0
LINE
8
BLACK
6
CONTINUOUS
10
5.0177455511811022
20
-3.760260748031496
11
5.0139592125984249
21
-3.7676918503937009
0
LINE
8
BLACK
6
CONTINUOUS
10
5.0139592125984249
20
-3.7676918503937009
11
5.0090570078740155
21
-3.7744391732283464
0
LINE
8
BLACK
6
CONTINUOUS
10
5.0090570078740155
20
-3.7744391732283464
11
5.0031596456692915
21
-3.7803365354330709
0
LINE
8
BLACK
6
CONTINUOUS
10
5.0031596456692915
20
-3.7803365354330709
11
4.9964123228346455
21
-3.7852387401574803
0
LINE
8
BLACK
6
CONTINUOUS
10
4.9964123228346455
20
-3.7852387401574803
11
4.9889812204724411
21
-3.7890250787401576
0
LINE
8
BLACK
6
CONTINUOUS
10
4.9889812204724411
20
-3.7890250787401576
11
4.9810492519685035
21
-3.7916023228346454
0
LINE
8
BLACK
6
CONTINUOUS
10
4.9810492519685035
20
-3.7916023228346454
11
4.9728118110236217
21
-3.7929070078740157
0
LINE
8
BLACK
6
CONTINUOUS
10
4.9728118110236217
20
-3.7929070078740157
11
4.9644716535433071
21
-3.7929070078740157
0
LINE
8
BLACK
6
CONTINUOUS
10
4.9644716535433071
20
-3.7929070078740157
11
4.9562342125984253
21
-3.7916023228346454
0
LINE
8
BLACK
6
CONTINUOUS
10
4.9562342125984253
20
-3.7916023228346454
11
4.9483022440944877
21
-3.7890250787401576
0
LINE
8
BLACK
6
CONTINUOUS
10
4.9483022440944877
20
-3.7890250787401576
11
4.9408711417322833
21
-3.7852387401574803
0
LINE
8
BLACK
6
CONTINUOUS
10
4.9408711417322833
20
-3.7852387401574803
11
4.9341238188976373
21
-3.7803365354330709
0
LINE
8
BLACK
6
CONTINUOUS
10
4.9341238188976373
20
-3.7803365354330709
11
4.9282264566929133
21
-3.7744391732283464
0
LINE
8
BLACK
6
CONTINUOUS
10
4.9282264566929133
20
-3.7744391732283464
11
4.9233242519685039
21
-3.7676918503937009
0
LINE
8
BLACK
6
CONTINUOUS
10
4.9233242519685039
20
-3.7676918503937009
11
4.9195379133858266
21
-3.760260748031496
0
LINE
8
BLACK
6
CONTINUOUS
10
4.9195379133858266
20
-3.760260748031496
11
4.9169606692913383
21
-3.7523287795275588
0
LINE
8
BLACK
6
CONTINUOUS
10
4.9169606692913383
20
-3.7523287795275588
11
4.915655984251968
21
-3.7440913385826771
0
LINE
8
BLACK
6
CONTINUOUS
10
4.915655984251968
20
-3.7440913385826771
11
4.915655984251968
21
-3.735751181102362
0
LINE
8
BLACK
6
CONTINUOUS
10
4.915655984251968
20
-3.735751181102362
11
4.9169606692913383
21
-3.7275137401574803
0
LINE
8
BLACK
6
CONTINUOUS
10
4.9169606692913383
20
-3.7275137401574803
11
4.9195379133858266
21
-3.7195817716535431
0
LINE
8
BLACK
6
CONTINUOUS
10
4.9195379133858266
20
-3.7195817716535431
11
4.9233242519685039
21
-3.7121506692913386
0
LINE
8
BLACK
6
CONTINUOUS
10
4.9233242519685039
20
-3.7121506692913386
11
4.9282264566929133
21
-3.7054033464566927
0
LINE
8
BLACK
6
CONTINUOUS
10
4.9282264566929133
20
-3.7054033464566927
11
4.9341238188976373
21
-3.6995059842519686
0
LINE
8
BLACK
6
CONTINUOUS
10
4.9341238188976373
20
-3.6995059842519686
11
4.9408711417322833
21
-3.6946037795275588
0
LINE
8
BLACK
6
CONTINUOUS
10
4.9408711417322833
20
-3.6946037795275588
11
4.9483022440944877
21
-3.690817440944882
0
LINE
8
BLACK
6
CONTINUOUS
10
4.9483022440944877
20
-3.690817440944882
11
4.9562342125984253
21
-3.6882401968503937
0
LINE
8
BLACK
6
CONTINUOUS
10
4.9562342125984253
20
-3.6882401968503937
11
4.9644716535433071
21
-3.6869355118110234
0
LINE
8
BLACK
6
CONTINUOUS
10
4.9644716535433071
20
-3.6869355118110234
11
4.9728118110236217
21
-3.6869355118110234
0
LINE
8
BLACK
6
CONTINUOUS
10
4.9728118110236217
20
-3.6869355118110234
11
4.9810492519685035
21
-3.6882401968503937
0
LINE
8
BLACK
6
CONTINUOUS
10
6.648568937007874
20
-3.5832401968503937
11
6.6565009055118107
21
-3.585817440944882
0
LINE
8
BLACK
6
CONTINUOUS
10
6.6565009055118107
20
-3.585817440944882
11
6.6639320078740152
21
-3.5896037795275588
0
LINE
8
BLACK
6
CONTINUOUS
10
6.6639320078740152
20
-3.5896037795275588
11
6.6706793307086611
21
-3.5945059842519682
0
LINE
8
BLACK
6
CONTINUOUS
10
6.6706793307086611
20
-3.5945059842519682
11
6.6765766929133861
21
-3.6004033464566927
0
LINE
8
BLACK
6
CONTINUOUS
10
6.6765766929133861
20
-3.6004033464566927
11
6.6814788976377955
21
-3.6071506692913387
0
LINE
8
BLACK
6
CONTINUOUS
10
6.6814788976377955
20
-3.6071506692913387
11
6.6852652362204719
21
-3.6145817716535431
0
LINE
8
BLACK
6
CONTINUOUS
10
6.6852652362204719
20
-3.6145817716535431
11
6.6878424803149601
21
-3.6225137401574803
0
LINE
8
BLACK
6
CONTINUOUS
10
6.6878424803149601
20
-3.6225137401574803
11
6.6891471653543304
21
-3.6307511811023621
0
LINE
8
BLACK
6
CONTINUOUS
10
6.6891471653543304
20
-3.6307511811023621
11
6.6891471653543304
21
-3.6390913385826771
0
LINE
8
BLACK
6
CONTINUOUS
10
6.6891471653543304
20
-3.6390913385826771
11
6.6878424803149601
21
-3.6473287795275589
0
LINE
8
BLACK
6
CONTINUOUS
10
6.6878424803149601
20
-3.6473287795275589
11
6.6852652362204719
21
-3.655260748031496
0
LINE
8
BLACK
6
CONTINUOUS
10
6.6852652362204719
20
-3.655260748031496
11
6.6814788976377955
21
-3.6626918503937005
0
LINE
8
BLACK
6
CONTINUOUS
10
6.6814788976377955
20
-3.6626918503937005
11
6.6765766929133861
21
-3.6694391732283465
0
LINE
8
BLACK
6
CONTINUOUS
10
6.6765766929133861
20
-3.6694391732283465
11
6.6706793307086611
21
-3.6753365354330709
0
LINE
8
BLACK
6
CONTINUOUS
10
6.6706793307086611
20
-3.6753365354330709
11
6.6639320078740152
21
-3.6802387401574803
0
LINE
8
BLACK
6
CONTINUOUS
10
6.6639320078740152
20
-3.6802387401574803
11
6.6565009055118107
21
-3.6840250787401576
0
LINE
8
BLACK
6
CONTINUOUS
10
6.6565009055118107
20
-3.6840250787401576
11
6.648568937007874
21
-3.6866023228346454
0
LINE
8
BLACK
6
CONTINUOUS
10
6.648568937007874
20
-3.6866023228346454
11
6.6403314960629922
21
-3.6879070078740157
0
LINE
8
BLACK
6
CONTINUOUS
10
6.6403314960629922
20
-3.6879070078740157
11
6.6319913385826768
21
-3.6879070078740157
0
LINE
8
BLACK
6
CONTINUOUS
10
6.6319913385826768
20
-3.6879070078740157
11
6.623753897637795
21
-3.6866023228346454
0
LINE
8
BLACK
6
CONTINUOUS
10
6.623753897637795
20
-3.6866023228346454
11
6.6158219291338582
21
-3.6840250787401576
0
LINE
8
BLACK
6
CONTINUOUS
10
6.6158219291338582
20
-3.6840250787401576
11
6.6083908267716538
21
-3.6802387401574803
0
LINE
8
BLACK
6
CONTINUOUS
10
6.6083908267716538
20
-3.6802387401574803
11
6.6016435039370078
21
-3.6753365354330709
0
LINE
8
BLACK
6
CONTINUOUS
10
6.6016435039370078
20
-3.6753365354330709
11
6.5957461417322829
21
-3.6694391732283465
0
LINE
8
BLACK
6
CONTINUOUS
10
6.5957461417322829
20
-3.6694391732283465
11
6.5908439370078735
21
-3.6626918503937005
0
LINE
8
BLACK
6
CONTINUOUS
10
6.5908439370078735
20
-3.6626918503937005
11
6.5870575984251971
21
-3.655260748031496
0
LINE
8
BLACK
6
CONTINUOUS
10
6.5870575984251971
20
-3.655260748031496
11
6.5844803543307089
21
-3.6473287795275589
0
LINE
8
BLACK
6
CONTINUOUS
10
6.5844803543307089
20
-3.6473287795275589
11
6.5831756692913386
21
-3.6390913385826771
0
LINE
8
BLACK
6
CONTINUOUS
10
6.5831756692913386
20
-3.6390913385826771
11
6.5831756692913386
21
-3.6307511811023621
0
LINE
8
BLACK
6
CONTINUOUS
10
6.5831756692913386
20
-3.6307511811023621
11
6.5844803543307089
21
-3.6225137401574803
0
LINE
8
BLACK
6
CONTINUOUS
10
6.5844803543307089
20
-3.6225137401574803
11
6.5870575984251971
21
-3.6145817716535431
0
LINE
8
BLACK
6
CONTINUOUS
10
6.5870575984251971
20
-3.6145817716535431
11
6.5908439370078735
21
-3.6071506692913387
0
LINE
8
BLACK
6
CONTINUOUS
10
6.5908439370078735
20
-3.6071506692913387
11
6.5957461417322829
21
-3.6004033464566927
0
LINE
8
BLACK
6
CONTINUOUS
10
6.5957461417322829
20
-3.6004033464566927
11
6.6016435039370078
21
-3.5945059842519682
0
LINE
8
BLACK
6
CONTINUOUS
10
6.6016435039370078
20
-3.5945059842519682
11
6.6083908267716538
21
-3.5896037795275588
0
LINE
8
BLACK
6
CONTINUOUS
10
6.6083908267716538
20
-3.5896037795275588
11
6.6158219291338582
21
-3.585817440944882
0
LINE
8
BLACK
6
CONTINUOUS
10
6.6158219291338582
20
-3.585817440944882
11
6.623753897637795
21
-3.5832401968503937
0
LINE
8
BLACK
6
CONTINUOUS
10
6.623753897637795
20
-3.5832401968503937
11
6.6319913385826768
21
-3.5819355118110234
0
LINE
8
BLACK
6
CONTINUOUS
10
6.6319913385826768
20
-3.5819355118110234
11
6.6403314960629922
21
-3.5819355118110234
0
LINE
8
BLACK
6
CONTINUOUS
10
6.6403314960629922
20
-3.5819355118110234
11
6.648568937007874
21
-3.5832401968503937
0
LINE
8
BLACK
6
CONTINUOUS
10
5.1029355118110233
20
-3.6065941338582674
11
5.1084234645669291
21
-3.6076857480314959
0
LINE
8
BLACK
6
CONTINUOUS
10
5.1084234645669291
20
-3.6076857480314959
11
5.1135930314960625
21
-3.6098270472440945
0
LINE
8
BLACK
6
CONTINUOUS
10
5.1135930314960625
20
-3.6098270472440945
11
5.118245472440945
21
-3.6129357086614173
0
LINE
8
BLACK
6
CONTINUOUS
10
5.118245472440945
20
-3.6129357086614173
11
5.1222020866141733
21
-3.6168923228346457
0
LINE
8
BLACK
6
CONTINUOUS
10
5.1222020866141733
20
-3.6168923228346457
11
5.1253107480314961
21
-3.6215447637795273
0
LINE
8
BLACK
6
CONTINUOUS
10
5.1253107480314961
20
-3.6215447637795273
11
5.1274520472440948
21
-3.6267143307086611
0
LINE
8
BLACK
6
CONTINUOUS
10
5.1274520472440948
20
-3.6267143307086611
11
5.1285436614173223
21
-3.6322022834645669
0
LINE
8
BLACK
6
CONTINUOUS
10
5.1285436614173223
20
-3.6322022834645669
11
5.1285436614173223
21
-3.6377977165354332
0
LINE
8
BLACK
6
CONTINUOUS
10
5.1285436614173223
20
-3.6377977165354332
11
5.1274520472440948
21
-3.6432856692913385
0
LINE
8
BLACK
6
CONTINUOUS
10
5.1274520472440948
20
-3.6432856692913385
11
5.1253107480314961
21
-3.6484552362204723
0
LINE
8
BLACK
6
CONTINUOUS
10
5.1253107480314961
20
-3.6484552362204723
11
5.1222020866141733
21
-3.6531076771653543
0
LINE
8
BLACK
6
CONTINUOUS
10
5.1222020866141733
20
-3.6531076771653543
11
5.118245472440945
21
-3.6570642913385827
0
LINE
8
BLACK
6
CONTINUOUS
10
5.118245472440945
20
-3.6570642913385827
11
5.1135930314960625
21
-3.6601729527559055
0
LINE
8
BLACK
6
CONTINUOUS
10
5.1135930314960625
20
-3.6601729527559055
11
5.1084234645669291
21
-3.6623142519685037
0
LINE
8
BLACK
6
CONTINUOUS
10
5.1084234645669291
20
-3.6623142519685037
11
5.1029355118110233
21
-3.6634058661417321
0
LINE
8
BLACK
6
CONTINUOUS
10
5.1029355118110233
20
-3.6634058661417321
11
5.1001377952755904
21
-3.6635433070866141
0
LINE
8
BLACK
6
CONTINUOUS
10
5.1001377952755904
20
-3.6635433070866141
11
5.0587992125984247
21
-3.6635433070866141
0
LINE
8
BLACK
6
CONTINUOUS
10
5.0587992125984247
20
-3.6635433070866141
11
5.0560014960629918
21
-3.6634058661417321
0
LINE
8
BLACK
6
CONTINUOUS
10
5.0560014960629918
20
-3.6634058661417321
11
5.0505135433070869
21
-3.6623142519685037
0
LINE
8
BLACK
6
CONTINUOUS
10
5.0505135433070869
20
-3.6623142519685037
11
5.0453439763779526
21
-3.6601729527559055
0
LINE
8
BLACK
6
CONTINUOUS
10
5.0453439763779526
20
-3.6601729527559055
11
5.040691535433071
21
-3.6570642913385827
0
LINE
8
BLACK
6
CONTINUOUS
10
5.040691535433071
20
-3.6570642913385827
11
5.0367349212598427
21
-3.6531076771653543
0
LINE
8
BLACK
6
CONTINUOUS
10
5.0367349212598427
20
-3.6531076771653543
11
5.0336262598425199
21
-3.6484552362204723
0
LINE
8
BLACK
6
CONTINUOUS
10
5.0336262598425199
20
-3.6484552362204723
11
5.0314849606299212
21
-3.6432856692913385
0
LINE
8
BLACK
6
CONTINUOUS
10
5.0314849606299212
20
-3.6432856692913385
11
5.0303933464566928
21
-3.6377977165354332
0
LINE
8
BLACK
6
CONTINUOUS
10
5.0303933464566928
20
-3.6377977165354332
11
5.0303933464566928
21
-3.6322022834645669
0
LINE
8
BLACK
6
CONTINUOUS
10
5.0303933464566928
20
-3.6322022834645669
11
5.0314849606299212
21
-3.6267143307086611
0
LINE
8
BLACK
6
CONTINUOUS
10
5.0314849606299212
20
-3.6267143307086611
11
5.0336262598425199
21
-3.6215447637795273
0
LINE
8
BLACK
6
CONTINUOUS
10
5.0336262598425199
20
-3.6215447637795273
11
5.0367349212598427
21
-3.6168923228346457
0
LINE
8
BLACK
6
CONTINUOUS
10
5.0367349212598427
20
-3.6168923228346457
11
5.040691535433071
21
-3.6129357086614173
0
LINE
8
BLACK
6
CONTINUOUS
10
5.040691535433071
20
-3.6129357086614173
11
5.0453439763779526
21
-3.6098270472440945
0
LINE
8
BLACK
6
CONTINUOUS
10
5.0453439763779526
20
-3.6098270472440945
11
5.0505135433070869
21
-3.6076857480314959
0
LINE
8
BLACK
6
CONTINUOUS
10
5.0505135433070869
20
-3.6076857480314959
11
5.0560014960629918
21
-3.6065941338582674
0
LINE
8
BLACK
6
CONTINUOUS
10
5.0560014960629918
20
-3.6065941338582674
11
5.0587992125984247
21
-3.6064566929133859
0
LINE
8
BLACK
6
CONTINUOUS
10
5.0587992125984247
20
-3.6064566929133859
11
5.1001377952755904
21
-3.6064566929133859
0
LINE
8
BLACK
6
CONTINUOUS
10
5.1001377952755904
20
-3.6064566929133859
11
5.1029355118110233
21
-3.6065941338582674
0
LINE
8
BLACK
6
CONTINUOUS
10
4.9372878740157482
20
-3.6075736614173226
11
4.9425865748031494
21
-3.6086276377952755
0
LINE
8
BLACK
6
CONTINUOUS
10
4.9425865748031494
20
-3.6086276377952755
11
4.9475778740157477
21
-3.6106950787401573
0
LINE
8
BLACK
6
CONTINUOUS
10
4.9475778740157477
20
-3.6106950787401573
11
4.9520698818897637
21
-3.6136965748031495
0
LINE
8
BLACK
6
CONTINUOUS
10
4.9520698818897637
20
-3.6136965748031495
11
4.9558900393700789
21
-3.6175167322834643
0
LINE
8
BLACK
6
CONTINUOUS
10
4.9558900393700789
20
-3.6175167322834643
11
4.9588915354330707
21
-3.6220087401574803
0
LINE
8
BLACK
6
CONTINUOUS
10
4.9588915354330707
20
-3.6220087401574803
11
4.9609589763779525
21
-3.6270000393700785
0
LINE
8
BLACK
6
CONTINUOUS
10
4.9609589763779525
20
-3.6270000393700785
11
4.9620129527559058
21
-3.6322987401574802
0
LINE
8
BLACK
6
CONTINUOUS
10
4.9620129527559058
20
-3.6322987401574802
11
4.9620129527559058
21
-3.6377012598425198
0
LINE
8
BLACK
6
CONTINUOUS
10
4.9620129527559058
20
-3.6377012598425198
11
4.9609589763779525
21
-3.642999960629921
0
LINE
8
BLACK
6
CONTINUOUS
10
4.9609589763779525
20
-3.642999960629921
11
4.9588915354330707
21
-3.6479912598425197
0
LINE
8
BLACK
6
CONTINUOUS
10
4.9588915354330707
20
-3.6479912598425197
11
4.9558900393700789
21
-3.6524832677165353
0
LINE
8
BLACK
6
CONTINUOUS
10
4.9558900393700789
20
-3.6524832677165353
11
4.9520698818897637
21
-3.6563034251968505
0
LINE
8
BLACK
6
CONTINUOUS
10
4.9520698818897637
20
-3.6563034251968505
11
4.9475778740157477
21
-3.6593049212598423
0
LINE
8
BLACK
6
CONTINUOUS
10
4.9475778740157477
20
-3.6593049212598423
11
4.9425865748031494
21
-3.6613723622047245
0
LINE
8
BLACK
6
CONTINUOUS
10
4.9425865748031494
20
-3.6613723622047245
11
4.9372878740157482
21
-3.662426338582677
0
LINE
8
BLACK
6
CONTINUOUS
10
4.9372878740157482
20
-3.662426338582677
11
4.9345866141732282
21
-3.66255905511811
0
LINE
8
BLACK
6
CONTINUOUS
10
4.9345866141732282
20
-3.66255905511811
11
4.8952165354330708
21
-3.66255905511811
0
LINE
8
BLACK
6
CONTINUOUS
10
4.8952165354330708
20
-3.66255905511811
11
4.8925152755905508
21
-3.662426338582677
0
LINE
8
BLACK
6
CONTINUOUS
10
4.8925152755905508
20
-3.662426338582677
11
4.8872165748031495
21
-3.6613723622047245
0
LINE
8
BLACK
6
CONTINUOUS
10
4.8872165748031495
20
-3.6613723622047245
11
4.8822252755905513
21
-3.6593049212598423
0
LINE
8
BLACK
6
CONTINUOUS
10
4.8822252755905513
20
-3.6593049212598423
11
4.8777332677165353
21
-3.6563034251968505
0
LINE
8
BLACK
6
CONTINUOUS
10
4.8777332677165353
20
-3.6563034251968505
11
4.8739131102362201
21
-3.6524832677165353
0
LINE
8
BLACK
6
CONTINUOUS
10
4.8739131102362201
20
-3.6524832677165353
11
4.8709116141732283
21
-3.6479912598425197
0
LINE
8
BLACK
6
CONTINUOUS
10
4.8709116141732283
20
-3.6479912598425197
11
4.8688441732283465
21
-3.642999960629921
0
LINE
8
BLACK
6
CONTINUOUS
10
4.8688441732283465
20
-3.642999960629921
11
4.8677901968503932
21
-3.6377012598425198
0
LINE
8
BLACK
6
CONTINUOUS
10
4.8677901968503932
20
-3.6377012598425198
11
4.8677901968503932
21
-3.6322987401574802
0
LINE
8
BLACK
6
CONTINUOUS
10
4.8677901968503932
20
-3.6322987401574802
11
4.8688441732283465
21
-3.6270000393700785
0
LINE
8
BLACK
6
CONTINUOUS
10
4.8688441732283465
20
-3.6270000393700785
11
4.8709116141732283
21
-3.6220087401574803
0
LINE
8
BLACK
6
CONTINUOUS
10
4.8709116141732283
20
-3.6220087401574803
11
4.8739131102362201
21
-3.6175167322834643
0
LINE
8
BLACK
6
CONTINUOUS
10
4.8739131102362201
20
-3.6175167322834643
11
4.8777332677165353
21
-3.6136965748031495
0
LINE
8
BLACK
6
CONTINUOUS
10
4.8777332677165353
20
-3.6136965748031495
11
4.8822252755905513
21
-3.6106950787401573
0
LINE
8
BLACK
6
CONTINUOUS
10
4.8822252755905513
20
-3.6106950787401573
11
4.8872165748031495
21
-3.6086276377952755
0
LINE
8
BLACK
6
CONTINUOUS
10
4.8872165748031495
20
-3.6086276377952755
11
4.8925152755905508
21
-3.6075736614173226
0
LINE
8
BLACK
6
CONTINUOUS
10
4.8925152755905508
20
-3.6075736614173226
11
4.8952165354330708
21
-3.6074409448818896
0
LINE
8
BLACK
6
CONTINUOUS
10
4.8952165354330708
20
-3.6074409448818896
11
4.9345866141732282
21
-3.6074409448818896
0
LINE
8
BLACK
6
CONTINUOUS
10
4.9345866141732282
20
-3.6074409448818896
11
4.9372878740157482
21
-3.6075736614173226
0
LINE
8
BLACK
6
CONTINUOUS
10
5.0676932677165354
20
-3.5596048425196849
11
5.0723661417322834
21
-3.5623027165354331
0
LINE
8
BLACK
6
CONTINUOUS
10
5.0723661417322834
20
-3.5623027165354331
11
5.0761815354330704
21
-3.5661181102362205
0
LINE
8
BLACK
6
CONTINUOUS
10
5.0761815354330704
20
-3.5661181102362205
11
5.0788794094488185
21
-3.5707909842519685
0
LINE
8
BLACK
6
CONTINUOUS
10
5.0788794094488185
20
-3.5707909842519685
11
5.0802759448818895
21
-3.5760029133858269
0
LINE
8
BLACK
6
CONTINUOUS
10
5.0802759448818895
20
-3.5760029133858269
11
5.0802759448818895
21
-3.5813986614173228
0
LINE
8
BLACK
6
CONTINUOUS
10
5.0802759448818895
20
-3.5813986614173228
11
5.0788794094488185
21
-3.5866105905511811
0
LINE
8
BLACK
6
CONTINUOUS
10
5.0788794094488185
20
-3.5866105905511811
11
5.0761815354330704
21
-3.5912834645669292
0
LINE
8
BLACK
6
CONTINUOUS
10
5.0761815354330704
20
-3.5912834645669292
11
5.0723661417322834
21
-3.5950988582677166
0
LINE
8
BLACK
6
CONTINUOUS
10
5.0723661417322834
20
-3.5950988582677166
11
5.0676932677165354
21
-3.5977967322834643
0
LINE
8
BLACK
6
CONTINUOUS
10
5.0676932677165354
20
-3.5977967322834643
11
5.0624813385826775
21
-3.5991932677165352
0
LINE
8
BLACK
6
CONTINUOUS
10
5.0624813385826775
20
-3.5991932677165352
11
5.0570855905511811
21
-3.5991932677165352
0
LINE
8
BLACK
6
CONTINUOUS
10
5.0570855905511811
20
-3.5991932677165352
11
5.0518736614173223
21
-3.5977967322834643
0
LINE
8
BLACK
6
CONTINUOUS
10
5.0518736614173223
20
-3.5977967322834643
11
5.0472007874015743
21
-3.5950988582677166
0
LINE
8
BLACK
6
CONTINUOUS
10
5.0472007874015743
20
-3.5950988582677166
11
5.0433853937007873
21
-3.5912834645669292
0
LINE
8
BLACK
6
CONTINUOUS
10
5.0433853937007873
20
-3.5912834645669292
11
5.0406875196850391
21
-3.5866105905511811
0
LINE
8
BLACK
6
CONTINUOUS
10
5.0406875196850391
20
-3.5866105905511811
11
5.0392909842519682
21
-3.5813986614173228
0
LINE
8
BLACK
6
CONTINUOUS
10
5.0392909842519682
20
-3.5813986614173228
11
5.0392909842519682
21
-3.5760029133858269
0
LINE
8
BLACK
6
CONTINUOUS
10
5.0392909842519682
20
-3.5760029133858269
11
5.0406875196850391
21
-3.5707909842519685
0
LINE
8
BLACK
6
CONTINUOUS
10
5.0406875196850391
20
-3.5707909842519685
11
5.0433853937007873
21
-3.5661181102362205
0
LINE
8
BLACK
6
CONTINUOUS
10
5.0433853937007873
20
-3.5661181102362205
11
5.0472007874015743
21
-3.5623027165354331
0
LINE
8
BLACK
6
CONTINUOUS
10
5.0472007874015743
20
-3.5623027165354331
11
5.0518736614173223
21
-3.5596048425196849
0
LINE
8
BLACK
6
CONTINUOUS
10
5.0518736614173223
20
-3.5596048425196849
11
5.0570855905511811
21
-3.558208307086614
0
LINE
8
BLACK
6
CONTINUOUS
10
5.0570855905511811
20
-3.558208307086614
11
5.0624813385826775
21
-3.558208307086614
0
LINE
8
BLACK
6
CONTINUOUS
10
5.0624813385826775
20
-3.558208307086614
11
5.0676932677165354
21
-3.5596048425196849
0
LINE
8
BLACK
6
CONTINUOUS
10
6.648568937007874
20
-3.4482401968503935
11
6.6565009055118107
21
-3.4508174409448817
0
LINE
8
BLACK
6
CONTINUOUS
10
6.6565009055118107
20
-3.4508174409448817
11
6.6639320078740152
21
-3.454603779527559
0
LINE
8
BLACK
6
CONTINUOUS
10
6.6639320078740152
20
-3.454603779527559
11
6.6706793307086611
21
-3.4595059842519684
0
LINE
8
BLACK
6
CONTINUOUS
10
6.6706793307086611
20
-3.4595059842519684
11
6.6765766929133861
21
-3.4654033464566929
0
LINE
8
BLACK
6
CONTINUOUS
10
6.6765766929133861
20
-3.4654033464566929
11
6.6814788976377955
21
-3.4721506692913384
0
LINE
8
BLACK
6
CONTINUOUS
10
6.6814788976377955
20
-3.4721506692913384
11
6.6852652362204719
21
-3.4795817716535433
0
LINE
8
BLACK
6
CONTINUOUS
10
6.6852652362204719
20
-3.4795817716535433
11
6.6878424803149601
21
-3.4875137401574801
0
LINE
8
BLACK
6
CONTINUOUS
10
6.6878424803149601
20
-3.4875137401574801
11
6.6891471653543304
21
-3.4957511811023623
0
LINE
8
BLACK
6
CONTINUOUS
10
6.6891471653543304
20
-3.4957511811023623
11
6.6891471653543304
21
-3.5040913385826773
0
LINE
8
BLACK
6
CONTINUOUS
10
6.6891471653543304
20
-3.5040913385826773
11
6.6878424803149601
21
-3.5123287795275591
0
LINE
8
BLACK
6
CONTINUOUS
10
6.6878424803149601
20
-3.5123287795275591
11
6.6852652362204719
21
-3.5202607480314958
0
LINE
8
BLACK
6
CONTINUOUS
10
6.6852652362204719
20
-3.5202607480314958
11
6.6814788976377955
21
-3.5276918503937007
0
LINE
8
BLACK
6
CONTINUOUS
10
6.6814788976377955
20
-3.5276918503937007
11
6.6765766929133861
21
-3.5344391732283462
0
LINE
8
BLACK
6
CONTINUOUS
10
6.6765766929133861
20
-3.5344391732283462
11
6.6706793307086611
21
-3.5403365354330707
0
LINE
8
BLACK
6
CONTINUOUS
10
6.6706793307086611
20
-3.5403365354330707
11
6.6639320078740152
21
-3.5452387401574801
0
LINE
8
BLACK
6
CONTINUOUS
10
6.6639320078740152
20
-3.5452387401574801
11
6.6565009055118107
21
-3.5490250787401574
0
LINE
8
BLACK
6
CONTINUOUS
10
6.6565009055118107
20
-3.5490250787401574
11
6.648568937007874
21
-3.5516023228346456
0
LINE
8
BLACK
6
CONTINUOUS
10
6.648568937007874
20
-3.5516023228346456
11
6.6403314960629922
21
-3.5529070078740155
0
LINE
8
BLACK
6
CONTINUOUS
10
6.6403314960629922
20
-3.5529070078740155
11
6.6319913385826768
21
-3.5529070078740155
0
LINE
8
BLACK
6
CONTINUOUS
10
6.6319913385826768
20
-3.5529070078740155
11
6.623753897637795
21
-3.5516023228346456
0
LINE
8
BLACK
6
CONTINUOUS
10
6.623753897637795
20
-3.5516023228346456
11
6.6158219291338582
21
-3.5490250787401574
0
LINE
8
BLACK
6
CONTINUOUS
10
6.6158219291338582
20
-3.5490250787401574
11
6.6083908267716538
21
-3.5452387401574801
0
LINE
8
BLACK
6
CONTINUOUS
10
6.6083908267716538
20
-3.5452387401574801
11
6.6016435039370078
21
-3.5403365354330707
0
LINE
8
BLACK
6
CONTINUOUS
10
6.6016435039370078
20
-3.5403365354330707
11
6.5957461417322829
21
-3.5344391732283462
0
LINE
8
BLACK
6
CONTINUOUS
10
6.5957461417322829
20
-3.5344391732283462
11
6.5908439370078735
21
-3.5276918503937007
0
LINE
8
BLACK
6
CONTINUOUS
10
6.5908439370078735
20
-3.5276918503937007
11
6.5870575984251971
21
-3.5202607480314958
0
LINE
8
BLACK
6
CONTINUOUS
10
6.5870575984251971
20
-3.5202607480314958
11
6.5844803543307089
21
-3.5123287795275591
0
LINE
8
BLACK
6
CONTINUOUS
10
6.5844803543307089
20
-3.5123287795275591
11
6.5831756692913386
21
-3.5040913385826773
0
LINE
8
BLACK
6
CONTINUOUS
10
6.5831756692913386
20
-3.5040913385826773
11
6.5831756692913386
21
-3.4957511811023623
0
LINE
8
BLACK
6
CONTINUOUS
10
6.5831756692913386
20
-3.4957511811023623
11
6.5844803543307089
21
-3.4875137401574801
0
LINE
8
BLACK
6
CONTINUOUS
10
6.5844803543307089
20
-3.4875137401574801
11
6.5870575984251971
21
-3.4795817716535433
0
LINE
8
BLACK
6
CONTINUOUS
10
6.5870575984251971
20
-3.4795817716535433
11
6.5908439370078735
21
-3.4721506692913384
0
LINE
8
BLACK
6
CONTINUOUS
10
6.5908439370078735
20
-3.4721506692913384
11
6.5957461417322829
21
-3.4654033464566929
0
LINE
8
BLACK
6
CONTINUOUS
10
6.5957461417322829
20
-3.4654033464566929
11
6.6016435039370078
21
-3.4595059842519684
0
LINE
8
BLACK
6
CONTINUOUS
10
6.6016435039370078
20
-3.4595059842519684
11
6.6083908267716538
21
-3.454603779527559
0
LINE
8
BLACK
6
CONTINUOUS
10
6.6083908267716538
20
-3.454603779527559
11
6.6158219291338582
21
-3.4508174409448817
0
LINE
8
BLACK
6
CONTINUOUS
10
6.6158219291338582
20
-3.4508174409448817
11
6.623753897637795
21
-3.4482401968503935
0
LINE
8
BLACK
6
CONTINUOUS
10
6.623753897637795
20
-3.4482401968503935
11
6.6319913385826768
21
-3.4469355118110236
0
LINE
8
BLACK
6
CONTINUOUS
10
6.6319913385826768
20
-3.4469355118110236
11
6.6403314960629922
21
-3.4469355118110236
0
LINE
8
BLACK
6
CONTINUOUS
10
6.6403314960629922
20
-3.4469355118110236
11
6.648568937007874
21
-3.4482401968503935
0
LINE
8
BLACK
6
CONTINUOUS
10
6.648568937007874
20
-3.3113898031496061
11
6.6565009055118107
21
-3.3139670472440943
0
LINE
8
BLACK
6
CONTINUOUS
10
6.6565009055118107
20
-3.3139670472440943
11
6.6639320078740152
21
-3.3177533858267716
0
LINE
8
BLACK
6
CONTINUOUS
10
6.6639320078740152
20
-3.3177533858267716
11
6.6706793307086611
21
-3.322655590551181
0
LINE
8
BLACK
6
CONTINUOUS
10
6.6706793307086611
20
-3.322655590551181
11
6.6765766929133861
21
-3.3285529527559055
0
LINE
8
BLACK
6
CONTINUOUS
10
6.6765766929133861
20
-3.3285529527559055
11
6.6814788976377955
21
-3.335300275590551
0
LINE
8
BLACK
6
CONTINUOUS
10
6.6814788976377955
20
-3.335300275590551
11
6.6852652362204719
21
-3.3427313779527559
0
LINE
8
BLACK
6
CONTINUOUS
10
6.6852652362204719
20
-3.3427313779527559
11
6.6878424803149601
21
-3.3506633464566931
0
LINE
8
BLACK
6
CONTINUOUS
10
6.6878424803149601
20
-3.3506633464566931
11
6.6891471653543304
21
-3.3589007874015748
0
LINE
8
BLACK
6
CONTINUOUS
10
6.6891471653543304
20
-3.3589007874015748
11
6.6891471653543304
21
-3.3672409448818899
0
LINE
8
BLACK
6
CONTINUOUS
10
6.6891471653543304
20
-3.3672409448818899
11
6.6878424803149601
21
-3.3754783858267716
0
LINE
8
BLACK
6
CONTINUOUS
10
6.6878424803149601
20
-3.3754783858267716
11
6.6852652362204719
21
-3.3834103543307088
0
LINE
8
BLACK
6
CONTINUOUS
10
6.6852652362204719
20
-3.3834103543307088
11
6.6814788976377955
21
-3.3908414566929133
0
LINE
8
BLACK
6
CONTINUOUS
10
6.6814788976377955
20
-3.3908414566929133
11
6.6765766929133861
21
-3.3975887795275588
0
LINE
8
BLACK
6
CONTINUOUS
10
6.6765766929133861
20
-3.3975887795275588
11
6.6706793307086611
21
-3.4034861417322833
0
LINE
8
BLACK
6
CONTINUOUS
10
6.6706793307086611
20
-3.4034861417322833
11
6.6639320078740152
21
-3.4083883464566926
0
LINE
8
BLACK
6
CONTINUOUS
10
6.6639320078740152
20
-3.4083883464566926
11
6.6565009055118107
21
-3.4121746850393699
0
LINE
8
BLACK
6
CONTINUOUS
10
6.6565009055118107
20
-3.4121746850393699
11
6.648568937007874
21
-3.4147519291338582
0
LINE
8
BLACK
6
CONTINUOUS
10
6.648568937007874
20
-3.4147519291338582
11
6.6403314960629922
21
-3.4160566141732285
0
LINE
8
BLACK
6
CONTINUOUS
10
6.6403314960629922
20
-3.4160566141732285
11
6.6319913385826768
21
-3.4160566141732285
0
LINE
8
BLACK
6
CONTINUOUS
10
6.6319913385826768
20
-3.4160566141732285
11
6.623753897637795
21
-3.4147519291338582
0
LINE
8
BLACK
6
CONTINUOUS
10
6.623753897637795
20
-3.4147519291338582
11
6.6158219291338582
21
-3.4121746850393699
0
LINE
8
BLACK
6
CONTINUOUS
10
6.6158219291338582
20
-3.4121746850393699
11
6.6083908267716538
21
-3.4083883464566926
0
LINE
8
BLACK
6
CONTINUOUS
10
6.6083908267716538
20
-3.4083883464566926
11
6.6016435039370078
21
-3.4034861417322833
0
LINE
8
BLACK
6
CONTINUOUS
10
6.6016435039370078
20
-3.4034861417322833
11
6.5957461417322829
21
-3.3975887795275588
0
LINE
8
BLACK
6
CONTINUOUS
10
6.5957461417322829
20
-3.3975887795275588
11
6.5908439370078735
21
-3.3908414566929133
0
LINE
8
BLACK
6
CONTINUOUS
10
6.5908439370078735
20
-3.3908414566929133
11
6.5870575984251971
21
-3.3834103543307088
0
LINE
8
BLACK
6
CONTINUOUS
10
6.5870575984251971
20
-3.3834103543307088
11
6.5844803543307089
21
-3.3754783858267716
0
LINE
8
BLACK
6
CONTINUOUS
10
6.5844803543307089
20
-3.3754783858267716
11
6.5831756692913386
21
-3.3672409448818899
0
LINE
8
BLACK
6
CONTINUOUS
10
6.5831756692913386
20
-3.3672409448818899
11
6.5831756692913386
21
-3.3589007874015748
0
LINE
8
BLACK
6
CONTINUOUS
10
6.5831756692913386
20
-3.3589007874015748
11
6.5844803543307089
21
-3.3506633464566931
0
LINE
8
BLACK
6
CONTINUOUS
10
6.5844803543307089
20
-3.3506633464566931
11
6.5870575984251971
21
-3.3427313779527559
0
LINE
8
BLACK
6
CONTINUOUS
10
6.5870575984251971
20
-3.3427313779527559
11
6.5908439370078735
21
-3.335300275590551
0
LINE
8
BLACK
6
CONTINUOUS
10
6.5908439370078735
20
-3.335300275590551
11
6.5957461417322829
21
-3.3285529527559055
0
LINE
8
BLACK
6
CONTINUOUS
10
6.5957461417322829
20
-3.3285529527559055
11
6.6016435039370078
21
-3.322655590551181
0
LINE
8
BLACK
6
CONTINUOUS
10
6.6016435039370078
20
-3.322655590551181
11
6.6083908267716538
21
-3.3177533858267716
0
LINE
8
BLACK
6
CONTINUOUS
10
6.6083908267716538
20
-3.3177533858267716
11
6.6158219291338582
21
-3.3139670472440943
0
LINE
8
BLACK
6
CONTINUOUS
10
6.6158219291338582
20
-3.3139670472440943
11
6.623753897637795
21
-3.3113898031496061
0
LINE
8
BLACK
6
CONTINUOUS
10
6.623753897637795
20
-3.3113898031496061
11
6.6319913385826768
21
-3.3100851181102362
0
LINE
8
BLACK
6
CONTINUOUS
10
6.6319913385826768
20
-3.3100851181102362
11
6.6403314960629922
21
-3.3100851181102362
0
LINE
8
BLACK
6
CONTINUOUS
10
6.6403314960629922
20
-3.3100851181102362
11
6.648568937007874
21
-3.3113898031496061
0
LINE
8
BLACK
6
CONTINUOUS
10
5.0676932677165354
20
-3.3320457874015745
11
5.0723661417322834
21
-3.3347436614173227
0
LINE
8
BLACK
6
CONTINUOUS
10
5.0723661417322834
20
-3.3347436614173227
11
5.0761815354330704
21
-3.3385590551181101
0
LINE
8
BLACK
6
CONTINUOUS
10
5.0761815354330704
20
-3.3385590551181101
11
5.0788794094488185
21
-3.3432319291338581
0
LINE
8
BLACK
6
CONTINUOUS
10
5.0788794094488185
20
-3.3432319291338581
11
5.0802759448818895
21
-3.3484438582677165
0
LINE
8
BLACK
6
CONTINUOUS
10
5.0802759448818895
20
-3.3484438582677165
11
5.0802759448818895
21
-3.3538396062992124
0
LINE
8
BLACK
6
CONTINUOUS
10
5.0802759448818895
20
-3.3538396062992124
11
5.0788794094488185
21
-3.3590515354330708
0
LINE
8
BLACK
6
CONTINUOUS
10
5.0788794094488185
20
-3.3590515354330708
11
5.0761815354330704
21
-3.3637244094488188
0
LINE
8
BLACK
6
CONTINUOUS
10
5.0761815354330704
20
-3.3637244094488188
11
5.0723661417322834
21
-3.3675398031496062
0
LINE
8
BLACK
6
CONTINUOUS
10
5.0723661417322834
20
-3.3675398031496062
11
5.0676932677165354
21
-3.3702376771653544
0
LINE
8
BLACK
6
CONTINUOUS
10
5.0676932677165354
20
-3.3702376771653544
11
5.0624813385826775
21
-3.3716342125984253
0
LINE
8
BLACK
6
CONTINUOUS
10
5.0624813385826775
20
-3.3716342125984253
11
5.0570855905511811
21
-3.3716342125984253
0
LINE
8
BLACK
6
CONTINUOUS
10
5.0570855905511811
20
-3.3716342125984253
11
5.0518736614173223
21
-3.3702376771653544
0
LINE
8
BLACK
6
CONTINUOUS
10
5.0518736614173223
20
-3.3702376771653544
11
5.0472007874015743
21
-3.3675398031496062
0
LINE
8
BLACK
6
CONTINUOUS
10
5.0472007874015743
20
-3.3675398031496062
11
5.0433853937007873
21
-3.3637244094488188
0
LINE
8
BLACK
6
CONTINUOUS
10
5.0433853937007873
20
-3.3637244094488188
11
5.0406875196850391
21
-3.3590515354330708
0
LINE
8
BLACK
6
CONTINUOUS
10
5.0406875196850391
20
-3.3590515354330708
11
5.0392909842519682
21
-3.3538396062992124
0
LINE
8
BLACK
6
CONTINUOUS
10
5.0392909842519682
20
-3.3538396062992124
11
5.0392909842519682
21
-3.3484438582677165
0
LINE
8
BLACK
6
CONTINUOUS
10
5.0392909842519682
20
-3.3484438582677165
11
5.0406875196850391
21
-3.3432319291338581
0
LINE
8
BLACK
6
CONTINUOUS
10
5.0406875196850391
20
-3.3432319291338581
11
5.0433853937007873
21
-3.3385590551181101
0
LINE
8
BLACK
6
CONTINUOUS
10
5.0433853937007873
20
-3.3385590551181101
11
5.0472007874015743
21
-3.3347436614173227
0
LINE
8
BLACK
6
CONTINUOUS
10
5.0472007874015743
20
-3.3347436614173227
11
5.0518736614173223
21
-3.3320457874015745
0
LINE
8
BLACK
6
CONTINUOUS
10
5.0518736614173223
20
-3.3320457874015745
11
5.0570855905511811
21
-3.330649251968504
0
LINE
8
BLACK
6
CONTINUOUS
10
5.0570855905511811
20
-3.330649251968504
11
5.0624813385826775
21
-3.330649251968504
0
LINE
8
BLACK
6
CONTINUOUS
10
5.0624813385826775
20
-3.330649251968504
11
5.0676932677165354
21
-3.3320457874015745
0
LINE
8
BLACK
6
CONTINUOUS
10
5.1029355118110233
20
-3.2664366535433071
11
5.1084234645669291
21
-3.2675282677165352
0
LINE
8
BLACK
6
CONTINUOUS
10
5.1084234645669291
20
-3.2675282677165352
11
5.1135930314960625
21
-3.2696695669291338
0
LINE
8
BLACK
6
CONTINUOUS
10
5.1135930314960625
20
-3.2696695669291338
11
5.118245472440945
21
-3.2727782283464566
0
LINE
8
BLACK
6
CONTINUOUS
10
5.118245472440945
20
-3.2727782283464566
11
5.1222020866141733
21
-3.2767348425196849
0
LINE
8
BLACK
6
CONTINUOUS
10
5.1222020866141733
20
-3.2767348425196849
11
5.1253107480314961
21
-3.281387283464567
0
LINE
8
BLACK
6
CONTINUOUS
10
5.1253107480314961
20
-3.281387283464567
11
5.1274520472440948
21
-3.2865568503937008
0
LINE
8
BLACK
6
CONTINUOUS
10
5.1274520472440948
20
-3.2865568503937008
11
5.1285436614173223
21
-3.2920448031496061
0
LINE
8
BLACK
6
CONTINUOUS
10
5.1285436614173223
20
-3.2920448031496061
11
5.1285436614173223
21
-3.2976402362204724
0
LINE
8
BLACK
6
CONTINUOUS
10
5.1285436614173223
20
-3.2976402362204724
11
5.1274520472440948
21
-3.3031281889763777
0
LINE
8
BLACK
6
CONTINUOUS
10
5.1274520472440948
20
-3.3031281889763777
11
5.1253107480314961
21
-3.3082977559055116
0
LINE
8
BLACK
6
CONTINUOUS
10
5.1253107480314961
20
-3.3082977559055116
11
5.1222020866141733
21
-3.3129501968503936
0
LINE
8
BLACK
6
CONTINUOUS
10
5.1222020866141733
20
-3.3129501968503936
11
5.118245472440945
21
-3.3169068110236219
0
LINE
8
BLACK
6
CONTINUOUS
10
5.118245472440945
20
-3.3169068110236219
11
5.1135930314960625
21
-3.3200154724409447
0
LINE
8
BLACK
6
CONTINUOUS
10
5.1135930314960625
20
-3.3200154724409447
11
5.1084234645669291
21
-3.3221567716535434
0
LINE
8
BLACK
6
CONTINUOUS
10
5.1084234645669291
20
-3.3221567716535434
11
5.1029355118110233
21
-3.3232483858267714
0
LINE
8
BLACK
6
CONTINUOUS
10
5.1029355118110233
20
-3.3232483858267714
11
5.1001377952755904
21
-3.3233858267716534
0
LINE
8
BLACK
6
CONTINUOUS
10
5.1001377952755904
20
-3.3233858267716534
11
5.0587992125984247
21
-3.3233858267716534
0
LINE
8
BLACK
6
CONTINUOUS
10
5.0587992125984247
20
-3.3233858267716534
11
5.0560014960629918
21
-3.3232483858267714
0
LINE
8
BLACK
6
CONTINUOUS
10
5.0560014960629918
20
-3.3232483858267714
11
5.0505135433070869
21
-3.3221567716535434
0
LINE
8
BLACK
6
CONTINUOUS
10
5.0505135433070869
20
-3.3221567716535434
11
5.0453439763779526
21
-3.3200154724409447
0
LINE
8
BLACK
6
CONTINUOUS
10
5.0453439763779526
20
-3.3200154724409447
11
5.040691535433071
21
-3.3169068110236219
0
LINE
8
BLACK
6
CONTINUOUS
10
5.040691535433071
20
-3.3169068110236219
11
5.0367349212598427
21
-3.3129501968503936
0
LINE
8
BLACK
6
CONTINUOUS
10
5.0367349212598427
20
-3.3129501968503936
11
5.0336262598425199
21
-3.3082977559055116
0
LINE
8
BLACK
6
CONTINUOUS
10
5.0336262598425199
20
-3.3082977559055116
11
5.0314849606299212
21
-3.3031281889763777
0
LINE
8
BLACK
6
CONTINUOUS
10
5.0314849606299212
20
-3.3031281889763777
11
5.0303933464566928
21
-3.2976402362204724
0
LINE
8
BLACK
6
CONTINUOUS
10
5.0303933464566928
20
-3.2976402362204724
11
5.0303933464566928
21
-3.2920448031496061
0
LINE
8
BLACK
6
CONTINUOUS
10
5.0303933464566928
20
-3.2920448031496061
11
5.0314849606299212
21
-3.2865568503937008
0
LINE
8
BLACK
6
CONTINUOUS
10
5.0314849606299212
20
-3.2865568503937008
11
5.0336262598425199
21
-3.281387283464567
0
LINE
8
BLACK
6
CONTINUOUS
10
5.0336262598425199
20
-3.281387283464567
11
5.0367349212598427
21
-3.2767348425196849
0
LINE
8
BLACK
6
CONTINUOUS
10
5.0367349212598427
20
-3.2767348425196849
11
5.040691535433071
21
-3.2727782283464566
0
LINE
8
BLACK
6
CONTINUOUS
10
5.040691535433071
20
-3.2727782283464566
11
5.0453439763779526
21
-3.2696695669291338
0
LINE
8
BLACK
6
CONTINUOUS
10
5.0453439763779526
20
-3.2696695669291338
11
5.0505135433070869
21
-3.2675282677165352
0
LINE
8
BLACK
6
CONTINUOUS
10
5.0505135433070869
20
-3.2675282677165352
11
5.0560014960629918
21
-3.2664366535433071
0
LINE
8
BLACK
6
CONTINUOUS
10
5.0560014960629918
20
-3.2664366535433071
11
5.0587992125984247
21
-3.2662992125984252
0
LINE
8
BLACK
6
CONTINUOUS
10
5.0587992125984247
20
-3.2662992125984252
11
5.1001377952755904
21
-3.2662992125984252
0
LINE
8
BLACK
6
CONTINUOUS
10
5.1001377952755904
20
-3.2662992125984252
11
5.1029355118110233
21
-3.2664366535433071
0
LINE
8
BLACK
6
CONTINUOUS
10
4.9372878740157482
20
-3.2674161811023623
11
4.9425865748031494
21
-3.2684701574803148
0
LINE
8
BLACK
6
CONTINUOUS
10
4.9425865748031494
20
-3.2684701574803148
11
4.9475778740157477
21
-3.270537598425197
0
LINE
8
BLACK
6
CONTINUOUS
10
4.9475778740157477
20
-3.270537598425197
11
4.9520698818897637
21
-3.2735390944881888
0
LINE
8
BLACK
6
CONTINUOUS
10
4.9520698818897637
20
-3.2735390944881888
11
4.9558900393700789
21
-3.277359251968504
0
LINE
8
BLACK
6
CONTINUOUS
10
4.9558900393700789
20
-3.277359251968504
11
4.9588915354330707
21
-3.2818512598425196
0
LINE
8
BLACK
6
CONTINUOUS
10
4.9588915354330707
20
-3.2818512598425196
11
4.9609589763779525
21
-3.2868425590551182
0
LINE
8
BLACK
6
CONTINUOUS
10
4.9609589763779525
20
-3.2868425590551182
11
4.9620129527559058
21
-3.2921412598425195
0
LINE
8
BLACK
6
CONTINUOUS
10
4.9620129527559058
20
-3.2921412598425195
11
4.9620129527559058
21
-3.2975437795275591
0
LINE
8
BLACK
6
CONTINUOUS
10
4.9620129527559058
20
-3.2975437795275591
11
4.9609589763779525
21
-3.3028424803149607
0
LINE
8
BLACK
6
CONTINUOUS
10
4.9609589763779525
20
-3.3028424803149607
11
4.9588915354330707
21
-3.307833779527559
0
LINE
8
BLACK
6
CONTINUOUS
10
4.9588915354330707
20
-3.307833779527559
11
4.9558900393700789
21
-3.3123257874015746
0
LINE
8
BLACK
6
CONTINUOUS
10
4.9558900393700789
20
-3.3123257874015746
11
4.9520698818897637
21
-3.3161459448818897
0
LINE
8
BLACK
6
CONTINUOUS
10
4.9520698818897637
20
-3.3161459448818897
11
4.9475778740157477
21
-3.319147440944882
0
LINE
8
BLACK
6
CONTINUOUS
10
4.9475778740157477
20
-3.319147440944882
11
4.9425865748031494
21
-3.3212148818897638
0
LINE
8
BLACK
6
CONTINUOUS
10
4.9425865748031494
20
-3.3212148818897638
11
4.9372878740157482
21
-3.3222688582677167
0
LINE
8
BLACK
6
CONTINUOUS
10
4.9372878740157482
20
-3.3222688582677167
11
4.9345866141732282
21
-3.3224015748031497
0
LINE
8
BLACK
6
CONTINUOUS
10
4.9345866141732282
20
-3.3224015748031497
11
4.8952165354330708
21
-3.3224015748031497
0
LINE
8
BLACK
6
CONTINUOUS
10
4.8952165354330708
20
-3.3224015748031497
11
4.8925152755905508
21
-3.3222688582677167
0
LINE
8
BLACK
6
CONTINUOUS
10
4.8925152755905508
20
-3.3222688582677167
11
4.8872165748031495
21
-3.3212148818897638
0
LINE
8
BLACK
6
CONTINUOUS
10
4.8872165748031495
20
-3.3212148818897638
11
4.8822252755905513
21
-3.319147440944882
0
LINE
8
BLACK
6
CONTINUOUS
10
4.8822252755905513
20
-3.319147440944882
11
4.8777332677165353
21
-3.3161459448818897
0
LINE
8
BLACK
6
CONTINUOUS
10
4.8777332677165353
20
-3.3161459448818897
11
4.8739131102362201
21
-3.3123257874015746
0
LINE
8
BLACK
6
CONTINUOUS
10
4.8739131102362201
20
-3.3123257874015746
11
4.8709116141732283
21
-3.307833779527559
0
LINE
8
BLACK
6
CONTINUOUS
10
4.8709116141732283
20
-3.307833779527559
11
4.8688441732283465
21
-3.3028424803149607
0
LINE
8
BLACK
6
CONTINUOUS
10
4.8688441732283465
20
-3.3028424803149607
11
4.8677901968503932
21
-3.2975437795275591
0
LINE
8
BLACK
6
CONTINUOUS
10
4.8677901968503932
20
-3.2975437795275591
11
4.8677901968503932
21
-3.2921412598425195
0
LINE
8
BLACK
6
CONTINUOUS
10
4.8677901968503932
20
-3.2921412598425195
11
4.8688441732283465
21
-3.2868425590551182
0
LINE
8
BLACK
6
CONTINUOUS
10
4.8688441732283465
20
-3.2868425590551182
11
4.8709116141732283
21
-3.2818512598425196
0
LINE
8
BLACK
6
CONTINUOUS
10
4.8709116141732283
20
-3.2818512598425196
11
4.8739131102362201
21
-3.277359251968504
0
LINE
8
BLACK
6
CONTINUOUS
10
4.8739131102362201
20
-3.277359251968504
11
4.8777332677165353
21
-3.2735390944881888
0
LINE
8
BLACK
6
CONTINUOUS
10
4.8777332677165353
20
-3.2735390944881888
11
4.8822252755905513
21
-3.270537598425197
0
LINE
8
BLACK
6
CONTINUOUS
10
4.8822252755905513
20
-3.270537598425197
11
4.8872165748031495
21
-3.2684701574803148
0
LINE
8
BLACK
6
CONTINUOUS
10
4.8872165748031495
20
-3.2684701574803148
11
4.8925152755905508
21
-3.2674161811023623
0
LINE
8
BLACK
6
CONTINUOUS
10
4.8925152755905508
20
-3.2674161811023623
11
4.8952165354330708
21
-3.2672834645669289
0
LINE
8
BLACK
6
CONTINUOUS
10
4.8952165354330708
20
-3.2672834645669289
11
4.9345866141732282
21
-3.2672834645669289
0
LINE
8
BLACK
6
CONTINUOUS
10
4.9345866141732282
20
-3.2672834645669289
11
4.9372878740157482
21
-3.2674161811023623
0
LINE
8
BLACK
6
CONTINUOUS
10
5.0478157480314962
20
-2.9525280708661419
11
5.0615895275590548
21
-2.9556718503937005
0
LINE
8
BLACK
6
CONTINUOUS
10
5.0615895275590548
20
-2.9556718503937005
11
5.0749246850393703
21
-2.960337992125984
0
LINE
8
BLACK
6
CONTINUOUS
10
5.0749246850393703
20
-2.960337992125984
11
5.0876535433070869
21
-2.9664679133858267
0
LINE
8
BLACK
6
CONTINUOUS
10
5.0876535433070869
20
-2.9664679133858267
11
5.0996160629921254
21
-2.9739844488188978
0
LINE
8
BLACK
6
CONTINUOUS
10
5.0996160629921254
20
-2.9739844488188978
11
5.1106617716535432
21
-2.9827931102362206
0
LINE
8
BLACK
6
CONTINUOUS
10
5.1106617716535432
20
-2.9827931102362206
11
5.1206517716535433
21
-2.9927831102362203
0
LINE
8
BLACK
6
CONTINUOUS
10
5.1206517716535433
20
-2.9927831102362203
11
5.1294604330708662
21
-3.0038288188976376
0
LINE
8
BLACK
6
CONTINUOUS
10
5.1294604330708662
20
-3.0038288188976376
11
5.1369769685039373
21
-3.0157913385826771
0
LINE
8
BLACK
6
CONTINUOUS
10
5.1369769685039373
20
-3.0157913385826771
11
5.1431068897637795
21
-3.0285201968503936
0
LINE
8
BLACK
6
CONTINUOUS
10
5.1431068897637795
20
-3.0285201968503936
11
5.1477730314960626
21
-3.0418553543307087
0
LINE
8
BLACK
6
CONTINUOUS
10
5.1477730314960626
20
-3.0418553543307087
11
5.1509168110236221
21
-3.0556291338582677
0
LINE
8
BLACK
6
CONTINUOUS
10
5.1509168110236221
20
-3.0556291338582677
11
5.1524986614173232
21
-3.069668307086614
0
LINE
8
BLACK
6
CONTINUOUS
10
5.1524986614173232
20
-3.069668307086614
11
5.1524986614173232
21
-3.0837962598425195
0
LINE
8
BLACK
6
CONTINUOUS
10
5.1524986614173232
20
-3.0837962598425195
11
5.1509168110236221
21
-3.0978354330708662
0
LINE
8
BLACK
6
CONTINUOUS
10
5.1509168110236221
20
-3.0978354330708662
11
5.1477730314960626
21
-3.1116092125984252
0
LINE
8
BLACK
6
CONTINUOUS
10
5.1477730314960626
20
-3.1116092125984252
11
5.1431068897637795
21
-3.1249443700787403
0
LINE
8
BLACK
6
CONTINUOUS
10
5.1431068897637795
20
-3.1249443700787403
11
5.1369769685039373
21
-3.1376732283464568
0
LINE
8
BLACK
6
CONTINUOUS
10
5.1369769685039373
20
-3.1376732283464568
11
5.1294604330708662
21
-3.1496357480314958
0
LINE
8
BLACK
6
CONTINUOUS
10
5.1294604330708662
20
-3.1496357480314958
11
5.1206517716535433
21
-3.1606814566929131
0
LINE
8
BLACK
6
CONTINUOUS
10
5.1206517716535433
20
-3.1606814566929131
11
5.1106617716535432
21
-3.1706714566929133
0
LINE
8
BLACK
6
CONTINUOUS
10
5.1106617716535432
20
-3.1706714566929133
11
5.0996160629921254
21
-3.1794801181102361
0
LINE
8
BLACK
6
CONTINUOUS
10
5.0996160629921254
20
-3.1794801181102361
11
5.0876535433070869
21
-3.1869966535433072
0
LINE
8
BLACK
6
CONTINUOUS
10
5.0876535433070869
20
-3.1869966535433072
11
5.0749246850393703
21
-3.1931265748031494
0
LINE
8
BLACK
6
CONTINUOUS
10
5.0749246850393703
20
-3.1931265748031494
11
5.0615895275590548
21
-3.197792716535433
0
LINE
8
BLACK
6
CONTINUOUS
10
5.0615895275590548
20
-3.197792716535433
11
5.0478157480314962
21
-3.200936496062992
0
LINE
8
BLACK
6
CONTINUOUS
10
5.0478157480314962
20
-3.200936496062992
11
5.0337765748031496
21
-3.2025183464566926
0
LINE
8
BLACK
6
CONTINUOUS
10
5.0337765748031496
20
-3.2025183464566926
11
5.019648622047244
21
-3.2025183464566926
0
LINE
8
BLACK
6
CONTINUOUS
10
5.019648622047244
20
-3.2025183464566926
11
5.0056094488188974
21
-3.200936496062992
0
LINE
8
BLACK
6
CONTINUOUS
10
5.0056094488188974
20
-3.200936496062992
11
4.9918356692913388
21
-3.197792716535433
0
LINE
8
BLACK
6
CONTINUOUS
10
4.9918356692913388
20
-3.197792716535433
11
4.9785005118110233
21
-3.1931265748031494
0
LINE
8
BLACK
6
CONTINUOUS
10
4.9785005118110233
20
-3.1931265748031494
11
4.9657716535433067
21
-3.1869966535433072
0
LINE
8
BLACK
6
CONTINUOUS
10
4.9657716535433067
20
-3.1869966535433072
11
4.9538091338582673
21
-3.1794801181102361
0
LINE
8
BLACK
6
CONTINUOUS
10
4.9538091338582673
20
-3.1794801181102361
11
4.9427634251968504
21
-3.1706714566929133
0
LINE
8
BLACK
6
CONTINUOUS
10
4.9427634251968504
20
-3.1706714566929133
11
4.9327734251968502
21
-3.1606814566929131
0
LINE
8
BLACK
6
CONTINUOUS
10
4.9327734251968502
20
-3.1606814566929131
11
4.9239647637795274
21
-3.1496357480314958
0
LINE
8
BLACK
6
CONTINUOUS
10
4.9239647637795274
20
-3.1496357480314958
11
4.9164482283464563
21
-3.1376732283464568
0
LINE
8
BLACK
6
CONTINUOUS
10
4.9164482283464563
20
-3.1376732283464568
11
4.9103183070866141
21
-3.1249443700787403
0
LINE
8
BLACK
6
CONTINUOUS
10
4.9103183070866141
20
-3.1249443700787403
11
4.905652165354331
21
-3.1116092125984252
0
LINE
8
BLACK
6
CONTINUOUS
10
4.905652165354331
20
-3.1116092125984252
11
4.9025083858267715
21
-3.0978354330708662
0
LINE
8
BLACK
6
CONTINUOUS
10
4.9025083858267715
20
-3.0978354330708662
11
4.9009265354330704
21
-3.0837962598425195
0
LINE
8
BLACK
6
CONTINUOUS
10
4.9009265354330704
20
-3.0837962598425195
11
4.9009265354330704
21
-3.069668307086614
0
LINE
8
BLACK
6
CONTINUOUS
10
4.9009265354330704
20
-3.069668307086614
11
4.9025083858267715
21
-3.0556291338582677
0
LINE
8
BLACK
6
CONTINUOUS
10
4.9025083858267715
20
-3.0556291338582677
11
4.905652165354331
21
-3.0418553543307087
0
LINE
8
BLACK
6
CONTINUOUS
10
4.905652165354331
20
-3.0418553543307087
11
4.9103183070866141
21
-3.0285201968503936
0
LINE
8
BLACK
6
CONTINUOUS
10
4.9103183070866141
20
-3.0285201968503936
11
4.9164482283464563
21
-3.0157913385826771
0
LINE
8
BLACK
6
CONTINUOUS
10
4.9164482283464563
20
-3.0157913385826771
11
4.9239647637795274
21
-3.0038288188976376
0
LINE
8
BLACK
6
CONTINUOUS
10
4.9239647637795274
20
-3.0038288188976376
11
4.9327734251968502
21
-2.9927831102362203
0
LINE
8
BLACK
6
CONTINUOUS
10
4.9327734251968502
20
-2.9927831102362203
11
4.9427634251968504
21
-2.9827931102362206
0
LINE
8
BLACK
6
CONTINUOUS
10
4.9427634251968504
20
-2.9827931102362206
11
4.9538091338582673
21
-2.9739844488188978
0
LINE
8
BLACK
6
CONTINUOUS
10
4.9538091338582673
20
-2.9739844488188978
11
4.9657716535433067
21
-2.9664679133858267
0
LINE
8
BLACK
6
CONTINUOUS
10
4.9657716535433067
20
-2.9664679133858267
11
4.9785005118110233
21
-2.960337992125984
0
LINE
8
BLACK
6
CONTINUOUS
10
4.9785005118110233
20
-2.960337992125984
11
4.9918356692913388
21
-2.9556718503937005
0
LINE
8
BLACK
6
CONTINUOUS
10
4.9918356692913388
20
-2.9556718503937005
11
5.0056094488188974
21
-2.9525280708661419
0
LINE
8
BLACK
6
CONTINUOUS
10
5.0056094488188974
20
-2.9525280708661419
11
5.019648622047244
21
-2.9509462204724408
0
LINE
8
BLACK
6
CONTINUOUS
10
5.019648622047244
20
-2.9509462204724408
11
5.0337765748031496
21
-2.9509462204724408
0
LINE
8
BLACK
6
CONTINUOUS
10
5.0337765748031496
20
-2.9509462204724408
11
5.0478157480314962
21
-2.9525280708661419
0
LINE
8
BLACK
6
CONTINUOUS
10
6.6241937007874014
20
-2.9525280708661419
11
6.6379674803149609
21
-2.9556718503937005
0
LINE
8
BLACK
6
CONTINUOUS
10
6.6379674803149609
20
-2.9556718503937005
11
6.6513026377952755
21
-2.960337992125984
0
LINE
8
BLACK
6
CONTINUOUS
10
6.6513026377952755
20
-2.960337992125984
11
6.6640314960629921
21
-2.9664679133858267
0
LINE
8
BLACK
6
CONTINUOUS
10
6.6640314960629921
20
-2.9664679133858267
11
6.6759940157480315
21
-2.9739844488188978
0
LINE
8
BLACK
6
CONTINUOUS
10
6.6759940157480315
20
-2.9739844488188978
11
6.6870397244094484
21
-2.9827931102362206
0
LINE
8
BLACK
6
CONTINUOUS
10
6.6870397244094484
20
-2.9827931102362206
11
6.6970297244094485
21
-2.9927831102362203
0
LINE
8
BLACK
6
CONTINUOUS
10
6.6970297244094485
20
-2.9927831102362203
11
6.7058383858267714
21
-3.0038288188976376
0
LINE
8
BLACK
6
CONTINUOUS
10
6.7058383858267714
20
-3.0038288188976376
11
6.7133549212598425
21
-3.0157913385826771
0
LINE
8
BLACK
6
CONTINUOUS
10
6.7133549212598425
20
-3.0157913385826771
11
6.7194848425196847
21
-3.0285201968503936
0
LINE
8
BLACK
6
CONTINUOUS
10
6.7194848425196847
20
-3.0285201968503936
11
6.7241509842519687
21
-3.0418553543307087
0
LINE
8
BLACK
6
CONTINUOUS
10
6.7241509842519687
20
-3.0418553543307087
11
6.7272947637795273
21
-3.0556291338582677
0
LINE
8
BLACK
6
CONTINUOUS
10
6.7272947637795273
20
-3.0556291338582677
11
6.7288766141732284
21
-3.069668307086614
0
LINE
8
BLACK
6
CONTINUOUS
10
6.7288766141732284
20
-3.069668307086614
11
6.7288766141732284
21
-3.0837962598425195
0
LINE
8
BLACK
6
CONTINUOUS
10
6.7288766141732284
20
-3.0837962598425195
11
6.7272947637795273
21
-3.0978354330708662
0
LINE
8
BLACK
6
CONTINUOUS
10
6.7272947637795273
20
-3.0978354330708662
11
6.7241509842519687
21
-3.1116092125984252
0
LINE
8
BLACK
6
CONTINUOUS
10
6.7241509842519687
20
-3.1116092125984252
11
6.7194848425196847
21
-3.1249443700787403
0
LINE
8
BLACK
6
CONTINUOUS
10
6.7194848425196847
20
-3.1249443700787403
11
6.7133549212598425
21
-3.1376732283464568
0
LINE
8
BLACK
6
CONTINUOUS
10
6.7133549212598425
20
-3.1376732283464568
11
6.7058383858267714
21
-3.1496357480314958
0
LINE
8
BLACK
6
CONTINUOUS
10
6.7058383858267714
20
-3.1496357480314958
11
6.6970297244094485
21
-3.1606814566929131
0
LINE
8
BLACK
6
CONTINUOUS
10
6.6970297244094485
20
-3.1606814566929131
11
6.6870397244094484
21
-3.1706714566929133
0
LINE
8
BLACK
6
CONTINUOUS
10
6.6870397244094484
20
-3.1706714566929133
11
6.6759940157480315
21
-3.1794801181102361
0
LINE
8
BLACK
6
CONTINUOUS
10
6.6759940157480315
20
-3.1794801181102361
11
6.6640314960629921
21
-3.1869966535433072
0
LINE
8
BLACK
6
CONTINUOUS
10
6.6640314960629921
20
-3.1869966535433072
11
6.6513026377952755
21
-3.1931265748031494
0
LINE
8
BLACK
6
CONTINUOUS
10
6.6513026377952755
20
-3.1931265748031494
11
6.6379674803149609
21
-3.197792716535433
0
LINE
8
BLACK
6
CONTINUOUS
10
6.6379674803149609
20
-3.197792716535433
11
6.6241937007874014
21
-3.200936496062992
0
LINE
8
BLACK
6
CONTINUOUS
10
6.6241937007874014
20
-3.200936496062992
11
6.6101545275590547
21
-3.2025183464566926
0
LINE
8
BLACK
6
CONTINUOUS
10
6.6101545275590547
20
-3.2025183464566926
11
6.5960265748031492
21
-3.2025183464566926
0
LINE
8
BLACK
6
CONTINUOUS
10
6.5960265748031492
20
-3.2025183464566926
11
6.5819874015748034
21
-3.200936496062992
0
LINE
8
BLACK
6
CONTINUOUS
10
6.5819874015748034
20
-3.200936496062992
11
6.568213622047244
21
-3.197792716535433
0
LINE
8
BLACK
6
CONTINUOUS
10
6.568213622047244
20
-3.197792716535433
11
6.5548784645669294
21
-3.1931265748031494
0
LINE
8
BLACK
6
CONTINUOUS
10
6.5548784645669294
20
-3.1931265748031494
11
6.5421496062992128
21
-3.1869966535433072
0
LINE
8
BLACK
6
CONTINUOUS
10
6.5421496062992128
20
-3.1869966535433072
11
6.5301870866141734
21
-3.1794801181102361
0
LINE
8
BLACK
6
CONTINUOUS
10
6.5301870866141734
20
-3.1794801181102361
11
6.5191413779527556
21
-3.1706714566929133
0
LINE
8
BLACK
6
CONTINUOUS
10
6.5191413779527556
20
-3.1706714566929133
11
6.5091513779527554
21
-3.1606814566929131
0
LINE
8
BLACK
6
CONTINUOUS
10
6.5091513779527554
20
-3.1606814566929131
11
6.5003427165354326
21
-3.1496357480314958
0
LINE
8
BLACK
6
CONTINUOUS
10
6.5003427165354326
20
-3.1496357480314958
11
6.4928261811023624
21
-3.1376732283464568
0
LINE
8
BLACK
6
CONTINUOUS
10
6.4928261811023624
20
-3.1376732283464568
11
6.4866962598425193
21
-3.1249443700787403
0
LINE
8
BLACK
6
CONTINUOUS
10
6.4866962598425193
20
-3.1249443700787403
11
6.4820301181102362
21
-3.1116092125984252
0
LINE
8
BLACK
6
CONTINUOUS
10
6.4820301181102362
20
-3.1116092125984252
11
6.4788863385826767
21
-3.0978354330708662
0
LINE
8
BLACK
6
CONTINUOUS
10
6.4788863385826767
20
-3.0978354330708662
11
6.4773044881889765
21
-3.0837962598425195
0
LINE
8
BLACK
6
CONTINUOUS
10
6.4773044881889765
20
-3.0837962598425195
11
6.4773044881889765
21
-3.069668307086614
0
LINE
8
BLACK
6
CONTINUOUS
10
6.4773044881889765
20
-3.069668307086614
11
6.4788863385826767
21
-3.0556291338582677
0
LINE
8
BLACK
6
CONTINUOUS
10
6.4788863385826767
20
-3.0556291338582677
11
6.4820301181102362
21
-3.0418553543307087
0
LINE
8
BLACK
6
CONTINUOUS
10
6.4820301181102362
20
-3.0418553543307087
11
6.4866962598425193
21
-3.0285201968503936
0
LINE
8
BLACK
6
CONTINUOUS
10
6.4866962598425193
20
-3.0285201968503936
11
6.4928261811023624
21
-3.0157913385826771
0
LINE
8
BLACK
6
CONTINUOUS
10
6.4928261811023624
20
-3.0157913385826771
11
6.5003427165354326
21
-3.0038288188976376
0
LINE
8
BLACK
6
CONTINUOUS
10
6.5003427165354326
20
-3.0038288188976376
11
6.5091513779527554
21
-2.9927831102362203
0
LINE
8
BLACK
6
CONTINUOUS
10
6.5091513779527554
20
-2.9927831102362203
11
6.5191413779527556
21
-2.9827931102362206
0
LINE
8
BLACK
6
CONTINUOUS
10
6.5191413779527556
20
-2.9827931102362206
11
6.5301870866141734
21
-2.9739844488188978
0
LINE
8
BLACK
6
CONTINUOUS
10
6.5301870866141734
20
-2.9739844488188978
11
6.5421496062992128
21
-2.9664679133858267
0
LINE
8
BLACK
6
CONTINUOUS
10
6.5421496062992128
20
-2.9664679133858267
11
6.5548784645669294
21
-2.960337992125984
0
LINE
8
BLACK
6
CONTINUOUS
10
6.5548784645669294
20
-2.960337992125984
11
6.568213622047244
21
-2.9556718503937005
0
LINE
8
BLACK
6
CONTINUOUS
10
6.568213622047244
20
-2.9556718503937005
11
6.5819874015748034
21
-2.9525280708661419
0
LINE
8
BLACK
6
CONTINUOUS
10
6.5819874015748034
20
-2.9525280708661419
11
6.5960265748031492
21
-2.9509462204724408
0
LINE
8
BLACK
6
CONTINUOUS
10
6.5960265748031492
20
-2.9509462204724408
11
6.6101545275590547
21
-2.9509462204724408
0
LINE
8
BLACK
6
CONTINUOUS
10
6.6101545275590547
20
-2.9509462204724408
11
6.6241937007874014
21
-2.9525280708661419
0
CIRCLE
8
BLACK
10
6.6030905511811024
20
-4.6531102362204724
40
0.0068897637795276
0
CIRCLE
8
BLACK
10
5.0267125984251964
20
-4.6531102362204724
40
0.0068897637795276
0
CIRCLE
8
BLACK
10
6.6030905511811024
20
-3.0767322834645667
40
0.0068897637795276
0
CIRCLE
8
BLACK
10
5.9812795275590549
20
-3.8629527559055119
40
0.0068897637795276
0
CIRCLE
8
BLACK
10
5.0267125984251964
20
-3.0767322834645667
40
0.0068897637795276
0
CIRCLE
8
BLACK
10
5.0597834645669293
20
-3.5787007874015746
40
0.0068897637795276
0
CIRCLE
8
BLACK
10
5.0597834645669293
20
-3.3511417322834647
40
0.0068897637795276
0
LINE
8
BLACK
6
CONTINUOUS
10
4.9321912598425195
20
-3.6232900393700787
11
4.9351694881889765
21
-3.6240880314960631
0
LINE
8
BLACK
6
CONTINUOUS
10
4.9351694881889765
20
-3.6240880314960631
11
4.9378396850393695
21
-3.6256296850393701
0
LINE
8
BLACK
6
CONTINUOUS
10
4.9378396850393695
20
-3.6256296850393701
11
4.9400199212598421
21
-3.6278099212598423
0
LINE
8
BLACK
6
CONTINUOUS
10
4.9400199212598421
20
-3.6278099212598423
11
4.9415615748031492
21
-3.6304801181102362
0
LINE
8
BLACK
6
CONTINUOUS
10
4.9415615748031492
20
-3.6304801181102362
11
4.9423595669291336
21
-3.6334583464566927
0
LINE
8
BLACK
6
CONTINUOUS
10
4.9423595669291336
20
-3.6334583464566927
11
4.9423595669291336
21
-3.6365416535433068
0
LINE
8
BLACK
6
CONTINUOUS
10
4.9423595669291336
20
-3.6365416535433068
11
4.9415615748031492
21
-3.6395198818897638
0
LINE
8
BLACK
6
CONTINUOUS
10
4.9415615748031492
20
-3.6395198818897638
11
4.9400199212598421
21
-3.6421900787401573
0
LINE
8
BLACK
6
CONTINUOUS
10
4.9400199212598421
20
-3.6421900787401573
11
4.9378396850393695
21
-3.6443703149606299
0
LINE
8
BLACK
6
CONTINUOUS
10
4.9378396850393695
20
-3.6443703149606299
11
4.9351694881889765
21
-3.645911968503937
0
LINE
8
BLACK
6
CONTINUOUS
10
4.9351694881889765
20
-3.645911968503937
11
4.9321912598425195
21
-3.6467099606299214
0
LINE
8
BLACK
6
CONTINUOUS
10
4.9321912598425195
20
-3.6467099606299214
11
4.9306496062992125
21
-3.646811023622047
0
LINE
8
BLACK
6
CONTINUOUS
10
4.9306496062992125
20
-3.646811023622047
11
4.8991535433070865
21
-3.646811023622047
0
LINE
8
BLACK
6
CONTINUOUS
10
4.8991535433070865
20
-3.646811023622047
11
4.8976118897637795
21
-3.6467099606299214
0
LINE
8
BLACK
6
CONTINUOUS
10
4.8976118897637795
20
-3.6467099606299214
11
4.8946336614173225
21
-3.645911968503937
0
LINE
8
BLACK
6
CONTINUOUS
10
4.8946336614173225
20
-3.645911968503937
11
4.8919634645669294
21
-3.6443703149606299
0
LINE
8
BLACK
6
CONTINUOUS
10
4.8919634645669294
20
-3.6443703149606299
11
4.8897832283464568
21
-3.6421900787401573
0
LINE
8
BLACK
6
CONTINUOUS
10
4.8897832283464568
20
-3.6421900787401573
11
4.8882415748031498
21
-3.6395198818897638
0
LINE
8
BLACK
6
CONTINUOUS
10
4.8882415748031498
20
-3.6395198818897638
11
4.8874435826771654
21
-3.6365416535433068
0
LINE
8
BLACK
6
CONTINUOUS
10
4.8874435826771654
20
-3.6365416535433068
11
4.8874435826771654
21
-3.6334583464566927
0
LINE
8
BLACK
6
CONTINUOUS
10
4.8874435826771654
20
-3.6334583464566927
11
4.8882415748031498
21
-3.6304801181102362
0
LINE
8
BLACK
6
CONTINUOUS
10
4.8882415748031498
20
-3.6304801181102362
11
4.8897832283464568
21
-3.6278099212598423
0
LINE
8
BLACK
6
CONTINUOUS
10
4.8897832283464568
20
-3.6278099212598423
11
4.8919634645669294
21
-3.6256296850393701
0
LINE
8
BLACK
6
CONTINUOUS
10
4.8919634645669294
20
-3.6256296850393701
11
4.8946336614173225
21
-3.6240880314960631
0
LINE
8
BLACK
6
CONTINUOUS
10
4.8946336614173225
20
-3.6240880314960631
11
4.8976118897637795
21
-3.6232900393700787
0
LINE
8
BLACK
6
CONTINUOUS
10
4.8976118897637795
20
-3.6232900393700787
11
4.8991535433070865
21
-3.6231889763779526
0
LINE
8
BLACK
6
CONTINUOUS
10
4.8991535433070865
20
-3.6231889763779526
11
4.9306496062992125
21
-3.6231889763779526
0
LINE
8
BLACK
6
CONTINUOUS
10
4.9306496062992125
20
-3.6231889763779526
11
4.9321912598425195
21
-3.6232900393700787
0
LINE
8
BLACK
6
CONTINUOUS
10
4.9321912598425195
20
-3.2831325590551179
11
4.9351694881889765
21
-3.2839305511811023
0
LINE
8
BLACK
6
CONTINUOUS
10
4.9351694881889765
20
-3.2839305511811023
11
4.9378396850393695
21
-3.2854722047244094
0
LINE
8
BLACK
6
CONTINUOUS
10
4.9378396850393695
20
-3.2854722047244094
11
4.9400199212598421
21
-3.287652440944882
0
LINE
8
BLACK
6
CONTINUOUS
10
4.9400199212598421
20
-3.287652440944882
11
4.9415615748031492
21
-3.2903226377952755
0
LINE
8
BLACK
6
CONTINUOUS
10
4.9415615748031492
20
-3.2903226377952755
11
4.9423595669291336
21
-3.293300866141732
0
LINE
8
BLACK
6
CONTINUOUS
10
4.9423595669291336
20
-3.293300866141732
11
4.9423595669291336
21
-3.2963841732283465
0
LINE
8
BLACK
6
CONTINUOUS
10
4.9423595669291336
20
-3.2963841732283465
11
4.9415615748031492
21
-3.2993624015748031
0
LINE
8
BLACK
6
CONTINUOUS
10
4.9415615748031492
20
-3.2993624015748031
11
4.9400199212598421
21
-3.3020325984251966
0
LINE
8
BLACK
6
CONTINUOUS
10
4.9400199212598421
20
-3.3020325984251966
11
4.9378396850393695
21
-3.3042128346456692
0
LINE
8
BLACK
6
CONTINUOUS
10
4.9378396850393695
20
-3.3042128346456692
11
4.9351694881889765
21
-3.3057544881889762
0
LINE
8
BLACK
6
CONTINUOUS
10
4.9351694881889765
20
-3.3057544881889762
11
4.9321912598425195
21
-3.3065524803149606
0
LINE
8
BLACK
6
CONTINUOUS
10
4.9321912598425195
20
-3.3065524803149606
11
4.9306496062992125
21
-3.3066535433070867
0
LINE
8
BLACK
6
CONTINUOUS
10
4.9306496062992125
20
-3.3066535433070867
11
4.8991535433070865
21
-3.3066535433070867
0
LINE
8
BLACK
6
CONTINUOUS
10
4.8991535433070865
20
-3.3066535433070867
11
4.8976118897637795
21
-3.3065524803149606
0
LINE
8
BLACK
6
CONTINUOUS
10
4.8976118897637795
20
-3.3065524803149606
11
4.8946336614173225
21
-3.3057544881889762
0
LINE
8
BLACK
6
CONTINUOUS
10
4.8946336614173225
20
-3.3057544881889762
11
4.8919634645669294
21
-3.3042128346456692
0
LINE
8
BLACK
6
CONTINUOUS
10
4.8919634645669294
20
-3.3042128346456692
11
4.8897832283464568
21
-3.3020325984251966
0
LINE
8
BLACK
6
CONTINUOUS
10
4.8897832283464568
20
-3.3020325984251966
11
4.8882415748031498
21
-3.2993624015748031
0
LINE
8
BLACK
6
CONTINUOUS
10
4.8882415748031498
20
-3.2993624015748031
11
4.8874435826771654
21
-3.2963841732283465
0
LINE
8
BLACK
6
CONTINUOUS
10
4.8874435826771654
20
-3.2963841732283465
11
4.8874435826771654
21
-3.293300866141732
0
LINE
8
BLACK
6
CONTINUOUS
10
4.8874435826771654
20
-3.293300866141732
11
4.8882415748031498
21
-3.2903226377952755
0
LINE
8
BLACK
6
CONTINUOUS
10
4.8882415748031498
20
-3.2903226377952755
11
4.8897832283464568
21
-3.287652440944882
0
LINE
8
BLACK
6
CONTINUOUS
10
4.8897832283464568
20
-3.287652440944882
11
4.8919634645669294
21
-3.2854722047244094
0
LINE
8
BLACK
6
CONTINUOUS
10
4.8919634645669294
20
-3.2854722047244094
11
4.8946336614173225
21
-3.2839305511811023
0
LINE
8
BLACK
6
CONTINUOUS
10
4.8946336614173225
20
-3.2839305511811023
11
4.8976118897637795
21
-3.2831325590551179
0
LINE
8
BLACK
6
CONTINUOUS
10
4.8976118897637795
20
-3.2831325590551179
11
4.8991535433070865
21
-3.2830314960629923
0
LINE
8
BLACK
6
CONTINUOUS
10
4.8991535433070865
20
-3.2830314960629923
11
4.9306496062992125
21
-3.2830314960629923
0
LINE
8
BLACK
6
CONTINUOUS
10
4.9306496062992125
20
-3.2830314960629923
11
4.9321912598425195
21
-3.2831325590551179
0
LINE
8
BLACK
6
CONTINUOUS
10
5.1026637007874012
20
-3.6232900393700787
11
5.1056419291338582
21
-3.6240880314960631
0
LINE
8
BLACK
6
CONTINUOUS
10
5.1056419291338582
20
-3.6240880314960631
11
5.1083121259842521
21
-3.6256296850393701
0
LINE
8
BLACK
6
CONTINUOUS
10
5.1083121259842521
20
-3.6256296850393701
11
5.1104923622047247
21
-3.6278099212598423
0
LINE
8
BLACK
6
CONTINUOUS
10
5.1104923622047247
20
-3.6278099212598423
11
5.1120340157480317
21
-3.6304801181102362
0
LINE
8
BLACK
6
CONTINUOUS
10
5.1120340157480317
20
-3.6304801181102362
11
5.1128320078740153
21
-3.6334583464566927
0
LINE
8
BLACK
6
CONTINUOUS
10
5.1128320078740153
20
-3.6334583464566927
11
5.1128320078740153
21
-3.6365416535433068
0
LINE
8
BLACK
6
CONTINUOUS
10
5.1128320078740153
20
-3.6365416535433068
11
5.1120340157480317
21
-3.6395198818897638
0
LINE
8
BLACK
6
CONTINUOUS
10
5.1120340157480317
20
-3.6395198818897638
11
5.1104923622047247
21
-3.6421900787401573
0
LINE
8
BLACK
6
CONTINUOUS
10
5.1104923622047247
20
-3.6421900787401573
11
5.1083121259842521
21
-3.6443703149606299
0
LINE
8
BLACK
6
CONTINUOUS
10
5.1083121259842521
20
-3.6443703149606299
11
5.1056419291338582
21
-3.645911968503937
0
LINE
8
BLACK
6
CONTINUOUS
10
5.1056419291338582
20
-3.645911968503937
11
5.1026637007874012
21
-3.6467099606299214
0
LINE
8
BLACK
6
CONTINUOUS
10
5.1026637007874012
20
-3.6467099606299214
11
5.1011220472440941
21
-3.646811023622047
0
LINE
8
BLACK
6
CONTINUOUS
10
5.1011220472440941
20
-3.646811023622047
11
5.057814960629921
21
-3.646811023622047
0
LINE
8
BLACK
6
CONTINUOUS
10
5.057814960629921
20
-3.646811023622047
11
5.0562733070866139
21
-3.6467099606299214
0
LINE
8
BLACK
6
CONTINUOUS
10
5.0562733070866139
20
-3.6467099606299214
11
5.0532950787401569
21
-3.645911968503937
0
LINE
8
BLACK
6
CONTINUOUS
10
5.0532950787401569
20
-3.645911968503937
11
5.0506248818897639
21
-3.6443703149606299
0
LINE
8
BLACK
6
CONTINUOUS
10
5.0506248818897639
20
-3.6443703149606299
11
5.0484446456692913
21
-3.6421900787401573
0
LINE
8
BLACK
6
CONTINUOUS
10
5.0484446456692913
20
-3.6421900787401573
11
5.0469029921259843
21
-3.6395198818897638
0
LINE
8
BLACK
6
CONTINUOUS
10
5.0469029921259843
20
-3.6395198818897638
11
5.0461049999999998
21
-3.6365416535433068
0
LINE
8
BLACK
6
CONTINUOUS
10
5.0461049999999998
20
-3.6365416535433068
11
5.0461049999999998
21
-3.6334583464566927
0
LINE
8
BLACK
6
CONTINUOUS
10
5.0461049999999998
20
-3.6334583464566927
11
5.0469029921259843
21
-3.6304801181102362
0
LINE
8
BLACK
6
CONTINUOUS
10
5.0469029921259843
20
-3.6304801181102362
11
5.0484446456692913
21
-3.6278099212598423
0
LINE
8
BLACK
6
CONTINUOUS
10
5.0484446456692913
20
-3.6278099212598423
11
5.0506248818897639
21
-3.6256296850393701
0
LINE
8
BLACK
6
CONTINUOUS
10
5.0506248818897639
20
-3.6256296850393701
11
5.0532950787401569
21
-3.6240880314960631
0
LINE
8
BLACK
6
CONTINUOUS
10
5.0532950787401569
20
-3.6240880314960631
11
5.0562733070866139
21
-3.6232900393700787
0
LINE
8
BLACK
6
CONTINUOUS
10
5.0562733070866139
20
-3.6232900393700787
11
5.057814960629921
21
-3.6231889763779526
0
LINE
8
BLACK
6
CONTINUOUS
10
5.057814960629921
20
-3.6231889763779526
11
5.1011220472440941
21
-3.6231889763779526
0
LINE
8
BLACK
6
CONTINUOUS
10
5.1011220472440941
20
-3.6231889763779526
11
5.1026637007874012
21
-3.6232900393700787
0
LINE
8
BLACK
6
CONTINUOUS
10
5.1026637007874012
20
-3.2831325590551179
11
5.1056419291338582
21
-3.2839305511811023
0
LINE
8
BLACK
6
CONTINUOUS
10
5.1056419291338582
20
-3.2839305511811023
11
5.1083121259842521
21
-3.2854722047244094
0
LINE
8
BLACK
6
CONTINUOUS
10
5.1083121259842521
20
-3.2854722047244094
11
5.1104923622047247
21
-3.287652440944882
0
LINE
8
BLACK
6
CONTINUOUS
10
5.1104923622047247
20
-3.287652440944882
11
5.1120340157480317
21
-3.2903226377952755
0
LINE
8
BLACK
6
CONTINUOUS
10
5.1120340157480317
20
-3.2903226377952755
11
5.1128320078740153
21
-3.293300866141732
0
LINE
8
BLACK
6
CONTINUOUS
10
5.1128320078740153
20
-3.293300866141732
11
5.1128320078740153
21
-3.2963841732283465
0
LINE
8
BLACK
6
CONTINUOUS
10
5.1128320078740153
20
-3.2963841732283465
11
5.1120340157480317
21
-3.2993624015748031
0
LINE
8
BLACK
6
CONTINUOUS
10
5.1120340157480317
20
-3.2993624015748031
11
5.1104923622047247
21
-3.3020325984251966
0
LINE
8
BLACK
6
CONTINUOUS
10
5.1104923622047247
20
-3.3020325984251966
11
5.1083121259842521
21
-3.3042128346456692
0
LINE
8
BLACK
6
CONTINUOUS
10
5.1083121259842521
20
-3.3042128346456692
11
5.1056419291338582
21
-3.3057544881889762
0
LINE
8
BLACK
6
CONTINUOUS
10
5.1056419291338582
20
-3.3057544881889762
11
5.1026637007874012
21
-3.3065524803149606
0
LINE
8
BLACK
6
CONTINUOUS
10
5.1026637007874012
20
-3.3065524803149606
11
5.1011220472440941
21
-3.3066535433070867
0
LINE
8
BLACK
6
CONTINUOUS
10
5.1011220472440941
20
-3.3066535433070867
11
5.057814960629921
21
-3.3066535433070867
0
LINE
8
BLACK
6
CONTINUOUS
10
5.057814960629921
20
-3.3066535433070867
11
5.0562733070866139
21
-3.3065524803149606
0
LINE
8
BLACK
6
CONTINUOUS
10
5.0562733070866139
20
-3.3065524803149606
11
5.0532950787401569
21
-3.3057544881889762
0
LINE
8
BLACK
6
CONTINUOUS
10
5.0532950787401569
20
-3.3057544881889762
11
5.0506248818897639
21
-3.3042128346456692
0
LINE
8
BLACK
6
CONTINUOUS
10
5.0506248818897639
20
-3.3042128346456692
11
5.0484446456692913
21
-3.3020325984251966
0
LINE
8
BLACK
6
CONTINUOUS
10
5.0484446456692913
20
-3.3020325984251966
11
5.0469029921259843
21
-3.2993624015748031
0
LINE
8
BLACK
6
CONTINUOUS
10
5.0469029921259843
20
-3.2993624015748031
11
5.0461049999999998
21
-3.2963841732283465
0
LINE
8
BLACK
6
CONTINUOUS
10
5.0461049999999998
20
-3.2963841732283465
11
5.0461049999999998
21
-3.293300866141732
0
LINE
8
BLACK
6
CONTINUOUS
10
5.0461049999999998
20
-3.293300866141732
11
5.0469029921259843
21
-3.2903226377952755
0
LINE
8
BLACK
6
CONTINUOUS
10
5.0469029921259843
20
-3.2903226377952755
11
5.0484446456692913
21
-3.287652440944882
0
LINE
8
BLACK
6
CONTINUOUS
10
5.0484446456692913
20
-3.287652440944882
11
5.0506248818897639
21
-3.2854722047244094
0
LINE
8
BLACK
6
CONTINUOUS
10
5.0506248818897639
20
-3.2854722047244094
11
5.0532950787401569
21
-3.2839305511811023
0
LINE
8
BLACK
6
CONTINUOUS
10
5.0532950787401569
20
-3.2839305511811023
11
5.0562733070866139
21
-3.2831325590551179
0
LINE
8
BLACK
6
CONTINUOUS
10
5.0562733070866139
20
-3.2831325590551179
11
5.057814960629921
21
-3.2830314960629923
0
LINE
8
BLACK
6
CONTINUOUS
10
5.057814960629921
20
-3.2830314960629923
11
5.1011220472440941
21
-3.2830314960629923
0
LINE
8
BLACK
6
CONTINUOUS
10
5.1011220472440941
20
-3.2830314960629923
11
5.1026637007874012
21
-3.2831325590551179
0
CIRCLE
8
BLACK
10
6.6361614173228345
20
-3.7699212598425196
40
0.0068897637795276
0
CIRCLE
8
BLACK
10
6.6361614173228345
20
-3.6349212598425198
40
0.0068897637795276
0
CIRCLE
8
BLACK
10
6.6361614173228345
20
-3.4999212598425196
40
0.0068897637795276
0
CIRCLE
8
BLACK
10
6.6361614173228345
20
-3.3630708661417321
40
0.0068897637795276
0
CIRCLE
8
BLACK
10
4.9686417322834648
20
-3.7399212598425198
40
0.0068897637795276
0
CIRCLE
8
WHITE
10
6.6030905511811024
20
-4.6531102362204724
40
0.0068897637795276
0
CIRCLE
8
WHITE
10
5.0267125984251964
20
-4.6531102362204724
40
0.0068897637795276
0
CIRCLE
8
WHITE
10
6.6030905511811024
20
-3.0767322834645667
40
0.0068897637795276
0
CIRCLE
8
WHITE
10
5.9812795275590549
20
-3.8629527559055119
40
0.0068897637795276
0
CIRCLE
8
WHITE
10
5.0267125984251964
20
-3.0767322834645667
40
0.0068897637795276
0
CIRCLE
8
WHITE
10
5.0597834645669293
20
-3.5787007874015746
40
0.0068897637795276
0
CIRCLE
8
WHITE
10
5.0597834645669293
20
-3.3511417322834647
40
0.0068897637795276
0
LINE
8
WHITE
6
CONTINUOUS
10
4.8991535433070865
20
-3.646811023622047
11
4.9306496062992125
21
-3.646811023622047
0
ARC
8
WHITE
10
4.9306496062992125
20
-3.6349999999999998
40
0.0118110236220472
50
-90.00000000
51
90.00000000
0
LINE
8
WHITE
6
CONTINUOUS
10
4.9306496062992125
20
-3.6231889763779526
11
4.8991535433070865
21
-3.6231889763779526
0
ARC
8
WHITE
10
4.8991535433070865
20
-3.6349999999999998
40
0.0118110236220472
50
90.00000000
51
270.00000000
0
LINE
8
WHITE
6
CONTINUOUS
10
4.8991535433070865
20
-3.3066535433070867
11
4.9306496062992125
21
-3.3066535433070867
0
ARC
8
WHITE
10
4.9306496062992125
20
-3.2948425196850395
40
0.0118110236220472
50
-90.00000000
51
90.00000000
0
LINE
8
WHITE
6
CONTINUOUS
10
4.9306496062992125
20
-3.2830314960629923
11
4.8991535433070865
21
-3.2830314960629923
0
ARC
8
WHITE
10
4.8991535433070865
20
-3.2948425196850395
40
0.0118110236220472
50
90.00000000
51
270.00000000
0
LINE
8
WHITE
6
CONTINUOUS
10
5.057814960629921
20
-3.646811023622047
11
5.1011220472440941
21
-3.646811023622047
0
ARC
8
WHITE
10
5.1011220472440941
20
-3.6349999999999998
40
0.0118110236220472
50
-90.00000000
51
90.00000000
0
LINE
8
WHITE
6
CONTINUOUS
10
5.1011220472440941
20
-3.6231889763779526
11
5.057814960629921
21
-3.6231889763779526
0
ARC
8
WHITE
10
5.057814960629921
20
-3.6349999999999998
40
0.0118110236220472
50
90.00000000
51
270.00000000
0
LINE
8
WHITE
6
CONTINUOUS
10
5.057814960629921
20
-3.3066535433070867
11
5.1011220472440941
21
-3.3066535433070867
0
ARC
8
WHITE
10
5.1011220472440941
20
-3.2948425196850395
40
0.0118110236220472
50
-90.00000000
51
90.00000000
0
LINE
8
WHITE
6
CONTINUOUS
10
5.1011220472440941
20
-3.2830314960629923
11
5.057814960629921
21
-3.2830314960629923
0
ARC
8
WHITE
10
5.057814960629921
20
-3.2948425196850395
40
0.0118110236220472
50
90.00000000
51
270.00000000
0
CIRCLE
8
WHITE
10
6.6361614173228345
20
-3.7699212598425196
40
0.0068897637795276
0
CIRCLE
8
WHITE
10
6.6361614173228345
20
-3.6349212598425198
40
0.0068897637795276
0
CIRCLE
8
WHITE
10
6.6361614173228345
20
-3.4999212598425196
40
0.0068897637795276
0
CIRCLE
8
WHITE
10
6.6361614173228345
20
-3.3630708661417321
40
0.0068897637795276
0
CIRCLE
8
WHITE
10
4.9686417322834648
20
-3.7399212598425198
40
0.0068897637795276
  0
ENDSEC
  0
EOF
