  0
SECTION
  2
HEADER
  9
$ANGBASE
  50
0.0
  9
$ANGDIR
  70
1
  9
$MEASUREMENT
  70
0
  0
ENDSEC
  0
SECTION
  2
TABLES
  0
TABLE
  2
LTYPE
  70
4
  0
LTYPE
  5
40F
  2
CONTINUOUS
  70
0
  3
Solid line
  72
65
  73
0
  40
0.0
  0
LTYPE
  5
410
  2
DASHDOT
 70
0
  3
Dash Dot ____ _ ____ _
 72
65
 73
4
 40
2.0
 49
1.25
 49
-0.25
 49
0.25
 49
-0.25
  0
LTYPE
  5
411
  2
DASHED
 70
0
  3
Dashed __ __ __ __ __
 72
65
 73
2
 40
0.75
 49
0.5
 49
-0.25
  0
LTYPE
  5
43B
  2
DOTTED
 70
0
  3
Dotted .  .  .  .
 72
65
 73
2
 40
0.2
 49
0.0
 49
-0.2
  0
ENDTAB
  0
TABLE
  2
STYLE
  70
4
  0
STYLE
  2
KICAD
  70
0
  40
0
  41
1
  42
1
  50
0
  71
0
  3
isocp.shx
  0
STYLE
  2
KICADB
  70
0
  40
0
  41
1
  42
1
  50
0
  71
0
  3
isocp.shx
  0
STYLE
  2
KICADI
  70
0
  40
0
  41
1
  42
1
  50
15
  71
0
  3
isocp.shx
  0
STYLE
  2
KICADBI
  70
0
  40
0
  41
1
  42
1
  50
15
  71
0
  3
isocp.shx
  0
ENDTAB
  0
TABLE
  2
LAYER
  70
1
  0
LAYER
  2
BLACK
  70
0
  62
7
  6
CONTINUOUS
  0
ENDTAB
  0
ENDSEC
  0
SECTION
  2
ENTITIES
0
LINE
8
BLACK
6
CONTINUOUS
10
6.40351
20
-4.72752
11
6.4067
21
-4.72965
0
LINE
8
BLACK
6
CONTINUOUS
10
6.4067
20
-4.72965
11
6.40884
21
-4.73285
0
LINE
8
BLACK
6
CONTINUOUS
10
6.40884
20
-4.73285
11
6.40959
21
-4.73661
0
LINE
8
BLACK
6
CONTINUOUS
10
6.40959
20
-4.73661
11
6.40959
21
-4.82323
0
LINE
8
BLACK
6
CONTINUOUS
10
6.40959
20
-4.82323
11
6.40884
21
-4.82699
0
LINE
8
BLACK
6
CONTINUOUS
10
6.40884
20
-4.82699
11
6.4067
21
-4.83019
0
LINE
8
BLACK
6
CONTINUOUS
10
6.4067
20
-4.83019
11
6.40351
21
-4.83232
0
LINE
8
BLACK
6
CONTINUOUS
10
6.40351
20
-4.83232
11
6.39974
21
-4.83307
0
LINE
8
BLACK
6
CONTINUOUS
10
6.39974
20
-4.83307
11
6.38006
21
-4.83307
0
LINE
8
BLACK
6
CONTINUOUS
10
6.38006
20
-4.83307
11
6.37629
21
-4.83232
0
LINE
8
BLACK
6
CONTINUOUS
10
6.37629
20
-4.83232
11
6.3731
21
-4.83019
0
LINE
8
BLACK
6
CONTINUOUS
10
6.3731
20
-4.83019
11
6.37097
21
-4.82699
0
LINE
8
BLACK
6
CONTINUOUS
10
6.37097
20
-4.82699
11
6.37022
21
-4.82323
0
LINE
8
BLACK
6
CONTINUOUS
10
6.37022
20
-4.82323
11
6.37022
21
-4.73661
0
LINE
8
BLACK
6
CONTINUOUS
10
6.37022
20
-4.73661
11
6.37097
21
-4.73285
0
LINE
8
BLACK
6
CONTINUOUS
10
6.37097
20
-4.73285
11
6.3731
21
-4.72965
0
LINE
8
BLACK
6
CONTINUOUS
10
6.3731
20
-4.72965
11
6.37629
21
-4.72752
0
LINE
8
BLACK
6
CONTINUOUS
10
6.37629
20
-4.72752
11
6.38006
21
-4.72677
0
LINE
8
BLACK
6
CONTINUOUS
10
6.38006
20
-4.72677
11
6.39974
21
-4.72677
0
LINE
8
BLACK
6
CONTINUOUS
10
6.39974
20
-4.72677
11
6.40351
21
-4.72752
0
LINE
8
BLACK
6
CONTINUOUS
10
6.1102
20
-4.72752
11
6.1134
21
-4.72965
0
LINE
8
BLACK
6
CONTINUOUS
10
6.1134
20
-4.72965
11
6.11553
21
-4.73285
0
LINE
8
BLACK
6
CONTINUOUS
10
6.11553
20
-4.73285
11
6.11628
21
-4.73661
0
LINE
8
BLACK
6
CONTINUOUS
10
6.11628
20
-4.73661
11
6.11628
21
-4.82323
0
LINE
8
BLACK
6
CONTINUOUS
10
6.11628
20
-4.82323
11
6.11553
21
-4.82699
0
LINE
8
BLACK
6
CONTINUOUS
10
6.11553
20
-4.82699
11
6.1134
21
-4.83019
0
LINE
8
BLACK
6
CONTINUOUS
10
6.1134
20
-4.83019
11
6.1102
21
-4.83232
0
LINE
8
BLACK
6
CONTINUOUS
10
6.1102
20
-4.83232
11
6.10644
21
-4.83307
0
LINE
8
BLACK
6
CONTINUOUS
10
6.10644
20
-4.83307
11
6.08675
21
-4.83307
0
LINE
8
BLACK
6
CONTINUOUS
10
6.08675
20
-4.83307
11
6.08299
21
-4.83232
0
LINE
8
BLACK
6
CONTINUOUS
10
6.08299
20
-4.83232
11
6.07979
21
-4.83019
0
LINE
8
BLACK
6
CONTINUOUS
10
6.07979
20
-4.83019
11
6.07766
21
-4.82699
0
LINE
8
BLACK
6
CONTINUOUS
10
6.07766
20
-4.82699
11
6.07691
21
-4.82323
0
LINE
8
BLACK
6
CONTINUOUS
10
6.07691
20
-4.82323
11
6.07691
21
-4.73661
0
LINE
8
BLACK
6
CONTINUOUS
10
6.07691
20
-4.73661
11
6.07766
21
-4.73285
0
LINE
8
BLACK
6
CONTINUOUS
10
6.07766
20
-4.73285
11
6.07979
21
-4.72965
0
LINE
8
BLACK
6
CONTINUOUS
10
6.07979
20
-4.72965
11
6.08299
21
-4.72752
0
LINE
8
BLACK
6
CONTINUOUS
10
6.08299
20
-4.72752
11
6.08675
21
-4.72677
0
LINE
8
BLACK
6
CONTINUOUS
10
6.08675
20
-4.72677
11
6.10644
21
-4.72677
0
LINE
8
BLACK
6
CONTINUOUS
10
6.10644
20
-4.72677
11
6.1102
21
-4.72752
0
LINE
8
BLACK
6
CONTINUOUS
10
5.26422
20
-4.72567
11
5.26741
21
-4.7278
0
LINE
8
BLACK
6
CONTINUOUS
10
5.26741
20
-4.7278
11
5.26955
21
-4.731
0
LINE
8
BLACK
6
CONTINUOUS
10
5.26955
20
-4.731
11
5.2703
21
-4.73476
0
LINE
8
BLACK
6
CONTINUOUS
10
5.2703
20
-4.73476
11
5.2703
21
-4.82138
0
LINE
8
BLACK
6
CONTINUOUS
10
5.2703
20
-4.82138
11
5.26955
21
-4.82514
0
LINE
8
BLACK
6
CONTINUOUS
10
5.26955
20
-4.82514
11
5.26741
21
-4.82834
0
LINE
8
BLACK
6
CONTINUOUS
10
5.26741
20
-4.82834
11
5.26422
21
-4.83047
0
LINE
8
BLACK
6
CONTINUOUS
10
5.26422
20
-4.83047
11
5.26045
21
-4.83122
0
LINE
8
BLACK
6
CONTINUOUS
10
5.26045
20
-4.83122
11
5.24077
21
-4.83122
0
LINE
8
BLACK
6
CONTINUOUS
10
5.24077
20
-4.83122
11
5.237
21
-4.83047
0
LINE
8
BLACK
6
CONTINUOUS
10
5.237
20
-4.83047
11
5.23381
21
-4.82834
0
LINE
8
BLACK
6
CONTINUOUS
10
5.23381
20
-4.82834
11
5.23167
21
-4.82514
0
LINE
8
BLACK
6
CONTINUOUS
10
5.23167
20
-4.82514
11
5.23093
21
-4.82138
0
LINE
8
BLACK
6
CONTINUOUS
10
5.23093
20
-4.82138
11
5.23093
21
-4.73476
0
LINE
8
BLACK
6
CONTINUOUS
10
5.23093
20
-4.73476
11
5.23167
21
-4.731
0
LINE
8
BLACK
6
CONTINUOUS
10
5.23167
20
-4.731
11
5.23381
21
-4.7278
0
LINE
8
BLACK
6
CONTINUOUS
10
5.23381
20
-4.7278
11
5.237
21
-4.72567
0
LINE
8
BLACK
6
CONTINUOUS
10
5.237
20
-4.72567
11
5.24077
21
-4.72492
0
LINE
8
BLACK
6
CONTINUOUS
10
5.24077
20
-4.72492
11
5.26045
21
-4.72492
0
LINE
8
BLACK
6
CONTINUOUS
10
5.26045
20
-4.72492
11
5.26422
21
-4.72567
0
LINE
8
BLACK
6
CONTINUOUS
10
5.8528
20
-4.72567
11
5.856
21
-4.7278
0
LINE
8
BLACK
6
CONTINUOUS
10
5.856
20
-4.7278
11
5.85813
21
-4.731
0
LINE
8
BLACK
6
CONTINUOUS
10
5.85813
20
-4.731
11
5.85888
21
-4.73476
0
LINE
8
BLACK
6
CONTINUOUS
10
5.85888
20
-4.73476
11
5.85888
21
-4.82138
0
LINE
8
BLACK
6
CONTINUOUS
10
5.85888
20
-4.82138
11
5.85813
21
-4.82514
0
LINE
8
BLACK
6
CONTINUOUS
10
5.85813
20
-4.82514
11
5.856
21
-4.82834
0
LINE
8
BLACK
6
CONTINUOUS
10
5.856
20
-4.82834
11
5.8528
21
-4.83047
0
LINE
8
BLACK
6
CONTINUOUS
10
5.8528
20
-4.83047
11
5.84904
21
-4.83122
0
LINE
8
BLACK
6
CONTINUOUS
10
5.84904
20
-4.83122
11
5.82935
21
-4.83122
0
LINE
8
BLACK
6
CONTINUOUS
10
5.82935
20
-4.83122
11
5.82558
21
-4.83047
0
LINE
8
BLACK
6
CONTINUOUS
10
5.82558
20
-4.83047
11
5.82239
21
-4.82834
0
LINE
8
BLACK
6
CONTINUOUS
10
5.82239
20
-4.82834
11
5.82026
21
-4.82514
0
LINE
8
BLACK
6
CONTINUOUS
10
5.82026
20
-4.82514
11
5.81951
21
-4.82138
0
LINE
8
BLACK
6
CONTINUOUS
10
5.81951
20
-4.82138
11
5.81951
21
-4.73476
0
LINE
8
BLACK
6
CONTINUOUS
10
5.81951
20
-4.73476
11
5.82026
21
-4.731
0
LINE
8
BLACK
6
CONTINUOUS
10
5.82026
20
-4.731
11
5.82239
21
-4.7278
0
LINE
8
BLACK
6
CONTINUOUS
10
5.82239
20
-4.7278
11
5.82558
21
-4.72567
0
LINE
8
BLACK
6
CONTINUOUS
10
5.82558
20
-4.72567
11
5.82935
21
-4.72492
0
LINE
8
BLACK
6
CONTINUOUS
10
5.82935
20
-4.72492
11
5.84904
21
-4.72492
0
LINE
8
BLACK
6
CONTINUOUS
10
5.84904
20
-4.72492
11
5.8528
21
-4.72567
0
LINE
8
BLACK
6
CONTINUOUS
10
6.00533
20
-4.82413
11
5.93447
21
-4.82413
0
LINE
8
BLACK
6
CONTINUOUS
10
5.93447
20
-4.82413
11
5.93447
21
-4.72571
0
LINE
8
BLACK
6
CONTINUOUS
10
5.93447
20
-4.72571
11
6.00533
21
-4.72571
0
LINE
8
BLACK
6
CONTINUOUS
10
6.00533
20
-4.72571
11
6.00533
21
-4.82413
0
LINE
8
BLACK
6
CONTINUOUS
10
6.17759
20
-4.62092
11
6.17951
21
-4.6222
0
LINE
8
BLACK
6
CONTINUOUS
10
6.17951
20
-4.6222
11
6.18079
21
-4.62412
0
LINE
8
BLACK
6
CONTINUOUS
10
6.18079
20
-4.62412
11
6.18124
21
-4.62638
0
LINE
8
BLACK
6
CONTINUOUS
10
6.18124
20
-4.62638
11
6.18124
21
-4.6815
0
LINE
8
BLACK
6
CONTINUOUS
10
6.18124
20
-4.6815
11
6.18079
21
-4.68376
0
LINE
8
BLACK
6
CONTINUOUS
10
6.18079
20
-4.68376
11
6.17951
21
-4.68567
0
LINE
8
BLACK
6
CONTINUOUS
10
6.17951
20
-4.68567
11
6.17759
21
-4.68695
0
LINE
8
BLACK
6
CONTINUOUS
10
6.17759
20
-4.68695
11
6.17533
21
-4.6874
0
LINE
8
BLACK
6
CONTINUOUS
10
6.17533
20
-4.6874
11
6.16352
21
-4.6874
0
LINE
8
BLACK
6
CONTINUOUS
10
6.16352
20
-4.6874
11
6.16126
21
-4.68695
0
LINE
8
BLACK
6
CONTINUOUS
10
6.16126
20
-4.68695
11
6.15935
21
-4.68567
0
LINE
8
BLACK
6
CONTINUOUS
10
6.15935
20
-4.68567
11
6.15807
21
-4.68376
0
LINE
8
BLACK
6
CONTINUOUS
10
6.15807
20
-4.68376
11
6.15762
21
-4.6815
0
LINE
8
BLACK
6
CONTINUOUS
10
6.15762
20
-4.6815
11
6.15762
21
-4.62638
0
LINE
8
BLACK
6
CONTINUOUS
10
6.15762
20
-4.62638
11
6.15807
21
-4.62412
0
LINE
8
BLACK
6
CONTINUOUS
10
6.15807
20
-4.62412
11
6.15935
21
-4.6222
0
LINE
8
BLACK
6
CONTINUOUS
10
6.15935
20
-4.6222
11
6.16126
21
-4.62092
0
LINE
8
BLACK
6
CONTINUOUS
10
6.16126
20
-4.62092
11
6.16352
21
-4.62047
0
LINE
8
BLACK
6
CONTINUOUS
10
6.16352
20
-4.62047
11
6.17533
21
-4.62047
0
LINE
8
BLACK
6
CONTINUOUS
10
6.17533
20
-4.62047
11
6.17759
21
-4.62092
0
LINE
8
BLACK
6
CONTINUOUS
10
6.22681
20
-4.62092
11
6.22872
21
-4.6222
0
LINE
8
BLACK
6
CONTINUOUS
10
6.22872
20
-4.6222
11
6.23
21
-4.62412
0
LINE
8
BLACK
6
CONTINUOUS
10
6.23
20
-4.62412
11
6.23045
21
-4.62638
0
LINE
8
BLACK
6
CONTINUOUS
10
6.23045
20
-4.62638
11
6.23045
21
-4.6815
0
LINE
8
BLACK
6
CONTINUOUS
10
6.23045
20
-4.6815
11
6.23
21
-4.68376
0
LINE
8
BLACK
6
CONTINUOUS
10
6.23
20
-4.68376
11
6.22872
21
-4.68567
0
LINE
8
BLACK
6
CONTINUOUS
10
6.22872
20
-4.68567
11
6.22681
21
-4.68695
0
LINE
8
BLACK
6
CONTINUOUS
10
6.22681
20
-4.68695
11
6.22455
21
-4.6874
0
LINE
8
BLACK
6
CONTINUOUS
10
6.22455
20
-4.6874
11
6.21274
21
-4.6874
0
LINE
8
BLACK
6
CONTINUOUS
10
6.21274
20
-4.6874
11
6.21048
21
-4.68695
0
LINE
8
BLACK
6
CONTINUOUS
10
6.21048
20
-4.68695
11
6.20856
21
-4.68567
0
LINE
8
BLACK
6
CONTINUOUS
10
6.20856
20
-4.68567
11
6.20728
21
-4.68376
0
LINE
8
BLACK
6
CONTINUOUS
10
6.20728
20
-4.68376
11
6.20683
21
-4.6815
0
LINE
8
BLACK
6
CONTINUOUS
10
6.20683
20
-4.6815
11
6.20683
21
-4.62638
0
LINE
8
BLACK
6
CONTINUOUS
10
6.20683
20
-4.62638
11
6.20728
21
-4.62412
0
LINE
8
BLACK
6
CONTINUOUS
10
6.20728
20
-4.62412
11
6.20856
21
-4.6222
0
LINE
8
BLACK
6
CONTINUOUS
10
6.20856
20
-4.6222
11
6.21048
21
-4.62092
0
LINE
8
BLACK
6
CONTINUOUS
10
6.21048
20
-4.62092
11
6.21274
21
-4.62047
0
LINE
8
BLACK
6
CONTINUOUS
10
6.21274
20
-4.62047
11
6.22455
21
-4.62047
0
LINE
8
BLACK
6
CONTINUOUS
10
6.22455
20
-4.62047
11
6.22681
21
-4.62092
0
LINE
8
BLACK
6
CONTINUOUS
10
6.27602
20
-4.62092
11
6.27794
21
-4.6222
0
LINE
8
BLACK
6
CONTINUOUS
10
6.27794
20
-4.6222
11
6.27922
21
-4.62412
0
LINE
8
BLACK
6
CONTINUOUS
10
6.27922
20
-4.62412
11
6.27967
21
-4.62638
0
LINE
8
BLACK
6
CONTINUOUS
10
6.27967
20
-4.62638
11
6.27967
21
-4.6815
0
LINE
8
BLACK
6
CONTINUOUS
10
6.27967
20
-4.6815
11
6.27922
21
-4.68376
0
LINE
8
BLACK
6
CONTINUOUS
10
6.27922
20
-4.68376
11
6.27794
21
-4.68567
0
LINE
8
BLACK
6
CONTINUOUS
10
6.27794
20
-4.68567
11
6.27602
21
-4.68695
0
LINE
8
BLACK
6
CONTINUOUS
10
6.27602
20
-4.68695
11
6.27376
21
-4.6874
0
LINE
8
BLACK
6
CONTINUOUS
10
6.27376
20
-4.6874
11
6.26195
21
-4.6874
0
LINE
8
BLACK
6
CONTINUOUS
10
6.26195
20
-4.6874
11
6.25969
21
-4.68695
0
LINE
8
BLACK
6
CONTINUOUS
10
6.25969
20
-4.68695
11
6.25777
21
-4.68567
0
LINE
8
BLACK
6
CONTINUOUS
10
6.25777
20
-4.68567
11
6.25649
21
-4.68376
0
LINE
8
BLACK
6
CONTINUOUS
10
6.25649
20
-4.68376
11
6.25604
21
-4.6815
0
LINE
8
BLACK
6
CONTINUOUS
10
6.25604
20
-4.6815
11
6.25604
21
-4.62638
0
LINE
8
BLACK
6
CONTINUOUS
10
6.25604
20
-4.62638
11
6.25649
21
-4.62412
0
LINE
8
BLACK
6
CONTINUOUS
10
6.25649
20
-4.62412
11
6.25777
21
-4.6222
0
LINE
8
BLACK
6
CONTINUOUS
10
6.25777
20
-4.6222
11
6.25969
21
-4.62092
0
LINE
8
BLACK
6
CONTINUOUS
10
6.25969
20
-4.62092
11
6.26195
21
-4.62047
0
LINE
8
BLACK
6
CONTINUOUS
10
6.26195
20
-4.62047
11
6.27376
21
-4.62047
0
LINE
8
BLACK
6
CONTINUOUS
10
6.27376
20
-4.62047
11
6.27602
21
-4.62092
0
LINE
8
BLACK
6
CONTINUOUS
10
6.32523
20
-4.62092
11
6.32715
21
-4.6222
0
LINE
8
BLACK
6
CONTINUOUS
10
6.32715
20
-4.6222
11
6.32843
21
-4.62412
0
LINE
8
BLACK
6
CONTINUOUS
10
6.32843
20
-4.62412
11
6.32888
21
-4.62638
0
LINE
8
BLACK
6
CONTINUOUS
10
6.32888
20
-4.62638
11
6.32888
21
-4.6815
0
LINE
8
BLACK
6
CONTINUOUS
10
6.32888
20
-4.6815
11
6.32843
21
-4.68376
0
LINE
8
BLACK
6
CONTINUOUS
10
6.32843
20
-4.68376
11
6.32715
21
-4.68567
0
LINE
8
BLACK
6
CONTINUOUS
10
6.32715
20
-4.68567
11
6.32523
21
-4.68695
0
LINE
8
BLACK
6
CONTINUOUS
10
6.32523
20
-4.68695
11
6.32297
21
-4.6874
0
LINE
8
BLACK
6
CONTINUOUS
10
6.32297
20
-4.6874
11
6.31116
21
-4.6874
0
LINE
8
BLACK
6
CONTINUOUS
10
6.31116
20
-4.6874
11
6.3089
21
-4.68695
0
LINE
8
BLACK
6
CONTINUOUS
10
6.3089
20
-4.68695
11
6.30699
21
-4.68567
0
LINE
8
BLACK
6
CONTINUOUS
10
6.30699
20
-4.68567
11
6.30571
21
-4.68376
0
LINE
8
BLACK
6
CONTINUOUS
10
6.30571
20
-4.68376
11
6.30526
21
-4.6815
0
LINE
8
BLACK
6
CONTINUOUS
10
6.30526
20
-4.6815
11
6.30526
21
-4.62638
0
LINE
8
BLACK
6
CONTINUOUS
10
6.30526
20
-4.62638
11
6.30571
21
-4.62412
0
LINE
8
BLACK
6
CONTINUOUS
10
6.30571
20
-4.62412
11
6.30699
21
-4.6222
0
LINE
8
BLACK
6
CONTINUOUS
10
6.30699
20
-4.6222
11
6.3089
21
-4.62092
0
LINE
8
BLACK
6
CONTINUOUS
10
6.3089
20
-4.62092
11
6.31116
21
-4.62047
0
LINE
8
BLACK
6
CONTINUOUS
10
6.31116
20
-4.62047
11
6.32297
21
-4.62047
0
LINE
8
BLACK
6
CONTINUOUS
10
6.32297
20
-4.62047
11
6.32523
21
-4.62092
0
LINE
8
BLACK
6
CONTINUOUS
10
5.57767
20
-4.61907
11
5.57959
21
-4.62035
0
LINE
8
BLACK
6
CONTINUOUS
10
5.57959
20
-4.62035
11
5.58087
21
-4.62227
0
LINE
8
BLACK
6
CONTINUOUS
10
5.58087
20
-4.62227
11
5.58132
21
-4.62453
0
LINE
8
BLACK
6
CONTINUOUS
10
5.58132
20
-4.62453
11
5.58132
21
-4.67965
0
LINE
8
BLACK
6
CONTINUOUS
10
5.58132
20
-4.67965
11
5.58087
21
-4.68191
0
LINE
8
BLACK
6
CONTINUOUS
10
5.58087
20
-4.68191
11
5.57959
21
-4.68382
0
LINE
8
BLACK
6
CONTINUOUS
10
5.57959
20
-4.68382
11
5.57767
21
-4.6851
0
LINE
8
BLACK
6
CONTINUOUS
10
5.57767
20
-4.6851
11
5.57541
21
-4.68555
0
LINE
8
BLACK
6
CONTINUOUS
10
5.57541
20
-4.68555
11
5.5636
21
-4.68555
0
LINE
8
BLACK
6
CONTINUOUS
10
5.5636
20
-4.68555
11
5.56134
21
-4.6851
0
LINE
8
BLACK
6
CONTINUOUS
10
5.56134
20
-4.6851
11
5.55943
21
-4.68382
0
LINE
8
BLACK
6
CONTINUOUS
10
5.55943
20
-4.68382
11
5.55815
21
-4.68191
0
LINE
8
BLACK
6
CONTINUOUS
10
5.55815
20
-4.68191
11
5.5577
21
-4.67965
0
LINE
8
BLACK
6
CONTINUOUS
10
5.5577
20
-4.67965
11
5.5577
21
-4.62453
0
LINE
8
BLACK
6
CONTINUOUS
10
5.5577
20
-4.62453
11
5.55815
21
-4.62227
0
LINE
8
BLACK
6
CONTINUOUS
10
5.55815
20
-4.62227
11
5.55943
21
-4.62035
0
LINE
8
BLACK
6
CONTINUOUS
10
5.55943
20
-4.62035
11
5.56134
21
-4.61907
0
LINE
8
BLACK
6
CONTINUOUS
10
5.56134
20
-4.61907
11
5.5636
21
-4.61862
0
LINE
8
BLACK
6
CONTINUOUS
10
5.5636
20
-4.61862
11
5.57541
21
-4.61862
0
LINE
8
BLACK
6
CONTINUOUS
10
5.57541
20
-4.61862
11
5.57767
21
-4.61907
0
LINE
8
BLACK
6
CONTINUOUS
10
5.77452
20
-4.61907
11
5.77644
21
-4.62035
0
LINE
8
BLACK
6
CONTINUOUS
10
5.77644
20
-4.62035
11
5.77772
21
-4.62227
0
LINE
8
BLACK
6
CONTINUOUS
10
5.77772
20
-4.62227
11
5.77817
21
-4.62453
0
LINE
8
BLACK
6
CONTINUOUS
10
5.77817
20
-4.62453
11
5.77817
21
-4.67965
0
LINE
8
BLACK
6
CONTINUOUS
10
5.77817
20
-4.67965
11
5.77772
21
-4.68191
0
LINE
8
BLACK
6
CONTINUOUS
10
5.77772
20
-4.68191
11
5.77644
21
-4.68382
0
LINE
8
BLACK
6
CONTINUOUS
10
5.77644
20
-4.68382
11
5.77452
21
-4.6851
0
LINE
8
BLACK
6
CONTINUOUS
10
5.77452
20
-4.6851
11
5.77226
21
-4.68555
0
LINE
8
BLACK
6
CONTINUOUS
10
5.77226
20
-4.68555
11
5.76045
21
-4.68555
0
LINE
8
BLACK
6
CONTINUOUS
10
5.76045
20
-4.68555
11
5.75819
21
-4.6851
0
LINE
8
BLACK
6
CONTINUOUS
10
5.75819
20
-4.6851
11
5.75628
21
-4.68382
0
LINE
8
BLACK
6
CONTINUOUS
10
5.75628
20
-4.68382
11
5.755
21
-4.68191
0
LINE
8
BLACK
6
CONTINUOUS
10
5.755
20
-4.68191
11
5.75455
21
-4.67965
0
LINE
8
BLACK
6
CONTINUOUS
10
5.75455
20
-4.67965
11
5.75455
21
-4.62453
0
LINE
8
BLACK
6
CONTINUOUS
10
5.75455
20
-4.62453
11
5.755
21
-4.62227
0
LINE
8
BLACK
6
CONTINUOUS
10
5.755
20
-4.62227
11
5.75628
21
-4.62035
0
LINE
8
BLACK
6
CONTINUOUS
10
5.75628
20
-4.62035
11
5.75819
21
-4.61907
0
LINE
8
BLACK
6
CONTINUOUS
10
5.75819
20
-4.61907
11
5.76045
21
-4.61862
0
LINE
8
BLACK
6
CONTINUOUS
10
5.76045
20
-4.61862
11
5.77226
21
-4.61862
0
LINE
8
BLACK
6
CONTINUOUS
10
5.77226
20
-4.61862
11
5.77452
21
-4.61907
0
LINE
8
BLACK
6
CONTINUOUS
10
5.72531
20
-4.61907
11
5.72723
21
-4.62035
0
LINE
8
BLACK
6
CONTINUOUS
10
5.72723
20
-4.62035
11
5.72851
21
-4.62227
0
LINE
8
BLACK
6
CONTINUOUS
10
5.72851
20
-4.62227
11
5.72896
21
-4.62453
0
LINE
8
BLACK
6
CONTINUOUS
10
5.72896
20
-4.62453
11
5.72896
21
-4.67965
0
LINE
8
BLACK
6
CONTINUOUS
10
5.72896
20
-4.67965
11
5.72851
21
-4.68191
0
LINE
8
BLACK
6
CONTINUOUS
10
5.72851
20
-4.68191
11
5.72723
21
-4.68382
0
LINE
8
BLACK
6
CONTINUOUS
10
5.72723
20
-4.68382
11
5.72531
21
-4.6851
0
LINE
8
BLACK
6
CONTINUOUS
10
5.72531
20
-4.6851
11
5.72305
21
-4.68555
0
LINE
8
BLACK
6
CONTINUOUS
10
5.72305
20
-4.68555
11
5.71124
21
-4.68555
0
LINE
8
BLACK
6
CONTINUOUS
10
5.71124
20
-4.68555
11
5.70898
21
-4.6851
0
LINE
8
BLACK
6
CONTINUOUS
10
5.70898
20
-4.6851
11
5.70706
21
-4.68382
0
LINE
8
BLACK
6
CONTINUOUS
10
5.70706
20
-4.68382
11
5.70578
21
-4.68191
0
LINE
8
BLACK
6
CONTINUOUS
10
5.70578
20
-4.68191
11
5.70533
21
-4.67965
0
LINE
8
BLACK
6
CONTINUOUS
10
5.70533
20
-4.67965
11
5.70533
21
-4.62453
0
LINE
8
BLACK
6
CONTINUOUS
10
5.70533
20
-4.62453
11
5.70578
21
-4.62227
0
LINE
8
BLACK
6
CONTINUOUS
10
5.70578
20
-4.62227
11
5.70706
21
-4.62035
0
LINE
8
BLACK
6
CONTINUOUS
10
5.70706
20
-4.62035
11
5.70898
21
-4.61907
0
LINE
8
BLACK
6
CONTINUOUS
10
5.70898
20
-4.61907
11
5.71124
21
-4.61862
0
LINE
8
BLACK
6
CONTINUOUS
10
5.71124
20
-4.61862
11
5.72305
21
-4.61862
0
LINE
8
BLACK
6
CONTINUOUS
10
5.72305
20
-4.61862
11
5.72531
21
-4.61907
0
LINE
8
BLACK
6
CONTINUOUS
10
5.6761
20
-4.61907
11
5.67801
21
-4.62035
0
LINE
8
BLACK
6
CONTINUOUS
10
5.67801
20
-4.62035
11
5.67929
21
-4.62227
0
LINE
8
BLACK
6
CONTINUOUS
10
5.67929
20
-4.62227
11
5.67974
21
-4.62453
0
LINE
8
BLACK
6
CONTINUOUS
10
5.67974
20
-4.62453
11
5.67974
21
-4.67965
0
LINE
8
BLACK
6
CONTINUOUS
10
5.67974
20
-4.67965
11
5.67929
21
-4.68191
0
LINE
8
BLACK
6
CONTINUOUS
10
5.67929
20
-4.68191
11
5.67801
21
-4.68382
0
LINE
8
BLACK
6
CONTINUOUS
10
5.67801
20
-4.68382
11
5.6761
21
-4.6851
0
LINE
8
BLACK
6
CONTINUOUS
10
5.6761
20
-4.6851
11
5.67384
21
-4.68555
0
LINE
8
BLACK
6
CONTINUOUS
10
5.67384
20
-4.68555
11
5.66203
21
-4.68555
0
LINE
8
BLACK
6
CONTINUOUS
10
5.66203
20
-4.68555
11
5.65977
21
-4.6851
0
LINE
8
BLACK
6
CONTINUOUS
10
5.65977
20
-4.6851
11
5.65785
21
-4.68382
0
LINE
8
BLACK
6
CONTINUOUS
10
5.65785
20
-4.68382
11
5.65657
21
-4.68191
0
LINE
8
BLACK
6
CONTINUOUS
10
5.65657
20
-4.68191
11
5.65612
21
-4.67965
0
LINE
8
BLACK
6
CONTINUOUS
10
5.65612
20
-4.67965
11
5.65612
21
-4.62453
0
LINE
8
BLACK
6
CONTINUOUS
10
5.65612
20
-4.62453
11
5.65657
21
-4.62227
0
LINE
8
BLACK
6
CONTINUOUS
10
5.65657
20
-4.62227
11
5.65785
21
-4.62035
0
LINE
8
BLACK
6
CONTINUOUS
10
5.65785
20
-4.62035
11
5.65977
21
-4.61907
0
LINE
8
BLACK
6
CONTINUOUS
10
5.65977
20
-4.61907
11
5.66203
21
-4.61862
0
LINE
8
BLACK
6
CONTINUOUS
10
5.66203
20
-4.61862
11
5.67384
21
-4.61862
0
LINE
8
BLACK
6
CONTINUOUS
10
5.67384
20
-4.61862
11
5.6761
21
-4.61907
0
LINE
8
BLACK
6
CONTINUOUS
10
5.62689
20
-4.61907
11
5.6288
21
-4.62035
0
LINE
8
BLACK
6
CONTINUOUS
10
5.6288
20
-4.62035
11
5.63008
21
-4.62227
0
LINE
8
BLACK
6
CONTINUOUS
10
5.63008
20
-4.62227
11
5.63053
21
-4.62453
0
LINE
8
BLACK
6
CONTINUOUS
10
5.63053
20
-4.62453
11
5.63053
21
-4.67965
0
LINE
8
BLACK
6
CONTINUOUS
10
5.63053
20
-4.67965
11
5.63008
21
-4.68191
0
LINE
8
BLACK
6
CONTINUOUS
10
5.63008
20
-4.68191
11
5.6288
21
-4.68382
0
LINE
8
BLACK
6
CONTINUOUS
10
5.6288
20
-4.68382
11
5.62689
21
-4.6851
0
LINE
8
BLACK
6
CONTINUOUS
10
5.62689
20
-4.6851
11
5.62463
21
-4.68555
0
LINE
8
BLACK
6
CONTINUOUS
10
5.62463
20
-4.68555
11
5.61281
21
-4.68555
0
LINE
8
BLACK
6
CONTINUOUS
10
5.61281
20
-4.68555
11
5.61055
21
-4.6851
0
LINE
8
BLACK
6
CONTINUOUS
10
5.61055
20
-4.6851
11
5.60864
21
-4.68382
0
LINE
8
BLACK
6
CONTINUOUS
10
5.60864
20
-4.68382
11
5.60736
21
-4.68191
0
LINE
8
BLACK
6
CONTINUOUS
10
5.60736
20
-4.68191
11
5.60691
21
-4.67965
0
LINE
8
BLACK
6
CONTINUOUS
10
5.60691
20
-4.67965
11
5.60691
21
-4.62453
0
LINE
8
BLACK
6
CONTINUOUS
10
5.60691
20
-4.62453
11
5.60736
21
-4.62227
0
LINE
8
BLACK
6
CONTINUOUS
10
5.60736
20
-4.62227
11
5.60864
21
-4.62035
0
LINE
8
BLACK
6
CONTINUOUS
10
5.60864
20
-4.62035
11
5.61055
21
-4.61907
0
LINE
8
BLACK
6
CONTINUOUS
10
5.61055
20
-4.61907
11
5.61281
21
-4.61862
0
LINE
8
BLACK
6
CONTINUOUS
10
5.61281
20
-4.61862
11
5.62463
21
-4.61862
0
LINE
8
BLACK
6
CONTINUOUS
10
5.62463
20
-4.61862
11
5.62689
21
-4.61907
0
LINE
8
BLACK
6
CONTINUOUS
10
5.52846
20
-4.61907
11
5.53038
21
-4.62035
0
LINE
8
BLACK
6
CONTINUOUS
10
5.53038
20
-4.62035
11
5.53166
21
-4.62227
0
LINE
8
BLACK
6
CONTINUOUS
10
5.53166
20
-4.62227
11
5.53211
21
-4.62453
0
LINE
8
BLACK
6
CONTINUOUS
10
5.53211
20
-4.62453
11
5.53211
21
-4.67965
0
LINE
8
BLACK
6
CONTINUOUS
10
5.53211
20
-4.67965
11
5.53166
21
-4.68191
0
LINE
8
BLACK
6
CONTINUOUS
10
5.53166
20
-4.68191
11
5.53038
21
-4.68382
0
LINE
8
BLACK
6
CONTINUOUS
10
5.53038
20
-4.68382
11
5.52846
21
-4.6851
0
LINE
8
BLACK
6
CONTINUOUS
10
5.52846
20
-4.6851
11
5.5262
21
-4.68555
0
LINE
8
BLACK
6
CONTINUOUS
10
5.5262
20
-4.68555
11
5.51439
21
-4.68555
0
LINE
8
BLACK
6
CONTINUOUS
10
5.51439
20
-4.68555
11
5.51213
21
-4.6851
0
LINE
8
BLACK
6
CONTINUOUS
10
5.51213
20
-4.6851
11
5.51021
21
-4.68382
0
LINE
8
BLACK
6
CONTINUOUS
10
5.51021
20
-4.68382
11
5.50893
21
-4.68191
0
LINE
8
BLACK
6
CONTINUOUS
10
5.50893
20
-4.68191
11
5.50848
21
-4.67965
0
LINE
8
BLACK
6
CONTINUOUS
10
5.50848
20
-4.67965
11
5.50848
21
-4.62453
0
LINE
8
BLACK
6
CONTINUOUS
10
5.50848
20
-4.62453
11
5.50893
21
-4.62227
0
LINE
8
BLACK
6
CONTINUOUS
10
5.50893
20
-4.62227
11
5.51021
21
-4.62035
0
LINE
8
BLACK
6
CONTINUOUS
10
5.51021
20
-4.62035
11
5.51213
21
-4.61907
0
LINE
8
BLACK
6
CONTINUOUS
10
5.51213
20
-4.61907
11
5.51439
21
-4.61862
0
LINE
8
BLACK
6
CONTINUOUS
10
5.51439
20
-4.61862
11
5.5262
21
-4.61862
0
LINE
8
BLACK
6
CONTINUOUS
10
5.5262
20
-4.61862
11
5.52846
21
-4.61907
0
LINE
8
BLACK
6
CONTINUOUS
10
5.47925
20
-4.61907
11
5.48116
21
-4.62035
0
LINE
8
BLACK
6
CONTINUOUS
10
5.48116
20
-4.62035
11
5.48244
21
-4.62227
0
LINE
8
BLACK
6
CONTINUOUS
10
5.48244
20
-4.62227
11
5.48289
21
-4.62453
0
LINE
8
BLACK
6
CONTINUOUS
10
5.48289
20
-4.62453
11
5.48289
21
-4.67965
0
LINE
8
BLACK
6
CONTINUOUS
10
5.48289
20
-4.67965
11
5.48244
21
-4.68191
0
LINE
8
BLACK
6
CONTINUOUS
10
5.48244
20
-4.68191
11
5.48116
21
-4.68382
0
LINE
8
BLACK
6
CONTINUOUS
10
5.48116
20
-4.68382
11
5.47925
21
-4.6851
0
LINE
8
BLACK
6
CONTINUOUS
10
5.47925
20
-4.6851
11
5.47699
21
-4.68555
0
LINE
8
BLACK
6
CONTINUOUS
10
5.47699
20
-4.68555
11
5.46518
21
-4.68555
0
LINE
8
BLACK
6
CONTINUOUS
10
5.46518
20
-4.68555
11
5.46292
21
-4.6851
0
LINE
8
BLACK
6
CONTINUOUS
10
5.46292
20
-4.6851
11
5.461
21
-4.68382
0
LINE
8
BLACK
6
CONTINUOUS
10
5.461
20
-4.68382
11
5.45972
21
-4.68191
0
LINE
8
BLACK
6
CONTINUOUS
10
5.45972
20
-4.68191
11
5.45927
21
-4.67965
0
LINE
8
BLACK
6
CONTINUOUS
10
5.45927
20
-4.67965
11
5.45927
21
-4.62453
0
LINE
8
BLACK
6
CONTINUOUS
10
5.45927
20
-4.62453
11
5.45972
21
-4.62227
0
LINE
8
BLACK
6
CONTINUOUS
10
5.45972
20
-4.62227
11
5.461
21
-4.62035
0
LINE
8
BLACK
6
CONTINUOUS
10
5.461
20
-4.62035
11
5.46292
21
-4.61907
0
LINE
8
BLACK
6
CONTINUOUS
10
5.46292
20
-4.61907
11
5.46518
21
-4.61862
0
LINE
8
BLACK
6
CONTINUOUS
10
5.46518
20
-4.61862
11
5.47699
21
-4.61862
0
LINE
8
BLACK
6
CONTINUOUS
10
5.47699
20
-4.61862
11
5.47925
21
-4.61907
0
LINE
8
BLACK
6
CONTINUOUS
10
5.43004
20
-4.61907
11
5.43195
21
-4.62035
0
LINE
8
BLACK
6
CONTINUOUS
10
5.43195
20
-4.62035
11
5.43323
21
-4.62227
0
LINE
8
BLACK
6
CONTINUOUS
10
5.43323
20
-4.62227
11
5.43368
21
-4.62453
0
LINE
8
BLACK
6
CONTINUOUS
10
5.43368
20
-4.62453
11
5.43368
21
-4.67965
0
LINE
8
BLACK
6
CONTINUOUS
10
5.43368
20
-4.67965
11
5.43323
21
-4.68191
0
LINE
8
BLACK
6
CONTINUOUS
10
5.43323
20
-4.68191
11
5.43195
21
-4.68382
0
LINE
8
BLACK
6
CONTINUOUS
10
5.43195
20
-4.68382
11
5.43004
21
-4.6851
0
LINE
8
BLACK
6
CONTINUOUS
10
5.43004
20
-4.6851
11
5.42778
21
-4.68555
0
LINE
8
BLACK
6
CONTINUOUS
10
5.42778
20
-4.68555
11
5.41596
21
-4.68555
0
LINE
8
BLACK
6
CONTINUOUS
10
5.41596
20
-4.68555
11
5.4137
21
-4.6851
0
LINE
8
BLACK
6
CONTINUOUS
10
5.4137
20
-4.6851
11
5.41179
21
-4.68382
0
LINE
8
BLACK
6
CONTINUOUS
10
5.41179
20
-4.68382
11
5.41051
21
-4.68191
0
LINE
8
BLACK
6
CONTINUOUS
10
5.41051
20
-4.68191
11
5.41006
21
-4.67965
0
LINE
8
BLACK
6
CONTINUOUS
10
5.41006
20
-4.67965
11
5.41006
21
-4.62453
0
LINE
8
BLACK
6
CONTINUOUS
10
5.41006
20
-4.62453
11
5.41051
21
-4.62227
0
LINE
8
BLACK
6
CONTINUOUS
10
5.41051
20
-4.62227
11
5.41179
21
-4.62035
0
LINE
8
BLACK
6
CONTINUOUS
10
5.41179
20
-4.62035
11
5.4137
21
-4.61907
0
LINE
8
BLACK
6
CONTINUOUS
10
5.4137
20
-4.61907
11
5.41596
21
-4.61862
0
LINE
8
BLACK
6
CONTINUOUS
10
5.41596
20
-4.61862
11
5.42778
21
-4.61862
0
LINE
8
BLACK
6
CONTINUOUS
10
5.42778
20
-4.61862
11
5.43004
21
-4.61907
0
LINE
8
BLACK
6
CONTINUOUS
10
5.38082
20
-4.61907
11
5.38274
21
-4.62035
0
LINE
8
BLACK
6
CONTINUOUS
10
5.38274
20
-4.62035
11
5.38402
21
-4.62227
0
LINE
8
BLACK
6
CONTINUOUS
10
5.38402
20
-4.62227
11
5.38447
21
-4.62453
0
LINE
8
BLACK
6
CONTINUOUS
10
5.38447
20
-4.62453
11
5.38447
21
-4.67965
0
LINE
8
BLACK
6
CONTINUOUS
10
5.38447
20
-4.67965
11
5.38402
21
-4.68191
0
LINE
8
BLACK
6
CONTINUOUS
10
5.38402
20
-4.68191
11
5.38274
21
-4.68382
0
LINE
8
BLACK
6
CONTINUOUS
10
5.38274
20
-4.68382
11
5.38082
21
-4.6851
0
LINE
8
BLACK
6
CONTINUOUS
10
5.38082
20
-4.6851
11
5.37856
21
-4.68555
0
LINE
8
BLACK
6
CONTINUOUS
10
5.37856
20
-4.68555
11
5.36675
21
-4.68555
0
LINE
8
BLACK
6
CONTINUOUS
10
5.36675
20
-4.68555
11
5.36449
21
-4.6851
0
LINE
8
BLACK
6
CONTINUOUS
10
5.36449
20
-4.6851
11
5.36258
21
-4.68382
0
LINE
8
BLACK
6
CONTINUOUS
10
5.36258
20
-4.68382
11
5.3613
21
-4.68191
0
LINE
8
BLACK
6
CONTINUOUS
10
5.3613
20
-4.68191
11
5.36085
21
-4.67965
0
LINE
8
BLACK
6
CONTINUOUS
10
5.36085
20
-4.67965
11
5.36085
21
-4.62453
0
LINE
8
BLACK
6
CONTINUOUS
10
5.36085
20
-4.62453
11
5.3613
21
-4.62227
0
LINE
8
BLACK
6
CONTINUOUS
10
5.3613
20
-4.62227
11
5.36258
21
-4.62035
0
LINE
8
BLACK
6
CONTINUOUS
10
5.36258
20
-4.62035
11
5.36449
21
-4.61907
0
LINE
8
BLACK
6
CONTINUOUS
10
5.36449
20
-4.61907
11
5.36675
21
-4.61862
0
LINE
8
BLACK
6
CONTINUOUS
10
5.36675
20
-4.61862
11
5.37856
21
-4.61862
0
LINE
8
BLACK
6
CONTINUOUS
10
5.37856
20
-4.61862
11
5.38082
21
-4.61907
0
LINE
8
BLACK
6
CONTINUOUS
10
5.33161
20
-4.61907
11
5.33353
21
-4.62035
0
LINE
8
BLACK
6
CONTINUOUS
10
5.33353
20
-4.62035
11
5.33481
21
-4.62227
0
LINE
8
BLACK
6
CONTINUOUS
10
5.33481
20
-4.62227
11
5.33526
21
-4.62453
0
LINE
8
BLACK
6
CONTINUOUS
10
5.33526
20
-4.62453
11
5.33526
21
-4.67965
0
LINE
8
BLACK
6
CONTINUOUS
10
5.33526
20
-4.67965
11
5.33481
21
-4.68191
0
LINE
8
BLACK
6
CONTINUOUS
10
5.33481
20
-4.68191
11
5.33353
21
-4.68382
0
LINE
8
BLACK
6
CONTINUOUS
10
5.33353
20
-4.68382
11
5.33161
21
-4.6851
0
LINE
8
BLACK
6
CONTINUOUS
10
5.33161
20
-4.6851
11
5.32935
21
-4.68555
0
LINE
8
BLACK
6
CONTINUOUS
10
5.32935
20
-4.68555
11
5.31754
21
-4.68555
0
LINE
8
BLACK
6
CONTINUOUS
10
5.31754
20
-4.68555
11
5.31528
21
-4.6851
0
LINE
8
BLACK
6
CONTINUOUS
10
5.31528
20
-4.6851
11
5.31336
21
-4.68382
0
LINE
8
BLACK
6
CONTINUOUS
10
5.31336
20
-4.68382
11
5.31208
21
-4.68191
0
LINE
8
BLACK
6
CONTINUOUS
10
5.31208
20
-4.68191
11
5.31163
21
-4.67965
0
LINE
8
BLACK
6
CONTINUOUS
10
5.31163
20
-4.67965
11
5.31163
21
-4.62453
0
LINE
8
BLACK
6
CONTINUOUS
10
5.31163
20
-4.62453
11
5.31208
21
-4.62227
0
LINE
8
BLACK
6
CONTINUOUS
10
5.31208
20
-4.62227
11
5.31336
21
-4.62035
0
LINE
8
BLACK
6
CONTINUOUS
10
5.31336
20
-4.62035
11
5.31528
21
-4.61907
0
LINE
8
BLACK
6
CONTINUOUS
10
5.31528
20
-4.61907
11
5.31754
21
-4.61862
0
LINE
8
BLACK
6
CONTINUOUS
10
5.31754
20
-4.61862
11
5.32935
21
-4.61862
0
LINE
8
BLACK
6
CONTINUOUS
10
5.32935
20
-4.61862
11
5.33161
21
-4.61907
0
LINE
8
BLACK
6
CONTINUOUS
10
6.00533
20
-4.66665
11
5.93447
21
-4.66665
0
LINE
8
BLACK
6
CONTINUOUS
10
5.93447
20
-4.66665
11
5.93447
21
-4.56823
0
LINE
8
BLACK
6
CONTINUOUS
10
5.93447
20
-4.56823
11
6.00533
21
-4.56823
0
LINE
8
BLACK
6
CONTINUOUS
10
6.00533
20
-4.56823
11
6.00533
21
-4.66665
0
LINE
8
BLACK
6
CONTINUOUS
10
5.95638
20
-4.48564
11
5.86189
21
-4.48564
0
LINE
8
BLACK
6
CONTINUOUS
10
5.86189
20
-4.48564
11
5.86189
21
-4.41871
0
LINE
8
BLACK
6
CONTINUOUS
10
5.86189
20
-4.41871
11
5.95638
21
-4.41871
0
LINE
8
BLACK
6
CONTINUOUS
10
5.95638
20
-4.41871
11
5.95638
21
-4.48564
0
LINE
8
BLACK
6
CONTINUOUS
10
5.75953
20
-4.48564
11
5.66504
21
-4.48564
0
LINE
8
BLACK
6
CONTINUOUS
10
5.66504
20
-4.48564
11
5.66504
21
-4.41871
0
LINE
8
BLACK
6
CONTINUOUS
10
5.66504
20
-4.41871
11
5.75953
21
-4.41871
0
LINE
8
BLACK
6
CONTINUOUS
10
5.75953
20
-4.41871
11
5.75953
21
-4.48564
0
LINE
8
BLACK
6
CONTINUOUS
10
6.60411
20
-4.4813
11
6.50569
21
-4.4813
0
LINE
8
BLACK
6
CONTINUOUS
10
6.50569
20
-4.4813
11
6.50569
21
-4.36122
0
LINE
8
BLACK
6
CONTINUOUS
10
6.50569
20
-4.36122
11
6.60411
21
-4.36122
0
LINE
8
BLACK
6
CONTINUOUS
10
6.60411
20
-4.36122
11
6.60411
21
-4.4813
0
LINE
8
BLACK
6
CONTINUOUS
10
5.63169
20
-4.38786
11
5.63425
21
-4.38957
0
LINE
8
BLACK
6
CONTINUOUS
10
5.63425
20
-4.38957
11
5.63596
21
-4.39212
0
LINE
8
BLACK
6
CONTINUOUS
10
5.63596
20
-4.39212
11
5.63656
21
-4.39514
0
LINE
8
BLACK
6
CONTINUOUS
10
5.63656
20
-4.39514
11
5.63656
21
-4.41089
0
LINE
8
BLACK
6
CONTINUOUS
10
5.63656
20
-4.41089
11
5.63596
21
-4.4139
0
LINE
8
BLACK
6
CONTINUOUS
10
5.63596
20
-4.4139
11
5.63425
21
-4.41645
0
LINE
8
BLACK
6
CONTINUOUS
10
5.63425
20
-4.41645
11
5.63169
21
-4.41816
0
LINE
8
BLACK
6
CONTINUOUS
10
5.63169
20
-4.41816
11
5.62868
21
-4.41876
0
LINE
8
BLACK
6
CONTINUOUS
10
5.62868
20
-4.41876
11
5.57356
21
-4.41876
0
LINE
8
BLACK
6
CONTINUOUS
10
5.57356
20
-4.41876
11
5.57055
21
-4.41816
0
LINE
8
BLACK
6
CONTINUOUS
10
5.57055
20
-4.41816
11
5.568
21
-4.41645
0
LINE
8
BLACK
6
CONTINUOUS
10
5.568
20
-4.41645
11
5.56629
21
-4.4139
0
LINE
8
BLACK
6
CONTINUOUS
10
5.56629
20
-4.4139
11
5.56569
21
-4.41089
0
LINE
8
BLACK
6
CONTINUOUS
10
5.56569
20
-4.41089
11
5.56569
21
-4.39514
0
LINE
8
BLACK
6
CONTINUOUS
10
5.56569
20
-4.39514
11
5.56629
21
-4.39212
0
LINE
8
BLACK
6
CONTINUOUS
10
5.56629
20
-4.39212
11
5.568
21
-4.38957
0
LINE
8
BLACK
6
CONTINUOUS
10
5.568
20
-4.38957
11
5.57055
21
-4.38786
0
LINE
8
BLACK
6
CONTINUOUS
10
5.57055
20
-4.38786
11
5.57356
21
-4.38726
0
LINE
8
BLACK
6
CONTINUOUS
10
5.57356
20
-4.38726
11
5.62868
21
-4.38726
0
LINE
8
BLACK
6
CONTINUOUS
10
5.62868
20
-4.38726
11
5.63169
21
-4.38786
0
LINE
8
BLACK
6
CONTINUOUS
10
5.15925
20
-4.38786
11
5.16181
21
-4.38957
0
LINE
8
BLACK
6
CONTINUOUS
10
5.16181
20
-4.38957
11
5.16351
21
-4.39212
0
LINE
8
BLACK
6
CONTINUOUS
10
5.16351
20
-4.39212
11
5.16411
21
-4.39514
0
LINE
8
BLACK
6
CONTINUOUS
10
5.16411
20
-4.39514
11
5.16411
21
-4.41089
0
LINE
8
BLACK
6
CONTINUOUS
10
5.16411
20
-4.41089
11
5.16351
21
-4.4139
0
LINE
8
BLACK
6
CONTINUOUS
10
5.16351
20
-4.4139
11
5.16181
21
-4.41645
0
LINE
8
BLACK
6
CONTINUOUS
10
5.16181
20
-4.41645
11
5.15925
21
-4.41816
0
LINE
8
BLACK
6
CONTINUOUS
10
5.15925
20
-4.41816
11
5.15624
21
-4.41876
0
LINE
8
BLACK
6
CONTINUOUS
10
5.15624
20
-4.41876
11
5.10112
21
-4.41876
0
LINE
8
BLACK
6
CONTINUOUS
10
5.10112
20
-4.41876
11
5.09811
21
-4.41816
0
LINE
8
BLACK
6
CONTINUOUS
10
5.09811
20
-4.41816
11
5.09555
21
-4.41645
0
LINE
8
BLACK
6
CONTINUOUS
10
5.09555
20
-4.41645
11
5.09385
21
-4.4139
0
LINE
8
BLACK
6
CONTINUOUS
10
5.09385
20
-4.4139
11
5.09325
21
-4.41089
0
LINE
8
BLACK
6
CONTINUOUS
10
5.09325
20
-4.41089
11
5.09325
21
-4.39514
0
LINE
8
BLACK
6
CONTINUOUS
10
5.09325
20
-4.39514
11
5.09385
21
-4.39212
0
LINE
8
BLACK
6
CONTINUOUS
10
5.09385
20
-4.39212
11
5.09555
21
-4.38957
0
LINE
8
BLACK
6
CONTINUOUS
10
5.09555
20
-4.38957
11
5.09811
21
-4.38786
0
LINE
8
BLACK
6
CONTINUOUS
10
5.09811
20
-4.38786
11
5.10112
21
-4.38726
0
LINE
8
BLACK
6
CONTINUOUS
10
5.10112
20
-4.38726
11
5.15624
21
-4.38726
0
LINE
8
BLACK
6
CONTINUOUS
10
5.15624
20
-4.38726
11
5.15925
21
-4.38786
0
LINE
8
BLACK
6
CONTINUOUS
10
6.3024
20
-4.41792
11
6.2474
21
-4.41792
0
LINE
8
BLACK
6
CONTINUOUS
10
6.2474
20
-4.41792
11
6.2474
21
-4.38292
0
LINE
8
BLACK
6
CONTINUOUS
10
6.2474
20
-4.38292
11
6.3024
21
-4.38292
0
LINE
8
BLACK
6
CONTINUOUS
10
6.3024
20
-4.38292
11
6.3024
21
-4.41792
0
LINE
8
BLACK
6
CONTINUOUS
10
6.01288
20
-4.38624
11
5.97788
21
-4.38624
0
LINE
8
BLACK
6
CONTINUOUS
10
5.97788
20
-4.38624
11
5.97788
21
-4.33124
0
LINE
8
BLACK
6
CONTINUOUS
10
5.97788
20
-4.33124
11
6.01288
21
-4.33124
0
LINE
8
BLACK
6
CONTINUOUS
10
6.01288
20
-4.33124
11
6.01288
21
-4.38624
0
LINE
8
BLACK
6
CONTINUOUS
10
6.08788
20
-4.38624
11
6.05288
21
-4.38624
0
LINE
8
BLACK
6
CONTINUOUS
10
6.05288
20
-4.38624
11
6.05288
21
-4.33124
0
LINE
8
BLACK
6
CONTINUOUS
10
6.05288
20
-4.33124
11
6.08788
21
-4.33124
0
LINE
8
BLACK
6
CONTINUOUS
10
6.08788
20
-4.33124
11
6.08788
21
-4.38624
0
LINE
8
BLACK
6
CONTINUOUS
10
6.14683
20
-4.38596
11
6.11183
21
-4.38596
0
LINE
8
BLACK
6
CONTINUOUS
10
6.11183
20
-4.38596
11
6.11183
21
-4.33096
0
LINE
8
BLACK
6
CONTINUOUS
10
6.11183
20
-4.33096
11
6.14683
21
-4.33096
0
LINE
8
BLACK
6
CONTINUOUS
10
6.14683
20
-4.33096
11
6.14683
21
-4.38596
0
LINE
8
BLACK
6
CONTINUOUS
10
6.22183
20
-4.38596
11
6.18683
21
-4.38596
0
LINE
8
BLACK
6
CONTINUOUS
10
6.18683
20
-4.38596
11
6.18683
21
-4.33096
0
LINE
8
BLACK
6
CONTINUOUS
10
6.18683
20
-4.33096
11
6.22183
21
-4.33096
0
LINE
8
BLACK
6
CONTINUOUS
10
6.22183
20
-4.33096
11
6.22183
21
-4.38596
0
LINE
8
BLACK
6
CONTINUOUS
10
5.95638
20
-4.38131
11
5.88551
21
-4.38131
0
LINE
8
BLACK
6
CONTINUOUS
10
5.88551
20
-4.38131
11
5.88551
21
-4.34194
0
LINE
8
BLACK
6
CONTINUOUS
10
5.88551
20
-4.34194
11
5.95638
21
-4.34194
0
LINE
8
BLACK
6
CONTINUOUS
10
5.95638
20
-4.34194
11
5.95638
21
-4.38131
0
LINE
8
BLACK
6
CONTINUOUS
10
5.73591
20
-4.38131
11
5.66504
21
-4.38131
0
LINE
8
BLACK
6
CONTINUOUS
10
5.66504
20
-4.38131
11
5.66504
21
-4.34194
0
LINE
8
BLACK
6
CONTINUOUS
10
5.66504
20
-4.34194
11
5.73591
21
-4.34194
0
LINE
8
BLACK
6
CONTINUOUS
10
5.73591
20
-4.34194
11
5.73591
21
-4.38131
0
LINE
8
BLACK
6
CONTINUOUS
10
5.63169
20
-4.34456
11
5.63425
21
-4.34626
0
LINE
8
BLACK
6
CONTINUOUS
10
5.63425
20
-4.34626
11
5.63596
21
-4.34882
0
LINE
8
BLACK
6
CONTINUOUS
10
5.63596
20
-4.34882
11
5.63656
21
-4.35183
0
LINE
8
BLACK
6
CONTINUOUS
10
5.63656
20
-4.35183
11
5.63656
21
-4.36758
0
LINE
8
BLACK
6
CONTINUOUS
10
5.63656
20
-4.36758
11
5.63596
21
-4.37059
0
LINE
8
BLACK
6
CONTINUOUS
10
5.63596
20
-4.37059
11
5.63425
21
-4.37315
0
LINE
8
BLACK
6
CONTINUOUS
10
5.63425
20
-4.37315
11
5.63169
21
-4.37485
0
LINE
8
BLACK
6
CONTINUOUS
10
5.63169
20
-4.37485
11
5.62868
21
-4.37545
0
LINE
8
BLACK
6
CONTINUOUS
10
5.62868
20
-4.37545
11
5.57356
21
-4.37545
0
LINE
8
BLACK
6
CONTINUOUS
10
5.57356
20
-4.37545
11
5.57055
21
-4.37485
0
LINE
8
BLACK
6
CONTINUOUS
10
5.57055
20
-4.37485
11
5.568
21
-4.37315
0
LINE
8
BLACK
6
CONTINUOUS
10
5.568
20
-4.37315
11
5.56629
21
-4.37059
0
LINE
8
BLACK
6
CONTINUOUS
10
5.56629
20
-4.37059
11
5.56569
21
-4.36758
0
LINE
8
BLACK
6
CONTINUOUS
10
5.56569
20
-4.36758
11
5.56569
21
-4.35183
0
LINE
8
BLACK
6
CONTINUOUS
10
5.56569
20
-4.35183
11
5.56629
21
-4.34882
0
LINE
8
BLACK
6
CONTINUOUS
10
5.56629
20
-4.34882
11
5.568
21
-4.34626
0
LINE
8
BLACK
6
CONTINUOUS
10
5.568
20
-4.34626
11
5.57055
21
-4.34456
0
LINE
8
BLACK
6
CONTINUOUS
10
5.57055
20
-4.34456
11
5.57356
21
-4.34396
0
LINE
8
BLACK
6
CONTINUOUS
10
5.57356
20
-4.34396
11
5.62868
21
-4.34396
0
LINE
8
BLACK
6
CONTINUOUS
10
5.62868
20
-4.34396
11
5.63169
21
-4.34456
0
LINE
8
BLACK
6
CONTINUOUS
10
5.15925
20
-4.34456
11
5.16181
21
-4.34626
0
LINE
8
BLACK
6
CONTINUOUS
10
5.16181
20
-4.34626
11
5.16351
21
-4.34882
0
LINE
8
BLACK
6
CONTINUOUS
10
5.16351
20
-4.34882
11
5.16411
21
-4.35183
0
LINE
8
BLACK
6
CONTINUOUS
10
5.16411
20
-4.35183
11
5.16411
21
-4.36758
0
LINE
8
BLACK
6
CONTINUOUS
10
5.16411
20
-4.36758
11
5.16351
21
-4.37059
0
LINE
8
BLACK
6
CONTINUOUS
10
5.16351
20
-4.37059
11
5.16181
21
-4.37315
0
LINE
8
BLACK
6
CONTINUOUS
10
5.16181
20
-4.37315
11
5.15925
21
-4.37485
0
LINE
8
BLACK
6
CONTINUOUS
10
5.15925
20
-4.37485
11
5.15624
21
-4.37545
0
LINE
8
BLACK
6
CONTINUOUS
10
5.15624
20
-4.37545
11
5.10112
21
-4.37545
0
LINE
8
BLACK
6
CONTINUOUS
10
5.10112
20
-4.37545
11
5.09811
21
-4.37485
0
LINE
8
BLACK
6
CONTINUOUS
10
5.09811
20
-4.37485
11
5.09555
21
-4.37315
0
LINE
8
BLACK
6
CONTINUOUS
10
5.09555
20
-4.37315
11
5.09385
21
-4.37059
0
LINE
8
BLACK
6
CONTINUOUS
10
5.09385
20
-4.37059
11
5.09325
21
-4.36758
0
LINE
8
BLACK
6
CONTINUOUS
10
5.09325
20
-4.36758
11
5.09325
21
-4.35183
0
LINE
8
BLACK
6
CONTINUOUS
10
5.09325
20
-4.35183
11
5.09385
21
-4.34882
0
LINE
8
BLACK
6
CONTINUOUS
10
5.09385
20
-4.34882
11
5.09555
21
-4.34626
0
LINE
8
BLACK
6
CONTINUOUS
10
5.09555
20
-4.34626
11
5.09811
21
-4.34456
0
LINE
8
BLACK
6
CONTINUOUS
10
5.09811
20
-4.34456
11
5.10112
21
-4.34396
0
LINE
8
BLACK
6
CONTINUOUS
10
5.10112
20
-4.34396
11
5.15624
21
-4.34396
0
LINE
8
BLACK
6
CONTINUOUS
10
5.15624
20
-4.34396
11
5.15925
21
-4.34456
0
LINE
8
BLACK
6
CONTINUOUS
10
5.0224
20
-4.37242
11
4.9874
21
-4.37242
0
LINE
8
BLACK
6
CONTINUOUS
10
4.9874
20
-4.37242
11
4.9874
21
-4.31742
0
LINE
8
BLACK
6
CONTINUOUS
10
4.9874
20
-4.31742
11
5.0224
21
-4.31742
0
LINE
8
BLACK
6
CONTINUOUS
10
5.0224
20
-4.31742
11
5.0224
21
-4.37242
0
LINE
8
BLACK
6
CONTINUOUS
10
4.9474
20
-4.37242
11
4.9124
21
-4.37242
0
LINE
8
BLACK
6
CONTINUOUS
10
4.9124
20
-4.37242
11
4.9124
21
-4.31742
0
LINE
8
BLACK
6
CONTINUOUS
10
4.9124
20
-4.31742
11
4.9474
21
-4.31742
0
LINE
8
BLACK
6
CONTINUOUS
10
4.9474
20
-4.31742
11
4.9474
21
-4.37242
0
LINE
8
BLACK
6
CONTINUOUS
10
6.3024
20
-4.34292
11
6.2474
21
-4.34292
0
LINE
8
BLACK
6
CONTINUOUS
10
6.2474
20
-4.34292
11
6.2474
21
-4.30792
0
LINE
8
BLACK
6
CONTINUOUS
10
6.2474
20
-4.30792
11
6.3024
21
-4.30792
0
LINE
8
BLACK
6
CONTINUOUS
10
6.3024
20
-4.30792
11
6.3024
21
-4.34292
0
LINE
8
BLACK
6
CONTINUOUS
10
5.15925
20
-4.30125
11
5.16181
21
-4.30296
0
LINE
8
BLACK
6
CONTINUOUS
10
5.16181
20
-4.30296
11
5.16351
21
-4.30551
0
LINE
8
BLACK
6
CONTINUOUS
10
5.16351
20
-4.30551
11
5.16411
21
-4.30852
0
LINE
8
BLACK
6
CONTINUOUS
10
5.16411
20
-4.30852
11
5.16411
21
-4.32427
0
LINE
8
BLACK
6
CONTINUOUS
10
5.16411
20
-4.32427
11
5.16351
21
-4.32728
0
LINE
8
BLACK
6
CONTINUOUS
10
5.16351
20
-4.32728
11
5.16181
21
-4.32984
0
LINE
8
BLACK
6
CONTINUOUS
10
5.16181
20
-4.32984
11
5.15925
21
-4.33155
0
LINE
8
BLACK
6
CONTINUOUS
10
5.15925
20
-4.33155
11
5.15624
21
-4.33215
0
LINE
8
BLACK
6
CONTINUOUS
10
5.15624
20
-4.33215
11
5.10112
21
-4.33215
0
LINE
8
BLACK
6
CONTINUOUS
10
5.10112
20
-4.33215
11
5.09811
21
-4.33155
0
LINE
8
BLACK
6
CONTINUOUS
10
5.09811
20
-4.33155
11
5.09555
21
-4.32984
0
LINE
8
BLACK
6
CONTINUOUS
10
5.09555
20
-4.32984
11
5.09385
21
-4.32728
0
LINE
8
BLACK
6
CONTINUOUS
10
5.09385
20
-4.32728
11
5.09325
21
-4.32427
0
LINE
8
BLACK
6
CONTINUOUS
10
5.09325
20
-4.32427
11
5.09325
21
-4.30852
0
LINE
8
BLACK
6
CONTINUOUS
10
5.09325
20
-4.30852
11
5.09385
21
-4.30551
0
LINE
8
BLACK
6
CONTINUOUS
10
5.09385
20
-4.30551
11
5.09555
21
-4.30296
0
LINE
8
BLACK
6
CONTINUOUS
10
5.09555
20
-4.30296
11
5.09811
21
-4.30125
0
LINE
8
BLACK
6
CONTINUOUS
10
5.09811
20
-4.30125
11
5.10112
21
-4.30065
0
LINE
8
BLACK
6
CONTINUOUS
10
5.10112
20
-4.30065
11
5.15624
21
-4.30065
0
LINE
8
BLACK
6
CONTINUOUS
10
5.15624
20
-4.30065
11
5.15925
21
-4.30125
0
LINE
8
BLACK
6
CONTINUOUS
10
5.63169
20
-4.30125
11
5.63425
21
-4.30296
0
LINE
8
BLACK
6
CONTINUOUS
10
5.63425
20
-4.30296
11
5.63596
21
-4.30551
0
LINE
8
BLACK
6
CONTINUOUS
10
5.63596
20
-4.30551
11
5.63656
21
-4.30852
0
LINE
8
BLACK
6
CONTINUOUS
10
5.63656
20
-4.30852
11
5.63656
21
-4.32427
0
LINE
8
BLACK
6
CONTINUOUS
10
5.63656
20
-4.32427
11
5.63596
21
-4.32728
0
LINE
8
BLACK
6
CONTINUOUS
10
5.63596
20
-4.32728
11
5.63425
21
-4.32984
0
LINE
8
BLACK
6
CONTINUOUS
10
5.63425
20
-4.32984
11
5.63169
21
-4.33155
0
LINE
8
BLACK
6
CONTINUOUS
10
5.63169
20
-4.33155
11
5.62868
21
-4.33215
0
LINE
8
BLACK
6
CONTINUOUS
10
5.62868
20
-4.33215
11
5.57356
21
-4.33215
0
LINE
8
BLACK
6
CONTINUOUS
10
5.57356
20
-4.33215
11
5.57055
21
-4.33155
0
LINE
8
BLACK
6
CONTINUOUS
10
5.57055
20
-4.33155
11
5.568
21
-4.32984
0
LINE
8
BLACK
6
CONTINUOUS
10
5.568
20
-4.32984
11
5.56629
21
-4.32728
0
LINE
8
BLACK
6
CONTINUOUS
10
5.56629
20
-4.32728
11
5.56569
21
-4.32427
0
LINE
8
BLACK
6
CONTINUOUS
10
5.56569
20
-4.32427
11
5.56569
21
-4.30852
0
LINE
8
BLACK
6
CONTINUOUS
10
5.56569
20
-4.30852
11
5.56629
21
-4.30551
0
LINE
8
BLACK
6
CONTINUOUS
10
5.56629
20
-4.30551
11
5.568
21
-4.30296
0
LINE
8
BLACK
6
CONTINUOUS
10
5.568
20
-4.30296
11
5.57055
21
-4.30125
0
LINE
8
BLACK
6
CONTINUOUS
10
5.57055
20
-4.30125
11
5.57356
21
-4.30065
0
LINE
8
BLACK
6
CONTINUOUS
10
5.57356
20
-4.30065
11
5.62868
21
-4.30065
0
LINE
8
BLACK
6
CONTINUOUS
10
5.62868
20
-4.30065
11
5.63169
21
-4.30125
0
LINE
8
BLACK
6
CONTINUOUS
10
6.14638
20
-4.29449
11
6.13063
21
-4.29449
0
LINE
8
BLACK
6
CONTINUOUS
10
6.13063
20
-4.29449
11
6.13063
21
-4.2689
0
LINE
8
BLACK
6
CONTINUOUS
10
6.13063
20
-4.2689
11
6.14638
21
-4.2689
0
LINE
8
BLACK
6
CONTINUOUS
10
6.14638
20
-4.2689
11
6.14638
21
-4.29449
0
LINE
8
BLACK
6
CONTINUOUS
10
6.17197
20
-4.29449
11
6.15622
21
-4.29449
0
LINE
8
BLACK
6
CONTINUOUS
10
6.15622
20
-4.29449
11
6.15622
21
-4.2689
0
LINE
8
BLACK
6
CONTINUOUS
10
6.15622
20
-4.2689
11
6.17197
21
-4.2689
0
LINE
8
BLACK
6
CONTINUOUS
10
6.17197
20
-4.2689
11
6.17197
21
-4.29449
0
LINE
8
BLACK
6
CONTINUOUS
10
6.19756
20
-4.29449
11
6.18181
21
-4.29449
0
LINE
8
BLACK
6
CONTINUOUS
10
6.18181
20
-4.29449
11
6.18181
21
-4.2689
0
LINE
8
BLACK
6
CONTINUOUS
10
6.18181
20
-4.2689
11
6.19756
21
-4.2689
0
LINE
8
BLACK
6
CONTINUOUS
10
6.19756
20
-4.2689
11
6.19756
21
-4.29449
0
LINE
8
BLACK
6
CONTINUOUS
10
4.9474
20
-4.29242
11
4.9124
21
-4.29242
0
LINE
8
BLACK
6
CONTINUOUS
10
4.9124
20
-4.29242
11
4.9124
21
-4.23742
0
LINE
8
BLACK
6
CONTINUOUS
10
4.9124
20
-4.23742
11
4.9474
21
-4.23742
0
LINE
8
BLACK
6
CONTINUOUS
10
4.9474
20
-4.23742
11
4.9474
21
-4.29242
0
LINE
8
BLACK
6
CONTINUOUS
10
5.0224
20
-4.29242
11
4.9874
21
-4.29242
0
LINE
8
BLACK
6
CONTINUOUS
10
4.9874
20
-4.29242
11
4.9874
21
-4.23742
0
LINE
8
BLACK
6
CONTINUOUS
10
4.9874
20
-4.23742
11
5.0224
21
-4.23742
0
LINE
8
BLACK
6
CONTINUOUS
10
5.0224
20
-4.23742
11
5.0224
21
-4.29242
0
LINE
8
BLACK
6
CONTINUOUS
10
5.15925
20
-4.25794
11
5.16181
21
-4.25965
0
LINE
8
BLACK
6
CONTINUOUS
10
5.16181
20
-4.25965
11
5.16351
21
-4.2622
0
LINE
8
BLACK
6
CONTINUOUS
10
5.16351
20
-4.2622
11
5.16411
21
-4.26522
0
LINE
8
BLACK
6
CONTINUOUS
10
5.16411
20
-4.26522
11
5.16411
21
-4.28096
0
LINE
8
BLACK
6
CONTINUOUS
10
5.16411
20
-4.28096
11
5.16351
21
-4.28398
0
LINE
8
BLACK
6
CONTINUOUS
10
5.16351
20
-4.28398
11
5.16181
21
-4.28653
0
LINE
8
BLACK
6
CONTINUOUS
10
5.16181
20
-4.28653
11
5.15925
21
-4.28824
0
LINE
8
BLACK
6
CONTINUOUS
10
5.15925
20
-4.28824
11
5.15624
21
-4.28884
0
LINE
8
BLACK
6
CONTINUOUS
10
5.15624
20
-4.28884
11
5.10112
21
-4.28884
0
LINE
8
BLACK
6
CONTINUOUS
10
5.10112
20
-4.28884
11
5.09811
21
-4.28824
0
LINE
8
BLACK
6
CONTINUOUS
10
5.09811
20
-4.28824
11
5.09555
21
-4.28653
0
LINE
8
BLACK
6
CONTINUOUS
10
5.09555
20
-4.28653
11
5.09385
21
-4.28398
0
LINE
8
BLACK
6
CONTINUOUS
10
5.09385
20
-4.28398
11
5.09325
21
-4.28096
0
LINE
8
BLACK
6
CONTINUOUS
10
5.09325
20
-4.28096
11
5.09325
21
-4.26522
0
LINE
8
BLACK
6
CONTINUOUS
10
5.09325
20
-4.26522
11
5.09385
21
-4.2622
0
LINE
8
BLACK
6
CONTINUOUS
10
5.09385
20
-4.2622
11
5.09555
21
-4.25965
0
LINE
8
BLACK
6
CONTINUOUS
10
5.09555
20
-4.25965
11
5.09811
21
-4.25794
0
LINE
8
BLACK
6
CONTINUOUS
10
5.09811
20
-4.25794
11
5.10112
21
-4.25734
0
LINE
8
BLACK
6
CONTINUOUS
10
5.10112
20
-4.25734
11
5.15624
21
-4.25734
0
LINE
8
BLACK
6
CONTINUOUS
10
5.15624
20
-4.25734
11
5.15925
21
-4.25794
0
LINE
8
BLACK
6
CONTINUOUS
10
5.63169
20
-4.25794
11
5.63425
21
-4.25965
0
LINE
8
BLACK
6
CONTINUOUS
10
5.63425
20
-4.25965
11
5.63596
21
-4.2622
0
LINE
8
BLACK
6
CONTINUOUS
10
5.63596
20
-4.2622
11
5.63656
21
-4.26522
0
LINE
8
BLACK
6
CONTINUOUS
10
5.63656
20
-4.26522
11
5.63656
21
-4.28096
0
LINE
8
BLACK
6
CONTINUOUS
10
5.63656
20
-4.28096
11
5.63596
21
-4.28398
0
LINE
8
BLACK
6
CONTINUOUS
10
5.63596
20
-4.28398
11
5.63425
21
-4.28653
0
LINE
8
BLACK
6
CONTINUOUS
10
5.63425
20
-4.28653
11
5.63169
21
-4.28824
0
LINE
8
BLACK
6
CONTINUOUS
10
5.63169
20
-4.28824
11
5.62868
21
-4.28884
0
LINE
8
BLACK
6
CONTINUOUS
10
5.62868
20
-4.28884
11
5.57356
21
-4.28884
0
LINE
8
BLACK
6
CONTINUOUS
10
5.57356
20
-4.28884
11
5.57055
21
-4.28824
0
LINE
8
BLACK
6
CONTINUOUS
10
5.57055
20
-4.28824
11
5.568
21
-4.28653
0
LINE
8
BLACK
6
CONTINUOUS
10
5.568
20
-4.28653
11
5.56629
21
-4.28398
0
LINE
8
BLACK
6
CONTINUOUS
10
5.56629
20
-4.28398
11
5.56569
21
-4.28096
0
LINE
8
BLACK
6
CONTINUOUS
10
5.56569
20
-4.28096
11
5.56569
21
-4.26522
0
LINE
8
BLACK
6
CONTINUOUS
10
5.56569
20
-4.26522
11
5.56629
21
-4.2622
0
LINE
8
BLACK
6
CONTINUOUS
10
5.56629
20
-4.2622
11
5.568
21
-4.25965
0
LINE
8
BLACK
6
CONTINUOUS
10
5.568
20
-4.25965
11
5.57055
21
-4.25794
0
LINE
8
BLACK
6
CONTINUOUS
10
5.57055
20
-4.25794
11
5.57356
21
-4.25734
0
LINE
8
BLACK
6
CONTINUOUS
10
5.57356
20
-4.25734
11
5.62868
21
-4.25734
0
LINE
8
BLACK
6
CONTINUOUS
10
5.62868
20
-4.25734
11
5.63169
21
-4.25794
0
LINE
8
BLACK
6
CONTINUOUS
10
6.2688
20
-4.28433
11
6.2338
21
-4.28433
0
LINE
8
BLACK
6
CONTINUOUS
10
6.2338
20
-4.28433
11
6.2338
21
-4.22933
0
LINE
8
BLACK
6
CONTINUOUS
10
6.2338
20
-4.22933
11
6.2688
21
-4.22933
0
LINE
8
BLACK
6
CONTINUOUS
10
6.2688
20
-4.22933
11
6.2688
21
-4.28433
0
LINE
8
BLACK
6
CONTINUOUS
10
6.3438
20
-4.28433
11
6.3088
21
-4.28433
0
LINE
8
BLACK
6
CONTINUOUS
10
6.3088
20
-4.28433
11
6.3088
21
-4.22933
0
LINE
8
BLACK
6
CONTINUOUS
10
6.3088
20
-4.22933
11
6.3438
21
-4.22933
0
LINE
8
BLACK
6
CONTINUOUS
10
6.3438
20
-4.22933
11
6.3438
21
-4.28433
0
LINE
8
BLACK
6
CONTINUOUS
10
5.97422
20
-4.26295
11
5.93922
21
-4.26295
0
LINE
8
BLACK
6
CONTINUOUS
10
5.93922
20
-4.26295
11
5.93922
21
-4.20795
0
LINE
8
BLACK
6
CONTINUOUS
10
5.93922
20
-4.20795
11
5.97422
21
-4.20795
0
LINE
8
BLACK
6
CONTINUOUS
10
5.97422
20
-4.20795
11
5.97422
21
-4.26295
0
LINE
8
BLACK
6
CONTINUOUS
10
6.04922
20
-4.26295
11
6.01422
21
-4.26295
0
LINE
8
BLACK
6
CONTINUOUS
10
6.01422
20
-4.26295
11
6.01422
21
-4.20795
0
LINE
8
BLACK
6
CONTINUOUS
10
6.01422
20
-4.20795
11
6.04922
21
-4.20795
0
LINE
8
BLACK
6
CONTINUOUS
10
6.04922
20
-4.20795
11
6.04922
21
-4.26295
0
LINE
8
BLACK
6
CONTINUOUS
10
5.90658
20
-4.25278
11
5.85158
21
-4.25278
0
LINE
8
BLACK
6
CONTINUOUS
10
5.85158
20
-4.25278
11
5.85158
21
-4.21778
0
LINE
8
BLACK
6
CONTINUOUS
10
5.85158
20
-4.21778
11
5.90658
21
-4.21778
0
LINE
8
BLACK
6
CONTINUOUS
10
5.90658
20
-4.21778
11
5.90658
21
-4.25278
0
LINE
8
BLACK
6
CONTINUOUS
10
5.63169
20
-4.21463
11
5.63425
21
-4.21634
0
LINE
8
BLACK
6
CONTINUOUS
10
5.63425
20
-4.21634
11
5.63596
21
-4.2189
0
LINE
8
BLACK
6
CONTINUOUS
10
5.63596
20
-4.2189
11
5.63656
21
-4.22191
0
LINE
8
BLACK
6
CONTINUOUS
10
5.63656
20
-4.22191
11
5.63656
21
-4.23766
0
LINE
8
BLACK
6
CONTINUOUS
10
5.63656
20
-4.23766
11
5.63596
21
-4.24067
0
LINE
8
BLACK
6
CONTINUOUS
10
5.63596
20
-4.24067
11
5.63425
21
-4.24323
0
LINE
8
BLACK
6
CONTINUOUS
10
5.63425
20
-4.24323
11
5.63169
21
-4.24493
0
LINE
8
BLACK
6
CONTINUOUS
10
5.63169
20
-4.24493
11
5.62868
21
-4.24553
0
LINE
8
BLACK
6
CONTINUOUS
10
5.62868
20
-4.24553
11
5.57356
21
-4.24553
0
LINE
8
BLACK
6
CONTINUOUS
10
5.57356
20
-4.24553
11
5.57055
21
-4.24493
0
LINE
8
BLACK
6
CONTINUOUS
10
5.57055
20
-4.24493
11
5.568
21
-4.24323
0
LINE
8
BLACK
6
CONTINUOUS
10
5.568
20
-4.24323
11
5.56629
21
-4.24067
0
LINE
8
BLACK
6
CONTINUOUS
10
5.56629
20
-4.24067
11
5.56569
21
-4.23766
0
LINE
8
BLACK
6
CONTINUOUS
10
5.56569
20
-4.23766
11
5.56569
21
-4.22191
0
LINE
8
BLACK
6
CONTINUOUS
10
5.56569
20
-4.22191
11
5.56629
21
-4.2189
0
LINE
8
BLACK
6
CONTINUOUS
10
5.56629
20
-4.2189
11
5.568
21
-4.21634
0
LINE
8
BLACK
6
CONTINUOUS
10
5.568
20
-4.21634
11
5.57055
21
-4.21463
0
LINE
8
BLACK
6
CONTINUOUS
10
5.57055
20
-4.21463
11
5.57356
21
-4.21404
0
LINE
8
BLACK
6
CONTINUOUS
10
5.57356
20
-4.21404
11
5.62868
21
-4.21404
0
LINE
8
BLACK
6
CONTINUOUS
10
5.62868
20
-4.21404
11
5.63169
21
-4.21463
0
LINE
8
BLACK
6
CONTINUOUS
10
5.15925
20
-4.21463
11
5.16181
21
-4.21634
0
LINE
8
BLACK
6
CONTINUOUS
10
5.16181
20
-4.21634
11
5.16351
21
-4.2189
0
LINE
8
BLACK
6
CONTINUOUS
10
5.16351
20
-4.2189
11
5.16411
21
-4.22191
0
LINE
8
BLACK
6
CONTINUOUS
10
5.16411
20
-4.22191
11
5.16411
21
-4.23766
0
LINE
8
BLACK
6
CONTINUOUS
10
5.16411
20
-4.23766
11
5.16351
21
-4.24067
0
LINE
8
BLACK
6
CONTINUOUS
10
5.16351
20
-4.24067
11
5.16181
21
-4.24323
0
LINE
8
BLACK
6
CONTINUOUS
10
5.16181
20
-4.24323
11
5.15925
21
-4.24493
0
LINE
8
BLACK
6
CONTINUOUS
10
5.15925
20
-4.24493
11
5.15624
21
-4.24553
0
LINE
8
BLACK
6
CONTINUOUS
10
5.15624
20
-4.24553
11
5.10112
21
-4.24553
0
LINE
8
BLACK
6
CONTINUOUS
10
5.10112
20
-4.24553
11
5.09811
21
-4.24493
0
LINE
8
BLACK
6
CONTINUOUS
10
5.09811
20
-4.24493
11
5.09555
21
-4.24323
0
LINE
8
BLACK
6
CONTINUOUS
10
5.09555
20
-4.24323
11
5.09385
21
-4.24067
0
LINE
8
BLACK
6
CONTINUOUS
10
5.09385
20
-4.24067
11
5.09325
21
-4.23766
0
LINE
8
BLACK
6
CONTINUOUS
10
5.09325
20
-4.23766
11
5.09325
21
-4.22191
0
LINE
8
BLACK
6
CONTINUOUS
10
5.09325
20
-4.22191
11
5.09385
21
-4.2189
0
LINE
8
BLACK
6
CONTINUOUS
10
5.09385
20
-4.2189
11
5.09555
21
-4.21634
0
LINE
8
BLACK
6
CONTINUOUS
10
5.09555
20
-4.21634
11
5.09811
21
-4.21463
0
LINE
8
BLACK
6
CONTINUOUS
10
5.09811
20
-4.21463
11
5.10112
21
-4.21404
0
LINE
8
BLACK
6
CONTINUOUS
10
5.10112
20
-4.21404
11
5.15624
21
-4.21404
0
LINE
8
BLACK
6
CONTINUOUS
10
5.15624
20
-4.21404
11
5.15925
21
-4.21463
0
LINE
8
BLACK
6
CONTINUOUS
10
5.7674
20
-4.22386
11
5.7124
21
-4.22386
0
LINE
8
BLACK
6
CONTINUOUS
10
5.7124
20
-4.22386
11
5.7124
21
-4.18886
0
LINE
8
BLACK
6
CONTINUOUS
10
5.7124
20
-4.18886
11
5.7674
21
-4.18886
0
LINE
8
BLACK
6
CONTINUOUS
10
5.7674
20
-4.18886
11
5.7674
21
-4.22386
0
LINE
8
BLACK
6
CONTINUOUS
10
6.14638
20
-4.21968
11
6.13063
21
-4.21968
0
LINE
8
BLACK
6
CONTINUOUS
10
6.13063
20
-4.21968
11
6.13063
21
-4.19409
0
LINE
8
BLACK
6
CONTINUOUS
10
6.13063
20
-4.19409
11
6.14638
21
-4.19409
0
LINE
8
BLACK
6
CONTINUOUS
10
6.14638
20
-4.19409
11
6.14638
21
-4.21968
0
LINE
8
BLACK
6
CONTINUOUS
10
6.19756
20
-4.21968
11
6.18181
21
-4.21968
0
LINE
8
BLACK
6
CONTINUOUS
10
6.18181
20
-4.21968
11
6.18181
21
-4.19409
0
LINE
8
BLACK
6
CONTINUOUS
10
6.18181
20
-4.19409
11
6.19756
21
-4.19409
0
LINE
8
BLACK
6
CONTINUOUS
10
6.19756
20
-4.19409
11
6.19756
21
-4.21968
0
LINE
8
BLACK
6
CONTINUOUS
10
6.17197
20
-4.21968
11
6.15622
21
-4.21968
0
LINE
8
BLACK
6
CONTINUOUS
10
6.15622
20
-4.21968
11
6.15622
21
-4.19409
0
LINE
8
BLACK
6
CONTINUOUS
10
6.15622
20
-4.19409
11
6.17197
21
-4.19409
0
LINE
8
BLACK
6
CONTINUOUS
10
6.17197
20
-4.19409
11
6.17197
21
-4.21968
0
LINE
8
BLACK
6
CONTINUOUS
10
4.9474
20
-4.21242
11
4.9124
21
-4.21242
0
LINE
8
BLACK
6
CONTINUOUS
10
4.9124
20
-4.21242
11
4.9124
21
-4.15742
0
LINE
8
BLACK
6
CONTINUOUS
10
4.9124
20
-4.15742
11
4.9474
21
-4.15742
0
LINE
8
BLACK
6
CONTINUOUS
10
4.9474
20
-4.15742
11
4.9474
21
-4.21242
0
LINE
8
BLACK
6
CONTINUOUS
10
5.0224
20
-4.21242
11
4.9874
21
-4.21242
0
LINE
8
BLACK
6
CONTINUOUS
10
4.9874
20
-4.21242
11
4.9874
21
-4.15742
0
LINE
8
BLACK
6
CONTINUOUS
10
4.9874
20
-4.15742
11
5.0224
21
-4.15742
0
LINE
8
BLACK
6
CONTINUOUS
10
5.0224
20
-4.15742
11
5.0224
21
-4.21242
0
LINE
8
BLACK
6
CONTINUOUS
10
6.09313
20
-4.17941
11
6.05813
21
-4.17941
0
LINE
8
BLACK
6
CONTINUOUS
10
6.05813
20
-4.17941
11
6.05813
21
-4.12441
0
LINE
8
BLACK
6
CONTINUOUS
10
6.05813
20
-4.12441
11
6.09313
21
-4.12441
0
LINE
8
BLACK
6
CONTINUOUS
10
6.09313
20
-4.12441
11
6.09313
21
-4.17941
0
LINE
8
BLACK
6
CONTINUOUS
10
6.01813
20
-4.17941
11
5.98313
21
-4.17941
0
LINE
8
BLACK
6
CONTINUOUS
10
5.98313
20
-4.17941
11
5.98313
21
-4.12441
0
LINE
8
BLACK
6
CONTINUOUS
10
5.98313
20
-4.12441
11
6.01813
21
-4.12441
0
LINE
8
BLACK
6
CONTINUOUS
10
6.01813
20
-4.12441
11
6.01813
21
-4.17941
0
LINE
8
BLACK
6
CONTINUOUS
10
5.90658
20
-4.17778
11
5.85158
21
-4.17778
0
LINE
8
BLACK
6
CONTINUOUS
10
5.85158
20
-4.17778
11
5.85158
21
-4.14278
0
LINE
8
BLACK
6
CONTINUOUS
10
5.85158
20
-4.14278
11
5.90658
21
-4.14278
0
LINE
8
BLACK
6
CONTINUOUS
10
5.90658
20
-4.14278
11
5.90658
21
-4.17778
0
LINE
8
BLACK
6
CONTINUOUS
10
6.21796
20
-4.15319
11
6.16296
21
-4.15319
0
LINE
8
BLACK
6
CONTINUOUS
10
6.16296
20
-4.15319
11
6.16296
21
-4.11819
0
LINE
8
BLACK
6
CONTINUOUS
10
6.16296
20
-4.11819
11
6.21796
21
-4.11819
0
LINE
8
BLACK
6
CONTINUOUS
10
6.21796
20
-4.11819
11
6.21796
21
-4.15319
0
LINE
8
BLACK
6
CONTINUOUS
10
5.7674
20
-4.14886
11
5.7124
21
-4.14886
0
LINE
8
BLACK
6
CONTINUOUS
10
5.7124
20
-4.14886
11
5.7124
21
-4.11386
0
LINE
8
BLACK
6
CONTINUOUS
10
5.7124
20
-4.11386
11
5.7674
21
-4.11386
0
LINE
8
BLACK
6
CONTINUOUS
10
5.7674
20
-4.11386
11
5.7674
21
-4.14886
0
LINE
8
BLACK
6
CONTINUOUS
10
6.60411
20
-4.14862
11
6.50569
21
-4.14862
0
LINE
8
BLACK
6
CONTINUOUS
10
6.50569
20
-4.14862
11
6.50569
21
-4.02854
0
LINE
8
BLACK
6
CONTINUOUS
10
6.50569
20
-4.02854
11
6.60411
21
-4.02854
0
LINE
8
BLACK
6
CONTINUOUS
10
6.60411
20
-4.02854
11
6.60411
21
-4.14862
0
LINE
8
BLACK
6
CONTINUOUS
10
5.0224
20
-4.13242
11
4.9874
21
-4.13242
0
LINE
8
BLACK
6
CONTINUOUS
10
4.9874
20
-4.13242
11
4.9874
21
-4.07742
0
LINE
8
BLACK
6
CONTINUOUS
10
4.9874
20
-4.07742
11
5.0224
21
-4.07742
0
LINE
8
BLACK
6
CONTINUOUS
10
5.0224
20
-4.07742
11
5.0224
21
-4.13242
0
LINE
8
BLACK
6
CONTINUOUS
10
4.9474
20
-4.13242
11
4.9124
21
-4.13242
0
LINE
8
BLACK
6
CONTINUOUS
10
4.9124
20
-4.13242
11
4.9124
21
-4.07742
0
LINE
8
BLACK
6
CONTINUOUS
10
4.9124
20
-4.07742
11
4.9474
21
-4.07742
0
LINE
8
BLACK
6
CONTINUOUS
10
4.9474
20
-4.07742
11
4.9474
21
-4.13242
0
LINE
8
BLACK
6
CONTINUOUS
10
5.63169
20
-4.09652
11
5.63425
21
-4.09823
0
LINE
8
BLACK
6
CONTINUOUS
10
5.63425
20
-4.09823
11
5.63596
21
-4.10079
0
LINE
8
BLACK
6
CONTINUOUS
10
5.63596
20
-4.10079
11
5.63656
21
-4.1038
0
LINE
8
BLACK
6
CONTINUOUS
10
5.63656
20
-4.1038
11
5.63656
21
-4.11955
0
LINE
8
BLACK
6
CONTINUOUS
10
5.63656
20
-4.11955
11
5.63596
21
-4.12256
0
LINE
8
BLACK
6
CONTINUOUS
10
5.63596
20
-4.12256
11
5.63425
21
-4.12512
0
LINE
8
BLACK
6
CONTINUOUS
10
5.63425
20
-4.12512
11
5.63169
21
-4.12682
0
LINE
8
BLACK
6
CONTINUOUS
10
5.63169
20
-4.12682
11
5.62868
21
-4.12742
0
LINE
8
BLACK
6
CONTINUOUS
10
5.62868
20
-4.12742
11
5.57356
21
-4.12742
0
LINE
8
BLACK
6
CONTINUOUS
10
5.57356
20
-4.12742
11
5.57055
21
-4.12682
0
LINE
8
BLACK
6
CONTINUOUS
10
5.57055
20
-4.12682
11
5.568
21
-4.12512
0
LINE
8
BLACK
6
CONTINUOUS
10
5.568
20
-4.12512
11
5.56629
21
-4.12256
0
LINE
8
BLACK
6
CONTINUOUS
10
5.56629
20
-4.12256
11
5.56569
21
-4.11955
0
LINE
8
BLACK
6
CONTINUOUS
10
5.56569
20
-4.11955
11
5.56569
21
-4.1038
0
LINE
8
BLACK
6
CONTINUOUS
10
5.56569
20
-4.1038
11
5.56629
21
-4.10079
0
LINE
8
BLACK
6
CONTINUOUS
10
5.56629
20
-4.10079
11
5.568
21
-4.09823
0
LINE
8
BLACK
6
CONTINUOUS
10
5.568
20
-4.09823
11
5.57055
21
-4.09652
0
LINE
8
BLACK
6
CONTINUOUS
10
5.57055
20
-4.09652
11
5.57356
21
-4.09593
0
LINE
8
BLACK
6
CONTINUOUS
10
5.57356
20
-4.09593
11
5.62868
21
-4.09593
0
LINE
8
BLACK
6
CONTINUOUS
10
5.62868
20
-4.09593
11
5.63169
21
-4.09652
0
LINE
8
BLACK
6
CONTINUOUS
10
5.15925
20
-4.09652
11
5.16181
21
-4.09823
0
LINE
8
BLACK
6
CONTINUOUS
10
5.16181
20
-4.09823
11
5.16351
21
-4.10079
0
LINE
8
BLACK
6
CONTINUOUS
10
5.16351
20
-4.10079
11
5.16411
21
-4.1038
0
LINE
8
BLACK
6
CONTINUOUS
10
5.16411
20
-4.1038
11
5.16411
21
-4.11955
0
LINE
8
BLACK
6
CONTINUOUS
10
5.16411
20
-4.11955
11
5.16351
21
-4.12256
0
LINE
8
BLACK
6
CONTINUOUS
10
5.16351
20
-4.12256
11
5.16181
21
-4.12512
0
LINE
8
BLACK
6
CONTINUOUS
10
5.16181
20
-4.12512
11
5.15925
21
-4.12682
0
LINE
8
BLACK
6
CONTINUOUS
10
5.15925
20
-4.12682
11
5.15624
21
-4.12742
0
LINE
8
BLACK
6
CONTINUOUS
10
5.15624
20
-4.12742
11
5.10112
21
-4.12742
0
LINE
8
BLACK
6
CONTINUOUS
10
5.10112
20
-4.12742
11
5.09811
21
-4.12682
0
LINE
8
BLACK
6
CONTINUOUS
10
5.09811
20
-4.12682
11
5.09555
21
-4.12512
0
LINE
8
BLACK
6
CONTINUOUS
10
5.09555
20
-4.12512
11
5.09385
21
-4.12256
0
LINE
8
BLACK
6
CONTINUOUS
10
5.09385
20
-4.12256
11
5.09325
21
-4.11955
0
LINE
8
BLACK
6
CONTINUOUS
10
5.09325
20
-4.11955
11
5.09325
21
-4.1038
0
LINE
8
BLACK
6
CONTINUOUS
10
5.09325
20
-4.1038
11
5.09385
21
-4.10079
0
LINE
8
BLACK
6
CONTINUOUS
10
5.09385
20
-4.10079
11
5.09555
21
-4.09823
0
LINE
8
BLACK
6
CONTINUOUS
10
5.09555
20
-4.09823
11
5.09811
21
-4.09652
0
LINE
8
BLACK
6
CONTINUOUS
10
5.09811
20
-4.09652
11
5.10112
21
-4.09593
0
LINE
8
BLACK
6
CONTINUOUS
10
5.10112
20
-4.09593
11
5.15624
21
-4.09593
0
LINE
8
BLACK
6
CONTINUOUS
10
5.15624
20
-4.09593
11
5.15925
21
-4.09652
0
LINE
8
BLACK
6
CONTINUOUS
10
6.0174
20
-4.09391
11
5.9824
21
-4.09391
0
LINE
8
BLACK
6
CONTINUOUS
10
5.9824
20
-4.09391
11
5.9824
21
-4.03891
0
LINE
8
BLACK
6
CONTINUOUS
10
5.9824
20
-4.03891
11
6.0174
21
-4.03891
0
LINE
8
BLACK
6
CONTINUOUS
10
6.0174
20
-4.03891
11
6.0174
21
-4.09391
0
LINE
8
BLACK
6
CONTINUOUS
10
6.0924
20
-4.09391
11
6.0574
21
-4.09391
0
LINE
8
BLACK
6
CONTINUOUS
10
6.0574
20
-4.09391
11
6.0574
21
-4.03891
0
LINE
8
BLACK
6
CONTINUOUS
10
6.0574
20
-4.03891
11
6.0924
21
-4.03891
0
LINE
8
BLACK
6
CONTINUOUS
10
6.0924
20
-4.03891
11
6.0924
21
-4.09391
0
LINE
8
BLACK
6
CONTINUOUS
10
5.15925
20
-4.05322
11
5.16181
21
-4.05492
0
LINE
8
BLACK
6
CONTINUOUS
10
5.16181
20
-4.05492
11
5.16351
21
-4.05748
0
LINE
8
BLACK
6
CONTINUOUS
10
5.16351
20
-4.05748
11
5.16411
21
-4.06049
0
LINE
8
BLACK
6
CONTINUOUS
10
5.16411
20
-4.06049
11
5.16411
21
-4.07624
0
LINE
8
BLACK
6
CONTINUOUS
10
5.16411
20
-4.07624
11
5.16351
21
-4.07925
0
LINE
8
BLACK
6
CONTINUOUS
10
5.16351
20
-4.07925
11
5.16181
21
-4.08181
0
LINE
8
BLACK
6
CONTINUOUS
10
5.16181
20
-4.08181
11
5.15925
21
-4.08351
0
LINE
8
BLACK
6
CONTINUOUS
10
5.15925
20
-4.08351
11
5.15624
21
-4.08411
0
LINE
8
BLACK
6
CONTINUOUS
10
5.15624
20
-4.08411
11
5.10112
21
-4.08411
0
LINE
8
BLACK
6
CONTINUOUS
10
5.10112
20
-4.08411
11
5.09811
21
-4.08351
0
LINE
8
BLACK
6
CONTINUOUS
10
5.09811
20
-4.08351
11
5.09555
21
-4.08181
0
LINE
8
BLACK
6
CONTINUOUS
10
5.09555
20
-4.08181
11
5.09385
21
-4.07925
0
LINE
8
BLACK
6
CONTINUOUS
10
5.09385
20
-4.07925
11
5.09325
21
-4.07624
0
LINE
8
BLACK
6
CONTINUOUS
10
5.09325
20
-4.07624
11
5.09325
21
-4.06049
0
LINE
8
BLACK
6
CONTINUOUS
10
5.09325
20
-4.06049
11
5.09385
21
-4.05748
0
LINE
8
BLACK
6
CONTINUOUS
10
5.09385
20
-4.05748
11
5.09555
21
-4.05492
0
LINE
8
BLACK
6
CONTINUOUS
10
5.09555
20
-4.05492
11
5.09811
21
-4.05322
0
LINE
8
BLACK
6
CONTINUOUS
10
5.09811
20
-4.05322
11
5.10112
21
-4.05262
0
LINE
8
BLACK
6
CONTINUOUS
10
5.10112
20
-4.05262
11
5.15624
21
-4.05262
0
LINE
8
BLACK
6
CONTINUOUS
10
5.15624
20
-4.05262
11
5.15925
21
-4.05322
0
LINE
8
BLACK
6
CONTINUOUS
10
5.63169
20
-4.05322
11
5.63425
21
-4.05492
0
LINE
8
BLACK
6
CONTINUOUS
10
5.63425
20
-4.05492
11
5.63596
21
-4.05748
0
LINE
8
BLACK
6
CONTINUOUS
10
5.63596
20
-4.05748
11
5.63656
21
-4.06049
0
LINE
8
BLACK
6
CONTINUOUS
10
5.63656
20
-4.06049
11
5.63656
21
-4.07624
0
LINE
8
BLACK
6
CONTINUOUS
10
5.63656
20
-4.07624
11
5.63596
21
-4.07925
0
LINE
8
BLACK
6
CONTINUOUS
10
5.63596
20
-4.07925
11
5.63425
21
-4.08181
0
LINE
8
BLACK
6
CONTINUOUS
10
5.63425
20
-4.08181
11
5.63169
21
-4.08351
0
LINE
8
BLACK
6
CONTINUOUS
10
5.63169
20
-4.08351
11
5.62868
21
-4.08411
0
LINE
8
BLACK
6
CONTINUOUS
10
5.62868
20
-4.08411
11
5.57356
21
-4.08411
0
LINE
8
BLACK
6
CONTINUOUS
10
5.57356
20
-4.08411
11
5.57055
21
-4.08351
0
LINE
8
BLACK
6
CONTINUOUS
10
5.57055
20
-4.08351
11
5.568
21
-4.08181
0
LINE
8
BLACK
6
CONTINUOUS
10
5.568
20
-4.08181
11
5.56629
21
-4.07925
0
LINE
8
BLACK
6
CONTINUOUS
10
5.56629
20
-4.07925
11
5.56569
21
-4.07624
0
LINE
8
BLACK
6
CONTINUOUS
10
5.56569
20
-4.07624
11
5.56569
21
-4.06049
0
LINE
8
BLACK
6
CONTINUOUS
10
5.56569
20
-4.06049
11
5.56629
21
-4.05748
0
LINE
8
BLACK
6
CONTINUOUS
10
5.56629
20
-4.05748
11
5.568
21
-4.05492
0
LINE
8
BLACK
6
CONTINUOUS
10
5.568
20
-4.05492
11
5.57055
21
-4.05322
0
LINE
8
BLACK
6
CONTINUOUS
10
5.57055
20
-4.05322
11
5.57356
21
-4.05262
0
LINE
8
BLACK
6
CONTINUOUS
10
5.57356
20
-4.05262
11
5.62868
21
-4.05262
0
LINE
8
BLACK
6
CONTINUOUS
10
5.62868
20
-4.05262
11
5.63169
21
-4.05322
0
LINE
8
BLACK
6
CONTINUOUS
10
6.21796
20
-4.07819
11
6.16296
21
-4.07819
0
LINE
8
BLACK
6
CONTINUOUS
10
6.16296
20
-4.07819
11
6.16296
21
-4.04319
0
LINE
8
BLACK
6
CONTINUOUS
10
6.16296
20
-4.04319
11
6.21796
21
-4.04319
0
LINE
8
BLACK
6
CONTINUOUS
10
6.21796
20
-4.04319
11
6.21796
21
-4.07819
0
LINE
8
BLACK
6
CONTINUOUS
10
6.39325
20
-4.06307
11
6.35781
21
-4.06307
0
LINE
8
BLACK
6
CONTINUOUS
10
6.35781
20
-4.06307
11
6.35781
21
-4.03157
0
LINE
8
BLACK
6
CONTINUOUS
10
6.35781
20
-4.03157
11
6.39325
21
-4.03157
0
LINE
8
BLACK
6
CONTINUOUS
10
6.39325
20
-4.03157
11
6.39325
21
-4.06307
0
LINE
8
BLACK
6
CONTINUOUS
10
5.0224
20
-4.05242
11
4.9874
21
-4.05242
0
LINE
8
BLACK
6
CONTINUOUS
10
4.9874
20
-4.05242
11
4.9874
21
-3.99742
0
LINE
8
BLACK
6
CONTINUOUS
10
4.9874
20
-3.99742
11
5.0224
21
-3.99742
0
LINE
8
BLACK
6
CONTINUOUS
10
5.0224
20
-3.99742
11
5.0224
21
-4.05242
0
LINE
8
BLACK
6
CONTINUOUS
10
4.9474
20
-4.05242
11
4.9124
21
-4.05242
0
LINE
8
BLACK
6
CONTINUOUS
10
4.9124
20
-4.05242
11
4.9124
21
-3.99742
0
LINE
8
BLACK
6
CONTINUOUS
10
4.9124
20
-3.99742
11
4.9474
21
-3.99742
0
LINE
8
BLACK
6
CONTINUOUS
10
4.9474
20
-3.99742
11
4.9474
21
-4.05242
0
LINE
8
BLACK
6
CONTINUOUS
10
5.63169
20
-4.00991
11
5.63425
21
-4.01162
0
LINE
8
BLACK
6
CONTINUOUS
10
5.63425
20
-4.01162
11
5.63596
21
-4.01417
0
LINE
8
BLACK
6
CONTINUOUS
10
5.63596
20
-4.01417
11
5.63656
21
-4.01719
0
LINE
8
BLACK
6
CONTINUOUS
10
5.63656
20
-4.01719
11
5.63656
21
-4.03293
0
LINE
8
BLACK
6
CONTINUOUS
10
5.63656
20
-4.03293
11
5.63596
21
-4.03595
0
LINE
8
BLACK
6
CONTINUOUS
10
5.63596
20
-4.03595
11
5.63425
21
-4.0385
0
LINE
8
BLACK
6
CONTINUOUS
10
5.63425
20
-4.0385
11
5.63169
21
-4.04021
0
LINE
8
BLACK
6
CONTINUOUS
10
5.63169
20
-4.04021
11
5.62868
21
-4.04081
0
LINE
8
BLACK
6
CONTINUOUS
10
5.62868
20
-4.04081
11
5.57356
21
-4.04081
0
LINE
8
BLACK
6
CONTINUOUS
10
5.57356
20
-4.04081
11
5.57055
21
-4.04021
0
LINE
8
BLACK
6
CONTINUOUS
10
5.57055
20
-4.04021
11
5.568
21
-4.0385
0
LINE
8
BLACK
6
CONTINUOUS
10
5.568
20
-4.0385
11
5.56629
21
-4.03595
0
LINE
8
BLACK
6
CONTINUOUS
10
5.56629
20
-4.03595
11
5.56569
21
-4.03293
0
LINE
8
BLACK
6
CONTINUOUS
10
5.56569
20
-4.03293
11
5.56569
21
-4.01719
0
LINE
8
BLACK
6
CONTINUOUS
10
5.56569
20
-4.01719
11
5.56629
21
-4.01417
0
LINE
8
BLACK
6
CONTINUOUS
10
5.56629
20
-4.01417
11
5.568
21
-4.01162
0
LINE
8
BLACK
6
CONTINUOUS
10
5.568
20
-4.01162
11
5.57055
21
-4.00991
0
LINE
8
BLACK
6
CONTINUOUS
10
5.57055
20
-4.00991
11
5.57356
21
-4.00931
0
LINE
8
BLACK
6
CONTINUOUS
10
5.57356
20
-4.00931
11
5.62868
21
-4.00931
0
LINE
8
BLACK
6
CONTINUOUS
10
5.62868
20
-4.00931
11
5.63169
21
-4.00991
0
LINE
8
BLACK
6
CONTINUOUS
10
5.15925
20
-4.00991
11
5.16181
21
-4.01162
0
LINE
8
BLACK
6
CONTINUOUS
10
5.16181
20
-4.01162
11
5.16351
21
-4.01417
0
LINE
8
BLACK
6
CONTINUOUS
10
5.16351
20
-4.01417
11
5.16411
21
-4.01719
0
LINE
8
BLACK
6
CONTINUOUS
10
5.16411
20
-4.01719
11
5.16411
21
-4.03293
0
LINE
8
BLACK
6
CONTINUOUS
10
5.16411
20
-4.03293
11
5.16351
21
-4.03595
0
LINE
8
BLACK
6
CONTINUOUS
10
5.16351
20
-4.03595
11
5.16181
21
-4.0385
0
LINE
8
BLACK
6
CONTINUOUS
10
5.16181
20
-4.0385
11
5.15925
21
-4.04021
0
LINE
8
BLACK
6
CONTINUOUS
10
5.15925
20
-4.04021
11
5.15624
21
-4.04081
0
LINE
8
BLACK
6
CONTINUOUS
10
5.15624
20
-4.04081
11
5.10112
21
-4.04081
0
LINE
8
BLACK
6
CONTINUOUS
10
5.10112
20
-4.04081
11
5.09811
21
-4.04021
0
LINE
8
BLACK
6
CONTINUOUS
10
5.09811
20
-4.04021
11
5.09555
21
-4.0385
0
LINE
8
BLACK
6
CONTINUOUS
10
5.09555
20
-4.0385
11
5.09385
21
-4.03595
0
LINE
8
BLACK
6
CONTINUOUS
10
5.09385
20
-4.03595
11
5.09325
21
-4.03293
0
LINE
8
BLACK
6
CONTINUOUS
10
5.09325
20
-4.03293
11
5.09325
21
-4.01719
0
LINE
8
BLACK
6
CONTINUOUS
10
5.09325
20
-4.01719
11
5.09385
21
-4.01417
0
LINE
8
BLACK
6
CONTINUOUS
10
5.09385
20
-4.01417
11
5.09555
21
-4.01162
0
LINE
8
BLACK
6
CONTINUOUS
10
5.09555
20
-4.01162
11
5.09811
21
-4.00991
0
LINE
8
BLACK
6
CONTINUOUS
10
5.09811
20
-4.00991
11
5.10112
21
-4.00931
0
LINE
8
BLACK
6
CONTINUOUS
10
5.10112
20
-4.00931
11
5.15624
21
-4.00931
0
LINE
8
BLACK
6
CONTINUOUS
10
5.15624
20
-4.00931
11
5.15925
21
-4.00991
0
LINE
8
BLACK
6
CONTINUOUS
10
6.16609
20
-4.01562
11
6.14134
21
-4.04037
0
LINE
8
BLACK
6
CONTINUOUS
10
6.14134
20
-4.04037
11
6.10245
21
-4.00148
0
LINE
8
BLACK
6
CONTINUOUS
10
6.10245
20
-4.00148
11
6.1272
21
-3.97673
0
LINE
8
BLACK
6
CONTINUOUS
10
6.1272
20
-3.97673
11
6.16609
21
-4.01562
0
LINE
8
BLACK
6
CONTINUOUS
10
6.47199
20
-4.02567
11
6.43656
21
-4.02567
0
LINE
8
BLACK
6
CONTINUOUS
10
6.43656
20
-4.02567
11
6.43656
21
-3.99417
0
LINE
8
BLACK
6
CONTINUOUS
10
6.43656
20
-3.99417
11
6.47199
21
-3.99417
0
LINE
8
BLACK
6
CONTINUOUS
10
6.47199
20
-3.99417
11
6.47199
21
-4.02567
0
LINE
8
BLACK
6
CONTINUOUS
10
5.7674
20
-4.00742
11
5.7124
21
-4.00742
0
LINE
8
BLACK
6
CONTINUOUS
10
5.7124
20
-4.00742
11
5.7124
21
-3.97242
0
LINE
8
BLACK
6
CONTINUOUS
10
5.7124
20
-3.97242
11
5.7674
21
-3.97242
0
LINE
8
BLACK
6
CONTINUOUS
10
5.7674
20
-3.97242
11
5.7674
21
-4.00742
0
LINE
8
BLACK
6
CONTINUOUS
10
5.8524
20
-4.00742
11
5.7974
21
-4.00742
0
LINE
8
BLACK
6
CONTINUOUS
10
5.7974
20
-4.00742
11
5.7974
21
-3.97242
0
LINE
8
BLACK
6
CONTINUOUS
10
5.7974
20
-3.97242
11
5.8524
21
-3.97242
0
LINE
8
BLACK
6
CONTINUOUS
10
5.8524
20
-3.97242
11
5.8524
21
-4.00742
0
LINE
8
BLACK
6
CONTINUOUS
10
6.11881
20
-3.96096
11
6.07992
21
-3.99985
0
LINE
8
BLACK
6
CONTINUOUS
10
6.07992
20
-3.99985
11
6.05517
21
-3.9751
0
LINE
8
BLACK
6
CONTINUOUS
10
6.05517
20
-3.9751
11
6.09406
21
-3.93621
0
LINE
8
BLACK
6
CONTINUOUS
10
6.09406
20
-3.93621
11
6.11881
21
-3.96096
0
LINE
8
BLACK
6
CONTINUOUS
10
5.63169
20
-3.9666
11
5.63425
21
-3.96831
0
LINE
8
BLACK
6
CONTINUOUS
10
5.63425
20
-3.96831
11
5.63596
21
-3.97086
0
LINE
8
BLACK
6
CONTINUOUS
10
5.63596
20
-3.97086
11
5.63656
21
-3.97388
0
LINE
8
BLACK
6
CONTINUOUS
10
5.63656
20
-3.97388
11
5.63656
21
-3.98963
0
LINE
8
BLACK
6
CONTINUOUS
10
5.63656
20
-3.98963
11
5.63596
21
-3.99264
0
LINE
8
BLACK
6
CONTINUOUS
10
5.63596
20
-3.99264
11
5.63425
21
-3.99519
0
LINE
8
BLACK
6
CONTINUOUS
10
5.63425
20
-3.99519
11
5.63169
21
-3.9969
0
LINE
8
BLACK
6
CONTINUOUS
10
5.63169
20
-3.9969
11
5.62868
21
-3.9975
0
LINE
8
BLACK
6
CONTINUOUS
10
5.62868
20
-3.9975
11
5.57356
21
-3.9975
0
LINE
8
BLACK
6
CONTINUOUS
10
5.57356
20
-3.9975
11
5.57055
21
-3.9969
0
LINE
8
BLACK
6
CONTINUOUS
10
5.57055
20
-3.9969
11
5.568
21
-3.99519
0
LINE
8
BLACK
6
CONTINUOUS
10
5.568
20
-3.99519
11
5.56629
21
-3.99264
0
LINE
8
BLACK
6
CONTINUOUS
10
5.56629
20
-3.99264
11
5.56569
21
-3.98963
0
LINE
8
BLACK
6
CONTINUOUS
10
5.56569
20
-3.98963
11
5.56569
21
-3.97388
0
LINE
8
BLACK
6
CONTINUOUS
10
5.56569
20
-3.97388
11
5.56629
21
-3.97086
0
LINE
8
BLACK
6
CONTINUOUS
10
5.56629
20
-3.97086
11
5.568
21
-3.96831
0
LINE
8
BLACK
6
CONTINUOUS
10
5.568
20
-3.96831
11
5.57055
21
-3.9666
0
LINE
8
BLACK
6
CONTINUOUS
10
5.57055
20
-3.9666
11
5.57356
21
-3.966
0
LINE
8
BLACK
6
CONTINUOUS
10
5.57356
20
-3.966
11
5.62868
21
-3.966
0
LINE
8
BLACK
6
CONTINUOUS
10
5.62868
20
-3.966
11
5.63169
21
-3.9666
0
LINE
8
BLACK
6
CONTINUOUS
10
5.15925
20
-3.9666
11
5.16181
21
-3.96831
0
LINE
8
BLACK
6
CONTINUOUS
10
5.16181
20
-3.96831
11
5.16351
21
-3.97086
0
LINE
8
BLACK
6
CONTINUOUS
10
5.16351
20
-3.97086
11
5.16411
21
-3.97388
0
LINE
8
BLACK
6
CONTINUOUS
10
5.16411
20
-3.97388
11
5.16411
21
-3.98963
0
LINE
8
BLACK
6
CONTINUOUS
10
5.16411
20
-3.98963
11
5.16351
21
-3.99264
0
LINE
8
BLACK
6
CONTINUOUS
10
5.16351
20
-3.99264
11
5.16181
21
-3.99519
0
LINE
8
BLACK
6
CONTINUOUS
10
5.16181
20
-3.99519
11
5.15925
21
-3.9969
0
LINE
8
BLACK
6
CONTINUOUS
10
5.15925
20
-3.9969
11
5.15624
21
-3.9975
0
LINE
8
BLACK
6
CONTINUOUS
10
5.15624
20
-3.9975
11
5.10112
21
-3.9975
0
LINE
8
BLACK
6
CONTINUOUS
10
5.10112
20
-3.9975
11
5.09811
21
-3.9969
0
LINE
8
BLACK
6
CONTINUOUS
10
5.09811
20
-3.9969
11
5.09555
21
-3.99519
0
LINE
8
BLACK
6
CONTINUOUS
10
5.09555
20
-3.99519
11
5.09385
21
-3.99264
0
LINE
8
BLACK
6
CONTINUOUS
10
5.09385
20
-3.99264
11
5.09325
21
-3.98963
0
LINE
8
BLACK
6
CONTINUOUS
10
5.09325
20
-3.98963
11
5.09325
21
-3.97388
0
LINE
8
BLACK
6
CONTINUOUS
10
5.09325
20
-3.97388
11
5.09385
21
-3.97086
0
LINE
8
BLACK
6
CONTINUOUS
10
5.09385
20
-3.97086
11
5.09555
21
-3.96831
0
LINE
8
BLACK
6
CONTINUOUS
10
5.09555
20
-3.96831
11
5.09811
21
-3.9666
0
LINE
8
BLACK
6
CONTINUOUS
10
5.09811
20
-3.9666
11
5.10112
21
-3.966
0
LINE
8
BLACK
6
CONTINUOUS
10
5.10112
20
-3.966
11
5.15624
21
-3.966
0
LINE
8
BLACK
6
CONTINUOUS
10
5.15624
20
-3.966
11
5.15925
21
-3.9666
0
LINE
8
BLACK
6
CONTINUOUS
10
6.3274
20
-3.99242
11
6.2724
21
-3.99242
0
LINE
8
BLACK
6
CONTINUOUS
10
6.2724
20
-3.99242
11
6.2724
21
-3.95742
0
LINE
8
BLACK
6
CONTINUOUS
10
6.2724
20
-3.95742
11
6.3274
21
-3.95742
0
LINE
8
BLACK
6
CONTINUOUS
10
6.3274
20
-3.95742
11
6.3274
21
-3.99242
0
LINE
8
BLACK
6
CONTINUOUS
10
6.39325
20
-3.98827
11
6.35781
21
-3.98827
0
LINE
8
BLACK
6
CONTINUOUS
10
6.35781
20
-3.98827
11
6.35781
21
-3.95677
0
LINE
8
BLACK
6
CONTINUOUS
10
6.35781
20
-3.95677
11
6.39325
21
-3.95677
0
LINE
8
BLACK
6
CONTINUOUS
10
6.39325
20
-3.95677
11
6.39325
21
-3.98827
0
LINE
8
BLACK
6
CONTINUOUS
10
6.21912
20
-3.96259
11
6.19437
21
-3.98734
0
LINE
8
BLACK
6
CONTINUOUS
10
6.19437
20
-3.98734
11
6.15548
21
-3.94845
0
LINE
8
BLACK
6
CONTINUOUS
10
6.15548
20
-3.94845
11
6.18023
21
-3.9237
0
LINE
8
BLACK
6
CONTINUOUS
10
6.18023
20
-3.9237
11
6.21912
21
-3.96259
0
LINE
8
BLACK
6
CONTINUOUS
10
4.9474
20
-3.97242
11
4.9124
21
-3.97242
0
LINE
8
BLACK
6
CONTINUOUS
10
4.9124
20
-3.97242
11
4.9124
21
-3.91742
0
LINE
8
BLACK
6
CONTINUOUS
10
4.9124
20
-3.91742
11
4.9474
21
-3.91742
0
LINE
8
BLACK
6
CONTINUOUS
10
4.9474
20
-3.91742
11
4.9474
21
-3.97242
0
LINE
8
BLACK
6
CONTINUOUS
10
5.0224
20
-3.97242
11
4.9874
21
-3.97242
0
LINE
8
BLACK
6
CONTINUOUS
10
4.9874
20
-3.97242
11
4.9874
21
-3.91742
0
LINE
8
BLACK
6
CONTINUOUS
10
4.9874
20
-3.91742
11
5.0224
21
-3.91742
0
LINE
8
BLACK
6
CONTINUOUS
10
5.0224
20
-3.91742
11
5.0224
21
-3.97242
0
LINE
8
BLACK
6
CONTINUOUS
10
6.77785
20
-3.97035
11
6.67943
21
-3.97035
0
LINE
8
BLACK
6
CONTINUOUS
10
6.67943
20
-3.97035
11
6.67943
21
-3.89949
0
LINE
8
BLACK
6
CONTINUOUS
10
6.67943
20
-3.89949
11
6.77785
21
-3.89949
0
LINE
8
BLACK
6
CONTINUOUS
10
6.77785
20
-3.89949
11
6.77785
21
-3.97035
0
LINE
8
BLACK
6
CONTINUOUS
10
6.62037
20
-3.97035
11
6.52195
21
-3.97035
0
LINE
8
BLACK
6
CONTINUOUS
10
6.52195
20
-3.97035
11
6.52195
21
-3.89949
0
LINE
8
BLACK
6
CONTINUOUS
10
6.52195
20
-3.89949
11
6.62037
21
-3.89949
0
LINE
8
BLACK
6
CONTINUOUS
10
6.62037
20
-3.89949
11
6.62037
21
-3.97035
0
LINE
8
BLACK
6
CONTINUOUS
10
5.63169
20
-3.9233
11
5.63425
21
-3.925
0
LINE
8
BLACK
6
CONTINUOUS
10
5.63425
20
-3.925
11
5.63596
21
-3.92756
0
LINE
8
BLACK
6
CONTINUOUS
10
5.63596
20
-3.92756
11
5.63656
21
-3.93057
0
LINE
8
BLACK
6
CONTINUOUS
10
5.63656
20
-3.93057
11
5.63656
21
-3.94632
0
LINE
8
BLACK
6
CONTINUOUS
10
5.63656
20
-3.94632
11
5.63596
21
-3.94933
0
LINE
8
BLACK
6
CONTINUOUS
10
5.63596
20
-3.94933
11
5.63425
21
-3.95189
0
LINE
8
BLACK
6
CONTINUOUS
10
5.63425
20
-3.95189
11
5.63169
21
-3.95359
0
LINE
8
BLACK
6
CONTINUOUS
10
5.63169
20
-3.95359
11
5.62868
21
-3.95419
0
LINE
8
BLACK
6
CONTINUOUS
10
5.62868
20
-3.95419
11
5.57356
21
-3.95419
0
LINE
8
BLACK
6
CONTINUOUS
10
5.57356
20
-3.95419
11
5.57055
21
-3.95359
0
LINE
8
BLACK
6
CONTINUOUS
10
5.57055
20
-3.95359
11
5.568
21
-3.95189
0
LINE
8
BLACK
6
CONTINUOUS
10
5.568
20
-3.95189
11
5.56629
21
-3.94933
0
LINE
8
BLACK
6
CONTINUOUS
10
5.56629
20
-3.94933
11
5.56569
21
-3.94632
0
LINE
8
BLACK
6
CONTINUOUS
10
5.56569
20
-3.94632
11
5.56569
21
-3.93057
0
LINE
8
BLACK
6
CONTINUOUS
10
5.56569
20
-3.93057
11
5.56629
21
-3.92756
0
LINE
8
BLACK
6
CONTINUOUS
10
5.56629
20
-3.92756
11
5.568
21
-3.925
0
LINE
8
BLACK
6
CONTINUOUS
10
5.568
20
-3.925
11
5.57055
21
-3.9233
0
LINE
8
BLACK
6
CONTINUOUS
10
5.57055
20
-3.9233
11
5.57356
21
-3.9227
0
LINE
8
BLACK
6
CONTINUOUS
10
5.57356
20
-3.9227
11
5.62868
21
-3.9227
0
LINE
8
BLACK
6
CONTINUOUS
10
5.62868
20
-3.9227
11
5.63169
21
-3.9233
0
LINE
8
BLACK
6
CONTINUOUS
10
5.15925
20
-3.9233
11
5.16181
21
-3.925
0
LINE
8
BLACK
6
CONTINUOUS
10
5.16181
20
-3.925
11
5.16351
21
-3.92756
0
LINE
8
BLACK
6
CONTINUOUS
10
5.16351
20
-3.92756
11
5.16411
21
-3.93057
0
LINE
8
BLACK
6
CONTINUOUS
10
5.16411
20
-3.93057
11
5.16411
21
-3.94632
0
LINE
8
BLACK
6
CONTINUOUS
10
5.16411
20
-3.94632
11
5.16351
21
-3.94933
0
LINE
8
BLACK
6
CONTINUOUS
10
5.16351
20
-3.94933
11
5.16181
21
-3.95189
0
LINE
8
BLACK
6
CONTINUOUS
10
5.16181
20
-3.95189
11
5.15925
21
-3.95359
0
LINE
8
BLACK
6
CONTINUOUS
10
5.15925
20
-3.95359
11
5.15624
21
-3.95419
0
LINE
8
BLACK
6
CONTINUOUS
10
5.15624
20
-3.95419
11
5.10112
21
-3.95419
0
LINE
8
BLACK
6
CONTINUOUS
10
5.10112
20
-3.95419
11
5.09811
21
-3.95359
0
LINE
8
BLACK
6
CONTINUOUS
10
5.09811
20
-3.95359
11
5.09555
21
-3.95189
0
LINE
8
BLACK
6
CONTINUOUS
10
5.09555
20
-3.95189
11
5.09385
21
-3.94933
0
LINE
8
BLACK
6
CONTINUOUS
10
5.09385
20
-3.94933
11
5.09325
21
-3.94632
0
LINE
8
BLACK
6
CONTINUOUS
10
5.09325
20
-3.94632
11
5.09325
21
-3.93057
0
LINE
8
BLACK
6
CONTINUOUS
10
5.09325
20
-3.93057
11
5.09385
21
-3.92756
0
LINE
8
BLACK
6
CONTINUOUS
10
5.09385
20
-3.92756
11
5.09555
21
-3.925
0
LINE
8
BLACK
6
CONTINUOUS
10
5.09555
20
-3.925
11
5.09811
21
-3.9233
0
LINE
8
BLACK
6
CONTINUOUS
10
5.09811
20
-3.9233
11
5.10112
21
-3.9227
0
LINE
8
BLACK
6
CONTINUOUS
10
5.10112
20
-3.9227
11
5.15624
21
-3.9227
0
LINE
8
BLACK
6
CONTINUOUS
10
5.15624
20
-3.9227
11
5.15925
21
-3.9233
0
LINE
8
BLACK
6
CONTINUOUS
10
6.06577
20
-3.90793
11
6.02688
21
-3.94682
0
LINE
8
BLACK
6
CONTINUOUS
10
6.02688
20
-3.94682
11
6.00213
21
-3.92207
0
LINE
8
BLACK
6
CONTINUOUS
10
6.00213
20
-3.92207
11
6.04103
21
-3.88318
0
LINE
8
BLACK
6
CONTINUOUS
10
6.04103
20
-3.88318
11
6.06577
21
-3.90793
0
LINE
8
BLACK
6
CONTINUOUS
10
5.7674
20
-3.93242
11
5.7124
21
-3.93242
0
LINE
8
BLACK
6
CONTINUOUS
10
5.7124
20
-3.93242
11
5.7124
21
-3.89742
0
LINE
8
BLACK
6
CONTINUOUS
10
5.7124
20
-3.89742
11
5.7674
21
-3.89742
0
LINE
8
BLACK
6
CONTINUOUS
10
5.7674
20
-3.89742
11
5.7674
21
-3.93242
0
LINE
8
BLACK
6
CONTINUOUS
10
5.8524
20
-3.93242
11
5.7974
21
-3.93242
0
LINE
8
BLACK
6
CONTINUOUS
10
5.7974
20
-3.93242
11
5.7974
21
-3.89742
0
LINE
8
BLACK
6
CONTINUOUS
10
5.7974
20
-3.89742
11
5.8524
21
-3.89742
0
LINE
8
BLACK
6
CONTINUOUS
10
5.8524
20
-3.89742
11
5.8524
21
-3.93242
0
LINE
8
BLACK
6
CONTINUOUS
10
6.3274
20
-3.91742
11
6.2724
21
-3.91742
0
LINE
8
BLACK
6
CONTINUOUS
10
6.2724
20
-3.91742
11
6.2724
21
-3.88242
0
LINE
8
BLACK
6
CONTINUOUS
10
6.2724
20
-3.88242
11
6.3274
21
-3.88242
0
LINE
8
BLACK
6
CONTINUOUS
10
6.3274
20
-3.88242
11
6.3274
21
-3.91742
0
LINE
8
BLACK
6
CONTINUOUS
10
5.98983
20
-3.81449
11
5.99811
21
-3.81671
0
LINE
8
BLACK
6
CONTINUOUS
10
5.99811
20
-3.81671
11
6.00589
21
-3.82033
0
LINE
8
BLACK
6
CONTINUOUS
10
6.00589
20
-3.82033
11
6.01291
21
-3.82525
0
LINE
8
BLACK
6
CONTINUOUS
10
6.01291
20
-3.82525
11
6.01898
21
-3.83132
0
LINE
8
BLACK
6
CONTINUOUS
10
6.01898
20
-3.83132
11
6.0239
21
-3.83835
0
LINE
8
BLACK
6
CONTINUOUS
10
6.0239
20
-3.83835
11
6.02752
21
-3.84612
0
LINE
8
BLACK
6
CONTINUOUS
10
6.02752
20
-3.84612
11
6.02974
21
-3.85441
0
LINE
8
BLACK
6
CONTINUOUS
10
6.02974
20
-3.85441
11
6.03049
21
-3.86295
0
LINE
8
BLACK
6
CONTINUOUS
10
6.03049
20
-3.86295
11
6.02974
21
-3.8715
0
LINE
8
BLACK
6
CONTINUOUS
10
6.02974
20
-3.8715
11
6.02752
21
-3.87978
0
LINE
8
BLACK
6
CONTINUOUS
10
6.02752
20
-3.87978
11
6.0239
21
-3.88756
0
LINE
8
BLACK
6
CONTINUOUS
10
6.0239
20
-3.88756
11
6.01898
21
-3.89459
0
LINE
8
BLACK
6
CONTINUOUS
10
6.01898
20
-3.89459
11
6.01291
21
-3.90065
0
LINE
8
BLACK
6
CONTINUOUS
10
6.01291
20
-3.90065
11
6.00589
21
-3.90557
0
LINE
8
BLACK
6
CONTINUOUS
10
6.00589
20
-3.90557
11
5.99811
21
-3.9092
0
LINE
8
BLACK
6
CONTINUOUS
10
5.99811
20
-3.9092
11
5.98983
21
-3.91142
0
LINE
8
BLACK
6
CONTINUOUS
10
5.98983
20
-3.91142
11
5.98128
21
-3.91217
0
LINE
8
BLACK
6
CONTINUOUS
10
5.98128
20
-3.91217
11
5.97273
21
-3.91142
0
LINE
8
BLACK
6
CONTINUOUS
10
5.97273
20
-3.91142
11
5.96445
21
-3.9092
0
LINE
8
BLACK
6
CONTINUOUS
10
5.96445
20
-3.9092
11
5.95667
21
-3.90557
0
LINE
8
BLACK
6
CONTINUOUS
10
5.95667
20
-3.90557
11
5.94965
21
-3.90065
0
LINE
8
BLACK
6
CONTINUOUS
10
5.94965
20
-3.90065
11
5.94358
21
-3.89459
0
LINE
8
BLACK
6
CONTINUOUS
10
5.94358
20
-3.89459
11
5.93866
21
-3.88756
0
LINE
8
BLACK
6
CONTINUOUS
10
5.93866
20
-3.88756
11
5.93503
21
-3.87978
0
LINE
8
BLACK
6
CONTINUOUS
10
5.93503
20
-3.87978
11
5.93281
21
-3.8715
0
LINE
8
BLACK
6
CONTINUOUS
10
5.93281
20
-3.8715
11
5.93207
21
-3.86295
0
LINE
8
BLACK
6
CONTINUOUS
10
5.93207
20
-3.86295
11
5.93281
21
-3.85441
0
LINE
8
BLACK
6
CONTINUOUS
10
5.93281
20
-3.85441
11
5.93503
21
-3.84612
0
LINE
8
BLACK
6
CONTINUOUS
10
5.93503
20
-3.84612
11
5.93866
21
-3.83835
0
LINE
8
BLACK
6
CONTINUOUS
10
5.93866
20
-3.83835
11
5.94358
21
-3.83132
0
LINE
8
BLACK
6
CONTINUOUS
10
5.94358
20
-3.83132
11
5.94965
21
-3.82525
0
LINE
8
BLACK
6
CONTINUOUS
10
5.94965
20
-3.82525
11
5.95667
21
-3.82033
0
LINE
8
BLACK
6
CONTINUOUS
10
5.95667
20
-3.82033
11
5.96445
21
-3.81671
0
LINE
8
BLACK
6
CONTINUOUS
10
5.96445
20
-3.81671
11
5.97273
21
-3.81449
0
LINE
8
BLACK
6
CONTINUOUS
10
5.97273
20
-3.81449
11
5.98128
21
-3.81374
0
LINE
8
BLACK
6
CONTINUOUS
10
5.98128
20
-3.81374
11
5.98983
21
-3.81449
0
LINE
8
BLACK
6
CONTINUOUS
10
5.15925
20
-3.87999
11
5.16181
21
-3.8817
0
LINE
8
BLACK
6
CONTINUOUS
10
5.16181
20
-3.8817
11
5.16351
21
-3.88425
0
LINE
8
BLACK
6
CONTINUOUS
10
5.16351
20
-3.88425
11
5.16411
21
-3.88726
0
LINE
8
BLACK
6
CONTINUOUS
10
5.16411
20
-3.88726
11
5.16411
21
-3.90301
0
LINE
8
BLACK
6
CONTINUOUS
10
5.16411
20
-3.90301
11
5.16351
21
-3.90603
0
LINE
8
BLACK
6
CONTINUOUS
10
5.16351
20
-3.90603
11
5.16181
21
-3.90858
0
LINE
8
BLACK
6
CONTINUOUS
10
5.16181
20
-3.90858
11
5.15925
21
-3.91029
0
LINE
8
BLACK
6
CONTINUOUS
10
5.15925
20
-3.91029
11
5.15624
21
-3.91089
0
LINE
8
BLACK
6
CONTINUOUS
10
5.15624
20
-3.91089
11
5.10112
21
-3.91089
0
LINE
8
BLACK
6
CONTINUOUS
10
5.10112
20
-3.91089
11
5.09811
21
-3.91029
0
LINE
8
BLACK
6
CONTINUOUS
10
5.09811
20
-3.91029
11
5.09555
21
-3.90858
0
LINE
8
BLACK
6
CONTINUOUS
10
5.09555
20
-3.90858
11
5.09385
21
-3.90603
0
LINE
8
BLACK
6
CONTINUOUS
10
5.09385
20
-3.90603
11
5.09325
21
-3.90301
0
LINE
8
BLACK
6
CONTINUOUS
10
5.09325
20
-3.90301
11
5.09325
21
-3.88726
0
LINE
8
BLACK
6
CONTINUOUS
10
5.09325
20
-3.88726
11
5.09385
21
-3.88425
0
LINE
8
BLACK
6
CONTINUOUS
10
5.09385
20
-3.88425
11
5.09555
21
-3.8817
0
LINE
8
BLACK
6
CONTINUOUS
10
5.09555
20
-3.8817
11
5.09811
21
-3.87999
0
LINE
8
BLACK
6
CONTINUOUS
10
5.09811
20
-3.87999
11
5.10112
21
-3.87939
0
LINE
8
BLACK
6
CONTINUOUS
10
5.10112
20
-3.87939
11
5.15624
21
-3.87939
0
LINE
8
BLACK
6
CONTINUOUS
10
5.15624
20
-3.87939
11
5.15925
21
-3.87999
0
LINE
8
BLACK
6
CONTINUOUS
10
5.63169
20
-3.87999
11
5.63425
21
-3.8817
0
LINE
8
BLACK
6
CONTINUOUS
10
5.63425
20
-3.8817
11
5.63596
21
-3.88425
0
LINE
8
BLACK
6
CONTINUOUS
10
5.63596
20
-3.88425
11
5.63656
21
-3.88726
0
LINE
8
BLACK
6
CONTINUOUS
10
5.63656
20
-3.88726
11
5.63656
21
-3.90301
0
LINE
8
BLACK
6
CONTINUOUS
10
5.63656
20
-3.90301
11
5.63596
21
-3.90603
0
LINE
8
BLACK
6
CONTINUOUS
10
5.63596
20
-3.90603
11
5.63425
21
-3.90858
0
LINE
8
BLACK
6
CONTINUOUS
10
5.63425
20
-3.90858
11
5.63169
21
-3.91029
0
LINE
8
BLACK
6
CONTINUOUS
10
5.63169
20
-3.91029
11
5.62868
21
-3.91089
0
LINE
8
BLACK
6
CONTINUOUS
10
5.62868
20
-3.91089
11
5.57356
21
-3.91089
0
LINE
8
BLACK
6
CONTINUOUS
10
5.57356
20
-3.91089
11
5.57055
21
-3.91029
0
LINE
8
BLACK
6
CONTINUOUS
10
5.57055
20
-3.91029
11
5.568
21
-3.90858
0
LINE
8
BLACK
6
CONTINUOUS
10
5.568
20
-3.90858
11
5.56629
21
-3.90603
0
LINE
8
BLACK
6
CONTINUOUS
10
5.56629
20
-3.90603
11
5.56569
21
-3.90301
0
LINE
8
BLACK
6
CONTINUOUS
10
5.56569
20
-3.90301
11
5.56569
21
-3.88726
0
LINE
8
BLACK
6
CONTINUOUS
10
5.56569
20
-3.88726
11
5.56629
21
-3.88425
0
LINE
8
BLACK
6
CONTINUOUS
10
5.56629
20
-3.88425
11
5.568
21
-3.8817
0
LINE
8
BLACK
6
CONTINUOUS
10
5.568
20
-3.8817
11
5.57055
21
-3.87999
0
LINE
8
BLACK
6
CONTINUOUS
10
5.57055
20
-3.87999
11
5.57356
21
-3.87939
0
LINE
8
BLACK
6
CONTINUOUS
10
5.57356
20
-3.87939
11
5.62868
21
-3.87939
0
LINE
8
BLACK
6
CONTINUOUS
10
5.62868
20
-3.87939
11
5.63169
21
-3.87999
0
LINE
8
BLACK
6
CONTINUOUS
10
4.9974
20
-3.88742
11
4.9624
21
-3.88742
0
LINE
8
BLACK
6
CONTINUOUS
10
4.9624
20
-3.88742
11
4.9624
21
-3.83242
0
LINE
8
BLACK
6
CONTINUOUS
10
4.9624
20
-3.83242
11
4.9974
21
-3.83242
0
LINE
8
BLACK
6
CONTINUOUS
10
4.9974
20
-3.83242
11
4.9974
21
-3.88742
0
LINE
8
BLACK
6
CONTINUOUS
10
4.9224
20
-3.88742
11
4.8874
21
-3.88742
0
LINE
8
BLACK
6
CONTINUOUS
10
4.8874
20
-3.88742
11
4.8874
21
-3.83242
0
LINE
8
BLACK
6
CONTINUOUS
10
4.8874
20
-3.83242
11
4.9224
21
-3.83242
0
LINE
8
BLACK
6
CONTINUOUS
10
4.9224
20
-3.83242
11
4.9224
21
-3.88742
0
LINE
8
BLACK
6
CONTINUOUS
10
6.4824
20
-3.87742
11
6.4474
21
-3.87742
0
LINE
8
BLACK
6
CONTINUOUS
10
6.4474
20
-3.87742
11
6.4474
21
-3.82242
0
LINE
8
BLACK
6
CONTINUOUS
10
6.4474
20
-3.82242
11
6.4824
21
-3.82242
0
LINE
8
BLACK
6
CONTINUOUS
10
6.4824
20
-3.82242
11
6.4824
21
-3.87742
0
LINE
8
BLACK
6
CONTINUOUS
10
6.4074
20
-3.87742
11
6.3724
21
-3.87742
0
LINE
8
BLACK
6
CONTINUOUS
10
6.3724
20
-3.87742
11
6.3724
21
-3.82242
0
LINE
8
BLACK
6
CONTINUOUS
10
6.3724
20
-3.82242
11
6.4074
21
-3.82242
0
LINE
8
BLACK
6
CONTINUOUS
10
6.4074
20
-3.82242
11
6.4074
21
-3.87742
0
LINE
8
BLACK
6
CONTINUOUS
10
5.15925
20
-3.83668
11
5.16181
21
-3.83839
0
LINE
8
BLACK
6
CONTINUOUS
10
5.16181
20
-3.83839
11
5.16351
21
-3.84094
0
LINE
8
BLACK
6
CONTINUOUS
10
5.16351
20
-3.84094
11
5.16411
21
-3.84396
0
LINE
8
BLACK
6
CONTINUOUS
10
5.16411
20
-3.84396
11
5.16411
21
-3.8597
0
LINE
8
BLACK
6
CONTINUOUS
10
5.16411
20
-3.8597
11
5.16351
21
-3.86272
0
LINE
8
BLACK
6
CONTINUOUS
10
5.16351
20
-3.86272
11
5.16181
21
-3.86527
0
LINE
8
BLACK
6
CONTINUOUS
10
5.16181
20
-3.86527
11
5.15925
21
-3.86698
0
LINE
8
BLACK
6
CONTINUOUS
10
5.15925
20
-3.86698
11
5.15624
21
-3.86758
0
LINE
8
BLACK
6
CONTINUOUS
10
5.15624
20
-3.86758
11
5.10112
21
-3.86758
0
LINE
8
BLACK
6
CONTINUOUS
10
5.10112
20
-3.86758
11
5.09811
21
-3.86698
0
LINE
8
BLACK
6
CONTINUOUS
10
5.09811
20
-3.86698
11
5.09555
21
-3.86527
0
LINE
8
BLACK
6
CONTINUOUS
10
5.09555
20
-3.86527
11
5.09385
21
-3.86272
0
LINE
8
BLACK
6
CONTINUOUS
10
5.09385
20
-3.86272
11
5.09325
21
-3.8597
0
LINE
8
BLACK
6
CONTINUOUS
10
5.09325
20
-3.8597
11
5.09325
21
-3.84396
0
LINE
8
BLACK
6
CONTINUOUS
10
5.09325
20
-3.84396
11
5.09385
21
-3.84094
0
LINE
8
BLACK
6
CONTINUOUS
10
5.09385
20
-3.84094
11
5.09555
21
-3.83839
0
LINE
8
BLACK
6
CONTINUOUS
10
5.09555
20
-3.83839
11
5.09811
21
-3.83668
0
LINE
8
BLACK
6
CONTINUOUS
10
5.09811
20
-3.83668
11
5.10112
21
-3.83608
0
LINE
8
BLACK
6
CONTINUOUS
10
5.10112
20
-3.83608
11
5.15624
21
-3.83608
0
LINE
8
BLACK
6
CONTINUOUS
10
5.15624
20
-3.83608
11
5.15925
21
-3.83668
0
LINE
8
BLACK
6
CONTINUOUS
10
5.63169
20
-3.83668
11
5.63425
21
-3.83839
0
LINE
8
BLACK
6
CONTINUOUS
10
5.63425
20
-3.83839
11
5.63596
21
-3.84094
0
LINE
8
BLACK
6
CONTINUOUS
10
5.63596
20
-3.84094
11
5.63656
21
-3.84396
0
LINE
8
BLACK
6
CONTINUOUS
10
5.63656
20
-3.84396
11
5.63656
21
-3.8597
0
LINE
8
BLACK
6
CONTINUOUS
10
5.63656
20
-3.8597
11
5.63596
21
-3.86272
0
LINE
8
BLACK
6
CONTINUOUS
10
5.63596
20
-3.86272
11
5.63425
21
-3.86527
0
LINE
8
BLACK
6
CONTINUOUS
10
5.63425
20
-3.86527
11
5.63169
21
-3.86698
0
LINE
8
BLACK
6
CONTINUOUS
10
5.63169
20
-3.86698
11
5.62868
21
-3.86758
0
LINE
8
BLACK
6
CONTINUOUS
10
5.62868
20
-3.86758
11
5.57356
21
-3.86758
0
LINE
8
BLACK
6
CONTINUOUS
10
5.57356
20
-3.86758
11
5.57055
21
-3.86698
0
LINE
8
BLACK
6
CONTINUOUS
10
5.57055
20
-3.86698
11
5.568
21
-3.86527
0
LINE
8
BLACK
6
CONTINUOUS
10
5.568
20
-3.86527
11
5.56629
21
-3.86272
0
LINE
8
BLACK
6
CONTINUOUS
10
5.56629
20
-3.86272
11
5.56569
21
-3.8597
0
LINE
8
BLACK
6
CONTINUOUS
10
5.56569
20
-3.8597
11
5.56569
21
-3.84396
0
LINE
8
BLACK
6
CONTINUOUS
10
5.56569
20
-3.84396
11
5.56629
21
-3.84094
0
LINE
8
BLACK
6
CONTINUOUS
10
5.56629
20
-3.84094
11
5.568
21
-3.83839
0
LINE
8
BLACK
6
CONTINUOUS
10
5.568
20
-3.83839
11
5.57055
21
-3.83668
0
LINE
8
BLACK
6
CONTINUOUS
10
5.57055
20
-3.83668
11
5.57356
21
-3.83608
0
LINE
8
BLACK
6
CONTINUOUS
10
5.57356
20
-3.83608
11
5.62868
21
-3.83608
0
LINE
8
BLACK
6
CONTINUOUS
10
5.62868
20
-3.83608
11
5.63169
21
-3.83668
0
LINE
8
BLACK
6
CONTINUOUS
10
6.73656
20
-3.79945
11
6.69915
21
-3.79945
0
LINE
8
BLACK
6
CONTINUOUS
10
6.69915
20
-3.79945
11
6.69915
21
-3.74039
0
LINE
8
BLACK
6
CONTINUOUS
10
6.69915
20
-3.74039
11
6.73656
21
-3.74039
0
LINE
8
BLACK
6
CONTINUOUS
10
6.73656
20
-3.74039
11
6.73656
21
-3.79945
0
LINE
8
BLACK
6
CONTINUOUS
10
6.57317
20
-3.79945
11
6.53577
21
-3.79945
0
LINE
8
BLACK
6
CONTINUOUS
10
6.53577
20
-3.79945
11
6.53577
21
-3.74039
0
LINE
8
BLACK
6
CONTINUOUS
10
6.53577
20
-3.74039
11
6.57317
21
-3.74039
0
LINE
8
BLACK
6
CONTINUOUS
10
6.57317
20
-3.74039
11
6.57317
21
-3.79945
0
LINE
8
BLACK
6
CONTINUOUS
10
6.5124
20
-3.79742
11
6.4774
21
-3.79742
0
LINE
8
BLACK
6
CONTINUOUS
10
6.4774
20
-3.79742
11
6.4774
21
-3.74242
0
LINE
8
BLACK
6
CONTINUOUS
10
6.4774
20
-3.74242
11
6.5124
21
-3.74242
0
LINE
8
BLACK
6
CONTINUOUS
10
6.5124
20
-3.74242
11
6.5124
21
-3.79742
0
LINE
8
BLACK
6
CONTINUOUS
10
6.4374
20
-3.79742
11
6.4024
21
-3.79742
0
LINE
8
BLACK
6
CONTINUOUS
10
6.4024
20
-3.79742
11
6.4024
21
-3.74242
0
LINE
8
BLACK
6
CONTINUOUS
10
6.4024
20
-3.74242
11
6.4374
21
-3.74242
0
LINE
8
BLACK
6
CONTINUOUS
10
6.4374
20
-3.74242
11
6.4374
21
-3.79742
0
LINE
8
BLACK
6
CONTINUOUS
10
5.06904
20
-3.76945
11
5.03163
21
-3.76945
0
LINE
8
BLACK
6
CONTINUOUS
10
5.03163
20
-3.76945
11
5.03163
21
-3.71039
0
LINE
8
BLACK
6
CONTINUOUS
10
5.03163
20
-3.71039
11
5.06904
21
-3.71039
0
LINE
8
BLACK
6
CONTINUOUS
10
5.06904
20
-3.71039
11
5.06904
21
-3.76945
0
LINE
8
BLACK
6
CONTINUOUS
10
4.90565
20
-3.76945
11
4.86825
21
-3.76945
0
LINE
8
BLACK
6
CONTINUOUS
10
4.86825
20
-3.76945
11
4.86825
21
-3.71039
0
LINE
8
BLACK
6
CONTINUOUS
10
4.86825
20
-3.71039
11
4.90565
21
-3.71039
0
LINE
8
BLACK
6
CONTINUOUS
10
4.90565
20
-3.71039
11
4.90565
21
-3.76945
0
LINE
8
BLACK
6
CONTINUOUS
10
5.1424
20
-3.76742
11
5.1074
21
-3.76742
0
LINE
8
BLACK
6
CONTINUOUS
10
5.1074
20
-3.76742
11
5.1074
21
-3.71242
0
LINE
8
BLACK
6
CONTINUOUS
10
5.1074
20
-3.71242
11
5.1424
21
-3.71242
0
LINE
8
BLACK
6
CONTINUOUS
10
5.1424
20
-3.71242
11
5.1424
21
-3.76742
0
LINE
8
BLACK
6
CONTINUOUS
10
5.2174
20
-3.76742
11
5.1824
21
-3.76742
0
LINE
8
BLACK
6
CONTINUOUS
10
5.1824
20
-3.76742
11
5.1824
21
-3.71242
0
LINE
8
BLACK
6
CONTINUOUS
10
5.1824
20
-3.71242
11
5.2174
21
-3.71242
0
LINE
8
BLACK
6
CONTINUOUS
10
5.2174
20
-3.71242
11
5.2174
21
-3.76742
0
LINE
8
BLACK
6
CONTINUOUS
10
5.8624
20
-3.76242
11
5.8074
21
-3.76242
0
LINE
8
BLACK
6
CONTINUOUS
10
5.8074
20
-3.76242
11
5.8074
21
-3.72742
0
LINE
8
BLACK
6
CONTINUOUS
10
5.8074
20
-3.72742
11
5.8624
21
-3.72742
0
LINE
8
BLACK
6
CONTINUOUS
10
5.8624
20
-3.72742
11
5.8624
21
-3.76242
0
LINE
8
BLACK
6
CONTINUOUS
10
5.7724
20
-3.75742
11
5.7174
21
-3.75742
0
LINE
8
BLACK
6
CONTINUOUS
10
5.7174
20
-3.75742
11
5.7174
21
-3.72242
0
LINE
8
BLACK
6
CONTINUOUS
10
5.7174
20
-3.72242
11
5.7724
21
-3.72242
0
LINE
8
BLACK
6
CONTINUOUS
10
5.7724
20
-3.72242
11
5.7724
21
-3.75742
0
LINE
8
BLACK
6
CONTINUOUS
10
5.6724
20
-3.69242
11
5.6374
21
-3.69242
0
LINE
8
BLACK
6
CONTINUOUS
10
5.6374
20
-3.69242
11
5.6374
21
-3.63742
0
LINE
8
BLACK
6
CONTINUOUS
10
5.6374
20
-3.63742
11
5.6724
21
-3.63742
0
LINE
8
BLACK
6
CONTINUOUS
10
5.6724
20
-3.63742
11
5.6724
21
-3.69242
0
LINE
8
BLACK
6
CONTINUOUS
10
5.5974
20
-3.69242
11
5.5624
21
-3.69242
0
LINE
8
BLACK
6
CONTINUOUS
10
5.5624
20
-3.69242
11
5.5624
21
-3.63742
0
LINE
8
BLACK
6
CONTINUOUS
10
5.5624
20
-3.63742
11
5.5974
21
-3.63742
0
LINE
8
BLACK
6
CONTINUOUS
10
5.5974
20
-3.63742
11
5.5974
21
-3.69242
0
LINE
8
BLACK
6
CONTINUOUS
10
5.8624
20
-3.68742
11
5.8074
21
-3.68742
0
LINE
8
BLACK
6
CONTINUOUS
10
5.8074
20
-3.68742
11
5.8074
21
-3.65242
0
LINE
8
BLACK
6
CONTINUOUS
10
5.8074
20
-3.65242
11
5.8624
21
-3.65242
0
LINE
8
BLACK
6
CONTINUOUS
10
5.8624
20
-3.65242
11
5.8624
21
-3.68742
0
LINE
8
BLACK
6
CONTINUOUS
10
5.7724
20
-3.68242
11
5.7174
21
-3.68242
0
LINE
8
BLACK
6
CONTINUOUS
10
5.7174
20
-3.68242
11
5.7174
21
-3.64742
0
LINE
8
BLACK
6
CONTINUOUS
10
5.7174
20
-3.64742
11
5.7724
21
-3.64742
0
LINE
8
BLACK
6
CONTINUOUS
10
5.7724
20
-3.64742
11
5.7724
21
-3.68242
0
LINE
8
BLACK
6
CONTINUOUS
10
5.2649
20
-3.67742
11
5.2099
21
-3.67742
0
LINE
8
BLACK
6
CONTINUOUS
10
5.2099
20
-3.67742
11
5.2099
21
-3.64242
0
LINE
8
BLACK
6
CONTINUOUS
10
5.2099
20
-3.64242
11
5.2649
21
-3.64242
0
LINE
8
BLACK
6
CONTINUOUS
10
5.2649
20
-3.64242
11
5.2649
21
-3.67742
0
LINE
8
BLACK
6
CONTINUOUS
10
6.57317
20
-3.66445
11
6.53577
21
-3.66445
0
LINE
8
BLACK
6
CONTINUOUS
10
6.53577
20
-3.66445
11
6.53577
21
-3.60539
0
LINE
8
BLACK
6
CONTINUOUS
10
6.53577
20
-3.60539
11
6.57317
21
-3.60539
0
LINE
8
BLACK
6
CONTINUOUS
10
6.57317
20
-3.60539
11
6.57317
21
-3.66445
0
LINE
8
BLACK
6
CONTINUOUS
10
6.73656
20
-3.66445
11
6.69915
21
-3.66445
0
LINE
8
BLACK
6
CONTINUOUS
10
6.69915
20
-3.66445
11
6.69915
21
-3.60539
0
LINE
8
BLACK
6
CONTINUOUS
10
6.69915
20
-3.60539
11
6.73656
21
-3.60539
0
LINE
8
BLACK
6
CONTINUOUS
10
6.73656
20
-3.60539
11
6.73656
21
-3.66445
0
LINE
8
BLACK
6
CONTINUOUS
10
6.4374
20
-3.66242
11
6.4024
21
-3.66242
0
LINE
8
BLACK
6
CONTINUOUS
10
6.4024
20
-3.66242
11
6.4024
21
-3.60742
0
LINE
8
BLACK
6
CONTINUOUS
10
6.4024
20
-3.60742
11
6.4374
21
-3.60742
0
LINE
8
BLACK
6
CONTINUOUS
10
6.4374
20
-3.60742
11
6.4374
21
-3.66242
0
LINE
8
BLACK
6
CONTINUOUS
10
6.5124
20
-3.66242
11
6.4774
21
-3.66242
0
LINE
8
BLACK
6
CONTINUOUS
10
6.4774
20
-3.66242
11
6.4774
21
-3.60742
0
LINE
8
BLACK
6
CONTINUOUS
10
6.4774
20
-3.60742
11
6.5124
21
-3.60742
0
LINE
8
BLACK
6
CONTINUOUS
10
6.5124
20
-3.60742
11
6.5124
21
-3.66242
0
LINE
8
BLACK
6
CONTINUOUS
10
5.48907
20
-3.61772
11
5.44734
21
-3.61772
0
LINE
8
BLACK
6
CONTINUOUS
10
5.44734
20
-3.61772
11
5.44734
21
-3.59213
0
LINE
8
BLACK
6
CONTINUOUS
10
5.44734
20
-3.59213
11
5.48907
21
-3.59213
0
LINE
8
BLACK
6
CONTINUOUS
10
5.48907
20
-3.59213
11
5.48907
21
-3.61772
0
LINE
8
BLACK
6
CONTINUOUS
10
5.40246
20
-3.61772
11
5.36073
21
-3.61772
0
LINE
8
BLACK
6
CONTINUOUS
10
5.36073
20
-3.61772
11
5.36073
21
-3.59213
0
LINE
8
BLACK
6
CONTINUOUS
10
5.36073
20
-3.59213
11
5.40246
21
-3.59213
0
LINE
8
BLACK
6
CONTINUOUS
10
5.40246
20
-3.59213
11
5.40246
21
-3.61772
0
LINE
8
BLACK
6
CONTINUOUS
10
5.12474
20
-3.60272
11
5.07947
21
-3.60272
0
LINE
8
BLACK
6
CONTINUOUS
10
5.07947
20
-3.60272
11
5.07947
21
-3.57909
0
LINE
8
BLACK
6
CONTINUOUS
10
5.07947
20
-3.57909
11
5.12474
21
-3.57909
0
LINE
8
BLACK
6
CONTINUOUS
10
5.12474
20
-3.57909
11
5.12474
21
-3.60272
0
LINE
8
BLACK
6
CONTINUOUS
10
5.2649
20
-3.60242
11
5.2099
21
-3.60242
0
LINE
8
BLACK
6
CONTINUOUS
10
5.2099
20
-3.60242
11
5.2099
21
-3.56742
0
LINE
8
BLACK
6
CONTINUOUS
10
5.2099
20
-3.56742
11
5.2649
21
-3.56742
0
LINE
8
BLACK
6
CONTINUOUS
10
5.2649
20
-3.56742
11
5.2649
21
-3.60242
0
LINE
8
BLACK
6
CONTINUOUS
10
5.6474
20
-3.59742
11
5.6124
21
-3.59742
0
LINE
8
BLACK
6
CONTINUOUS
10
5.6124
20
-3.59742
11
5.6124
21
-3.54242
0
LINE
8
BLACK
6
CONTINUOUS
10
5.6124
20
-3.54242
11
5.6474
21
-3.54242
0
LINE
8
BLACK
6
CONTINUOUS
10
5.6474
20
-3.54242
11
5.6474
21
-3.59742
0
LINE
8
BLACK
6
CONTINUOUS
10
5.7224
20
-3.59742
11
5.6874
21
-3.59742
0
LINE
8
BLACK
6
CONTINUOUS
10
5.6874
20
-3.59742
11
5.6874
21
-3.54242
0
LINE
8
BLACK
6
CONTINUOUS
10
5.6874
20
-3.54242
11
5.7224
21
-3.54242
0
LINE
8
BLACK
6
CONTINUOUS
10
5.7224
20
-3.54242
11
5.7224
21
-3.59742
0
LINE
8
BLACK
6
CONTINUOUS
10
5.40246
20
-3.58031
11
5.36073
21
-3.58031
0
LINE
8
BLACK
6
CONTINUOUS
10
5.36073
20
-3.58031
11
5.36073
21
-3.55472
0
LINE
8
BLACK
6
CONTINUOUS
10
5.36073
20
-3.55472
11
5.40246
21
-3.55472
0
LINE
8
BLACK
6
CONTINUOUS
10
5.40246
20
-3.55472
11
5.40246
21
-3.58031
0
LINE
8
BLACK
6
CONTINUOUS
10
5.48907
20
-3.58031
11
5.44734
21
-3.58031
0
LINE
8
BLACK
6
CONTINUOUS
10
5.44734
20
-3.58031
11
5.44734
21
-3.55472
0
LINE
8
BLACK
6
CONTINUOUS
10
5.44734
20
-3.55472
11
5.48907
21
-3.55472
0
LINE
8
BLACK
6
CONTINUOUS
10
5.48907
20
-3.55472
11
5.48907
21
-3.58031
0
LINE
8
BLACK
6
CONTINUOUS
10
5.12474
20
-3.57122
11
5.07947
21
-3.57122
0
LINE
8
BLACK
6
CONTINUOUS
10
5.07947
20
-3.57122
11
5.07947
21
-3.5476
0
LINE
8
BLACK
6
CONTINUOUS
10
5.07947
20
-3.5476
11
5.12474
21
-3.5476
0
LINE
8
BLACK
6
CONTINUOUS
10
5.12474
20
-3.5476
11
5.12474
21
-3.57122
0
LINE
8
BLACK
6
CONTINUOUS
10
6.35615
20
-3.44646
11
6.35934
21
-3.44859
0
LINE
8
BLACK
6
CONTINUOUS
10
6.35934
20
-3.44859
11
6.36148
21
-3.45178
0
LINE
8
BLACK
6
CONTINUOUS
10
6.36148
20
-3.45178
11
6.36222
21
-3.45555
0
LINE
8
BLACK
6
CONTINUOUS
10
6.36222
20
-3.45555
11
6.36222
21
-3.53429
0
LINE
8
BLACK
6
CONTINUOUS
10
6.36222
20
-3.53429
11
6.36148
21
-3.53806
0
LINE
8
BLACK
6
CONTINUOUS
10
6.36148
20
-3.53806
11
6.35934
21
-3.54125
0
LINE
8
BLACK
6
CONTINUOUS
10
6.35934
20
-3.54125
11
6.35615
21
-3.54338
0
LINE
8
BLACK
6
CONTINUOUS
10
6.35615
20
-3.54338
11
6.35238
21
-3.54413
0
LINE
8
BLACK
6
CONTINUOUS
10
6.35238
20
-3.54413
11
6.19884
21
-3.54413
0
LINE
8
BLACK
6
CONTINUOUS
10
6.19884
20
-3.54413
11
6.19507
21
-3.54338
0
LINE
8
BLACK
6
CONTINUOUS
10
6.19507
20
-3.54338
11
6.19188
21
-3.54125
0
LINE
8
BLACK
6
CONTINUOUS
10
6.19188
20
-3.54125
11
6.18975
21
-3.53806
0
LINE
8
BLACK
6
CONTINUOUS
10
6.18975
20
-3.53806
11
6.189
21
-3.53429
0
LINE
8
BLACK
6
CONTINUOUS
10
6.189
20
-3.53429
11
6.189
21
-3.45555
0
LINE
8
BLACK
6
CONTINUOUS
10
6.189
20
-3.45555
11
6.18975
21
-3.45178
0
LINE
8
BLACK
6
CONTINUOUS
10
6.18975
20
-3.45178
11
6.19188
21
-3.44859
0
LINE
8
BLACK
6
CONTINUOUS
10
6.19188
20
-3.44859
11
6.19507
21
-3.44646
0
LINE
8
BLACK
6
CONTINUOUS
10
6.19507
20
-3.44646
11
6.19884
21
-3.44571
0
LINE
8
BLACK
6
CONTINUOUS
10
6.19884
20
-3.44571
11
6.35238
21
-3.44571
0
LINE
8
BLACK
6
CONTINUOUS
10
6.35238
20
-3.44571
11
6.35615
21
-3.44646
0
LINE
8
BLACK
6
CONTINUOUS
10
6.02544
20
-3.44646
11
6.02863
21
-3.44859
0
LINE
8
BLACK
6
CONTINUOUS
10
6.02863
20
-3.44859
11
6.03077
21
-3.45178
0
LINE
8
BLACK
6
CONTINUOUS
10
6.03077
20
-3.45178
11
6.03152
21
-3.45555
0
LINE
8
BLACK
6
CONTINUOUS
10
6.03152
20
-3.45555
11
6.03152
21
-3.53429
0
LINE
8
BLACK
6
CONTINUOUS
10
6.03152
20
-3.53429
11
6.03077
21
-3.53806
0
LINE
8
BLACK
6
CONTINUOUS
10
6.03077
20
-3.53806
11
6.02863
21
-3.54125
0
LINE
8
BLACK
6
CONTINUOUS
10
6.02863
20
-3.54125
11
6.02544
21
-3.54338
0
LINE
8
BLACK
6
CONTINUOUS
10
6.02544
20
-3.54338
11
6.02167
21
-3.54413
0
LINE
8
BLACK
6
CONTINUOUS
10
6.02167
20
-3.54413
11
5.86813
21
-3.54413
0
LINE
8
BLACK
6
CONTINUOUS
10
5.86813
20
-3.54413
11
5.86436
21
-3.54338
0
LINE
8
BLACK
6
CONTINUOUS
10
5.86436
20
-3.54338
11
5.86117
21
-3.54125
0
LINE
8
BLACK
6
CONTINUOUS
10
5.86117
20
-3.54125
11
5.85904
21
-3.53806
0
LINE
8
BLACK
6
CONTINUOUS
10
5.85904
20
-3.53806
11
5.85829
21
-3.53429
0
LINE
8
BLACK
6
CONTINUOUS
10
5.85829
20
-3.53429
11
5.85829
21
-3.45555
0
LINE
8
BLACK
6
CONTINUOUS
10
5.85829
20
-3.45555
11
5.85904
21
-3.45178
0
LINE
8
BLACK
6
CONTINUOUS
10
5.85904
20
-3.45178
11
5.86117
21
-3.44859
0
LINE
8
BLACK
6
CONTINUOUS
10
5.86117
20
-3.44859
11
5.86436
21
-3.44646
0
LINE
8
BLACK
6
CONTINUOUS
10
5.86436
20
-3.44646
11
5.86813
21
-3.44571
0
LINE
8
BLACK
6
CONTINUOUS
10
5.86813
20
-3.44571
11
6.02167
21
-3.44571
0
LINE
8
BLACK
6
CONTINUOUS
10
6.02167
20
-3.44571
11
6.02544
21
-3.44646
0
LINE
8
BLACK
6
CONTINUOUS
10
5.48907
20
-3.54291
11
5.44734
21
-3.54291
0
LINE
8
BLACK
6
CONTINUOUS
10
5.44734
20
-3.54291
11
5.44734
21
-3.51732
0
LINE
8
BLACK
6
CONTINUOUS
10
5.44734
20
-3.51732
11
5.48907
21
-3.51732
0
LINE
8
BLACK
6
CONTINUOUS
10
5.48907
20
-3.51732
11
5.48907
21
-3.54291
0
LINE
8
BLACK
6
CONTINUOUS
10
5.40246
20
-3.54291
11
5.36073
21
-3.54291
0
LINE
8
BLACK
6
CONTINUOUS
10
5.36073
20
-3.54291
11
5.36073
21
-3.51732
0
LINE
8
BLACK
6
CONTINUOUS
10
5.36073
20
-3.51732
11
5.40246
21
-3.51732
0
LINE
8
BLACK
6
CONTINUOUS
10
5.40246
20
-3.51732
11
5.40246
21
-3.54291
0
LINE
8
BLACK
6
CONTINUOUS
10
5.12474
20
-3.53972
11
5.07947
21
-3.53972
0
LINE
8
BLACK
6
CONTINUOUS
10
5.07947
20
-3.53972
11
5.07947
21
-3.52791
0
LINE
8
BLACK
6
CONTINUOUS
10
5.07947
20
-3.52791
11
5.12474
21
-3.52791
0
LINE
8
BLACK
6
CONTINUOUS
10
5.12474
20
-3.52791
11
5.12474
21
-3.53972
0
LINE
8
BLACK
6
CONTINUOUS
10
6.73656
20
-3.52945
11
6.69915
21
-3.52945
0
LINE
8
BLACK
6
CONTINUOUS
10
6.69915
20
-3.52945
11
6.69915
21
-3.47039
0
LINE
8
BLACK
6
CONTINUOUS
10
6.69915
20
-3.47039
11
6.73656
21
-3.47039
0
LINE
8
BLACK
6
CONTINUOUS
10
6.73656
20
-3.47039
11
6.73656
21
-3.52945
0
LINE
8
BLACK
6
CONTINUOUS
10
6.57317
20
-3.52945
11
6.53577
21
-3.52945
0
LINE
8
BLACK
6
CONTINUOUS
10
6.53577
20
-3.52945
11
6.53577
21
-3.47039
0
LINE
8
BLACK
6
CONTINUOUS
10
6.53577
20
-3.47039
11
6.57317
21
-3.47039
0
LINE
8
BLACK
6
CONTINUOUS
10
6.57317
20
-3.47039
11
6.57317
21
-3.52945
0
LINE
8
BLACK
6
CONTINUOUS
10
6.5074
20
-3.52742
11
6.4724
21
-3.52742
0
LINE
8
BLACK
6
CONTINUOUS
10
6.4724
20
-3.52742
11
6.4724
21
-3.47242
0
LINE
8
BLACK
6
CONTINUOUS
10
6.4724
20
-3.47242
11
6.5074
21
-3.47242
0
LINE
8
BLACK
6
CONTINUOUS
10
6.5074
20
-3.47242
11
6.5074
21
-3.52742
0
LINE
8
BLACK
6
CONTINUOUS
10
6.4324
20
-3.52742
11
6.3974
21
-3.52742
0
LINE
8
BLACK
6
CONTINUOUS
10
6.3974
20
-3.52742
11
6.3974
21
-3.47242
0
LINE
8
BLACK
6
CONTINUOUS
10
6.3974
20
-3.47242
11
6.4324
21
-3.47242
0
LINE
8
BLACK
6
CONTINUOUS
10
6.4324
20
-3.47242
11
6.4324
21
-3.52742
0
LINE
8
BLACK
6
CONTINUOUS
10
5.12474
20
-3.52004
11
5.07947
21
-3.52004
0
LINE
8
BLACK
6
CONTINUOUS
10
5.07947
20
-3.52004
11
5.07947
21
-3.50823
0
LINE
8
BLACK
6
CONTINUOUS
10
5.07947
20
-3.50823
11
5.12474
21
-3.50823
0
LINE
8
BLACK
6
CONTINUOUS
10
5.12474
20
-3.50823
11
5.12474
21
-3.52004
0
LINE
8
BLACK
6
CONTINUOUS
10
5.12474
20
-3.50035
11
5.07947
21
-3.50035
0
LINE
8
BLACK
6
CONTINUOUS
10
5.07947
20
-3.50035
11
5.07947
21
-3.48854
0
LINE
8
BLACK
6
CONTINUOUS
10
5.07947
20
-3.48854
11
5.12474
21
-3.48854
0
LINE
8
BLACK
6
CONTINUOUS
10
5.12474
20
-3.48854
11
5.12474
21
-3.50035
0
LINE
8
BLACK
6
CONTINUOUS
10
5.74738
20
-3.49252
11
5.70565
21
-3.49252
0
LINE
8
BLACK
6
CONTINUOUS
10
5.70565
20
-3.49252
11
5.70565
21
-3.46693
0
LINE
8
BLACK
6
CONTINUOUS
10
5.70565
20
-3.46693
11
5.74738
21
-3.46693
0
LINE
8
BLACK
6
CONTINUOUS
10
5.74738
20
-3.46693
11
5.74738
21
-3.49252
0
LINE
8
BLACK
6
CONTINUOUS
10
5.66077
20
-3.49252
11
5.61904
21
-3.49252
0
LINE
8
BLACK
6
CONTINUOUS
10
5.61904
20
-3.49252
11
5.61904
21
-3.46693
0
LINE
8
BLACK
6
CONTINUOUS
10
5.61904
20
-3.46693
11
5.66077
21
-3.46693
0
LINE
8
BLACK
6
CONTINUOUS
10
5.66077
20
-3.46693
11
5.66077
21
-3.49252
0
LINE
8
BLACK
6
CONTINUOUS
10
5.5824
20
-3.49242
11
5.5274
21
-3.49242
0
LINE
8
BLACK
6
CONTINUOUS
10
5.5274
20
-3.49242
11
5.5274
21
-3.45742
0
LINE
8
BLACK
6
CONTINUOUS
10
5.5274
20
-3.45742
11
5.5824
21
-3.45742
0
LINE
8
BLACK
6
CONTINUOUS
10
5.5824
20
-3.45742
11
5.5824
21
-3.49242
0
LINE
8
BLACK
6
CONTINUOUS
10
5.12474
20
-3.48067
11
5.07947
21
-3.48067
0
LINE
8
BLACK
6
CONTINUOUS
10
5.07947
20
-3.48067
11
5.07947
21
-3.46886
0
LINE
8
BLACK
6
CONTINUOUS
10
5.07947
20
-3.46886
11
5.12474
21
-3.46886
0
LINE
8
BLACK
6
CONTINUOUS
10
5.12474
20
-3.46886
11
5.12474
21
-3.48067
0
LINE
8
BLACK
6
CONTINUOUS
10
5.48343
20
-3.35851
11
5.48663
21
-3.36064
0
LINE
8
BLACK
6
CONTINUOUS
10
5.48663
20
-3.36064
11
5.48876
21
-3.36383
0
LINE
8
BLACK
6
CONTINUOUS
10
5.48876
20
-3.36383
11
5.48951
21
-3.3676
0
LINE
8
BLACK
6
CONTINUOUS
10
5.48951
20
-3.3676
11
5.48951
21
-3.45224
0
LINE
8
BLACK
6
CONTINUOUS
10
5.48951
20
-3.45224
11
5.48876
21
-3.45601
0
LINE
8
BLACK
6
CONTINUOUS
10
5.48876
20
-3.45601
11
5.48663
21
-3.4592
0
LINE
8
BLACK
6
CONTINUOUS
10
5.48663
20
-3.4592
11
5.48343
21
-3.46134
0
LINE
8
BLACK
6
CONTINUOUS
10
5.48343
20
-3.46134
11
5.47967
21
-3.46209
0
LINE
8
BLACK
6
CONTINUOUS
10
5.47967
20
-3.46209
11
5.45014
21
-3.46209
0
LINE
8
BLACK
6
CONTINUOUS
10
5.45014
20
-3.46209
11
5.44637
21
-3.46134
0
LINE
8
BLACK
6
CONTINUOUS
10
5.44637
20
-3.46134
11
5.44318
21
-3.4592
0
LINE
8
BLACK
6
CONTINUOUS
10
5.44318
20
-3.4592
11
5.44104
21
-3.45601
0
LINE
8
BLACK
6
CONTINUOUS
10
5.44104
20
-3.45601
11
5.4403
21
-3.45224
0
LINE
8
BLACK
6
CONTINUOUS
10
5.4403
20
-3.45224
11
5.4403
21
-3.3676
0
LINE
8
BLACK
6
CONTINUOUS
10
5.4403
20
-3.3676
11
5.44104
21
-3.36383
0
LINE
8
BLACK
6
CONTINUOUS
10
5.44104
20
-3.36383
11
5.44318
21
-3.36064
0
LINE
8
BLACK
6
CONTINUOUS
10
5.44318
20
-3.36064
11
5.44637
21
-3.35851
0
LINE
8
BLACK
6
CONTINUOUS
10
5.44637
20
-3.35851
11
5.45014
21
-3.35776
0
LINE
8
BLACK
6
CONTINUOUS
10
5.45014
20
-3.35776
11
5.47967
21
-3.35776
0
LINE
8
BLACK
6
CONTINUOUS
10
5.47967
20
-3.35776
11
5.48343
21
-3.35851
0
LINE
8
BLACK
6
CONTINUOUS
10
5.3732
20
-3.35851
11
5.37639
21
-3.36064
0
LINE
8
BLACK
6
CONTINUOUS
10
5.37639
20
-3.36064
11
5.37852
21
-3.36383
0
LINE
8
BLACK
6
CONTINUOUS
10
5.37852
20
-3.36383
11
5.37927
21
-3.3676
0
LINE
8
BLACK
6
CONTINUOUS
10
5.37927
20
-3.3676
11
5.37927
21
-3.45224
0
LINE
8
BLACK
6
CONTINUOUS
10
5.37927
20
-3.45224
11
5.37852
21
-3.45601
0
LINE
8
BLACK
6
CONTINUOUS
10
5.37852
20
-3.45601
11
5.37639
21
-3.4592
0
LINE
8
BLACK
6
CONTINUOUS
10
5.37639
20
-3.4592
11
5.3732
21
-3.46134
0
LINE
8
BLACK
6
CONTINUOUS
10
5.3732
20
-3.46134
11
5.36943
21
-3.46209
0
LINE
8
BLACK
6
CONTINUOUS
10
5.36943
20
-3.46209
11
5.3399
21
-3.46209
0
LINE
8
BLACK
6
CONTINUOUS
10
5.3399
20
-3.46209
11
5.33613
21
-3.46134
0
LINE
8
BLACK
6
CONTINUOUS
10
5.33613
20
-3.46134
11
5.33294
21
-3.4592
0
LINE
8
BLACK
6
CONTINUOUS
10
5.33294
20
-3.4592
11
5.33081
21
-3.45601
0
LINE
8
BLACK
6
CONTINUOUS
10
5.33081
20
-3.45601
11
5.33006
21
-3.45224
0
LINE
8
BLACK
6
CONTINUOUS
10
5.33006
20
-3.45224
11
5.33006
21
-3.3676
0
LINE
8
BLACK
6
CONTINUOUS
10
5.33006
20
-3.3676
11
5.33081
21
-3.36383
0
LINE
8
BLACK
6
CONTINUOUS
10
5.33081
20
-3.36383
11
5.33294
21
-3.36064
0
LINE
8
BLACK
6
CONTINUOUS
10
5.33294
20
-3.36064
11
5.33613
21
-3.35851
0
LINE
8
BLACK
6
CONTINUOUS
10
5.33613
20
-3.35851
11
5.3399
21
-3.35776
0
LINE
8
BLACK
6
CONTINUOUS
10
5.3399
20
-3.35776
11
5.36943
21
-3.35776
0
LINE
8
BLACK
6
CONTINUOUS
10
5.36943
20
-3.35776
11
5.3732
21
-3.35851
0
LINE
8
BLACK
6
CONTINUOUS
10
5.12474
20
-3.46098
11
5.07947
21
-3.46098
0
LINE
8
BLACK
6
CONTINUOUS
10
5.07947
20
-3.46098
11
5.07947
21
-3.44917
0
LINE
8
BLACK
6
CONTINUOUS
10
5.07947
20
-3.44917
11
5.12474
21
-3.44917
0
LINE
8
BLACK
6
CONTINUOUS
10
5.12474
20
-3.44917
11
5.12474
21
-3.46098
0
LINE
8
BLACK
6
CONTINUOUS
10
5.66077
20
-3.45512
11
5.61904
21
-3.45512
0
LINE
8
BLACK
6
CONTINUOUS
10
5.61904
20
-3.45512
11
5.61904
21
-3.42953
0
LINE
8
BLACK
6
CONTINUOUS
10
5.61904
20
-3.42953
11
5.66077
21
-3.42953
0
LINE
8
BLACK
6
CONTINUOUS
10
5.66077
20
-3.42953
11
5.66077
21
-3.45512
0
LINE
8
BLACK
6
CONTINUOUS
10
6.47065
20
-3.44701
11
6.43915
21
-3.44701
0
LINE
8
BLACK
6
CONTINUOUS
10
6.43915
20
-3.44701
11
6.43915
21
-3.41157
0
LINE
8
BLACK
6
CONTINUOUS
10
6.43915
20
-3.41157
11
6.47065
21
-3.41157
0
LINE
8
BLACK
6
CONTINUOUS
10
6.47065
20
-3.41157
11
6.47065
21
-3.44701
0
LINE
8
BLACK
6
CONTINUOUS
10
5.12474
20
-3.4413
11
5.07947
21
-3.4413
0
LINE
8
BLACK
6
CONTINUOUS
10
5.07947
20
-3.4413
11
5.07947
21
-3.42949
0
LINE
8
BLACK
6
CONTINUOUS
10
5.07947
20
-3.42949
11
5.12474
21
-3.42949
0
LINE
8
BLACK
6
CONTINUOUS
10
5.12474
20
-3.42949
11
5.12474
21
-3.4413
0
LINE
8
BLACK
6
CONTINUOUS
10
5.2824
20
-3.42242
11
5.2274
21
-3.42242
0
LINE
8
BLACK
6
CONTINUOUS
10
5.2274
20
-3.42242
11
5.2274
21
-3.38742
0
LINE
8
BLACK
6
CONTINUOUS
10
5.2274
20
-3.38742
11
5.2824
21
-3.38742
0
LINE
8
BLACK
6
CONTINUOUS
10
5.2824
20
-3.38742
11
5.2824
21
-3.42242
0
LINE
8
BLACK
6
CONTINUOUS
10
5.12474
20
-3.42161
11
5.07947
21
-3.42161
0
LINE
8
BLACK
6
CONTINUOUS
10
5.07947
20
-3.42161
11
5.07947
21
-3.4098
0
LINE
8
BLACK
6
CONTINUOUS
10
5.07947
20
-3.4098
11
5.12474
21
-3.4098
0
LINE
8
BLACK
6
CONTINUOUS
10
5.12474
20
-3.4098
11
5.12474
21
-3.42161
0
LINE
8
BLACK
6
CONTINUOUS
10
5.74738
20
-3.41772
11
5.70565
21
-3.41772
0
LINE
8
BLACK
6
CONTINUOUS
10
5.70565
20
-3.41772
11
5.70565
21
-3.39213
0
LINE
8
BLACK
6
CONTINUOUS
10
5.70565
20
-3.39213
11
5.74738
21
-3.39213
0
LINE
8
BLACK
6
CONTINUOUS
10
5.74738
20
-3.39213
11
5.74738
21
-3.41772
0
LINE
8
BLACK
6
CONTINUOUS
10
5.66077
20
-3.41772
11
5.61904
21
-3.41772
0
LINE
8
BLACK
6
CONTINUOUS
10
5.61904
20
-3.41772
11
5.61904
21
-3.39213
0
LINE
8
BLACK
6
CONTINUOUS
10
5.61904
20
-3.39213
11
5.66077
21
-3.39213
0
LINE
8
BLACK
6
CONTINUOUS
10
5.66077
20
-3.39213
11
5.66077
21
-3.41772
0
LINE
8
BLACK
6
CONTINUOUS
10
5.5824
20
-3.41742
11
5.5274
21
-3.41742
0
LINE
8
BLACK
6
CONTINUOUS
10
5.5274
20
-3.41742
11
5.5274
21
-3.38242
0
LINE
8
BLACK
6
CONTINUOUS
10
5.5274
20
-3.38242
11
5.5824
21
-3.38242
0
LINE
8
BLACK
6
CONTINUOUS
10
5.5824
20
-3.38242
11
5.5824
21
-3.41742
0
LINE
8
BLACK
6
CONTINUOUS
10
5.86337
20
-3.41051
11
5.79644
21
-3.41051
0
LINE
8
BLACK
6
CONTINUOUS
10
5.79644
20
-3.41051
11
5.79644
21
-3.35933
0
LINE
8
BLACK
6
CONTINUOUS
10
5.79644
20
-3.35933
11
5.86337
21
-3.35933
0
LINE
8
BLACK
6
CONTINUOUS
10
5.86337
20
-3.35933
11
5.86337
21
-3.41051
0
LINE
8
BLACK
6
CONTINUOUS
10
5.12474
20
-3.40193
11
5.07947
21
-3.40193
0
LINE
8
BLACK
6
CONTINUOUS
10
5.07947
20
-3.40193
11
5.07947
21
-3.39012
0
LINE
8
BLACK
6
CONTINUOUS
10
5.07947
20
-3.39012
11
5.12474
21
-3.39012
0
LINE
8
BLACK
6
CONTINUOUS
10
5.12474
20
-3.39012
11
5.12474
21
-3.40193
0
LINE
8
BLACK
6
CONTINUOUS
10
6.57317
20
-3.3926
11
6.53577
21
-3.3926
0
LINE
8
BLACK
6
CONTINUOUS
10
6.53577
20
-3.3926
11
6.53577
21
-3.33354
0
LINE
8
BLACK
6
CONTINUOUS
10
6.53577
20
-3.33354
11
6.57317
21
-3.33354
0
LINE
8
BLACK
6
CONTINUOUS
10
6.57317
20
-3.33354
11
6.57317
21
-3.3926
0
LINE
8
BLACK
6
CONTINUOUS
10
6.73656
20
-3.3926
11
6.69915
21
-3.3926
0
LINE
8
BLACK
6
CONTINUOUS
10
6.69915
20
-3.3926
11
6.69915
21
-3.33354
0
LINE
8
BLACK
6
CONTINUOUS
10
6.69915
20
-3.33354
11
6.73656
21
-3.33354
0
LINE
8
BLACK
6
CONTINUOUS
10
6.73656
20
-3.33354
11
6.73656
21
-3.3926
0
LINE
8
BLACK
6
CONTINUOUS
10
5.12474
20
-3.38224
11
5.07947
21
-3.38224
0
LINE
8
BLACK
6
CONTINUOUS
10
5.07947
20
-3.38224
11
5.07947
21
-3.35862
0
LINE
8
BLACK
6
CONTINUOUS
10
5.07947
20
-3.35862
11
5.12474
21
-3.35862
0
LINE
8
BLACK
6
CONTINUOUS
10
5.12474
20
-3.35862
11
5.12474
21
-3.38224
0
LINE
8
BLACK
6
CONTINUOUS
10
6.50805
20
-3.36827
11
6.47656
21
-3.36827
0
LINE
8
BLACK
6
CONTINUOUS
10
6.47656
20
-3.36827
11
6.47656
21
-3.33283
0
LINE
8
BLACK
6
CONTINUOUS
10
6.47656
20
-3.33283
11
6.50805
21
-3.33283
0
LINE
8
BLACK
6
CONTINUOUS
10
6.50805
20
-3.33283
11
6.50805
21
-3.36827
0
LINE
8
BLACK
6
CONTINUOUS
10
6.43325
20
-3.36827
11
6.40175
21
-3.36827
0
LINE
8
BLACK
6
CONTINUOUS
10
6.40175
20
-3.36827
11
6.40175
21
-3.33283
0
LINE
8
BLACK
6
CONTINUOUS
10
6.40175
20
-3.33283
11
6.43325
21
-3.33283
0
LINE
8
BLACK
6
CONTINUOUS
10
6.43325
20
-3.33283
11
6.43325
21
-3.36827
0
LINE
8
BLACK
6
CONTINUOUS
10
5.12474
20
-3.35075
11
5.07947
21
-3.35075
0
LINE
8
BLACK
6
CONTINUOUS
10
5.07947
20
-3.35075
11
5.07947
21
-3.32713
0
LINE
8
BLACK
6
CONTINUOUS
10
5.07947
20
-3.32713
11
5.12474
21
-3.32713
0
LINE
8
BLACK
6
CONTINUOUS
10
5.12474
20
-3.32713
11
5.12474
21
-3.35075
0
LINE
8
BLACK
6
CONTINUOUS
10
5.2824
20
-3.34742
11
5.2274
21
-3.34742
0
LINE
8
BLACK
6
CONTINUOUS
10
5.2274
20
-3.34742
11
5.2274
21
-3.31242
0
LINE
8
BLACK
6
CONTINUOUS
10
5.2274
20
-3.31242
11
5.2824
21
-3.31242
0
LINE
8
BLACK
6
CONTINUOUS
10
5.2824
20
-3.31242
11
5.2824
21
-3.34742
0
LINE
8
BLACK
6
CONTINUOUS
10
5.7674
20
-3.33742
11
5.7124
21
-3.33742
0
LINE
8
BLACK
6
CONTINUOUS
10
5.7124
20
-3.33742
11
5.7124
21
-3.30242
0
LINE
8
BLACK
6
CONTINUOUS
10
5.7124
20
-3.30242
11
5.7674
21
-3.30242
0
LINE
8
BLACK
6
CONTINUOUS
10
5.7674
20
-3.30242
11
5.7674
21
-3.33742
0
LINE
8
BLACK
6
CONTINUOUS
10
5.19868
20
-3.33429
11
5.17112
21
-3.33429
0
LINE
8
BLACK
6
CONTINUOUS
10
5.17112
20
-3.33429
11
5.17112
21
-3.31067
0
LINE
8
BLACK
6
CONTINUOUS
10
5.17112
20
-3.31067
11
5.19868
21
-3.31067
0
LINE
8
BLACK
6
CONTINUOUS
10
5.19868
20
-3.31067
11
5.19868
21
-3.33429
0
LINE
8
BLACK
6
CONTINUOUS
10
5.5024
20
-3.32242
11
5.4474
21
-3.32242
0
LINE
8
BLACK
6
CONTINUOUS
10
5.4474
20
-3.32242
11
5.4474
21
-3.28742
0
LINE
8
BLACK
6
CONTINUOUS
10
5.4474
20
-3.28742
11
5.5024
21
-3.28742
0
LINE
8
BLACK
6
CONTINUOUS
10
5.5024
20
-3.28742
11
5.5024
21
-3.32242
0
LINE
8
BLACK
6
CONTINUOUS
10
5.5824
20
-3.30742
11
5.5274
21
-3.30742
0
LINE
8
BLACK
6
CONTINUOUS
10
5.5274
20
-3.30742
11
5.5274
21
-3.27242
0
LINE
8
BLACK
6
CONTINUOUS
10
5.5274
20
-3.27242
11
5.5824
21
-3.27242
0
LINE
8
BLACK
6
CONTINUOUS
10
5.5824
20
-3.27242
11
5.5824
21
-3.30742
0
LINE
8
BLACK
6
CONTINUOUS
10
6.38325
20
-3.30701
11
6.35175
21
-3.30701
0
LINE
8
BLACK
6
CONTINUOUS
10
6.35175
20
-3.30701
11
6.35175
21
-3.27157
0
LINE
8
BLACK
6
CONTINUOUS
10
6.35175
20
-3.27157
11
6.38325
21
-3.27157
0
LINE
8
BLACK
6
CONTINUOUS
10
6.38325
20
-3.27157
11
6.38325
21
-3.30701
0
LINE
8
BLACK
6
CONTINUOUS
10
6.45805
20
-3.30701
11
6.42656
21
-3.30701
0
LINE
8
BLACK
6
CONTINUOUS
10
6.42656
20
-3.30701
11
6.42656
21
-3.27157
0
LINE
8
BLACK
6
CONTINUOUS
10
6.42656
20
-3.27157
11
6.45805
21
-3.27157
0
LINE
8
BLACK
6
CONTINUOUS
10
6.45805
20
-3.27157
11
6.45805
21
-3.30701
0
LINE
8
BLACK
6
CONTINUOUS
10
5.6724
20
-3.28242
11
5.6174
21
-3.28242
0
LINE
8
BLACK
6
CONTINUOUS
10
5.6174
20
-3.28242
11
5.6174
21
-3.24742
0
LINE
8
BLACK
6
CONTINUOUS
10
5.6174
20
-3.24742
11
5.6724
21
-3.24742
0
LINE
8
BLACK
6
CONTINUOUS
10
5.6724
20
-3.24742
11
5.6724
21
-3.28242
0
LINE
8
BLACK
6
CONTINUOUS
10
5.19868
20
-3.27917
11
5.17112
21
-3.27917
0
LINE
8
BLACK
6
CONTINUOUS
10
5.17112
20
-3.27917
11
5.17112
21
-3.25555
0
LINE
8
BLACK
6
CONTINUOUS
10
5.17112
20
-3.25555
11
5.19868
21
-3.25555
0
LINE
8
BLACK
6
CONTINUOUS
10
5.19868
20
-3.25555
11
5.19868
21
-3.27917
0
LINE
8
BLACK
6
CONTINUOUS
10
5.86337
20
-3.27272
11
5.79644
21
-3.27272
0
LINE
8
BLACK
6
CONTINUOUS
10
5.79644
20
-3.27272
11
5.79644
21
-3.22154
0
LINE
8
BLACK
6
CONTINUOUS
10
5.79644
20
-3.22154
11
5.86337
21
-3.22154
0
LINE
8
BLACK
6
CONTINUOUS
10
5.86337
20
-3.22154
11
5.86337
21
-3.27272
0
LINE
8
BLACK
6
CONTINUOUS
10
6.3074
20
-3.26492
11
6.2524
21
-3.26492
0
LINE
8
BLACK
6
CONTINUOUS
10
6.2524
20
-3.26492
11
6.2524
21
-3.22992
0
LINE
8
BLACK
6
CONTINUOUS
10
6.2524
20
-3.22992
11
6.3074
21
-3.22992
0
LINE
8
BLACK
6
CONTINUOUS
10
6.3074
20
-3.22992
11
6.3074
21
-3.26492
0
LINE
8
BLACK
6
CONTINUOUS
10
5.7674
20
-3.26242
11
5.7124
21
-3.26242
0
LINE
8
BLACK
6
CONTINUOUS
10
5.7124
20
-3.26242
11
5.7124
21
-3.22742
0
LINE
8
BLACK
6
CONTINUOUS
10
5.7124
20
-3.22742
11
5.7674
21
-3.22742
0
LINE
8
BLACK
6
CONTINUOUS
10
5.7674
20
-3.22742
11
5.7674
21
-3.26242
0
LINE
8
BLACK
6
CONTINUOUS
10
5.9624
20
-3.26242
11
5.9074
21
-3.26242
0
LINE
8
BLACK
6
CONTINUOUS
10
5.9074
20
-3.26242
11
5.9074
21
-3.22742
0
LINE
8
BLACK
6
CONTINUOUS
10
5.9074
20
-3.22742
11
5.9624
21
-3.22742
0
LINE
8
BLACK
6
CONTINUOUS
10
5.9624
20
-3.22742
11
5.9624
21
-3.26242
0
LINE
8
BLACK
6
CONTINUOUS
10
5.3024
20
-3.25992
11
5.2474
21
-3.25992
0
LINE
8
BLACK
6
CONTINUOUS
10
5.2474
20
-3.25992
11
5.2474
21
-3.22492
0
LINE
8
BLACK
6
CONTINUOUS
10
5.2474
20
-3.22492
11
5.3024
21
-3.22492
0
LINE
8
BLACK
6
CONTINUOUS
10
5.3024
20
-3.22492
11
5.3024
21
-3.25992
0
LINE
8
BLACK
6
CONTINUOUS
10
6.0974
20
-3.25242
11
6.0624
21
-3.25242
0
LINE
8
BLACK
6
CONTINUOUS
10
6.0624
20
-3.25242
11
6.0624
21
-3.19742
0
LINE
8
BLACK
6
CONTINUOUS
10
6.0624
20
-3.19742
11
6.0974
21
-3.19742
0
LINE
8
BLACK
6
CONTINUOUS
10
6.0974
20
-3.19742
11
6.0974
21
-3.25242
0
LINE
8
BLACK
6
CONTINUOUS
10
6.1724
20
-3.25242
11
6.1374
21
-3.25242
0
LINE
8
BLACK
6
CONTINUOUS
10
6.1374
20
-3.25242
11
6.1374
21
-3.19742
0
LINE
8
BLACK
6
CONTINUOUS
10
6.1374
20
-3.19742
11
6.1724
21
-3.19742
0
LINE
8
BLACK
6
CONTINUOUS
10
6.1724
20
-3.19742
11
6.1724
21
-3.25242
0
LINE
8
BLACK
6
CONTINUOUS
10
5.5024
20
-3.24742
11
5.4474
21
-3.24742
0
LINE
8
BLACK
6
CONTINUOUS
10
5.4474
20
-3.24742
11
5.4474
21
-3.21242
0
LINE
8
BLACK
6
CONTINUOUS
10
5.4474
20
-3.21242
11
5.5024
21
-3.21242
0
LINE
8
BLACK
6
CONTINUOUS
10
5.5024
20
-3.21242
11
5.5024
21
-3.24742
0
LINE
8
BLACK
6
CONTINUOUS
10
5.5824
20
-3.23242
11
5.5274
21
-3.23242
0
LINE
8
BLACK
6
CONTINUOUS
10
5.5274
20
-3.23242
11
5.5274
21
-3.19742
0
LINE
8
BLACK
6
CONTINUOUS
10
5.5274
20
-3.19742
11
5.5824
21
-3.19742
0
LINE
8
BLACK
6
CONTINUOUS
10
5.5824
20
-3.19742
11
5.5824
21
-3.23242
0
LINE
8
BLACK
6
CONTINUOUS
10
6.42065
20
-3.22827
11
6.38915
21
-3.22827
0
LINE
8
BLACK
6
CONTINUOUS
10
6.38915
20
-3.22827
11
6.38915
21
-3.19283
0
LINE
8
BLACK
6
CONTINUOUS
10
6.38915
20
-3.19283
11
6.42065
21
-3.19283
0
LINE
8
BLACK
6
CONTINUOUS
10
6.42065
20
-3.19283
11
6.42065
21
-3.22827
0
LINE
8
BLACK
6
CONTINUOUS
10
5.20868
20
-3.21929
11
5.18112
21
-3.21929
0
LINE
8
BLACK
6
CONTINUOUS
10
5.18112
20
-3.21929
11
5.18112
21
-3.19567
0
LINE
8
BLACK
6
CONTINUOUS
10
5.18112
20
-3.19567
11
5.20868
21
-3.19567
0
LINE
8
BLACK
6
CONTINUOUS
10
5.20868
20
-3.19567
11
5.20868
21
-3.21929
0
LINE
8
BLACK
6
CONTINUOUS
10
5.6724
20
-3.20742
11
5.6174
21
-3.20742
0
LINE
8
BLACK
6
CONTINUOUS
10
5.6174
20
-3.20742
11
5.6174
21
-3.17242
0
LINE
8
BLACK
6
CONTINUOUS
10
5.6174
20
-3.17242
11
5.6724
21
-3.17242
0
LINE
8
BLACK
6
CONTINUOUS
10
5.6724
20
-3.17242
11
5.6724
21
-3.20742
0
LINE
8
BLACK
6
CONTINUOUS
10
6.3074
20
-3.18992
11
6.2524
21
-3.18992
0
LINE
8
BLACK
6
CONTINUOUS
10
6.2524
20
-3.18992
11
6.2524
21
-3.15492
0
LINE
8
BLACK
6
CONTINUOUS
10
6.2524
20
-3.15492
11
6.3074
21
-3.15492
0
LINE
8
BLACK
6
CONTINUOUS
10
6.3074
20
-3.15492
11
6.3074
21
-3.18992
0
LINE
8
BLACK
6
CONTINUOUS
10
5.9624
20
-3.18742
11
5.9074
21
-3.18742
0
LINE
8
BLACK
6
CONTINUOUS
10
5.9074
20
-3.18742
11
5.9074
21
-3.15242
0
LINE
8
BLACK
6
CONTINUOUS
10
5.9074
20
-3.15242
11
5.9624
21
-3.15242
0
LINE
8
BLACK
6
CONTINUOUS
10
5.9624
20
-3.15242
11
5.9624
21
-3.18742
0
LINE
8
BLACK
6
CONTINUOUS
10
5.3024
20
-3.18492
11
5.2474
21
-3.18492
0
LINE
8
BLACK
6
CONTINUOUS
10
5.2474
20
-3.18492
11
5.2474
21
-3.14992
0
LINE
8
BLACK
6
CONTINUOUS
10
5.2474
20
-3.14992
11
5.3024
21
-3.14992
0
LINE
8
BLACK
6
CONTINUOUS
10
5.3024
20
-3.14992
11
5.3024
21
-3.18492
0
LINE
8
BLACK
6
CONTINUOUS
10
5.20868
20
-3.16417
11
5.18112
21
-3.16417
0
LINE
8
BLACK
6
CONTINUOUS
10
5.18112
20
-3.16417
11
5.18112
21
-3.14055
0
LINE
8
BLACK
6
CONTINUOUS
10
5.18112
20
-3.14055
11
5.20868
21
-3.14055
0
LINE
8
BLACK
6
CONTINUOUS
10
5.20868
20
-3.14055
11
5.20868
21
-3.16417
0
LINE
8
BLACK
6
CONTINUOUS
10
6.4274
20
-3.15742
11
6.3724
21
-3.15742
0
LINE
8
BLACK
6
CONTINUOUS
10
6.3724
20
-3.15742
11
6.3724
21
-3.12242
0
LINE
8
BLACK
6
CONTINUOUS
10
6.3724
20
-3.12242
11
6.4274
21
-3.12242
0
LINE
8
BLACK
6
CONTINUOUS
10
6.4274
20
-3.12242
11
6.4274
21
-3.15742
0
LINE
8
BLACK
6
CONTINUOUS
10
5.44925
20
-3.04474
11
5.45116
21
-3.04602
0
LINE
8
BLACK
6
CONTINUOUS
10
5.45116
20
-3.04602
11
5.45244
21
-3.04794
0
LINE
8
BLACK
6
CONTINUOUS
10
5.45244
20
-3.04794
11
5.45289
21
-3.0502
0
LINE
8
BLACK
6
CONTINUOUS
10
5.45289
20
-3.0502
11
5.45289
21
-3.10531
0
LINE
8
BLACK
6
CONTINUOUS
10
5.45289
20
-3.10531
11
5.45244
21
-3.10757
0
LINE
8
BLACK
6
CONTINUOUS
10
5.45244
20
-3.10757
11
5.45116
21
-3.10949
0
LINE
8
BLACK
6
CONTINUOUS
10
5.45116
20
-3.10949
11
5.44925
21
-3.11077
0
LINE
8
BLACK
6
CONTINUOUS
10
5.44925
20
-3.11077
11
5.44699
21
-3.11122
0
LINE
8
BLACK
6
CONTINUOUS
10
5.44699
20
-3.11122
11
5.43518
21
-3.11122
0
LINE
8
BLACK
6
CONTINUOUS
10
5.43518
20
-3.11122
11
5.43292
21
-3.11077
0
LINE
8
BLACK
6
CONTINUOUS
10
5.43292
20
-3.11077
11
5.431
21
-3.10949
0
LINE
8
BLACK
6
CONTINUOUS
10
5.431
20
-3.10949
11
5.42972
21
-3.10757
0
LINE
8
BLACK
6
CONTINUOUS
10
5.42972
20
-3.10757
11
5.42927
21
-3.10531
0
LINE
8
BLACK
6
CONTINUOUS
10
5.42927
20
-3.10531
11
5.42927
21
-3.0502
0
LINE
8
BLACK
6
CONTINUOUS
10
5.42927
20
-3.0502
11
5.42972
21
-3.04794
0
LINE
8
BLACK
6
CONTINUOUS
10
5.42972
20
-3.04794
11
5.431
21
-3.04602
0
LINE
8
BLACK
6
CONTINUOUS
10
5.431
20
-3.04602
11
5.43292
21
-3.04474
0
LINE
8
BLACK
6
CONTINUOUS
10
5.43292
20
-3.04474
11
5.43518
21
-3.04429
0
LINE
8
BLACK
6
CONTINUOUS
10
5.43518
20
-3.04429
11
5.44699
21
-3.04429
0
LINE
8
BLACK
6
CONTINUOUS
10
5.44699
20
-3.04429
11
5.44925
21
-3.04474
0
LINE
8
BLACK
6
CONTINUOUS
10
6.02504
20
-3.04474
11
6.02695
21
-3.04602
0
LINE
8
BLACK
6
CONTINUOUS
10
6.02695
20
-3.04602
11
6.02823
21
-3.04794
0
LINE
8
BLACK
6
CONTINUOUS
10
6.02823
20
-3.04794
11
6.02868
21
-3.0502
0
LINE
8
BLACK
6
CONTINUOUS
10
6.02868
20
-3.0502
11
6.02868
21
-3.10531
0
LINE
8
BLACK
6
CONTINUOUS
10
6.02868
20
-3.10531
11
6.02823
21
-3.10757
0
LINE
8
BLACK
6
CONTINUOUS
10
6.02823
20
-3.10757
11
6.02695
21
-3.10949
0
LINE
8
BLACK
6
CONTINUOUS
10
6.02695
20
-3.10949
11
6.02504
21
-3.11077
0
LINE
8
BLACK
6
CONTINUOUS
10
6.02504
20
-3.11077
11
6.02278
21
-3.11122
0
LINE
8
BLACK
6
CONTINUOUS
10
6.02278
20
-3.11122
11
6.01096
21
-3.11122
0
LINE
8
BLACK
6
CONTINUOUS
10
6.01096
20
-3.11122
11
6.0087
21
-3.11077
0
LINE
8
BLACK
6
CONTINUOUS
10
6.0087
20
-3.11077
11
6.00679
21
-3.10949
0
LINE
8
BLACK
6
CONTINUOUS
10
6.00679
20
-3.10949
11
6.00551
21
-3.10757
0
LINE
8
BLACK
6
CONTINUOUS
10
6.00551
20
-3.10757
11
6.00506
21
-3.10531
0
LINE
8
BLACK
6
CONTINUOUS
10
6.00506
20
-3.10531
11
6.00506
21
-3.0502
0
LINE
8
BLACK
6
CONTINUOUS
10
6.00506
20
-3.0502
11
6.00551
21
-3.04794
0
LINE
8
BLACK
6
CONTINUOUS
10
6.00551
20
-3.04794
11
6.00679
21
-3.04602
0
LINE
8
BLACK
6
CONTINUOUS
10
6.00679
20
-3.04602
11
6.0087
21
-3.04474
0
LINE
8
BLACK
6
CONTINUOUS
10
6.0087
20
-3.04474
11
6.01096
21
-3.04429
0
LINE
8
BLACK
6
CONTINUOUS
10
6.01096
20
-3.04429
11
6.02278
21
-3.04429
0
LINE
8
BLACK
6
CONTINUOUS
10
6.02278
20
-3.04429
11
6.02504
21
-3.04474
0
LINE
8
BLACK
6
CONTINUOUS
10
6.07425
20
-3.04474
11
6.07616
21
-3.04602
0
LINE
8
BLACK
6
CONTINUOUS
10
6.07616
20
-3.04602
11
6.07744
21
-3.04794
0
LINE
8
BLACK
6
CONTINUOUS
10
6.07744
20
-3.04794
11
6.07789
21
-3.0502
0
LINE
8
BLACK
6
CONTINUOUS
10
6.07789
20
-3.0502
11
6.07789
21
-3.10531
0
LINE
8
BLACK
6
CONTINUOUS
10
6.07789
20
-3.10531
11
6.07744
21
-3.10757
0
LINE
8
BLACK
6
CONTINUOUS
10
6.07744
20
-3.10757
11
6.07616
21
-3.10949
0
LINE
8
BLACK
6
CONTINUOUS
10
6.07616
20
-3.10949
11
6.07425
21
-3.11077
0
LINE
8
BLACK
6
CONTINUOUS
10
6.07425
20
-3.11077
11
6.07199
21
-3.11122
0
LINE
8
BLACK
6
CONTINUOUS
10
6.07199
20
-3.11122
11
6.06018
21
-3.11122
0
LINE
8
BLACK
6
CONTINUOUS
10
6.06018
20
-3.11122
11
6.05792
21
-3.11077
0
LINE
8
BLACK
6
CONTINUOUS
10
6.05792
20
-3.11077
11
6.056
21
-3.10949
0
LINE
8
BLACK
6
CONTINUOUS
10
6.056
20
-3.10949
11
6.05472
21
-3.10757
0
LINE
8
BLACK
6
CONTINUOUS
10
6.05472
20
-3.10757
11
6.05427
21
-3.10531
0
LINE
8
BLACK
6
CONTINUOUS
10
6.05427
20
-3.10531
11
6.05427
21
-3.0502
0
LINE
8
BLACK
6
CONTINUOUS
10
6.05427
20
-3.0502
11
6.05472
21
-3.04794
0
LINE
8
BLACK
6
CONTINUOUS
10
6.05472
20
-3.04794
11
6.056
21
-3.04602
0
LINE
8
BLACK
6
CONTINUOUS
10
6.056
20
-3.04602
11
6.05792
21
-3.04474
0
LINE
8
BLACK
6
CONTINUOUS
10
6.05792
20
-3.04474
11
6.06018
21
-3.04429
0
LINE
8
BLACK
6
CONTINUOUS
10
6.06018
20
-3.04429
11
6.07199
21
-3.04429
0
LINE
8
BLACK
6
CONTINUOUS
10
6.07199
20
-3.04429
11
6.07425
21
-3.04474
0
LINE
8
BLACK
6
CONTINUOUS
10
6.12346
20
-3.04474
11
6.12538
21
-3.04602
0
LINE
8
BLACK
6
CONTINUOUS
10
6.12538
20
-3.04602
11
6.12666
21
-3.04794
0
LINE
8
BLACK
6
CONTINUOUS
10
6.12666
20
-3.04794
11
6.12711
21
-3.0502
0
LINE
8
BLACK
6
CONTINUOUS
10
6.12711
20
-3.0502
11
6.12711
21
-3.10531
0
LINE
8
BLACK
6
CONTINUOUS
10
6.12711
20
-3.10531
11
6.12666
21
-3.10757
0
LINE
8
BLACK
6
CONTINUOUS
10
6.12666
20
-3.10757
11
6.12538
21
-3.10949
0
LINE
8
BLACK
6
CONTINUOUS
10
6.12538
20
-3.10949
11
6.12346
21
-3.11077
0
LINE
8
BLACK
6
CONTINUOUS
10
6.12346
20
-3.11077
11
6.1212
21
-3.11122
0
LINE
8
BLACK
6
CONTINUOUS
10
6.1212
20
-3.11122
11
6.10939
21
-3.11122
0
LINE
8
BLACK
6
CONTINUOUS
10
6.10939
20
-3.11122
11
6.10713
21
-3.11077
0
LINE
8
BLACK
6
CONTINUOUS
10
6.10713
20
-3.11077
11
6.10521
21
-3.10949
0
LINE
8
BLACK
6
CONTINUOUS
10
6.10521
20
-3.10949
11
6.10393
21
-3.10757
0
LINE
8
BLACK
6
CONTINUOUS
10
6.10393
20
-3.10757
11
6.10348
21
-3.10531
0
LINE
8
BLACK
6
CONTINUOUS
10
6.10348
20
-3.10531
11
6.10348
21
-3.0502
0
LINE
8
BLACK
6
CONTINUOUS
10
6.10348
20
-3.0502
11
6.10393
21
-3.04794
0
LINE
8
BLACK
6
CONTINUOUS
10
6.10393
20
-3.04794
11
6.10521
21
-3.04602
0
LINE
8
BLACK
6
CONTINUOUS
10
6.10521
20
-3.04602
11
6.10713
21
-3.04474
0
LINE
8
BLACK
6
CONTINUOUS
10
6.10713
20
-3.04474
11
6.10939
21
-3.04429
0
LINE
8
BLACK
6
CONTINUOUS
10
6.10939
20
-3.04429
11
6.1212
21
-3.04429
0
LINE
8
BLACK
6
CONTINUOUS
10
6.1212
20
-3.04429
11
6.12346
21
-3.04474
0
LINE
8
BLACK
6
CONTINUOUS
10
6.17267
20
-3.04474
11
6.17459
21
-3.04602
0
LINE
8
BLACK
6
CONTINUOUS
10
6.17459
20
-3.04602
11
6.17587
21
-3.04794
0
LINE
8
BLACK
6
CONTINUOUS
10
6.17587
20
-3.04794
11
6.17632
21
-3.0502
0
LINE
8
BLACK
6
CONTINUOUS
10
6.17632
20
-3.0502
11
6.17632
21
-3.10531
0
LINE
8
BLACK
6
CONTINUOUS
10
6.17632
20
-3.10531
11
6.17587
21
-3.10757
0
LINE
8
BLACK
6
CONTINUOUS
10
6.17587
20
-3.10757
11
6.17459
21
-3.10949
0
LINE
8
BLACK
6
CONTINUOUS
10
6.17459
20
-3.10949
11
6.17267
21
-3.11077
0
LINE
8
BLACK
6
CONTINUOUS
10
6.17267
20
-3.11077
11
6.17041
21
-3.11122
0
LINE
8
BLACK
6
CONTINUOUS
10
6.17041
20
-3.11122
11
6.1586
21
-3.11122
0
LINE
8
BLACK
6
CONTINUOUS
10
6.1586
20
-3.11122
11
6.15634
21
-3.11077
0
LINE
8
BLACK
6
CONTINUOUS
10
6.15634
20
-3.11077
11
6.15443
21
-3.10949
0
LINE
8
BLACK
6
CONTINUOUS
10
6.15443
20
-3.10949
11
6.15315
21
-3.10757
0
LINE
8
BLACK
6
CONTINUOUS
10
6.15315
20
-3.10757
11
6.1527
21
-3.10531
0
LINE
8
BLACK
6
CONTINUOUS
10
6.1527
20
-3.10531
11
6.1527
21
-3.0502
0
LINE
8
BLACK
6
CONTINUOUS
10
6.1527
20
-3.0502
11
6.15315
21
-3.04794
0
LINE
8
BLACK
6
CONTINUOUS
10
6.15315
20
-3.04794
11
6.15443
21
-3.04602
0
LINE
8
BLACK
6
CONTINUOUS
10
6.15443
20
-3.04602
11
6.15634
21
-3.04474
0
LINE
8
BLACK
6
CONTINUOUS
10
6.15634
20
-3.04474
11
6.1586
21
-3.04429
0
LINE
8
BLACK
6
CONTINUOUS
10
6.1586
20
-3.04429
11
6.17041
21
-3.04429
0
LINE
8
BLACK
6
CONTINUOUS
10
6.17041
20
-3.04429
11
6.17267
21
-3.04474
0
LINE
8
BLACK
6
CONTINUOUS
10
6.22189
20
-3.04474
11
6.2238
21
-3.04602
0
LINE
8
BLACK
6
CONTINUOUS
10
6.2238
20
-3.04602
11
6.22508
21
-3.04794
0
LINE
8
BLACK
6
CONTINUOUS
10
6.22508
20
-3.04794
11
6.22553
21
-3.0502
0
LINE
8
BLACK
6
CONTINUOUS
10
6.22553
20
-3.0502
11
6.22553
21
-3.10531
0
LINE
8
BLACK
6
CONTINUOUS
10
6.22553
20
-3.10531
11
6.22508
21
-3.10757
0
LINE
8
BLACK
6
CONTINUOUS
10
6.22508
20
-3.10757
11
6.2238
21
-3.10949
0
LINE
8
BLACK
6
CONTINUOUS
10
6.2238
20
-3.10949
11
6.22189
21
-3.11077
0
LINE
8
BLACK
6
CONTINUOUS
10
6.22189
20
-3.11077
11
6.21963
21
-3.11122
0
LINE
8
BLACK
6
CONTINUOUS
10
6.21963
20
-3.11122
11
6.20781
21
-3.11122
0
LINE
8
BLACK
6
CONTINUOUS
10
6.20781
20
-3.11122
11
6.20555
21
-3.11077
0
LINE
8
BLACK
6
CONTINUOUS
10
6.20555
20
-3.11077
11
6.20364
21
-3.10949
0
LINE
8
BLACK
6
CONTINUOUS
10
6.20364
20
-3.10949
11
6.20236
21
-3.10757
0
LINE
8
BLACK
6
CONTINUOUS
10
6.20236
20
-3.10757
11
6.20191
21
-3.10531
0
LINE
8
BLACK
6
CONTINUOUS
10
6.20191
20
-3.10531
11
6.20191
21
-3.0502
0
LINE
8
BLACK
6
CONTINUOUS
10
6.20191
20
-3.0502
11
6.20236
21
-3.04794
0
LINE
8
BLACK
6
CONTINUOUS
10
6.20236
20
-3.04794
11
6.20364
21
-3.04602
0
LINE
8
BLACK
6
CONTINUOUS
10
6.20364
20
-3.04602
11
6.20555
21
-3.04474
0
LINE
8
BLACK
6
CONTINUOUS
10
6.20555
20
-3.04474
11
6.20781
21
-3.04429
0
LINE
8
BLACK
6
CONTINUOUS
10
6.20781
20
-3.04429
11
6.21963
21
-3.04429
0
LINE
8
BLACK
6
CONTINUOUS
10
6.21963
20
-3.04429
11
6.22189
21
-3.04474
0
LINE
8
BLACK
6
CONTINUOUS
10
6.2711
20
-3.04474
11
6.27301
21
-3.04602
0
LINE
8
BLACK
6
CONTINUOUS
10
6.27301
20
-3.04602
11
6.27429
21
-3.04794
0
LINE
8
BLACK
6
CONTINUOUS
10
6.27429
20
-3.04794
11
6.27474
21
-3.0502
0
LINE
8
BLACK
6
CONTINUOUS
10
6.27474
20
-3.0502
11
6.27474
21
-3.10531
0
LINE
8
BLACK
6
CONTINUOUS
10
6.27474
20
-3.10531
11
6.27429
21
-3.10757
0
LINE
8
BLACK
6
CONTINUOUS
10
6.27429
20
-3.10757
11
6.27301
21
-3.10949
0
LINE
8
BLACK
6
CONTINUOUS
10
6.27301
20
-3.10949
11
6.2711
21
-3.11077
0
LINE
8
BLACK
6
CONTINUOUS
10
6.2711
20
-3.11077
11
6.26884
21
-3.11122
0
LINE
8
BLACK
6
CONTINUOUS
10
6.26884
20
-3.11122
11
6.25703
21
-3.11122
0
LINE
8
BLACK
6
CONTINUOUS
10
6.25703
20
-3.11122
11
6.25477
21
-3.11077
0
LINE
8
BLACK
6
CONTINUOUS
10
6.25477
20
-3.11077
11
6.25285
21
-3.10949
0
LINE
8
BLACK
6
CONTINUOUS
10
6.25285
20
-3.10949
11
6.25157
21
-3.10757
0
LINE
8
BLACK
6
CONTINUOUS
10
6.25157
20
-3.10757
11
6.25112
21
-3.10531
0
LINE
8
BLACK
6
CONTINUOUS
10
6.25112
20
-3.10531
11
6.25112
21
-3.0502
0
LINE
8
BLACK
6
CONTINUOUS
10
6.25112
20
-3.0502
11
6.25157
21
-3.04794
0
LINE
8
BLACK
6
CONTINUOUS
10
6.25157
20
-3.04794
11
6.25285
21
-3.04602
0
LINE
8
BLACK
6
CONTINUOUS
10
6.25285
20
-3.04602
11
6.25477
21
-3.04474
0
LINE
8
BLACK
6
CONTINUOUS
10
6.25477
20
-3.04474
11
6.25703
21
-3.04429
0
LINE
8
BLACK
6
CONTINUOUS
10
6.25703
20
-3.04429
11
6.26884
21
-3.04429
0
LINE
8
BLACK
6
CONTINUOUS
10
6.26884
20
-3.04429
11
6.2711
21
-3.04474
0
LINE
8
BLACK
6
CONTINUOUS
10
5.69531
20
-3.04474
11
5.69723
21
-3.04602
0
LINE
8
BLACK
6
CONTINUOUS
10
5.69723
20
-3.04602
11
5.69851
21
-3.04794
0
LINE
8
BLACK
6
CONTINUOUS
10
5.69851
20
-3.04794
11
5.69896
21
-3.0502
0
LINE
8
BLACK
6
CONTINUOUS
10
5.69896
20
-3.0502
11
5.69896
21
-3.10531
0
LINE
8
BLACK
6
CONTINUOUS
10
5.69896
20
-3.10531
11
5.69851
21
-3.10757
0
LINE
8
BLACK
6
CONTINUOUS
10
5.69851
20
-3.10757
11
5.69723
21
-3.10949
0
LINE
8
BLACK
6
CONTINUOUS
10
5.69723
20
-3.10949
11
5.69531
21
-3.11077
0
LINE
8
BLACK
6
CONTINUOUS
10
5.69531
20
-3.11077
11
5.69305
21
-3.11122
0
LINE
8
BLACK
6
CONTINUOUS
10
5.69305
20
-3.11122
11
5.68124
21
-3.11122
0
LINE
8
BLACK
6
CONTINUOUS
10
5.68124
20
-3.11122
11
5.67898
21
-3.11077
0
LINE
8
BLACK
6
CONTINUOUS
10
5.67898
20
-3.11077
11
5.67706
21
-3.10949
0
LINE
8
BLACK
6
CONTINUOUS
10
5.67706
20
-3.10949
11
5.67578
21
-3.10757
0
LINE
8
BLACK
6
CONTINUOUS
10
5.67578
20
-3.10757
11
5.67533
21
-3.10531
0
LINE
8
BLACK
6
CONTINUOUS
10
5.67533
20
-3.10531
11
5.67533
21
-3.0502
0
LINE
8
BLACK
6
CONTINUOUS
10
5.67533
20
-3.0502
11
5.67578
21
-3.04794
0
LINE
8
BLACK
6
CONTINUOUS
10
5.67578
20
-3.04794
11
5.67706
21
-3.04602
0
LINE
8
BLACK
6
CONTINUOUS
10
5.67706
20
-3.04602
11
5.67898
21
-3.04474
0
LINE
8
BLACK
6
CONTINUOUS
10
5.67898
20
-3.04474
11
5.68124
21
-3.04429
0
LINE
8
BLACK
6
CONTINUOUS
10
5.68124
20
-3.04429
11
5.69305
21
-3.04429
0
LINE
8
BLACK
6
CONTINUOUS
10
5.69305
20
-3.04429
11
5.69531
21
-3.04474
0
LINE
8
BLACK
6
CONTINUOUS
10
5.35082
20
-3.04474
11
5.35274
21
-3.04602
0
LINE
8
BLACK
6
CONTINUOUS
10
5.35274
20
-3.04602
11
5.35402
21
-3.04794
0
LINE
8
BLACK
6
CONTINUOUS
10
5.35402
20
-3.04794
11
5.35447
21
-3.0502
0
LINE
8
BLACK
6
CONTINUOUS
10
5.35447
20
-3.0502
11
5.35447
21
-3.10531
0
LINE
8
BLACK
6
CONTINUOUS
10
5.35447
20
-3.10531
11
5.35402
21
-3.10757
0
LINE
8
BLACK
6
CONTINUOUS
10
5.35402
20
-3.10757
11
5.35274
21
-3.10949
0
LINE
8
BLACK
6
CONTINUOUS
10
5.35274
20
-3.10949
11
5.35082
21
-3.11077
0
LINE
8
BLACK
6
CONTINUOUS
10
5.35082
20
-3.11077
11
5.34856
21
-3.11122
0
LINE
8
BLACK
6
CONTINUOUS
10
5.34856
20
-3.11122
11
5.33675
21
-3.11122
0
LINE
8
BLACK
6
CONTINUOUS
10
5.33675
20
-3.11122
11
5.33449
21
-3.11077
0
LINE
8
BLACK
6
CONTINUOUS
10
5.33449
20
-3.11077
11
5.33258
21
-3.10949
0
LINE
8
BLACK
6
CONTINUOUS
10
5.33258
20
-3.10949
11
5.3313
21
-3.10757
0
LINE
8
BLACK
6
CONTINUOUS
10
5.3313
20
-3.10757
11
5.33085
21
-3.10531
0
LINE
8
BLACK
6
CONTINUOUS
10
5.33085
20
-3.10531
11
5.33085
21
-3.0502
0
LINE
8
BLACK
6
CONTINUOUS
10
5.33085
20
-3.0502
11
5.3313
21
-3.04794
0
LINE
8
BLACK
6
CONTINUOUS
10
5.3313
20
-3.04794
11
5.33258
21
-3.04602
0
LINE
8
BLACK
6
CONTINUOUS
10
5.33258
20
-3.04602
11
5.33449
21
-3.04474
0
LINE
8
BLACK
6
CONTINUOUS
10
5.33449
20
-3.04474
11
5.33675
21
-3.04429
0
LINE
8
BLACK
6
CONTINUOUS
10
5.33675
20
-3.04429
11
5.34856
21
-3.04429
0
LINE
8
BLACK
6
CONTINUOUS
10
5.34856
20
-3.04429
11
5.35082
21
-3.04474
0
LINE
8
BLACK
6
CONTINUOUS
10
5.6461
20
-3.04474
11
5.64801
21
-3.04602
0
LINE
8
BLACK
6
CONTINUOUS
10
5.64801
20
-3.04602
11
5.64929
21
-3.04794
0
LINE
8
BLACK
6
CONTINUOUS
10
5.64929
20
-3.04794
11
5.64974
21
-3.0502
0
LINE
8
BLACK
6
CONTINUOUS
10
5.64974
20
-3.0502
11
5.64974
21
-3.10531
0
LINE
8
BLACK
6
CONTINUOUS
10
5.64974
20
-3.10531
11
5.64929
21
-3.10757
0
LINE
8
BLACK
6
CONTINUOUS
10
5.64929
20
-3.10757
11
5.64801
21
-3.10949
0
LINE
8
BLACK
6
CONTINUOUS
10
5.64801
20
-3.10949
11
5.6461
21
-3.11077
0
LINE
8
BLACK
6
CONTINUOUS
10
5.6461
20
-3.11077
11
5.64384
21
-3.11122
0
LINE
8
BLACK
6
CONTINUOUS
10
5.64384
20
-3.11122
11
5.63203
21
-3.11122
0
LINE
8
BLACK
6
CONTINUOUS
10
5.63203
20
-3.11122
11
5.62977
21
-3.11077
0
LINE
8
BLACK
6
CONTINUOUS
10
5.62977
20
-3.11077
11
5.62785
21
-3.10949
0
LINE
8
BLACK
6
CONTINUOUS
10
5.62785
20
-3.10949
11
5.62657
21
-3.10757
0
LINE
8
BLACK
6
CONTINUOUS
10
5.62657
20
-3.10757
11
5.62612
21
-3.10531
0
LINE
8
BLACK
6
CONTINUOUS
10
5.62612
20
-3.10531
11
5.62612
21
-3.0502
0
LINE
8
BLACK
6
CONTINUOUS
10
5.62612
20
-3.0502
11
5.62657
21
-3.04794
0
LINE
8
BLACK
6
CONTINUOUS
10
5.62657
20
-3.04794
11
5.62785
21
-3.04602
0
LINE
8
BLACK
6
CONTINUOUS
10
5.62785
20
-3.04602
11
5.62977
21
-3.04474
0
LINE
8
BLACK
6
CONTINUOUS
10
5.62977
20
-3.04474
11
5.63203
21
-3.04429
0
LINE
8
BLACK
6
CONTINUOUS
10
5.63203
20
-3.04429
11
5.64384
21
-3.04429
0
LINE
8
BLACK
6
CONTINUOUS
10
5.64384
20
-3.04429
11
5.6461
21
-3.04474
0
LINE
8
BLACK
6
CONTINUOUS
10
5.59689
20
-3.04474
11
5.5988
21
-3.04602
0
LINE
8
BLACK
6
CONTINUOUS
10
5.5988
20
-3.04602
11
5.60008
21
-3.04794
0
LINE
8
BLACK
6
CONTINUOUS
10
5.60008
20
-3.04794
11
5.60053
21
-3.0502
0
LINE
8
BLACK
6
CONTINUOUS
10
5.60053
20
-3.0502
11
5.60053
21
-3.10531
0
LINE
8
BLACK
6
CONTINUOUS
10
5.60053
20
-3.10531
11
5.60008
21
-3.10757
0
LINE
8
BLACK
6
CONTINUOUS
10
5.60008
20
-3.10757
11
5.5988
21
-3.10949
0
LINE
8
BLACK
6
CONTINUOUS
10
5.5988
20
-3.10949
11
5.59689
21
-3.11077
0
LINE
8
BLACK
6
CONTINUOUS
10
5.59689
20
-3.11077
11
5.59463
21
-3.11122
0
LINE
8
BLACK
6
CONTINUOUS
10
5.59463
20
-3.11122
11
5.58281
21
-3.11122
0
LINE
8
BLACK
6
CONTINUOUS
10
5.58281
20
-3.11122
11
5.58055
21
-3.11077
0
LINE
8
BLACK
6
CONTINUOUS
10
5.58055
20
-3.11077
11
5.57864
21
-3.10949
0
LINE
8
BLACK
6
CONTINUOUS
10
5.57864
20
-3.10949
11
5.57736
21
-3.10757
0
LINE
8
BLACK
6
CONTINUOUS
10
5.57736
20
-3.10757
11
5.57691
21
-3.10531
0
LINE
8
BLACK
6
CONTINUOUS
10
5.57691
20
-3.10531
11
5.57691
21
-3.0502
0
LINE
8
BLACK
6
CONTINUOUS
10
5.57691
20
-3.0502
11
5.57736
21
-3.04794
0
LINE
8
BLACK
6
CONTINUOUS
10
5.57736
20
-3.04794
11
5.57864
21
-3.04602
0
LINE
8
BLACK
6
CONTINUOUS
10
5.57864
20
-3.04602
11
5.58055
21
-3.04474
0
LINE
8
BLACK
6
CONTINUOUS
10
5.58055
20
-3.04474
11
5.58281
21
-3.04429
0
LINE
8
BLACK
6
CONTINUOUS
10
5.58281
20
-3.04429
11
5.59463
21
-3.04429
0
LINE
8
BLACK
6
CONTINUOUS
10
5.59463
20
-3.04429
11
5.59689
21
-3.04474
0
LINE
8
BLACK
6
CONTINUOUS
10
5.54767
20
-3.04474
11
5.54959
21
-3.04602
0
LINE
8
BLACK
6
CONTINUOUS
10
5.54959
20
-3.04602
11
5.55087
21
-3.04794
0
LINE
8
BLACK
6
CONTINUOUS
10
5.55087
20
-3.04794
11
5.55132
21
-3.0502
0
LINE
8
BLACK
6
CONTINUOUS
10
5.55132
20
-3.0502
11
5.55132
21
-3.10531
0
LINE
8
BLACK
6
CONTINUOUS
10
5.55132
20
-3.10531
11
5.55087
21
-3.10757
0
LINE
8
BLACK
6
CONTINUOUS
10
5.55087
20
-3.10757
11
5.54959
21
-3.10949
0
LINE
8
BLACK
6
CONTINUOUS
10
5.54959
20
-3.10949
11
5.54767
21
-3.11077
0
LINE
8
BLACK
6
CONTINUOUS
10
5.54767
20
-3.11077
11
5.54541
21
-3.11122
0
LINE
8
BLACK
6
CONTINUOUS
10
5.54541
20
-3.11122
11
5.5336
21
-3.11122
0
LINE
8
BLACK
6
CONTINUOUS
10
5.5336
20
-3.11122
11
5.53134
21
-3.11077
0
LINE
8
BLACK
6
CONTINUOUS
10
5.53134
20
-3.11077
11
5.52943
21
-3.10949
0
LINE
8
BLACK
6
CONTINUOUS
10
5.52943
20
-3.10949
11
5.52815
21
-3.10757
0
LINE
8
BLACK
6
CONTINUOUS
10
5.52815
20
-3.10757
11
5.5277
21
-3.10531
0
LINE
8
BLACK
6
CONTINUOUS
10
5.5277
20
-3.10531
11
5.5277
21
-3.0502
0
LINE
8
BLACK
6
CONTINUOUS
10
5.5277
20
-3.0502
11
5.52815
21
-3.04794
0
LINE
8
BLACK
6
CONTINUOUS
10
5.52815
20
-3.04794
11
5.52943
21
-3.04602
0
LINE
8
BLACK
6
CONTINUOUS
10
5.52943
20
-3.04602
11
5.53134
21
-3.04474
0
LINE
8
BLACK
6
CONTINUOUS
10
5.53134
20
-3.04474
11
5.5336
21
-3.04429
0
LINE
8
BLACK
6
CONTINUOUS
10
5.5336
20
-3.04429
11
5.54541
21
-3.04429
0
LINE
8
BLACK
6
CONTINUOUS
10
5.54541
20
-3.04429
11
5.54767
21
-3.04474
0
LINE
8
BLACK
6
CONTINUOUS
10
5.49846
20
-3.04474
11
5.50038
21
-3.04602
0
LINE
8
BLACK
6
CONTINUOUS
10
5.50038
20
-3.04602
11
5.50166
21
-3.04794
0
LINE
8
BLACK
6
CONTINUOUS
10
5.50166
20
-3.04794
11
5.50211
21
-3.0502
0
LINE
8
BLACK
6
CONTINUOUS
10
5.50211
20
-3.0502
11
5.50211
21
-3.10531
0
LINE
8
BLACK
6
CONTINUOUS
10
5.50211
20
-3.10531
11
5.50166
21
-3.10757
0
LINE
8
BLACK
6
CONTINUOUS
10
5.50166
20
-3.10757
11
5.50038
21
-3.10949
0
LINE
8
BLACK
6
CONTINUOUS
10
5.50038
20
-3.10949
11
5.49846
21
-3.11077
0
LINE
8
BLACK
6
CONTINUOUS
10
5.49846
20
-3.11077
11
5.4962
21
-3.11122
0
LINE
8
BLACK
6
CONTINUOUS
10
5.4962
20
-3.11122
11
5.48439
21
-3.11122
0
LINE
8
BLACK
6
CONTINUOUS
10
5.48439
20
-3.11122
11
5.48213
21
-3.11077
0
LINE
8
BLACK
6
CONTINUOUS
10
5.48213
20
-3.11077
11
5.48021
21
-3.10949
0
LINE
8
BLACK
6
CONTINUOUS
10
5.48021
20
-3.10949
11
5.47893
21
-3.10757
0
LINE
8
BLACK
6
CONTINUOUS
10
5.47893
20
-3.10757
11
5.47848
21
-3.10531
0
LINE
8
BLACK
6
CONTINUOUS
10
5.47848
20
-3.10531
11
5.47848
21
-3.0502
0
LINE
8
BLACK
6
CONTINUOUS
10
5.47848
20
-3.0502
11
5.47893
21
-3.04794
0
LINE
8
BLACK
6
CONTINUOUS
10
5.47893
20
-3.04794
11
5.48021
21
-3.04602
0
LINE
8
BLACK
6
CONTINUOUS
10
5.48021
20
-3.04602
11
5.48213
21
-3.04474
0
LINE
8
BLACK
6
CONTINUOUS
10
5.48213
20
-3.04474
11
5.48439
21
-3.04429
0
LINE
8
BLACK
6
CONTINUOUS
10
5.48439
20
-3.04429
11
5.4962
21
-3.04429
0
LINE
8
BLACK
6
CONTINUOUS
10
5.4962
20
-3.04429
11
5.49846
21
-3.04474
0
LINE
8
BLACK
6
CONTINUOUS
10
5.40004
20
-3.04474
11
5.40195
21
-3.04602
0
LINE
8
BLACK
6
CONTINUOUS
10
5.40195
20
-3.04602
11
5.40323
21
-3.04794
0
LINE
8
BLACK
6
CONTINUOUS
10
5.40323
20
-3.04794
11
5.40368
21
-3.0502
0
LINE
8
BLACK
6
CONTINUOUS
10
5.40368
20
-3.0502
11
5.40368
21
-3.10531
0
LINE
8
BLACK
6
CONTINUOUS
10
5.40368
20
-3.10531
11
5.40323
21
-3.10757
0
LINE
8
BLACK
6
CONTINUOUS
10
5.40323
20
-3.10757
11
5.40195
21
-3.10949
0
LINE
8
BLACK
6
CONTINUOUS
10
5.40195
20
-3.10949
11
5.40004
21
-3.11077
0
LINE
8
BLACK
6
CONTINUOUS
10
5.40004
20
-3.11077
11
5.39778
21
-3.11122
0
LINE
8
BLACK
6
CONTINUOUS
10
5.39778
20
-3.11122
11
5.38596
21
-3.11122
0
LINE
8
BLACK
6
CONTINUOUS
10
5.38596
20
-3.11122
11
5.3837
21
-3.11077
0
LINE
8
BLACK
6
CONTINUOUS
10
5.3837
20
-3.11077
11
5.38179
21
-3.10949
0
LINE
8
BLACK
6
CONTINUOUS
10
5.38179
20
-3.10949
11
5.38051
21
-3.10757
0
LINE
8
BLACK
6
CONTINUOUS
10
5.38051
20
-3.10757
11
5.38006
21
-3.10531
0
LINE
8
BLACK
6
CONTINUOUS
10
5.38006
20
-3.10531
11
5.38006
21
-3.0502
0
LINE
8
BLACK
6
CONTINUOUS
10
5.38006
20
-3.0502
11
5.38051
21
-3.04794
0
LINE
8
BLACK
6
CONTINUOUS
10
5.38051
20
-3.04794
11
5.38179
21
-3.04602
0
LINE
8
BLACK
6
CONTINUOUS
10
5.38179
20
-3.04602
11
5.3837
21
-3.04474
0
LINE
8
BLACK
6
CONTINUOUS
10
5.3837
20
-3.04474
11
5.38596
21
-3.04429
0
LINE
8
BLACK
6
CONTINUOUS
10
5.38596
20
-3.04429
11
5.39778
21
-3.04429
0
LINE
8
BLACK
6
CONTINUOUS
10
5.39778
20
-3.04429
11
5.40004
21
-3.04474
0
LINE
8
BLACK
6
CONTINUOUS
10
6.4274
20
-3.08242
11
6.3724
21
-3.08242
0
LINE
8
BLACK
6
CONTINUOUS
10
6.3724
20
-3.08242
11
6.3724
21
-3.04742
0
LINE
8
BLACK
6
CONTINUOUS
10
6.3724
20
-3.04742
11
6.4274
21
-3.04742
0
LINE
8
BLACK
6
CONTINUOUS
10
6.4274
20
-3.04742
11
6.4274
21
-3.08242
0
LINE
8
BLACK
6
CONTINUOUS
10
5.95764
20
-2.89937
11
5.96084
21
-2.9015
0
LINE
8
BLACK
6
CONTINUOUS
10
5.96084
20
-2.9015
11
5.96297
21
-2.9047
0
LINE
8
BLACK
6
CONTINUOUS
10
5.96297
20
-2.9047
11
5.96372
21
-2.90846
0
LINE
8
BLACK
6
CONTINUOUS
10
5.96372
20
-2.90846
11
5.96372
21
-2.99508
0
LINE
8
BLACK
6
CONTINUOUS
10
5.96372
20
-2.99508
11
5.96297
21
-2.99885
0
LINE
8
BLACK
6
CONTINUOUS
10
5.96297
20
-2.99885
11
5.96084
21
-3.00204
0
LINE
8
BLACK
6
CONTINUOUS
10
5.96084
20
-3.00204
11
5.95764
21
-3.00417
0
LINE
8
BLACK
6
CONTINUOUS
10
5.95764
20
-3.00417
11
5.95388
21
-3.00492
0
LINE
8
BLACK
6
CONTINUOUS
10
5.95388
20
-3.00492
11
5.93419
21
-3.00492
0
LINE
8
BLACK
6
CONTINUOUS
10
5.93419
20
-3.00492
11
5.93043
21
-3.00417
0
LINE
8
BLACK
6
CONTINUOUS
10
5.93043
20
-3.00417
11
5.92723
21
-3.00204
0
LINE
8
BLACK
6
CONTINUOUS
10
5.92723
20
-3.00204
11
5.9251
21
-2.99885
0
LINE
8
BLACK
6
CONTINUOUS
10
5.9251
20
-2.99885
11
5.92435
21
-2.99508
0
LINE
8
BLACK
6
CONTINUOUS
10
5.92435
20
-2.99508
11
5.92435
21
-2.90846
0
LINE
8
BLACK
6
CONTINUOUS
10
5.92435
20
-2.90846
11
5.9251
21
-2.9047
0
LINE
8
BLACK
6
CONTINUOUS
10
5.9251
20
-2.9047
11
5.92723
21
-2.9015
0
LINE
8
BLACK
6
CONTINUOUS
10
5.92723
20
-2.9015
11
5.93043
21
-2.89937
0
LINE
8
BLACK
6
CONTINUOUS
10
5.93043
20
-2.89937
11
5.93419
21
-2.89862
0
LINE
8
BLACK
6
CONTINUOUS
10
5.93419
20
-2.89862
11
5.95388
21
-2.89862
0
LINE
8
BLACK
6
CONTINUOUS
10
5.95388
20
-2.89862
11
5.95764
21
-2.89937
0
LINE
8
BLACK
6
CONTINUOUS
10
6.34938
20
-2.89937
11
6.35257
21
-2.9015
0
LINE
8
BLACK
6
CONTINUOUS
10
6.35257
20
-2.9015
11
6.3547
21
-2.9047
0
LINE
8
BLACK
6
CONTINUOUS
10
6.3547
20
-2.9047
11
6.35545
21
-2.90846
0
LINE
8
BLACK
6
CONTINUOUS
10
6.35545
20
-2.90846
11
6.35545
21
-2.99508
0
LINE
8
BLACK
6
CONTINUOUS
10
6.35545
20
-2.99508
11
6.3547
21
-2.99885
0
LINE
8
BLACK
6
CONTINUOUS
10
6.3547
20
-2.99885
11
6.35257
21
-3.00204
0
LINE
8
BLACK
6
CONTINUOUS
10
6.35257
20
-3.00204
11
6.34938
21
-3.00417
0
LINE
8
BLACK
6
CONTINUOUS
10
6.34938
20
-3.00417
11
6.34561
21
-3.00492
0
LINE
8
BLACK
6
CONTINUOUS
10
6.34561
20
-3.00492
11
6.32593
21
-3.00492
0
LINE
8
BLACK
6
CONTINUOUS
10
6.32593
20
-3.00492
11
6.32216
21
-3.00417
0
LINE
8
BLACK
6
CONTINUOUS
10
6.32216
20
-3.00417
11
6.31897
21
-3.00204
0
LINE
8
BLACK
6
CONTINUOUS
10
6.31897
20
-3.00204
11
6.31683
21
-2.99885
0
LINE
8
BLACK
6
CONTINUOUS
10
6.31683
20
-2.99885
11
6.31608
21
-2.99508
0
LINE
8
BLACK
6
CONTINUOUS
10
6.31608
20
-2.99508
11
6.31608
21
-2.90846
0
LINE
8
BLACK
6
CONTINUOUS
10
6.31608
20
-2.90846
11
6.31683
21
-2.9047
0
LINE
8
BLACK
6
CONTINUOUS
10
6.31683
20
-2.9047
11
6.31897
21
-2.9015
0
LINE
8
BLACK
6
CONTINUOUS
10
6.31897
20
-2.9015
11
6.32216
21
-2.89937
0
LINE
8
BLACK
6
CONTINUOUS
10
6.32216
20
-2.89937
11
6.32593
21
-2.89862
0
LINE
8
BLACK
6
CONTINUOUS
10
6.32593
20
-2.89862
11
6.34561
21
-2.89862
0
LINE
8
BLACK
6
CONTINUOUS
10
6.34561
20
-2.89862
11
6.34938
21
-2.89937
0
LINE
8
BLACK
6
CONTINUOUS
10
5.77359
20
-2.89937
11
5.77678
21
-2.9015
0
LINE
8
BLACK
6
CONTINUOUS
10
5.77678
20
-2.9015
11
5.77892
21
-2.9047
0
LINE
8
BLACK
6
CONTINUOUS
10
5.77892
20
-2.9047
11
5.77967
21
-2.90846
0
LINE
8
BLACK
6
CONTINUOUS
10
5.77967
20
-2.90846
11
5.77967
21
-2.99508
0
LINE
8
BLACK
6
CONTINUOUS
10
5.77967
20
-2.99508
11
5.77892
21
-2.99885
0
LINE
8
BLACK
6
CONTINUOUS
10
5.77892
20
-2.99885
11
5.77678
21
-3.00204
0
LINE
8
BLACK
6
CONTINUOUS
10
5.77678
20
-3.00204
11
5.77359
21
-3.00417
0
LINE
8
BLACK
6
CONTINUOUS
10
5.77359
20
-3.00417
11
5.76982
21
-3.00492
0
LINE
8
BLACK
6
CONTINUOUS
10
5.76982
20
-3.00492
11
5.75014
21
-3.00492
0
LINE
8
BLACK
6
CONTINUOUS
10
5.75014
20
-3.00492
11
5.74637
21
-3.00417
0
LINE
8
BLACK
6
CONTINUOUS
10
5.74637
20
-3.00417
11
5.74318
21
-3.00204
0
LINE
8
BLACK
6
CONTINUOUS
10
5.74318
20
-3.00204
11
5.74104
21
-2.99885
0
LINE
8
BLACK
6
CONTINUOUS
10
5.74104
20
-2.99885
11
5.7403
21
-2.99508
0
LINE
8
BLACK
6
CONTINUOUS
10
5.7403
20
-2.99508
11
5.7403
21
-2.90846
0
LINE
8
BLACK
6
CONTINUOUS
10
5.7403
20
-2.90846
11
5.74104
21
-2.9047
0
LINE
8
BLACK
6
CONTINUOUS
10
5.74104
20
-2.9047
11
5.74318
21
-2.9015
0
LINE
8
BLACK
6
CONTINUOUS
10
5.74318
20
-2.9015
11
5.74637
21
-2.89937
0
LINE
8
BLACK
6
CONTINUOUS
10
5.74637
20
-2.89937
11
5.75014
21
-2.89862
0
LINE
8
BLACK
6
CONTINUOUS
10
5.75014
20
-2.89862
11
5.76982
21
-2.89862
0
LINE
8
BLACK
6
CONTINUOUS
10
5.76982
20
-2.89862
11
5.77359
21
-2.89937
0
LINE
8
BLACK
6
CONTINUOUS
10
5.28343
20
-2.89937
11
5.28663
21
-2.9015
0
LINE
8
BLACK
6
CONTINUOUS
10
5.28663
20
-2.9015
11
5.28876
21
-2.9047
0
LINE
8
BLACK
6
CONTINUOUS
10
5.28876
20
-2.9047
11
5.28951
21
-2.90846
0
LINE
8
BLACK
6
CONTINUOUS
10
5.28951
20
-2.90846
11
5.28951
21
-2.99508
0
LINE
8
BLACK
6
CONTINUOUS
10
5.28951
20
-2.99508
11
5.28876
21
-2.99885
0
LINE
8
BLACK
6
CONTINUOUS
10
5.28876
20
-2.99885
11
5.28663
21
-3.00204
0
LINE
8
BLACK
6
CONTINUOUS
10
5.28663
20
-3.00204
11
5.28343
21
-3.00417
0
LINE
8
BLACK
6
CONTINUOUS
10
5.28343
20
-3.00417
11
5.27967
21
-3.00492
0
LINE
8
BLACK
6
CONTINUOUS
10
5.27967
20
-3.00492
11
5.25998
21
-3.00492
0
LINE
8
BLACK
6
CONTINUOUS
10
5.25998
20
-3.00492
11
5.25621
21
-3.00417
0
LINE
8
BLACK
6
CONTINUOUS
10
5.25621
20
-3.00417
11
5.25302
21
-3.00204
0
LINE
8
BLACK
6
CONTINUOUS
10
5.25302
20
-3.00204
11
5.25089
21
-2.99885
0
LINE
8
BLACK
6
CONTINUOUS
10
5.25089
20
-2.99885
11
5.25014
21
-2.99508
0
LINE
8
BLACK
6
CONTINUOUS
10
5.25014
20
-2.99508
11
5.25014
21
-2.90846
0
LINE
8
BLACK
6
CONTINUOUS
10
5.25014
20
-2.90846
11
5.25089
21
-2.9047
0
LINE
8
BLACK
6
CONTINUOUS
10
5.25089
20
-2.9047
11
5.25302
21
-2.9015
0
LINE
8
BLACK
6
CONTINUOUS
10
5.25302
20
-2.9015
11
5.25621
21
-2.89937
0
LINE
8
BLACK
6
CONTINUOUS
10
5.25621
20
-2.89937
11
5.25998
21
-2.89862
0
LINE
8
BLACK
6
CONTINUOUS
10
5.25998
20
-2.89862
11
5.27967
21
-2.89862
0
LINE
8
BLACK
6
CONTINUOUS
10
5.27967
20
-2.89862
11
5.28343
21
-2.89937
  0
ENDSEC
  0
EOF
