  0
SECTION
  2
HEADER
  9
$ANGBASE
  50
0.0
  9
$ANGDIR
  70
1
  9
$MEASUREMENT
  70
0
  0
ENDSEC
  0
SECTION
  2
TABLES
  0
TABLE
  2
LTYPE
  70
4
  0
LTYPE
  5
40F
  2
CONTINUOUS
  70
0
  3
Solid line
  72
65
  73
0
  40
0.0
  0
LTYPE
  5
410
  2
DASHDOT
 70
0
  3
Dash Dot ____ _ ____ _
 72
65
 73
4
 40
2.0
 49
1.25
 49
-0.25
 49
0.25
 49
-0.25
  0
LTYPE
  5
411
  2
DASHED
 70
0
  3
Dashed __ __ __ __ __
 72
65
 73
2
 40
0.75
 49
0.5
 49
-0.25
  0
LTYPE
  5
43B
  2
DOTTED
 70
0
  3
Dotted .  .  .  .
 72
65
 73
2
 40
0.2
 49
0.0
 49
-0.2
  0
ENDTAB
  0
TABLE
  2
STYLE
  70
4
  0
STYLE
  2
KICAD
  70
0
  40
0
  41
1
  42
1
  50
0
  71
0
  3
isocp.shx
  0
STYLE
  2
KICADB
  70
0
  40
0
  41
1
  42
1
  50
0
  71
0
  3
isocp.shx
  0
STYLE
  2
KICADI
  70
0
  40
0
  41
1
  42
1
  50
15
  71
0
  3
isocp.shx
  0
STYLE
  2
KICADBI
  70
0
  40
0
  41
1
  42
1
  50
15
  71
0
  3
isocp.shx
  0
ENDTAB
  0
TABLE
  2
LAYER
  70
1
  0
LAYER
  2
BLACK
  70
0
  62
7
  6
CONTINUOUS
  0
ENDTAB
  0
ENDSEC
  0
SECTION
  2
ENTITIES
0
LINE
8
BLACK
6
CONTINUOUS
10
6.4294514566929131
20
-4.5998780708661418
11
6.4299841338582677
21
-4.6004107480314955
0
LINE
8
BLACK
6
CONTINUOUS
10
6.4299841338582677
20
-4.6004107480314955
11
6.43005905511811
21
-4.6007874015748031
0
LINE
8
BLACK
6
CONTINUOUS
10
6.43005905511811
20
-4.6007874015748031
11
6.43005905511811
21
-4.8527559055118106
0
LINE
8
BLACK
6
CONTINUOUS
10
6.43005905511811
20
-4.8527559055118106
11
6.4299841338582677
21
-4.8531325590551182
0
LINE
8
BLACK
6
CONTINUOUS
10
6.4299841338582677
20
-4.8531325590551182
11
6.4294514566929131
21
-4.853665236220472
0
LINE
8
BLACK
6
CONTINUOUS
10
6.4294514566929131
20
-4.853665236220472
11
6.4290748031496063
21
-4.8537401574803152
0
LINE
8
BLACK
6
CONTINUOUS
10
6.4290748031496063
20
-4.8537401574803152
11
6.0574212598425197
21
-4.8537401574803152
0
LINE
8
BLACK
6
CONTINUOUS
10
6.0574212598425197
20
-4.8537401574803152
11
6.057044606299212
21
-4.853665236220472
0
LINE
8
BLACK
6
CONTINUOUS
10
6.057044606299212
20
-4.853665236220472
11
6.0565119291338583
21
-4.8531325590551182
0
LINE
8
BLACK
6
CONTINUOUS
10
6.0565119291338583
20
-4.8531325590551182
11
6.056437007874016
21
-4.8527559055118106
0
LINE
8
BLACK
6
CONTINUOUS
10
6.056437007874016
20
-4.8527559055118106
11
6.056437007874016
21
-4.6007874015748031
0
LINE
8
BLACK
6
CONTINUOUS
10
6.056437007874016
20
-4.6007874015748031
11
6.0565119291338583
21
-4.6004107480314955
0
LINE
8
BLACK
6
CONTINUOUS
10
6.0565119291338583
20
-4.6004107480314955
11
6.057044606299212
21
-4.5998780708661418
0
LINE
8
BLACK
6
CONTINUOUS
10
6.057044606299212
20
-4.5998780708661418
11
6.0574212598425197
21
-4.5998031496062994
0
LINE
8
BLACK
6
CONTINUOUS
10
6.0574212598425197
20
-4.5998031496062994
11
6.4290748031496063
21
-4.5998031496062994
0
LINE
8
BLACK
6
CONTINUOUS
10
6.4290748031496063
20
-4.5998031496062994
11
6.4294514566929131
21
-4.5998780708661418
0
LINE
8
BLACK
6
CONTINUOUS
10
6.0584055118110234
20
-4.6017716535433069
11
6.0584055118110234
21
-4.8517716535433069
0
LINE
8
BLACK
6
CONTINUOUS
10
6.0584055118110234
20
-4.8517716535433069
11
6.4280905511811026
21
-4.8517716535433069
0
LINE
8
BLACK
6
CONTINUOUS
10
6.4280905511811026
20
-4.8517716535433069
11
6.4280905511811026
21
-4.6017716535433069
0
LINE
8
BLACK
6
CONTINUOUS
10
6.4280905511811026
20
-4.6017716535433069
11
6.0584055118110234
21
-4.6017716535433069
0
LINE
8
BLACK
6
CONTINUOUS
10
5.8791364960629924
20
-4.5980276771653541
11
5.8796691732283461
21
-4.5985603543307088
0
LINE
8
BLACK
6
CONTINUOUS
10
5.8796691732283461
20
-4.5985603543307088
11
5.8797440944881885
21
-4.5989370078740155
0
LINE
8
BLACK
6
CONTINUOUS
10
5.8797440944881885
20
-4.5989370078740155
11
5.8797440944881885
21
-4.8509055118110238
0
LINE
8
BLACK
6
CONTINUOUS
10
5.8797440944881885
20
-4.8509055118110238
11
5.8796691732283461
21
-4.8512821653543305
0
LINE
8
BLACK
6
CONTINUOUS
10
5.8796691732283461
20
-4.8512821653543305
11
5.8791364960629924
21
-4.8518148425196852
0
LINE
8
BLACK
6
CONTINUOUS
10
5.8791364960629924
20
-4.8518148425196852
11
5.8787598425196848
21
-4.8518897637795275
0
LINE
8
BLACK
6
CONTINUOUS
10
5.8787598425196848
20
-4.8518897637795275
11
5.211043307086614
21
-4.8518897637795275
0
LINE
8
BLACK
6
CONTINUOUS
10
5.211043307086614
20
-4.8518897637795275
11
5.2106666535433073
21
-4.8518148425196852
0
LINE
8
BLACK
6
CONTINUOUS
10
5.2106666535433073
20
-4.8518148425196852
11
5.2101339763779526
21
-4.8512821653543305
0
LINE
8
BLACK
6
CONTINUOUS
10
5.2101339763779526
20
-4.8512821653543305
11
5.2100590551181103
21
-4.8509055118110238
0
LINE
8
BLACK
6
CONTINUOUS
10
5.2100590551181103
20
-4.8509055118110238
11
5.2100590551181103
21
-4.5989370078740155
0
LINE
8
BLACK
6
CONTINUOUS
10
5.2100590551181103
20
-4.5989370078740155
11
5.2101339763779526
21
-4.5985603543307088
0
LINE
8
BLACK
6
CONTINUOUS
10
5.2101339763779526
20
-4.5985603543307088
11
5.2106666535433073
21
-4.5980276771653541
0
LINE
8
BLACK
6
CONTINUOUS
10
5.2106666535433073
20
-4.5980276771653541
11
5.211043307086614
21
-4.5979527559055118
0
LINE
8
BLACK
6
CONTINUOUS
10
5.211043307086614
20
-4.5979527559055118
11
5.8787598425196848
21
-4.5979527559055118
0
LINE
8
BLACK
6
CONTINUOUS
10
5.8787598425196848
20
-4.5979527559055118
11
5.8791364960629924
21
-4.5980276771653541
0
LINE
8
BLACK
6
CONTINUOUS
10
5.2120275590551177
20
-4.5999212598425192
11
5.2120275590551177
21
-4.8499212598425192
0
LINE
8
BLACK
6
CONTINUOUS
10
5.2120275590551177
20
-4.8499212598425192
11
5.877775590551181
21
-4.8499212598425192
0
LINE
8
BLACK
6
CONTINUOUS
10
5.877775590551181
20
-4.8499212598425192
11
5.877775590551181
21
-4.5999212598425192
0
LINE
8
BLACK
6
CONTINUOUS
10
5.877775590551181
20
-4.5999212598425192
11
5.2120275590551177
21
-4.5999212598425192
0
LINE
8
BLACK
6
CONTINUOUS
10
6.0391758661417319
20
-4.5574764960629919
11
6.0397085433070865
21
-4.5580091732283465
0
LINE
8
BLACK
6
CONTINUOUS
10
6.0397085433070865
20
-4.5580091732283465
11
6.0397834645669288
21
-4.5583858267716533
0
LINE
8
BLACK
6
CONTINUOUS
10
6.0397834645669288
20
-4.5583858267716533
11
6.0397834645669288
21
-4.833976377952756
0
LINE
8
BLACK
6
CONTINUOUS
10
6.0397834645669288
20
-4.833976377952756
11
6.0397085433070865
21
-4.8343530314960628
0
LINE
8
BLACK
6
CONTINUOUS
10
6.0397085433070865
20
-4.8343530314960628
11
6.0391758661417319
21
-4.8348857086614174
0
LINE
8
BLACK
6
CONTINUOUS
10
6.0391758661417319
20
-4.8348857086614174
11
6.0387992125984251
21
-4.8349606299212597
0
LINE
8
BLACK
6
CONTINUOUS
10
6.0387992125984251
20
-4.8349606299212597
11
5.9010039370078742
21
-4.8349606299212597
0
LINE
8
BLACK
6
CONTINUOUS
10
5.9010039370078742
20
-4.8349606299212597
11
5.9006272834645666
21
-4.8348857086614174
0
LINE
8
BLACK
6
CONTINUOUS
10
5.9006272834645666
20
-4.8348857086614174
11
5.9000946062992128
21
-4.8343530314960628
0
LINE
8
BLACK
6
CONTINUOUS
10
5.9000946062992128
20
-4.8343530314960628
11
5.9000196850393696
21
-4.833976377952756
0
LINE
8
BLACK
6
CONTINUOUS
10
5.9000196850393696
20
-4.833976377952756
11
5.9000196850393696
21
-4.5583858267716533
0
LINE
8
BLACK
6
CONTINUOUS
10
5.9000196850393696
20
-4.5583858267716533
11
5.9000946062992128
21
-4.5580091732283465
0
LINE
8
BLACK
6
CONTINUOUS
10
5.9000946062992128
20
-4.5580091732283465
11
5.9006272834645666
21
-4.5574764960629919
0
LINE
8
BLACK
6
CONTINUOUS
10
5.9006272834645666
20
-4.5574764960629919
11
5.9010039370078742
21
-4.5574015748031496
0
LINE
8
BLACK
6
CONTINUOUS
10
5.9010039370078742
20
-4.5574015748031496
11
6.0387992125984251
21
-4.5574015748031496
0
LINE
8
BLACK
6
CONTINUOUS
10
6.0387992125984251
20
-4.5574015748031496
11
6.0391758661417319
21
-4.5574764960629919
0
LINE
8
BLACK
6
CONTINUOUS
10
5.9019881889763779
20
-4.559370078740157
11
5.9019881889763779
21
-4.8329921259842514
0
LINE
8
BLACK
6
CONTINUOUS
10
5.9019881889763779
20
-4.8329921259842514
11
6.0378149606299214
21
-4.8329921259842514
0
LINE
8
BLACK
6
CONTINUOUS
10
6.0378149606299214
20
-4.8329921259842514
11
6.0378149606299214
21
-4.559370078740157
0
LINE
8
BLACK
6
CONTINUOUS
10
6.0378149606299214
20
-4.559370078740157
11
5.9019881889763779
21
-4.559370078740157
0
LINE
8
BLACK
6
CONTINUOUS
10
5.6467742913385823
20
-3.801708779527559
11
5.647306968503937
21
-3.8022414566929132
0
LINE
8
BLACK
6
CONTINUOUS
10
5.647306968503937
20
-3.8022414566929132
11
5.6473818897637793
21
-3.8026181102362204
0
LINE
8
BLACK
6
CONTINUOUS
10
5.6473818897637793
20
-3.8026181102362204
11
5.6473818897637793
21
-4.452224409448819
0
LINE
8
BLACK
6
CONTINUOUS
10
5.6473818897637793
20
-4.452224409448819
11
5.647306968503937
21
-4.4526010629921258
0
LINE
8
BLACK
6
CONTINUOUS
10
5.647306968503937
20
-4.4526010629921258
11
5.6467742913385823
21
-4.4531337401574804
0
LINE
8
BLACK
6
CONTINUOUS
10
5.6467742913385823
20
-4.4531337401574804
11
5.6463976377952756
21
-4.4532086614173227
0
LINE
8
BLACK
6
CONTINUOUS
10
5.6463976377952756
20
-4.4532086614173227
11
5.0834055118110237
21
-4.4532086614173227
0
LINE
8
BLACK
6
CONTINUOUS
10
5.0834055118110237
20
-4.4532086614173227
11
5.0830288582677161
21
-4.4531337401574804
0
LINE
8
BLACK
6
CONTINUOUS
10
5.0830288582677161
20
-4.4531337401574804
11
5.0824961811023623
21
-4.4526010629921258
0
LINE
8
BLACK
6
CONTINUOUS
10
5.0824961811023623
20
-4.4526010629921258
11
5.0824212598425191
21
-4.452224409448819
0
LINE
8
BLACK
6
CONTINUOUS
10
5.0824212598425191
20
-4.452224409448819
11
5.0824212598425191
21
-3.8026181102362204
0
LINE
8
BLACK
6
CONTINUOUS
10
5.0824212598425191
20
-3.8026181102362204
11
5.0824961811023623
21
-3.8022414566929132
0
LINE
8
BLACK
6
CONTINUOUS
10
5.0824961811023623
20
-3.8022414566929132
11
5.0830288582677161
21
-3.801708779527559
0
LINE
8
BLACK
6
CONTINUOUS
10
5.0830288582677161
20
-3.801708779527559
11
5.0834055118110237
21
-3.8016338582677163
0
LINE
8
BLACK
6
CONTINUOUS
10
5.0834055118110237
20
-3.8016338582677163
11
5.6463976377952756
21
-3.8016338582677163
0
LINE
8
BLACK
6
CONTINUOUS
10
5.6463976377952756
20
-3.8016338582677163
11
5.6467742913385823
21
-3.801708779527559
0
LINE
8
BLACK
6
CONTINUOUS
10
5.0843897637795274
20
-3.8036023622047241
11
5.0843897637795274
21
-4.4512401574803144
0
LINE
8
BLACK
6
CONTINUOUS
10
5.0843897637795274
20
-4.4512401574803144
11
5.6454133858267719
21
-4.4512401574803144
0
LINE
8
BLACK
6
CONTINUOUS
10
5.6454133858267719
20
-4.4512401574803144
11
5.6454133858267719
21
-3.8036023622047241
0
LINE
8
BLACK
6
CONTINUOUS
10
5.6454133858267719
20
-3.8036023622047241
11
5.0843897637795274
21
-3.8036023622047241
0
LINE
8
BLACK
6
CONTINUOUS
10
6.564849015748031
20
-4.0669668503937011
11
6.5817267716535435
21
-4.0686252362204725
0
LINE
8
BLACK
6
CONTINUOUS
10
6.5817267716535435
20
-4.0686252362204725
11
6.5983867322834646
21
-4.0717960236220474
0
LINE
8
BLACK
6
CONTINUOUS
10
6.5983867322834646
20
-4.0717960236220474
11
6.6146936220472439
21
-4.0764535826771651
0
LINE
8
BLACK
6
CONTINUOUS
10
6.6146936220472439
20
-4.0764535826771651
11
6.6305151181102362
21
-4.08256
0
LINE
8
BLACK
6
CONTINUOUS
10
6.6305151181102362
20
-4.08256
11
6.6457227165354329
21
-4.0900657874015751
0
LINE
8
BLACK
6
CONTINUOUS
10
6.6457227165354329
20
-4.0900657874015751
11
6.6601929921259844
21
-4.0989099606299213
0
LINE
8
BLACK
6
CONTINUOUS
10
6.6601929921259844
20
-4.0989099606299213
11
6.6738084251968504
21
-4.1090207480314955
0
LINE
8
BLACK
6
CONTINUOUS
10
6.6738084251968504
20
-4.1090207480314955
11
6.6864585039370077
21
-4.1203159842519685
0
LINE
8
BLACK
6
CONTINUOUS
10
6.6864585039370077
20
-4.1203159842519685
11
6.6980405511811023
21
-4.1327040944881892
0
LINE
8
BLACK
6
CONTINUOUS
10
6.6980405511811023
20
-4.1327040944881892
11
6.7081372440944884
21
-4.1456692913385824
0
LINE
8
BLACK
6
CONTINUOUS
10
6.7081372440944884
20
-4.1456692913385824
11
6.8009645669291334
21
-4.1456692913385824
0
LINE
8
BLACK
6
CONTINUOUS
10
6.8009645669291334
20
-4.1456692913385824
11
6.8013412204724411
21
-4.1457442125984247
0
LINE
8
BLACK
6
CONTINUOUS
10
6.8013412204724411
20
-4.1457442125984247
11
6.8018738976377948
21
-4.1462768897637794
0
LINE
8
BLACK
6
CONTINUOUS
10
6.8018738976377948
20
-4.1462768897637794
11
6.801948818897638
21
-4.1466535433070861
0
LINE
8
BLACK
6
CONTINUOUS
10
6.801948818897638
20
-4.1466535433070861
11
6.801948818897638
21
-4.3631889763779528
0
LINE
8
BLACK
6
CONTINUOUS
10
6.801948818897638
20
-4.3631889763779528
11
6.8018738976377948
21
-4.3635656299212595
0
LINE
8
BLACK
6
CONTINUOUS
10
6.8018738976377948
20
-4.3635656299212595
11
6.8013412204724411
21
-4.3640983070866142
0
LINE
8
BLACK
6
CONTINUOUS
10
6.8013412204724411
20
-4.3640983070866142
11
6.8009645669291334
21
-4.3641732283464565
0
LINE
8
BLACK
6
CONTINUOUS
10
6.8009645669291334
20
-4.3641732283464565
11
6.7081635433070863
21
-4.3641732283464565
0
LINE
8
BLACK
6
CONTINUOUS
10
6.7081635433070863
20
-4.3641732283464565
11
6.6977312204724404
21
-4.3774998031496066
0
LINE
8
BLACK
6
CONTINUOUS
10
6.6977312204724404
20
-4.3774998031496066
11
6.6861179133858268
21
-4.3898585433070867
0
LINE
8
BLACK
6
CONTINUOUS
10
6.6861179133858268
20
-4.3898585433070867
11
6.6734393307086615
21
-4.4011218110236223
0
LINE
8
BLACK
6
CONTINUOUS
10
6.6734393307086615
20
-4.4011218110236223
11
6.6597983858267717
21
-4.4111981496062995
0
LINE
8
BLACK
6
CONTINUOUS
10
6.6597983858267717
20
-4.4111981496062995
11
6.6453057874015746
21
-4.4200057086614173
0
LINE
8
BLACK
6
CONTINUOUS
10
6.6453057874015746
20
-4.4200057086614173
11
6.6300792913385829
21
-4.4274730314960626
0
LINE
8
BLACK
6
CONTINUOUS
10
6.6300792913385829
20
-4.4274730314960626
11
6.6142424015748027
21
-4.433539488188976
0
LINE
8
BLACK
6
CONTINUOUS
10
6.6142424015748027
20
-4.433539488188976
11
6.5979237795275587
21
-4.4381557874015751
0
LINE
8
BLACK
6
CONTINUOUS
10
6.5979237795275587
20
-4.4381557874015751
11
6.5812558661417322
21
-4.4412844881889759
0
LINE
8
BLACK
6
CONTINUOUS
10
6.5812558661417322
20
-4.4412844881889759
11
6.5643740157480313
21
-4.4429001968503936
0
LINE
8
BLACK
6
CONTINUOUS
10
6.5643740157480313
20
-4.4429001968503936
11
6.5474152362204725
21
-4.4429897637795275
0
LINE
8
BLACK
6
CONTINUOUS
10
6.5474152362204725
20
-4.4429897637795275
11
6.5305172440944883
21
-4.4415524803149609
0
LINE
8
BLACK
6
CONTINUOUS
10
6.5305172440944883
20
-4.4415524803149609
11
6.5138172047244094
21
-4.4386000000000001
0
LINE
8
BLACK
6
CONTINUOUS
10
6.5138172047244094
20
-4.4386000000000001
11
6.4974507086614173
21
-4.4341562992125985
0
LINE
8
BLACK
6
CONTINUOUS
10
6.4974507086614173
20
-4.4341562992125985
11
6.4815506692913383
21
-4.4282574803149606
0
LINE
8
BLACK
6
CONTINUOUS
10
6.4815506692913383
20
-4.4282574803149606
11
6.4662461023622049
21
-4.4209514173228346
0
LINE
8
BLACK
6
CONTINUOUS
10
6.4662461023622049
20
-4.4209514173228346
11
6.4516612992125983
21
-4.4122974015748033
0
LINE
8
BLACK
6
CONTINUOUS
10
6.4516612992125983
20
-4.4122974015748033
11
6.4379146850393703
21
-4.4023657480314959
0
LINE
8
BLACK
6
CONTINUOUS
10
6.4379146850393703
20
-4.4023657480314959
11
6.4251178346456692
21
-4.3912370078740155
0
LINE
8
BLACK
6
CONTINUOUS
10
6.4251178346456692
20
-4.3912370078740155
11
6.4133746456692915
21
-4.3790016141732284
0
LINE
8
BLACK
6
CONTINUOUS
10
6.4133746456692915
20
-4.3790016141732284
11
6.4027804330708662
21
-4.3657588188976373
0
LINE
8
BLACK
6
CONTINUOUS
10
6.4027804330708662
20
-4.3657588188976373
11
6.39342125984252
21
-4.3516162204724411
0
LINE
8
BLACK
6
CONTINUOUS
10
6.39342125984252
20
-4.3516162204724411
11
6.3853730708661418
21
-4.3366885433070861
0
LINE
8
BLACK
6
CONTINUOUS
10
6.3853730708661418
20
-4.3366885433070861
11
6.3787012204724407
21
-4.3210970866141727
0
LINE
8
BLACK
6
CONTINUOUS
10
6.3787012204724407
20
-4.3210970866141727
11
6.3734598818897634
21
-4.3049683464566932
0
LINE
8
BLACK
6
CONTINUOUS
10
6.3734598818897634
20
-4.3049683464566932
11
6.3696915748031495
21
-4.2884333070866143
0
LINE
8
BLACK
6
CONTINUOUS
10
6.3696915748031495
20
-4.2884333070866143
11
6.3674268897637791
21
-4.2716261811023619
0
LINE
8
BLACK
6
CONTINUOUS
10
6.3674268897637791
20
-4.2716261811023619
11
6.3666842913385828
21
-4.2546834251968502
0
LINE
8
BLACK
6
CONTINUOUS
10
6.3666842913385828
20
-4.2546834251968502
11
6.3674697244094487
21
-4.2377425984251964
0
LINE
8
BLACK
6
CONTINUOUS
10
6.3674697244094487
20
-4.2377425984251964
11
6.3697768503937002
21
-4.2209412598425198
0
LINE
8
BLACK
6
CONTINUOUS
10
6.3697768503937002
20
-4.2209412598425198
11
6.3735869291338583
21
-4.2044157874015751
0
LINE
8
BLACK
6
CONTINUOUS
10
6.3735869291338583
20
-4.2044157874015751
11
6.3788690157480312
21
-4.1883003543307087
0
LINE
8
BLACK
6
CONTINUOUS
10
6.3788690157480312
20
-4.1883003543307087
11
6.3855802755905513
21
-4.1727257874015748
0
LINE
8
BLACK
6
CONTINUOUS
10
6.3855802755905513
20
-4.1727257874015748
11
6.3936661417322833
21
-4.1578185039370075
0
LINE
8
BLACK
6
CONTINUOUS
10
6.3936661417322833
20
-4.1578185039370075
11
6.4030610236220467
21
-4.1436996062992124
0
LINE
8
BLACK
6
CONTINUOUS
10
6.4030610236220467
20
-4.1436996062992124
11
6.4136886614173223
21
-4.1304836614173226
0
LINE
8
BLACK
6
CONTINUOUS
10
6.4136886614173223
20
-4.1304836614173226
11
6.425462755905512
21
-4.1182779527559052
0
LINE
8
BLACK
6
CONTINUOUS
10
6.425462755905512
20
-4.1182779527559052
11
6.4382876771653539
21
-4.1071816141732285
0
LINE
8
BLACK
6
CONTINUOUS
10
6.4382876771653539
20
-4.1071816141732285
11
6.4520593700787403
21
-4.0972846850393703
0
LINE
8
BLACK
6
CONTINUOUS
10
6.4520593700787403
20
-4.0972846850393703
11
6.4666659842519687
21
-4.0886675590551178
0
LINE
8
BLACK
6
CONTINUOUS
10
6.4666659842519687
20
-4.0886675590551178
11
6.481988976377953
21
-4.0814001968503932
0
LINE
8
BLACK
6
CONTINUOUS
10
6.481988976377953
20
-4.0814001968503932
11
6.4979038582677164
21
-4.0755415748031494
0
LINE
8
BLACK
6
CONTINUOUS
10
6.4979038582677164
20
-4.0755415748031494
11
6.5142815354330708
21
-4.0711392913385822
0
LINE
8
BLACK
6
CONTINUOUS
10
6.5142815354330708
20
-4.0711392913385822
11
6.5309889763779525
21
-4.068229015748031
0
LINE
8
BLACK
6
CONTINUOUS
10
6.5309889763779525
20
-4.068229015748031
11
6.5478905511811023
21
-4.0668344488188977
0
LINE
8
BLACK
6
CONTINUOUS
10
6.5478905511811023
20
-4.0668344488188977
11
6.564849015748031
21
-4.0669668503937011
0
LINE
8
BLACK
6
CONTINUOUS
10
6.5395704724409445
20
-4.0691160236220467
11
6.5229080314960628
21
-4.0712502362204726
0
LINE
8
BLACK
6
CONTINUOUS
10
6.5229080314960628
20
-4.0712502362204726
11
6.5065053543307085
21
-4.0748756299212596
0
LINE
8
BLACK
6
CONTINUOUS
10
6.5065053543307085
20
-4.0748756299212596
11
6.4904955905511805
21
-4.0799627165354329
0
LINE
8
BLACK
6
CONTINUOUS
10
6.4904955905511805
20
-4.0799627165354329
11
6.4750087007874013
21
-4.0864702362204728
0
LINE
8
BLACK
6
CONTINUOUS
10
6.4750087007874013
20
-4.0864702362204728
11
6.460170433070866
21
-4.0943453149606297
0
LINE
8
BLACK
6
CONTINUOUS
10
6.460170433070866
20
-4.0943453149606297
11
6.4461012204724408
21
-4.1035240551181102
0
LINE
8
BLACK
6
CONTINUOUS
10
6.4461012204724408
20
-4.1035240551181102
11
6.4329153543307083
21
-4.1139319291338579
0
LINE
8
BLACK
6
CONTINUOUS
10
6.4329153543307083
20
-4.1139319291338579
11
6.4207198425196852
21
-4.1254844488188978
0
LINE
8
BLACK
6
CONTINUOUS
10
6.4207198425196852
20
-4.1254844488188978
11
6.4096136614173229
21
-4.1380878346456695
0
LINE
8
BLACK
6
CONTINUOUS
10
6.4096136614173229
20
-4.1380878346456695
11
6.3996870472440941
21
-4.1516397244094483
0
LINE
8
BLACK
6
CONTINUOUS
10
6.3996870472440941
20
-4.1516397244094483
11
6.3910205511811018
21
-4.1660300787401576
0
LINE
8
BLACK
6
CONTINUOUS
10
6.3910205511811018
20
-4.1660300787401576
11
6.3836845669291336
21
-4.1811421653543306
0
LINE
8
BLACK
6
CONTINUOUS
10
6.3836845669291336
20
-4.1811421653543306
11
6.3777385826771651
21
-4.1968531889763776
0
LINE
8
BLACK
6
CONTINUOUS
10
6.3777385826771651
20
-4.1968531889763776
11
6.3732309448818896
21
-4.2130356692913384
0
LINE
8
BLACK
6
CONTINUOUS
10
6.3732309448818896
20
-4.2130356692913384
11
6.3701981889763779
21
-4.2295581889763776
0
LINE
8
BLACK
6
CONTINUOUS
10
6.3701981889763779
20
-4.2295581889763776
11
6.3686649606299213
21
-4.246286653543307
0
LINE
8
BLACK
6
CONTINUOUS
10
6.3686649606299213
20
-4.246286653543307
11
6.3686437401574798
21
-4.263085196850394
0
LINE
8
BLACK
6
CONTINUOUS
10
6.3686437401574798
20
-4.263085196850394
11
6.3701346850393703
21
-4.2798174409448819
0
LINE
8
BLACK
6
CONTINUOUS
10
6.3701346850393703
20
-4.2798174409448819
11
6.3731256692913387
21
-4.2963475984251964
0
LINE
8
BLACK
6
CONTINUOUS
10
6.3731256692913387
20
-4.2963475984251964
11
6.3775924015748027
21
-4.3125414173228345
0
LINE
8
BLACK
6
CONTINUOUS
10
6.3775924015748027
20
-4.3125414173228345
11
6.3834986220472443
21
-4.3282674409448818
0
LINE
8
BLACK
6
CONTINUOUS
10
6.3834986220472443
20
-4.3282674409448818
11
6.3907964173228349
21
-4.3433979921259844
0
LINE
8
BLACK
6
CONTINUOUS
10
6.3907964173228349
20
-4.3433979921259844
11
6.3994265354330704
21
-4.3578102362204723
0
LINE
8
BLACK
6
CONTINUOUS
10
6.3994265354330704
20
-4.3578102362204723
11
6.4093188582677163
21
-4.3713871653543306
0
LINE
8
BLACK
6
CONTINUOUS
10
6.4093188582677163
20
-4.3713871653543306
11
6.4203931496062987
21
-4.3840185433070866
0
LINE
8
BLACK
6
CONTINUOUS
10
6.4203931496062987
20
-4.3840185433070866
11
6.4325594488188971
21
-4.3956018503937004
0
LINE
8
BLACK
6
CONTINUOUS
10
6.4325594488188971
20
-4.3956018503937004
11
6.445718976377953
21
-4.406043031496063
0
LINE
8
BLACK
6
CONTINUOUS
10
6.445718976377953
20
-4.406043031496063
11
6.4597649212598425
21
-4.4152572834645669
0
LINE
8
BLACK
6
CONTINUOUS
10
6.4597649212598425
20
-4.4152572834645669
11
6.4745832283464564
21
-4.4231698425196848
0
LINE
8
BLACK
6
CONTINUOUS
10
6.4745832283464564
20
-4.4231698425196848
11
6.4900536220472436
21
-4.4297164960629924
0
LINE
8
BLACK
6
CONTINUOUS
10
6.4900536220472436
20
-4.4297164960629924
11
6.5060505118110239
21
-4.4348440157480313
0
LINE
8
BLACK
6
CONTINUOUS
10
6.5060505118110239
20
-4.4348440157480313
11
6.5224439763779527
21
-4.4385108267716538
0
LINE
8
BLACK
6
CONTINUOUS
10
6.5224439763779527
20
-4.4385108267716538
11
6.5391009448818895
21
-4.4406871653543307
0
LINE
8
BLACK
6
CONTINUOUS
10
6.5391009448818895
20
-4.4406871653543307
11
6.5558862204724404
21
-4.4413553149606297
0
LINE
8
BLACK
6
CONTINUOUS
10
6.5558862204724404
20
-4.4413553149606297
11
6.5726634645669293
21
-4.4405098818897635
0
LINE
8
BLACK
6
CONTINUOUS
10
6.5726634645669293
20
-4.4405098818897635
11
6.5892965354330704
21
-4.4381577559055119
0
LINE
8
BLACK
6
CONTINUOUS
10
6.5892965354330704
20
-4.4381577559055119
11
6.6056503543307086
21
-4.4343179921259841
0
LINE
8
BLACK
6
CONTINUOUS
10
6.6056503543307086
20
-4.4343179921259841
11
6.6215922047244096
21
-4.4290217716535434
0
LINE
8
BLACK
6
CONTINUOUS
10
6.6215922047244096
20
-4.4290217716535434
11
6.636992559055118
21
-4.4223120866141734
0
LINE
8
BLACK
6
CONTINUOUS
10
6.636992559055118
20
-4.4223120866141734
11
6.6517264960629916
21
-4.4142434645669288
0
LINE
8
BLACK
6
CONTINUOUS
10
6.6517264960629916
20
-4.4142434645669288
11
6.6656743307086614
21
-4.4048813385826771
0
LINE
8
BLACK
6
CONTINUOUS
10
6.6656743307086614
20
-4.4048813385826771
11
6.6787228346456695
21
-4.3943017322834645
0
LINE
8
BLACK
6
CONTINUOUS
10
6.6787228346456695
20
-4.3943017322834645
11
6.6907661023622049
21
-4.3825905905511808
0
LINE
8
BLACK
6
CONTINUOUS
10
6.6907661023622049
20
-4.3825905905511808
11
6.7017063385826772
21
-4.3698429133858268
0
LINE
8
BLACK
6
CONTINUOUS
10
6.7017063385826772
20
-4.3698429133858268
11
6.7065818110236215
21
-4.3630035039370076
0
LINE
8
BLACK
6
CONTINUOUS
10
6.7065818110236215
20
-4.3630035039370076
11
6.7067481496062991
21
-4.3628802755905509
0
LINE
8
BLACK
6
CONTINUOUS
10
6.7067481496062991
20
-4.3628802755905509
11
6.7067481496062991
21
-4.3628123228346452
0
LINE
8
BLACK
6
CONTINUOUS
10
6.7067481496062991
20
-4.3628123228346452
11
6.7072808267716537
21
-4.3622796456692914
0
LINE
8
BLACK
6
CONTINUOUS
10
6.7072808267716537
20
-4.3622796456692914
11
6.7076574803149605
21
-4.3622047244094491
0
LINE
8
BLACK
6
CONTINUOUS
10
6.7076574803149605
20
-4.3622047244094491
11
6.7999803149606297
21
-4.3622047244094491
0
LINE
8
BLACK
6
CONTINUOUS
10
6.7999803149606297
20
-4.3622047244094491
11
6.7999803149606297
21
-4.1476377952755907
0
LINE
8
BLACK
6
CONTINUOUS
10
6.7999803149606297
20
-4.1476377952755907
11
6.7076574803149605
21
-4.1476377952755907
0
LINE
8
BLACK
6
CONTINUOUS
10
6.7076574803149605
20
-4.1476377952755907
11
6.7074003937007873
21
-4.147586653543307
0
LINE
8
BLACK
6
CONTINUOUS
10
6.7074003937007873
20
-4.147586653543307
11
6.7073423622047246
21
-4.1475859842519682
0
LINE
8
BLACK
6
CONTINUOUS
10
6.7073423622047246
20
-4.1475859842519682
11
6.7073224409448819
21
-4.1475711417322838
0
LINE
8
BLACK
6
CONTINUOUS
10
6.7073224409448819
20
-4.1475711417322838
11
6.7072808267716537
21
-4.1475628740157475
0
LINE
8
BLACK
6
CONTINUOUS
10
6.7072808267716537
20
-4.1475628740157475
11
6.7071918503937002
21
-4.1474738976377949
0
LINE
8
BLACK
6
CONTINUOUS
10
6.7071918503937002
20
-4.1474738976377949
11
6.7068544881889762
21
-4.1472226771653542
0
LINE
8
BLACK
6
CONTINUOUS
10
6.7068544881889762
20
-4.1472226771653542
11
6.7019962992125981
21
-4.1403709842519687
0
LINE
8
BLACK
6
CONTINUOUS
10
6.7019962992125981
20
-4.1403709842519687
11
6.6910883070866136
21
-4.127595708661417
0
LINE
8
BLACK
6
CONTINUOUS
10
6.6910883070866136
20
-4.127595708661417
11
6.6790746850393701
21
-4.1158541338582673
0
LINE
8
BLACK
6
CONTINUOUS
10
6.6790746850393701
20
-4.1158541338582673
11
6.6660529527559049
21
-4.1052416141732282
0
LINE
8
BLACK
6
CONTINUOUS
10
6.6660529527559049
20
-4.1052416141732282
11
6.652128818897638
21
-4.0958442913385822
0
LINE
8
BLACK
6
CONTINUOUS
10
6.652128818897638
20
-4.0958442913385822
11
6.6374153543307086
21
-4.08773842519685
0
LINE
8
BLACK
6
CONTINUOUS
10
6.6374153543307086
20
-4.08773842519685
11
6.6220319685039373
21
-4.0809898425196849
0
LINE
8
BLACK
6
CONTINUOUS
10
6.6220319685039373
20
-4.0809898425196849
11
6.6061035826771652
21
-4.0756533464566926
0
LINE
8
BLACK
6
CONTINUOUS
10
6.6061035826771652
20
-4.0756533464566926
11
6.589759527559055
21
-4.0717722834645667
0
LINE
8
BLACK
6
CONTINUOUS
10
6.589759527559055
20
-4.0717722834645667
11
6.5731324409448817
21
-4.0693781102362205
0
LINE
8
BLACK
6
CONTINUOUS
10
6.5731324409448817
20
-4.0693781102362205
11
6.5563573622047242
21
-4.068490275590551
0
LINE
8
BLACK
6
CONTINUOUS
10
6.5563573622047242
20
-4.068490275590551
11
6.5395704724409445
21
-4.0691160236220467
0
LINE
8
BLACK
6
CONTINUOUS
10
6.2195914173228344
20
-4.1803881889763774
11
6.220124094488189
21
-4.1809208661417321
0
LINE
8
BLACK
6
CONTINUOUS
10
6.220124094488189
20
-4.1809208661417321
11
6.2201990157480314
21
-4.1812975196850397
0
LINE
8
BLACK
6
CONTINUOUS
10
6.2201990157480314
20
-4.1812975196850397
11
6.2201990157480314
21
-4.3072817716535434
0
LINE
8
BLACK
6
CONTINUOUS
10
6.2201990157480314
20
-4.3072817716535434
11
6.220124094488189
21
-4.3076584251968502
0
LINE
8
BLACK
6
CONTINUOUS
10
6.220124094488189
20
-4.3076584251968502
11
6.2195914173228344
21
-4.3081911023622048
0
LINE
8
BLACK
6
CONTINUOUS
10
6.2195914173228344
20
-4.3081911023622048
11
6.2192147637795276
21
-4.3082660236220471
0
LINE
8
BLACK
6
CONTINUOUS
10
6.2192147637795276
20
-4.3082660236220471
11
6.1089785433070869
21
-4.3082660236220471
0
LINE
8
BLACK
6
CONTINUOUS
10
6.1089785433070869
20
-4.3082660236220471
11
6.1086018897637793
21
-4.3081911023622048
0
LINE
8
BLACK
6
CONTINUOUS
10
6.1086018897637793
20
-4.3081911023622048
11
6.1080692125984255
21
-4.3076584251968502
0
LINE
8
BLACK
6
CONTINUOUS
10
6.1080692125984255
20
-4.3076584251968502
11
6.1079942913385823
21
-4.3072817716535434
0
LINE
8
BLACK
6
CONTINUOUS
10
6.1079942913385823
20
-4.3072817716535434
11
6.1079942913385823
21
-4.1812975196850397
0
LINE
8
BLACK
6
CONTINUOUS
10
6.1079942913385823
20
-4.1812975196850397
11
6.1080692125984255
21
-4.1809208661417321
0
LINE
8
BLACK
6
CONTINUOUS
10
6.1080692125984255
20
-4.1809208661417321
11
6.1086018897637793
21
-4.1803881889763774
0
LINE
8
BLACK
6
CONTINUOUS
10
6.1086018897637793
20
-4.1803881889763774
11
6.1089785433070869
21
-4.1803132677165351
0
LINE
8
BLACK
6
CONTINUOUS
10
6.1089785433070869
20
-4.1803132677165351
11
6.2192147637795276
21
-4.1803132677165351
0
LINE
8
BLACK
6
CONTINUOUS
10
6.2192147637795276
20
-4.1803132677165351
11
6.2195914173228344
21
-4.1803881889763774
0
LINE
8
BLACK
6
CONTINUOUS
10
6.1099627952755906
20
-4.1822817716535434
11
6.1099627952755906
21
-4.3062975196850397
0
LINE
8
BLACK
6
CONTINUOUS
10
6.1099627952755906
20
-4.3062975196850397
11
6.218230511811023
21
-4.3062975196850397
0
LINE
8
BLACK
6
CONTINUOUS
10
6.218230511811023
20
-4.3062975196850397
11
6.218230511811023
21
-4.1822817716535434
0
LINE
8
BLACK
6
CONTINUOUS
10
6.218230511811023
20
-4.1822817716535434
11
6.1099627952755906
21
-4.1822817716535434
0
LINE
8
BLACK
6
CONTINUOUS
10
6.4822073622047238
20
-3.9401142913385825
11
6.4827400393700785
21
-3.9406469685039367
0
LINE
8
BLACK
6
CONTINUOUS
10
6.4827400393700785
20
-3.9406469685039367
11
6.4828149606299208
21
-3.9410236220472439
0
LINE
8
BLACK
6
CONTINUOUS
10
6.4828149606299208
20
-3.9410236220472439
11
6.4828149606299208
21
-4.0788188976377953
0
LINE
8
BLACK
6
CONTINUOUS
10
6.4828149606299208
20
-4.0788188976377953
11
6.4827400393700785
21
-4.079195551181102
0
LINE
8
BLACK
6
CONTINUOUS
10
6.4827400393700785
20
-4.079195551181102
11
6.4822073622047238
21
-4.0797282283464567
0
LINE
8
BLACK
6
CONTINUOUS
10
6.4822073622047238
20
-4.0797282283464567
11
6.4818307086614171
21
-4.079803149606299
0
LINE
8
BLACK
6
CONTINUOUS
10
6.4818307086614171
20
-4.079803149606299
11
6.3479724409448819
21
-4.079803149606299
0
LINE
8
BLACK
6
CONTINUOUS
10
6.3479724409448819
20
-4.079803149606299
11
6.3475957874015743
21
-4.0797282283464567
0
LINE
8
BLACK
6
CONTINUOUS
10
6.3475957874015743
20
-4.0797282283464567
11
6.3470631102362205
21
-4.079195551181102
0
LINE
8
BLACK
6
CONTINUOUS
10
6.3470631102362205
20
-4.079195551181102
11
6.3469881889763782
21
-4.0788188976377953
0
LINE
8
BLACK
6
CONTINUOUS
10
6.3469881889763782
20
-4.0788188976377953
11
6.3469881889763782
21
-3.9410236220472439
0
LINE
8
BLACK
6
CONTINUOUS
10
6.3469881889763782
20
-3.9410236220472439
11
6.3470631102362205
21
-3.9406469685039367
0
LINE
8
BLACK
6
CONTINUOUS
10
6.3470631102362205
20
-3.9406469685039367
11
6.3475957874015743
21
-3.9401142913385825
0
LINE
8
BLACK
6
CONTINUOUS
10
6.3475957874015743
20
-3.9401142913385825
11
6.3479724409448819
21
-3.9400393700787402
0
LINE
8
BLACK
6
CONTINUOUS
10
6.3479724409448819
20
-3.9400393700787402
11
6.4818307086614171
21
-3.9400393700787402
0
LINE
8
BLACK
6
CONTINUOUS
10
6.4818307086614171
20
-3.9400393700787402
11
6.4822073622047238
21
-3.9401142913385825
0
LINE
8
BLACK
6
CONTINUOUS
10
6.3489566929133856
20
-3.942007874015748
11
6.3489566929133856
21
-4.0778346456692915
0
LINE
8
BLACK
6
CONTINUOUS
10
6.3489566929133856
20
-4.0778346456692915
11
6.4808464566929134
21
-4.0778346456692915
0
LINE
8
BLACK
6
CONTINUOUS
10
6.4808464566929134
20
-4.0778346456692915
11
6.4808464566929134
21
-3.942007874015748
0
LINE
8
BLACK
6
CONTINUOUS
10
6.4808464566929134
20
-3.942007874015748
11
6.3489566929133856
21
-3.942007874015748
0
LINE
8
BLACK
6
CONTINUOUS
10
6.7880735039370075
20
-3.8651142913385828
11
6.7886061811023621
21
-3.865646968503937
0
LINE
8
BLACK
6
CONTINUOUS
10
6.7886061811023621
20
-3.865646968503937
11
6.7886811023622045
21
-3.8660236220472441
0
LINE
8
BLACK
6
CONTINUOUS
10
6.7886811023622045
20
-3.8660236220472441
11
6.7886811023622045
21
-4.0038188976377951
0
LINE
8
BLACK
6
CONTINUOUS
10
6.7886811023622045
20
-4.0038188976377951
11
6.7886061811023621
21
-4.0041955511811027
0
LINE
8
BLACK
6
CONTINUOUS
10
6.7886061811023621
20
-4.0041955511811027
11
6.7880735039370075
21
-4.0047282283464565
0
LINE
8
BLACK
6
CONTINUOUS
10
6.7880735039370075
20
-4.0047282283464565
11
6.7876968503937007
21
-4.0048031496062988
0
LINE
8
BLACK
6
CONTINUOUS
10
6.7876968503937007
20
-4.0048031496062988
11
6.512106299212598
21
-4.0048031496062988
0
LINE
8
BLACK
6
CONTINUOUS
10
6.512106299212598
20
-4.0048031496062988
11
6.5117296456692912
21
-4.0047282283464565
0
LINE
8
BLACK
6
CONTINUOUS
10
6.5117296456692912
20
-4.0047282283464565
11
6.5111969685039366
21
-4.0041955511811027
0
LINE
8
BLACK
6
CONTINUOUS
10
6.5111969685039366
20
-4.0041955511811027
11
6.5111220472440943
21
-4.0038188976377951
0
LINE
8
BLACK
6
CONTINUOUS
10
6.5111220472440943
20
-4.0038188976377951
11
6.5111220472440943
21
-3.8660236220472441
0
LINE
8
BLACK
6
CONTINUOUS
10
6.5111220472440943
20
-3.8660236220472441
11
6.5111969685039366
21
-3.865646968503937
0
LINE
8
BLACK
6
CONTINUOUS
10
6.5111969685039366
20
-3.865646968503937
11
6.5117296456692912
21
-3.8651142913385828
0
LINE
8
BLACK
6
CONTINUOUS
10
6.5117296456692912
20
-3.8651142913385828
11
6.512106299212598
21
-3.86503937007874
0
LINE
8
BLACK
6
CONTINUOUS
10
6.512106299212598
20
-3.86503937007874
11
6.7876968503937007
21
-3.86503937007874
0
LINE
8
BLACK
6
CONTINUOUS
10
6.7876968503937007
20
-3.86503937007874
11
6.7880735039370075
21
-3.8651142913385828
0
LINE
8
BLACK
6
CONTINUOUS
10
6.5130905511811026
20
-3.8670078740157479
11
6.5130905511811026
21
-4.0028346456692914
0
LINE
8
BLACK
6
CONTINUOUS
10
6.5130905511811026
20
-4.0028346456692914
11
6.786712598425197
21
-4.0028346456692914
0
LINE
8
BLACK
6
CONTINUOUS
10
6.786712598425197
20
-4.0028346456692914
11
6.786712598425197
21
-3.8670078740157479
0
LINE
8
BLACK
6
CONTINUOUS
10
6.786712598425197
20
-3.8670078740157479
11
6.5130905511811026
21
-3.8670078740157479
0
LINE
8
BLACK
6
CONTINUOUS
10
6.3271679921259842
20
-3.2774764960629921
11
6.327700669291338
21
-3.2780091732283463
0
LINE
8
BLACK
6
CONTINUOUS
10
6.327700669291338
20
-3.2780091732283463
11
6.3277755905511812
21
-3.2783858267716535
0
LINE
8
BLACK
6
CONTINUOUS
10
6.3277755905511812
20
-3.2783858267716535
11
6.3277755905511812
21
-3.4348818897637794
0
LINE
8
BLACK
6
CONTINUOUS
10
6.3277755905511812
20
-3.4348818897637794
11
6.3720669291338581
21
-3.4348818897637794
0
LINE
8
BLACK
6
CONTINUOUS
10
6.3720669291338581
20
-3.4348818897637794
11
6.3724435826771648
21
-3.4349568110236222
0
LINE
8
BLACK
6
CONTINUOUS
10
6.3724435826771648
20
-3.4349568110236222
11
6.3729762598425195
21
-3.4354894881889764
0
LINE
8
BLACK
6
CONTINUOUS
10
6.3729762598425195
20
-3.4354894881889764
11
6.3730511811023618
21
-3.4358661417322836
0
LINE
8
BLACK
6
CONTINUOUS
10
6.3730511811023618
20
-3.4358661417322836
11
6.3730511811023618
21
-3.5539763779527558
0
LINE
8
BLACK
6
CONTINUOUS
10
6.3730511811023618
20
-3.5539763779527558
11
6.3729762598425195
21
-3.554353031496063
0
LINE
8
BLACK
6
CONTINUOUS
10
6.3729762598425195
20
-3.554353031496063
11
6.3724435826771648
21
-3.5548857086614172
0
LINE
8
BLACK
6
CONTINUOUS
10
6.3724435826771648
20
-3.5548857086614172
11
6.3720669291338581
21
-3.5549606299212599
0
LINE
8
BLACK
6
CONTINUOUS
10
6.3720669291338581
20
-3.5549606299212599
11
6.3277755905511812
21
-3.5549606299212599
0
LINE
8
BLACK
6
CONTINUOUS
10
6.3277755905511812
20
-3.5549606299212599
11
6.3277755905511812
21
-3.7114566929133859
0
LINE
8
BLACK
6
CONTINUOUS
10
6.3277755905511812
20
-3.7114566929133859
11
6.327700669291338
21
-3.7118333464566931
0
LINE
8
BLACK
6
CONTINUOUS
10
6.327700669291338
20
-3.7118333464566931
11
6.3271679921259842
21
-3.7123660236220473
0
LINE
8
BLACK
6
CONTINUOUS
10
6.3271679921259842
20
-3.7123660236220473
11
6.3267913385826766
21
-3.7124409448818896
0
LINE
8
BLACK
6
CONTINUOUS
10
6.3267913385826766
20
-3.7124409448818896
11
5.9389960629921257
21
-3.7124409448818896
0
LINE
8
BLACK
6
CONTINUOUS
10
5.9389960629921257
20
-3.7124409448818896
11
5.9386194094488189
21
-3.7123660236220473
0
LINE
8
BLACK
6
CONTINUOUS
10
5.9386194094488189
20
-3.7123660236220473
11
5.9383001181102362
21
-3.7121526771653541
0
LINE
8
BLACK
6
CONTINUOUS
10
5.9383001181102362
20
-3.7121526771653541
11
5.893024488188976
21
-3.6668770866141731
0
LINE
8
BLACK
6
CONTINUOUS
10
5.893024488188976
20
-3.6668770866141731
11
5.8928111417322837
21
-3.6665577559055116
0
LINE
8
BLACK
6
CONTINUOUS
10
5.8928111417322837
20
-3.6665577559055116
11
5.8927362204724405
21
-3.6661811023622048
0
LINE
8
BLACK
6
CONTINUOUS
10
5.8927362204724405
20
-3.6661811023622048
11
5.8927362204724405
21
-3.5549606299212599
0
LINE
8
BLACK
6
CONTINUOUS
10
5.8927362204724405
20
-3.5549606299212599
11
5.8484448818897636
21
-3.5549606299212599
0
LINE
8
BLACK
6
CONTINUOUS
10
5.8484448818897636
20
-3.5549606299212599
11
5.8480682283464569
21
-3.5548857086614172
0
LINE
8
BLACK
6
CONTINUOUS
10
5.8480682283464569
20
-3.5548857086614172
11
5.8475355511811022
21
-3.554353031496063
0
LINE
8
BLACK
6
CONTINUOUS
10
5.8475355511811022
20
-3.554353031496063
11
5.8474606299212599
21
-3.5539763779527558
0
LINE
8
BLACK
6
CONTINUOUS
10
5.8474606299212599
20
-3.5539763779527558
11
5.8474606299212599
21
-3.4358661417322836
0
LINE
8
BLACK
6
CONTINUOUS
10
5.8474606299212599
20
-3.4358661417322836
11
5.8475355511811022
21
-3.4354894881889764
0
LINE
8
BLACK
6
CONTINUOUS
10
5.8475355511811022
20
-3.4354894881889764
11
5.8480682283464569
21
-3.4349568110236222
0
LINE
8
BLACK
6
CONTINUOUS
10
5.8480682283464569
20
-3.4349568110236222
11
5.8484448818897636
21
-3.4348818897637794
0
LINE
8
BLACK
6
CONTINUOUS
10
5.8484448818897636
20
-3.4348818897637794
11
5.8927362204724405
21
-3.4348818897637794
0
LINE
8
BLACK
6
CONTINUOUS
10
5.8927362204724405
20
-3.4348818897637794
11
5.8927362204724405
21
-3.3236614173228345
0
LINE
8
BLACK
6
CONTINUOUS
10
5.8927362204724405
20
-3.3236614173228345
11
5.8928111417322837
21
-3.3232847637795273
0
LINE
8
BLACK
6
CONTINUOUS
10
5.8928111417322837
20
-3.3232847637795273
11
5.893024488188976
21
-3.3229654330708662
0
LINE
8
BLACK
6
CONTINUOUS
10
5.893024488188976
20
-3.3229654330708662
11
5.9383001181102362
21
-3.2776898425196848
0
LINE
8
BLACK
6
CONTINUOUS
10
5.9383001181102362
20
-3.2776898425196848
11
5.9386194094488189
21
-3.2774764960629921
0
LINE
8
BLACK
6
CONTINUOUS
10
5.9386194094488189
20
-3.2774764960629921
11
5.9389960629921257
21
-3.2774015748031498
0
LINE
8
BLACK
6
CONTINUOUS
10
5.9389960629921257
20
-3.2774015748031498
11
6.3267913385826766
21
-3.2774015748031498
0
LINE
8
BLACK
6
CONTINUOUS
10
6.3267913385826766
20
-3.2774015748031498
11
6.3271679921259842
21
-3.2774764960629921
0
LINE
8
BLACK
6
CONTINUOUS
10
5.9394037401574797
20
-3.2793700787401576
11
5.8947047244094488
21
-3.324069094488189
0
LINE
8
BLACK
6
CONTINUOUS
10
5.8947047244094488
20
-3.324069094488189
11
5.8947047244094488
21
-3.4358661417322836
0
LINE
8
BLACK
6
CONTINUOUS
10
5.8947047244094488
20
-3.4358661417322836
11
5.8946298031496065
21
-3.4362427952755903
0
LINE
8
BLACK
6
CONTINUOUS
10
5.8946298031496065
20
-3.4362427952755903
11
5.8940971259842518
21
-3.4367754724409449
0
LINE
8
BLACK
6
CONTINUOUS
10
5.8940971259842518
20
-3.4367754724409449
11
5.8937204724409451
21
-3.4368503937007873
0
LINE
8
BLACK
6
CONTINUOUS
10
5.8937204724409451
20
-3.4368503937007873
11
5.8494291338582673
21
-3.4368503937007873
0
LINE
8
BLACK
6
CONTINUOUS
10
5.8494291338582673
20
-3.4368503937007873
11
5.8494291338582673
21
-3.5529921259842521
0
LINE
8
BLACK
6
CONTINUOUS
10
5.8494291338582673
20
-3.5529921259842521
11
5.8937204724409451
21
-3.5529921259842521
0
LINE
8
BLACK
6
CONTINUOUS
10
5.8937204724409451
20
-3.5529921259842521
11
5.8940971259842518
21
-3.5530670472440944
0
LINE
8
BLACK
6
CONTINUOUS
10
5.8940971259842518
20
-3.5530670472440944
11
5.8946298031496065
21
-3.5535997244094486
0
LINE
8
BLACK
6
CONTINUOUS
10
5.8946298031496065
20
-3.5535997244094486
11
5.8947047244094488
21
-3.5539763779527558
0
LINE
8
BLACK
6
CONTINUOUS
10
5.8947047244094488
20
-3.5539763779527558
11
5.8947047244094488
21
-3.6657733858267716
0
LINE
8
BLACK
6
CONTINUOUS
10
5.8947047244094488
20
-3.6657733858267716
11
5.9394037401574797
21
-3.7104724409448817
0
LINE
8
BLACK
6
CONTINUOUS
10
5.9394037401574797
20
-3.7104724409448817
11
6.3258070866141729
21
-3.7104724409448817
0
LINE
8
BLACK
6
CONTINUOUS
10
6.3258070866141729
20
-3.7104724409448817
11
6.3258070866141729
21
-3.5539763779527558
0
LINE
8
BLACK
6
CONTINUOUS
10
6.3258070866141729
20
-3.5539763779527558
11
6.3258820078740152
21
-3.5535997244094486
0
LINE
8
BLACK
6
CONTINUOUS
10
6.3258820078740152
20
-3.5535997244094486
11
6.3264146850393699
21
-3.5530670472440944
0
LINE
8
BLACK
6
CONTINUOUS
10
6.3264146850393699
20
-3.5530670472440944
11
6.3267913385826766
21
-3.5529921259842521
0
LINE
8
BLACK
6
CONTINUOUS
10
6.3267913385826766
20
-3.5529921259842521
11
6.3710826771653544
21
-3.5529921259842521
0
LINE
8
BLACK
6
CONTINUOUS
10
6.3710826771653544
20
-3.5529921259842521
11
6.3710826771653544
21
-3.4368503937007873
0
LINE
8
BLACK
6
CONTINUOUS
10
6.3710826771653544
20
-3.4368503937007873
11
6.3267913385826766
21
-3.4368503937007873
0
LINE
8
BLACK
6
CONTINUOUS
10
6.3267913385826766
20
-3.4368503937007873
11
6.3264146850393699
21
-3.4367754724409449
0
LINE
8
BLACK
6
CONTINUOUS
10
6.3264146850393699
20
-3.4367754724409449
11
6.3258820078740152
21
-3.4362427952755903
0
LINE
8
BLACK
6
CONTINUOUS
10
6.3258820078740152
20
-3.4362427952755903
11
6.3258070866141729
21
-3.4358661417322836
0
LINE
8
BLACK
6
CONTINUOUS
10
6.3258070866141729
20
-3.4358661417322836
11
6.3258070866141729
21
-3.2793700787401576
0
LINE
8
BLACK
6
CONTINUOUS
10
6.3258070866141729
20
-3.2793700787401576
11
5.9394037401574797
21
-3.2793700787401576
0
LINE
8
BLACK
6
CONTINUOUS
10
5.1349632677165351
20
-3.2632245275590552
11
5.1354959448818898
21
-3.2637572047244094
0
LINE
8
BLACK
6
CONTINUOUS
10
5.1354959448818898
20
-3.2637572047244094
11
5.1355708661417321
21
-3.2641338582677166
0
LINE
8
BLACK
6
CONTINUOUS
10
5.1355708661417321
20
-3.2641338582677166
11
5.1355708661417321
21
-3.6657086614173227
0
LINE
8
BLACK
6
CONTINUOUS
10
5.1355708661417321
20
-3.6657086614173227
11
5.1354959448818898
21
-3.6660853149606298
0
LINE
8
BLACK
6
CONTINUOUS
10
5.1354959448818898
20
-3.6660853149606298
11
5.1349632677165351
21
-3.666617992125984
0
LINE
8
BLACK
6
CONTINUOUS
10
5.1349632677165351
20
-3.666617992125984
11
5.1345866141732284
21
-3.6666929133858268
0
LINE
8
BLACK
6
CONTINUOUS
10
5.1345866141732284
20
-3.6666929133858268
11
4.8026968503937004
21
-3.6666929133858268
0
LINE
8
BLACK
6
CONTINUOUS
10
4.8026968503937004
20
-3.6666929133858268
11
4.8023201968503937
21
-3.666617992125984
0
LINE
8
BLACK
6
CONTINUOUS
10
4.8023201968503937
20
-3.666617992125984
11
4.801787519685039
21
-3.6660853149606298
0
LINE
8
BLACK
6
CONTINUOUS
10
4.801787519685039
20
-3.6660853149606298
11
4.8017125984251967
21
-3.6657086614173227
0
LINE
8
BLACK
6
CONTINUOUS
10
4.8017125984251967
20
-3.6657086614173227
11
4.8017125984251967
21
-3.2641338582677166
0
LINE
8
BLACK
6
CONTINUOUS
10
4.8017125984251967
20
-3.2641338582677166
11
4.801787519685039
21
-3.2637572047244094
0
LINE
8
BLACK
6
CONTINUOUS
10
4.801787519685039
20
-3.2637572047244094
11
4.8023201968503937
21
-3.2632245275590552
0
LINE
8
BLACK
6
CONTINUOUS
10
4.8023201968503937
20
-3.2632245275590552
11
4.8026968503937004
21
-3.2631496062992125
0
LINE
8
BLACK
6
CONTINUOUS
10
4.8026968503937004
20
-3.2631496062992125
11
5.1345866141732284
21
-3.2631496062992125
0
LINE
8
BLACK
6
CONTINUOUS
10
5.1345866141732284
20
-3.2631496062992125
11
5.1349632677165351
21
-3.2632245275590552
0
LINE
8
BLACK
6
CONTINUOUS
10
4.803681102362205
20
-3.2651181102362203
11
4.803681102362205
21
-3.6647244094488189
0
LINE
8
BLACK
6
CONTINUOUS
10
4.803681102362205
20
-3.6647244094488189
11
5.1336023622047247
21
-3.6647244094488189
0
LINE
8
BLACK
6
CONTINUOUS
10
5.1336023622047247
20
-3.6647244094488189
11
5.1336023622047247
21
-3.2651181102362203
0
LINE
8
BLACK
6
CONTINUOUS
10
5.1336023622047247
20
-3.2651181102362203
11
4.803681102362205
21
-3.2651181102362203
0
LINE
8
BLACK
6
CONTINUOUS
10
5.500081377952756
20
-3.4957442125984253
11
5.5006140551181097
21
-3.4962768897637795
0
LINE
8
BLACK
6
CONTINUOUS
10
5.5006140551181097
20
-3.4962768897637795
11
5.500688976377953
21
-3.4966535433070867
0
LINE
8
BLACK
6
CONTINUOUS
10
5.500688976377953
20
-3.4966535433070867
11
5.500688976377953
21
-3.6383858267716533
0
LINE
8
BLACK
6
CONTINUOUS
10
5.500688976377953
20
-3.6383858267716533
11
5.5006140551181097
21
-3.6387624803149605
0
LINE
8
BLACK
6
CONTINUOUS
10
5.5006140551181097
20
-3.6387624803149605
11
5.500081377952756
21
-3.6392951574803147
0
LINE
8
BLACK
6
CONTINUOUS
10
5.500081377952756
20
-3.6392951574803147
11
5.4997047244094484
21
-3.6393700787401575
0
LINE
8
BLACK
6
CONTINUOUS
10
5.4997047244094484
20
-3.6393700787401575
11
5.3500984251968502
21
-3.6393700787401575
0
LINE
8
BLACK
6
CONTINUOUS
10
5.3500984251968502
20
-3.6393700787401575
11
5.3497217716535435
21
-3.6392951574803147
0
LINE
8
BLACK
6
CONTINUOUS
10
5.3497217716535435
20
-3.6392951574803147
11
5.3491890944881888
21
-3.6387624803149605
0
LINE
8
BLACK
6
CONTINUOUS
10
5.3491890944881888
20
-3.6387624803149605
11
5.3491141732283465
21
-3.6383858267716533
0
LINE
8
BLACK
6
CONTINUOUS
10
5.3491141732283465
20
-3.6383858267716533
11
5.3491141732283465
21
-3.4966535433070867
0
LINE
8
BLACK
6
CONTINUOUS
10
5.3491141732283465
20
-3.4966535433070867
11
5.3491890944881888
21
-3.4962768897637795
0
LINE
8
BLACK
6
CONTINUOUS
10
5.3491890944881888
20
-3.4962768897637795
11
5.3497217716535435
21
-3.4957442125984253
0
LINE
8
BLACK
6
CONTINUOUS
10
5.3497217716535435
20
-3.4957442125984253
11
5.3500984251968502
21
-3.4956692913385825
0
LINE
8
BLACK
6
CONTINUOUS
10
5.3500984251968502
20
-3.4956692913385825
11
5.4997047244094484
21
-3.4956692913385825
0
LINE
8
BLACK
6
CONTINUOUS
10
5.4997047244094484
20
-3.4956692913385825
11
5.500081377952756
21
-3.4957442125984253
0
LINE
8
BLACK
6
CONTINUOUS
10
5.3510826771653539
20
-3.4976377952755904
11
5.3510826771653539
21
-3.6374015748031496
0
LINE
8
BLACK
6
CONTINUOUS
10
5.3510826771653539
20
-3.6374015748031496
11
5.4987204724409446
21
-3.6374015748031496
0
LINE
8
BLACK
6
CONTINUOUS
10
5.4987204724409446
20
-3.6374015748031496
11
5.4987204724409446
21
-3.4976377952755904
0
LINE
8
BLACK
6
CONTINUOUS
10
5.4987204724409446
20
-3.4976377952755904
11
5.3510826771653539
21
-3.4976377952755904
0
LINE
8
BLACK
6
CONTINUOUS
10
5.758388464566929
20
-3.3705473622047242
11
5.7589211417322836
21
-3.3710800393700788
0
LINE
8
BLACK
6
CONTINUOUS
10
5.7589211417322836
20
-3.3710800393700788
11
5.758996062992126
21
-3.3714566929133856
0
LINE
8
BLACK
6
CONTINUOUS
10
5.758996062992126
20
-3.3714566929133856
11
5.758996062992126
21
-3.5131889763779527
0
LINE
8
BLACK
6
CONTINUOUS
10
5.758996062992126
20
-3.5131889763779527
11
5.7589211417322836
21
-3.5135656299212599
0
LINE
8
BLACK
6
CONTINUOUS
10
5.7589211417322836
20
-3.5135656299212599
11
5.758388464566929
21
-3.5140983070866141
0
LINE
8
BLACK
6
CONTINUOUS
10
5.758388464566929
20
-3.5140983070866141
11
5.7580118110236223
21
-3.5141732283464564
0
LINE
8
BLACK
6
CONTINUOUS
10
5.7580118110236223
20
-3.5141732283464564
11
5.6084055118110232
21
-3.5141732283464564
0
LINE
8
BLACK
6
CONTINUOUS
10
5.6084055118110232
20
-3.5141732283464564
11
5.6080288582677165
21
-3.5140983070866141
0
LINE
8
BLACK
6
CONTINUOUS
10
5.6080288582677165
20
-3.5140983070866141
11
5.6074961811023618
21
-3.5135656299212599
0
LINE
8
BLACK
6
CONTINUOUS
10
5.6074961811023618
20
-3.5135656299212599
11
5.6074212598425195
21
-3.5131889763779527
0
LINE
8
BLACK
6
CONTINUOUS
10
5.6074212598425195
20
-3.5131889763779527
11
5.6074212598425195
21
-3.3714566929133856
0
LINE
8
BLACK
6
CONTINUOUS
10
5.6074212598425195
20
-3.3714566929133856
11
5.6074961811023618
21
-3.3710800393700788
0
LINE
8
BLACK
6
CONTINUOUS
10
5.6074961811023618
20
-3.3710800393700788
11
5.6080288582677165
21
-3.3705473622047242
0
LINE
8
BLACK
6
CONTINUOUS
10
5.6080288582677165
20
-3.3705473622047242
11
5.6084055118110232
21
-3.3704724409448819
0
LINE
8
BLACK
6
CONTINUOUS
10
5.6084055118110232
20
-3.3704724409448819
11
5.7580118110236223
21
-3.3704724409448819
0
LINE
8
BLACK
6
CONTINUOUS
10
5.7580118110236223
20
-3.3704724409448819
11
5.758388464566929
21
-3.3705473622047242
0
LINE
8
BLACK
6
CONTINUOUS
10
5.6093897637795278
20
-3.3724409448818897
11
5.6093897637795278
21
-3.5122047244094485
0
LINE
8
BLACK
6
CONTINUOUS
10
5.6093897637795278
20
-3.5122047244094485
11
5.7570275590551176
21
-3.5122047244094485
0
LINE
8
BLACK
6
CONTINUOUS
10
5.7570275590551176
20
-3.5122047244094485
11
5.7570275590551176
21
-3.3724409448818897
0
LINE
8
BLACK
6
CONTINUOUS
10
5.7570275590551176
20
-3.3724409448818897
11
5.6093897637795278
21
-3.3724409448818897
0
LINE
8
BLACK
6
CONTINUOUS
10
5.4999238976377951
20
-3.3468072047244095
11
5.5004565748031498
21
-3.3473398818897637
0
LINE
8
BLACK
6
CONTINUOUS
10
5.5004565748031498
20
-3.3473398818897637
11
5.5005314960629921
21
-3.3477165354330709
0
LINE
8
BLACK
6
CONTINUOUS
10
5.5005314960629921
20
-3.3477165354330709
11
5.5005314960629921
21
-3.4721259842519685
0
LINE
8
BLACK
6
CONTINUOUS
10
5.5005314960629921
20
-3.4721259842519685
11
5.5004565748031498
21
-3.4725026377952757
0
LINE
8
BLACK
6
CONTINUOUS
10
5.5004565748031498
20
-3.4725026377952757
11
5.4999238976377951
21
-3.4730353149606299
0
LINE
8
BLACK
6
CONTINUOUS
10
5.4999238976377951
20
-3.4730353149606299
11
5.4995472440944884
21
-3.4731102362204722
0
LINE
8
BLACK
6
CONTINUOUS
10
5.4995472440944884
20
-3.4731102362204722
11
5.3200196850393704
21
-3.4731102362204722
0
LINE
8
BLACK
6
CONTINUOUS
10
5.3200196850393704
20
-3.4731102362204722
11
5.3196430314960628
21
-3.4730353149606299
0
LINE
8
BLACK
6
CONTINUOUS
10
5.3196430314960628
20
-3.4730353149606299
11
5.3191103543307081
21
-3.4725026377952757
0
LINE
8
BLACK
6
CONTINUOUS
10
5.3191103543307081
20
-3.4725026377952757
11
5.3190354330708658
21
-3.4721259842519685
0
LINE
8
BLACK
6
CONTINUOUS
10
5.3190354330708658
20
-3.4721259842519685
11
5.3190354330708658
21
-3.3477165354330709
0
LINE
8
BLACK
6
CONTINUOUS
10
5.3190354330708658
20
-3.3477165354330709
11
5.3191103543307081
21
-3.3473398818897637
0
LINE
8
BLACK
6
CONTINUOUS
10
5.3191103543307081
20
-3.3473398818897637
11
5.3196430314960628
21
-3.3468072047244095
0
LINE
8
BLACK
6
CONTINUOUS
10
5.3196430314960628
20
-3.3468072047244095
11
5.3200196850393704
21
-3.3467322834645667
0
LINE
8
BLACK
6
CONTINUOUS
10
5.3200196850393704
20
-3.3467322834645667
11
5.4995472440944884
21
-3.3467322834645667
0
LINE
8
BLACK
6
CONTINUOUS
10
5.4995472440944884
20
-3.3467322834645667
11
5.4999238976377951
21
-3.3468072047244095
0
LINE
8
BLACK
6
CONTINUOUS
10
5.3210039370078741
20
-3.3487007874015746
11
5.3210039370078741
21
-3.4711417322834643
0
LINE
8
BLACK
6
CONTINUOUS
10
5.3210039370078741
20
-3.4711417322834643
11
5.4985629921259838
21
-3.4711417322834643
0
LINE
8
BLACK
6
CONTINUOUS
10
5.4985629921259838
20
-3.4711417322834643
11
5.4985629921259838
21
-3.3487007874015746
0
LINE
8
BLACK
6
CONTINUOUS
10
5.4985629921259838
20
-3.3487007874015746
11
5.3210039370078741
21
-3.3487007874015746
0
LINE
8
BLACK
6
CONTINUOUS
10
6.5241758661417322
20
-3.3220827952755907
11
6.5247085433070868
21
-3.3226154724409449
0
LINE
8
BLACK
6
CONTINUOUS
10
6.5247085433070868
20
-3.3226154724409449
11
6.5247834645669291
21
-3.3229921259842521
0
LINE
8
BLACK
6
CONTINUOUS
10
6.5247834645669291
20
-3.3229921259842521
11
6.5247834645669291
21
-3.4568503937007873
0
LINE
8
BLACK
6
CONTINUOUS
10
6.5247834645669291
20
-3.4568503937007873
11
6.5247085433070868
21
-3.4572270472440945
0
LINE
8
BLACK
6
CONTINUOUS
10
6.5247085433070868
20
-3.4572270472440945
11
6.5241758661417322
21
-3.4577597244094487
0
LINE
8
BLACK
6
CONTINUOUS
10
6.5241758661417322
20
-3.4577597244094487
11
6.5237992125984254
21
-3.4578346456692914
0
LINE
8
BLACK
6
CONTINUOUS
10
6.5237992125984254
20
-3.4578346456692914
11
6.3860039370078736
21
-3.4578346456692914
0
LINE
8
BLACK
6
CONTINUOUS
10
6.3860039370078736
20
-3.4578346456692914
11
6.3856272834645669
21
-3.4577597244094487
0
LINE
8
BLACK
6
CONTINUOUS
10
6.3856272834645669
20
-3.4577597244094487
11
6.3850946062992122
21
-3.4572270472440945
0
LINE
8
BLACK
6
CONTINUOUS
10
6.3850946062992122
20
-3.4572270472440945
11
6.3850196850393699
21
-3.4568503937007873
0
LINE
8
BLACK
6
CONTINUOUS
10
6.3850196850393699
20
-3.4568503937007873
11
6.3850196850393699
21
-3.3229921259842521
0
LINE
8
BLACK
6
CONTINUOUS
10
6.3850196850393699
20
-3.3229921259842521
11
6.3850946062992122
21
-3.3226154724409449
0
LINE
8
BLACK
6
CONTINUOUS
10
6.3850946062992122
20
-3.3226154724409449
11
6.3856272834645669
21
-3.3220827952755907
0
LINE
8
BLACK
6
CONTINUOUS
10
6.3856272834645669
20
-3.3220827952755907
11
6.3860039370078736
21
-3.3220078740157479
0
LINE
8
BLACK
6
CONTINUOUS
10
6.3860039370078736
20
-3.3220078740157479
11
6.5237992125984254
21
-3.3220078740157479
0
LINE
8
BLACK
6
CONTINUOUS
10
6.5237992125984254
20
-3.3220078740157479
11
6.5241758661417322
21
-3.3220827952755907
0
LINE
8
BLACK
6
CONTINUOUS
10
6.3869881889763782
20
-3.3239763779527558
11
6.3869881889763782
21
-3.4558661417322836
0
LINE
8
BLACK
6
CONTINUOUS
10
6.3869881889763782
20
-3.4558661417322836
11
6.5228149606299208
21
-3.4558661417322836
0
LINE
8
BLACK
6
CONTINUOUS
10
6.5228149606299208
20
-3.4558661417322836
11
6.5228149606299208
21
-3.3239763779527558
0
LINE
8
BLACK
6
CONTINUOUS
10
6.5228149606299208
20
-3.3239763779527558
11
6.3869881889763782
21
-3.3239763779527558
0
LINE
8
BLACK
6
CONTINUOUS
10
5.8735853149606294
20
-3.2107835826771653
11
5.8741179921259841
21
-3.2113162598425196
0
LINE
8
BLACK
6
CONTINUOUS
10
5.8741179921259841
20
-3.2113162598425196
11
5.8741929133858264
21
-3.2116929133858267
0
LINE
8
BLACK
6
CONTINUOUS
10
5.8741929133858264
20
-3.2116929133858267
11
5.8741929133858264
21
-3.4203543307086615
0
LINE
8
BLACK
6
CONTINUOUS
10
5.8741929133858264
20
-3.4203543307086615
11
5.8741179921259841
21
-3.4207309842519686
0
LINE
8
BLACK
6
CONTINUOUS
10
5.8741179921259841
20
-3.4207309842519686
11
5.8735853149606294
21
-3.4212636614173229
0
LINE
8
BLACK
6
CONTINUOUS
10
5.8735853149606294
20
-3.4212636614173229
11
5.8732086614173227
21
-3.4213385826771652
0
LINE
8
BLACK
6
CONTINUOUS
10
5.8732086614173227
20
-3.4213385826771652
11
5.7865944881889764
21
-3.4213385826771652
0
LINE
8
BLACK
6
CONTINUOUS
10
5.7865944881889764
20
-3.4213385826771652
11
5.7862178346456687
21
-3.4212636614173229
0
LINE
8
BLACK
6
CONTINUOUS
10
5.7862178346456687
20
-3.4212636614173229
11
5.785685157480315
21
-3.4207309842519686
0
LINE
8
BLACK
6
CONTINUOUS
10
5.785685157480315
20
-3.4207309842519686
11
5.7856102362204727
21
-3.4203543307086615
0
LINE
8
BLACK
6
CONTINUOUS
10
5.7856102362204727
20
-3.4203543307086615
11
5.7856102362204727
21
-3.2116929133858267
0
LINE
8
BLACK
6
CONTINUOUS
10
5.7856102362204727
20
-3.2116929133858267
11
5.785685157480315
21
-3.2113162598425196
0
LINE
8
BLACK
6
CONTINUOUS
10
5.785685157480315
20
-3.2113162598425196
11
5.7862178346456687
21
-3.2107835826771653
0
LINE
8
BLACK
6
CONTINUOUS
10
5.7862178346456687
20
-3.2107835826771653
11
5.7865944881889764
21
-3.2107086614173226
0
LINE
8
BLACK
6
CONTINUOUS
10
5.7865944881889764
20
-3.2107086614173226
11
5.8732086614173227
21
-3.2107086614173226
0
LINE
8
BLACK
6
CONTINUOUS
10
5.8732086614173227
20
-3.2107086614173226
11
5.8735853149606294
21
-3.2107835826771653
0
LINE
8
BLACK
6
CONTINUOUS
10
5.7875787401574801
20
-3.2126771653543305
11
5.7875787401574801
21
-3.4193700787401573
0
LINE
8
BLACK
6
CONTINUOUS
10
5.7875787401574801
20
-3.4193700787401573
11
5.872224409448819
21
-3.4193700787401573
0
LINE
8
BLACK
6
CONTINUOUS
10
5.872224409448819
20
-3.4193700787401573
11
5.872224409448819
21
-3.2126771653543305
0
LINE
8
BLACK
6
CONTINUOUS
10
5.872224409448819
20
-3.2126771653543305
11
5.7875787401574801
21
-3.2126771653543305
0
LINE
8
BLACK
6
CONTINUOUS
10
5.2128372834645669
20
-3.2447993307086613
11
5.2133699606299215
21
-3.2453320078740155
0
LINE
8
BLACK
6
CONTINUOUS
10
5.2133699606299215
20
-3.2453320078740155
11
5.2134448818897638
21
-3.2457086614173227
0
LINE
8
BLACK
6
CONTINUOUS
10
5.2134448818897638
20
-3.2457086614173227
11
5.2134448818897638
21
-3.3441338582677163
0
LINE
8
BLACK
6
CONTINUOUS
10
5.2134448818897638
20
-3.3441338582677163
11
5.2133699606299215
21
-3.3445105118110234
0
LINE
8
BLACK
6
CONTINUOUS
10
5.2133699606299215
20
-3.3445105118110234
11
5.2128372834645669
21
-3.3450431889763781
0
LINE
8
BLACK
6
CONTINUOUS
10
5.2128372834645669
20
-3.3450431889763781
11
5.2124606299212601
21
-3.3451181102362204
0
LINE
8
BLACK
6
CONTINUOUS
10
5.2124606299212601
20
-3.3451181102362204
11
5.1573425196850389
21
-3.3451181102362204
0
LINE
8
BLACK
6
CONTINUOUS
10
5.1573425196850389
20
-3.3451181102362204
11
5.1569658661417321
21
-3.3450431889763781
0
LINE
8
BLACK
6
CONTINUOUS
10
5.1569658661417321
20
-3.3450431889763781
11
5.1564331889763775
21
-3.3445105118110234
0
LINE
8
BLACK
6
CONTINUOUS
10
5.1564331889763775
20
-3.3445105118110234
11
5.1563582677165352
21
-3.3441338582677163
0
LINE
8
BLACK
6
CONTINUOUS
10
5.1563582677165352
20
-3.3441338582677163
11
5.1563582677165352
21
-3.2457086614173227
0
LINE
8
BLACK
6
CONTINUOUS
10
5.1563582677165352
20
-3.2457086614173227
11
5.1564331889763775
21
-3.2453320078740155
0
LINE
8
BLACK
6
CONTINUOUS
10
5.1564331889763775
20
-3.2453320078740155
11
5.1569658661417321
21
-3.2447993307086613
0
LINE
8
BLACK
6
CONTINUOUS
10
5.1569658661417321
20
-3.2447993307086613
11
5.1573425196850389
21
-3.244724409448819
0
LINE
8
BLACK
6
CONTINUOUS
10
5.1573425196850389
20
-3.244724409448819
11
5.2124606299212601
21
-3.244724409448819
0
LINE
8
BLACK
6
CONTINUOUS
10
5.2124606299212601
20
-3.244724409448819
11
5.2128372834645669
21
-3.2447993307086613
0
LINE
8
BLACK
6
CONTINUOUS
10
5.1583267716535435
20
-3.2466929133858269
11
5.1583267716535435
21
-3.3431496062992125
0
LINE
8
BLACK
6
CONTINUOUS
10
5.1583267716535435
20
-3.3431496062992125
11
5.2114763779527555
21
-3.3431496062992125
0
LINE
8
BLACK
6
CONTINUOUS
10
5.2114763779527555
20
-3.3431496062992125
11
5.2114763779527555
21
-3.2466929133858269
0
LINE
8
BLACK
6
CONTINUOUS
10
5.2114763779527555
20
-3.2466929133858269
11
5.1583267716535435
21
-3.2466929133858269
0
LINE
8
BLACK
6
CONTINUOUS
10
6.4741758661417323
20
-3.1820827952755906
11
6.4747085433070861
21
-3.1826154724409448
0
LINE
8
BLACK
6
CONTINUOUS
10
6.4747085433070861
20
-3.1826154724409448
11
6.4747834645669293
21
-3.182992125984252
0
LINE
8
BLACK
6
CONTINUOUS
10
6.4747834645669293
20
-3.182992125984252
11
6.4747834645669293
21
-3.3168503937007872
0
LINE
8
BLACK
6
CONTINUOUS
10
6.4747834645669293
20
-3.3168503937007872
11
6.4747085433070861
21
-3.3172270472440943
0
LINE
8
BLACK
6
CONTINUOUS
10
6.4747085433070861
20
-3.3172270472440943
11
6.4741758661417323
21
-3.3177597244094486
0
LINE
8
BLACK
6
CONTINUOUS
10
6.4741758661417323
20
-3.3177597244094486
11
6.4737992125984247
21
-3.3178346456692913
0
LINE
8
BLACK
6
CONTINUOUS
10
6.4737992125984247
20
-3.3178346456692913
11
6.3360039370078738
21
-3.3178346456692913
0
LINE
8
BLACK
6
CONTINUOUS
10
6.3360039370078738
20
-3.3178346456692913
11
6.335627283464567
21
-3.3177597244094486
0
LINE
8
BLACK
6
CONTINUOUS
10
6.335627283464567
20
-3.3177597244094486
11
6.3350946062992124
21
-3.3172270472440943
0
LINE
8
BLACK
6
CONTINUOUS
10
6.3350946062992124
20
-3.3172270472440943
11
6.3350196850393701
21
-3.3168503937007872
0
LINE
8
BLACK
6
CONTINUOUS
10
6.3350196850393701
20
-3.3168503937007872
11
6.3350196850393701
21
-3.182992125984252
0
LINE
8
BLACK
6
CONTINUOUS
10
6.3350196850393701
20
-3.182992125984252
11
6.3350946062992124
21
-3.1826154724409448
0
LINE
8
BLACK
6
CONTINUOUS
10
6.3350946062992124
20
-3.1826154724409448
11
6.335627283464567
21
-3.1820827952755906
0
LINE
8
BLACK
6
CONTINUOUS
10
6.335627283464567
20
-3.1820827952755906
11
6.3360039370078738
21
-3.1820078740157478
0
LINE
8
BLACK
6
CONTINUOUS
10
6.3360039370078738
20
-3.1820078740157478
11
6.4737992125984247
21
-3.1820078740157478
0
LINE
8
BLACK
6
CONTINUOUS
10
6.4737992125984247
20
-3.1820078740157478
11
6.4741758661417323
21
-3.1820827952755906
0
LINE
8
BLACK
6
CONTINUOUS
10
6.3369881889763775
20
-3.1839763779527557
11
6.3369881889763775
21
-3.3158661417322834
0
LINE
8
BLACK
6
CONTINUOUS
10
6.3369881889763775
20
-3.3158661417322834
11
6.472814960629921
21
-3.3158661417322834
0
LINE
8
BLACK
6
CONTINUOUS
10
6.472814960629921
20
-3.3158661417322834
11
6.472814960629921
21
-3.1839763779527557
0
LINE
8
BLACK
6
CONTINUOUS
10
6.472814960629921
20
-3.1839763779527557
11
6.3369881889763775
21
-3.1839763779527557
0
LINE
8
BLACK
6
CONTINUOUS
10
5.2228372834645667
20
-3.1297993307086616
11
5.2233699606299213
21
-3.1303320078740158
0
LINE
8
BLACK
6
CONTINUOUS
10
5.2233699606299213
20
-3.1303320078740158
11
5.2234448818897636
21
-3.130708661417323
0
LINE
8
BLACK
6
CONTINUOUS
10
5.2234448818897636
20
-3.130708661417323
11
5.2234448818897636
21
-3.2291338582677165
0
LINE
8
BLACK
6
CONTINUOUS
10
5.2234448818897636
20
-3.2291338582677165
11
5.2233699606299213
21
-3.2295105118110237
0
LINE
8
BLACK
6
CONTINUOUS
10
5.2233699606299213
20
-3.2295105118110237
11
5.2228372834645667
21
-3.2300431889763779
0
LINE
8
BLACK
6
CONTINUOUS
10
5.2228372834645667
20
-3.2300431889763779
11
5.2224606299212599
21
-3.2301181102362202
0
LINE
8
BLACK
6
CONTINUOUS
10
5.2224606299212599
20
-3.2301181102362202
11
5.1673425196850395
21
-3.2301181102362202
0
LINE
8
BLACK
6
CONTINUOUS
10
5.1673425196850395
20
-3.2301181102362202
11
5.1669658661417319
21
-3.2300431889763779
0
LINE
8
BLACK
6
CONTINUOUS
10
5.1669658661417319
20
-3.2300431889763779
11
5.1664331889763782
21
-3.2295105118110237
0
LINE
8
BLACK
6
CONTINUOUS
10
5.1664331889763782
20
-3.2295105118110237
11
5.1663582677165349
21
-3.2291338582677165
0
LINE
8
BLACK
6
CONTINUOUS
10
5.1663582677165349
20
-3.2291338582677165
11
5.1663582677165349
21
-3.130708661417323
0
LINE
8
BLACK
6
CONTINUOUS
10
5.1663582677165349
20
-3.130708661417323
11
5.1664331889763782
21
-3.1303320078740158
0
LINE
8
BLACK
6
CONTINUOUS
10
5.1664331889763782
20
-3.1303320078740158
11
5.1669658661417319
21
-3.1297993307086616
0
LINE
8
BLACK
6
CONTINUOUS
10
5.1669658661417319
20
-3.1297993307086616
11
5.1673425196850395
21
-3.1297244094488188
0
LINE
8
BLACK
6
CONTINUOUS
10
5.1673425196850395
20
-3.1297244094488188
11
5.2224606299212599
21
-3.1297244094488188
0
LINE
8
BLACK
6
CONTINUOUS
10
5.2224606299212599
20
-3.1297244094488188
11
5.2228372834645667
21
-3.1297993307086616
0
LINE
8
BLACK
6
CONTINUOUS
10
5.1683267716535433
20
-3.1316929133858267
11
5.1683267716535433
21
-3.2281496062992123
0
LINE
8
BLACK
6
CONTINUOUS
10
5.1683267716535433
20
-3.2281496062992123
11
5.2214763779527562
21
-3.2281496062992123
0
LINE
8
BLACK
6
CONTINUOUS
10
5.2214763779527562
20
-3.2281496062992123
11
5.2214763779527562
21
-3.1316929133858267
0
LINE
8
BLACK
6
CONTINUOUS
10
5.2214763779527562
20
-3.1316929133858267
11
5.1683267716535433
21
-3.1316929133858267
0
LINE
8
BLACK
6
CONTINUOUS
10
5.7995301968503936
20
-2.8780276771653543
11
5.8000628740157483
21
-2.8785603543307086
0
LINE
8
BLACK
6
CONTINUOUS
10
5.8000628740157483
20
-2.8785603543307086
11
5.8001377952755906
21
-2.8789370078740157
0
LINE
8
BLACK
6
CONTINUOUS
10
5.8001377952755906
20
-2.8789370078740157
11
5.8001377952755906
21
-3.1309055118110236
0
LINE
8
BLACK
6
CONTINUOUS
10
5.8001377952755906
20
-3.1309055118110236
11
5.8000628740157483
21
-3.1312821653543308
0
LINE
8
BLACK
6
CONTINUOUS
10
5.8000628740157483
20
-3.1312821653543308
11
5.7995301968503936
21
-3.131814842519685
0
LINE
8
BLACK
6
CONTINUOUS
10
5.7995301968503936
20
-3.131814842519685
11
5.7991535433070869
21
-3.1318897637795273
0
LINE
8
BLACK
6
CONTINUOUS
10
5.7991535433070869
20
-3.1318897637795273
11
5.2306496062992123
21
-3.1318897637795273
0
LINE
8
BLACK
6
CONTINUOUS
10
5.2306496062992123
20
-3.1318897637795273
11
5.2302729527559055
21
-3.131814842519685
0
LINE
8
BLACK
6
CONTINUOUS
10
5.2302729527559055
20
-3.131814842519685
11
5.2297402755905509
21
-3.1312821653543308
0
LINE
8
BLACK
6
CONTINUOUS
10
5.2297402755905509
20
-3.1312821653543308
11
5.2296653543307086
21
-3.1309055118110236
0
LINE
8
BLACK
6
CONTINUOUS
10
5.2296653543307086
20
-3.1309055118110236
11
5.2296653543307086
21
-2.8789370078740157
0
LINE
8
BLACK
6
CONTINUOUS
10
5.2296653543307086
20
-2.8789370078740157
11
5.2297402755905509
21
-2.8785603543307086
0
LINE
8
BLACK
6
CONTINUOUS
10
5.2297402755905509
20
-2.8785603543307086
11
5.2302729527559055
21
-2.8780276771653543
0
LINE
8
BLACK
6
CONTINUOUS
10
5.2302729527559055
20
-2.8780276771653543
11
5.2306496062992123
21
-2.8779527559055116
0
LINE
8
BLACK
6
CONTINUOUS
10
5.2306496062992123
20
-2.8779527559055116
11
5.7991535433070869
21
-2.8779527559055116
0
LINE
8
BLACK
6
CONTINUOUS
10
5.7991535433070869
20
-2.8779527559055116
11
5.7995301968503936
21
-2.8780276771653543
0
LINE
8
BLACK
6
CONTINUOUS
10
5.231633858267716
20
-2.8799212598425195
11
5.231633858267716
21
-3.1299212598425195
0
LINE
8
BLACK
6
CONTINUOUS
10
5.231633858267716
20
-3.1299212598425195
11
5.7981692913385823
21
-3.1299212598425195
0
LINE
8
BLACK
6
CONTINUOUS
10
5.7981692913385823
20
-3.1299212598425195
11
5.7981692913385823
21
-2.8799212598425195
0
LINE
8
BLACK
6
CONTINUOUS
10
5.7981692913385823
20
-2.8799212598425195
11
5.231633858267716
21
-2.8799212598425195
0
LINE
8
BLACK
6
CONTINUOUS
10
6.3757112992125986
20
-2.8780276771653543
11
6.3762439763779524
21
-2.8785603543307086
0
LINE
8
BLACK
6
CONTINUOUS
10
6.3762439763779524
20
-2.8785603543307086
11
6.3763188976377947
21
-2.8789370078740157
0
LINE
8
BLACK
6
CONTINUOUS
10
6.3763188976377947
20
-2.8789370078740157
11
6.3763188976377947
21
-3.1309055118110236
0
LINE
8
BLACK
6
CONTINUOUS
10
6.3763188976377947
20
-3.1309055118110236
11
6.3762439763779524
21
-3.1312821653543308
0
LINE
8
BLACK
6
CONTINUOUS
10
6.3762439763779524
20
-3.1312821653543308
11
6.3757112992125986
21
-3.131814842519685
0
LINE
8
BLACK
6
CONTINUOUS
10
6.3757112992125986
20
-3.131814842519685
11
6.375334645669291
21
-3.1318897637795273
0
LINE
8
BLACK
6
CONTINUOUS
10
6.375334645669291
20
-3.1318897637795273
11
5.9044685039370082
21
-3.1318897637795273
0
LINE
8
BLACK
6
CONTINUOUS
10
5.9044685039370082
20
-3.1318897637795273
11
5.9040918503937005
21
-3.131814842519685
0
LINE
8
BLACK
6
CONTINUOUS
10
5.9040918503937005
20
-3.131814842519685
11
5.9035591732283459
21
-3.1312821653543308
0
LINE
8
BLACK
6
CONTINUOUS
10
5.9035591732283459
20
-3.1312821653543308
11
5.9034842519685036
21
-3.1309055118110236
0
LINE
8
BLACK
6
CONTINUOUS
10
5.9034842519685036
20
-3.1309055118110236
11
5.9034842519685036
21
-2.8789370078740157
0
LINE
8
BLACK
6
CONTINUOUS
10
5.9034842519685036
20
-2.8789370078740157
11
5.9035591732283459
21
-2.8785603543307086
0
LINE
8
BLACK
6
CONTINUOUS
10
5.9035591732283459
20
-2.8785603543307086
11
5.9040918503937005
21
-2.8780276771653543
0
LINE
8
BLACK
6
CONTINUOUS
10
5.9040918503937005
20
-2.8780276771653543
11
5.9044685039370082
21
-2.8779527559055116
0
LINE
8
BLACK
6
CONTINUOUS
10
5.9044685039370082
20
-2.8779527559055116
11
6.375334645669291
21
-2.8779527559055116
0
LINE
8
BLACK
6
CONTINUOUS
10
6.375334645669291
20
-2.8779527559055116
11
6.3757112992125986
21
-2.8780276771653543
0
LINE
8
BLACK
6
CONTINUOUS
10
5.9054527559055119
20
-2.8799212598425195
11
5.9054527559055119
21
-3.1299212598425195
0
LINE
8
BLACK
6
CONTINUOUS
10
5.9054527559055119
20
-3.1299212598425195
11
6.3743503937007873
21
-3.1299212598425195
0
LINE
8
BLACK
6
CONTINUOUS
10
6.3743503937007873
20
-3.1299212598425195
11
6.3743503937007873
21
-2.8799212598425195
0
LINE
8
BLACK
6
CONTINUOUS
10
6.3743503937007873
20
-2.8799212598425195
11
5.9054527559055119
21
-2.8799212598425195
0
CIRCLE
8
BLACK
10
6.6030905511811024
20
-4.6531102362204724
40
0.0068897637795276
0
CIRCLE
8
BLACK
10
5.0267125984251964
20
-4.6531102362204724
40
0.0068897637795276
0
CIRCLE
8
BLACK
10
6.6030905511811024
20
-3.0767322834645667
40
0.0068897637795276
0
CIRCLE
8
BLACK
10
5.9812795275590549
20
-3.8629527559055119
40
0.0068897637795276
0
CIRCLE
8
BLACK
10
5.0267125984251964
20
-3.0767322834645667
40
0.0068897637795276
0
CIRCLE
8
BLACK
10
5.0597834645669293
20
-3.5787007874015746
40
0.0068897637795276
0
CIRCLE
8
BLACK
10
5.0597834645669293
20
-3.3511417322834647
40
0.0068897637795276
0
LINE
8
BLACK
6
CONTINUOUS
10
4.9321912598425195
20
-3.6232900393700787
11
4.9351694881889765
21
-3.6240880314960631
0
LINE
8
BLACK
6
CONTINUOUS
10
4.9351694881889765
20
-3.6240880314960631
11
4.9378396850393695
21
-3.6256296850393701
0
LINE
8
BLACK
6
CONTINUOUS
10
4.9378396850393695
20
-3.6256296850393701
11
4.9400199212598421
21
-3.6278099212598423
0
LINE
8
BLACK
6
CONTINUOUS
10
4.9400199212598421
20
-3.6278099212598423
11
4.9415615748031492
21
-3.6304801181102362
0
LINE
8
BLACK
6
CONTINUOUS
10
4.9415615748031492
20
-3.6304801181102362
11
4.9423595669291336
21
-3.6334583464566927
0
LINE
8
BLACK
6
CONTINUOUS
10
4.9423595669291336
20
-3.6334583464566927
11
4.9423595669291336
21
-3.6365416535433068
0
LINE
8
BLACK
6
CONTINUOUS
10
4.9423595669291336
20
-3.6365416535433068
11
4.9415615748031492
21
-3.6395198818897638
0
LINE
8
BLACK
6
CONTINUOUS
10
4.9415615748031492
20
-3.6395198818897638
11
4.9400199212598421
21
-3.6421900787401573
0
LINE
8
BLACK
6
CONTINUOUS
10
4.9400199212598421
20
-3.6421900787401573
11
4.9378396850393695
21
-3.6443703149606299
0
LINE
8
BLACK
6
CONTINUOUS
10
4.9378396850393695
20
-3.6443703149606299
11
4.9351694881889765
21
-3.645911968503937
0
LINE
8
BLACK
6
CONTINUOUS
10
4.9351694881889765
20
-3.645911968503937
11
4.9321912598425195
21
-3.6467099606299214
0
LINE
8
BLACK
6
CONTINUOUS
10
4.9321912598425195
20
-3.6467099606299214
11
4.9306496062992125
21
-3.646811023622047
0
LINE
8
BLACK
6
CONTINUOUS
10
4.9306496062992125
20
-3.646811023622047
11
4.8991535433070865
21
-3.646811023622047
0
LINE
8
BLACK
6
CONTINUOUS
10
4.8991535433070865
20
-3.646811023622047
11
4.8976118897637795
21
-3.6467099606299214
0
LINE
8
BLACK
6
CONTINUOUS
10
4.8976118897637795
20
-3.6467099606299214
11
4.8946336614173225
21
-3.645911968503937
0
LINE
8
BLACK
6
CONTINUOUS
10
4.8946336614173225
20
-3.645911968503937
11
4.8919634645669294
21
-3.6443703149606299
0
LINE
8
BLACK
6
CONTINUOUS
10
4.8919634645669294
20
-3.6443703149606299
11
4.8897832283464568
21
-3.6421900787401573
0
LINE
8
BLACK
6
CONTINUOUS
10
4.8897832283464568
20
-3.6421900787401573
11
4.8882415748031498
21
-3.6395198818897638
0
LINE
8
BLACK
6
CONTINUOUS
10
4.8882415748031498
20
-3.6395198818897638
11
4.8874435826771654
21
-3.6365416535433068
0
LINE
8
BLACK
6
CONTINUOUS
10
4.8874435826771654
20
-3.6365416535433068
11
4.8874435826771654
21
-3.6334583464566927
0
LINE
8
BLACK
6
CONTINUOUS
10
4.8874435826771654
20
-3.6334583464566927
11
4.8882415748031498
21
-3.6304801181102362
0
LINE
8
BLACK
6
CONTINUOUS
10
4.8882415748031498
20
-3.6304801181102362
11
4.8897832283464568
21
-3.6278099212598423
0
LINE
8
BLACK
6
CONTINUOUS
10
4.8897832283464568
20
-3.6278099212598423
11
4.8919634645669294
21
-3.6256296850393701
0
LINE
8
BLACK
6
CONTINUOUS
10
4.8919634645669294
20
-3.6256296850393701
11
4.8946336614173225
21
-3.6240880314960631
0
LINE
8
BLACK
6
CONTINUOUS
10
4.8946336614173225
20
-3.6240880314960631
11
4.8976118897637795
21
-3.6232900393700787
0
LINE
8
BLACK
6
CONTINUOUS
10
4.8976118897637795
20
-3.6232900393700787
11
4.8991535433070865
21
-3.6231889763779526
0
LINE
8
BLACK
6
CONTINUOUS
10
4.8991535433070865
20
-3.6231889763779526
11
4.9306496062992125
21
-3.6231889763779526
0
LINE
8
BLACK
6
CONTINUOUS
10
4.9306496062992125
20
-3.6231889763779526
11
4.9321912598425195
21
-3.6232900393700787
0
LINE
8
BLACK
6
CONTINUOUS
10
4.9321912598425195
20
-3.2831325590551179
11
4.9351694881889765
21
-3.2839305511811023
0
LINE
8
BLACK
6
CONTINUOUS
10
4.9351694881889765
20
-3.2839305511811023
11
4.9378396850393695
21
-3.2854722047244094
0
LINE
8
BLACK
6
CONTINUOUS
10
4.9378396850393695
20
-3.2854722047244094
11
4.9400199212598421
21
-3.287652440944882
0
LINE
8
BLACK
6
CONTINUOUS
10
4.9400199212598421
20
-3.287652440944882
11
4.9415615748031492
21
-3.2903226377952755
0
LINE
8
BLACK
6
CONTINUOUS
10
4.9415615748031492
20
-3.2903226377952755
11
4.9423595669291336
21
-3.293300866141732
0
LINE
8
BLACK
6
CONTINUOUS
10
4.9423595669291336
20
-3.293300866141732
11
4.9423595669291336
21
-3.2963841732283465
0
LINE
8
BLACK
6
CONTINUOUS
10
4.9423595669291336
20
-3.2963841732283465
11
4.9415615748031492
21
-3.2993624015748031
0
LINE
8
BLACK
6
CONTINUOUS
10
4.9415615748031492
20
-3.2993624015748031
11
4.9400199212598421
21
-3.3020325984251966
0
LINE
8
BLACK
6
CONTINUOUS
10
4.9400199212598421
20
-3.3020325984251966
11
4.9378396850393695
21
-3.3042128346456692
0
LINE
8
BLACK
6
CONTINUOUS
10
4.9378396850393695
20
-3.3042128346456692
11
4.9351694881889765
21
-3.3057544881889762
0
LINE
8
BLACK
6
CONTINUOUS
10
4.9351694881889765
20
-3.3057544881889762
11
4.9321912598425195
21
-3.3065524803149606
0
LINE
8
BLACK
6
CONTINUOUS
10
4.9321912598425195
20
-3.3065524803149606
11
4.9306496062992125
21
-3.3066535433070867
0
LINE
8
BLACK
6
CONTINUOUS
10
4.9306496062992125
20
-3.3066535433070867
11
4.8991535433070865
21
-3.3066535433070867
0
LINE
8
BLACK
6
CONTINUOUS
10
4.8991535433070865
20
-3.3066535433070867
11
4.8976118897637795
21
-3.3065524803149606
0
LINE
8
BLACK
6
CONTINUOUS
10
4.8976118897637795
20
-3.3065524803149606
11
4.8946336614173225
21
-3.3057544881889762
0
LINE
8
BLACK
6
CONTINUOUS
10
4.8946336614173225
20
-3.3057544881889762
11
4.8919634645669294
21
-3.3042128346456692
0
LINE
8
BLACK
6
CONTINUOUS
10
4.8919634645669294
20
-3.3042128346456692
11
4.8897832283464568
21
-3.3020325984251966
0
LINE
8
BLACK
6
CONTINUOUS
10
4.8897832283464568
20
-3.3020325984251966
11
4.8882415748031498
21
-3.2993624015748031
0
LINE
8
BLACK
6
CONTINUOUS
10
4.8882415748031498
20
-3.2993624015748031
11
4.8874435826771654
21
-3.2963841732283465
0
LINE
8
BLACK
6
CONTINUOUS
10
4.8874435826771654
20
-3.2963841732283465
11
4.8874435826771654
21
-3.293300866141732
0
LINE
8
BLACK
6
CONTINUOUS
10
4.8874435826771654
20
-3.293300866141732
11
4.8882415748031498
21
-3.2903226377952755
0
LINE
8
BLACK
6
CONTINUOUS
10
4.8882415748031498
20
-3.2903226377952755
11
4.8897832283464568
21
-3.287652440944882
0
LINE
8
BLACK
6
CONTINUOUS
10
4.8897832283464568
20
-3.287652440944882
11
4.8919634645669294
21
-3.2854722047244094
0
LINE
8
BLACK
6
CONTINUOUS
10
4.8919634645669294
20
-3.2854722047244094
11
4.8946336614173225
21
-3.2839305511811023
0
LINE
8
BLACK
6
CONTINUOUS
10
4.8946336614173225
20
-3.2839305511811023
11
4.8976118897637795
21
-3.2831325590551179
0
LINE
8
BLACK
6
CONTINUOUS
10
4.8976118897637795
20
-3.2831325590551179
11
4.8991535433070865
21
-3.2830314960629923
0
LINE
8
BLACK
6
CONTINUOUS
10
4.8991535433070865
20
-3.2830314960629923
11
4.9306496062992125
21
-3.2830314960629923
0
LINE
8
BLACK
6
CONTINUOUS
10
4.9306496062992125
20
-3.2830314960629923
11
4.9321912598425195
21
-3.2831325590551179
0
LINE
8
BLACK
6
CONTINUOUS
10
5.1026637007874012
20
-3.6232900393700787
11
5.1056419291338582
21
-3.6240880314960631
0
LINE
8
BLACK
6
CONTINUOUS
10
5.1056419291338582
20
-3.6240880314960631
11
5.1083121259842521
21
-3.6256296850393701
0
LINE
8
BLACK
6
CONTINUOUS
10
5.1083121259842521
20
-3.6256296850393701
11
5.1104923622047247
21
-3.6278099212598423
0
LINE
8
BLACK
6
CONTINUOUS
10
5.1104923622047247
20
-3.6278099212598423
11
5.1120340157480317
21
-3.6304801181102362
0
LINE
8
BLACK
6
CONTINUOUS
10
5.1120340157480317
20
-3.6304801181102362
11
5.1128320078740153
21
-3.6334583464566927
0
LINE
8
BLACK
6
CONTINUOUS
10
5.1128320078740153
20
-3.6334583464566927
11
5.1128320078740153
21
-3.6365416535433068
0
LINE
8
BLACK
6
CONTINUOUS
10
5.1128320078740153
20
-3.6365416535433068
11
5.1120340157480317
21
-3.6395198818897638
0
LINE
8
BLACK
6
CONTINUOUS
10
5.1120340157480317
20
-3.6395198818897638
11
5.1104923622047247
21
-3.6421900787401573
0
LINE
8
BLACK
6
CONTINUOUS
10
5.1104923622047247
20
-3.6421900787401573
11
5.1083121259842521
21
-3.6443703149606299
0
LINE
8
BLACK
6
CONTINUOUS
10
5.1083121259842521
20
-3.6443703149606299
11
5.1056419291338582
21
-3.645911968503937
0
LINE
8
BLACK
6
CONTINUOUS
10
5.1056419291338582
20
-3.645911968503937
11
5.1026637007874012
21
-3.6467099606299214
0
LINE
8
BLACK
6
CONTINUOUS
10
5.1026637007874012
20
-3.6467099606299214
11
5.1011220472440941
21
-3.646811023622047
0
LINE
8
BLACK
6
CONTINUOUS
10
5.1011220472440941
20
-3.646811023622047
11
5.057814960629921
21
-3.646811023622047
0
LINE
8
BLACK
6
CONTINUOUS
10
5.057814960629921
20
-3.646811023622047
11
5.0562733070866139
21
-3.6467099606299214
0
LINE
8
BLACK
6
CONTINUOUS
10
5.0562733070866139
20
-3.6467099606299214
11
5.0532950787401569
21
-3.645911968503937
0
LINE
8
BLACK
6
CONTINUOUS
10
5.0532950787401569
20
-3.645911968503937
11
5.0506248818897639
21
-3.6443703149606299
0
LINE
8
BLACK
6
CONTINUOUS
10
5.0506248818897639
20
-3.6443703149606299
11
5.0484446456692913
21
-3.6421900787401573
0
LINE
8
BLACK
6
CONTINUOUS
10
5.0484446456692913
20
-3.6421900787401573
11
5.0469029921259843
21
-3.6395198818897638
0
LINE
8
BLACK
6
CONTINUOUS
10
5.0469029921259843
20
-3.6395198818897638
11
5.0461049999999998
21
-3.6365416535433068
0
LINE
8
BLACK
6
CONTINUOUS
10
5.0461049999999998
20
-3.6365416535433068
11
5.0461049999999998
21
-3.6334583464566927
0
LINE
8
BLACK
6
CONTINUOUS
10
5.0461049999999998
20
-3.6334583464566927
11
5.0469029921259843
21
-3.6304801181102362
0
LINE
8
BLACK
6
CONTINUOUS
10
5.0469029921259843
20
-3.6304801181102362
11
5.0484446456692913
21
-3.6278099212598423
0
LINE
8
BLACK
6
CONTINUOUS
10
5.0484446456692913
20
-3.6278099212598423
11
5.0506248818897639
21
-3.6256296850393701
0
LINE
8
BLACK
6
CONTINUOUS
10
5.0506248818897639
20
-3.6256296850393701
11
5.0532950787401569
21
-3.6240880314960631
0
LINE
8
BLACK
6
CONTINUOUS
10
5.0532950787401569
20
-3.6240880314960631
11
5.0562733070866139
21
-3.6232900393700787
0
LINE
8
BLACK
6
CONTINUOUS
10
5.0562733070866139
20
-3.6232900393700787
11
5.057814960629921
21
-3.6231889763779526
0
LINE
8
BLACK
6
CONTINUOUS
10
5.057814960629921
20
-3.6231889763779526
11
5.1011220472440941
21
-3.6231889763779526
0
LINE
8
BLACK
6
CONTINUOUS
10
5.1011220472440941
20
-3.6231889763779526
11
5.1026637007874012
21
-3.6232900393700787
0
LINE
8
BLACK
6
CONTINUOUS
10
5.1026637007874012
20
-3.2831325590551179
11
5.1056419291338582
21
-3.2839305511811023
0
LINE
8
BLACK
6
CONTINUOUS
10
5.1056419291338582
20
-3.2839305511811023
11
5.1083121259842521
21
-3.2854722047244094
0
LINE
8
BLACK
6
CONTINUOUS
10
5.1083121259842521
20
-3.2854722047244094
11
5.1104923622047247
21
-3.287652440944882
0
LINE
8
BLACK
6
CONTINUOUS
10
5.1104923622047247
20
-3.287652440944882
11
5.1120340157480317
21
-3.2903226377952755
0
LINE
8
BLACK
6
CONTINUOUS
10
5.1120340157480317
20
-3.2903226377952755
11
5.1128320078740153
21
-3.293300866141732
0
LINE
8
BLACK
6
CONTINUOUS
10
5.1128320078740153
20
-3.293300866141732
11
5.1128320078740153
21
-3.2963841732283465
0
LINE
8
BLACK
6
CONTINUOUS
10
5.1128320078740153
20
-3.2963841732283465
11
5.1120340157480317
21
-3.2993624015748031
0
LINE
8
BLACK
6
CONTINUOUS
10
5.1120340157480317
20
-3.2993624015748031
11
5.1104923622047247
21
-3.3020325984251966
0
LINE
8
BLACK
6
CONTINUOUS
10
5.1104923622047247
20
-3.3020325984251966
11
5.1083121259842521
21
-3.3042128346456692
0
LINE
8
BLACK
6
CONTINUOUS
10
5.1083121259842521
20
-3.3042128346456692
11
5.1056419291338582
21
-3.3057544881889762
0
LINE
8
BLACK
6
CONTINUOUS
10
5.1056419291338582
20
-3.3057544881889762
11
5.1026637007874012
21
-3.3065524803149606
0
LINE
8
BLACK
6
CONTINUOUS
10
5.1026637007874012
20
-3.3065524803149606
11
5.1011220472440941
21
-3.3066535433070867
0
LINE
8
BLACK
6
CONTINUOUS
10
5.1011220472440941
20
-3.3066535433070867
11
5.057814960629921
21
-3.3066535433070867
0
LINE
8
BLACK
6
CONTINUOUS
10
5.057814960629921
20
-3.3066535433070867
11
5.0562733070866139
21
-3.3065524803149606
0
LINE
8
BLACK
6
CONTINUOUS
10
5.0562733070866139
20
-3.3065524803149606
11
5.0532950787401569
21
-3.3057544881889762
0
LINE
8
BLACK
6
CONTINUOUS
10
5.0532950787401569
20
-3.3057544881889762
11
5.0506248818897639
21
-3.3042128346456692
0
LINE
8
BLACK
6
CONTINUOUS
10
5.0506248818897639
20
-3.3042128346456692
11
5.0484446456692913
21
-3.3020325984251966
0
LINE
8
BLACK
6
CONTINUOUS
10
5.0484446456692913
20
-3.3020325984251966
11
5.0469029921259843
21
-3.2993624015748031
0
LINE
8
BLACK
6
CONTINUOUS
10
5.0469029921259843
20
-3.2993624015748031
11
5.0461049999999998
21
-3.2963841732283465
0
LINE
8
BLACK
6
CONTINUOUS
10
5.0461049999999998
20
-3.2963841732283465
11
5.0461049999999998
21
-3.293300866141732
0
LINE
8
BLACK
6
CONTINUOUS
10
5.0461049999999998
20
-3.293300866141732
11
5.0469029921259843
21
-3.2903226377952755
0
LINE
8
BLACK
6
CONTINUOUS
10
5.0469029921259843
20
-3.2903226377952755
11
5.0484446456692913
21
-3.287652440944882
0
LINE
8
BLACK
6
CONTINUOUS
10
5.0484446456692913
20
-3.287652440944882
11
5.0506248818897639
21
-3.2854722047244094
0
LINE
8
BLACK
6
CONTINUOUS
10
5.0506248818897639
20
-3.2854722047244094
11
5.0532950787401569
21
-3.2839305511811023
0
LINE
8
BLACK
6
CONTINUOUS
10
5.0532950787401569
20
-3.2839305511811023
11
5.0562733070866139
21
-3.2831325590551179
0
LINE
8
BLACK
6
CONTINUOUS
10
5.0562733070866139
20
-3.2831325590551179
11
5.057814960629921
21
-3.2830314960629923
0
LINE
8
BLACK
6
CONTINUOUS
10
5.057814960629921
20
-3.2830314960629923
11
5.1011220472440941
21
-3.2830314960629923
0
LINE
8
BLACK
6
CONTINUOUS
10
5.1011220472440941
20
-3.2830314960629923
11
5.1026637007874012
21
-3.2831325590551179
0
CIRCLE
8
BLACK
10
6.6361614173228345
20
-3.7699212598425196
40
0.0068897637795276
0
CIRCLE
8
BLACK
10
6.6361614173228345
20
-3.6349212598425198
40
0.0068897637795276
0
CIRCLE
8
BLACK
10
6.6361614173228345
20
-3.4999212598425196
40
0.0068897637795276
0
CIRCLE
8
BLACK
10
6.6361614173228345
20
-3.3630708661417321
40
0.0068897637795276
0
CIRCLE
8
BLACK
10
4.9686417322834648
20
-3.7399212598425198
40
0.0068897637795276
0
CIRCLE
8
BLACK
10
6.6030905511811024
20
-4.6531102362204724
40
0.0068897637795276
0
CIRCLE
8
BLACK
10
5.0267125984251964
20
-4.6531102362204724
40
0.0068897637795276
0
CIRCLE
8
BLACK
10
6.6030905511811024
20
-3.0767322834645667
40
0.0068897637795276
0
CIRCLE
8
BLACK
10
5.9812795275590549
20
-3.8629527559055119
40
0.0068897637795276
0
CIRCLE
8
BLACK
10
5.0267125984251964
20
-3.0767322834645667
40
0.0068897637795276
0
CIRCLE
8
BLACK
10
5.0597834645669293
20
-3.5787007874015746
40
0.0068897637795276
0
CIRCLE
8
BLACK
10
5.0597834645669293
20
-3.3511417322834647
40
0.0068897637795276
0
LINE
8
BLACK
6
CONTINUOUS
10
4.8991535433070865
20
-3.646811023622047
11
4.9306496062992125
21
-3.646811023622047
0
ARC
8
BLACK
10
4.9306496062992125
20
-3.6349999999999998
40
0.0118110236220472
50
-90.00000000
51
90.00000000
0
LINE
8
BLACK
6
CONTINUOUS
10
4.9306496062992125
20
-3.6231889763779526
11
4.8991535433070865
21
-3.6231889763779526
0
ARC
8
BLACK
10
4.8991535433070865
20
-3.6349999999999998
40
0.0118110236220472
50
90.00000000
51
270.00000000
0
LINE
8
BLACK
6
CONTINUOUS
10
4.8991535433070865
20
-3.3066535433070867
11
4.9306496062992125
21
-3.3066535433070867
0
ARC
8
BLACK
10
4.9306496062992125
20
-3.2948425196850395
40
0.0118110236220472
50
-90.00000000
51
90.00000000
0
LINE
8
BLACK
6
CONTINUOUS
10
4.9306496062992125
20
-3.2830314960629923
11
4.8991535433070865
21
-3.2830314960629923
0
ARC
8
BLACK
10
4.8991535433070865
20
-3.2948425196850395
40
0.0118110236220472
50
90.00000000
51
270.00000000
0
LINE
8
BLACK
6
CONTINUOUS
10
5.057814960629921
20
-3.646811023622047
11
5.1011220472440941
21
-3.646811023622047
0
ARC
8
BLACK
10
5.1011220472440941
20
-3.6349999999999998
40
0.0118110236220472
50
-90.00000000
51
90.00000000
0
LINE
8
BLACK
6
CONTINUOUS
10
5.1011220472440941
20
-3.6231889763779526
11
5.057814960629921
21
-3.6231889763779526
0
ARC
8
BLACK
10
5.057814960629921
20
-3.6349999999999998
40
0.0118110236220472
50
90.00000000
51
270.00000000
0
LINE
8
BLACK
6
CONTINUOUS
10
5.057814960629921
20
-3.3066535433070867
11
5.1011220472440941
21
-3.3066535433070867
0
ARC
8
BLACK
10
5.1011220472440941
20
-3.2948425196850395
40
0.0118110236220472
50
-90.00000000
51
90.00000000
0
LINE
8
BLACK
6
CONTINUOUS
10
5.1011220472440941
20
-3.2830314960629923
11
5.057814960629921
21
-3.2830314960629923
0
ARC
8
BLACK
10
5.057814960629921
20
-3.2948425196850395
40
0.0118110236220472
50
90.00000000
51
270.00000000
0
CIRCLE
8
BLACK
10
6.6361614173228345
20
-3.7699212598425196
40
0.0068897637795276
0
CIRCLE
8
BLACK
10
6.6361614173228345
20
-3.6349212598425198
40
0.0068897637795276
0
CIRCLE
8
BLACK
10
6.6361614173228345
20
-3.4999212598425196
40
0.0068897637795276
0
CIRCLE
8
BLACK
10
6.6361614173228345
20
-3.3630708661417321
40
0.0068897637795276
0
CIRCLE
8
BLACK
10
4.9686417322834648
20
-3.7399212598425198
40
0.0068897637795276
  0
ENDSEC
  0
EOF
