  0
SECTION
  2
HEADER
  9
$ANGBASE
  50
0.0
  9
$ANGDIR
  70
1
  9
$MEASUREMENT
  70
0
  0
ENDSEC
  0
SECTION
  2
TABLES
  0
TABLE
  2
LTYPE
  70
4
  0
LTYPE
  5
40F
  2
CONTINUOUS
  70
0
  3
Solid line
  72
65
  73
0
  40
0.0
  0
LTYPE
  5
410
  2
DASHDOT
 70
0
  3
Dash Dot ____ _ ____ _
 72
65
 73
4
 40
2.0
 49
1.25
 49
-0.25
 49
0.25
 49
-0.25
  0
LTYPE
  5
411
  2
DASHED
 70
0
  3
Dashed __ __ __ __ __
 72
65
 73
2
 40
0.75
 49
0.5
 49
-0.25
  0
LTYPE
  5
43B
  2
DOTTED
 70
0
  3
Dotted .  .  .  .
 72
65
 73
2
 40
0.2
 49
0.0
 49
-0.2
  0
ENDTAB
  0
TABLE
  2
STYLE
  70
4
  0
STYLE
  2
KICAD
  70
0
  40
0
  41
1
  42
1
  50
0
  71
0
  3
isocp.shx
  0
STYLE
  2
KICADB
  70
0
  40
0
  41
1
  42
1
  50
0
  71
0
  3
isocp.shx
  0
STYLE
  2
KICADI
  70
0
  40
0
  41
1
  42
1
  50
15
  71
0
  3
isocp.shx
  0
STYLE
  2
KICADBI
  70
0
  40
0
  41
1
  42
1
  50
15
  71
0
  3
isocp.shx
  0
ENDTAB
  0
TABLE
  2
LAYER
  70
1
  0
LAYER
  2
BLACK
  70
0
  62
7
  6
CONTINUOUS
  0
ENDTAB
  0
ENDSEC
  0
SECTION
  2
ENTITIES
0
LINE
8
BLACK
6
CONTINUOUS
10
6.61801
20
-4.52801
11
6.63186
21
-4.53045
0
LINE
8
BLACK
6
CONTINUOUS
10
6.63186
20
-4.53045
11
6.64535
21
-4.53443
0
LINE
8
BLACK
6
CONTINUOUS
10
6.64535
20
-4.53443
11
6.65832
21
-4.53988
0
LINE
8
BLACK
6
CONTINUOUS
10
6.65832
20
-4.53988
11
6.6706
21
-4.54674
0
LINE
8
BLACK
6
CONTINUOUS
10
6.6706
20
-4.54674
11
6.68203
21
-4.55493
0
LINE
8
BLACK
6
CONTINUOUS
10
6.68203
20
-4.55493
11
6.69249
21
-4.56434
0
LINE
8
BLACK
6
CONTINUOUS
10
6.69249
20
-4.56434
11
6.70182
21
-4.57486
0
LINE
8
BLACK
6
CONTINUOUS
10
6.70182
20
-4.57486
11
6.70993
21
-4.58635
0
LINE
8
BLACK
6
CONTINUOUS
10
6.70993
20
-4.58635
11
6.71671
21
-4.59867
0
LINE
8
BLACK
6
CONTINUOUS
10
6.71671
20
-4.59867
11
6.72207
21
-4.61168
0
LINE
8
BLACK
6
CONTINUOUS
10
6.72207
20
-4.61168
11
6.72594
21
-4.6252
0
LINE
8
BLACK
6
CONTINUOUS
10
6.72594
20
-4.6252
11
6.72829
21
-4.63907
0
LINE
8
BLACK
6
CONTINUOUS
10
6.72829
20
-4.63907
11
6.72907
21
-4.65311
0
LINE
8
BLACK
6
CONTINUOUS
10
6.72907
20
-4.65311
11
6.72903
21
-4.65663
0
LINE
8
BLACK
6
CONTINUOUS
10
6.72903
20
-4.65663
11
6.72785
21
-4.67064
0
LINE
8
BLACK
6
CONTINUOUS
10
6.72785
20
-4.67064
11
6.72512
21
-4.68444
0
LINE
8
BLACK
6
CONTINUOUS
10
6.72512
20
-4.68444
11
6.72086
21
-4.69785
0
LINE
8
BLACK
6
CONTINUOUS
10
6.72086
20
-4.69785
11
6.71514
21
-4.7107
0
LINE
8
BLACK
6
CONTINUOUS
10
6.71514
20
-4.7107
11
6.70803
21
-4.72283
0
LINE
8
BLACK
6
CONTINUOUS
10
6.70803
20
-4.72283
11
6.6996
21
-4.73409
0
LINE
8
BLACK
6
CONTINUOUS
10
6.6996
20
-4.73409
11
6.68997
21
-4.74434
0
LINE
8
BLACK
6
CONTINUOUS
10
6.68997
20
-4.74434
11
6.67926
21
-4.75346
0
LINE
8
BLACK
6
CONTINUOUS
10
6.67926
20
-4.75346
11
6.6676
21
-4.76133
0
LINE
8
BLACK
6
CONTINUOUS
10
6.6676
20
-4.76133
11
6.65514
21
-4.76784
0
LINE
8
BLACK
6
CONTINUOUS
10
6.65514
20
-4.76784
11
6.64202
21
-4.77293
0
LINE
8
BLACK
6
CONTINUOUS
10
6.64202
20
-4.77293
11
6.62842
21
-4.77652
0
LINE
8
BLACK
6
CONTINUOUS
10
6.62842
20
-4.77652
11
6.61451
21
-4.77858
0
LINE
8
BLACK
6
CONTINUOUS
10
6.61451
20
-4.77858
11
6.60045
21
-4.77907
0
LINE
8
BLACK
6
CONTINUOUS
10
6.60045
20
-4.77907
11
6.58643
21
-4.77799
0
LINE
8
BLACK
6
CONTINUOUS
10
6.58643
20
-4.77799
11
6.57261
21
-4.77535
0
LINE
8
BLACK
6
CONTINUOUS
10
6.57261
20
-4.77535
11
6.55918
21
-4.77119
0
LINE
8
BLACK
6
CONTINUOUS
10
6.55918
20
-4.77119
11
6.54629
21
-4.76556
0
LINE
8
BLACK
6
CONTINUOUS
10
6.54629
20
-4.76556
11
6.53411
21
-4.75853
0
LINE
8
BLACK
6
CONTINUOUS
10
6.53411
20
-4.75853
11
6.52279
21
-4.75018
0
LINE
8
BLACK
6
CONTINUOUS
10
6.52279
20
-4.75018
11
6.51247
21
-4.74063
0
LINE
8
BLACK
6
CONTINUOUS
10
6.51247
20
-4.74063
11
6.50327
21
-4.72998
0
LINE
8
BLACK
6
CONTINUOUS
10
6.50327
20
-4.72998
11
6.49533
21
-4.71837
0
LINE
8
BLACK
6
CONTINUOUS
10
6.49533
20
-4.71837
11
6.48872
21
-4.70595
0
LINE
8
BLACK
6
CONTINUOUS
10
6.48872
20
-4.70595
11
6.48355
21
-4.69288
0
LINE
8
BLACK
6
CONTINUOUS
10
6.48355
20
-4.69288
11
6.47986
21
-4.6793
0
LINE
8
BLACK
6
CONTINUOUS
10
6.47986
20
-4.6793
11
6.47771
21
-4.6654
0
LINE
8
BLACK
6
CONTINUOUS
10
6.47771
20
-4.6654
11
6.47712
21
-4.65135
0
LINE
8
BLACK
6
CONTINUOUS
10
6.47712
20
-4.65135
11
6.4781
21
-4.63732
0
LINE
8
BLACK
6
CONTINUOUS
10
6.4781
20
-4.63732
11
6.48064
21
-4.62349
0
LINE
8
BLACK
6
CONTINUOUS
10
6.48064
20
-4.62349
11
6.4847
21
-4.61002
0
LINE
8
BLACK
6
CONTINUOUS
10
6.4847
20
-4.61002
11
6.49024
21
-4.59709
0
LINE
8
BLACK
6
CONTINUOUS
10
6.49024
20
-4.59709
11
6.49719
21
-4.58486
0
LINE
8
BLACK
6
CONTINUOUS
10
6.49719
20
-4.58486
11
6.50546
21
-4.57348
0
LINE
8
BLACK
6
CONTINUOUS
10
6.50546
20
-4.57348
11
6.51494
21
-4.5631
0
LINE
8
BLACK
6
CONTINUOUS
10
6.51494
20
-4.5631
11
6.52553
21
-4.55383
0
LINE
8
BLACK
6
CONTINUOUS
10
6.52553
20
-4.55383
11
6.53708
21
-4.54581
0
LINE
8
BLACK
6
CONTINUOUS
10
6.53708
20
-4.54581
11
6.54945
21
-4.53912
0
LINE
8
BLACK
6
CONTINUOUS
10
6.54945
20
-4.53912
11
6.56249
21
-4.53385
0
LINE
8
BLACK
6
CONTINUOUS
10
6.56249
20
-4.53385
11
6.57604
21
-4.53006
0
LINE
8
BLACK
6
CONTINUOUS
10
6.57604
20
-4.53006
11
6.58992
21
-4.52782
0
LINE
8
BLACK
6
CONTINUOUS
10
6.58992
20
-4.52782
11
6.60397
21
-4.52713
0
LINE
8
BLACK
6
CONTINUOUS
10
6.60397
20
-4.52713
11
6.61801
21
-4.52801
0
LINE
8
BLACK
6
CONTINUOUS
10
5.04163
20
-4.52801
11
5.05548
21
-4.53045
0
LINE
8
BLACK
6
CONTINUOUS
10
5.05548
20
-4.53045
11
5.06897
21
-4.53443
0
LINE
8
BLACK
6
CONTINUOUS
10
5.06897
20
-4.53443
11
5.08194
21
-4.53988
0
LINE
8
BLACK
6
CONTINUOUS
10
5.08194
20
-4.53988
11
5.09422
21
-4.54674
0
LINE
8
BLACK
6
CONTINUOUS
10
5.09422
20
-4.54674
11
5.10565
21
-4.55493
0
LINE
8
BLACK
6
CONTINUOUS
10
5.10565
20
-4.55493
11
5.11611
21
-4.56434
0
LINE
8
BLACK
6
CONTINUOUS
10
5.11611
20
-4.56434
11
5.12545
21
-4.57486
0
LINE
8
BLACK
6
CONTINUOUS
10
5.12545
20
-4.57486
11
5.13355
21
-4.58635
0
LINE
8
BLACK
6
CONTINUOUS
10
5.13355
20
-4.58635
11
5.14033
21
-4.59867
0
LINE
8
BLACK
6
CONTINUOUS
10
5.14033
20
-4.59867
11
5.14569
21
-4.61168
0
LINE
8
BLACK
6
CONTINUOUS
10
5.14569
20
-4.61168
11
5.14957
21
-4.6252
0
LINE
8
BLACK
6
CONTINUOUS
10
5.14957
20
-4.6252
11
5.15191
21
-4.63907
0
LINE
8
BLACK
6
CONTINUOUS
10
5.15191
20
-4.63907
11
5.1527
21
-4.65311
0
LINE
8
BLACK
6
CONTINUOUS
10
5.1527
20
-4.65311
11
5.15265
21
-4.65663
0
LINE
8
BLACK
6
CONTINUOUS
10
5.15265
20
-4.65663
11
5.15147
21
-4.67064
0
LINE
8
BLACK
6
CONTINUOUS
10
5.15147
20
-4.67064
11
5.14874
21
-4.68444
0
LINE
8
BLACK
6
CONTINUOUS
10
5.14874
20
-4.68444
11
5.14449
21
-4.69785
0
LINE
8
BLACK
6
CONTINUOUS
10
5.14449
20
-4.69785
11
5.13877
21
-4.7107
0
LINE
8
BLACK
6
CONTINUOUS
10
5.13877
20
-4.7107
11
5.13165
21
-4.72283
0
LINE
8
BLACK
6
CONTINUOUS
10
5.13165
20
-4.72283
11
5.12322
21
-4.73409
0
LINE
8
BLACK
6
CONTINUOUS
10
5.12322
20
-4.73409
11
5.11359
21
-4.74434
0
LINE
8
BLACK
6
CONTINUOUS
10
5.11359
20
-4.74434
11
5.10288
21
-4.75346
0
LINE
8
BLACK
6
CONTINUOUS
10
5.10288
20
-4.75346
11
5.09122
21
-4.76133
0
LINE
8
BLACK
6
CONTINUOUS
10
5.09122
20
-4.76133
11
5.07876
21
-4.76784
0
LINE
8
BLACK
6
CONTINUOUS
10
5.07876
20
-4.76784
11
5.06564
21
-4.77293
0
LINE
8
BLACK
6
CONTINUOUS
10
5.06564
20
-4.77293
11
5.05205
21
-4.77652
0
LINE
8
BLACK
6
CONTINUOUS
10
5.05205
20
-4.77652
11
5.03813
21
-4.77858
0
LINE
8
BLACK
6
CONTINUOUS
10
5.03813
20
-4.77858
11
5.02407
21
-4.77907
0
LINE
8
BLACK
6
CONTINUOUS
10
5.02407
20
-4.77907
11
5.01005
21
-4.77799
0
LINE
8
BLACK
6
CONTINUOUS
10
5.01005
20
-4.77799
11
4.99623
21
-4.77535
0
LINE
8
BLACK
6
CONTINUOUS
10
4.99623
20
-4.77535
11
4.9828
21
-4.77119
0
LINE
8
BLACK
6
CONTINUOUS
10
4.9828
20
-4.77119
11
4.96991
21
-4.76556
0
LINE
8
BLACK
6
CONTINUOUS
10
4.96991
20
-4.76556
11
4.95773
21
-4.75853
0
LINE
8
BLACK
6
CONTINUOUS
10
4.95773
20
-4.75853
11
4.94641
21
-4.75018
0
LINE
8
BLACK
6
CONTINUOUS
10
4.94641
20
-4.75018
11
4.93609
21
-4.74063
0
LINE
8
BLACK
6
CONTINUOUS
10
4.93609
20
-4.74063
11
4.9269
21
-4.72998
0
LINE
8
BLACK
6
CONTINUOUS
10
4.9269
20
-4.72998
11
4.91895
21
-4.71837
0
LINE
8
BLACK
6
CONTINUOUS
10
4.91895
20
-4.71837
11
4.91235
21
-4.70595
0
LINE
8
BLACK
6
CONTINUOUS
10
4.91235
20
-4.70595
11
4.90717
21
-4.69288
0
LINE
8
BLACK
6
CONTINUOUS
10
4.90717
20
-4.69288
11
4.90348
21
-4.6793
0
LINE
8
BLACK
6
CONTINUOUS
10
4.90348
20
-4.6793
11
4.90133
21
-4.6654
0
LINE
8
BLACK
6
CONTINUOUS
10
4.90133
20
-4.6654
11
4.90074
21
-4.65135
0
LINE
8
BLACK
6
CONTINUOUS
10
4.90074
20
-4.65135
11
4.90172
21
-4.63732
0
LINE
8
BLACK
6
CONTINUOUS
10
4.90172
20
-4.63732
11
4.90426
21
-4.62349
0
LINE
8
BLACK
6
CONTINUOUS
10
4.90426
20
-4.62349
11
4.90833
21
-4.61002
0
LINE
8
BLACK
6
CONTINUOUS
10
4.90833
20
-4.61002
11
4.91387
21
-4.59709
0
LINE
8
BLACK
6
CONTINUOUS
10
4.91387
20
-4.59709
11
4.92081
21
-4.58486
0
LINE
8
BLACK
6
CONTINUOUS
10
4.92081
20
-4.58486
11
4.92908
21
-4.57348
0
LINE
8
BLACK
6
CONTINUOUS
10
4.92908
20
-4.57348
11
4.93857
21
-4.5631
0
LINE
8
BLACK
6
CONTINUOUS
10
4.93857
20
-4.5631
11
4.94915
21
-4.55383
0
LINE
8
BLACK
6
CONTINUOUS
10
4.94915
20
-4.55383
11
4.9607
21
-4.54581
0
LINE
8
BLACK
6
CONTINUOUS
10
4.9607
20
-4.54581
11
4.97307
21
-4.53912
0
LINE
8
BLACK
6
CONTINUOUS
10
4.97307
20
-4.53912
11
4.98611
21
-4.53385
0
LINE
8
BLACK
6
CONTINUOUS
10
4.98611
20
-4.53385
11
4.99966
21
-4.53006
0
LINE
8
BLACK
6
CONTINUOUS
10
4.99966
20
-4.53006
11
5.01354
21
-4.52782
0
LINE
8
BLACK
6
CONTINUOUS
10
5.01354
20
-4.52782
11
5.02759
21
-4.52713
0
LINE
8
BLACK
6
CONTINUOUS
10
5.02759
20
-4.52713
11
5.04163
21
-4.52801
0
LINE
8
BLACK
6
CONTINUOUS
10
5.98739
20
-3.84014
11
5.99309
21
-3.8425
0
LINE
8
BLACK
6
CONTINUOUS
10
5.99309
20
-3.8425
11
5.99798
21
-3.84625
0
LINE
8
BLACK
6
CONTINUOUS
10
5.99798
20
-3.84625
11
6.00174
21
-3.85114
0
LINE
8
BLACK
6
CONTINUOUS
10
6.00174
20
-3.85114
11
6.0041
21
-3.85684
0
LINE
8
BLACK
6
CONTINUOUS
10
6.0041
20
-3.85684
11
6.0049
21
-3.86295
0
LINE
8
BLACK
6
CONTINUOUS
10
6.0049
20
-3.86295
11
6.0041
21
-3.86907
0
LINE
8
BLACK
6
CONTINUOUS
10
6.0041
20
-3.86907
11
6.00174
21
-3.87476
0
LINE
8
BLACK
6
CONTINUOUS
10
6.00174
20
-3.87476
11
5.99798
21
-3.87966
0
LINE
8
BLACK
6
CONTINUOUS
10
5.99798
20
-3.87966
11
5.99309
21
-3.88341
0
LINE
8
BLACK
6
CONTINUOUS
10
5.99309
20
-3.88341
11
5.98739
21
-3.88577
0
LINE
8
BLACK
6
CONTINUOUS
10
5.98739
20
-3.88577
11
5.98128
21
-3.88657
0
LINE
8
BLACK
6
CONTINUOUS
10
5.98128
20
-3.88657
11
5.97517
21
-3.88577
0
LINE
8
BLACK
6
CONTINUOUS
10
5.97517
20
-3.88577
11
5.96947
21
-3.88341
0
LINE
8
BLACK
6
CONTINUOUS
10
5.96947
20
-3.88341
11
5.96458
21
-3.87966
0
LINE
8
BLACK
6
CONTINUOUS
10
5.96458
20
-3.87966
11
5.96082
21
-3.87476
0
LINE
8
BLACK
6
CONTINUOUS
10
5.96082
20
-3.87476
11
5.95846
21
-3.86907
0
LINE
8
BLACK
6
CONTINUOUS
10
5.95846
20
-3.86907
11
5.95766
21
-3.86295
0
LINE
8
BLACK
6
CONTINUOUS
10
5.95766
20
-3.86295
11
5.95846
21
-3.85684
0
LINE
8
BLACK
6
CONTINUOUS
10
5.95846
20
-3.85684
11
5.96082
21
-3.85114
0
LINE
8
BLACK
6
CONTINUOUS
10
5.96082
20
-3.85114
11
5.96458
21
-3.84625
0
LINE
8
BLACK
6
CONTINUOUS
10
5.96458
20
-3.84625
11
5.96947
21
-3.8425
0
LINE
8
BLACK
6
CONTINUOUS
10
5.96947
20
-3.8425
11
5.97517
21
-3.84014
0
LINE
8
BLACK
6
CONTINUOUS
10
5.97517
20
-3.84014
11
5.98128
21
-3.83933
0
LINE
8
BLACK
6
CONTINUOUS
10
5.98128
20
-3.83933
11
5.98739
21
-3.84014
0
LINE
8
BLACK
6
CONTINUOUS
10
6.64539
20
-3.71758
11
6.65434
21
-3.71998
0
LINE
8
BLACK
6
CONTINUOUS
10
6.65434
20
-3.71998
11
6.66274
21
-3.72389
0
LINE
8
BLACK
6
CONTINUOUS
10
6.66274
20
-3.72389
11
6.67033
21
-3.72921
0
LINE
8
BLACK
6
CONTINUOUS
10
6.67033
20
-3.72921
11
6.67688
21
-3.73576
0
LINE
8
BLACK
6
CONTINUOUS
10
6.67688
20
-3.73576
11
6.68219
21
-3.74335
0
LINE
8
BLACK
6
CONTINUOUS
10
6.68219
20
-3.74335
11
6.68611
21
-3.75174
0
LINE
8
BLACK
6
CONTINUOUS
10
6.68611
20
-3.75174
11
6.6885
21
-3.76069
0
LINE
8
BLACK
6
CONTINUOUS
10
6.6885
20
-3.76069
11
6.68931
21
-3.76992
0
LINE
8
BLACK
6
CONTINUOUS
10
6.68931
20
-3.76992
11
6.6885
21
-3.77915
0
LINE
8
BLACK
6
CONTINUOUS
10
6.6885
20
-3.77915
11
6.68611
21
-3.7881
0
LINE
8
BLACK
6
CONTINUOUS
10
6.68611
20
-3.7881
11
6.68219
21
-3.7965
0
LINE
8
BLACK
6
CONTINUOUS
10
6.68219
20
-3.7965
11
6.67688
21
-3.80409
0
LINE
8
BLACK
6
CONTINUOUS
10
6.67688
20
-3.80409
11
6.67033
21
-3.81064
0
LINE
8
BLACK
6
CONTINUOUS
10
6.67033
20
-3.81064
11
6.66274
21
-3.81595
0
LINE
8
BLACK
6
CONTINUOUS
10
6.66274
20
-3.81595
11
6.65434
21
-3.81987
0
LINE
8
BLACK
6
CONTINUOUS
10
6.65434
20
-3.81987
11
6.64539
21
-3.82226
0
LINE
8
BLACK
6
CONTINUOUS
10
6.64539
20
-3.82226
11
6.63616
21
-3.82307
0
LINE
8
BLACK
6
CONTINUOUS
10
6.63616
20
-3.82307
11
6.62693
21
-3.82226
0
LINE
8
BLACK
6
CONTINUOUS
10
6.62693
20
-3.82226
11
6.61798
21
-3.81987
0
LINE
8
BLACK
6
CONTINUOUS
10
6.61798
20
-3.81987
11
6.60959
21
-3.81595
0
LINE
8
BLACK
6
CONTINUOUS
10
6.60959
20
-3.81595
11
6.602
21
-3.81064
0
LINE
8
BLACK
6
CONTINUOUS
10
6.602
20
-3.81064
11
6.59545
21
-3.80409
0
LINE
8
BLACK
6
CONTINUOUS
10
6.59545
20
-3.80409
11
6.59013
21
-3.7965
0
LINE
8
BLACK
6
CONTINUOUS
10
6.59013
20
-3.7965
11
6.58622
21
-3.7881
0
LINE
8
BLACK
6
CONTINUOUS
10
6.58622
20
-3.7881
11
6.58382
21
-3.77915
0
LINE
8
BLACK
6
CONTINUOUS
10
6.58382
20
-3.77915
11
6.58301
21
-3.76992
0
LINE
8
BLACK
6
CONTINUOUS
10
6.58301
20
-3.76992
11
6.58382
21
-3.76069
0
LINE
8
BLACK
6
CONTINUOUS
10
6.58382
20
-3.76069
11
6.58622
21
-3.75174
0
LINE
8
BLACK
6
CONTINUOUS
10
6.58622
20
-3.75174
11
6.59013
21
-3.74335
0
LINE
8
BLACK
6
CONTINUOUS
10
6.59013
20
-3.74335
11
6.59545
21
-3.73576
0
LINE
8
BLACK
6
CONTINUOUS
10
6.59545
20
-3.73576
11
6.602
21
-3.72921
0
LINE
8
BLACK
6
CONTINUOUS
10
6.602
20
-3.72921
11
6.60959
21
-3.72389
0
LINE
8
BLACK
6
CONTINUOUS
10
6.60959
20
-3.72389
11
6.61798
21
-3.71998
0
LINE
8
BLACK
6
CONTINUOUS
10
6.61798
20
-3.71998
11
6.62693
21
-3.71758
0
LINE
8
BLACK
6
CONTINUOUS
10
6.62693
20
-3.71758
11
6.63616
21
-3.71677
0
LINE
8
BLACK
6
CONTINUOUS
10
6.63616
20
-3.71677
11
6.64539
21
-3.71758
0
LINE
8
BLACK
6
CONTINUOUS
10
4.97787
20
-3.68758
11
4.98682
21
-3.68998
0
LINE
8
BLACK
6
CONTINUOUS
10
4.98682
20
-3.68998
11
4.99522
21
-3.69389
0
LINE
8
BLACK
6
CONTINUOUS
10
4.99522
20
-3.69389
11
5.00281
21
-3.69921
0
LINE
8
BLACK
6
CONTINUOUS
10
5.00281
20
-3.69921
11
5.00936
21
-3.70576
0
LINE
8
BLACK
6
CONTINUOUS
10
5.00936
20
-3.70576
11
5.01467
21
-3.71335
0
LINE
8
BLACK
6
CONTINUOUS
10
5.01467
20
-3.71335
11
5.01859
21
-3.72174
0
LINE
8
BLACK
6
CONTINUOUS
10
5.01859
20
-3.72174
11
5.02098
21
-3.73069
0
LINE
8
BLACK
6
CONTINUOUS
10
5.02098
20
-3.73069
11
5.02179
21
-3.73992
0
LINE
8
BLACK
6
CONTINUOUS
10
5.02179
20
-3.73992
11
5.02098
21
-3.74915
0
LINE
8
BLACK
6
CONTINUOUS
10
5.02098
20
-3.74915
11
5.01859
21
-3.7581
0
LINE
8
BLACK
6
CONTINUOUS
10
5.01859
20
-3.7581
11
5.01467
21
-3.7665
0
LINE
8
BLACK
6
CONTINUOUS
10
5.01467
20
-3.7665
11
5.00936
21
-3.77409
0
LINE
8
BLACK
6
CONTINUOUS
10
5.00936
20
-3.77409
11
5.00281
21
-3.78064
0
LINE
8
BLACK
6
CONTINUOUS
10
5.00281
20
-3.78064
11
4.99522
21
-3.78595
0
LINE
8
BLACK
6
CONTINUOUS
10
4.99522
20
-3.78595
11
4.98682
21
-3.78987
0
LINE
8
BLACK
6
CONTINUOUS
10
4.98682
20
-3.78987
11
4.97787
21
-3.79226
0
LINE
8
BLACK
6
CONTINUOUS
10
4.97787
20
-3.79226
11
4.96864
21
-3.79307
0
LINE
8
BLACK
6
CONTINUOUS
10
4.96864
20
-3.79307
11
4.95941
21
-3.79226
0
LINE
8
BLACK
6
CONTINUOUS
10
4.95941
20
-3.79226
11
4.95046
21
-3.78987
0
LINE
8
BLACK
6
CONTINUOUS
10
4.95046
20
-3.78987
11
4.94207
21
-3.78595
0
LINE
8
BLACK
6
CONTINUOUS
10
4.94207
20
-3.78595
11
4.93448
21
-3.78064
0
LINE
8
BLACK
6
CONTINUOUS
10
4.93448
20
-3.78064
11
4.92793
21
-3.77409
0
LINE
8
BLACK
6
CONTINUOUS
10
4.92793
20
-3.77409
11
4.92261
21
-3.7665
0
LINE
8
BLACK
6
CONTINUOUS
10
4.92261
20
-3.7665
11
4.9187
21
-3.7581
0
LINE
8
BLACK
6
CONTINUOUS
10
4.9187
20
-3.7581
11
4.9163
21
-3.74915
0
LINE
8
BLACK
6
CONTINUOUS
10
4.9163
20
-3.74915
11
4.91549
21
-3.73992
0
LINE
8
BLACK
6
CONTINUOUS
10
4.91549
20
-3.73992
11
4.9163
21
-3.73069
0
LINE
8
BLACK
6
CONTINUOUS
10
4.9163
20
-3.73069
11
4.9187
21
-3.72174
0
LINE
8
BLACK
6
CONTINUOUS
10
4.9187
20
-3.72174
11
4.92261
21
-3.71335
0
LINE
8
BLACK
6
CONTINUOUS
10
4.92261
20
-3.71335
11
4.92793
21
-3.70576
0
LINE
8
BLACK
6
CONTINUOUS
10
4.92793
20
-3.70576
11
4.93448
21
-3.69921
0
LINE
8
BLACK
6
CONTINUOUS
10
4.93448
20
-3.69921
11
4.94207
21
-3.69389
0
LINE
8
BLACK
6
CONTINUOUS
10
4.94207
20
-3.69389
11
4.95046
21
-3.68998
0
LINE
8
BLACK
6
CONTINUOUS
10
4.95046
20
-3.68998
11
4.95941
21
-3.68758
0
LINE
8
BLACK
6
CONTINUOUS
10
4.95941
20
-3.68758
11
4.96864
21
-3.68677
0
LINE
8
BLACK
6
CONTINUOUS
10
4.96864
20
-3.68677
11
4.97787
21
-3.68758
0
LINE
8
BLACK
6
CONTINUOUS
10
6.64539
20
-3.58258
11
6.65434
21
-3.58498
0
LINE
8
BLACK
6
CONTINUOUS
10
6.65434
20
-3.58498
11
6.66274
21
-3.58889
0
LINE
8
BLACK
6
CONTINUOUS
10
6.66274
20
-3.58889
11
6.67033
21
-3.59421
0
LINE
8
BLACK
6
CONTINUOUS
10
6.67033
20
-3.59421
11
6.67688
21
-3.60076
0
LINE
8
BLACK
6
CONTINUOUS
10
6.67688
20
-3.60076
11
6.68219
21
-3.60835
0
LINE
8
BLACK
6
CONTINUOUS
10
6.68219
20
-3.60835
11
6.68611
21
-3.61674
0
LINE
8
BLACK
6
CONTINUOUS
10
6.68611
20
-3.61674
11
6.6885
21
-3.62569
0
LINE
8
BLACK
6
CONTINUOUS
10
6.6885
20
-3.62569
11
6.68931
21
-3.63492
0
LINE
8
BLACK
6
CONTINUOUS
10
6.68931
20
-3.63492
11
6.6885
21
-3.64415
0
LINE
8
BLACK
6
CONTINUOUS
10
6.6885
20
-3.64415
11
6.68611
21
-3.6531
0
LINE
8
BLACK
6
CONTINUOUS
10
6.68611
20
-3.6531
11
6.68219
21
-3.6615
0
LINE
8
BLACK
6
CONTINUOUS
10
6.68219
20
-3.6615
11
6.67688
21
-3.66909
0
LINE
8
BLACK
6
CONTINUOUS
10
6.67688
20
-3.66909
11
6.67033
21
-3.67564
0
LINE
8
BLACK
6
CONTINUOUS
10
6.67033
20
-3.67564
11
6.66274
21
-3.68095
0
LINE
8
BLACK
6
CONTINUOUS
10
6.66274
20
-3.68095
11
6.65434
21
-3.68487
0
LINE
8
BLACK
6
CONTINUOUS
10
6.65434
20
-3.68487
11
6.64539
21
-3.68726
0
LINE
8
BLACK
6
CONTINUOUS
10
6.64539
20
-3.68726
11
6.63616
21
-3.68807
0
LINE
8
BLACK
6
CONTINUOUS
10
6.63616
20
-3.68807
11
6.62693
21
-3.68726
0
LINE
8
BLACK
6
CONTINUOUS
10
6.62693
20
-3.68726
11
6.61798
21
-3.68487
0
LINE
8
BLACK
6
CONTINUOUS
10
6.61798
20
-3.68487
11
6.60959
21
-3.68095
0
LINE
8
BLACK
6
CONTINUOUS
10
6.60959
20
-3.68095
11
6.602
21
-3.67564
0
LINE
8
BLACK
6
CONTINUOUS
10
6.602
20
-3.67564
11
6.59545
21
-3.66909
0
LINE
8
BLACK
6
CONTINUOUS
10
6.59545
20
-3.66909
11
6.59013
21
-3.6615
0
LINE
8
BLACK
6
CONTINUOUS
10
6.59013
20
-3.6615
11
6.58622
21
-3.6531
0
LINE
8
BLACK
6
CONTINUOUS
10
6.58622
20
-3.6531
11
6.58382
21
-3.64415
0
LINE
8
BLACK
6
CONTINUOUS
10
6.58382
20
-3.64415
11
6.58301
21
-3.63492
0
LINE
8
BLACK
6
CONTINUOUS
10
6.58301
20
-3.63492
11
6.58382
21
-3.62569
0
LINE
8
BLACK
6
CONTINUOUS
10
6.58382
20
-3.62569
11
6.58622
21
-3.61674
0
LINE
8
BLACK
6
CONTINUOUS
10
6.58622
20
-3.61674
11
6.59013
21
-3.60835
0
LINE
8
BLACK
6
CONTINUOUS
10
6.59013
20
-3.60835
11
6.59545
21
-3.60076
0
LINE
8
BLACK
6
CONTINUOUS
10
6.59545
20
-3.60076
11
6.602
21
-3.59421
0
LINE
8
BLACK
6
CONTINUOUS
10
6.602
20
-3.59421
11
6.60959
21
-3.58889
0
LINE
8
BLACK
6
CONTINUOUS
10
6.60959
20
-3.58889
11
6.61798
21
-3.58498
0
LINE
8
BLACK
6
CONTINUOUS
10
6.61798
20
-3.58498
11
6.62693
21
-3.58258
0
LINE
8
BLACK
6
CONTINUOUS
10
6.62693
20
-3.58258
11
6.63616
21
-3.58177
0
LINE
8
BLACK
6
CONTINUOUS
10
6.63616
20
-3.58177
11
6.64539
21
-3.58258
0
LINE
8
BLACK
6
CONTINUOUS
10
5.10367
20
-3.60668
11
5.11009
21
-3.60825
0
LINE
8
BLACK
6
CONTINUOUS
10
5.11009
20
-3.60825
11
5.11597
21
-3.61125
0
LINE
8
BLACK
6
CONTINUOUS
10
5.11597
20
-3.61125
11
5.12101
21
-3.61553
0
LINE
8
BLACK
6
CONTINUOUS
10
5.12101
20
-3.61553
11
5.12493
21
-3.62086
0
LINE
8
BLACK
6
CONTINUOUS
10
5.12493
20
-3.62086
11
5.12752
21
-3.62694
0
LINE
8
BLACK
6
CONTINUOUS
10
5.12752
20
-3.62694
11
5.12864
21
-3.63346
0
LINE
8
BLACK
6
CONTINUOUS
10
5.12864
20
-3.63346
11
5.12823
21
-3.64005
0
LINE
8
BLACK
6
CONTINUOUS
10
5.12823
20
-3.64005
11
5.12631
21
-3.64638
0
LINE
8
BLACK
6
CONTINUOUS
10
5.12631
20
-3.64638
11
5.12299
21
-3.6521
0
LINE
8
BLACK
6
CONTINUOUS
10
5.12299
20
-3.6521
11
5.11845
21
-3.6569
0
LINE
8
BLACK
6
CONTINUOUS
10
5.11845
20
-3.6569
11
5.11292
21
-3.66052
0
LINE
8
BLACK
6
CONTINUOUS
10
5.11292
20
-3.66052
11
5.1067
21
-3.66278
0
LINE
8
BLACK
6
CONTINUOUS
10
5.1067
20
-3.66278
11
5.10014
21
-3.66354
0
LINE
8
BLACK
6
CONTINUOUS
10
5.10014
20
-3.66354
11
5.0588
21
-3.66354
0
LINE
8
BLACK
6
CONTINUOUS
10
5.0588
20
-3.66354
11
5.05527
21
-3.66332
0
LINE
8
BLACK
6
CONTINUOUS
10
5.05527
20
-3.66332
11
5.04885
21
-3.66175
0
LINE
8
BLACK
6
CONTINUOUS
10
5.04885
20
-3.66175
11
5.04296
21
-3.65875
0
LINE
8
BLACK
6
CONTINUOUS
10
5.04296
20
-3.65875
11
5.03792
21
-3.65447
0
LINE
8
BLACK
6
CONTINUOUS
10
5.03792
20
-3.65447
11
5.03401
21
-3.64914
0
LINE
8
BLACK
6
CONTINUOUS
10
5.03401
20
-3.64914
11
5.03142
21
-3.64306
0
LINE
8
BLACK
6
CONTINUOUS
10
5.03142
20
-3.64306
11
5.0303
21
-3.63654
0
LINE
8
BLACK
6
CONTINUOUS
10
5.0303
20
-3.63654
11
5.03071
21
-3.62995
0
LINE
8
BLACK
6
CONTINUOUS
10
5.03071
20
-3.62995
11
5.03262
21
-3.62362
0
LINE
8
BLACK
6
CONTINUOUS
10
5.03262
20
-3.62362
11
5.03594
21
-3.6179
0
LINE
8
BLACK
6
CONTINUOUS
10
5.03594
20
-3.6179
11
5.04049
21
-3.6131
0
LINE
8
BLACK
6
CONTINUOUS
10
5.04049
20
-3.6131
11
5.04602
21
-3.60948
0
LINE
8
BLACK
6
CONTINUOUS
10
5.04602
20
-3.60948
11
5.05223
21
-3.60722
0
LINE
8
BLACK
6
CONTINUOUS
10
5.05223
20
-3.60722
11
5.0588
21
-3.60646
0
LINE
8
BLACK
6
CONTINUOUS
10
5.0588
20
-3.60646
11
5.10014
21
-3.60646
0
LINE
8
BLACK
6
CONTINUOUS
10
5.10014
20
-3.60646
11
5.10367
21
-3.60668
0
LINE
8
BLACK
6
CONTINUOUS
10
4.93488
20
-3.60744
11
4.94144
21
-3.60831
0
LINE
8
BLACK
6
CONTINUOUS
10
4.94144
20
-3.60831
11
4.94761
21
-3.61071
0
LINE
8
BLACK
6
CONTINUOUS
10
4.94761
20
-3.61071
11
4.95303
21
-3.61452
0
LINE
8
BLACK
6
CONTINUOUS
10
4.95303
20
-3.61452
11
4.95738
21
-3.61951
0
LINE
8
BLACK
6
CONTINUOUS
10
4.95738
20
-3.61951
11
4.96042
21
-3.62539
0
LINE
8
BLACK
6
CONTINUOUS
10
4.96042
20
-3.62539
11
4.96196
21
-3.63183
0
LINE
8
BLACK
6
CONTINUOUS
10
4.96196
20
-3.63183
11
4.96193
21
-3.63845
0
LINE
8
BLACK
6
CONTINUOUS
10
4.96193
20
-3.63845
11
4.96032
21
-3.64488
0
LINE
8
BLACK
6
CONTINUOUS
10
4.96032
20
-3.64488
11
4.95722
21
-3.65073
0
LINE
8
BLACK
6
CONTINUOUS
10
4.95722
20
-3.65073
11
4.95281
21
-3.65567
0
LINE
8
BLACK
6
CONTINUOUS
10
4.95281
20
-3.65567
11
4.94735
21
-3.65942
0
LINE
8
BLACK
6
CONTINUOUS
10
4.94735
20
-3.65942
11
4.94116
21
-3.66176
0
LINE
8
BLACK
6
CONTINUOUS
10
4.94116
20
-3.66176
11
4.93459
21
-3.66256
0
LINE
8
BLACK
6
CONTINUOUS
10
4.93459
20
-3.66256
11
4.89522
21
-3.66256
0
LINE
8
BLACK
6
CONTINUOUS
10
4.89522
20
-3.66256
11
4.89493
21
-3.66256
0
LINE
8
BLACK
6
CONTINUOUS
10
4.89493
20
-3.66256
11
4.88836
21
-3.66169
0
LINE
8
BLACK
6
CONTINUOUS
10
4.88836
20
-3.66169
11
4.88219
21
-3.65929
0
LINE
8
BLACK
6
CONTINUOUS
10
4.88219
20
-3.65929
11
4.87678
21
-3.65548
0
LINE
8
BLACK
6
CONTINUOUS
10
4.87678
20
-3.65548
11
4.87242
21
-3.65049
0
LINE
8
BLACK
6
CONTINUOUS
10
4.87242
20
-3.65049
11
4.86939
21
-3.64461
0
LINE
8
BLACK
6
CONTINUOUS
10
4.86939
20
-3.64461
11
4.86784
21
-3.63817
0
LINE
8
BLACK
6
CONTINUOUS
10
4.86784
20
-3.63817
11
4.86787
21
-3.63155
0
LINE
8
BLACK
6
CONTINUOUS
10
4.86787
20
-3.63155
11
4.86949
21
-3.62512
0
LINE
8
BLACK
6
CONTINUOUS
10
4.86949
20
-3.62512
11
4.87259
21
-3.61927
0
LINE
8
BLACK
6
CONTINUOUS
10
4.87259
20
-3.61927
11
4.87699
21
-3.61433
0
LINE
8
BLACK
6
CONTINUOUS
10
4.87699
20
-3.61433
11
4.88245
21
-3.61058
0
LINE
8
BLACK
6
CONTINUOUS
10
4.88245
20
-3.61058
11
4.88864
21
-3.60824
0
LINE
8
BLACK
6
CONTINUOUS
10
4.88864
20
-3.60824
11
4.89522
21
-3.60744
0
LINE
8
BLACK
6
CONTINUOUS
10
4.89522
20
-3.60744
11
4.93459
21
-3.60744
0
LINE
8
BLACK
6
CONTINUOUS
10
4.93459
20
-3.60744
11
4.93488
21
-3.60744
0
LINE
8
BLACK
6
CONTINUOUS
10
5.06513
20
-3.55874
11
5.07012
21
-3.5608
0
LINE
8
BLACK
6
CONTINUOUS
10
5.07012
20
-3.5608
11
5.0744
21
-3.56409
0
LINE
8
BLACK
6
CONTINUOUS
10
5.0744
20
-3.56409
11
5.07768
21
-3.56837
0
LINE
8
BLACK
6
CONTINUOUS
10
5.07768
20
-3.56837
11
5.07975
21
-3.57335
0
LINE
8
BLACK
6
CONTINUOUS
10
5.07975
20
-3.57335
11
5.08045
21
-3.5787
0
LINE
8
BLACK
6
CONTINUOUS
10
5.08045
20
-3.5787
11
5.07975
21
-3.58405
0
LINE
8
BLACK
6
CONTINUOUS
10
5.07975
20
-3.58405
11
5.07768
21
-3.58904
0
LINE
8
BLACK
6
CONTINUOUS
10
5.07768
20
-3.58904
11
5.0744
21
-3.59332
0
LINE
8
BLACK
6
CONTINUOUS
10
5.0744
20
-3.59332
11
5.07012
21
-3.5966
0
LINE
8
BLACK
6
CONTINUOUS
10
5.07012
20
-3.5966
11
5.06513
21
-3.59867
0
LINE
8
BLACK
6
CONTINUOUS
10
5.06513
20
-3.59867
11
5.05978
21
-3.59937
0
LINE
8
BLACK
6
CONTINUOUS
10
5.05978
20
-3.59937
11
5.05443
21
-3.59867
0
LINE
8
BLACK
6
CONTINUOUS
10
5.05443
20
-3.59867
11
5.04945
21
-3.5966
0
LINE
8
BLACK
6
CONTINUOUS
10
5.04945
20
-3.5966
11
5.04517
21
-3.59332
0
LINE
8
BLACK
6
CONTINUOUS
10
5.04517
20
-3.59332
11
5.04188
21
-3.58904
0
LINE
8
BLACK
6
CONTINUOUS
10
5.04188
20
-3.58904
11
5.03982
21
-3.58405
0
LINE
8
BLACK
6
CONTINUOUS
10
5.03982
20
-3.58405
11
5.03911
21
-3.5787
0
LINE
8
BLACK
6
CONTINUOUS
10
5.03911
20
-3.5787
11
5.03982
21
-3.57335
0
LINE
8
BLACK
6
CONTINUOUS
10
5.03982
20
-3.57335
11
5.04188
21
-3.56837
0
LINE
8
BLACK
6
CONTINUOUS
10
5.04188
20
-3.56837
11
5.04517
21
-3.56409
0
LINE
8
BLACK
6
CONTINUOUS
10
5.04517
20
-3.56409
11
5.04945
21
-3.5608
0
LINE
8
BLACK
6
CONTINUOUS
10
5.04945
20
-3.5608
11
5.05443
21
-3.55874
0
LINE
8
BLACK
6
CONTINUOUS
10
5.05443
20
-3.55874
11
5.05978
21
-3.55803
0
LINE
8
BLACK
6
CONTINUOUS
10
5.05978
20
-3.55803
11
5.06513
21
-3.55874
0
LINE
8
BLACK
6
CONTINUOUS
10
6.64539
20
-3.44758
11
6.65434
21
-3.44998
0
LINE
8
BLACK
6
CONTINUOUS
10
6.65434
20
-3.44998
11
6.66274
21
-3.45389
0
LINE
8
BLACK
6
CONTINUOUS
10
6.66274
20
-3.45389
11
6.67033
21
-3.45921
0
LINE
8
BLACK
6
CONTINUOUS
10
6.67033
20
-3.45921
11
6.67688
21
-3.46576
0
LINE
8
BLACK
6
CONTINUOUS
10
6.67688
20
-3.46576
11
6.68219
21
-3.47335
0
LINE
8
BLACK
6
CONTINUOUS
10
6.68219
20
-3.47335
11
6.68611
21
-3.48174
0
LINE
8
BLACK
6
CONTINUOUS
10
6.68611
20
-3.48174
11
6.6885
21
-3.49069
0
LINE
8
BLACK
6
CONTINUOUS
10
6.6885
20
-3.49069
11
6.68931
21
-3.49992
0
LINE
8
BLACK
6
CONTINUOUS
10
6.68931
20
-3.49992
11
6.6885
21
-3.50915
0
LINE
8
BLACK
6
CONTINUOUS
10
6.6885
20
-3.50915
11
6.68611
21
-3.5181
0
LINE
8
BLACK
6
CONTINUOUS
10
6.68611
20
-3.5181
11
6.68219
21
-3.5265
0
LINE
8
BLACK
6
CONTINUOUS
10
6.68219
20
-3.5265
11
6.67688
21
-3.53409
0
LINE
8
BLACK
6
CONTINUOUS
10
6.67688
20
-3.53409
11
6.67033
21
-3.54064
0
LINE
8
BLACK
6
CONTINUOUS
10
6.67033
20
-3.54064
11
6.66274
21
-3.54595
0
LINE
8
BLACK
6
CONTINUOUS
10
6.66274
20
-3.54595
11
6.65434
21
-3.54987
0
LINE
8
BLACK
6
CONTINUOUS
10
6.65434
20
-3.54987
11
6.64539
21
-3.55226
0
LINE
8
BLACK
6
CONTINUOUS
10
6.64539
20
-3.55226
11
6.63616
21
-3.55307
0
LINE
8
BLACK
6
CONTINUOUS
10
6.63616
20
-3.55307
11
6.62693
21
-3.55226
0
LINE
8
BLACK
6
CONTINUOUS
10
6.62693
20
-3.55226
11
6.61798
21
-3.54987
0
LINE
8
BLACK
6
CONTINUOUS
10
6.61798
20
-3.54987
11
6.60959
21
-3.54595
0
LINE
8
BLACK
6
CONTINUOUS
10
6.60959
20
-3.54595
11
6.602
21
-3.54064
0
LINE
8
BLACK
6
CONTINUOUS
10
6.602
20
-3.54064
11
6.59545
21
-3.53409
0
LINE
8
BLACK
6
CONTINUOUS
10
6.59545
20
-3.53409
11
6.59013
21
-3.5265
0
LINE
8
BLACK
6
CONTINUOUS
10
6.59013
20
-3.5265
11
6.58622
21
-3.5181
0
LINE
8
BLACK
6
CONTINUOUS
10
6.58622
20
-3.5181
11
6.58382
21
-3.50915
0
LINE
8
BLACK
6
CONTINUOUS
10
6.58382
20
-3.50915
11
6.58301
21
-3.49992
0
LINE
8
BLACK
6
CONTINUOUS
10
6.58301
20
-3.49992
11
6.58382
21
-3.49069
0
LINE
8
BLACK
6
CONTINUOUS
10
6.58382
20
-3.49069
11
6.58622
21
-3.48174
0
LINE
8
BLACK
6
CONTINUOUS
10
6.58622
20
-3.48174
11
6.59013
21
-3.47335
0
LINE
8
BLACK
6
CONTINUOUS
10
6.59013
20
-3.47335
11
6.59545
21
-3.46576
0
LINE
8
BLACK
6
CONTINUOUS
10
6.59545
20
-3.46576
11
6.602
21
-3.45921
0
LINE
8
BLACK
6
CONTINUOUS
10
6.602
20
-3.45921
11
6.60959
21
-3.45389
0
LINE
8
BLACK
6
CONTINUOUS
10
6.60959
20
-3.45389
11
6.61798
21
-3.44998
0
LINE
8
BLACK
6
CONTINUOUS
10
6.61798
20
-3.44998
11
6.62693
21
-3.44758
0
LINE
8
BLACK
6
CONTINUOUS
10
6.62693
20
-3.44758
11
6.63616
21
-3.44677
0
LINE
8
BLACK
6
CONTINUOUS
10
6.63616
20
-3.44677
11
6.64539
21
-3.44758
0
LINE
8
BLACK
6
CONTINUOUS
10
6.64539
20
-3.31073
11
6.65434
21
-3.31313
0
LINE
8
BLACK
6
CONTINUOUS
10
6.65434
20
-3.31313
11
6.66274
21
-3.31704
0
LINE
8
BLACK
6
CONTINUOUS
10
6.66274
20
-3.31704
11
6.67033
21
-3.32236
0
LINE
8
BLACK
6
CONTINUOUS
10
6.67033
20
-3.32236
11
6.67688
21
-3.32891
0
LINE
8
BLACK
6
CONTINUOUS
10
6.67688
20
-3.32891
11
6.68219
21
-3.3365
0
LINE
8
BLACK
6
CONTINUOUS
10
6.68219
20
-3.3365
11
6.68611
21
-3.34489
0
LINE
8
BLACK
6
CONTINUOUS
10
6.68611
20
-3.34489
11
6.6885
21
-3.35384
0
LINE
8
BLACK
6
CONTINUOUS
10
6.6885
20
-3.35384
11
6.68931
21
-3.36307
0
LINE
8
BLACK
6
CONTINUOUS
10
6.68931
20
-3.36307
11
6.6885
21
-3.3723
0
LINE
8
BLACK
6
CONTINUOUS
10
6.6885
20
-3.3723
11
6.68611
21
-3.38125
0
LINE
8
BLACK
6
CONTINUOUS
10
6.68611
20
-3.38125
11
6.68219
21
-3.38965
0
LINE
8
BLACK
6
CONTINUOUS
10
6.68219
20
-3.38965
11
6.67688
21
-3.39723
0
LINE
8
BLACK
6
CONTINUOUS
10
6.67688
20
-3.39723
11
6.67033
21
-3.40379
0
LINE
8
BLACK
6
CONTINUOUS
10
6.67033
20
-3.40379
11
6.66274
21
-3.4091
0
LINE
8
BLACK
6
CONTINUOUS
10
6.66274
20
-3.4091
11
6.65434
21
-3.41302
0
LINE
8
BLACK
6
CONTINUOUS
10
6.65434
20
-3.41302
11
6.64539
21
-3.41541
0
LINE
8
BLACK
6
CONTINUOUS
10
6.64539
20
-3.41541
11
6.63616
21
-3.41622
0
LINE
8
BLACK
6
CONTINUOUS
10
6.63616
20
-3.41622
11
6.62693
21
-3.41541
0
LINE
8
BLACK
6
CONTINUOUS
10
6.62693
20
-3.41541
11
6.61798
21
-3.41302
0
LINE
8
BLACK
6
CONTINUOUS
10
6.61798
20
-3.41302
11
6.60959
21
-3.4091
0
LINE
8
BLACK
6
CONTINUOUS
10
6.60959
20
-3.4091
11
6.602
21
-3.40379
0
LINE
8
BLACK
6
CONTINUOUS
10
6.602
20
-3.40379
11
6.59545
21
-3.39723
0
LINE
8
BLACK
6
CONTINUOUS
10
6.59545
20
-3.39723
11
6.59013
21
-3.38965
0
LINE
8
BLACK
6
CONTINUOUS
10
6.59013
20
-3.38965
11
6.58622
21
-3.38125
0
LINE
8
BLACK
6
CONTINUOUS
10
6.58622
20
-3.38125
11
6.58382
21
-3.3723
0
LINE
8
BLACK
6
CONTINUOUS
10
6.58382
20
-3.3723
11
6.58301
21
-3.36307
0
LINE
8
BLACK
6
CONTINUOUS
10
6.58301
20
-3.36307
11
6.58382
21
-3.35384
0
LINE
8
BLACK
6
CONTINUOUS
10
6.58382
20
-3.35384
11
6.58622
21
-3.34489
0
LINE
8
BLACK
6
CONTINUOUS
10
6.58622
20
-3.34489
11
6.59013
21
-3.3365
0
LINE
8
BLACK
6
CONTINUOUS
10
6.59013
20
-3.3365
11
6.59545
21
-3.32891
0
LINE
8
BLACK
6
CONTINUOUS
10
6.59545
20
-3.32891
11
6.602
21
-3.32236
0
LINE
8
BLACK
6
CONTINUOUS
10
6.602
20
-3.32236
11
6.60959
21
-3.31704
0
LINE
8
BLACK
6
CONTINUOUS
10
6.60959
20
-3.31704
11
6.61798
21
-3.31313
0
LINE
8
BLACK
6
CONTINUOUS
10
6.61798
20
-3.31313
11
6.62693
21
-3.31073
0
LINE
8
BLACK
6
CONTINUOUS
10
6.62693
20
-3.31073
11
6.63616
21
-3.30992
0
LINE
8
BLACK
6
CONTINUOUS
10
6.63616
20
-3.30992
11
6.64539
21
-3.31073
0
LINE
8
BLACK
6
CONTINUOUS
10
5.06513
20
-3.33118
11
5.07012
21
-3.33324
0
LINE
8
BLACK
6
CONTINUOUS
10
5.07012
20
-3.33324
11
5.0744
21
-3.33653
0
LINE
8
BLACK
6
CONTINUOUS
10
5.0744
20
-3.33653
11
5.07768
21
-3.34081
0
LINE
8
BLACK
6
CONTINUOUS
10
5.07768
20
-3.34081
11
5.07975
21
-3.34579
0
LINE
8
BLACK
6
CONTINUOUS
10
5.07975
20
-3.34579
11
5.08045
21
-3.35114
0
LINE
8
BLACK
6
CONTINUOUS
10
5.08045
20
-3.35114
11
5.07975
21
-3.35649
0
LINE
8
BLACK
6
CONTINUOUS
10
5.07975
20
-3.35649
11
5.07768
21
-3.36148
0
LINE
8
BLACK
6
CONTINUOUS
10
5.07768
20
-3.36148
11
5.0744
21
-3.36576
0
LINE
8
BLACK
6
CONTINUOUS
10
5.0744
20
-3.36576
11
5.07012
21
-3.36904
0
LINE
8
BLACK
6
CONTINUOUS
10
5.07012
20
-3.36904
11
5.06513
21
-3.37111
0
LINE
8
BLACK
6
CONTINUOUS
10
5.06513
20
-3.37111
11
5.05978
21
-3.37181
0
LINE
8
BLACK
6
CONTINUOUS
10
5.05978
20
-3.37181
11
5.05443
21
-3.37111
0
LINE
8
BLACK
6
CONTINUOUS
10
5.05443
20
-3.37111
11
5.04945
21
-3.36904
0
LINE
8
BLACK
6
CONTINUOUS
10
5.04945
20
-3.36904
11
5.04517
21
-3.36576
0
LINE
8
BLACK
6
CONTINUOUS
10
5.04517
20
-3.36576
11
5.04188
21
-3.36148
0
LINE
8
BLACK
6
CONTINUOUS
10
5.04188
20
-3.36148
11
5.03982
21
-3.35649
0
LINE
8
BLACK
6
CONTINUOUS
10
5.03982
20
-3.35649
11
5.03911
21
-3.35114
0
LINE
8
BLACK
6
CONTINUOUS
10
5.03911
20
-3.35114
11
5.03982
21
-3.34579
0
LINE
8
BLACK
6
CONTINUOUS
10
5.03982
20
-3.34579
11
5.04188
21
-3.34081
0
LINE
8
BLACK
6
CONTINUOUS
10
5.04188
20
-3.34081
11
5.04517
21
-3.33653
0
LINE
8
BLACK
6
CONTINUOUS
10
5.04517
20
-3.33653
11
5.04945
21
-3.33324
0
LINE
8
BLACK
6
CONTINUOUS
10
5.04945
20
-3.33324
11
5.05443
21
-3.33118
0
LINE
8
BLACK
6
CONTINUOUS
10
5.05443
20
-3.33118
11
5.05978
21
-3.33047
0
LINE
8
BLACK
6
CONTINUOUS
10
5.05978
20
-3.33047
11
5.06513
21
-3.33118
0
LINE
8
BLACK
6
CONTINUOUS
10
5.10367
20
-3.26652
11
5.11009
21
-3.26809
0
LINE
8
BLACK
6
CONTINUOUS
10
5.11009
20
-3.26809
11
5.11597
21
-3.2711
0
LINE
8
BLACK
6
CONTINUOUS
10
5.11597
20
-3.2711
11
5.12101
21
-3.27538
0
LINE
8
BLACK
6
CONTINUOUS
10
5.12101
20
-3.27538
11
5.12493
21
-3.2807
0
LINE
8
BLACK
6
CONTINUOUS
10
5.12493
20
-3.2807
11
5.12752
21
-3.28678
0
LINE
8
BLACK
6
CONTINUOUS
10
5.12752
20
-3.28678
11
5.12864
21
-3.2933
0
LINE
8
BLACK
6
CONTINUOUS
10
5.12864
20
-3.2933
11
5.12823
21
-3.2999
0
LINE
8
BLACK
6
CONTINUOUS
10
5.12823
20
-3.2999
11
5.12631
21
-3.30622
0
LINE
8
BLACK
6
CONTINUOUS
10
5.12631
20
-3.30622
11
5.12299
21
-3.31194
0
LINE
8
BLACK
6
CONTINUOUS
10
5.12299
20
-3.31194
11
5.11845
21
-3.31674
0
LINE
8
BLACK
6
CONTINUOUS
10
5.11845
20
-3.31674
11
5.11292
21
-3.32036
0
LINE
8
BLACK
6
CONTINUOUS
10
5.11292
20
-3.32036
11
5.1067
21
-3.32262
0
LINE
8
BLACK
6
CONTINUOUS
10
5.1067
20
-3.32262
11
5.10014
21
-3.32339
0
LINE
8
BLACK
6
CONTINUOUS
10
5.10014
20
-3.32339
11
5.0588
21
-3.32339
0
LINE
8
BLACK
6
CONTINUOUS
10
5.0588
20
-3.32339
11
5.05527
21
-3.32317
0
LINE
8
BLACK
6
CONTINUOUS
10
5.05527
20
-3.32317
11
5.04885
21
-3.3216
0
LINE
8
BLACK
6
CONTINUOUS
10
5.04885
20
-3.3216
11
5.04296
21
-3.31859
0
LINE
8
BLACK
6
CONTINUOUS
10
5.04296
20
-3.31859
11
5.03792
21
-3.31431
0
LINE
8
BLACK
6
CONTINUOUS
10
5.03792
20
-3.31431
11
5.03401
21
-3.30898
0
LINE
8
BLACK
6
CONTINUOUS
10
5.03401
20
-3.30898
11
5.03142
21
-3.3029
0
LINE
8
BLACK
6
CONTINUOUS
10
5.03142
20
-3.3029
11
5.0303
21
-3.29639
0
LINE
8
BLACK
6
CONTINUOUS
10
5.0303
20
-3.29639
11
5.03071
21
-3.28979
0
LINE
8
BLACK
6
CONTINUOUS
10
5.03071
20
-3.28979
11
5.03262
21
-3.28346
0
LINE
8
BLACK
6
CONTINUOUS
10
5.03262
20
-3.28346
11
5.03594
21
-3.27774
0
LINE
8
BLACK
6
CONTINUOUS
10
5.03594
20
-3.27774
11
5.04049
21
-3.27295
0
LINE
8
BLACK
6
CONTINUOUS
10
5.04049
20
-3.27295
11
5.04602
21
-3.26932
0
LINE
8
BLACK
6
CONTINUOUS
10
5.04602
20
-3.26932
11
5.05223
21
-3.26706
0
LINE
8
BLACK
6
CONTINUOUS
10
5.05223
20
-3.26706
11
5.0588
21
-3.2663
0
LINE
8
BLACK
6
CONTINUOUS
10
5.0588
20
-3.2663
11
5.10014
21
-3.2663
0
LINE
8
BLACK
6
CONTINUOUS
10
5.10014
20
-3.2663
11
5.10367
21
-3.26652
0
LINE
8
BLACK
6
CONTINUOUS
10
4.93488
20
-3.26728
11
4.94144
21
-3.26815
0
LINE
8
BLACK
6
CONTINUOUS
10
4.94144
20
-3.26815
11
4.94761
21
-3.27055
0
LINE
8
BLACK
6
CONTINUOUS
10
4.94761
20
-3.27055
11
4.95303
21
-3.27436
0
LINE
8
BLACK
6
CONTINUOUS
10
4.95303
20
-3.27436
11
4.95738
21
-3.27935
0
LINE
8
BLACK
6
CONTINUOUS
10
4.95738
20
-3.27935
11
4.96042
21
-3.28524
0
LINE
8
BLACK
6
CONTINUOUS
10
4.96042
20
-3.28524
11
4.96196
21
-3.29167
0
LINE
8
BLACK
6
CONTINUOUS
10
4.96196
20
-3.29167
11
4.96193
21
-3.2983
0
LINE
8
BLACK
6
CONTINUOUS
10
4.96193
20
-3.2983
11
4.96032
21
-3.30472
0
LINE
8
BLACK
6
CONTINUOUS
10
4.96032
20
-3.30472
11
4.95722
21
-3.31057
0
LINE
8
BLACK
6
CONTINUOUS
10
4.95722
20
-3.31057
11
4.95281
21
-3.31551
0
LINE
8
BLACK
6
CONTINUOUS
10
4.95281
20
-3.31551
11
4.94735
21
-3.31927
0
LINE
8
BLACK
6
CONTINUOUS
10
4.94735
20
-3.31927
11
4.94116
21
-3.32161
0
LINE
8
BLACK
6
CONTINUOUS
10
4.94116
20
-3.32161
11
4.93459
21
-3.3224
0
LINE
8
BLACK
6
CONTINUOUS
10
4.93459
20
-3.3224
11
4.89522
21
-3.3224
0
LINE
8
BLACK
6
CONTINUOUS
10
4.89522
20
-3.3224
11
4.89493
21
-3.3224
0
LINE
8
BLACK
6
CONTINUOUS
10
4.89493
20
-3.3224
11
4.88836
21
-3.32154
0
LINE
8
BLACK
6
CONTINUOUS
10
4.88836
20
-3.32154
11
4.88219
21
-3.31913
0
LINE
8
BLACK
6
CONTINUOUS
10
4.88219
20
-3.31913
11
4.87678
21
-3.31532
0
LINE
8
BLACK
6
CONTINUOUS
10
4.87678
20
-3.31532
11
4.87242
21
-3.31033
0
LINE
8
BLACK
6
CONTINUOUS
10
4.87242
20
-3.31033
11
4.86939
21
-3.30445
0
LINE
8
BLACK
6
CONTINUOUS
10
4.86939
20
-3.30445
11
4.86784
21
-3.29801
0
LINE
8
BLACK
6
CONTINUOUS
10
4.86784
20
-3.29801
11
4.86787
21
-3.29139
0
LINE
8
BLACK
6
CONTINUOUS
10
4.86787
20
-3.29139
11
4.86949
21
-3.28497
0
LINE
8
BLACK
6
CONTINUOUS
10
4.86949
20
-3.28497
11
4.87259
21
-3.27911
0
LINE
8
BLACK
6
CONTINUOUS
10
4.87259
20
-3.27911
11
4.87699
21
-3.27417
0
LINE
8
BLACK
6
CONTINUOUS
10
4.87699
20
-3.27417
11
4.88245
21
-3.27042
0
LINE
8
BLACK
6
CONTINUOUS
10
4.88245
20
-3.27042
11
4.88864
21
-3.26808
0
LINE
8
BLACK
6
CONTINUOUS
10
4.88864
20
-3.26808
11
4.89522
21
-3.26728
0
LINE
8
BLACK
6
CONTINUOUS
10
4.89522
20
-3.26728
11
4.93459
21
-3.26728
0
LINE
8
BLACK
6
CONTINUOUS
10
4.93459
20
-3.26728
11
4.93488
21
-3.26728
0
LINE
8
BLACK
6
CONTINUOUS
10
6.61801
20
-2.95163
11
6.63186
21
-2.95408
0
LINE
8
BLACK
6
CONTINUOUS
10
6.63186
20
-2.95408
11
6.64535
21
-2.95805
0
LINE
8
BLACK
6
CONTINUOUS
10
6.64535
20
-2.95805
11
6.65832
21
-2.9635
0
LINE
8
BLACK
6
CONTINUOUS
10
6.65832
20
-2.9635
11
6.6706
21
-2.97036
0
LINE
8
BLACK
6
CONTINUOUS
10
6.6706
20
-2.97036
11
6.68203
21
-2.97855
0
LINE
8
BLACK
6
CONTINUOUS
10
6.68203
20
-2.97855
11
6.69249
21
-2.98796
0
LINE
8
BLACK
6
CONTINUOUS
10
6.69249
20
-2.98796
11
6.70182
21
-2.99848
0
LINE
8
BLACK
6
CONTINUOUS
10
6.70182
20
-2.99848
11
6.70993
21
-3.00997
0
LINE
8
BLACK
6
CONTINUOUS
10
6.70993
20
-3.00997
11
6.71671
21
-3.0223
0
LINE
8
BLACK
6
CONTINUOUS
10
6.71671
20
-3.0223
11
6.72207
21
-3.0353
0
LINE
8
BLACK
6
CONTINUOUS
10
6.72207
20
-3.0353
11
6.72594
21
-3.04882
0
LINE
8
BLACK
6
CONTINUOUS
10
6.72594
20
-3.04882
11
6.72829
21
-3.06269
0
LINE
8
BLACK
6
CONTINUOUS
10
6.72829
20
-3.06269
11
6.72907
21
-3.07673
0
LINE
8
BLACK
6
CONTINUOUS
10
6.72907
20
-3.07673
11
6.72903
21
-3.08025
0
LINE
8
BLACK
6
CONTINUOUS
10
6.72903
20
-3.08025
11
6.72785
21
-3.09427
0
LINE
8
BLACK
6
CONTINUOUS
10
6.72785
20
-3.09427
11
6.72512
21
-3.10806
0
LINE
8
BLACK
6
CONTINUOUS
10
6.72512
20
-3.10806
11
6.72086
21
-3.12147
0
LINE
8
BLACK
6
CONTINUOUS
10
6.72086
20
-3.12147
11
6.71514
21
-3.13432
0
LINE
8
BLACK
6
CONTINUOUS
10
6.71514
20
-3.13432
11
6.70803
21
-3.14645
0
LINE
8
BLACK
6
CONTINUOUS
10
6.70803
20
-3.14645
11
6.6996
21
-3.15771
0
LINE
8
BLACK
6
CONTINUOUS
10
6.6996
20
-3.15771
11
6.68997
21
-3.16797
0
LINE
8
BLACK
6
CONTINUOUS
10
6.68997
20
-3.16797
11
6.67926
21
-3.17708
0
LINE
8
BLACK
6
CONTINUOUS
10
6.67926
20
-3.17708
11
6.6676
21
-3.18495
0
LINE
8
BLACK
6
CONTINUOUS
10
6.6676
20
-3.18495
11
6.65514
21
-3.19146
0
LINE
8
BLACK
6
CONTINUOUS
10
6.65514
20
-3.19146
11
6.64202
21
-3.19655
0
LINE
8
BLACK
6
CONTINUOUS
10
6.64202
20
-3.19655
11
6.62842
21
-3.20014
0
LINE
8
BLACK
6
CONTINUOUS
10
6.62842
20
-3.20014
11
6.61451
21
-3.2022
0
LINE
8
BLACK
6
CONTINUOUS
10
6.61451
20
-3.2022
11
6.60045
21
-3.20269
0
LINE
8
BLACK
6
CONTINUOUS
10
6.60045
20
-3.20269
11
6.58643
21
-3.20161
0
LINE
8
BLACK
6
CONTINUOUS
10
6.58643
20
-3.20161
11
6.57261
21
-3.19897
0
LINE
8
BLACK
6
CONTINUOUS
10
6.57261
20
-3.19897
11
6.55918
21
-3.19482
0
LINE
8
BLACK
6
CONTINUOUS
10
6.55918
20
-3.19482
11
6.54629
21
-3.18918
0
LINE
8
BLACK
6
CONTINUOUS
10
6.54629
20
-3.18918
11
6.53411
21
-3.18215
0
LINE
8
BLACK
6
CONTINUOUS
10
6.53411
20
-3.18215
11
6.52279
21
-3.1738
0
LINE
8
BLACK
6
CONTINUOUS
10
6.52279
20
-3.1738
11
6.51247
21
-3.16425
0
LINE
8
BLACK
6
CONTINUOUS
10
6.51247
20
-3.16425
11
6.50327
21
-3.1536
0
LINE
8
BLACK
6
CONTINUOUS
10
6.50327
20
-3.1536
11
6.49533
21
-3.142
0
LINE
8
BLACK
6
CONTINUOUS
10
6.49533
20
-3.142
11
6.48872
21
-3.12958
0
LINE
8
BLACK
6
CONTINUOUS
10
6.48872
20
-3.12958
11
6.48355
21
-3.1165
0
LINE
8
BLACK
6
CONTINUOUS
10
6.48355
20
-3.1165
11
6.47986
21
-3.10293
0
LINE
8
BLACK
6
CONTINUOUS
10
6.47986
20
-3.10293
11
6.47771
21
-3.08903
0
LINE
8
BLACK
6
CONTINUOUS
10
6.47771
20
-3.08903
11
6.47712
21
-3.07497
0
LINE
8
BLACK
6
CONTINUOUS
10
6.47712
20
-3.07497
11
6.4781
21
-3.06094
0
LINE
8
BLACK
6
CONTINUOUS
10
6.4781
20
-3.06094
11
6.48064
21
-3.04711
0
LINE
8
BLACK
6
CONTINUOUS
10
6.48064
20
-3.04711
11
6.4847
21
-3.03364
0
LINE
8
BLACK
6
CONTINUOUS
10
6.4847
20
-3.03364
11
6.49024
21
-3.02072
0
LINE
8
BLACK
6
CONTINUOUS
10
6.49024
20
-3.02072
11
6.49719
21
-3.00849
0
LINE
8
BLACK
6
CONTINUOUS
10
6.49719
20
-3.00849
11
6.50546
21
-2.99711
0
LINE
8
BLACK
6
CONTINUOUS
10
6.50546
20
-2.99711
11
6.51494
21
-2.98672
0
LINE
8
BLACK
6
CONTINUOUS
10
6.51494
20
-2.98672
11
6.52553
21
-2.97746
0
LINE
8
BLACK
6
CONTINUOUS
10
6.52553
20
-2.97746
11
6.53708
21
-2.96943
0
LINE
8
BLACK
6
CONTINUOUS
10
6.53708
20
-2.96943
11
6.54945
21
-2.96274
0
LINE
8
BLACK
6
CONTINUOUS
10
6.54945
20
-2.96274
11
6.56249
21
-2.95747
0
LINE
8
BLACK
6
CONTINUOUS
10
6.56249
20
-2.95747
11
6.57604
21
-2.95369
0
LINE
8
BLACK
6
CONTINUOUS
10
6.57604
20
-2.95369
11
6.58992
21
-2.95144
0
LINE
8
BLACK
6
CONTINUOUS
10
6.58992
20
-2.95144
11
6.60397
21
-2.95075
0
LINE
8
BLACK
6
CONTINUOUS
10
6.60397
20
-2.95075
11
6.61801
21
-2.95163
0
LINE
8
BLACK
6
CONTINUOUS
10
5.04163
20
-2.95163
11
5.05548
21
-2.95408
0
LINE
8
BLACK
6
CONTINUOUS
10
5.05548
20
-2.95408
11
5.06897
21
-2.95805
0
LINE
8
BLACK
6
CONTINUOUS
10
5.06897
20
-2.95805
11
5.08194
21
-2.9635
0
LINE
8
BLACK
6
CONTINUOUS
10
5.08194
20
-2.9635
11
5.09422
21
-2.97036
0
LINE
8
BLACK
6
CONTINUOUS
10
5.09422
20
-2.97036
11
5.10565
21
-2.97855
0
LINE
8
BLACK
6
CONTINUOUS
10
5.10565
20
-2.97855
11
5.11611
21
-2.98796
0
LINE
8
BLACK
6
CONTINUOUS
10
5.11611
20
-2.98796
11
5.12545
21
-2.99848
0
LINE
8
BLACK
6
CONTINUOUS
10
5.12545
20
-2.99848
11
5.13355
21
-3.00997
0
LINE
8
BLACK
6
CONTINUOUS
10
5.13355
20
-3.00997
11
5.14033
21
-3.0223
0
LINE
8
BLACK
6
CONTINUOUS
10
5.14033
20
-3.0223
11
5.14569
21
-3.0353
0
LINE
8
BLACK
6
CONTINUOUS
10
5.14569
20
-3.0353
11
5.14957
21
-3.04882
0
LINE
8
BLACK
6
CONTINUOUS
10
5.14957
20
-3.04882
11
5.15191
21
-3.06269
0
LINE
8
BLACK
6
CONTINUOUS
10
5.15191
20
-3.06269
11
5.1527
21
-3.07673
0
LINE
8
BLACK
6
CONTINUOUS
10
5.1527
20
-3.07673
11
5.15265
21
-3.08025
0
LINE
8
BLACK
6
CONTINUOUS
10
5.15265
20
-3.08025
11
5.15147
21
-3.09427
0
LINE
8
BLACK
6
CONTINUOUS
10
5.15147
20
-3.09427
11
5.14874
21
-3.10806
0
LINE
8
BLACK
6
CONTINUOUS
10
5.14874
20
-3.10806
11
5.14449
21
-3.12147
0
LINE
8
BLACK
6
CONTINUOUS
10
5.14449
20
-3.12147
11
5.13877
21
-3.13432
0
LINE
8
BLACK
6
CONTINUOUS
10
5.13877
20
-3.13432
11
5.13165
21
-3.14645
0
LINE
8
BLACK
6
CONTINUOUS
10
5.13165
20
-3.14645
11
5.12322
21
-3.15771
0
LINE
8
BLACK
6
CONTINUOUS
10
5.12322
20
-3.15771
11
5.11359
21
-3.16797
0
LINE
8
BLACK
6
CONTINUOUS
10
5.11359
20
-3.16797
11
5.10288
21
-3.17708
0
LINE
8
BLACK
6
CONTINUOUS
10
5.10288
20
-3.17708
11
5.09122
21
-3.18495
0
LINE
8
BLACK
6
CONTINUOUS
10
5.09122
20
-3.18495
11
5.07876
21
-3.19146
0
LINE
8
BLACK
6
CONTINUOUS
10
5.07876
20
-3.19146
11
5.06564
21
-3.19655
0
LINE
8
BLACK
6
CONTINUOUS
10
5.06564
20
-3.19655
11
5.05205
21
-3.20014
0
LINE
8
BLACK
6
CONTINUOUS
10
5.05205
20
-3.20014
11
5.03813
21
-3.2022
0
LINE
8
BLACK
6
CONTINUOUS
10
5.03813
20
-3.2022
11
5.02407
21
-3.20269
0
LINE
8
BLACK
6
CONTINUOUS
10
5.02407
20
-3.20269
11
5.01005
21
-3.20161
0
LINE
8
BLACK
6
CONTINUOUS
10
5.01005
20
-3.20161
11
4.99623
21
-3.19897
0
LINE
8
BLACK
6
CONTINUOUS
10
4.99623
20
-3.19897
11
4.9828
21
-3.19482
0
LINE
8
BLACK
6
CONTINUOUS
10
4.9828
20
-3.19482
11
4.96991
21
-3.18918
0
LINE
8
BLACK
6
CONTINUOUS
10
4.96991
20
-3.18918
11
4.95773
21
-3.18215
0
LINE
8
BLACK
6
CONTINUOUS
10
4.95773
20
-3.18215
11
4.94641
21
-3.1738
0
LINE
8
BLACK
6
CONTINUOUS
10
4.94641
20
-3.1738
11
4.93609
21
-3.16425
0
LINE
8
BLACK
6
CONTINUOUS
10
4.93609
20
-3.16425
11
4.9269
21
-3.1536
0
LINE
8
BLACK
6
CONTINUOUS
10
4.9269
20
-3.1536
11
4.91895
21
-3.142
0
LINE
8
BLACK
6
CONTINUOUS
10
4.91895
20
-3.142
11
4.91235
21
-3.12958
0
LINE
8
BLACK
6
CONTINUOUS
10
4.91235
20
-3.12958
11
4.90717
21
-3.1165
0
LINE
8
BLACK
6
CONTINUOUS
10
4.90717
20
-3.1165
11
4.90348
21
-3.10293
0
LINE
8
BLACK
6
CONTINUOUS
10
4.90348
20
-3.10293
11
4.90133
21
-3.08903
0
LINE
8
BLACK
6
CONTINUOUS
10
4.90133
20
-3.08903
11
4.90074
21
-3.07497
0
LINE
8
BLACK
6
CONTINUOUS
10
4.90074
20
-3.07497
11
4.90172
21
-3.06094
0
LINE
8
BLACK
6
CONTINUOUS
10
4.90172
20
-3.06094
11
4.90426
21
-3.04711
0
LINE
8
BLACK
6
CONTINUOUS
10
4.90426
20
-3.04711
11
4.90833
21
-3.03364
0
LINE
8
BLACK
6
CONTINUOUS
10
4.90833
20
-3.03364
11
4.91387
21
-3.02072
0
LINE
8
BLACK
6
CONTINUOUS
10
4.91387
20
-3.02072
11
4.92081
21
-3.00849
0
LINE
8
BLACK
6
CONTINUOUS
10
4.92081
20
-3.00849
11
4.92908
21
-2.99711
0
LINE
8
BLACK
6
CONTINUOUS
10
4.92908
20
-2.99711
11
4.93857
21
-2.98672
0
LINE
8
BLACK
6
CONTINUOUS
10
4.93857
20
-2.98672
11
4.94915
21
-2.97746
0
LINE
8
BLACK
6
CONTINUOUS
10
4.94915
20
-2.97746
11
4.9607
21
-2.96943
0
LINE
8
BLACK
6
CONTINUOUS
10
4.9607
20
-2.96943
11
4.97307
21
-2.96274
0
LINE
8
BLACK
6
CONTINUOUS
10
4.97307
20
-2.96274
11
4.98611
21
-2.95747
0
LINE
8
BLACK
6
CONTINUOUS
10
4.98611
20
-2.95747
11
4.99966
21
-2.95369
0
LINE
8
BLACK
6
CONTINUOUS
10
4.99966
20
-2.95369
11
5.01354
21
-2.95144
0
LINE
8
BLACK
6
CONTINUOUS
10
5.01354
20
-2.95144
11
5.02759
21
-2.95075
0
LINE
8
BLACK
6
CONTINUOUS
10
5.02759
20
-2.95075
11
5.04163
21
-2.95163
  0
ENDSEC
  0
EOF
