  0
SECTION
  2
HEADER
  9
$ANGBASE
  50
0.0
  9
$ANGDIR
  70
1
  9
$MEASUREMENT
  70
0
  0
ENDSEC
  0
SECTION
  2
TABLES
  0
TABLE
  2
LTYPE
  70
4
  0
LTYPE
  5
40F
  2
CONTINUOUS
  70
0
  3
Solid line
  72
65
  73
0
  40
0.0
  0
LTYPE
  5
410
  2
DASHDOT
 70
0
  3
Dash Dot ____ _ ____ _
 72
65
 73
4
 40
2.0
 49
1.25
 49
-0.25
 49
0.25
 49
-0.25
  0
LTYPE
  5
411
  2
DASHED
 70
0
  3
Dashed __ __ __ __ __
 72
65
 73
2
 40
0.75
 49
0.5
 49
-0.25
  0
LTYPE
  5
43B
  2
DOTTED
 70
0
  3
Dotted .  .  .  .
 72
65
 73
2
 40
0.2
 49
0.0
 49
-0.2
  0
ENDTAB
  0
TABLE
  2
STYLE
  70
4
  0
STYLE
  2
KICAD
  70
0
  40
0
  41
1
  42
1
  50
0
  71
0
  3
isocp.shx
  0
STYLE
  2
KICADB
  70
0
  40
0
  41
1
  42
1
  50
0
  71
0
  3
isocp.shx
  0
STYLE
  2
KICADI
  70
0
  40
0
  41
1
  42
1
  50
15
  71
0
  3
isocp.shx
  0
STYLE
  2
KICADBI
  70
0
  40
0
  41
1
  42
1
  50
15
  71
0
  3
isocp.shx
  0
ENDTAB
  0
TABLE
  2
LAYER
  70
1
  0
LAYER
  2
BLACK
  70
0
  62
7
  6
CONTINUOUS
  0
ENDTAB
  0
ENDSEC
  0
SECTION
  2
ENTITIES
0
LINE
8
BLACK
6
CONTINUOUS
10
6.0188497637795271
20
-3.4424812204724407
11
6.0197201574803145
21
-3.4432361023622047
0
LINE
8
BLACK
6
CONTINUOUS
10
6.0197201574803145
20
-3.4432361023622047
11
6.0202353543307083
21
-3.4442665748031494
0
LINE
8
BLACK
6
CONTINUOUS
10
6.0202353543307083
20
-3.4442665748031494
11
6.0203170472440943
21
-3.4454157874015747
0
LINE
8
BLACK
6
CONTINUOUS
10
6.0203170472440943
20
-3.4454157874015747
11
6.0201887007874015
21
-3.4459801968503938
0
LINE
8
BLACK
6
CONTINUOUS
10
6.0201887007874015
20
-3.4459801968503938
11
6.0070653543307087
21
-3.4853502755905512
0
LINE
8
BLACK
6
CONTINUOUS
10
6.0070653543307087
20
-3.4853502755905512
11
6.0068293700787398
21
-3.4858788582677165
0
LINE
8
BLACK
6
CONTINUOUS
10
6.0068293700787398
20
-3.4858788582677165
11
6.0066911023622049
21
-3.4860382283464566
0
LINE
8
BLACK
6
CONTINUOUS
10
6.0066911023622049
20
-3.4860382283464566
11
6.0065968110236216
21
-3.4862268897637794
0
LINE
8
BLACK
6
CONTINUOUS
10
6.0065968110236216
20
-3.4862268897637794
11
6.0063171259842516
21
-3.4864694488188976
0
LINE
8
BLACK
6
CONTINUOUS
10
6.0063171259842516
20
-3.4864694488188976
11
6.0060744881889763
21
-3.4867492125984252
0
LINE
8
BLACK
6
CONTINUOUS
10
6.0060744881889763
20
-3.4867492125984252
11
6.0058857480314956
21
-3.4868435433070863
0
LINE
8
BLACK
6
CONTINUOUS
10
6.0058857480314956
20
-3.4868435433070863
11
6.0057264173228342
21
-3.4869817716535434
0
LINE
8
BLACK
6
CONTINUOUS
10
6.0057264173228342
20
-3.4869817716535434
11
6.0053751574803149
21
-3.4870988188976377
0
LINE
8
BLACK
6
CONTINUOUS
10
6.0053751574803149
20
-3.4870988188976377
11
6.0050440551181099
21
-3.487264409448819
0
LINE
8
BLACK
6
CONTINUOUS
10
6.0050440551181099
20
-3.487264409448819
11
6.0048336220472436
21
-3.4872793307086614
0
LINE
8
BLACK
6
CONTINUOUS
10
6.0048336220472436
20
-3.4872793307086614
11
6.0046334251968503
21
-3.4873461023622045
0
LINE
8
BLACK
6
CONTINUOUS
10
6.0046334251968503
20
-3.4873461023622045
11
6.0042641338582676
21
-3.487319842519685
0
LINE
8
BLACK
6
CONTINUOUS
10
6.0042641338582676
20
-3.487319842519685
11
6.003894842519685
21
-3.4873461023622045
0
LINE
8
BLACK
6
CONTINUOUS
10
6.003894842519685
20
-3.4873461023622045
11
6.003694606299212
21
-3.4872793307086614
0
LINE
8
BLACK
6
CONTINUOUS
10
6.003694606299212
20
-3.4872793307086614
11
6.0034842125984254
21
-3.487264409448819
0
LINE
8
BLACK
6
CONTINUOUS
10
6.0034842125984254
20
-3.487264409448819
11
6.0031531889763778
21
-3.4870988582677165
0
LINE
8
BLACK
6
CONTINUOUS
10
6.0031531889763778
20
-3.4870988582677165
11
6.0028018110236223
21
-3.4869817716535434
0
LINE
8
BLACK
6
CONTINUOUS
10
6.0028018110236223
20
-3.4869817716535434
11
6.0026423228346459
21
-3.4868434251968505
0
LINE
8
BLACK
6
CONTINUOUS
10
6.0026423228346459
20
-3.4868434251968505
11
6.002453779527559
21
-3.4867491732283464
0
LINE
8
BLACK
6
CONTINUOUS
10
6.002453779527559
20
-3.4867491732283464
11
6.0022112992125987
21
-3.4864696062992127
0
LINE
8
BLACK
6
CONTINUOUS
10
6.0022112992125987
20
-3.4864696062992127
11
6.0019314566929136
21
-3.4862268897637794
0
LINE
8
BLACK
6
CONTINUOUS
10
6.0019314566929136
20
-3.4862268897637794
11
6.0018370866141728
21
-3.4860381496062991
0
LINE
8
BLACK
6
CONTINUOUS
10
6.0018370866141728
20
-3.4860381496062991
11
6.0016988976377954
21
-3.4858788188976377
0
LINE
8
BLACK
6
CONTINUOUS
10
6.0016988976377954
20
-3.4858788188976377
11
6.0014629133858266
21
-3.4853502755905512
0
LINE
8
BLACK
6
CONTINUOUS
10
6.0014629133858266
20
-3.4853502755905512
11
5.9883395669291337
21
-3.4459801968503938
0
LINE
8
BLACK
6
CONTINUOUS
10
5.9883395669291337
20
-3.4459801968503938
11
5.9882112204724409
21
-3.445415748031496
0
LINE
8
BLACK
6
CONTINUOUS
10
5.9882112204724409
20
-3.445415748031496
11
5.9882929133858269
21
-3.4442665354330706
0
LINE
8
BLACK
6
CONTINUOUS
10
5.9882929133858269
20
-3.4442665354330706
11
5.9888081102362207
21
-3.4432361023622047
0
LINE
8
BLACK
6
CONTINUOUS
10
5.9888081102362207
20
-3.4432361023622047
11
5.9896784645669294
21
-3.4424812204724407
0
LINE
8
BLACK
6
CONTINUOUS
10
5.9896784645669294
20
-3.4424812204724407
11
5.9907714960629921
21
-3.4421168897637795
0
LINE
8
BLACK
6
CONTINUOUS
10
5.9907714960629921
20
-3.4421168897637795
11
5.991920708661417
21
-3.4421985826771655
0
LINE
8
BLACK
6
CONTINUOUS
10
5.991920708661417
20
-3.4421985826771655
11
5.9929511417322834
21
-3.4427137795275589
0
LINE
8
BLACK
6
CONTINUOUS
10
5.9929511417322834
20
-3.4427137795275589
11
5.993706023622047
21
-3.4435841338582676
0
LINE
8
BLACK
6
CONTINUOUS
10
5.993706023622047
20
-3.4435841338582676
11
5.9939420078740158
21
-3.4441127165354328
0
LINE
8
BLACK
6
CONTINUOUS
10
5.9939420078740158
20
-3.4441127165354328
11
5.9970185433070862
21
-3.4533423228346454
0
LINE
8
BLACK
6
CONTINUOUS
10
5.9970185433070862
20
-3.4533423228346454
11
6.0115097244094491
21
-3.4533423228346454
0
LINE
8
BLACK
6
CONTINUOUS
10
6.0115097244094491
20
-3.4533423228346454
11
6.0145862598425195
21
-3.4441127165354328
0
LINE
8
BLACK
6
CONTINUOUS
10
6.0145862598425195
20
-3.4441127165354328
11
6.0148222440944883
21
-3.4435841732283463
0
LINE
8
BLACK
6
CONTINUOUS
10
6.0148222440944883
20
-3.4435841732283463
11
6.0155771259842519
21
-3.4427138188976376
0
LINE
8
BLACK
6
CONTINUOUS
10
6.0155771259842519
20
-3.4427138188976376
11
6.0166075590551182
21
-3.4421985826771655
0
LINE
8
BLACK
6
CONTINUOUS
10
6.0166075590551182
20
-3.4421985826771655
11
6.0177567716535432
21
-3.4421168897637795
0
LINE
8
BLACK
6
CONTINUOUS
10
6.0177567716535432
20
-3.4421168897637795
11
6.0188497637795271
21
-3.4424812204724407
0
LINE
8
BLACK
6
CONTINUOUS
10
6.0042641338582676
20
-3.4750790944881889
11
6.0095412204724408
21
-3.4592478346456694
0
LINE
8
BLACK
6
CONTINUOUS
10
6.0095412204724408
20
-3.4592478346456694
11
5.9989870472440945
21
-3.4592478346456694
0
LINE
8
BLACK
6
CONTINUOUS
10
5.9989870472440945
20
-3.4592478346456694
11
6.0042641338582676
21
-3.4750790944881889
0
LINE
8
BLACK
6
CONTINUOUS
10
5.937348622047244
20
-3.4421504330708661
11
5.9374465748031495
21
-3.4421909842519685
0
LINE
8
BLACK
6
CONTINUOUS
10
5.9374465748031495
20
-3.4421909842519685
11
5.9375524803149604
21
-3.4421985433070867
0
LINE
8
BLACK
6
CONTINUOUS
10
5.9375524803149604
20
-3.4421985433070867
11
5.9380931102362204
21
-3.4424054330708662
0
LINE
8
BLACK
6
CONTINUOUS
10
5.9380931102362204
20
-3.4424054330708662
11
5.9418426377952756
21
-3.4442802362204725
0
LINE
8
BLACK
6
CONTINUOUS
10
5.9418426377952756
20
-3.4442802362204725
11
5.9419389763779522
21
-3.4443408661417321
0
LINE
8
BLACK
6
CONTINUOUS
10
5.9419389763779522
20
-3.4443408661417321
11
5.9419843700787398
21
-3.444356023622047
0
LINE
8
BLACK
6
CONTINUOUS
10
5.9419843700787398
20
-3.444356023622047
11
5.9420408661417321
21
-3.4444049999999997
0
LINE
8
BLACK
6
CONTINUOUS
10
5.9420408661417321
20
-3.4444049999999997
11
5.9423325196850394
21
-3.4445886220472439
0
LINE
8
BLACK
6
CONTINUOUS
10
5.9423325196850394
20
-3.4445886220472439
11
5.9425750393700785
21
-3.444868307086614
0
LINE
8
BLACK
6
CONTINUOUS
10
5.9425750393700785
20
-3.444868307086614
11
5.9428547637795273
21
-3.4451108661417322
0
LINE
8
BLACK
6
CONTINUOUS
10
5.9428547637795273
20
-3.4451108661417322
11
5.9430382283464569
21
-3.4454024015748033
0
LINE
8
BLACK
6
CONTINUOUS
10
5.9430382283464569
20
-3.4454024015748033
11
5.9430873622047242
21
-3.4454590157480314
0
LINE
8
BLACK
6
CONTINUOUS
10
5.9430873622047242
20
-3.4454590157480314
11
5.9431024803149608
21
-3.4455044488188977
0
LINE
8
BLACK
6
CONTINUOUS
10
5.9431024803149608
20
-3.4455044488188977
11
5.9431631102362203
21
-3.4456007480314961
0
LINE
8
BLACK
6
CONTINUOUS
10
5.9431631102362203
20
-3.4456007480314961
11
5.9450378740157479
21
-3.4493502755905512
0
LINE
8
BLACK
6
CONTINUOUS
10
5.9450378740157479
20
-3.4493502755905512
11
5.9452447637795274
21
-3.449890866141732
0
LINE
8
BLACK
6
CONTINUOUS
10
5.9452447637795274
20
-3.449890866141732
11
5.9452522834645665
21
-3.4499967322834646
0
LINE
8
BLACK
6
CONTINUOUS
10
5.9452522834645665
20
-3.4499967322834646
11
5.945292874015748
21
-3.4500947244094489
0
LINE
8
BLACK
6
CONTINUOUS
10
5.945292874015748
20
-3.4500947244094489
11
5.9453496062992128
21
-3.4506707874015747
0
LINE
8
BLACK
6
CONTINUOUS
10
5.9453496062992128
20
-3.4506707874015747
11
5.9453496062992128
21
-3.4683404330708663
0
LINE
8
BLACK
6
CONTINUOUS
10
5.9453496062992128
20
-3.4683404330708663
11
5.9480211417322835
21
-3.4683404330708663
0
LINE
8
BLACK
6
CONTINUOUS
10
5.9480211417322835
20
-3.4683404330708663
11
5.9485972047244093
21
-3.4683971653543306
0
LINE
8
BLACK
6
CONTINUOUS
10
5.9485972047244093
20
-3.4683971653543306
11
5.9496616141732286
21
-3.4688380708661417
0
LINE
8
BLACK
6
CONTINUOUS
10
5.9496616141732286
20
-3.4688380708661417
11
5.9504762598425192
21
-3.4696527165354332
0
LINE
8
BLACK
6
CONTINUOUS
10
5.9504762598425192
20
-3.4696527165354332
11
5.9509171653543307
21
-3.470717125984252
0
LINE
8
BLACK
6
CONTINUOUS
10
5.9509171653543307
20
-3.470717125984252
11
5.9509171653543307
21
-3.4718692519685037
0
LINE
8
BLACK
6
CONTINUOUS
10
5.9509171653543307
20
-3.4718692519685037
11
5.9504762598425192
21
-3.472933661417323
0
LINE
8
BLACK
6
CONTINUOUS
10
5.9504762598425192
20
-3.472933661417323
11
5.9496616141732286
21
-3.473748307086614
0
LINE
8
BLACK
6
CONTINUOUS
10
5.9496616141732286
20
-3.473748307086614
11
5.9485972047244093
21
-3.4741892125984251
0
LINE
8
BLACK
6
CONTINUOUS
10
5.9485972047244093
20
-3.4741892125984251
11
5.9480211417322835
21
-3.4742459448818899
0
LINE
8
BLACK
6
CONTINUOUS
10
5.9480211417322835
20
-3.4742459448818899
11
5.9453496062992128
21
-3.4742459448818899
0
LINE
8
BLACK
6
CONTINUOUS
10
5.9453496062992128
20
-3.4742459448818899
11
5.9453496062992128
21
-3.4844165354330707
0
LINE
8
BLACK
6
CONTINUOUS
10
5.9453496062992128
20
-3.4844165354330707
11
5.945292874015748
21
-3.4849925984251966
0
LINE
8
BLACK
6
CONTINUOUS
10
5.945292874015748
20
-3.4849925984251966
11
5.9448519685039365
21
-3.4860570078740158
0
LINE
8
BLACK
6
CONTINUOUS
10
5.9448519685039365
20
-3.4860570078740158
11
5.9440373228346459
21
-3.4868716535433069
0
LINE
8
BLACK
6
CONTINUOUS
10
5.9440373228346459
20
-3.4868716535433069
11
5.9429729133858267
21
-3.4873125590551179
0
LINE
8
BLACK
6
CONTINUOUS
10
5.9429729133858267
20
-3.4873125590551179
11
5.9418207874015749
21
-3.4873125590551179
0
LINE
8
BLACK
6
CONTINUOUS
10
5.9418207874015749
20
-3.4873125590551179
11
5.9407563779527557
21
-3.4868716535433069
0
LINE
8
BLACK
6
CONTINUOUS
10
5.9407563779527557
20
-3.4868716535433069
11
5.9399417322834642
21
-3.4860570078740158
0
LINE
8
BLACK
6
CONTINUOUS
10
5.9399417322834642
20
-3.4860570078740158
11
5.9395008267716536
21
-3.4849925984251966
0
LINE
8
BLACK
6
CONTINUOUS
10
5.9395008267716536
20
-3.4849925984251966
11
5.9394440944881888
21
-3.4844165354330707
0
LINE
8
BLACK
6
CONTINUOUS
10
5.9394440944881888
20
-3.4844165354330707
11
5.9394440944881888
21
-3.4742459448818899
0
LINE
8
BLACK
6
CONTINUOUS
10
5.9394440944881888
20
-3.4742459448818899
11
5.933023031496063
21
-3.4742459448818899
0
LINE
8
BLACK
6
CONTINUOUS
10
5.933023031496063
20
-3.4742459448818899
11
5.9324469685039372
21
-3.4741892125984251
0
LINE
8
BLACK
6
CONTINUOUS
10
5.9324469685039372
20
-3.4741892125984251
11
5.9313825590551179
21
-3.473748307086614
0
LINE
8
BLACK
6
CONTINUOUS
10
5.9313825590551179
20
-3.473748307086614
11
5.9305679133858265
21
-3.472933661417323
0
LINE
8
BLACK
6
CONTINUOUS
10
5.9305679133858265
20
-3.472933661417323
11
5.9301270078740158
21
-3.4718692519685037
0
LINE
8
BLACK
6
CONTINUOUS
10
5.9301270078740158
20
-3.4718692519685037
11
5.9301270078740158
21
-3.470717125984252
0
LINE
8
BLACK
6
CONTINUOUS
10
5.9301270078740158
20
-3.470717125984252
11
5.9305679133858265
21
-3.4696527165354332
0
LINE
8
BLACK
6
CONTINUOUS
10
5.9305679133858265
20
-3.4696527165354332
11
5.9313825590551179
21
-3.4688380708661417
0
LINE
8
BLACK
6
CONTINUOUS
10
5.9313825590551179
20
-3.4688380708661417
11
5.9324469685039372
21
-3.4683971653543306
0
LINE
8
BLACK
6
CONTINUOUS
10
5.9324469685039372
20
-3.4683971653543306
11
5.933023031496063
21
-3.4683404330708663
0
LINE
8
BLACK
6
CONTINUOUS
10
5.933023031496063
20
-3.4683404330708663
11
5.9394440944881888
21
-3.4683404330708663
0
LINE
8
BLACK
6
CONTINUOUS
10
5.9394440944881888
20
-3.4683404330708663
11
5.9394440944881888
21
-3.4513678346456693
0
LINE
8
BLACK
6
CONTINUOUS
10
5.9394440944881888
20
-3.4513678346456693
11
5.9383212204724405
21
-3.4491220866141732
0
LINE
8
BLACK
6
CONTINUOUS
10
5.9383212204724405
20
-3.4491220866141732
11
5.9360754724409448
21
-3.4479992125984249
0
LINE
8
BLACK
6
CONTINUOUS
10
5.9360754724409448
20
-3.4479992125984249
11
5.933023031496063
21
-3.4479992125984249
0
LINE
8
BLACK
6
CONTINUOUS
10
5.933023031496063
20
-3.4479992125984249
11
5.9324469685039372
21
-3.4479424803149605
0
LINE
8
BLACK
6
CONTINUOUS
10
5.9324469685039372
20
-3.4479424803149605
11
5.9313825590551179
21
-3.4475015748031494
0
LINE
8
BLACK
6
CONTINUOUS
10
5.9313825590551179
20
-3.4475015748031494
11
5.9305679133858265
21
-3.446686929133858
0
LINE
8
BLACK
6
CONTINUOUS
10
5.9305679133858265
20
-3.446686929133858
11
5.9301270078740158
21
-3.4456225196850392
0
LINE
8
BLACK
6
CONTINUOUS
10
5.9301270078740158
20
-3.4456225196850392
11
5.9301270078740158
21
-3.4444703937007874
0
LINE
8
BLACK
6
CONTINUOUS
10
5.9301270078740158
20
-3.4444703937007874
11
5.9305679133858265
21
-3.4434059842519686
0
LINE
8
BLACK
6
CONTINUOUS
10
5.9305679133858265
20
-3.4434059842519686
11
5.9313825590551179
21
-3.4425913385826772
0
LINE
8
BLACK
6
CONTINUOUS
10
5.9313825590551179
20
-3.4425913385826772
11
5.9324469685039372
21
-3.4421504330708661
0
LINE
8
BLACK
6
CONTINUOUS
10
5.9324469685039372
20
-3.4421504330708661
11
5.933023031496063
21
-3.4420937007874013
0
LINE
8
BLACK
6
CONTINUOUS
10
5.933023031496063
20
-3.4420937007874013
11
5.9367725590551181
21
-3.4420937007874013
0
LINE
8
BLACK
6
CONTINUOUS
10
5.9367725590551181
20
-3.4420937007874013
11
5.937348622047244
21
-3.4421504330708661
0
LINE
8
BLACK
6
CONTINUOUS
10
5.8117392913385828
20
-3.4421504330708661
11
5.8118372440944883
21
-3.4421909842519685
0
LINE
8
BLACK
6
CONTINUOUS
10
5.8118372440944883
20
-3.4421909842519685
11
5.8119431496062992
21
-3.4421985433070867
0
LINE
8
BLACK
6
CONTINUOUS
10
5.8119431496062992
20
-3.4421985433070867
11
5.8124837795275592
21
-3.4424054330708662
0
LINE
8
BLACK
6
CONTINUOUS
10
5.8124837795275592
20
-3.4424054330708662
11
5.8162333070866143
21
-3.4442802362204725
0
LINE
8
BLACK
6
CONTINUOUS
10
5.8162333070866143
20
-3.4442802362204725
11
5.816329645669291
21
-3.4443408661417321
0
LINE
8
BLACK
6
CONTINUOUS
10
5.816329645669291
20
-3.4443408661417321
11
5.8163750393700786
21
-3.444356023622047
0
LINE
8
BLACK
6
CONTINUOUS
10
5.8163750393700786
20
-3.444356023622047
11
5.8164315354330709
21
-3.4444049999999997
0
LINE
8
BLACK
6
CONTINUOUS
10
5.8164315354330709
20
-3.4444049999999997
11
5.8167231889763782
21
-3.4445886220472439
0
LINE
8
BLACK
6
CONTINUOUS
10
5.8167231889763782
20
-3.4445886220472439
11
5.8169657086614173
21
-3.444868307086614
0
LINE
8
BLACK
6
CONTINUOUS
10
5.8169657086614173
20
-3.444868307086614
11
5.8172454330708661
21
-3.4451108661417322
0
LINE
8
BLACK
6
CONTINUOUS
10
5.8172454330708661
20
-3.4451108661417322
11
5.8174288976377948
21
-3.4454024015748033
0
LINE
8
BLACK
6
CONTINUOUS
10
5.8174288976377948
20
-3.4454024015748033
11
5.817478031496063
21
-3.4454590157480314
0
LINE
8
BLACK
6
CONTINUOUS
10
5.817478031496063
20
-3.4454590157480314
11
5.8174931496062987
21
-3.4455044488188977
0
LINE
8
BLACK
6
CONTINUOUS
10
5.8174931496062987
20
-3.4455044488188977
11
5.8175537795275591
21
-3.4456007480314961
0
LINE
8
BLACK
6
CONTINUOUS
10
5.8175537795275591
20
-3.4456007480314961
11
5.8194285433070867
21
-3.4493502755905512
0
LINE
8
BLACK
6
CONTINUOUS
10
5.8194285433070867
20
-3.4493502755905512
11
5.8196354330708662
21
-3.449890866141732
0
LINE
8
BLACK
6
CONTINUOUS
10
5.8196354330708662
20
-3.449890866141732
11
5.8196429527559053
21
-3.4499967322834646
0
LINE
8
BLACK
6
CONTINUOUS
10
5.8196429527559053
20
-3.4499967322834646
11
5.8196835433070868
21
-3.4500947244094489
0
LINE
8
BLACK
6
CONTINUOUS
10
5.8196835433070868
20
-3.4500947244094489
11
5.8197402755905507
21
-3.4506707874015747
0
LINE
8
BLACK
6
CONTINUOUS
10
5.8197402755905507
20
-3.4506707874015747
11
5.8197402755905507
21
-3.4544203149606298
0
LINE
8
BLACK
6
CONTINUOUS
10
5.8197402755905507
20
-3.4544203149606298
11
5.8196835433070868
21
-3.4549963779527557
0
LINE
8
BLACK
6
CONTINUOUS
10
5.8196835433070868
20
-3.4549963779527557
11
5.8196429527559053
21
-3.4550943307086612
0
LINE
8
BLACK
6
CONTINUOUS
10
5.8196429527559053
20
-3.4550943307086612
11
5.8196354330708662
21
-3.4552002362204726
0
LINE
8
BLACK
6
CONTINUOUS
10
5.8196354330708662
20
-3.4552002362204726
11
5.8194285433070867
21
-3.4557408267716534
0
LINE
8
BLACK
6
CONTINUOUS
10
5.8194285433070867
20
-3.4557408267716534
11
5.8175537795275591
21
-3.4594903543307085
0
LINE
8
BLACK
6
CONTINUOUS
10
5.8175537795275591
20
-3.4594903543307085
11
5.81749311023622
21
-3.4595866929133856
0
LINE
8
BLACK
6
CONTINUOUS
10
5.81749311023622
20
-3.4595866929133856
11
5.8174779921259843
21
-3.459632125984252
0
LINE
8
BLACK
6
CONTINUOUS
10
5.8174779921259843
20
-3.459632125984252
11
5.8174289370078736
21
-3.4596886614173226
0
LINE
8
BLACK
6
CONTINUOUS
10
5.8174289370078736
20
-3.4596886614173226
11
5.8172454330708661
21
-3.4599802362204723
0
LINE
8
BLACK
6
CONTINUOUS
10
5.8172454330708661
20
-3.4599802362204723
11
5.8169657086614173
21
-3.4602227952755906
0
LINE
8
BLACK
6
CONTINUOUS
10
5.8169657086614173
20
-3.4602227952755906
11
5.8167231496062994
21
-3.4605025196850394
0
LINE
8
BLACK
6
CONTINUOUS
10
5.8167231496062994
20
-3.4605025196850394
11
5.8164315748031497
21
-3.4606860236220474
0
LINE
8
BLACK
6
CONTINUOUS
10
5.8164315748031497
20
-3.4606860236220474
11
5.8163750393700786
21
-3.4607350787401576
0
LINE
8
BLACK
6
CONTINUOUS
10
5.8163750393700786
20
-3.4607350787401576
11
5.8163296062992123
21
-3.4607501968503938
0
LINE
8
BLACK
6
CONTINUOUS
10
5.8163296062992123
20
-3.4607501968503938
11
5.8162332677165356
21
-3.4608108661417321
0
LINE
8
BLACK
6
CONTINUOUS
10
5.8162332677165356
20
-3.4608108661417321
11
5.8124837401574805
21
-3.4626856299212596
0
LINE
8
BLACK
6
CONTINUOUS
10
5.8124837401574805
20
-3.4626856299212596
11
5.8119431102362205
21
-3.4628925196850391
0
LINE
8
BLACK
6
CONTINUOUS
10
5.8119431102362205
20
-3.4628925196850391
11
5.8118372834645671
21
-3.4628999999999999
0
LINE
8
BLACK
6
CONTINUOUS
10
5.8118372834645671
20
-3.4628999999999999
11
5.8117392913385828
21
-3.4629406299212597
0
LINE
8
BLACK
6
CONTINUOUS
10
5.8117392913385828
20
-3.4629406299212597
11
5.8111632283464569
21
-3.4629973622047245
0
LINE
8
BLACK
6
CONTINUOUS
10
5.8111632283464569
20
-3.4629973622047245
11
5.8024864566929129
21
-3.4629973622047245
0
LINE
8
BLACK
6
CONTINUOUS
10
5.8024864566929129
20
-3.4629973622047245
11
5.8009926377952752
21
-3.463744251968504
0
LINE
8
BLACK
6
CONTINUOUS
10
5.8009926377952752
20
-3.463744251968504
11
5.8009926377952752
21
-3.4649718503937006
0
LINE
8
BLACK
6
CONTINUOUS
10
5.8009926377952752
20
-3.4649718503937006
11
5.8021154724409447
21
-3.467217559055118
0
LINE
8
BLACK
6
CONTINUOUS
10
5.8021154724409447
20
-3.467217559055118
11
5.8043612204724404
21
-3.4683404330708663
0
LINE
8
BLACK
6
CONTINUOUS
10
5.8043612204724404
20
-3.4683404330708663
11
5.8104661811023623
21
-3.4683404330708663
0
LINE
8
BLACK
6
CONTINUOUS
10
5.8104661811023623
20
-3.4683404330708663
11
5.8135922440944885
21
-3.4667774015748032
0
LINE
8
BLACK
6
CONTINUOUS
10
5.8135922440944885
20
-3.4667774015748032
11
5.8141328346456689
21
-3.4665705118110237
0
LINE
8
BLACK
6
CONTINUOUS
10
5.8141328346456689
20
-3.4665705118110237
11
5.8152820472440947
21
-3.4664888582677165
0
LINE
8
BLACK
6
CONTINUOUS
10
5.8152820472440947
20
-3.4664888582677165
11
5.8163750393700786
21
-3.4668531889763781
0
LINE
8
BLACK
6
CONTINUOUS
10
5.8163750393700786
20
-3.4668531889763781
11
5.8172453937007873
21
-3.4676080314960629
0
LINE
8
BLACK
6
CONTINUOUS
10
5.8172453937007873
20
-3.4676080314960629
11
5.8177606692913386
21
-3.4686385433070863
0
LINE
8
BLACK
6
CONTINUOUS
10
5.8177606692913386
20
-3.4686385433070863
11
5.8178423228346459
21
-3.4697877559055117
0
LINE
8
BLACK
6
CONTINUOUS
10
5.8178423228346459
20
-3.4697877559055117
11
5.8174779921259843
21
-3.4708807086614173
0
LINE
8
BLACK
6
CONTINUOUS
10
5.8174779921259843
20
-3.4708807086614173
11
5.8167231496062994
21
-3.4717511023622047
0
LINE
8
BLACK
6
CONTINUOUS
10
5.8167231496062994
20
-3.4717511023622047
11
5.8162332677165356
21
-3.4720594488188974
0
LINE
8
BLACK
6
CONTINUOUS
10
5.8162332677165356
20
-3.4720594488188974
11
5.8124837401574805
21
-3.4739342125984249
0
LINE
8
BLACK
6
CONTINUOUS
10
5.8124837401574805
20
-3.4739342125984249
11
5.8119431102362205
21
-3.4741411023622049
0
LINE
8
BLACK
6
CONTINUOUS
10
5.8119431102362205
20
-3.4741411023622049
11
5.8118372834645671
21
-3.4741485826771652
0
LINE
8
BLACK
6
CONTINUOUS
10
5.8118372834645671
20
-3.4741485826771652
11
5.8117392913385828
21
-3.4741892125984251
0
LINE
8
BLACK
6
CONTINUOUS
10
5.8117392913385828
20
-3.4741892125984251
11
5.8111632283464569
21
-3.4742459448818899
0
LINE
8
BLACK
6
CONTINUOUS
10
5.8111632283464569
20
-3.4742459448818899
11
5.8036641732283467
21
-3.4742459448818899
0
LINE
8
BLACK
6
CONTINUOUS
10
5.8036641732283467
20
-3.4742459448818899
11
5.80308811023622
21
-3.4741892125984251
0
LINE
8
BLACK
6
CONTINUOUS
10
5.80308811023622
20
-3.4741892125984251
11
5.8029901181102357
21
-3.474148622047244
0
LINE
8
BLACK
6
CONTINUOUS
10
5.8029901181102357
20
-3.474148622047244
11
5.8028842519685035
21
-3.4741411023622049
0
LINE
8
BLACK
6
CONTINUOUS
10
5.8028842519685035
20
-3.4741411023622049
11
5.8023436614173223
21
-3.4739342125984249
0
LINE
8
BLACK
6
CONTINUOUS
10
5.8023436614173223
20
-3.4739342125984249
11
5.7985941338582672
21
-3.4720594488188974
0
LINE
8
BLACK
6
CONTINUOUS
10
5.7985941338582672
20
-3.4720594488188974
11
5.7984977559055118
21
-3.4719987795275591
0
LINE
8
BLACK
6
CONTINUOUS
10
5.7984977559055118
20
-3.4719987795275591
11
5.7984523622047242
21
-3.471983661417323
0
LINE
8
BLACK
6
CONTINUOUS
10
5.7984523622047242
20
-3.471983661417323
11
5.7983957874015744
21
-3.4719346062992127
0
LINE
8
BLACK
6
CONTINUOUS
10
5.7983957874015744
20
-3.4719346062992127
11
5.7981042519685042
21
-3.4717511023622047
0
LINE
8
BLACK
6
CONTINUOUS
10
5.7981042519685042
20
-3.4717511023622047
11
5.7978616535433067
21
-3.471471377952756
0
LINE
8
BLACK
6
CONTINUOUS
10
5.7978616535433067
20
-3.471471377952756
11
5.7975819685039367
21
-3.4712288188976377
0
LINE
8
BLACK
6
CONTINUOUS
10
5.7975819685039367
20
-3.4712288188976377
11
5.7973984251968504
21
-3.4709372440944879
0
LINE
8
BLACK
6
CONTINUOUS
10
5.7973984251968504
20
-3.4709372440944879
11
5.7973494094488185
21
-3.4708807086614173
0
LINE
8
BLACK
6
CONTINUOUS
10
5.7973494094488185
20
-3.4708807086614173
11
5.797334251968504
21
-3.4708352755905509
0
LINE
8
BLACK
6
CONTINUOUS
10
5.797334251968504
20
-3.4708352755905509
11
5.7972736220472436
21
-3.4707389370078738
0
LINE
8
BLACK
6
CONTINUOUS
10
5.7972736220472436
20
-3.4707389370078738
11
5.7953988582677161
21
-3.4669894094488187
0
LINE
8
BLACK
6
CONTINUOUS
10
5.7953988582677161
20
-3.4669894094488187
11
5.7951919685039366
21
-3.4664487795275591
0
LINE
8
BLACK
6
CONTINUOUS
10
5.7951919685039366
20
-3.4664487795275591
11
5.7951844488188975
21
-3.4663429527559053
0
LINE
8
BLACK
6
CONTINUOUS
10
5.7951844488188975
20
-3.4663429527559053
11
5.7951438582677168
21
-3.466244960629921
0
LINE
8
BLACK
6
CONTINUOUS
10
5.7951438582677168
20
-3.466244960629921
11
5.795087125984252
21
-3.4656688976377952
0
LINE
8
BLACK
6
CONTINUOUS
10
5.795087125984252
20
-3.4656688976377952
11
5.795087125984252
21
-3.4450464566929133
0
LINE
8
BLACK
6
CONTINUOUS
10
5.795087125984252
20
-3.4450464566929133
11
5.7951438582677168
21
-3.4444703937007874
0
LINE
8
BLACK
6
CONTINUOUS
10
5.7951438582677168
20
-3.4444703937007874
11
5.7955847637795275
21
-3.4434059842519686
0
LINE
8
BLACK
6
CONTINUOUS
10
5.7955847637795275
20
-3.4434059842519686
11
5.7963994094488189
21
-3.4425913385826772
0
LINE
8
BLACK
6
CONTINUOUS
10
5.7963994094488189
20
-3.4425913385826772
11
5.7974638188976373
21
-3.4421504330708661
0
LINE
8
BLACK
6
CONTINUOUS
10
5.7974638188976373
20
-3.4421504330708661
11
5.7986159448818899
21
-3.4421504330708661
0
LINE
8
BLACK
6
CONTINUOUS
10
5.7986159448818899
20
-3.4421504330708661
11
5.7996803543307083
21
-3.4425913385826772
0
LINE
8
BLACK
6
CONTINUOUS
10
5.7996803543307083
20
-3.4425913385826772
11
5.7998192519685041
21
-3.4427302362204726
0
LINE
8
BLACK
6
CONTINUOUS
10
5.7998192519685041
20
-3.4427302362204726
11
5.8004688976377947
21
-3.4424054330708662
0
LINE
8
BLACK
6
CONTINUOUS
10
5.8004688976377947
20
-3.4424054330708662
11
5.801009488188976
21
-3.4421985433070867
0
LINE
8
BLACK
6
CONTINUOUS
10
5.801009488188976
20
-3.4421985433070867
11
5.8011153543307081
21
-3.4421909842519685
0
LINE
8
BLACK
6
CONTINUOUS
10
5.8011153543307081
20
-3.4421909842519685
11
5.8012133464566924
21
-3.4421504330708661
0
LINE
8
BLACK
6
CONTINUOUS
10
5.8012133464566924
20
-3.4421504330708661
11
5.8017894094488192
21
-3.4420937007874013
0
LINE
8
BLACK
6
CONTINUOUS
10
5.8017894094488192
20
-3.4420937007874013
11
5.8111632283464569
21
-3.4420937007874013
0
LINE
8
BLACK
6
CONTINUOUS
10
5.8111632283464569
20
-3.4420937007874013
11
5.8117392913385828
21
-3.4421504330708661
0
LINE
8
BLACK
6
CONTINUOUS
10
5.8009926377952752
20
-3.4487461417322836
11
5.8009926377952752
21
-3.4572031102362204
0
LINE
8
BLACK
6
CONTINUOUS
10
5.8009926377952752
20
-3.4572031102362204
11
5.801009488188976
21
-3.4571966929133859
0
LINE
8
BLACK
6
CONTINUOUS
10
5.801009488188976
20
-3.4571966929133859
11
5.8011153543307081
21
-3.4571891338582676
0
LINE
8
BLACK
6
CONTINUOUS
10
5.8011153543307081
20
-3.4571891338582676
11
5.8012133464566924
21
-3.4571485826771653
0
LINE
8
BLACK
6
CONTINUOUS
10
5.8012133464566924
20
-3.4571485826771653
11
5.8017894094488192
21
-3.4570918503937009
0
LINE
8
BLACK
6
CONTINUOUS
10
5.8017894094488192
20
-3.4570918503937009
11
5.8104661811023623
21
-3.4570918503937009
0
LINE
8
BLACK
6
CONTINUOUS
10
5.8104661811023623
20
-3.4570918503937009
11
5.8127118897637793
21
-3.4559689763779526
0
LINE
8
BLACK
6
CONTINUOUS
10
5.8127118897637793
20
-3.4559689763779526
11
5.8138347637795276
21
-3.4537232677165353
0
LINE
8
BLACK
6
CONTINUOUS
10
5.8138347637795276
20
-3.4537232677165353
11
5.8138347637795276
21
-3.4513678346456693
0
LINE
8
BLACK
6
CONTINUOUS
10
5.8138347637795276
20
-3.4513678346456693
11
5.8127118897637793
21
-3.4491220866141732
0
LINE
8
BLACK
6
CONTINUOUS
10
5.8127118897637793
20
-3.4491220866141732
11
5.8104661417322836
21
-3.4479992125984249
0
LINE
8
BLACK
6
CONTINUOUS
10
5.8104661417322836
20
-3.4479992125984249
11
5.8024864960629916
21
-3.4479992125984249
0
LINE
8
BLACK
6
CONTINUOUS
10
5.8024864960629916
20
-3.4479992125984249
11
5.8009926377952752
21
-3.4487461417322836
0
LINE
8
BLACK
6
CONTINUOUS
10
5.8353009055118106
20
-3.4425913385826772
11
5.836115551181102
21
-3.4434059842519686
0
LINE
8
BLACK
6
CONTINUOUS
10
5.836115551181102
20
-3.4434059842519686
11
5.8365564566929136
21
-3.4444703937007874
0
LINE
8
BLACK
6
CONTINUOUS
10
5.8365564566929136
20
-3.4444703937007874
11
5.8366131889763775
21
-3.4450464566929133
0
LINE
8
BLACK
6
CONTINUOUS
10
5.8366131889763775
20
-3.4450464566929133
11
5.8366131889763775
21
-3.4649718503937006
0
LINE
8
BLACK
6
CONTINUOUS
10
5.8366131889763775
20
-3.4649718503937006
11
5.837736023622047
21
-3.467217559055118
0
LINE
8
BLACK
6
CONTINUOUS
10
5.837736023622047
20
-3.467217559055118
11
5.8399817716535436
21
-3.4683404330708663
0
LINE
8
BLACK
6
CONTINUOUS
10
5.8399817716535436
20
-3.4683404330708663
11
5.8442119685039371
21
-3.4683404330708663
0
LINE
8
BLACK
6
CONTINUOUS
10
5.8442119685039371
20
-3.4683404330708663
11
5.8469094488188977
21
-3.4669916929133859
0
LINE
8
BLACK
6
CONTINUOUS
10
5.8469094488188977
20
-3.4669916929133859
11
5.8475805511811023
21
-3.4663205905511809
0
LINE
8
BLACK
6
CONTINUOUS
10
5.8475805511811023
20
-3.4663205905511809
11
5.8475805511811023
21
-3.4450464566929133
0
LINE
8
BLACK
6
CONTINUOUS
10
5.8475805511811023
20
-3.4450464566929133
11
5.8476372834645671
21
-3.4444703937007874
0
LINE
8
BLACK
6
CONTINUOUS
10
5.8476372834645671
20
-3.4444703937007874
11
5.8480781889763778
21
-3.4434059842519686
0
LINE
8
BLACK
6
CONTINUOUS
10
5.8480781889763778
20
-3.4434059842519686
11
5.8488928346456692
21
-3.4425913385826772
0
LINE
8
BLACK
6
CONTINUOUS
10
5.8488928346456692
20
-3.4425913385826772
11
5.8499572440944885
21
-3.4421504330708661
0
LINE
8
BLACK
6
CONTINUOUS
10
5.8499572440944885
20
-3.4421504330708661
11
5.8511093700787402
21
-3.4421504330708661
0
LINE
8
BLACK
6
CONTINUOUS
10
5.8511093700787402
20
-3.4421504330708661
11
5.8521737795275586
21
-3.4425913385826772
0
LINE
8
BLACK
6
CONTINUOUS
10
5.8521737795275586
20
-3.4425913385826772
11
5.85298842519685
21
-3.4434059842519686
0
LINE
8
BLACK
6
CONTINUOUS
10
5.85298842519685
20
-3.4434059842519686
11
5.8534293307086616
21
-3.4444703937007874
0
LINE
8
BLACK
6
CONTINUOUS
10
5.8534293307086616
20
-3.4444703937007874
11
5.8534860629921255
21
-3.4450464566929133
0
LINE
8
BLACK
6
CONTINUOUS
10
5.8534860629921255
20
-3.4450464566929133
11
5.8534860629921255
21
-3.4712931889763778
0
LINE
8
BLACK
6
CONTINUOUS
10
5.8534860629921255
20
-3.4712931889763778
11
5.8534293307086616
21
-3.4718692519685037
0
LINE
8
BLACK
6
CONTINUOUS
10
5.8534293307086616
20
-3.4718692519685037
11
5.85298842519685
21
-3.472933661417323
0
LINE
8
BLACK
6
CONTINUOUS
10
5.85298842519685
20
-3.472933661417323
11
5.8521737795275586
21
-3.473748307086614
0
LINE
8
BLACK
6
CONTINUOUS
10
5.8521737795275586
20
-3.473748307086614
11
5.8511093700787402
21
-3.4741892125984251
0
LINE
8
BLACK
6
CONTINUOUS
10
5.8511093700787402
20
-3.4741892125984251
11
5.8499572440944885
21
-3.4741892125984251
0
LINE
8
BLACK
6
CONTINUOUS
10
5.8499572440944885
20
-3.4741892125984251
11
5.8488928346456692
21
-3.473748307086614
0
LINE
8
BLACK
6
CONTINUOUS
10
5.8488928346456692
20
-3.473748307086614
11
5.8481289763779527
21
-3.4729844488188975
0
LINE
8
BLACK
6
CONTINUOUS
10
5.8481289763779527
20
-3.4729844488188975
11
5.8462295275590552
21
-3.4739342125984249
0
LINE
8
BLACK
6
CONTINUOUS
10
5.8462295275590552
20
-3.4739342125984249
11
5.8456888976377952
21
-3.4741411023622049
0
LINE
8
BLACK
6
CONTINUOUS
10
5.8456888976377952
20
-3.4741411023622049
11
5.8455830708661418
21
-3.4741485826771652
0
LINE
8
BLACK
6
CONTINUOUS
10
5.8455830708661418
20
-3.4741485826771652
11
5.8454850787401575
21
-3.4741892125984251
0
LINE
8
BLACK
6
CONTINUOUS
10
5.8454850787401575
20
-3.4741892125984251
11
5.8449090157480317
21
-3.4742459448818899
0
LINE
8
BLACK
6
CONTINUOUS
10
5.8449090157480317
20
-3.4742459448818899
11
5.839284724409449
21
-3.4742459448818899
0
LINE
8
BLACK
6
CONTINUOUS
10
5.839284724409449
20
-3.4742459448818899
11
5.8387086614173231
21
-3.4741892125984251
0
LINE
8
BLACK
6
CONTINUOUS
10
5.8387086614173231
20
-3.4741892125984251
11
5.8386106692913389
21
-3.474148622047244
0
LINE
8
BLACK
6
CONTINUOUS
10
5.8386106692913389
20
-3.474148622047244
11
5.8385048031496058
21
-3.4741411023622049
0
LINE
8
BLACK
6
CONTINUOUS
10
5.8385048031496058
20
-3.4741411023622049
11
5.8379642125984255
21
-3.4739342125984249
0
LINE
8
BLACK
6
CONTINUOUS
10
5.8379642125984255
20
-3.4739342125984249
11
5.8342146850393704
21
-3.4720594488188974
0
LINE
8
BLACK
6
CONTINUOUS
10
5.8342146850393704
20
-3.4720594488188974
11
5.8341183070866141
21
-3.4719987795275591
0
LINE
8
BLACK
6
CONTINUOUS
10
5.8341183070866141
20
-3.4719987795275591
11
5.8340729133858265
21
-3.471983661417323
0
LINE
8
BLACK
6
CONTINUOUS
10
5.8340729133858265
20
-3.471983661417323
11
5.8340163385826767
21
-3.4719346062992127
0
LINE
8
BLACK
6
CONTINUOUS
10
5.8340163385826767
20
-3.4719346062992127
11
5.8337248031496065
21
-3.4717511023622047
0
LINE
8
BLACK
6
CONTINUOUS
10
5.8337248031496065
20
-3.4717511023622047
11
5.833482204724409
21
-3.471471377952756
0
LINE
8
BLACK
6
CONTINUOUS
10
5.833482204724409
20
-3.471471377952756
11
5.833202519685039
21
-3.4712288188976377
0
LINE
8
BLACK
6
CONTINUOUS
10
5.833202519685039
20
-3.4712288188976377
11
5.8330189763779527
21
-3.4709372440944879
0
LINE
8
BLACK
6
CONTINUOUS
10
5.8330189763779527
20
-3.4709372440944879
11
5.8329699606299208
21
-3.4708807086614173
0
LINE
8
BLACK
6
CONTINUOUS
10
5.8329699606299208
20
-3.4708807086614173
11
5.8329548031496063
21
-3.4708352755905509
0
LINE
8
BLACK
6
CONTINUOUS
10
5.8329548031496063
20
-3.4708352755905509
11
5.8328941732283459
21
-3.4707389370078738
0
LINE
8
BLACK
6
CONTINUOUS
10
5.8328941732283459
20
-3.4707389370078738
11
5.8310194094488184
21
-3.4669894094488187
0
LINE
8
BLACK
6
CONTINUOUS
10
5.8310194094488184
20
-3.4669894094488187
11
5.8308125196850389
21
-3.4664487795275591
0
LINE
8
BLACK
6
CONTINUOUS
10
5.8308125196850389
20
-3.4664487795275591
11
5.8308049999999998
21
-3.4663429527559053
0
LINE
8
BLACK
6
CONTINUOUS
10
5.8308049999999998
20
-3.4663429527559053
11
5.8307644094488191
21
-3.466244960629921
0
LINE
8
BLACK
6
CONTINUOUS
10
5.8307644094488191
20
-3.466244960629921
11
5.8307076771653543
21
-3.4656688976377952
0
LINE
8
BLACK
6
CONTINUOUS
10
5.8307076771653543
20
-3.4656688976377952
11
5.8307076771653543
21
-3.4450464566929133
0
LINE
8
BLACK
6
CONTINUOUS
10
5.8307076771653543
20
-3.4450464566929133
11
5.8307644094488191
21
-3.4444703937007874
0
LINE
8
BLACK
6
CONTINUOUS
10
5.8307644094488191
20
-3.4444703937007874
11
5.8312053149606298
21
-3.4434059842519686
0
LINE
8
BLACK
6
CONTINUOUS
10
5.8312053149606298
20
-3.4434059842519686
11
5.8320199606299212
21
-3.4425913385826772
0
LINE
8
BLACK
6
CONTINUOUS
10
5.8320199606299212
20
-3.4425913385826772
11
5.8330843700787396
21
-3.4421504330708661
0
LINE
8
BLACK
6
CONTINUOUS
10
5.8330843700787396
20
-3.4421504330708661
11
5.8342364960629922
21
-3.4421504330708661
0
LINE
8
BLACK
6
CONTINUOUS
10
5.8342364960629922
20
-3.4421504330708661
11
5.8353009055118106
21
-3.4425913385826772
0
LINE
8
BLACK
6
CONTINUOUS
10
5.8709214566929129
20
-3.4425913385826772
11
5.8717361023622043
21
-3.4434059842519686
0
LINE
8
BLACK
6
CONTINUOUS
10
5.8717361023622043
20
-3.4434059842519686
11
5.8721770078740159
21
-3.4444703937007874
0
LINE
8
BLACK
6
CONTINUOUS
10
5.8721770078740159
20
-3.4444703937007874
11
5.8722337401574798
21
-3.4450464566929133
0
LINE
8
BLACK
6
CONTINUOUS
10
5.8722337401574798
20
-3.4450464566929133
11
5.8722337401574798
21
-3.4649718503937006
0
LINE
8
BLACK
6
CONTINUOUS
10
5.8722337401574798
20
-3.4649718503937006
11
5.8733565748031493
21
-3.467217559055118
0
LINE
8
BLACK
6
CONTINUOUS
10
5.8733565748031493
20
-3.467217559055118
11
5.8756023228346459
21
-3.4683404330708663
0
LINE
8
BLACK
6
CONTINUOUS
10
5.8756023228346459
20
-3.4683404330708663
11
5.8798325196850394
21
-3.4683404330708663
0
LINE
8
BLACK
6
CONTINUOUS
10
5.8798325196850394
20
-3.4683404330708663
11
5.88253
21
-3.4669916929133859
0
LINE
8
BLACK
6
CONTINUOUS
10
5.88253
20
-3.4669916929133859
11
5.8832011023622046
21
-3.4663205905511809
0
LINE
8
BLACK
6
CONTINUOUS
10
5.8832011023622046
20
-3.4663205905511809
11
5.8832011023622046
21
-3.4450464566929133
0
LINE
8
BLACK
6
CONTINUOUS
10
5.8832011023622046
20
-3.4450464566929133
11
5.8832578346456694
21
-3.4444703937007874
0
LINE
8
BLACK
6
CONTINUOUS
10
5.8832578346456694
20
-3.4444703937007874
11
5.8836987401574801
21
-3.4434059842519686
0
LINE
8
BLACK
6
CONTINUOUS
10
5.8836987401574801
20
-3.4434059842519686
11
5.8845133858267715
21
-3.4425913385826772
0
LINE
8
BLACK
6
CONTINUOUS
10
5.8845133858267715
20
-3.4425913385826772
11
5.8855777952755908
21
-3.4421504330708661
0
LINE
8
BLACK
6
CONTINUOUS
10
5.8855777952755908
20
-3.4421504330708661
11
5.8867299212598425
21
-3.4421504330708661
0
LINE
8
BLACK
6
CONTINUOUS
10
5.8867299212598425
20
-3.4421504330708661
11
5.8877943307086609
21
-3.4425913385826772
0
LINE
8
BLACK
6
CONTINUOUS
10
5.8877943307086609
20
-3.4425913385826772
11
5.8886089763779523
21
-3.4434059842519686
0
LINE
8
BLACK
6
CONTINUOUS
10
5.8886089763779523
20
-3.4434059842519686
11
5.8890498818897639
21
-3.4444703937007874
0
LINE
8
BLACK
6
CONTINUOUS
10
5.8890498818897639
20
-3.4444703937007874
11
5.8891066141732278
21
-3.4450464566929133
0
LINE
8
BLACK
6
CONTINUOUS
10
5.8891066141732278
20
-3.4450464566929133
11
5.8891066141732278
21
-3.4712931889763778
0
LINE
8
BLACK
6
CONTINUOUS
10
5.8891066141732278
20
-3.4712931889763778
11
5.8890498818897639
21
-3.4718692519685037
0
LINE
8
BLACK
6
CONTINUOUS
10
5.8890498818897639
20
-3.4718692519685037
11
5.8886089763779523
21
-3.472933661417323
0
LINE
8
BLACK
6
CONTINUOUS
10
5.8886089763779523
20
-3.472933661417323
11
5.8877943307086609
21
-3.473748307086614
0
LINE
8
BLACK
6
CONTINUOUS
10
5.8877943307086609
20
-3.473748307086614
11
5.8867299212598425
21
-3.4741892125984251
0
LINE
8
BLACK
6
CONTINUOUS
10
5.8867299212598425
20
-3.4741892125984251
11
5.8855777952755908
21
-3.4741892125984251
0
LINE
8
BLACK
6
CONTINUOUS
10
5.8855777952755908
20
-3.4741892125984251
11
5.8845133858267715
21
-3.473748307086614
0
LINE
8
BLACK
6
CONTINUOUS
10
5.8845133858267715
20
-3.473748307086614
11
5.883749527559055
21
-3.4729844488188975
0
LINE
8
BLACK
6
CONTINUOUS
10
5.883749527559055
20
-3.4729844488188975
11
5.8818500787401575
21
-3.4739342125984249
0
LINE
8
BLACK
6
CONTINUOUS
10
5.8818500787401575
20
-3.4739342125984249
11
5.8813094488188975
21
-3.4741411023622049
0
LINE
8
BLACK
6
CONTINUOUS
10
5.8813094488188975
20
-3.4741411023622049
11
5.8812036220472441
21
-3.4741485826771652
0
LINE
8
BLACK
6
CONTINUOUS
10
5.8812036220472441
20
-3.4741485826771652
11
5.8811056299212598
21
-3.4741892125984251
0
LINE
8
BLACK
6
CONTINUOUS
10
5.8811056299212598
20
-3.4741892125984251
11
5.880529566929134
21
-3.4742459448818899
0
LINE
8
BLACK
6
CONTINUOUS
10
5.880529566929134
20
-3.4742459448818899
11
5.8749052755905513
21
-3.4742459448818899
0
LINE
8
BLACK
6
CONTINUOUS
10
5.8749052755905513
20
-3.4742459448818899
11
5.8743292125984254
21
-3.4741892125984251
0
LINE
8
BLACK
6
CONTINUOUS
10
5.8743292125984254
20
-3.4741892125984251
11
5.8742312204724412
21
-3.474148622047244
0
LINE
8
BLACK
6
CONTINUOUS
10
5.8742312204724412
20
-3.474148622047244
11
5.8741253543307081
21
-3.4741411023622049
0
LINE
8
BLACK
6
CONTINUOUS
10
5.8741253543307081
20
-3.4741411023622049
11
5.8735847637795278
21
-3.4739342125984249
0
LINE
8
BLACK
6
CONTINUOUS
10
5.8735847637795278
20
-3.4739342125984249
11
5.8698352362204727
21
-3.4720594488188974
0
LINE
8
BLACK
6
CONTINUOUS
10
5.8698352362204727
20
-3.4720594488188974
11
5.8697388582677164
21
-3.4719987795275591
0
LINE
8
BLACK
6
CONTINUOUS
10
5.8697388582677164
20
-3.4719987795275591
11
5.8696934645669288
21
-3.471983661417323
0
LINE
8
BLACK
6
CONTINUOUS
10
5.8696934645669288
20
-3.471983661417323
11
5.869636889763779
21
-3.4719346062992127
0
LINE
8
BLACK
6
CONTINUOUS
10
5.869636889763779
20
-3.4719346062992127
11
5.8693453543307088
21
-3.4717511023622047
0
LINE
8
BLACK
6
CONTINUOUS
10
5.8693453543307088
20
-3.4717511023622047
11
5.8691027559055113
21
-3.471471377952756
0
LINE
8
BLACK
6
CONTINUOUS
10
5.8691027559055113
20
-3.471471377952756
11
5.8688230708661413
21
-3.4712288188976377
0
LINE
8
BLACK
6
CONTINUOUS
10
5.8688230708661413
20
-3.4712288188976377
11
5.868639527559055
21
-3.4709372440944879
0
LINE
8
BLACK
6
CONTINUOUS
10
5.868639527559055
20
-3.4709372440944879
11
5.8685905118110231
21
-3.4708807086614173
0
LINE
8
BLACK
6
CONTINUOUS
10
5.8685905118110231
20
-3.4708807086614173
11
5.8685753543307086
21
-3.4708352755905509
0
LINE
8
BLACK
6
CONTINUOUS
10
5.8685753543307086
20
-3.4708352755905509
11
5.8685147244094491
21
-3.4707389370078738
0
LINE
8
BLACK
6
CONTINUOUS
10
5.8685147244094491
20
-3.4707389370078738
11
5.8666399606299215
21
-3.4669894094488187
0
LINE
8
BLACK
6
CONTINUOUS
10
5.8666399606299215
20
-3.4669894094488187
11
5.8664330708661412
21
-3.4664487795275591
0
LINE
8
BLACK
6
CONTINUOUS
10
5.8664330708661412
20
-3.4664487795275591
11
5.8664255511811021
21
-3.4663429527559053
0
LINE
8
BLACK
6
CONTINUOUS
10
5.8664255511811021
20
-3.4663429527559053
11
5.8663849606299214
21
-3.466244960629921
0
LINE
8
BLACK
6
CONTINUOUS
10
5.8663849606299214
20
-3.466244960629921
11
5.8663282283464566
21
-3.4656688976377952
0
LINE
8
BLACK
6
CONTINUOUS
10
5.8663282283464566
20
-3.4656688976377952
11
5.8663282283464566
21
-3.4450464566929133
0
LINE
8
BLACK
6
CONTINUOUS
10
5.8663282283464566
20
-3.4450464566929133
11
5.8663849606299214
21
-3.4444703937007874
0
LINE
8
BLACK
6
CONTINUOUS
10
5.8663849606299214
20
-3.4444703937007874
11
5.8668258661417321
21
-3.4434059842519686
0
LINE
8
BLACK
6
CONTINUOUS
10
5.8668258661417321
20
-3.4434059842519686
11
5.8676405118110235
21
-3.4425913385826772
0
LINE
8
BLACK
6
CONTINUOUS
10
5.8676405118110235
20
-3.4425913385826772
11
5.8687049212598428
21
-3.4421504330708661
0
LINE
8
BLACK
6
CONTINUOUS
10
5.8687049212598428
20
-3.4421504330708661
11
5.8698570472440945
21
-3.4421504330708661
0
LINE
8
BLACK
6
CONTINUOUS
10
5.8698570472440945
20
-3.4421504330708661
11
5.8709214566929129
21
-3.4425913385826772
0
LINE
8
BLACK
6
CONTINUOUS
10
5.9167261811023621
20
-3.4421504330708661
11
5.9168241338582677
21
-3.4421909842519685
0
LINE
8
BLACK
6
CONTINUOUS
10
5.9168241338582677
20
-3.4421909842519685
11
5.9169300393700786
21
-3.4421985433070867
0
LINE
8
BLACK
6
CONTINUOUS
10
5.9169300393700786
20
-3.4421985433070867
11
5.9174706692913386
21
-3.4424054330708662
0
LINE
8
BLACK
6
CONTINUOUS
10
5.9174706692913386
20
-3.4424054330708662
11
5.9212201968503937
21
-3.4442802362204725
0
LINE
8
BLACK
6
CONTINUOUS
10
5.9212201968503937
20
-3.4442802362204725
11
5.9213165354330703
21
-3.4443408661417321
0
LINE
8
BLACK
6
CONTINUOUS
10
5.9213165354330703
20
-3.4443408661417321
11
5.9213619291338579
21
-3.444356023622047
0
LINE
8
BLACK
6
CONTINUOUS
10
5.9213619291338579
20
-3.444356023622047
11
5.9214184251968502
21
-3.4444049999999997
0
LINE
8
BLACK
6
CONTINUOUS
10
5.9214184251968502
20
-3.4444049999999997
11
5.9217100787401575
21
-3.4445886220472439
0
LINE
8
BLACK
6
CONTINUOUS
10
5.9217100787401575
20
-3.4445886220472439
11
5.9219525984251966
21
-3.444868307086614
0
LINE
8
BLACK
6
CONTINUOUS
10
5.9219525984251966
20
-3.444868307086614
11
5.9222323228346454
21
-3.4451108661417322
0
LINE
8
BLACK
6
CONTINUOUS
10
5.9222323228346454
20
-3.4451108661417322
11
5.922415787401575
21
-3.4454024015748033
0
LINE
8
BLACK
6
CONTINUOUS
10
5.922415787401575
20
-3.4454024015748033
11
5.9224649212598424
21
-3.4454590157480314
0
LINE
8
BLACK
6
CONTINUOUS
10
5.9224649212598424
20
-3.4454590157480314
11
5.9224800393700789
21
-3.4455044488188977
0
LINE
8
BLACK
6
CONTINUOUS
10
5.9224800393700789
20
-3.4455044488188977
11
5.9225406692913385
21
-3.4456007480314961
0
LINE
8
BLACK
6
CONTINUOUS
10
5.9225406692913385
20
-3.4456007480314961
11
5.924415433070866
21
-3.4493502755905512
0
LINE
8
BLACK
6
CONTINUOUS
10
5.924415433070866
20
-3.4493502755905512
11
5.9246223228346455
21
-3.449890866141732
0
LINE
8
BLACK
6
CONTINUOUS
10
5.9246223228346455
20
-3.449890866141732
11
5.9246298425196846
21
-3.4499967322834646
0
LINE
8
BLACK
6
CONTINUOUS
10
5.9246298425196846
20
-3.4499967322834646
11
5.9246704330708662
21
-3.4500947244094489
0
LINE
8
BLACK
6
CONTINUOUS
10
5.9246704330708662
20
-3.4500947244094489
11
5.924727165354331
21
-3.4506707874015747
0
LINE
8
BLACK
6
CONTINUOUS
10
5.924727165354331
20
-3.4506707874015747
11
5.924727165354331
21
-3.4656688976377952
0
LINE
8
BLACK
6
CONTINUOUS
10
5.924727165354331
20
-3.4656688976377952
11
5.9246704330708662
21
-3.466244960629921
0
LINE
8
BLACK
6
CONTINUOUS
10
5.9246704330708662
20
-3.466244960629921
11
5.9246298425196846
21
-3.4663429133858266
0
LINE
8
BLACK
6
CONTINUOUS
10
5.9246298425196846
20
-3.4663429133858266
11
5.9246223228346455
21
-3.4664488188976379
0
LINE
8
BLACK
6
CONTINUOUS
10
5.9246223228346455
20
-3.4664488188976379
11
5.924415433070866
21
-3.4669894094488187
0
LINE
8
BLACK
6
CONTINUOUS
10
5.924415433070866
20
-3.4669894094488187
11
5.9225406692913385
21
-3.4707389370078738
0
LINE
8
BLACK
6
CONTINUOUS
10
5.9225406692913385
20
-3.4707389370078738
11
5.9224800000000002
21
-3.4708352755905509
0
LINE
8
BLACK
6
CONTINUOUS
10
5.9224800000000002
20
-3.4708352755905509
11
5.9224648818897636
21
-3.4708807086614173
0
LINE
8
BLACK
6
CONTINUOUS
10
5.9224648818897636
20
-3.4708807086614173
11
5.9224158267716538
21
-3.4709372440944879
0
LINE
8
BLACK
6
CONTINUOUS
10
5.9224158267716538
20
-3.4709372440944879
11
5.9222323228346454
21
-3.4712288188976377
0
LINE
8
BLACK
6
CONTINUOUS
10
5.9222323228346454
20
-3.4712288188976377
11
5.9219525984251966
21
-3.471471377952756
0
LINE
8
BLACK
6
CONTINUOUS
10
5.9219525984251966
20
-3.471471377952756
11
5.9217100393700788
21
-3.4717511023622047
0
LINE
8
BLACK
6
CONTINUOUS
10
5.9217100393700788
20
-3.4717511023622047
11
5.921418464566929
21
-3.4719346062992127
0
LINE
8
BLACK
6
CONTINUOUS
10
5.921418464566929
20
-3.4719346062992127
11
5.9213619291338579
21
-3.471983661417323
0
LINE
8
BLACK
6
CONTINUOUS
10
5.9213619291338579
20
-3.471983661417323
11
5.9213164960629916
21
-3.4719987795275591
0
LINE
8
BLACK
6
CONTINUOUS
10
5.9213164960629916
20
-3.4719987795275591
11
5.9212201574803149
21
-3.4720594488188974
0
LINE
8
BLACK
6
CONTINUOUS
10
5.9212201574803149
20
-3.4720594488188974
11
5.9174706299212598
21
-3.4739342125984249
0
LINE
8
BLACK
6
CONTINUOUS
10
5.9174706299212598
20
-3.4739342125984249
11
5.9169299999999998
21
-3.4741411023622049
0
LINE
8
BLACK
6
CONTINUOUS
10
5.9169299999999998
20
-3.4741411023622049
11
5.9168241732283464
21
-3.4741485826771652
0
LINE
8
BLACK
6
CONTINUOUS
10
5.9168241732283464
20
-3.4741485826771652
11
5.9167261811023621
21
-3.4741892125984251
0
LINE
8
BLACK
6
CONTINUOUS
10
5.9167261811023621
20
-3.4741892125984251
11
5.9161501181102363
21
-3.4742459448818899
0
LINE
8
BLACK
6
CONTINUOUS
10
5.9161501181102363
20
-3.4742459448818899
11
5.9086510629921261
21
-3.4742459448818899
0
LINE
8
BLACK
6
CONTINUOUS
10
5.9086510629921261
20
-3.4742459448818899
11
5.9080750000000002
21
-3.4741892125984251
0
LINE
8
BLACK
6
CONTINUOUS
10
5.9080750000000002
20
-3.4741892125984251
11
5.9079770078740159
21
-3.474148622047244
0
LINE
8
BLACK
6
CONTINUOUS
10
5.9079770078740159
20
-3.474148622047244
11
5.9078711417322829
21
-3.4741411023622049
0
LINE
8
BLACK
6
CONTINUOUS
10
5.9078711417322829
20
-3.4741411023622049
11
5.9073305511811025
21
-3.4739342125984249
0
LINE
8
BLACK
6
CONTINUOUS
10
5.9073305511811025
20
-3.4739342125984249
11
5.9035810236220474
21
-3.4720594488188974
0
LINE
8
BLACK
6
CONTINUOUS
10
5.9035810236220474
20
-3.4720594488188974
11
5.9034846456692911
21
-3.4719987795275591
0
LINE
8
BLACK
6
CONTINUOUS
10
5.9034846456692911
20
-3.4719987795275591
11
5.9034392519685035
21
-3.471983661417323
0
LINE
8
BLACK
6
CONTINUOUS
10
5.9034392519685035
20
-3.471983661417323
11
5.9033826771653546
21
-3.4719346062992127
0
LINE
8
BLACK
6
CONTINUOUS
10
5.9033826771653546
20
-3.4719346062992127
11
5.9030911417322836
21
-3.4717511023622047
0
LINE
8
BLACK
6
CONTINUOUS
10
5.9030911417322836
20
-3.4717511023622047
11
5.9028485433070861
21
-3.471471377952756
0
LINE
8
BLACK
6
CONTINUOUS
10
5.9028485433070861
20
-3.471471377952756
11
5.902568858267716
21
-3.4712288188976377
0
LINE
8
BLACK
6
CONTINUOUS
10
5.902568858267716
20
-3.4712288188976377
11
5.9023853149606298
21
-3.4709372440944879
0
LINE
8
BLACK
6
CONTINUOUS
10
5.9023853149606298
20
-3.4709372440944879
11
5.9023362992125987
21
-3.4708807086614173
0
LINE
8
BLACK
6
CONTINUOUS
10
5.9023362992125987
20
-3.4708807086614173
11
5.9023211417322834
21
-3.4708352755905509
0
LINE
8
BLACK
6
CONTINUOUS
10
5.9023211417322834
20
-3.4708352755905509
11
5.9022605118110238
21
-3.4707389370078738
0
LINE
8
BLACK
6
CONTINUOUS
10
5.9022605118110238
20
-3.4707389370078738
11
5.9003857480314963
21
-3.4669894094488187
0
LINE
8
BLACK
6
CONTINUOUS
10
5.9003857480314963
20
-3.4669894094488187
11
5.9001788582677168
21
-3.4664487795275591
0
LINE
8
BLACK
6
CONTINUOUS
10
5.9001788582677168
20
-3.4664487795275591
11
5.9001713385826768
21
-3.4663429527559053
0
LINE
8
BLACK
6
CONTINUOUS
10
5.9001713385826768
20
-3.4663429527559053
11
5.9001307480314962
21
-3.466244960629921
0
LINE
8
BLACK
6
CONTINUOUS
10
5.9001307480314962
20
-3.466244960629921
11
5.9000740157480314
21
-3.4656688976377952
0
LINE
8
BLACK
6
CONTINUOUS
10
5.9000740157480314
20
-3.4656688976377952
11
5.9000740157480314
21
-3.4619193700787401
0
LINE
8
BLACK
6
CONTINUOUS
10
5.9000740157480314
20
-3.4619193700787401
11
5.9001307480314962
21
-3.4613433070866142
0
LINE
8
BLACK
6
CONTINUOUS
10
5.9001307480314962
20
-3.4613433070866142
11
5.9002414173228344
21
-3.4610760236220472
0
LINE
8
BLACK
6
CONTINUOUS
10
5.9002414173228344
20
-3.4610760236220472
11
5.9002975984251966
21
-3.4607922440944883
0
LINE
8
BLACK
6
CONTINUOUS
10
5.9002975984251966
20
-3.4607922440944883
11
5.9004597637795273
21
-3.4605489370078741
0
LINE
8
BLACK
6
CONTINUOUS
10
5.9004597637795273
20
-3.4605489370078741
11
5.9005716535433068
21
-3.4602788976377954
0
LINE
8
BLACK
6
CONTINUOUS
10
5.9005716535433068
20
-3.4602788976377954
11
5.900776181102362
21
-3.4600743700787402
0
LINE
8
BLACK
6
CONTINUOUS
10
5.900776181102362
20
-3.4600743700787402
11
5.9009366535433072
21
-3.4598336614173228
0
LINE
8
BLACK
6
CONTINUOUS
10
5.9009366535433072
20
-3.4598336614173228
11
5.9011795669291338
21
-3.4596709448818896
0
LINE
8
BLACK
6
CONTINUOUS
10
5.9011795669291338
20
-3.4596709448818896
11
5.9013862992125983
21
-3.4594642519685039
0
LINE
8
BLACK
6
CONTINUOUS
10
5.9013862992125983
20
-3.4594642519685039
11
5.9016535433070869
21
-3.4593535433070866
0
LINE
8
BLACK
6
CONTINUOUS
10
5.9016535433070869
20
-3.4593535433070866
11
5.9018939370078742
21
-3.459192559055118
0
LINE
8
BLACK
6
CONTINUOUS
10
5.9018939370078742
20
-3.459192559055118
11
5.9024476771653545
21
-3.4590239370078741
0
LINE
8
BLACK
6
CONTINUOUS
10
5.9024476771653545
20
-3.4590239370078741
11
5.9188216535433069
21
-3.4557491732283463
0
LINE
8
BLACK
6
CONTINUOUS
10
5.9188216535433069
20
-3.4557491732283463
11
5.9188216535433069
21
-3.4513678346456693
0
LINE
8
BLACK
6
CONTINUOUS
10
5.9188216535433069
20
-3.4513678346456693
11
5.9176987795275586
21
-3.4491220866141732
0
LINE
8
BLACK
6
CONTINUOUS
10
5.9176987795275586
20
-3.4491220866141732
11
5.9154530314960629
21
-3.4479992125984249
0
LINE
8
BLACK
6
CONTINUOUS
10
5.9154530314960629
20
-3.4479992125984249
11
5.9093481496062994
21
-3.4479992125984249
0
LINE
8
BLACK
6
CONTINUOUS
10
5.9093481496062994
20
-3.4479992125984249
11
5.9062220866141733
21
-3.4495622834645667
0
LINE
8
BLACK
6
CONTINUOUS
10
5.9062220866141733
20
-3.4495622834645667
11
5.9056814566929132
21
-3.4497691732283462
0
LINE
8
BLACK
6
CONTINUOUS
10
5.9056814566929132
20
-3.4497691732283462
11
5.9045322440944883
21
-3.4498508267716534
0
LINE
8
BLACK
6
CONTINUOUS
10
5.9045322440944883
20
-3.4498508267716534
11
5.9034392913385823
21
-3.4494865354330706
0
LINE
8
BLACK
6
CONTINUOUS
10
5.9034392913385823
20
-3.4494865354330706
11
5.9025688976377948
21
-3.448731653543307
0
LINE
8
BLACK
6
CONTINUOUS
10
5.9025688976377948
20
-3.448731653543307
11
5.9020536220472444
21
-3.4477011811023623
0
LINE
8
BLACK
6
CONTINUOUS
10
5.9020536220472444
20
-3.4477011811023623
11
5.9019719685039371
21
-3.446551968503937
0
LINE
8
BLACK
6
CONTINUOUS
10
5.9019719685039371
20
-3.446551968503937
11
5.90233625984252
21
-3.4454590157480314
0
LINE
8
BLACK
6
CONTINUOUS
10
5.90233625984252
20
-3.4454590157480314
11
5.9030911417322836
21
-3.4445886220472439
0
LINE
8
BLACK
6
CONTINUOUS
10
5.9030911417322836
20
-3.4445886220472439
11
5.9035809842519686
21
-3.4442802362204725
0
LINE
8
BLACK
6
CONTINUOUS
10
5.9035809842519686
20
-3.4442802362204725
11
5.9073305511811025
21
-3.4424054330708662
0
LINE
8
BLACK
6
CONTINUOUS
10
5.9073305511811025
20
-3.4424054330708662
11
5.9078711417322829
21
-3.4421985433070867
0
LINE
8
BLACK
6
CONTINUOUS
10
5.9078711417322829
20
-3.4421985433070867
11
5.9079770078740159
21
-3.4421909842519685
0
LINE
8
BLACK
6
CONTINUOUS
10
5.9079770078740159
20
-3.4421909842519685
11
5.9080750000000002
21
-3.4421504330708661
0
LINE
8
BLACK
6
CONTINUOUS
10
5.9080750000000002
20
-3.4421504330708661
11
5.9086510629921261
21
-3.4420937007874013
0
LINE
8
BLACK
6
CONTINUOUS
10
5.9086510629921261
20
-3.4420937007874013
11
5.9161501181102363
21
-3.4420937007874013
0
LINE
8
BLACK
6
CONTINUOUS
10
5.9161501181102363
20
-3.4420937007874013
11
5.9167261811023621
21
-3.4421504330708661
0
LINE
8
BLACK
6
CONTINUOUS
10
5.9059795275590554
20
-3.4643400393700787
11
5.9059795275590554
21
-3.4649718503937006
0
LINE
8
BLACK
6
CONTINUOUS
10
5.9059795275590554
20
-3.4649718503937006
11
5.9071023622047241
21
-3.467217559055118
0
LINE
8
BLACK
6
CONTINUOUS
10
5.9071023622047241
20
-3.467217559055118
11
5.9093481102362206
21
-3.4683404330708663
0
LINE
8
BLACK
6
CONTINUOUS
10
5.9093481102362206
20
-3.4683404330708663
11
5.9154530708661417
21
-3.4683404330708663
0
LINE
8
BLACK
6
CONTINUOUS
10
5.9154530708661417
20
-3.4683404330708663
11
5.9176987795275586
21
-3.467217559055118
0
LINE
8
BLACK
6
CONTINUOUS
10
5.9176987795275586
20
-3.467217559055118
11
5.9188216535433069
21
-3.4649718503937006
0
LINE
8
BLACK
6
CONTINUOUS
10
5.9188216535433069
20
-3.4649718503937006
11
5.9188216535433069
21
-3.4617716141732284
0
LINE
8
BLACK
6
CONTINUOUS
10
5.9188216535433069
20
-3.4617716141732284
11
5.9059795275590554
21
-3.4643400393700787
0
LINE
8
BLACK
6
CONTINUOUS
10
5.9627850000000002
20
-3.4425913385826772
11
5.9635996456692908
21
-3.4434059842519686
0
LINE
8
BLACK
6
CONTINUOUS
10
5.9635996456692908
20
-3.4434059842519686
11
5.9640405511811023
21
-3.4444703937007874
0
LINE
8
BLACK
6
CONTINUOUS
10
5.9640405511811023
20
-3.4444703937007874
11
5.9640972834645671
21
-3.4450464566929133
0
LINE
8
BLACK
6
CONTINUOUS
10
5.9640972834645671
20
-3.4450464566929133
11
5.9640972834645671
21
-3.4649718503937006
0
LINE
8
BLACK
6
CONTINUOUS
10
5.9640972834645671
20
-3.4649718503937006
11
5.9652201181102358
21
-3.467217559055118
0
LINE
8
BLACK
6
CONTINUOUS
10
5.9652201181102358
20
-3.467217559055118
11
5.9674658661417324
21
-3.4683404330708663
0
LINE
8
BLACK
6
CONTINUOUS
10
5.9674658661417324
20
-3.4683404330708663
11
5.9716960629921259
21
-3.4683404330708663
0
LINE
8
BLACK
6
CONTINUOUS
10
5.9716960629921259
20
-3.4683404330708663
11
5.9743935433070865
21
-3.4669916929133859
0
LINE
8
BLACK
6
CONTINUOUS
10
5.9743935433070865
20
-3.4669916929133859
11
5.9750646456692911
21
-3.4663205905511809
0
LINE
8
BLACK
6
CONTINUOUS
10
5.9750646456692911
20
-3.4663205905511809
11
5.9750646456692911
21
-3.4450464566929133
0
LINE
8
BLACK
6
CONTINUOUS
10
5.9750646456692911
20
-3.4450464566929133
11
5.9751213779527559
21
-3.4444703937007874
0
LINE
8
BLACK
6
CONTINUOUS
10
5.9751213779527559
20
-3.4444703937007874
11
5.9755622834645665
21
-3.4434059842519686
0
LINE
8
BLACK
6
CONTINUOUS
10
5.9755622834645665
20
-3.4434059842519686
11
5.976376929133858
21
-3.4425913385826772
0
LINE
8
BLACK
6
CONTINUOUS
10
5.976376929133858
20
-3.4425913385826772
11
5.9774413385826772
21
-3.4421504330708661
0
LINE
8
BLACK
6
CONTINUOUS
10
5.9774413385826772
20
-3.4421504330708661
11
5.978593464566929
21
-3.4421504330708661
0
LINE
8
BLACK
6
CONTINUOUS
10
5.978593464566929
20
-3.4421504330708661
11
5.9796578740157482
21
-3.4425913385826772
0
LINE
8
BLACK
6
CONTINUOUS
10
5.9796578740157482
20
-3.4425913385826772
11
5.9804725196850388
21
-3.4434059842519686
0
LINE
8
BLACK
6
CONTINUOUS
10
5.9804725196850388
20
-3.4434059842519686
11
5.9809134251968503
21
-3.4444703937007874
0
LINE
8
BLACK
6
CONTINUOUS
10
5.9809134251968503
20
-3.4444703937007874
11
5.9809701574803151
21
-3.4450464566929133
0
LINE
8
BLACK
6
CONTINUOUS
10
5.9809701574803151
20
-3.4450464566929133
11
5.9809701574803151
21
-3.4712931889763778
0
LINE
8
BLACK
6
CONTINUOUS
10
5.9809701574803151
20
-3.4712931889763778
11
5.9809134251968503
21
-3.4718692519685037
0
LINE
8
BLACK
6
CONTINUOUS
10
5.9809134251968503
20
-3.4718692519685037
11
5.9804725196850388
21
-3.472933661417323
0
LINE
8
BLACK
6
CONTINUOUS
10
5.9804725196850388
20
-3.472933661417323
11
5.9796578740157482
21
-3.473748307086614
0
LINE
8
BLACK
6
CONTINUOUS
10
5.9796578740157482
20
-3.473748307086614
11
5.978593464566929
21
-3.4741892125984251
0
LINE
8
BLACK
6
CONTINUOUS
10
5.978593464566929
20
-3.4741892125984251
11
5.9774413385826772
21
-3.4741892125984251
0
LINE
8
BLACK
6
CONTINUOUS
10
5.9774413385826772
20
-3.4741892125984251
11
5.976376929133858
21
-3.473748307086614
0
LINE
8
BLACK
6
CONTINUOUS
10
5.976376929133858
20
-3.473748307086614
11
5.9756130708661415
21
-3.4729844488188975
0
LINE
8
BLACK
6
CONTINUOUS
10
5.9756130708661415
20
-3.4729844488188975
11
5.973713622047244
21
-3.4739342125984249
0
LINE
8
BLACK
6
CONTINUOUS
10
5.973713622047244
20
-3.4739342125984249
11
5.973172992125984
21
-3.4741411023622049
0
LINE
8
BLACK
6
CONTINUOUS
10
5.973172992125984
20
-3.4741411023622049
11
5.9730671653543306
21
-3.4741485826771652
0
LINE
8
BLACK
6
CONTINUOUS
10
5.9730671653543306
20
-3.4741485826771652
11
5.9729691732283463
21
-3.4741892125984251
0
LINE
8
BLACK
6
CONTINUOUS
10
5.9729691732283463
20
-3.4741892125984251
11
5.9723931102362204
21
-3.4742459448818899
0
LINE
8
BLACK
6
CONTINUOUS
10
5.9723931102362204
20
-3.4742459448818899
11
5.9667688188976378
21
-3.4742459448818899
0
LINE
8
BLACK
6
CONTINUOUS
10
5.9667688188976378
20
-3.4742459448818899
11
5.9661927559055119
21
-3.4741892125984251
0
LINE
8
BLACK
6
CONTINUOUS
10
5.9661927559055119
20
-3.4741892125984251
11
5.9660947637795276
21
-3.474148622047244
0
LINE
8
BLACK
6
CONTINUOUS
10
5.9660947637795276
20
-3.474148622047244
11
5.9659888976377955
21
-3.4741411023622049
0
LINE
8
BLACK
6
CONTINUOUS
10
5.9659888976377955
20
-3.4741411023622049
11
5.9654483070866142
21
-3.4739342125984249
0
LINE
8
BLACK
6
CONTINUOUS
10
5.9654483070866142
20
-3.4739342125984249
11
5.9616987795275591
21
-3.4720594488188974
0
LINE
8
BLACK
6
CONTINUOUS
10
5.9616987795275591
20
-3.4720594488188974
11
5.9616024015748028
21
-3.4719987795275591
0
LINE
8
BLACK
6
CONTINUOUS
10
5.9616024015748028
20
-3.4719987795275591
11
5.9615570078740152
21
-3.471983661417323
0
LINE
8
BLACK
6
CONTINUOUS
10
5.9615570078740152
20
-3.471983661417323
11
5.9615004330708663
21
-3.4719346062992127
0
LINE
8
BLACK
6
CONTINUOUS
10
5.9615004330708663
20
-3.4719346062992127
11
5.9612088976377953
21
-3.4717511023622047
0
LINE
8
BLACK
6
CONTINUOUS
10
5.9612088976377953
20
-3.4717511023622047
11
5.9609662992125987
21
-3.471471377952756
0
LINE
8
BLACK
6
CONTINUOUS
10
5.9609662992125987
20
-3.471471377952756
11
5.9606866141732286
21
-3.4712288188976377
0
LINE
8
BLACK
6
CONTINUOUS
10
5.9606866141732286
20
-3.4712288188976377
11
5.9605030708661415
21
-3.4709372440944879
0
LINE
8
BLACK
6
CONTINUOUS
10
5.9605030708661415
20
-3.4709372440944879
11
5.9604540551181104
21
-3.4708807086614173
0
LINE
8
BLACK
6
CONTINUOUS
10
5.9604540551181104
20
-3.4708807086614173
11
5.9604388976377951
21
-3.4708352755905509
0
LINE
8
BLACK
6
CONTINUOUS
10
5.9604388976377951
20
-3.4708352755905509
11
5.9603782677165356
21
-3.4707389370078738
0
LINE
8
BLACK
6
CONTINUOUS
10
5.9603782677165356
20
-3.4707389370078738
11
5.958503503937008
21
-3.4669894094488187
0
LINE
8
BLACK
6
CONTINUOUS
10
5.958503503937008
20
-3.4669894094488187
11
5.9582966141732285
21
-3.4664487795275591
0
LINE
8
BLACK
6
CONTINUOUS
10
5.9582966141732285
20
-3.4664487795275591
11
5.9582890944881886
21
-3.4663429527559053
0
LINE
8
BLACK
6
CONTINUOUS
10
5.9582890944881886
20
-3.4663429527559053
11
5.9582485039370079
21
-3.466244960629921
0
LINE
8
BLACK
6
CONTINUOUS
10
5.9582485039370079
20
-3.466244960629921
11
5.9581917716535431
21
-3.4656688976377952
0
LINE
8
BLACK
6
CONTINUOUS
10
5.9581917716535431
20
-3.4656688976377952
11
5.9581917716535431
21
-3.4450464566929133
0
LINE
8
BLACK
6
CONTINUOUS
10
5.9581917716535431
20
-3.4450464566929133
11
5.9582485039370079
21
-3.4444703937007874
0
LINE
8
BLACK
6
CONTINUOUS
10
5.9582485039370079
20
-3.4444703937007874
11
5.9586894094488185
21
-3.4434059842519686
0
LINE
8
BLACK
6
CONTINUOUS
10
5.9586894094488185
20
-3.4434059842519686
11
5.95950405511811
21
-3.4425913385826772
0
LINE
8
BLACK
6
CONTINUOUS
10
5.95950405511811
20
-3.4425913385826772
11
5.9605684645669292
21
-3.4421504330708661
0
LINE
8
BLACK
6
CONTINUOUS
10
5.9605684645669292
20
-3.4421504330708661
11
5.961720590551181
21
-3.4421504330708661
0
LINE
8
BLACK
6
CONTINUOUS
10
5.961720590551181
20
-3.4421504330708661
11
5.9627850000000002
21
-3.4425913385826772
0
LINE
8
BLACK
6
CONTINUOUS
10
6.5056548818897637
20
-3.1721577165354331
11
6.5067202362204721
21
-3.1732230708661415
0
LINE
8
BLACK
6
CONTINUOUS
10
6.5067202362204721
20
-3.1732230708661415
11
6.5068700787401577
21
-3.1739763779527559
0
LINE
8
BLACK
6
CONTINUOUS
10
6.5068700787401577
20
-3.1739763779527559
11
6.5068700787401577
21
-4.5519291338582679
0
LINE
8
BLACK
6
CONTINUOUS
10
6.5068700787401577
20
-4.5519291338582679
11
6.5067202362204721
21
-4.5526824409448814
0
LINE
8
BLACK
6
CONTINUOUS
10
6.5067202362204721
20
-4.5526824409448814
11
6.5056548818897637
21
-4.5537477952755907
0
LINE
8
BLACK
6
CONTINUOUS
10
6.5056548818897637
20
-4.5537477952755907
11
6.5049015748031493
21
-4.5538976377952753
0
LINE
8
BLACK
6
CONTINUOUS
10
6.5049015748031493
20
-4.5538976377952753
11
5.1269488188976373
21
-4.5538976377952753
0
LINE
8
BLACK
6
CONTINUOUS
10
5.1269488188976373
20
-4.5538976377952753
11
5.1261955118110238
21
-4.5537477952755907
0
LINE
8
BLACK
6
CONTINUOUS
10
5.1261955118110238
20
-4.5537477952755907
11
5.1251301574803145
21
-4.5526824409448814
0
LINE
8
BLACK
6
CONTINUOUS
10
5.1251301574803145
20
-4.5526824409448814
11
5.1249803149606299
21
-4.5519291338582679
0
LINE
8
BLACK
6
CONTINUOUS
10
5.1249803149606299
20
-4.5519291338582679
11
5.1249803149606299
21
-3.1739763779527559
0
LINE
8
BLACK
6
CONTINUOUS
10
5.1249803149606299
20
-3.1739763779527559
11
5.1251301574803145
21
-3.1732230708661415
0
LINE
8
BLACK
6
CONTINUOUS
10
5.1251301574803145
20
-3.1732230708661415
11
5.1261955118110238
21
-3.1721577165354331
0
LINE
8
BLACK
6
CONTINUOUS
10
5.1261955118110238
20
-3.1721577165354331
11
5.1269488188976373
21
-3.172007874015748
0
LINE
8
BLACK
6
CONTINUOUS
10
5.1269488188976373
20
-3.172007874015748
11
6.5049015748031493
21
-3.172007874015748
0
LINE
8
BLACK
6
CONTINUOUS
10
6.5049015748031493
20
-3.172007874015748
11
6.5056548818897637
21
-3.1721577165354331
0
LINE
8
BLACK
6
CONTINUOUS
10
5.1289173228346456
20
-3.1759448818897638
11
5.1289173228346456
21
-4.5499606299212596
0
LINE
8
BLACK
6
CONTINUOUS
10
5.1289173228346456
20
-4.5499606299212596
11
6.5029330708661419
21
-4.5499606299212596
0
LINE
8
BLACK
6
CONTINUOUS
10
6.5029330708661419
20
-4.5499606299212596
11
6.5029330708661419
21
-3.1759448818897638
0
LINE
8
BLACK
6
CONTINUOUS
10
6.5029330708661419
20
-3.1759448818897638
11
5.1289173228346456
21
-3.1759448818897638
0
LINE
8
BLACK
6
CONTINUOUS
10
6.5474906692913386
20
-3.7480023228346457
11
6.5483053149606301
21
-3.7488169685039368
0
LINE
8
BLACK
6
CONTINUOUS
10
6.5483053149606301
20
-3.7488169685039368
11
6.5487462204724407
21
-3.749881377952756
0
LINE
8
BLACK
6
CONTINUOUS
10
6.5487462204724407
20
-3.749881377952756
11
6.5488029527559055
21
-3.7504574409448819
0
LINE
8
BLACK
6
CONTINUOUS
10
6.5488029527559055
20
-3.7504574409448819
11
6.5488029527559055
21
-3.7658260236220471
0
LINE
8
BLACK
6
CONTINUOUS
10
6.5488029527559055
20
-3.7658260236220471
11
6.5662594488188972
21
-3.7483695275590549
0
LINE
8
BLACK
6
CONTINUOUS
10
6.5662594488188972
20
-3.7483695275590549
11
6.566706889763779
21
-3.7480023228346457
0
LINE
8
BLACK
6
CONTINUOUS
10
6.566706889763779
20
-3.7480023228346457
11
6.5677712992125983
21
-3.7475614173228347
0
LINE
8
BLACK
6
CONTINUOUS
10
6.5677712992125983
20
-3.7475614173228347
11
6.5689233858267713
21
-3.7475614173228347
0
LINE
8
BLACK
6
CONTINUOUS
10
6.5689233858267713
20
-3.7475614173228347
11
6.5699878346456693
21
-3.7480023228346457
0
LINE
8
BLACK
6
CONTINUOUS
10
6.5699878346456693
20
-3.7480023228346457
11
6.5708024803149607
21
-3.7488169685039368
0
LINE
8
BLACK
6
CONTINUOUS
10
6.5708024803149607
20
-3.7488169685039368
11
6.5712433858267714
21
-3.7498814173228348
0
LINE
8
BLACK
6
CONTINUOUS
10
6.5712433858267714
20
-3.7498814173228348
11
6.5712433858267714
21
-3.7510335039370077
0
LINE
8
BLACK
6
CONTINUOUS
10
6.5712433858267714
20
-3.7510335039370077
11
6.5708024803149607
21
-3.7520979133858265
0
LINE
8
BLACK
6
CONTINUOUS
10
6.5708024803149607
20
-3.7520979133858265
11
6.5704352755905511
21
-3.7525453543307088
0
LINE
8
BLACK
6
CONTINUOUS
10
6.5704352755905511
20
-3.7525453543307088
11
6.5553732283464567
21
-3.7676073622047244
0
LINE
8
BLACK
6
CONTINUOUS
10
6.5553732283464567
20
-3.7676073622047244
11
6.5707095669291338
21
-3.7880558661417321
0
LINE
8
BLACK
6
CONTINUOUS
10
6.5707095669291338
20
-3.7880558661417321
11
6.5710098425196852
21
-3.7885507480314962
0
LINE
8
BLACK
6
CONTINUOUS
10
6.5710098425196852
20
-3.7885507480314962
11
6.5712957480314955
21
-3.7896668503937008
0
LINE
8
BLACK
6
CONTINUOUS
10
6.5712957480314955
20
-3.7896668503937008
11
6.5711327952755907
21
-3.7908073228346457
0
LINE
8
BLACK
6
CONTINUOUS
10
6.5711327952755907
20
-3.7908073228346457
11
6.570545826771653
21
-3.7917987007874014
0
LINE
8
BLACK
6
CONTINUOUS
10
6.570545826771653
20
-3.7917987007874014
11
6.5696241338582677
21
-3.7924899999999999
0
LINE
8
BLACK
6
CONTINUOUS
10
6.5696241338582677
20
-3.7924899999999999
11
6.5685080708661419
21
-3.7927759055118111
0
LINE
8
BLACK
6
CONTINUOUS
10
6.5685080708661419
20
-3.7927759055118111
11
6.5673675590551177
21
-3.7926129921259841
0
LINE
8
BLACK
6
CONTINUOUS
10
6.5673675590551177
20
-3.7926129921259841
11
6.5663761811023624
21
-3.7920259842519686
0
LINE
8
BLACK
6
CONTINUOUS
10
6.5663761811023624
20
-3.7920259842519686
11
6.5659851574803145
21
-3.7915991732283465
0
LINE
8
BLACK
6
CONTINUOUS
10
6.5659851574803145
20
-3.7915991732283465
11
6.5511549999999996
21
-3.7718255905511811
0
LINE
8
BLACK
6
CONTINUOUS
10
6.5511549999999996
20
-3.7718255905511811
11
6.5488029527559055
21
-3.7741776771653543
0
LINE
8
BLACK
6
CONTINUOUS
10
6.5488029527559055
20
-3.7741776771653543
11
6.5488029527559055
21
-3.7898275196850393
0
LINE
8
BLACK
6
CONTINUOUS
10
6.5488029527559055
20
-3.7898275196850393
11
6.5487462204724407
21
-3.7904035826771652
0
LINE
8
BLACK
6
CONTINUOUS
10
6.5487462204724407
20
-3.7904035826771652
11
6.5483053149606301
21
-3.791467992125984
0
LINE
8
BLACK
6
CONTINUOUS
10
6.5483053149606301
20
-3.791467992125984
11
6.5474906692913386
21
-3.7922826377952754
0
LINE
8
BLACK
6
CONTINUOUS
10
6.5474906692913386
20
-3.7922826377952754
11
6.5464262598425194
21
-3.7927235433070865
0
LINE
8
BLACK
6
CONTINUOUS
10
6.5464262598425194
20
-3.7927235433070865
11
6.5452741338582676
21
-3.7927235433070865
0
LINE
8
BLACK
6
CONTINUOUS
10
6.5452741338582676
20
-3.7927235433070865
11
6.5442097244094484
21
-3.7922826377952754
0
LINE
8
BLACK
6
CONTINUOUS
10
6.5442097244094484
20
-3.7922826377952754
11
6.5433950787401569
21
-3.791467992125984
0
LINE
8
BLACK
6
CONTINUOUS
10
6.5433950787401569
20
-3.791467992125984
11
6.5429541732283463
21
-3.7904035826771652
0
LINE
8
BLACK
6
CONTINUOUS
10
6.5429541732283463
20
-3.7904035826771652
11
6.5428974409448815
21
-3.7898275196850393
0
LINE
8
BLACK
6
CONTINUOUS
10
6.5428974409448815
20
-3.7898275196850393
11
6.5428974409448815
21
-3.7504574409448819
0
LINE
8
BLACK
6
CONTINUOUS
10
6.5428974409448815
20
-3.7504574409448819
11
6.5429541732283463
21
-3.749881377952756
0
LINE
8
BLACK
6
CONTINUOUS
10
6.5429541732283463
20
-3.749881377952756
11
6.5433950787401569
21
-3.7488169685039368
0
LINE
8
BLACK
6
CONTINUOUS
10
6.5433950787401569
20
-3.7488169685039368
11
6.5442097244094484
21
-3.7480023228346457
0
LINE
8
BLACK
6
CONTINUOUS
10
6.5442097244094484
20
-3.7480023228346457
11
6.5452741338582676
21
-3.7475614173228347
0
LINE
8
BLACK
6
CONTINUOUS
10
6.5452741338582676
20
-3.7475614173228347
11
6.5464262598425194
21
-3.7475614173228347
0
LINE
8
BLACK
6
CONTINUOUS
10
6.5464262598425194
20
-3.7475614173228347
11
6.5474906692913386
21
-3.7480023228346457
0
LINE
8
BLACK
6
CONTINUOUS
10
5.037435551181102
20
-3.7172295275590552
11
5.0384269291338581
21
-3.717816496062992
0
LINE
8
BLACK
6
CONTINUOUS
10
5.0384269291338581
20
-3.717816496062992
11
5.0388179527559052
21
-3.7182433070866141
0
LINE
8
BLACK
6
CONTINUOUS
10
5.0388179527559052
20
-3.7182433070866141
11
5.0536480708661413
21
-3.7380168503937008
0
LINE
8
BLACK
6
CONTINUOUS
10
5.0536480708661413
20
-3.7380168503937008
11
5.0560001574803151
21
-3.7356648031496063
0
LINE
8
BLACK
6
CONTINUOUS
10
5.0560001574803151
20
-3.7356648031496063
11
5.0560001574803151
21
-3.7200149606299213
0
LINE
8
BLACK
6
CONTINUOUS
10
5.0560001574803151
20
-3.7200149606299213
11
5.056056889763779
21
-3.719438897637795
0
LINE
8
BLACK
6
CONTINUOUS
10
5.056056889763779
20
-3.719438897637795
11
5.0564977952755905
21
-3.7183744881889762
0
LINE
8
BLACK
6
CONTINUOUS
10
5.0564977952755905
20
-3.7183744881889762
11
5.057312440944882
21
-3.7175598425196847
0
LINE
8
BLACK
6
CONTINUOUS
10
5.057312440944882
20
-3.7175598425196847
11
5.0583768503937003
21
-3.7171189370078741
0
LINE
8
BLACK
6
CONTINUOUS
10
5.0583768503937003
20
-3.7171189370078741
11
5.059528976377953
21
-3.7171189370078741
0
LINE
8
BLACK
6
CONTINUOUS
10
5.059528976377953
20
-3.7171189370078741
11
5.0605933858267713
21
-3.7175598425196847
0
LINE
8
BLACK
6
CONTINUOUS
10
5.0605933858267713
20
-3.7175598425196847
11
5.0614080314960628
21
-3.7183744881889762
0
LINE
8
BLACK
6
CONTINUOUS
10
5.0614080314960628
20
-3.7183744881889762
11
5.0618489370078743
21
-3.719438897637795
0
LINE
8
BLACK
6
CONTINUOUS
10
5.0618489370078743
20
-3.719438897637795
11
5.0619056692913382
21
-3.7200149606299213
0
LINE
8
BLACK
6
CONTINUOUS
10
5.0619056692913382
20
-3.7200149606299213
11
5.0619056692913382
21
-3.7593850393700787
0
LINE
8
BLACK
6
CONTINUOUS
10
5.0619056692913382
20
-3.7593850393700787
11
5.0618489370078743
21
-3.7599611023622046
0
LINE
8
BLACK
6
CONTINUOUS
10
5.0618489370078743
20
-3.7599611023622046
11
5.0614080314960628
21
-3.7610255118110234
0
LINE
8
BLACK
6
CONTINUOUS
10
5.0614080314960628
20
-3.7610255118110234
11
5.0605933858267713
21
-3.7618401574803149
0
LINE
8
BLACK
6
CONTINUOUS
10
5.0605933858267713
20
-3.7618401574803149
11
5.059528976377953
21
-3.7622810629921259
0
LINE
8
BLACK
6
CONTINUOUS
10
5.059528976377953
20
-3.7622810629921259
11
5.0583768503937003
21
-3.7622810629921259
0
LINE
8
BLACK
6
CONTINUOUS
10
5.0583768503937003
20
-3.7622810629921259
11
5.057312440944882
21
-3.7618401574803149
0
LINE
8
BLACK
6
CONTINUOUS
10
5.057312440944882
20
-3.7618401574803149
11
5.0564977952755905
21
-3.7610255118110234
0
LINE
8
BLACK
6
CONTINUOUS
10
5.0564977952755905
20
-3.7610255118110234
11
5.056056889763779
21
-3.7599611023622046
0
LINE
8
BLACK
6
CONTINUOUS
10
5.056056889763779
20
-3.7599611023622046
11
5.0560001574803151
21
-3.7593850393700787
0
LINE
8
BLACK
6
CONTINUOUS
10
5.0560001574803151
20
-3.7593850393700787
11
5.0560001574803151
21
-3.7440164566929135
0
LINE
8
BLACK
6
CONTINUOUS
10
5.0560001574803151
20
-3.7440164566929135
11
5.0385436614173225
21
-3.7614729527559052
0
LINE
8
BLACK
6
CONTINUOUS
10
5.0385436614173225
20
-3.7614729527559052
11
5.0380962204724407
21
-3.7618401574803149
0
LINE
8
BLACK
6
CONTINUOUS
10
5.0380962204724407
20
-3.7618401574803149
11
5.0370317716535435
21
-3.7622810629921259
0
LINE
8
BLACK
6
CONTINUOUS
10
5.0370317716535435
20
-3.7622810629921259
11
5.0358797244094484
21
-3.7622810629921259
0
LINE
8
BLACK
6
CONTINUOUS
10
5.0358797244094484
20
-3.7622810629921259
11
5.0348152755905513
21
-3.7618401574803149
0
LINE
8
BLACK
6
CONTINUOUS
10
5.0348152755905513
20
-3.7618401574803149
11
5.0340006299212599
21
-3.7610255118110234
0
LINE
8
BLACK
6
CONTINUOUS
10
5.0340006299212599
20
-3.7610255118110234
11
5.0335597244094483
21
-3.7599610629921258
0
LINE
8
BLACK
6
CONTINUOUS
10
5.0335597244094483
20
-3.7599610629921258
11
5.0335597244094483
21
-3.7588090157480316
0
LINE
8
BLACK
6
CONTINUOUS
10
5.0335597244094483
20
-3.7588090157480316
11
5.0340006299212599
21
-3.7577445669291336
0
LINE
8
BLACK
6
CONTINUOUS
10
5.0340006299212599
20
-3.7577445669291336
11
5.0343678346456695
21
-3.7572971259842518
0
LINE
8
BLACK
6
CONTINUOUS
10
5.0343678346456695
20
-3.7572971259842518
11
5.0494298425196851
21
-3.7422350787401575
0
LINE
8
BLACK
6
CONTINUOUS
10
5.0494298425196851
20
-3.7422350787401575
11
5.0340935433070868
21
-3.7217866141732281
0
LINE
8
BLACK
6
CONTINUOUS
10
5.0340935433070868
20
-3.7217866141732281
11
5.0337933070866141
21
-3.7212917322834644
0
LINE
8
BLACK
6
CONTINUOUS
10
5.0337933070866141
20
-3.7212917322834644
11
5.0335073622047242
21
-3.7201756692913386
0
LINE
8
BLACK
6
CONTINUOUS
10
5.0335073622047242
20
-3.7201756692913386
11
5.0336703149606299
21
-3.7190351574803149
0
LINE
8
BLACK
6
CONTINUOUS
10
5.0336703149606299
20
-3.7190351574803149
11
5.0342572834645667
21
-3.7180437795275592
0
LINE
8
BLACK
6
CONTINUOUS
10
5.0342572834645667
20
-3.7180437795275592
11
5.0351789763779529
21
-3.7173525196850394
0
LINE
8
BLACK
6
CONTINUOUS
10
5.0351789763779529
20
-3.7173525196850394
11
5.0362950393700787
21
-3.7170665748031495
0
LINE
8
BLACK
6
CONTINUOUS
10
5.0362950393700787
20
-3.7170665748031495
11
5.037435551181102
21
-3.7172295275590552
0
LINE
8
BLACK
6
CONTINUOUS
10
6.5474906692913386
20
-3.6130023228346455
11
6.5483053149606301
21
-3.613816968503937
0
LINE
8
BLACK
6
CONTINUOUS
10
6.5483053149606301
20
-3.613816968503937
11
6.5487462204724407
21
-3.6148813779527558
0
LINE
8
BLACK
6
CONTINUOUS
10
6.5487462204724407
20
-3.6148813779527558
11
6.5488029527559055
21
-3.6154574409448816
0
LINE
8
BLACK
6
CONTINUOUS
10
6.5488029527559055
20
-3.6154574409448816
11
6.5488029527559055
21
-3.6308260236220473
0
LINE
8
BLACK
6
CONTINUOUS
10
6.5488029527559055
20
-3.6308260236220473
11
6.5662594488188972
21
-3.6133695275590552
0
LINE
8
BLACK
6
CONTINUOUS
10
6.5662594488188972
20
-3.6133695275590552
11
6.566706889763779
21
-3.6130023228346455
0
LINE
8
BLACK
6
CONTINUOUS
10
6.566706889763779
20
-3.6130023228346455
11
6.5677712992125983
21
-3.6125614173228344
0
LINE
8
BLACK
6
CONTINUOUS
10
6.5677712992125983
20
-3.6125614173228344
11
6.5689233858267713
21
-3.6125614173228344
0
LINE
8
BLACK
6
CONTINUOUS
10
6.5689233858267713
20
-3.6125614173228344
11
6.5699878346456693
21
-3.6130023228346455
0
LINE
8
BLACK
6
CONTINUOUS
10
6.5699878346456693
20
-3.6130023228346455
11
6.5708024803149607
21
-3.613816968503937
0
LINE
8
BLACK
6
CONTINUOUS
10
6.5708024803149607
20
-3.613816968503937
11
6.5712433858267714
21
-3.6148814173228345
0
LINE
8
BLACK
6
CONTINUOUS
10
6.5712433858267714
20
-3.6148814173228345
11
6.5712433858267714
21
-3.616033503937008
0
LINE
8
BLACK
6
CONTINUOUS
10
6.5712433858267714
20
-3.616033503937008
11
6.5708024803149607
21
-3.6170979133858268
0
LINE
8
BLACK
6
CONTINUOUS
10
6.5708024803149607
20
-3.6170979133858268
11
6.5704352755905511
21
-3.6175453543307086
0
LINE
8
BLACK
6
CONTINUOUS
10
6.5704352755905511
20
-3.6175453543307086
11
6.5553732283464567
21
-3.6326073622047241
0
LINE
8
BLACK
6
CONTINUOUS
10
6.5553732283464567
20
-3.6326073622047241
11
6.5707095669291338
21
-3.6530558661417323
0
LINE
8
BLACK
6
CONTINUOUS
10
6.5707095669291338
20
-3.6530558661417323
11
6.5710098425196852
21
-3.6535507480314959
0
LINE
8
BLACK
6
CONTINUOUS
10
6.5710098425196852
20
-3.6535507480314959
11
6.5712957480314955
21
-3.6546668503937005
0
LINE
8
BLACK
6
CONTINUOUS
10
6.5712957480314955
20
-3.6546668503937005
11
6.5711327952755907
21
-3.6558073228346455
0
LINE
8
BLACK
6
CONTINUOUS
10
6.5711327952755907
20
-3.6558073228346455
11
6.570545826771653
21
-3.6567987007874017
0
LINE
8
BLACK
6
CONTINUOUS
10
6.570545826771653
20
-3.6567987007874017
11
6.5696241338582677
21
-3.6574900000000001
0
LINE
8
BLACK
6
CONTINUOUS
10
6.5696241338582677
20
-3.6574900000000001
11
6.5685080708661419
21
-3.6577759055118109
0
LINE
8
BLACK
6
CONTINUOUS
10
6.5685080708661419
20
-3.6577759055118109
11
6.5673675590551177
21
-3.6576129921259843
0
LINE
8
BLACK
6
CONTINUOUS
10
6.5673675590551177
20
-3.6576129921259843
11
6.5663761811023624
21
-3.6570259842519683
0
LINE
8
BLACK
6
CONTINUOUS
10
6.5663761811023624
20
-3.6570259842519683
11
6.5659851574803145
21
-3.6565991732283463
0
LINE
8
BLACK
6
CONTINUOUS
10
6.5659851574803145
20
-3.6565991732283463
11
6.5511549999999996
21
-3.6368255905511808
0
LINE
8
BLACK
6
CONTINUOUS
10
6.5511549999999996
20
-3.6368255905511808
11
6.5488029527559055
21
-3.6391776771653541
0
LINE
8
BLACK
6
CONTINUOUS
10
6.5488029527559055
20
-3.6391776771653541
11
6.5488029527559055
21
-3.6548275196850395
0
LINE
8
BLACK
6
CONTINUOUS
10
6.5488029527559055
20
-3.6548275196850395
11
6.5487462204724407
21
-3.6554035826771654
0
LINE
8
BLACK
6
CONTINUOUS
10
6.5487462204724407
20
-3.6554035826771654
11
6.5483053149606301
21
-3.6564679921259842
0
LINE
8
BLACK
6
CONTINUOUS
10
6.5483053149606301
20
-3.6564679921259842
11
6.5474906692913386
21
-3.6572826377952756
0
LINE
8
BLACK
6
CONTINUOUS
10
6.5474906692913386
20
-3.6572826377952756
11
6.5464262598425194
21
-3.6577235433070867
0
LINE
8
BLACK
6
CONTINUOUS
10
6.5464262598425194
20
-3.6577235433070867
11
6.5452741338582676
21
-3.6577235433070867
0
LINE
8
BLACK
6
CONTINUOUS
10
6.5452741338582676
20
-3.6577235433070867
11
6.5442097244094484
21
-3.6572826377952756
0
LINE
8
BLACK
6
CONTINUOUS
10
6.5442097244094484
20
-3.6572826377952756
11
6.5433950787401569
21
-3.6564679921259842
0
LINE
8
BLACK
6
CONTINUOUS
10
6.5433950787401569
20
-3.6564679921259842
11
6.5429541732283463
21
-3.6554035826771654
0
LINE
8
BLACK
6
CONTINUOUS
10
6.5429541732283463
20
-3.6554035826771654
11
6.5428974409448815
21
-3.6548275196850395
0
LINE
8
BLACK
6
CONTINUOUS
10
6.5428974409448815
20
-3.6548275196850395
11
6.5428974409448815
21
-3.6154574409448816
0
LINE
8
BLACK
6
CONTINUOUS
10
6.5428974409448815
20
-3.6154574409448816
11
6.5429541732283463
21
-3.6148813779527558
0
LINE
8
BLACK
6
CONTINUOUS
10
6.5429541732283463
20
-3.6148813779527558
11
6.5433950787401569
21
-3.613816968503937
0
LINE
8
BLACK
6
CONTINUOUS
10
6.5433950787401569
20
-3.613816968503937
11
6.5442097244094484
21
-3.6130023228346455
0
LINE
8
BLACK
6
CONTINUOUS
10
6.5442097244094484
20
-3.6130023228346455
11
6.5452741338582676
21
-3.6125614173228344
0
LINE
8
BLACK
6
CONTINUOUS
10
6.5452741338582676
20
-3.6125614173228344
11
6.5464262598425194
21
-3.6125614173228344
0
LINE
8
BLACK
6
CONTINUOUS
10
6.5464262598425194
20
-3.6125614173228344
11
6.5474906692913386
21
-3.6130023228346455
0
LINE
8
BLACK
6
CONTINUOUS
10
6.5474906692913386
20
-3.4780023228346457
11
6.5483053149606301
21
-3.4788169685039367
0
LINE
8
BLACK
6
CONTINUOUS
10
6.5483053149606301
20
-3.4788169685039367
11
6.5487462204724407
21
-3.479881377952756
0
LINE
8
BLACK
6
CONTINUOUS
10
6.5487462204724407
20
-3.479881377952756
11
6.5488029527559055
21
-3.4804574409448819
0
LINE
8
BLACK
6
CONTINUOUS
10
6.5488029527559055
20
-3.4804574409448819
11
6.5488029527559055
21
-3.4958260236220471
0
LINE
8
BLACK
6
CONTINUOUS
10
6.5488029527559055
20
-3.4958260236220471
11
6.5662594488188972
21
-3.4783695275590549
0
LINE
8
BLACK
6
CONTINUOUS
10
6.5662594488188972
20
-3.4783695275590549
11
6.566706889763779
21
-3.4780023228346457
0
LINE
8
BLACK
6
CONTINUOUS
10
6.566706889763779
20
-3.4780023228346457
11
6.5677712992125983
21
-3.4775614173228346
0
LINE
8
BLACK
6
CONTINUOUS
10
6.5677712992125983
20
-3.4775614173228346
11
6.5689233858267713
21
-3.4775614173228346
0
LINE
8
BLACK
6
CONTINUOUS
10
6.5689233858267713
20
-3.4775614173228346
11
6.5699878346456693
21
-3.4780023228346457
0
LINE
8
BLACK
6
CONTINUOUS
10
6.5699878346456693
20
-3.4780023228346457
11
6.5708024803149607
21
-3.4788169685039367
0
LINE
8
BLACK
6
CONTINUOUS
10
6.5708024803149607
20
-3.4788169685039367
11
6.5712433858267714
21
-3.4798814173228347
0
LINE
8
BLACK
6
CONTINUOUS
10
6.5712433858267714
20
-3.4798814173228347
11
6.5712433858267714
21
-3.4810335039370077
0
LINE
8
BLACK
6
CONTINUOUS
10
6.5712433858267714
20
-3.4810335039370077
11
6.5708024803149607
21
-3.4820979133858265
0
LINE
8
BLACK
6
CONTINUOUS
10
6.5708024803149607
20
-3.4820979133858265
11
6.5704352755905511
21
-3.4825453543307088
0
LINE
8
BLACK
6
CONTINUOUS
10
6.5704352755905511
20
-3.4825453543307088
11
6.5553732283464567
21
-3.4976073622047243
0
LINE
8
BLACK
6
CONTINUOUS
10
6.5553732283464567
20
-3.4976073622047243
11
6.5707095669291338
21
-3.518055866141732
0
LINE
8
BLACK
6
CONTINUOUS
10
6.5707095669291338
20
-3.518055866141732
11
6.5710098425196852
21
-3.5185507480314961
0
LINE
8
BLACK
6
CONTINUOUS
10
6.5710098425196852
20
-3.5185507480314961
11
6.5712957480314955
21
-3.5196668503937008
0
LINE
8
BLACK
6
CONTINUOUS
10
6.5712957480314955
20
-3.5196668503937008
11
6.5711327952755907
21
-3.5208073228346457
0
LINE
8
BLACK
6
CONTINUOUS
10
6.5711327952755907
20
-3.5208073228346457
11
6.570545826771653
21
-3.5217987007874014
0
LINE
8
BLACK
6
CONTINUOUS
10
6.570545826771653
20
-3.5217987007874014
11
6.5696241338582677
21
-3.5224899999999999
0
LINE
8
BLACK
6
CONTINUOUS
10
6.5696241338582677
20
-3.5224899999999999
11
6.5685080708661419
21
-3.5227759055118111
0
LINE
8
BLACK
6
CONTINUOUS
10
6.5685080708661419
20
-3.5227759055118111
11
6.5673675590551177
21
-3.5226129921259841
0
LINE
8
BLACK
6
CONTINUOUS
10
6.5673675590551177
20
-3.5226129921259841
11
6.5663761811023624
21
-3.5220259842519686
0
LINE
8
BLACK
6
CONTINUOUS
10
6.5663761811023624
20
-3.5220259842519686
11
6.5659851574803145
21
-3.5215991732283465
0
LINE
8
BLACK
6
CONTINUOUS
10
6.5659851574803145
20
-3.5215991732283465
11
6.5511549999999996
21
-3.501825590551181
0
LINE
8
BLACK
6
CONTINUOUS
10
6.5511549999999996
20
-3.501825590551181
11
6.5488029527559055
21
-3.5041776771653543
0
LINE
8
BLACK
6
CONTINUOUS
10
6.5488029527559055
20
-3.5041776771653543
11
6.5488029527559055
21
-3.5198275196850393
0
LINE
8
BLACK
6
CONTINUOUS
10
6.5488029527559055
20
-3.5198275196850393
11
6.5487462204724407
21
-3.5204035826771651
0
LINE
8
BLACK
6
CONTINUOUS
10
6.5487462204724407
20
-3.5204035826771651
11
6.5483053149606301
21
-3.5214679921259844
0
LINE
8
BLACK
6
CONTINUOUS
10
6.5483053149606301
20
-3.5214679921259844
11
6.5474906692913386
21
-3.5222826377952754
0
LINE
8
BLACK
6
CONTINUOUS
10
6.5474906692913386
20
-3.5222826377952754
11
6.5464262598425194
21
-3.5227235433070865
0
LINE
8
BLACK
6
CONTINUOUS
10
6.5464262598425194
20
-3.5227235433070865
11
6.5452741338582676
21
-3.5227235433070865
0
LINE
8
BLACK
6
CONTINUOUS
10
6.5452741338582676
20
-3.5227235433070865
11
6.5442097244094484
21
-3.5222826377952754
0
LINE
8
BLACK
6
CONTINUOUS
10
6.5442097244094484
20
-3.5222826377952754
11
6.5433950787401569
21
-3.5214679921259844
0
LINE
8
BLACK
6
CONTINUOUS
10
6.5433950787401569
20
-3.5214679921259844
11
6.5429541732283463
21
-3.5204035826771651
0
LINE
8
BLACK
6
CONTINUOUS
10
6.5429541732283463
20
-3.5204035826771651
11
6.5428974409448815
21
-3.5198275196850393
0
LINE
8
BLACK
6
CONTINUOUS
10
6.5428974409448815
20
-3.5198275196850393
11
6.5428974409448815
21
-3.4804574409448819
0
LINE
8
BLACK
6
CONTINUOUS
10
6.5428974409448815
20
-3.4804574409448819
11
6.5429541732283463
21
-3.479881377952756
0
LINE
8
BLACK
6
CONTINUOUS
10
6.5429541732283463
20
-3.479881377952756
11
6.5433950787401569
21
-3.4788169685039367
0
LINE
8
BLACK
6
CONTINUOUS
10
6.5433950787401569
20
-3.4788169685039367
11
6.5442097244094484
21
-3.4780023228346457
0
LINE
8
BLACK
6
CONTINUOUS
10
6.5442097244094484
20
-3.4780023228346457
11
6.5452741338582676
21
-3.4775614173228346
0
LINE
8
BLACK
6
CONTINUOUS
10
6.5452741338582676
20
-3.4775614173228346
11
6.5464262598425194
21
-3.4775614173228346
0
LINE
8
BLACK
6
CONTINUOUS
10
6.5464262598425194
20
-3.4775614173228346
11
6.5474906692913386
21
-3.4780023228346457
0
LINE
8
BLACK
6
CONTINUOUS
10
6.5474906692913386
20
-3.3411519291338583
11
6.5483053149606301
21
-3.3419665748031497
0
LINE
8
BLACK
6
CONTINUOUS
10
6.5483053149606301
20
-3.3419665748031497
11
6.5487462204724407
21
-3.3430309842519685
0
LINE
8
BLACK
6
CONTINUOUS
10
6.5487462204724407
20
-3.3430309842519685
11
6.5488029527559055
21
-3.3436070472440944
0
LINE
8
BLACK
6
CONTINUOUS
10
6.5488029527559055
20
-3.3436070472440944
11
6.5488029527559055
21
-3.3589756299212596
0
LINE
8
BLACK
6
CONTINUOUS
10
6.5488029527559055
20
-3.3589756299212596
11
6.5662594488188972
21
-3.3415191338582675
0
LINE
8
BLACK
6
CONTINUOUS
10
6.5662594488188972
20
-3.3415191338582675
11
6.566706889763779
21
-3.3411519291338583
0
LINE
8
BLACK
6
CONTINUOUS
10
6.566706889763779
20
-3.3411519291338583
11
6.5677712992125983
21
-3.3407110236220472
0
LINE
8
BLACK
6
CONTINUOUS
10
6.5677712992125983
20
-3.3407110236220472
11
6.5689233858267713
21
-3.3407110236220472
0
LINE
8
BLACK
6
CONTINUOUS
10
6.5689233858267713
20
-3.3407110236220472
11
6.5699878346456693
21
-3.3411519291338583
0
LINE
8
BLACK
6
CONTINUOUS
10
6.5699878346456693
20
-3.3411519291338583
11
6.5708024803149607
21
-3.3419665748031497
0
LINE
8
BLACK
6
CONTINUOUS
10
6.5708024803149607
20
-3.3419665748031497
11
6.5712433858267714
21
-3.3430310236220473
0
LINE
8
BLACK
6
CONTINUOUS
10
6.5712433858267714
20
-3.3430310236220473
11
6.5712433858267714
21
-3.3441831102362203
0
LINE
8
BLACK
6
CONTINUOUS
10
6.5712433858267714
20
-3.3441831102362203
11
6.5708024803149607
21
-3.3452475196850391
0
LINE
8
BLACK
6
CONTINUOUS
10
6.5708024803149607
20
-3.3452475196850391
11
6.5704352755905511
21
-3.3456949606299213
0
LINE
8
BLACK
6
CONTINUOUS
10
6.5704352755905511
20
-3.3456949606299213
11
6.5553732283464567
21
-3.3607569685039369
0
LINE
8
BLACK
6
CONTINUOUS
10
6.5553732283464567
20
-3.3607569685039369
11
6.5707095669291338
21
-3.3812054724409446
0
LINE
8
BLACK
6
CONTINUOUS
10
6.5707095669291338
20
-3.3812054724409446
11
6.5710098425196852
21
-3.3817003543307087
0
LINE
8
BLACK
6
CONTINUOUS
10
6.5710098425196852
20
-3.3817003543307087
11
6.5712957480314955
21
-3.3828164566929133
0
LINE
8
BLACK
6
CONTINUOUS
10
6.5712957480314955
20
-3.3828164566929133
11
6.5711327952755907
21
-3.3839569291338583
0
LINE
8
BLACK
6
CONTINUOUS
10
6.5711327952755907
20
-3.3839569291338583
11
6.570545826771653
21
-3.384948307086614
0
LINE
8
BLACK
6
CONTINUOUS
10
6.570545826771653
20
-3.384948307086614
11
6.5696241338582677
21
-3.3856396062992125
0
LINE
8
BLACK
6
CONTINUOUS
10
6.5696241338582677
20
-3.3856396062992125
11
6.5685080708661419
21
-3.3859255118110236
0
LINE
8
BLACK
6
CONTINUOUS
10
6.5685080708661419
20
-3.3859255118110236
11
6.5673675590551177
21
-3.3857625984251967
0
LINE
8
BLACK
6
CONTINUOUS
10
6.5673675590551177
20
-3.3857625984251967
11
6.5663761811023624
21
-3.3851755905511811
0
LINE
8
BLACK
6
CONTINUOUS
10
6.5663761811023624
20
-3.3851755905511811
11
6.5659851574803145
21
-3.384748779527559
0
LINE
8
BLACK
6
CONTINUOUS
10
6.5659851574803145
20
-3.384748779527559
11
6.5511549999999996
21
-3.3649751968503936
0
LINE
8
BLACK
6
CONTINUOUS
10
6.5511549999999996
20
-3.3649751968503936
11
6.5488029527559055
21
-3.3673272834645669
0
LINE
8
BLACK
6
CONTINUOUS
10
6.5488029527559055
20
-3.3673272834645669
11
6.5488029527559055
21
-3.3829771259842518
0
LINE
8
BLACK
6
CONTINUOUS
10
6.5488029527559055
20
-3.3829771259842518
11
6.5487462204724407
21
-3.3835531889763777
0
LINE
8
BLACK
6
CONTINUOUS
10
6.5487462204724407
20
-3.3835531889763777
11
6.5483053149606301
21
-3.3846175984251969
0
LINE
8
BLACK
6
CONTINUOUS
10
6.5483053149606301
20
-3.3846175984251969
11
6.5474906692913386
21
-3.385432244094488
0
LINE
8
BLACK
6
CONTINUOUS
10
6.5474906692913386
20
-3.385432244094488
11
6.5464262598425194
21
-3.385873149606299
0
LINE
8
BLACK
6
CONTINUOUS
10
6.5464262598425194
20
-3.385873149606299
11
6.5452741338582676
21
-3.385873149606299
0
LINE
8
BLACK
6
CONTINUOUS
10
6.5452741338582676
20
-3.385873149606299
11
6.5442097244094484
21
-3.385432244094488
0
LINE
8
BLACK
6
CONTINUOUS
10
6.5442097244094484
20
-3.385432244094488
11
6.5433950787401569
21
-3.3846175984251969
0
LINE
8
BLACK
6
CONTINUOUS
10
6.5433950787401569
20
-3.3846175984251969
11
6.5429541732283463
21
-3.3835531889763777
0
LINE
8
BLACK
6
CONTINUOUS
10
6.5429541732283463
20
-3.3835531889763777
11
6.5428974409448815
21
-3.3829771259842518
0
LINE
8
BLACK
6
CONTINUOUS
10
6.5428974409448815
20
-3.3829771259842518
11
6.5428974409448815
21
-3.3436070472440944
0
LINE
8
BLACK
6
CONTINUOUS
10
6.5428974409448815
20
-3.3436070472440944
11
6.5429541732283463
21
-3.3430309842519685
0
LINE
8
BLACK
6
CONTINUOUS
10
6.5429541732283463
20
-3.3430309842519685
11
6.5433950787401569
21
-3.3419665748031497
0
LINE
8
BLACK
6
CONTINUOUS
10
6.5433950787401569
20
-3.3419665748031497
11
6.5442097244094484
21
-3.3411519291338583
0
LINE
8
BLACK
6
CONTINUOUS
10
6.5442097244094484
20
-3.3411519291338583
11
6.5452741338582676
21
-3.3407110236220472
0
LINE
8
BLACK
6
CONTINUOUS
10
6.5452741338582676
20
-3.3407110236220472
11
6.5464262598425194
21
-3.3407110236220472
0
LINE
8
BLACK
6
CONTINUOUS
10
6.5464262598425194
20
-3.3407110236220472
11
6.5474906692913386
21
-3.3411519291338583
0
CIRCLE
8
BLACK
10
6.6030905511811024
20
-4.6531102362204724
40
0.0068897637795276
0
CIRCLE
8
BLACK
10
5.0267125984251964
20
-4.6531102362204724
40
0.0068897637795276
0
CIRCLE
8
BLACK
10
6.6030905511811024
20
-3.0767322834645667
40
0.0068897637795276
0
CIRCLE
8
BLACK
10
5.9812795275590549
20
-3.8629527559055119
40
0.0068897637795276
0
CIRCLE
8
BLACK
10
5.0267125984251964
20
-3.0767322834645667
40
0.0068897637795276
0
CIRCLE
8
BLACK
10
5.0597834645669293
20
-3.5787007874015746
40
0.0068897637795276
0
CIRCLE
8
BLACK
10
5.0597834645669293
20
-3.3511417322834647
40
0.0068897637795276
0
LINE
8
BLACK
6
CONTINUOUS
10
4.9321912598425195
20
-3.6232900393700787
11
4.9351694881889765
21
-3.6240880314960631
0
LINE
8
BLACK
6
CONTINUOUS
10
4.9351694881889765
20
-3.6240880314960631
11
4.9378396850393695
21
-3.6256296850393701
0
LINE
8
BLACK
6
CONTINUOUS
10
4.9378396850393695
20
-3.6256296850393701
11
4.9400199212598421
21
-3.6278099212598423
0
LINE
8
BLACK
6
CONTINUOUS
10
4.9400199212598421
20
-3.6278099212598423
11
4.9415615748031492
21
-3.6304801181102362
0
LINE
8
BLACK
6
CONTINUOUS
10
4.9415615748031492
20
-3.6304801181102362
11
4.9423595669291336
21
-3.6334583464566927
0
LINE
8
BLACK
6
CONTINUOUS
10
4.9423595669291336
20
-3.6334583464566927
11
4.9423595669291336
21
-3.6365416535433068
0
LINE
8
BLACK
6
CONTINUOUS
10
4.9423595669291336
20
-3.6365416535433068
11
4.9415615748031492
21
-3.6395198818897638
0
LINE
8
BLACK
6
CONTINUOUS
10
4.9415615748031492
20
-3.6395198818897638
11
4.9400199212598421
21
-3.6421900787401573
0
LINE
8
BLACK
6
CONTINUOUS
10
4.9400199212598421
20
-3.6421900787401573
11
4.9378396850393695
21
-3.6443703149606299
0
LINE
8
BLACK
6
CONTINUOUS
10
4.9378396850393695
20
-3.6443703149606299
11
4.9351694881889765
21
-3.645911968503937
0
LINE
8
BLACK
6
CONTINUOUS
10
4.9351694881889765
20
-3.645911968503937
11
4.9321912598425195
21
-3.6467099606299214
0
LINE
8
BLACK
6
CONTINUOUS
10
4.9321912598425195
20
-3.6467099606299214
11
4.9306496062992125
21
-3.646811023622047
0
LINE
8
BLACK
6
CONTINUOUS
10
4.9306496062992125
20
-3.646811023622047
11
4.8991535433070865
21
-3.646811023622047
0
LINE
8
BLACK
6
CONTINUOUS
10
4.8991535433070865
20
-3.646811023622047
11
4.8976118897637795
21
-3.6467099606299214
0
LINE
8
BLACK
6
CONTINUOUS
10
4.8976118897637795
20
-3.6467099606299214
11
4.8946336614173225
21
-3.645911968503937
0
LINE
8
BLACK
6
CONTINUOUS
10
4.8946336614173225
20
-3.645911968503937
11
4.8919634645669294
21
-3.6443703149606299
0
LINE
8
BLACK
6
CONTINUOUS
10
4.8919634645669294
20
-3.6443703149606299
11
4.8897832283464568
21
-3.6421900787401573
0
LINE
8
BLACK
6
CONTINUOUS
10
4.8897832283464568
20
-3.6421900787401573
11
4.8882415748031498
21
-3.6395198818897638
0
LINE
8
BLACK
6
CONTINUOUS
10
4.8882415748031498
20
-3.6395198818897638
11
4.8874435826771654
21
-3.6365416535433068
0
LINE
8
BLACK
6
CONTINUOUS
10
4.8874435826771654
20
-3.6365416535433068
11
4.8874435826771654
21
-3.6334583464566927
0
LINE
8
BLACK
6
CONTINUOUS
10
4.8874435826771654
20
-3.6334583464566927
11
4.8882415748031498
21
-3.6304801181102362
0
LINE
8
BLACK
6
CONTINUOUS
10
4.8882415748031498
20
-3.6304801181102362
11
4.8897832283464568
21
-3.6278099212598423
0
LINE
8
BLACK
6
CONTINUOUS
10
4.8897832283464568
20
-3.6278099212598423
11
4.8919634645669294
21
-3.6256296850393701
0
LINE
8
BLACK
6
CONTINUOUS
10
4.8919634645669294
20
-3.6256296850393701
11
4.8946336614173225
21
-3.6240880314960631
0
LINE
8
BLACK
6
CONTINUOUS
10
4.8946336614173225
20
-3.6240880314960631
11
4.8976118897637795
21
-3.6232900393700787
0
LINE
8
BLACK
6
CONTINUOUS
10
4.8976118897637795
20
-3.6232900393700787
11
4.8991535433070865
21
-3.6231889763779526
0
LINE
8
BLACK
6
CONTINUOUS
10
4.8991535433070865
20
-3.6231889763779526
11
4.9306496062992125
21
-3.6231889763779526
0
LINE
8
BLACK
6
CONTINUOUS
10
4.9306496062992125
20
-3.6231889763779526
11
4.9321912598425195
21
-3.6232900393700787
0
LINE
8
BLACK
6
CONTINUOUS
10
4.9321912598425195
20
-3.2831325590551179
11
4.9351694881889765
21
-3.2839305511811023
0
LINE
8
BLACK
6
CONTINUOUS
10
4.9351694881889765
20
-3.2839305511811023
11
4.9378396850393695
21
-3.2854722047244094
0
LINE
8
BLACK
6
CONTINUOUS
10
4.9378396850393695
20
-3.2854722047244094
11
4.9400199212598421
21
-3.287652440944882
0
LINE
8
BLACK
6
CONTINUOUS
10
4.9400199212598421
20
-3.287652440944882
11
4.9415615748031492
21
-3.2903226377952755
0
LINE
8
BLACK
6
CONTINUOUS
10
4.9415615748031492
20
-3.2903226377952755
11
4.9423595669291336
21
-3.293300866141732
0
LINE
8
BLACK
6
CONTINUOUS
10
4.9423595669291336
20
-3.293300866141732
11
4.9423595669291336
21
-3.2963841732283465
0
LINE
8
BLACK
6
CONTINUOUS
10
4.9423595669291336
20
-3.2963841732283465
11
4.9415615748031492
21
-3.2993624015748031
0
LINE
8
BLACK
6
CONTINUOUS
10
4.9415615748031492
20
-3.2993624015748031
11
4.9400199212598421
21
-3.3020325984251966
0
LINE
8
BLACK
6
CONTINUOUS
10
4.9400199212598421
20
-3.3020325984251966
11
4.9378396850393695
21
-3.3042128346456692
0
LINE
8
BLACK
6
CONTINUOUS
10
4.9378396850393695
20
-3.3042128346456692
11
4.9351694881889765
21
-3.3057544881889762
0
LINE
8
BLACK
6
CONTINUOUS
10
4.9351694881889765
20
-3.3057544881889762
11
4.9321912598425195
21
-3.3065524803149606
0
LINE
8
BLACK
6
CONTINUOUS
10
4.9321912598425195
20
-3.3065524803149606
11
4.9306496062992125
21
-3.3066535433070867
0
LINE
8
BLACK
6
CONTINUOUS
10
4.9306496062992125
20
-3.3066535433070867
11
4.8991535433070865
21
-3.3066535433070867
0
LINE
8
BLACK
6
CONTINUOUS
10
4.8991535433070865
20
-3.3066535433070867
11
4.8976118897637795
21
-3.3065524803149606
0
LINE
8
BLACK
6
CONTINUOUS
10
4.8976118897637795
20
-3.3065524803149606
11
4.8946336614173225
21
-3.3057544881889762
0
LINE
8
BLACK
6
CONTINUOUS
10
4.8946336614173225
20
-3.3057544881889762
11
4.8919634645669294
21
-3.3042128346456692
0
LINE
8
BLACK
6
CONTINUOUS
10
4.8919634645669294
20
-3.3042128346456692
11
4.8897832283464568
21
-3.3020325984251966
0
LINE
8
BLACK
6
CONTINUOUS
10
4.8897832283464568
20
-3.3020325984251966
11
4.8882415748031498
21
-3.2993624015748031
0
LINE
8
BLACK
6
CONTINUOUS
10
4.8882415748031498
20
-3.2993624015748031
11
4.8874435826771654
21
-3.2963841732283465
0
LINE
8
BLACK
6
CONTINUOUS
10
4.8874435826771654
20
-3.2963841732283465
11
4.8874435826771654
21
-3.293300866141732
0
LINE
8
BLACK
6
CONTINUOUS
10
4.8874435826771654
20
-3.293300866141732
11
4.8882415748031498
21
-3.2903226377952755
0
LINE
8
BLACK
6
CONTINUOUS
10
4.8882415748031498
20
-3.2903226377952755
11
4.8897832283464568
21
-3.287652440944882
0
LINE
8
BLACK
6
CONTINUOUS
10
4.8897832283464568
20
-3.287652440944882
11
4.8919634645669294
21
-3.2854722047244094
0
LINE
8
BLACK
6
CONTINUOUS
10
4.8919634645669294
20
-3.2854722047244094
11
4.8946336614173225
21
-3.2839305511811023
0
LINE
8
BLACK
6
CONTINUOUS
10
4.8946336614173225
20
-3.2839305511811023
11
4.8976118897637795
21
-3.2831325590551179
0
LINE
8
BLACK
6
CONTINUOUS
10
4.8976118897637795
20
-3.2831325590551179
11
4.8991535433070865
21
-3.2830314960629923
0
LINE
8
BLACK
6
CONTINUOUS
10
4.8991535433070865
20
-3.2830314960629923
11
4.9306496062992125
21
-3.2830314960629923
0
LINE
8
BLACK
6
CONTINUOUS
10
4.9306496062992125
20
-3.2830314960629923
11
4.9321912598425195
21
-3.2831325590551179
0
LINE
8
BLACK
6
CONTINUOUS
10
5.1026637007874012
20
-3.6232900393700787
11
5.1056419291338582
21
-3.6240880314960631
0
LINE
8
BLACK
6
CONTINUOUS
10
5.1056419291338582
20
-3.6240880314960631
11
5.1083121259842521
21
-3.6256296850393701
0
LINE
8
BLACK
6
CONTINUOUS
10
5.1083121259842521
20
-3.6256296850393701
11
5.1104923622047247
21
-3.6278099212598423
0
LINE
8
BLACK
6
CONTINUOUS
10
5.1104923622047247
20
-3.6278099212598423
11
5.1120340157480317
21
-3.6304801181102362
0
LINE
8
BLACK
6
CONTINUOUS
10
5.1120340157480317
20
-3.6304801181102362
11
5.1128320078740153
21
-3.6334583464566927
0
LINE
8
BLACK
6
CONTINUOUS
10
5.1128320078740153
20
-3.6334583464566927
11
5.1128320078740153
21
-3.6365416535433068
0
LINE
8
BLACK
6
CONTINUOUS
10
5.1128320078740153
20
-3.6365416535433068
11
5.1120340157480317
21
-3.6395198818897638
0
LINE
8
BLACK
6
CONTINUOUS
10
5.1120340157480317
20
-3.6395198818897638
11
5.1104923622047247
21
-3.6421900787401573
0
LINE
8
BLACK
6
CONTINUOUS
10
5.1104923622047247
20
-3.6421900787401573
11
5.1083121259842521
21
-3.6443703149606299
0
LINE
8
BLACK
6
CONTINUOUS
10
5.1083121259842521
20
-3.6443703149606299
11
5.1056419291338582
21
-3.645911968503937
0
LINE
8
BLACK
6
CONTINUOUS
10
5.1056419291338582
20
-3.645911968503937
11
5.1026637007874012
21
-3.6467099606299214
0
LINE
8
BLACK
6
CONTINUOUS
10
5.1026637007874012
20
-3.6467099606299214
11
5.1011220472440941
21
-3.646811023622047
0
LINE
8
BLACK
6
CONTINUOUS
10
5.1011220472440941
20
-3.646811023622047
11
5.057814960629921
21
-3.646811023622047
0
LINE
8
BLACK
6
CONTINUOUS
10
5.057814960629921
20
-3.646811023622047
11
5.0562733070866139
21
-3.6467099606299214
0
LINE
8
BLACK
6
CONTINUOUS
10
5.0562733070866139
20
-3.6467099606299214
11
5.0532950787401569
21
-3.645911968503937
0
LINE
8
BLACK
6
CONTINUOUS
10
5.0532950787401569
20
-3.645911968503937
11
5.0506248818897639
21
-3.6443703149606299
0
LINE
8
BLACK
6
CONTINUOUS
10
5.0506248818897639
20
-3.6443703149606299
11
5.0484446456692913
21
-3.6421900787401573
0
LINE
8
BLACK
6
CONTINUOUS
10
5.0484446456692913
20
-3.6421900787401573
11
5.0469029921259843
21
-3.6395198818897638
0
LINE
8
BLACK
6
CONTINUOUS
10
5.0469029921259843
20
-3.6395198818897638
11
5.0461049999999998
21
-3.6365416535433068
0
LINE
8
BLACK
6
CONTINUOUS
10
5.0461049999999998
20
-3.6365416535433068
11
5.0461049999999998
21
-3.6334583464566927
0
LINE
8
BLACK
6
CONTINUOUS
10
5.0461049999999998
20
-3.6334583464566927
11
5.0469029921259843
21
-3.6304801181102362
0
LINE
8
BLACK
6
CONTINUOUS
10
5.0469029921259843
20
-3.6304801181102362
11
5.0484446456692913
21
-3.6278099212598423
0
LINE
8
BLACK
6
CONTINUOUS
10
5.0484446456692913
20
-3.6278099212598423
11
5.0506248818897639
21
-3.6256296850393701
0
LINE
8
BLACK
6
CONTINUOUS
10
5.0506248818897639
20
-3.6256296850393701
11
5.0532950787401569
21
-3.6240880314960631
0
LINE
8
BLACK
6
CONTINUOUS
10
5.0532950787401569
20
-3.6240880314960631
11
5.0562733070866139
21
-3.6232900393700787
0
LINE
8
BLACK
6
CONTINUOUS
10
5.0562733070866139
20
-3.6232900393700787
11
5.057814960629921
21
-3.6231889763779526
0
LINE
8
BLACK
6
CONTINUOUS
10
5.057814960629921
20
-3.6231889763779526
11
5.1011220472440941
21
-3.6231889763779526
0
LINE
8
BLACK
6
CONTINUOUS
10
5.1011220472440941
20
-3.6231889763779526
11
5.1026637007874012
21
-3.6232900393700787
0
LINE
8
BLACK
6
CONTINUOUS
10
5.1026637007874012
20
-3.2831325590551179
11
5.1056419291338582
21
-3.2839305511811023
0
LINE
8
BLACK
6
CONTINUOUS
10
5.1056419291338582
20
-3.2839305511811023
11
5.1083121259842521
21
-3.2854722047244094
0
LINE
8
BLACK
6
CONTINUOUS
10
5.1083121259842521
20
-3.2854722047244094
11
5.1104923622047247
21
-3.287652440944882
0
LINE
8
BLACK
6
CONTINUOUS
10
5.1104923622047247
20
-3.287652440944882
11
5.1120340157480317
21
-3.2903226377952755
0
LINE
8
BLACK
6
CONTINUOUS
10
5.1120340157480317
20
-3.2903226377952755
11
5.1128320078740153
21
-3.293300866141732
0
LINE
8
BLACK
6
CONTINUOUS
10
5.1128320078740153
20
-3.293300866141732
11
5.1128320078740153
21
-3.2963841732283465
0
LINE
8
BLACK
6
CONTINUOUS
10
5.1128320078740153
20
-3.2963841732283465
11
5.1120340157480317
21
-3.2993624015748031
0
LINE
8
BLACK
6
CONTINUOUS
10
5.1120340157480317
20
-3.2993624015748031
11
5.1104923622047247
21
-3.3020325984251966
0
LINE
8
BLACK
6
CONTINUOUS
10
5.1104923622047247
20
-3.3020325984251966
11
5.1083121259842521
21
-3.3042128346456692
0
LINE
8
BLACK
6
CONTINUOUS
10
5.1083121259842521
20
-3.3042128346456692
11
5.1056419291338582
21
-3.3057544881889762
0
LINE
8
BLACK
6
CONTINUOUS
10
5.1056419291338582
20
-3.3057544881889762
11
5.1026637007874012
21
-3.3065524803149606
0
LINE
8
BLACK
6
CONTINUOUS
10
5.1026637007874012
20
-3.3065524803149606
11
5.1011220472440941
21
-3.3066535433070867
0
LINE
8
BLACK
6
CONTINUOUS
10
5.1011220472440941
20
-3.3066535433070867
11
5.057814960629921
21
-3.3066535433070867
0
LINE
8
BLACK
6
CONTINUOUS
10
5.057814960629921
20
-3.3066535433070867
11
5.0562733070866139
21
-3.3065524803149606
0
LINE
8
BLACK
6
CONTINUOUS
10
5.0562733070866139
20
-3.3065524803149606
11
5.0532950787401569
21
-3.3057544881889762
0
LINE
8
BLACK
6
CONTINUOUS
10
5.0532950787401569
20
-3.3057544881889762
11
5.0506248818897639
21
-3.3042128346456692
0
LINE
8
BLACK
6
CONTINUOUS
10
5.0506248818897639
20
-3.3042128346456692
11
5.0484446456692913
21
-3.3020325984251966
0
LINE
8
BLACK
6
CONTINUOUS
10
5.0484446456692913
20
-3.3020325984251966
11
5.0469029921259843
21
-3.2993624015748031
0
LINE
8
BLACK
6
CONTINUOUS
10
5.0469029921259843
20
-3.2993624015748031
11
5.0461049999999998
21
-3.2963841732283465
0
LINE
8
BLACK
6
CONTINUOUS
10
5.0461049999999998
20
-3.2963841732283465
11
5.0461049999999998
21
-3.293300866141732
0
LINE
8
BLACK
6
CONTINUOUS
10
5.0461049999999998
20
-3.293300866141732
11
5.0469029921259843
21
-3.2903226377952755
0
LINE
8
BLACK
6
CONTINUOUS
10
5.0469029921259843
20
-3.2903226377952755
11
5.0484446456692913
21
-3.287652440944882
0
LINE
8
BLACK
6
CONTINUOUS
10
5.0484446456692913
20
-3.287652440944882
11
5.0506248818897639
21
-3.2854722047244094
0
LINE
8
BLACK
6
CONTINUOUS
10
5.0506248818897639
20
-3.2854722047244094
11
5.0532950787401569
21
-3.2839305511811023
0
LINE
8
BLACK
6
CONTINUOUS
10
5.0532950787401569
20
-3.2839305511811023
11
5.0562733070866139
21
-3.2831325590551179
0
LINE
8
BLACK
6
CONTINUOUS
10
5.0562733070866139
20
-3.2831325590551179
11
5.057814960629921
21
-3.2830314960629923
0
LINE
8
BLACK
6
CONTINUOUS
10
5.057814960629921
20
-3.2830314960629923
11
5.1011220472440941
21
-3.2830314960629923
0
LINE
8
BLACK
6
CONTINUOUS
10
5.1011220472440941
20
-3.2830314960629923
11
5.1026637007874012
21
-3.2831325590551179
0
CIRCLE
8
BLACK
10
6.6030905511811024
20
-4.6531102362204724
40
0.0068897637795276
0
CIRCLE
8
BLACK
10
5.0267125984251964
20
-4.6531102362204724
40
0.0068897637795276
0
CIRCLE
8
BLACK
10
6.6030905511811024
20
-3.0767322834645667
40
0.0068897637795276
0
CIRCLE
8
BLACK
10
5.9812795275590549
20
-3.8629527559055119
40
0.0068897637795276
0
CIRCLE
8
BLACK
10
5.0267125984251964
20
-3.0767322834645667
40
0.0068897637795276
0
CIRCLE
8
BLACK
10
5.0597834645669293
20
-3.5787007874015746
40
0.0068897637795276
0
CIRCLE
8
BLACK
10
5.0597834645669293
20
-3.3511417322834647
40
0.0068897637795276
0
LINE
8
BLACK
6
CONTINUOUS
10
4.8991535433070865
20
-3.646811023622047
11
4.9306496062992125
21
-3.646811023622047
0
ARC
8
BLACK
10
4.9306496062992125
20
-3.6349999999999998
40
0.0118110236220472
50
-90.00000000
51
90.00000000
0
LINE
8
BLACK
6
CONTINUOUS
10
4.9306496062992125
20
-3.6231889763779526
11
4.8991535433070865
21
-3.6231889763779526
0
ARC
8
BLACK
10
4.8991535433070865
20
-3.6349999999999998
40
0.0118110236220472
50
90.00000000
51
270.00000000
0
LINE
8
BLACK
6
CONTINUOUS
10
4.8991535433070865
20
-3.3066535433070867
11
4.9306496062992125
21
-3.3066535433070867
0
ARC
8
BLACK
10
4.9306496062992125
20
-3.2948425196850395
40
0.0118110236220472
50
-90.00000000
51
90.00000000
0
LINE
8
BLACK
6
CONTINUOUS
10
4.9306496062992125
20
-3.2830314960629923
11
4.8991535433070865
21
-3.2830314960629923
0
ARC
8
BLACK
10
4.8991535433070865
20
-3.2948425196850395
40
0.0118110236220472
50
90.00000000
51
270.00000000
0
LINE
8
BLACK
6
CONTINUOUS
10
5.057814960629921
20
-3.646811023622047
11
5.1011220472440941
21
-3.646811023622047
0
ARC
8
BLACK
10
5.1011220472440941
20
-3.6349999999999998
40
0.0118110236220472
50
-90.00000000
51
90.00000000
0
LINE
8
BLACK
6
CONTINUOUS
10
5.1011220472440941
20
-3.6231889763779526
11
5.057814960629921
21
-3.6231889763779526
0
ARC
8
BLACK
10
5.057814960629921
20
-3.6349999999999998
40
0.0118110236220472
50
90.00000000
51
270.00000000
0
LINE
8
BLACK
6
CONTINUOUS
10
5.057814960629921
20
-3.3066535433070867
11
5.1011220472440941
21
-3.3066535433070867
0
ARC
8
BLACK
10
5.1011220472440941
20
-3.2948425196850395
40
0.0118110236220472
50
-90.00000000
51
90.00000000
0
LINE
8
BLACK
6
CONTINUOUS
10
5.1011220472440941
20
-3.2830314960629923
11
5.057814960629921
21
-3.2830314960629923
0
ARC
8
BLACK
10
5.057814960629921
20
-3.2948425196850395
40
0.0118110236220472
50
90.00000000
51
270.00000000
  0
ENDSEC
  0
EOF
