<?xml version="1.0" standalone="no"?>
<!DOCTYPE svg PUBLIC "-//W3C//DTD SVG 1.1//EN" "http://www.w3.org/Graphics/SVG/1.1/DTD/svg11.dtd">
<svg width="56mm" height="56mm" viewBox="-28 -28 56 56" xmlns="http://www.w3.org/2000/svg" version="1.1">
<title>OpenSCAD Model</title>
<path d="
M -28,27 L -27,28 L 2.15,28 L 2.15,27 L 5.15,27 L 5.15,26
 L -26,26 L -26,15.505 L -28,15.505 z
M -28,-1.245 L -26,-1.245 L -26,-5.86 L -28,-5.86 z
M -28,-15.56 L -26,-15.56 L -26,-26 L -12.82,-26 L -12.82,-28 L -27,-28
 L -28,-27 z
M -7.94,-26 L 26,-26 L 26,-14.395 L 28,-14.395 L 28,-27 L 27,-28
 L -7.94,-28 z
M 15.45,27 L 18.45,27 L 18.45,28 L 27,28 L 28,27 L 28,14.71
 L 26,14.71 L 26,26 L 15.45,26 z
M 26,0.49 L 28,0.49 L 28,-2.645 L 26,-2.645 z
" stroke="black" fill="lightgray" stroke-width="0.5"/>
</svg>
