%TF.GenerationSoftware,KiCad,Pcbnew,9.0.6+1*%
%TF.CreationDate,2026-01-10T01:03:21+00:00*%
%TF.ProjectId,TFGPS01,54464750-5330-4312-9e6b-696361645f70,C*%
%TF.SameCoordinates,Original*%
%TF.FileFunction,Profile,NP*%
%FSLAX46Y46*%
G04 Gerber Fmt 4.6, Leading zero omitted, Abs format (unit mm)*
G04 Created by KiCad (PCBNEW 9.0.6+1) date 2026-01-10 01:03:21*
%MOMM*%
%LPD*%
G01*
G04 APERTURE LIST*
%TA.AperFunction,Profile*%
%ADD10C,0.150000*%
%TD*%
%TA.AperFunction,Profile*%
%ADD11C,0.050000*%
%TD*%
G04 APERTURE END LIST*
D10*
X122202500Y-72673000D02*
X173194500Y-72673000D01*
X173194500Y-123665000D01*
X122202500Y-123665000D01*
X122202500Y-72673000D01*
D11*
%TO.C,D6*%
X167458500Y-96456000D02*
X167458500Y-95056000D01*
X167758500Y-94756000D02*
X169358500Y-94756000D01*
X169358500Y-96756000D02*
X167758500Y-96756000D01*
X169658500Y-95056000D02*
X169658500Y-96456000D01*
X167458500Y-95056000D02*
G75*
G02*
X167758500Y-94756000I300000J0D01*
G01*
X167758500Y-96756000D02*
G75*
G02*
X167458500Y-96456000I0J300000D01*
G01*
X169358500Y-94756000D02*
G75*
G02*
X169658500Y-95056000I0J-300000D01*
G01*
X169658500Y-96456000D02*
G75*
G02*
X169358500Y-96756000I-300000J0D01*
G01*
%TO.C,D5*%
X167458500Y-93027000D02*
X167458500Y-91627000D01*
X167758500Y-91327000D02*
X169358500Y-91327000D01*
X169358500Y-93327000D02*
X167758500Y-93327000D01*
X169658500Y-91627000D02*
X169658500Y-93027000D01*
X167458500Y-91627000D02*
G75*
G02*
X167758500Y-91327000I300000J0D01*
G01*
X167758500Y-93327000D02*
G75*
G02*
X167458500Y-93027000I0J300000D01*
G01*
X169358500Y-91327000D02*
G75*
G02*
X169658500Y-91627000I0J-300000D01*
G01*
X169658500Y-93027000D02*
G75*
G02*
X169358500Y-93327000I-300000J0D01*
G01*
%TO.C,D4*%
X167458500Y-89598000D02*
X167458500Y-88198000D01*
X167758500Y-87898000D02*
X169358500Y-87898000D01*
X169358500Y-89898000D02*
X167758500Y-89898000D01*
X169658500Y-88198000D02*
X169658500Y-89598000D01*
X167458500Y-88198000D02*
G75*
G02*
X167758500Y-87898000I300000J0D01*
G01*
X167758500Y-89898000D02*
G75*
G02*
X167458500Y-89598000I0J300000D01*
G01*
X169358500Y-87898000D02*
G75*
G02*
X169658500Y-88198000I0J-300000D01*
G01*
X169658500Y-89598000D02*
G75*
G02*
X169358500Y-89898000I-300000J0D01*
G01*
%TO.C,D7*%
X167458500Y-86122000D02*
X167458500Y-84722000D01*
X167758500Y-84422000D02*
X169358500Y-84422000D01*
X169358500Y-86422000D02*
X167758500Y-86422000D01*
X169658500Y-84722000D02*
X169658500Y-86122000D01*
X167458500Y-84722000D02*
G75*
G02*
X167758500Y-84422000I300000J0D01*
G01*
X167758500Y-86422000D02*
G75*
G02*
X167458500Y-86122000I0J300000D01*
G01*
X169358500Y-84422000D02*
G75*
G02*
X169658500Y-84722000I0J-300000D01*
G01*
X169658500Y-86122000D02*
G75*
G02*
X169358500Y-86422000I-300000J0D01*
G01*
%TO.C,D3*%
X125103500Y-95694000D02*
X125103500Y-94294000D01*
X125403500Y-93994000D02*
X127003500Y-93994000D01*
X127003500Y-95994000D02*
X125403500Y-95994000D01*
X127303500Y-94294000D02*
X127303500Y-95694000D01*
X125103500Y-94294000D02*
G75*
G02*
X125403500Y-93994000I300000J0D01*
G01*
X125403500Y-95994000D02*
G75*
G02*
X125103500Y-95694000I0J300000D01*
G01*
X127003500Y-93994000D02*
G75*
G02*
X127303500Y-94294000I0J-300000D01*
G01*
X127303500Y-95694000D02*
G75*
G02*
X127003500Y-95994000I-300000J0D01*
G01*
%TD*%
M02*
