%TF.GenerationSoftware,KiCad,Pcbnew,9.0.6+1*%
%TF.CreationDate,2025-12-05T23:48:47+00:00*%
%TF.ProjectId,TFGPS01,54464750-5330-4312-9e6b-696361645f70,C*%
%TF.SameCoordinates,Original*%
%TF.FileFunction,Soldermask,Bot*%
%TF.FilePolarity,Negative*%
%FSLAX46Y46*%
G04 Gerber Fmt 4.6, Leading zero omitted, Abs format (unit mm)*
G04 Created by KiCad (PCBNEW 9.0.6+1) date 2025-12-05 23:48:47*
%MOMM*%
%LPD*%
G01*
G04 APERTURE LIST*
G04 Aperture macros list*
%AMRoundRect*
0 Rectangle with rounded corners*
0 $1 Rounding radius*
0 $2 $3 $4 $5 $6 $7 $8 $9 X,Y pos of 4 corners*
0 Add a 4 corners polygon primitive as box body*
4,1,4,$2,$3,$4,$5,$6,$7,$8,$9,$2,$3,0*
0 Add four circle primitives for the rounded corners*
1,1,$1+$1,$2,$3*
1,1,$1+$1,$4,$5*
1,1,$1+$1,$6,$7*
1,1,$1+$1,$8,$9*
0 Add four rect primitives between the rounded corners*
20,1,$1+$1,$2,$3,$4,$5,0*
20,1,$1+$1,$4,$5,$6,$7,0*
20,1,$1+$1,$6,$7,$8,$9,0*
20,1,$1+$1,$8,$9,$2,$3,0*%
G04 Aperture macros list end*
%ADD10C,6.100000*%
%ADD11C,1.200000*%
%ADD12C,2.600000*%
%ADD13RoundRect,0.050000X0.850000X-0.650000X0.850000X0.650000X-0.850000X0.650000X-0.850000X-0.650000X0*%
%ADD14RoundRect,0.274390X0.288110X0.475610X-0.288110X0.475610X-0.288110X-0.475610X0.288110X-0.475610X0*%
%ADD15RoundRect,0.050000X0.530000X0.325000X-0.530000X0.325000X-0.530000X-0.325000X0.530000X-0.325000X0*%
%ADD16C,0.750000*%
%ADD17RoundRect,0.050000X0.575000X-0.300000X0.575000X0.300000X-0.575000X0.300000X-0.575000X-0.300000X0*%
%ADD18RoundRect,0.050000X0.575000X-0.150000X0.575000X0.150000X-0.575000X0.150000X-0.575000X-0.150000X0*%
%ADD19O,2.100000X1.100000*%
%ADD20O,2.200000X1.150000*%
%ADD21RoundRect,0.274390X0.475610X-0.288110X0.475610X0.288110X-0.475610X0.288110X-0.475610X-0.288110X0*%
%ADD22RoundRect,0.050000X-0.200000X0.325000X-0.200000X-0.325000X0.200000X-0.325000X0.200000X0.325000X0*%
%ADD23C,2.700000*%
%ADD24RoundRect,0.050000X0.475000X0.750000X-0.475000X0.750000X-0.475000X-0.750000X0.475000X-0.750000X0*%
%ADD25RoundRect,0.050000X-0.400000X0.450000X-0.400000X-0.450000X0.400000X-0.450000X0.400000X0.450000X0*%
%ADD26RoundRect,0.275000X-0.275000X-0.500000X0.275000X-0.500000X0.275000X0.500000X-0.275000X0.500000X0*%
%ADD27RoundRect,0.175000X-0.175000X-0.725000X0.175000X-0.725000X0.175000X0.725000X-0.175000X0.725000X0*%
%ADD28RoundRect,0.275000X-0.275000X-1.125000X0.275000X-1.125000X0.275000X1.125000X-0.275000X1.125000X0*%
%ADD29RoundRect,0.274390X-0.288110X-0.475610X0.288110X-0.475610X0.288110X0.475610X-0.288110X0.475610X0*%
%ADD30RoundRect,0.275000X-0.500000X0.275000X-0.500000X-0.275000X0.500000X-0.275000X0.500000X0.275000X0*%
%ADD31RoundRect,0.050000X-0.350000X0.300000X-0.350000X-0.300000X0.350000X-0.300000X0.350000X0.300000X0*%
%ADD32RoundRect,0.275000X0.500000X-0.275000X0.500000X0.275000X-0.500000X0.275000X-0.500000X-0.275000X0*%
%ADD33RoundRect,0.275000X0.275000X0.500000X-0.275000X0.500000X-0.275000X-0.500000X0.275000X-0.500000X0*%
%ADD34RoundRect,0.050000X-0.900000X1.250000X-0.900000X-1.250000X0.900000X-1.250000X0.900000X1.250000X0*%
%ADD35RoundRect,0.274390X-0.475610X0.288110X-0.475610X-0.288110X0.475610X-0.288110X0.475610X0.288110X0*%
%ADD36RoundRect,0.175000X0.175000X0.725000X-0.175000X0.725000X-0.175000X-0.725000X0.175000X-0.725000X0*%
%ADD37RoundRect,0.275000X0.275000X1.125000X-0.275000X1.125000X-0.275000X-1.125000X0.275000X-1.125000X0*%
%ADD38RoundRect,0.050000X0.350000X-0.300000X0.350000X0.300000X-0.350000X0.300000X-0.350000X-0.300000X0*%
%ADD39RoundRect,0.050000X-1.250000X-0.900000X1.250000X-0.900000X1.250000X0.900000X-1.250000X0.900000X0*%
%ADD40RoundRect,0.270000X-0.405000X-1.105000X0.405000X-1.105000X0.405000X1.105000X-0.405000X1.105000X0*%
%ADD41RoundRect,0.275000X-0.159099X0.548008X-0.548008X0.159099X0.159099X-0.548008X0.548008X-0.159099X0*%
%ADD42RoundRect,0.243750X0.406250X-0.243750X0.406250X0.243750X-0.406250X0.243750X-0.406250X-0.243750X0*%
%ADD43RoundRect,0.225000X0.725000X0.225000X-0.725000X0.225000X-0.725000X-0.225000X0.725000X-0.225000X0*%
%ADD44RoundRect,0.260000X-1.990000X-1.040000X1.990000X-1.040000X1.990000X1.040000X-1.990000X1.040000X0*%
%ADD45RoundRect,0.050000X-0.450000X-0.400000X0.450000X-0.400000X0.450000X0.400000X-0.450000X0.400000X0*%
%ADD46RoundRect,0.275000X0.548008X0.159099X0.159099X0.548008X-0.548008X-0.159099X-0.159099X-0.548008X0*%
%ADD47RoundRect,0.050000X-0.475000X-0.750000X0.475000X-0.750000X0.475000X0.750000X-0.475000X0.750000X0*%
%ADD48RoundRect,0.050000X0.900000X0.500000X-0.900000X0.500000X-0.900000X-0.500000X0.900000X-0.500000X0*%
%ADD49RoundRect,0.050000X1.200000X0.850000X-1.200000X0.850000X-1.200000X-0.850000X1.200000X-0.850000X0*%
%ADD50RoundRect,0.050000X-0.530000X-0.325000X0.530000X-0.325000X0.530000X0.325000X-0.530000X0.325000X0*%
%ADD51RoundRect,0.050000X1.250000X-1.525000X1.250000X1.525000X-1.250000X1.525000X-1.250000X-1.525000X0*%
%ADD52RoundRect,0.175000X-0.612500X-0.175000X0.612500X-0.175000X0.612500X0.175000X-0.612500X0.175000X0*%
G04 APERTURE END LIST*
D10*
%TO.C,M4*%
X167718500Y-118189000D03*
%TD*%
%TO.C,M2*%
X127678500Y-118189000D03*
%TD*%
%TO.C,M1*%
X167718500Y-78149000D03*
%TD*%
D11*
%TO.C,AE1*%
X151924500Y-98119000D03*
D12*
X151924500Y-98119000D03*
%TD*%
D10*
%TO.C,M3*%
X127678500Y-78149000D03*
%TD*%
D13*
%TO.C,D1*%
X148079500Y-85977000D03*
X148079500Y-82477000D03*
%TD*%
D14*
%TO.C,R21*%
X164930500Y-95756000D03*
X163105500Y-95756000D03*
%TD*%
D15*
%TO.C,U2*%
X138892500Y-89665000D03*
X138892500Y-90615000D03*
X138892500Y-91565000D03*
X136692500Y-91565000D03*
X136692500Y-90615000D03*
X136692500Y-89665000D03*
%TD*%
D16*
%TO.C,J2*%
X128518500Y-90899000D03*
X128518500Y-85119000D03*
D17*
X129593500Y-91209000D03*
X129593500Y-90409000D03*
D18*
X129593500Y-89259000D03*
X129593500Y-88259000D03*
X129593500Y-87759000D03*
X129593500Y-86759000D03*
D17*
X129593500Y-84809000D03*
X129593500Y-85609000D03*
D18*
X129593500Y-86259000D03*
X129593500Y-87259000D03*
X129593500Y-88759000D03*
X129593500Y-89759000D03*
D19*
X124838500Y-92329000D03*
X124838500Y-83689000D03*
D20*
X129018500Y-92329000D03*
X129018500Y-83689000D03*
%TD*%
D21*
%TO.C,R15*%
X148206500Y-95081000D03*
X148206500Y-93256000D03*
%TD*%
D22*
%TO.C,U4*%
X155918055Y-106854957D03*
X156568055Y-106854957D03*
X157218055Y-106854957D03*
X157218055Y-108754957D03*
X156568055Y-108754957D03*
X155918055Y-108754957D03*
%TD*%
D23*
%TO.C,D6*%
X168558500Y-95756000D03*
D24*
X166483500Y-95756000D03*
X170633500Y-95756000D03*
%TD*%
D25*
%TO.C,Q1*%
X163004500Y-85104000D03*
X164904500Y-85104000D03*
X163954500Y-87104000D03*
%TD*%
D14*
%TO.C,R11*%
X127084500Y-108329000D03*
X125259500Y-108329000D03*
%TD*%
D21*
%TO.C,R7*%
X145948400Y-101318700D03*
X145948400Y-99493700D03*
%TD*%
D26*
%TO.C,C15*%
X162306000Y-97788000D03*
X164206000Y-97788000D03*
%TD*%
D14*
%TO.C,R27*%
X154280894Y-105458598D03*
X152455894Y-105458598D03*
%TD*%
D27*
%TO.C,J5*%
X135703500Y-78175000D03*
X136953500Y-78175000D03*
X138203500Y-78175000D03*
X139453500Y-78175000D03*
X140703500Y-78175000D03*
X141953500Y-78175000D03*
X143203500Y-78175000D03*
X144453500Y-78175000D03*
D28*
X133853500Y-74975000D03*
X146303500Y-74975000D03*
%TD*%
D29*
%TO.C,R13*%
X154469500Y-81913000D03*
X156294500Y-81913000D03*
%TD*%
D23*
%TO.C,D5*%
X168558500Y-92327000D03*
D24*
X166483500Y-92327000D03*
X170633500Y-92327000D03*
%TD*%
D30*
%TO.C,C7*%
X145793500Y-104939000D03*
X145793500Y-106839000D03*
%TD*%
D31*
%TO.C,D9*%
X131950500Y-81470000D03*
X131950500Y-80070000D03*
%TD*%
D23*
%TO.C,D4*%
X168558500Y-88898000D03*
D24*
X166483500Y-88898000D03*
X170633500Y-88898000D03*
%TD*%
D32*
%TO.C,C3*%
X141094500Y-88260500D03*
X141094500Y-86360500D03*
%TD*%
D33*
%TO.C,C5*%
X143632000Y-93089000D03*
X141732000Y-93089000D03*
%TD*%
D21*
%TO.C,R6*%
X141020800Y-83894300D03*
X141020800Y-82069300D03*
%TD*%
D34*
%TO.C,D2*%
X151635500Y-117283000D03*
X151635500Y-121283000D03*
%TD*%
D33*
%TO.C,C4*%
X144902000Y-90676000D03*
X143002000Y-90676000D03*
%TD*%
D14*
%TO.C,R20*%
X164930500Y-92327000D03*
X163105500Y-92327000D03*
%TD*%
D35*
%TO.C,R24*%
X160017500Y-99098000D03*
X160017500Y-100923000D03*
%TD*%
%TO.C,R22*%
X162839400Y-78183100D03*
X162839400Y-80008100D03*
%TD*%
D36*
%TO.C,J4*%
X160453500Y-118210000D03*
X159203500Y-118210000D03*
X157953500Y-118210000D03*
X156703500Y-118210000D03*
D37*
X162303500Y-121410000D03*
X154853500Y-121410000D03*
%TD*%
D21*
%TO.C,R3*%
X133474500Y-86445000D03*
X133474500Y-84620000D03*
%TD*%
%TO.C,R18*%
X143380500Y-82889000D03*
X143380500Y-81064000D03*
%TD*%
D38*
%TO.C,D10*%
X131696500Y-82991000D03*
X131696500Y-84391000D03*
%TD*%
D33*
%TO.C,C6*%
X126487000Y-98042000D03*
X124587000Y-98042000D03*
%TD*%
D39*
%TO.C,D8*%
X166907500Y-99947000D03*
X170907500Y-99947000D03*
%TD*%
D21*
%TO.C,R17*%
X133982500Y-82317500D03*
X133982500Y-80492500D03*
%TD*%
D35*
%TO.C,R28*%
X159509500Y-80619500D03*
X159509500Y-82444500D03*
%TD*%
D14*
%TO.C,R12*%
X127084500Y-106297000D03*
X125259500Y-106297000D03*
%TD*%
D23*
%TO.C,D7*%
X168558500Y-85422000D03*
D24*
X166483500Y-85422000D03*
X170633500Y-85422000D03*
%TD*%
D40*
%TO.C,L1*%
X136008500Y-86612000D03*
X138808500Y-86612000D03*
%TD*%
D26*
%TO.C,C11*%
X152285176Y-110712098D03*
X154185176Y-110712098D03*
%TD*%
D14*
%TO.C,R19*%
X164803500Y-88898000D03*
X162978500Y-88898000D03*
%TD*%
D41*
%TO.C,C13*%
X157155705Y-100471945D03*
X155812203Y-101815447D03*
%TD*%
D42*
%TO.C,L2*%
X157237648Y-105156466D03*
X157237648Y-103031466D03*
%TD*%
D43*
%TO.C,U3*%
X142268500Y-97836500D03*
X142268500Y-98936500D03*
X142268500Y-100036500D03*
X142268500Y-101136500D03*
X142268500Y-102236500D03*
X142268500Y-103336500D03*
X142268500Y-104436500D03*
X142268500Y-107436500D03*
X142268500Y-108536500D03*
X142268500Y-109636500D03*
X142268500Y-110736500D03*
X142268500Y-111836500D03*
X130268500Y-111836500D03*
X130268500Y-110736500D03*
X130268500Y-109636500D03*
X130268500Y-108536500D03*
X130268500Y-107436500D03*
X130268500Y-104436500D03*
X130268500Y-103336500D03*
X130268500Y-102236500D03*
X130268500Y-101136500D03*
X130268500Y-100036500D03*
X130268500Y-98936500D03*
X130268500Y-97836500D03*
%TD*%
D32*
%TO.C,C8*%
X149328693Y-107573592D03*
X149328693Y-105673592D03*
%TD*%
D14*
%TO.C,R10*%
X127084500Y-102233000D03*
X125259500Y-102233000D03*
%TD*%
%TO.C,R23*%
X153165809Y-107580402D03*
X151340809Y-107580402D03*
%TD*%
D21*
%TO.C,R25*%
X150746500Y-82381000D03*
X150746500Y-80556000D03*
%TD*%
D30*
%TO.C,C10*%
X159382500Y-109868200D03*
X159382500Y-111768200D03*
%TD*%
D21*
%TO.C,R5*%
X139062500Y-83905000D03*
X139062500Y-82080000D03*
%TD*%
D27*
%TO.C,J3*%
X152828500Y-78175000D03*
X154078500Y-78175000D03*
X155328500Y-78175000D03*
X156578500Y-78175000D03*
X157828500Y-78175000D03*
X159078500Y-78175000D03*
D28*
X150978500Y-74975000D03*
X160928500Y-74975000D03*
%TD*%
D14*
%TO.C,R16*%
X127084500Y-110361000D03*
X125259500Y-110361000D03*
%TD*%
D21*
%TO.C,R8*%
X147952500Y-101304000D03*
X147952500Y-99479000D03*
%TD*%
D44*
%TO.C,C1*%
X151000500Y-88771000D03*
X159400500Y-88771000D03*
%TD*%
D35*
%TO.C,R1*%
X145793500Y-82461000D03*
X145793500Y-84286000D03*
%TD*%
D45*
%TO.C,Q2*%
X161938500Y-102802000D03*
X161938500Y-100902000D03*
X163938500Y-101852000D03*
%TD*%
D29*
%TO.C,R4*%
X130212500Y-94994000D03*
X132037500Y-94994000D03*
%TD*%
D46*
%TO.C,C14*%
X154607713Y-100786291D03*
X153264211Y-99442789D03*
%TD*%
D23*
%TO.C,D3*%
X126203500Y-94994000D03*
D47*
X128278500Y-94994000D03*
X124128500Y-94994000D03*
%TD*%
D33*
%TO.C,C2*%
X127122000Y-100201000D03*
X125222000Y-100201000D03*
%TD*%
D48*
%TO.C,FL1*%
X150392079Y-110785361D03*
X144792079Y-110785361D03*
D49*
X150092079Y-113085361D03*
X145092079Y-113085361D03*
%TD*%
D50*
%TO.C,U1*%
X143253500Y-88385000D03*
X143253500Y-87435000D03*
X143253500Y-86485000D03*
X145453500Y-86485000D03*
X145453500Y-88385000D03*
%TD*%
D36*
%TO.C,J1*%
X146465500Y-118163000D03*
X145215500Y-118163000D03*
X143965500Y-118163000D03*
X142715500Y-118163000D03*
X141465500Y-118163000D03*
X140215500Y-118163000D03*
X138965500Y-118163000D03*
X137715500Y-118163000D03*
X136465500Y-118163000D03*
X135215500Y-118163000D03*
D37*
X148315500Y-121363000D03*
X133365500Y-121363000D03*
%TD*%
D33*
%TO.C,C12*%
X154299945Y-103286824D03*
X152399945Y-103286824D03*
%TD*%
D21*
%TO.C,R14*%
X145920500Y-94954000D03*
X145920500Y-93129000D03*
%TD*%
D35*
%TO.C,R2*%
X133030001Y-91096999D03*
X133030001Y-92921999D03*
%TD*%
D26*
%TO.C,C9*%
X158785510Y-108123392D03*
X160685510Y-108123392D03*
%TD*%
D14*
%TO.C,R9*%
X127084500Y-104265000D03*
X125259500Y-104265000D03*
%TD*%
D51*
%TO.C,BZ1*%
X166494500Y-112300000D03*
X166494500Y-103850000D03*
%TD*%
D52*
%TO.C,Q3*%
X161747000Y-83498000D03*
X161747000Y-81598000D03*
X163622001Y-82548000D03*
%TD*%
D14*
%TO.C,R26*%
X157549884Y-110704797D03*
X155724884Y-110704797D03*
%TD*%
M02*
