M48
; DRILL file {KiCad 9.0.7+1} date 2026-02-15T01:23:03+0000
; FORMAT={3:3/ absolute / metric / suppress leading zeros}
; #@! TF.CreationDate,2026-02-15T01:23:03+00:00
; #@! TF.GenerationSoftware,Kicad,Pcbnew,9.0.7+1
; #@! TF.FileFunction,Plated,1,4,PTH
FMAT,2
METRIC,TZ
; #@! TA.AperFunction,Plated,PTH,ViaDrill
T1C0.200
; #@! TA.AperFunction,Plated,PTH,ViaDrill
T2C0.300
; #@! TA.AperFunction,Plated,PTH,ViaDrill
T3C0.400
; #@! TA.AperFunction,Plated,PTH,ComponentDrill
T4C0.600
; #@! TA.AperFunction,Plated,PTH,ComponentDrill
T5C3.000
%
G90
G05
T1
X156487Y-106094
X156599Y-109650
X158064Y-109499
X161874Y-86055
X165987Y-83945
X167129Y-83945
T2
X132205Y-78992
X140843Y-109677
X144334Y-87401
X145260Y-109040
X146378Y-109142
X147089Y-109853
X147089Y-111123
X148105Y-109802
X148156Y-111123
X148867Y-109091
X149555Y-86971
X152169Y-112139
X153083Y-112139
X154031Y-112139
X154980Y-112139
X155166Y-109396
X155776Y-105535
X155928Y-112139
X156876Y-112139
X157825Y-112139
X161224Y-78929
X162789Y-86970
X170637Y-87325
T3
X123949Y-108329
X123975Y-102233
X124026Y-104265
X124076Y-106297
X124076Y-110361
X126109Y-85469
X126109Y-86739
X126109Y-88009
X126109Y-89279
X126109Y-90549
X127584Y-96749
X128267Y-109218
X128394Y-110615
X128626Y-111912
X128648Y-100074
X130150Y-113055
X131176Y-90409
X131189Y-118489
X131189Y-119759
X131189Y-121029
X131189Y-122299
X131369Y-105613
X131648Y-114605
X131697Y-85469
X131824Y-74039
X131824Y-75309
X131978Y-111836
X132029Y-110439
X132699Y-83219
X133121Y-107239
X133325Y-102768
X133856Y-94486
X133895Y-82914
X133982Y-79119
X134493Y-111633
X134620Y-101524
X134939Y-86159
X135306Y-114325
X135318Y-90422
X135331Y-104800
X135634Y-80389
X136296Y-99822
X136296Y-110439
X136396Y-116457
X136925Y-114726
X136929Y-113409
X137031Y-80389
X137541Y-104623
X137623Y-116626
X137643Y-107036
X138379Y-112522
X138455Y-97714
X138555Y-80389
X138682Y-94486
X138720Y-108356
X138809Y-101979
X139063Y-82789
X139571Y-109345
X139852Y-95529
X139903Y-92735
X140233Y-100330
X140487Y-97866
X140614Y-107323
X140658Y-90090
X140658Y-91140
X141094Y-82421
X141476Y-116457
X141954Y-80105
X142926Y-95580
X143381Y-82889
X143938Y-116467
X144041Y-107516
X145413Y-116457
X146048Y-91819
X146356Y-98478
X146429Y-77849
X146429Y-79119
X146634Y-116510
X146816Y-91179
X146937Y-80643
X146937Y-88263
X146987Y-112495
X147190Y-104773
X147445Y-98296
X147546Y-107008
X148156Y-112444
X148285Y-81382
X148692Y-73914
X148969Y-77849
X149375Y-104265
X149440Y-116433
X149476Y-118743
X149680Y-98271
X149731Y-101369
X149781Y-97102
X149985Y-99388
X149985Y-108837
X150442Y-96289
X150604Y-90556
X150747Y-103147
X150848Y-100150
X150848Y-102081
X150848Y-104367
X150874Y-79119
X150874Y-84834
X150874Y-86104
X151001Y-105840
X151153Y-108989
X151356Y-95832
X151559Y-101369
X151635Y-118870
X151966Y-100404
X152144Y-84834
X152144Y-86104
X152271Y-109243
X152372Y-103351
X152423Y-95832
X152423Y-105484
X152779Y-80008
X152779Y-101115
X152857Y-92989
X153159Y-82675
X153312Y-109243
X153414Y-84834
X153414Y-86104
X153439Y-96188
X153540Y-101827
X153998Y-97102
X154049Y-80516
X154049Y-116584
X154203Y-91948
X154302Y-98169
X154353Y-109243
X155014Y-98880
X155319Y-83564
X155524Y-85979
X155550Y-84811
X155623Y-96391
X155623Y-103401
X155674Y-104519
X155725Y-99591
X156515Y-92431
X156589Y-79666
X157655Y-101928
X157859Y-75563
X157859Y-116457
X157909Y-95731
X158112Y-99439
X158163Y-106754
X158630Y-80506
X158722Y-102690
X158722Y-103757
X158722Y-104875
X158798Y-90727
X158824Y-105992
X159131Y-84938
X159537Y-92431
X159636Y-94105
X159687Y-95527
X159766Y-85954
X159891Y-102360
X160329Y-114877
X160500Y-105789
X160653Y-103249
X160907Y-97407
X162723Y-104280
X162939Y-118489
X163574Y-105154
X163574Y-117219
X163678Y-74092
X163932Y-107264
X168526Y-109599
X171829Y-109599
T5
X127679Y-78149
X127679Y-118189
X167719Y-78149
X167719Y-118189
T4
G00X124439Y-83689
M15
G01X125238Y-83689
M16
G05
G00X124439Y-92329
M15
G01X125238Y-92329
M16
G05
G00X128468Y-83689
M15
G01X129568Y-83689
M16
G05
G00X128468Y-92329
M15
G01X129568Y-92329
M16
G05
M30
