%TF.GenerationSoftware,KiCad,Pcbnew,7.0.7-7.0.7~ubuntu23.04.1*%
%TF.CreationDate,2023-09-24T00:30:57+00:00*%
%TF.ProjectId,TFGPS01,54464750-5330-4312-9e6b-696361645f70,REV*%
%TF.SameCoordinates,Original*%
%TF.FileFunction,Copper,L1,Top*%
%TF.FilePolarity,Positive*%
%FSLAX46Y46*%
G04 Gerber Fmt 4.6, Leading zero omitted, Abs format (unit mm)*
G04 Created by KiCad (PCBNEW 7.0.7-7.0.7~ubuntu23.04.1) date 2023-09-24 00:30:57*
%MOMM*%
%LPD*%
G01*
G04 APERTURE LIST*
%TA.AperFunction,ComponentPad*%
%ADD10C,6.000000*%
%TD*%
%TA.AperFunction,ComponentPad*%
%ADD11O,2.000000X1.000000*%
%TD*%
%TA.AperFunction,ComponentPad*%
%ADD12O,2.100000X1.050000*%
%TD*%
%TA.AperFunction,ViaPad*%
%ADD13C,0.800000*%
%TD*%
%TA.AperFunction,ViaPad*%
%ADD14C,0.700000*%
%TD*%
%TA.AperFunction,ViaPad*%
%ADD15C,0.600000*%
%TD*%
G04 APERTURE END LIST*
D10*
%TO.P,M4,1*%
%TO.N,GND*%
X167718500Y-118189000D03*
%TD*%
%TO.P,M2,1*%
%TO.N,GND*%
X127678500Y-118189000D03*
%TD*%
%TO.P,M1,1*%
%TO.N,GND*%
X167718500Y-78149000D03*
%TD*%
%TO.P,M3,1*%
%TO.N,GND*%
X127678500Y-78149000D03*
%TD*%
D11*
%TO.P,J2,G1,SHIELD*%
%TO.N,GND*%
X124838500Y-92329000D03*
%TO.P,J2,G2,SHIELD*%
X124838500Y-83689000D03*
D12*
%TO.P,J2,G3,SHIELD*%
X129018500Y-92329000D03*
%TO.P,J2,G4,SHIELD*%
X129018500Y-83689000D03*
%TD*%
D13*
%TO.N,GND*%
X141983500Y-94994000D03*
X162938500Y-75309000D03*
X158722100Y-103757000D03*
X133728500Y-110869000D03*
X140522110Y-107322501D03*
X126108500Y-85469000D03*
X126108500Y-90549000D03*
X155724900Y-99591400D03*
D14*
X156876500Y-112139000D03*
D13*
X153413500Y-84834000D03*
D15*
X167129500Y-83945000D03*
D13*
X132458500Y-114044000D03*
D14*
X157824900Y-112139000D03*
D13*
X150848100Y-104366600D03*
X164208500Y-107059000D03*
X159687300Y-95527400D03*
D14*
X155166100Y-109395800D03*
D13*
X152372100Y-103350600D03*
X131823500Y-74039000D03*
D14*
X145260100Y-109040200D03*
D13*
X138808500Y-98804000D03*
D14*
X153082900Y-112139000D03*
D13*
X154302500Y-98169000D03*
X150746500Y-103147400D03*
X153997700Y-97102200D03*
D14*
X148155700Y-111123000D03*
D13*
X154048500Y-116584000D03*
X146428500Y-79119000D03*
X133728500Y-112139000D03*
X152778500Y-101115400D03*
X157858500Y-86104000D03*
X143046470Y-95201031D03*
X153540500Y-101826600D03*
D14*
X156598565Y-109649800D03*
D13*
X152143500Y-84834000D03*
X132458500Y-115314000D03*
X155674100Y-104519000D03*
X147546100Y-107008200D03*
X162938500Y-118489000D03*
X151965700Y-100404200D03*
X137538500Y-100074000D03*
X157909300Y-95730600D03*
D14*
X146377700Y-109141800D03*
D13*
X157655300Y-101928200D03*
X151559300Y-101369400D03*
D14*
X152168900Y-112139000D03*
D13*
X153438900Y-96187800D03*
X138808500Y-101979000D03*
X154353300Y-109243400D03*
X158722100Y-102690200D03*
X131188500Y-118489000D03*
X153413500Y-86104000D03*
X149679700Y-98270600D03*
X149374900Y-104265000D03*
D14*
X156486900Y-106093800D03*
D13*
X155013700Y-98880200D03*
X140078500Y-100074000D03*
X152143500Y-86104000D03*
X131823500Y-75309000D03*
X131188500Y-121029000D03*
D15*
X165986500Y-83945000D03*
D14*
X147088900Y-111123000D03*
D13*
X164208500Y-75309000D03*
X131188500Y-119759000D03*
X158163300Y-106754200D03*
X131188500Y-122299000D03*
X157858500Y-84834000D03*
D14*
X148866900Y-109091000D03*
D13*
X159890500Y-102360000D03*
X135633500Y-112139000D03*
X160500100Y-105789000D03*
X153159500Y-82675000D03*
X150441700Y-96289400D03*
X149476500Y-118743000D03*
X150873500Y-86104000D03*
X149781300Y-97102200D03*
X151356100Y-95832200D03*
X150873500Y-84834000D03*
X150848100Y-102080600D03*
X163573500Y-117219000D03*
X158722100Y-104874600D03*
D14*
X154979700Y-112139000D03*
X154031300Y-112139000D03*
D13*
X149984500Y-99388200D03*
X126108500Y-86739000D03*
D15*
X156637384Y-110704797D03*
D13*
X163573500Y-105154000D03*
X150873500Y-79119000D03*
D15*
X161795500Y-86358000D03*
D13*
X155623300Y-103401400D03*
X152270500Y-109243400D03*
X148155700Y-112443800D03*
X126108500Y-88009000D03*
X134363500Y-103249000D03*
D14*
X147088900Y-109853000D03*
D13*
X146428500Y-77849000D03*
X152422900Y-105484200D03*
X155623300Y-96391000D03*
X126108500Y-89279000D03*
X133728500Y-115314000D03*
X158112500Y-99439000D03*
X149730500Y-101369400D03*
X149984500Y-108837000D03*
X153311900Y-109243400D03*
X160652500Y-103249000D03*
X132458500Y-107059000D03*
X135633500Y-110869000D03*
X159128500Y-86104000D03*
X146987300Y-112494600D03*
X133728500Y-114044000D03*
X171828500Y-109599000D03*
X159128500Y-84834000D03*
X151000500Y-105839800D03*
X151152900Y-108989400D03*
X144040900Y-107516200D03*
D14*
X155775700Y-105535000D03*
X143888500Y-109345000D03*
D13*
X150873500Y-83564000D03*
D14*
X155928100Y-112139000D03*
D13*
X158823700Y-105992200D03*
X150848100Y-100150200D03*
X152422900Y-95832200D03*
X148968500Y-77849000D03*
D14*
X148104900Y-109802200D03*
D13*
%TO.N,/VBACKUP*%
X150604225Y-90555979D03*
X128648500Y-100074000D03*
%TO.N,+3V3*%
X146936500Y-88263000D03*
X146936500Y-80643000D03*
X147190500Y-104773000D03*
%TO.N,+5V*%
X157858500Y-75563000D03*
D14*
X171912501Y-88601001D03*
D13*
X151762500Y-118997000D03*
D14*
X132204500Y-78992000D03*
D13*
X168526500Y-109599000D03*
D14*
X161224000Y-78928500D03*
D13*
%TO.N,/SAFETY_SW_LED*%
X136924752Y-114725652D03*
X158630188Y-80506312D03*
X154048500Y-80516000D03*
%TO.N,/RTK_STAT*%
X159636500Y-94105000D03*
X139570500Y-109345000D03*
X128394500Y-110615000D03*
%TO.N,/BUZZER*%
X160906500Y-97407000D03*
X156588500Y-79666000D03*
X162723499Y-104280003D03*
X136395500Y-116457000D03*
X160328574Y-114876861D03*
%TO.N,/GEO_STAT*%
X138720490Y-108356215D03*
X158798499Y-90726999D03*
X128267500Y-109218000D03*
%TO.N,/SAFETY_SW*%
X136928900Y-113409000D03*
X155318500Y-83564000D03*
%TO.N,/SDA1*%
X141475500Y-116457000D03*
X157858500Y-116457000D03*
%TO.N,/TX*%
X124025700Y-104265000D03*
X143937541Y-116467041D03*
X143380500Y-82167000D03*
%TO.N,/RX*%
X133894500Y-82914206D03*
X145412500Y-116457000D03*
X133855500Y-94486000D03*
X123974900Y-102233000D03*
%TO.N,/SDA*%
X123949500Y-108329000D03*
X139062500Y-82789011D03*
%TO.N,/SCL*%
X124076500Y-106297000D03*
X141094500Y-82421000D03*
%TO.N,Net-(J5-Pad1)*%
X135633500Y-80389000D03*
X146047500Y-91819000D03*
%TO.N,Net-(J5-Pad2)*%
X146815723Y-91178814D03*
X137030500Y-80389000D03*
%TO.N,Net-(J5-Pad3)*%
X138681500Y-94486000D03*
X124076500Y-110361000D03*
X138554500Y-80389000D03*
%TO.N,Net-(J5-Pad6)*%
X133982500Y-79119000D03*
X141953500Y-80105000D03*
%TO.N,/D1-*%
X140658477Y-91140000D03*
X146356448Y-98477948D03*
%TO.N,/D1+*%
X147444500Y-98296000D03*
X140658477Y-90090000D03*
%TO.N,/SAFE_VCC*%
X137623259Y-116626241D03*
X152778500Y-80008000D03*
%TO.N,/VBUS*%
X131696500Y-85469000D03*
X131175500Y-90409000D03*
X135317500Y-90422000D03*
%TO.N,Net-(D9-Pad1)*%
X134938500Y-86159000D03*
X132698500Y-83219000D03*
%TD*%
%TA.AperFunction,Conductor*%
%TO.N,GND*%
G36*
X172662208Y-73194322D02*
G01*
X172692648Y-73247045D01*
X172694000Y-73262500D01*
X172694000Y-123075500D01*
X172673178Y-123132708D01*
X172620455Y-123163148D01*
X172605000Y-123164500D01*
X122792000Y-123164500D01*
X122734792Y-123143678D01*
X122704352Y-123090955D01*
X122703000Y-123075500D01*
X122703000Y-118996999D01*
X151156818Y-118996999D01*
X151177457Y-119153767D01*
X151237963Y-119299841D01*
X151237965Y-119299843D01*
X151334213Y-119425276D01*
X151334218Y-119425282D01*
X151334222Y-119425285D01*
X151334223Y-119425286D01*
X151459656Y-119521534D01*
X151459658Y-119521536D01*
X151605733Y-119582042D01*
X151605738Y-119582044D01*
X151762500Y-119602682D01*
X151919262Y-119582044D01*
X152065341Y-119521536D01*
X152190782Y-119425282D01*
X152287036Y-119299841D01*
X152347544Y-119153762D01*
X152368182Y-118997000D01*
X152347544Y-118840238D01*
X152287036Y-118694159D01*
X152287036Y-118694158D01*
X152287034Y-118694156D01*
X152190786Y-118568723D01*
X152190785Y-118568722D01*
X152190782Y-118568718D01*
X152190777Y-118568714D01*
X152190776Y-118568713D01*
X152065343Y-118472465D01*
X152065341Y-118472463D01*
X151919266Y-118411957D01*
X151919267Y-118411957D01*
X151919263Y-118411956D01*
X151919262Y-118411956D01*
X151762500Y-118391318D01*
X151762499Y-118391318D01*
X151702106Y-118399268D01*
X151605738Y-118411956D01*
X151605737Y-118411956D01*
X151605732Y-118411957D01*
X151459658Y-118472463D01*
X151459656Y-118472465D01*
X151334223Y-118568713D01*
X151334213Y-118568723D01*
X151237965Y-118694156D01*
X151237963Y-118694158D01*
X151177457Y-118840232D01*
X151156818Y-118996999D01*
X122703000Y-118996999D01*
X122703000Y-116457000D01*
X135789818Y-116457000D01*
X135810457Y-116613767D01*
X135870963Y-116759841D01*
X135870965Y-116759843D01*
X135967213Y-116885276D01*
X135967218Y-116885282D01*
X135967222Y-116885285D01*
X135967223Y-116885286D01*
X136092656Y-116981534D01*
X136092658Y-116981536D01*
X136238733Y-117042042D01*
X136238738Y-117042044D01*
X136395500Y-117062682D01*
X136552262Y-117042044D01*
X136698341Y-116981536D01*
X136823782Y-116885282D01*
X136896712Y-116790237D01*
X136948056Y-116757527D01*
X137008415Y-116765473D01*
X137049545Y-116810358D01*
X137098722Y-116929082D01*
X137098724Y-116929084D01*
X137193106Y-117052085D01*
X137194977Y-117054523D01*
X137194981Y-117054526D01*
X137194982Y-117054527D01*
X137320415Y-117150775D01*
X137320417Y-117150777D01*
X137466492Y-117211283D01*
X137466497Y-117211285D01*
X137623259Y-117231923D01*
X137780021Y-117211285D01*
X137926100Y-117150777D01*
X138051541Y-117054523D01*
X138147795Y-116929082D01*
X138208303Y-116783003D01*
X138228941Y-116626241D01*
X138208303Y-116469479D01*
X138207293Y-116467041D01*
X138203134Y-116457000D01*
X140869818Y-116457000D01*
X140890457Y-116613767D01*
X140950963Y-116759841D01*
X140950965Y-116759843D01*
X141047213Y-116885276D01*
X141047218Y-116885282D01*
X141047222Y-116885285D01*
X141047223Y-116885286D01*
X141172656Y-116981534D01*
X141172658Y-116981536D01*
X141318733Y-117042042D01*
X141318738Y-117042044D01*
X141475500Y-117062682D01*
X141632262Y-117042044D01*
X141778341Y-116981536D01*
X141903782Y-116885282D01*
X142000036Y-116759841D01*
X142060544Y-116613762D01*
X142079860Y-116467041D01*
X143331859Y-116467041D01*
X143352498Y-116623808D01*
X143413004Y-116769882D01*
X143413006Y-116769884D01*
X143501551Y-116885278D01*
X143509259Y-116895323D01*
X143509263Y-116895326D01*
X143509264Y-116895327D01*
X143634697Y-116991575D01*
X143634699Y-116991577D01*
X143780774Y-117052083D01*
X143780779Y-117052085D01*
X143937541Y-117072723D01*
X144094303Y-117052085D01*
X144240382Y-116991577D01*
X144365823Y-116895323D01*
X144462077Y-116769882D01*
X144522585Y-116623803D01*
X144543223Y-116467041D01*
X144541901Y-116457000D01*
X144806818Y-116457000D01*
X144827457Y-116613767D01*
X144887963Y-116759841D01*
X144887965Y-116759843D01*
X144984213Y-116885276D01*
X144984218Y-116885282D01*
X144984222Y-116885285D01*
X144984223Y-116885286D01*
X145109656Y-116981534D01*
X145109658Y-116981536D01*
X145255733Y-117042042D01*
X145255738Y-117042044D01*
X145412500Y-117062682D01*
X145569262Y-117042044D01*
X145715341Y-116981536D01*
X145840782Y-116885282D01*
X145937036Y-116759841D01*
X145997544Y-116613762D01*
X146018182Y-116457000D01*
X157252818Y-116457000D01*
X157273457Y-116613767D01*
X157333963Y-116759841D01*
X157333965Y-116759843D01*
X157430213Y-116885276D01*
X157430218Y-116885282D01*
X157430222Y-116885285D01*
X157430223Y-116885286D01*
X157555656Y-116981534D01*
X157555658Y-116981536D01*
X157701733Y-117042042D01*
X157701738Y-117042044D01*
X157858500Y-117062682D01*
X158015262Y-117042044D01*
X158161341Y-116981536D01*
X158286782Y-116885282D01*
X158383036Y-116759841D01*
X158443544Y-116613762D01*
X158464182Y-116457000D01*
X158443544Y-116300238D01*
X158440547Y-116293003D01*
X158383036Y-116154158D01*
X158383034Y-116154156D01*
X158286786Y-116028723D01*
X158286785Y-116028722D01*
X158286782Y-116028718D01*
X158286777Y-116028714D01*
X158286776Y-116028713D01*
X158161343Y-115932465D01*
X158161341Y-115932463D01*
X158015266Y-115871957D01*
X158015267Y-115871957D01*
X158015263Y-115871956D01*
X158015262Y-115871956D01*
X157858500Y-115851318D01*
X157701738Y-115871956D01*
X157701737Y-115871956D01*
X157701732Y-115871957D01*
X157555658Y-115932463D01*
X157555656Y-115932465D01*
X157430223Y-116028713D01*
X157430213Y-116028723D01*
X157333965Y-116154156D01*
X157333963Y-116154158D01*
X157273457Y-116300232D01*
X157252818Y-116457000D01*
X146018182Y-116457000D01*
X145997544Y-116300238D01*
X145994547Y-116293003D01*
X145937036Y-116154158D01*
X145937034Y-116154156D01*
X145840786Y-116028723D01*
X145840785Y-116028722D01*
X145840782Y-116028718D01*
X145840777Y-116028714D01*
X145840776Y-116028713D01*
X145715343Y-115932465D01*
X145715341Y-115932463D01*
X145569266Y-115871957D01*
X145569267Y-115871957D01*
X145569263Y-115871956D01*
X145569262Y-115871956D01*
X145412500Y-115851318D01*
X145255738Y-115871956D01*
X145255737Y-115871956D01*
X145255732Y-115871957D01*
X145109658Y-115932463D01*
X145109656Y-115932465D01*
X144984223Y-116028713D01*
X144984213Y-116028723D01*
X144887965Y-116154156D01*
X144887963Y-116154158D01*
X144827457Y-116300232D01*
X144806818Y-116457000D01*
X144541901Y-116457000D01*
X144522585Y-116310279D01*
X144518423Y-116300232D01*
X144462077Y-116164199D01*
X144462075Y-116164197D01*
X144365827Y-116038764D01*
X144365826Y-116038763D01*
X144365823Y-116038759D01*
X144365818Y-116038755D01*
X144365817Y-116038754D01*
X144240384Y-115942506D01*
X144240382Y-115942504D01*
X144094307Y-115881998D01*
X144094308Y-115881998D01*
X144094304Y-115881997D01*
X144094303Y-115881997D01*
X143937541Y-115861359D01*
X143780779Y-115881997D01*
X143780778Y-115881997D01*
X143780773Y-115881998D01*
X143634699Y-115942504D01*
X143634697Y-115942506D01*
X143509264Y-116038754D01*
X143509254Y-116038764D01*
X143413006Y-116164197D01*
X143413004Y-116164199D01*
X143352498Y-116310273D01*
X143331859Y-116467041D01*
X142079860Y-116467041D01*
X142081182Y-116457000D01*
X142060544Y-116300238D01*
X142057547Y-116293003D01*
X142000036Y-116154158D01*
X142000034Y-116154156D01*
X141903786Y-116028723D01*
X141903785Y-116028722D01*
X141903782Y-116028718D01*
X141903777Y-116028714D01*
X141903776Y-116028713D01*
X141778343Y-115932465D01*
X141778341Y-115932463D01*
X141632266Y-115871957D01*
X141632267Y-115871957D01*
X141632263Y-115871956D01*
X141632262Y-115871956D01*
X141475500Y-115851318D01*
X141475499Y-115851318D01*
X141415106Y-115859268D01*
X141318738Y-115871956D01*
X141318737Y-115871956D01*
X141318732Y-115871957D01*
X141172658Y-115932463D01*
X141172656Y-115932465D01*
X141047223Y-116028713D01*
X141047213Y-116028723D01*
X140950965Y-116154156D01*
X140950963Y-116154158D01*
X140890457Y-116300232D01*
X140869818Y-116457000D01*
X138203134Y-116457000D01*
X138147795Y-116323399D01*
X138147793Y-116323397D01*
X138051545Y-116197964D01*
X138051544Y-116197963D01*
X138051541Y-116197959D01*
X138051536Y-116197955D01*
X138051535Y-116197954D01*
X137926102Y-116101706D01*
X137926100Y-116101704D01*
X137780025Y-116041198D01*
X137780026Y-116041198D01*
X137780022Y-116041197D01*
X137780021Y-116041197D01*
X137623259Y-116020559D01*
X137623258Y-116020559D01*
X137562865Y-116028509D01*
X137466497Y-116041197D01*
X137466496Y-116041197D01*
X137466491Y-116041198D01*
X137320417Y-116101704D01*
X137320415Y-116101706D01*
X137194982Y-116197954D01*
X137194972Y-116197964D01*
X137122046Y-116293003D01*
X137070701Y-116325713D01*
X137010342Y-116317767D01*
X136969213Y-116272882D01*
X136920036Y-116154158D01*
X136920034Y-116154156D01*
X136823786Y-116028723D01*
X136823785Y-116028722D01*
X136823782Y-116028718D01*
X136823777Y-116028714D01*
X136823776Y-116028713D01*
X136698343Y-115932465D01*
X136698341Y-115932463D01*
X136552266Y-115871957D01*
X136552267Y-115871957D01*
X136552263Y-115871956D01*
X136552262Y-115871956D01*
X136395500Y-115851318D01*
X136238738Y-115871956D01*
X136238737Y-115871956D01*
X136238732Y-115871957D01*
X136092658Y-115932463D01*
X136092656Y-115932465D01*
X135967223Y-116028713D01*
X135967213Y-116028723D01*
X135870965Y-116154156D01*
X135870963Y-116154158D01*
X135810457Y-116300232D01*
X135789818Y-116457000D01*
X122703000Y-116457000D01*
X122703000Y-114725652D01*
X136319070Y-114725652D01*
X136339709Y-114882419D01*
X136400215Y-115028493D01*
X136400217Y-115028495D01*
X136404152Y-115033623D01*
X136496470Y-115153934D01*
X136496474Y-115153937D01*
X136496475Y-115153938D01*
X136621908Y-115250186D01*
X136621910Y-115250188D01*
X136767985Y-115310694D01*
X136767990Y-115310696D01*
X136924752Y-115331334D01*
X137081514Y-115310696D01*
X137094911Y-115305147D01*
X137227593Y-115250188D01*
X137353034Y-115153934D01*
X137449288Y-115028493D01*
X137509796Y-114882414D01*
X137510527Y-114876861D01*
X159722892Y-114876861D01*
X159743531Y-115033628D01*
X159804037Y-115179702D01*
X159804039Y-115179704D01*
X159900287Y-115305137D01*
X159900292Y-115305143D01*
X159900296Y-115305146D01*
X159900297Y-115305147D01*
X160025730Y-115401395D01*
X160025732Y-115401397D01*
X160171807Y-115461903D01*
X160171812Y-115461905D01*
X160328574Y-115482543D01*
X160485336Y-115461905D01*
X160631415Y-115401397D01*
X160756856Y-115305143D01*
X160853110Y-115179702D01*
X160913618Y-115033623D01*
X160934256Y-114876861D01*
X160913618Y-114720099D01*
X160853110Y-114574020D01*
X160853110Y-114574019D01*
X160853108Y-114574017D01*
X160756860Y-114448584D01*
X160756859Y-114448583D01*
X160756856Y-114448579D01*
X160756851Y-114448575D01*
X160756850Y-114448574D01*
X160631417Y-114352326D01*
X160631415Y-114352324D01*
X160485340Y-114291818D01*
X160485341Y-114291818D01*
X160485337Y-114291817D01*
X160485336Y-114291817D01*
X160328574Y-114271179D01*
X160171812Y-114291817D01*
X160171811Y-114291817D01*
X160171806Y-114291818D01*
X160025732Y-114352324D01*
X160025730Y-114352326D01*
X159900297Y-114448574D01*
X159900287Y-114448584D01*
X159804039Y-114574017D01*
X159804037Y-114574019D01*
X159743531Y-114720093D01*
X159722892Y-114876861D01*
X137510527Y-114876861D01*
X137530434Y-114725652D01*
X137509796Y-114568890D01*
X137459961Y-114448579D01*
X137449288Y-114422810D01*
X137449286Y-114422808D01*
X137353038Y-114297375D01*
X137353037Y-114297374D01*
X137353034Y-114297370D01*
X137353029Y-114297366D01*
X137353028Y-114297365D01*
X137227595Y-114201117D01*
X137227593Y-114201115D01*
X137105179Y-114150410D01*
X137060294Y-114109280D01*
X137052348Y-114048922D01*
X137085058Y-113997576D01*
X137105179Y-113985960D01*
X137231741Y-113933536D01*
X137357182Y-113837282D01*
X137453436Y-113711841D01*
X137513944Y-113565762D01*
X137534582Y-113409000D01*
X137513944Y-113252238D01*
X137453436Y-113106159D01*
X137453436Y-113106158D01*
X137453434Y-113106156D01*
X137357186Y-112980723D01*
X137357185Y-112980722D01*
X137357182Y-112980718D01*
X137357177Y-112980714D01*
X137357176Y-112980713D01*
X137231743Y-112884465D01*
X137231741Y-112884463D01*
X137085666Y-112823957D01*
X137085667Y-112823957D01*
X137085663Y-112823956D01*
X137085662Y-112823956D01*
X136928900Y-112803318D01*
X136928899Y-112803318D01*
X136868506Y-112811268D01*
X136772138Y-112823956D01*
X136772137Y-112823956D01*
X136772132Y-112823957D01*
X136626058Y-112884463D01*
X136626056Y-112884465D01*
X136500623Y-112980713D01*
X136500613Y-112980723D01*
X136404365Y-113106156D01*
X136404363Y-113106158D01*
X136343857Y-113252232D01*
X136323218Y-113408999D01*
X136343857Y-113565767D01*
X136404363Y-113711841D01*
X136404365Y-113711843D01*
X136500613Y-113837276D01*
X136500618Y-113837282D01*
X136500622Y-113837285D01*
X136500623Y-113837286D01*
X136626056Y-113933534D01*
X136626058Y-113933536D01*
X136748472Y-113984241D01*
X136793357Y-114025370D01*
X136801303Y-114085729D01*
X136768593Y-114137074D01*
X136748473Y-114148691D01*
X136621908Y-114201117D01*
X136496475Y-114297365D01*
X136496465Y-114297375D01*
X136400217Y-114422808D01*
X136400215Y-114422810D01*
X136339709Y-114568884D01*
X136319070Y-114725652D01*
X122703000Y-114725652D01*
X122703000Y-110360999D01*
X123470818Y-110360999D01*
X123491457Y-110517767D01*
X123551963Y-110663841D01*
X123551965Y-110663843D01*
X123634774Y-110771762D01*
X123648218Y-110789282D01*
X123648222Y-110789285D01*
X123648223Y-110789286D01*
X123773656Y-110885534D01*
X123773658Y-110885536D01*
X123919733Y-110946042D01*
X123919738Y-110946044D01*
X124076500Y-110966682D01*
X124233262Y-110946044D01*
X124379341Y-110885536D01*
X124504782Y-110789282D01*
X124601036Y-110663841D01*
X124621267Y-110615000D01*
X127788818Y-110615000D01*
X127809457Y-110771767D01*
X127869963Y-110917841D01*
X127869965Y-110917843D01*
X127966213Y-111043276D01*
X127966218Y-111043282D01*
X127966222Y-111043285D01*
X127966223Y-111043286D01*
X128091656Y-111139534D01*
X128091658Y-111139536D01*
X128237733Y-111200042D01*
X128237738Y-111200044D01*
X128394500Y-111220682D01*
X128551262Y-111200044D01*
X128697341Y-111139536D01*
X128822782Y-111043282D01*
X128919036Y-110917841D01*
X128972287Y-110789282D01*
X128979542Y-110771767D01*
X128979542Y-110771766D01*
X128979544Y-110771762D01*
X129000182Y-110615000D01*
X128979544Y-110458238D01*
X128939266Y-110360999D01*
X128919036Y-110312158D01*
X128919034Y-110312156D01*
X128822786Y-110186723D01*
X128822785Y-110186722D01*
X128822782Y-110186718D01*
X128822777Y-110186714D01*
X128822776Y-110186713D01*
X128697343Y-110090465D01*
X128697341Y-110090463D01*
X128551266Y-110029957D01*
X128551267Y-110029957D01*
X128551263Y-110029956D01*
X128551262Y-110029956D01*
X128394500Y-110009318D01*
X128394499Y-110009318D01*
X128334106Y-110017268D01*
X128237738Y-110029956D01*
X128237737Y-110029956D01*
X128237732Y-110029957D01*
X128091658Y-110090463D01*
X128091656Y-110090465D01*
X127966223Y-110186713D01*
X127966213Y-110186723D01*
X127869965Y-110312156D01*
X127869963Y-110312158D01*
X127809457Y-110458232D01*
X127788818Y-110615000D01*
X124621267Y-110615000D01*
X124661544Y-110517762D01*
X124682182Y-110361000D01*
X124661544Y-110204238D01*
X124654289Y-110186723D01*
X124601036Y-110058158D01*
X124601034Y-110058156D01*
X124504786Y-109932723D01*
X124504785Y-109932722D01*
X124504782Y-109932718D01*
X124504777Y-109932714D01*
X124504776Y-109932713D01*
X124379343Y-109836465D01*
X124379341Y-109836463D01*
X124233266Y-109775957D01*
X124233267Y-109775957D01*
X124233263Y-109775956D01*
X124233262Y-109775956D01*
X124076500Y-109755318D01*
X123919738Y-109775956D01*
X123919737Y-109775956D01*
X123919732Y-109775957D01*
X123773658Y-109836463D01*
X123773656Y-109836465D01*
X123648223Y-109932713D01*
X123648213Y-109932723D01*
X123551965Y-110058156D01*
X123551963Y-110058158D01*
X123491457Y-110204232D01*
X123470818Y-110360999D01*
X122703000Y-110360999D01*
X122703000Y-109218000D01*
X127661818Y-109218000D01*
X127672107Y-109296156D01*
X127682457Y-109374767D01*
X127742963Y-109520841D01*
X127742965Y-109520843D01*
X127802937Y-109599000D01*
X127839218Y-109646282D01*
X127839222Y-109646285D01*
X127839223Y-109646286D01*
X127964656Y-109742534D01*
X127964658Y-109742536D01*
X128110733Y-109803042D01*
X128110738Y-109803044D01*
X128267500Y-109823682D01*
X128424262Y-109803044D01*
X128570341Y-109742536D01*
X128695782Y-109646282D01*
X128792036Y-109520841D01*
X128799939Y-109501762D01*
X128852542Y-109374767D01*
X128852542Y-109374766D01*
X128852544Y-109374762D01*
X128873182Y-109218000D01*
X128852544Y-109061238D01*
X128844641Y-109042159D01*
X128792036Y-108915158D01*
X128792034Y-108915156D01*
X128695786Y-108789723D01*
X128695785Y-108789722D01*
X128695782Y-108789718D01*
X128695777Y-108789714D01*
X128695776Y-108789713D01*
X128570343Y-108693465D01*
X128570341Y-108693463D01*
X128424266Y-108632957D01*
X128424267Y-108632957D01*
X128424263Y-108632956D01*
X128424262Y-108632956D01*
X128267500Y-108612318D01*
X128110738Y-108632956D01*
X128110737Y-108632956D01*
X128110732Y-108632957D01*
X127964658Y-108693463D01*
X127964656Y-108693465D01*
X127839223Y-108789713D01*
X127839213Y-108789723D01*
X127742965Y-108915156D01*
X127742963Y-108915158D01*
X127682457Y-109061232D01*
X127682456Y-109061237D01*
X127682456Y-109061238D01*
X127661818Y-109218000D01*
X122703000Y-109218000D01*
X122703000Y-108329000D01*
X123343818Y-108329000D01*
X123364457Y-108485767D01*
X123424963Y-108631841D01*
X123424965Y-108631843D01*
X123521213Y-108757276D01*
X123521218Y-108757282D01*
X123521222Y-108757285D01*
X123521223Y-108757286D01*
X123646656Y-108853534D01*
X123646658Y-108853536D01*
X123792733Y-108914042D01*
X123792738Y-108914044D01*
X123949500Y-108934682D01*
X124106262Y-108914044D01*
X124252341Y-108853536D01*
X124377782Y-108757282D01*
X124474036Y-108631841D01*
X124534544Y-108485762D01*
X124551599Y-108356214D01*
X138114808Y-108356214D01*
X138135447Y-108512982D01*
X138195953Y-108659056D01*
X138195955Y-108659058D01*
X138292203Y-108784491D01*
X138292208Y-108784497D01*
X138292212Y-108784500D01*
X138292213Y-108784501D01*
X138417646Y-108880749D01*
X138417648Y-108880751D01*
X138563723Y-108941257D01*
X138563728Y-108941259D01*
X138720490Y-108961897D01*
X138877252Y-108941259D01*
X138933329Y-108918030D01*
X138994148Y-108915375D01*
X139042448Y-108952435D01*
X139055626Y-109011871D01*
X139047304Y-109036400D01*
X139048196Y-109036770D01*
X138985457Y-109188232D01*
X138964818Y-109344999D01*
X138985457Y-109501767D01*
X139045963Y-109647841D01*
X139045965Y-109647843D01*
X139128774Y-109755762D01*
X139142218Y-109773282D01*
X139142222Y-109773285D01*
X139142223Y-109773286D01*
X139267656Y-109869534D01*
X139267658Y-109869536D01*
X139413733Y-109930042D01*
X139413738Y-109930044D01*
X139570500Y-109950682D01*
X139727262Y-109930044D01*
X139873341Y-109869536D01*
X139998782Y-109773282D01*
X140095036Y-109647841D01*
X140115267Y-109599000D01*
X167920818Y-109599000D01*
X167941457Y-109755767D01*
X168001963Y-109901841D01*
X168001965Y-109901843D01*
X168098213Y-110027276D01*
X168098218Y-110027282D01*
X168098222Y-110027285D01*
X168098223Y-110027286D01*
X168223656Y-110123534D01*
X168223658Y-110123536D01*
X168369733Y-110184042D01*
X168369738Y-110184044D01*
X168526500Y-110204682D01*
X168683262Y-110184044D01*
X168829341Y-110123536D01*
X168954782Y-110027282D01*
X169051036Y-109901841D01*
X169078116Y-109836464D01*
X169111542Y-109755767D01*
X169111542Y-109755766D01*
X169111544Y-109755762D01*
X169132182Y-109599000D01*
X169111544Y-109442238D01*
X169083594Y-109374762D01*
X169051036Y-109296158D01*
X169051034Y-109296156D01*
X168954786Y-109170723D01*
X168954785Y-109170722D01*
X168954782Y-109170718D01*
X168954777Y-109170714D01*
X168954776Y-109170713D01*
X168829343Y-109074465D01*
X168829341Y-109074463D01*
X168683266Y-109013957D01*
X168683267Y-109013957D01*
X168683263Y-109013956D01*
X168683262Y-109013956D01*
X168526500Y-108993318D01*
X168369738Y-109013956D01*
X168369737Y-109013956D01*
X168369732Y-109013957D01*
X168223658Y-109074463D01*
X168223656Y-109074465D01*
X168098223Y-109170713D01*
X168098213Y-109170723D01*
X168001965Y-109296156D01*
X168001963Y-109296158D01*
X167941457Y-109442232D01*
X167920818Y-109599000D01*
X140115267Y-109599000D01*
X140155544Y-109501762D01*
X140176182Y-109345000D01*
X140155544Y-109188238D01*
X140148289Y-109170723D01*
X140095036Y-109042158D01*
X140095034Y-109042156D01*
X139998786Y-108916723D01*
X139998785Y-108916722D01*
X139998782Y-108916718D01*
X139998777Y-108916714D01*
X139998776Y-108916713D01*
X139873343Y-108820465D01*
X139873341Y-108820463D01*
X139727266Y-108759957D01*
X139727267Y-108759957D01*
X139727263Y-108759956D01*
X139727262Y-108759956D01*
X139570500Y-108739318D01*
X139570499Y-108739318D01*
X139510106Y-108747268D01*
X139413738Y-108759956D01*
X139413737Y-108759956D01*
X139413732Y-108759957D01*
X139357661Y-108783183D01*
X139296839Y-108785839D01*
X139248540Y-108748778D01*
X139235363Y-108689341D01*
X139243689Y-108664815D01*
X139242794Y-108664445D01*
X139305532Y-108512982D01*
X139305532Y-108512981D01*
X139305534Y-108512977D01*
X139326172Y-108356215D01*
X139305534Y-108199453D01*
X139294261Y-108172238D01*
X139245026Y-108053373D01*
X139245024Y-108053371D01*
X139148776Y-107927938D01*
X139148775Y-107927937D01*
X139148772Y-107927933D01*
X139148767Y-107927929D01*
X139148766Y-107927928D01*
X139023333Y-107831680D01*
X139023331Y-107831678D01*
X138877256Y-107771172D01*
X138877257Y-107771172D01*
X138877253Y-107771171D01*
X138877252Y-107771171D01*
X138720490Y-107750533D01*
X138563728Y-107771171D01*
X138563727Y-107771171D01*
X138563722Y-107771172D01*
X138417648Y-107831678D01*
X138417646Y-107831680D01*
X138292213Y-107927928D01*
X138292203Y-107927938D01*
X138195955Y-108053371D01*
X138195953Y-108053373D01*
X138135447Y-108199447D01*
X138114808Y-108356214D01*
X124551599Y-108356214D01*
X124555182Y-108329000D01*
X124534544Y-108172238D01*
X124485308Y-108053373D01*
X124474036Y-108026158D01*
X124474034Y-108026156D01*
X124377786Y-107900723D01*
X124377785Y-107900722D01*
X124377782Y-107900718D01*
X124377777Y-107900714D01*
X124377776Y-107900713D01*
X124252343Y-107804465D01*
X124252341Y-107804463D01*
X124106266Y-107743957D01*
X124106267Y-107743957D01*
X124106263Y-107743956D01*
X124106262Y-107743956D01*
X123949500Y-107723318D01*
X123792738Y-107743956D01*
X123792737Y-107743956D01*
X123792732Y-107743957D01*
X123646658Y-107804463D01*
X123646656Y-107804465D01*
X123521223Y-107900713D01*
X123521213Y-107900723D01*
X123424965Y-108026156D01*
X123424963Y-108026158D01*
X123364457Y-108172232D01*
X123343818Y-108329000D01*
X122703000Y-108329000D01*
X122703000Y-106296999D01*
X123470818Y-106296999D01*
X123491457Y-106453767D01*
X123551963Y-106599841D01*
X123551965Y-106599843D01*
X123648213Y-106725276D01*
X123648218Y-106725282D01*
X123648222Y-106725285D01*
X123648223Y-106725286D01*
X123773656Y-106821534D01*
X123773658Y-106821536D01*
X123919733Y-106882042D01*
X123919738Y-106882044D01*
X124076500Y-106902682D01*
X124233262Y-106882044D01*
X124379341Y-106821536D01*
X124504782Y-106725282D01*
X124601036Y-106599841D01*
X124661544Y-106453762D01*
X124682182Y-106297000D01*
X124661544Y-106140238D01*
X124601036Y-105994159D01*
X124601036Y-105994158D01*
X124601034Y-105994156D01*
X124504786Y-105868723D01*
X124504785Y-105868722D01*
X124504782Y-105868718D01*
X124504777Y-105868714D01*
X124504776Y-105868713D01*
X124379343Y-105772465D01*
X124379341Y-105772463D01*
X124233266Y-105711957D01*
X124233267Y-105711957D01*
X124233263Y-105711956D01*
X124233262Y-105711956D01*
X124076500Y-105691318D01*
X123919738Y-105711956D01*
X123919737Y-105711956D01*
X123919732Y-105711957D01*
X123773658Y-105772463D01*
X123773656Y-105772465D01*
X123648223Y-105868713D01*
X123648213Y-105868723D01*
X123551965Y-105994156D01*
X123551963Y-105994158D01*
X123491457Y-106140232D01*
X123470818Y-106296999D01*
X122703000Y-106296999D01*
X122703000Y-104265000D01*
X123420018Y-104265000D01*
X123430512Y-104344713D01*
X123440657Y-104421767D01*
X123501163Y-104567841D01*
X123501165Y-104567843D01*
X123538300Y-104616238D01*
X123597418Y-104693282D01*
X123597422Y-104693285D01*
X123597423Y-104693286D01*
X123722856Y-104789534D01*
X123722858Y-104789536D01*
X123868933Y-104850042D01*
X123868938Y-104850044D01*
X124025700Y-104870682D01*
X124182462Y-104850044D01*
X124328541Y-104789536D01*
X124350092Y-104772999D01*
X146584818Y-104772999D01*
X146605457Y-104929767D01*
X146665963Y-105075841D01*
X146665965Y-105075843D01*
X146762213Y-105201276D01*
X146762218Y-105201282D01*
X146762222Y-105201285D01*
X146762223Y-105201286D01*
X146887656Y-105297534D01*
X146887658Y-105297536D01*
X147033733Y-105358042D01*
X147033738Y-105358044D01*
X147190500Y-105378682D01*
X147347262Y-105358044D01*
X147493341Y-105297536D01*
X147618782Y-105201282D01*
X147715036Y-105075841D01*
X147775544Y-104929762D01*
X147796182Y-104773000D01*
X147775544Y-104616238D01*
X147755498Y-104567843D01*
X147715036Y-104470158D01*
X147715034Y-104470156D01*
X147618786Y-104344723D01*
X147618785Y-104344722D01*
X147618782Y-104344718D01*
X147618777Y-104344714D01*
X147618776Y-104344713D01*
X147534444Y-104280003D01*
X162117817Y-104280003D01*
X162136480Y-104421767D01*
X162138456Y-104436770D01*
X162198962Y-104582844D01*
X162198964Y-104582846D01*
X162295212Y-104708279D01*
X162295217Y-104708285D01*
X162295221Y-104708288D01*
X162295222Y-104708289D01*
X162420655Y-104804537D01*
X162420657Y-104804539D01*
X162566732Y-104865045D01*
X162566737Y-104865047D01*
X162723499Y-104885685D01*
X162880261Y-104865047D01*
X162916482Y-104850044D01*
X163026340Y-104804539D01*
X163151781Y-104708285D01*
X163248035Y-104582844D01*
X163308543Y-104436765D01*
X163329181Y-104280003D01*
X163308543Y-104123241D01*
X163302326Y-104108232D01*
X163248035Y-103977161D01*
X163248033Y-103977159D01*
X163151785Y-103851726D01*
X163151784Y-103851725D01*
X163151781Y-103851721D01*
X163151776Y-103851717D01*
X163151775Y-103851716D01*
X163026342Y-103755468D01*
X163026340Y-103755466D01*
X162880265Y-103694960D01*
X162880266Y-103694960D01*
X162880262Y-103694959D01*
X162880261Y-103694959D01*
X162723499Y-103674321D01*
X162566737Y-103694959D01*
X162566736Y-103694959D01*
X162566731Y-103694960D01*
X162420657Y-103755466D01*
X162420655Y-103755468D01*
X162295222Y-103851716D01*
X162295212Y-103851726D01*
X162198964Y-103977159D01*
X162198962Y-103977161D01*
X162138456Y-104123235D01*
X162138455Y-104123240D01*
X162138455Y-104123241D01*
X162117817Y-104280003D01*
X147534444Y-104280003D01*
X147493343Y-104248465D01*
X147493341Y-104248463D01*
X147347266Y-104187957D01*
X147347267Y-104187957D01*
X147347263Y-104187956D01*
X147347262Y-104187956D01*
X147190500Y-104167318D01*
X147190499Y-104167318D01*
X147130106Y-104175268D01*
X147033738Y-104187956D01*
X147033737Y-104187956D01*
X147033732Y-104187957D01*
X146887658Y-104248463D01*
X146887656Y-104248465D01*
X146762223Y-104344713D01*
X146762213Y-104344723D01*
X146665965Y-104470156D01*
X146665963Y-104470158D01*
X146605457Y-104616232D01*
X146605456Y-104616237D01*
X146605456Y-104616238D01*
X146593339Y-104708279D01*
X146584818Y-104772999D01*
X124350092Y-104772999D01*
X124453982Y-104693282D01*
X124550236Y-104567841D01*
X124590699Y-104470156D01*
X124610742Y-104421767D01*
X124610742Y-104421766D01*
X124610744Y-104421762D01*
X124631382Y-104265000D01*
X124610744Y-104108238D01*
X124556450Y-103977162D01*
X124550236Y-103962158D01*
X124550234Y-103962156D01*
X124453986Y-103836723D01*
X124453985Y-103836722D01*
X124453982Y-103836718D01*
X124453977Y-103836714D01*
X124453976Y-103836713D01*
X124328543Y-103740465D01*
X124328541Y-103740463D01*
X124182466Y-103679957D01*
X124182467Y-103679957D01*
X124182463Y-103679956D01*
X124182462Y-103679956D01*
X124025700Y-103659318D01*
X123868938Y-103679956D01*
X123868937Y-103679956D01*
X123868932Y-103679957D01*
X123722858Y-103740463D01*
X123722856Y-103740465D01*
X123597423Y-103836713D01*
X123597413Y-103836723D01*
X123501165Y-103962156D01*
X123501163Y-103962158D01*
X123440657Y-104108232D01*
X123440656Y-104108237D01*
X123440656Y-104108238D01*
X123420018Y-104265000D01*
X122703000Y-104265000D01*
X122703000Y-102232999D01*
X123369218Y-102232999D01*
X123389857Y-102389767D01*
X123450363Y-102535841D01*
X123450365Y-102535843D01*
X123546613Y-102661276D01*
X123546618Y-102661282D01*
X123546622Y-102661285D01*
X123546623Y-102661286D01*
X123672056Y-102757534D01*
X123672058Y-102757536D01*
X123818133Y-102818042D01*
X123818138Y-102818044D01*
X123974900Y-102838682D01*
X124131662Y-102818044D01*
X124277741Y-102757536D01*
X124403182Y-102661282D01*
X124499436Y-102535841D01*
X124559944Y-102389762D01*
X124580582Y-102233000D01*
X124559944Y-102076238D01*
X124499436Y-101930159D01*
X124499436Y-101930158D01*
X124499434Y-101930156D01*
X124403186Y-101804723D01*
X124403185Y-101804722D01*
X124403182Y-101804718D01*
X124403177Y-101804714D01*
X124403176Y-101804713D01*
X124277743Y-101708465D01*
X124277741Y-101708463D01*
X124131666Y-101647957D01*
X124131667Y-101647957D01*
X124131663Y-101647956D01*
X124131662Y-101647956D01*
X123974900Y-101627318D01*
X123818138Y-101647956D01*
X123818137Y-101647956D01*
X123818132Y-101647957D01*
X123672058Y-101708463D01*
X123672056Y-101708465D01*
X123546623Y-101804713D01*
X123546613Y-101804723D01*
X123450365Y-101930156D01*
X123450363Y-101930158D01*
X123389857Y-102076232D01*
X123369218Y-102232999D01*
X122703000Y-102232999D01*
X122703000Y-100073999D01*
X128042818Y-100073999D01*
X128063457Y-100230767D01*
X128123963Y-100376841D01*
X128123965Y-100376843D01*
X128220213Y-100502276D01*
X128220218Y-100502282D01*
X128220222Y-100502285D01*
X128220223Y-100502286D01*
X128345656Y-100598534D01*
X128345658Y-100598536D01*
X128491733Y-100659042D01*
X128491738Y-100659044D01*
X128648500Y-100679682D01*
X128805262Y-100659044D01*
X128951341Y-100598536D01*
X129076782Y-100502282D01*
X129173036Y-100376841D01*
X129233544Y-100230762D01*
X129254182Y-100074000D01*
X129233544Y-99917238D01*
X129173036Y-99771159D01*
X129173036Y-99771158D01*
X129173034Y-99771156D01*
X129076786Y-99645723D01*
X129076785Y-99645722D01*
X129076782Y-99645718D01*
X129076777Y-99645714D01*
X129076776Y-99645713D01*
X128951343Y-99549465D01*
X128951341Y-99549463D01*
X128805266Y-99488957D01*
X128805267Y-99488957D01*
X128805263Y-99488956D01*
X128805262Y-99488956D01*
X128648500Y-99468318D01*
X128491738Y-99488956D01*
X128491737Y-99488956D01*
X128491732Y-99488957D01*
X128345658Y-99549463D01*
X128345656Y-99549465D01*
X128220223Y-99645713D01*
X128220213Y-99645723D01*
X128123965Y-99771156D01*
X128123963Y-99771158D01*
X128063457Y-99917232D01*
X128042818Y-100073999D01*
X122703000Y-100073999D01*
X122703000Y-98477947D01*
X145750766Y-98477947D01*
X145771405Y-98634715D01*
X145831911Y-98780789D01*
X145831913Y-98780791D01*
X145908840Y-98881044D01*
X145928166Y-98906230D01*
X145928170Y-98906233D01*
X145928171Y-98906234D01*
X146053604Y-99002482D01*
X146053606Y-99002484D01*
X146199681Y-99062990D01*
X146199686Y-99062992D01*
X146356448Y-99083630D01*
X146513210Y-99062992D01*
X146659289Y-99002484D01*
X146784730Y-98906230D01*
X146880984Y-98780789D01*
X146886974Y-98766327D01*
X146928100Y-98721443D01*
X146988459Y-98713494D01*
X147023379Y-98729777D01*
X147141656Y-98820534D01*
X147141658Y-98820536D01*
X147287733Y-98881042D01*
X147287738Y-98881044D01*
X147444500Y-98901682D01*
X147601262Y-98881044D01*
X147747341Y-98820536D01*
X147872782Y-98724282D01*
X147969036Y-98598841D01*
X148029544Y-98452762D01*
X148050182Y-98296000D01*
X148043249Y-98243336D01*
X150424000Y-98243336D01*
X150436990Y-98321186D01*
X150464929Y-98488614D01*
X150545672Y-98723810D01*
X150545673Y-98723813D01*
X150545674Y-98723814D01*
X150644389Y-98906224D01*
X150664026Y-98942509D01*
X150757800Y-99062990D01*
X150816761Y-99138743D01*
X150999712Y-99307163D01*
X151199561Y-99437729D01*
X151207893Y-99443173D01*
X151435619Y-99543063D01*
X151676679Y-99604108D01*
X151862433Y-99619500D01*
X151986567Y-99619500D01*
X152172321Y-99604108D01*
X152413381Y-99543063D01*
X152641107Y-99443173D01*
X152849285Y-99307164D01*
X152849286Y-99307163D01*
X152849287Y-99307163D01*
X152932869Y-99230219D01*
X153032238Y-99138744D01*
X153184974Y-98942509D01*
X153303328Y-98723810D01*
X153384071Y-98488614D01*
X153425000Y-98243335D01*
X153425000Y-97994665D01*
X153384071Y-97749386D01*
X153303328Y-97514190D01*
X153245320Y-97407000D01*
X160300818Y-97407000D01*
X160321457Y-97563767D01*
X160381963Y-97709841D01*
X160381965Y-97709843D01*
X160478213Y-97835276D01*
X160478218Y-97835282D01*
X160478222Y-97835285D01*
X160478223Y-97835286D01*
X160603656Y-97931534D01*
X160603658Y-97931536D01*
X160749733Y-97992042D01*
X160749738Y-97992044D01*
X160906500Y-98012682D01*
X161063262Y-97992044D01*
X161209341Y-97931536D01*
X161334782Y-97835282D01*
X161431036Y-97709841D01*
X161491544Y-97563762D01*
X161512182Y-97407000D01*
X161491544Y-97250238D01*
X161431036Y-97104159D01*
X161431036Y-97104158D01*
X161431034Y-97104156D01*
X161334786Y-96978723D01*
X161334785Y-96978722D01*
X161334782Y-96978718D01*
X161334777Y-96978714D01*
X161334776Y-96978713D01*
X161209343Y-96882465D01*
X161209341Y-96882463D01*
X161063266Y-96821957D01*
X161063267Y-96821957D01*
X161063263Y-96821956D01*
X161063262Y-96821956D01*
X160906500Y-96801318D01*
X160906499Y-96801318D01*
X160846106Y-96809268D01*
X160749738Y-96821956D01*
X160749737Y-96821956D01*
X160749732Y-96821957D01*
X160603658Y-96882463D01*
X160603656Y-96882465D01*
X160478223Y-96978713D01*
X160478213Y-96978723D01*
X160381965Y-97104156D01*
X160381963Y-97104158D01*
X160321457Y-97250232D01*
X160321456Y-97250237D01*
X160321456Y-97250238D01*
X160315498Y-97295495D01*
X160300818Y-97407000D01*
X153245320Y-97407000D01*
X153184974Y-97295491D01*
X153032238Y-97099256D01*
X152849287Y-96930836D01*
X152641109Y-96794828D01*
X152641107Y-96794827D01*
X152413381Y-96694937D01*
X152413376Y-96694935D01*
X152413375Y-96694935D01*
X152172318Y-96633891D01*
X151986567Y-96618500D01*
X151862433Y-96618500D01*
X151676682Y-96633891D01*
X151676681Y-96633891D01*
X151435624Y-96694935D01*
X151435621Y-96694936D01*
X151435619Y-96694937D01*
X151207893Y-96794827D01*
X151207891Y-96794828D01*
X151207890Y-96794828D01*
X150999713Y-96930836D01*
X150999712Y-96930836D01*
X150816761Y-97099256D01*
X150664023Y-97295495D01*
X150664022Y-97295497D01*
X150545674Y-97514185D01*
X150464930Y-97749382D01*
X150464928Y-97749388D01*
X150424000Y-97994663D01*
X150424000Y-98243336D01*
X148043249Y-98243336D01*
X148029544Y-98139238D01*
X147992444Y-98049671D01*
X147969036Y-97993158D01*
X147969034Y-97993156D01*
X147872786Y-97867723D01*
X147872785Y-97867722D01*
X147872782Y-97867718D01*
X147872777Y-97867714D01*
X147872776Y-97867713D01*
X147747343Y-97771465D01*
X147747341Y-97771463D01*
X147601266Y-97710957D01*
X147601267Y-97710957D01*
X147601263Y-97710956D01*
X147601262Y-97710956D01*
X147444500Y-97690318D01*
X147287738Y-97710956D01*
X147287737Y-97710956D01*
X147287732Y-97710957D01*
X147141658Y-97771463D01*
X147141656Y-97771465D01*
X147016223Y-97867713D01*
X147016213Y-97867723D01*
X146919965Y-97993156D01*
X146919964Y-97993156D01*
X146913973Y-98007622D01*
X146872842Y-98052507D01*
X146812483Y-98060452D01*
X146777568Y-98044170D01*
X146659292Y-97953413D01*
X146659289Y-97953411D01*
X146513214Y-97892905D01*
X146513215Y-97892905D01*
X146513211Y-97892904D01*
X146513210Y-97892904D01*
X146356448Y-97872266D01*
X146199686Y-97892904D01*
X146199685Y-97892904D01*
X146199680Y-97892905D01*
X146053606Y-97953411D01*
X146053604Y-97953413D01*
X145928171Y-98049661D01*
X145928161Y-98049671D01*
X145831913Y-98175104D01*
X145831911Y-98175106D01*
X145771405Y-98321180D01*
X145750766Y-98477947D01*
X122703000Y-98477947D01*
X122703000Y-94485999D01*
X133249818Y-94485999D01*
X133270457Y-94642767D01*
X133330963Y-94788841D01*
X133330965Y-94788843D01*
X133427213Y-94914276D01*
X133427218Y-94914282D01*
X133427222Y-94914285D01*
X133427223Y-94914286D01*
X133552656Y-95010534D01*
X133552658Y-95010536D01*
X133698733Y-95071042D01*
X133698738Y-95071044D01*
X133855500Y-95091682D01*
X134012262Y-95071044D01*
X134158341Y-95010536D01*
X134283782Y-94914282D01*
X134380036Y-94788841D01*
X134440544Y-94642762D01*
X134461182Y-94486000D01*
X138075818Y-94486000D01*
X138096457Y-94642767D01*
X138156963Y-94788841D01*
X138156965Y-94788843D01*
X138253213Y-94914276D01*
X138253218Y-94914282D01*
X138253222Y-94914285D01*
X138253223Y-94914286D01*
X138378656Y-95010534D01*
X138378658Y-95010536D01*
X138524733Y-95071042D01*
X138524738Y-95071044D01*
X138681500Y-95091682D01*
X138838262Y-95071044D01*
X138984341Y-95010536D01*
X139109782Y-94914282D01*
X139206036Y-94788841D01*
X139266544Y-94642762D01*
X139287182Y-94486000D01*
X139266544Y-94329238D01*
X139238594Y-94261762D01*
X139206036Y-94183158D01*
X139206034Y-94183156D01*
X139146063Y-94105000D01*
X159030818Y-94105000D01*
X159041107Y-94183156D01*
X159051457Y-94261767D01*
X159111963Y-94407841D01*
X159111965Y-94407843D01*
X159171937Y-94486000D01*
X159208218Y-94533282D01*
X159208222Y-94533285D01*
X159208223Y-94533286D01*
X159333656Y-94629534D01*
X159333658Y-94629536D01*
X159479733Y-94690042D01*
X159479738Y-94690044D01*
X159636500Y-94710682D01*
X159793262Y-94690044D01*
X159939341Y-94629536D01*
X160064782Y-94533282D01*
X160161036Y-94407841D01*
X160221542Y-94261767D01*
X160221542Y-94261766D01*
X160221544Y-94261762D01*
X160242182Y-94105000D01*
X160221544Y-93948238D01*
X160201959Y-93900956D01*
X160161036Y-93802158D01*
X160161034Y-93802156D01*
X160064786Y-93676723D01*
X160064785Y-93676722D01*
X160064782Y-93676718D01*
X160064777Y-93676714D01*
X160064776Y-93676713D01*
X159939343Y-93580465D01*
X159939341Y-93580463D01*
X159793266Y-93519957D01*
X159793267Y-93519957D01*
X159793263Y-93519956D01*
X159793262Y-93519956D01*
X159636500Y-93499318D01*
X159479738Y-93519956D01*
X159479737Y-93519956D01*
X159479732Y-93519957D01*
X159333658Y-93580463D01*
X159333656Y-93580465D01*
X159208223Y-93676713D01*
X159208213Y-93676723D01*
X159111965Y-93802156D01*
X159111963Y-93802158D01*
X159051457Y-93948232D01*
X159051456Y-93948237D01*
X159051456Y-93948238D01*
X159030818Y-94105000D01*
X139146063Y-94105000D01*
X139109786Y-94057723D01*
X139109785Y-94057722D01*
X139109782Y-94057718D01*
X139109777Y-94057714D01*
X139109776Y-94057713D01*
X138984343Y-93961465D01*
X138984341Y-93961463D01*
X138838266Y-93900957D01*
X138838267Y-93900957D01*
X138838263Y-93900956D01*
X138838262Y-93900956D01*
X138681500Y-93880318D01*
X138524738Y-93900956D01*
X138524737Y-93900956D01*
X138524732Y-93900957D01*
X138378658Y-93961463D01*
X138378656Y-93961465D01*
X138253223Y-94057713D01*
X138253213Y-94057723D01*
X138156965Y-94183156D01*
X138156963Y-94183158D01*
X138096457Y-94329232D01*
X138075818Y-94486000D01*
X134461182Y-94486000D01*
X134440544Y-94329238D01*
X134412594Y-94261762D01*
X134380036Y-94183158D01*
X134380034Y-94183156D01*
X134283786Y-94057723D01*
X134283785Y-94057722D01*
X134283782Y-94057718D01*
X134283777Y-94057714D01*
X134283776Y-94057713D01*
X134158343Y-93961465D01*
X134158341Y-93961463D01*
X134012266Y-93900957D01*
X134012267Y-93900957D01*
X134012263Y-93900956D01*
X134012262Y-93900956D01*
X133855500Y-93880318D01*
X133855499Y-93880318D01*
X133795106Y-93888268D01*
X133698738Y-93900956D01*
X133698737Y-93900956D01*
X133698732Y-93900957D01*
X133552658Y-93961463D01*
X133552656Y-93961465D01*
X133427223Y-94057713D01*
X133427213Y-94057723D01*
X133330965Y-94183156D01*
X133330963Y-94183158D01*
X133270457Y-94329232D01*
X133249818Y-94485999D01*
X122703000Y-94485999D01*
X122703000Y-91818999D01*
X145441818Y-91818999D01*
X145462457Y-91975767D01*
X145522963Y-92121841D01*
X145522965Y-92121843D01*
X145619213Y-92247276D01*
X145619218Y-92247282D01*
X145619222Y-92247285D01*
X145619223Y-92247286D01*
X145744656Y-92343534D01*
X145744658Y-92343536D01*
X145890733Y-92404042D01*
X145890738Y-92404044D01*
X146047500Y-92424682D01*
X146204262Y-92404044D01*
X146350341Y-92343536D01*
X146475782Y-92247282D01*
X146572036Y-92121841D01*
X146632544Y-91975762D01*
X146648799Y-91852285D01*
X146676910Y-91798286D01*
X146733156Y-91774989D01*
X146748650Y-91775665D01*
X146815723Y-91784496D01*
X146972485Y-91763858D01*
X146986278Y-91758145D01*
X147118564Y-91703350D01*
X147244005Y-91607096D01*
X147340259Y-91481655D01*
X147340259Y-91481654D01*
X147400765Y-91335581D01*
X147400765Y-91335580D01*
X147400767Y-91335576D01*
X147421405Y-91178814D01*
X147400767Y-91022052D01*
X147397714Y-91014682D01*
X147340259Y-90875972D01*
X147340257Y-90875970D01*
X147244009Y-90750537D01*
X147244008Y-90750536D01*
X147244005Y-90750532D01*
X147244000Y-90750528D01*
X147243999Y-90750527D01*
X147118566Y-90654279D01*
X147118564Y-90654277D01*
X146972489Y-90593771D01*
X146972490Y-90593771D01*
X146972486Y-90593770D01*
X146972485Y-90593770D01*
X146815723Y-90573132D01*
X146815722Y-90573132D01*
X146755329Y-90581082D01*
X146658961Y-90593770D01*
X146658960Y-90593770D01*
X146658955Y-90593771D01*
X146512881Y-90654277D01*
X146512879Y-90654279D01*
X146387446Y-90750527D01*
X146387436Y-90750537D01*
X146291188Y-90875970D01*
X146291186Y-90875972D01*
X146230680Y-91022047D01*
X146230679Y-91022050D01*
X146230679Y-91022052D01*
X146223436Y-91077065D01*
X146214423Y-91145526D01*
X146186311Y-91199527D01*
X146130065Y-91222824D01*
X146114572Y-91222148D01*
X146047500Y-91213318D01*
X145890738Y-91233956D01*
X145890737Y-91233956D01*
X145890732Y-91233957D01*
X145744658Y-91294463D01*
X145744656Y-91294465D01*
X145619223Y-91390713D01*
X145619213Y-91390723D01*
X145522965Y-91516156D01*
X145522963Y-91516158D01*
X145462457Y-91662232D01*
X145462456Y-91662237D01*
X145462456Y-91662238D01*
X145451471Y-91745681D01*
X145441818Y-91818999D01*
X122703000Y-91818999D01*
X122703000Y-91140000D01*
X140052795Y-91140000D01*
X140073130Y-91294464D01*
X140073434Y-91296767D01*
X140133940Y-91442841D01*
X140133942Y-91442843D01*
X140230190Y-91568276D01*
X140230195Y-91568282D01*
X140230199Y-91568285D01*
X140230200Y-91568286D01*
X140355633Y-91664534D01*
X140355635Y-91664536D01*
X140501710Y-91725042D01*
X140501715Y-91725044D01*
X140658477Y-91745682D01*
X140815239Y-91725044D01*
X140961318Y-91664536D01*
X141086759Y-91568282D01*
X141183013Y-91442841D01*
X141243521Y-91296762D01*
X141264159Y-91140000D01*
X141243521Y-90983238D01*
X141202318Y-90883766D01*
X141183013Y-90837158D01*
X141183011Y-90837156D01*
X141086763Y-90711723D01*
X141086762Y-90711722D01*
X141086759Y-90711718D01*
X141052731Y-90685607D01*
X141020021Y-90634264D01*
X141027967Y-90573905D01*
X141043008Y-90555979D01*
X149998543Y-90555979D01*
X150019046Y-90711718D01*
X150019182Y-90712746D01*
X150079688Y-90858820D01*
X150079690Y-90858822D01*
X150175153Y-90983232D01*
X150175943Y-90984261D01*
X150175947Y-90984264D01*
X150175948Y-90984265D01*
X150301381Y-91080513D01*
X150301383Y-91080515D01*
X150447458Y-91141021D01*
X150447463Y-91141023D01*
X150604225Y-91161661D01*
X150760987Y-91141023D01*
X150907066Y-91080515D01*
X151032507Y-90984261D01*
X151128761Y-90858820D01*
X151183363Y-90726999D01*
X158192817Y-90726999D01*
X158212429Y-90875970D01*
X158213456Y-90883766D01*
X158273962Y-91029840D01*
X158273964Y-91029842D01*
X158370212Y-91155275D01*
X158370217Y-91155281D01*
X158370221Y-91155284D01*
X158370222Y-91155285D01*
X158495655Y-91251533D01*
X158495657Y-91251535D01*
X158641732Y-91312041D01*
X158641737Y-91312043D01*
X158798499Y-91332681D01*
X158955261Y-91312043D01*
X158992141Y-91296767D01*
X159101340Y-91251535D01*
X159226781Y-91155281D01*
X159323035Y-91029840D01*
X159357542Y-90946534D01*
X159383541Y-90883766D01*
X159383541Y-90883765D01*
X159383543Y-90883761D01*
X159404181Y-90726999D01*
X159383543Y-90570237D01*
X159381691Y-90565767D01*
X159323035Y-90424157D01*
X159323033Y-90424155D01*
X159226785Y-90298722D01*
X159226784Y-90298721D01*
X159226781Y-90298717D01*
X159226776Y-90298713D01*
X159226775Y-90298712D01*
X159101342Y-90202464D01*
X159101340Y-90202462D01*
X158955265Y-90141956D01*
X158955266Y-90141956D01*
X158955262Y-90141955D01*
X158955261Y-90141955D01*
X158798499Y-90121317D01*
X158641737Y-90141955D01*
X158641736Y-90141955D01*
X158641731Y-90141956D01*
X158495657Y-90202462D01*
X158495655Y-90202464D01*
X158370222Y-90298712D01*
X158370212Y-90298722D01*
X158273964Y-90424155D01*
X158273962Y-90424157D01*
X158213456Y-90570231D01*
X158213455Y-90570236D01*
X158213455Y-90570237D01*
X158192817Y-90726999D01*
X151183363Y-90726999D01*
X151189269Y-90712741D01*
X151209907Y-90555979D01*
X151189269Y-90399217D01*
X151147640Y-90298717D01*
X151128761Y-90253137D01*
X151128759Y-90253135D01*
X151032511Y-90127702D01*
X151032510Y-90127701D01*
X151032507Y-90127697D01*
X151032502Y-90127693D01*
X151032501Y-90127692D01*
X150907068Y-90031444D01*
X150907066Y-90031442D01*
X150760991Y-89970936D01*
X150760992Y-89970936D01*
X150760988Y-89970935D01*
X150760987Y-89970935D01*
X150604225Y-89950297D01*
X150604224Y-89950297D01*
X150543831Y-89958247D01*
X150447463Y-89970935D01*
X150447462Y-89970935D01*
X150447457Y-89970936D01*
X150301383Y-90031442D01*
X150301381Y-90031444D01*
X150175948Y-90127692D01*
X150175938Y-90127702D01*
X150079690Y-90253135D01*
X150079688Y-90253137D01*
X150019182Y-90399211D01*
X150019181Y-90399216D01*
X150019181Y-90399217D01*
X149998543Y-90555979D01*
X141043008Y-90555979D01*
X141052730Y-90544393D01*
X141086759Y-90518282D01*
X141183013Y-90392841D01*
X141221998Y-90298722D01*
X141243519Y-90246767D01*
X141243519Y-90246766D01*
X141243521Y-90246762D01*
X141264159Y-90090000D01*
X141243521Y-89933238D01*
X141228703Y-89897465D01*
X141183013Y-89787158D01*
X141183011Y-89787156D01*
X141086763Y-89661723D01*
X141086762Y-89661722D01*
X141086759Y-89661718D01*
X141086754Y-89661714D01*
X141086753Y-89661713D01*
X140961320Y-89565465D01*
X140961318Y-89565463D01*
X140815243Y-89504957D01*
X140815244Y-89504957D01*
X140815240Y-89504956D01*
X140815239Y-89504956D01*
X140658477Y-89484318D01*
X140658476Y-89484318D01*
X140598083Y-89492268D01*
X140501715Y-89504956D01*
X140501714Y-89504956D01*
X140501709Y-89504957D01*
X140355635Y-89565463D01*
X140355633Y-89565465D01*
X140230200Y-89661713D01*
X140230190Y-89661723D01*
X140133942Y-89787156D01*
X140133940Y-89787158D01*
X140073434Y-89933232D01*
X140073433Y-89933237D01*
X140073433Y-89933238D01*
X140052795Y-90090000D01*
X140056633Y-90119156D01*
X140073434Y-90246767D01*
X140133940Y-90392841D01*
X140133942Y-90392843D01*
X140157971Y-90424158D01*
X140230195Y-90518282D01*
X140230198Y-90518284D01*
X140264222Y-90544392D01*
X140296932Y-90595738D01*
X140288984Y-90656097D01*
X140264222Y-90685608D01*
X140230197Y-90711716D01*
X140230190Y-90711723D01*
X140133942Y-90837156D01*
X140133940Y-90837158D01*
X140073434Y-90983232D01*
X140073433Y-90983237D01*
X140073433Y-90983238D01*
X140052795Y-91140000D01*
X122703000Y-91140000D01*
X122703000Y-90409000D01*
X130569818Y-90409000D01*
X130587642Y-90544391D01*
X130590457Y-90565767D01*
X130650963Y-90711841D01*
X130650965Y-90711843D01*
X130747213Y-90837276D01*
X130747218Y-90837282D01*
X130747222Y-90837285D01*
X130747223Y-90837286D01*
X130872656Y-90933534D01*
X130872658Y-90933536D01*
X131018733Y-90994042D01*
X131018738Y-90994044D01*
X131175500Y-91014682D01*
X131332262Y-90994044D01*
X131358365Y-90983232D01*
X131478341Y-90933536D01*
X131603782Y-90837282D01*
X131700036Y-90711841D01*
X131723880Y-90654277D01*
X131760542Y-90565767D01*
X131760542Y-90565766D01*
X131760544Y-90565762D01*
X131779471Y-90422000D01*
X134711818Y-90422000D01*
X134732457Y-90578767D01*
X134792963Y-90724841D01*
X134792965Y-90724843D01*
X134889213Y-90850276D01*
X134889218Y-90850282D01*
X134889222Y-90850285D01*
X134889223Y-90850286D01*
X135014656Y-90946534D01*
X135014658Y-90946536D01*
X135160733Y-91007042D01*
X135160738Y-91007044D01*
X135317500Y-91027682D01*
X135474262Y-91007044D01*
X135529280Y-90984255D01*
X135620341Y-90946536D01*
X135745782Y-90850282D01*
X135842036Y-90724841D01*
X135896327Y-90593771D01*
X135902542Y-90578767D01*
X135902542Y-90578766D01*
X135902544Y-90578762D01*
X135923182Y-90422000D01*
X135902544Y-90265238D01*
X135897159Y-90252238D01*
X135842036Y-90119158D01*
X135842034Y-90119156D01*
X135745786Y-89993723D01*
X135745785Y-89993722D01*
X135745782Y-89993718D01*
X135745777Y-89993714D01*
X135745776Y-89993713D01*
X135620343Y-89897465D01*
X135620341Y-89897463D01*
X135474266Y-89836957D01*
X135474267Y-89836957D01*
X135474263Y-89836956D01*
X135474262Y-89836956D01*
X135317500Y-89816318D01*
X135160738Y-89836956D01*
X135160737Y-89836956D01*
X135160732Y-89836957D01*
X135014658Y-89897463D01*
X135014656Y-89897465D01*
X134889223Y-89993713D01*
X134889213Y-89993723D01*
X134792965Y-90119156D01*
X134792963Y-90119158D01*
X134732457Y-90265232D01*
X134732456Y-90265237D01*
X134732456Y-90265238D01*
X134728048Y-90298722D01*
X134711818Y-90422000D01*
X131779471Y-90422000D01*
X131781182Y-90409000D01*
X131760544Y-90252238D01*
X131739926Y-90202463D01*
X131700036Y-90106158D01*
X131700034Y-90106156D01*
X131603786Y-89980723D01*
X131603785Y-89980722D01*
X131603782Y-89980718D01*
X131603777Y-89980714D01*
X131603776Y-89980713D01*
X131478343Y-89884465D01*
X131478341Y-89884463D01*
X131332266Y-89823957D01*
X131332267Y-89823957D01*
X131332263Y-89823956D01*
X131332262Y-89823956D01*
X131175500Y-89803318D01*
X131018738Y-89823956D01*
X131018737Y-89823956D01*
X131018732Y-89823957D01*
X130872658Y-89884463D01*
X130872656Y-89884465D01*
X130747223Y-89980713D01*
X130747213Y-89980723D01*
X130650965Y-90106156D01*
X130650963Y-90106158D01*
X130590457Y-90252232D01*
X130590456Y-90252237D01*
X130590456Y-90252238D01*
X130569818Y-90409000D01*
X122703000Y-90409000D01*
X122703000Y-88263000D01*
X146330818Y-88263000D01*
X146338766Y-88323375D01*
X146351457Y-88419767D01*
X146411963Y-88565841D01*
X146411965Y-88565843D01*
X146438942Y-88601000D01*
X146508218Y-88691282D01*
X146508222Y-88691285D01*
X146508223Y-88691286D01*
X146633656Y-88787534D01*
X146633658Y-88787536D01*
X146779733Y-88848042D01*
X146779738Y-88848044D01*
X146936500Y-88868682D01*
X147093262Y-88848044D01*
X147239341Y-88787536D01*
X147364782Y-88691282D01*
X147434057Y-88601001D01*
X171357251Y-88601001D01*
X171376171Y-88744710D01*
X171376171Y-88744712D01*
X171376172Y-88744713D01*
X171431639Y-88878626D01*
X171431641Y-88878628D01*
X171519875Y-88993616D01*
X171519880Y-88993622D01*
X171519884Y-88993625D01*
X171519885Y-88993626D01*
X171634873Y-89081860D01*
X171634875Y-89081862D01*
X171708111Y-89112196D01*
X171768792Y-89137331D01*
X171912501Y-89156251D01*
X172056210Y-89137331D01*
X172190126Y-89081862D01*
X172305122Y-88993622D01*
X172393362Y-88878626D01*
X172448831Y-88744710D01*
X172467751Y-88601001D01*
X172448831Y-88457292D01*
X172393362Y-88323376D01*
X172393362Y-88323375D01*
X172393360Y-88323373D01*
X172305126Y-88208385D01*
X172305125Y-88208384D01*
X172305122Y-88208380D01*
X172305117Y-88208376D01*
X172305116Y-88208375D01*
X172190128Y-88120141D01*
X172190126Y-88120139D01*
X172056213Y-88064672D01*
X172056212Y-88064671D01*
X172056210Y-88064671D01*
X171912501Y-88045751D01*
X171912500Y-88045751D01*
X171881228Y-88049868D01*
X171768792Y-88064671D01*
X171768790Y-88064671D01*
X171768788Y-88064672D01*
X171634875Y-88120139D01*
X171634873Y-88120141D01*
X171519885Y-88208375D01*
X171519875Y-88208385D01*
X171431641Y-88323373D01*
X171431639Y-88323375D01*
X171376172Y-88457288D01*
X171376171Y-88457290D01*
X171376171Y-88457292D01*
X171357251Y-88601001D01*
X147434057Y-88601001D01*
X147461036Y-88565841D01*
X147521544Y-88419762D01*
X147542182Y-88263000D01*
X147521544Y-88106238D01*
X147504326Y-88064671D01*
X147461036Y-87960158D01*
X147461034Y-87960156D01*
X147364786Y-87834723D01*
X147364785Y-87834722D01*
X147364782Y-87834718D01*
X147364777Y-87834714D01*
X147364776Y-87834713D01*
X147239343Y-87738465D01*
X147239341Y-87738463D01*
X147093266Y-87677957D01*
X147093267Y-87677957D01*
X147093263Y-87677956D01*
X147093262Y-87677956D01*
X146936500Y-87657318D01*
X146779738Y-87677956D01*
X146779737Y-87677956D01*
X146779732Y-87677957D01*
X146633658Y-87738463D01*
X146633656Y-87738465D01*
X146508223Y-87834713D01*
X146508213Y-87834723D01*
X146411965Y-87960156D01*
X146411963Y-87960158D01*
X146351457Y-88106232D01*
X146351456Y-88106237D01*
X146351456Y-88106238D01*
X146330818Y-88263000D01*
X122703000Y-88263000D01*
X122703000Y-86159000D01*
X134332818Y-86159000D01*
X134353457Y-86315767D01*
X134413963Y-86461841D01*
X134413965Y-86461843D01*
X134510213Y-86587276D01*
X134510218Y-86587282D01*
X134510222Y-86587285D01*
X134510223Y-86587286D01*
X134635656Y-86683534D01*
X134635658Y-86683536D01*
X134781733Y-86744042D01*
X134781738Y-86744044D01*
X134938500Y-86764682D01*
X135095262Y-86744044D01*
X135241341Y-86683536D01*
X135366782Y-86587282D01*
X135463036Y-86461841D01*
X135523544Y-86315762D01*
X135544182Y-86159000D01*
X135523544Y-86002238D01*
X135480071Y-85897286D01*
X135463036Y-85856158D01*
X135463034Y-85856156D01*
X135366786Y-85730723D01*
X135366785Y-85730722D01*
X135366782Y-85730718D01*
X135366777Y-85730714D01*
X135366776Y-85730713D01*
X135241343Y-85634465D01*
X135241341Y-85634463D01*
X135095266Y-85573957D01*
X135095267Y-85573957D01*
X135095263Y-85573956D01*
X135095262Y-85573956D01*
X134938500Y-85553318D01*
X134781738Y-85573956D01*
X134781737Y-85573956D01*
X134781732Y-85573957D01*
X134635658Y-85634463D01*
X134635656Y-85634465D01*
X134510223Y-85730713D01*
X134510213Y-85730723D01*
X134413965Y-85856156D01*
X134413963Y-85856158D01*
X134353457Y-86002232D01*
X134332818Y-86159000D01*
X122703000Y-86159000D01*
X122703000Y-85469000D01*
X131090818Y-85469000D01*
X131111457Y-85625767D01*
X131171963Y-85771841D01*
X131171965Y-85771843D01*
X131236663Y-85856159D01*
X131268218Y-85897282D01*
X131268222Y-85897285D01*
X131268223Y-85897286D01*
X131393656Y-85993534D01*
X131393658Y-85993536D01*
X131539733Y-86054042D01*
X131539738Y-86054044D01*
X131696500Y-86074682D01*
X131853262Y-86054044D01*
X131999341Y-85993536D01*
X132124782Y-85897282D01*
X132221036Y-85771841D01*
X132281544Y-85625762D01*
X132302182Y-85469000D01*
X132281544Y-85312238D01*
X132221036Y-85166159D01*
X132221036Y-85166158D01*
X132221034Y-85166156D01*
X132124786Y-85040723D01*
X132124785Y-85040722D01*
X132124782Y-85040718D01*
X132124777Y-85040714D01*
X132124776Y-85040713D01*
X131999343Y-84944465D01*
X131999341Y-84944463D01*
X131853266Y-84883957D01*
X131853267Y-84883957D01*
X131853263Y-84883956D01*
X131853262Y-84883956D01*
X131696500Y-84863318D01*
X131539738Y-84883956D01*
X131539737Y-84883956D01*
X131539732Y-84883957D01*
X131393658Y-84944463D01*
X131393656Y-84944465D01*
X131268223Y-85040713D01*
X131268213Y-85040723D01*
X131171965Y-85166156D01*
X131171963Y-85166158D01*
X131111457Y-85312232D01*
X131090818Y-85469000D01*
X122703000Y-85469000D01*
X122703000Y-83219000D01*
X132092818Y-83219000D01*
X132113231Y-83374055D01*
X132113457Y-83375767D01*
X132173963Y-83521841D01*
X132173965Y-83521843D01*
X132270213Y-83647276D01*
X132270218Y-83647282D01*
X132270222Y-83647285D01*
X132270223Y-83647286D01*
X132395656Y-83743534D01*
X132395658Y-83743536D01*
X132541733Y-83804042D01*
X132541738Y-83804044D01*
X132698500Y-83824682D01*
X132855262Y-83804044D01*
X133001341Y-83743536D01*
X133126782Y-83647282D01*
X133190686Y-83564000D01*
X154712818Y-83564000D01*
X154723781Y-83647276D01*
X154733457Y-83720767D01*
X154793963Y-83866841D01*
X154793965Y-83866843D01*
X154890213Y-83992276D01*
X154890218Y-83992282D01*
X154890222Y-83992285D01*
X154890223Y-83992286D01*
X155015656Y-84088534D01*
X155015658Y-84088536D01*
X155161733Y-84149042D01*
X155161738Y-84149044D01*
X155318500Y-84169682D01*
X155475262Y-84149044D01*
X155621341Y-84088536D01*
X155746782Y-83992282D01*
X155843036Y-83866841D01*
X155903544Y-83720762D01*
X155924182Y-83564000D01*
X155903544Y-83407238D01*
X155898347Y-83394692D01*
X155843036Y-83261158D01*
X155843034Y-83261156D01*
X155746786Y-83135723D01*
X155746785Y-83135722D01*
X155746782Y-83135718D01*
X155746777Y-83135714D01*
X155746776Y-83135713D01*
X155621343Y-83039465D01*
X155621341Y-83039463D01*
X155475266Y-82978957D01*
X155475267Y-82978957D01*
X155475263Y-82978956D01*
X155475262Y-82978956D01*
X155318500Y-82958318D01*
X155161738Y-82978956D01*
X155161737Y-82978956D01*
X155161732Y-82978957D01*
X155015658Y-83039463D01*
X155015656Y-83039465D01*
X154890223Y-83135713D01*
X154890213Y-83135723D01*
X154793965Y-83261156D01*
X154793963Y-83261158D01*
X154733457Y-83407232D01*
X154733456Y-83407237D01*
X154733456Y-83407238D01*
X154712818Y-83564000D01*
X133190686Y-83564000D01*
X133223036Y-83521841D01*
X133283544Y-83375762D01*
X133285989Y-83357185D01*
X133314097Y-83303187D01*
X133370341Y-83279887D01*
X133428404Y-83298191D01*
X133444835Y-83314622D01*
X133466213Y-83342482D01*
X133466218Y-83342488D01*
X133466222Y-83342491D01*
X133466223Y-83342492D01*
X133591656Y-83438740D01*
X133591658Y-83438742D01*
X133737733Y-83499248D01*
X133737738Y-83499250D01*
X133894500Y-83519888D01*
X134051262Y-83499250D01*
X134197341Y-83438742D01*
X134322782Y-83342488D01*
X134419036Y-83217047D01*
X134479544Y-83070968D01*
X134500182Y-82914206D01*
X134483700Y-82789011D01*
X138456818Y-82789011D01*
X138473557Y-82916159D01*
X138477457Y-82945778D01*
X138537963Y-83091852D01*
X138537965Y-83091854D01*
X138634213Y-83217287D01*
X138634218Y-83217293D01*
X138634222Y-83217296D01*
X138634223Y-83217297D01*
X138759656Y-83313545D01*
X138759658Y-83313547D01*
X138905733Y-83374053D01*
X138905738Y-83374055D01*
X139062500Y-83394693D01*
X139219262Y-83374055D01*
X139365341Y-83313547D01*
X139490782Y-83217293D01*
X139587036Y-83091852D01*
X139647544Y-82945773D01*
X139668182Y-82789011D01*
X139647544Y-82632249D01*
X139638893Y-82611364D01*
X139587036Y-82486169D01*
X139587034Y-82486167D01*
X139537030Y-82421000D01*
X140488818Y-82421000D01*
X140497397Y-82486167D01*
X140509457Y-82577767D01*
X140569963Y-82723841D01*
X140569965Y-82723843D01*
X140666213Y-82849276D01*
X140666218Y-82849282D01*
X140666222Y-82849285D01*
X140666223Y-82849286D01*
X140791656Y-82945534D01*
X140791658Y-82945536D01*
X140937733Y-83006042D01*
X140937738Y-83006044D01*
X141094500Y-83026682D01*
X141251262Y-83006044D01*
X141397341Y-82945536D01*
X141522782Y-82849282D01*
X141619036Y-82723841D01*
X141672287Y-82595282D01*
X141679542Y-82577767D01*
X141679542Y-82577766D01*
X141679544Y-82577762D01*
X141700182Y-82421000D01*
X141679544Y-82264238D01*
X141654579Y-82203968D01*
X141639267Y-82167000D01*
X142774818Y-82167000D01*
X142795457Y-82323767D01*
X142855963Y-82469841D01*
X142855965Y-82469843D01*
X142938774Y-82577762D01*
X142952218Y-82595282D01*
X142952222Y-82595285D01*
X142952223Y-82595286D01*
X143077656Y-82691534D01*
X143077658Y-82691536D01*
X143223733Y-82752042D01*
X143223738Y-82752044D01*
X143380500Y-82772682D01*
X143537262Y-82752044D01*
X143683341Y-82691536D01*
X143808782Y-82595282D01*
X143905036Y-82469841D01*
X143965544Y-82323762D01*
X143986182Y-82167000D01*
X143965544Y-82010238D01*
X143958289Y-81992723D01*
X143905036Y-81864158D01*
X143905034Y-81864156D01*
X143808786Y-81738723D01*
X143808785Y-81738722D01*
X143808782Y-81738718D01*
X143808777Y-81738714D01*
X143808776Y-81738713D01*
X143683343Y-81642465D01*
X143683341Y-81642463D01*
X143537266Y-81581957D01*
X143537267Y-81581957D01*
X143537263Y-81581956D01*
X143537262Y-81581956D01*
X143380500Y-81561318D01*
X143223738Y-81581956D01*
X143223737Y-81581956D01*
X143223732Y-81581957D01*
X143077658Y-81642463D01*
X143077656Y-81642465D01*
X142952223Y-81738713D01*
X142952213Y-81738723D01*
X142855965Y-81864156D01*
X142855963Y-81864158D01*
X142795457Y-82010232D01*
X142774818Y-82167000D01*
X141639267Y-82167000D01*
X141619036Y-82118158D01*
X141619034Y-82118156D01*
X141522786Y-81992723D01*
X141522785Y-81992722D01*
X141522782Y-81992718D01*
X141522777Y-81992714D01*
X141522776Y-81992713D01*
X141397343Y-81896465D01*
X141397341Y-81896463D01*
X141251266Y-81835957D01*
X141251267Y-81835957D01*
X141251263Y-81835956D01*
X141251262Y-81835956D01*
X141094500Y-81815318D01*
X141094499Y-81815318D01*
X141034106Y-81823268D01*
X140937738Y-81835956D01*
X140937737Y-81835956D01*
X140937732Y-81835957D01*
X140791658Y-81896463D01*
X140791656Y-81896465D01*
X140666223Y-81992713D01*
X140666213Y-81992723D01*
X140569965Y-82118156D01*
X140569963Y-82118158D01*
X140509457Y-82264232D01*
X140492943Y-82389671D01*
X140488818Y-82421000D01*
X139537030Y-82421000D01*
X139490786Y-82360734D01*
X139490785Y-82360733D01*
X139490782Y-82360729D01*
X139490777Y-82360725D01*
X139490776Y-82360724D01*
X139365343Y-82264476D01*
X139365341Y-82264474D01*
X139219266Y-82203968D01*
X139219267Y-82203968D01*
X139219263Y-82203967D01*
X139219262Y-82203967D01*
X139062500Y-82183329D01*
X138905738Y-82203967D01*
X138905737Y-82203967D01*
X138905732Y-82203968D01*
X138759658Y-82264474D01*
X138759656Y-82264476D01*
X138634223Y-82360724D01*
X138634213Y-82360734D01*
X138537965Y-82486167D01*
X138537963Y-82486169D01*
X138477457Y-82632243D01*
X138477456Y-82632248D01*
X138477456Y-82632249D01*
X138456818Y-82789011D01*
X134483700Y-82789011D01*
X134479544Y-82757444D01*
X134477307Y-82752044D01*
X134419036Y-82611364D01*
X134419034Y-82611362D01*
X134322786Y-82485929D01*
X134322785Y-82485928D01*
X134322782Y-82485924D01*
X134322777Y-82485920D01*
X134322776Y-82485919D01*
X134197343Y-82389671D01*
X134197341Y-82389669D01*
X134051266Y-82329163D01*
X134051267Y-82329163D01*
X134051263Y-82329162D01*
X134051262Y-82329162D01*
X133894500Y-82308524D01*
X133737738Y-82329162D01*
X133737737Y-82329162D01*
X133737732Y-82329163D01*
X133591658Y-82389669D01*
X133591656Y-82389671D01*
X133466223Y-82485919D01*
X133466213Y-82485929D01*
X133369965Y-82611362D01*
X133369963Y-82611364D01*
X133309457Y-82757438D01*
X133309456Y-82757443D01*
X133309456Y-82757444D01*
X133307010Y-82776021D01*
X133278899Y-82830021D01*
X133222654Y-82853318D01*
X133164592Y-82835011D01*
X133148164Y-82818583D01*
X133126786Y-82790723D01*
X133126785Y-82790722D01*
X133126782Y-82790718D01*
X133126777Y-82790714D01*
X133126776Y-82790713D01*
X133001343Y-82694465D01*
X133001341Y-82694463D01*
X132855266Y-82633957D01*
X132855267Y-82633957D01*
X132855263Y-82633956D01*
X132855262Y-82633956D01*
X132698500Y-82613318D01*
X132541738Y-82633956D01*
X132541737Y-82633956D01*
X132541732Y-82633957D01*
X132395658Y-82694463D01*
X132395656Y-82694465D01*
X132270223Y-82790713D01*
X132270213Y-82790723D01*
X132173965Y-82916156D01*
X132173963Y-82916158D01*
X132113457Y-83062232D01*
X132113456Y-83062237D01*
X132113456Y-83062238D01*
X132092818Y-83219000D01*
X122703000Y-83219000D01*
X122703000Y-80389000D01*
X135027818Y-80389000D01*
X135046812Y-80533276D01*
X135048457Y-80545767D01*
X135108963Y-80691841D01*
X135108965Y-80691843D01*
X135123420Y-80710681D01*
X135205218Y-80817282D01*
X135205222Y-80817285D01*
X135205223Y-80817286D01*
X135330656Y-80913534D01*
X135330658Y-80913536D01*
X135476733Y-80974042D01*
X135476738Y-80974044D01*
X135633500Y-80994682D01*
X135790262Y-80974044D01*
X135936341Y-80913536D01*
X136061782Y-80817282D01*
X136158036Y-80691841D01*
X136218544Y-80545762D01*
X136239182Y-80389000D01*
X136424818Y-80389000D01*
X136443812Y-80533276D01*
X136445457Y-80545767D01*
X136505963Y-80691841D01*
X136505965Y-80691843D01*
X136520420Y-80710681D01*
X136602218Y-80817282D01*
X136602222Y-80817285D01*
X136602223Y-80817286D01*
X136727656Y-80913534D01*
X136727658Y-80913536D01*
X136873733Y-80974042D01*
X136873738Y-80974044D01*
X137030500Y-80994682D01*
X137187262Y-80974044D01*
X137333341Y-80913536D01*
X137458782Y-80817282D01*
X137555036Y-80691841D01*
X137615544Y-80545762D01*
X137636182Y-80389000D01*
X137948818Y-80389000D01*
X137967812Y-80533276D01*
X137969457Y-80545767D01*
X138029963Y-80691841D01*
X138029965Y-80691843D01*
X138044420Y-80710681D01*
X138126218Y-80817282D01*
X138126222Y-80817285D01*
X138126223Y-80817286D01*
X138251656Y-80913534D01*
X138251658Y-80913536D01*
X138397733Y-80974042D01*
X138397738Y-80974044D01*
X138554500Y-80994682D01*
X138711262Y-80974044D01*
X138857341Y-80913536D01*
X138982782Y-80817282D01*
X139079036Y-80691841D01*
X139139544Y-80545762D01*
X139160182Y-80389000D01*
X139139544Y-80232238D01*
X139132289Y-80214723D01*
X139086841Y-80105000D01*
X141347818Y-80105000D01*
X141364568Y-80232232D01*
X141368457Y-80261767D01*
X141428963Y-80407841D01*
X141428965Y-80407843D01*
X141525213Y-80533276D01*
X141525218Y-80533282D01*
X141525222Y-80533285D01*
X141525223Y-80533286D01*
X141650656Y-80629534D01*
X141650658Y-80629536D01*
X141796733Y-80690042D01*
X141796738Y-80690044D01*
X141953500Y-80710682D01*
X142110262Y-80690044D01*
X142223836Y-80643000D01*
X146330818Y-80643000D01*
X146339728Y-80710682D01*
X146351457Y-80799767D01*
X146411963Y-80945841D01*
X146411965Y-80945843D01*
X146508213Y-81071276D01*
X146508218Y-81071282D01*
X146508222Y-81071285D01*
X146508223Y-81071286D01*
X146633656Y-81167534D01*
X146633658Y-81167536D01*
X146779733Y-81228042D01*
X146779738Y-81228044D01*
X146936500Y-81248682D01*
X147093262Y-81228044D01*
X147239341Y-81167536D01*
X147364782Y-81071282D01*
X147461036Y-80945841D01*
X147514287Y-80817282D01*
X147521542Y-80799767D01*
X147521542Y-80799766D01*
X147521544Y-80799762D01*
X147542182Y-80643000D01*
X147521544Y-80486238D01*
X147500853Y-80436286D01*
X147461036Y-80340158D01*
X147461034Y-80340156D01*
X147364786Y-80214723D01*
X147364785Y-80214722D01*
X147364782Y-80214718D01*
X147364777Y-80214714D01*
X147364776Y-80214713D01*
X147239343Y-80118465D01*
X147239341Y-80118463D01*
X147093266Y-80057957D01*
X147093267Y-80057957D01*
X147093263Y-80057956D01*
X147093262Y-80057956D01*
X146936500Y-80037318D01*
X146779738Y-80057956D01*
X146779737Y-80057956D01*
X146779732Y-80057957D01*
X146633658Y-80118463D01*
X146633656Y-80118465D01*
X146508223Y-80214713D01*
X146508213Y-80214723D01*
X146411965Y-80340156D01*
X146411963Y-80340158D01*
X146351457Y-80486232D01*
X146351456Y-80486237D01*
X146351456Y-80486238D01*
X146330818Y-80643000D01*
X142223836Y-80643000D01*
X142256341Y-80629536D01*
X142381782Y-80533282D01*
X142478036Y-80407841D01*
X142538544Y-80261762D01*
X142559182Y-80105000D01*
X142546412Y-80008000D01*
X152172818Y-80008000D01*
X152191016Y-80146232D01*
X152193457Y-80164767D01*
X152253963Y-80310841D01*
X152253965Y-80310843D01*
X152328396Y-80407843D01*
X152350218Y-80436282D01*
X152350222Y-80436285D01*
X152350223Y-80436286D01*
X152475656Y-80532534D01*
X152475658Y-80532536D01*
X152621733Y-80593042D01*
X152621738Y-80593044D01*
X152778500Y-80613682D01*
X152935262Y-80593044D01*
X153081341Y-80532536D01*
X153206782Y-80436282D01*
X153280542Y-80340156D01*
X153302170Y-80311970D01*
X153353515Y-80279260D01*
X153413874Y-80287206D01*
X153455003Y-80332091D01*
X153461016Y-80377765D01*
X153447535Y-80480169D01*
X153444094Y-80506311D01*
X153442818Y-80516000D01*
X153462181Y-80663079D01*
X153463457Y-80672767D01*
X153523963Y-80818841D01*
X153523965Y-80818843D01*
X153612784Y-80934594D01*
X153620218Y-80944282D01*
X153620222Y-80944285D01*
X153620223Y-80944286D01*
X153745656Y-81040534D01*
X153745658Y-81040536D01*
X153891733Y-81101042D01*
X153891738Y-81101044D01*
X154048500Y-81121682D01*
X154205262Y-81101044D01*
X154351341Y-81040536D01*
X154476782Y-80944282D01*
X154573036Y-80818841D01*
X154633544Y-80672762D01*
X154654182Y-80516000D01*
X154652907Y-80506312D01*
X158024506Y-80506312D01*
X158042501Y-80643000D01*
X158045145Y-80663079D01*
X158105651Y-80809153D01*
X158105653Y-80809155D01*
X158201901Y-80934588D01*
X158201906Y-80934594D01*
X158201910Y-80934597D01*
X158201911Y-80934598D01*
X158327344Y-81030846D01*
X158327346Y-81030848D01*
X158473421Y-81091354D01*
X158473426Y-81091356D01*
X158630188Y-81111994D01*
X158786950Y-81091356D01*
X158933029Y-81030848D01*
X159058470Y-80934594D01*
X159154724Y-80809153D01*
X159195513Y-80710681D01*
X159215230Y-80663079D01*
X159215230Y-80663078D01*
X159215232Y-80663074D01*
X159235870Y-80506312D01*
X159215232Y-80349550D01*
X159211342Y-80340159D01*
X159154724Y-80203470D01*
X159154722Y-80203468D01*
X159058474Y-80078035D01*
X159058473Y-80078034D01*
X159058470Y-80078030D01*
X159058465Y-80078026D01*
X159058464Y-80078025D01*
X158933031Y-79981777D01*
X158933029Y-79981775D01*
X158786954Y-79921269D01*
X158786955Y-79921269D01*
X158786951Y-79921268D01*
X158786950Y-79921268D01*
X158630188Y-79900630D01*
X158473426Y-79921268D01*
X158473425Y-79921268D01*
X158473420Y-79921269D01*
X158327346Y-79981775D01*
X158327344Y-79981777D01*
X158201911Y-80078025D01*
X158201901Y-80078035D01*
X158105653Y-80203468D01*
X158105651Y-80203470D01*
X158045145Y-80349544D01*
X158045144Y-80349549D01*
X158045144Y-80349550D01*
X158039950Y-80389000D01*
X158027150Y-80486232D01*
X158024506Y-80506312D01*
X154652907Y-80506312D01*
X154633544Y-80359238D01*
X154629531Y-80349550D01*
X154573036Y-80213158D01*
X154573034Y-80213156D01*
X154476786Y-80087723D01*
X154476785Y-80087722D01*
X154476782Y-80087718D01*
X154476777Y-80087714D01*
X154476776Y-80087713D01*
X154351343Y-79991465D01*
X154351341Y-79991463D01*
X154205266Y-79930957D01*
X154205267Y-79930957D01*
X154205263Y-79930956D01*
X154205262Y-79930956D01*
X154048500Y-79910318D01*
X153891738Y-79930956D01*
X153891737Y-79930956D01*
X153891732Y-79930957D01*
X153745658Y-79991463D01*
X153745656Y-79991465D01*
X153620223Y-80087713D01*
X153620213Y-80087723D01*
X153524829Y-80212029D01*
X153473483Y-80244739D01*
X153413125Y-80236793D01*
X153371995Y-80191907D01*
X153365982Y-80146237D01*
X153384182Y-80008000D01*
X153363544Y-79851238D01*
X153343959Y-79803956D01*
X153303036Y-79705158D01*
X153303034Y-79705156D01*
X153272989Y-79666000D01*
X155982818Y-79666000D01*
X156000980Y-79803957D01*
X156003457Y-79822767D01*
X156063963Y-79968841D01*
X156063965Y-79968843D01*
X156153984Y-80086158D01*
X156160218Y-80094282D01*
X156160222Y-80094285D01*
X156160223Y-80094286D01*
X156285656Y-80190534D01*
X156285658Y-80190536D01*
X156431733Y-80251042D01*
X156431738Y-80251044D01*
X156588500Y-80271682D01*
X156745262Y-80251044D01*
X156891341Y-80190536D01*
X157016782Y-80094282D01*
X157113036Y-79968841D01*
X157173544Y-79822762D01*
X157194182Y-79666000D01*
X157173544Y-79509238D01*
X157162986Y-79483749D01*
X157113036Y-79363158D01*
X157113034Y-79363156D01*
X157016786Y-79237723D01*
X157016785Y-79237722D01*
X157016782Y-79237718D01*
X157016777Y-79237714D01*
X157016776Y-79237713D01*
X156891343Y-79141465D01*
X156891341Y-79141463D01*
X156745266Y-79080957D01*
X156745267Y-79080957D01*
X156745263Y-79080956D01*
X156745262Y-79080956D01*
X156588500Y-79060318D01*
X156431738Y-79080956D01*
X156431737Y-79080956D01*
X156431732Y-79080957D01*
X156285658Y-79141463D01*
X156285656Y-79141465D01*
X156160223Y-79237713D01*
X156160213Y-79237723D01*
X156063965Y-79363156D01*
X156063963Y-79363158D01*
X156003457Y-79509232D01*
X156003456Y-79509237D01*
X156003456Y-79509238D01*
X155982818Y-79666000D01*
X153272989Y-79666000D01*
X153206786Y-79579723D01*
X153206785Y-79579722D01*
X153206782Y-79579718D01*
X153206777Y-79579714D01*
X153206776Y-79579713D01*
X153081343Y-79483465D01*
X153081341Y-79483463D01*
X152935266Y-79422957D01*
X152935267Y-79422957D01*
X152935263Y-79422956D01*
X152935262Y-79422956D01*
X152778500Y-79402318D01*
X152621738Y-79422956D01*
X152621737Y-79422956D01*
X152621732Y-79422957D01*
X152475658Y-79483463D01*
X152475656Y-79483465D01*
X152350223Y-79579713D01*
X152350213Y-79579723D01*
X152253965Y-79705156D01*
X152253963Y-79705158D01*
X152193457Y-79851232D01*
X152193456Y-79851237D01*
X152193456Y-79851238D01*
X152172818Y-80008000D01*
X142546412Y-80008000D01*
X142538544Y-79948238D01*
X142527373Y-79921269D01*
X142478036Y-79802158D01*
X142478034Y-79802156D01*
X142381786Y-79676723D01*
X142381785Y-79676722D01*
X142381782Y-79676718D01*
X142381777Y-79676714D01*
X142381776Y-79676713D01*
X142256343Y-79580465D01*
X142256341Y-79580463D01*
X142110266Y-79519957D01*
X142110267Y-79519957D01*
X142110263Y-79519956D01*
X142110262Y-79519956D01*
X141953500Y-79499318D01*
X141953499Y-79499318D01*
X141893106Y-79507268D01*
X141796738Y-79519956D01*
X141796737Y-79519956D01*
X141796732Y-79519957D01*
X141650658Y-79580463D01*
X141650656Y-79580465D01*
X141525223Y-79676713D01*
X141525213Y-79676723D01*
X141428965Y-79802156D01*
X141428963Y-79802158D01*
X141368457Y-79948232D01*
X141368456Y-79948237D01*
X141368456Y-79948238D01*
X141347818Y-80105000D01*
X139086841Y-80105000D01*
X139079036Y-80086158D01*
X139079034Y-80086156D01*
X138982786Y-79960723D01*
X138982785Y-79960722D01*
X138982782Y-79960718D01*
X138982777Y-79960714D01*
X138982776Y-79960713D01*
X138857343Y-79864465D01*
X138857341Y-79864463D01*
X138711266Y-79803957D01*
X138711267Y-79803957D01*
X138711263Y-79803956D01*
X138711262Y-79803956D01*
X138554500Y-79783318D01*
X138554499Y-79783318D01*
X138494106Y-79791268D01*
X138397738Y-79803956D01*
X138397737Y-79803956D01*
X138397732Y-79803957D01*
X138251658Y-79864463D01*
X138251656Y-79864465D01*
X138126223Y-79960713D01*
X138126213Y-79960723D01*
X138029965Y-80086156D01*
X138029963Y-80086158D01*
X137969457Y-80232232D01*
X137969456Y-80232237D01*
X137969456Y-80232238D01*
X137948818Y-80389000D01*
X137636182Y-80389000D01*
X137615544Y-80232238D01*
X137608289Y-80214723D01*
X137555036Y-80086158D01*
X137555034Y-80086156D01*
X137458786Y-79960723D01*
X137458785Y-79960722D01*
X137458782Y-79960718D01*
X137458777Y-79960714D01*
X137458776Y-79960713D01*
X137333343Y-79864465D01*
X137333341Y-79864463D01*
X137187266Y-79803957D01*
X137187267Y-79803957D01*
X137187263Y-79803956D01*
X137187262Y-79803956D01*
X137030500Y-79783318D01*
X137030499Y-79783318D01*
X136970106Y-79791268D01*
X136873738Y-79803956D01*
X136873737Y-79803956D01*
X136873732Y-79803957D01*
X136727658Y-79864463D01*
X136727656Y-79864465D01*
X136602223Y-79960713D01*
X136602213Y-79960723D01*
X136505965Y-80086156D01*
X136505963Y-80086158D01*
X136445457Y-80232232D01*
X136445456Y-80232237D01*
X136445456Y-80232238D01*
X136424818Y-80389000D01*
X136239182Y-80389000D01*
X136218544Y-80232238D01*
X136211289Y-80214723D01*
X136158036Y-80086158D01*
X136158034Y-80086156D01*
X136061786Y-79960723D01*
X136061785Y-79960722D01*
X136061782Y-79960718D01*
X136061777Y-79960714D01*
X136061776Y-79960713D01*
X135936343Y-79864465D01*
X135936341Y-79864463D01*
X135790266Y-79803957D01*
X135790267Y-79803957D01*
X135790263Y-79803956D01*
X135790262Y-79803956D01*
X135633500Y-79783318D01*
X135633499Y-79783318D01*
X135573106Y-79791268D01*
X135476738Y-79803956D01*
X135476737Y-79803956D01*
X135476732Y-79803957D01*
X135330658Y-79864463D01*
X135330656Y-79864465D01*
X135205223Y-79960713D01*
X135205213Y-79960723D01*
X135108965Y-80086156D01*
X135108963Y-80086158D01*
X135048457Y-80232232D01*
X135048456Y-80232237D01*
X135048456Y-80232238D01*
X135027818Y-80389000D01*
X122703000Y-80389000D01*
X122703000Y-78992000D01*
X131649250Y-78992000D01*
X131668170Y-79135709D01*
X131668170Y-79135711D01*
X131668171Y-79135712D01*
X131723638Y-79269625D01*
X131723640Y-79269627D01*
X131811874Y-79384615D01*
X131811879Y-79384621D01*
X131811883Y-79384624D01*
X131811884Y-79384625D01*
X131926872Y-79472859D01*
X131926874Y-79472861D01*
X131990749Y-79499318D01*
X132060791Y-79528330D01*
X132204500Y-79547250D01*
X132348209Y-79528330D01*
X132482125Y-79472861D01*
X132597121Y-79384621D01*
X132685361Y-79269625D01*
X132740830Y-79135709D01*
X132743030Y-79119000D01*
X133376818Y-79119000D01*
X133396648Y-79269627D01*
X133397457Y-79275767D01*
X133457963Y-79421841D01*
X133457965Y-79421843D01*
X133554193Y-79547250D01*
X133554218Y-79547282D01*
X133554222Y-79547285D01*
X133554223Y-79547286D01*
X133679656Y-79643534D01*
X133679658Y-79643536D01*
X133825733Y-79704042D01*
X133825738Y-79704044D01*
X133982500Y-79724682D01*
X134139262Y-79704044D01*
X134285341Y-79643536D01*
X134410782Y-79547282D01*
X134507036Y-79421841D01*
X134567544Y-79275762D01*
X134588182Y-79119000D01*
X134567544Y-78962238D01*
X134553569Y-78928500D01*
X160668750Y-78928500D01*
X160687670Y-79072209D01*
X160687670Y-79072211D01*
X160687671Y-79072212D01*
X160743138Y-79206125D01*
X160743140Y-79206127D01*
X160796577Y-79275767D01*
X160831379Y-79321121D01*
X160831383Y-79321124D01*
X160831384Y-79321125D01*
X160946372Y-79409359D01*
X160946374Y-79409361D01*
X160979199Y-79422957D01*
X161080291Y-79464830D01*
X161224000Y-79483750D01*
X161367709Y-79464830D01*
X161501625Y-79409361D01*
X161616621Y-79321121D01*
X161704861Y-79206125D01*
X161760330Y-79072209D01*
X161779250Y-78928500D01*
X161760330Y-78784791D01*
X161731162Y-78714372D01*
X161704861Y-78650874D01*
X161704859Y-78650872D01*
X161616625Y-78535884D01*
X161616624Y-78535883D01*
X161616621Y-78535879D01*
X161616616Y-78535875D01*
X161616615Y-78535874D01*
X161501627Y-78447640D01*
X161501625Y-78447638D01*
X161367712Y-78392171D01*
X161367711Y-78392170D01*
X161367709Y-78392170D01*
X161224000Y-78373250D01*
X161080291Y-78392170D01*
X161080289Y-78392170D01*
X161080287Y-78392171D01*
X160946374Y-78447638D01*
X160946372Y-78447640D01*
X160831384Y-78535874D01*
X160831374Y-78535884D01*
X160743140Y-78650872D01*
X160743138Y-78650874D01*
X160687671Y-78784787D01*
X160687670Y-78784789D01*
X160687670Y-78784791D01*
X160668750Y-78928500D01*
X134553569Y-78928500D01*
X134507036Y-78816158D01*
X134507034Y-78816156D01*
X134410786Y-78690723D01*
X134410785Y-78690722D01*
X134410782Y-78690718D01*
X134410777Y-78690714D01*
X134410776Y-78690713D01*
X134285343Y-78594465D01*
X134285341Y-78594463D01*
X134139266Y-78533957D01*
X134139267Y-78533957D01*
X134139263Y-78533956D01*
X134139262Y-78533956D01*
X133982500Y-78513318D01*
X133825738Y-78533956D01*
X133825737Y-78533956D01*
X133825732Y-78533957D01*
X133679658Y-78594463D01*
X133679656Y-78594465D01*
X133554223Y-78690713D01*
X133554213Y-78690723D01*
X133457965Y-78816156D01*
X133457963Y-78816158D01*
X133397457Y-78962232D01*
X133397456Y-78962237D01*
X133397456Y-78962238D01*
X133376818Y-79119000D01*
X132743030Y-79119000D01*
X132759750Y-78992000D01*
X132740830Y-78848291D01*
X132685361Y-78714375D01*
X132685361Y-78714374D01*
X132685359Y-78714372D01*
X132597125Y-78599384D01*
X132597124Y-78599383D01*
X132597121Y-78599379D01*
X132597116Y-78599375D01*
X132597115Y-78599374D01*
X132482127Y-78511140D01*
X132482125Y-78511138D01*
X132348212Y-78455671D01*
X132348211Y-78455670D01*
X132348209Y-78455670D01*
X132204500Y-78436750D01*
X132204499Y-78436750D01*
X132173227Y-78440867D01*
X132060791Y-78455670D01*
X132060789Y-78455670D01*
X132060787Y-78455671D01*
X131926874Y-78511138D01*
X131926872Y-78511140D01*
X131811884Y-78599374D01*
X131811874Y-78599384D01*
X131723640Y-78714372D01*
X131723638Y-78714374D01*
X131668171Y-78848287D01*
X131668170Y-78848289D01*
X131668170Y-78848291D01*
X131649250Y-78992000D01*
X122703000Y-78992000D01*
X122703000Y-75562999D01*
X157252818Y-75562999D01*
X157273457Y-75719767D01*
X157333963Y-75865841D01*
X157333965Y-75865843D01*
X157430213Y-75991276D01*
X157430218Y-75991282D01*
X157430222Y-75991285D01*
X157430223Y-75991286D01*
X157555656Y-76087534D01*
X157555658Y-76087536D01*
X157701733Y-76148042D01*
X157701738Y-76148044D01*
X157858500Y-76168682D01*
X158015262Y-76148044D01*
X158161341Y-76087536D01*
X158286782Y-75991282D01*
X158383036Y-75865841D01*
X158443544Y-75719762D01*
X158464182Y-75563000D01*
X158443544Y-75406238D01*
X158383036Y-75260159D01*
X158383036Y-75260158D01*
X158383034Y-75260156D01*
X158286786Y-75134723D01*
X158286785Y-75134722D01*
X158286782Y-75134718D01*
X158286777Y-75134714D01*
X158286776Y-75134713D01*
X158161343Y-75038465D01*
X158161341Y-75038463D01*
X158015266Y-74977957D01*
X158015267Y-74977957D01*
X158015263Y-74977956D01*
X158015262Y-74977956D01*
X157858500Y-74957318D01*
X157701738Y-74977956D01*
X157701737Y-74977956D01*
X157701732Y-74977957D01*
X157555658Y-75038463D01*
X157555656Y-75038465D01*
X157430223Y-75134713D01*
X157430213Y-75134723D01*
X157333965Y-75260156D01*
X157333963Y-75260158D01*
X157273457Y-75406232D01*
X157252818Y-75562999D01*
X122703000Y-75562999D01*
X122703000Y-73262500D01*
X122723822Y-73205292D01*
X122776545Y-73174852D01*
X122792000Y-73173500D01*
X172605000Y-73173500D01*
X172662208Y-73194322D01*
G37*
%TD.AperFunction*%
%TD*%
M02*
