%TF.GenerationSoftware,KiCad,Pcbnew,9.0.6+1*%
%TF.CreationDate,2025-12-08T12:46:46+00:00*%
%TF.ProjectId,TFGPS01,54464750-5330-4312-9e6b-696361645f70,C*%
%TF.SameCoordinates,Original*%
%TF.FileFunction,Legend,Bot*%
%TF.FilePolarity,Positive*%
%FSLAX46Y46*%
G04 Gerber Fmt 4.6, Leading zero omitted, Abs format (unit mm)*
G04 Created by KiCad (PCBNEW 9.0.6+1) date 2025-12-08 12:46:46*
%MOMM*%
%LPD*%
G01*
G04 APERTURE LIST*
%ADD10C,0.150000*%
%ADD11C,0.120000*%
%ADD12C,0.200000*%
G04 APERTURE END LIST*
D10*
X149430419Y-84326505D02*
X148430419Y-84326505D01*
X148430419Y-84326505D02*
X148430419Y-84564600D01*
X148430419Y-84564600D02*
X148478038Y-84707457D01*
X148478038Y-84707457D02*
X148573276Y-84802695D01*
X148573276Y-84802695D02*
X148668514Y-84850314D01*
X148668514Y-84850314D02*
X148858990Y-84897933D01*
X148858990Y-84897933D02*
X149001847Y-84897933D01*
X149001847Y-84897933D02*
X149192323Y-84850314D01*
X149192323Y-84850314D02*
X149287561Y-84802695D01*
X149287561Y-84802695D02*
X149382800Y-84707457D01*
X149382800Y-84707457D02*
X149430419Y-84564600D01*
X149430419Y-84564600D02*
X149430419Y-84326505D01*
X149430419Y-85850314D02*
X149430419Y-85278886D01*
X149430419Y-85564600D02*
X148430419Y-85564600D01*
X148430419Y-85564600D02*
X148573276Y-85469362D01*
X148573276Y-85469362D02*
X148668514Y-85374124D01*
X148668514Y-85374124D02*
X148716133Y-85278886D01*
X167012857Y-98016219D02*
X167346190Y-97540028D01*
X167584285Y-98016219D02*
X167584285Y-97016219D01*
X167584285Y-97016219D02*
X167203333Y-97016219D01*
X167203333Y-97016219D02*
X167108095Y-97063838D01*
X167108095Y-97063838D02*
X167060476Y-97111457D01*
X167060476Y-97111457D02*
X167012857Y-97206695D01*
X167012857Y-97206695D02*
X167012857Y-97349552D01*
X167012857Y-97349552D02*
X167060476Y-97444790D01*
X167060476Y-97444790D02*
X167108095Y-97492409D01*
X167108095Y-97492409D02*
X167203333Y-97540028D01*
X167203333Y-97540028D02*
X167584285Y-97540028D01*
X166631904Y-97111457D02*
X166584285Y-97063838D01*
X166584285Y-97063838D02*
X166489047Y-97016219D01*
X166489047Y-97016219D02*
X166250952Y-97016219D01*
X166250952Y-97016219D02*
X166155714Y-97063838D01*
X166155714Y-97063838D02*
X166108095Y-97111457D01*
X166108095Y-97111457D02*
X166060476Y-97206695D01*
X166060476Y-97206695D02*
X166060476Y-97301933D01*
X166060476Y-97301933D02*
X166108095Y-97444790D01*
X166108095Y-97444790D02*
X166679523Y-98016219D01*
X166679523Y-98016219D02*
X166060476Y-98016219D01*
X165108095Y-98016219D02*
X165679523Y-98016219D01*
X165393809Y-98016219D02*
X165393809Y-97016219D01*
X165393809Y-97016219D02*
X165489047Y-97159076D01*
X165489047Y-97159076D02*
X165584285Y-97254314D01*
X165584285Y-97254314D02*
X165679523Y-97301933D01*
X138554404Y-92797819D02*
X138554404Y-93607342D01*
X138554404Y-93607342D02*
X138506785Y-93702580D01*
X138506785Y-93702580D02*
X138459166Y-93750200D01*
X138459166Y-93750200D02*
X138363928Y-93797819D01*
X138363928Y-93797819D02*
X138173452Y-93797819D01*
X138173452Y-93797819D02*
X138078214Y-93750200D01*
X138078214Y-93750200D02*
X138030595Y-93702580D01*
X138030595Y-93702580D02*
X137982976Y-93607342D01*
X137982976Y-93607342D02*
X137982976Y-92797819D01*
X137554404Y-92893057D02*
X137506785Y-92845438D01*
X137506785Y-92845438D02*
X137411547Y-92797819D01*
X137411547Y-92797819D02*
X137173452Y-92797819D01*
X137173452Y-92797819D02*
X137078214Y-92845438D01*
X137078214Y-92845438D02*
X137030595Y-92893057D01*
X137030595Y-92893057D02*
X136982976Y-92988295D01*
X136982976Y-92988295D02*
X136982976Y-93083533D01*
X136982976Y-93083533D02*
X137030595Y-93226390D01*
X137030595Y-93226390D02*
X137602023Y-93797819D01*
X137602023Y-93797819D02*
X136982976Y-93797819D01*
X150340219Y-94861142D02*
X149864028Y-94527809D01*
X150340219Y-94289714D02*
X149340219Y-94289714D01*
X149340219Y-94289714D02*
X149340219Y-94670666D01*
X149340219Y-94670666D02*
X149387838Y-94765904D01*
X149387838Y-94765904D02*
X149435457Y-94813523D01*
X149435457Y-94813523D02*
X149530695Y-94861142D01*
X149530695Y-94861142D02*
X149673552Y-94861142D01*
X149673552Y-94861142D02*
X149768790Y-94813523D01*
X149768790Y-94813523D02*
X149816409Y-94765904D01*
X149816409Y-94765904D02*
X149864028Y-94670666D01*
X149864028Y-94670666D02*
X149864028Y-94289714D01*
X150340219Y-95813523D02*
X150340219Y-95242095D01*
X150340219Y-95527809D02*
X149340219Y-95527809D01*
X149340219Y-95527809D02*
X149483076Y-95432571D01*
X149483076Y-95432571D02*
X149578314Y-95337333D01*
X149578314Y-95337333D02*
X149625933Y-95242095D01*
X149340219Y-96718285D02*
X149340219Y-96242095D01*
X149340219Y-96242095D02*
X149816409Y-96194476D01*
X149816409Y-96194476D02*
X149768790Y-96242095D01*
X149768790Y-96242095D02*
X149721171Y-96337333D01*
X149721171Y-96337333D02*
X149721171Y-96575428D01*
X149721171Y-96575428D02*
X149768790Y-96670666D01*
X149768790Y-96670666D02*
X149816409Y-96718285D01*
X149816409Y-96718285D02*
X149911647Y-96765904D01*
X149911647Y-96765904D02*
X150149742Y-96765904D01*
X150149742Y-96765904D02*
X150244980Y-96718285D01*
X150244980Y-96718285D02*
X150292600Y-96670666D01*
X150292600Y-96670666D02*
X150340219Y-96575428D01*
X150340219Y-96575428D02*
X150340219Y-96337333D01*
X150340219Y-96337333D02*
X150292600Y-96242095D01*
X150292600Y-96242095D02*
X150244980Y-96194476D01*
X154022874Y-107043052D02*
X154832397Y-107043052D01*
X154832397Y-107043052D02*
X154927635Y-107090671D01*
X154927635Y-107090671D02*
X154975255Y-107138290D01*
X154975255Y-107138290D02*
X155022874Y-107233528D01*
X155022874Y-107233528D02*
X155022874Y-107424004D01*
X155022874Y-107424004D02*
X154975255Y-107519242D01*
X154975255Y-107519242D02*
X154927635Y-107566861D01*
X154927635Y-107566861D02*
X154832397Y-107614480D01*
X154832397Y-107614480D02*
X154022874Y-107614480D01*
X154356207Y-108519242D02*
X155022874Y-108519242D01*
X153975255Y-108281147D02*
X154689540Y-108043052D01*
X154689540Y-108043052D02*
X154689540Y-108662099D01*
X124330619Y-107789742D02*
X123854428Y-107456409D01*
X124330619Y-107218314D02*
X123330619Y-107218314D01*
X123330619Y-107218314D02*
X123330619Y-107599266D01*
X123330619Y-107599266D02*
X123378238Y-107694504D01*
X123378238Y-107694504D02*
X123425857Y-107742123D01*
X123425857Y-107742123D02*
X123521095Y-107789742D01*
X123521095Y-107789742D02*
X123663952Y-107789742D01*
X123663952Y-107789742D02*
X123759190Y-107742123D01*
X123759190Y-107742123D02*
X123806809Y-107694504D01*
X123806809Y-107694504D02*
X123854428Y-107599266D01*
X123854428Y-107599266D02*
X123854428Y-107218314D01*
X124330619Y-108742123D02*
X124330619Y-108170695D01*
X124330619Y-108456409D02*
X123330619Y-108456409D01*
X123330619Y-108456409D02*
X123473476Y-108361171D01*
X123473476Y-108361171D02*
X123568714Y-108265933D01*
X123568714Y-108265933D02*
X123616333Y-108170695D01*
X124330619Y-109694504D02*
X124330619Y-109123076D01*
X124330619Y-109408790D02*
X123330619Y-109408790D01*
X123330619Y-109408790D02*
X123473476Y-109313552D01*
X123473476Y-109313552D02*
X123568714Y-109218314D01*
X123568714Y-109218314D02*
X123616333Y-109123076D01*
X146507319Y-103200633D02*
X146031128Y-102867300D01*
X146507319Y-102629205D02*
X145507319Y-102629205D01*
X145507319Y-102629205D02*
X145507319Y-103010157D01*
X145507319Y-103010157D02*
X145554938Y-103105395D01*
X145554938Y-103105395D02*
X145602557Y-103153014D01*
X145602557Y-103153014D02*
X145697795Y-103200633D01*
X145697795Y-103200633D02*
X145840652Y-103200633D01*
X145840652Y-103200633D02*
X145935890Y-103153014D01*
X145935890Y-103153014D02*
X145983509Y-103105395D01*
X145983509Y-103105395D02*
X146031128Y-103010157D01*
X146031128Y-103010157D02*
X146031128Y-102629205D01*
X145507319Y-103533967D02*
X145507319Y-104200633D01*
X145507319Y-104200633D02*
X146507319Y-103772062D01*
X163898857Y-99827580D02*
X163946476Y-99875200D01*
X163946476Y-99875200D02*
X164089333Y-99922819D01*
X164089333Y-99922819D02*
X164184571Y-99922819D01*
X164184571Y-99922819D02*
X164327428Y-99875200D01*
X164327428Y-99875200D02*
X164422666Y-99779961D01*
X164422666Y-99779961D02*
X164470285Y-99684723D01*
X164470285Y-99684723D02*
X164517904Y-99494247D01*
X164517904Y-99494247D02*
X164517904Y-99351390D01*
X164517904Y-99351390D02*
X164470285Y-99160914D01*
X164470285Y-99160914D02*
X164422666Y-99065676D01*
X164422666Y-99065676D02*
X164327428Y-98970438D01*
X164327428Y-98970438D02*
X164184571Y-98922819D01*
X164184571Y-98922819D02*
X164089333Y-98922819D01*
X164089333Y-98922819D02*
X163946476Y-98970438D01*
X163946476Y-98970438D02*
X163898857Y-99018057D01*
X162946476Y-99922819D02*
X163517904Y-99922819D01*
X163232190Y-99922819D02*
X163232190Y-98922819D01*
X163232190Y-98922819D02*
X163327428Y-99065676D01*
X163327428Y-99065676D02*
X163422666Y-99160914D01*
X163422666Y-99160914D02*
X163517904Y-99208533D01*
X162041714Y-98922819D02*
X162517904Y-98922819D01*
X162517904Y-98922819D02*
X162565523Y-99399009D01*
X162565523Y-99399009D02*
X162517904Y-99351390D01*
X162517904Y-99351390D02*
X162422666Y-99303771D01*
X162422666Y-99303771D02*
X162184571Y-99303771D01*
X162184571Y-99303771D02*
X162089333Y-99351390D01*
X162089333Y-99351390D02*
X162041714Y-99399009D01*
X162041714Y-99399009D02*
X161994095Y-99494247D01*
X161994095Y-99494247D02*
X161994095Y-99732342D01*
X161994095Y-99732342D02*
X162041714Y-99827580D01*
X162041714Y-99827580D02*
X162089333Y-99875200D01*
X162089333Y-99875200D02*
X162184571Y-99922819D01*
X162184571Y-99922819D02*
X162422666Y-99922819D01*
X162422666Y-99922819D02*
X162517904Y-99875200D01*
X162517904Y-99875200D02*
X162565523Y-99827580D01*
X156182219Y-103725742D02*
X155706028Y-103392409D01*
X156182219Y-103154314D02*
X155182219Y-103154314D01*
X155182219Y-103154314D02*
X155182219Y-103535266D01*
X155182219Y-103535266D02*
X155229838Y-103630504D01*
X155229838Y-103630504D02*
X155277457Y-103678123D01*
X155277457Y-103678123D02*
X155372695Y-103725742D01*
X155372695Y-103725742D02*
X155515552Y-103725742D01*
X155515552Y-103725742D02*
X155610790Y-103678123D01*
X155610790Y-103678123D02*
X155658409Y-103630504D01*
X155658409Y-103630504D02*
X155706028Y-103535266D01*
X155706028Y-103535266D02*
X155706028Y-103154314D01*
X155277457Y-104106695D02*
X155229838Y-104154314D01*
X155229838Y-104154314D02*
X155182219Y-104249552D01*
X155182219Y-104249552D02*
X155182219Y-104487647D01*
X155182219Y-104487647D02*
X155229838Y-104582885D01*
X155229838Y-104582885D02*
X155277457Y-104630504D01*
X155277457Y-104630504D02*
X155372695Y-104678123D01*
X155372695Y-104678123D02*
X155467933Y-104678123D01*
X155467933Y-104678123D02*
X155610790Y-104630504D01*
X155610790Y-104630504D02*
X156182219Y-104059076D01*
X156182219Y-104059076D02*
X156182219Y-104678123D01*
X155182219Y-105011457D02*
X155182219Y-105678123D01*
X155182219Y-105678123D02*
X156182219Y-105249552D01*
X132387933Y-76594619D02*
X132387933Y-77308904D01*
X132387933Y-77308904D02*
X132435552Y-77451761D01*
X132435552Y-77451761D02*
X132530790Y-77547000D01*
X132530790Y-77547000D02*
X132673647Y-77594619D01*
X132673647Y-77594619D02*
X132768885Y-77594619D01*
X131435552Y-76594619D02*
X131911742Y-76594619D01*
X131911742Y-76594619D02*
X131959361Y-77070809D01*
X131959361Y-77070809D02*
X131911742Y-77023190D01*
X131911742Y-77023190D02*
X131816504Y-76975571D01*
X131816504Y-76975571D02*
X131578409Y-76975571D01*
X131578409Y-76975571D02*
X131483171Y-77023190D01*
X131483171Y-77023190D02*
X131435552Y-77070809D01*
X131435552Y-77070809D02*
X131387933Y-77166047D01*
X131387933Y-77166047D02*
X131387933Y-77404142D01*
X131387933Y-77404142D02*
X131435552Y-77499380D01*
X131435552Y-77499380D02*
X131483171Y-77547000D01*
X131483171Y-77547000D02*
X131578409Y-77594619D01*
X131578409Y-77594619D02*
X131816504Y-77594619D01*
X131816504Y-77594619D02*
X131911742Y-77547000D01*
X131911742Y-77547000D02*
X131959361Y-77499380D01*
X154135057Y-80845819D02*
X154468390Y-80369628D01*
X154706485Y-80845819D02*
X154706485Y-79845819D01*
X154706485Y-79845819D02*
X154325533Y-79845819D01*
X154325533Y-79845819D02*
X154230295Y-79893438D01*
X154230295Y-79893438D02*
X154182676Y-79941057D01*
X154182676Y-79941057D02*
X154135057Y-80036295D01*
X154135057Y-80036295D02*
X154135057Y-80179152D01*
X154135057Y-80179152D02*
X154182676Y-80274390D01*
X154182676Y-80274390D02*
X154230295Y-80322009D01*
X154230295Y-80322009D02*
X154325533Y-80369628D01*
X154325533Y-80369628D02*
X154706485Y-80369628D01*
X153182676Y-80845819D02*
X153754104Y-80845819D01*
X153468390Y-80845819D02*
X153468390Y-79845819D01*
X153468390Y-79845819D02*
X153563628Y-79988676D01*
X153563628Y-79988676D02*
X153658866Y-80083914D01*
X153658866Y-80083914D02*
X153754104Y-80131533D01*
X152849342Y-79845819D02*
X152230295Y-79845819D01*
X152230295Y-79845819D02*
X152563628Y-80226771D01*
X152563628Y-80226771D02*
X152420771Y-80226771D01*
X152420771Y-80226771D02*
X152325533Y-80274390D01*
X152325533Y-80274390D02*
X152277914Y-80322009D01*
X152277914Y-80322009D02*
X152230295Y-80417247D01*
X152230295Y-80417247D02*
X152230295Y-80655342D01*
X152230295Y-80655342D02*
X152277914Y-80750580D01*
X152277914Y-80750580D02*
X152325533Y-80798200D01*
X152325533Y-80798200D02*
X152420771Y-80845819D01*
X152420771Y-80845819D02*
X152706485Y-80845819D01*
X152706485Y-80845819D02*
X152801723Y-80798200D01*
X152801723Y-80798200D02*
X152849342Y-80750580D01*
X144473080Y-105722333D02*
X144520700Y-105674714D01*
X144520700Y-105674714D02*
X144568319Y-105531857D01*
X144568319Y-105531857D02*
X144568319Y-105436619D01*
X144568319Y-105436619D02*
X144520700Y-105293762D01*
X144520700Y-105293762D02*
X144425461Y-105198524D01*
X144425461Y-105198524D02*
X144330223Y-105150905D01*
X144330223Y-105150905D02*
X144139747Y-105103286D01*
X144139747Y-105103286D02*
X143996890Y-105103286D01*
X143996890Y-105103286D02*
X143806414Y-105150905D01*
X143806414Y-105150905D02*
X143711176Y-105198524D01*
X143711176Y-105198524D02*
X143615938Y-105293762D01*
X143615938Y-105293762D02*
X143568319Y-105436619D01*
X143568319Y-105436619D02*
X143568319Y-105531857D01*
X143568319Y-105531857D02*
X143615938Y-105674714D01*
X143615938Y-105674714D02*
X143663557Y-105722333D01*
X143568319Y-106055667D02*
X143568319Y-106722333D01*
X143568319Y-106722333D02*
X144568319Y-106293762D01*
X141481980Y-89977933D02*
X141529600Y-89930314D01*
X141529600Y-89930314D02*
X141577219Y-89787457D01*
X141577219Y-89787457D02*
X141577219Y-89692219D01*
X141577219Y-89692219D02*
X141529600Y-89549362D01*
X141529600Y-89549362D02*
X141434361Y-89454124D01*
X141434361Y-89454124D02*
X141339123Y-89406505D01*
X141339123Y-89406505D02*
X141148647Y-89358886D01*
X141148647Y-89358886D02*
X141005790Y-89358886D01*
X141005790Y-89358886D02*
X140815314Y-89406505D01*
X140815314Y-89406505D02*
X140720076Y-89454124D01*
X140720076Y-89454124D02*
X140624838Y-89549362D01*
X140624838Y-89549362D02*
X140577219Y-89692219D01*
X140577219Y-89692219D02*
X140577219Y-89787457D01*
X140577219Y-89787457D02*
X140624838Y-89930314D01*
X140624838Y-89930314D02*
X140672457Y-89977933D01*
X140577219Y-90311267D02*
X140577219Y-90930314D01*
X140577219Y-90930314D02*
X140958171Y-90596981D01*
X140958171Y-90596981D02*
X140958171Y-90739838D01*
X140958171Y-90739838D02*
X141005790Y-90835076D01*
X141005790Y-90835076D02*
X141053409Y-90882695D01*
X141053409Y-90882695D02*
X141148647Y-90930314D01*
X141148647Y-90930314D02*
X141386742Y-90930314D01*
X141386742Y-90930314D02*
X141481980Y-90882695D01*
X141481980Y-90882695D02*
X141529600Y-90835076D01*
X141529600Y-90835076D02*
X141577219Y-90739838D01*
X141577219Y-90739838D02*
X141577219Y-90454124D01*
X141577219Y-90454124D02*
X141529600Y-90358886D01*
X141529600Y-90358886D02*
X141481980Y-90311267D01*
X142813066Y-95355580D02*
X142860685Y-95403200D01*
X142860685Y-95403200D02*
X143003542Y-95450819D01*
X143003542Y-95450819D02*
X143098780Y-95450819D01*
X143098780Y-95450819D02*
X143241637Y-95403200D01*
X143241637Y-95403200D02*
X143336875Y-95307961D01*
X143336875Y-95307961D02*
X143384494Y-95212723D01*
X143384494Y-95212723D02*
X143432113Y-95022247D01*
X143432113Y-95022247D02*
X143432113Y-94879390D01*
X143432113Y-94879390D02*
X143384494Y-94688914D01*
X143384494Y-94688914D02*
X143336875Y-94593676D01*
X143336875Y-94593676D02*
X143241637Y-94498438D01*
X143241637Y-94498438D02*
X143098780Y-94450819D01*
X143098780Y-94450819D02*
X143003542Y-94450819D01*
X143003542Y-94450819D02*
X142860685Y-94498438D01*
X142860685Y-94498438D02*
X142813066Y-94546057D01*
X141908304Y-94450819D02*
X142384494Y-94450819D01*
X142384494Y-94450819D02*
X142432113Y-94927009D01*
X142432113Y-94927009D02*
X142384494Y-94879390D01*
X142384494Y-94879390D02*
X142289256Y-94831771D01*
X142289256Y-94831771D02*
X142051161Y-94831771D01*
X142051161Y-94831771D02*
X141955923Y-94879390D01*
X141955923Y-94879390D02*
X141908304Y-94927009D01*
X141908304Y-94927009D02*
X141860685Y-95022247D01*
X141860685Y-95022247D02*
X141860685Y-95260342D01*
X141860685Y-95260342D02*
X141908304Y-95355580D01*
X141908304Y-95355580D02*
X141955923Y-95403200D01*
X141955923Y-95403200D02*
X142051161Y-95450819D01*
X142051161Y-95450819D02*
X142289256Y-95450819D01*
X142289256Y-95450819D02*
X142384494Y-95403200D01*
X142384494Y-95403200D02*
X142432113Y-95355580D01*
X141238266Y-81023619D02*
X141571599Y-80547428D01*
X141809694Y-81023619D02*
X141809694Y-80023619D01*
X141809694Y-80023619D02*
X141428742Y-80023619D01*
X141428742Y-80023619D02*
X141333504Y-80071238D01*
X141333504Y-80071238D02*
X141285885Y-80118857D01*
X141285885Y-80118857D02*
X141238266Y-80214095D01*
X141238266Y-80214095D02*
X141238266Y-80356952D01*
X141238266Y-80356952D02*
X141285885Y-80452190D01*
X141285885Y-80452190D02*
X141333504Y-80499809D01*
X141333504Y-80499809D02*
X141428742Y-80547428D01*
X141428742Y-80547428D02*
X141809694Y-80547428D01*
X140381123Y-80023619D02*
X140571599Y-80023619D01*
X140571599Y-80023619D02*
X140666837Y-80071238D01*
X140666837Y-80071238D02*
X140714456Y-80118857D01*
X140714456Y-80118857D02*
X140809694Y-80261714D01*
X140809694Y-80261714D02*
X140857313Y-80452190D01*
X140857313Y-80452190D02*
X140857313Y-80833142D01*
X140857313Y-80833142D02*
X140809694Y-80928380D01*
X140809694Y-80928380D02*
X140762075Y-80976000D01*
X140762075Y-80976000D02*
X140666837Y-81023619D01*
X140666837Y-81023619D02*
X140476361Y-81023619D01*
X140476361Y-81023619D02*
X140381123Y-80976000D01*
X140381123Y-80976000D02*
X140333504Y-80928380D01*
X140333504Y-80928380D02*
X140285885Y-80833142D01*
X140285885Y-80833142D02*
X140285885Y-80595047D01*
X140285885Y-80595047D02*
X140333504Y-80499809D01*
X140333504Y-80499809D02*
X140381123Y-80452190D01*
X140381123Y-80452190D02*
X140476361Y-80404571D01*
X140476361Y-80404571D02*
X140666837Y-80404571D01*
X140666837Y-80404571D02*
X140762075Y-80452190D01*
X140762075Y-80452190D02*
X140809694Y-80499809D01*
X140809694Y-80499809D02*
X140857313Y-80595047D01*
X153036494Y-119204419D02*
X153036494Y-118204419D01*
X153036494Y-118204419D02*
X152798399Y-118204419D01*
X152798399Y-118204419D02*
X152655542Y-118252038D01*
X152655542Y-118252038D02*
X152560304Y-118347276D01*
X152560304Y-118347276D02*
X152512685Y-118442514D01*
X152512685Y-118442514D02*
X152465066Y-118632990D01*
X152465066Y-118632990D02*
X152465066Y-118775847D01*
X152465066Y-118775847D02*
X152512685Y-118966323D01*
X152512685Y-118966323D02*
X152560304Y-119061561D01*
X152560304Y-119061561D02*
X152655542Y-119156800D01*
X152655542Y-119156800D02*
X152798399Y-119204419D01*
X152798399Y-119204419D02*
X153036494Y-119204419D01*
X152084113Y-118299657D02*
X152036494Y-118252038D01*
X152036494Y-118252038D02*
X151941256Y-118204419D01*
X151941256Y-118204419D02*
X151703161Y-118204419D01*
X151703161Y-118204419D02*
X151607923Y-118252038D01*
X151607923Y-118252038D02*
X151560304Y-118299657D01*
X151560304Y-118299657D02*
X151512685Y-118394895D01*
X151512685Y-118394895D02*
X151512685Y-118490133D01*
X151512685Y-118490133D02*
X151560304Y-118632990D01*
X151560304Y-118632990D02*
X152131732Y-119204419D01*
X152131732Y-119204419D02*
X151512685Y-119204419D01*
X146877066Y-91113780D02*
X146924685Y-91161400D01*
X146924685Y-91161400D02*
X147067542Y-91209019D01*
X147067542Y-91209019D02*
X147162780Y-91209019D01*
X147162780Y-91209019D02*
X147305637Y-91161400D01*
X147305637Y-91161400D02*
X147400875Y-91066161D01*
X147400875Y-91066161D02*
X147448494Y-90970923D01*
X147448494Y-90970923D02*
X147496113Y-90780447D01*
X147496113Y-90780447D02*
X147496113Y-90637590D01*
X147496113Y-90637590D02*
X147448494Y-90447114D01*
X147448494Y-90447114D02*
X147400875Y-90351876D01*
X147400875Y-90351876D02*
X147305637Y-90256638D01*
X147305637Y-90256638D02*
X147162780Y-90209019D01*
X147162780Y-90209019D02*
X147067542Y-90209019D01*
X147067542Y-90209019D02*
X146924685Y-90256638D01*
X146924685Y-90256638D02*
X146877066Y-90304257D01*
X146019923Y-90542352D02*
X146019923Y-91209019D01*
X146258018Y-90161400D02*
X146496113Y-90875685D01*
X146496113Y-90875685D02*
X145877066Y-90875685D01*
X164650657Y-94536419D02*
X164983990Y-94060228D01*
X165222085Y-94536419D02*
X165222085Y-93536419D01*
X165222085Y-93536419D02*
X164841133Y-93536419D01*
X164841133Y-93536419D02*
X164745895Y-93584038D01*
X164745895Y-93584038D02*
X164698276Y-93631657D01*
X164698276Y-93631657D02*
X164650657Y-93726895D01*
X164650657Y-93726895D02*
X164650657Y-93869752D01*
X164650657Y-93869752D02*
X164698276Y-93964990D01*
X164698276Y-93964990D02*
X164745895Y-94012609D01*
X164745895Y-94012609D02*
X164841133Y-94060228D01*
X164841133Y-94060228D02*
X165222085Y-94060228D01*
X164269704Y-93631657D02*
X164222085Y-93584038D01*
X164222085Y-93584038D02*
X164126847Y-93536419D01*
X164126847Y-93536419D02*
X163888752Y-93536419D01*
X163888752Y-93536419D02*
X163793514Y-93584038D01*
X163793514Y-93584038D02*
X163745895Y-93631657D01*
X163745895Y-93631657D02*
X163698276Y-93726895D01*
X163698276Y-93726895D02*
X163698276Y-93822133D01*
X163698276Y-93822133D02*
X163745895Y-93964990D01*
X163745895Y-93964990D02*
X164317323Y-94536419D01*
X164317323Y-94536419D02*
X163698276Y-94536419D01*
X163079228Y-93536419D02*
X162983990Y-93536419D01*
X162983990Y-93536419D02*
X162888752Y-93584038D01*
X162888752Y-93584038D02*
X162841133Y-93631657D01*
X162841133Y-93631657D02*
X162793514Y-93726895D01*
X162793514Y-93726895D02*
X162745895Y-93917371D01*
X162745895Y-93917371D02*
X162745895Y-94155466D01*
X162745895Y-94155466D02*
X162793514Y-94345942D01*
X162793514Y-94345942D02*
X162841133Y-94441180D01*
X162841133Y-94441180D02*
X162888752Y-94488800D01*
X162888752Y-94488800D02*
X162983990Y-94536419D01*
X162983990Y-94536419D02*
X163079228Y-94536419D01*
X163079228Y-94536419D02*
X163174466Y-94488800D01*
X163174466Y-94488800D02*
X163222085Y-94441180D01*
X163222085Y-94441180D02*
X163269704Y-94345942D01*
X163269704Y-94345942D02*
X163317323Y-94155466D01*
X163317323Y-94155466D02*
X163317323Y-93917371D01*
X163317323Y-93917371D02*
X163269704Y-93726895D01*
X163269704Y-93726895D02*
X163222085Y-93631657D01*
X163222085Y-93631657D02*
X163174466Y-93584038D01*
X163174466Y-93584038D02*
X163079228Y-93536419D01*
X159636619Y-96308942D02*
X159160428Y-95975609D01*
X159636619Y-95737514D02*
X158636619Y-95737514D01*
X158636619Y-95737514D02*
X158636619Y-96118466D01*
X158636619Y-96118466D02*
X158684238Y-96213704D01*
X158684238Y-96213704D02*
X158731857Y-96261323D01*
X158731857Y-96261323D02*
X158827095Y-96308942D01*
X158827095Y-96308942D02*
X158969952Y-96308942D01*
X158969952Y-96308942D02*
X159065190Y-96261323D01*
X159065190Y-96261323D02*
X159112809Y-96213704D01*
X159112809Y-96213704D02*
X159160428Y-96118466D01*
X159160428Y-96118466D02*
X159160428Y-95737514D01*
X158731857Y-96689895D02*
X158684238Y-96737514D01*
X158684238Y-96737514D02*
X158636619Y-96832752D01*
X158636619Y-96832752D02*
X158636619Y-97070847D01*
X158636619Y-97070847D02*
X158684238Y-97166085D01*
X158684238Y-97166085D02*
X158731857Y-97213704D01*
X158731857Y-97213704D02*
X158827095Y-97261323D01*
X158827095Y-97261323D02*
X158922333Y-97261323D01*
X158922333Y-97261323D02*
X159065190Y-97213704D01*
X159065190Y-97213704D02*
X159636619Y-96642276D01*
X159636619Y-96642276D02*
X159636619Y-97261323D01*
X158969952Y-98118466D02*
X159636619Y-98118466D01*
X158589000Y-97880371D02*
X159303285Y-97642276D01*
X159303285Y-97642276D02*
X159303285Y-98261323D01*
X163398319Y-75089242D02*
X162922128Y-74755909D01*
X163398319Y-74517814D02*
X162398319Y-74517814D01*
X162398319Y-74517814D02*
X162398319Y-74898766D01*
X162398319Y-74898766D02*
X162445938Y-74994004D01*
X162445938Y-74994004D02*
X162493557Y-75041623D01*
X162493557Y-75041623D02*
X162588795Y-75089242D01*
X162588795Y-75089242D02*
X162731652Y-75089242D01*
X162731652Y-75089242D02*
X162826890Y-75041623D01*
X162826890Y-75041623D02*
X162874509Y-74994004D01*
X162874509Y-74994004D02*
X162922128Y-74898766D01*
X162922128Y-74898766D02*
X162922128Y-74517814D01*
X162493557Y-75470195D02*
X162445938Y-75517814D01*
X162445938Y-75517814D02*
X162398319Y-75613052D01*
X162398319Y-75613052D02*
X162398319Y-75851147D01*
X162398319Y-75851147D02*
X162445938Y-75946385D01*
X162445938Y-75946385D02*
X162493557Y-75994004D01*
X162493557Y-75994004D02*
X162588795Y-76041623D01*
X162588795Y-76041623D02*
X162684033Y-76041623D01*
X162684033Y-76041623D02*
X162826890Y-75994004D01*
X162826890Y-75994004D02*
X163398319Y-75422576D01*
X163398319Y-75422576D02*
X163398319Y-76041623D01*
X162493557Y-76422576D02*
X162445938Y-76470195D01*
X162445938Y-76470195D02*
X162398319Y-76565433D01*
X162398319Y-76565433D02*
X162398319Y-76803528D01*
X162398319Y-76803528D02*
X162445938Y-76898766D01*
X162445938Y-76898766D02*
X162493557Y-76946385D01*
X162493557Y-76946385D02*
X162588795Y-76994004D01*
X162588795Y-76994004D02*
X162684033Y-76994004D01*
X162684033Y-76994004D02*
X162826890Y-76946385D01*
X162826890Y-76946385D02*
X163398319Y-76374957D01*
X163398319Y-76374957D02*
X163398319Y-76994004D01*
X162563133Y-116853619D02*
X162563133Y-117567904D01*
X162563133Y-117567904D02*
X162610752Y-117710761D01*
X162610752Y-117710761D02*
X162705990Y-117806000D01*
X162705990Y-117806000D02*
X162848847Y-117853619D01*
X162848847Y-117853619D02*
X162944085Y-117853619D01*
X161658371Y-117186952D02*
X161658371Y-117853619D01*
X161896466Y-116806000D02*
X162134561Y-117520285D01*
X162134561Y-117520285D02*
X161515514Y-117520285D01*
X133931819Y-88301533D02*
X133455628Y-87968200D01*
X133931819Y-87730105D02*
X132931819Y-87730105D01*
X132931819Y-87730105D02*
X132931819Y-88111057D01*
X132931819Y-88111057D02*
X132979438Y-88206295D01*
X132979438Y-88206295D02*
X133027057Y-88253914D01*
X133027057Y-88253914D02*
X133122295Y-88301533D01*
X133122295Y-88301533D02*
X133265152Y-88301533D01*
X133265152Y-88301533D02*
X133360390Y-88253914D01*
X133360390Y-88253914D02*
X133408009Y-88206295D01*
X133408009Y-88206295D02*
X133455628Y-88111057D01*
X133455628Y-88111057D02*
X133455628Y-87730105D01*
X132931819Y-88634867D02*
X132931819Y-89253914D01*
X132931819Y-89253914D02*
X133312771Y-88920581D01*
X133312771Y-88920581D02*
X133312771Y-89063438D01*
X133312771Y-89063438D02*
X133360390Y-89158676D01*
X133360390Y-89158676D02*
X133408009Y-89206295D01*
X133408009Y-89206295D02*
X133503247Y-89253914D01*
X133503247Y-89253914D02*
X133741342Y-89253914D01*
X133741342Y-89253914D02*
X133836580Y-89206295D01*
X133836580Y-89206295D02*
X133884200Y-89158676D01*
X133884200Y-89158676D02*
X133931819Y-89063438D01*
X133931819Y-89063438D02*
X133931819Y-88777724D01*
X133931819Y-88777724D02*
X133884200Y-88682486D01*
X133884200Y-88682486D02*
X133836580Y-88634867D01*
X146318174Y-79953236D02*
X146217159Y-79380817D01*
X146722235Y-79549175D02*
X146015128Y-78842069D01*
X146015128Y-78842069D02*
X145745754Y-79111443D01*
X145745754Y-79111443D02*
X145712082Y-79212458D01*
X145712082Y-79212458D02*
X145712082Y-79279801D01*
X145712082Y-79279801D02*
X145745754Y-79380817D01*
X145745754Y-79380817D02*
X145846769Y-79481832D01*
X145846769Y-79481832D02*
X145947785Y-79515504D01*
X145947785Y-79515504D02*
X146015128Y-79515504D01*
X146015128Y-79515504D02*
X146116143Y-79481832D01*
X146116143Y-79481832D02*
X146385517Y-79212458D01*
X145644739Y-80626671D02*
X146048800Y-80222610D01*
X145846769Y-80424641D02*
X145139663Y-79717534D01*
X145139663Y-79717534D02*
X145308021Y-79751206D01*
X145308021Y-79751206D02*
X145442708Y-79751206D01*
X145442708Y-79751206D02*
X145543724Y-79717534D01*
X144836617Y-80626672D02*
X144870288Y-80525656D01*
X144870288Y-80525656D02*
X144870288Y-80458313D01*
X144870288Y-80458313D02*
X144836617Y-80357298D01*
X144836617Y-80357298D02*
X144802945Y-80323626D01*
X144802945Y-80323626D02*
X144701930Y-80289954D01*
X144701930Y-80289954D02*
X144634586Y-80289954D01*
X144634586Y-80289954D02*
X144533571Y-80323626D01*
X144533571Y-80323626D02*
X144398884Y-80458313D01*
X144398884Y-80458313D02*
X144365212Y-80559328D01*
X144365212Y-80559328D02*
X144365212Y-80626672D01*
X144365212Y-80626672D02*
X144398884Y-80727687D01*
X144398884Y-80727687D02*
X144432556Y-80761359D01*
X144432556Y-80761359D02*
X144533571Y-80795030D01*
X144533571Y-80795030D02*
X144600914Y-80795030D01*
X144600914Y-80795030D02*
X144701930Y-80761359D01*
X144701930Y-80761359D02*
X144836617Y-80626672D01*
X144836617Y-80626672D02*
X144937632Y-80593000D01*
X144937632Y-80593000D02*
X145004975Y-80593000D01*
X145004975Y-80593000D02*
X145105991Y-80626672D01*
X145105991Y-80626672D02*
X145240678Y-80761359D01*
X145240678Y-80761359D02*
X145274349Y-80862374D01*
X145274349Y-80862374D02*
X145274349Y-80929717D01*
X145274349Y-80929717D02*
X145240678Y-81030733D01*
X145240678Y-81030733D02*
X145105991Y-81165420D01*
X145105991Y-81165420D02*
X145004975Y-81199091D01*
X145004975Y-81199091D02*
X144937632Y-81199091D01*
X144937632Y-81199091D02*
X144836617Y-81165420D01*
X144836617Y-81165420D02*
X144701930Y-81030733D01*
X144701930Y-81030733D02*
X144668258Y-80929717D01*
X144668258Y-80929717D02*
X144668258Y-80862374D01*
X144668258Y-80862374D02*
X144701930Y-80761359D01*
X128436666Y-98505180D02*
X128484285Y-98552800D01*
X128484285Y-98552800D02*
X128627142Y-98600419D01*
X128627142Y-98600419D02*
X128722380Y-98600419D01*
X128722380Y-98600419D02*
X128865237Y-98552800D01*
X128865237Y-98552800D02*
X128960475Y-98457561D01*
X128960475Y-98457561D02*
X129008094Y-98362323D01*
X129008094Y-98362323D02*
X129055713Y-98171847D01*
X129055713Y-98171847D02*
X129055713Y-98028990D01*
X129055713Y-98028990D02*
X129008094Y-97838514D01*
X129008094Y-97838514D02*
X128960475Y-97743276D01*
X128960475Y-97743276D02*
X128865237Y-97648038D01*
X128865237Y-97648038D02*
X128722380Y-97600419D01*
X128722380Y-97600419D02*
X128627142Y-97600419D01*
X128627142Y-97600419D02*
X128484285Y-97648038D01*
X128484285Y-97648038D02*
X128436666Y-97695657D01*
X127579523Y-97600419D02*
X127769999Y-97600419D01*
X127769999Y-97600419D02*
X127865237Y-97648038D01*
X127865237Y-97648038D02*
X127912856Y-97695657D01*
X127912856Y-97695657D02*
X128008094Y-97838514D01*
X128008094Y-97838514D02*
X128055713Y-98028990D01*
X128055713Y-98028990D02*
X128055713Y-98409942D01*
X128055713Y-98409942D02*
X128008094Y-98505180D01*
X128008094Y-98505180D02*
X127960475Y-98552800D01*
X127960475Y-98552800D02*
X127865237Y-98600419D01*
X127865237Y-98600419D02*
X127674761Y-98600419D01*
X127674761Y-98600419D02*
X127579523Y-98552800D01*
X127579523Y-98552800D02*
X127531904Y-98505180D01*
X127531904Y-98505180D02*
X127484285Y-98409942D01*
X127484285Y-98409942D02*
X127484285Y-98171847D01*
X127484285Y-98171847D02*
X127531904Y-98076609D01*
X127531904Y-98076609D02*
X127579523Y-98028990D01*
X127579523Y-98028990D02*
X127674761Y-97981371D01*
X127674761Y-97981371D02*
X127865237Y-97981371D01*
X127865237Y-97981371D02*
X127960475Y-98028990D01*
X127960475Y-98028990D02*
X128008094Y-98076609D01*
X128008094Y-98076609D02*
X128055713Y-98171847D01*
X167235094Y-101475219D02*
X167235094Y-100475219D01*
X167235094Y-100475219D02*
X166996999Y-100475219D01*
X166996999Y-100475219D02*
X166854142Y-100522838D01*
X166854142Y-100522838D02*
X166758904Y-100618076D01*
X166758904Y-100618076D02*
X166711285Y-100713314D01*
X166711285Y-100713314D02*
X166663666Y-100903790D01*
X166663666Y-100903790D02*
X166663666Y-101046647D01*
X166663666Y-101046647D02*
X166711285Y-101237123D01*
X166711285Y-101237123D02*
X166758904Y-101332361D01*
X166758904Y-101332361D02*
X166854142Y-101427600D01*
X166854142Y-101427600D02*
X166996999Y-101475219D01*
X166996999Y-101475219D02*
X167235094Y-101475219D01*
X166092237Y-100903790D02*
X166187475Y-100856171D01*
X166187475Y-100856171D02*
X166235094Y-100808552D01*
X166235094Y-100808552D02*
X166282713Y-100713314D01*
X166282713Y-100713314D02*
X166282713Y-100665695D01*
X166282713Y-100665695D02*
X166235094Y-100570457D01*
X166235094Y-100570457D02*
X166187475Y-100522838D01*
X166187475Y-100522838D02*
X166092237Y-100475219D01*
X166092237Y-100475219D02*
X165901761Y-100475219D01*
X165901761Y-100475219D02*
X165806523Y-100522838D01*
X165806523Y-100522838D02*
X165758904Y-100570457D01*
X165758904Y-100570457D02*
X165711285Y-100665695D01*
X165711285Y-100665695D02*
X165711285Y-100713314D01*
X165711285Y-100713314D02*
X165758904Y-100808552D01*
X165758904Y-100808552D02*
X165806523Y-100856171D01*
X165806523Y-100856171D02*
X165901761Y-100903790D01*
X165901761Y-100903790D02*
X166092237Y-100903790D01*
X166092237Y-100903790D02*
X166187475Y-100951409D01*
X166187475Y-100951409D02*
X166235094Y-100999028D01*
X166235094Y-100999028D02*
X166282713Y-101094266D01*
X166282713Y-101094266D02*
X166282713Y-101284742D01*
X166282713Y-101284742D02*
X166235094Y-101379980D01*
X166235094Y-101379980D02*
X166187475Y-101427600D01*
X166187475Y-101427600D02*
X166092237Y-101475219D01*
X166092237Y-101475219D02*
X165901761Y-101475219D01*
X165901761Y-101475219D02*
X165806523Y-101427600D01*
X165806523Y-101427600D02*
X165758904Y-101379980D01*
X165758904Y-101379980D02*
X165711285Y-101284742D01*
X165711285Y-101284742D02*
X165711285Y-101094266D01*
X165711285Y-101094266D02*
X165758904Y-100999028D01*
X165758904Y-100999028D02*
X165806523Y-100951409D01*
X165806523Y-100951409D02*
X165901761Y-100903790D01*
X136087319Y-80762142D02*
X135611128Y-80428809D01*
X136087319Y-80190714D02*
X135087319Y-80190714D01*
X135087319Y-80190714D02*
X135087319Y-80571666D01*
X135087319Y-80571666D02*
X135134938Y-80666904D01*
X135134938Y-80666904D02*
X135182557Y-80714523D01*
X135182557Y-80714523D02*
X135277795Y-80762142D01*
X135277795Y-80762142D02*
X135420652Y-80762142D01*
X135420652Y-80762142D02*
X135515890Y-80714523D01*
X135515890Y-80714523D02*
X135563509Y-80666904D01*
X135563509Y-80666904D02*
X135611128Y-80571666D01*
X135611128Y-80571666D02*
X135611128Y-80190714D01*
X136087319Y-81714523D02*
X136087319Y-81143095D01*
X136087319Y-81428809D02*
X135087319Y-81428809D01*
X135087319Y-81428809D02*
X135230176Y-81333571D01*
X135230176Y-81333571D02*
X135325414Y-81238333D01*
X135325414Y-81238333D02*
X135373033Y-81143095D01*
X135087319Y-82047857D02*
X135087319Y-82714523D01*
X135087319Y-82714523D02*
X136087319Y-82285952D01*
X158314319Y-80889142D02*
X157838128Y-80555809D01*
X158314319Y-80317714D02*
X157314319Y-80317714D01*
X157314319Y-80317714D02*
X157314319Y-80698666D01*
X157314319Y-80698666D02*
X157361938Y-80793904D01*
X157361938Y-80793904D02*
X157409557Y-80841523D01*
X157409557Y-80841523D02*
X157504795Y-80889142D01*
X157504795Y-80889142D02*
X157647652Y-80889142D01*
X157647652Y-80889142D02*
X157742890Y-80841523D01*
X157742890Y-80841523D02*
X157790509Y-80793904D01*
X157790509Y-80793904D02*
X157838128Y-80698666D01*
X157838128Y-80698666D02*
X157838128Y-80317714D01*
X157409557Y-81270095D02*
X157361938Y-81317714D01*
X157361938Y-81317714D02*
X157314319Y-81412952D01*
X157314319Y-81412952D02*
X157314319Y-81651047D01*
X157314319Y-81651047D02*
X157361938Y-81746285D01*
X157361938Y-81746285D02*
X157409557Y-81793904D01*
X157409557Y-81793904D02*
X157504795Y-81841523D01*
X157504795Y-81841523D02*
X157600033Y-81841523D01*
X157600033Y-81841523D02*
X157742890Y-81793904D01*
X157742890Y-81793904D02*
X158314319Y-81222476D01*
X158314319Y-81222476D02*
X158314319Y-81841523D01*
X157742890Y-82412952D02*
X157695271Y-82317714D01*
X157695271Y-82317714D02*
X157647652Y-82270095D01*
X157647652Y-82270095D02*
X157552414Y-82222476D01*
X157552414Y-82222476D02*
X157504795Y-82222476D01*
X157504795Y-82222476D02*
X157409557Y-82270095D01*
X157409557Y-82270095D02*
X157361938Y-82317714D01*
X157361938Y-82317714D02*
X157314319Y-82412952D01*
X157314319Y-82412952D02*
X157314319Y-82603428D01*
X157314319Y-82603428D02*
X157361938Y-82698666D01*
X157361938Y-82698666D02*
X157409557Y-82746285D01*
X157409557Y-82746285D02*
X157504795Y-82793904D01*
X157504795Y-82793904D02*
X157552414Y-82793904D01*
X157552414Y-82793904D02*
X157647652Y-82746285D01*
X157647652Y-82746285D02*
X157695271Y-82698666D01*
X157695271Y-82698666D02*
X157742890Y-82603428D01*
X157742890Y-82603428D02*
X157742890Y-82412952D01*
X157742890Y-82412952D02*
X157790509Y-82317714D01*
X157790509Y-82317714D02*
X157838128Y-82270095D01*
X157838128Y-82270095D02*
X157933366Y-82222476D01*
X157933366Y-82222476D02*
X158123842Y-82222476D01*
X158123842Y-82222476D02*
X158219080Y-82270095D01*
X158219080Y-82270095D02*
X158266700Y-82317714D01*
X158266700Y-82317714D02*
X158314319Y-82412952D01*
X158314319Y-82412952D02*
X158314319Y-82603428D01*
X158314319Y-82603428D02*
X158266700Y-82698666D01*
X158266700Y-82698666D02*
X158219080Y-82746285D01*
X158219080Y-82746285D02*
X158123842Y-82793904D01*
X158123842Y-82793904D02*
X157933366Y-82793904D01*
X157933366Y-82793904D02*
X157838128Y-82746285D01*
X157838128Y-82746285D02*
X157790509Y-82698666D01*
X157790509Y-82698666D02*
X157742890Y-82603428D01*
X129029619Y-105783142D02*
X128553428Y-105449809D01*
X129029619Y-105211714D02*
X128029619Y-105211714D01*
X128029619Y-105211714D02*
X128029619Y-105592666D01*
X128029619Y-105592666D02*
X128077238Y-105687904D01*
X128077238Y-105687904D02*
X128124857Y-105735523D01*
X128124857Y-105735523D02*
X128220095Y-105783142D01*
X128220095Y-105783142D02*
X128362952Y-105783142D01*
X128362952Y-105783142D02*
X128458190Y-105735523D01*
X128458190Y-105735523D02*
X128505809Y-105687904D01*
X128505809Y-105687904D02*
X128553428Y-105592666D01*
X128553428Y-105592666D02*
X128553428Y-105211714D01*
X129029619Y-106735523D02*
X129029619Y-106164095D01*
X129029619Y-106449809D02*
X128029619Y-106449809D01*
X128029619Y-106449809D02*
X128172476Y-106354571D01*
X128172476Y-106354571D02*
X128267714Y-106259333D01*
X128267714Y-106259333D02*
X128315333Y-106164095D01*
X128124857Y-107116476D02*
X128077238Y-107164095D01*
X128077238Y-107164095D02*
X128029619Y-107259333D01*
X128029619Y-107259333D02*
X128029619Y-107497428D01*
X128029619Y-107497428D02*
X128077238Y-107592666D01*
X128077238Y-107592666D02*
X128124857Y-107640285D01*
X128124857Y-107640285D02*
X128220095Y-107687904D01*
X128220095Y-107687904D02*
X128315333Y-107687904D01*
X128315333Y-107687904D02*
X128458190Y-107640285D01*
X128458190Y-107640285D02*
X129029619Y-107068857D01*
X129029619Y-107068857D02*
X129029619Y-107687904D01*
X136920266Y-84782819D02*
X137396456Y-84782819D01*
X137396456Y-84782819D02*
X137396456Y-83782819D01*
X136063123Y-84782819D02*
X136634551Y-84782819D01*
X136348837Y-84782819D02*
X136348837Y-83782819D01*
X136348837Y-83782819D02*
X136444075Y-83925676D01*
X136444075Y-83925676D02*
X136539313Y-84020914D01*
X136539313Y-84020914D02*
X136634551Y-84068533D01*
X153878033Y-112751678D02*
X153925652Y-112799298D01*
X153925652Y-112799298D02*
X154068509Y-112846917D01*
X154068509Y-112846917D02*
X154163747Y-112846917D01*
X154163747Y-112846917D02*
X154306604Y-112799298D01*
X154306604Y-112799298D02*
X154401842Y-112704059D01*
X154401842Y-112704059D02*
X154449461Y-112608821D01*
X154449461Y-112608821D02*
X154497080Y-112418345D01*
X154497080Y-112418345D02*
X154497080Y-112275488D01*
X154497080Y-112275488D02*
X154449461Y-112085012D01*
X154449461Y-112085012D02*
X154401842Y-111989774D01*
X154401842Y-111989774D02*
X154306604Y-111894536D01*
X154306604Y-111894536D02*
X154163747Y-111846917D01*
X154163747Y-111846917D02*
X154068509Y-111846917D01*
X154068509Y-111846917D02*
X153925652Y-111894536D01*
X153925652Y-111894536D02*
X153878033Y-111942155D01*
X152925652Y-112846917D02*
X153497080Y-112846917D01*
X153211366Y-112846917D02*
X153211366Y-111846917D01*
X153211366Y-111846917D02*
X153306604Y-111989774D01*
X153306604Y-111989774D02*
X153401842Y-112085012D01*
X153401842Y-112085012D02*
X153497080Y-112132631D01*
X151973271Y-112846917D02*
X152544699Y-112846917D01*
X152258985Y-112846917D02*
X152258985Y-111846917D01*
X152258985Y-111846917D02*
X152354223Y-111989774D01*
X152354223Y-111989774D02*
X152449461Y-112085012D01*
X152449461Y-112085012D02*
X152544699Y-112132631D01*
X164498257Y-91031219D02*
X164831590Y-90555028D01*
X165069685Y-91031219D02*
X165069685Y-90031219D01*
X165069685Y-90031219D02*
X164688733Y-90031219D01*
X164688733Y-90031219D02*
X164593495Y-90078838D01*
X164593495Y-90078838D02*
X164545876Y-90126457D01*
X164545876Y-90126457D02*
X164498257Y-90221695D01*
X164498257Y-90221695D02*
X164498257Y-90364552D01*
X164498257Y-90364552D02*
X164545876Y-90459790D01*
X164545876Y-90459790D02*
X164593495Y-90507409D01*
X164593495Y-90507409D02*
X164688733Y-90555028D01*
X164688733Y-90555028D02*
X165069685Y-90555028D01*
X163545876Y-91031219D02*
X164117304Y-91031219D01*
X163831590Y-91031219D02*
X163831590Y-90031219D01*
X163831590Y-90031219D02*
X163926828Y-90174076D01*
X163926828Y-90174076D02*
X164022066Y-90269314D01*
X164022066Y-90269314D02*
X164117304Y-90316933D01*
X163069685Y-91031219D02*
X162879209Y-91031219D01*
X162879209Y-91031219D02*
X162783971Y-90983600D01*
X162783971Y-90983600D02*
X162736352Y-90935980D01*
X162736352Y-90935980D02*
X162641114Y-90793123D01*
X162641114Y-90793123D02*
X162593495Y-90602647D01*
X162593495Y-90602647D02*
X162593495Y-90221695D01*
X162593495Y-90221695D02*
X162641114Y-90126457D01*
X162641114Y-90126457D02*
X162688733Y-90078838D01*
X162688733Y-90078838D02*
X162783971Y-90031219D01*
X162783971Y-90031219D02*
X162974447Y-90031219D01*
X162974447Y-90031219D02*
X163069685Y-90078838D01*
X163069685Y-90078838D02*
X163117304Y-90126457D01*
X163117304Y-90126457D02*
X163164923Y-90221695D01*
X163164923Y-90221695D02*
X163164923Y-90459790D01*
X163164923Y-90459790D02*
X163117304Y-90555028D01*
X163117304Y-90555028D02*
X163069685Y-90602647D01*
X163069685Y-90602647D02*
X162974447Y-90650266D01*
X162974447Y-90650266D02*
X162783971Y-90650266D01*
X162783971Y-90650266D02*
X162688733Y-90602647D01*
X162688733Y-90602647D02*
X162641114Y-90555028D01*
X162641114Y-90555028D02*
X162593495Y-90459790D01*
X157356980Y-97274142D02*
X157404600Y-97226523D01*
X157404600Y-97226523D02*
X157452219Y-97083666D01*
X157452219Y-97083666D02*
X157452219Y-96988428D01*
X157452219Y-96988428D02*
X157404600Y-96845571D01*
X157404600Y-96845571D02*
X157309361Y-96750333D01*
X157309361Y-96750333D02*
X157214123Y-96702714D01*
X157214123Y-96702714D02*
X157023647Y-96655095D01*
X157023647Y-96655095D02*
X156880790Y-96655095D01*
X156880790Y-96655095D02*
X156690314Y-96702714D01*
X156690314Y-96702714D02*
X156595076Y-96750333D01*
X156595076Y-96750333D02*
X156499838Y-96845571D01*
X156499838Y-96845571D02*
X156452219Y-96988428D01*
X156452219Y-96988428D02*
X156452219Y-97083666D01*
X156452219Y-97083666D02*
X156499838Y-97226523D01*
X156499838Y-97226523D02*
X156547457Y-97274142D01*
X157452219Y-98226523D02*
X157452219Y-97655095D01*
X157452219Y-97940809D02*
X156452219Y-97940809D01*
X156452219Y-97940809D02*
X156595076Y-97845571D01*
X156595076Y-97845571D02*
X156690314Y-97750333D01*
X156690314Y-97750333D02*
X156737933Y-97655095D01*
X156452219Y-98559857D02*
X156452219Y-99178904D01*
X156452219Y-99178904D02*
X156833171Y-98845571D01*
X156833171Y-98845571D02*
X156833171Y-98988428D01*
X156833171Y-98988428D02*
X156880790Y-99083666D01*
X156880790Y-99083666D02*
X156928409Y-99131285D01*
X156928409Y-99131285D02*
X157023647Y-99178904D01*
X157023647Y-99178904D02*
X157261742Y-99178904D01*
X157261742Y-99178904D02*
X157356980Y-99131285D01*
X157356980Y-99131285D02*
X157404600Y-99083666D01*
X157404600Y-99083666D02*
X157452219Y-98988428D01*
X157452219Y-98988428D02*
X157452219Y-98702714D01*
X157452219Y-98702714D02*
X157404600Y-98607476D01*
X157404600Y-98607476D02*
X157356980Y-98559857D01*
X159242467Y-103927299D02*
X159242467Y-103451109D01*
X159242467Y-103451109D02*
X158242467Y-103451109D01*
X158337705Y-104213014D02*
X158290086Y-104260633D01*
X158290086Y-104260633D02*
X158242467Y-104355871D01*
X158242467Y-104355871D02*
X158242467Y-104593966D01*
X158242467Y-104593966D02*
X158290086Y-104689204D01*
X158290086Y-104689204D02*
X158337705Y-104736823D01*
X158337705Y-104736823D02*
X158432943Y-104784442D01*
X158432943Y-104784442D02*
X158528181Y-104784442D01*
X158528181Y-104784442D02*
X158671038Y-104736823D01*
X158671038Y-104736823D02*
X159242467Y-104165395D01*
X159242467Y-104165395D02*
X159242467Y-104784442D01*
X138048904Y-95263619D02*
X138048904Y-96073142D01*
X138048904Y-96073142D02*
X138001285Y-96168380D01*
X138001285Y-96168380D02*
X137953666Y-96216000D01*
X137953666Y-96216000D02*
X137858428Y-96263619D01*
X137858428Y-96263619D02*
X137667952Y-96263619D01*
X137667952Y-96263619D02*
X137572714Y-96216000D01*
X137572714Y-96216000D02*
X137525095Y-96168380D01*
X137525095Y-96168380D02*
X137477476Y-96073142D01*
X137477476Y-96073142D02*
X137477476Y-95263619D01*
X137096523Y-95263619D02*
X136477476Y-95263619D01*
X136477476Y-95263619D02*
X136810809Y-95644571D01*
X136810809Y-95644571D02*
X136667952Y-95644571D01*
X136667952Y-95644571D02*
X136572714Y-95692190D01*
X136572714Y-95692190D02*
X136525095Y-95739809D01*
X136525095Y-95739809D02*
X136477476Y-95835047D01*
X136477476Y-95835047D02*
X136477476Y-96073142D01*
X136477476Y-96073142D02*
X136525095Y-96168380D01*
X136525095Y-96168380D02*
X136572714Y-96216000D01*
X136572714Y-96216000D02*
X136667952Y-96263619D01*
X136667952Y-96263619D02*
X136953666Y-96263619D01*
X136953666Y-96263619D02*
X137048904Y-96216000D01*
X137048904Y-96216000D02*
X137096523Y-96168380D01*
X148085980Y-106335533D02*
X148133600Y-106287914D01*
X148133600Y-106287914D02*
X148181219Y-106145057D01*
X148181219Y-106145057D02*
X148181219Y-106049819D01*
X148181219Y-106049819D02*
X148133600Y-105906962D01*
X148133600Y-105906962D02*
X148038361Y-105811724D01*
X148038361Y-105811724D02*
X147943123Y-105764105D01*
X147943123Y-105764105D02*
X147752647Y-105716486D01*
X147752647Y-105716486D02*
X147609790Y-105716486D01*
X147609790Y-105716486D02*
X147419314Y-105764105D01*
X147419314Y-105764105D02*
X147324076Y-105811724D01*
X147324076Y-105811724D02*
X147228838Y-105906962D01*
X147228838Y-105906962D02*
X147181219Y-106049819D01*
X147181219Y-106049819D02*
X147181219Y-106145057D01*
X147181219Y-106145057D02*
X147228838Y-106287914D01*
X147228838Y-106287914D02*
X147276457Y-106335533D01*
X147609790Y-106906962D02*
X147562171Y-106811724D01*
X147562171Y-106811724D02*
X147514552Y-106764105D01*
X147514552Y-106764105D02*
X147419314Y-106716486D01*
X147419314Y-106716486D02*
X147371695Y-106716486D01*
X147371695Y-106716486D02*
X147276457Y-106764105D01*
X147276457Y-106764105D02*
X147228838Y-106811724D01*
X147228838Y-106811724D02*
X147181219Y-106906962D01*
X147181219Y-106906962D02*
X147181219Y-107097438D01*
X147181219Y-107097438D02*
X147228838Y-107192676D01*
X147228838Y-107192676D02*
X147276457Y-107240295D01*
X147276457Y-107240295D02*
X147371695Y-107287914D01*
X147371695Y-107287914D02*
X147419314Y-107287914D01*
X147419314Y-107287914D02*
X147514552Y-107240295D01*
X147514552Y-107240295D02*
X147562171Y-107192676D01*
X147562171Y-107192676D02*
X147609790Y-107097438D01*
X147609790Y-107097438D02*
X147609790Y-106906962D01*
X147609790Y-106906962D02*
X147657409Y-106811724D01*
X147657409Y-106811724D02*
X147705028Y-106764105D01*
X147705028Y-106764105D02*
X147800266Y-106716486D01*
X147800266Y-106716486D02*
X147990742Y-106716486D01*
X147990742Y-106716486D02*
X148085980Y-106764105D01*
X148085980Y-106764105D02*
X148133600Y-106811724D01*
X148133600Y-106811724D02*
X148181219Y-106906962D01*
X148181219Y-106906962D02*
X148181219Y-107097438D01*
X148181219Y-107097438D02*
X148133600Y-107192676D01*
X148133600Y-107192676D02*
X148085980Y-107240295D01*
X148085980Y-107240295D02*
X147990742Y-107287914D01*
X147990742Y-107287914D02*
X147800266Y-107287914D01*
X147800266Y-107287914D02*
X147705028Y-107240295D01*
X147705028Y-107240295D02*
X147657409Y-107192676D01*
X147657409Y-107192676D02*
X147609790Y-107097438D01*
X128978819Y-101642942D02*
X128502628Y-101309609D01*
X128978819Y-101071514D02*
X127978819Y-101071514D01*
X127978819Y-101071514D02*
X127978819Y-101452466D01*
X127978819Y-101452466D02*
X128026438Y-101547704D01*
X128026438Y-101547704D02*
X128074057Y-101595323D01*
X128074057Y-101595323D02*
X128169295Y-101642942D01*
X128169295Y-101642942D02*
X128312152Y-101642942D01*
X128312152Y-101642942D02*
X128407390Y-101595323D01*
X128407390Y-101595323D02*
X128455009Y-101547704D01*
X128455009Y-101547704D02*
X128502628Y-101452466D01*
X128502628Y-101452466D02*
X128502628Y-101071514D01*
X128978819Y-102595323D02*
X128978819Y-102023895D01*
X128978819Y-102309609D02*
X127978819Y-102309609D01*
X127978819Y-102309609D02*
X128121676Y-102214371D01*
X128121676Y-102214371D02*
X128216914Y-102119133D01*
X128216914Y-102119133D02*
X128264533Y-102023895D01*
X127978819Y-103214371D02*
X127978819Y-103309609D01*
X127978819Y-103309609D02*
X128026438Y-103404847D01*
X128026438Y-103404847D02*
X128074057Y-103452466D01*
X128074057Y-103452466D02*
X128169295Y-103500085D01*
X128169295Y-103500085D02*
X128359771Y-103547704D01*
X128359771Y-103547704D02*
X128597866Y-103547704D01*
X128597866Y-103547704D02*
X128788342Y-103500085D01*
X128788342Y-103500085D02*
X128883580Y-103452466D01*
X128883580Y-103452466D02*
X128931200Y-103404847D01*
X128931200Y-103404847D02*
X128978819Y-103309609D01*
X128978819Y-103309609D02*
X128978819Y-103214371D01*
X128978819Y-103214371D02*
X128931200Y-103119133D01*
X128931200Y-103119133D02*
X128883580Y-103071514D01*
X128883580Y-103071514D02*
X128788342Y-103023895D01*
X128788342Y-103023895D02*
X128597866Y-102976276D01*
X128597866Y-102976276D02*
X128359771Y-102976276D01*
X128359771Y-102976276D02*
X128169295Y-103023895D01*
X128169295Y-103023895D02*
X128074057Y-103071514D01*
X128074057Y-103071514D02*
X128026438Y-103119133D01*
X128026438Y-103119133D02*
X127978819Y-103214371D01*
X153322257Y-109649419D02*
X153655590Y-109173228D01*
X153893685Y-109649419D02*
X153893685Y-108649419D01*
X153893685Y-108649419D02*
X153512733Y-108649419D01*
X153512733Y-108649419D02*
X153417495Y-108697038D01*
X153417495Y-108697038D02*
X153369876Y-108744657D01*
X153369876Y-108744657D02*
X153322257Y-108839895D01*
X153322257Y-108839895D02*
X153322257Y-108982752D01*
X153322257Y-108982752D02*
X153369876Y-109077990D01*
X153369876Y-109077990D02*
X153417495Y-109125609D01*
X153417495Y-109125609D02*
X153512733Y-109173228D01*
X153512733Y-109173228D02*
X153893685Y-109173228D01*
X152941304Y-108744657D02*
X152893685Y-108697038D01*
X152893685Y-108697038D02*
X152798447Y-108649419D01*
X152798447Y-108649419D02*
X152560352Y-108649419D01*
X152560352Y-108649419D02*
X152465114Y-108697038D01*
X152465114Y-108697038D02*
X152417495Y-108744657D01*
X152417495Y-108744657D02*
X152369876Y-108839895D01*
X152369876Y-108839895D02*
X152369876Y-108935133D01*
X152369876Y-108935133D02*
X152417495Y-109077990D01*
X152417495Y-109077990D02*
X152988923Y-109649419D01*
X152988923Y-109649419D02*
X152369876Y-109649419D01*
X152036542Y-108649419D02*
X151417495Y-108649419D01*
X151417495Y-108649419D02*
X151750828Y-109030371D01*
X151750828Y-109030371D02*
X151607971Y-109030371D01*
X151607971Y-109030371D02*
X151512733Y-109077990D01*
X151512733Y-109077990D02*
X151465114Y-109125609D01*
X151465114Y-109125609D02*
X151417495Y-109220847D01*
X151417495Y-109220847D02*
X151417495Y-109458942D01*
X151417495Y-109458942D02*
X151465114Y-109554180D01*
X151465114Y-109554180D02*
X151512733Y-109601800D01*
X151512733Y-109601800D02*
X151607971Y-109649419D01*
X151607971Y-109649419D02*
X151893685Y-109649419D01*
X151893685Y-109649419D02*
X151988923Y-109601800D01*
X151988923Y-109601800D02*
X152036542Y-109554180D01*
X149629019Y-78986142D02*
X149152828Y-78652809D01*
X149629019Y-78414714D02*
X148629019Y-78414714D01*
X148629019Y-78414714D02*
X148629019Y-78795666D01*
X148629019Y-78795666D02*
X148676638Y-78890904D01*
X148676638Y-78890904D02*
X148724257Y-78938523D01*
X148724257Y-78938523D02*
X148819495Y-78986142D01*
X148819495Y-78986142D02*
X148962352Y-78986142D01*
X148962352Y-78986142D02*
X149057590Y-78938523D01*
X149057590Y-78938523D02*
X149105209Y-78890904D01*
X149105209Y-78890904D02*
X149152828Y-78795666D01*
X149152828Y-78795666D02*
X149152828Y-78414714D01*
X148724257Y-79367095D02*
X148676638Y-79414714D01*
X148676638Y-79414714D02*
X148629019Y-79509952D01*
X148629019Y-79509952D02*
X148629019Y-79748047D01*
X148629019Y-79748047D02*
X148676638Y-79843285D01*
X148676638Y-79843285D02*
X148724257Y-79890904D01*
X148724257Y-79890904D02*
X148819495Y-79938523D01*
X148819495Y-79938523D02*
X148914733Y-79938523D01*
X148914733Y-79938523D02*
X149057590Y-79890904D01*
X149057590Y-79890904D02*
X149629019Y-79319476D01*
X149629019Y-79319476D02*
X149629019Y-79938523D01*
X148629019Y-80843285D02*
X148629019Y-80367095D01*
X148629019Y-80367095D02*
X149105209Y-80319476D01*
X149105209Y-80319476D02*
X149057590Y-80367095D01*
X149057590Y-80367095D02*
X149009971Y-80462333D01*
X149009971Y-80462333D02*
X149009971Y-80700428D01*
X149009971Y-80700428D02*
X149057590Y-80795666D01*
X149057590Y-80795666D02*
X149105209Y-80843285D01*
X149105209Y-80843285D02*
X149200447Y-80890904D01*
X149200447Y-80890904D02*
X149438542Y-80890904D01*
X149438542Y-80890904D02*
X149533780Y-80843285D01*
X149533780Y-80843285D02*
X149581400Y-80795666D01*
X149581400Y-80795666D02*
X149629019Y-80700428D01*
X149629019Y-80700428D02*
X149629019Y-80462333D01*
X149629019Y-80462333D02*
X149581400Y-80367095D01*
X149581400Y-80367095D02*
X149533780Y-80319476D01*
X161573380Y-110202742D02*
X161621000Y-110155123D01*
X161621000Y-110155123D02*
X161668619Y-110012266D01*
X161668619Y-110012266D02*
X161668619Y-109917028D01*
X161668619Y-109917028D02*
X161621000Y-109774171D01*
X161621000Y-109774171D02*
X161525761Y-109678933D01*
X161525761Y-109678933D02*
X161430523Y-109631314D01*
X161430523Y-109631314D02*
X161240047Y-109583695D01*
X161240047Y-109583695D02*
X161097190Y-109583695D01*
X161097190Y-109583695D02*
X160906714Y-109631314D01*
X160906714Y-109631314D02*
X160811476Y-109678933D01*
X160811476Y-109678933D02*
X160716238Y-109774171D01*
X160716238Y-109774171D02*
X160668619Y-109917028D01*
X160668619Y-109917028D02*
X160668619Y-110012266D01*
X160668619Y-110012266D02*
X160716238Y-110155123D01*
X160716238Y-110155123D02*
X160763857Y-110202742D01*
X161668619Y-111155123D02*
X161668619Y-110583695D01*
X161668619Y-110869409D02*
X160668619Y-110869409D01*
X160668619Y-110869409D02*
X160811476Y-110774171D01*
X160811476Y-110774171D02*
X160906714Y-110678933D01*
X160906714Y-110678933D02*
X160954333Y-110583695D01*
X160668619Y-111774171D02*
X160668619Y-111869409D01*
X160668619Y-111869409D02*
X160716238Y-111964647D01*
X160716238Y-111964647D02*
X160763857Y-112012266D01*
X160763857Y-112012266D02*
X160859095Y-112059885D01*
X160859095Y-112059885D02*
X161049571Y-112107504D01*
X161049571Y-112107504D02*
X161287666Y-112107504D01*
X161287666Y-112107504D02*
X161478142Y-112059885D01*
X161478142Y-112059885D02*
X161573380Y-112012266D01*
X161573380Y-112012266D02*
X161621000Y-111964647D01*
X161621000Y-111964647D02*
X161668619Y-111869409D01*
X161668619Y-111869409D02*
X161668619Y-111774171D01*
X161668619Y-111774171D02*
X161621000Y-111678933D01*
X161621000Y-111678933D02*
X161573380Y-111631314D01*
X161573380Y-111631314D02*
X161478142Y-111583695D01*
X161478142Y-111583695D02*
X161287666Y-111536076D01*
X161287666Y-111536076D02*
X161049571Y-111536076D01*
X161049571Y-111536076D02*
X160859095Y-111583695D01*
X160859095Y-111583695D02*
X160763857Y-111631314D01*
X160763857Y-111631314D02*
X160716238Y-111678933D01*
X160716238Y-111678933D02*
X160668619Y-111774171D01*
X137945019Y-82078533D02*
X137468828Y-81745200D01*
X137945019Y-81507105D02*
X136945019Y-81507105D01*
X136945019Y-81507105D02*
X136945019Y-81888057D01*
X136945019Y-81888057D02*
X136992638Y-81983295D01*
X136992638Y-81983295D02*
X137040257Y-82030914D01*
X137040257Y-82030914D02*
X137135495Y-82078533D01*
X137135495Y-82078533D02*
X137278352Y-82078533D01*
X137278352Y-82078533D02*
X137373590Y-82030914D01*
X137373590Y-82030914D02*
X137421209Y-81983295D01*
X137421209Y-81983295D02*
X137468828Y-81888057D01*
X137468828Y-81888057D02*
X137468828Y-81507105D01*
X136945019Y-82983295D02*
X136945019Y-82507105D01*
X136945019Y-82507105D02*
X137421209Y-82459486D01*
X137421209Y-82459486D02*
X137373590Y-82507105D01*
X137373590Y-82507105D02*
X137325971Y-82602343D01*
X137325971Y-82602343D02*
X137325971Y-82840438D01*
X137325971Y-82840438D02*
X137373590Y-82935676D01*
X137373590Y-82935676D02*
X137421209Y-82983295D01*
X137421209Y-82983295D02*
X137516447Y-83030914D01*
X137516447Y-83030914D02*
X137754542Y-83030914D01*
X137754542Y-83030914D02*
X137849780Y-82983295D01*
X137849780Y-82983295D02*
X137897400Y-82935676D01*
X137897400Y-82935676D02*
X137945019Y-82840438D01*
X137945019Y-82840438D02*
X137945019Y-82602343D01*
X137945019Y-82602343D02*
X137897400Y-82507105D01*
X137897400Y-82507105D02*
X137849780Y-82459486D01*
X149507533Y-75477019D02*
X149507533Y-76191304D01*
X149507533Y-76191304D02*
X149555152Y-76334161D01*
X149555152Y-76334161D02*
X149650390Y-76429400D01*
X149650390Y-76429400D02*
X149793247Y-76477019D01*
X149793247Y-76477019D02*
X149888485Y-76477019D01*
X149126580Y-75477019D02*
X148507533Y-75477019D01*
X148507533Y-75477019D02*
X148840866Y-75857971D01*
X148840866Y-75857971D02*
X148698009Y-75857971D01*
X148698009Y-75857971D02*
X148602771Y-75905590D01*
X148602771Y-75905590D02*
X148555152Y-75953209D01*
X148555152Y-75953209D02*
X148507533Y-76048447D01*
X148507533Y-76048447D02*
X148507533Y-76286542D01*
X148507533Y-76286542D02*
X148555152Y-76381780D01*
X148555152Y-76381780D02*
X148602771Y-76429400D01*
X148602771Y-76429400D02*
X148698009Y-76477019D01*
X148698009Y-76477019D02*
X148983723Y-76477019D01*
X148983723Y-76477019D02*
X149078961Y-76429400D01*
X149078961Y-76429400D02*
X149126580Y-76381780D01*
X129004219Y-109948742D02*
X128528028Y-109615409D01*
X129004219Y-109377314D02*
X128004219Y-109377314D01*
X128004219Y-109377314D02*
X128004219Y-109758266D01*
X128004219Y-109758266D02*
X128051838Y-109853504D01*
X128051838Y-109853504D02*
X128099457Y-109901123D01*
X128099457Y-109901123D02*
X128194695Y-109948742D01*
X128194695Y-109948742D02*
X128337552Y-109948742D01*
X128337552Y-109948742D02*
X128432790Y-109901123D01*
X128432790Y-109901123D02*
X128480409Y-109853504D01*
X128480409Y-109853504D02*
X128528028Y-109758266D01*
X128528028Y-109758266D02*
X128528028Y-109377314D01*
X129004219Y-110901123D02*
X129004219Y-110329695D01*
X129004219Y-110615409D02*
X128004219Y-110615409D01*
X128004219Y-110615409D02*
X128147076Y-110520171D01*
X128147076Y-110520171D02*
X128242314Y-110424933D01*
X128242314Y-110424933D02*
X128289933Y-110329695D01*
X128004219Y-111758266D02*
X128004219Y-111567790D01*
X128004219Y-111567790D02*
X128051838Y-111472552D01*
X128051838Y-111472552D02*
X128099457Y-111424933D01*
X128099457Y-111424933D02*
X128242314Y-111329695D01*
X128242314Y-111329695D02*
X128432790Y-111282076D01*
X128432790Y-111282076D02*
X128813742Y-111282076D01*
X128813742Y-111282076D02*
X128908980Y-111329695D01*
X128908980Y-111329695D02*
X128956600Y-111377314D01*
X128956600Y-111377314D02*
X129004219Y-111472552D01*
X129004219Y-111472552D02*
X129004219Y-111663028D01*
X129004219Y-111663028D02*
X128956600Y-111758266D01*
X128956600Y-111758266D02*
X128908980Y-111805885D01*
X128908980Y-111805885D02*
X128813742Y-111853504D01*
X128813742Y-111853504D02*
X128575647Y-111853504D01*
X128575647Y-111853504D02*
X128480409Y-111805885D01*
X128480409Y-111805885D02*
X128432790Y-111758266D01*
X128432790Y-111758266D02*
X128385171Y-111663028D01*
X128385171Y-111663028D02*
X128385171Y-111472552D01*
X128385171Y-111472552D02*
X128432790Y-111377314D01*
X128432790Y-111377314D02*
X128480409Y-111329695D01*
X128480409Y-111329695D02*
X128575647Y-111282076D01*
X148486019Y-103008133D02*
X148009828Y-102674800D01*
X148486019Y-102436705D02*
X147486019Y-102436705D01*
X147486019Y-102436705D02*
X147486019Y-102817657D01*
X147486019Y-102817657D02*
X147533638Y-102912895D01*
X147533638Y-102912895D02*
X147581257Y-102960514D01*
X147581257Y-102960514D02*
X147676495Y-103008133D01*
X147676495Y-103008133D02*
X147819352Y-103008133D01*
X147819352Y-103008133D02*
X147914590Y-102960514D01*
X147914590Y-102960514D02*
X147962209Y-102912895D01*
X147962209Y-102912895D02*
X148009828Y-102817657D01*
X148009828Y-102817657D02*
X148009828Y-102436705D01*
X147914590Y-103579562D02*
X147866971Y-103484324D01*
X147866971Y-103484324D02*
X147819352Y-103436705D01*
X147819352Y-103436705D02*
X147724114Y-103389086D01*
X147724114Y-103389086D02*
X147676495Y-103389086D01*
X147676495Y-103389086D02*
X147581257Y-103436705D01*
X147581257Y-103436705D02*
X147533638Y-103484324D01*
X147533638Y-103484324D02*
X147486019Y-103579562D01*
X147486019Y-103579562D02*
X147486019Y-103770038D01*
X147486019Y-103770038D02*
X147533638Y-103865276D01*
X147533638Y-103865276D02*
X147581257Y-103912895D01*
X147581257Y-103912895D02*
X147676495Y-103960514D01*
X147676495Y-103960514D02*
X147724114Y-103960514D01*
X147724114Y-103960514D02*
X147819352Y-103912895D01*
X147819352Y-103912895D02*
X147866971Y-103865276D01*
X147866971Y-103865276D02*
X147914590Y-103770038D01*
X147914590Y-103770038D02*
X147914590Y-103579562D01*
X147914590Y-103579562D02*
X147962209Y-103484324D01*
X147962209Y-103484324D02*
X148009828Y-103436705D01*
X148009828Y-103436705D02*
X148105066Y-103389086D01*
X148105066Y-103389086D02*
X148295542Y-103389086D01*
X148295542Y-103389086D02*
X148390780Y-103436705D01*
X148390780Y-103436705D02*
X148438400Y-103484324D01*
X148438400Y-103484324D02*
X148486019Y-103579562D01*
X148486019Y-103579562D02*
X148486019Y-103770038D01*
X148486019Y-103770038D02*
X148438400Y-103865276D01*
X148438400Y-103865276D02*
X148390780Y-103912895D01*
X148390780Y-103912895D02*
X148295542Y-103960514D01*
X148295542Y-103960514D02*
X148105066Y-103960514D01*
X148105066Y-103960514D02*
X148009828Y-103912895D01*
X148009828Y-103912895D02*
X147962209Y-103865276D01*
X147962209Y-103865276D02*
X147914590Y-103770038D01*
X155367166Y-95430580D02*
X155414785Y-95478200D01*
X155414785Y-95478200D02*
X155557642Y-95525819D01*
X155557642Y-95525819D02*
X155652880Y-95525819D01*
X155652880Y-95525819D02*
X155795737Y-95478200D01*
X155795737Y-95478200D02*
X155890975Y-95382961D01*
X155890975Y-95382961D02*
X155938594Y-95287723D01*
X155938594Y-95287723D02*
X155986213Y-95097247D01*
X155986213Y-95097247D02*
X155986213Y-94954390D01*
X155986213Y-94954390D02*
X155938594Y-94763914D01*
X155938594Y-94763914D02*
X155890975Y-94668676D01*
X155890975Y-94668676D02*
X155795737Y-94573438D01*
X155795737Y-94573438D02*
X155652880Y-94525819D01*
X155652880Y-94525819D02*
X155557642Y-94525819D01*
X155557642Y-94525819D02*
X155414785Y-94573438D01*
X155414785Y-94573438D02*
X155367166Y-94621057D01*
X154414785Y-95525819D02*
X154986213Y-95525819D01*
X154700499Y-95525819D02*
X154700499Y-94525819D01*
X154700499Y-94525819D02*
X154795737Y-94668676D01*
X154795737Y-94668676D02*
X154890975Y-94763914D01*
X154890975Y-94763914D02*
X154986213Y-94811533D01*
X147353056Y-80975754D02*
X147252041Y-80403335D01*
X147757117Y-80571693D02*
X147050010Y-79864587D01*
X147050010Y-79864587D02*
X146780636Y-80133961D01*
X146780636Y-80133961D02*
X146746964Y-80234976D01*
X146746964Y-80234976D02*
X146746964Y-80302319D01*
X146746964Y-80302319D02*
X146780636Y-80403335D01*
X146780636Y-80403335D02*
X146881651Y-80504350D01*
X146881651Y-80504350D02*
X146982667Y-80538022D01*
X146982667Y-80538022D02*
X147050010Y-80538022D01*
X147050010Y-80538022D02*
X147151025Y-80504350D01*
X147151025Y-80504350D02*
X147420399Y-80234976D01*
X146679621Y-81649189D02*
X147083682Y-81245128D01*
X146881651Y-81447159D02*
X146174545Y-80740052D01*
X146174545Y-80740052D02*
X146342903Y-80773724D01*
X146342903Y-80773724D02*
X146477590Y-80773724D01*
X146477590Y-80773724D02*
X146578606Y-80740052D01*
X134075466Y-95628619D02*
X134408799Y-95152428D01*
X134646894Y-95628619D02*
X134646894Y-94628619D01*
X134646894Y-94628619D02*
X134265942Y-94628619D01*
X134265942Y-94628619D02*
X134170704Y-94676238D01*
X134170704Y-94676238D02*
X134123085Y-94723857D01*
X134123085Y-94723857D02*
X134075466Y-94819095D01*
X134075466Y-94819095D02*
X134075466Y-94961952D01*
X134075466Y-94961952D02*
X134123085Y-95057190D01*
X134123085Y-95057190D02*
X134170704Y-95104809D01*
X134170704Y-95104809D02*
X134265942Y-95152428D01*
X134265942Y-95152428D02*
X134646894Y-95152428D01*
X133218323Y-94961952D02*
X133218323Y-95628619D01*
X133456418Y-94581000D02*
X133694513Y-95295285D01*
X133694513Y-95295285D02*
X133075466Y-95295285D01*
X155241906Y-99438630D02*
X155241906Y-99505974D01*
X155241906Y-99505974D02*
X155309250Y-99640661D01*
X155309250Y-99640661D02*
X155376593Y-99708004D01*
X155376593Y-99708004D02*
X155511280Y-99775348D01*
X155511280Y-99775348D02*
X155645967Y-99775348D01*
X155645967Y-99775348D02*
X155746982Y-99741676D01*
X155746982Y-99741676D02*
X155915341Y-99640661D01*
X155915341Y-99640661D02*
X156016356Y-99539646D01*
X156016356Y-99539646D02*
X156117372Y-99371287D01*
X156117372Y-99371287D02*
X156151043Y-99270272D01*
X156151043Y-99270272D02*
X156151043Y-99135585D01*
X156151043Y-99135585D02*
X156083700Y-99000898D01*
X156083700Y-99000898D02*
X156016356Y-98933554D01*
X156016356Y-98933554D02*
X155881669Y-98866211D01*
X155881669Y-98866211D02*
X155814326Y-98866211D01*
X154501128Y-98832539D02*
X154905189Y-99236600D01*
X154703158Y-99034569D02*
X155410265Y-98327463D01*
X155410265Y-98327463D02*
X155376593Y-98495821D01*
X155376593Y-98495821D02*
X155376593Y-98630508D01*
X155376593Y-98630508D02*
X155410265Y-98731524D01*
X154366440Y-97755043D02*
X153895036Y-98226447D01*
X154804173Y-97654027D02*
X154467456Y-98327462D01*
X154467456Y-98327462D02*
X154029723Y-97889730D01*
X124057580Y-100010933D02*
X124105200Y-99963314D01*
X124105200Y-99963314D02*
X124152819Y-99820457D01*
X124152819Y-99820457D02*
X124152819Y-99725219D01*
X124152819Y-99725219D02*
X124105200Y-99582362D01*
X124105200Y-99582362D02*
X124009961Y-99487124D01*
X124009961Y-99487124D02*
X123914723Y-99439505D01*
X123914723Y-99439505D02*
X123724247Y-99391886D01*
X123724247Y-99391886D02*
X123581390Y-99391886D01*
X123581390Y-99391886D02*
X123390914Y-99439505D01*
X123390914Y-99439505D02*
X123295676Y-99487124D01*
X123295676Y-99487124D02*
X123200438Y-99582362D01*
X123200438Y-99582362D02*
X123152819Y-99725219D01*
X123152819Y-99725219D02*
X123152819Y-99820457D01*
X123152819Y-99820457D02*
X123200438Y-99963314D01*
X123200438Y-99963314D02*
X123248057Y-100010933D01*
X123248057Y-100391886D02*
X123200438Y-100439505D01*
X123200438Y-100439505D02*
X123152819Y-100534743D01*
X123152819Y-100534743D02*
X123152819Y-100772838D01*
X123152819Y-100772838D02*
X123200438Y-100868076D01*
X123200438Y-100868076D02*
X123248057Y-100915695D01*
X123248057Y-100915695D02*
X123343295Y-100963314D01*
X123343295Y-100963314D02*
X123438533Y-100963314D01*
X123438533Y-100963314D02*
X123581390Y-100915695D01*
X123581390Y-100915695D02*
X124152819Y-100344267D01*
X124152819Y-100344267D02*
X124152819Y-100963314D01*
X143079695Y-114180209D02*
X143413028Y-114180209D01*
X143413028Y-114704019D02*
X143413028Y-113704019D01*
X143413028Y-113704019D02*
X142936838Y-113704019D01*
X142079695Y-114704019D02*
X142555885Y-114704019D01*
X142555885Y-114704019D02*
X142555885Y-113704019D01*
X141222552Y-114704019D02*
X141793980Y-114704019D01*
X141508266Y-114704019D02*
X141508266Y-113704019D01*
X141508266Y-113704019D02*
X141603504Y-113846876D01*
X141603504Y-113846876D02*
X141698742Y-113942114D01*
X141698742Y-113942114D02*
X141793980Y-113989733D01*
X144779904Y-84595619D02*
X144779904Y-85405142D01*
X144779904Y-85405142D02*
X144732285Y-85500380D01*
X144732285Y-85500380D02*
X144684666Y-85548000D01*
X144684666Y-85548000D02*
X144589428Y-85595619D01*
X144589428Y-85595619D02*
X144398952Y-85595619D01*
X144398952Y-85595619D02*
X144303714Y-85548000D01*
X144303714Y-85548000D02*
X144256095Y-85500380D01*
X144256095Y-85500380D02*
X144208476Y-85405142D01*
X144208476Y-85405142D02*
X144208476Y-84595619D01*
X143208476Y-85595619D02*
X143779904Y-85595619D01*
X143494190Y-85595619D02*
X143494190Y-84595619D01*
X143494190Y-84595619D02*
X143589428Y-84738476D01*
X143589428Y-84738476D02*
X143684666Y-84833714D01*
X143684666Y-84833714D02*
X143779904Y-84881333D01*
X133607133Y-116879019D02*
X133607133Y-117593304D01*
X133607133Y-117593304D02*
X133654752Y-117736161D01*
X133654752Y-117736161D02*
X133749990Y-117831400D01*
X133749990Y-117831400D02*
X133892847Y-117879019D01*
X133892847Y-117879019D02*
X133988085Y-117879019D01*
X132607133Y-117879019D02*
X133178561Y-117879019D01*
X132892847Y-117879019D02*
X132892847Y-116879019D01*
X132892847Y-116879019D02*
X132988085Y-117021876D01*
X132988085Y-117021876D02*
X133083323Y-117117114D01*
X133083323Y-117117114D02*
X133178561Y-117164733D01*
X150756857Y-103686780D02*
X150804476Y-103734400D01*
X150804476Y-103734400D02*
X150947333Y-103782019D01*
X150947333Y-103782019D02*
X151042571Y-103782019D01*
X151042571Y-103782019D02*
X151185428Y-103734400D01*
X151185428Y-103734400D02*
X151280666Y-103639161D01*
X151280666Y-103639161D02*
X151328285Y-103543923D01*
X151328285Y-103543923D02*
X151375904Y-103353447D01*
X151375904Y-103353447D02*
X151375904Y-103210590D01*
X151375904Y-103210590D02*
X151328285Y-103020114D01*
X151328285Y-103020114D02*
X151280666Y-102924876D01*
X151280666Y-102924876D02*
X151185428Y-102829638D01*
X151185428Y-102829638D02*
X151042571Y-102782019D01*
X151042571Y-102782019D02*
X150947333Y-102782019D01*
X150947333Y-102782019D02*
X150804476Y-102829638D01*
X150804476Y-102829638D02*
X150756857Y-102877257D01*
X149804476Y-103782019D02*
X150375904Y-103782019D01*
X150090190Y-103782019D02*
X150090190Y-102782019D01*
X150090190Y-102782019D02*
X150185428Y-102924876D01*
X150185428Y-102924876D02*
X150280666Y-103020114D01*
X150280666Y-103020114D02*
X150375904Y-103067733D01*
X149423523Y-102877257D02*
X149375904Y-102829638D01*
X149375904Y-102829638D02*
X149280666Y-102782019D01*
X149280666Y-102782019D02*
X149042571Y-102782019D01*
X149042571Y-102782019D02*
X148947333Y-102829638D01*
X148947333Y-102829638D02*
X148899714Y-102877257D01*
X148899714Y-102877257D02*
X148852095Y-102972495D01*
X148852095Y-102972495D02*
X148852095Y-103067733D01*
X148852095Y-103067733D02*
X148899714Y-103210590D01*
X148899714Y-103210590D02*
X149471142Y-103782019D01*
X149471142Y-103782019D02*
X148852095Y-103782019D01*
X146388057Y-96974819D02*
X146721390Y-96498628D01*
X146959485Y-96974819D02*
X146959485Y-95974819D01*
X146959485Y-95974819D02*
X146578533Y-95974819D01*
X146578533Y-95974819D02*
X146483295Y-96022438D01*
X146483295Y-96022438D02*
X146435676Y-96070057D01*
X146435676Y-96070057D02*
X146388057Y-96165295D01*
X146388057Y-96165295D02*
X146388057Y-96308152D01*
X146388057Y-96308152D02*
X146435676Y-96403390D01*
X146435676Y-96403390D02*
X146483295Y-96451009D01*
X146483295Y-96451009D02*
X146578533Y-96498628D01*
X146578533Y-96498628D02*
X146959485Y-96498628D01*
X145435676Y-96974819D02*
X146007104Y-96974819D01*
X145721390Y-96974819D02*
X145721390Y-95974819D01*
X145721390Y-95974819D02*
X145816628Y-96117676D01*
X145816628Y-96117676D02*
X145911866Y-96212914D01*
X145911866Y-96212914D02*
X146007104Y-96260533D01*
X144578533Y-96308152D02*
X144578533Y-96974819D01*
X144816628Y-95927200D02*
X145054723Y-96641485D01*
X145054723Y-96641485D02*
X144435676Y-96641485D01*
X131834820Y-91842832D02*
X131358629Y-91509499D01*
X131834820Y-91271404D02*
X130834820Y-91271404D01*
X130834820Y-91271404D02*
X130834820Y-91652356D01*
X130834820Y-91652356D02*
X130882439Y-91747594D01*
X130882439Y-91747594D02*
X130930058Y-91795213D01*
X130930058Y-91795213D02*
X131025296Y-91842832D01*
X131025296Y-91842832D02*
X131168153Y-91842832D01*
X131168153Y-91842832D02*
X131263391Y-91795213D01*
X131263391Y-91795213D02*
X131311010Y-91747594D01*
X131311010Y-91747594D02*
X131358629Y-91652356D01*
X131358629Y-91652356D02*
X131358629Y-91271404D01*
X130930058Y-92223785D02*
X130882439Y-92271404D01*
X130882439Y-92271404D02*
X130834820Y-92366642D01*
X130834820Y-92366642D02*
X130834820Y-92604737D01*
X130834820Y-92604737D02*
X130882439Y-92699975D01*
X130882439Y-92699975D02*
X130930058Y-92747594D01*
X130930058Y-92747594D02*
X131025296Y-92795213D01*
X131025296Y-92795213D02*
X131120534Y-92795213D01*
X131120534Y-92795213D02*
X131263391Y-92747594D01*
X131263391Y-92747594D02*
X131834820Y-92176166D01*
X131834820Y-92176166D02*
X131834820Y-92795213D01*
X159881866Y-106861780D02*
X159929485Y-106909400D01*
X159929485Y-106909400D02*
X160072342Y-106957019D01*
X160072342Y-106957019D02*
X160167580Y-106957019D01*
X160167580Y-106957019D02*
X160310437Y-106909400D01*
X160310437Y-106909400D02*
X160405675Y-106814161D01*
X160405675Y-106814161D02*
X160453294Y-106718923D01*
X160453294Y-106718923D02*
X160500913Y-106528447D01*
X160500913Y-106528447D02*
X160500913Y-106385590D01*
X160500913Y-106385590D02*
X160453294Y-106195114D01*
X160453294Y-106195114D02*
X160405675Y-106099876D01*
X160405675Y-106099876D02*
X160310437Y-106004638D01*
X160310437Y-106004638D02*
X160167580Y-105957019D01*
X160167580Y-105957019D02*
X160072342Y-105957019D01*
X160072342Y-105957019D02*
X159929485Y-106004638D01*
X159929485Y-106004638D02*
X159881866Y-106052257D01*
X159405675Y-106957019D02*
X159215199Y-106957019D01*
X159215199Y-106957019D02*
X159119961Y-106909400D01*
X159119961Y-106909400D02*
X159072342Y-106861780D01*
X159072342Y-106861780D02*
X158977104Y-106718923D01*
X158977104Y-106718923D02*
X158929485Y-106528447D01*
X158929485Y-106528447D02*
X158929485Y-106147495D01*
X158929485Y-106147495D02*
X158977104Y-106052257D01*
X158977104Y-106052257D02*
X159024723Y-106004638D01*
X159024723Y-106004638D02*
X159119961Y-105957019D01*
X159119961Y-105957019D02*
X159310437Y-105957019D01*
X159310437Y-105957019D02*
X159405675Y-106004638D01*
X159405675Y-106004638D02*
X159453294Y-106052257D01*
X159453294Y-106052257D02*
X159500913Y-106147495D01*
X159500913Y-106147495D02*
X159500913Y-106385590D01*
X159500913Y-106385590D02*
X159453294Y-106480828D01*
X159453294Y-106480828D02*
X159405675Y-106528447D01*
X159405675Y-106528447D02*
X159310437Y-106576066D01*
X159310437Y-106576066D02*
X159119961Y-106576066D01*
X159119961Y-106576066D02*
X159024723Y-106528447D01*
X159024723Y-106528447D02*
X158977104Y-106480828D01*
X158977104Y-106480828D02*
X158929485Y-106385590D01*
X124254419Y-104278133D02*
X123778228Y-103944800D01*
X124254419Y-103706705D02*
X123254419Y-103706705D01*
X123254419Y-103706705D02*
X123254419Y-104087657D01*
X123254419Y-104087657D02*
X123302038Y-104182895D01*
X123302038Y-104182895D02*
X123349657Y-104230514D01*
X123349657Y-104230514D02*
X123444895Y-104278133D01*
X123444895Y-104278133D02*
X123587752Y-104278133D01*
X123587752Y-104278133D02*
X123682990Y-104230514D01*
X123682990Y-104230514D02*
X123730609Y-104182895D01*
X123730609Y-104182895D02*
X123778228Y-104087657D01*
X123778228Y-104087657D02*
X123778228Y-103706705D01*
X124254419Y-104754324D02*
X124254419Y-104944800D01*
X124254419Y-104944800D02*
X124206800Y-105040038D01*
X124206800Y-105040038D02*
X124159180Y-105087657D01*
X124159180Y-105087657D02*
X124016323Y-105182895D01*
X124016323Y-105182895D02*
X123825847Y-105230514D01*
X123825847Y-105230514D02*
X123444895Y-105230514D01*
X123444895Y-105230514D02*
X123349657Y-105182895D01*
X123349657Y-105182895D02*
X123302038Y-105135276D01*
X123302038Y-105135276D02*
X123254419Y-105040038D01*
X123254419Y-105040038D02*
X123254419Y-104849562D01*
X123254419Y-104849562D02*
X123302038Y-104754324D01*
X123302038Y-104754324D02*
X123349657Y-104706705D01*
X123349657Y-104706705D02*
X123444895Y-104659086D01*
X123444895Y-104659086D02*
X123682990Y-104659086D01*
X123682990Y-104659086D02*
X123778228Y-104706705D01*
X123778228Y-104706705D02*
X123825847Y-104754324D01*
X123825847Y-104754324D02*
X123873466Y-104849562D01*
X123873466Y-104849562D02*
X123873466Y-105040038D01*
X123873466Y-105040038D02*
X123825847Y-105135276D01*
X123825847Y-105135276D02*
X123778228Y-105182895D01*
X123778228Y-105182895D02*
X123682990Y-105230514D01*
X162412309Y-111969247D02*
X162459928Y-112112104D01*
X162459928Y-112112104D02*
X162507547Y-112159723D01*
X162507547Y-112159723D02*
X162602785Y-112207342D01*
X162602785Y-112207342D02*
X162745642Y-112207342D01*
X162745642Y-112207342D02*
X162840880Y-112159723D01*
X162840880Y-112159723D02*
X162888500Y-112112104D01*
X162888500Y-112112104D02*
X162936119Y-112016866D01*
X162936119Y-112016866D02*
X162936119Y-111635914D01*
X162936119Y-111635914D02*
X161936119Y-111635914D01*
X161936119Y-111635914D02*
X161936119Y-111969247D01*
X161936119Y-111969247D02*
X161983738Y-112064485D01*
X161983738Y-112064485D02*
X162031357Y-112112104D01*
X162031357Y-112112104D02*
X162126595Y-112159723D01*
X162126595Y-112159723D02*
X162221833Y-112159723D01*
X162221833Y-112159723D02*
X162317071Y-112112104D01*
X162317071Y-112112104D02*
X162364690Y-112064485D01*
X162364690Y-112064485D02*
X162412309Y-111969247D01*
X162412309Y-111969247D02*
X162412309Y-111635914D01*
X161936119Y-112540676D02*
X161936119Y-113207342D01*
X161936119Y-113207342D02*
X162936119Y-112540676D01*
X162936119Y-112540676D02*
X162936119Y-113207342D01*
X162936119Y-114112104D02*
X162936119Y-113540676D01*
X162936119Y-113826390D02*
X161936119Y-113826390D01*
X161936119Y-113826390D02*
X162078976Y-113731152D01*
X162078976Y-113731152D02*
X162174214Y-113635914D01*
X162174214Y-113635914D02*
X162221833Y-113540676D01*
X170748366Y-110994048D02*
X170748366Y-111755953D01*
X171129319Y-111375000D02*
X170367414Y-111375000D01*
X157437057Y-113230819D02*
X157770390Y-112754628D01*
X158008485Y-113230819D02*
X158008485Y-112230819D01*
X158008485Y-112230819D02*
X157627533Y-112230819D01*
X157627533Y-112230819D02*
X157532295Y-112278438D01*
X157532295Y-112278438D02*
X157484676Y-112326057D01*
X157484676Y-112326057D02*
X157437057Y-112421295D01*
X157437057Y-112421295D02*
X157437057Y-112564152D01*
X157437057Y-112564152D02*
X157484676Y-112659390D01*
X157484676Y-112659390D02*
X157532295Y-112707009D01*
X157532295Y-112707009D02*
X157627533Y-112754628D01*
X157627533Y-112754628D02*
X158008485Y-112754628D01*
X157056104Y-112326057D02*
X157008485Y-112278438D01*
X157008485Y-112278438D02*
X156913247Y-112230819D01*
X156913247Y-112230819D02*
X156675152Y-112230819D01*
X156675152Y-112230819D02*
X156579914Y-112278438D01*
X156579914Y-112278438D02*
X156532295Y-112326057D01*
X156532295Y-112326057D02*
X156484676Y-112421295D01*
X156484676Y-112421295D02*
X156484676Y-112516533D01*
X156484676Y-112516533D02*
X156532295Y-112659390D01*
X156532295Y-112659390D02*
X157103723Y-113230819D01*
X157103723Y-113230819D02*
X156484676Y-113230819D01*
X155627533Y-112230819D02*
X155818009Y-112230819D01*
X155818009Y-112230819D02*
X155913247Y-112278438D01*
X155913247Y-112278438D02*
X155960866Y-112326057D01*
X155960866Y-112326057D02*
X156056104Y-112468914D01*
X156056104Y-112468914D02*
X156103723Y-112659390D01*
X156103723Y-112659390D02*
X156103723Y-113040342D01*
X156103723Y-113040342D02*
X156056104Y-113135580D01*
X156056104Y-113135580D02*
X156008485Y-113183200D01*
X156008485Y-113183200D02*
X155913247Y-113230819D01*
X155913247Y-113230819D02*
X155722771Y-113230819D01*
X155722771Y-113230819D02*
X155627533Y-113183200D01*
X155627533Y-113183200D02*
X155579914Y-113135580D01*
X155579914Y-113135580D02*
X155532295Y-113040342D01*
X155532295Y-113040342D02*
X155532295Y-112802247D01*
X155532295Y-112802247D02*
X155579914Y-112707009D01*
X155579914Y-112707009D02*
X155627533Y-112659390D01*
X155627533Y-112659390D02*
X155722771Y-112611771D01*
X155722771Y-112611771D02*
X155913247Y-112611771D01*
X155913247Y-112611771D02*
X156008485Y-112659390D01*
X156008485Y-112659390D02*
X156056104Y-112707009D01*
X156056104Y-112707009D02*
X156103723Y-112802247D01*
D11*
%TO.C,D1*%
X147075600Y-84364600D02*
X147075600Y-86324600D01*
X148275600Y-84364600D02*
X148275600Y-86324600D01*
X148275600Y-86324600D02*
X147075600Y-86324600D01*
%TO.C,R21*%
X164245064Y-95021000D02*
X163790936Y-95021000D01*
X164245064Y-96491000D02*
X163790936Y-96491000D01*
%TO.C,U2*%
X136882500Y-89055000D02*
X136882500Y-89105000D01*
X136882500Y-92125000D02*
X136882500Y-92175000D01*
X136882500Y-92175000D02*
X138702500Y-92175000D01*
X138702500Y-89055000D02*
X136882500Y-89055000D01*
X138702500Y-89105000D02*
X138702500Y-89055000D01*
X138702500Y-92175000D02*
X138702500Y-92125000D01*
X139242500Y-89105000D02*
X139002500Y-88775000D01*
X139482500Y-88775000D01*
X139242500Y-89105000D01*
G36*
X139242500Y-89105000D02*
G01*
X139002500Y-88775000D01*
X139482500Y-88775000D01*
X139242500Y-89105000D01*
G37*
D12*
%TO.C,J2*%
X122238500Y-83219000D02*
X123518500Y-83219000D01*
X122238500Y-92799000D02*
X122238500Y-83219000D01*
X123518500Y-92799000D02*
X122238500Y-92799000D01*
X127488500Y-83219000D02*
X126238500Y-83219000D01*
X127488500Y-92799000D02*
X126238500Y-92799000D01*
D11*
%TO.C,R15*%
X147471500Y-94395564D02*
X147471500Y-93941436D01*
X148941500Y-94395564D02*
X148941500Y-93941436D01*
%TO.C,U4*%
X155408055Y-107094957D02*
X155408055Y-108504957D01*
X157728055Y-107104957D02*
X157728055Y-108504957D01*
X155458055Y-106724957D02*
X155128055Y-106964957D01*
X155128055Y-106484957D01*
X155458055Y-106724957D01*
G36*
X155458055Y-106724957D02*
G01*
X155128055Y-106964957D01*
X155128055Y-106484957D01*
X155458055Y-106724957D01*
G37*
%TO.C,Q1*%
X162394500Y-85344000D02*
X162394500Y-86864000D01*
X162394500Y-86864000D02*
X163394500Y-86864000D01*
X162444500Y-85344000D02*
X162394500Y-85344000D01*
X164344500Y-85344000D02*
X163564500Y-85344000D01*
X164514500Y-86864000D02*
X165514500Y-86864000D01*
X165514500Y-85344000D02*
X165464500Y-85344000D01*
X165514500Y-86864000D02*
X165514500Y-85344000D01*
X163904500Y-85044000D02*
X163574500Y-84804000D01*
X163904500Y-84564000D01*
X163904500Y-85044000D01*
G36*
X163904500Y-85044000D02*
G01*
X163574500Y-84804000D01*
X163904500Y-84564000D01*
X163904500Y-85044000D01*
G37*
%TO.C,R11*%
X126399064Y-107594000D02*
X125944936Y-107594000D01*
X126399064Y-109064000D02*
X125944936Y-109064000D01*
%TO.C,R7*%
X145213400Y-100633264D02*
X145213400Y-100179136D01*
X146683400Y-100633264D02*
X146683400Y-100179136D01*
%TO.C,C15*%
X162994748Y-97053000D02*
X163517252Y-97053000D01*
X162994748Y-98523000D02*
X163517252Y-98523000D01*
%TO.C,R27*%
X153595458Y-104723598D02*
X153141330Y-104723598D01*
X153595458Y-106193598D02*
X153141330Y-106193598D01*
%TO.C,J5*%
X133343500Y-76585000D02*
X133343500Y-78035000D01*
X133343500Y-78035000D02*
X135143500Y-78035000D01*
X134613500Y-73765000D02*
X145543500Y-73765000D01*
X135143500Y-78035000D02*
X135143500Y-79025000D01*
X146813500Y-76585000D02*
X146813500Y-78035000D01*
X146813500Y-78035000D02*
X145013500Y-78035000D01*
%TO.C,R13*%
X155154936Y-81178000D02*
X155609064Y-81178000D01*
X155154936Y-82648000D02*
X155609064Y-82648000D01*
%TO.C,C7*%
X145058500Y-105627748D02*
X145058500Y-106150252D01*
X146528500Y-105627748D02*
X146528500Y-106150252D01*
%TO.C,D9*%
X131350500Y-80070000D02*
X131350500Y-82030000D01*
X132550500Y-80070000D02*
X132550500Y-82030000D01*
X132550500Y-82030000D02*
X131350500Y-82030000D01*
%TO.C,C3*%
X140359500Y-87571752D02*
X140359500Y-87049248D01*
X141829500Y-87571752D02*
X141829500Y-87049248D01*
%TO.C,C5*%
X142943252Y-92354000D02*
X142420748Y-92354000D01*
X142943252Y-93824000D02*
X142420748Y-93824000D01*
%TO.C,R6*%
X140285800Y-83208864D02*
X140285800Y-82754736D01*
X141755800Y-83208864D02*
X141755800Y-82754736D01*
%TO.C,D2*%
X151038400Y-118049600D02*
X151038400Y-116849600D01*
X152998400Y-116849600D02*
X151038400Y-116849600D01*
X152998400Y-118049600D02*
X151038400Y-118049600D01*
%TO.C,C4*%
X144213252Y-89941000D02*
X143690748Y-89941000D01*
X144213252Y-91411000D02*
X143690748Y-91411000D01*
%TO.C,R20*%
X164245064Y-91592000D02*
X163790936Y-91592000D01*
X164245064Y-93062000D02*
X163790936Y-93062000D01*
%TO.C,R24*%
X159282500Y-99783436D02*
X159282500Y-100237564D01*
X160752500Y-99783436D02*
X160752500Y-100237564D01*
%TO.C,R22*%
X162104400Y-78868536D02*
X162104400Y-79322664D01*
X163574400Y-78868536D02*
X163574400Y-79322664D01*
%TO.C,J4*%
X154343500Y-118350000D02*
X156143500Y-118350000D01*
X154343500Y-119800000D02*
X154343500Y-118350000D01*
X161013500Y-118350000D02*
X161013500Y-117360000D01*
X161543500Y-122620000D02*
X155613500Y-122620000D01*
X162813500Y-118350000D02*
X161013500Y-118350000D01*
X162813500Y-119800000D02*
X162813500Y-118350000D01*
%TO.C,R3*%
X132739500Y-85759564D02*
X132739500Y-85305436D01*
X134209500Y-85759564D02*
X134209500Y-85305436D01*
%TO.C,R18*%
X142645500Y-82203564D02*
X142645500Y-81749436D01*
X144115500Y-82203564D02*
X144115500Y-81749436D01*
%TO.C,D10*%
X131096500Y-82431000D02*
X132296500Y-82431000D01*
X131096500Y-84391000D02*
X131096500Y-82431000D01*
X132296500Y-84391000D02*
X132296500Y-82431000D01*
%TO.C,C6*%
X125798252Y-97307000D02*
X125275748Y-97307000D01*
X125798252Y-98777000D02*
X125275748Y-98777000D01*
%TO.C,D8*%
X165237000Y-100320400D02*
X165237000Y-99120400D01*
X167197000Y-99120400D02*
X165237000Y-99120400D01*
X167197000Y-100320400D02*
X165237000Y-100320400D01*
%TO.C,R17*%
X133247500Y-81632064D02*
X133247500Y-81177936D01*
X134717500Y-81632064D02*
X134717500Y-81177936D01*
%TO.C,R28*%
X158774500Y-81304936D02*
X158774500Y-81759064D01*
X160244500Y-81304936D02*
X160244500Y-81759064D01*
%TO.C,R12*%
X126399064Y-105562000D02*
X125944936Y-105562000D01*
X126399064Y-107032000D02*
X125944936Y-107032000D01*
%TO.C,L1*%
X136806436Y-85252000D02*
X138010564Y-85252000D01*
X136806436Y-87972000D02*
X138010564Y-87972000D01*
%TO.C,C11*%
X152973924Y-109977098D02*
X153496428Y-109977098D01*
X152973924Y-111447098D02*
X153496428Y-111447098D01*
%TO.C,R19*%
X164118064Y-88163000D02*
X163663936Y-88163000D01*
X164118064Y-89633000D02*
X163663936Y-89633000D01*
%TO.C,C13*%
X156148964Y-100439239D02*
X155779497Y-100808706D01*
X157188411Y-101478686D02*
X156818944Y-101848153D01*
%TO.C,L2*%
X156677648Y-104493588D02*
X156677648Y-103694344D01*
X157797648Y-104493588D02*
X157797648Y-103694344D01*
%TO.C,U3*%
X130058500Y-96726500D02*
X130058500Y-97176500D01*
X130058500Y-105096500D02*
X130058500Y-106776500D01*
X130058500Y-112496500D02*
X130058500Y-112936500D01*
X142478500Y-96726500D02*
X130058500Y-96726500D01*
X142478500Y-96726500D02*
X142478500Y-97176500D01*
X142478500Y-105096500D02*
X142478500Y-106776500D01*
X142478500Y-112496500D02*
X142478500Y-112946500D01*
X142478500Y-112946500D02*
X130058500Y-112946500D01*
X142968500Y-97176500D02*
X142728500Y-96846500D01*
X143208500Y-96846500D01*
X142968500Y-97176500D01*
G36*
X142968500Y-97176500D02*
G01*
X142728500Y-96846500D01*
X143208500Y-96846500D01*
X142968500Y-97176500D01*
G37*
%TO.C,C8*%
X148593693Y-106884844D02*
X148593693Y-106362340D01*
X150063693Y-106884844D02*
X150063693Y-106362340D01*
%TO.C,R10*%
X126399064Y-101498000D02*
X125944936Y-101498000D01*
X126399064Y-102968000D02*
X125944936Y-102968000D01*
%TO.C,R23*%
X152480373Y-106845402D02*
X152026245Y-106845402D01*
X152480373Y-108315402D02*
X152026245Y-108315402D01*
%TO.C,R25*%
X150011500Y-81695564D02*
X150011500Y-81241436D01*
X151481500Y-81695564D02*
X151481500Y-81241436D01*
%TO.C,C10*%
X158647500Y-110556948D02*
X158647500Y-111079452D01*
X160117500Y-110556948D02*
X160117500Y-111079452D01*
%TO.C,R5*%
X138327500Y-83219564D02*
X138327500Y-82765436D01*
X139797500Y-83219564D02*
X139797500Y-82765436D01*
%TO.C,J3*%
X150468500Y-76585000D02*
X150468500Y-78035000D01*
X150468500Y-78035000D02*
X152268500Y-78035000D01*
X151738500Y-73765000D02*
X160168500Y-73765000D01*
X152268500Y-78035000D02*
X152268500Y-79025000D01*
X161438500Y-76585000D02*
X161438500Y-78035000D01*
X161438500Y-78035000D02*
X159638500Y-78035000D01*
%TO.C,R16*%
X126399064Y-109626000D02*
X125944936Y-109626000D01*
X126399064Y-111096000D02*
X125944936Y-111096000D01*
%TO.C,R8*%
X147217500Y-100618564D02*
X147217500Y-100164436D01*
X148687500Y-100618564D02*
X148687500Y-100164436D01*
%TO.C,C1*%
X148350500Y-91531000D02*
X149600500Y-91531000D01*
X148975500Y-92156000D02*
X148975500Y-90906000D01*
X149840500Y-84475437D02*
X149840500Y-87261000D01*
X149840500Y-84475437D02*
X150904937Y-83411000D01*
X149840500Y-93066563D02*
X149840500Y-90281000D01*
X149840500Y-93066563D02*
X150904937Y-94131000D01*
X150904937Y-83411000D02*
X160560500Y-83411000D01*
X150904937Y-94131000D02*
X160560500Y-94131000D01*
X160560500Y-83411000D02*
X160560500Y-87261000D01*
X160560500Y-94131000D02*
X160560500Y-90281000D01*
%TO.C,R1*%
X145058500Y-83146436D02*
X145058500Y-83600564D01*
X146528500Y-83146436D02*
X146528500Y-83600564D01*
%TO.C,Q2*%
X162178500Y-100292000D02*
X162178500Y-100342000D01*
X162178500Y-101462000D02*
X162178500Y-102242000D01*
X162178500Y-103362000D02*
X162178500Y-103412000D01*
X162178500Y-103412000D02*
X163698500Y-103412000D01*
X163698500Y-100292000D02*
X162178500Y-100292000D01*
X163698500Y-101292000D02*
X163698500Y-100292000D01*
X163698500Y-103412000D02*
X163698500Y-102412000D01*
X161638500Y-102232000D02*
X161398500Y-101902000D01*
X161878500Y-101902000D01*
X161638500Y-102232000D01*
G36*
X161638500Y-102232000D02*
G01*
X161398500Y-101902000D01*
X161878500Y-101902000D01*
X161638500Y-102232000D01*
G37*
%TO.C,R4*%
X130897936Y-94259000D02*
X131352064Y-94259000D01*
X130897936Y-95729000D02*
X131352064Y-95729000D01*
%TO.C,C14*%
X153600972Y-100818997D02*
X153231505Y-100449530D01*
X154640419Y-99779550D02*
X154270952Y-99410083D01*
%TO.C,C2*%
X126433252Y-99466000D02*
X125910748Y-99466000D01*
X126433252Y-100936000D02*
X125910748Y-100936000D01*
D10*
%TO.C,FL1*%
X144692079Y-109185361D02*
X144692079Y-110150361D01*
X150492079Y-109185361D02*
X144692079Y-109185361D01*
X150492079Y-109185361D02*
X150492079Y-110150361D01*
X150492079Y-114285361D02*
X144692079Y-114285361D01*
X151200684Y-109515361D02*
G75*
G02*
X150841474Y-109515361I-179605J0D01*
G01*
X150841474Y-109515361D02*
G75*
G02*
X151200684Y-109515361I179605J0D01*
G01*
D11*
%TO.C,U1*%
X143443500Y-85875000D02*
X143443500Y-85925000D01*
X143443500Y-88945000D02*
X143443500Y-88995000D01*
X143443500Y-88995000D02*
X145263500Y-88995000D01*
X145263500Y-85875000D02*
X143443500Y-85875000D01*
X145263500Y-85925000D02*
X145263500Y-85875000D01*
X145263500Y-87825000D02*
X145263500Y-87045000D01*
X145263500Y-88995000D02*
X145263500Y-88945000D01*
X143143500Y-89275000D02*
X142663500Y-89275000D01*
X142903500Y-88945000D01*
X143143500Y-89275000D01*
G36*
X143143500Y-89275000D02*
G01*
X142663500Y-89275000D01*
X142903500Y-88945000D01*
X143143500Y-89275000D01*
G37*
%TO.C,J1*%
X132855500Y-118303000D02*
X134655500Y-118303000D01*
X132855500Y-119753000D02*
X132855500Y-118303000D01*
X147025500Y-118303000D02*
X147025500Y-117313000D01*
X147555500Y-122573000D02*
X134125500Y-122573000D01*
X148825500Y-118303000D02*
X147025500Y-118303000D01*
X148825500Y-119753000D02*
X148825500Y-118303000D01*
%TO.C,C12*%
X153611197Y-102551824D02*
X153088693Y-102551824D01*
X153611197Y-104021824D02*
X153088693Y-104021824D01*
%TO.C,R14*%
X145185500Y-94268564D02*
X145185500Y-93814436D01*
X146655500Y-94268564D02*
X146655500Y-93814436D01*
%TO.C,R2*%
X132295001Y-91782435D02*
X132295001Y-92236563D01*
X133765001Y-91782435D02*
X133765001Y-92236563D01*
%TO.C,C9*%
X159474258Y-107388392D02*
X159996762Y-107388392D01*
X159474258Y-108858392D02*
X159996762Y-108858392D01*
%TO.C,R9*%
X126399064Y-103530000D02*
X125944936Y-103530000D01*
X126399064Y-105000000D02*
X125944936Y-105000000D01*
%TO.C,BZ1*%
X171114500Y-108075000D02*
G75*
G02*
X161874500Y-108075000I-4620000J0D01*
G01*
X161874500Y-108075000D02*
G75*
G02*
X171114500Y-108075000I4620000J0D01*
G01*
%TO.C,Q3*%
X161924500Y-80988000D02*
X161924500Y-81038000D01*
X161924500Y-82158000D02*
X161924500Y-82938000D01*
X161924500Y-84058000D02*
X161924500Y-84108000D01*
X161924500Y-84108000D02*
X163444500Y-84108000D01*
X163444500Y-80988000D02*
X161924500Y-80988000D01*
X163444500Y-81988000D02*
X163444500Y-80988000D01*
X163444500Y-84108000D02*
X163444500Y-83108000D01*
X161384500Y-82928000D02*
X161144500Y-82598000D01*
X161624500Y-82598000D01*
X161384500Y-82928000D01*
G36*
X161384500Y-82928000D02*
G01*
X161144500Y-82598000D01*
X161624500Y-82598000D01*
X161384500Y-82928000D01*
G37*
%TO.C,R26*%
X156864448Y-109969797D02*
X156410320Y-109969797D01*
X156864448Y-111439797D02*
X156410320Y-111439797D01*
%TD*%
M02*
