%TF.GenerationSoftware,KiCad,Pcbnew,9.0.6+1*%
%TF.CreationDate,2026-01-07T12:14:02+00:00*%
%TF.ProjectId,TFGPS01,54464750-5330-4312-9e6b-696361645f70,C*%
%TF.SameCoordinates,Original*%
%TF.FileFunction,Legend,Top*%
%TF.FilePolarity,Positive*%
%FSLAX46Y46*%
G04 Gerber Fmt 4.6, Leading zero omitted, Abs format (unit mm)*
G04 Created by KiCad (PCBNEW 9.0.6+1) date 2026-01-07 12:14:02*
%MOMM*%
%LPD*%
G01*
G04 APERTURE LIST*
%ADD10C,0.300000*%
%ADD11C,0.150000*%
%ADD12C,0.000000*%
G04 APERTURE END LIST*
D10*
X167669357Y-99355328D02*
X167169357Y-98641042D01*
X166812214Y-99355328D02*
X166812214Y-97855328D01*
X166812214Y-97855328D02*
X167383643Y-97855328D01*
X167383643Y-97855328D02*
X167526500Y-97926757D01*
X167526500Y-97926757D02*
X167597929Y-97998185D01*
X167597929Y-97998185D02*
X167669357Y-98141042D01*
X167669357Y-98141042D02*
X167669357Y-98355328D01*
X167669357Y-98355328D02*
X167597929Y-98498185D01*
X167597929Y-98498185D02*
X167526500Y-98569614D01*
X167526500Y-98569614D02*
X167383643Y-98641042D01*
X167383643Y-98641042D02*
X166812214Y-98641042D01*
X168097929Y-97855328D02*
X168955072Y-97855328D01*
X168526500Y-99355328D02*
X168526500Y-97855328D01*
X169455071Y-99355328D02*
X169455071Y-97855328D01*
X170312214Y-99355328D02*
X169669357Y-98498185D01*
X170312214Y-97855328D02*
X169455071Y-98712471D01*
X136263528Y-118433957D02*
X136977814Y-118433957D01*
X136120671Y-118862528D02*
X136620671Y-117362528D01*
X136620671Y-117362528D02*
X137120671Y-118862528D01*
X138263528Y-117862528D02*
X138263528Y-118862528D01*
X137620670Y-117862528D02*
X137620670Y-118648242D01*
X137620670Y-118648242D02*
X137692099Y-118791100D01*
X137692099Y-118791100D02*
X137834956Y-118862528D01*
X137834956Y-118862528D02*
X138049242Y-118862528D01*
X138049242Y-118862528D02*
X138192099Y-118791100D01*
X138192099Y-118791100D02*
X138263528Y-118719671D01*
X138763528Y-117862528D02*
X139334956Y-117862528D01*
X138977813Y-117362528D02*
X138977813Y-118648242D01*
X138977813Y-118648242D02*
X139049242Y-118791100D01*
X139049242Y-118791100D02*
X139192099Y-118862528D01*
X139192099Y-118862528D02*
X139334956Y-118862528D01*
X140049242Y-118862528D02*
X139906385Y-118791100D01*
X139906385Y-118791100D02*
X139834956Y-118719671D01*
X139834956Y-118719671D02*
X139763528Y-118576814D01*
X139763528Y-118576814D02*
X139763528Y-118148242D01*
X139763528Y-118148242D02*
X139834956Y-118005385D01*
X139834956Y-118005385D02*
X139906385Y-117933957D01*
X139906385Y-117933957D02*
X140049242Y-117862528D01*
X140049242Y-117862528D02*
X140263528Y-117862528D01*
X140263528Y-117862528D02*
X140406385Y-117933957D01*
X140406385Y-117933957D02*
X140477814Y-118005385D01*
X140477814Y-118005385D02*
X140549242Y-118148242D01*
X140549242Y-118148242D02*
X140549242Y-118576814D01*
X140549242Y-118576814D02*
X140477814Y-118719671D01*
X140477814Y-118719671D02*
X140406385Y-118791100D01*
X140406385Y-118791100D02*
X140263528Y-118862528D01*
X140263528Y-118862528D02*
X140049242Y-118862528D01*
X141192099Y-117862528D02*
X141192099Y-119362528D01*
X141192099Y-117933957D02*
X141334957Y-117862528D01*
X141334957Y-117862528D02*
X141620671Y-117862528D01*
X141620671Y-117862528D02*
X141763528Y-117933957D01*
X141763528Y-117933957D02*
X141834957Y-118005385D01*
X141834957Y-118005385D02*
X141906385Y-118148242D01*
X141906385Y-118148242D02*
X141906385Y-118576814D01*
X141906385Y-118576814D02*
X141834957Y-118719671D01*
X141834957Y-118719671D02*
X141763528Y-118791100D01*
X141763528Y-118791100D02*
X141620671Y-118862528D01*
X141620671Y-118862528D02*
X141334957Y-118862528D01*
X141334957Y-118862528D02*
X141192099Y-118791100D01*
X142549242Y-118862528D02*
X142549242Y-117862528D01*
X142549242Y-117362528D02*
X142477814Y-117433957D01*
X142477814Y-117433957D02*
X142549242Y-117505385D01*
X142549242Y-117505385D02*
X142620671Y-117433957D01*
X142620671Y-117433957D02*
X142549242Y-117362528D01*
X142549242Y-117362528D02*
X142549242Y-117505385D01*
X143477814Y-118862528D02*
X143334957Y-118791100D01*
X143334957Y-118791100D02*
X143263528Y-118648242D01*
X143263528Y-118648242D02*
X143263528Y-117362528D01*
X144263528Y-118862528D02*
X144120671Y-118791100D01*
X144120671Y-118791100D02*
X144049242Y-118719671D01*
X144049242Y-118719671D02*
X143977814Y-118576814D01*
X143977814Y-118576814D02*
X143977814Y-118148242D01*
X143977814Y-118148242D02*
X144049242Y-118005385D01*
X144049242Y-118005385D02*
X144120671Y-117933957D01*
X144120671Y-117933957D02*
X144263528Y-117862528D01*
X144263528Y-117862528D02*
X144477814Y-117862528D01*
X144477814Y-117862528D02*
X144620671Y-117933957D01*
X144620671Y-117933957D02*
X144692100Y-118005385D01*
X144692100Y-118005385D02*
X144763528Y-118148242D01*
X144763528Y-118148242D02*
X144763528Y-118576814D01*
X144763528Y-118576814D02*
X144692100Y-118719671D01*
X144692100Y-118719671D02*
X144620671Y-118791100D01*
X144620671Y-118791100D02*
X144477814Y-118862528D01*
X144477814Y-118862528D02*
X144263528Y-118862528D01*
X145192100Y-117862528D02*
X145763528Y-117862528D01*
X145406385Y-117362528D02*
X145406385Y-118648242D01*
X145406385Y-118648242D02*
X145477814Y-118791100D01*
X145477814Y-118791100D02*
X145620671Y-118862528D01*
X145620671Y-118862528D02*
X145763528Y-118862528D01*
X144302328Y-77323071D02*
X144302328Y-78823071D01*
X144302328Y-78823071D02*
X143730899Y-78823071D01*
X143730899Y-78823071D02*
X143588042Y-78751642D01*
X143588042Y-78751642D02*
X143516613Y-78680214D01*
X143516613Y-78680214D02*
X143445185Y-78537357D01*
X143445185Y-78537357D02*
X143445185Y-78323071D01*
X143445185Y-78323071D02*
X143516613Y-78180214D01*
X143516613Y-78180214D02*
X143588042Y-78108785D01*
X143588042Y-78108785D02*
X143730899Y-78037357D01*
X143730899Y-78037357D02*
X144302328Y-78037357D01*
X142159471Y-77323071D02*
X142159471Y-78108785D01*
X142159471Y-78108785D02*
X142230899Y-78251642D01*
X142230899Y-78251642D02*
X142373756Y-78323071D01*
X142373756Y-78323071D02*
X142659471Y-78323071D01*
X142659471Y-78323071D02*
X142802328Y-78251642D01*
X142159471Y-77394500D02*
X142302328Y-77323071D01*
X142302328Y-77323071D02*
X142659471Y-77323071D01*
X142659471Y-77323071D02*
X142802328Y-77394500D01*
X142802328Y-77394500D02*
X142873756Y-77537357D01*
X142873756Y-77537357D02*
X142873756Y-77680214D01*
X142873756Y-77680214D02*
X142802328Y-77823071D01*
X142802328Y-77823071D02*
X142659471Y-77894500D01*
X142659471Y-77894500D02*
X142302328Y-77894500D01*
X142302328Y-77894500D02*
X142159471Y-77965928D01*
X141588042Y-78323071D02*
X141230899Y-77323071D01*
X140873756Y-78323071D02*
X141230899Y-77323071D01*
X141230899Y-77323071D02*
X141373756Y-76965928D01*
X141373756Y-76965928D02*
X141445185Y-76894500D01*
X141445185Y-76894500D02*
X141588042Y-76823071D01*
X140088042Y-77323071D02*
X140230899Y-77394500D01*
X140230899Y-77394500D02*
X140302328Y-77537357D01*
X140302328Y-77537357D02*
X140302328Y-78823071D01*
X139302328Y-77323071D02*
X139445185Y-77394500D01*
X139445185Y-77394500D02*
X139516614Y-77465928D01*
X139516614Y-77465928D02*
X139588042Y-77608785D01*
X139588042Y-77608785D02*
X139588042Y-78037357D01*
X139588042Y-78037357D02*
X139516614Y-78180214D01*
X139516614Y-78180214D02*
X139445185Y-78251642D01*
X139445185Y-78251642D02*
X139302328Y-78323071D01*
X139302328Y-78323071D02*
X139088042Y-78323071D01*
X139088042Y-78323071D02*
X138945185Y-78251642D01*
X138945185Y-78251642D02*
X138873757Y-78180214D01*
X138873757Y-78180214D02*
X138802328Y-78037357D01*
X138802328Y-78037357D02*
X138802328Y-77608785D01*
X138802328Y-77608785D02*
X138873757Y-77465928D01*
X138873757Y-77465928D02*
X138945185Y-77394500D01*
X138945185Y-77394500D02*
X139088042Y-77323071D01*
X139088042Y-77323071D02*
X139302328Y-77323071D01*
X137516614Y-77323071D02*
X137516614Y-78108785D01*
X137516614Y-78108785D02*
X137588042Y-78251642D01*
X137588042Y-78251642D02*
X137730899Y-78323071D01*
X137730899Y-78323071D02*
X138016614Y-78323071D01*
X138016614Y-78323071D02*
X138159471Y-78251642D01*
X137516614Y-77394500D02*
X137659471Y-77323071D01*
X137659471Y-77323071D02*
X138016614Y-77323071D01*
X138016614Y-77323071D02*
X138159471Y-77394500D01*
X138159471Y-77394500D02*
X138230899Y-77537357D01*
X138230899Y-77537357D02*
X138230899Y-77680214D01*
X138230899Y-77680214D02*
X138159471Y-77823071D01*
X138159471Y-77823071D02*
X138016614Y-77894500D01*
X138016614Y-77894500D02*
X137659471Y-77894500D01*
X137659471Y-77894500D02*
X137516614Y-77965928D01*
X136159471Y-77323071D02*
X136159471Y-78823071D01*
X136159471Y-77394500D02*
X136302328Y-77323071D01*
X136302328Y-77323071D02*
X136588042Y-77323071D01*
X136588042Y-77323071D02*
X136730899Y-77394500D01*
X136730899Y-77394500D02*
X136802328Y-77465928D01*
X136802328Y-77465928D02*
X136873756Y-77608785D01*
X136873756Y-77608785D02*
X136873756Y-78037357D01*
X136873756Y-78037357D02*
X136802328Y-78180214D01*
X136802328Y-78180214D02*
X136730899Y-78251642D01*
X136730899Y-78251642D02*
X136588042Y-78323071D01*
X136588042Y-78323071D02*
X136302328Y-78323071D01*
X136302328Y-78323071D02*
X136159471Y-78251642D01*
X166689214Y-83051757D02*
X167403500Y-83051757D01*
X166546357Y-83480328D02*
X167046357Y-81980328D01*
X167046357Y-81980328D02*
X167546357Y-83480328D01*
X168903499Y-83480328D02*
X168403499Y-82766042D01*
X168046356Y-83480328D02*
X168046356Y-81980328D01*
X168046356Y-81980328D02*
X168617785Y-81980328D01*
X168617785Y-81980328D02*
X168760642Y-82051757D01*
X168760642Y-82051757D02*
X168832071Y-82123185D01*
X168832071Y-82123185D02*
X168903499Y-82266042D01*
X168903499Y-82266042D02*
X168903499Y-82480328D01*
X168903499Y-82480328D02*
X168832071Y-82623185D01*
X168832071Y-82623185D02*
X168760642Y-82694614D01*
X168760642Y-82694614D02*
X168617785Y-82766042D01*
X168617785Y-82766042D02*
X168046356Y-82766042D01*
X169546356Y-83480328D02*
X169546356Y-81980328D01*
X169546356Y-81980328D02*
X170046356Y-83051757D01*
X170046356Y-83051757D02*
X170546356Y-81980328D01*
X170546356Y-81980328D02*
X170546356Y-83480328D01*
X170570257Y-94160428D02*
X170498828Y-94303286D01*
X170498828Y-94303286D02*
X170498828Y-94517571D01*
X170498828Y-94517571D02*
X170570257Y-94731857D01*
X170570257Y-94731857D02*
X170713114Y-94874714D01*
X170713114Y-94874714D02*
X170855971Y-94946143D01*
X170855971Y-94946143D02*
X171141685Y-95017571D01*
X171141685Y-95017571D02*
X171355971Y-95017571D01*
X171355971Y-95017571D02*
X171641685Y-94946143D01*
X171641685Y-94946143D02*
X171784542Y-94874714D01*
X171784542Y-94874714D02*
X171927400Y-94731857D01*
X171927400Y-94731857D02*
X171998828Y-94517571D01*
X171998828Y-94517571D02*
X171998828Y-94374714D01*
X171998828Y-94374714D02*
X171927400Y-94160428D01*
X171927400Y-94160428D02*
X171855971Y-94089000D01*
X171855971Y-94089000D02*
X171355971Y-94089000D01*
X171355971Y-94089000D02*
X171355971Y-94374714D01*
X171213114Y-93446143D02*
X171213114Y-92946143D01*
X171998828Y-92731857D02*
X171998828Y-93446143D01*
X171998828Y-93446143D02*
X170498828Y-93446143D01*
X170498828Y-93446143D02*
X170498828Y-92731857D01*
X170498828Y-91803285D02*
X170498828Y-91517571D01*
X170498828Y-91517571D02*
X170570257Y-91374714D01*
X170570257Y-91374714D02*
X170713114Y-91231857D01*
X170713114Y-91231857D02*
X170998828Y-91160428D01*
X170998828Y-91160428D02*
X171498828Y-91160428D01*
X171498828Y-91160428D02*
X171784542Y-91231857D01*
X171784542Y-91231857D02*
X171927400Y-91374714D01*
X171927400Y-91374714D02*
X171998828Y-91517571D01*
X171998828Y-91517571D02*
X171998828Y-91803285D01*
X171998828Y-91803285D02*
X171927400Y-91946143D01*
X171927400Y-91946143D02*
X171784542Y-92089000D01*
X171784542Y-92089000D02*
X171498828Y-92160428D01*
X171498828Y-92160428D02*
X170998828Y-92160428D01*
X170998828Y-92160428D02*
X170713114Y-92089000D01*
X170713114Y-92089000D02*
X170570257Y-91946143D01*
X170570257Y-91946143D02*
X170498828Y-91803285D01*
X166624370Y-113158284D02*
X166624370Y-112301142D01*
X168124370Y-112729713D02*
X166624370Y-112729713D01*
X167338656Y-111301142D02*
X167338656Y-111801142D01*
X168124370Y-111801142D02*
X166624370Y-111801142D01*
X166624370Y-111801142D02*
X166624370Y-111086856D01*
X166695799Y-109729713D02*
X166624370Y-109872571D01*
X166624370Y-109872571D02*
X166624370Y-110086856D01*
X166624370Y-110086856D02*
X166695799Y-110301142D01*
X166695799Y-110301142D02*
X166838656Y-110443999D01*
X166838656Y-110443999D02*
X166981513Y-110515428D01*
X166981513Y-110515428D02*
X167267227Y-110586856D01*
X167267227Y-110586856D02*
X167481513Y-110586856D01*
X167481513Y-110586856D02*
X167767227Y-110515428D01*
X167767227Y-110515428D02*
X167910084Y-110443999D01*
X167910084Y-110443999D02*
X168052942Y-110301142D01*
X168052942Y-110301142D02*
X168124370Y-110086856D01*
X168124370Y-110086856D02*
X168124370Y-109943999D01*
X168124370Y-109943999D02*
X168052942Y-109729713D01*
X168052942Y-109729713D02*
X167981513Y-109658285D01*
X167981513Y-109658285D02*
X167481513Y-109658285D01*
X167481513Y-109658285D02*
X167481513Y-109943999D01*
X168124370Y-109015428D02*
X166624370Y-109015428D01*
X166624370Y-109015428D02*
X166624370Y-108443999D01*
X166624370Y-108443999D02*
X166695799Y-108301142D01*
X166695799Y-108301142D02*
X166767227Y-108229713D01*
X166767227Y-108229713D02*
X166910084Y-108158285D01*
X166910084Y-108158285D02*
X167124370Y-108158285D01*
X167124370Y-108158285D02*
X167267227Y-108229713D01*
X167267227Y-108229713D02*
X167338656Y-108301142D01*
X167338656Y-108301142D02*
X167410084Y-108443999D01*
X167410084Y-108443999D02*
X167410084Y-109015428D01*
X168052942Y-107586856D02*
X168124370Y-107372571D01*
X168124370Y-107372571D02*
X168124370Y-107015428D01*
X168124370Y-107015428D02*
X168052942Y-106872571D01*
X168052942Y-106872571D02*
X167981513Y-106801142D01*
X167981513Y-106801142D02*
X167838656Y-106729713D01*
X167838656Y-106729713D02*
X167695799Y-106729713D01*
X167695799Y-106729713D02*
X167552942Y-106801142D01*
X167552942Y-106801142D02*
X167481513Y-106872571D01*
X167481513Y-106872571D02*
X167410084Y-107015428D01*
X167410084Y-107015428D02*
X167338656Y-107301142D01*
X167338656Y-107301142D02*
X167267227Y-107443999D01*
X167267227Y-107443999D02*
X167195799Y-107515428D01*
X167195799Y-107515428D02*
X167052942Y-107586856D01*
X167052942Y-107586856D02*
X166910084Y-107586856D01*
X166910084Y-107586856D02*
X166767227Y-107515428D01*
X166767227Y-107515428D02*
X166695799Y-107443999D01*
X166695799Y-107443999D02*
X166624370Y-107301142D01*
X166624370Y-107301142D02*
X166624370Y-106943999D01*
X166624370Y-106943999D02*
X166695799Y-106729713D01*
X166624370Y-105801142D02*
X166624370Y-105658285D01*
X166624370Y-105658285D02*
X166695799Y-105515428D01*
X166695799Y-105515428D02*
X166767227Y-105444000D01*
X166767227Y-105444000D02*
X166910084Y-105372571D01*
X166910084Y-105372571D02*
X167195799Y-105301142D01*
X167195799Y-105301142D02*
X167552942Y-105301142D01*
X167552942Y-105301142D02*
X167838656Y-105372571D01*
X167838656Y-105372571D02*
X167981513Y-105444000D01*
X167981513Y-105444000D02*
X168052942Y-105515428D01*
X168052942Y-105515428D02*
X168124370Y-105658285D01*
X168124370Y-105658285D02*
X168124370Y-105801142D01*
X168124370Y-105801142D02*
X168052942Y-105944000D01*
X168052942Y-105944000D02*
X167981513Y-106015428D01*
X167981513Y-106015428D02*
X167838656Y-106086857D01*
X167838656Y-106086857D02*
X167552942Y-106158285D01*
X167552942Y-106158285D02*
X167195799Y-106158285D01*
X167195799Y-106158285D02*
X166910084Y-106086857D01*
X166910084Y-106086857D02*
X166767227Y-106015428D01*
X166767227Y-106015428D02*
X166695799Y-105944000D01*
X166695799Y-105944000D02*
X166624370Y-105801142D01*
X168124370Y-103872571D02*
X168124370Y-104729714D01*
X168124370Y-104301143D02*
X166624370Y-104301143D01*
X166624370Y-104301143D02*
X166838656Y-104444000D01*
X166838656Y-104444000D02*
X166981513Y-104586857D01*
X166981513Y-104586857D02*
X167052942Y-104729714D01*
X167981513Y-102372572D02*
X168052942Y-102444000D01*
X168052942Y-102444000D02*
X168124370Y-102658286D01*
X168124370Y-102658286D02*
X168124370Y-102801143D01*
X168124370Y-102801143D02*
X168052942Y-103015429D01*
X168052942Y-103015429D02*
X167910084Y-103158286D01*
X167910084Y-103158286D02*
X167767227Y-103229715D01*
X167767227Y-103229715D02*
X167481513Y-103301143D01*
X167481513Y-103301143D02*
X167267227Y-103301143D01*
X167267227Y-103301143D02*
X166981513Y-103229715D01*
X166981513Y-103229715D02*
X166838656Y-103158286D01*
X166838656Y-103158286D02*
X166695799Y-103015429D01*
X166695799Y-103015429D02*
X166624370Y-102801143D01*
X166624370Y-102801143D02*
X166624370Y-102658286D01*
X166624370Y-102658286D02*
X166695799Y-102444000D01*
X166695799Y-102444000D02*
X166767227Y-102372572D01*
X169182143Y-110265427D02*
X169110715Y-110193999D01*
X169110715Y-110193999D02*
X169039286Y-110051142D01*
X169039286Y-110051142D02*
X169039286Y-109693999D01*
X169039286Y-109693999D02*
X169110715Y-109551142D01*
X169110715Y-109551142D02*
X169182143Y-109479713D01*
X169182143Y-109479713D02*
X169325000Y-109408284D01*
X169325000Y-109408284D02*
X169467858Y-109408284D01*
X169467858Y-109408284D02*
X169682143Y-109479713D01*
X169682143Y-109479713D02*
X170539286Y-110336856D01*
X170539286Y-110336856D02*
X170539286Y-109408284D01*
X169039286Y-108479713D02*
X169039286Y-108336856D01*
X169039286Y-108336856D02*
X169110715Y-108193999D01*
X169110715Y-108193999D02*
X169182143Y-108122571D01*
X169182143Y-108122571D02*
X169325000Y-108051142D01*
X169325000Y-108051142D02*
X169610715Y-107979713D01*
X169610715Y-107979713D02*
X169967858Y-107979713D01*
X169967858Y-107979713D02*
X170253572Y-108051142D01*
X170253572Y-108051142D02*
X170396429Y-108122571D01*
X170396429Y-108122571D02*
X170467858Y-108193999D01*
X170467858Y-108193999D02*
X170539286Y-108336856D01*
X170539286Y-108336856D02*
X170539286Y-108479713D01*
X170539286Y-108479713D02*
X170467858Y-108622571D01*
X170467858Y-108622571D02*
X170396429Y-108693999D01*
X170396429Y-108693999D02*
X170253572Y-108765428D01*
X170253572Y-108765428D02*
X169967858Y-108836856D01*
X169967858Y-108836856D02*
X169610715Y-108836856D01*
X169610715Y-108836856D02*
X169325000Y-108765428D01*
X169325000Y-108765428D02*
X169182143Y-108693999D01*
X169182143Y-108693999D02*
X169110715Y-108622571D01*
X169110715Y-108622571D02*
X169039286Y-108479713D01*
X169182143Y-107408285D02*
X169110715Y-107336857D01*
X169110715Y-107336857D02*
X169039286Y-107194000D01*
X169039286Y-107194000D02*
X169039286Y-106836857D01*
X169039286Y-106836857D02*
X169110715Y-106694000D01*
X169110715Y-106694000D02*
X169182143Y-106622571D01*
X169182143Y-106622571D02*
X169325000Y-106551142D01*
X169325000Y-106551142D02*
X169467858Y-106551142D01*
X169467858Y-106551142D02*
X169682143Y-106622571D01*
X169682143Y-106622571D02*
X170539286Y-107479714D01*
X170539286Y-107479714D02*
X170539286Y-106551142D01*
X169039286Y-105194000D02*
X169039286Y-105908286D01*
X169039286Y-105908286D02*
X169753572Y-105979714D01*
X169753572Y-105979714D02*
X169682143Y-105908286D01*
X169682143Y-105908286D02*
X169610715Y-105765429D01*
X169610715Y-105765429D02*
X169610715Y-105408286D01*
X169610715Y-105408286D02*
X169682143Y-105265429D01*
X169682143Y-105265429D02*
X169753572Y-105194000D01*
X169753572Y-105194000D02*
X169896429Y-105122571D01*
X169896429Y-105122571D02*
X170253572Y-105122571D01*
X170253572Y-105122571D02*
X170396429Y-105194000D01*
X170396429Y-105194000D02*
X170467858Y-105265429D01*
X170467858Y-105265429D02*
X170539286Y-105408286D01*
X170539286Y-105408286D02*
X170539286Y-105765429D01*
X170539286Y-105765429D02*
X170467858Y-105908286D01*
X170467858Y-105908286D02*
X170396429Y-105979714D01*
X129557928Y-97834200D02*
X128057928Y-97834200D01*
X128057928Y-97834200D02*
X128057928Y-97262771D01*
X128057928Y-97262771D02*
X128129357Y-97119914D01*
X128129357Y-97119914D02*
X128200785Y-97048485D01*
X128200785Y-97048485D02*
X128343642Y-96977057D01*
X128343642Y-96977057D02*
X128557928Y-96977057D01*
X128557928Y-96977057D02*
X128700785Y-97048485D01*
X128700785Y-97048485D02*
X128772214Y-97119914D01*
X128772214Y-97119914D02*
X128843642Y-97262771D01*
X128843642Y-97262771D02*
X128843642Y-97834200D01*
X128057928Y-96477057D02*
X129557928Y-96119914D01*
X129557928Y-96119914D02*
X128486500Y-95834200D01*
X128486500Y-95834200D02*
X129557928Y-95548485D01*
X129557928Y-95548485D02*
X128057928Y-95191343D01*
X129557928Y-93762771D02*
X128843642Y-94262771D01*
X129557928Y-94619914D02*
X128057928Y-94619914D01*
X128057928Y-94619914D02*
X128057928Y-94048485D01*
X128057928Y-94048485D02*
X128129357Y-93905628D01*
X128129357Y-93905628D02*
X128200785Y-93834199D01*
X128200785Y-93834199D02*
X128343642Y-93762771D01*
X128343642Y-93762771D02*
X128557928Y-93762771D01*
X128557928Y-93762771D02*
X128700785Y-93834199D01*
X128700785Y-93834199D02*
X128772214Y-93905628D01*
X128772214Y-93905628D02*
X128843642Y-94048485D01*
X128843642Y-94048485D02*
X128843642Y-94619914D01*
X154408672Y-121278757D02*
X155122958Y-121278757D01*
X154265815Y-121707328D02*
X154765815Y-120207328D01*
X154765815Y-120207328D02*
X155265815Y-121707328D01*
X155765814Y-120207328D02*
X155765814Y-121421614D01*
X155765814Y-121421614D02*
X155837243Y-121564471D01*
X155837243Y-121564471D02*
X155908672Y-121635900D01*
X155908672Y-121635900D02*
X156051529Y-121707328D01*
X156051529Y-121707328D02*
X156337243Y-121707328D01*
X156337243Y-121707328D02*
X156480100Y-121635900D01*
X156480100Y-121635900D02*
X156551529Y-121564471D01*
X156551529Y-121564471D02*
X156622957Y-121421614D01*
X156622957Y-121421614D02*
X156622957Y-120207328D01*
X157194386Y-120207328D02*
X158194386Y-121707328D01*
X158194386Y-120207328D02*
X157194386Y-121707328D01*
X159908671Y-121707328D02*
X159908671Y-120207328D01*
X160551529Y-120350185D02*
X160622957Y-120278757D01*
X160622957Y-120278757D02*
X160765815Y-120207328D01*
X160765815Y-120207328D02*
X161122957Y-120207328D01*
X161122957Y-120207328D02*
X161265815Y-120278757D01*
X161265815Y-120278757D02*
X161337243Y-120350185D01*
X161337243Y-120350185D02*
X161408672Y-120493042D01*
X161408672Y-120493042D02*
X161408672Y-120635900D01*
X161408672Y-120635900D02*
X161337243Y-120850185D01*
X161337243Y-120850185D02*
X160480100Y-121707328D01*
X160480100Y-121707328D02*
X161408672Y-121707328D01*
X162908671Y-121564471D02*
X162837243Y-121635900D01*
X162837243Y-121635900D02*
X162622957Y-121707328D01*
X162622957Y-121707328D02*
X162480100Y-121707328D01*
X162480100Y-121707328D02*
X162265814Y-121635900D01*
X162265814Y-121635900D02*
X162122957Y-121493042D01*
X162122957Y-121493042D02*
X162051528Y-121350185D01*
X162051528Y-121350185D02*
X161980100Y-121064471D01*
X161980100Y-121064471D02*
X161980100Y-120850185D01*
X161980100Y-120850185D02*
X162051528Y-120564471D01*
X162051528Y-120564471D02*
X162122957Y-120421614D01*
X162122957Y-120421614D02*
X162265814Y-120278757D01*
X162265814Y-120278757D02*
X162480100Y-120207328D01*
X162480100Y-120207328D02*
X162622957Y-120207328D01*
X162622957Y-120207328D02*
X162837243Y-120278757D01*
X162837243Y-120278757D02*
X162908671Y-120350185D01*
X170498828Y-90048713D02*
X170498828Y-89191571D01*
X171998828Y-89620142D02*
X170498828Y-89620142D01*
X171998828Y-88691571D02*
X170498828Y-88691571D01*
X170498828Y-88691571D02*
X170498828Y-88120142D01*
X170498828Y-88120142D02*
X170570257Y-87977285D01*
X170570257Y-87977285D02*
X170641685Y-87905856D01*
X170641685Y-87905856D02*
X170784542Y-87834428D01*
X170784542Y-87834428D02*
X170998828Y-87834428D01*
X170998828Y-87834428D02*
X171141685Y-87905856D01*
X171141685Y-87905856D02*
X171213114Y-87977285D01*
X171213114Y-87977285D02*
X171284542Y-88120142D01*
X171284542Y-88120142D02*
X171284542Y-88691571D01*
X171998828Y-86477285D02*
X171998828Y-87191571D01*
X171998828Y-87191571D02*
X170498828Y-87191571D01*
X161424098Y-74702100D02*
X161209813Y-74630671D01*
X161209813Y-74630671D02*
X160852670Y-74630671D01*
X160852670Y-74630671D02*
X160709813Y-74702100D01*
X160709813Y-74702100D02*
X160638384Y-74773528D01*
X160638384Y-74773528D02*
X160566955Y-74916385D01*
X160566955Y-74916385D02*
X160566955Y-75059242D01*
X160566955Y-75059242D02*
X160638384Y-75202100D01*
X160638384Y-75202100D02*
X160709813Y-75273528D01*
X160709813Y-75273528D02*
X160852670Y-75344957D01*
X160852670Y-75344957D02*
X161138384Y-75416385D01*
X161138384Y-75416385D02*
X161281241Y-75487814D01*
X161281241Y-75487814D02*
X161352670Y-75559242D01*
X161352670Y-75559242D02*
X161424098Y-75702100D01*
X161424098Y-75702100D02*
X161424098Y-75844957D01*
X161424098Y-75844957D02*
X161352670Y-75987814D01*
X161352670Y-75987814D02*
X161281241Y-76059242D01*
X161281241Y-76059242D02*
X161138384Y-76130671D01*
X161138384Y-76130671D02*
X160781241Y-76130671D01*
X160781241Y-76130671D02*
X160566955Y-76059242D01*
X159995527Y-75059242D02*
X159281242Y-75059242D01*
X160138384Y-74630671D02*
X159638384Y-76130671D01*
X159638384Y-76130671D02*
X159138384Y-74630671D01*
X158138385Y-75416385D02*
X158638385Y-75416385D01*
X158638385Y-74630671D02*
X158638385Y-76130671D01*
X158638385Y-76130671D02*
X157924099Y-76130671D01*
X157352671Y-75416385D02*
X156852671Y-75416385D01*
X156638385Y-74630671D02*
X157352671Y-74630671D01*
X157352671Y-74630671D02*
X157352671Y-76130671D01*
X157352671Y-76130671D02*
X156638385Y-76130671D01*
X156209813Y-76130671D02*
X155352671Y-76130671D01*
X155781242Y-74630671D02*
X155781242Y-76130671D01*
X154566956Y-75344957D02*
X154566956Y-74630671D01*
X155066956Y-76130671D02*
X154566956Y-75344957D01*
X154566956Y-75344957D02*
X154066956Y-76130671D01*
X152495528Y-74702100D02*
X152281243Y-74630671D01*
X152281243Y-74630671D02*
X151924100Y-74630671D01*
X151924100Y-74630671D02*
X151781243Y-74702100D01*
X151781243Y-74702100D02*
X151709814Y-74773528D01*
X151709814Y-74773528D02*
X151638385Y-74916385D01*
X151638385Y-74916385D02*
X151638385Y-75059242D01*
X151638385Y-75059242D02*
X151709814Y-75202100D01*
X151709814Y-75202100D02*
X151781243Y-75273528D01*
X151781243Y-75273528D02*
X151924100Y-75344957D01*
X151924100Y-75344957D02*
X152209814Y-75416385D01*
X152209814Y-75416385D02*
X152352671Y-75487814D01*
X152352671Y-75487814D02*
X152424100Y-75559242D01*
X152424100Y-75559242D02*
X152495528Y-75702100D01*
X152495528Y-75702100D02*
X152495528Y-75844957D01*
X152495528Y-75844957D02*
X152424100Y-75987814D01*
X152424100Y-75987814D02*
X152352671Y-76059242D01*
X152352671Y-76059242D02*
X152209814Y-76130671D01*
X152209814Y-76130671D02*
X151852671Y-76130671D01*
X151852671Y-76130671D02*
X151638385Y-76059242D01*
X151138386Y-76130671D02*
X150781243Y-74630671D01*
X150781243Y-74630671D02*
X150495529Y-75702100D01*
X150495529Y-75702100D02*
X150209814Y-74630671D01*
X150209814Y-74630671D02*
X149852672Y-76130671D01*
X134820644Y-120278757D02*
X134677787Y-120207328D01*
X134677787Y-120207328D02*
X134463501Y-120207328D01*
X134463501Y-120207328D02*
X134249215Y-120278757D01*
X134249215Y-120278757D02*
X134106358Y-120421614D01*
X134106358Y-120421614D02*
X134034929Y-120564471D01*
X134034929Y-120564471D02*
X133963501Y-120850185D01*
X133963501Y-120850185D02*
X133963501Y-121064471D01*
X133963501Y-121064471D02*
X134034929Y-121350185D01*
X134034929Y-121350185D02*
X134106358Y-121493042D01*
X134106358Y-121493042D02*
X134249215Y-121635900D01*
X134249215Y-121635900D02*
X134463501Y-121707328D01*
X134463501Y-121707328D02*
X134606358Y-121707328D01*
X134606358Y-121707328D02*
X134820644Y-121635900D01*
X134820644Y-121635900D02*
X134892072Y-121564471D01*
X134892072Y-121564471D02*
X134892072Y-121064471D01*
X134892072Y-121064471D02*
X134606358Y-121064471D01*
X135534929Y-121707328D02*
X135534929Y-120207328D01*
X135534929Y-120207328D02*
X136106358Y-120207328D01*
X136106358Y-120207328D02*
X136249215Y-120278757D01*
X136249215Y-120278757D02*
X136320644Y-120350185D01*
X136320644Y-120350185D02*
X136392072Y-120493042D01*
X136392072Y-120493042D02*
X136392072Y-120707328D01*
X136392072Y-120707328D02*
X136320644Y-120850185D01*
X136320644Y-120850185D02*
X136249215Y-120921614D01*
X136249215Y-120921614D02*
X136106358Y-120993042D01*
X136106358Y-120993042D02*
X135534929Y-120993042D01*
X136963501Y-121635900D02*
X137177787Y-121707328D01*
X137177787Y-121707328D02*
X137534929Y-121707328D01*
X137534929Y-121707328D02*
X137677787Y-121635900D01*
X137677787Y-121635900D02*
X137749215Y-121564471D01*
X137749215Y-121564471D02*
X137820644Y-121421614D01*
X137820644Y-121421614D02*
X137820644Y-121278757D01*
X137820644Y-121278757D02*
X137749215Y-121135900D01*
X137749215Y-121135900D02*
X137677787Y-121064471D01*
X137677787Y-121064471D02*
X137534929Y-120993042D01*
X137534929Y-120993042D02*
X137249215Y-120921614D01*
X137249215Y-120921614D02*
X137106358Y-120850185D01*
X137106358Y-120850185D02*
X137034929Y-120778757D01*
X137034929Y-120778757D02*
X136963501Y-120635900D01*
X136963501Y-120635900D02*
X136963501Y-120493042D01*
X136963501Y-120493042D02*
X137034929Y-120350185D01*
X137034929Y-120350185D02*
X137106358Y-120278757D01*
X137106358Y-120278757D02*
X137249215Y-120207328D01*
X137249215Y-120207328D02*
X137606358Y-120207328D01*
X137606358Y-120207328D02*
X137820644Y-120278757D01*
X139677786Y-121707328D02*
X139606358Y-121707328D01*
X139606358Y-121707328D02*
X139463500Y-121635900D01*
X139463500Y-121635900D02*
X139249215Y-121421614D01*
X139249215Y-121421614D02*
X138892072Y-120993042D01*
X138892072Y-120993042D02*
X138749215Y-120778757D01*
X138749215Y-120778757D02*
X138677786Y-120564471D01*
X138677786Y-120564471D02*
X138677786Y-120421614D01*
X138677786Y-120421614D02*
X138749215Y-120278757D01*
X138749215Y-120278757D02*
X138892072Y-120207328D01*
X138892072Y-120207328D02*
X138963500Y-120207328D01*
X138963500Y-120207328D02*
X139106358Y-120278757D01*
X139106358Y-120278757D02*
X139177786Y-120421614D01*
X139177786Y-120421614D02*
X139177786Y-120493042D01*
X139177786Y-120493042D02*
X139106358Y-120635900D01*
X139106358Y-120635900D02*
X139034929Y-120707328D01*
X139034929Y-120707328D02*
X138606358Y-120993042D01*
X138606358Y-120993042D02*
X138534929Y-121064471D01*
X138534929Y-121064471D02*
X138463500Y-121207328D01*
X138463500Y-121207328D02*
X138463500Y-121421614D01*
X138463500Y-121421614D02*
X138534929Y-121564471D01*
X138534929Y-121564471D02*
X138606358Y-121635900D01*
X138606358Y-121635900D02*
X138749215Y-121707328D01*
X138749215Y-121707328D02*
X138963500Y-121707328D01*
X138963500Y-121707328D02*
X139106358Y-121635900D01*
X139106358Y-121635900D02*
X139177786Y-121564471D01*
X139177786Y-121564471D02*
X139392072Y-121278757D01*
X139392072Y-121278757D02*
X139463500Y-121064471D01*
X139463500Y-121064471D02*
X139463500Y-120921614D01*
X140249215Y-121635900D02*
X140463501Y-121707328D01*
X140463501Y-121707328D02*
X140820643Y-121707328D01*
X140820643Y-121707328D02*
X140963501Y-121635900D01*
X140963501Y-121635900D02*
X141034929Y-121564471D01*
X141034929Y-121564471D02*
X141106358Y-121421614D01*
X141106358Y-121421614D02*
X141106358Y-121278757D01*
X141106358Y-121278757D02*
X141034929Y-121135900D01*
X141034929Y-121135900D02*
X140963501Y-121064471D01*
X140963501Y-121064471D02*
X140820643Y-120993042D01*
X140820643Y-120993042D02*
X140534929Y-120921614D01*
X140534929Y-120921614D02*
X140392072Y-120850185D01*
X140392072Y-120850185D02*
X140320643Y-120778757D01*
X140320643Y-120778757D02*
X140249215Y-120635900D01*
X140249215Y-120635900D02*
X140249215Y-120493042D01*
X140249215Y-120493042D02*
X140320643Y-120350185D01*
X140320643Y-120350185D02*
X140392072Y-120278757D01*
X140392072Y-120278757D02*
X140534929Y-120207328D01*
X140534929Y-120207328D02*
X140892072Y-120207328D01*
X140892072Y-120207328D02*
X141106358Y-120278757D01*
X141677786Y-121278757D02*
X142392072Y-121278757D01*
X141534929Y-121707328D02*
X142034929Y-120207328D01*
X142034929Y-120207328D02*
X142534929Y-121707328D01*
X143534928Y-120921614D02*
X143034928Y-120921614D01*
X143034928Y-121707328D02*
X143034928Y-120207328D01*
X143034928Y-120207328D02*
X143749214Y-120207328D01*
X144320642Y-120921614D02*
X144820642Y-120921614D01*
X145034928Y-121707328D02*
X144320642Y-121707328D01*
X144320642Y-121707328D02*
X144320642Y-120207328D01*
X144320642Y-120207328D02*
X145034928Y-120207328D01*
X145463500Y-120207328D02*
X146320643Y-120207328D01*
X145892071Y-121707328D02*
X145892071Y-120207328D01*
X147106357Y-120993042D02*
X147106357Y-121707328D01*
X146606357Y-120207328D02*
X147106357Y-120993042D01*
X147106357Y-120993042D02*
X147606357Y-120207328D01*
X144838042Y-74630671D02*
X144838042Y-76130671D01*
X144123756Y-75630671D02*
X144123756Y-74630671D01*
X144123756Y-75487814D02*
X144052327Y-75559242D01*
X144052327Y-75559242D02*
X143909470Y-75630671D01*
X143909470Y-75630671D02*
X143695184Y-75630671D01*
X143695184Y-75630671D02*
X143552327Y-75559242D01*
X143552327Y-75559242D02*
X143480899Y-75416385D01*
X143480899Y-75416385D02*
X143480899Y-74630671D01*
X142980898Y-75630671D02*
X142409470Y-75630671D01*
X142766613Y-76130671D02*
X142766613Y-74844957D01*
X142766613Y-74844957D02*
X142695184Y-74702100D01*
X142695184Y-74702100D02*
X142552327Y-74630671D01*
X142552327Y-74630671D02*
X142409470Y-74630671D01*
X141338041Y-74702100D02*
X141480898Y-74630671D01*
X141480898Y-74630671D02*
X141766613Y-74630671D01*
X141766613Y-74630671D02*
X141909470Y-74702100D01*
X141909470Y-74702100D02*
X141980898Y-74844957D01*
X141980898Y-74844957D02*
X141980898Y-75416385D01*
X141980898Y-75416385D02*
X141909470Y-75559242D01*
X141909470Y-75559242D02*
X141766613Y-75630671D01*
X141766613Y-75630671D02*
X141480898Y-75630671D01*
X141480898Y-75630671D02*
X141338041Y-75559242D01*
X141338041Y-75559242D02*
X141266613Y-75416385D01*
X141266613Y-75416385D02*
X141266613Y-75273528D01*
X141266613Y-75273528D02*
X141980898Y-75130671D01*
X140623756Y-74630671D02*
X140623756Y-75630671D01*
X140623756Y-75344957D02*
X140552327Y-75487814D01*
X140552327Y-75487814D02*
X140480899Y-75559242D01*
X140480899Y-75559242D02*
X140338041Y-75630671D01*
X140338041Y-75630671D02*
X140195184Y-75630671D01*
X139909470Y-75630671D02*
X139338042Y-75630671D01*
X139695185Y-74630671D02*
X139695185Y-75916385D01*
X139695185Y-75916385D02*
X139623756Y-76059242D01*
X139623756Y-76059242D02*
X139480899Y-76130671D01*
X139480899Y-76130671D02*
X139338042Y-76130671D01*
X138195185Y-74630671D02*
X138195185Y-75416385D01*
X138195185Y-75416385D02*
X138266613Y-75559242D01*
X138266613Y-75559242D02*
X138409470Y-75630671D01*
X138409470Y-75630671D02*
X138695185Y-75630671D01*
X138695185Y-75630671D02*
X138838042Y-75559242D01*
X138195185Y-74702100D02*
X138338042Y-74630671D01*
X138338042Y-74630671D02*
X138695185Y-74630671D01*
X138695185Y-74630671D02*
X138838042Y-74702100D01*
X138838042Y-74702100D02*
X138909470Y-74844957D01*
X138909470Y-74844957D02*
X138909470Y-74987814D01*
X138909470Y-74987814D02*
X138838042Y-75130671D01*
X138838042Y-75130671D02*
X138695185Y-75202100D01*
X138695185Y-75202100D02*
X138338042Y-75202100D01*
X138338042Y-75202100D02*
X138195185Y-75273528D01*
X136838042Y-74702100D02*
X136980899Y-74630671D01*
X136980899Y-74630671D02*
X137266613Y-74630671D01*
X137266613Y-74630671D02*
X137409470Y-74702100D01*
X137409470Y-74702100D02*
X137480899Y-74773528D01*
X137480899Y-74773528D02*
X137552327Y-74916385D01*
X137552327Y-74916385D02*
X137552327Y-75344957D01*
X137552327Y-75344957D02*
X137480899Y-75487814D01*
X137480899Y-75487814D02*
X137409470Y-75559242D01*
X137409470Y-75559242D02*
X137266613Y-75630671D01*
X137266613Y-75630671D02*
X136980899Y-75630671D01*
X136980899Y-75630671D02*
X136838042Y-75559242D01*
X135623756Y-74702100D02*
X135766613Y-74630671D01*
X135766613Y-74630671D02*
X136052328Y-74630671D01*
X136052328Y-74630671D02*
X136195185Y-74702100D01*
X136195185Y-74702100D02*
X136266613Y-74844957D01*
X136266613Y-74844957D02*
X136266613Y-75416385D01*
X136266613Y-75416385D02*
X136195185Y-75559242D01*
X136195185Y-75559242D02*
X136052328Y-75630671D01*
X136052328Y-75630671D02*
X135766613Y-75630671D01*
X135766613Y-75630671D02*
X135623756Y-75559242D01*
X135623756Y-75559242D02*
X135552328Y-75416385D01*
X135552328Y-75416385D02*
X135552328Y-75273528D01*
X135552328Y-75273528D02*
X136266613Y-75130671D01*
D11*
X144491904Y-99972666D02*
X144491904Y-99496476D01*
X144777619Y-100067904D02*
X143777619Y-99734571D01*
X143777619Y-99734571D02*
X144777619Y-99401238D01*
X144253809Y-99067904D02*
X144253809Y-98734571D01*
X144777619Y-98591714D02*
X144777619Y-99067904D01*
X144777619Y-99067904D02*
X143777619Y-99067904D01*
X143777619Y-99067904D02*
X143777619Y-98591714D01*
X144777619Y-97639333D02*
X144777619Y-98210761D01*
X144777619Y-97925047D02*
X143777619Y-97925047D01*
X143777619Y-97925047D02*
X143920476Y-98020285D01*
X143920476Y-98020285D02*
X144015714Y-98115523D01*
X144015714Y-98115523D02*
X144063333Y-98210761D01*
%TO.C,AE1*%
X165224500Y-115619000D02*
X130224500Y-115619000D01*
X130224500Y-80619000D01*
X165224500Y-80619000D01*
X165224500Y-115619000D01*
D12*
%TO.C,G1*%
G36*
X125795071Y-112217310D02*
G01*
X126988852Y-112217309D01*
X126988853Y-112483615D01*
X125795071Y-112483615D01*
X125795071Y-112896847D01*
X125528765Y-112896847D01*
X125528765Y-111804078D01*
X125795071Y-111804078D01*
X125795071Y-112217310D01*
G37*
G36*
X126988852Y-105789255D02*
G01*
X125528765Y-105789255D01*
X125528765Y-104852595D01*
X125795071Y-104852595D01*
X125795071Y-105513767D01*
X126097817Y-105513767D01*
X126100258Y-105258940D01*
X126102699Y-105004114D01*
X126364413Y-104999018D01*
X126364413Y-105513767D01*
X126731730Y-105513767D01*
X126731730Y-104834229D01*
X126988852Y-104834229D01*
X126988852Y-105789255D01*
G37*
G36*
X126988852Y-110729674D02*
G01*
X126364413Y-110729674D01*
X126364413Y-111390846D01*
X126988852Y-111390846D01*
X126988852Y-111657151D01*
X125528765Y-111657151D01*
X125528765Y-111390846D01*
X126107290Y-111390846D01*
X126107290Y-110729936D01*
X125820324Y-110727509D01*
X125533357Y-110725083D01*
X125530816Y-110589634D01*
X125528274Y-110454186D01*
X126988853Y-110454186D01*
X126988852Y-110729674D01*
G37*
G36*
X126988852Y-107772750D02*
G01*
X126496376Y-108101050D01*
X126003901Y-108429349D01*
X126496376Y-108431724D01*
X126988852Y-108434100D01*
X126988852Y-108700245D01*
X125528766Y-108700245D01*
X125528770Y-108569389D01*
X125528775Y-108438532D01*
X125993865Y-108130903D01*
X126458955Y-107823275D01*
X125993615Y-107820895D01*
X125528275Y-107818515D01*
X125533358Y-107547787D01*
X126261105Y-107545436D01*
X126988852Y-107543085D01*
X126988852Y-107772750D01*
G37*
G36*
X123763096Y-102579458D02*
G01*
X123777551Y-102581973D01*
X123808618Y-102587412D01*
X123854819Y-102595514D01*
X123914679Y-102606019D01*
X123986720Y-102618670D01*
X124069465Y-102633206D01*
X124161440Y-102649369D01*
X124261164Y-102666898D01*
X124367164Y-102685535D01*
X124477962Y-102705020D01*
X124491094Y-102707329D01*
X125184405Y-102829272D01*
X125186947Y-102963963D01*
X125187625Y-103018696D01*
X125187162Y-103057294D01*
X125185407Y-103081965D01*
X125182209Y-103094911D01*
X125177764Y-103098363D01*
X125167078Y-103096761D01*
X125139697Y-103092205D01*
X125097010Y-103084939D01*
X125040407Y-103075203D01*
X124971279Y-103063239D01*
X124891017Y-103049287D01*
X124801008Y-103033589D01*
X124702647Y-103016388D01*
X124597320Y-102997923D01*
X124486419Y-102978437D01*
X124449769Y-102971988D01*
X123733501Y-102845902D01*
X123728409Y-102573528D01*
X123763096Y-102579458D01*
G37*
G36*
X127359722Y-102163901D02*
G01*
X127387103Y-102168461D01*
X127429789Y-102175733D01*
X127486391Y-102185477D01*
X127555517Y-102197451D01*
X127635779Y-102211413D01*
X127725785Y-102227122D01*
X127824144Y-102244336D01*
X127929471Y-102262814D01*
X128040370Y-102282314D01*
X128077031Y-102288770D01*
X128793299Y-102414945D01*
X128798391Y-102687121D01*
X128763705Y-102681173D01*
X128749249Y-102678656D01*
X128718182Y-102673219D01*
X128671979Y-102665122D01*
X128612118Y-102654621D01*
X128540075Y-102641980D01*
X128457327Y-102627455D01*
X128365351Y-102611306D01*
X128265624Y-102593791D01*
X128159622Y-102575171D01*
X128048821Y-102555705D01*
X128035707Y-102553400D01*
X127342395Y-102431576D01*
X127339854Y-102296786D01*
X127339176Y-102242033D01*
X127339638Y-102203414D01*
X127341390Y-102178725D01*
X127344585Y-102165761D01*
X127349037Y-102162295D01*
X127359722Y-102163901D01*
G37*
G36*
X124399264Y-101648946D02*
G01*
X124509157Y-101668280D01*
X124615073Y-101686904D01*
X124715421Y-101704539D01*
X124808609Y-101720905D01*
X124893045Y-101735725D01*
X124967138Y-101748718D01*
X125029297Y-101759605D01*
X125077928Y-101768107D01*
X125111441Y-101773945D01*
X125127012Y-101776630D01*
X125188997Y-101787154D01*
X125188997Y-102061333D01*
X125168335Y-102056377D01*
X125156196Y-102054036D01*
X125127391Y-102048781D01*
X125083343Y-102040865D01*
X125025477Y-102030538D01*
X124955217Y-102018055D01*
X124873988Y-102003668D01*
X124783211Y-101987629D01*
X124684314Y-101970190D01*
X124578720Y-101951604D01*
X124467852Y-101932125D01*
X124441151Y-101927438D01*
X124329768Y-101907861D01*
X124223708Y-101889156D01*
X124124350Y-101871572D01*
X124033071Y-101855355D01*
X123951251Y-101840752D01*
X123880268Y-101828009D01*
X123821500Y-101817375D01*
X123776325Y-101809094D01*
X123746123Y-101803416D01*
X123732271Y-101800585D01*
X123731516Y-101800345D01*
X123730578Y-101790555D01*
X123730105Y-101765739D01*
X123730110Y-101729232D01*
X123730607Y-101684366D01*
X123730954Y-101664510D01*
X123733501Y-101531788D01*
X124399264Y-101648946D01*
G37*
G36*
X127358464Y-101110265D02*
G01*
X127370656Y-101112562D01*
X127399490Y-101117759D01*
X127443518Y-101125599D01*
X127501291Y-101135827D01*
X127571359Y-101148189D01*
X127652274Y-101162428D01*
X127742586Y-101178289D01*
X127840845Y-101195517D01*
X127945602Y-101213857D01*
X128055407Y-101233054D01*
X128063255Y-101234425D01*
X128173501Y-101253694D01*
X128278904Y-101272139D01*
X128378001Y-101289503D01*
X128469333Y-101305529D01*
X128551436Y-101319959D01*
X128622847Y-101332537D01*
X128682105Y-101343004D01*
X128727750Y-101351104D01*
X128758316Y-101356579D01*
X128772343Y-101359173D01*
X128772637Y-101359233D01*
X128797891Y-101364539D01*
X128797891Y-101496962D01*
X128797471Y-101552095D01*
X128796097Y-101590888D01*
X128793594Y-101615349D01*
X128789789Y-101627486D01*
X128786412Y-101629725D01*
X128775767Y-101628227D01*
X128748422Y-101623783D01*
X128705764Y-101616635D01*
X128649181Y-101607018D01*
X128580060Y-101595173D01*
X128499788Y-101581336D01*
X128409753Y-101565749D01*
X128311342Y-101548649D01*
X128205945Y-101530275D01*
X128094944Y-101510866D01*
X128056368Y-101504107D01*
X127337803Y-101378150D01*
X127337804Y-101105608D01*
X127358464Y-101110265D01*
G37*
G36*
X123745707Y-100482501D02*
G01*
X123772337Y-100486912D01*
X123814312Y-100494025D01*
X123870261Y-100503603D01*
X123938814Y-100515411D01*
X124018599Y-100529210D01*
X124108245Y-100544764D01*
X124206378Y-100561836D01*
X124311629Y-100580189D01*
X124422627Y-100599586D01*
X124465841Y-100607149D01*
X125188997Y-100733756D01*
X125188997Y-101006405D01*
X125163744Y-101001123D01*
X125150800Y-100998722D01*
X125121226Y-100993425D01*
X125076483Y-100985485D01*
X125018033Y-100975164D01*
X124947339Y-100962714D01*
X124865861Y-100948396D01*
X124775065Y-100932466D01*
X124676411Y-100915182D01*
X124571359Y-100896800D01*
X124461373Y-100877577D01*
X124454362Y-100876353D01*
X124344257Y-100857109D01*
X124239098Y-100838700D01*
X124140336Y-100821386D01*
X124049420Y-100805418D01*
X123967800Y-100791055D01*
X123896924Y-100778551D01*
X123838242Y-100768161D01*
X123793203Y-100760140D01*
X123763257Y-100754745D01*
X123749853Y-100752231D01*
X123749572Y-100752168D01*
X123741518Y-100749688D01*
X123735886Y-100744597D01*
X123732244Y-100734010D01*
X123730159Y-100715044D01*
X123729196Y-100684808D01*
X123728924Y-100640418D01*
X123728910Y-100614496D01*
X123729358Y-100567402D01*
X123730591Y-100527571D01*
X123732440Y-100498250D01*
X123734739Y-100482685D01*
X123735797Y-100481030D01*
X123745707Y-100482501D01*
G37*
G36*
X127985201Y-103315596D02*
G01*
X128093985Y-103334705D01*
X128199390Y-103353229D01*
X128299715Y-103370869D01*
X128393260Y-103387325D01*
X128478324Y-103402298D01*
X128553206Y-103415488D01*
X128616206Y-103426597D01*
X128665623Y-103435324D01*
X128699759Y-103441370D01*
X128712948Y-103443721D01*
X128797891Y-103458958D01*
X128797891Y-103591026D01*
X128797785Y-103642647D01*
X128797193Y-103678695D01*
X128795700Y-103701964D01*
X128792889Y-103715246D01*
X128788348Y-103721336D01*
X128781658Y-103723025D01*
X128778269Y-103723094D01*
X128766600Y-103721554D01*
X128738719Y-103717127D01*
X128696286Y-103710105D01*
X128640973Y-103700780D01*
X128574442Y-103689442D01*
X128498361Y-103676384D01*
X128414394Y-103661896D01*
X128324208Y-103646273D01*
X128229468Y-103629804D01*
X128131841Y-103612780D01*
X128032990Y-103595493D01*
X127934584Y-103578236D01*
X127838287Y-103561298D01*
X127745764Y-103544973D01*
X127658683Y-103529552D01*
X127578708Y-103515325D01*
X127507505Y-103502585D01*
X127446740Y-103491623D01*
X127398080Y-103482730D01*
X127363189Y-103476201D01*
X127343733Y-103472323D01*
X127340162Y-103471391D01*
X127339313Y-103461693D01*
X127338914Y-103436959D01*
X127338972Y-103400511D01*
X127339495Y-103355673D01*
X127339847Y-103335617D01*
X127342395Y-103202707D01*
X127985201Y-103315596D01*
G37*
G36*
X126752392Y-101560046D02*
G01*
X126770525Y-101563590D01*
X126801301Y-101569229D01*
X126839255Y-101575973D01*
X126855700Y-101578840D01*
X126895769Y-101585858D01*
X126931639Y-101592273D01*
X126957492Y-101597041D01*
X126963599Y-101598228D01*
X126988852Y-101603294D01*
X126988852Y-101988249D01*
X126988742Y-102086372D01*
X126988384Y-102167478D01*
X126987738Y-102232913D01*
X126986765Y-102284024D01*
X126985423Y-102322160D01*
X126983673Y-102348665D01*
X126981475Y-102364890D01*
X126978788Y-102372179D01*
X126977373Y-102372903D01*
X126966727Y-102371297D01*
X126939385Y-102366738D01*
X126896736Y-102359466D01*
X126840170Y-102349722D01*
X126771076Y-102337749D01*
X126690845Y-102323788D01*
X126600864Y-102308080D01*
X126502525Y-102290867D01*
X126397216Y-102272390D01*
X126286327Y-102252891D01*
X126249626Y-102246428D01*
X125533358Y-102120253D01*
X125530815Y-101985014D01*
X125530298Y-101937553D01*
X125530572Y-101897373D01*
X125531560Y-101867676D01*
X125533184Y-101851664D01*
X125534123Y-101849775D01*
X125544567Y-101851326D01*
X125571241Y-101855759D01*
X125612293Y-101862751D01*
X125665869Y-101871975D01*
X125730117Y-101883105D01*
X125803184Y-101895816D01*
X125883216Y-101909782D01*
X125968362Y-101924678D01*
X126056766Y-101940177D01*
X126146579Y-101955955D01*
X126235945Y-101971685D01*
X126323013Y-101987042D01*
X126405928Y-102001702D01*
X126482839Y-102015334D01*
X126551892Y-102027618D01*
X126611235Y-102038227D01*
X126659014Y-102046832D01*
X126693377Y-102053111D01*
X126712471Y-102056737D01*
X126715660Y-102057438D01*
X126720408Y-102057837D01*
X126724119Y-102054571D01*
X126726920Y-102045673D01*
X126728938Y-102029188D01*
X126730300Y-102003150D01*
X126731133Y-101965602D01*
X126731563Y-101914582D01*
X126731718Y-101848128D01*
X126731730Y-101808896D01*
X126731730Y-101555572D01*
X126752392Y-101560046D01*
G37*
G36*
X126316077Y-105997797D02*
G01*
X126408278Y-106006184D01*
X126469645Y-106017795D01*
X126577368Y-106052549D01*
X126674975Y-106101659D01*
X126761346Y-106164250D01*
X126835364Y-106239442D01*
X126895908Y-106326359D01*
X126919159Y-106370520D01*
X126934403Y-106402854D01*
X126946999Y-106431530D01*
X126957220Y-106458705D01*
X126965339Y-106486537D01*
X126971629Y-106517181D01*
X126976362Y-106552796D01*
X126979811Y-106595536D01*
X126982249Y-106647561D01*
X126983949Y-106711025D01*
X126985183Y-106788086D01*
X126986224Y-106880901D01*
X126986443Y-106902686D01*
X126990020Y-107258524D01*
X126750096Y-107258524D01*
X125526616Y-107258524D01*
X125530335Y-106992219D01*
X125776705Y-106992219D01*
X126750096Y-106992219D01*
X126750096Y-106822787D01*
X126749530Y-106764937D01*
X126747960Y-106709879D01*
X126745579Y-106661680D01*
X126742581Y-106624406D01*
X126739763Y-106604692D01*
X126714326Y-106526532D01*
X126673725Y-106458211D01*
X126618758Y-106400486D01*
X126550226Y-106354114D01*
X126468926Y-106319853D01*
X126427075Y-106308278D01*
X126371002Y-106299226D01*
X126303831Y-106294797D01*
X126232218Y-106294915D01*
X126162819Y-106299507D01*
X126102290Y-106308495D01*
X126086545Y-106312116D01*
X126022977Y-106331275D01*
X125971691Y-106354181D01*
X125926612Y-106384025D01*
X125891693Y-106414315D01*
X125857556Y-106449816D01*
X125830624Y-106486235D01*
X125810129Y-106526275D01*
X125795295Y-106572629D01*
X125785351Y-106627996D01*
X125779525Y-106695071D01*
X125777044Y-106776552D01*
X125776814Y-106815448D01*
X125776705Y-106992219D01*
X125530335Y-106992219D01*
X125531265Y-106925643D01*
X125532585Y-106836790D01*
X125533906Y-106764079D01*
X125535360Y-106705288D01*
X125537079Y-106658189D01*
X125539194Y-106620563D01*
X125541839Y-106590186D01*
X125545145Y-106564834D01*
X125549243Y-106542281D01*
X125554267Y-106520308D01*
X125555667Y-106514707D01*
X125591985Y-106405193D01*
X125642290Y-106307276D01*
X125706002Y-106221540D01*
X125782546Y-106148577D01*
X125871342Y-106088972D01*
X125971814Y-106043313D01*
X126039654Y-106022283D01*
X126124977Y-106005918D01*
X126219380Y-105997732D01*
X126316077Y-105997797D01*
G37*
G36*
X126983814Y-103521041D02*
G01*
X126985967Y-103544085D01*
X126987619Y-103579600D01*
X126988619Y-103624645D01*
X126988852Y-103661852D01*
X126988852Y-103813350D01*
X126724843Y-103950201D01*
X126460833Y-104087053D01*
X126455751Y-104356717D01*
X126988852Y-104356717D01*
X126988852Y-104632315D01*
X126261105Y-104629964D01*
X126228825Y-104629860D01*
X125533357Y-104627613D01*
X125533977Y-104356717D01*
X125755990Y-104356717D01*
X126228825Y-104356717D01*
X126224439Y-104207494D01*
X126221764Y-104139889D01*
X126218059Y-104088168D01*
X126213069Y-104049868D01*
X126206539Y-104022520D01*
X126204815Y-104017579D01*
X126175915Y-103960432D01*
X126137249Y-103918456D01*
X126087912Y-103891047D01*
X126027006Y-103877600D01*
X125993407Y-103875928D01*
X125925074Y-103882746D01*
X125868021Y-103903667D01*
X125822707Y-103938407D01*
X125789591Y-103986682D01*
X125780530Y-104007895D01*
X125773720Y-104032869D01*
X125768431Y-104068082D01*
X125764414Y-104115975D01*
X125761421Y-104178993D01*
X125760633Y-104202903D01*
X125755990Y-104356717D01*
X125533977Y-104356717D01*
X125534092Y-104306211D01*
X125534492Y-104209998D01*
X125535382Y-104129971D01*
X125537014Y-104063950D01*
X125539642Y-104009757D01*
X125543518Y-103965211D01*
X125548895Y-103928134D01*
X125556028Y-103896348D01*
X125565168Y-103867672D01*
X125576569Y-103839928D01*
X125590484Y-103810936D01*
X125591947Y-103808036D01*
X125637957Y-103735334D01*
X125694960Y-103677324D01*
X125762880Y-103634070D01*
X125835018Y-103607343D01*
X125882871Y-103598787D01*
X125941051Y-103594657D01*
X126003307Y-103594825D01*
X126063387Y-103599163D01*
X126115040Y-103607543D01*
X126136663Y-103613513D01*
X126213758Y-103648897D01*
X126280771Y-103699526D01*
X126337137Y-103764932D01*
X126354687Y-103791966D01*
X126368275Y-103814394D01*
X126377429Y-103829207D01*
X126379264Y-103832008D01*
X126387620Y-103828566D01*
X126410316Y-103817316D01*
X126445548Y-103799202D01*
X126491512Y-103775166D01*
X126546403Y-103746156D01*
X126608414Y-103713113D01*
X126675742Y-103676982D01*
X126677755Y-103675898D01*
X126745506Y-103639436D01*
X126808210Y-103605742D01*
X126864016Y-103575805D01*
X126911076Y-103550616D01*
X126947541Y-103531162D01*
X126971561Y-103518436D01*
X126981287Y-103513426D01*
X126981309Y-103513417D01*
X126983814Y-103521041D01*
G37*
G36*
X126036123Y-108977964D02*
G01*
X126145642Y-108978679D01*
X126238421Y-108979362D01*
X126316087Y-108980080D01*
X126380265Y-108980901D01*
X126432581Y-108981896D01*
X126474661Y-108983127D01*
X126508131Y-108984667D01*
X126534617Y-108986583D01*
X126555744Y-108988942D01*
X126573138Y-108991813D01*
X126588427Y-108995263D01*
X126603234Y-108999360D01*
X126612202Y-109002047D01*
X126712212Y-109040462D01*
X126799105Y-109090788D01*
X126872303Y-109152479D01*
X126931231Y-109224994D01*
X126975305Y-109307790D01*
X126993811Y-109360221D01*
X127002072Y-109395297D01*
X127010134Y-109441245D01*
X127017130Y-109491522D01*
X127022192Y-109539586D01*
X127024453Y-109578899D01*
X127024377Y-109590748D01*
X127022666Y-109616933D01*
X127019405Y-109653014D01*
X127015784Y-109686863D01*
X126995901Y-109787178D01*
X126960983Y-109878235D01*
X126911762Y-109958955D01*
X126848970Y-110028259D01*
X126773340Y-110085068D01*
X126729018Y-110109392D01*
X126693723Y-110125701D01*
X126658567Y-110139661D01*
X126621873Y-110151435D01*
X126581965Y-110161186D01*
X126537163Y-110169078D01*
X126485792Y-110175273D01*
X126426172Y-110179936D01*
X126356628Y-110183228D01*
X126275482Y-110185313D01*
X126181055Y-110186354D01*
X126071672Y-110186515D01*
X125945653Y-110185958D01*
X125941998Y-110185934D01*
X125533357Y-110183289D01*
X125530816Y-110047841D01*
X125528273Y-109912393D01*
X125959453Y-109912393D01*
X126063053Y-109912169D01*
X126158589Y-109911521D01*
X126244407Y-109910480D01*
X126318849Y-109909079D01*
X126380260Y-109907351D01*
X126426985Y-109905329D01*
X126457366Y-109903044D01*
X126461700Y-109902508D01*
X126546292Y-109885366D01*
X126615334Y-109859112D01*
X126669705Y-109822846D01*
X126710284Y-109775667D01*
X126737948Y-109716671D01*
X126753579Y-109644957D01*
X126757392Y-109599136D01*
X126755575Y-109515386D01*
X126741532Y-109444870D01*
X126714466Y-109386444D01*
X126673582Y-109338965D01*
X126618085Y-109301295D01*
X126547178Y-109272288D01*
X126525138Y-109265752D01*
X126509353Y-109261710D01*
X126492499Y-109258297D01*
X126472868Y-109255442D01*
X126448760Y-109253075D01*
X126418468Y-109251129D01*
X126380287Y-109249533D01*
X126332513Y-109248219D01*
X126273442Y-109247117D01*
X126201368Y-109246160D01*
X126114588Y-109245277D01*
X126011396Y-109244399D01*
X125994799Y-109244267D01*
X125528765Y-109240577D01*
X125528765Y-108974736D01*
X126036123Y-108977964D01*
G37*
G36*
X125928223Y-100610755D02*
G01*
X126003255Y-100668758D01*
X126074461Y-100723608D01*
X126140416Y-100774225D01*
X126199706Y-100819531D01*
X126250909Y-100858443D01*
X126292606Y-100889883D01*
X126323382Y-100912771D01*
X126341813Y-100926027D01*
X126346047Y-100928754D01*
X126360486Y-100933260D01*
X126390685Y-100940317D01*
X126434287Y-100949453D01*
X126488936Y-100960201D01*
X126552274Y-100972090D01*
X126621946Y-100984652D01*
X126662858Y-100991807D01*
X126734628Y-101004279D01*
X126801043Y-101015933D01*
X126859820Y-101026358D01*
X126908673Y-101035145D01*
X126945319Y-101041885D01*
X126967473Y-101046168D01*
X126972782Y-101047365D01*
X126979117Y-101050949D01*
X126983544Y-101059235D01*
X126986401Y-101075059D01*
X126988015Y-101101257D01*
X126988720Y-101140666D01*
X126988852Y-101184631D01*
X126988481Y-101231592D01*
X126987461Y-101271236D01*
X126985932Y-101300326D01*
X126984030Y-101315628D01*
X126983165Y-101317165D01*
X126973100Y-101315632D01*
X126947052Y-101311273D01*
X126907120Y-101304451D01*
X126855408Y-101295529D01*
X126794018Y-101284869D01*
X126725053Y-101272834D01*
X126662820Y-101261929D01*
X126348160Y-101206693D01*
X125943313Y-101376716D01*
X125862129Y-101410767D01*
X125786171Y-101442544D01*
X125717102Y-101471352D01*
X125656590Y-101496506D01*
X125606298Y-101517313D01*
X125567895Y-101533080D01*
X125543045Y-101543118D01*
X125533413Y-101546736D01*
X125533382Y-101546739D01*
X125531799Y-101538076D01*
X125530740Y-101514165D01*
X125530260Y-101478112D01*
X125530415Y-101433027D01*
X125530828Y-101403325D01*
X125533358Y-101259912D01*
X125820111Y-101143907D01*
X125888090Y-101116275D01*
X125950308Y-101090727D01*
X126004800Y-101068096D01*
X126049598Y-101049205D01*
X126082736Y-101034883D01*
X126102248Y-101025956D01*
X126106759Y-101023311D01*
X126099603Y-101017021D01*
X126079249Y-101001051D01*
X126047290Y-100976606D01*
X126005324Y-100944890D01*
X125954943Y-100907108D01*
X125897743Y-100864463D01*
X125835319Y-100818160D01*
X125821214Y-100807728D01*
X125757658Y-100760572D01*
X125698831Y-100716586D01*
X125646357Y-100677010D01*
X125601863Y-100643085D01*
X125566971Y-100616050D01*
X125543307Y-100597147D01*
X125532495Y-100587615D01*
X125532014Y-100586934D01*
X125530853Y-100574694D01*
X125530185Y-100547599D01*
X125530040Y-100509157D01*
X125530446Y-100462873D01*
X125530806Y-100441059D01*
X125533357Y-100304986D01*
X125928223Y-100610755D01*
G37*
G36*
X125568909Y-102300329D02*
G01*
X125604928Y-102305501D01*
X125648573Y-102312702D01*
X125659915Y-102314702D01*
X125705139Y-102322692D01*
X125743779Y-102329362D01*
X125772280Y-102334109D01*
X125787085Y-102336331D01*
X125788183Y-102336421D01*
X125789845Y-102345257D01*
X125791363Y-102370298D01*
X125792686Y-102409388D01*
X125793767Y-102460363D01*
X125794551Y-102521067D01*
X125794992Y-102589341D01*
X125795071Y-102634265D01*
X125795071Y-102932060D01*
X125843281Y-102941616D01*
X125875319Y-102947730D01*
X125917641Y-102955493D01*
X125962425Y-102963473D01*
X125974138Y-102965517D01*
X126013460Y-102972437D01*
X126047854Y-102978661D01*
X126071857Y-102983193D01*
X126077446Y-102984336D01*
X126098107Y-102988809D01*
X126098107Y-102759061D01*
X126098312Y-102684763D01*
X126098980Y-102627149D01*
X126100196Y-102584542D01*
X126102043Y-102555262D01*
X126104607Y-102537632D01*
X126107969Y-102529974D01*
X126109586Y-102529327D01*
X126122230Y-102530912D01*
X126148575Y-102535143D01*
X126184278Y-102541245D01*
X126224996Y-102548446D01*
X126266383Y-102555971D01*
X126304098Y-102563048D01*
X126333796Y-102568905D01*
X126343751Y-102571015D01*
X126364413Y-102575577D01*
X126364413Y-103034025D01*
X126385074Y-103038712D01*
X126399405Y-103041473D01*
X126429232Y-103046857D01*
X126471945Y-103054407D01*
X126524935Y-103063664D01*
X126585592Y-103074170D01*
X126649084Y-103085085D01*
X126716527Y-103096686D01*
X126780519Y-103107783D01*
X126838059Y-103117849D01*
X126886154Y-103126358D01*
X126921806Y-103132783D01*
X126940642Y-103136321D01*
X126988852Y-103145870D01*
X126988853Y-103278373D01*
X126988625Y-103330724D01*
X126987747Y-103367390D01*
X126985919Y-103391046D01*
X126982846Y-103404366D01*
X126978229Y-103410031D01*
X126974144Y-103410874D01*
X126962422Y-103409318D01*
X126934447Y-103404845D01*
X126891891Y-103397751D01*
X126836428Y-103388332D01*
X126769729Y-103376880D01*
X126693468Y-103363692D01*
X126609317Y-103349063D01*
X126518948Y-103333288D01*
X126424035Y-103316661D01*
X126326250Y-103299478D01*
X126227265Y-103282034D01*
X126128753Y-103264623D01*
X126032387Y-103247542D01*
X125939839Y-103231083D01*
X125852782Y-103215544D01*
X125772889Y-103201218D01*
X125701832Y-103188401D01*
X125641284Y-103177387D01*
X125592918Y-103168472D01*
X125558405Y-103161951D01*
X125539419Y-103158117D01*
X125536217Y-103157275D01*
X125534817Y-103147556D01*
X125533543Y-103121684D01*
X125532406Y-103081870D01*
X125531409Y-103030325D01*
X125530559Y-102969260D01*
X125529864Y-102900888D01*
X125529330Y-102827419D01*
X125528961Y-102751065D01*
X125528769Y-102674037D01*
X125528757Y-102598549D01*
X125528932Y-102526808D01*
X125529300Y-102461029D01*
X125529870Y-102403422D01*
X125530646Y-102356201D01*
X125531636Y-102321574D01*
X125532846Y-102301754D01*
X125533650Y-102297916D01*
X125543993Y-102297646D01*
X125568909Y-102300329D01*
G37*
%TD*%
M02*
