%TF.GenerationSoftware,KiCad,Pcbnew,9.0.7+1*%
%TF.CreationDate,2026-03-30T01:30:49+00:00*%
%TF.ProjectId,TFGPS01,54464750-5330-4312-9e6b-696361645f70,C*%
%TF.SameCoordinates,Original*%
%TF.FileFunction,Copper,L1,Top*%
%TF.FilePolarity,Positive*%
%FSLAX46Y46*%
G04 Gerber Fmt 4.6, Leading zero omitted, Abs format (unit mm)*
G04 Created by KiCad (PCBNEW 9.0.7+1) date 2026-03-30 01:30:49*
%MOMM*%
%LPD*%
G01*
G04 APERTURE LIST*
%TA.AperFunction,ComponentPad*%
%ADD10C,6.000000*%
%TD*%
%TA.AperFunction,ComponentPad*%
%ADD11O,2.000000X1.000000*%
%TD*%
%TA.AperFunction,ComponentPad*%
%ADD12O,2.100000X1.050000*%
%TD*%
%TA.AperFunction,ViaPad*%
%ADD13C,0.800000*%
%TD*%
%TA.AperFunction,ViaPad*%
%ADD14C,0.700000*%
%TD*%
%TA.AperFunction,ViaPad*%
%ADD15C,0.600000*%
%TD*%
G04 APERTURE END LIST*
D10*
%TO.P,M4,1*%
%TO.N,GND*%
X167718500Y-118189000D03*
%TD*%
%TO.P,M2,1*%
%TO.N,GND*%
X127678500Y-118189000D03*
%TD*%
%TO.P,M1,1*%
%TO.N,GND*%
X167718500Y-78149000D03*
%TD*%
%TO.P,M3,1*%
%TO.N,GND*%
X127678500Y-78149000D03*
%TD*%
D11*
%TO.P,J2,G1,SHIELD*%
%TO.N,GND*%
X124838500Y-92329000D03*
%TO.P,J2,G2,SHIELD*%
X124838500Y-83689000D03*
D12*
%TO.P,J2,G3,SHIELD*%
X129018500Y-92329000D03*
%TO.P,J2,G4,SHIELD*%
X129018500Y-83689000D03*
%TD*%
D13*
%TO.N,GND*%
X139852400Y-95529400D03*
X163677600Y-74091800D03*
X158722100Y-103757000D03*
X132029200Y-110439200D03*
X140614400Y-107322501D03*
X126108500Y-85469000D03*
X126108500Y-90549000D03*
X155724900Y-99591400D03*
D14*
X156876500Y-112139000D03*
D13*
X153413500Y-84834000D03*
D15*
X167129500Y-83945000D03*
D13*
X130149600Y-113055400D03*
D14*
X157824900Y-112139000D03*
D13*
X150848100Y-104366600D03*
X163931600Y-107264200D03*
X159687300Y-95527400D03*
D14*
X155166100Y-109395800D03*
D13*
X152372100Y-103350600D03*
X131823500Y-74039000D03*
D14*
X145260100Y-109040200D03*
D13*
X138455400Y-97713800D03*
D14*
X153082900Y-112139000D03*
D13*
X154302500Y-98169000D03*
X150746500Y-103147400D03*
X134493000Y-111633000D03*
X153997700Y-97102200D03*
X152857200Y-92989400D03*
X149440331Y-116433000D03*
D14*
X148155700Y-111123000D03*
D13*
X134620000Y-101523800D03*
X154048500Y-116584000D03*
X146428500Y-79119000D03*
X131978400Y-111836200D03*
X152778500Y-101115400D03*
X155524200Y-85979000D03*
X142925800Y-95580200D03*
X153540500Y-101826600D03*
D15*
X156598565Y-109649800D03*
D13*
X152143500Y-84834000D03*
X131648200Y-114604800D03*
X155674100Y-104519000D03*
X147546100Y-107008200D03*
X162938500Y-118489000D03*
X151965700Y-100404200D03*
X136296400Y-99822000D03*
X157909300Y-95730600D03*
D14*
X146377700Y-109141800D03*
D13*
X157655300Y-101928200D03*
X151559300Y-101369400D03*
X139903200Y-92735400D03*
D14*
X152168900Y-112139000D03*
D13*
X153438900Y-96187800D03*
X138808500Y-101979000D03*
X154353300Y-109243400D03*
X135331200Y-104800400D03*
X158722100Y-102690200D03*
X131188500Y-118489000D03*
X156514800Y-92430600D03*
X153413500Y-86104000D03*
X149679700Y-98270600D03*
X149374900Y-104265000D03*
D15*
X156486900Y-106093800D03*
D13*
X155013700Y-98880200D03*
X140487400Y-97866200D03*
X152143500Y-86104000D03*
X131823500Y-75309000D03*
X131188500Y-121029000D03*
D15*
X165986500Y-83945000D03*
D14*
X147088900Y-111123000D03*
D13*
X148691600Y-73914000D03*
X131188500Y-119759000D03*
X131368800Y-105613200D03*
X158163300Y-106754200D03*
X137541000Y-104622600D03*
X131188500Y-122299000D03*
X155549600Y-84810600D03*
D14*
X148866900Y-109091000D03*
D13*
X159890500Y-102360000D03*
X138379200Y-112522000D03*
X160500100Y-105789000D03*
X140233400Y-100330000D03*
X153159500Y-82675000D03*
X150441700Y-96289400D03*
X149476500Y-118743000D03*
X150873500Y-86104000D03*
X149781300Y-97102200D03*
X151356100Y-95832200D03*
X150873500Y-84834000D03*
X127584200Y-96748600D03*
X150848100Y-102080600D03*
X163573500Y-117219000D03*
X158722100Y-104874600D03*
D14*
X154979700Y-112139000D03*
X154031300Y-112139000D03*
D13*
X149984500Y-99388200D03*
X126108500Y-86739000D03*
D15*
X158064200Y-109499400D03*
D13*
X163573500Y-105154000D03*
X150873500Y-79119000D03*
D15*
X161874200Y-86055200D03*
D13*
X155623300Y-103401400D03*
X154203400Y-91948000D03*
X152270500Y-109243400D03*
X148155700Y-112443800D03*
X126108500Y-88009000D03*
X133324600Y-102768400D03*
D14*
X147088900Y-109853000D03*
D13*
X146428500Y-77849000D03*
X152422900Y-105484200D03*
X155623300Y-96391000D03*
X126108500Y-89279000D03*
X135305800Y-114325400D03*
X158112500Y-99439000D03*
X149730500Y-101369400D03*
X149984500Y-108837000D03*
X153311900Y-109243400D03*
X160652500Y-103249000D03*
X133121400Y-107238800D03*
X137642600Y-107035600D03*
X136296400Y-110439200D03*
X159766000Y-85953600D03*
X146987300Y-112494600D03*
X128625600Y-111912400D03*
X159537400Y-92430600D03*
X171828500Y-109599000D03*
X159131000Y-84937600D03*
X151000500Y-105839800D03*
X146634200Y-116509800D03*
X151152900Y-108989400D03*
X144040900Y-107516200D03*
D14*
X155775700Y-105535000D03*
X140843000Y-109677200D03*
D13*
X148285200Y-81381600D03*
D14*
X155928100Y-112139000D03*
D13*
X158823700Y-105992200D03*
X150848100Y-100150200D03*
X152422900Y-95832200D03*
X148968500Y-77849000D03*
D14*
X148104900Y-109802200D03*
D13*
%TO.N,/VBACKUP*%
X150604225Y-90555979D03*
X128648500Y-100074000D03*
%TO.N,+3V3*%
X146936500Y-88263000D03*
X146936500Y-80643000D03*
X147190500Y-104773000D03*
%TO.N,+5VA*%
X157858500Y-75563000D03*
X151635500Y-118870000D03*
D14*
X132204500Y-78992000D03*
D13*
X168526500Y-109599000D03*
D14*
X161224000Y-78928500D03*
%TO.N,+5V*%
X170637200Y-87325200D03*
X144333502Y-87401400D03*
X149555200Y-86971000D03*
X162788600Y-86969600D03*
D13*
%TO.N,/SAFETY_SW_LED*%
X136924752Y-114725652D03*
X158630188Y-80506312D03*
X154048500Y-80516000D03*
%TO.N,/RTK_STAT*%
X159636500Y-94105000D03*
X139570500Y-109345000D03*
X128394500Y-110615000D03*
%TO.N,/BUZZER*%
X160906500Y-97407000D03*
X156588500Y-79666000D03*
X162723499Y-104280003D03*
X136395500Y-116457000D03*
X160328574Y-114876861D03*
%TO.N,/GEO_STAT*%
X138720490Y-108356215D03*
X158798499Y-90726999D03*
X128267500Y-109218000D03*
%TO.N,/SAFETY_SW*%
X136928900Y-113409000D03*
X155318500Y-83564000D03*
%TO.N,Net-(D10-K)*%
X134938500Y-86159000D03*
X132698500Y-83219000D03*
%TO.N,/SDA1*%
X141475500Y-116457000D03*
X157858500Y-116457000D03*
%TO.N,/TX*%
X124025700Y-104265000D03*
X143937541Y-116467041D03*
X143380500Y-82889000D03*
%TO.N,/RX*%
X133894500Y-82914206D03*
X145412500Y-116457000D03*
X133855500Y-94486000D03*
X123974900Y-102233000D03*
%TO.N,/SDA*%
X123949500Y-108329000D03*
X139062500Y-82789011D03*
%TO.N,/SCL*%
X124076500Y-106297000D03*
X141094500Y-82421000D03*
%TO.N,Net-(J5-Pad1)*%
X135633500Y-80389000D03*
X146047500Y-91819000D03*
%TO.N,Net-(J5-Pad2)*%
X146815723Y-91178814D03*
X137030500Y-80389000D03*
%TO.N,Net-(J5-Pad3)*%
X138681500Y-94486000D03*
X124076500Y-110361000D03*
X138554500Y-80389000D03*
%TO.N,Net-(J5-Pad6)*%
X133982500Y-79119000D03*
X141953500Y-80105000D03*
%TO.N,/D1-*%
X140658477Y-91140000D03*
X146356448Y-98477948D03*
%TO.N,/D1+*%
X147444500Y-98296000D03*
X140658477Y-90090000D03*
%TO.N,/SAFE_VCC*%
X137623259Y-116626241D03*
X152778500Y-80008000D03*
%TO.N,/VBUS*%
X131696500Y-85469000D03*
X131175500Y-90409000D03*
X135317500Y-90422000D03*
%TD*%
%TA.AperFunction,Conductor*%
%TO.N,GND*%
G36*
X172862208Y-72994322D02*
G01*
X172892648Y-73047045D01*
X172894000Y-73062500D01*
X172894000Y-123275500D01*
X172873178Y-123332708D01*
X172820455Y-123363148D01*
X172805000Y-123364500D01*
X122592000Y-123364500D01*
X122534792Y-123343678D01*
X122504352Y-123290955D01*
X122503000Y-123275500D01*
X122503000Y-118790942D01*
X151035000Y-118790942D01*
X151035000Y-118949057D01*
X151075921Y-119101779D01*
X151075922Y-119101781D01*
X151075923Y-119101784D01*
X151111918Y-119164131D01*
X151154977Y-119238712D01*
X151154978Y-119238713D01*
X151154980Y-119238716D01*
X151266784Y-119350520D01*
X151403716Y-119429577D01*
X151556443Y-119470500D01*
X151714557Y-119470500D01*
X151867284Y-119429577D01*
X152004216Y-119350520D01*
X152116020Y-119238716D01*
X152195077Y-119101784D01*
X152236000Y-118949057D01*
X152236000Y-118790943D01*
X152195077Y-118638216D01*
X152116020Y-118501284D01*
X152004216Y-118389480D01*
X152004213Y-118389478D01*
X152004212Y-118389477D01*
X151929631Y-118346418D01*
X151867284Y-118310423D01*
X151867281Y-118310422D01*
X151867279Y-118310421D01*
X151714557Y-118269500D01*
X151556443Y-118269500D01*
X151403720Y-118310421D01*
X151403716Y-118310423D01*
X151266787Y-118389477D01*
X151154977Y-118501287D01*
X151075923Y-118638216D01*
X151075921Y-118638220D01*
X151035000Y-118790942D01*
X122503000Y-118790942D01*
X122503000Y-116377942D01*
X135795000Y-116377942D01*
X135795000Y-116536057D01*
X135835921Y-116688779D01*
X135835922Y-116688781D01*
X135835923Y-116688784D01*
X135871918Y-116751131D01*
X135914977Y-116825712D01*
X135914978Y-116825713D01*
X135914980Y-116825716D01*
X136026784Y-116937520D01*
X136026786Y-116937521D01*
X136026787Y-116937522D01*
X136044179Y-116947563D01*
X136163716Y-117016577D01*
X136316443Y-117057500D01*
X136474557Y-117057500D01*
X136627284Y-117016577D01*
X136764216Y-116937520D01*
X136876020Y-116825716D01*
X136890850Y-116800029D01*
X136937484Y-116760897D01*
X136998363Y-116760895D01*
X137045001Y-116800027D01*
X137053893Y-116821494D01*
X137063680Y-116858019D01*
X137063681Y-116858021D01*
X137063682Y-116858025D01*
X137099677Y-116920372D01*
X137142736Y-116994953D01*
X137142737Y-116994954D01*
X137142739Y-116994957D01*
X137254543Y-117106761D01*
X137391475Y-117185818D01*
X137544202Y-117226741D01*
X137702316Y-117226741D01*
X137855043Y-117185818D01*
X137991975Y-117106761D01*
X138103779Y-116994957D01*
X138182836Y-116858025D01*
X138223759Y-116705298D01*
X138223759Y-116547184D01*
X138220778Y-116536057D01*
X138183021Y-116395145D01*
X138182838Y-116394462D01*
X138182836Y-116394460D01*
X138182836Y-116394457D01*
X138173301Y-116377942D01*
X140875000Y-116377942D01*
X140875000Y-116536057D01*
X140915921Y-116688779D01*
X140915922Y-116688781D01*
X140915923Y-116688784D01*
X140951918Y-116751131D01*
X140994977Y-116825712D01*
X140994978Y-116825713D01*
X140994980Y-116825716D01*
X141106784Y-116937520D01*
X141106786Y-116937521D01*
X141106787Y-116937522D01*
X141124179Y-116947563D01*
X141243716Y-117016577D01*
X141396443Y-117057500D01*
X141554557Y-117057500D01*
X141707284Y-117016577D01*
X141844216Y-116937520D01*
X141956020Y-116825716D01*
X142035077Y-116688784D01*
X142076000Y-116536057D01*
X142076000Y-116387983D01*
X143337041Y-116387983D01*
X143337041Y-116546098D01*
X143377962Y-116698820D01*
X143377963Y-116698822D01*
X143377964Y-116698825D01*
X143413800Y-116760895D01*
X143457018Y-116835753D01*
X143457019Y-116835754D01*
X143457021Y-116835757D01*
X143568825Y-116947561D01*
X143705757Y-117026618D01*
X143858484Y-117067541D01*
X144016598Y-117067541D01*
X144169325Y-117026618D01*
X144306257Y-116947561D01*
X144418061Y-116835757D01*
X144497118Y-116698825D01*
X144538041Y-116546098D01*
X144538041Y-116387984D01*
X144535350Y-116377942D01*
X144812000Y-116377942D01*
X144812000Y-116536057D01*
X144852921Y-116688779D01*
X144852922Y-116688781D01*
X144852923Y-116688784D01*
X144888918Y-116751131D01*
X144931977Y-116825712D01*
X144931978Y-116825713D01*
X144931980Y-116825716D01*
X145043784Y-116937520D01*
X145043786Y-116937521D01*
X145043787Y-116937522D01*
X145061179Y-116947563D01*
X145180716Y-117016577D01*
X145333443Y-117057500D01*
X145491557Y-117057500D01*
X145644284Y-117016577D01*
X145781216Y-116937520D01*
X145893020Y-116825716D01*
X145972077Y-116688784D01*
X146013000Y-116536057D01*
X146013000Y-116377943D01*
X146013000Y-116377942D01*
X157258000Y-116377942D01*
X157258000Y-116536057D01*
X157298921Y-116688779D01*
X157298922Y-116688781D01*
X157298923Y-116688784D01*
X157334918Y-116751131D01*
X157377977Y-116825712D01*
X157377978Y-116825713D01*
X157377980Y-116825716D01*
X157489784Y-116937520D01*
X157489786Y-116937521D01*
X157489787Y-116937522D01*
X157507179Y-116947563D01*
X157626716Y-117016577D01*
X157779443Y-117057500D01*
X157937557Y-117057500D01*
X158090284Y-117016577D01*
X158227216Y-116937520D01*
X158339020Y-116825716D01*
X158418077Y-116688784D01*
X158459000Y-116536057D01*
X158459000Y-116377943D01*
X158418077Y-116225216D01*
X158339020Y-116088284D01*
X158227216Y-115976480D01*
X158227213Y-115976478D01*
X158227212Y-115976477D01*
X158152631Y-115933418D01*
X158090284Y-115897423D01*
X158090281Y-115897422D01*
X158090279Y-115897421D01*
X157937557Y-115856500D01*
X157779443Y-115856500D01*
X157626720Y-115897421D01*
X157626716Y-115897423D01*
X157489787Y-115976477D01*
X157377977Y-116088287D01*
X157298923Y-116225216D01*
X157298921Y-116225220D01*
X157258000Y-116377942D01*
X146013000Y-116377942D01*
X145972077Y-116225216D01*
X145893020Y-116088284D01*
X145781216Y-115976480D01*
X145781213Y-115976478D01*
X145781212Y-115976477D01*
X145706631Y-115933418D01*
X145644284Y-115897423D01*
X145644281Y-115897422D01*
X145644279Y-115897421D01*
X145491557Y-115856500D01*
X145333443Y-115856500D01*
X145180720Y-115897421D01*
X145180716Y-115897423D01*
X145043787Y-115976477D01*
X144931977Y-116088287D01*
X144852923Y-116225216D01*
X144852921Y-116225220D01*
X144812000Y-116377942D01*
X144535350Y-116377942D01*
X144497118Y-116235257D01*
X144418061Y-116098325D01*
X144306257Y-115986521D01*
X144306254Y-115986519D01*
X144306253Y-115986518D01*
X144231672Y-115943459D01*
X144169325Y-115907464D01*
X144169322Y-115907463D01*
X144169320Y-115907462D01*
X144016598Y-115866541D01*
X143858484Y-115866541D01*
X143705761Y-115907462D01*
X143705757Y-115907464D01*
X143568828Y-115986518D01*
X143457018Y-116098328D01*
X143377964Y-116235257D01*
X143377962Y-116235261D01*
X143337041Y-116387983D01*
X142076000Y-116387983D01*
X142076000Y-116377943D01*
X142035077Y-116225216D01*
X141956020Y-116088284D01*
X141844216Y-115976480D01*
X141844213Y-115976478D01*
X141844212Y-115976477D01*
X141769631Y-115933418D01*
X141707284Y-115897423D01*
X141707281Y-115897422D01*
X141707279Y-115897421D01*
X141554557Y-115856500D01*
X141396443Y-115856500D01*
X141243720Y-115897421D01*
X141243716Y-115897423D01*
X141106787Y-115976477D01*
X140994977Y-116088287D01*
X140915923Y-116225216D01*
X140915921Y-116225220D01*
X140875000Y-116377942D01*
X138173301Y-116377942D01*
X138103779Y-116257525D01*
X137991975Y-116145721D01*
X137991972Y-116145719D01*
X137991971Y-116145718D01*
X137892490Y-116088284D01*
X137855043Y-116066664D01*
X137855040Y-116066663D01*
X137855038Y-116066662D01*
X137702316Y-116025741D01*
X137544202Y-116025741D01*
X137391479Y-116066662D01*
X137391475Y-116066664D01*
X137254546Y-116145718D01*
X137142737Y-116257527D01*
X137127908Y-116283212D01*
X137081271Y-116322344D01*
X137020391Y-116322343D01*
X136973755Y-116283210D01*
X136964865Y-116261748D01*
X136955077Y-116225216D01*
X136876020Y-116088284D01*
X136764216Y-115976480D01*
X136764213Y-115976478D01*
X136764212Y-115976477D01*
X136689631Y-115933418D01*
X136627284Y-115897423D01*
X136627281Y-115897422D01*
X136627279Y-115897421D01*
X136474557Y-115856500D01*
X136316443Y-115856500D01*
X136163720Y-115897421D01*
X136163716Y-115897423D01*
X136026787Y-115976477D01*
X135914977Y-116088287D01*
X135835923Y-116225216D01*
X135835921Y-116225220D01*
X135795000Y-116377942D01*
X122503000Y-116377942D01*
X122503000Y-114646594D01*
X136324252Y-114646594D01*
X136324252Y-114804709D01*
X136365173Y-114957431D01*
X136365174Y-114957433D01*
X136365175Y-114957436D01*
X136401170Y-115019783D01*
X136444229Y-115094364D01*
X136444230Y-115094365D01*
X136444232Y-115094368D01*
X136556036Y-115206172D01*
X136692968Y-115285229D01*
X136845695Y-115326152D01*
X137003809Y-115326152D01*
X137156536Y-115285229D01*
X137293468Y-115206172D01*
X137405272Y-115094368D01*
X137484329Y-114957436D01*
X137525252Y-114804709D01*
X137525252Y-114797803D01*
X159728074Y-114797803D01*
X159728074Y-114955918D01*
X159768995Y-115108640D01*
X159768996Y-115108642D01*
X159768997Y-115108645D01*
X159804992Y-115170992D01*
X159848051Y-115245573D01*
X159848052Y-115245574D01*
X159848054Y-115245577D01*
X159959858Y-115357381D01*
X160096790Y-115436438D01*
X160249517Y-115477361D01*
X160407631Y-115477361D01*
X160560358Y-115436438D01*
X160697290Y-115357381D01*
X160809094Y-115245577D01*
X160888151Y-115108645D01*
X160929074Y-114955918D01*
X160929074Y-114797804D01*
X160888151Y-114645077D01*
X160809094Y-114508145D01*
X160697290Y-114396341D01*
X160697287Y-114396339D01*
X160697286Y-114396338D01*
X160622705Y-114353279D01*
X160560358Y-114317284D01*
X160560355Y-114317283D01*
X160560353Y-114317282D01*
X160407631Y-114276361D01*
X160249517Y-114276361D01*
X160096794Y-114317282D01*
X160096790Y-114317284D01*
X159959861Y-114396338D01*
X159848051Y-114508148D01*
X159768997Y-114645077D01*
X159768995Y-114645081D01*
X159728074Y-114797803D01*
X137525252Y-114797803D01*
X137525252Y-114646595D01*
X137524846Y-114645081D01*
X137488155Y-114508148D01*
X137484329Y-114493868D01*
X137405272Y-114356936D01*
X137293468Y-114245132D01*
X137293465Y-114245130D01*
X137293464Y-114245129D01*
X137218883Y-114202070D01*
X137156536Y-114166075D01*
X137156534Y-114166074D01*
X137156532Y-114166073D01*
X137110907Y-114153848D01*
X137061038Y-114118929D01*
X137045282Y-114060124D01*
X137071011Y-114004948D01*
X137110907Y-113981914D01*
X137160684Y-113968577D01*
X137297616Y-113889520D01*
X137409420Y-113777716D01*
X137488477Y-113640784D01*
X137529400Y-113488057D01*
X137529400Y-113329943D01*
X137488477Y-113177216D01*
X137409420Y-113040284D01*
X137297616Y-112928480D01*
X137297613Y-112928478D01*
X137297612Y-112928477D01*
X137223031Y-112885418D01*
X137160684Y-112849423D01*
X137160681Y-112849422D01*
X137160679Y-112849421D01*
X137007957Y-112808500D01*
X136849843Y-112808500D01*
X136697120Y-112849421D01*
X136697116Y-112849423D01*
X136560187Y-112928477D01*
X136448377Y-113040287D01*
X136369323Y-113177216D01*
X136369321Y-113177220D01*
X136328400Y-113329942D01*
X136328400Y-113488057D01*
X136369321Y-113640779D01*
X136369322Y-113640781D01*
X136369323Y-113640784D01*
X136405318Y-113703131D01*
X136448377Y-113777712D01*
X136448378Y-113777713D01*
X136448380Y-113777716D01*
X136560184Y-113889520D01*
X136697116Y-113968577D01*
X136742742Y-113980802D01*
X136792612Y-114015721D01*
X136808369Y-114074526D01*
X136782641Y-114129702D01*
X136742743Y-114152737D01*
X136692973Y-114166072D01*
X136692968Y-114166075D01*
X136556039Y-114245129D01*
X136444229Y-114356939D01*
X136365175Y-114493868D01*
X136365173Y-114493872D01*
X136324252Y-114646594D01*
X122503000Y-114646594D01*
X122503000Y-110281942D01*
X123476000Y-110281942D01*
X123476000Y-110440057D01*
X123516921Y-110592779D01*
X123516922Y-110592781D01*
X123516923Y-110592784D01*
X123552918Y-110655131D01*
X123595977Y-110729712D01*
X123595978Y-110729713D01*
X123595980Y-110729716D01*
X123707784Y-110841520D01*
X123707786Y-110841521D01*
X123707787Y-110841522D01*
X123736724Y-110858228D01*
X123844716Y-110920577D01*
X123997443Y-110961500D01*
X124155557Y-110961500D01*
X124308284Y-110920577D01*
X124445216Y-110841520D01*
X124557020Y-110729716D01*
X124636077Y-110592784D01*
X124646836Y-110552630D01*
X124651308Y-110535942D01*
X127794000Y-110535942D01*
X127794000Y-110694057D01*
X127834921Y-110846779D01*
X127834922Y-110846781D01*
X127834923Y-110846784D01*
X127870918Y-110909131D01*
X127913977Y-110983712D01*
X127913978Y-110983713D01*
X127913980Y-110983716D01*
X128025784Y-111095520D01*
X128162716Y-111174577D01*
X128315443Y-111215500D01*
X128473557Y-111215500D01*
X128626284Y-111174577D01*
X128763216Y-111095520D01*
X128875020Y-110983716D01*
X128954077Y-110846784D01*
X128995000Y-110694057D01*
X128995000Y-110535943D01*
X128969307Y-110440057D01*
X128954078Y-110383220D01*
X128954077Y-110383216D01*
X128875020Y-110246284D01*
X128763216Y-110134480D01*
X128763213Y-110134478D01*
X128763212Y-110134477D01*
X128668025Y-110079522D01*
X128626284Y-110055423D01*
X128626281Y-110055422D01*
X128626279Y-110055421D01*
X128473557Y-110014500D01*
X128315443Y-110014500D01*
X128162720Y-110055421D01*
X128162716Y-110055423D01*
X128025787Y-110134477D01*
X127913977Y-110246287D01*
X127834923Y-110383216D01*
X127834921Y-110383220D01*
X127794000Y-110535942D01*
X124651308Y-110535942D01*
X124659043Y-110507075D01*
X124677000Y-110440057D01*
X124677000Y-110281942D01*
X124636078Y-110129220D01*
X124636077Y-110129216D01*
X124557020Y-109992284D01*
X124445216Y-109880480D01*
X124445213Y-109880478D01*
X124445212Y-109880477D01*
X124359137Y-109830783D01*
X124308284Y-109801423D01*
X124308281Y-109801422D01*
X124308279Y-109801421D01*
X124155557Y-109760500D01*
X123997443Y-109760500D01*
X123844720Y-109801421D01*
X123844716Y-109801423D01*
X123707787Y-109880477D01*
X123595977Y-109992287D01*
X123516923Y-110129216D01*
X123516921Y-110129220D01*
X123476000Y-110281942D01*
X122503000Y-110281942D01*
X122503000Y-109138942D01*
X127667000Y-109138942D01*
X127667000Y-109297057D01*
X127707921Y-109449779D01*
X127707922Y-109449781D01*
X127707923Y-109449784D01*
X127731762Y-109491075D01*
X127786977Y-109586712D01*
X127786978Y-109586713D01*
X127786980Y-109586716D01*
X127898784Y-109698520D01*
X128035716Y-109777577D01*
X128188443Y-109818500D01*
X128346557Y-109818500D01*
X128499284Y-109777577D01*
X128636216Y-109698520D01*
X128748020Y-109586716D01*
X128827077Y-109449784D01*
X128868000Y-109297057D01*
X128868000Y-109138943D01*
X128861106Y-109113216D01*
X128827078Y-108986220D01*
X128827077Y-108986216D01*
X128748020Y-108849284D01*
X128636216Y-108737480D01*
X128636213Y-108737478D01*
X128636212Y-108737477D01*
X128528916Y-108675531D01*
X128499284Y-108658423D01*
X128499281Y-108658422D01*
X128499279Y-108658421D01*
X128346557Y-108617500D01*
X128188443Y-108617500D01*
X128035720Y-108658421D01*
X128035716Y-108658423D01*
X127898787Y-108737477D01*
X127786977Y-108849287D01*
X127707923Y-108986216D01*
X127707921Y-108986220D01*
X127667000Y-109138942D01*
X122503000Y-109138942D01*
X122503000Y-108249942D01*
X123349000Y-108249942D01*
X123349000Y-108408057D01*
X123389921Y-108560779D01*
X123389922Y-108560781D01*
X123389923Y-108560784D01*
X123405636Y-108588000D01*
X123468977Y-108697712D01*
X123468978Y-108697713D01*
X123468980Y-108697716D01*
X123580784Y-108809520D01*
X123717716Y-108888577D01*
X123870443Y-108929500D01*
X124028557Y-108929500D01*
X124181284Y-108888577D01*
X124318216Y-108809520D01*
X124430020Y-108697716D01*
X124509077Y-108560784D01*
X124550000Y-108408057D01*
X124550000Y-108277157D01*
X138119990Y-108277157D01*
X138119990Y-108435272D01*
X138160911Y-108587994D01*
X138160912Y-108587996D01*
X138160913Y-108587999D01*
X138196908Y-108650346D01*
X138239967Y-108724927D01*
X138239968Y-108724928D01*
X138239970Y-108724931D01*
X138351774Y-108836735D01*
X138488706Y-108915792D01*
X138641433Y-108956715D01*
X138799547Y-108956715D01*
X138948955Y-108916681D01*
X139009603Y-108921987D01*
X139052651Y-108965035D01*
X139057957Y-109025683D01*
X139049067Y-109047147D01*
X139010923Y-109113215D01*
X139010921Y-109113220D01*
X138970000Y-109265942D01*
X138970000Y-109424057D01*
X139010921Y-109576779D01*
X139010922Y-109576781D01*
X139010923Y-109576784D01*
X139046918Y-109639131D01*
X139089977Y-109713712D01*
X139089978Y-109713713D01*
X139089980Y-109713716D01*
X139201784Y-109825520D01*
X139201786Y-109825521D01*
X139201787Y-109825522D01*
X139230724Y-109842228D01*
X139338716Y-109904577D01*
X139491443Y-109945500D01*
X139649557Y-109945500D01*
X139802284Y-109904577D01*
X139939216Y-109825520D01*
X140051020Y-109713716D01*
X140130077Y-109576784D01*
X140140836Y-109536630D01*
X140145308Y-109519942D01*
X167926000Y-109519942D01*
X167926000Y-109678057D01*
X167966921Y-109830779D01*
X167966922Y-109830781D01*
X167966923Y-109830784D01*
X167995613Y-109880477D01*
X168045977Y-109967712D01*
X168045978Y-109967713D01*
X168045980Y-109967716D01*
X168157784Y-110079520D01*
X168294716Y-110158577D01*
X168447443Y-110199500D01*
X168605557Y-110199500D01*
X168758284Y-110158577D01*
X168895216Y-110079520D01*
X169007020Y-109967716D01*
X169086077Y-109830784D01*
X169127000Y-109678057D01*
X169127000Y-109519943D01*
X169101307Y-109424057D01*
X169086078Y-109367220D01*
X169086077Y-109367216D01*
X169007020Y-109230284D01*
X168895216Y-109118480D01*
X168895213Y-109118478D01*
X168895212Y-109118477D01*
X168771662Y-109047147D01*
X168758284Y-109039423D01*
X168758281Y-109039422D01*
X168758279Y-109039421D01*
X168605557Y-108998500D01*
X168447443Y-108998500D01*
X168294720Y-109039421D01*
X168294716Y-109039423D01*
X168157787Y-109118477D01*
X168045977Y-109230287D01*
X167966923Y-109367216D01*
X167966921Y-109367220D01*
X167926000Y-109519942D01*
X140145308Y-109519942D01*
X140153043Y-109491075D01*
X140171000Y-109424057D01*
X140171000Y-109265942D01*
X140130078Y-109113220D01*
X140130077Y-109113216D01*
X140063846Y-108998500D01*
X140051022Y-108976287D01*
X140051021Y-108976286D01*
X140051020Y-108976284D01*
X139939216Y-108864480D01*
X139939213Y-108864478D01*
X139939212Y-108864477D01*
X139844025Y-108809522D01*
X139802284Y-108785423D01*
X139802281Y-108785422D01*
X139802279Y-108785421D01*
X139649557Y-108744500D01*
X139491443Y-108744500D01*
X139384697Y-108773102D01*
X139342033Y-108784534D01*
X139281386Y-108779227D01*
X139238337Y-108736179D01*
X139233032Y-108675531D01*
X139241921Y-108654069D01*
X139280067Y-108587999D01*
X139320990Y-108435272D01*
X139320990Y-108277158D01*
X139280067Y-108124431D01*
X139201010Y-107987499D01*
X139089206Y-107875695D01*
X139089203Y-107875693D01*
X139089202Y-107875692D01*
X139014621Y-107832633D01*
X138952274Y-107796638D01*
X138952271Y-107796637D01*
X138952269Y-107796636D01*
X138799547Y-107755715D01*
X138641433Y-107755715D01*
X138488710Y-107796636D01*
X138488706Y-107796638D01*
X138351777Y-107875692D01*
X138239967Y-107987502D01*
X138160913Y-108124431D01*
X138160911Y-108124435D01*
X138119990Y-108277157D01*
X124550000Y-108277157D01*
X124550000Y-108249943D01*
X124509077Y-108097216D01*
X124430020Y-107960284D01*
X124318216Y-107848480D01*
X124318213Y-107848478D01*
X124318212Y-107848477D01*
X124228422Y-107796638D01*
X124181284Y-107769423D01*
X124181281Y-107769422D01*
X124181279Y-107769421D01*
X124028557Y-107728500D01*
X123870443Y-107728500D01*
X123717720Y-107769421D01*
X123717716Y-107769423D01*
X123580787Y-107848477D01*
X123468977Y-107960287D01*
X123389923Y-108097216D01*
X123389921Y-108097220D01*
X123349000Y-108249942D01*
X122503000Y-108249942D01*
X122503000Y-106217942D01*
X123476000Y-106217942D01*
X123476000Y-106376057D01*
X123516921Y-106528779D01*
X123516922Y-106528781D01*
X123516923Y-106528784D01*
X123552918Y-106591131D01*
X123595977Y-106665712D01*
X123595978Y-106665713D01*
X123595980Y-106665716D01*
X123707784Y-106777520D01*
X123844716Y-106856577D01*
X123997443Y-106897500D01*
X124155557Y-106897500D01*
X124308284Y-106856577D01*
X124445216Y-106777520D01*
X124557020Y-106665716D01*
X124636077Y-106528784D01*
X124677000Y-106376057D01*
X124677000Y-106217943D01*
X124636077Y-106065216D01*
X124557020Y-105928284D01*
X124445216Y-105816480D01*
X124445213Y-105816478D01*
X124445212Y-105816477D01*
X124370631Y-105773418D01*
X124308284Y-105737423D01*
X124308281Y-105737422D01*
X124308279Y-105737421D01*
X124155557Y-105696500D01*
X123997443Y-105696500D01*
X123844720Y-105737421D01*
X123844716Y-105737423D01*
X123707787Y-105816477D01*
X123595977Y-105928287D01*
X123516923Y-106065216D01*
X123516921Y-106065220D01*
X123476000Y-106217942D01*
X122503000Y-106217942D01*
X122503000Y-104185942D01*
X123425200Y-104185942D01*
X123425200Y-104344057D01*
X123466121Y-104496779D01*
X123466122Y-104496781D01*
X123466123Y-104496784D01*
X123474785Y-104511787D01*
X123545177Y-104633712D01*
X123545178Y-104633713D01*
X123545180Y-104633716D01*
X123656984Y-104745520D01*
X123793916Y-104824577D01*
X123946643Y-104865500D01*
X124104757Y-104865500D01*
X124257484Y-104824577D01*
X124394416Y-104745520D01*
X124445994Y-104693942D01*
X146590000Y-104693942D01*
X146590000Y-104852057D01*
X146630921Y-105004779D01*
X146630922Y-105004781D01*
X146630923Y-105004784D01*
X146666918Y-105067131D01*
X146709977Y-105141712D01*
X146709978Y-105141713D01*
X146709980Y-105141716D01*
X146821784Y-105253520D01*
X146958716Y-105332577D01*
X147111443Y-105373500D01*
X147269557Y-105373500D01*
X147422284Y-105332577D01*
X147559216Y-105253520D01*
X147671020Y-105141716D01*
X147750077Y-105004784D01*
X147791000Y-104852057D01*
X147791000Y-104693943D01*
X147750077Y-104541216D01*
X147671020Y-104404284D01*
X147559216Y-104292480D01*
X147559213Y-104292478D01*
X147559211Y-104292476D01*
X147524074Y-104272190D01*
X147524073Y-104272190D01*
X147484574Y-104249386D01*
X147422284Y-104213423D01*
X147422281Y-104213422D01*
X147422279Y-104213421D01*
X147375717Y-104200945D01*
X162122999Y-104200945D01*
X162122999Y-104359060D01*
X162163920Y-104511782D01*
X162163921Y-104511784D01*
X162163922Y-104511787D01*
X162180913Y-104541216D01*
X162242976Y-104648715D01*
X162242977Y-104648716D01*
X162242979Y-104648719D01*
X162354783Y-104760523D01*
X162491715Y-104839580D01*
X162644442Y-104880503D01*
X162802556Y-104880503D01*
X162955283Y-104839580D01*
X163092215Y-104760523D01*
X163204019Y-104648719D01*
X163283076Y-104511787D01*
X163323999Y-104359060D01*
X163323999Y-104200946D01*
X163283076Y-104048219D01*
X163204019Y-103911287D01*
X163092215Y-103799483D01*
X163092212Y-103799481D01*
X163092211Y-103799480D01*
X163017630Y-103756421D01*
X162955283Y-103720426D01*
X162955280Y-103720425D01*
X162955278Y-103720424D01*
X162802556Y-103679503D01*
X162644442Y-103679503D01*
X162491719Y-103720424D01*
X162491715Y-103720426D01*
X162354786Y-103799480D01*
X162242976Y-103911290D01*
X162163922Y-104048219D01*
X162163920Y-104048223D01*
X162122999Y-104200945D01*
X147375717Y-104200945D01*
X147269557Y-104172500D01*
X147111443Y-104172500D01*
X146958720Y-104213421D01*
X146958716Y-104213423D01*
X146821787Y-104292477D01*
X146709977Y-104404287D01*
X146630923Y-104541216D01*
X146630921Y-104541220D01*
X146590000Y-104693942D01*
X124445994Y-104693942D01*
X124506220Y-104633716D01*
X124585277Y-104496784D01*
X124626200Y-104344057D01*
X124626200Y-104185943D01*
X124585277Y-104033216D01*
X124506220Y-103896284D01*
X124394416Y-103784480D01*
X124394413Y-103784478D01*
X124394412Y-103784477D01*
X124283470Y-103720426D01*
X124257484Y-103705423D01*
X124257481Y-103705422D01*
X124257479Y-103705421D01*
X124104757Y-103664500D01*
X123946643Y-103664500D01*
X123793920Y-103705421D01*
X123793916Y-103705423D01*
X123656987Y-103784477D01*
X123545177Y-103896287D01*
X123466123Y-104033216D01*
X123466121Y-104033220D01*
X123425200Y-104185942D01*
X122503000Y-104185942D01*
X122503000Y-102153942D01*
X123374400Y-102153942D01*
X123374400Y-102312057D01*
X123415321Y-102464779D01*
X123415322Y-102464781D01*
X123415323Y-102464784D01*
X123451318Y-102527131D01*
X123494377Y-102601712D01*
X123494378Y-102601713D01*
X123494380Y-102601716D01*
X123606184Y-102713520D01*
X123743116Y-102792577D01*
X123895843Y-102833500D01*
X124053957Y-102833500D01*
X124206684Y-102792577D01*
X124343616Y-102713520D01*
X124455420Y-102601716D01*
X124534477Y-102464784D01*
X124575400Y-102312057D01*
X124575400Y-102153943D01*
X124534477Y-102001216D01*
X124455420Y-101864284D01*
X124343616Y-101752480D01*
X124343613Y-101752478D01*
X124343612Y-101752477D01*
X124269031Y-101709418D01*
X124206684Y-101673423D01*
X124206681Y-101673422D01*
X124206679Y-101673421D01*
X124053957Y-101632500D01*
X123895843Y-101632500D01*
X123743120Y-101673421D01*
X123743116Y-101673423D01*
X123606187Y-101752477D01*
X123494377Y-101864287D01*
X123415323Y-102001216D01*
X123415321Y-102001220D01*
X123374400Y-102153942D01*
X122503000Y-102153942D01*
X122503000Y-99994942D01*
X128048000Y-99994942D01*
X128048000Y-100153057D01*
X128088921Y-100305779D01*
X128088922Y-100305781D01*
X128088923Y-100305784D01*
X128124918Y-100368131D01*
X128167977Y-100442712D01*
X128167978Y-100442713D01*
X128167980Y-100442716D01*
X128279784Y-100554520D01*
X128416716Y-100633577D01*
X128569443Y-100674500D01*
X128727557Y-100674500D01*
X128880284Y-100633577D01*
X129017216Y-100554520D01*
X129129020Y-100442716D01*
X129208077Y-100305784D01*
X129249000Y-100153057D01*
X129249000Y-99994943D01*
X129208077Y-99842216D01*
X129129020Y-99705284D01*
X129017216Y-99593480D01*
X129017213Y-99593478D01*
X129017212Y-99593477D01*
X128942631Y-99550418D01*
X128880284Y-99514423D01*
X128880281Y-99514422D01*
X128880279Y-99514421D01*
X128727557Y-99473500D01*
X128569443Y-99473500D01*
X128416720Y-99514421D01*
X128416716Y-99514423D01*
X128279787Y-99593477D01*
X128167977Y-99705287D01*
X128088923Y-99842216D01*
X128088921Y-99842220D01*
X128048000Y-99994942D01*
X122503000Y-99994942D01*
X122503000Y-98398890D01*
X145755948Y-98398890D01*
X145755948Y-98557005D01*
X145796869Y-98709727D01*
X145796870Y-98709729D01*
X145796871Y-98709732D01*
X145798242Y-98712106D01*
X145875925Y-98846660D01*
X145875926Y-98846661D01*
X145875928Y-98846664D01*
X145987732Y-98958468D01*
X146124664Y-99037525D01*
X146277391Y-99078448D01*
X146435505Y-99078448D01*
X146588232Y-99037525D01*
X146725164Y-98958468D01*
X146836968Y-98846664D01*
X146892062Y-98751237D01*
X146938696Y-98712106D01*
X146999576Y-98712105D01*
X147032067Y-98732803D01*
X147075784Y-98776520D01*
X147212716Y-98855577D01*
X147365443Y-98896500D01*
X147523557Y-98896500D01*
X147676284Y-98855577D01*
X147813216Y-98776520D01*
X147925020Y-98664716D01*
X148004077Y-98527784D01*
X148045000Y-98375057D01*
X148045000Y-98216943D01*
X148004077Y-98064216D01*
X147991198Y-98041908D01*
X147967527Y-98000908D01*
X150424000Y-98000908D01*
X150424000Y-98237092D01*
X150436315Y-98314850D01*
X150460947Y-98470370D01*
X150489097Y-98557005D01*
X150533932Y-98694992D01*
X150575473Y-98776520D01*
X150641158Y-98905435D01*
X150641160Y-98905438D01*
X150779978Y-99096504D01*
X150779980Y-99096506D01*
X150779983Y-99096510D01*
X150946990Y-99263517D01*
X150946993Y-99263519D01*
X150946995Y-99263521D01*
X151138061Y-99402339D01*
X151138067Y-99402343D01*
X151348508Y-99509568D01*
X151573132Y-99582553D01*
X151806408Y-99619500D01*
X152042592Y-99619500D01*
X152275868Y-99582553D01*
X152500492Y-99509568D01*
X152710933Y-99402343D01*
X152902010Y-99263517D01*
X153069017Y-99096510D01*
X153207843Y-98905433D01*
X153315068Y-98694992D01*
X153388053Y-98470368D01*
X153425000Y-98237092D01*
X153425000Y-98000908D01*
X153388053Y-97767632D01*
X153315068Y-97543008D01*
X153207843Y-97332567D01*
X153207839Y-97332561D01*
X153204483Y-97327942D01*
X160306000Y-97327942D01*
X160306000Y-97486057D01*
X160346921Y-97638779D01*
X160346922Y-97638781D01*
X160346923Y-97638784D01*
X160379668Y-97695500D01*
X160425977Y-97775712D01*
X160425978Y-97775713D01*
X160425980Y-97775716D01*
X160537784Y-97887520D01*
X160674716Y-97966577D01*
X160827443Y-98007500D01*
X160985557Y-98007500D01*
X161138284Y-97966577D01*
X161275216Y-97887520D01*
X161387020Y-97775716D01*
X161466077Y-97638784D01*
X161507000Y-97486057D01*
X161507000Y-97327943D01*
X161466077Y-97175216D01*
X161387020Y-97038284D01*
X161275216Y-96926480D01*
X161275213Y-96926478D01*
X161275212Y-96926477D01*
X161200420Y-96883297D01*
X161138284Y-96847423D01*
X161138281Y-96847422D01*
X161138279Y-96847421D01*
X160985557Y-96806500D01*
X160827443Y-96806500D01*
X160674720Y-96847421D01*
X160674716Y-96847423D01*
X160537787Y-96926477D01*
X160425977Y-97038287D01*
X160346923Y-97175216D01*
X160346921Y-97175220D01*
X160306000Y-97327942D01*
X153204483Y-97327942D01*
X153069021Y-97141495D01*
X153069019Y-97141493D01*
X153069017Y-97141490D01*
X152902010Y-96974483D01*
X152902006Y-96974480D01*
X152902004Y-96974478D01*
X152710938Y-96835660D01*
X152710935Y-96835658D01*
X152653709Y-96806500D01*
X152500492Y-96728432D01*
X152425617Y-96704103D01*
X152275870Y-96655447D01*
X152042592Y-96618500D01*
X151806408Y-96618500D01*
X151573129Y-96655447D01*
X151348508Y-96728432D01*
X151138064Y-96835658D01*
X151138061Y-96835660D01*
X150946995Y-96974478D01*
X150779978Y-97141495D01*
X150641160Y-97332561D01*
X150641158Y-97332564D01*
X150533932Y-97543008D01*
X150460947Y-97767629D01*
X150443554Y-97877448D01*
X150424000Y-98000908D01*
X147967527Y-98000908D01*
X147925023Y-97927288D01*
X147925021Y-97927286D01*
X147925020Y-97927284D01*
X147813216Y-97815480D01*
X147813213Y-97815478D01*
X147813212Y-97815477D01*
X147730335Y-97767629D01*
X147676284Y-97736423D01*
X147676281Y-97736422D01*
X147676279Y-97736421D01*
X147523557Y-97695500D01*
X147365443Y-97695500D01*
X147212720Y-97736421D01*
X147212716Y-97736423D01*
X147075787Y-97815477D01*
X146963976Y-97927288D01*
X146908886Y-98022709D01*
X146862250Y-98061842D01*
X146801370Y-98061842D01*
X146768879Y-98041143D01*
X146725164Y-97997428D01*
X146725161Y-97997426D01*
X146725160Y-97997425D01*
X146650579Y-97954366D01*
X146588232Y-97918371D01*
X146588229Y-97918370D01*
X146588227Y-97918369D01*
X146435505Y-97877448D01*
X146277391Y-97877448D01*
X146124668Y-97918369D01*
X146124664Y-97918371D01*
X145987735Y-97997425D01*
X145875925Y-98109235D01*
X145796871Y-98246164D01*
X145796869Y-98246168D01*
X145755948Y-98398890D01*
X122503000Y-98398890D01*
X122503000Y-94226340D01*
X124803000Y-94226340D01*
X124803000Y-94254438D01*
X124803000Y-95646405D01*
X124803000Y-95694000D01*
X124803000Y-95761660D01*
X124833111Y-95893588D01*
X124891825Y-96015507D01*
X124891827Y-96015510D01*
X124891829Y-96015513D01*
X124976188Y-96121297D01*
X124976191Y-96121300D01*
X124976195Y-96121305D01*
X124976199Y-96121308D01*
X124976202Y-96121311D01*
X125081986Y-96205670D01*
X125081987Y-96205670D01*
X125081993Y-96205675D01*
X125203912Y-96264389D01*
X125335840Y-96294500D01*
X125335843Y-96294500D01*
X127071157Y-96294500D01*
X127071160Y-96294500D01*
X127203088Y-96264389D01*
X127325007Y-96205675D01*
X127430805Y-96121305D01*
X127515175Y-96015507D01*
X127573889Y-95893588D01*
X127604000Y-95761660D01*
X127604000Y-95694000D01*
X127604000Y-95646405D01*
X127604000Y-94406942D01*
X133255000Y-94406942D01*
X133255000Y-94565057D01*
X133295921Y-94717779D01*
X133295922Y-94717781D01*
X133295923Y-94717784D01*
X133305570Y-94734493D01*
X133374977Y-94854712D01*
X133374978Y-94854713D01*
X133374980Y-94854716D01*
X133486784Y-94966520D01*
X133623716Y-95045577D01*
X133776443Y-95086500D01*
X133934557Y-95086500D01*
X134087284Y-95045577D01*
X134224216Y-94966520D01*
X134336020Y-94854716D01*
X134415077Y-94717784D01*
X134456000Y-94565057D01*
X134456000Y-94406943D01*
X134456000Y-94406942D01*
X138081000Y-94406942D01*
X138081000Y-94565057D01*
X138121921Y-94717779D01*
X138121922Y-94717781D01*
X138121923Y-94717784D01*
X138131570Y-94734493D01*
X138200977Y-94854712D01*
X138200978Y-94854713D01*
X138200980Y-94854716D01*
X138312784Y-94966520D01*
X138449716Y-95045577D01*
X138602443Y-95086500D01*
X138760557Y-95086500D01*
X138913284Y-95045577D01*
X139012422Y-94988340D01*
X167158000Y-94988340D01*
X167158000Y-95016438D01*
X167158000Y-96408405D01*
X167158000Y-96456000D01*
X167158000Y-96523660D01*
X167188111Y-96655588D01*
X167246825Y-96777507D01*
X167246827Y-96777510D01*
X167246829Y-96777513D01*
X167331188Y-96883297D01*
X167331191Y-96883300D01*
X167331195Y-96883305D01*
X167331199Y-96883308D01*
X167331202Y-96883311D01*
X167436986Y-96967670D01*
X167436987Y-96967670D01*
X167436993Y-96967675D01*
X167558912Y-97026389D01*
X167690840Y-97056500D01*
X167690843Y-97056500D01*
X169426157Y-97056500D01*
X169426160Y-97056500D01*
X169558088Y-97026389D01*
X169680007Y-96967675D01*
X169785805Y-96883305D01*
X169870175Y-96777507D01*
X169928889Y-96655588D01*
X169959000Y-96523660D01*
X169959000Y-96456000D01*
X169959000Y-96408405D01*
X169959000Y-95016438D01*
X169959000Y-94988340D01*
X169928889Y-94856412D01*
X169870175Y-94734493D01*
X169870170Y-94734487D01*
X169870170Y-94734486D01*
X169785811Y-94628702D01*
X169785808Y-94628699D01*
X169785805Y-94628695D01*
X169785800Y-94628691D01*
X169785797Y-94628688D01*
X169680013Y-94544329D01*
X169680010Y-94544327D01*
X169680007Y-94544325D01*
X169558088Y-94485611D01*
X169426160Y-94455500D01*
X169398062Y-94455500D01*
X167806095Y-94455500D01*
X167758500Y-94455500D01*
X167690840Y-94455500D01*
X167690839Y-94455500D01*
X167635438Y-94468144D01*
X167558912Y-94485611D01*
X167558910Y-94485611D01*
X167558909Y-94485612D01*
X167502613Y-94512723D01*
X167436993Y-94544325D01*
X167436992Y-94544326D01*
X167436986Y-94544329D01*
X167331202Y-94628688D01*
X167331188Y-94628702D01*
X167246829Y-94734486D01*
X167246826Y-94734491D01*
X167246825Y-94734493D01*
X167215223Y-94800113D01*
X167188928Y-94854716D01*
X167188111Y-94856412D01*
X167158000Y-94988340D01*
X139012422Y-94988340D01*
X139050216Y-94966520D01*
X139162020Y-94854716D01*
X139241077Y-94717784D01*
X139282000Y-94565057D01*
X139282000Y-94406943D01*
X139241077Y-94254216D01*
X139162020Y-94117284D01*
X139070678Y-94025942D01*
X159036000Y-94025942D01*
X159036000Y-94184057D01*
X159076921Y-94336779D01*
X159076922Y-94336781D01*
X159076923Y-94336784D01*
X159112918Y-94399131D01*
X159155977Y-94473712D01*
X159155978Y-94473713D01*
X159155980Y-94473716D01*
X159267784Y-94585520D01*
X159404716Y-94664577D01*
X159557443Y-94705500D01*
X159715557Y-94705500D01*
X159868284Y-94664577D01*
X160005216Y-94585520D01*
X160117020Y-94473716D01*
X160196077Y-94336784D01*
X160237000Y-94184057D01*
X160237000Y-94025943D01*
X160196077Y-93873216D01*
X160117020Y-93736284D01*
X160005216Y-93624480D01*
X160005213Y-93624478D01*
X160005212Y-93624477D01*
X159930631Y-93581418D01*
X159868284Y-93545423D01*
X159868281Y-93545422D01*
X159868279Y-93545421D01*
X159715557Y-93504500D01*
X159557443Y-93504500D01*
X159404720Y-93545421D01*
X159404716Y-93545423D01*
X159267787Y-93624477D01*
X159155977Y-93736287D01*
X159076923Y-93873216D01*
X159076921Y-93873220D01*
X159036000Y-94025942D01*
X139070678Y-94025942D01*
X139050216Y-94005480D01*
X139050213Y-94005478D01*
X139050212Y-94005477D01*
X138975631Y-93962418D01*
X138913284Y-93926423D01*
X138913281Y-93926422D01*
X138913279Y-93926421D01*
X138760557Y-93885500D01*
X138602443Y-93885500D01*
X138449720Y-93926421D01*
X138449716Y-93926423D01*
X138312787Y-94005477D01*
X138200977Y-94117287D01*
X138121923Y-94254216D01*
X138121921Y-94254220D01*
X138081000Y-94406942D01*
X134456000Y-94406942D01*
X134415077Y-94254216D01*
X134336020Y-94117284D01*
X134224216Y-94005480D01*
X134224213Y-94005478D01*
X134224212Y-94005477D01*
X134149631Y-93962418D01*
X134087284Y-93926423D01*
X134087281Y-93926422D01*
X134087279Y-93926421D01*
X133934557Y-93885500D01*
X133776443Y-93885500D01*
X133623720Y-93926421D01*
X133623716Y-93926423D01*
X133486787Y-94005477D01*
X133374977Y-94117287D01*
X133295923Y-94254216D01*
X133295921Y-94254220D01*
X133255000Y-94406942D01*
X127604000Y-94406942D01*
X127604000Y-94254438D01*
X127604000Y-94226340D01*
X127573889Y-94094412D01*
X127515175Y-93972493D01*
X127515170Y-93972487D01*
X127515170Y-93972486D01*
X127430811Y-93866702D01*
X127430808Y-93866699D01*
X127430805Y-93866695D01*
X127430800Y-93866691D01*
X127430797Y-93866688D01*
X127325013Y-93782329D01*
X127325010Y-93782327D01*
X127325007Y-93782325D01*
X127203088Y-93723611D01*
X127071160Y-93693500D01*
X127043062Y-93693500D01*
X125451095Y-93693500D01*
X125403500Y-93693500D01*
X125335840Y-93693500D01*
X125335839Y-93693500D01*
X125280438Y-93706144D01*
X125203912Y-93723611D01*
X125203910Y-93723611D01*
X125203909Y-93723612D01*
X125177590Y-93736287D01*
X125081993Y-93782325D01*
X125081992Y-93782326D01*
X125081986Y-93782329D01*
X124976202Y-93866688D01*
X124976188Y-93866702D01*
X124891829Y-93972486D01*
X124891826Y-93972491D01*
X124891825Y-93972493D01*
X124833111Y-94094412D01*
X124803000Y-94226340D01*
X122503000Y-94226340D01*
X122503000Y-93054000D01*
X128647053Y-93054000D01*
X129389947Y-93054000D01*
X129018500Y-92682553D01*
X128647053Y-93054000D01*
X122503000Y-93054000D01*
X122503000Y-92257589D01*
X127768500Y-92257589D01*
X127768500Y-92400410D01*
X127796360Y-92540472D01*
X127796361Y-92540474D01*
X127851011Y-92672412D01*
X127851013Y-92672415D01*
X127930354Y-92791158D01*
X128031341Y-92892145D01*
X128073579Y-92920367D01*
X128378483Y-92615463D01*
X128429004Y-92629000D01*
X129607996Y-92629000D01*
X129658516Y-92615463D01*
X129963420Y-92920367D01*
X130005656Y-92892147D01*
X130106645Y-92791158D01*
X130185986Y-92672415D01*
X130185988Y-92672412D01*
X130240638Y-92540474D01*
X130240639Y-92540472D01*
X130268499Y-92400410D01*
X130268500Y-92400402D01*
X130268500Y-92257597D01*
X130268499Y-92257589D01*
X130240639Y-92117527D01*
X130240638Y-92117525D01*
X130185988Y-91985587D01*
X130185986Y-91985584D01*
X130106645Y-91866841D01*
X130005656Y-91765852D01*
X129963420Y-91737630D01*
X129658514Y-92042536D01*
X129607996Y-92029000D01*
X128429004Y-92029000D01*
X128378483Y-92042536D01*
X128073578Y-91737631D01*
X128031341Y-91765854D01*
X127930354Y-91866841D01*
X127851013Y-91985584D01*
X127851011Y-91985587D01*
X127796361Y-92117525D01*
X127796360Y-92117527D01*
X127768500Y-92257589D01*
X122503000Y-92257589D01*
X122503000Y-91604000D01*
X128647053Y-91604000D01*
X129018500Y-91975447D01*
X129389947Y-91604000D01*
X128647053Y-91604000D01*
X122503000Y-91604000D01*
X122503000Y-90856019D01*
X128192000Y-90856019D01*
X128192000Y-90941980D01*
X128192001Y-90941990D01*
X128214248Y-91025016D01*
X128214251Y-91025024D01*
X128257232Y-91099471D01*
X128257233Y-91099472D01*
X128257235Y-91099475D01*
X128318025Y-91160265D01*
X128392476Y-91203249D01*
X128475516Y-91225500D01*
X128475520Y-91225500D01*
X128561480Y-91225500D01*
X128561484Y-91225500D01*
X128644524Y-91203249D01*
X128718975Y-91160265D01*
X128779765Y-91099475D01*
X128822749Y-91025024D01*
X128845000Y-90941984D01*
X128845000Y-90856016D01*
X128827503Y-90790716D01*
X128822751Y-90772983D01*
X128822750Y-90772981D01*
X128822749Y-90772976D01*
X128779765Y-90698525D01*
X128718975Y-90637735D01*
X128718972Y-90637733D01*
X128718971Y-90637732D01*
X128644524Y-90594751D01*
X128644516Y-90594748D01*
X128561490Y-90572501D01*
X128561486Y-90572500D01*
X128561484Y-90572500D01*
X128475516Y-90572500D01*
X128475513Y-90572500D01*
X128475509Y-90572501D01*
X128392483Y-90594748D01*
X128392475Y-90594751D01*
X128318028Y-90637732D01*
X128257232Y-90698528D01*
X128214251Y-90772975D01*
X128214248Y-90772983D01*
X128192001Y-90856009D01*
X128192000Y-90856019D01*
X122503000Y-90856019D01*
X122503000Y-90329942D01*
X130575000Y-90329942D01*
X130575000Y-90488057D01*
X130615921Y-90640779D01*
X130615922Y-90640781D01*
X130615923Y-90640784D01*
X130649261Y-90698528D01*
X130694977Y-90777712D01*
X130694978Y-90777713D01*
X130694980Y-90777716D01*
X130806784Y-90889520D01*
X130943716Y-90968577D01*
X131096443Y-91009500D01*
X131254557Y-91009500D01*
X131407284Y-90968577D01*
X131544216Y-90889520D01*
X131656020Y-90777716D01*
X131735077Y-90640784D01*
X131776000Y-90488057D01*
X131776000Y-90342942D01*
X134717000Y-90342942D01*
X134717000Y-90501057D01*
X134757921Y-90653779D01*
X134757922Y-90653781D01*
X134757923Y-90653784D01*
X134783619Y-90698291D01*
X134836977Y-90790712D01*
X134836978Y-90790713D01*
X134836980Y-90790716D01*
X134948784Y-90902520D01*
X134948786Y-90902521D01*
X134948787Y-90902522D01*
X134977724Y-90919228D01*
X135085716Y-90981577D01*
X135238443Y-91022500D01*
X135396557Y-91022500D01*
X135549284Y-90981577D01*
X135686216Y-90902520D01*
X135798020Y-90790716D01*
X135877077Y-90653784D01*
X135918000Y-90501057D01*
X135918000Y-90342943D01*
X135914516Y-90329942D01*
X135877078Y-90190220D01*
X135877077Y-90190216D01*
X135810821Y-90075456D01*
X135798023Y-90053288D01*
X135798021Y-90053286D01*
X135798020Y-90053284D01*
X135755678Y-90010942D01*
X140057977Y-90010942D01*
X140057977Y-90169057D01*
X140098898Y-90321779D01*
X140098899Y-90321781D01*
X140098900Y-90321784D01*
X140111116Y-90342943D01*
X140177954Y-90458712D01*
X140177955Y-90458713D01*
X140177957Y-90458716D01*
X140271309Y-90552068D01*
X140297037Y-90607243D01*
X140281281Y-90666048D01*
X140271314Y-90677926D01*
X140177957Y-90771284D01*
X140177954Y-90771287D01*
X140098900Y-90908216D01*
X140098898Y-90908220D01*
X140057977Y-91060942D01*
X140057977Y-91219057D01*
X140098898Y-91371779D01*
X140098899Y-91371781D01*
X140098900Y-91371784D01*
X140121309Y-91410598D01*
X140177954Y-91508712D01*
X140177955Y-91508713D01*
X140177957Y-91508716D01*
X140289761Y-91620520D01*
X140426693Y-91699577D01*
X140579420Y-91740500D01*
X140737534Y-91740500D01*
X140739616Y-91739942D01*
X145447000Y-91739942D01*
X145447000Y-91898057D01*
X145487921Y-92050779D01*
X145487922Y-92050781D01*
X145487923Y-92050784D01*
X145509952Y-92088940D01*
X145566977Y-92187712D01*
X145566978Y-92187713D01*
X145566980Y-92187716D01*
X145678784Y-92299520D01*
X145815716Y-92378577D01*
X145968443Y-92419500D01*
X146126557Y-92419500D01*
X146279284Y-92378577D01*
X146416216Y-92299520D01*
X146528020Y-92187716D01*
X146607077Y-92050784D01*
X146648000Y-91898057D01*
X146648000Y-91868314D01*
X146668822Y-91811106D01*
X146721545Y-91780666D01*
X146737000Y-91779314D01*
X146894780Y-91779314D01*
X147047507Y-91738391D01*
X147184439Y-91659334D01*
X147284433Y-91559340D01*
X167158000Y-91559340D01*
X167158000Y-91587438D01*
X167158000Y-92979405D01*
X167158000Y-93027000D01*
X167158000Y-93094660D01*
X167188111Y-93226588D01*
X167246825Y-93348507D01*
X167246827Y-93348510D01*
X167246829Y-93348513D01*
X167331188Y-93454297D01*
X167331191Y-93454300D01*
X167331195Y-93454305D01*
X167331199Y-93454308D01*
X167331202Y-93454311D01*
X167436986Y-93538670D01*
X167436987Y-93538670D01*
X167436993Y-93538675D01*
X167558912Y-93597389D01*
X167690840Y-93627500D01*
X167690843Y-93627500D01*
X169426157Y-93627500D01*
X169426160Y-93627500D01*
X169558088Y-93597389D01*
X169680007Y-93538675D01*
X169785805Y-93454305D01*
X169870175Y-93348507D01*
X169928889Y-93226588D01*
X169959000Y-93094660D01*
X169959000Y-93027000D01*
X169959000Y-92979405D01*
X169959000Y-91587438D01*
X169959000Y-91559340D01*
X169928889Y-91427412D01*
X169870175Y-91305493D01*
X169870170Y-91305487D01*
X169870170Y-91305486D01*
X169785811Y-91199702D01*
X169785808Y-91199699D01*
X169785805Y-91199695D01*
X169785800Y-91199691D01*
X169785797Y-91199688D01*
X169680013Y-91115329D01*
X169680010Y-91115327D01*
X169680007Y-91115325D01*
X169558088Y-91056611D01*
X169426160Y-91026500D01*
X169398062Y-91026500D01*
X167806095Y-91026500D01*
X167758500Y-91026500D01*
X167690840Y-91026500D01*
X167690839Y-91026500D01*
X167647030Y-91036499D01*
X167558912Y-91056611D01*
X167558910Y-91056611D01*
X167558909Y-91056612D01*
X167502613Y-91083723D01*
X167436993Y-91115325D01*
X167436992Y-91115326D01*
X167436986Y-91115329D01*
X167331202Y-91199688D01*
X167331188Y-91199702D01*
X167246829Y-91305486D01*
X167246826Y-91305491D01*
X167246825Y-91305493D01*
X167230939Y-91338480D01*
X167188112Y-91427409D01*
X167160697Y-91547525D01*
X167158000Y-91559340D01*
X147284433Y-91559340D01*
X147296243Y-91547530D01*
X147296246Y-91547525D01*
X147318003Y-91509842D01*
X147340545Y-91470794D01*
X147375300Y-91410598D01*
X147416223Y-91257871D01*
X147416223Y-91099757D01*
X147416147Y-91099475D01*
X147375301Y-90947034D01*
X147375300Y-90947030D01*
X147296243Y-90810098D01*
X147184439Y-90698294D01*
X147184436Y-90698292D01*
X147184435Y-90698291D01*
X147097224Y-90647941D01*
X147047507Y-90619237D01*
X147047504Y-90619236D01*
X147047502Y-90619235D01*
X146894780Y-90578314D01*
X146736666Y-90578314D01*
X146583943Y-90619235D01*
X146583939Y-90619237D01*
X146447010Y-90698291D01*
X146335200Y-90810101D01*
X146256146Y-90947030D01*
X146256144Y-90947034D01*
X146215223Y-91099756D01*
X146215223Y-91129500D01*
X146194401Y-91186708D01*
X146141678Y-91217148D01*
X146126223Y-91218500D01*
X145968443Y-91218500D01*
X145815720Y-91259421D01*
X145815716Y-91259423D01*
X145678787Y-91338477D01*
X145566977Y-91450287D01*
X145487923Y-91587216D01*
X145487921Y-91587220D01*
X145447000Y-91739942D01*
X140739616Y-91739942D01*
X140890261Y-91699577D01*
X140940466Y-91670590D01*
X140963949Y-91657034D01*
X140963950Y-91657033D01*
X141015103Y-91627500D01*
X141027193Y-91620520D01*
X141138997Y-91508716D01*
X141218054Y-91371784D01*
X141258977Y-91219057D01*
X141258977Y-91060943D01*
X141257816Y-91056611D01*
X141226702Y-90940493D01*
X141218054Y-90908216D01*
X141148511Y-90787763D01*
X141138999Y-90771287D01*
X141138998Y-90771286D01*
X141138997Y-90771284D01*
X141045644Y-90677931D01*
X141019917Y-90622757D01*
X141035673Y-90563952D01*
X141045639Y-90552073D01*
X141120792Y-90476921D01*
X150003725Y-90476921D01*
X150003725Y-90635036D01*
X150044646Y-90787758D01*
X150044647Y-90787760D01*
X150044648Y-90787763D01*
X150057543Y-90810098D01*
X150123702Y-90924691D01*
X150123703Y-90924692D01*
X150123705Y-90924695D01*
X150235509Y-91036499D01*
X150372441Y-91115556D01*
X150525168Y-91156479D01*
X150683282Y-91156479D01*
X150836009Y-91115556D01*
X150972941Y-91036499D01*
X151084745Y-90924695D01*
X151163802Y-90787763D01*
X151201267Y-90647941D01*
X158197999Y-90647941D01*
X158197999Y-90806056D01*
X158238920Y-90958778D01*
X158238921Y-90958780D01*
X158238922Y-90958783D01*
X158252082Y-90981577D01*
X158317976Y-91095711D01*
X158317977Y-91095712D01*
X158317979Y-91095715D01*
X158429783Y-91207519D01*
X158429785Y-91207520D01*
X158429786Y-91207521D01*
X158458723Y-91224227D01*
X158566715Y-91286576D01*
X158719442Y-91327499D01*
X158877556Y-91327499D01*
X159030283Y-91286576D01*
X159167215Y-91207519D01*
X159279019Y-91095715D01*
X159358076Y-90958783D01*
X159398999Y-90806056D01*
X159398999Y-90647942D01*
X159378784Y-90572500D01*
X159358077Y-90495219D01*
X159358076Y-90495215D01*
X159279019Y-90358283D01*
X159167215Y-90246479D01*
X159167212Y-90246477D01*
X159167211Y-90246476D01*
X159084110Y-90198499D01*
X159030283Y-90167422D01*
X159030280Y-90167421D01*
X159030278Y-90167420D01*
X158877556Y-90126499D01*
X158719442Y-90126499D01*
X158566719Y-90167420D01*
X158566715Y-90167422D01*
X158429786Y-90246476D01*
X158317976Y-90358286D01*
X158238922Y-90495215D01*
X158238920Y-90495219D01*
X158197999Y-90647941D01*
X151201267Y-90647941D01*
X151204725Y-90635036D01*
X151204725Y-90476922D01*
X151163802Y-90324195D01*
X151084745Y-90187263D01*
X150972941Y-90075459D01*
X150972938Y-90075457D01*
X150972937Y-90075456D01*
X150886057Y-90025297D01*
X150836009Y-89996402D01*
X150836006Y-89996401D01*
X150836004Y-89996400D01*
X150683282Y-89955479D01*
X150525168Y-89955479D01*
X150372445Y-89996400D01*
X150372441Y-89996402D01*
X150235512Y-90075456D01*
X150123702Y-90187266D01*
X150044648Y-90324195D01*
X150044646Y-90324199D01*
X150003725Y-90476921D01*
X141120792Y-90476921D01*
X141138997Y-90458716D01*
X141218054Y-90321784D01*
X141258977Y-90169057D01*
X141258977Y-90010943D01*
X141244115Y-89955479D01*
X141218055Y-89858220D01*
X141218054Y-89858216D01*
X141138997Y-89721284D01*
X141027193Y-89609480D01*
X141027190Y-89609478D01*
X141027189Y-89609477D01*
X140924871Y-89550405D01*
X140890261Y-89530423D01*
X140890258Y-89530422D01*
X140890256Y-89530421D01*
X140737534Y-89489500D01*
X140579420Y-89489500D01*
X140426697Y-89530421D01*
X140426693Y-89530423D01*
X140289764Y-89609477D01*
X140177954Y-89721287D01*
X140098900Y-89858216D01*
X140098898Y-89858220D01*
X140057977Y-90010942D01*
X135755678Y-90010942D01*
X135686216Y-89941480D01*
X135686213Y-89941478D01*
X135686212Y-89941477D01*
X135611631Y-89898418D01*
X135549284Y-89862423D01*
X135549281Y-89862422D01*
X135549279Y-89862421D01*
X135396557Y-89821500D01*
X135238443Y-89821500D01*
X135085720Y-89862421D01*
X135085716Y-89862423D01*
X134948787Y-89941477D01*
X134836977Y-90053287D01*
X134757923Y-90190216D01*
X134757921Y-90190220D01*
X134717000Y-90342942D01*
X131776000Y-90342942D01*
X131776000Y-90329943D01*
X131773812Y-90321779D01*
X131735078Y-90177220D01*
X131735077Y-90177216D01*
X131663527Y-90053287D01*
X131656022Y-90040287D01*
X131656021Y-90040286D01*
X131656020Y-90040284D01*
X131544216Y-89928480D01*
X131544213Y-89928478D01*
X131544212Y-89928477D01*
X131469631Y-89885418D01*
X131407284Y-89849423D01*
X131407281Y-89849422D01*
X131407279Y-89849421D01*
X131254557Y-89808500D01*
X131096443Y-89808500D01*
X130943720Y-89849421D01*
X130943716Y-89849423D01*
X130806787Y-89928477D01*
X130694977Y-90040287D01*
X130615923Y-90177216D01*
X130615921Y-90177220D01*
X130575000Y-90329942D01*
X122503000Y-90329942D01*
X122503000Y-88183942D01*
X146336000Y-88183942D01*
X146336000Y-88342057D01*
X146376921Y-88494779D01*
X146376922Y-88494781D01*
X146376923Y-88494784D01*
X146412918Y-88557131D01*
X146455977Y-88631712D01*
X146455978Y-88631713D01*
X146455980Y-88631716D01*
X146567784Y-88743520D01*
X146704716Y-88822577D01*
X146857443Y-88863500D01*
X147015557Y-88863500D01*
X147168284Y-88822577D01*
X147305216Y-88743520D01*
X147417020Y-88631716D01*
X147496077Y-88494784D01*
X147537000Y-88342057D01*
X147537000Y-88183943D01*
X147522637Y-88130340D01*
X167158000Y-88130340D01*
X167158000Y-88158438D01*
X167158000Y-89550405D01*
X167158000Y-89598000D01*
X167158000Y-89665660D01*
X167188111Y-89797588D01*
X167246825Y-89919507D01*
X167246827Y-89919510D01*
X167246829Y-89919513D01*
X167331188Y-90025297D01*
X167331191Y-90025300D01*
X167331195Y-90025305D01*
X167331199Y-90025308D01*
X167331202Y-90025311D01*
X167436986Y-90109670D01*
X167436987Y-90109670D01*
X167436993Y-90109675D01*
X167558912Y-90168389D01*
X167690840Y-90198500D01*
X167690843Y-90198500D01*
X169426157Y-90198500D01*
X169426160Y-90198500D01*
X169558088Y-90168389D01*
X169680007Y-90109675D01*
X169785805Y-90025305D01*
X169870175Y-89919507D01*
X169928889Y-89797588D01*
X169959000Y-89665660D01*
X169959000Y-89598000D01*
X169959000Y-89550405D01*
X169959000Y-88158438D01*
X169959000Y-88130340D01*
X169928889Y-87998412D01*
X169870175Y-87876493D01*
X169870170Y-87876487D01*
X169870170Y-87876486D01*
X169785811Y-87770702D01*
X169785808Y-87770699D01*
X169785805Y-87770695D01*
X169785800Y-87770691D01*
X169785797Y-87770688D01*
X169680013Y-87686329D01*
X169680010Y-87686327D01*
X169680007Y-87686325D01*
X169558088Y-87627611D01*
X169426160Y-87597500D01*
X169398062Y-87597500D01*
X167806095Y-87597500D01*
X167758500Y-87597500D01*
X167690840Y-87597500D01*
X167690839Y-87597500D01*
X167635438Y-87610144D01*
X167558912Y-87627611D01*
X167558910Y-87627611D01*
X167558909Y-87627612D01*
X167502613Y-87654723D01*
X167436993Y-87686325D01*
X167436992Y-87686326D01*
X167436986Y-87686329D01*
X167331202Y-87770688D01*
X167331188Y-87770702D01*
X167246829Y-87876486D01*
X167246826Y-87876491D01*
X167246825Y-87876493D01*
X167188111Y-87998412D01*
X167158000Y-88130340D01*
X147522637Y-88130340D01*
X147496077Y-88031216D01*
X147428625Y-87914384D01*
X147417022Y-87894287D01*
X147417021Y-87894286D01*
X147417020Y-87894284D01*
X147305216Y-87782480D01*
X147305213Y-87782478D01*
X147305212Y-87782477D01*
X147230616Y-87739410D01*
X147168284Y-87703423D01*
X147168281Y-87703422D01*
X147168279Y-87703421D01*
X147015557Y-87662500D01*
X146857443Y-87662500D01*
X146704720Y-87703421D01*
X146704716Y-87703423D01*
X146567787Y-87782477D01*
X146455977Y-87894287D01*
X146376923Y-88031216D01*
X146376921Y-88031220D01*
X146336000Y-88183942D01*
X122503000Y-88183942D01*
X122503000Y-87328924D01*
X143783002Y-87328924D01*
X143783002Y-87473875D01*
X143820515Y-87613877D01*
X143820519Y-87613887D01*
X143892989Y-87739410D01*
X143892991Y-87739412D01*
X143892993Y-87739415D01*
X143995487Y-87841909D01*
X143995489Y-87841910D01*
X143995491Y-87841912D01*
X144055376Y-87876486D01*
X144121017Y-87914384D01*
X144261027Y-87951900D01*
X144405977Y-87951900D01*
X144545987Y-87914384D01*
X144671517Y-87841909D01*
X144774011Y-87739415D01*
X144846486Y-87613885D01*
X144884002Y-87473875D01*
X144884002Y-87328925D01*
X144846486Y-87188915D01*
X144802490Y-87112712D01*
X144774014Y-87063389D01*
X144774012Y-87063387D01*
X144774011Y-87063385D01*
X144671517Y-86960891D01*
X144671514Y-86960889D01*
X144671512Y-86960887D01*
X144563495Y-86898524D01*
X149004700Y-86898524D01*
X149004700Y-87043475D01*
X149042213Y-87183477D01*
X149042217Y-87183487D01*
X149114687Y-87309010D01*
X149114689Y-87309012D01*
X149114691Y-87309015D01*
X149217185Y-87411509D01*
X149217187Y-87411510D01*
X149217189Y-87411512D01*
X149307623Y-87463724D01*
X149342715Y-87483984D01*
X149482725Y-87521500D01*
X149627675Y-87521500D01*
X149767685Y-87483984D01*
X149893215Y-87411509D01*
X149995709Y-87309015D01*
X150068184Y-87183485D01*
X150105700Y-87043475D01*
X150105700Y-86898525D01*
X150105325Y-86897124D01*
X162238100Y-86897124D01*
X162238100Y-87042075D01*
X162275613Y-87182077D01*
X162275617Y-87182087D01*
X162348087Y-87307610D01*
X162348089Y-87307612D01*
X162348091Y-87307615D01*
X162450585Y-87410109D01*
X162450587Y-87410110D01*
X162450589Y-87410112D01*
X162541023Y-87462324D01*
X162576115Y-87482584D01*
X162576121Y-87482585D01*
X162576122Y-87482586D01*
X162581347Y-87483986D01*
X162716125Y-87520100D01*
X162861075Y-87520100D01*
X163001085Y-87482584D01*
X163126615Y-87410109D01*
X163229109Y-87307615D01*
X163260800Y-87252725D01*
X163260801Y-87252724D01*
X170086700Y-87252724D01*
X170086700Y-87397675D01*
X170124213Y-87537677D01*
X170124217Y-87537687D01*
X170196687Y-87663210D01*
X170196689Y-87663212D01*
X170196691Y-87663215D01*
X170299185Y-87765709D01*
X170299187Y-87765710D01*
X170299189Y-87765712D01*
X170389623Y-87817924D01*
X170424715Y-87838184D01*
X170424721Y-87838185D01*
X170424722Y-87838186D01*
X170438628Y-87841912D01*
X170564725Y-87875700D01*
X170709675Y-87875700D01*
X170849685Y-87838184D01*
X170975215Y-87765709D01*
X171077709Y-87663215D01*
X171150184Y-87537685D01*
X171187700Y-87397675D01*
X171187700Y-87252725D01*
X171168772Y-87182087D01*
X171150186Y-87112722D01*
X171150185Y-87112721D01*
X171150184Y-87112715D01*
X171109400Y-87042075D01*
X171077712Y-86987189D01*
X171077710Y-86987187D01*
X171077709Y-86987185D01*
X170975215Y-86884691D01*
X170975212Y-86884689D01*
X170975210Y-86884687D01*
X170849687Y-86812217D01*
X170849677Y-86812213D01*
X170709675Y-86774700D01*
X170564725Y-86774700D01*
X170424722Y-86812213D01*
X170424712Y-86812217D01*
X170299189Y-86884687D01*
X170196687Y-86987189D01*
X170124217Y-87112712D01*
X170124213Y-87112722D01*
X170086700Y-87252724D01*
X163260801Y-87252724D01*
X163289860Y-87202392D01*
X163292835Y-87197237D01*
X163301584Y-87182085D01*
X163339100Y-87042075D01*
X163339100Y-86897125D01*
X163336766Y-86888416D01*
X163301586Y-86757122D01*
X163301585Y-86757121D01*
X163301584Y-86757115D01*
X163279333Y-86718576D01*
X163229112Y-86631589D01*
X163229110Y-86631587D01*
X163229109Y-86631585D01*
X163126615Y-86529091D01*
X163126612Y-86529089D01*
X163126610Y-86529087D01*
X163001087Y-86456617D01*
X163001077Y-86456613D01*
X162861075Y-86419100D01*
X162716125Y-86419100D01*
X162576122Y-86456613D01*
X162576112Y-86456617D01*
X162450589Y-86529087D01*
X162348087Y-86631589D01*
X162275617Y-86757112D01*
X162275613Y-86757122D01*
X162238100Y-86897124D01*
X150105325Y-86897124D01*
X150102991Y-86888416D01*
X150068186Y-86758522D01*
X150068185Y-86758521D01*
X150068184Y-86758515D01*
X150030005Y-86692387D01*
X149995712Y-86632989D01*
X149995710Y-86632987D01*
X149995709Y-86632985D01*
X149893215Y-86530491D01*
X149893212Y-86530489D01*
X149893210Y-86530487D01*
X149767687Y-86458017D01*
X149767677Y-86458013D01*
X149627675Y-86420500D01*
X149482725Y-86420500D01*
X149342722Y-86458013D01*
X149342712Y-86458017D01*
X149217189Y-86530487D01*
X149114687Y-86632989D01*
X149042217Y-86758512D01*
X149042213Y-86758522D01*
X149004700Y-86898524D01*
X144563495Y-86898524D01*
X144545989Y-86888417D01*
X144545979Y-86888413D01*
X144405977Y-86850900D01*
X144261027Y-86850900D01*
X144121024Y-86888413D01*
X144121014Y-86888417D01*
X143995491Y-86960887D01*
X143892989Y-87063389D01*
X143820519Y-87188912D01*
X143820515Y-87188922D01*
X143783002Y-87328924D01*
X122503000Y-87328924D01*
X122503000Y-86079942D01*
X134338000Y-86079942D01*
X134338000Y-86238057D01*
X134378921Y-86390779D01*
X134378922Y-86390781D01*
X134378923Y-86390784D01*
X134409362Y-86443507D01*
X134457977Y-86527712D01*
X134457978Y-86527713D01*
X134457980Y-86527716D01*
X134569784Y-86639520D01*
X134706716Y-86718577D01*
X134859443Y-86759500D01*
X135017557Y-86759500D01*
X135170284Y-86718577D01*
X135307216Y-86639520D01*
X135419020Y-86527716D01*
X135498077Y-86390784D01*
X135539000Y-86238057D01*
X135539000Y-86079943D01*
X135498077Y-85927216D01*
X135419020Y-85790284D01*
X135307216Y-85678480D01*
X135307213Y-85678478D01*
X135307212Y-85678477D01*
X135232631Y-85635418D01*
X135170284Y-85599423D01*
X135170281Y-85599422D01*
X135170279Y-85599421D01*
X135017557Y-85558500D01*
X134859443Y-85558500D01*
X134706720Y-85599421D01*
X134706716Y-85599423D01*
X134569787Y-85678477D01*
X134457977Y-85790287D01*
X134378923Y-85927216D01*
X134378921Y-85927220D01*
X134338000Y-86079942D01*
X122503000Y-86079942D01*
X122503000Y-85074830D01*
X128183000Y-85074830D01*
X128183000Y-85163169D01*
X128205862Y-85248493D01*
X128205863Y-85248495D01*
X128205864Y-85248498D01*
X128225973Y-85283329D01*
X128250030Y-85324998D01*
X128250031Y-85324999D01*
X128250033Y-85325002D01*
X128312498Y-85387467D01*
X128312500Y-85387468D01*
X128312501Y-85387469D01*
X128328668Y-85396803D01*
X128389002Y-85431636D01*
X128474331Y-85454500D01*
X128562669Y-85454500D01*
X128647998Y-85431636D01*
X128720215Y-85389942D01*
X131096000Y-85389942D01*
X131096000Y-85548057D01*
X131136921Y-85700779D01*
X131136922Y-85700781D01*
X131136923Y-85700784D01*
X131172918Y-85763131D01*
X131215977Y-85837712D01*
X131215978Y-85837713D01*
X131215980Y-85837716D01*
X131327784Y-85949520D01*
X131464716Y-86028577D01*
X131617443Y-86069500D01*
X131775557Y-86069500D01*
X131928284Y-86028577D01*
X132065216Y-85949520D01*
X132177020Y-85837716D01*
X132256077Y-85700784D01*
X132297000Y-85548057D01*
X132297000Y-85389943D01*
X132256077Y-85237216D01*
X132177020Y-85100284D01*
X132065216Y-84988480D01*
X132065213Y-84988478D01*
X132065212Y-84988477D01*
X131990631Y-84945418D01*
X131928284Y-84909423D01*
X131928281Y-84909422D01*
X131928279Y-84909421D01*
X131775557Y-84868500D01*
X131617443Y-84868500D01*
X131464720Y-84909421D01*
X131464716Y-84909423D01*
X131327787Y-84988477D01*
X131215977Y-85100287D01*
X131136923Y-85237216D01*
X131136921Y-85237220D01*
X131096000Y-85389942D01*
X128720215Y-85389942D01*
X128724502Y-85387467D01*
X128786967Y-85325002D01*
X128831136Y-85248498D01*
X128854000Y-85163169D01*
X128854000Y-85074831D01*
X128831136Y-84989502D01*
X128786967Y-84912998D01*
X128724502Y-84850533D01*
X128724499Y-84850531D01*
X128724498Y-84850530D01*
X128682829Y-84826473D01*
X128647998Y-84806364D01*
X128647995Y-84806363D01*
X128647993Y-84806362D01*
X128562669Y-84783500D01*
X128474331Y-84783500D01*
X128389006Y-84806362D01*
X128389002Y-84806364D01*
X128312501Y-84850530D01*
X128250030Y-84913001D01*
X128205864Y-84989502D01*
X128205862Y-84989506D01*
X128183000Y-85074830D01*
X122503000Y-85074830D01*
X122503000Y-84654340D01*
X167158000Y-84654340D01*
X167158000Y-84682438D01*
X167158000Y-86074405D01*
X167158000Y-86122000D01*
X167158000Y-86189660D01*
X167188111Y-86321588D01*
X167246825Y-86443507D01*
X167246827Y-86443510D01*
X167246829Y-86443513D01*
X167331188Y-86549297D01*
X167331191Y-86549300D01*
X167331195Y-86549305D01*
X167331199Y-86549308D01*
X167331202Y-86549311D01*
X167436986Y-86633670D01*
X167436987Y-86633670D01*
X167436993Y-86633675D01*
X167558912Y-86692389D01*
X167690840Y-86722500D01*
X167690843Y-86722500D01*
X169426157Y-86722500D01*
X169426160Y-86722500D01*
X169558088Y-86692389D01*
X169680007Y-86633675D01*
X169785805Y-86549305D01*
X169870175Y-86443507D01*
X169928889Y-86321588D01*
X169959000Y-86189660D01*
X169959000Y-86122000D01*
X169959000Y-86074405D01*
X169959000Y-84682438D01*
X169959000Y-84654340D01*
X169928889Y-84522412D01*
X169870175Y-84400493D01*
X169870170Y-84400487D01*
X169870170Y-84400486D01*
X169785811Y-84294702D01*
X169785808Y-84294699D01*
X169785805Y-84294695D01*
X169785800Y-84294691D01*
X169785797Y-84294688D01*
X169680013Y-84210329D01*
X169680010Y-84210327D01*
X169680007Y-84210325D01*
X169558088Y-84151611D01*
X169426160Y-84121500D01*
X169398062Y-84121500D01*
X167806095Y-84121500D01*
X167758500Y-84121500D01*
X167690840Y-84121500D01*
X167690839Y-84121500D01*
X167681735Y-84123578D01*
X167558912Y-84151611D01*
X167558910Y-84151611D01*
X167558909Y-84151612D01*
X167532148Y-84164500D01*
X167436993Y-84210325D01*
X167436992Y-84210326D01*
X167436986Y-84210329D01*
X167331202Y-84294688D01*
X167331188Y-84294702D01*
X167246829Y-84400486D01*
X167246826Y-84400491D01*
X167246825Y-84400493D01*
X167188111Y-84522412D01*
X167158000Y-84654340D01*
X122503000Y-84654340D01*
X122503000Y-84414000D01*
X128647053Y-84414000D01*
X129389947Y-84414000D01*
X129018500Y-84042553D01*
X128647053Y-84414000D01*
X122503000Y-84414000D01*
X122503000Y-83617589D01*
X127768500Y-83617589D01*
X127768500Y-83760410D01*
X127796360Y-83900472D01*
X127796361Y-83900474D01*
X127851011Y-84032412D01*
X127851013Y-84032415D01*
X127930354Y-84151158D01*
X128031341Y-84252145D01*
X128073579Y-84280367D01*
X128378483Y-83975463D01*
X128429004Y-83989000D01*
X129607996Y-83989000D01*
X129658516Y-83975463D01*
X129963420Y-84280367D01*
X130005656Y-84252147D01*
X130106645Y-84151158D01*
X130185986Y-84032415D01*
X130185988Y-84032412D01*
X130240638Y-83900474D01*
X130240639Y-83900472D01*
X130268499Y-83760410D01*
X130268500Y-83760402D01*
X130268500Y-83617597D01*
X130268499Y-83617589D01*
X130240639Y-83477527D01*
X130240638Y-83477525D01*
X130185988Y-83345587D01*
X130185986Y-83345584D01*
X130106645Y-83226841D01*
X130019746Y-83139942D01*
X132098000Y-83139942D01*
X132098000Y-83298057D01*
X132138921Y-83450779D01*
X132138922Y-83450781D01*
X132138923Y-83450784D01*
X132170106Y-83504795D01*
X132217977Y-83587712D01*
X132217978Y-83587713D01*
X132217980Y-83587716D01*
X132329784Y-83699520D01*
X132466716Y-83778577D01*
X132619443Y-83819500D01*
X132777557Y-83819500D01*
X132930284Y-83778577D01*
X133067216Y-83699520D01*
X133179020Y-83587716D01*
X133258077Y-83450784D01*
X133286599Y-83344337D01*
X133321517Y-83294469D01*
X133380322Y-83278712D01*
X133435498Y-83304440D01*
X133525784Y-83394726D01*
X133662716Y-83473783D01*
X133815443Y-83514706D01*
X133973557Y-83514706D01*
X134126284Y-83473783D01*
X134263216Y-83394726D01*
X134375020Y-83282922D01*
X134454077Y-83145990D01*
X134495000Y-82993263D01*
X134495000Y-82835149D01*
X134495000Y-82835148D01*
X134466064Y-82727156D01*
X134461454Y-82709953D01*
X138462000Y-82709953D01*
X138462000Y-82868068D01*
X138502921Y-83020790D01*
X138502922Y-83020792D01*
X138502923Y-83020795D01*
X138538918Y-83083142D01*
X138581977Y-83157723D01*
X138581978Y-83157724D01*
X138581980Y-83157727D01*
X138693784Y-83269531D01*
X138830716Y-83348588D01*
X138983443Y-83389511D01*
X139141557Y-83389511D01*
X139294284Y-83348588D01*
X139431216Y-83269531D01*
X139543020Y-83157727D01*
X139622077Y-83020795D01*
X139663000Y-82868068D01*
X139663000Y-82709954D01*
X139647681Y-82652784D01*
X139622078Y-82557231D01*
X139622077Y-82557227D01*
X139550751Y-82433686D01*
X139543022Y-82420298D01*
X139543021Y-82420297D01*
X139543020Y-82420295D01*
X139464667Y-82341942D01*
X140494000Y-82341942D01*
X140494000Y-82500057D01*
X140534921Y-82652779D01*
X140534922Y-82652781D01*
X140534923Y-82652784D01*
X140567929Y-82709953D01*
X140613977Y-82789712D01*
X140613978Y-82789713D01*
X140613980Y-82789716D01*
X140725784Y-82901520D01*
X140862716Y-82980577D01*
X141015443Y-83021500D01*
X141173557Y-83021500D01*
X141326284Y-82980577D01*
X141463216Y-82901520D01*
X141554794Y-82809942D01*
X142780000Y-82809942D01*
X142780000Y-82968057D01*
X142820921Y-83120779D01*
X142820922Y-83120781D01*
X142820923Y-83120784D01*
X142835473Y-83145985D01*
X142899977Y-83257712D01*
X142899978Y-83257713D01*
X142899980Y-83257716D01*
X143011784Y-83369520D01*
X143148716Y-83448577D01*
X143301443Y-83489500D01*
X143459557Y-83489500D01*
X143476568Y-83484942D01*
X154718000Y-83484942D01*
X154718000Y-83643057D01*
X154758921Y-83795779D01*
X154758922Y-83795781D01*
X154758923Y-83795784D01*
X154794918Y-83858131D01*
X154837977Y-83932712D01*
X154837978Y-83932713D01*
X154837980Y-83932716D01*
X154949784Y-84044520D01*
X155086716Y-84123577D01*
X155239443Y-84164500D01*
X155397557Y-84164500D01*
X155550284Y-84123577D01*
X155687216Y-84044520D01*
X155799020Y-83932716D01*
X155878077Y-83795784D01*
X155919000Y-83643057D01*
X155919000Y-83484943D01*
X155917012Y-83477525D01*
X155878078Y-83332220D01*
X155878077Y-83332216D01*
X155799020Y-83195284D01*
X155687216Y-83083480D01*
X155687213Y-83083478D01*
X155687212Y-83083477D01*
X155612631Y-83040418D01*
X155550284Y-83004423D01*
X155550281Y-83004422D01*
X155550279Y-83004421D01*
X155397557Y-82963500D01*
X155239443Y-82963500D01*
X155086720Y-83004421D01*
X155086716Y-83004423D01*
X154949787Y-83083477D01*
X154837977Y-83195287D01*
X154758923Y-83332216D01*
X154758921Y-83332220D01*
X154718000Y-83484942D01*
X143476568Y-83484942D01*
X143612284Y-83448577D01*
X143680065Y-83409444D01*
X143692902Y-83402033D01*
X143692903Y-83402032D01*
X143749211Y-83369523D01*
X143749211Y-83369522D01*
X143749216Y-83369520D01*
X143861020Y-83257716D01*
X143940077Y-83120784D01*
X143981000Y-82968057D01*
X143981000Y-82809943D01*
X143940077Y-82657216D01*
X143861020Y-82520284D01*
X143749216Y-82408480D01*
X143749213Y-82408478D01*
X143749212Y-82408477D01*
X143633969Y-82341943D01*
X143612284Y-82329423D01*
X143612281Y-82329422D01*
X143612279Y-82329421D01*
X143459557Y-82288500D01*
X143301443Y-82288500D01*
X143148720Y-82329421D01*
X143148716Y-82329423D01*
X143011787Y-82408477D01*
X142899977Y-82520287D01*
X142820923Y-82657216D01*
X142820921Y-82657220D01*
X142780000Y-82809942D01*
X141554794Y-82809942D01*
X141575020Y-82789716D01*
X141654077Y-82652784D01*
X141695000Y-82500057D01*
X141695000Y-82341943D01*
X141691645Y-82329423D01*
X141654078Y-82189220D01*
X141654077Y-82189216D01*
X141575020Y-82052284D01*
X141463216Y-81940480D01*
X141463213Y-81940478D01*
X141463212Y-81940477D01*
X141388631Y-81897418D01*
X141326284Y-81861423D01*
X141326281Y-81861422D01*
X141326279Y-81861421D01*
X141173557Y-81820500D01*
X141015443Y-81820500D01*
X140862720Y-81861421D01*
X140862716Y-81861423D01*
X140725787Y-81940477D01*
X140613977Y-82052287D01*
X140534923Y-82189216D01*
X140534921Y-82189220D01*
X140494000Y-82341942D01*
X139464667Y-82341942D01*
X139431216Y-82308491D01*
X139431213Y-82308489D01*
X139431212Y-82308488D01*
X139356631Y-82265429D01*
X139294284Y-82229434D01*
X139294281Y-82229433D01*
X139294279Y-82229432D01*
X139141557Y-82188511D01*
X138983443Y-82188511D01*
X138830720Y-82229432D01*
X138830716Y-82229434D01*
X138693787Y-82308488D01*
X138581977Y-82420298D01*
X138502923Y-82557227D01*
X138502921Y-82557231D01*
X138462000Y-82709953D01*
X134461454Y-82709953D01*
X134454078Y-82682427D01*
X134454077Y-82682422D01*
X134375020Y-82545490D01*
X134263216Y-82433686D01*
X134263213Y-82433684D01*
X134263212Y-82433683D01*
X134188631Y-82390624D01*
X134126284Y-82354629D01*
X134126281Y-82354628D01*
X134126279Y-82354627D01*
X133973557Y-82313706D01*
X133815443Y-82313706D01*
X133662720Y-82354627D01*
X133662716Y-82354629D01*
X133525787Y-82433683D01*
X133413977Y-82545493D01*
X133334923Y-82682422D01*
X133334920Y-82682427D01*
X133306400Y-82788867D01*
X133271481Y-82838737D01*
X133212676Y-82854493D01*
X133157501Y-82828765D01*
X133067216Y-82738480D01*
X133067213Y-82738478D01*
X133067212Y-82738477D01*
X132970128Y-82682427D01*
X132930284Y-82659423D01*
X132930281Y-82659422D01*
X132930279Y-82659421D01*
X132777557Y-82618500D01*
X132619443Y-82618500D01*
X132466720Y-82659421D01*
X132466716Y-82659423D01*
X132329787Y-82738477D01*
X132217977Y-82850287D01*
X132138923Y-82987216D01*
X132138921Y-82987220D01*
X132098000Y-83139942D01*
X130019746Y-83139942D01*
X130005656Y-83125852D01*
X129963420Y-83097630D01*
X129658514Y-83402536D01*
X129607996Y-83389000D01*
X128429004Y-83389000D01*
X128378483Y-83402536D01*
X128073578Y-83097631D01*
X128031341Y-83125854D01*
X127930354Y-83226841D01*
X127851013Y-83345584D01*
X127851011Y-83345587D01*
X127796361Y-83477525D01*
X127796360Y-83477527D01*
X127768500Y-83617589D01*
X122503000Y-83617589D01*
X122503000Y-82964000D01*
X128647053Y-82964000D01*
X129018500Y-83335447D01*
X129389947Y-82964000D01*
X128647053Y-82964000D01*
X122503000Y-82964000D01*
X122503000Y-80309942D01*
X135033000Y-80309942D01*
X135033000Y-80468057D01*
X135073921Y-80620779D01*
X135073922Y-80620781D01*
X135073923Y-80620784D01*
X135099206Y-80664576D01*
X135152977Y-80757712D01*
X135152978Y-80757713D01*
X135152980Y-80757716D01*
X135264784Y-80869520D01*
X135264786Y-80869521D01*
X135264787Y-80869522D01*
X135274317Y-80875024D01*
X135401716Y-80948577D01*
X135554443Y-80989500D01*
X135712557Y-80989500D01*
X135865284Y-80948577D01*
X136002216Y-80869520D01*
X136114020Y-80757716D01*
X136193077Y-80620784D01*
X136234000Y-80468057D01*
X136234000Y-80309943D01*
X136234000Y-80309942D01*
X136430000Y-80309942D01*
X136430000Y-80468057D01*
X136470921Y-80620779D01*
X136470922Y-80620781D01*
X136470923Y-80620784D01*
X136496206Y-80664576D01*
X136549977Y-80757712D01*
X136549978Y-80757713D01*
X136549980Y-80757716D01*
X136661784Y-80869520D01*
X136661786Y-80869521D01*
X136661787Y-80869522D01*
X136671317Y-80875024D01*
X136798716Y-80948577D01*
X136951443Y-80989500D01*
X137109557Y-80989500D01*
X137262284Y-80948577D01*
X137399216Y-80869520D01*
X137511020Y-80757716D01*
X137590077Y-80620784D01*
X137631000Y-80468057D01*
X137631000Y-80309943D01*
X137631000Y-80309942D01*
X137954000Y-80309942D01*
X137954000Y-80468057D01*
X137994921Y-80620779D01*
X137994922Y-80620781D01*
X137994923Y-80620784D01*
X138020206Y-80664576D01*
X138073977Y-80757712D01*
X138073978Y-80757713D01*
X138073980Y-80757716D01*
X138185784Y-80869520D01*
X138185786Y-80869521D01*
X138185787Y-80869522D01*
X138195317Y-80875024D01*
X138322716Y-80948577D01*
X138475443Y-80989500D01*
X138633557Y-80989500D01*
X138786284Y-80948577D01*
X138923216Y-80869520D01*
X139035020Y-80757716D01*
X139114077Y-80620784D01*
X139155000Y-80468057D01*
X139155000Y-80309943D01*
X139148106Y-80284216D01*
X139114078Y-80157220D01*
X139114077Y-80157216D01*
X139038287Y-80025942D01*
X141353000Y-80025942D01*
X141353000Y-80184057D01*
X141393921Y-80336779D01*
X141393922Y-80336781D01*
X141393923Y-80336784D01*
X141414165Y-80371844D01*
X141472977Y-80473712D01*
X141472978Y-80473713D01*
X141472980Y-80473716D01*
X141584784Y-80585520D01*
X141721716Y-80664577D01*
X141874443Y-80705500D01*
X142032557Y-80705500D01*
X142185284Y-80664577D01*
X142322216Y-80585520D01*
X142343794Y-80563942D01*
X146336000Y-80563942D01*
X146336000Y-80722057D01*
X146376921Y-80874779D01*
X146376922Y-80874781D01*
X146376923Y-80874784D01*
X146412918Y-80937131D01*
X146455977Y-81011712D01*
X146455978Y-81011713D01*
X146455980Y-81011716D01*
X146567784Y-81123520D01*
X146704716Y-81202577D01*
X146857443Y-81243500D01*
X147015557Y-81243500D01*
X147168284Y-81202577D01*
X147305216Y-81123520D01*
X147417020Y-81011716D01*
X147496077Y-80874784D01*
X147537000Y-80722057D01*
X147537000Y-80563943D01*
X147511307Y-80468057D01*
X147496078Y-80411220D01*
X147496077Y-80411216D01*
X147433728Y-80303224D01*
X147417022Y-80274287D01*
X147417021Y-80274286D01*
X147417020Y-80274284D01*
X147305216Y-80162480D01*
X147305213Y-80162478D01*
X147305212Y-80162477D01*
X147230631Y-80119418D01*
X147168284Y-80083423D01*
X147168281Y-80083422D01*
X147168279Y-80083421D01*
X147015557Y-80042500D01*
X146857443Y-80042500D01*
X146704720Y-80083421D01*
X146704716Y-80083423D01*
X146567787Y-80162477D01*
X146455977Y-80274287D01*
X146376923Y-80411216D01*
X146376921Y-80411220D01*
X146336000Y-80563942D01*
X142343794Y-80563942D01*
X142434020Y-80473716D01*
X142513077Y-80336784D01*
X142554000Y-80184057D01*
X142554000Y-80025943D01*
X142532618Y-79946144D01*
X142532618Y-79946141D01*
X142528010Y-79928942D01*
X152178000Y-79928942D01*
X152178000Y-80087057D01*
X152218921Y-80239779D01*
X152218922Y-80239781D01*
X152218923Y-80239784D01*
X152238985Y-80274532D01*
X152297977Y-80376712D01*
X152297978Y-80376713D01*
X152297980Y-80376716D01*
X152409784Y-80488520D01*
X152546716Y-80567577D01*
X152699443Y-80608500D01*
X152857557Y-80608500D01*
X153010284Y-80567577D01*
X153147216Y-80488520D01*
X153198793Y-80436943D01*
X153448000Y-80436943D01*
X153448000Y-80436945D01*
X153448000Y-80595057D01*
X153488921Y-80747779D01*
X153488922Y-80747781D01*
X153488923Y-80747784D01*
X153524918Y-80810131D01*
X153567977Y-80884712D01*
X153567978Y-80884713D01*
X153567980Y-80884716D01*
X153679784Y-80996520D01*
X153816716Y-81075577D01*
X153969443Y-81116500D01*
X154127557Y-81116500D01*
X154280284Y-81075577D01*
X154417216Y-80996520D01*
X154529020Y-80884716D01*
X154608077Y-80747784D01*
X154649000Y-80595057D01*
X154649000Y-80436943D01*
X154646404Y-80427254D01*
X158029688Y-80427254D01*
X158029688Y-80585369D01*
X158070609Y-80738091D01*
X158070610Y-80738093D01*
X158070611Y-80738096D01*
X158081939Y-80757716D01*
X158149665Y-80875024D01*
X158149666Y-80875025D01*
X158149668Y-80875028D01*
X158261472Y-80986832D01*
X158398404Y-81065889D01*
X158551131Y-81106812D01*
X158709245Y-81106812D01*
X158861972Y-81065889D01*
X158998904Y-80986832D01*
X159110708Y-80875028D01*
X159189765Y-80738096D01*
X159230688Y-80585369D01*
X159230688Y-80427255D01*
X159226391Y-80411220D01*
X159189766Y-80274532D01*
X159189765Y-80274528D01*
X159116301Y-80147284D01*
X159110710Y-80137599D01*
X159110709Y-80137598D01*
X159110708Y-80137596D01*
X158998904Y-80025792D01*
X158998901Y-80025790D01*
X158998900Y-80025789D01*
X158878752Y-79956423D01*
X158861972Y-79946735D01*
X158861969Y-79946734D01*
X158861967Y-79946733D01*
X158709245Y-79905812D01*
X158551131Y-79905812D01*
X158398408Y-79946733D01*
X158398404Y-79946735D01*
X158261475Y-80025789D01*
X158149665Y-80137599D01*
X158070611Y-80274528D01*
X158070609Y-80274532D01*
X158029688Y-80427254D01*
X154646404Y-80427254D01*
X154608077Y-80284216D01*
X154537792Y-80162477D01*
X154529022Y-80147287D01*
X154529021Y-80147286D01*
X154529020Y-80147284D01*
X154417216Y-80035480D01*
X154417213Y-80035478D01*
X154417212Y-80035477D01*
X154342631Y-79992418D01*
X154280284Y-79956423D01*
X154280281Y-79956422D01*
X154280279Y-79956421D01*
X154127557Y-79915500D01*
X153969443Y-79915500D01*
X153816720Y-79956421D01*
X153816716Y-79956423D01*
X153679787Y-80035477D01*
X153567976Y-80147288D01*
X153526431Y-80219246D01*
X153526426Y-80219257D01*
X153488923Y-80284216D01*
X153465443Y-80371842D01*
X153465443Y-80371844D01*
X153464138Y-80376716D01*
X153448000Y-80436943D01*
X153198793Y-80436943D01*
X153259020Y-80376716D01*
X153338077Y-80239784D01*
X153379000Y-80087057D01*
X153379000Y-79928943D01*
X153364069Y-79873221D01*
X153338078Y-79776220D01*
X153338077Y-79776216D01*
X153259020Y-79639284D01*
X153206678Y-79586942D01*
X155988000Y-79586942D01*
X155988000Y-79745057D01*
X156028921Y-79897779D01*
X156028922Y-79897781D01*
X156028923Y-79897784D01*
X156057185Y-79946735D01*
X156107977Y-80034712D01*
X156107978Y-80034713D01*
X156107980Y-80034716D01*
X156219784Y-80146520D01*
X156356716Y-80225577D01*
X156509443Y-80266500D01*
X156667557Y-80266500D01*
X156820284Y-80225577D01*
X156957216Y-80146520D01*
X157069020Y-80034716D01*
X157148077Y-79897784D01*
X157189000Y-79745057D01*
X157189000Y-79586943D01*
X157148077Y-79434216D01*
X157069020Y-79297284D01*
X156957216Y-79185480D01*
X156957213Y-79185478D01*
X156957212Y-79185477D01*
X156880134Y-79140977D01*
X156820284Y-79106423D01*
X156820281Y-79106422D01*
X156820279Y-79106421D01*
X156667557Y-79065500D01*
X156509443Y-79065500D01*
X156356720Y-79106421D01*
X156356716Y-79106423D01*
X156219787Y-79185477D01*
X156107977Y-79297287D01*
X156028923Y-79434216D01*
X156028921Y-79434220D01*
X155988000Y-79586942D01*
X153206678Y-79586942D01*
X153147216Y-79527480D01*
X153147213Y-79527478D01*
X153147212Y-79527477D01*
X153063245Y-79479000D01*
X153010284Y-79448423D01*
X153010281Y-79448422D01*
X153010279Y-79448421D01*
X152857557Y-79407500D01*
X152699443Y-79407500D01*
X152546720Y-79448421D01*
X152546716Y-79448423D01*
X152409787Y-79527477D01*
X152297977Y-79639287D01*
X152218923Y-79776216D01*
X152218921Y-79776220D01*
X152178000Y-79928942D01*
X142528010Y-79928942D01*
X142513079Y-79873221D01*
X142513077Y-79873219D01*
X142513077Y-79873216D01*
X142434020Y-79736284D01*
X142322216Y-79624480D01*
X142322213Y-79624478D01*
X142322212Y-79624477D01*
X142247631Y-79581418D01*
X142185284Y-79545423D01*
X142185281Y-79545422D01*
X142185279Y-79545421D01*
X142032557Y-79504500D01*
X141874443Y-79504500D01*
X141721720Y-79545421D01*
X141721716Y-79545423D01*
X141584787Y-79624477D01*
X141472977Y-79736287D01*
X141393923Y-79873216D01*
X141393921Y-79873220D01*
X141353000Y-80025942D01*
X139038287Y-80025942D01*
X139035020Y-80020284D01*
X138923216Y-79908480D01*
X138923213Y-79908478D01*
X138923212Y-79908477D01*
X138848631Y-79865418D01*
X138786284Y-79829423D01*
X138786281Y-79829422D01*
X138786279Y-79829421D01*
X138633557Y-79788500D01*
X138475443Y-79788500D01*
X138322720Y-79829421D01*
X138322716Y-79829423D01*
X138185787Y-79908477D01*
X138073977Y-80020287D01*
X137994923Y-80157216D01*
X137994921Y-80157220D01*
X137954000Y-80309942D01*
X137631000Y-80309942D01*
X137624106Y-80284216D01*
X137590078Y-80157220D01*
X137590077Y-80157216D01*
X137519350Y-80034712D01*
X137511022Y-80020287D01*
X137511021Y-80020286D01*
X137511020Y-80020284D01*
X137399216Y-79908480D01*
X137399213Y-79908478D01*
X137399212Y-79908477D01*
X137324631Y-79865418D01*
X137262284Y-79829423D01*
X137262281Y-79829422D01*
X137262279Y-79829421D01*
X137109557Y-79788500D01*
X136951443Y-79788500D01*
X136798720Y-79829421D01*
X136798716Y-79829423D01*
X136661787Y-79908477D01*
X136549977Y-80020287D01*
X136470923Y-80157216D01*
X136470921Y-80157220D01*
X136430000Y-80309942D01*
X136234000Y-80309942D01*
X136227106Y-80284216D01*
X136193078Y-80157220D01*
X136193077Y-80157216D01*
X136122350Y-80034712D01*
X136114022Y-80020287D01*
X136114021Y-80020286D01*
X136114020Y-80020284D01*
X136002216Y-79908480D01*
X136002213Y-79908478D01*
X136002212Y-79908477D01*
X135927631Y-79865418D01*
X135865284Y-79829423D01*
X135865281Y-79829422D01*
X135865279Y-79829421D01*
X135712557Y-79788500D01*
X135554443Y-79788500D01*
X135401720Y-79829421D01*
X135401716Y-79829423D01*
X135264787Y-79908477D01*
X135152977Y-80020287D01*
X135073923Y-80157216D01*
X135073921Y-80157220D01*
X135033000Y-80309942D01*
X122503000Y-80309942D01*
X122503000Y-78919524D01*
X131654000Y-78919524D01*
X131654000Y-79064475D01*
X131691513Y-79204477D01*
X131691517Y-79204487D01*
X131763987Y-79330010D01*
X131763989Y-79330012D01*
X131763991Y-79330015D01*
X131866485Y-79432509D01*
X131866487Y-79432510D01*
X131866489Y-79432512D01*
X131956923Y-79484724D01*
X131992015Y-79504984D01*
X132132025Y-79542500D01*
X132276975Y-79542500D01*
X132416985Y-79504984D01*
X132527680Y-79441073D01*
X132542510Y-79432512D01*
X132542510Y-79432511D01*
X132542515Y-79432509D01*
X132645009Y-79330015D01*
X132717484Y-79204485D01*
X132755000Y-79064475D01*
X132755000Y-79039942D01*
X133382000Y-79039942D01*
X133382000Y-79198057D01*
X133422921Y-79350779D01*
X133422922Y-79350781D01*
X133422923Y-79350784D01*
X133433447Y-79369012D01*
X133501977Y-79487712D01*
X133501978Y-79487713D01*
X133501980Y-79487716D01*
X133613784Y-79599520D01*
X133750716Y-79678577D01*
X133903443Y-79719500D01*
X134061557Y-79719500D01*
X134214284Y-79678577D01*
X134351216Y-79599520D01*
X134463020Y-79487716D01*
X134542077Y-79350784D01*
X134583000Y-79198057D01*
X134583000Y-79039943D01*
X134572559Y-79000975D01*
X134542078Y-78887218D01*
X134524068Y-78856024D01*
X160673500Y-78856024D01*
X160673500Y-79000975D01*
X160711013Y-79140977D01*
X160711017Y-79140987D01*
X160783487Y-79266510D01*
X160783489Y-79266512D01*
X160783491Y-79266515D01*
X160885985Y-79369009D01*
X160885987Y-79369010D01*
X160885989Y-79369012D01*
X160952653Y-79407500D01*
X161011515Y-79441484D01*
X161151525Y-79479000D01*
X161296475Y-79479000D01*
X161436485Y-79441484D01*
X161562015Y-79369009D01*
X161664509Y-79266515D01*
X161736984Y-79140985D01*
X161774500Y-79000975D01*
X161774500Y-78856025D01*
X161746166Y-78750284D01*
X161736986Y-78716022D01*
X161736985Y-78716021D01*
X161736984Y-78716015D01*
X161692219Y-78638480D01*
X161664512Y-78590489D01*
X161664510Y-78590487D01*
X161664509Y-78590485D01*
X161562015Y-78487991D01*
X161562012Y-78487989D01*
X161562010Y-78487987D01*
X161436487Y-78415517D01*
X161436477Y-78415513D01*
X161296475Y-78378000D01*
X161151525Y-78378000D01*
X161011522Y-78415513D01*
X161011512Y-78415517D01*
X160885989Y-78487987D01*
X160783487Y-78590489D01*
X160711017Y-78716012D01*
X160711013Y-78716022D01*
X160673500Y-78856024D01*
X134524068Y-78856024D01*
X134463022Y-78750287D01*
X134463021Y-78750286D01*
X134463020Y-78750284D01*
X134351216Y-78638480D01*
X134351213Y-78638478D01*
X134351212Y-78638477D01*
X134268085Y-78590485D01*
X134214284Y-78559423D01*
X134214281Y-78559422D01*
X134214279Y-78559421D01*
X134061557Y-78518500D01*
X133903443Y-78518500D01*
X133750720Y-78559421D01*
X133750716Y-78559423D01*
X133613787Y-78638477D01*
X133501977Y-78750287D01*
X133422923Y-78887216D01*
X133422921Y-78887220D01*
X133382000Y-79039942D01*
X132755000Y-79039942D01*
X132755000Y-78919525D01*
X132746343Y-78887218D01*
X132717486Y-78779522D01*
X132717485Y-78779521D01*
X132717484Y-78779515D01*
X132680822Y-78716015D01*
X132645012Y-78653989D01*
X132645010Y-78653987D01*
X132645009Y-78653985D01*
X132542515Y-78551491D01*
X132542512Y-78551489D01*
X132542510Y-78551487D01*
X132416987Y-78479017D01*
X132416977Y-78479013D01*
X132276975Y-78441500D01*
X132132025Y-78441500D01*
X131992022Y-78479013D01*
X131992012Y-78479017D01*
X131866489Y-78551487D01*
X131763987Y-78653989D01*
X131691517Y-78779512D01*
X131691513Y-78779522D01*
X131654000Y-78919524D01*
X122503000Y-78919524D01*
X122503000Y-75483942D01*
X157258000Y-75483942D01*
X157258000Y-75642057D01*
X157298921Y-75794779D01*
X157298922Y-75794781D01*
X157298923Y-75794784D01*
X157334918Y-75857131D01*
X157377977Y-75931712D01*
X157377978Y-75931713D01*
X157377980Y-75931716D01*
X157489784Y-76043520D01*
X157626716Y-76122577D01*
X157779443Y-76163500D01*
X157937557Y-76163500D01*
X158090284Y-76122577D01*
X158227216Y-76043520D01*
X158339020Y-75931716D01*
X158418077Y-75794784D01*
X158459000Y-75642057D01*
X158459000Y-75483943D01*
X158418077Y-75331216D01*
X158339020Y-75194284D01*
X158227216Y-75082480D01*
X158227213Y-75082478D01*
X158227212Y-75082477D01*
X158152631Y-75039418D01*
X158090284Y-75003423D01*
X158090281Y-75003422D01*
X158090279Y-75003421D01*
X157937557Y-74962500D01*
X157779443Y-74962500D01*
X157626720Y-75003421D01*
X157626716Y-75003423D01*
X157489787Y-75082477D01*
X157377977Y-75194287D01*
X157298923Y-75331216D01*
X157298921Y-75331220D01*
X157258000Y-75483942D01*
X122503000Y-75483942D01*
X122503000Y-73062500D01*
X122523822Y-73005292D01*
X122576545Y-72974852D01*
X122592000Y-72973500D01*
X172805000Y-72973500D01*
X172862208Y-72994322D01*
G37*
%TD.AperFunction*%
%TD*%
M02*
