%TF.GenerationSoftware,KiCad,Pcbnew,9.0.6+1*%
%TF.CreationDate,2025-12-04T21:18:21+00:00*%
%TF.ProjectId,TFGPS01,54464750-5330-4312-9e6b-696361645f70,C*%
%TF.SameCoordinates,Original*%
%TF.FileFunction,Copper,L2,Inr*%
%TF.FilePolarity,Positive*%
%FSLAX46Y46*%
G04 Gerber Fmt 4.6, Leading zero omitted, Abs format (unit mm)*
G04 Created by KiCad (PCBNEW 9.0.6+1) date 2025-12-04 21:18:21*
%MOMM*%
%LPD*%
G01*
G04 APERTURE LIST*
%TA.AperFunction,ComponentPad*%
%ADD10C,6.000000*%
%TD*%
%TA.AperFunction,ComponentPad*%
%ADD11O,2.000000X1.000000*%
%TD*%
%TA.AperFunction,ComponentPad*%
%ADD12O,2.100000X1.050000*%
%TD*%
%TA.AperFunction,ViaPad*%
%ADD13C,0.800000*%
%TD*%
%TA.AperFunction,ViaPad*%
%ADD14C,0.700000*%
%TD*%
%TA.AperFunction,ViaPad*%
%ADD15C,0.600000*%
%TD*%
%TA.AperFunction,Conductor*%
%ADD16C,0.500000*%
%TD*%
G04 APERTURE END LIST*
D10*
%TO.N,GND*%
%TO.C,M4*%
X167718500Y-118189000D03*
%TD*%
%TO.N,GND*%
%TO.C,M2*%
X127678500Y-118189000D03*
%TD*%
%TO.N,GND*%
%TO.C,M1*%
X167718500Y-78149000D03*
%TD*%
%TO.N,GND*%
%TO.C,M3*%
X127678500Y-78149000D03*
%TD*%
D11*
%TO.N,GND*%
%TO.C,J2*%
X124838500Y-92329000D03*
X124838500Y-83689000D03*
D12*
X129018500Y-92329000D03*
X129018500Y-83689000D03*
%TD*%
D13*
%TO.N,GND*%
X141983500Y-94994000D03*
X162938500Y-75309000D03*
X158722100Y-103757000D03*
X133728500Y-110869000D03*
X140522110Y-107322501D03*
X126108500Y-85469000D03*
X126108500Y-90549000D03*
X155724900Y-99591400D03*
D14*
X156876500Y-112139000D03*
D13*
X153413500Y-84834000D03*
D15*
X167129500Y-83945000D03*
D13*
X132458500Y-114044000D03*
D14*
X157824900Y-112139000D03*
D13*
X150848100Y-104366600D03*
X164208500Y-107059000D03*
X159687300Y-95527400D03*
D14*
X155166100Y-109395800D03*
D13*
X152372100Y-103350600D03*
X131823500Y-74039000D03*
D14*
X145260100Y-109040200D03*
D13*
X138808500Y-98804000D03*
D14*
X153082900Y-112139000D03*
D13*
X154302500Y-98169000D03*
X150746500Y-103147400D03*
X153997700Y-97102200D03*
D14*
X148155700Y-111123000D03*
D13*
X154048500Y-116584000D03*
X146428500Y-79119000D03*
X133728500Y-112139000D03*
X152778500Y-101115400D03*
X157858500Y-86104000D03*
X143046470Y-95201031D03*
X153540500Y-101826600D03*
D14*
X156598565Y-109649800D03*
D13*
X152143500Y-84834000D03*
X132458500Y-115314000D03*
X155674100Y-104519000D03*
X147546100Y-107008200D03*
X162938500Y-118489000D03*
X151965700Y-100404200D03*
X137538500Y-100074000D03*
X157909300Y-95730600D03*
D14*
X146377700Y-109141800D03*
D13*
X157655300Y-101928200D03*
X151559300Y-101369400D03*
D14*
X152168900Y-112139000D03*
D13*
X153438900Y-96187800D03*
X138808500Y-101979000D03*
X154353300Y-109243400D03*
X158722100Y-102690200D03*
X131188500Y-118489000D03*
X153413500Y-86104000D03*
X149679700Y-98270600D03*
X149374900Y-104265000D03*
D14*
X156486900Y-106093800D03*
D13*
X155013700Y-98880200D03*
X140078500Y-100074000D03*
X152143500Y-86104000D03*
X131823500Y-75309000D03*
X131188500Y-121029000D03*
D15*
X165986500Y-83945000D03*
D14*
X147088900Y-111123000D03*
D13*
X164208500Y-75309000D03*
X131188500Y-119759000D03*
X158163300Y-106754200D03*
X131188500Y-122299000D03*
X157858500Y-84834000D03*
D14*
X148866900Y-109091000D03*
D13*
X159890500Y-102360000D03*
X135633500Y-112139000D03*
X160500100Y-105789000D03*
X153159500Y-82675000D03*
X150441700Y-96289400D03*
X149476500Y-118743000D03*
X150873500Y-86104000D03*
X149781300Y-97102200D03*
X151356100Y-95832200D03*
X150873500Y-84834000D03*
X150848100Y-102080600D03*
X163573500Y-117219000D03*
X158722100Y-104874600D03*
D14*
X154979700Y-112139000D03*
X154031300Y-112139000D03*
D13*
X149984500Y-99388200D03*
X126108500Y-86739000D03*
D15*
X156637384Y-110704797D03*
D13*
X163573500Y-105154000D03*
X150873500Y-79119000D03*
D15*
X161795500Y-86358000D03*
D13*
X155623300Y-103401400D03*
X152270500Y-109243400D03*
X148155700Y-112443800D03*
X126108500Y-88009000D03*
X134363500Y-103249000D03*
D14*
X147088900Y-109853000D03*
D13*
X146428500Y-77849000D03*
X152422900Y-105484200D03*
X155623300Y-96391000D03*
X126108500Y-89279000D03*
X133728500Y-115314000D03*
X158112500Y-99439000D03*
X149730500Y-101369400D03*
X149984500Y-108837000D03*
X153311900Y-109243400D03*
X160652500Y-103249000D03*
X132458500Y-107059000D03*
X135633500Y-110869000D03*
X159128500Y-86104000D03*
X146987300Y-112494600D03*
X133728500Y-114044000D03*
X171828500Y-109599000D03*
X159128500Y-84834000D03*
X151000500Y-105839800D03*
X151152900Y-108989400D03*
X144040900Y-107516200D03*
D14*
X155775700Y-105535000D03*
X143888500Y-109345000D03*
D13*
X150873500Y-83564000D03*
D14*
X155928100Y-112139000D03*
D13*
X158823700Y-105992200D03*
X150848100Y-100150200D03*
X152422900Y-95832200D03*
X148968500Y-77849000D03*
D14*
X148104900Y-109802200D03*
D13*
%TO.N,/VBACKUP*%
X150604225Y-90555979D03*
X128648500Y-100074000D03*
%TO.N,+3V3*%
X146936500Y-88263000D03*
X146936500Y-80643000D03*
X147190500Y-104773000D03*
%TO.N,+5V*%
X157858500Y-75563000D03*
D14*
X171912501Y-88601001D03*
D13*
X151762500Y-118997000D03*
D14*
X132204500Y-78992000D03*
D13*
X168526500Y-109599000D03*
D14*
X161224000Y-78928500D03*
D13*
%TO.N,/SAFETY_SW_LED*%
X136924752Y-114725652D03*
X158630188Y-80506312D03*
X154048500Y-80516000D03*
%TO.N,/RTK_STAT*%
X159636500Y-94105000D03*
X139570500Y-109345000D03*
X128394500Y-110615000D03*
%TO.N,/BUZZER*%
X160906500Y-97407000D03*
X156588500Y-79666000D03*
X162723499Y-104280003D03*
X136395500Y-116457000D03*
X160328574Y-114876861D03*
%TO.N,/GEO_STAT*%
X138720490Y-108356215D03*
X158798499Y-90726999D03*
X128267500Y-109218000D03*
%TO.N,/SAFETY_SW*%
X136928900Y-113409000D03*
X155318500Y-83564000D03*
%TO.N,Net-(D10-K)*%
X134938500Y-86159000D03*
X132698500Y-83219000D03*
%TO.N,/SDA1*%
X141475500Y-116457000D03*
X157858500Y-116457000D03*
%TO.N,/TX*%
X124025700Y-104265000D03*
X143937541Y-116467041D03*
X143380500Y-82167000D03*
%TO.N,/RX*%
X133894500Y-82914206D03*
X145412500Y-116457000D03*
X133855500Y-94486000D03*
X123974900Y-102233000D03*
%TO.N,/SDA*%
X123949500Y-108329000D03*
X139062500Y-82789011D03*
%TO.N,/SCL*%
X124076500Y-106297000D03*
X141094500Y-82421000D03*
%TO.N,Net-(J5-Pad1)*%
X135633500Y-80389000D03*
X146047500Y-91819000D03*
%TO.N,Net-(J5-Pad2)*%
X146815723Y-91178814D03*
X137030500Y-80389000D03*
%TO.N,Net-(J5-Pad3)*%
X138681500Y-94486000D03*
X124076500Y-110361000D03*
X138554500Y-80389000D03*
%TO.N,Net-(J5-Pad6)*%
X133982500Y-79119000D03*
X141953500Y-80105000D03*
%TO.N,/D1-*%
X140658477Y-91140000D03*
X146356448Y-98477948D03*
%TO.N,/D1+*%
X147444500Y-98296000D03*
X140658477Y-90090000D03*
%TO.N,/SAFE_VCC*%
X137623259Y-116626241D03*
X152778500Y-80008000D03*
%TO.N,/VBUS*%
X131696500Y-85469000D03*
X131175500Y-90409000D03*
X135317500Y-90422000D03*
%TD*%
D16*
%TO.N,/VBACKUP*%
X144515204Y-96645000D02*
X150604225Y-90555979D01*
X132077500Y-96645000D02*
X144515204Y-96645000D01*
X128648500Y-100074000D02*
X132077500Y-96645000D01*
%TO.N,/RTK_STAT*%
X149527300Y-94105000D02*
X139570500Y-104061800D01*
X139570500Y-104061800D02*
X139570500Y-109345000D01*
X159636500Y-94105000D02*
X149527300Y-94105000D01*
%TO.N,/BUZZER*%
X160906500Y-97407000D02*
X162723499Y-99223999D01*
X159128500Y-82206000D02*
X156588500Y-79666000D01*
X162723499Y-99223999D02*
X162723499Y-104280003D01*
X159128500Y-82206000D02*
X160906500Y-83984000D01*
X160906500Y-83984000D02*
X160906500Y-97407000D01*
%TO.N,/GEO_STAT*%
X158798499Y-90726999D02*
X151635301Y-90726999D01*
X138720490Y-103641810D02*
X138720490Y-108356215D01*
X151635301Y-90726999D02*
X138720490Y-103641810D01*
%TO.N,/TX*%
X143937541Y-116467041D02*
X131735500Y-104265000D01*
X131735500Y-104265000D02*
X124025700Y-104265000D01*
%TO.N,/RX*%
X133894500Y-83349000D02*
X133894500Y-82914206D01*
X137284500Y-86739000D02*
X133894500Y-83349000D01*
X133855500Y-94486000D02*
X137284500Y-91057000D01*
X131188500Y-102233000D02*
X123974900Y-102233000D01*
X145412500Y-116457000D02*
X131188500Y-102233000D01*
X137284500Y-91057000D02*
X137284500Y-86739000D01*
X133894499Y-94447001D02*
X133855500Y-94486000D01*
%TO.N,Net-(J5-Pad1)*%
X135633500Y-82790002D02*
X135633500Y-80389000D01*
X143038499Y-88809999D02*
X141653497Y-88809999D01*
X146047500Y-91819000D02*
X143038499Y-88809999D01*
X141653497Y-88809999D02*
X135633500Y-82790002D01*
%TO.N,Net-(J5-Pad2)*%
X137030500Y-81659000D02*
X137030500Y-80389000D01*
X146815723Y-91178814D02*
X143645909Y-88009000D01*
X141856500Y-88009000D02*
X138046500Y-84199000D01*
X137030500Y-83183000D02*
X137030500Y-81659000D01*
X138046500Y-84199000D02*
X137030500Y-83183000D01*
X143645909Y-88009000D02*
X141856500Y-88009000D01*
%TO.N,Net-(J5-Pad3)*%
X137323499Y-79538999D02*
X135225499Y-79538999D01*
X138642501Y-94447001D02*
X138681500Y-94486000D01*
X135225499Y-79538999D02*
X134744500Y-80019998D01*
X137323499Y-79538999D02*
X137704499Y-79538999D01*
X138681500Y-87120000D02*
X138681500Y-94486000D01*
X134744500Y-83183000D02*
X138681500Y-87120000D01*
X137704499Y-79538999D02*
X138554500Y-80389000D01*
X134744500Y-80019998D02*
X134744500Y-83183000D01*
%TD*%
%TA.AperFunction,Conductor*%
%TO.N,GND*%
G36*
X172662208Y-73194322D02*
G01*
X172692648Y-73247045D01*
X172694000Y-73262500D01*
X172694000Y-88340436D01*
X172673178Y-88397644D01*
X172620455Y-88428084D01*
X172560500Y-88417512D01*
X172522775Y-88374495D01*
X172505168Y-88331989D01*
X172488966Y-88292874D01*
X172417777Y-88186332D01*
X172327170Y-88095725D01*
X172220628Y-88024536D01*
X172220625Y-88024534D01*
X172220624Y-88024534D01*
X172102245Y-87975500D01*
X172102243Y-87975499D01*
X171976573Y-87950501D01*
X171976570Y-87950501D01*
X171848432Y-87950501D01*
X171848428Y-87950501D01*
X171722758Y-87975499D01*
X171722756Y-87975500D01*
X171604377Y-88024534D01*
X171604374Y-88024536D01*
X171497834Y-88095723D01*
X171407223Y-88186334D01*
X171336036Y-88292874D01*
X171336034Y-88292877D01*
X171287000Y-88411256D01*
X171286999Y-88411258D01*
X171262001Y-88536928D01*
X171262001Y-88665073D01*
X171286999Y-88790743D01*
X171287000Y-88790745D01*
X171316334Y-88861565D01*
X171336036Y-88909128D01*
X171407225Y-89015670D01*
X171497832Y-89106277D01*
X171604374Y-89177466D01*
X171722757Y-89226502D01*
X171848432Y-89251501D01*
X171848436Y-89251501D01*
X171976566Y-89251501D01*
X171976570Y-89251501D01*
X172102245Y-89226502D01*
X172220628Y-89177466D01*
X172327170Y-89106277D01*
X172417777Y-89015670D01*
X172488966Y-88909128D01*
X172522775Y-88827505D01*
X172563904Y-88782621D01*
X172624263Y-88774675D01*
X172675608Y-88807385D01*
X172694000Y-88861565D01*
X172694000Y-123075500D01*
X172673178Y-123132708D01*
X172620455Y-123163148D01*
X172605000Y-123164500D01*
X122792000Y-123164500D01*
X122734792Y-123143678D01*
X122704352Y-123090955D01*
X122703000Y-123075500D01*
X122703000Y-118928002D01*
X151062000Y-118928002D01*
X151062000Y-119065997D01*
X151088919Y-119201325D01*
X151088920Y-119201328D01*
X151141725Y-119328811D01*
X151218386Y-119443542D01*
X151315958Y-119541114D01*
X151430689Y-119617775D01*
X151558172Y-119670580D01*
X151693507Y-119697500D01*
X151693511Y-119697500D01*
X151831489Y-119697500D01*
X151831493Y-119697500D01*
X151966828Y-119670580D01*
X152094311Y-119617775D01*
X152209042Y-119541114D01*
X152306614Y-119443542D01*
X152383275Y-119328811D01*
X152436080Y-119201328D01*
X152463000Y-119065993D01*
X152463000Y-118928007D01*
X152436080Y-118792672D01*
X152383275Y-118665189D01*
X152306614Y-118550458D01*
X152209042Y-118452886D01*
X152094311Y-118376225D01*
X152094308Y-118376223D01*
X152094307Y-118376223D01*
X152036547Y-118352298D01*
X151966828Y-118323420D01*
X151966826Y-118323419D01*
X151966825Y-118323419D01*
X151831497Y-118296500D01*
X151831493Y-118296500D01*
X151693507Y-118296500D01*
X151693502Y-118296500D01*
X151558174Y-118323419D01*
X151558172Y-118323420D01*
X151430692Y-118376223D01*
X151430689Y-118376225D01*
X151315960Y-118452884D01*
X151218384Y-118550460D01*
X151141725Y-118665189D01*
X151141723Y-118665192D01*
X151088920Y-118792672D01*
X151088919Y-118792674D01*
X151062000Y-118928002D01*
X122703000Y-118928002D01*
X122703000Y-116388002D01*
X135695000Y-116388002D01*
X135695000Y-116525997D01*
X135721919Y-116661325D01*
X135721920Y-116661328D01*
X135726079Y-116671369D01*
X135774721Y-116788803D01*
X135774725Y-116788811D01*
X135851386Y-116903542D01*
X135948958Y-117001114D01*
X136063689Y-117077775D01*
X136191172Y-117130580D01*
X136326507Y-117157500D01*
X136326511Y-117157500D01*
X136464489Y-117157500D01*
X136464493Y-117157500D01*
X136599828Y-117130580D01*
X136727311Y-117077775D01*
X136842042Y-117001114D01*
X136878785Y-116964370D01*
X136933959Y-116938642D01*
X136992764Y-116954398D01*
X137015715Y-116977854D01*
X137079145Y-117072783D01*
X137176717Y-117170355D01*
X137291448Y-117247016D01*
X137418931Y-117299821D01*
X137554266Y-117326741D01*
X137554270Y-117326741D01*
X137692248Y-117326741D01*
X137692252Y-117326741D01*
X137827587Y-117299821D01*
X137955070Y-117247016D01*
X138069801Y-117170355D01*
X138167373Y-117072783D01*
X138244034Y-116958052D01*
X138296839Y-116830569D01*
X138323759Y-116695234D01*
X138323759Y-116557248D01*
X138296839Y-116421913D01*
X138282793Y-116388002D01*
X140775000Y-116388002D01*
X140775000Y-116525997D01*
X140801919Y-116661325D01*
X140801920Y-116661328D01*
X140806079Y-116671369D01*
X140854721Y-116788803D01*
X140854725Y-116788811D01*
X140931386Y-116903542D01*
X141028958Y-117001114D01*
X141143689Y-117077775D01*
X141271172Y-117130580D01*
X141406507Y-117157500D01*
X141406511Y-117157500D01*
X141544489Y-117157500D01*
X141544493Y-117157500D01*
X141679828Y-117130580D01*
X141807311Y-117077775D01*
X141922042Y-117001114D01*
X142019614Y-116903542D01*
X142096275Y-116788811D01*
X142149080Y-116661328D01*
X142176000Y-116525993D01*
X142176000Y-116388007D01*
X142149080Y-116252672D01*
X142096275Y-116125189D01*
X142019614Y-116010458D01*
X141922042Y-115912886D01*
X141807311Y-115836225D01*
X141807308Y-115836223D01*
X141807307Y-115836223D01*
X141749547Y-115812298D01*
X141679828Y-115783420D01*
X141679826Y-115783419D01*
X141679825Y-115783419D01*
X141544497Y-115756500D01*
X141544493Y-115756500D01*
X141406507Y-115756500D01*
X141406502Y-115756500D01*
X141271174Y-115783419D01*
X141271172Y-115783420D01*
X141143692Y-115836223D01*
X141143689Y-115836225D01*
X141028960Y-115912884D01*
X140931384Y-116010460D01*
X140854725Y-116125189D01*
X140854723Y-116125192D01*
X140801920Y-116252672D01*
X140801919Y-116252674D01*
X140775000Y-116388002D01*
X138282793Y-116388002D01*
X138244034Y-116294430D01*
X138167373Y-116179699D01*
X138069801Y-116082127D01*
X137955070Y-116005466D01*
X137955067Y-116005464D01*
X137955066Y-116005464D01*
X137897306Y-115981539D01*
X137827587Y-115952661D01*
X137827585Y-115952660D01*
X137827584Y-115952660D01*
X137692256Y-115925741D01*
X137692252Y-115925741D01*
X137554266Y-115925741D01*
X137554261Y-115925741D01*
X137418933Y-115952660D01*
X137418931Y-115952661D01*
X137291451Y-116005464D01*
X137291448Y-116005466D01*
X137176716Y-116082127D01*
X137139973Y-116118870D01*
X137084797Y-116144598D01*
X137025992Y-116128841D01*
X137003040Y-116105382D01*
X136939617Y-116010462D01*
X136939615Y-116010460D01*
X136939614Y-116010458D01*
X136842042Y-115912886D01*
X136727311Y-115836225D01*
X136727308Y-115836223D01*
X136727307Y-115836223D01*
X136669547Y-115812298D01*
X136599828Y-115783420D01*
X136599826Y-115783419D01*
X136599825Y-115783419D01*
X136464497Y-115756500D01*
X136464493Y-115756500D01*
X136326507Y-115756500D01*
X136326502Y-115756500D01*
X136191174Y-115783419D01*
X136191172Y-115783420D01*
X136063692Y-115836223D01*
X136063689Y-115836225D01*
X135948960Y-115912884D01*
X135851384Y-116010460D01*
X135774725Y-116125189D01*
X135774723Y-116125192D01*
X135721920Y-116252672D01*
X135721919Y-116252674D01*
X135695000Y-116388002D01*
X122703000Y-116388002D01*
X122703000Y-114656654D01*
X136224252Y-114656654D01*
X136224252Y-114794649D01*
X136251171Y-114929977D01*
X136251172Y-114929980D01*
X136303977Y-115057463D01*
X136380638Y-115172194D01*
X136478210Y-115269766D01*
X136592941Y-115346427D01*
X136720424Y-115399232D01*
X136855759Y-115426152D01*
X136855763Y-115426152D01*
X136993741Y-115426152D01*
X136993745Y-115426152D01*
X137129080Y-115399232D01*
X137256563Y-115346427D01*
X137371294Y-115269766D01*
X137468866Y-115172194D01*
X137545527Y-115057463D01*
X137598332Y-114929980D01*
X137625252Y-114794645D01*
X137625252Y-114656659D01*
X137598332Y-114521324D01*
X137545527Y-114393841D01*
X137468866Y-114279110D01*
X137371294Y-114181538D01*
X137313187Y-114142712D01*
X137277188Y-114093615D01*
X137281170Y-114032866D01*
X137313186Y-113994712D01*
X137375442Y-113953114D01*
X137473014Y-113855542D01*
X137549675Y-113740811D01*
X137602480Y-113613328D01*
X137629400Y-113477993D01*
X137629400Y-113340007D01*
X137602480Y-113204672D01*
X137549675Y-113077189D01*
X137473014Y-112962458D01*
X137375442Y-112864886D01*
X137260711Y-112788225D01*
X137260708Y-112788223D01*
X137260707Y-112788223D01*
X137202947Y-112764298D01*
X137133228Y-112735420D01*
X137133226Y-112735419D01*
X137133225Y-112735419D01*
X136997897Y-112708500D01*
X136997893Y-112708500D01*
X136859907Y-112708500D01*
X136859902Y-112708500D01*
X136724574Y-112735419D01*
X136724572Y-112735420D01*
X136597092Y-112788223D01*
X136597089Y-112788225D01*
X136482360Y-112864884D01*
X136384784Y-112962460D01*
X136308125Y-113077189D01*
X136308123Y-113077192D01*
X136255320Y-113204672D01*
X136255319Y-113204674D01*
X136228400Y-113340002D01*
X136228400Y-113477997D01*
X136255319Y-113613325D01*
X136255320Y-113613328D01*
X136308125Y-113740811D01*
X136384786Y-113855542D01*
X136482358Y-113953114D01*
X136540464Y-113991939D01*
X136576462Y-114041035D01*
X136572481Y-114101784D01*
X136540464Y-114139941D01*
X136478212Y-114181536D01*
X136380636Y-114279112D01*
X136303977Y-114393841D01*
X136303975Y-114393844D01*
X136251172Y-114521324D01*
X136251171Y-114521326D01*
X136224252Y-114656654D01*
X122703000Y-114656654D01*
X122703000Y-110292002D01*
X123376000Y-110292002D01*
X123376000Y-110429997D01*
X123399077Y-110546010D01*
X123402920Y-110565328D01*
X123455725Y-110692811D01*
X123532386Y-110807542D01*
X123629958Y-110905114D01*
X123744689Y-110981775D01*
X123872172Y-111034580D01*
X124007507Y-111061500D01*
X124007511Y-111061500D01*
X124145489Y-111061500D01*
X124145493Y-111061500D01*
X124280828Y-111034580D01*
X124408311Y-110981775D01*
X124523042Y-110905114D01*
X124620614Y-110807542D01*
X124697275Y-110692811D01*
X124750080Y-110565328D01*
X124777000Y-110429993D01*
X124777000Y-110292007D01*
X124750080Y-110156672D01*
X124697275Y-110029189D01*
X124620614Y-109914458D01*
X124523042Y-109816886D01*
X124408311Y-109740225D01*
X124408308Y-109740223D01*
X124408307Y-109740223D01*
X124350547Y-109716298D01*
X124280828Y-109687420D01*
X124280826Y-109687419D01*
X124280825Y-109687419D01*
X124145497Y-109660500D01*
X124145493Y-109660500D01*
X124007507Y-109660500D01*
X124007502Y-109660500D01*
X123872174Y-109687419D01*
X123872172Y-109687420D01*
X123744692Y-109740223D01*
X123744689Y-109740225D01*
X123629960Y-109816884D01*
X123532384Y-109914460D01*
X123455725Y-110029189D01*
X123455723Y-110029192D01*
X123402920Y-110156672D01*
X123402919Y-110156674D01*
X123376000Y-110292002D01*
X122703000Y-110292002D01*
X122703000Y-109149002D01*
X127567000Y-109149002D01*
X127567000Y-109286997D01*
X127593919Y-109422325D01*
X127593920Y-109422327D01*
X127646524Y-109549327D01*
X127646725Y-109549811D01*
X127723386Y-109664542D01*
X127820958Y-109762114D01*
X127935689Y-109838775D01*
X128003874Y-109867018D01*
X128048758Y-109908146D01*
X128056705Y-109968504D01*
X128023994Y-110019850D01*
X128019260Y-110023242D01*
X127947963Y-110070881D01*
X127850384Y-110168460D01*
X127773725Y-110283189D01*
X127773723Y-110283192D01*
X127720920Y-110410672D01*
X127720919Y-110410674D01*
X127694000Y-110546002D01*
X127694000Y-110683997D01*
X127720919Y-110819325D01*
X127720920Y-110819328D01*
X127773725Y-110946811D01*
X127850386Y-111061542D01*
X127947958Y-111159114D01*
X128062689Y-111235775D01*
X128190172Y-111288580D01*
X128325507Y-111315500D01*
X128325511Y-111315500D01*
X128463489Y-111315500D01*
X128463493Y-111315500D01*
X128598828Y-111288580D01*
X128726311Y-111235775D01*
X128841042Y-111159114D01*
X128938614Y-111061542D01*
X129015275Y-110946811D01*
X129068080Y-110819328D01*
X129095000Y-110683993D01*
X129095000Y-110546007D01*
X129068080Y-110410672D01*
X129015275Y-110283189D01*
X128938614Y-110168458D01*
X128841042Y-110070886D01*
X128726311Y-109994225D01*
X128726308Y-109994223D01*
X128726307Y-109994223D01*
X128658126Y-109965982D01*
X128613241Y-109924853D01*
X128605295Y-109864494D01*
X128638005Y-109813149D01*
X128642727Y-109809764D01*
X128714042Y-109762114D01*
X128811614Y-109664542D01*
X128888275Y-109549811D01*
X128941080Y-109422328D01*
X128968000Y-109286993D01*
X128968000Y-109149007D01*
X128941080Y-109013672D01*
X128888275Y-108886189D01*
X128811614Y-108771458D01*
X128714042Y-108673886D01*
X128599311Y-108597225D01*
X128599308Y-108597223D01*
X128599307Y-108597223D01*
X128541547Y-108573298D01*
X128471828Y-108544420D01*
X128471826Y-108544419D01*
X128471825Y-108544419D01*
X128336497Y-108517500D01*
X128336493Y-108517500D01*
X128198507Y-108517500D01*
X128198502Y-108517500D01*
X128063174Y-108544419D01*
X128063172Y-108544420D01*
X127935692Y-108597223D01*
X127935689Y-108597225D01*
X127820960Y-108673884D01*
X127723384Y-108771460D01*
X127646725Y-108886189D01*
X127646723Y-108886192D01*
X127593920Y-109013672D01*
X127593919Y-109013674D01*
X127567000Y-109149002D01*
X122703000Y-109149002D01*
X122703000Y-108260002D01*
X123249000Y-108260002D01*
X123249000Y-108397997D01*
X123275919Y-108533325D01*
X123275920Y-108533328D01*
X123328725Y-108660811D01*
X123405386Y-108775542D01*
X123502958Y-108873114D01*
X123617689Y-108949775D01*
X123745172Y-109002580D01*
X123880507Y-109029500D01*
X123880511Y-109029500D01*
X124018489Y-109029500D01*
X124018493Y-109029500D01*
X124153828Y-109002580D01*
X124281311Y-108949775D01*
X124396042Y-108873114D01*
X124493614Y-108775542D01*
X124570275Y-108660811D01*
X124623080Y-108533328D01*
X124650000Y-108397993D01*
X124650000Y-108260007D01*
X124623080Y-108124672D01*
X124570275Y-107997189D01*
X124493614Y-107882458D01*
X124396042Y-107784886D01*
X124281311Y-107708225D01*
X124281308Y-107708223D01*
X124281307Y-107708223D01*
X124223547Y-107684298D01*
X124153828Y-107655420D01*
X124153826Y-107655419D01*
X124153825Y-107655419D01*
X124018497Y-107628500D01*
X124018493Y-107628500D01*
X123880507Y-107628500D01*
X123880502Y-107628500D01*
X123745174Y-107655419D01*
X123745172Y-107655420D01*
X123617692Y-107708223D01*
X123617689Y-107708225D01*
X123502960Y-107784884D01*
X123405384Y-107882460D01*
X123328725Y-107997189D01*
X123328723Y-107997192D01*
X123275920Y-108124672D01*
X123275919Y-108124674D01*
X123249000Y-108260002D01*
X122703000Y-108260002D01*
X122703000Y-106228002D01*
X123376000Y-106228002D01*
X123376000Y-106365997D01*
X123402919Y-106501325D01*
X123402920Y-106501328D01*
X123455725Y-106628811D01*
X123532386Y-106743542D01*
X123629958Y-106841114D01*
X123744689Y-106917775D01*
X123872172Y-106970580D01*
X124007507Y-106997500D01*
X124007511Y-106997500D01*
X124145489Y-106997500D01*
X124145493Y-106997500D01*
X124280828Y-106970580D01*
X124408311Y-106917775D01*
X124523042Y-106841114D01*
X124620614Y-106743542D01*
X124697275Y-106628811D01*
X124750080Y-106501328D01*
X124777000Y-106365993D01*
X124777000Y-106228007D01*
X124750080Y-106092672D01*
X124697275Y-105965189D01*
X124620614Y-105850458D01*
X124523042Y-105752886D01*
X124408311Y-105676225D01*
X124408308Y-105676223D01*
X124408307Y-105676223D01*
X124350547Y-105652298D01*
X124280828Y-105623420D01*
X124280826Y-105623419D01*
X124280825Y-105623419D01*
X124145497Y-105596500D01*
X124145493Y-105596500D01*
X124007507Y-105596500D01*
X124007502Y-105596500D01*
X123872174Y-105623419D01*
X123872172Y-105623420D01*
X123744692Y-105676223D01*
X123744689Y-105676225D01*
X123629960Y-105752884D01*
X123532384Y-105850460D01*
X123455725Y-105965189D01*
X123455723Y-105965192D01*
X123402920Y-106092672D01*
X123402919Y-106092674D01*
X123376000Y-106228002D01*
X122703000Y-106228002D01*
X122703000Y-102164002D01*
X123274400Y-102164002D01*
X123274400Y-102301997D01*
X123301319Y-102437325D01*
X123301320Y-102437328D01*
X123354125Y-102564811D01*
X123430786Y-102679542D01*
X123528358Y-102777114D01*
X123643089Y-102853775D01*
X123770572Y-102906580D01*
X123905907Y-102933500D01*
X123905911Y-102933500D01*
X124043889Y-102933500D01*
X124043893Y-102933500D01*
X124179228Y-102906580D01*
X124306711Y-102853775D01*
X124389437Y-102798498D01*
X124438883Y-102783500D01*
X130923609Y-102783500D01*
X130980817Y-102804322D01*
X130986542Y-102809567D01*
X131739542Y-103562567D01*
X131765270Y-103617743D01*
X131749514Y-103676548D01*
X131699644Y-103711467D01*
X131676609Y-103714500D01*
X124489683Y-103714500D01*
X124440237Y-103699501D01*
X124357511Y-103644225D01*
X124357508Y-103644223D01*
X124357507Y-103644223D01*
X124299747Y-103620298D01*
X124230028Y-103591420D01*
X124230026Y-103591419D01*
X124230025Y-103591419D01*
X124094697Y-103564500D01*
X124094693Y-103564500D01*
X123956707Y-103564500D01*
X123956702Y-103564500D01*
X123821374Y-103591419D01*
X123821372Y-103591420D01*
X123693892Y-103644223D01*
X123693889Y-103644225D01*
X123579160Y-103720884D01*
X123481584Y-103818460D01*
X123404925Y-103933189D01*
X123404923Y-103933192D01*
X123352120Y-104060672D01*
X123352119Y-104060674D01*
X123325200Y-104196002D01*
X123325200Y-104333997D01*
X123346523Y-104441192D01*
X123352120Y-104469328D01*
X123404925Y-104596811D01*
X123481586Y-104711542D01*
X123579158Y-104809114D01*
X123693889Y-104885775D01*
X123821372Y-104938580D01*
X123956707Y-104965500D01*
X123956711Y-104965500D01*
X124094689Y-104965500D01*
X124094693Y-104965500D01*
X124230028Y-104938580D01*
X124357511Y-104885775D01*
X124440237Y-104830498D01*
X124489683Y-104815500D01*
X131470609Y-104815500D01*
X131527817Y-104836322D01*
X131533542Y-104841567D01*
X143220193Y-116528218D01*
X143244550Y-116573787D01*
X143263960Y-116671367D01*
X143312603Y-116788803D01*
X143316766Y-116798852D01*
X143393427Y-116913583D01*
X143490999Y-117011155D01*
X143605730Y-117087816D01*
X143733213Y-117140621D01*
X143868548Y-117167541D01*
X143868552Y-117167541D01*
X144006530Y-117167541D01*
X144006534Y-117167541D01*
X144141869Y-117140621D01*
X144269352Y-117087816D01*
X144384083Y-117011155D01*
X144481655Y-116913583D01*
X144558316Y-116798852D01*
X144594876Y-116710587D01*
X144636004Y-116665704D01*
X144696363Y-116657758D01*
X144747708Y-116690468D01*
X144759325Y-116710590D01*
X144791721Y-116788803D01*
X144791723Y-116788807D01*
X144791725Y-116788811D01*
X144868386Y-116903542D01*
X144965958Y-117001114D01*
X145080689Y-117077775D01*
X145208172Y-117130580D01*
X145343507Y-117157500D01*
X145343511Y-117157500D01*
X145481489Y-117157500D01*
X145481493Y-117157500D01*
X145616828Y-117130580D01*
X145744311Y-117077775D01*
X145859042Y-117001114D01*
X145956614Y-116903542D01*
X146033275Y-116788811D01*
X146086080Y-116661328D01*
X146113000Y-116525993D01*
X146113000Y-116388007D01*
X146112999Y-116388002D01*
X157158000Y-116388002D01*
X157158000Y-116525997D01*
X157184919Y-116661325D01*
X157184920Y-116661328D01*
X157189079Y-116671369D01*
X157237721Y-116788803D01*
X157237725Y-116788811D01*
X157314386Y-116903542D01*
X157411958Y-117001114D01*
X157526689Y-117077775D01*
X157654172Y-117130580D01*
X157789507Y-117157500D01*
X157789511Y-117157500D01*
X157927489Y-117157500D01*
X157927493Y-117157500D01*
X158062828Y-117130580D01*
X158190311Y-117077775D01*
X158305042Y-117001114D01*
X158402614Y-116903542D01*
X158479275Y-116788811D01*
X158532080Y-116661328D01*
X158559000Y-116525993D01*
X158559000Y-116388007D01*
X158532080Y-116252672D01*
X158479275Y-116125189D01*
X158402614Y-116010458D01*
X158305042Y-115912886D01*
X158190311Y-115836225D01*
X158190308Y-115836223D01*
X158190307Y-115836223D01*
X158132547Y-115812298D01*
X158062828Y-115783420D01*
X158062826Y-115783419D01*
X158062825Y-115783419D01*
X157927497Y-115756500D01*
X157927493Y-115756500D01*
X157789507Y-115756500D01*
X157789502Y-115756500D01*
X157654174Y-115783419D01*
X157654172Y-115783420D01*
X157526692Y-115836223D01*
X157526689Y-115836225D01*
X157411960Y-115912884D01*
X157314384Y-116010460D01*
X157237725Y-116125189D01*
X157237723Y-116125192D01*
X157184920Y-116252672D01*
X157184919Y-116252674D01*
X157158000Y-116388002D01*
X146112999Y-116388002D01*
X146086080Y-116252672D01*
X146033275Y-116125189D01*
X145956614Y-116010458D01*
X145859042Y-115912886D01*
X145744311Y-115836225D01*
X145744308Y-115836223D01*
X145744307Y-115836223D01*
X145669628Y-115805290D01*
X145616828Y-115783420D01*
X145616826Y-115783419D01*
X145616827Y-115783419D01*
X145519246Y-115764009D01*
X145473677Y-115739652D01*
X144541888Y-114807863D01*
X159628074Y-114807863D01*
X159628074Y-114945858D01*
X159654993Y-115081186D01*
X159654994Y-115081189D01*
X159707799Y-115208672D01*
X159784460Y-115323403D01*
X159882032Y-115420975D01*
X159996763Y-115497636D01*
X160124246Y-115550441D01*
X160259581Y-115577361D01*
X160259585Y-115577361D01*
X160397563Y-115577361D01*
X160397567Y-115577361D01*
X160532902Y-115550441D01*
X160660385Y-115497636D01*
X160775116Y-115420975D01*
X160872688Y-115323403D01*
X160949349Y-115208672D01*
X161002154Y-115081189D01*
X161029074Y-114945854D01*
X161029074Y-114807868D01*
X161002154Y-114672533D01*
X160949349Y-114545050D01*
X160872688Y-114430319D01*
X160775116Y-114332747D01*
X160660385Y-114256086D01*
X160660382Y-114256084D01*
X160660381Y-114256084D01*
X160602621Y-114232159D01*
X160532902Y-114203281D01*
X160532900Y-114203280D01*
X160532899Y-114203280D01*
X160397571Y-114176361D01*
X160397567Y-114176361D01*
X160259581Y-114176361D01*
X160259576Y-114176361D01*
X160124248Y-114203280D01*
X160124246Y-114203281D01*
X159996766Y-114256084D01*
X159996763Y-114256086D01*
X159882034Y-114332745D01*
X159784458Y-114430321D01*
X159707799Y-114545050D01*
X159707797Y-114545053D01*
X159654994Y-114672533D01*
X159654993Y-114672535D01*
X159628074Y-114807863D01*
X144541888Y-114807863D01*
X139853299Y-110119274D01*
X139827571Y-110064098D01*
X139843327Y-110005293D01*
X139882171Y-109974117D01*
X139902311Y-109965775D01*
X140017042Y-109889114D01*
X140114614Y-109791542D01*
X140191275Y-109676811D01*
X140244080Y-109549328D01*
X140247924Y-109530002D01*
X167826000Y-109530002D01*
X167826000Y-109667997D01*
X167852919Y-109803325D01*
X167852920Y-109803327D01*
X167900625Y-109918500D01*
X167905725Y-109930811D01*
X167982386Y-110045542D01*
X168079958Y-110143114D01*
X168194689Y-110219775D01*
X168322172Y-110272580D01*
X168457507Y-110299500D01*
X168457511Y-110299500D01*
X168595489Y-110299500D01*
X168595493Y-110299500D01*
X168730828Y-110272580D01*
X168858311Y-110219775D01*
X168973042Y-110143114D01*
X169070614Y-110045542D01*
X169147275Y-109930811D01*
X169200080Y-109803328D01*
X169227000Y-109667993D01*
X169227000Y-109530007D01*
X169200080Y-109394672D01*
X169147275Y-109267189D01*
X169070614Y-109152458D01*
X168973042Y-109054886D01*
X168858311Y-108978225D01*
X168858308Y-108978223D01*
X168858307Y-108978223D01*
X168789624Y-108949774D01*
X168730828Y-108925420D01*
X168730826Y-108925419D01*
X168730825Y-108925419D01*
X168595497Y-108898500D01*
X168595493Y-108898500D01*
X168457507Y-108898500D01*
X168457502Y-108898500D01*
X168322174Y-108925419D01*
X168322172Y-108925420D01*
X168194692Y-108978223D01*
X168194689Y-108978225D01*
X168079960Y-109054884D01*
X167982384Y-109152460D01*
X167905725Y-109267189D01*
X167905723Y-109267192D01*
X167852920Y-109394672D01*
X167852919Y-109394674D01*
X167826000Y-109530002D01*
X140247924Y-109530002D01*
X140271000Y-109413993D01*
X140271000Y-109276007D01*
X140244080Y-109140672D01*
X140191275Y-109013189D01*
X140167913Y-108978225D01*
X140135999Y-108930461D01*
X140121000Y-108881016D01*
X140121000Y-104704002D01*
X146490000Y-104704002D01*
X146490000Y-104841997D01*
X146514567Y-104965499D01*
X146516920Y-104977328D01*
X146569725Y-105104811D01*
X146646386Y-105219542D01*
X146743958Y-105317114D01*
X146858689Y-105393775D01*
X146986172Y-105446580D01*
X147121507Y-105473500D01*
X147121511Y-105473500D01*
X147259489Y-105473500D01*
X147259493Y-105473500D01*
X147394828Y-105446580D01*
X147522311Y-105393775D01*
X147637042Y-105317114D01*
X147734614Y-105219542D01*
X147811275Y-105104811D01*
X147864080Y-104977328D01*
X147891000Y-104841993D01*
X147891000Y-104704007D01*
X147864080Y-104568672D01*
X147811275Y-104441189D01*
X147734614Y-104326458D01*
X147637042Y-104228886D01*
X147522311Y-104152225D01*
X147522308Y-104152223D01*
X147522307Y-104152223D01*
X147464547Y-104128298D01*
X147394828Y-104099420D01*
X147394826Y-104099419D01*
X147394825Y-104099419D01*
X147259497Y-104072500D01*
X147259493Y-104072500D01*
X147121507Y-104072500D01*
X147121502Y-104072500D01*
X146986174Y-104099419D01*
X146986172Y-104099420D01*
X146858692Y-104152223D01*
X146858689Y-104152225D01*
X146743960Y-104228884D01*
X146646384Y-104326460D01*
X146569725Y-104441189D01*
X146569723Y-104441192D01*
X146516920Y-104568672D01*
X146516919Y-104568674D01*
X146490000Y-104704002D01*
X140121000Y-104704002D01*
X140121000Y-104326688D01*
X140141822Y-104269480D01*
X140147056Y-104263767D01*
X145605073Y-98805749D01*
X145660248Y-98780021D01*
X145719053Y-98795777D01*
X145742003Y-98819233D01*
X145812334Y-98924490D01*
X145909906Y-99022062D01*
X146024637Y-99098723D01*
X146152120Y-99151528D01*
X146287455Y-99178448D01*
X146287459Y-99178448D01*
X146425437Y-99178448D01*
X146425441Y-99178448D01*
X146560776Y-99151528D01*
X146688259Y-99098723D01*
X146802990Y-99022062D01*
X146900562Y-98924490D01*
X146920153Y-98895168D01*
X146969248Y-98859168D01*
X147029997Y-98863148D01*
X147043594Y-98870607D01*
X147112689Y-98916775D01*
X147240172Y-98969580D01*
X147375507Y-98996500D01*
X147375511Y-98996500D01*
X147513489Y-98996500D01*
X147513493Y-98996500D01*
X147648828Y-98969580D01*
X147776311Y-98916775D01*
X147891042Y-98840114D01*
X147988614Y-98742542D01*
X148065275Y-98627811D01*
X148118080Y-98500328D01*
X148145000Y-98364993D01*
X148145000Y-98227007D01*
X148118080Y-98091672D01*
X148080484Y-98000908D01*
X150424000Y-98000908D01*
X150424000Y-98237091D01*
X150460947Y-98470370D01*
X150509603Y-98620117D01*
X150533932Y-98694992D01*
X150607875Y-98840114D01*
X150641158Y-98905435D01*
X150641160Y-98905438D01*
X150779978Y-99096504D01*
X150779980Y-99096506D01*
X150779983Y-99096510D01*
X150946990Y-99263517D01*
X150946993Y-99263519D01*
X150946995Y-99263521D01*
X151135420Y-99400420D01*
X151138067Y-99402343D01*
X151348508Y-99509568D01*
X151573132Y-99582553D01*
X151806408Y-99619500D01*
X152042592Y-99619500D01*
X152275868Y-99582553D01*
X152500492Y-99509568D01*
X152710933Y-99402343D01*
X152902010Y-99263517D01*
X153069017Y-99096510D01*
X153207843Y-98905433D01*
X153315068Y-98694992D01*
X153388053Y-98470368D01*
X153425000Y-98237092D01*
X153425000Y-98000908D01*
X153388053Y-97767632D01*
X153315068Y-97543008D01*
X153207843Y-97332567D01*
X153207839Y-97332561D01*
X153069021Y-97141495D01*
X153069019Y-97141493D01*
X153069017Y-97141490D01*
X152902010Y-96974483D01*
X152902006Y-96974480D01*
X152902004Y-96974478D01*
X152710938Y-96835660D01*
X152710935Y-96835658D01*
X152703350Y-96831793D01*
X152500492Y-96728432D01*
X152425617Y-96704103D01*
X152275870Y-96655447D01*
X152042592Y-96618500D01*
X151806408Y-96618500D01*
X151573129Y-96655447D01*
X151348508Y-96728432D01*
X151138064Y-96835658D01*
X151138061Y-96835660D01*
X150946995Y-96974478D01*
X150779978Y-97141495D01*
X150641160Y-97332561D01*
X150641158Y-97332564D01*
X150533932Y-97543008D01*
X150460947Y-97767629D01*
X150424000Y-98000908D01*
X148080484Y-98000908D01*
X148065275Y-97964189D01*
X147988614Y-97849458D01*
X147891042Y-97751886D01*
X147776311Y-97675225D01*
X147776308Y-97675223D01*
X147776307Y-97675223D01*
X147718547Y-97651298D01*
X147648828Y-97622420D01*
X147648826Y-97622419D01*
X147648825Y-97622419D01*
X147513497Y-97595500D01*
X147513493Y-97595500D01*
X147375507Y-97595500D01*
X147375502Y-97595500D01*
X147240174Y-97622419D01*
X147240172Y-97622420D01*
X147112692Y-97675223D01*
X147112689Y-97675225D01*
X146997960Y-97751884D01*
X146900383Y-97849461D01*
X146880792Y-97878781D01*
X146831695Y-97914779D01*
X146770946Y-97910796D01*
X146757347Y-97903335D01*
X146697737Y-97863506D01*
X146661738Y-97814411D01*
X146665719Y-97753662D01*
X146684247Y-97726575D01*
X149729257Y-94681567D01*
X149784432Y-94655839D01*
X149792189Y-94655500D01*
X159172517Y-94655500D01*
X159221962Y-94670498D01*
X159304689Y-94725775D01*
X159432172Y-94778580D01*
X159567507Y-94805500D01*
X159567511Y-94805500D01*
X159705489Y-94805500D01*
X159705493Y-94805500D01*
X159840828Y-94778580D01*
X159968311Y-94725775D01*
X160083042Y-94649114D01*
X160180614Y-94551542D01*
X160192999Y-94533007D01*
X160242095Y-94497008D01*
X160302844Y-94500989D01*
X160346821Y-94543088D01*
X160356000Y-94582452D01*
X160356000Y-96943016D01*
X160341001Y-96992461D01*
X160285728Y-97075183D01*
X160285723Y-97075192D01*
X160232920Y-97202672D01*
X160232919Y-97202674D01*
X160206000Y-97338002D01*
X160206000Y-97475997D01*
X160232919Y-97611325D01*
X160232920Y-97611328D01*
X160285725Y-97738811D01*
X160362386Y-97853542D01*
X160459958Y-97951114D01*
X160574689Y-98027775D01*
X160648004Y-98058143D01*
X160702166Y-98080578D01*
X160702167Y-98080578D01*
X160702172Y-98080580D01*
X160799753Y-98099990D01*
X160845322Y-98124347D01*
X162146931Y-99425955D01*
X162172660Y-99481131D01*
X162172999Y-99488888D01*
X162172999Y-103816019D01*
X162158000Y-103865464D01*
X162102727Y-103948186D01*
X162102722Y-103948195D01*
X162049919Y-104075675D01*
X162049918Y-104075677D01*
X162022999Y-104211005D01*
X162022999Y-104349000D01*
X162049918Y-104484328D01*
X162049919Y-104484330D01*
X162096509Y-104596811D01*
X162102724Y-104611814D01*
X162179385Y-104726545D01*
X162276957Y-104824117D01*
X162391688Y-104900778D01*
X162519171Y-104953583D01*
X162654506Y-104980503D01*
X162654510Y-104980503D01*
X162792488Y-104980503D01*
X162792492Y-104980503D01*
X162927827Y-104953583D01*
X163055310Y-104900778D01*
X163170041Y-104824117D01*
X163267613Y-104726545D01*
X163344274Y-104611814D01*
X163397079Y-104484331D01*
X163423999Y-104348996D01*
X163423999Y-104211010D01*
X163397079Y-104075675D01*
X163344274Y-103948192D01*
X163344270Y-103948186D01*
X163288998Y-103865464D01*
X163273999Y-103816019D01*
X163273999Y-99151523D01*
X163236485Y-99011521D01*
X163236484Y-99011520D01*
X163236483Y-99011514D01*
X163186240Y-98924490D01*
X163164009Y-98885985D01*
X161623847Y-97345822D01*
X161599490Y-97300253D01*
X161583838Y-97221567D01*
X161580080Y-97202672D01*
X161577109Y-97195500D01*
X161540244Y-97106500D01*
X161527275Y-97075189D01*
X161525976Y-97073245D01*
X161471999Y-96992461D01*
X161457000Y-96943016D01*
X161457000Y-95649713D01*
X167208000Y-95649713D01*
X167208000Y-95862286D01*
X167241254Y-96072244D01*
X167274098Y-96173327D01*
X167306943Y-96274412D01*
X167403449Y-96463816D01*
X167528396Y-96635792D01*
X167678708Y-96786104D01*
X167850684Y-96911051D01*
X168040088Y-97007557D01*
X168242257Y-97073246D01*
X168452213Y-97106500D01*
X168664787Y-97106500D01*
X168874743Y-97073246D01*
X169076912Y-97007557D01*
X169266316Y-96911051D01*
X169438292Y-96786104D01*
X169588604Y-96635792D01*
X169713551Y-96463816D01*
X169810057Y-96274412D01*
X169875746Y-96072243D01*
X169909000Y-95862287D01*
X169909000Y-95649713D01*
X169875746Y-95439757D01*
X169810057Y-95237588D01*
X169713551Y-95048184D01*
X169588604Y-94876208D01*
X169438292Y-94725896D01*
X169266316Y-94600949D01*
X169076912Y-94504443D01*
X168975827Y-94471598D01*
X168874744Y-94438754D01*
X168664787Y-94405500D01*
X168452213Y-94405500D01*
X168242255Y-94438754D01*
X168040088Y-94504443D01*
X167850684Y-94600949D01*
X167678709Y-94725895D01*
X167528395Y-94876209D01*
X167403449Y-95048184D01*
X167306943Y-95237588D01*
X167241254Y-95439755D01*
X167208000Y-95649713D01*
X161457000Y-95649713D01*
X161457000Y-92220713D01*
X167208000Y-92220713D01*
X167208000Y-92433287D01*
X167209028Y-92439775D01*
X167231712Y-92583001D01*
X167241254Y-92643243D01*
X167306943Y-92845412D01*
X167403449Y-93034816D01*
X167528396Y-93206792D01*
X167678708Y-93357104D01*
X167850684Y-93482051D01*
X168040088Y-93578557D01*
X168242257Y-93644246D01*
X168452213Y-93677500D01*
X168664787Y-93677500D01*
X168874743Y-93644246D01*
X169076912Y-93578557D01*
X169266316Y-93482051D01*
X169438292Y-93357104D01*
X169588604Y-93206792D01*
X169713551Y-93034816D01*
X169810057Y-92845412D01*
X169875746Y-92643243D01*
X169909000Y-92433287D01*
X169909000Y-92220713D01*
X169875746Y-92010757D01*
X169810057Y-91808588D01*
X169713551Y-91619184D01*
X169588604Y-91447208D01*
X169438292Y-91296896D01*
X169266316Y-91171949D01*
X169076912Y-91075443D01*
X168936358Y-91029774D01*
X168874744Y-91009754D01*
X168664787Y-90976500D01*
X168452213Y-90976500D01*
X168242255Y-91009754D01*
X168040088Y-91075443D01*
X167850684Y-91171949D01*
X167678709Y-91296895D01*
X167528395Y-91447209D01*
X167403449Y-91619184D01*
X167306943Y-91808588D01*
X167241254Y-92010755D01*
X167231079Y-92074999D01*
X167208000Y-92220713D01*
X161457000Y-92220713D01*
X161457000Y-88791713D01*
X167208000Y-88791713D01*
X167208000Y-89004287D01*
X167209803Y-89015670D01*
X167241254Y-89214244D01*
X167253360Y-89251501D01*
X167306943Y-89416412D01*
X167403449Y-89605816D01*
X167528396Y-89777792D01*
X167678708Y-89928104D01*
X167850684Y-90053051D01*
X168040088Y-90149557D01*
X168242257Y-90215246D01*
X168452213Y-90248500D01*
X168664787Y-90248500D01*
X168874743Y-90215246D01*
X169076912Y-90149557D01*
X169266316Y-90053051D01*
X169438292Y-89928104D01*
X169588604Y-89777792D01*
X169713551Y-89605816D01*
X169810057Y-89416412D01*
X169875746Y-89214243D01*
X169909000Y-89004287D01*
X169909000Y-88791713D01*
X169875746Y-88581757D01*
X169810057Y-88379588D01*
X169713551Y-88190184D01*
X169588604Y-88018208D01*
X169438292Y-87867896D01*
X169266316Y-87742949D01*
X169076912Y-87646443D01*
X168975827Y-87613598D01*
X168874744Y-87580754D01*
X168664787Y-87547500D01*
X168452213Y-87547500D01*
X168242255Y-87580754D01*
X168040088Y-87646443D01*
X167850684Y-87742949D01*
X167678709Y-87867895D01*
X167528395Y-88018209D01*
X167403449Y-88190184D01*
X167306943Y-88379588D01*
X167241254Y-88581755D01*
X167239186Y-88594811D01*
X167208000Y-88791713D01*
X161457000Y-88791713D01*
X161457000Y-85315713D01*
X167208000Y-85315713D01*
X167208000Y-85528287D01*
X167241254Y-85738243D01*
X167306943Y-85940412D01*
X167403449Y-86129816D01*
X167528396Y-86301792D01*
X167678708Y-86452104D01*
X167850684Y-86577051D01*
X168040088Y-86673557D01*
X168242257Y-86739246D01*
X168452213Y-86772500D01*
X168664787Y-86772500D01*
X168874743Y-86739246D01*
X169076912Y-86673557D01*
X169266316Y-86577051D01*
X169438292Y-86452104D01*
X169588604Y-86301792D01*
X169713551Y-86129816D01*
X169810057Y-85940412D01*
X169875746Y-85738243D01*
X169909000Y-85528287D01*
X169909000Y-85315713D01*
X169875746Y-85105757D01*
X169810057Y-84903588D01*
X169713551Y-84714184D01*
X169588604Y-84542208D01*
X169438292Y-84391896D01*
X169266316Y-84266949D01*
X169076912Y-84170443D01*
X168975827Y-84137598D01*
X168874744Y-84104754D01*
X168664787Y-84071500D01*
X168452213Y-84071500D01*
X168242255Y-84104754D01*
X168040088Y-84170443D01*
X167850684Y-84266949D01*
X167678709Y-84391895D01*
X167528395Y-84542209D01*
X167403449Y-84714184D01*
X167306943Y-84903588D01*
X167241254Y-85105755D01*
X167232369Y-85161853D01*
X167208000Y-85315713D01*
X161457000Y-85315713D01*
X161457000Y-83911524D01*
X161419486Y-83771522D01*
X161419485Y-83771521D01*
X161419484Y-83771515D01*
X161389453Y-83719500D01*
X161347010Y-83645985D01*
X160407069Y-82706044D01*
X159466515Y-81765489D01*
X159466515Y-81765490D01*
X158958423Y-81257398D01*
X158932695Y-81202222D01*
X158948451Y-81143417D01*
X158971907Y-81120466D01*
X159076730Y-81050426D01*
X159174302Y-80952854D01*
X159250963Y-80838123D01*
X159303768Y-80710640D01*
X159330688Y-80575305D01*
X159330688Y-80437319D01*
X159303768Y-80301984D01*
X159250963Y-80174501D01*
X159174302Y-80059770D01*
X159076730Y-79962198D01*
X158961999Y-79885537D01*
X158961996Y-79885535D01*
X158961995Y-79885535D01*
X158863858Y-79844886D01*
X158834516Y-79832732D01*
X158834514Y-79832731D01*
X158834513Y-79832731D01*
X158699185Y-79805812D01*
X158699181Y-79805812D01*
X158561195Y-79805812D01*
X158561190Y-79805812D01*
X158425862Y-79832731D01*
X158425860Y-79832732D01*
X158298380Y-79885535D01*
X158298377Y-79885537D01*
X158183648Y-79962196D01*
X158086069Y-80059775D01*
X158016034Y-80164589D01*
X157966938Y-80200588D01*
X157906189Y-80196605D01*
X157879101Y-80178076D01*
X157305846Y-79604821D01*
X157281489Y-79559252D01*
X157262080Y-79461672D01*
X157257581Y-79450811D01*
X157231242Y-79387223D01*
X157209275Y-79334189D01*
X157132614Y-79219458D01*
X157035042Y-79121886D01*
X156920311Y-79045225D01*
X156920308Y-79045223D01*
X156920307Y-79045223D01*
X156862547Y-79021298D01*
X156792828Y-78992420D01*
X156792826Y-78992419D01*
X156792825Y-78992419D01*
X156657497Y-78965500D01*
X156657493Y-78965500D01*
X156519507Y-78965500D01*
X156519502Y-78965500D01*
X156384174Y-78992419D01*
X156384172Y-78992420D01*
X156256692Y-79045223D01*
X156256689Y-79045225D01*
X156141960Y-79121884D01*
X156044384Y-79219460D01*
X155967725Y-79334189D01*
X155967723Y-79334192D01*
X155914920Y-79461672D01*
X155914919Y-79461674D01*
X155888000Y-79597002D01*
X155888000Y-79734997D01*
X155914919Y-79870325D01*
X155914920Y-79870327D01*
X155960768Y-79981017D01*
X155967725Y-79997811D01*
X156044386Y-80112542D01*
X156141958Y-80210114D01*
X156256689Y-80286775D01*
X156315630Y-80311189D01*
X156384166Y-80339578D01*
X156384167Y-80339578D01*
X156384172Y-80339580D01*
X156481752Y-80358989D01*
X156527321Y-80383346D01*
X160329933Y-84185958D01*
X160355661Y-84241134D01*
X160356000Y-84248891D01*
X160356000Y-93627547D01*
X160335178Y-93684755D01*
X160282455Y-93715195D01*
X160222500Y-93704623D01*
X160193000Y-93676994D01*
X160180616Y-93658461D01*
X160180614Y-93658458D01*
X160083042Y-93560886D01*
X159968311Y-93484225D01*
X159968308Y-93484223D01*
X159968307Y-93484223D01*
X159910547Y-93460298D01*
X159840828Y-93431420D01*
X159840826Y-93431419D01*
X159840825Y-93431419D01*
X159705497Y-93404500D01*
X159705493Y-93404500D01*
X159567507Y-93404500D01*
X159567502Y-93404500D01*
X159432174Y-93431419D01*
X159432172Y-93431420D01*
X159304692Y-93484223D01*
X159304689Y-93484225D01*
X159230678Y-93533678D01*
X159221963Y-93539501D01*
X159172517Y-93554500D01*
X149801191Y-93554500D01*
X149743983Y-93533678D01*
X149713543Y-93480955D01*
X149724115Y-93421000D01*
X149738258Y-93402567D01*
X151837259Y-91303566D01*
X151892435Y-91277838D01*
X151900192Y-91277499D01*
X158334516Y-91277499D01*
X158383961Y-91292497D01*
X158466688Y-91347774D01*
X158594171Y-91400579D01*
X158729506Y-91427499D01*
X158729510Y-91427499D01*
X158867488Y-91427499D01*
X158867492Y-91427499D01*
X159002827Y-91400579D01*
X159130310Y-91347774D01*
X159245041Y-91271113D01*
X159342613Y-91173541D01*
X159419274Y-91058810D01*
X159472079Y-90931327D01*
X159498999Y-90795992D01*
X159498999Y-90658006D01*
X159472079Y-90522671D01*
X159419274Y-90395188D01*
X159342613Y-90280457D01*
X159245041Y-90182885D01*
X159130310Y-90106224D01*
X159130307Y-90106222D01*
X159130306Y-90106222D01*
X159060213Y-90077189D01*
X159002827Y-90053419D01*
X159002825Y-90053418D01*
X159002824Y-90053418D01*
X158867496Y-90026499D01*
X158867492Y-90026499D01*
X158729506Y-90026499D01*
X158729501Y-90026499D01*
X158594173Y-90053418D01*
X158594171Y-90053419D01*
X158466691Y-90106222D01*
X158466688Y-90106224D01*
X158383962Y-90161500D01*
X158334516Y-90176499D01*
X151562826Y-90176499D01*
X151465304Y-90202630D01*
X151465302Y-90202630D01*
X151457684Y-90204672D01*
X151422816Y-90214015D01*
X151343878Y-90259588D01*
X151340440Y-90261202D01*
X151313666Y-90263606D01*
X151287187Y-90268275D01*
X151283753Y-90266292D01*
X151279804Y-90266647D01*
X151257747Y-90251277D01*
X151234464Y-90237834D01*
X151230908Y-90232574D01*
X151229855Y-90231841D01*
X151229483Y-90230468D01*
X151227603Y-90227687D01*
X151227429Y-90227804D01*
X151220660Y-90217674D01*
X151148339Y-90109437D01*
X151050767Y-90011865D01*
X150936036Y-89935204D01*
X150936033Y-89935202D01*
X150936032Y-89935202D01*
X150878272Y-89911277D01*
X150808553Y-89882399D01*
X150808551Y-89882398D01*
X150808550Y-89882398D01*
X150673222Y-89855479D01*
X150673218Y-89855479D01*
X150535232Y-89855479D01*
X150535227Y-89855479D01*
X150399899Y-89882398D01*
X150399897Y-89882399D01*
X150272417Y-89935202D01*
X150272414Y-89935204D01*
X150157685Y-90011863D01*
X150060109Y-90109439D01*
X149983450Y-90224168D01*
X149983448Y-90224171D01*
X149930644Y-90351652D01*
X149911234Y-90449232D01*
X149886877Y-90494800D01*
X144313247Y-96068432D01*
X144258071Y-96094161D01*
X144250314Y-96094500D01*
X132005025Y-96094500D01*
X131865022Y-96132013D01*
X131865014Y-96132016D01*
X131739485Y-96204489D01*
X128587321Y-99356652D01*
X128541753Y-99381009D01*
X128444173Y-99400419D01*
X128316692Y-99453223D01*
X128316689Y-99453225D01*
X128201960Y-99529884D01*
X128104384Y-99627460D01*
X128027725Y-99742189D01*
X128027723Y-99742192D01*
X127974920Y-99869672D01*
X127974919Y-99869674D01*
X127948000Y-100005002D01*
X127948000Y-100142997D01*
X127955509Y-100180745D01*
X127974920Y-100278328D01*
X128027725Y-100405811D01*
X128104386Y-100520542D01*
X128201958Y-100618114D01*
X128316689Y-100694775D01*
X128444172Y-100747580D01*
X128579507Y-100774500D01*
X128579511Y-100774500D01*
X128717489Y-100774500D01*
X128717493Y-100774500D01*
X128852828Y-100747580D01*
X128980311Y-100694775D01*
X129095042Y-100618114D01*
X129192614Y-100520542D01*
X129269275Y-100405811D01*
X129322080Y-100278328D01*
X129341490Y-100180744D01*
X129365846Y-100135177D01*
X132279458Y-97221567D01*
X132334633Y-97195839D01*
X132342390Y-97195500D01*
X144173409Y-97195500D01*
X144230617Y-97216322D01*
X144261057Y-97269045D01*
X144250485Y-97329000D01*
X144236342Y-97347432D01*
X138279979Y-103303795D01*
X138207506Y-103429324D01*
X138207503Y-103429332D01*
X138169990Y-103569334D01*
X138169990Y-107892231D01*
X138154991Y-107941676D01*
X138099718Y-108024398D01*
X138099713Y-108024408D01*
X138050727Y-108142670D01*
X138009597Y-108187555D01*
X137949239Y-108195501D01*
X137905570Y-108171544D01*
X131526514Y-101792489D01*
X131400985Y-101720016D01*
X131400977Y-101720013D01*
X131260975Y-101682500D01*
X124438883Y-101682500D01*
X124389437Y-101667501D01*
X124306711Y-101612225D01*
X124306708Y-101612223D01*
X124306707Y-101612223D01*
X124248947Y-101588298D01*
X124179228Y-101559420D01*
X124179226Y-101559419D01*
X124179225Y-101559419D01*
X124043897Y-101532500D01*
X124043893Y-101532500D01*
X123905907Y-101532500D01*
X123905902Y-101532500D01*
X123770574Y-101559419D01*
X123770572Y-101559420D01*
X123643092Y-101612223D01*
X123643089Y-101612225D01*
X123528360Y-101688884D01*
X123430784Y-101786460D01*
X123354125Y-101901189D01*
X123354123Y-101901192D01*
X123301320Y-102028672D01*
X123301319Y-102028674D01*
X123274400Y-102164002D01*
X122703000Y-102164002D01*
X122703000Y-94887713D01*
X124853000Y-94887713D01*
X124853000Y-95100287D01*
X124886254Y-95310243D01*
X124951943Y-95512412D01*
X125048449Y-95701816D01*
X125173396Y-95873792D01*
X125323708Y-96024104D01*
X125495684Y-96149051D01*
X125685088Y-96245557D01*
X125887257Y-96311246D01*
X126097213Y-96344500D01*
X126309787Y-96344500D01*
X126519743Y-96311246D01*
X126721912Y-96245557D01*
X126911316Y-96149051D01*
X127083292Y-96024104D01*
X127233604Y-95873792D01*
X127358551Y-95701816D01*
X127455057Y-95512412D01*
X127520746Y-95310243D01*
X127554000Y-95100287D01*
X127554000Y-94887713D01*
X127520746Y-94677757D01*
X127455057Y-94475588D01*
X127358551Y-94286184D01*
X127233604Y-94114208D01*
X127083292Y-93963896D01*
X126911316Y-93838949D01*
X126721912Y-93742443D01*
X126605515Y-93704623D01*
X126519744Y-93676754D01*
X126309787Y-93643500D01*
X126097213Y-93643500D01*
X125887255Y-93676754D01*
X125685088Y-93742443D01*
X125495684Y-93838949D01*
X125323709Y-93963895D01*
X125173395Y-94114209D01*
X125048449Y-94286184D01*
X124951943Y-94475588D01*
X124886254Y-94677755D01*
X124866021Y-94805500D01*
X124853000Y-94887713D01*
X122703000Y-94887713D01*
X122703000Y-92075000D01*
X123361276Y-92075000D01*
X124278440Y-92075000D01*
X124254295Y-92088940D01*
X124198440Y-92144795D01*
X124158944Y-92213204D01*
X124138500Y-92289504D01*
X124138500Y-92368496D01*
X124158944Y-92444796D01*
X124198440Y-92513205D01*
X124254295Y-92569060D01*
X124278440Y-92583000D01*
X123361276Y-92583000D01*
X123369236Y-92623020D01*
X123369237Y-92623022D01*
X123445220Y-92806463D01*
X123445222Y-92806466D01*
X123555533Y-92971559D01*
X123695940Y-93111966D01*
X123861033Y-93222277D01*
X123861036Y-93222279D01*
X124044477Y-93298262D01*
X124044479Y-93298263D01*
X124239216Y-93336999D01*
X124239225Y-93337000D01*
X124584499Y-93337000D01*
X124584500Y-93336999D01*
X124584500Y-92629000D01*
X125092500Y-92629000D01*
X125092500Y-93336999D01*
X125092501Y-93337000D01*
X125437775Y-93337000D01*
X125437783Y-93336999D01*
X125632520Y-93298263D01*
X125632522Y-93298262D01*
X125815963Y-93222279D01*
X125815966Y-93222277D01*
X125981059Y-93111966D01*
X126121466Y-92971559D01*
X126231777Y-92806466D01*
X126231779Y-92806463D01*
X126307762Y-92623022D01*
X126307763Y-92623020D01*
X126315724Y-92583000D01*
X125398560Y-92583000D01*
X125422705Y-92569060D01*
X125478560Y-92513205D01*
X125518056Y-92444796D01*
X125538500Y-92368496D01*
X125538500Y-92289504D01*
X125518056Y-92213204D01*
X125478560Y-92144795D01*
X125422705Y-92088940D01*
X125398560Y-92075000D01*
X126315724Y-92075000D01*
X127490785Y-92075000D01*
X128308440Y-92075000D01*
X128284295Y-92088940D01*
X128228440Y-92144795D01*
X128188944Y-92213204D01*
X128168500Y-92289504D01*
X128168500Y-92368496D01*
X128188944Y-92444796D01*
X128228440Y-92513205D01*
X128284295Y-92569060D01*
X128308440Y-92583000D01*
X127490786Y-92583000D01*
X127500197Y-92630312D01*
X127500198Y-92630315D01*
X127578063Y-92818301D01*
X127578067Y-92818308D01*
X127691115Y-92987496D01*
X127835003Y-93131384D01*
X128004191Y-93244432D01*
X128004194Y-93244434D01*
X128192178Y-93322300D01*
X128192185Y-93322302D01*
X128391753Y-93361999D01*
X128391762Y-93362000D01*
X128764499Y-93362000D01*
X128764500Y-93361999D01*
X128764500Y-92629000D01*
X129272500Y-92629000D01*
X129272500Y-93361999D01*
X129272501Y-93362000D01*
X129645238Y-93362000D01*
X129645246Y-93361999D01*
X129844814Y-93322302D01*
X129844821Y-93322300D01*
X130032805Y-93244434D01*
X130032808Y-93244432D01*
X130201996Y-93131384D01*
X130345884Y-92987496D01*
X130458932Y-92818308D01*
X130458936Y-92818301D01*
X130536801Y-92630315D01*
X130536802Y-92630312D01*
X130546214Y-92583000D01*
X129728560Y-92583000D01*
X129752705Y-92569060D01*
X129808560Y-92513205D01*
X129848056Y-92444796D01*
X129868500Y-92368496D01*
X129868500Y-92289504D01*
X129848056Y-92213204D01*
X129808560Y-92144795D01*
X129752705Y-92088940D01*
X129728560Y-92075000D01*
X130546214Y-92075000D01*
X130536802Y-92027687D01*
X130536801Y-92027684D01*
X130458936Y-91839698D01*
X130458932Y-91839691D01*
X130345884Y-91670503D01*
X130201996Y-91526615D01*
X130032808Y-91413567D01*
X130032805Y-91413565D01*
X129844821Y-91335699D01*
X129844814Y-91335697D01*
X129645246Y-91296000D01*
X129272501Y-91296000D01*
X129272500Y-91296001D01*
X129272500Y-92029000D01*
X128764500Y-92029000D01*
X128764500Y-91298255D01*
X128736514Y-91272572D01*
X128723337Y-91247211D01*
X128709044Y-91222455D01*
X128709406Y-91220399D01*
X128708445Y-91218549D01*
X128714651Y-91190653D01*
X128719616Y-91162500D01*
X128721446Y-91160114D01*
X128721667Y-91159123D01*
X128722977Y-91158119D01*
X128733755Y-91144071D01*
X128778965Y-91098862D01*
X128821818Y-91024638D01*
X128844000Y-90941853D01*
X128844000Y-90856147D01*
X128821818Y-90773362D01*
X128778965Y-90699138D01*
X128718362Y-90638535D01*
X128718359Y-90638533D01*
X128718358Y-90638532D01*
X128674697Y-90613325D01*
X128644138Y-90595682D01*
X128561353Y-90573500D01*
X128475647Y-90573500D01*
X128392862Y-90595682D01*
X128318641Y-90638532D01*
X128258032Y-90699141D01*
X128215182Y-90773362D01*
X128193000Y-90856147D01*
X128193000Y-90941853D01*
X128215182Y-91024638D01*
X128225654Y-91042776D01*
X128258032Y-91098858D01*
X128258033Y-91098859D01*
X128258035Y-91098862D01*
X128318638Y-91159465D01*
X128318640Y-91159466D01*
X128318641Y-91159467D01*
X128319162Y-91159867D01*
X128319374Y-91160200D01*
X128322763Y-91163589D01*
X128322011Y-91164340D01*
X128351871Y-91211214D01*
X128343923Y-91271572D01*
X128299036Y-91312700D01*
X128282344Y-91317764D01*
X128192183Y-91335698D01*
X128192178Y-91335699D01*
X128004194Y-91413565D01*
X128004191Y-91413567D01*
X127835003Y-91526615D01*
X127691115Y-91670503D01*
X127578067Y-91839691D01*
X127578063Y-91839698D01*
X127500198Y-92027684D01*
X127500197Y-92027687D01*
X127490785Y-92075000D01*
X126315724Y-92075000D01*
X126315724Y-92074999D01*
X126307763Y-92034979D01*
X126307762Y-92034977D01*
X126231779Y-91851536D01*
X126231777Y-91851533D01*
X126121466Y-91686440D01*
X125981059Y-91546033D01*
X125815966Y-91435722D01*
X125815963Y-91435720D01*
X125632522Y-91359737D01*
X125632520Y-91359736D01*
X125437783Y-91321000D01*
X125092501Y-91321000D01*
X125092500Y-91321001D01*
X125092500Y-92029000D01*
X124584500Y-92029000D01*
X124584500Y-91321001D01*
X124584499Y-91321000D01*
X124239216Y-91321000D01*
X124044479Y-91359736D01*
X124044477Y-91359737D01*
X123861036Y-91435720D01*
X123861033Y-91435722D01*
X123695940Y-91546033D01*
X123555533Y-91686440D01*
X123445222Y-91851533D01*
X123445220Y-91851536D01*
X123369237Y-92034977D01*
X123369236Y-92034979D01*
X123361276Y-92075000D01*
X122703000Y-92075000D01*
X122703000Y-90340002D01*
X130475000Y-90340002D01*
X130475000Y-90477997D01*
X130498410Y-90595682D01*
X130501920Y-90613328D01*
X130523758Y-90666050D01*
X130537463Y-90699138D01*
X130554725Y-90740811D01*
X130631386Y-90855542D01*
X130728958Y-90953114D01*
X130843689Y-91029775D01*
X130971172Y-91082580D01*
X131106507Y-91109500D01*
X131106511Y-91109500D01*
X131244489Y-91109500D01*
X131244493Y-91109500D01*
X131379828Y-91082580D01*
X131507311Y-91029775D01*
X131622042Y-90953114D01*
X131719614Y-90855542D01*
X131796275Y-90740811D01*
X131849080Y-90613328D01*
X131876000Y-90477993D01*
X131876000Y-90353002D01*
X134617000Y-90353002D01*
X134617000Y-90490997D01*
X134643919Y-90626325D01*
X134643920Y-90626328D01*
X134671725Y-90693456D01*
X134691338Y-90740807D01*
X134696725Y-90753811D01*
X134773386Y-90868542D01*
X134870958Y-90966114D01*
X134985689Y-91042775D01*
X135113172Y-91095580D01*
X135248507Y-91122500D01*
X135248511Y-91122500D01*
X135386489Y-91122500D01*
X135386493Y-91122500D01*
X135521828Y-91095580D01*
X135649311Y-91042775D01*
X135764042Y-90966114D01*
X135861614Y-90868542D01*
X135938275Y-90753811D01*
X135991080Y-90626328D01*
X136018000Y-90490993D01*
X136018000Y-90353007D01*
X135991080Y-90217672D01*
X135938275Y-90090189D01*
X135861614Y-89975458D01*
X135764042Y-89877886D01*
X135649311Y-89801225D01*
X135649308Y-89801223D01*
X135649307Y-89801223D01*
X135591547Y-89777298D01*
X135521828Y-89748420D01*
X135521826Y-89748419D01*
X135521825Y-89748419D01*
X135386497Y-89721500D01*
X135386493Y-89721500D01*
X135248507Y-89721500D01*
X135248502Y-89721500D01*
X135113174Y-89748419D01*
X135113172Y-89748420D01*
X134985692Y-89801223D01*
X134985689Y-89801225D01*
X134870960Y-89877884D01*
X134773384Y-89975460D01*
X134696725Y-90090189D01*
X134696723Y-90090192D01*
X134643920Y-90217672D01*
X134643919Y-90217674D01*
X134617000Y-90353002D01*
X131876000Y-90353002D01*
X131876000Y-90340007D01*
X131849080Y-90204672D01*
X131796275Y-90077189D01*
X131719614Y-89962458D01*
X131622042Y-89864886D01*
X131507311Y-89788225D01*
X131507308Y-89788223D01*
X131507307Y-89788223D01*
X131449547Y-89764298D01*
X131379828Y-89735420D01*
X131379826Y-89735419D01*
X131379825Y-89735419D01*
X131244497Y-89708500D01*
X131244493Y-89708500D01*
X131106507Y-89708500D01*
X131106502Y-89708500D01*
X130971174Y-89735419D01*
X130971172Y-89735420D01*
X130843692Y-89788223D01*
X130843689Y-89788225D01*
X130728960Y-89864884D01*
X130631384Y-89962460D01*
X130554725Y-90077189D01*
X130554723Y-90077192D01*
X130501920Y-90204672D01*
X130475000Y-90340002D01*
X122703000Y-90340002D01*
X122703000Y-83435000D01*
X123361276Y-83435000D01*
X124278440Y-83435000D01*
X124254295Y-83448940D01*
X124198440Y-83504795D01*
X124158944Y-83573204D01*
X124138500Y-83649504D01*
X124138500Y-83728496D01*
X124158944Y-83804796D01*
X124198440Y-83873205D01*
X124254295Y-83929060D01*
X124278440Y-83943000D01*
X123361276Y-83943000D01*
X123369236Y-83983020D01*
X123369237Y-83983022D01*
X123445220Y-84166463D01*
X123445222Y-84166466D01*
X123555533Y-84331559D01*
X123695940Y-84471966D01*
X123861033Y-84582277D01*
X123861036Y-84582279D01*
X124044477Y-84658262D01*
X124044479Y-84658263D01*
X124239216Y-84696999D01*
X124239225Y-84697000D01*
X124584499Y-84697000D01*
X124584500Y-84696999D01*
X124584500Y-83989000D01*
X125092500Y-83989000D01*
X125092500Y-84696999D01*
X125092501Y-84697000D01*
X125437775Y-84697000D01*
X125437783Y-84696999D01*
X125632520Y-84658263D01*
X125632522Y-84658262D01*
X125815963Y-84582279D01*
X125815966Y-84582277D01*
X125981059Y-84471966D01*
X126121466Y-84331559D01*
X126231777Y-84166466D01*
X126231779Y-84166463D01*
X126307762Y-83983022D01*
X126307763Y-83983020D01*
X126315724Y-83943000D01*
X125398560Y-83943000D01*
X125422705Y-83929060D01*
X125478560Y-83873205D01*
X125518056Y-83804796D01*
X125538500Y-83728496D01*
X125538500Y-83649504D01*
X125518056Y-83573204D01*
X125478560Y-83504795D01*
X125422705Y-83448940D01*
X125398560Y-83435000D01*
X126315724Y-83435000D01*
X127490785Y-83435000D01*
X128308440Y-83435000D01*
X128284295Y-83448940D01*
X128228440Y-83504795D01*
X128188944Y-83573204D01*
X128168500Y-83649504D01*
X128168500Y-83728496D01*
X128188944Y-83804796D01*
X128228440Y-83873205D01*
X128284295Y-83929060D01*
X128308440Y-83943000D01*
X127490786Y-83943000D01*
X127500197Y-83990312D01*
X127500198Y-83990315D01*
X127578063Y-84178301D01*
X127578067Y-84178308D01*
X127691115Y-84347496D01*
X127835003Y-84491384D01*
X128004191Y-84604432D01*
X128004194Y-84604434D01*
X128192178Y-84682300D01*
X128192185Y-84682301D01*
X128282343Y-84700235D01*
X128334389Y-84731817D01*
X128353959Y-84789466D01*
X128331894Y-84846206D01*
X128319171Y-84858125D01*
X128318646Y-84858527D01*
X128258032Y-84919141D01*
X128215182Y-84993362D01*
X128193000Y-85076147D01*
X128193000Y-85161853D01*
X128215182Y-85244638D01*
X128226749Y-85264672D01*
X128258032Y-85318858D01*
X128258033Y-85318859D01*
X128258035Y-85318862D01*
X128318638Y-85379465D01*
X128392862Y-85422318D01*
X128475647Y-85444500D01*
X128475649Y-85444500D01*
X128561351Y-85444500D01*
X128561353Y-85444500D01*
X128644138Y-85422318D01*
X128682791Y-85400002D01*
X130996000Y-85400002D01*
X130996000Y-85537997D01*
X131011295Y-85614886D01*
X131022920Y-85673328D01*
X131075725Y-85800811D01*
X131152386Y-85915542D01*
X131249958Y-86013114D01*
X131364689Y-86089775D01*
X131492172Y-86142580D01*
X131627507Y-86169500D01*
X131627511Y-86169500D01*
X131765489Y-86169500D01*
X131765493Y-86169500D01*
X131900828Y-86142580D01*
X132028311Y-86089775D01*
X132143042Y-86013114D01*
X132240614Y-85915542D01*
X132317275Y-85800811D01*
X132370080Y-85673328D01*
X132397000Y-85537993D01*
X132397000Y-85400007D01*
X132370080Y-85264672D01*
X132317275Y-85137189D01*
X132240614Y-85022458D01*
X132143042Y-84924886D01*
X132028311Y-84848225D01*
X132028308Y-84848223D01*
X132028307Y-84848223D01*
X131949745Y-84815682D01*
X131900828Y-84795420D01*
X131900826Y-84795419D01*
X131900825Y-84795419D01*
X131765497Y-84768500D01*
X131765493Y-84768500D01*
X131627507Y-84768500D01*
X131627502Y-84768500D01*
X131492174Y-84795419D01*
X131492172Y-84795420D01*
X131364692Y-84848223D01*
X131364689Y-84848225D01*
X131249960Y-84924884D01*
X131152384Y-85022460D01*
X131075725Y-85137189D01*
X131075723Y-85137192D01*
X131022920Y-85264672D01*
X131022919Y-85264674D01*
X130996000Y-85400002D01*
X128682791Y-85400002D01*
X128718362Y-85379465D01*
X128778965Y-85318862D01*
X128821818Y-85244638D01*
X128844000Y-85161853D01*
X128844000Y-85076147D01*
X128821818Y-84993362D01*
X128782284Y-84924886D01*
X128778967Y-84919141D01*
X128778966Y-84919140D01*
X128778965Y-84919138D01*
X128733758Y-84873931D01*
X128708031Y-84818757D01*
X128723787Y-84759952D01*
X128739391Y-84749026D01*
X128738432Y-84748067D01*
X128764500Y-84721999D01*
X128764500Y-83989000D01*
X129272500Y-83989000D01*
X129272500Y-84721999D01*
X129272501Y-84722000D01*
X129645238Y-84722000D01*
X129645246Y-84721999D01*
X129844814Y-84682302D01*
X129844821Y-84682300D01*
X130032805Y-84604434D01*
X130032808Y-84604432D01*
X130201996Y-84491384D01*
X130345884Y-84347496D01*
X130458932Y-84178308D01*
X130458936Y-84178301D01*
X130536801Y-83990315D01*
X130536802Y-83990312D01*
X130546214Y-83943000D01*
X129728560Y-83943000D01*
X129752705Y-83929060D01*
X129808560Y-83873205D01*
X129848056Y-83804796D01*
X129868500Y-83728496D01*
X129868500Y-83649504D01*
X129848056Y-83573204D01*
X129808560Y-83504795D01*
X129752705Y-83448940D01*
X129728560Y-83435000D01*
X130546214Y-83435000D01*
X130536802Y-83387687D01*
X130536801Y-83387684D01*
X130458936Y-83199698D01*
X130458931Y-83199689D01*
X130455853Y-83195082D01*
X130455852Y-83195081D01*
X130425731Y-83150002D01*
X131998000Y-83150002D01*
X131998000Y-83287997D01*
X132024919Y-83423325D01*
X132024920Y-83423328D01*
X132077725Y-83550811D01*
X132154386Y-83665542D01*
X132251958Y-83763114D01*
X132366689Y-83839775D01*
X132494172Y-83892580D01*
X132629507Y-83919500D01*
X132629511Y-83919500D01*
X132767489Y-83919500D01*
X132767493Y-83919500D01*
X132902828Y-83892580D01*
X133030311Y-83839775D01*
X133145042Y-83763114D01*
X133242614Y-83665542D01*
X133269843Y-83624790D01*
X133318939Y-83588792D01*
X133379688Y-83592773D01*
X133420921Y-83629737D01*
X133453989Y-83687014D01*
X135073542Y-85306568D01*
X135099270Y-85361743D01*
X135083514Y-85420548D01*
X135033644Y-85455467D01*
X135010609Y-85458500D01*
X134869502Y-85458500D01*
X134734174Y-85485419D01*
X134734172Y-85485420D01*
X134606692Y-85538223D01*
X134606689Y-85538225D01*
X134491960Y-85614884D01*
X134394384Y-85712460D01*
X134317725Y-85827189D01*
X134317723Y-85827192D01*
X134264920Y-85954672D01*
X134264919Y-85954674D01*
X134238000Y-86090002D01*
X134238000Y-86227997D01*
X134264919Y-86363325D01*
X134264920Y-86363328D01*
X134317725Y-86490811D01*
X134394386Y-86605542D01*
X134491958Y-86703114D01*
X134606689Y-86779775D01*
X134734172Y-86832580D01*
X134869507Y-86859500D01*
X134869511Y-86859500D01*
X135007489Y-86859500D01*
X135007493Y-86859500D01*
X135142828Y-86832580D01*
X135270311Y-86779775D01*
X135385042Y-86703114D01*
X135482614Y-86605542D01*
X135559275Y-86490811D01*
X135612080Y-86363328D01*
X135639000Y-86227993D01*
X135639000Y-86090007D01*
X135639000Y-86086891D01*
X135659822Y-86029683D01*
X135712545Y-85999243D01*
X135772500Y-86009815D01*
X135790933Y-86023958D01*
X136707933Y-86940958D01*
X136733661Y-86996134D01*
X136734000Y-87003891D01*
X136734000Y-90792109D01*
X136713178Y-90849317D01*
X136707932Y-90855042D01*
X133794321Y-93768652D01*
X133748753Y-93793009D01*
X133651173Y-93812419D01*
X133523692Y-93865223D01*
X133523689Y-93865225D01*
X133408960Y-93941884D01*
X133311384Y-94039460D01*
X133234725Y-94154189D01*
X133234723Y-94154192D01*
X133181920Y-94281672D01*
X133181919Y-94281674D01*
X133155000Y-94417002D01*
X133155000Y-94554997D01*
X133181919Y-94690325D01*
X133181920Y-94690327D01*
X133229625Y-94805500D01*
X133234725Y-94817811D01*
X133311386Y-94932542D01*
X133408958Y-95030114D01*
X133523689Y-95106775D01*
X133651172Y-95159580D01*
X133786507Y-95186500D01*
X133786511Y-95186500D01*
X133924489Y-95186500D01*
X133924493Y-95186500D01*
X134059828Y-95159580D01*
X134187311Y-95106775D01*
X134302042Y-95030114D01*
X134399614Y-94932542D01*
X134476275Y-94817811D01*
X134529080Y-94690328D01*
X134548490Y-94592744D01*
X134572846Y-94547177D01*
X137725010Y-91395015D01*
X137797484Y-91269485D01*
X137802360Y-91251288D01*
X137835000Y-91129475D01*
X137835000Y-87266891D01*
X137844161Y-87241718D01*
X137851095Y-87215843D01*
X137854429Y-87213507D01*
X137855822Y-87209683D01*
X137879023Y-87196287D01*
X137900965Y-87180924D01*
X137905019Y-87181278D01*
X137908545Y-87179243D01*
X137934930Y-87183895D01*
X137961613Y-87186230D01*
X137966138Y-87189398D01*
X137968500Y-87189815D01*
X137986933Y-87203958D01*
X138104933Y-87321958D01*
X138130661Y-87377134D01*
X138131000Y-87384891D01*
X138131000Y-94022016D01*
X138116001Y-94071461D01*
X138060728Y-94154183D01*
X138060723Y-94154192D01*
X138007920Y-94281672D01*
X138007919Y-94281674D01*
X137981000Y-94417002D01*
X137981000Y-94554997D01*
X138007919Y-94690325D01*
X138007920Y-94690327D01*
X138055625Y-94805500D01*
X138060725Y-94817811D01*
X138137386Y-94932542D01*
X138234958Y-95030114D01*
X138349689Y-95106775D01*
X138477172Y-95159580D01*
X138612507Y-95186500D01*
X138612511Y-95186500D01*
X138750489Y-95186500D01*
X138750493Y-95186500D01*
X138885828Y-95159580D01*
X139013311Y-95106775D01*
X139128042Y-95030114D01*
X139225614Y-94932542D01*
X139302275Y-94817811D01*
X139355080Y-94690328D01*
X139382000Y-94554993D01*
X139382000Y-94417007D01*
X139355080Y-94281672D01*
X139302275Y-94154189D01*
X139302271Y-94154183D01*
X139246999Y-94071461D01*
X139232000Y-94022016D01*
X139232000Y-90021002D01*
X139957977Y-90021002D01*
X139957977Y-90158997D01*
X139984896Y-90294325D01*
X139984897Y-90294328D01*
X140009203Y-90353007D01*
X140026675Y-90395191D01*
X140037702Y-90421811D01*
X140064199Y-90461466D01*
X140114363Y-90536543D01*
X140129889Y-90552069D01*
X140155617Y-90607246D01*
X140139858Y-90666050D01*
X140129889Y-90677931D01*
X140114363Y-90693456D01*
X140037702Y-90808189D01*
X140037700Y-90808192D01*
X139984897Y-90935672D01*
X139984896Y-90935674D01*
X139957977Y-91071002D01*
X139957977Y-91208997D01*
X139984896Y-91344325D01*
X139984897Y-91344328D01*
X140008197Y-91400579D01*
X140027511Y-91447209D01*
X140037702Y-91471811D01*
X140114363Y-91586542D01*
X140211935Y-91684114D01*
X140326666Y-91760775D01*
X140454149Y-91813580D01*
X140589484Y-91840500D01*
X140589488Y-91840500D01*
X140727466Y-91840500D01*
X140727470Y-91840500D01*
X140862805Y-91813580D01*
X140990288Y-91760775D01*
X141105019Y-91684114D01*
X141202591Y-91586542D01*
X141279252Y-91471811D01*
X141332057Y-91344328D01*
X141358977Y-91208993D01*
X141358977Y-91071007D01*
X141332057Y-90935672D01*
X141279252Y-90808189D01*
X141202591Y-90693458D01*
X141187064Y-90677931D01*
X141161337Y-90622757D01*
X141177093Y-90563952D01*
X141187059Y-90552073D01*
X141202591Y-90536542D01*
X141279252Y-90421811D01*
X141332057Y-90294328D01*
X141358977Y-90158993D01*
X141358977Y-90021007D01*
X141332057Y-89885672D01*
X141279252Y-89758189D01*
X141202591Y-89643458D01*
X141105019Y-89545886D01*
X140990288Y-89469225D01*
X140990285Y-89469223D01*
X140990284Y-89469223D01*
X140932524Y-89445298D01*
X140862805Y-89416420D01*
X140862803Y-89416419D01*
X140862802Y-89416419D01*
X140727474Y-89389500D01*
X140727470Y-89389500D01*
X140589484Y-89389500D01*
X140589479Y-89389500D01*
X140454151Y-89416419D01*
X140454149Y-89416420D01*
X140326669Y-89469223D01*
X140326666Y-89469225D01*
X140211937Y-89545884D01*
X140114361Y-89643460D01*
X140037702Y-89758189D01*
X140037700Y-89758192D01*
X139984897Y-89885672D01*
X139984896Y-89885674D01*
X139957977Y-90021002D01*
X139232000Y-90021002D01*
X139232000Y-87381892D01*
X139252822Y-87324684D01*
X139305545Y-87294244D01*
X139365500Y-87304816D01*
X139383928Y-87318955D01*
X141315482Y-89250509D01*
X141441012Y-89322983D01*
X141581022Y-89360499D01*
X142773608Y-89360499D01*
X142830816Y-89381321D01*
X142836541Y-89386566D01*
X145330152Y-91880177D01*
X145354509Y-91925746D01*
X145373919Y-92023326D01*
X145384737Y-92049444D01*
X145426725Y-92150811D01*
X145503386Y-92265542D01*
X145600958Y-92363114D01*
X145715689Y-92439775D01*
X145843172Y-92492580D01*
X145978507Y-92519500D01*
X145978511Y-92519500D01*
X146116489Y-92519500D01*
X146116493Y-92519500D01*
X146251828Y-92492580D01*
X146379311Y-92439775D01*
X146494042Y-92363114D01*
X146591614Y-92265542D01*
X146668275Y-92150811D01*
X146721080Y-92023328D01*
X146735477Y-91950951D01*
X146767060Y-91898904D01*
X146822767Y-91879314D01*
X146884712Y-91879314D01*
X146884716Y-91879314D01*
X147020051Y-91852394D01*
X147147534Y-91799589D01*
X147262265Y-91722928D01*
X147359837Y-91625356D01*
X147436498Y-91510625D01*
X147489303Y-91383142D01*
X147516223Y-91247807D01*
X147516223Y-91109821D01*
X147489303Y-90974486D01*
X147436498Y-90847003D01*
X147359837Y-90732272D01*
X147262265Y-90634700D01*
X147147534Y-90558039D01*
X147147531Y-90558037D01*
X147147530Y-90558037D01*
X147062148Y-90522671D01*
X147020051Y-90505234D01*
X147020049Y-90505233D01*
X147020050Y-90505233D01*
X146922469Y-90485823D01*
X146876901Y-90461466D01*
X144668012Y-88252578D01*
X144609436Y-88194002D01*
X146236000Y-88194002D01*
X146236000Y-88331997D01*
X146262919Y-88467325D01*
X146262920Y-88467328D01*
X146315725Y-88594811D01*
X146392386Y-88709542D01*
X146489958Y-88807114D01*
X146604689Y-88883775D01*
X146732172Y-88936580D01*
X146867507Y-88963500D01*
X146867511Y-88963500D01*
X147005489Y-88963500D01*
X147005493Y-88963500D01*
X147140828Y-88936580D01*
X147268311Y-88883775D01*
X147383042Y-88807114D01*
X147480614Y-88709542D01*
X147557275Y-88594811D01*
X147610080Y-88467328D01*
X147637000Y-88331993D01*
X147637000Y-88194007D01*
X147610080Y-88058672D01*
X147557275Y-87931189D01*
X147480614Y-87816458D01*
X147383042Y-87718886D01*
X147268311Y-87642225D01*
X147268308Y-87642223D01*
X147268307Y-87642223D01*
X147210547Y-87618298D01*
X147140828Y-87589420D01*
X147140826Y-87589419D01*
X147140825Y-87589419D01*
X147005497Y-87562500D01*
X147005493Y-87562500D01*
X146867507Y-87562500D01*
X146867502Y-87562500D01*
X146732174Y-87589419D01*
X146732172Y-87589420D01*
X146604692Y-87642223D01*
X146604689Y-87642225D01*
X146489960Y-87718884D01*
X146392384Y-87816460D01*
X146315725Y-87931189D01*
X146315723Y-87931192D01*
X146262920Y-88058672D01*
X146262919Y-88058674D01*
X146236000Y-88194002D01*
X144609436Y-88194002D01*
X143983924Y-87568490D01*
X143983921Y-87568488D01*
X143983920Y-87568487D01*
X143858394Y-87496016D01*
X143858386Y-87496013D01*
X143718384Y-87458500D01*
X142121389Y-87458500D01*
X142064181Y-87437678D01*
X142058456Y-87432432D01*
X140234504Y-85608480D01*
X138384515Y-83758490D01*
X138121027Y-83495002D01*
X154618000Y-83495002D01*
X154618000Y-83632997D01*
X154643883Y-83763115D01*
X154644920Y-83768328D01*
X154673798Y-83838047D01*
X154696386Y-83892580D01*
X154697725Y-83895811D01*
X154774386Y-84010542D01*
X154871958Y-84108114D01*
X154986689Y-84184775D01*
X155114172Y-84237580D01*
X155249507Y-84264500D01*
X155249511Y-84264500D01*
X155387489Y-84264500D01*
X155387493Y-84264500D01*
X155522828Y-84237580D01*
X155650311Y-84184775D01*
X155765042Y-84108114D01*
X155862614Y-84010542D01*
X155939275Y-83895811D01*
X155992080Y-83768328D01*
X156019000Y-83632993D01*
X156019000Y-83495007D01*
X155992080Y-83359672D01*
X155939275Y-83232189D01*
X155862614Y-83117458D01*
X155765042Y-83019886D01*
X155650311Y-82943225D01*
X155650308Y-82943223D01*
X155650307Y-82943223D01*
X155560521Y-82906033D01*
X155522828Y-82890420D01*
X155522826Y-82890419D01*
X155522825Y-82890419D01*
X155387497Y-82863500D01*
X155387493Y-82863500D01*
X155249507Y-82863500D01*
X155249502Y-82863500D01*
X155114174Y-82890419D01*
X155114172Y-82890420D01*
X154986692Y-82943223D01*
X154986689Y-82943225D01*
X154871960Y-83019884D01*
X154774384Y-83117460D01*
X154697725Y-83232189D01*
X154697723Y-83232192D01*
X154644920Y-83359672D01*
X154644919Y-83359674D01*
X154618000Y-83495002D01*
X138121027Y-83495002D01*
X138013709Y-83387684D01*
X137607067Y-82981041D01*
X137581339Y-82925866D01*
X137581000Y-82918109D01*
X137581000Y-82720013D01*
X138362000Y-82720013D01*
X138362000Y-82858008D01*
X138388919Y-82993336D01*
X138388920Y-82993339D01*
X138399916Y-83019886D01*
X138440331Y-83117458D01*
X138441725Y-83120822D01*
X138518386Y-83235553D01*
X138615958Y-83333125D01*
X138730689Y-83409786D01*
X138858172Y-83462591D01*
X138993507Y-83489511D01*
X138993511Y-83489511D01*
X139131489Y-83489511D01*
X139131493Y-83489511D01*
X139266828Y-83462591D01*
X139394311Y-83409786D01*
X139509042Y-83333125D01*
X139606614Y-83235553D01*
X139683275Y-83120822D01*
X139736080Y-82993339D01*
X139763000Y-82858004D01*
X139763000Y-82720018D01*
X139736080Y-82584683D01*
X139683275Y-82457200D01*
X139612984Y-82352002D01*
X140394000Y-82352002D01*
X140394000Y-82489997D01*
X140420256Y-82621990D01*
X140420920Y-82625328D01*
X140449798Y-82695047D01*
X140454353Y-82706044D01*
X140473725Y-82752811D01*
X140550386Y-82867542D01*
X140647958Y-82965114D01*
X140762689Y-83041775D01*
X140890172Y-83094580D01*
X141025507Y-83121500D01*
X141025511Y-83121500D01*
X141163489Y-83121500D01*
X141163493Y-83121500D01*
X141298828Y-83094580D01*
X141426311Y-83041775D01*
X141541042Y-82965114D01*
X141638614Y-82867542D01*
X141715275Y-82752811D01*
X141768080Y-82625328D01*
X141795000Y-82489993D01*
X141795000Y-82352007D01*
X141768080Y-82216672D01*
X141718925Y-82098002D01*
X142680000Y-82098002D01*
X142680000Y-82235997D01*
X142706674Y-82370092D01*
X142706920Y-82371328D01*
X142717587Y-82397081D01*
X142746823Y-82467664D01*
X142759725Y-82498811D01*
X142836386Y-82613542D01*
X142933958Y-82711114D01*
X143048689Y-82787775D01*
X143176172Y-82840580D01*
X143311507Y-82867500D01*
X143311511Y-82867500D01*
X143449489Y-82867500D01*
X143449493Y-82867500D01*
X143584828Y-82840580D01*
X143712311Y-82787775D01*
X143827042Y-82711114D01*
X143924614Y-82613542D01*
X144001275Y-82498811D01*
X144054080Y-82371328D01*
X144081000Y-82235993D01*
X144081000Y-82098007D01*
X144054080Y-81962672D01*
X144001275Y-81835189D01*
X143924614Y-81720458D01*
X143827042Y-81622886D01*
X143712311Y-81546225D01*
X143712308Y-81546223D01*
X143712307Y-81546223D01*
X143654547Y-81522298D01*
X143584828Y-81493420D01*
X143584826Y-81493419D01*
X143584825Y-81493419D01*
X143449497Y-81466500D01*
X143449493Y-81466500D01*
X143311507Y-81466500D01*
X143311502Y-81466500D01*
X143176174Y-81493419D01*
X143176172Y-81493420D01*
X143048692Y-81546223D01*
X143048689Y-81546225D01*
X142933960Y-81622884D01*
X142836384Y-81720460D01*
X142759725Y-81835189D01*
X142759723Y-81835192D01*
X142706920Y-81962672D01*
X142706919Y-81962674D01*
X142680000Y-82098002D01*
X141718925Y-82098002D01*
X141715275Y-82089189D01*
X141638614Y-81974458D01*
X141541042Y-81876886D01*
X141426311Y-81800225D01*
X141426308Y-81800223D01*
X141426307Y-81800223D01*
X141342453Y-81765490D01*
X141298828Y-81747420D01*
X141298826Y-81747419D01*
X141298825Y-81747419D01*
X141163497Y-81720500D01*
X141163493Y-81720500D01*
X141025507Y-81720500D01*
X141025502Y-81720500D01*
X140890174Y-81747419D01*
X140890172Y-81747420D01*
X140762692Y-81800223D01*
X140762689Y-81800225D01*
X140647960Y-81876884D01*
X140550384Y-81974460D01*
X140473725Y-82089189D01*
X140473723Y-82089192D01*
X140420920Y-82216672D01*
X140420919Y-82216674D01*
X140394000Y-82352002D01*
X139612984Y-82352002D01*
X139606614Y-82342469D01*
X139509042Y-82244897D01*
X139394311Y-82168236D01*
X139394308Y-82168234D01*
X139394307Y-82168234D01*
X139336547Y-82144309D01*
X139266828Y-82115431D01*
X139266826Y-82115430D01*
X139266825Y-82115430D01*
X139131497Y-82088511D01*
X139131493Y-82088511D01*
X138993507Y-82088511D01*
X138993502Y-82088511D01*
X138858174Y-82115430D01*
X138858172Y-82115431D01*
X138730692Y-82168234D01*
X138730689Y-82168236D01*
X138615960Y-82244895D01*
X138518384Y-82342471D01*
X138441725Y-82457200D01*
X138441723Y-82457203D01*
X138388920Y-82584683D01*
X138388919Y-82584685D01*
X138362000Y-82720013D01*
X137581000Y-82720013D01*
X137581000Y-80852982D01*
X137596000Y-80803536D01*
X137651270Y-80720819D01*
X137651271Y-80720815D01*
X137651275Y-80720811D01*
X137704080Y-80593328D01*
X137705208Y-80587653D01*
X137736785Y-80535605D01*
X137794432Y-80516031D01*
X137851175Y-80538091D01*
X137879787Y-80587640D01*
X137880916Y-80593316D01*
X137880919Y-80593325D01*
X137880920Y-80593328D01*
X137895601Y-80628770D01*
X137933524Y-80720327D01*
X137933725Y-80720811D01*
X138010386Y-80835542D01*
X138107958Y-80933114D01*
X138222689Y-81009775D01*
X138350172Y-81062580D01*
X138485507Y-81089500D01*
X138485511Y-81089500D01*
X138623489Y-81089500D01*
X138623493Y-81089500D01*
X138758828Y-81062580D01*
X138886311Y-81009775D01*
X139001042Y-80933114D01*
X139098614Y-80835542D01*
X139175275Y-80720811D01*
X139228080Y-80593328D01*
X139255000Y-80457993D01*
X139255000Y-80320007D01*
X139228080Y-80184672D01*
X139198202Y-80112539D01*
X139178798Y-80065693D01*
X139176344Y-80059770D01*
X139175275Y-80057189D01*
X139161118Y-80036002D01*
X141253000Y-80036002D01*
X141253000Y-80173997D01*
X141279919Y-80309325D01*
X141279920Y-80309328D01*
X141332725Y-80436811D01*
X141409386Y-80551542D01*
X141506958Y-80649114D01*
X141621689Y-80725775D01*
X141749172Y-80778580D01*
X141884507Y-80805500D01*
X141884511Y-80805500D01*
X142022489Y-80805500D01*
X142022493Y-80805500D01*
X142157828Y-80778580D01*
X142285311Y-80725775D01*
X142400042Y-80649114D01*
X142475154Y-80574002D01*
X146236000Y-80574002D01*
X146236000Y-80711997D01*
X146261089Y-80838123D01*
X146262920Y-80847328D01*
X146315725Y-80974811D01*
X146392386Y-81089542D01*
X146489958Y-81187114D01*
X146604689Y-81263775D01*
X146732172Y-81316580D01*
X146867507Y-81343500D01*
X146867511Y-81343500D01*
X147005489Y-81343500D01*
X147005493Y-81343500D01*
X147140828Y-81316580D01*
X147268311Y-81263775D01*
X147383042Y-81187114D01*
X147480614Y-81089542D01*
X147557275Y-80974811D01*
X147610080Y-80847328D01*
X147637000Y-80711993D01*
X147637000Y-80574007D01*
X147610080Y-80438672D01*
X147557275Y-80311189D01*
X147480614Y-80196458D01*
X147383042Y-80098886D01*
X147268311Y-80022225D01*
X147255359Y-80016860D01*
X147255358Y-80016859D01*
X147140831Y-79969421D01*
X147140825Y-79969419D01*
X147005497Y-79942500D01*
X147005493Y-79942500D01*
X146867507Y-79942500D01*
X146867502Y-79942500D01*
X146732174Y-79969419D01*
X146732172Y-79969420D01*
X146604692Y-80022223D01*
X146604689Y-80022225D01*
X146489960Y-80098884D01*
X146392384Y-80196460D01*
X146315725Y-80311189D01*
X146315723Y-80311192D01*
X146262920Y-80438672D01*
X146262919Y-80438674D01*
X146236000Y-80574002D01*
X142475154Y-80574002D01*
X142497614Y-80551542D01*
X142574275Y-80436811D01*
X142627080Y-80309328D01*
X142654000Y-80173993D01*
X142654000Y-80036007D01*
X142634704Y-79939002D01*
X152078000Y-79939002D01*
X152078000Y-80076997D01*
X152104919Y-80212325D01*
X152104920Y-80212327D01*
X152145870Y-80311192D01*
X152157725Y-80339811D01*
X152234386Y-80454542D01*
X152331958Y-80552114D01*
X152446689Y-80628775D01*
X152574172Y-80681580D01*
X152709507Y-80708500D01*
X152709511Y-80708500D01*
X152847489Y-80708500D01*
X152847493Y-80708500D01*
X152982828Y-80681580D01*
X153110311Y-80628775D01*
X153217052Y-80557452D01*
X153276186Y-80542982D01*
X153330787Y-80569908D01*
X153353787Y-80614089D01*
X153367212Y-80681579D01*
X153374920Y-80720328D01*
X153377177Y-80725776D01*
X153427524Y-80847327D01*
X153427725Y-80847811D01*
X153504386Y-80962542D01*
X153601958Y-81060114D01*
X153716689Y-81136775D01*
X153844172Y-81189580D01*
X153979507Y-81216500D01*
X153979511Y-81216500D01*
X154117489Y-81216500D01*
X154117493Y-81216500D01*
X154252828Y-81189580D01*
X154380311Y-81136775D01*
X154495042Y-81060114D01*
X154592614Y-80962542D01*
X154669275Y-80847811D01*
X154722080Y-80720328D01*
X154749000Y-80584993D01*
X154749000Y-80447007D01*
X154722080Y-80311672D01*
X154669275Y-80184189D01*
X154592614Y-80069458D01*
X154495042Y-79971886D01*
X154380311Y-79895225D01*
X154380308Y-79895223D01*
X154380307Y-79895223D01*
X154258781Y-79844886D01*
X154252828Y-79842420D01*
X154252826Y-79842419D01*
X154252825Y-79842419D01*
X154117497Y-79815500D01*
X154117493Y-79815500D01*
X153979507Y-79815500D01*
X153979502Y-79815500D01*
X153844174Y-79842419D01*
X153844172Y-79842420D01*
X153716692Y-79895223D01*
X153716684Y-79895228D01*
X153609947Y-79966547D01*
X153550813Y-79981017D01*
X153496211Y-79954090D01*
X153473212Y-79909909D01*
X153465339Y-79870328D01*
X153452080Y-79803672D01*
X153399275Y-79676189D01*
X153322614Y-79561458D01*
X153225042Y-79463886D01*
X153110311Y-79387225D01*
X153110308Y-79387223D01*
X153110307Y-79387223D01*
X153052547Y-79363298D01*
X152982828Y-79334420D01*
X152982826Y-79334419D01*
X152982825Y-79334419D01*
X152847497Y-79307500D01*
X152847493Y-79307500D01*
X152709507Y-79307500D01*
X152709502Y-79307500D01*
X152574174Y-79334419D01*
X152574172Y-79334420D01*
X152446692Y-79387223D01*
X152446689Y-79387225D01*
X152331960Y-79463884D01*
X152234384Y-79561460D01*
X152157725Y-79676189D01*
X152157723Y-79676192D01*
X152104920Y-79803672D01*
X152104919Y-79803674D01*
X152078000Y-79939002D01*
X142634704Y-79939002D01*
X142627080Y-79900672D01*
X142574275Y-79773189D01*
X142497614Y-79658458D01*
X142400042Y-79560886D01*
X142285311Y-79484225D01*
X142285308Y-79484223D01*
X142285307Y-79484223D01*
X142204642Y-79450811D01*
X142157828Y-79431420D01*
X142157826Y-79431419D01*
X142157825Y-79431419D01*
X142022497Y-79404500D01*
X142022493Y-79404500D01*
X141884507Y-79404500D01*
X141884502Y-79404500D01*
X141749174Y-79431419D01*
X141749172Y-79431420D01*
X141621692Y-79484223D01*
X141621689Y-79484225D01*
X141506960Y-79560884D01*
X141409384Y-79658460D01*
X141332725Y-79773189D01*
X141332723Y-79773192D01*
X141279920Y-79900672D01*
X141279919Y-79900674D01*
X141253000Y-80036002D01*
X139161118Y-80036002D01*
X139098614Y-79942458D01*
X139001042Y-79844886D01*
X138886311Y-79768225D01*
X138886308Y-79768223D01*
X138886307Y-79768223D01*
X138806082Y-79734993D01*
X138758828Y-79715420D01*
X138758826Y-79715419D01*
X138758827Y-79715419D01*
X138661246Y-79696009D01*
X138615678Y-79671652D01*
X138042513Y-79098488D01*
X137916984Y-79026015D01*
X137916976Y-79026012D01*
X137776974Y-78988499D01*
X137395974Y-78988499D01*
X135153024Y-78988499D01*
X135013021Y-79026012D01*
X135013013Y-79026015D01*
X134887484Y-79098488D01*
X134834932Y-79151040D01*
X134779756Y-79176768D01*
X134720951Y-79161011D01*
X134686032Y-79111141D01*
X134683000Y-79088107D01*
X134683000Y-79050010D01*
X134682999Y-79050002D01*
X134658717Y-78927931D01*
X134656080Y-78914672D01*
X134635268Y-78864427D01*
X160573500Y-78864427D01*
X160573500Y-78992572D01*
X160598498Y-79118242D01*
X160598499Y-79118244D01*
X160624801Y-79181744D01*
X160647535Y-79236627D01*
X160718724Y-79343169D01*
X160809331Y-79433776D01*
X160915873Y-79504965D01*
X161034256Y-79554001D01*
X161159931Y-79579000D01*
X161159935Y-79579000D01*
X161288065Y-79579000D01*
X161288069Y-79579000D01*
X161413744Y-79554001D01*
X161532127Y-79504965D01*
X161638669Y-79433776D01*
X161729276Y-79343169D01*
X161800465Y-79236627D01*
X161849501Y-79118244D01*
X161874500Y-78992569D01*
X161874500Y-78864431D01*
X161849501Y-78738756D01*
X161800465Y-78620373D01*
X161729276Y-78513831D01*
X161638669Y-78423224D01*
X161532127Y-78352035D01*
X161532124Y-78352033D01*
X161532123Y-78352033D01*
X161413744Y-78302999D01*
X161413742Y-78302998D01*
X161288072Y-78278000D01*
X161288069Y-78278000D01*
X161159931Y-78278000D01*
X161159927Y-78278000D01*
X161034257Y-78302998D01*
X161034255Y-78302999D01*
X160915876Y-78352033D01*
X160915873Y-78352035D01*
X160809333Y-78423222D01*
X160718722Y-78513833D01*
X160647535Y-78620373D01*
X160647533Y-78620376D01*
X160598499Y-78738755D01*
X160598498Y-78738757D01*
X160573500Y-78864427D01*
X134635268Y-78864427D01*
X134603275Y-78787189D01*
X134526614Y-78672458D01*
X134429042Y-78574886D01*
X134314311Y-78498225D01*
X134314308Y-78498223D01*
X134314307Y-78498223D01*
X134256547Y-78474298D01*
X134186828Y-78445420D01*
X134186826Y-78445419D01*
X134186825Y-78445419D01*
X134051497Y-78418500D01*
X134051493Y-78418500D01*
X133913507Y-78418500D01*
X133913502Y-78418500D01*
X133778174Y-78445419D01*
X133778172Y-78445420D01*
X133650692Y-78498223D01*
X133650689Y-78498225D01*
X133535960Y-78574884D01*
X133438384Y-78672460D01*
X133361725Y-78787189D01*
X133361723Y-78787192D01*
X133308920Y-78914672D01*
X133308919Y-78914674D01*
X133282000Y-79050002D01*
X133282000Y-79187997D01*
X133308919Y-79323325D01*
X133308920Y-79323328D01*
X133335386Y-79387223D01*
X133353692Y-79431419D01*
X133361725Y-79450811D01*
X133438386Y-79565542D01*
X133535958Y-79663114D01*
X133650689Y-79739775D01*
X133778172Y-79792580D01*
X133913507Y-79819500D01*
X133913511Y-79819500D01*
X134051489Y-79819500D01*
X134051493Y-79819500D01*
X134097884Y-79810272D01*
X134158055Y-79819533D01*
X134198196Y-79865305D01*
X134201215Y-79920595D01*
X134194000Y-79947523D01*
X134194000Y-82151110D01*
X134173178Y-82208318D01*
X134120455Y-82238758D01*
X134087637Y-82238400D01*
X133963497Y-82213706D01*
X133963493Y-82213706D01*
X133825507Y-82213706D01*
X133825502Y-82213706D01*
X133690174Y-82240625D01*
X133690172Y-82240626D01*
X133562692Y-82293429D01*
X133562689Y-82293431D01*
X133447960Y-82370090D01*
X133350384Y-82467666D01*
X133273725Y-82582395D01*
X133273724Y-82582395D01*
X133257324Y-82621990D01*
X133216194Y-82666874D01*
X133155835Y-82674820D01*
X133125654Y-82661931D01*
X133030311Y-82598225D01*
X133030308Y-82598223D01*
X133030307Y-82598223D01*
X132942800Y-82561977D01*
X132902828Y-82545420D01*
X132902826Y-82545419D01*
X132902825Y-82545419D01*
X132767497Y-82518500D01*
X132767493Y-82518500D01*
X132629507Y-82518500D01*
X132629502Y-82518500D01*
X132494174Y-82545419D01*
X132494172Y-82545420D01*
X132366692Y-82598223D01*
X132366689Y-82598225D01*
X132251960Y-82674884D01*
X132154384Y-82772460D01*
X132077725Y-82887189D01*
X132077723Y-82887192D01*
X132024920Y-83014672D01*
X132024919Y-83014674D01*
X131998000Y-83150002D01*
X130425731Y-83150002D01*
X130345884Y-83030503D01*
X130201996Y-82886615D01*
X130032808Y-82773567D01*
X130032805Y-82773565D01*
X129844821Y-82695699D01*
X129844814Y-82695697D01*
X129645246Y-82656000D01*
X129272501Y-82656000D01*
X129272500Y-82656001D01*
X129272500Y-83389000D01*
X128764500Y-83389000D01*
X128764500Y-82656001D01*
X128764499Y-82656000D01*
X128391753Y-82656000D01*
X128192185Y-82695697D01*
X128192178Y-82695699D01*
X128004194Y-82773565D01*
X128004191Y-82773567D01*
X127835003Y-82886615D01*
X127691115Y-83030503D01*
X127578067Y-83199691D01*
X127578063Y-83199698D01*
X127500198Y-83387684D01*
X127500197Y-83387687D01*
X127490785Y-83435000D01*
X126315724Y-83435000D01*
X126315724Y-83434999D01*
X126307763Y-83394979D01*
X126307762Y-83394977D01*
X126231779Y-83211536D01*
X126231777Y-83211533D01*
X126121466Y-83046440D01*
X125981059Y-82906033D01*
X125815966Y-82795722D01*
X125815963Y-82795720D01*
X125632522Y-82719737D01*
X125632520Y-82719736D01*
X125437783Y-82681000D01*
X125092501Y-82681000D01*
X125092500Y-82681001D01*
X125092500Y-83389000D01*
X124584500Y-83389000D01*
X124584500Y-82681001D01*
X124584499Y-82681000D01*
X124239216Y-82681000D01*
X124044479Y-82719736D01*
X124044477Y-82719737D01*
X123861036Y-82795720D01*
X123861033Y-82795722D01*
X123695940Y-82906033D01*
X123555533Y-83046440D01*
X123445222Y-83211533D01*
X123445220Y-83211536D01*
X123369237Y-83394977D01*
X123369236Y-83394979D01*
X123361276Y-83435000D01*
X122703000Y-83435000D01*
X122703000Y-78927927D01*
X131554000Y-78927927D01*
X131554000Y-79056072D01*
X131578998Y-79181742D01*
X131578999Y-79181744D01*
X131594621Y-79219460D01*
X131628035Y-79300127D01*
X131699224Y-79406669D01*
X131789831Y-79497276D01*
X131896373Y-79568465D01*
X132014756Y-79617501D01*
X132140431Y-79642500D01*
X132140435Y-79642500D01*
X132268565Y-79642500D01*
X132268569Y-79642500D01*
X132394244Y-79617501D01*
X132512627Y-79568465D01*
X132619169Y-79497276D01*
X132709776Y-79406669D01*
X132780965Y-79300127D01*
X132830001Y-79181744D01*
X132855000Y-79056069D01*
X132855000Y-78927931D01*
X132830001Y-78802256D01*
X132780965Y-78683873D01*
X132709776Y-78577331D01*
X132619169Y-78486724D01*
X132512627Y-78415535D01*
X132512624Y-78415533D01*
X132512623Y-78415533D01*
X132394244Y-78366499D01*
X132394242Y-78366498D01*
X132268572Y-78341500D01*
X132268569Y-78341500D01*
X132140431Y-78341500D01*
X132140427Y-78341500D01*
X132014757Y-78366498D01*
X132014755Y-78366499D01*
X131896376Y-78415533D01*
X131896373Y-78415535D01*
X131789833Y-78486722D01*
X131699222Y-78577333D01*
X131628035Y-78683873D01*
X131628033Y-78683876D01*
X131578999Y-78802255D01*
X131578998Y-78802257D01*
X131554000Y-78927927D01*
X122703000Y-78927927D01*
X122703000Y-75494002D01*
X157158000Y-75494002D01*
X157158000Y-75631997D01*
X157184919Y-75767325D01*
X157184920Y-75767328D01*
X157237725Y-75894811D01*
X157314386Y-76009542D01*
X157411958Y-76107114D01*
X157526689Y-76183775D01*
X157654172Y-76236580D01*
X157789507Y-76263500D01*
X157789511Y-76263500D01*
X157927489Y-76263500D01*
X157927493Y-76263500D01*
X158062828Y-76236580D01*
X158190311Y-76183775D01*
X158305042Y-76107114D01*
X158402614Y-76009542D01*
X158479275Y-75894811D01*
X158532080Y-75767328D01*
X158559000Y-75631993D01*
X158559000Y-75494007D01*
X158532080Y-75358672D01*
X158479275Y-75231189D01*
X158402614Y-75116458D01*
X158305042Y-75018886D01*
X158190311Y-74942225D01*
X158190308Y-74942223D01*
X158190307Y-74942223D01*
X158132547Y-74918298D01*
X158062828Y-74889420D01*
X158062826Y-74889419D01*
X158062825Y-74889419D01*
X157927497Y-74862500D01*
X157927493Y-74862500D01*
X157789507Y-74862500D01*
X157789502Y-74862500D01*
X157654174Y-74889419D01*
X157654172Y-74889420D01*
X157526692Y-74942223D01*
X157526689Y-74942225D01*
X157411960Y-75018884D01*
X157314384Y-75116460D01*
X157237725Y-75231189D01*
X157237723Y-75231192D01*
X157184920Y-75358672D01*
X157184919Y-75358674D01*
X157158000Y-75494002D01*
X122703000Y-75494002D01*
X122703000Y-73262500D01*
X122723822Y-73205292D01*
X122776545Y-73174852D01*
X122792000Y-73173500D01*
X172605000Y-73173500D01*
X172662208Y-73194322D01*
G37*
%TD.AperFunction*%
%TD*%
M02*
