%TF.GenerationSoftware,KiCad,Pcbnew,9.0.6+1*%
%TF.CreationDate,2025-12-04T22:53:53+00:00*%
%TF.ProjectId,TFGPS01,54464750-5330-4312-9e6b-696361645f70,C*%
%TF.SameCoordinates,Original*%
%TF.FileFunction,Paste,Bot*%
%TF.FilePolarity,Positive*%
%FSLAX46Y46*%
G04 Gerber Fmt 4.6, Leading zero omitted, Abs format (unit mm)*
G04 Created by KiCad (PCBNEW 9.0.6+1) date 2025-12-04 22:53:53*
%MOMM*%
%LPD*%
G01*
G04 APERTURE LIST*
G04 Aperture macros list*
%AMRoundRect*
0 Rectangle with rounded corners*
0 $1 Rounding radius*
0 $2 $3 $4 $5 $6 $7 $8 $9 X,Y pos of 4 corners*
0 Add a 4 corners polygon primitive as box body*
4,1,4,$2,$3,$4,$5,$6,$7,$8,$9,$2,$3,0*
0 Add four circle primitives for the rounded corners*
1,1,$1+$1,$2,$3*
1,1,$1+$1,$4,$5*
1,1,$1+$1,$6,$7*
1,1,$1+$1,$8,$9*
0 Add four rect primitives between the rounded corners*
20,1,$1+$1,$2,$3,$4,$5,0*
20,1,$1+$1,$4,$5,$6,$7,0*
20,1,$1+$1,$6,$7,$8,$9,0*
20,1,$1+$1,$8,$9,$2,$3,0*%
%AMRotRect*
0 Rectangle, with rotation*
0 The origin of the aperture is its center*
0 $1 length*
0 $2 width*
0 $3 Rotation angle, in degrees counterclockwise*
0 Add horizontal line*
21,1,$1,$2,0,0,$3*%
G04 Aperture macros list end*
%ADD10C,2.500000*%
%ADD11R,1.700000X1.300000*%
%ADD12R,0.889000X1.397000*%
%ADD13R,1.060000X0.650000*%
%ADD14R,1.150000X0.600000*%
%ADD15R,1.150000X0.300000*%
%ADD16R,1.397000X0.889000*%
%ADD17R,0.400000X0.650000*%
%ADD18R,0.950000X1.500000*%
%ADD19R,0.800000X0.900000*%
%ADD20RoundRect,0.150000X-0.150000X-0.700000X0.150000X-0.700000X0.150000X0.700000X-0.150000X0.700000X0*%
%ADD21RoundRect,0.250000X-0.250000X-1.100000X0.250000X-1.100000X0.250000X1.100000X-0.250000X1.100000X0*%
%ADD22R,0.700000X0.600000*%
%ADD23R,1.800000X2.500000*%
%ADD24RoundRect,0.150000X0.150000X0.700000X-0.150000X0.700000X-0.150000X-0.700000X0.150000X-0.700000X0*%
%ADD25RoundRect,0.250000X0.250000X1.100000X-0.250000X1.100000X-0.250000X-1.100000X0.250000X-1.100000X0*%
%ADD26R,2.500000X1.800000*%
%ADD27RoundRect,0.250000X-0.375000X-1.075000X0.375000X-1.075000X0.375000X1.075000X-0.375000X1.075000X0*%
%ADD28RotRect,0.889000X1.397000X225.000000*%
%ADD29RoundRect,0.200000X0.700000X0.200000X-0.700000X0.200000X-0.700000X-0.200000X0.700000X-0.200000X0*%
%ADD30RoundRect,0.250000X-1.950000X-1.000000X1.950000X-1.000000X1.950000X1.000000X-1.950000X1.000000X0*%
%ADD31R,0.900000X0.800000*%
%ADD32RotRect,0.889000X1.397000X135.000000*%
%ADD33R,1.800000X1.000000*%
%ADD34R,2.400000X1.700000*%
%ADD35R,2.500000X3.050000*%
G04 APERTURE END LIST*
D10*
%TO.C,AE1*%
X151924500Y-98119000D03*
%TD*%
D11*
%TO.C,D1*%
X148079500Y-85977000D03*
X148079500Y-82477000D03*
%TD*%
D12*
%TO.C,R21*%
X164970500Y-95756000D03*
X163065500Y-95756000D03*
%TD*%
D13*
%TO.C,U2*%
X138892500Y-89665000D03*
X138892500Y-90615000D03*
X138892500Y-91565000D03*
X136692500Y-91565000D03*
X136692500Y-90615000D03*
X136692500Y-89665000D03*
%TD*%
D14*
%TO.C,J2*%
X129593500Y-91209000D03*
X129593500Y-90409000D03*
D15*
X129593500Y-89259000D03*
X129593500Y-88259000D03*
X129593500Y-87759000D03*
X129593500Y-86759000D03*
D14*
X129593500Y-84809000D03*
X129593500Y-85609000D03*
D15*
X129593500Y-86259000D03*
X129593500Y-87259000D03*
X129593500Y-88759000D03*
X129593500Y-89759000D03*
%TD*%
D16*
%TO.C,R15*%
X148206500Y-95121000D03*
X148206500Y-93216000D03*
%TD*%
D17*
%TO.C,U4*%
X155918055Y-106854957D03*
X156568055Y-106854957D03*
X157218055Y-106854957D03*
X157218055Y-108754957D03*
X156568055Y-108754957D03*
X155918055Y-108754957D03*
%TD*%
D18*
%TO.C,D6*%
X166483500Y-95756000D03*
X170633500Y-95756000D03*
%TD*%
D19*
%TO.C,Q1*%
X163004500Y-85104000D03*
X164904500Y-85104000D03*
X163954500Y-87104000D03*
%TD*%
D12*
%TO.C,R11*%
X127124500Y-108329000D03*
X125219500Y-108329000D03*
%TD*%
D16*
%TO.C,R7*%
X145793500Y-101344000D03*
X145793500Y-99439000D03*
%TD*%
D12*
%TO.C,C15*%
X162303500Y-97788000D03*
X164208500Y-97788000D03*
%TD*%
%TO.C,R27*%
X154320894Y-105458598D03*
X152415894Y-105458598D03*
%TD*%
D20*
%TO.C,J5*%
X135703500Y-78175000D03*
X136953500Y-78175000D03*
X138203500Y-78175000D03*
X139453500Y-78175000D03*
X140703500Y-78175000D03*
X141953500Y-78175000D03*
X143203500Y-78175000D03*
X144453500Y-78175000D03*
D21*
X133853500Y-74975000D03*
X146303500Y-74975000D03*
%TD*%
D12*
%TO.C,R13*%
X154429500Y-81913000D03*
X156334500Y-81913000D03*
%TD*%
D18*
%TO.C,D5*%
X166483500Y-92327000D03*
X170633500Y-92327000D03*
%TD*%
D16*
%TO.C,C7*%
X145793500Y-104936500D03*
X145793500Y-106841500D03*
%TD*%
D22*
%TO.C,D9*%
X131950500Y-81470000D03*
X131950500Y-80070000D03*
%TD*%
D18*
%TO.C,D4*%
X166483500Y-88898000D03*
X170633500Y-88898000D03*
%TD*%
D16*
%TO.C,C3*%
X141094500Y-88263000D03*
X141094500Y-86358000D03*
%TD*%
D12*
%TO.C,C5*%
X143634500Y-93089000D03*
X141729500Y-93089000D03*
%TD*%
D16*
%TO.C,R6*%
X141094500Y-83564000D03*
X141094500Y-81659000D03*
%TD*%
D23*
%TO.C,D2*%
X151635500Y-117283000D03*
X151635500Y-121283000D03*
%TD*%
D12*
%TO.C,C4*%
X144904500Y-90676000D03*
X142999500Y-90676000D03*
%TD*%
%TO.C,R20*%
X164970500Y-92327000D03*
X163065500Y-92327000D03*
%TD*%
D16*
%TO.C,R24*%
X160017500Y-99058000D03*
X160017500Y-100963000D03*
%TD*%
%TO.C,R22*%
X162557500Y-77849000D03*
X162557500Y-79754000D03*
%TD*%
D24*
%TO.C,J4*%
X160453500Y-118210000D03*
X159203500Y-118210000D03*
X157953500Y-118210000D03*
X156703500Y-118210000D03*
D25*
X162303500Y-121410000D03*
X154853500Y-121410000D03*
%TD*%
D16*
%TO.C,R3*%
X133474500Y-86485000D03*
X133474500Y-84580000D03*
%TD*%
%TO.C,R18*%
X143380500Y-82929000D03*
X143380500Y-81024000D03*
%TD*%
D22*
%TO.C,D10*%
X131696500Y-82991000D03*
X131696500Y-84391000D03*
%TD*%
D12*
%TO.C,C6*%
X126489500Y-98042000D03*
X124584500Y-98042000D03*
%TD*%
D26*
%TO.C,D8*%
X166907500Y-99947000D03*
X170907500Y-99947000D03*
%TD*%
D16*
%TO.C,R17*%
X133982500Y-82357500D03*
X133982500Y-80452500D03*
%TD*%
%TO.C,R28*%
X159509500Y-80579500D03*
X159509500Y-82484500D03*
%TD*%
D12*
%TO.C,R12*%
X127124500Y-106297000D03*
X125219500Y-106297000D03*
%TD*%
D18*
%TO.C,D7*%
X166483500Y-85422000D03*
X170633500Y-85422000D03*
%TD*%
D27*
%TO.C,L1*%
X136008500Y-86612000D03*
X138808500Y-86612000D03*
%TD*%
D12*
%TO.C,C11*%
X152282676Y-110712098D03*
X154187676Y-110712098D03*
%TD*%
%TO.C,R19*%
X164843500Y-88898000D03*
X162938500Y-88898000D03*
%TD*%
D28*
%TO.C,C13*%
X157157473Y-100470177D03*
X155810435Y-101817215D03*
%TD*%
D16*
%TO.C,L2*%
X157237648Y-105046466D03*
X157237648Y-103141466D03*
%TD*%
D29*
%TO.C,U3*%
X142268500Y-97836500D03*
X142268500Y-98936500D03*
X142268500Y-100036500D03*
X142268500Y-101136500D03*
X142268500Y-102236500D03*
X142268500Y-103336500D03*
X142268500Y-104436500D03*
X142268500Y-107436500D03*
X142268500Y-108536500D03*
X142268500Y-109636500D03*
X142268500Y-110736500D03*
X142268500Y-111836500D03*
X130268500Y-111836500D03*
X130268500Y-110736500D03*
X130268500Y-109636500D03*
X130268500Y-108536500D03*
X130268500Y-107436500D03*
X130268500Y-104436500D03*
X130268500Y-103336500D03*
X130268500Y-102236500D03*
X130268500Y-101136500D03*
X130268500Y-100036500D03*
X130268500Y-98936500D03*
X130268500Y-97836500D03*
%TD*%
D16*
%TO.C,C8*%
X149328693Y-107576092D03*
X149328693Y-105671092D03*
%TD*%
D12*
%TO.C,R10*%
X127124500Y-102233000D03*
X125219500Y-102233000D03*
%TD*%
%TO.C,R23*%
X153205809Y-107580402D03*
X151300809Y-107580402D03*
%TD*%
D16*
%TO.C,R25*%
X150746500Y-82421000D03*
X150746500Y-80516000D03*
%TD*%
%TO.C,C10*%
X159382500Y-109865700D03*
X159382500Y-111770700D03*
%TD*%
%TO.C,R5*%
X139062500Y-83945000D03*
X139062500Y-82040000D03*
%TD*%
D20*
%TO.C,J3*%
X152828500Y-78175000D03*
X154078500Y-78175000D03*
X155328500Y-78175000D03*
X156578500Y-78175000D03*
X157828500Y-78175000D03*
X159078500Y-78175000D03*
D21*
X150978500Y-74975000D03*
X160928500Y-74975000D03*
%TD*%
D12*
%TO.C,R16*%
X127124500Y-110361000D03*
X125219500Y-110361000D03*
%TD*%
D16*
%TO.C,R8*%
X147952500Y-101344000D03*
X147952500Y-99439000D03*
%TD*%
D30*
%TO.C,C1*%
X151000500Y-88771000D03*
X159400500Y-88771000D03*
%TD*%
D16*
%TO.C,R1*%
X145793500Y-82421000D03*
X145793500Y-84326000D03*
%TD*%
D31*
%TO.C,Q2*%
X161938500Y-102802000D03*
X161938500Y-100902000D03*
X163938500Y-101852000D03*
%TD*%
D12*
%TO.C,R4*%
X130172500Y-94994000D03*
X132077500Y-94994000D03*
%TD*%
D32*
%TO.C,C14*%
X154609481Y-100788059D03*
X153262443Y-99441021D03*
%TD*%
D18*
%TO.C,D3*%
X128278500Y-94994000D03*
X124128500Y-94994000D03*
%TD*%
D12*
%TO.C,C2*%
X127124500Y-100201000D03*
X125219500Y-100201000D03*
%TD*%
D33*
%TO.C,FL1*%
X150392079Y-110785361D03*
X144792079Y-110785361D03*
D34*
X150092079Y-113085361D03*
X145092079Y-113085361D03*
%TD*%
D13*
%TO.C,U1*%
X143253500Y-88385000D03*
X143253500Y-87435000D03*
X143253500Y-86485000D03*
X145453500Y-86485000D03*
X145453500Y-88385000D03*
%TD*%
D24*
%TO.C,J1*%
X146465500Y-118163000D03*
X145215500Y-118163000D03*
X143965500Y-118163000D03*
X142715500Y-118163000D03*
X141465500Y-118163000D03*
X140215500Y-118163000D03*
X138965500Y-118163000D03*
X137715500Y-118163000D03*
X136465500Y-118163000D03*
X135215500Y-118163000D03*
D25*
X148315500Y-121363000D03*
X133365500Y-121363000D03*
%TD*%
D12*
%TO.C,C12*%
X154302445Y-103286824D03*
X152397445Y-103286824D03*
%TD*%
D16*
%TO.C,R14*%
X145920500Y-94994000D03*
X145920500Y-93089000D03*
%TD*%
%TO.C,R2*%
X133030001Y-91056999D03*
X133030001Y-92961999D03*
%TD*%
D12*
%TO.C,C9*%
X158783010Y-108123392D03*
X160688010Y-108123392D03*
%TD*%
%TO.C,R9*%
X127124500Y-104265000D03*
X125219500Y-104265000D03*
%TD*%
D35*
%TO.C,BZ1*%
X166494500Y-112300000D03*
X166494500Y-103850000D03*
%TD*%
D19*
%TO.C,Q3*%
X163634500Y-83548000D03*
X161734500Y-83548000D03*
X162684500Y-81548000D03*
%TD*%
D12*
%TO.C,R26*%
X157589884Y-110704797D03*
X155684884Y-110704797D03*
%TD*%
M02*
