%TF.GenerationSoftware,KiCad,Pcbnew,7.0.7-7.0.7~ubuntu23.04.1*%
%TF.CreationDate,2023-09-24T00:30:57+00:00*%
%TF.ProjectId,TFGPS01,54464750-5330-4312-9e6b-696361645f70,REV*%
%TF.SameCoordinates,Original*%
%TF.FileFunction,Copper,L3,Inr*%
%TF.FilePolarity,Positive*%
%FSLAX46Y46*%
G04 Gerber Fmt 4.6, Leading zero omitted, Abs format (unit mm)*
G04 Created by KiCad (PCBNEW 7.0.7-7.0.7~ubuntu23.04.1) date 2023-09-24 00:30:57*
%MOMM*%
%LPD*%
G01*
G04 APERTURE LIST*
%TA.AperFunction,ComponentPad*%
%ADD10C,6.000000*%
%TD*%
%TA.AperFunction,ComponentPad*%
%ADD11O,2.000000X1.000000*%
%TD*%
%TA.AperFunction,ComponentPad*%
%ADD12O,2.100000X1.050000*%
%TD*%
%TA.AperFunction,ViaPad*%
%ADD13C,0.800000*%
%TD*%
%TA.AperFunction,ViaPad*%
%ADD14C,0.700000*%
%TD*%
%TA.AperFunction,ViaPad*%
%ADD15C,0.600000*%
%TD*%
%TA.AperFunction,Conductor*%
%ADD16C,1.000000*%
%TD*%
%TA.AperFunction,Conductor*%
%ADD17C,0.500000*%
%TD*%
G04 APERTURE END LIST*
D10*
%TO.N,GND*%
%TO.C,M4*%
X167718500Y-118189000D03*
%TD*%
%TO.N,GND*%
%TO.C,M2*%
X127678500Y-118189000D03*
%TD*%
%TO.N,GND*%
%TO.C,M1*%
X167718500Y-78149000D03*
%TD*%
%TO.N,GND*%
%TO.C,M3*%
X127678500Y-78149000D03*
%TD*%
D11*
%TO.N,GND*%
%TO.C,J2*%
X124838500Y-92329000D03*
X124838500Y-83689000D03*
D12*
X129018500Y-92329000D03*
X129018500Y-83689000D03*
%TD*%
D13*
%TO.N,GND*%
X141983500Y-94994000D03*
X162938500Y-75309000D03*
X158722100Y-103757000D03*
X133728500Y-110869000D03*
X140522110Y-107322501D03*
X126108500Y-85469000D03*
X126108500Y-90549000D03*
X155724900Y-99591400D03*
D14*
X156876500Y-112139000D03*
D13*
X153413500Y-84834000D03*
D15*
X167129500Y-83945000D03*
D13*
X132458500Y-114044000D03*
D14*
X157824900Y-112139000D03*
D13*
X150848100Y-104366600D03*
X164208500Y-107059000D03*
X159687300Y-95527400D03*
D14*
X155166100Y-109395800D03*
D13*
X152372100Y-103350600D03*
X131823500Y-74039000D03*
D14*
X145260100Y-109040200D03*
D13*
X138808500Y-98804000D03*
D14*
X153082900Y-112139000D03*
D13*
X154302500Y-98169000D03*
X150746500Y-103147400D03*
X153997700Y-97102200D03*
D14*
X148155700Y-111123000D03*
D13*
X154048500Y-116584000D03*
X146428500Y-79119000D03*
X133728500Y-112139000D03*
X152778500Y-101115400D03*
X157858500Y-86104000D03*
X143046470Y-95201031D03*
X153540500Y-101826600D03*
D14*
X156598565Y-109649800D03*
D13*
X152143500Y-84834000D03*
X132458500Y-115314000D03*
X155674100Y-104519000D03*
X147546100Y-107008200D03*
X162938500Y-118489000D03*
X151965700Y-100404200D03*
X137538500Y-100074000D03*
X157909300Y-95730600D03*
D14*
X146377700Y-109141800D03*
D13*
X157655300Y-101928200D03*
X151559300Y-101369400D03*
D14*
X152168900Y-112139000D03*
D13*
X153438900Y-96187800D03*
X138808500Y-101979000D03*
X154353300Y-109243400D03*
X158722100Y-102690200D03*
X131188500Y-118489000D03*
X153413500Y-86104000D03*
X149679700Y-98270600D03*
X149374900Y-104265000D03*
D14*
X156486900Y-106093800D03*
D13*
X155013700Y-98880200D03*
X140078500Y-100074000D03*
X152143500Y-86104000D03*
X131823500Y-75309000D03*
X131188500Y-121029000D03*
D15*
X165986500Y-83945000D03*
D14*
X147088900Y-111123000D03*
D13*
X164208500Y-75309000D03*
X131188500Y-119759000D03*
X158163300Y-106754200D03*
X131188500Y-122299000D03*
X157858500Y-84834000D03*
D14*
X148866900Y-109091000D03*
D13*
X159890500Y-102360000D03*
X135633500Y-112139000D03*
X160500100Y-105789000D03*
X153159500Y-82675000D03*
X150441700Y-96289400D03*
X149476500Y-118743000D03*
X150873500Y-86104000D03*
X149781300Y-97102200D03*
X151356100Y-95832200D03*
X150873500Y-84834000D03*
X150848100Y-102080600D03*
X163573500Y-117219000D03*
X158722100Y-104874600D03*
D14*
X154979700Y-112139000D03*
X154031300Y-112139000D03*
D13*
X149984500Y-99388200D03*
X126108500Y-86739000D03*
D15*
X156637384Y-110704797D03*
D13*
X163573500Y-105154000D03*
X150873500Y-79119000D03*
D15*
X161795500Y-86358000D03*
D13*
X155623300Y-103401400D03*
X152270500Y-109243400D03*
X148155700Y-112443800D03*
X126108500Y-88009000D03*
X134363500Y-103249000D03*
D14*
X147088900Y-109853000D03*
D13*
X146428500Y-77849000D03*
X152422900Y-105484200D03*
X155623300Y-96391000D03*
X126108500Y-89279000D03*
X133728500Y-115314000D03*
X158112500Y-99439000D03*
X149730500Y-101369400D03*
X149984500Y-108837000D03*
X153311900Y-109243400D03*
X160652500Y-103249000D03*
X132458500Y-107059000D03*
X135633500Y-110869000D03*
X159128500Y-86104000D03*
X146987300Y-112494600D03*
X133728500Y-114044000D03*
X171828500Y-109599000D03*
X159128500Y-84834000D03*
X151000500Y-105839800D03*
X151152900Y-108989400D03*
X144040900Y-107516200D03*
D14*
X155775700Y-105535000D03*
X143888500Y-109345000D03*
D13*
X150873500Y-83564000D03*
D14*
X155928100Y-112139000D03*
D13*
X158823700Y-105992200D03*
X150848100Y-100150200D03*
X152422900Y-95832200D03*
X148968500Y-77849000D03*
D14*
X148104900Y-109802200D03*
D13*
%TO.N,/VBACKUP*%
X150604225Y-90555979D03*
X128648500Y-100074000D03*
%TO.N,+3V3*%
X146936500Y-88263000D03*
X146936500Y-80643000D03*
X147190500Y-104773000D03*
%TO.N,+5V*%
X157858500Y-75563000D03*
D14*
X171912501Y-88601001D03*
D13*
X151762500Y-118997000D03*
D14*
X132204500Y-78992000D03*
D13*
X168526500Y-109599000D03*
D14*
X161224000Y-78928500D03*
D13*
%TO.N,/SAFETY_SW_LED*%
X136924752Y-114725652D03*
X158630188Y-80506312D03*
X154048500Y-80516000D03*
%TO.N,/RTK_STAT*%
X159636500Y-94105000D03*
X139570500Y-109345000D03*
X128394500Y-110615000D03*
%TO.N,/BUZZER*%
X160906500Y-97407000D03*
X156588500Y-79666000D03*
X162723499Y-104280003D03*
X136395500Y-116457000D03*
X160328574Y-114876861D03*
%TO.N,/GEO_STAT*%
X138720490Y-108356215D03*
X158798499Y-90726999D03*
X128267500Y-109218000D03*
%TO.N,/SAFETY_SW*%
X136928900Y-113409000D03*
X155318500Y-83564000D03*
%TO.N,/SDA1*%
X141475500Y-116457000D03*
X157858500Y-116457000D03*
%TO.N,/TX*%
X124025700Y-104265000D03*
X143937541Y-116467041D03*
X143380500Y-82167000D03*
%TO.N,/RX*%
X133894500Y-82914206D03*
X145412500Y-116457000D03*
X133855500Y-94486000D03*
X123974900Y-102233000D03*
%TO.N,/SDA*%
X123949500Y-108329000D03*
X139062500Y-82789011D03*
%TO.N,/SCL*%
X124076500Y-106297000D03*
X141094500Y-82421000D03*
%TO.N,Net-(J5-Pad1)*%
X135633500Y-80389000D03*
X146047500Y-91819000D03*
%TO.N,Net-(J5-Pad2)*%
X146815723Y-91178814D03*
X137030500Y-80389000D03*
%TO.N,Net-(J5-Pad3)*%
X138681500Y-94486000D03*
X124076500Y-110361000D03*
X138554500Y-80389000D03*
%TO.N,Net-(J5-Pad6)*%
X133982500Y-79119000D03*
X141953500Y-80105000D03*
%TO.N,/D1-*%
X140658477Y-91140000D03*
X146356448Y-98477948D03*
%TO.N,/D1+*%
X147444500Y-98296000D03*
X140658477Y-90090000D03*
%TO.N,/SAFE_VCC*%
X137623259Y-116626241D03*
X152778500Y-80008000D03*
%TO.N,/VBUS*%
X131696500Y-85469000D03*
X131175500Y-90409000D03*
X135317500Y-90422000D03*
%TO.N,Net-(D9-Pad1)*%
X134938500Y-86159000D03*
X132698500Y-83219000D03*
%TD*%
D16*
%TO.N,+3V3*%
X146936500Y-88263000D02*
X148562100Y-89888600D01*
X148562100Y-103401400D02*
X147190500Y-104773000D01*
X148562100Y-89888600D02*
X148562100Y-103401400D01*
X146936500Y-80643000D02*
X146936500Y-88263000D01*
%TO.N,+5V*%
X168526500Y-109599000D02*
X159128500Y-118997000D01*
X171912501Y-83775001D02*
X171912501Y-88601001D01*
X132204500Y-78103000D02*
X132204500Y-78992000D01*
X134744500Y-75563000D02*
X152778500Y-75563000D01*
X152778500Y-75563000D02*
X157858500Y-75563000D01*
X164782490Y-82486990D02*
X170624490Y-82486990D01*
X171912501Y-88601001D02*
X171912501Y-106212999D01*
X157858500Y-75563000D02*
X161224000Y-78928500D01*
X159128500Y-118997000D02*
X151762500Y-118997000D01*
X132204500Y-78103000D02*
X134744500Y-75563000D01*
X170624490Y-82486990D02*
X171912501Y-83775001D01*
X161224000Y-78928500D02*
X164782490Y-82486990D01*
X171912501Y-106212999D02*
X168526500Y-109599000D01*
D17*
%TO.N,/SAFETY_SW_LED*%
X158620500Y-80516000D02*
X158630188Y-80506312D01*
X154048500Y-80516000D02*
X158620500Y-80516000D01*
X165478500Y-108583000D02*
X159941300Y-114120200D01*
X159600774Y-80506312D02*
X165758511Y-86664049D01*
X158630188Y-80506312D02*
X159600774Y-80506312D01*
X159610463Y-80516000D02*
X158639876Y-80516000D01*
X165758511Y-88109989D02*
X165758511Y-87728989D01*
X137530204Y-114120200D02*
X136924752Y-114725652D01*
X165758511Y-108302989D02*
X165758511Y-88109989D01*
X158639876Y-80516000D02*
X158630188Y-80506312D01*
X159941300Y-114120200D02*
X137530204Y-114120200D01*
X165758511Y-86664049D02*
X165758511Y-88109989D01*
X165478500Y-108583000D02*
X165758511Y-108302989D01*
%TO.N,/RTK_STAT*%
X130680500Y-109345000D02*
X129664500Y-109345000D01*
X130680500Y-109345000D02*
X139570500Y-109345000D01*
X129664500Y-109345000D02*
X128394500Y-110615000D01*
%TO.N,/BUZZER*%
X136395500Y-116457000D02*
X137997741Y-114854759D01*
X160306472Y-114854759D02*
X160328574Y-114876861D01*
X137997741Y-114854759D02*
X160306472Y-114854759D01*
%TO.N,/GEO_STAT*%
X128267500Y-109218000D02*
X129129285Y-108356215D01*
X158786499Y-90738999D02*
X158798499Y-90726999D01*
X129129285Y-108356215D02*
X138720490Y-108356215D01*
%TO.N,/SAFETY_SW*%
X163891000Y-85786500D02*
X161668500Y-83564000D01*
X162176500Y-110767400D02*
X159534900Y-113409000D01*
X165058501Y-107885399D02*
X165046700Y-107897200D01*
X159534900Y-113409000D02*
X136928900Y-113409000D01*
X163891000Y-85786500D02*
X165058501Y-86954001D01*
X162176500Y-110767400D02*
X165046700Y-107897200D01*
X155318500Y-83564000D02*
X161668500Y-83564000D01*
X165058501Y-86954001D02*
X165058501Y-107885399D01*
%TO.N,/SDA1*%
X142364500Y-115568000D02*
X156969500Y-115568000D01*
X156969500Y-115568000D02*
X157858500Y-116457000D01*
X141475500Y-116457000D02*
X142364500Y-115568000D01*
%TO.N,/TX*%
X143380500Y-82167000D02*
X142452501Y-81239001D01*
X136167501Y-83068035D02*
X136167501Y-93951999D01*
X125854500Y-104265000D02*
X124025700Y-104265000D01*
X137996535Y-81239001D02*
X136167501Y-83068035D01*
X142452501Y-81239001D02*
X137996535Y-81239001D01*
X136167501Y-93951999D02*
X125854500Y-104265000D01*
%TO.N,/RX*%
X131721900Y-94486000D02*
X123974900Y-102233000D01*
X133855500Y-94486000D02*
X131721900Y-94486000D01*
%TO.N,/SDA*%
X137792500Y-94486000D02*
X123949500Y-108329000D01*
X137792500Y-94486000D02*
X137792500Y-84199000D01*
X139062500Y-82789011D02*
X137792500Y-84059011D01*
X137792500Y-84059011D02*
X137792500Y-84199000D01*
%TO.N,/SCL*%
X136942499Y-83495119D02*
X136942499Y-94193001D01*
X138498607Y-81939011D02*
X136942499Y-83495119D01*
X136942499Y-94193001D02*
X124838500Y-106297000D01*
X140612511Y-81939011D02*
X138498607Y-81939011D01*
X141094500Y-82421000D02*
X140612511Y-81939011D01*
X124838500Y-106297000D02*
X124076500Y-106297000D01*
%TO.N,Net-(J5-Pad3)*%
X138681500Y-94486000D02*
X138681500Y-95756000D01*
X138681500Y-95756000D02*
X124076500Y-110361000D01*
%TO.N,Net-(J5-Pad6)*%
X140967500Y-79119000D02*
X141953500Y-80105000D01*
X133982500Y-79119000D02*
X140967500Y-79119000D01*
%TO.N,/D1-*%
X146356448Y-97308912D02*
X146356448Y-98477948D01*
X140658477Y-91140000D02*
X140658477Y-91610941D01*
X140658477Y-91610941D02*
X146356448Y-97308912D01*
%TO.N,/D1+*%
X141602500Y-90676000D02*
X141016500Y-90090000D01*
X147444500Y-98296000D02*
X147444500Y-97407000D01*
X141602500Y-91565000D02*
X141602500Y-90676000D01*
X147444500Y-97407000D02*
X141602500Y-91565000D01*
X141016500Y-90090000D02*
X140658477Y-90090000D01*
%TO.N,/SAFE_VCC*%
X138431019Y-117434001D02*
X137623259Y-116626241D01*
X159917501Y-79665999D02*
X166458521Y-86207019D01*
X149515499Y-117434001D02*
X138431019Y-117434001D01*
X166458521Y-86207019D02*
X166458521Y-110004916D01*
X154429500Y-78357000D02*
X152778500Y-80008000D01*
X159917501Y-79665999D02*
X159067501Y-78815999D01*
X158620500Y-78357000D02*
X154429500Y-78357000D01*
X159067501Y-78815999D02*
X159067501Y-78804001D01*
X149515499Y-117434001D02*
X159029436Y-117434001D01*
X159067501Y-78804001D02*
X158620500Y-78357000D01*
X166458521Y-110004916D02*
X159029436Y-117434001D01*
%TO.N,/VBUS*%
X135317500Y-89090000D02*
X131696500Y-85469000D01*
X135317500Y-90422000D02*
X131188500Y-90422000D01*
X131188500Y-90422000D02*
X131175500Y-90409000D01*
X135317500Y-90422000D02*
X135317500Y-89090000D01*
%TO.N,Net-(D9-Pad1)*%
X134938500Y-85459000D02*
X132698500Y-83219000D01*
X134938500Y-86159000D02*
X134938500Y-85459000D01*
%TD*%
%TA.AperFunction,Conductor*%
%TO.N,GND*%
G36*
X172662208Y-73194322D02*
G01*
X172692648Y-73247045D01*
X172694000Y-73262500D01*
X172694000Y-83209556D01*
X172673178Y-83266764D01*
X172620455Y-83297204D01*
X172560500Y-83286632D01*
X172542067Y-83272489D01*
X172414764Y-83145185D01*
X171818774Y-82549195D01*
X171171260Y-81901681D01*
X171126751Y-81857173D01*
X171090566Y-81834437D01*
X171086493Y-81831547D01*
X171053083Y-81804903D01*
X171053079Y-81804900D01*
X171053077Y-81804899D01*
X171014571Y-81786355D01*
X171010201Y-81783940D01*
X170974012Y-81761200D01*
X170933676Y-81747086D01*
X170929064Y-81745175D01*
X170890556Y-81726632D01*
X170890549Y-81726629D01*
X170863014Y-81720344D01*
X170848877Y-81717117D01*
X170844084Y-81715736D01*
X170803744Y-81701621D01*
X170803745Y-81701621D01*
X170761276Y-81696836D01*
X170756355Y-81696000D01*
X170714685Y-81686490D01*
X170714684Y-81686490D01*
X170669444Y-81686490D01*
X165150934Y-81686490D01*
X165093726Y-81665668D01*
X165088001Y-81660423D01*
X158392753Y-74965174D01*
X158360761Y-74933183D01*
X158324576Y-74910447D01*
X158320503Y-74907557D01*
X158287093Y-74880913D01*
X158287089Y-74880910D01*
X158287087Y-74880909D01*
X158248581Y-74862365D01*
X158244211Y-74859950D01*
X158244206Y-74859947D01*
X158238556Y-74856397D01*
X158208022Y-74837210D01*
X158167686Y-74823096D01*
X158163074Y-74821185D01*
X158124566Y-74802642D01*
X158124559Y-74802639D01*
X158097024Y-74796354D01*
X158082887Y-74793127D01*
X158078094Y-74791746D01*
X158037754Y-74777631D01*
X158037755Y-74777631D01*
X157995286Y-74772846D01*
X157990365Y-74772010D01*
X157948695Y-74762500D01*
X157948694Y-74762500D01*
X157903454Y-74762500D01*
X152823454Y-74762500D01*
X134834694Y-74762500D01*
X134654305Y-74762500D01*
X134654303Y-74762500D01*
X134654297Y-74762501D01*
X134612633Y-74772010D01*
X134607712Y-74772846D01*
X134565249Y-74777631D01*
X134565240Y-74777632D01*
X134526820Y-74791076D01*
X134524907Y-74791746D01*
X134524901Y-74791748D01*
X134520105Y-74793129D01*
X134478438Y-74802641D01*
X134478437Y-74802641D01*
X134439933Y-74821183D01*
X134435322Y-74823093D01*
X134394981Y-74837209D01*
X134394974Y-74837212D01*
X134358791Y-74859947D01*
X134354424Y-74862361D01*
X134315918Y-74880906D01*
X134315908Y-74880912D01*
X134282496Y-74907556D01*
X134278426Y-74910444D01*
X134242236Y-74933185D01*
X131574685Y-77600736D01*
X131574682Y-77600740D01*
X131551945Y-77636926D01*
X131549056Y-77640997D01*
X131522412Y-77674407D01*
X131522406Y-77674418D01*
X131503866Y-77712914D01*
X131501452Y-77717283D01*
X131478711Y-77753476D01*
X131464593Y-77793819D01*
X131462683Y-77798430D01*
X131444140Y-77836939D01*
X131434627Y-77878609D01*
X131433246Y-77883404D01*
X131419132Y-77923744D01*
X131419131Y-77923749D01*
X131414346Y-77966214D01*
X131413510Y-77971135D01*
X131404000Y-78012804D01*
X131404000Y-79036960D01*
X131419130Y-79171248D01*
X131419131Y-79171253D01*
X131419132Y-79171255D01*
X131442688Y-79238573D01*
X131478712Y-79341525D01*
X131574681Y-79494258D01*
X131574684Y-79494262D01*
X131702238Y-79621816D01*
X131702240Y-79621817D01*
X131702241Y-79621818D01*
X131854974Y-79717787D01*
X131854975Y-79717787D01*
X131854978Y-79717789D01*
X132025245Y-79777368D01*
X132074128Y-79782875D01*
X132204497Y-79797565D01*
X132204500Y-79797565D01*
X132204503Y-79797565D01*
X132309431Y-79785742D01*
X132383755Y-79777368D01*
X132554022Y-79717789D01*
X132706762Y-79621816D01*
X132834316Y-79494262D01*
X132930289Y-79341522D01*
X132989868Y-79171255D01*
X132992065Y-79151761D01*
X132996128Y-79115699D01*
X133005000Y-79036954D01*
X133005000Y-78471444D01*
X133025822Y-78414236D01*
X133031067Y-78408511D01*
X135050011Y-76389567D01*
X135105187Y-76363839D01*
X135112944Y-76363500D01*
X152733546Y-76363500D01*
X157490056Y-76363500D01*
X157547264Y-76384322D01*
X157552989Y-76389567D01*
X158829651Y-77666229D01*
X158855379Y-77721405D01*
X158839623Y-77780210D01*
X158789753Y-77815129D01*
X158757610Y-77817695D01*
X158752065Y-77817124D01*
X158752064Y-77817124D01*
X158740812Y-77815966D01*
X158731229Y-77814981D01*
X158716330Y-77812149D01*
X158696166Y-77806500D01*
X158696165Y-77806500D01*
X158651004Y-77806500D01*
X158646465Y-77806267D01*
X158626712Y-77804237D01*
X158601530Y-77801647D01*
X158601527Y-77801648D01*
X158580891Y-77805206D01*
X158565770Y-77806500D01*
X154438927Y-77806500D01*
X154372673Y-77804236D01*
X154328792Y-77814929D01*
X154324314Y-77815780D01*
X154279577Y-77821930D01*
X154260372Y-77830271D01*
X154245999Y-77835105D01*
X154225651Y-77840065D01*
X154225649Y-77840065D01*
X154225648Y-77840066D01*
X154199862Y-77854564D01*
X154186276Y-77862203D01*
X154182195Y-77864230D01*
X154140779Y-77882219D01*
X154140778Y-77882220D01*
X154124538Y-77895432D01*
X154111999Y-77903966D01*
X154093746Y-77914230D01*
X154093741Y-77914233D01*
X154061807Y-77946166D01*
X154058425Y-77949218D01*
X154023391Y-77977722D01*
X154023388Y-77977726D01*
X154011313Y-77994831D01*
X154001539Y-78006434D01*
X152720319Y-79287655D01*
X152678685Y-79311137D01*
X152528275Y-79348209D01*
X152377654Y-79427262D01*
X152377651Y-79427264D01*
X152377649Y-79427265D01*
X152377648Y-79427266D01*
X152319063Y-79479167D01*
X152250315Y-79540072D01*
X152250313Y-79540075D01*
X152153683Y-79680067D01*
X152093360Y-79839128D01*
X152079537Y-79952973D01*
X152072855Y-80008000D01*
X152093360Y-80176872D01*
X152151492Y-80330156D01*
X152153683Y-80335932D01*
X152250313Y-80475924D01*
X152250315Y-80475927D01*
X152250316Y-80475928D01*
X152250317Y-80475929D01*
X152377648Y-80588734D01*
X152528275Y-80667790D01*
X152693444Y-80708500D01*
X152693445Y-80708500D01*
X152863555Y-80708500D01*
X152863556Y-80708500D01*
X153028725Y-80667790D01*
X153179352Y-80588734D01*
X153208020Y-80563335D01*
X153264648Y-80540985D01*
X153322395Y-80560264D01*
X153354239Y-80612151D01*
X153355388Y-80619223D01*
X153363360Y-80684872D01*
X153418317Y-80829784D01*
X153423683Y-80843932D01*
X153520313Y-80983924D01*
X153520315Y-80983927D01*
X153520316Y-80983928D01*
X153520317Y-80983929D01*
X153647648Y-81096734D01*
X153798275Y-81175790D01*
X153963444Y-81216500D01*
X153963445Y-81216500D01*
X154133555Y-81216500D01*
X154133556Y-81216500D01*
X154298725Y-81175790D01*
X154449352Y-81096734D01*
X154458215Y-81088881D01*
X154514844Y-81066532D01*
X154517232Y-81066500D01*
X158172391Y-81066500D01*
X158224006Y-81085286D01*
X158224904Y-81083987D01*
X158229334Y-81087044D01*
X158229336Y-81087046D01*
X158379963Y-81166102D01*
X158545132Y-81206812D01*
X158545133Y-81206812D01*
X158715243Y-81206812D01*
X158715244Y-81206812D01*
X158880413Y-81166102D01*
X159031040Y-81087046D01*
X159031045Y-81087041D01*
X159035472Y-81083987D01*
X159036735Y-81085818D01*
X159085589Y-81066532D01*
X159087985Y-81066500D01*
X159345571Y-81066500D01*
X159402779Y-81087322D01*
X159408504Y-81092567D01*
X161177504Y-82861567D01*
X161203232Y-82916743D01*
X161187476Y-82975548D01*
X161137606Y-83010467D01*
X161114571Y-83013500D01*
X155787232Y-83013500D01*
X155730024Y-82992678D01*
X155728215Y-82991118D01*
X155726109Y-82989252D01*
X155719352Y-82983266D01*
X155719349Y-82983264D01*
X155655263Y-82949629D01*
X155568725Y-82904210D01*
X155568722Y-82904209D01*
X155483841Y-82883288D01*
X155403556Y-82863500D01*
X155233444Y-82863500D01*
X155068275Y-82904209D01*
X154917654Y-82983262D01*
X154917651Y-82983264D01*
X154917649Y-82983265D01*
X154917648Y-82983266D01*
X154883521Y-83013500D01*
X154790315Y-83096072D01*
X154790313Y-83096075D01*
X154693683Y-83236067D01*
X154633360Y-83395128D01*
X154614755Y-83548356D01*
X154612855Y-83564000D01*
X154633360Y-83732872D01*
X154688699Y-83878790D01*
X154693683Y-83891932D01*
X154790313Y-84031924D01*
X154790315Y-84031927D01*
X154790316Y-84031928D01*
X154790317Y-84031929D01*
X154917648Y-84144734D01*
X155068275Y-84223790D01*
X155233444Y-84264500D01*
X155233445Y-84264500D01*
X155403555Y-84264500D01*
X155403556Y-84264500D01*
X155568725Y-84223790D01*
X155719352Y-84144734D01*
X155728215Y-84136881D01*
X155784844Y-84114532D01*
X155787232Y-84114500D01*
X161403609Y-84114500D01*
X161460817Y-84135322D01*
X161466542Y-84140567D01*
X164481934Y-87155959D01*
X164507662Y-87211135D01*
X164508001Y-87218892D01*
X164508001Y-107620508D01*
X164487179Y-107677716D01*
X164481934Y-107683440D01*
X161840741Y-110324633D01*
X161840741Y-110324634D01*
X159332942Y-112832433D01*
X159277766Y-112858161D01*
X159270009Y-112858500D01*
X137397632Y-112858500D01*
X137340424Y-112837678D01*
X137338615Y-112836118D01*
X137329752Y-112828266D01*
X137329749Y-112828264D01*
X137265663Y-112794629D01*
X137179125Y-112749210D01*
X137179122Y-112749209D01*
X137094241Y-112728288D01*
X137013956Y-112708500D01*
X136843844Y-112708500D01*
X136678675Y-112749209D01*
X136528054Y-112828262D01*
X136528051Y-112828264D01*
X136528049Y-112828265D01*
X136528048Y-112828266D01*
X136493921Y-112858500D01*
X136400715Y-112941072D01*
X136400713Y-112941075D01*
X136304083Y-113081067D01*
X136243760Y-113240128D01*
X136223255Y-113408999D01*
X136223255Y-113409000D01*
X136243760Y-113577871D01*
X136304083Y-113736932D01*
X136400713Y-113876924D01*
X136400715Y-113876927D01*
X136400716Y-113876928D01*
X136400717Y-113876929D01*
X136528048Y-113989734D01*
X136528054Y-113989737D01*
X136532483Y-113992795D01*
X136530773Y-113995271D01*
X136564609Y-114032380D01*
X136567116Y-114093208D01*
X136529937Y-114141416D01*
X136524019Y-114144835D01*
X136523904Y-114144915D01*
X136523901Y-114144917D01*
X136523900Y-114144918D01*
X136471278Y-114191536D01*
X136396567Y-114257724D01*
X136396565Y-114257727D01*
X136299935Y-114397719D01*
X136239612Y-114556780D01*
X136219107Y-114725651D01*
X136219107Y-114725652D01*
X136239612Y-114894523D01*
X136299935Y-115053584D01*
X136396565Y-115193576D01*
X136396567Y-115193579D01*
X136396568Y-115193580D01*
X136396569Y-115193581D01*
X136523900Y-115306386D01*
X136523907Y-115306389D01*
X136523906Y-115306389D01*
X136576612Y-115334052D01*
X136617590Y-115379075D01*
X136620041Y-115439905D01*
X136598184Y-115475790D01*
X136337318Y-115736656D01*
X136295684Y-115760137D01*
X136145275Y-115797209D01*
X135994654Y-115876262D01*
X135994651Y-115876264D01*
X135994649Y-115876265D01*
X135994648Y-115876266D01*
X135938802Y-115925741D01*
X135867315Y-115989072D01*
X135867313Y-115989075D01*
X135770683Y-116129067D01*
X135752055Y-116178185D01*
X135710360Y-116288128D01*
X135689855Y-116457000D01*
X135700332Y-116543289D01*
X135710360Y-116625871D01*
X135770683Y-116784932D01*
X135867313Y-116924924D01*
X135867315Y-116924927D01*
X135867316Y-116924928D01*
X135867317Y-116924929D01*
X135994648Y-117037734D01*
X136145275Y-117116790D01*
X136310444Y-117157500D01*
X136310445Y-117157500D01*
X136480555Y-117157500D01*
X136480556Y-117157500D01*
X136645725Y-117116790D01*
X136796352Y-117037734D01*
X136882353Y-116961543D01*
X136938980Y-116939193D01*
X136996727Y-116958472D01*
X137014612Y-116977599D01*
X137095076Y-117094170D01*
X137222407Y-117206975D01*
X137373034Y-117286031D01*
X137523444Y-117323103D01*
X137565077Y-117346584D01*
X138035098Y-117816604D01*
X138080336Y-117865043D01*
X138118922Y-117888507D01*
X138122687Y-117891069D01*
X138144895Y-117907910D01*
X138158674Y-117918360D01*
X138158679Y-117918363D01*
X138178153Y-117926043D01*
X138191743Y-117932793D01*
X138209631Y-117943670D01*
X138209632Y-117943671D01*
X138209635Y-117943671D01*
X138209637Y-117943673D01*
X138253131Y-117955859D01*
X138257446Y-117957311D01*
X138299455Y-117973877D01*
X138320289Y-117976018D01*
X138335188Y-117978850D01*
X138355354Y-117984501D01*
X138400515Y-117984501D01*
X138405053Y-117984733D01*
X138437251Y-117988043D01*
X138449988Y-117989353D01*
X138449988Y-117989352D01*
X138449991Y-117989353D01*
X138467490Y-117986335D01*
X138470628Y-117985795D01*
X138485749Y-117984501D01*
X149439834Y-117984501D01*
X158794055Y-117984501D01*
X158851263Y-118005323D01*
X158881703Y-118058046D01*
X158871131Y-118118001D01*
X158856988Y-118136434D01*
X158822989Y-118170433D01*
X158767813Y-118196161D01*
X158760056Y-118196500D01*
X151717539Y-118196500D01*
X151583251Y-118211630D01*
X151412974Y-118271212D01*
X151260241Y-118367181D01*
X151132681Y-118494741D01*
X151036712Y-118647474D01*
X150977132Y-118817746D01*
X150977130Y-118817755D01*
X150956935Y-118996996D01*
X150956935Y-118997003D01*
X150977130Y-119176244D01*
X150977131Y-119176250D01*
X150977132Y-119176255D01*
X151032757Y-119335224D01*
X151036712Y-119346525D01*
X151132681Y-119499258D01*
X151132684Y-119499262D01*
X151260238Y-119626816D01*
X151260240Y-119626817D01*
X151260241Y-119626818D01*
X151412974Y-119722787D01*
X151412975Y-119722787D01*
X151412978Y-119722789D01*
X151583245Y-119782368D01*
X151583251Y-119782368D01*
X151583252Y-119782369D01*
X151583250Y-119782369D01*
X151673746Y-119792565D01*
X151717546Y-119797500D01*
X159218693Y-119797500D01*
X159218694Y-119797500D01*
X159218695Y-119797499D01*
X159218701Y-119797499D01*
X159260369Y-119787988D01*
X159265276Y-119787153D01*
X159307755Y-119782368D01*
X159348099Y-119768250D01*
X159352881Y-119766872D01*
X159394561Y-119757360D01*
X159408807Y-119750499D01*
X159433071Y-119738815D01*
X159437685Y-119736903D01*
X159478022Y-119722789D01*
X159514222Y-119700041D01*
X159518566Y-119697641D01*
X159544276Y-119685259D01*
X159557086Y-119679092D01*
X159560626Y-119676268D01*
X159590517Y-119652430D01*
X159594554Y-119649565D01*
X159630762Y-119626816D01*
X159694538Y-119563039D01*
X159758317Y-119499262D01*
X164363055Y-114894523D01*
X169124326Y-110133252D01*
X169124325Y-110133251D01*
X172510328Y-106747250D01*
X172510327Y-106747250D01*
X172542071Y-106715506D01*
X172597242Y-106689781D01*
X172656047Y-106705537D01*
X172690966Y-106755407D01*
X172693999Y-106778442D01*
X172694000Y-123075500D01*
X172673178Y-123132708D01*
X172620455Y-123163148D01*
X172605000Y-123164500D01*
X122792000Y-123164500D01*
X122734792Y-123143678D01*
X122704352Y-123090955D01*
X122703000Y-123075500D01*
X122703000Y-108329000D01*
X123243855Y-108329000D01*
X123264360Y-108497872D01*
X123317223Y-108637262D01*
X123324683Y-108656932D01*
X123421313Y-108796924D01*
X123421315Y-108796927D01*
X123421316Y-108796928D01*
X123421317Y-108796929D01*
X123548648Y-108909734D01*
X123699275Y-108988790D01*
X123864444Y-109029500D01*
X123864445Y-109029500D01*
X124034555Y-109029500D01*
X124034556Y-109029500D01*
X124199725Y-108988790D01*
X124350352Y-108909734D01*
X124477683Y-108796929D01*
X124574318Y-108656930D01*
X124634640Y-108497872D01*
X124641370Y-108442440D01*
X124666786Y-108390237D01*
X137979067Y-95077956D01*
X138034243Y-95052229D01*
X138093048Y-95067985D01*
X138127967Y-95117855D01*
X138131000Y-95140890D01*
X138131000Y-95491108D01*
X138110178Y-95548316D01*
X138104933Y-95554041D01*
X124018317Y-109640657D01*
X123976683Y-109664138D01*
X123826275Y-109701209D01*
X123675654Y-109780262D01*
X123675651Y-109780264D01*
X123675649Y-109780265D01*
X123675648Y-109780266D01*
X123654802Y-109798734D01*
X123548315Y-109893072D01*
X123548313Y-109893075D01*
X123451683Y-110033067D01*
X123451681Y-110033070D01*
X123451682Y-110033070D01*
X123391360Y-110192128D01*
X123370855Y-110361000D01*
X123391360Y-110529872D01*
X123446868Y-110676236D01*
X123451683Y-110688932D01*
X123548313Y-110828924D01*
X123548315Y-110828927D01*
X123548316Y-110828928D01*
X123548317Y-110828929D01*
X123675648Y-110941734D01*
X123826275Y-111020790D01*
X123991444Y-111061500D01*
X123991445Y-111061500D01*
X124161555Y-111061500D01*
X124161556Y-111061500D01*
X124326725Y-111020790D01*
X124477352Y-110941734D01*
X124604683Y-110828929D01*
X124701318Y-110688930D01*
X124761640Y-110529872D01*
X124768370Y-110474440D01*
X124793786Y-110422237D01*
X125998023Y-109218000D01*
X127561855Y-109218000D01*
X127582360Y-109386871D01*
X127642683Y-109545932D01*
X127739313Y-109685924D01*
X127739315Y-109685927D01*
X127739316Y-109685928D01*
X127739317Y-109685929D01*
X127866648Y-109798734D01*
X128004380Y-109871022D01*
X128045358Y-109916044D01*
X128047809Y-109976875D01*
X128010586Y-110025049D01*
X128004383Y-110028630D01*
X127993658Y-110034259D01*
X127993651Y-110034264D01*
X127993649Y-110034265D01*
X127993648Y-110034266D01*
X127935063Y-110086167D01*
X127866315Y-110147072D01*
X127866313Y-110147075D01*
X127769683Y-110287067D01*
X127709360Y-110446128D01*
X127699192Y-110529872D01*
X127688855Y-110615000D01*
X127709360Y-110783872D01*
X127769229Y-110941735D01*
X127769683Y-110942932D01*
X127866313Y-111082924D01*
X127866315Y-111082927D01*
X127866316Y-111082928D01*
X127866317Y-111082929D01*
X127993648Y-111195734D01*
X128144275Y-111274790D01*
X128309444Y-111315500D01*
X128309445Y-111315500D01*
X128479555Y-111315500D01*
X128479556Y-111315500D01*
X128644725Y-111274790D01*
X128795352Y-111195734D01*
X128922683Y-111082929D01*
X129019318Y-110942930D01*
X129079640Y-110783872D01*
X129086370Y-110728440D01*
X129111788Y-110676236D01*
X129866458Y-109921567D01*
X129921633Y-109895839D01*
X129929390Y-109895500D01*
X130604835Y-109895500D01*
X139101768Y-109895500D01*
X139158976Y-109916322D01*
X139160783Y-109917880D01*
X139169648Y-109925734D01*
X139320275Y-110004790D01*
X139485444Y-110045500D01*
X139485445Y-110045500D01*
X139655555Y-110045500D01*
X139655556Y-110045500D01*
X139820725Y-110004790D01*
X139971352Y-109925734D01*
X140098683Y-109812929D01*
X140195318Y-109672930D01*
X140255640Y-109513872D01*
X140276145Y-109345000D01*
X140255640Y-109176128D01*
X140195318Y-109017070D01*
X140121231Y-108909737D01*
X140098686Y-108877075D01*
X140098684Y-108877072D01*
X140098683Y-108877071D01*
X139971352Y-108764266D01*
X139971347Y-108764263D01*
X139971345Y-108764262D01*
X139820724Y-108685209D01*
X139696265Y-108654533D01*
X139655556Y-108644500D01*
X139489281Y-108644500D01*
X139432073Y-108623678D01*
X139401633Y-108570955D01*
X139405438Y-108530581D01*
X139404342Y-108530311D01*
X139405630Y-108525085D01*
X139406110Y-108521138D01*
X139426135Y-108356215D01*
X139405630Y-108187343D01*
X139345308Y-108028285D01*
X139326521Y-108001067D01*
X139248676Y-107888290D01*
X139248674Y-107888287D01*
X139240940Y-107881435D01*
X139121342Y-107775481D01*
X139121337Y-107775478D01*
X139121335Y-107775477D01*
X138970714Y-107696424D01*
X138846255Y-107665748D01*
X138805546Y-107655715D01*
X138635434Y-107655715D01*
X138470267Y-107696424D01*
X138319640Y-107775479D01*
X138319639Y-107775480D01*
X138310775Y-107783333D01*
X138254146Y-107805683D01*
X138251758Y-107805715D01*
X129138682Y-107805715D01*
X129072458Y-107803452D01*
X129028585Y-107814143D01*
X129024107Y-107814994D01*
X128979366Y-107821144D01*
X128960155Y-107829489D01*
X128945772Y-107834325D01*
X128925436Y-107839280D01*
X128925431Y-107839282D01*
X128886069Y-107861413D01*
X128881988Y-107863440D01*
X128840567Y-107881433D01*
X128840561Y-107881436D01*
X128824319Y-107894650D01*
X128811779Y-107903185D01*
X128793528Y-107913448D01*
X128793525Y-107913450D01*
X128761597Y-107945377D01*
X128758214Y-107948430D01*
X128723176Y-107976937D01*
X128723175Y-107976939D01*
X128711101Y-107994043D01*
X128701326Y-108005648D01*
X128209317Y-108497657D01*
X128167683Y-108521138D01*
X128017275Y-108558209D01*
X127866654Y-108637262D01*
X127866651Y-108637264D01*
X127866649Y-108637265D01*
X127866648Y-108637266D01*
X127844452Y-108656930D01*
X127739315Y-108750072D01*
X127739313Y-108750075D01*
X127642683Y-108890067D01*
X127582360Y-109049128D01*
X127561855Y-109217999D01*
X127561855Y-109218000D01*
X125998023Y-109218000D01*
X139064102Y-96151921D01*
X139112544Y-96106680D01*
X139136009Y-96068089D01*
X139138560Y-96064340D01*
X139165861Y-96028342D01*
X139173540Y-96008866D01*
X139180294Y-95995269D01*
X139191172Y-95977382D01*
X139203360Y-95933880D01*
X139204805Y-95929583D01*
X139221376Y-95887564D01*
X139223517Y-95866729D01*
X139226349Y-95851829D01*
X139232000Y-95831665D01*
X139232000Y-95786502D01*
X139232234Y-95781947D01*
X139232292Y-95781381D01*
X139236852Y-95737028D01*
X139233294Y-95716389D01*
X139232000Y-95701269D01*
X139232000Y-94949330D01*
X139247755Y-94898772D01*
X139306318Y-94813930D01*
X139366640Y-94654872D01*
X139387145Y-94486000D01*
X139366640Y-94317128D01*
X139306318Y-94158070D01*
X139290693Y-94135433D01*
X139209686Y-94018075D01*
X139209684Y-94018072D01*
X139201950Y-94011220D01*
X139082352Y-93905266D01*
X139082347Y-93905263D01*
X139082345Y-93905262D01*
X138931724Y-93826209D01*
X138807265Y-93795533D01*
X138766556Y-93785500D01*
X138596444Y-93785500D01*
X138596442Y-93785500D01*
X138453298Y-93820781D01*
X138392770Y-93814254D01*
X138350597Y-93770347D01*
X138343000Y-93734367D01*
X138343000Y-91140000D01*
X139952832Y-91140000D01*
X139973337Y-91308872D01*
X140033659Y-91467930D01*
X140033660Y-91467932D01*
X140092114Y-91552616D01*
X140107817Y-91606212D01*
X140105714Y-91667767D01*
X140116405Y-91711641D01*
X140117256Y-91716119D01*
X140123407Y-91760861D01*
X140131749Y-91780067D01*
X140136586Y-91794449D01*
X140141544Y-91814793D01*
X140141546Y-91814798D01*
X140163676Y-91854157D01*
X140165704Y-91858239D01*
X140183696Y-91899659D01*
X140183698Y-91899663D01*
X140196906Y-91915897D01*
X140205446Y-91928444D01*
X140215711Y-91946700D01*
X140215714Y-91946703D01*
X140247651Y-91978641D01*
X140250705Y-91982026D01*
X140263057Y-91997208D01*
X140279199Y-92017049D01*
X140279200Y-92017050D01*
X140279202Y-92017052D01*
X140296298Y-92029119D01*
X140307908Y-92038897D01*
X145779881Y-97510870D01*
X145805609Y-97566046D01*
X145805948Y-97573803D01*
X145805948Y-98014615D01*
X145790194Y-98065172D01*
X145731630Y-98150016D01*
X145671308Y-98309076D01*
X145650803Y-98477947D01*
X145650803Y-98477948D01*
X145671308Y-98646819D01*
X145731631Y-98805880D01*
X145828261Y-98945872D01*
X145828263Y-98945875D01*
X145828264Y-98945876D01*
X145828265Y-98945877D01*
X145955596Y-99058682D01*
X146106223Y-99137738D01*
X146271392Y-99178448D01*
X146271393Y-99178448D01*
X146441503Y-99178448D01*
X146441504Y-99178448D01*
X146606673Y-99137738D01*
X146757300Y-99058682D01*
X146884631Y-98945877D01*
X146917714Y-98897947D01*
X146967346Y-98862696D01*
X147028029Y-98867595D01*
X147041528Y-98875270D01*
X147043651Y-98876736D01*
X147084069Y-98897949D01*
X147194275Y-98955790D01*
X147359444Y-98996500D01*
X147359445Y-98996500D01*
X147529555Y-98996500D01*
X147529556Y-98996500D01*
X147651303Y-98966492D01*
X147711830Y-98973018D01*
X147754002Y-99016925D01*
X147761600Y-99052906D01*
X147761600Y-103032956D01*
X147740778Y-103090164D01*
X147735533Y-103095888D01*
X146592675Y-104238746D01*
X146508407Y-104344415D01*
X146508406Y-104344416D01*
X146430141Y-104506934D01*
X146407089Y-104607935D01*
X146390000Y-104682806D01*
X146390000Y-104863194D01*
X146416774Y-104980502D01*
X146430141Y-105039065D01*
X146483020Y-105148866D01*
X146508409Y-105201587D01*
X146620880Y-105342620D01*
X146761913Y-105455091D01*
X146876084Y-105510073D01*
X146924434Y-105533358D01*
X146924435Y-105533358D01*
X146924439Y-105533360D01*
X147100306Y-105573500D01*
X147100309Y-105573500D01*
X147280691Y-105573500D01*
X147280694Y-105573500D01*
X147456561Y-105533360D01*
X147619087Y-105455091D01*
X147724752Y-105370826D01*
X148815575Y-104280003D01*
X162017854Y-104280003D01*
X162038359Y-104448875D01*
X162092991Y-104592930D01*
X162098682Y-104607935D01*
X162195312Y-104747927D01*
X162195314Y-104747930D01*
X162195315Y-104747931D01*
X162195316Y-104747932D01*
X162322647Y-104860737D01*
X162473274Y-104939793D01*
X162638443Y-104980503D01*
X162638444Y-104980503D01*
X162808554Y-104980503D01*
X162808555Y-104980503D01*
X162973724Y-104939793D01*
X163124351Y-104860737D01*
X163251682Y-104747932D01*
X163348317Y-104607933D01*
X163408639Y-104448875D01*
X163429144Y-104280003D01*
X163408639Y-104111131D01*
X163348317Y-103952073D01*
X163289922Y-103867474D01*
X163251685Y-103812078D01*
X163251683Y-103812075D01*
X163251682Y-103812074D01*
X163124351Y-103699269D01*
X163124346Y-103699266D01*
X163124344Y-103699265D01*
X162973723Y-103620212D01*
X162849264Y-103589536D01*
X162808555Y-103579503D01*
X162638443Y-103579503D01*
X162473274Y-103620212D01*
X162322653Y-103699265D01*
X162322650Y-103699267D01*
X162322648Y-103699268D01*
X162322647Y-103699269D01*
X162264343Y-103750922D01*
X162195314Y-103812075D01*
X162195312Y-103812078D01*
X162098682Y-103952070D01*
X162038359Y-104111131D01*
X162022864Y-104238746D01*
X162017854Y-104280003D01*
X148815575Y-104280003D01*
X149159926Y-103935652D01*
X149159926Y-103935651D01*
X149191916Y-103903662D01*
X149214665Y-103867454D01*
X149217530Y-103863417D01*
X149244191Y-103829987D01*
X149244191Y-103829986D01*
X149262734Y-103791482D01*
X149265144Y-103787118D01*
X149287889Y-103750922D01*
X149302007Y-103710572D01*
X149303918Y-103705960D01*
X149322459Y-103667461D01*
X149331971Y-103625782D01*
X149333348Y-103621005D01*
X149347468Y-103580655D01*
X149352254Y-103538172D01*
X149353086Y-103533272D01*
X149362600Y-103491595D01*
X149362600Y-103311206D01*
X149362600Y-103311205D01*
X149362600Y-98243335D01*
X150424000Y-98243335D01*
X150464929Y-98488614D01*
X150545672Y-98723810D01*
X150545673Y-98723813D01*
X150545674Y-98723814D01*
X150623484Y-98867595D01*
X150664026Y-98942509D01*
X150749952Y-99052906D01*
X150816761Y-99138743D01*
X150999712Y-99307163D01*
X151199561Y-99437729D01*
X151207893Y-99443173D01*
X151435619Y-99543063D01*
X151676679Y-99604108D01*
X151862433Y-99619500D01*
X151986567Y-99619500D01*
X152172321Y-99604108D01*
X152413381Y-99543063D01*
X152641107Y-99443173D01*
X152849285Y-99307164D01*
X152849286Y-99307163D01*
X152849287Y-99307163D01*
X152932869Y-99230219D01*
X153032238Y-99138744D01*
X153184974Y-98942509D01*
X153303328Y-98723810D01*
X153384071Y-98488614D01*
X153425000Y-98243335D01*
X153425000Y-97994665D01*
X153384071Y-97749386D01*
X153303328Y-97514190D01*
X153245320Y-97407000D01*
X160200855Y-97407000D01*
X160221360Y-97575871D01*
X160281683Y-97734932D01*
X160378313Y-97874924D01*
X160378315Y-97874927D01*
X160378316Y-97874928D01*
X160378317Y-97874929D01*
X160505648Y-97987734D01*
X160656275Y-98066790D01*
X160821444Y-98107500D01*
X160821445Y-98107500D01*
X160991555Y-98107500D01*
X160991556Y-98107500D01*
X161156725Y-98066790D01*
X161307352Y-97987734D01*
X161434683Y-97874929D01*
X161531318Y-97734930D01*
X161591640Y-97575872D01*
X161612145Y-97407000D01*
X161591640Y-97238128D01*
X161531318Y-97079070D01*
X161531316Y-97079067D01*
X161434686Y-96939075D01*
X161434684Y-96939072D01*
X161434683Y-96939071D01*
X161307352Y-96826266D01*
X161307347Y-96826263D01*
X161307345Y-96826262D01*
X161156724Y-96747209D01*
X161032265Y-96716533D01*
X160991556Y-96706500D01*
X160821444Y-96706500D01*
X160656275Y-96747209D01*
X160505654Y-96826262D01*
X160505651Y-96826264D01*
X160505649Y-96826265D01*
X160505648Y-96826266D01*
X160447063Y-96878167D01*
X160378315Y-96939072D01*
X160378313Y-96939075D01*
X160281683Y-97079067D01*
X160221360Y-97238128D01*
X160200855Y-97406999D01*
X160200855Y-97407000D01*
X153245320Y-97407000D01*
X153184974Y-97295491D01*
X153032238Y-97099256D01*
X153010307Y-97079067D01*
X152849287Y-96930836D01*
X152641109Y-96794828D01*
X152638403Y-96793641D01*
X152413381Y-96694937D01*
X152413376Y-96694935D01*
X152413375Y-96694935D01*
X152172318Y-96633891D01*
X151986567Y-96618500D01*
X151862433Y-96618500D01*
X151676682Y-96633891D01*
X151676681Y-96633891D01*
X151435624Y-96694935D01*
X151435621Y-96694936D01*
X151435619Y-96694937D01*
X151207893Y-96794827D01*
X151207891Y-96794828D01*
X151207890Y-96794828D01*
X150999713Y-96930836D01*
X150999712Y-96930836D01*
X150816761Y-97099256D01*
X150664023Y-97295495D01*
X150664022Y-97295497D01*
X150545674Y-97514185D01*
X150464930Y-97749382D01*
X150464928Y-97749388D01*
X150425156Y-97987735D01*
X150424000Y-97994665D01*
X150424000Y-98243335D01*
X149362600Y-98243335D01*
X149362600Y-94105000D01*
X158930855Y-94105000D01*
X158951360Y-94273871D01*
X159011683Y-94432932D01*
X159108313Y-94572924D01*
X159108315Y-94572927D01*
X159108316Y-94572928D01*
X159108317Y-94572929D01*
X159235648Y-94685734D01*
X159386275Y-94764790D01*
X159551444Y-94805500D01*
X159551445Y-94805500D01*
X159721555Y-94805500D01*
X159721556Y-94805500D01*
X159886725Y-94764790D01*
X160037352Y-94685734D01*
X160164683Y-94572929D01*
X160261318Y-94432930D01*
X160321640Y-94273872D01*
X160342145Y-94105000D01*
X160321640Y-93936128D01*
X160261318Y-93777070D01*
X160256677Y-93770347D01*
X160164686Y-93637075D01*
X160164684Y-93637072D01*
X160164683Y-93637071D01*
X160037352Y-93524266D01*
X160037347Y-93524263D01*
X160037345Y-93524262D01*
X159886724Y-93445209D01*
X159762264Y-93414533D01*
X159721556Y-93404500D01*
X159551444Y-93404500D01*
X159386275Y-93445209D01*
X159235654Y-93524262D01*
X159235651Y-93524264D01*
X159235649Y-93524265D01*
X159235648Y-93524266D01*
X159177063Y-93576167D01*
X159108315Y-93637072D01*
X159108313Y-93637075D01*
X159011683Y-93777067D01*
X158951360Y-93936128D01*
X158930855Y-94104999D01*
X158930855Y-94105000D01*
X149362600Y-94105000D01*
X149362600Y-90555979D01*
X149898580Y-90555979D01*
X149919085Y-90724851D01*
X149976758Y-90876924D01*
X149979408Y-90883911D01*
X150076038Y-91023903D01*
X150076040Y-91023906D01*
X150076041Y-91023907D01*
X150076042Y-91023908D01*
X150203373Y-91136713D01*
X150354000Y-91215769D01*
X150519169Y-91256479D01*
X150519170Y-91256479D01*
X150689280Y-91256479D01*
X150689281Y-91256479D01*
X150854450Y-91215769D01*
X151005077Y-91136713D01*
X151132408Y-91023908D01*
X151229043Y-90883909D01*
X151288550Y-90726999D01*
X158092854Y-90726999D01*
X158113359Y-90895871D01*
X158173681Y-91054929D01*
X158173682Y-91054931D01*
X158270312Y-91194923D01*
X158270314Y-91194926D01*
X158270315Y-91194927D01*
X158270316Y-91194928D01*
X158397647Y-91307733D01*
X158548274Y-91386789D01*
X158713443Y-91427499D01*
X158713444Y-91427499D01*
X158883554Y-91427499D01*
X158883555Y-91427499D01*
X159048724Y-91386789D01*
X159199351Y-91307733D01*
X159326682Y-91194928D01*
X159423317Y-91054929D01*
X159483639Y-90895871D01*
X159504144Y-90726999D01*
X159483639Y-90558127D01*
X159423317Y-90399069D01*
X159395307Y-90358490D01*
X159326685Y-90259074D01*
X159326683Y-90259071D01*
X159326682Y-90259070D01*
X159199351Y-90146265D01*
X159199346Y-90146262D01*
X159199344Y-90146261D01*
X159048723Y-90067208D01*
X158924264Y-90036532D01*
X158883555Y-90026499D01*
X158713443Y-90026499D01*
X158548274Y-90067208D01*
X158397653Y-90146261D01*
X158397650Y-90146263D01*
X158397648Y-90146264D01*
X158397647Y-90146265D01*
X158343641Y-90194110D01*
X158270314Y-90259071D01*
X158270312Y-90259074D01*
X158173682Y-90399066D01*
X158113359Y-90558127D01*
X158099524Y-90672071D01*
X158092854Y-90726999D01*
X151288550Y-90726999D01*
X151289365Y-90724851D01*
X151309870Y-90555979D01*
X151289365Y-90387107D01*
X151229043Y-90228049D01*
X151223610Y-90220178D01*
X151132411Y-90088054D01*
X151132409Y-90088051D01*
X151108882Y-90067208D01*
X151005077Y-89975245D01*
X151005072Y-89975242D01*
X151005070Y-89975241D01*
X150854449Y-89896188D01*
X150729990Y-89865512D01*
X150689281Y-89855479D01*
X150519169Y-89855479D01*
X150354000Y-89896188D01*
X150203379Y-89975241D01*
X150203376Y-89975243D01*
X150203374Y-89975244D01*
X150203373Y-89975245D01*
X150145519Y-90026499D01*
X150076040Y-90088051D01*
X150076038Y-90088054D01*
X149979408Y-90228046D01*
X149949580Y-90306696D01*
X149919085Y-90387107D01*
X149898580Y-90555979D01*
X149362600Y-90555979D01*
X149362600Y-89843646D01*
X149362600Y-89798406D01*
X149353087Y-89756726D01*
X149352254Y-89751825D01*
X149347468Y-89709345D01*
X149337557Y-89681021D01*
X149333353Y-89669005D01*
X149331970Y-89664207D01*
X149322460Y-89622539D01*
X149322237Y-89622075D01*
X149303912Y-89584020D01*
X149302001Y-89579407D01*
X149298059Y-89568143D01*
X149287889Y-89539078D01*
X149265148Y-89502886D01*
X149262736Y-89498521D01*
X149244192Y-89460015D01*
X149244192Y-89460014D01*
X149217543Y-89426598D01*
X149214655Y-89422528D01*
X149191916Y-89386338D01*
X149064362Y-89258783D01*
X147763067Y-87957489D01*
X147737339Y-87902313D01*
X147737000Y-87894556D01*
X147737000Y-80598042D01*
X147736999Y-80598039D01*
X147735950Y-80588732D01*
X147723241Y-80475927D01*
X147721869Y-80463751D01*
X147721868Y-80463749D01*
X147721868Y-80463745D01*
X147662289Y-80293478D01*
X147662287Y-80293475D01*
X147662287Y-80293474D01*
X147566318Y-80140741D01*
X147566317Y-80140740D01*
X147566316Y-80140738D01*
X147438762Y-80013184D01*
X147438759Y-80013182D01*
X147438758Y-80013181D01*
X147286025Y-79917212D01*
X147213844Y-79891955D01*
X147115755Y-79857632D01*
X147115750Y-79857631D01*
X147115744Y-79857630D01*
X146936503Y-79837435D01*
X146936497Y-79837435D01*
X146757255Y-79857630D01*
X146757247Y-79857631D01*
X146757245Y-79857632D01*
X146677760Y-79885444D01*
X146586974Y-79917212D01*
X146434241Y-80013181D01*
X146306681Y-80140741D01*
X146210712Y-80293474D01*
X146151130Y-80463751D01*
X146136000Y-80598039D01*
X146136000Y-88353195D01*
X146145510Y-88394865D01*
X146146346Y-88399786D01*
X146151131Y-88442255D01*
X146165246Y-88482594D01*
X146166629Y-88487392D01*
X146176139Y-88529059D01*
X146176142Y-88529066D01*
X146194685Y-88567574D01*
X146196596Y-88572186D01*
X146210710Y-88612522D01*
X146233450Y-88648711D01*
X146235865Y-88653081D01*
X146254406Y-88691581D01*
X146254413Y-88691593D01*
X146281057Y-88725003D01*
X146283947Y-88729076D01*
X146306683Y-88765261D01*
X146326153Y-88784730D01*
X146326155Y-88784733D01*
X146326156Y-88784733D01*
X146338674Y-88797251D01*
X146338674Y-88797252D01*
X147735533Y-90194111D01*
X147761261Y-90249286D01*
X147761600Y-90257043D01*
X147761600Y-96730708D01*
X147740778Y-96787916D01*
X147688055Y-96818356D01*
X147628100Y-96807784D01*
X147609668Y-96793641D01*
X142635026Y-91819000D01*
X145341855Y-91819000D01*
X145362360Y-91987872D01*
X145421980Y-92145078D01*
X145422683Y-92146932D01*
X145519313Y-92286924D01*
X145519315Y-92286927D01*
X145519316Y-92286928D01*
X145519317Y-92286929D01*
X145646648Y-92399734D01*
X145797275Y-92478790D01*
X145962444Y-92519500D01*
X145962445Y-92519500D01*
X146132555Y-92519500D01*
X146132556Y-92519500D01*
X146297725Y-92478790D01*
X146448352Y-92399734D01*
X146575683Y-92286929D01*
X146672318Y-92146930D01*
X146732640Y-91987872D01*
X146736317Y-91957586D01*
X146763882Y-91903306D01*
X146819890Y-91879442D01*
X146824668Y-91879314D01*
X146900778Y-91879314D01*
X146900779Y-91879314D01*
X147065948Y-91838604D01*
X147216575Y-91759548D01*
X147343906Y-91646743D01*
X147440541Y-91506744D01*
X147500863Y-91347686D01*
X147521368Y-91178814D01*
X147500863Y-91009942D01*
X147440541Y-90850884D01*
X147440539Y-90850881D01*
X147343909Y-90710889D01*
X147343907Y-90710886D01*
X147343906Y-90710885D01*
X147216575Y-90598080D01*
X147216570Y-90598077D01*
X147216568Y-90598076D01*
X147065947Y-90519023D01*
X146941487Y-90488347D01*
X146900779Y-90478314D01*
X146730667Y-90478314D01*
X146565498Y-90519023D01*
X146414877Y-90598076D01*
X146414874Y-90598078D01*
X146414872Y-90598079D01*
X146414871Y-90598080D01*
X146356286Y-90649981D01*
X146287538Y-90710886D01*
X146287536Y-90710889D01*
X146190906Y-90850881D01*
X146130582Y-91009942D01*
X146126906Y-91040227D01*
X146099341Y-91094508D01*
X146043333Y-91118372D01*
X146038555Y-91118500D01*
X145962444Y-91118500D01*
X145797275Y-91159209D01*
X145646654Y-91238262D01*
X145646651Y-91238264D01*
X145646649Y-91238265D01*
X145646648Y-91238266D01*
X145626091Y-91256478D01*
X145519315Y-91351072D01*
X145519313Y-91351075D01*
X145422683Y-91491067D01*
X145363646Y-91646738D01*
X145362360Y-91650128D01*
X145341855Y-91819000D01*
X142635026Y-91819000D01*
X142179068Y-91363042D01*
X142153339Y-91307866D01*
X142153000Y-91300109D01*
X142153000Y-90685397D01*
X142155262Y-90619177D01*
X142155261Y-90619176D01*
X142155262Y-90619174D01*
X142144568Y-90575293D01*
X142143721Y-90570838D01*
X142137570Y-90526080D01*
X142129226Y-90506873D01*
X142124388Y-90492482D01*
X142119433Y-90472149D01*
X142119433Y-90472147D01*
X142097301Y-90432784D01*
X142095273Y-90428702D01*
X142077281Y-90387283D01*
X142077280Y-90387280D01*
X142064068Y-90371041D01*
X142055525Y-90358490D01*
X142045265Y-90340241D01*
X142045262Y-90340238D01*
X142013334Y-90308309D01*
X142010279Y-90304924D01*
X141981779Y-90269893D01*
X141964668Y-90257814D01*
X141953061Y-90248037D01*
X141412407Y-89707382D01*
X141367180Y-89658956D01*
X141367177Y-89658954D01*
X141367176Y-89658953D01*
X141343003Y-89644253D01*
X141328595Y-89635491D01*
X141324831Y-89632930D01*
X141311128Y-89622539D01*
X141288842Y-89605639D01*
X141288840Y-89605638D01*
X141269363Y-89597957D01*
X141255773Y-89591207D01*
X141237883Y-89580328D01*
X141237880Y-89580327D01*
X141194396Y-89568143D01*
X141190075Y-89566690D01*
X141148067Y-89550125D01*
X141148066Y-89550124D01*
X141148064Y-89550124D01*
X141128331Y-89548094D01*
X141078420Y-89526179D01*
X141059329Y-89509266D01*
X141059327Y-89509265D01*
X141059326Y-89509264D01*
X140965488Y-89460014D01*
X140908702Y-89430210D01*
X140908699Y-89430209D01*
X140823818Y-89409288D01*
X140743533Y-89389500D01*
X140573421Y-89389500D01*
X140408252Y-89430209D01*
X140257631Y-89509262D01*
X140257628Y-89509264D01*
X140257626Y-89509265D01*
X140257625Y-89509266D01*
X140223974Y-89539078D01*
X140130292Y-89622072D01*
X140130290Y-89622075D01*
X140033660Y-89762067D01*
X139973337Y-89921128D01*
X139960543Y-90026499D01*
X139952832Y-90090000D01*
X139973337Y-90258872D01*
X140033659Y-90417930D01*
X140033660Y-90417932D01*
X140133352Y-90562360D01*
X140131573Y-90563587D01*
X140150919Y-90612622D01*
X140132694Y-90667187D01*
X140133352Y-90667641D01*
X140131784Y-90669911D01*
X140131633Y-90670366D01*
X140130719Y-90671454D01*
X140033660Y-90812067D01*
X139973337Y-90971128D01*
X139955443Y-91118500D01*
X139952832Y-91140000D01*
X138343000Y-91140000D01*
X138343000Y-84323901D01*
X138363822Y-84266693D01*
X138369067Y-84260969D01*
X139120680Y-83509355D01*
X139162314Y-83485873D01*
X139312725Y-83448801D01*
X139463352Y-83369745D01*
X139590683Y-83256940D01*
X139687318Y-83116941D01*
X139747640Y-82957883D01*
X139768145Y-82789011D01*
X139747640Y-82620139D01*
X139747639Y-82620136D01*
X139747639Y-82620135D01*
X139743822Y-82610069D01*
X139743006Y-82549195D01*
X139781510Y-82502038D01*
X139827039Y-82489511D01*
X140318327Y-82489511D01*
X140375535Y-82510333D01*
X140405975Y-82563056D01*
X140406677Y-82567776D01*
X140409360Y-82589872D01*
X140469229Y-82747735D01*
X140469683Y-82748932D01*
X140566313Y-82888924D01*
X140566315Y-82888927D01*
X140566316Y-82888928D01*
X140566317Y-82888929D01*
X140693648Y-83001734D01*
X140844275Y-83080790D01*
X141009444Y-83121500D01*
X141009445Y-83121500D01*
X141179555Y-83121500D01*
X141179556Y-83121500D01*
X141344725Y-83080790D01*
X141495352Y-83001734D01*
X141622683Y-82888929D01*
X141719318Y-82748930D01*
X141779640Y-82589872D01*
X141800145Y-82421000D01*
X141779640Y-82252128D01*
X141719318Y-82093070D01*
X141622683Y-81953071D01*
X141613706Y-81945118D01*
X141584693Y-81891598D01*
X141596870Y-81831949D01*
X141644539Y-81794082D01*
X141672724Y-81789501D01*
X142187610Y-81789501D01*
X142244818Y-81810323D01*
X142250543Y-81815568D01*
X142663211Y-82228236D01*
X142688629Y-82280440D01*
X142695360Y-82335872D01*
X142727644Y-82421000D01*
X142755683Y-82494932D01*
X142852313Y-82634924D01*
X142852315Y-82634927D01*
X142852316Y-82634928D01*
X142852317Y-82634929D01*
X142979648Y-82747734D01*
X143130275Y-82826790D01*
X143295444Y-82867500D01*
X143295445Y-82867500D01*
X143465555Y-82867500D01*
X143465556Y-82867500D01*
X143630725Y-82826790D01*
X143781352Y-82747734D01*
X143908683Y-82634929D01*
X144005318Y-82494930D01*
X144065640Y-82335872D01*
X144086145Y-82167000D01*
X144065640Y-81998128D01*
X144005318Y-81839070D01*
X143908683Y-81699071D01*
X143781352Y-81586266D01*
X143781347Y-81586263D01*
X143781345Y-81586262D01*
X143630724Y-81507209D01*
X143480316Y-81470138D01*
X143438683Y-81446657D01*
X142848407Y-80856382D01*
X142836779Y-80843932D01*
X142803181Y-80807957D01*
X142803178Y-80807955D01*
X142803177Y-80807954D01*
X142779004Y-80793254D01*
X142764596Y-80784492D01*
X142760832Y-80781931D01*
X142724843Y-80754640D01*
X142724841Y-80754639D01*
X142705364Y-80746958D01*
X142691774Y-80740208D01*
X142673884Y-80729329D01*
X142673881Y-80729328D01*
X142630397Y-80717144D01*
X142626076Y-80715691D01*
X142584068Y-80699126D01*
X142584067Y-80699125D01*
X142584065Y-80699125D01*
X142576722Y-80698369D01*
X142563230Y-80696982D01*
X142548334Y-80694151D01*
X142544606Y-80693107D01*
X142542442Y-80692500D01*
X142492971Y-80657021D01*
X142477879Y-80598042D01*
X142493202Y-80556241D01*
X142498239Y-80548943D01*
X142578318Y-80432930D01*
X142638640Y-80273872D01*
X142659145Y-80105000D01*
X142638640Y-79936128D01*
X142578318Y-79777070D01*
X142554080Y-79741955D01*
X142481686Y-79637075D01*
X142481684Y-79637072D01*
X142464466Y-79621818D01*
X142354352Y-79524266D01*
X142354347Y-79524263D01*
X142354345Y-79524262D01*
X142203724Y-79445209D01*
X142053316Y-79408138D01*
X142011683Y-79384657D01*
X141363406Y-78736381D01*
X141363405Y-78736381D01*
X141318180Y-78687956D01*
X141318177Y-78687954D01*
X141318176Y-78687953D01*
X141294003Y-78673253D01*
X141279595Y-78664491D01*
X141275831Y-78661930D01*
X141261511Y-78651071D01*
X141239842Y-78634639D01*
X141239840Y-78634638D01*
X141220363Y-78626957D01*
X141206773Y-78620207D01*
X141188883Y-78609328D01*
X141188880Y-78609327D01*
X141145396Y-78597143D01*
X141141075Y-78595690D01*
X141099067Y-78579125D01*
X141099066Y-78579124D01*
X141099064Y-78579124D01*
X141091721Y-78578368D01*
X141078229Y-78576981D01*
X141063330Y-78574149D01*
X141043166Y-78568500D01*
X141043165Y-78568500D01*
X140998004Y-78568500D01*
X140993465Y-78568267D01*
X140975813Y-78566453D01*
X140948530Y-78563647D01*
X140948527Y-78563648D01*
X140927891Y-78567206D01*
X140912770Y-78568500D01*
X134451232Y-78568500D01*
X134394024Y-78547678D01*
X134392215Y-78546118D01*
X134383352Y-78538266D01*
X134383349Y-78538264D01*
X134297359Y-78493133D01*
X134232725Y-78459210D01*
X134232722Y-78459209D01*
X134132788Y-78434578D01*
X134067556Y-78418500D01*
X133897444Y-78418500D01*
X133732275Y-78459209D01*
X133581654Y-78538262D01*
X133581651Y-78538264D01*
X133581649Y-78538265D01*
X133581648Y-78538266D01*
X133538826Y-78576203D01*
X133454315Y-78651072D01*
X133454313Y-78651075D01*
X133357683Y-78791067D01*
X133297360Y-78950128D01*
X133280952Y-79085262D01*
X133276855Y-79119000D01*
X133297360Y-79287872D01*
X133357030Y-79445210D01*
X133357683Y-79446932D01*
X133454313Y-79586924D01*
X133454315Y-79586927D01*
X133454316Y-79586928D01*
X133454317Y-79586929D01*
X133581648Y-79699734D01*
X133732275Y-79778790D01*
X133897444Y-79819500D01*
X133897445Y-79819500D01*
X134067555Y-79819500D01*
X134067556Y-79819500D01*
X134232725Y-79778790D01*
X134383352Y-79699734D01*
X134392215Y-79691881D01*
X134448844Y-79669532D01*
X134451232Y-79669500D01*
X135154609Y-79669500D01*
X135211817Y-79690322D01*
X135242257Y-79743045D01*
X135231685Y-79803000D01*
X135213629Y-79825114D01*
X135176925Y-79857632D01*
X135105315Y-79921072D01*
X135105313Y-79921075D01*
X135008683Y-80061067D01*
X135008681Y-80061070D01*
X135008682Y-80061070D01*
X134948360Y-80220128D01*
X134927855Y-80389000D01*
X134948360Y-80557872D01*
X135008212Y-80715691D01*
X135008683Y-80716932D01*
X135105313Y-80856924D01*
X135105315Y-80856927D01*
X135105316Y-80856928D01*
X135105317Y-80856929D01*
X135232648Y-80969734D01*
X135383275Y-81048790D01*
X135548444Y-81089500D01*
X135548445Y-81089500D01*
X135718555Y-81089500D01*
X135718556Y-81089500D01*
X135883725Y-81048790D01*
X136034352Y-80969734D01*
X136161683Y-80856929D01*
X136258318Y-80716930D01*
X136258319Y-80716926D01*
X136258754Y-80716297D01*
X136308389Y-80681044D01*
X136369071Y-80685943D01*
X136405246Y-80716297D01*
X136405680Y-80716927D01*
X136405682Y-80716930D01*
X136502317Y-80856929D01*
X136629648Y-80969734D01*
X136780275Y-81048790D01*
X136945444Y-81089500D01*
X136945445Y-81089500D01*
X137115553Y-81089500D01*
X137115556Y-81089500D01*
X137139942Y-81083489D01*
X137200469Y-81090015D01*
X137242642Y-81133921D01*
X137246726Y-81194664D01*
X137224173Y-81232835D01*
X135784882Y-82672128D01*
X135736457Y-82717354D01*
X135712993Y-82755936D01*
X135710430Y-82759702D01*
X135683139Y-82795692D01*
X135675455Y-82815176D01*
X135668709Y-82828758D01*
X135657829Y-82846651D01*
X135657828Y-82846653D01*
X135645644Y-82890136D01*
X135644192Y-82894455D01*
X135627627Y-82936465D01*
X135627625Y-82936471D01*
X135625482Y-82957305D01*
X135622650Y-82972204D01*
X135617001Y-82992368D01*
X135617001Y-83037531D01*
X135616768Y-83042069D01*
X135615043Y-83058852D01*
X135612148Y-83087004D01*
X135612149Y-83087006D01*
X135612149Y-83087007D01*
X135615570Y-83106849D01*
X135615707Y-83107643D01*
X135617001Y-83122764D01*
X135617001Y-85202617D01*
X135596179Y-85259825D01*
X135543456Y-85290265D01*
X135483501Y-85279693D01*
X135450423Y-85246237D01*
X135433301Y-85215785D01*
X135431273Y-85211702D01*
X135413281Y-85170283D01*
X135413280Y-85170280D01*
X135400068Y-85154041D01*
X135391525Y-85141490D01*
X135391287Y-85141067D01*
X135381265Y-85123241D01*
X135381262Y-85123238D01*
X135349330Y-85091305D01*
X135346275Y-85087920D01*
X135317779Y-85052893D01*
X135300668Y-85040814D01*
X135289061Y-85031037D01*
X134005436Y-83747411D01*
X133979708Y-83692236D01*
X133995464Y-83633431D01*
X134045334Y-83598512D01*
X134047047Y-83598070D01*
X134144725Y-83573996D01*
X134295352Y-83494940D01*
X134422683Y-83382135D01*
X134519318Y-83242136D01*
X134579640Y-83083078D01*
X134600145Y-82914206D01*
X134579640Y-82745334D01*
X134519318Y-82586276D01*
X134461172Y-82502038D01*
X134422686Y-82446281D01*
X134422684Y-82446278D01*
X134394151Y-82421000D01*
X134295352Y-82333472D01*
X134295347Y-82333469D01*
X134295345Y-82333468D01*
X134144724Y-82254415D01*
X134020264Y-82223739D01*
X133979556Y-82213706D01*
X133809444Y-82213706D01*
X133644275Y-82254415D01*
X133493654Y-82333468D01*
X133493651Y-82333470D01*
X133493649Y-82333471D01*
X133493648Y-82333472D01*
X133435063Y-82385373D01*
X133366315Y-82446278D01*
X133366313Y-82446281D01*
X133269684Y-82586271D01*
X133269682Y-82586276D01*
X133257809Y-82617582D01*
X133218053Y-82663688D01*
X133157962Y-82673453D01*
X133115576Y-82652639D01*
X133099353Y-82638267D01*
X133099352Y-82638266D01*
X133099348Y-82638264D01*
X133099345Y-82638262D01*
X132948724Y-82559209D01*
X132824265Y-82528533D01*
X132783556Y-82518500D01*
X132613444Y-82518500D01*
X132448275Y-82559209D01*
X132297654Y-82638262D01*
X132297651Y-82638264D01*
X132297649Y-82638265D01*
X132297648Y-82638266D01*
X132260761Y-82670945D01*
X132170315Y-82751072D01*
X132170313Y-82751075D01*
X132073683Y-82891067D01*
X132073681Y-82891070D01*
X132073682Y-82891070D01*
X132013360Y-83050128D01*
X131992855Y-83219000D01*
X132013360Y-83387872D01*
X132059432Y-83509355D01*
X132073683Y-83546932D01*
X132170313Y-83686924D01*
X132170315Y-83686927D01*
X132170316Y-83686928D01*
X132170317Y-83686929D01*
X132297648Y-83799734D01*
X132448275Y-83878790D01*
X132598685Y-83915862D01*
X132640318Y-83939343D01*
X134350407Y-85649431D01*
X134376136Y-85704607D01*
X134360721Y-85762921D01*
X134313682Y-85831068D01*
X134253360Y-85990128D01*
X134232855Y-86158999D01*
X134232855Y-86159000D01*
X134253360Y-86327871D01*
X134313683Y-86486932D01*
X134410313Y-86626924D01*
X134410315Y-86626927D01*
X134410316Y-86626928D01*
X134410317Y-86626929D01*
X134537648Y-86739734D01*
X134688275Y-86818790D01*
X134853444Y-86859500D01*
X134853445Y-86859500D01*
X135023555Y-86859500D01*
X135023556Y-86859500D01*
X135188725Y-86818790D01*
X135339352Y-86739734D01*
X135466683Y-86626929D01*
X135466685Y-86626925D01*
X135468983Y-86624890D01*
X135525612Y-86602540D01*
X135583358Y-86621819D01*
X135615202Y-86673706D01*
X135617001Y-86691508D01*
X135617001Y-88396110D01*
X135596179Y-88453318D01*
X135543456Y-88483758D01*
X135483501Y-88473186D01*
X135465068Y-88459043D01*
X132413787Y-85407762D01*
X132388370Y-85355557D01*
X132381640Y-85300128D01*
X132321318Y-85141070D01*
X132309012Y-85123242D01*
X132224686Y-85001075D01*
X132224684Y-85001072D01*
X132224683Y-85001071D01*
X132097352Y-84888266D01*
X132097347Y-84888263D01*
X132097345Y-84888262D01*
X131946724Y-84809209D01*
X131822264Y-84778533D01*
X131781556Y-84768500D01*
X131611444Y-84768500D01*
X131446275Y-84809209D01*
X131295654Y-84888262D01*
X131295651Y-84888264D01*
X131295649Y-84888265D01*
X131295648Y-84888266D01*
X131237063Y-84940167D01*
X131168315Y-85001072D01*
X131168313Y-85001075D01*
X131071683Y-85141067D01*
X131071681Y-85141070D01*
X131071682Y-85141070D01*
X131011360Y-85300128D01*
X130990855Y-85469000D01*
X131011360Y-85637872D01*
X131066946Y-85784442D01*
X131071683Y-85796932D01*
X131168313Y-85936924D01*
X131168315Y-85936927D01*
X131168316Y-85936928D01*
X131168317Y-85936929D01*
X131295648Y-86049734D01*
X131446275Y-86128790D01*
X131596685Y-86165862D01*
X131638318Y-86189343D01*
X134740932Y-89291956D01*
X134766661Y-89347132D01*
X134767000Y-89354889D01*
X134767000Y-89782500D01*
X134746178Y-89839708D01*
X134693455Y-89870148D01*
X134678000Y-89871500D01*
X131658906Y-89871500D01*
X131601698Y-89850678D01*
X131599889Y-89849118D01*
X131576353Y-89828267D01*
X131576352Y-89828266D01*
X131576348Y-89828264D01*
X131576345Y-89828262D01*
X131425724Y-89749209D01*
X131301264Y-89718533D01*
X131260556Y-89708500D01*
X131090444Y-89708500D01*
X130925275Y-89749209D01*
X130774654Y-89828262D01*
X130774651Y-89828264D01*
X130774649Y-89828265D01*
X130774648Y-89828266D01*
X130761733Y-89839708D01*
X130647315Y-89941072D01*
X130647313Y-89941075D01*
X130550683Y-90081067D01*
X130490360Y-90240128D01*
X130488213Y-90257814D01*
X130469855Y-90409000D01*
X130490360Y-90577872D01*
X130546916Y-90726999D01*
X130550683Y-90736932D01*
X130647313Y-90876924D01*
X130647315Y-90876927D01*
X130647316Y-90876928D01*
X130647317Y-90876929D01*
X130774648Y-90989734D01*
X130925275Y-91068790D01*
X131090444Y-91109500D01*
X131090445Y-91109500D01*
X131260555Y-91109500D01*
X131260556Y-91109500D01*
X131425725Y-91068790D01*
X131576352Y-90989734D01*
X131576353Y-90989732D01*
X131578494Y-90988256D01*
X131580155Y-90987738D01*
X131581120Y-90987232D01*
X131581212Y-90987408D01*
X131629054Y-90972500D01*
X134848768Y-90972500D01*
X134905976Y-90993322D01*
X134907783Y-90994880D01*
X134916648Y-91002734D01*
X135067275Y-91081790D01*
X135232444Y-91122500D01*
X135232445Y-91122500D01*
X135402555Y-91122500D01*
X135402556Y-91122500D01*
X135506703Y-91096830D01*
X135567231Y-91103356D01*
X135609403Y-91147263D01*
X135617001Y-91183244D01*
X135617001Y-93687107D01*
X135596179Y-93744315D01*
X135590933Y-93750040D01*
X134702907Y-94638065D01*
X134647732Y-94663793D01*
X134588927Y-94648037D01*
X134554008Y-94598167D01*
X134551624Y-94564408D01*
X134561145Y-94486000D01*
X134540640Y-94317128D01*
X134480318Y-94158070D01*
X134464693Y-94135433D01*
X134383686Y-94018075D01*
X134383684Y-94018072D01*
X134375950Y-94011220D01*
X134256352Y-93905266D01*
X134256347Y-93905263D01*
X134256345Y-93905262D01*
X134105724Y-93826209D01*
X133981264Y-93795533D01*
X133940556Y-93785500D01*
X133770444Y-93785500D01*
X133605277Y-93826209D01*
X133454650Y-93905264D01*
X133454649Y-93905265D01*
X133445785Y-93913118D01*
X133389156Y-93935468D01*
X133386768Y-93935500D01*
X131731297Y-93935500D01*
X131665073Y-93933237D01*
X131621200Y-93943928D01*
X131616722Y-93944779D01*
X131571981Y-93950929D01*
X131552770Y-93959274D01*
X131538387Y-93964110D01*
X131518051Y-93969065D01*
X131518046Y-93969067D01*
X131478684Y-93991198D01*
X131474603Y-93993225D01*
X131433182Y-94011218D01*
X131433176Y-94011221D01*
X131416934Y-94024435D01*
X131404394Y-94032970D01*
X131386143Y-94043233D01*
X131386140Y-94043235D01*
X131354207Y-94075166D01*
X131350824Y-94078220D01*
X131315790Y-94106723D01*
X131315790Y-94106724D01*
X131303716Y-94123828D01*
X131293941Y-94135433D01*
X123916717Y-101512657D01*
X123875083Y-101536138D01*
X123724675Y-101573209D01*
X123574054Y-101652262D01*
X123574051Y-101652264D01*
X123574049Y-101652265D01*
X123574048Y-101652266D01*
X123515463Y-101704167D01*
X123446715Y-101765072D01*
X123446713Y-101765075D01*
X123350083Y-101905067D01*
X123350081Y-101905070D01*
X123350082Y-101905070D01*
X123289760Y-102064128D01*
X123269255Y-102233000D01*
X123276690Y-102294236D01*
X123289760Y-102401871D01*
X123350083Y-102560932D01*
X123446713Y-102700924D01*
X123446715Y-102700927D01*
X123446716Y-102700928D01*
X123446717Y-102700929D01*
X123574048Y-102813734D01*
X123724675Y-102892790D01*
X123889844Y-102933500D01*
X123889845Y-102933500D01*
X124059955Y-102933500D01*
X124059956Y-102933500D01*
X124225125Y-102892790D01*
X124375752Y-102813734D01*
X124503083Y-102700929D01*
X124599718Y-102560930D01*
X124660040Y-102401872D01*
X124666770Y-102346440D01*
X124692188Y-102294236D01*
X131923858Y-95062567D01*
X131979033Y-95036839D01*
X131986790Y-95036500D01*
X133386768Y-95036500D01*
X133443976Y-95057322D01*
X133445783Y-95058880D01*
X133454648Y-95066734D01*
X133605275Y-95145790D01*
X133770444Y-95186500D01*
X133770445Y-95186500D01*
X133939608Y-95186500D01*
X133996816Y-95207322D01*
X134027256Y-95260045D01*
X134016684Y-95320000D01*
X134002540Y-95338433D01*
X129459079Y-99881893D01*
X129403904Y-99907621D01*
X129345099Y-99891865D01*
X129312930Y-99850520D01*
X129273318Y-99746070D01*
X129273316Y-99746067D01*
X129176686Y-99606075D01*
X129176684Y-99606072D01*
X129174467Y-99604108D01*
X129049352Y-99493266D01*
X129049347Y-99493263D01*
X129049345Y-99493262D01*
X128898724Y-99414209D01*
X128774264Y-99383533D01*
X128733556Y-99373500D01*
X128563444Y-99373500D01*
X128398275Y-99414209D01*
X128247654Y-99493262D01*
X128247651Y-99493264D01*
X128247649Y-99493265D01*
X128247648Y-99493266D01*
X128191441Y-99543061D01*
X128120315Y-99606072D01*
X128120313Y-99606075D01*
X128023683Y-99746067D01*
X127963360Y-99905128D01*
X127942855Y-100073999D01*
X127942855Y-100074000D01*
X127963360Y-100242871D01*
X128023683Y-100401932D01*
X128120313Y-100541924D01*
X128120315Y-100541927D01*
X128120316Y-100541928D01*
X128120317Y-100541929D01*
X128247648Y-100654734D01*
X128247655Y-100654737D01*
X128247654Y-100654737D01*
X128398277Y-100733791D01*
X128412656Y-100737335D01*
X128463220Y-100771241D01*
X128480159Y-100829717D01*
X128455547Y-100885400D01*
X128454292Y-100886681D01*
X125652542Y-103688432D01*
X125597366Y-103714161D01*
X125589609Y-103714500D01*
X124494432Y-103714500D01*
X124437224Y-103693678D01*
X124435415Y-103692118D01*
X124431254Y-103688432D01*
X124426552Y-103684266D01*
X124426549Y-103684264D01*
X124362462Y-103650629D01*
X124275925Y-103605210D01*
X124275922Y-103605209D01*
X124171626Y-103579503D01*
X124110756Y-103564500D01*
X123940644Y-103564500D01*
X123775475Y-103605209D01*
X123624854Y-103684262D01*
X123624851Y-103684264D01*
X123624849Y-103684265D01*
X123624848Y-103684266D01*
X123590721Y-103714500D01*
X123497515Y-103797072D01*
X123497513Y-103797075D01*
X123400883Y-103937067D01*
X123400881Y-103937070D01*
X123400882Y-103937070D01*
X123340560Y-104096128D01*
X123320055Y-104265000D01*
X123340560Y-104433872D01*
X123400882Y-104592930D01*
X123400883Y-104592932D01*
X123497513Y-104732924D01*
X123497515Y-104732927D01*
X123497516Y-104732928D01*
X123497517Y-104732929D01*
X123624848Y-104845734D01*
X123775475Y-104924790D01*
X123940644Y-104965500D01*
X123940645Y-104965500D01*
X124110755Y-104965500D01*
X124110756Y-104965500D01*
X124275925Y-104924790D01*
X124426552Y-104845734D01*
X124435415Y-104837881D01*
X124492044Y-104815532D01*
X124494432Y-104815500D01*
X125326609Y-104815500D01*
X125383817Y-104836322D01*
X125414257Y-104889045D01*
X125403685Y-104949000D01*
X125389542Y-104967433D01*
X124636542Y-105720433D01*
X124581366Y-105746161D01*
X124573609Y-105746500D01*
X124545232Y-105746500D01*
X124488024Y-105725678D01*
X124486215Y-105724118D01*
X124477352Y-105716266D01*
X124477349Y-105716264D01*
X124413262Y-105682629D01*
X124326725Y-105637210D01*
X124326722Y-105637209D01*
X124241841Y-105616288D01*
X124161556Y-105596500D01*
X123991444Y-105596500D01*
X123826275Y-105637209D01*
X123675654Y-105716262D01*
X123675651Y-105716264D01*
X123675649Y-105716265D01*
X123675648Y-105716266D01*
X123641521Y-105746500D01*
X123548315Y-105829072D01*
X123548313Y-105829075D01*
X123451683Y-105969067D01*
X123451681Y-105969070D01*
X123451682Y-105969070D01*
X123391360Y-106128128D01*
X123370855Y-106297000D01*
X123391360Y-106465872D01*
X123428014Y-106562521D01*
X123451683Y-106624932D01*
X123548313Y-106764924D01*
X123548315Y-106764927D01*
X123548316Y-106764928D01*
X123548317Y-106764929D01*
X123675648Y-106877734D01*
X123826275Y-106956790D01*
X123991444Y-106997500D01*
X123991445Y-106997500D01*
X124161555Y-106997500D01*
X124161556Y-106997500D01*
X124304007Y-106962389D01*
X124364535Y-106968915D01*
X124406707Y-107012822D01*
X124410791Y-107073564D01*
X124388238Y-107111736D01*
X123891317Y-107608657D01*
X123849683Y-107632138D01*
X123699275Y-107669209D01*
X123548654Y-107748262D01*
X123548651Y-107748264D01*
X123548649Y-107748265D01*
X123548648Y-107748266D01*
X123490063Y-107800167D01*
X123421315Y-107861072D01*
X123421313Y-107861075D01*
X123324683Y-108001067D01*
X123324681Y-108001070D01*
X123324682Y-108001070D01*
X123264360Y-108160128D01*
X123243855Y-108329000D01*
X122703000Y-108329000D01*
X122703000Y-92075000D01*
X123362193Y-92075000D01*
X124081007Y-92075000D01*
X124138215Y-92095822D01*
X124168655Y-92148545D01*
X124166610Y-92188356D01*
X124165299Y-92192960D01*
X124165299Y-92192962D01*
X124134605Y-92300840D01*
X124134605Y-92300841D01*
X124134605Y-92300842D01*
X124144954Y-92412521D01*
X124165772Y-92454330D01*
X124172632Y-92514821D01*
X124139004Y-92565571D01*
X124086102Y-92583000D01*
X123362194Y-92583000D01*
X123402725Y-92716614D01*
X123496323Y-92891724D01*
X123622284Y-93045207D01*
X123622292Y-93045215D01*
X123775775Y-93171176D01*
X123950885Y-93264774D01*
X124140900Y-93322415D01*
X124288974Y-93337000D01*
X124584499Y-93337000D01*
X124584500Y-93336999D01*
X124584500Y-92718000D01*
X124605322Y-92660792D01*
X124658045Y-92630352D01*
X124673500Y-92629000D01*
X125003500Y-92629000D01*
X125060708Y-92649822D01*
X125091148Y-92702545D01*
X125092500Y-92718000D01*
X125092500Y-93336999D01*
X125092501Y-93337000D01*
X125388025Y-93337000D01*
X125536099Y-93322415D01*
X125726114Y-93264774D01*
X125901224Y-93171176D01*
X126054707Y-93045215D01*
X126054715Y-93045207D01*
X126180676Y-92891724D01*
X126274274Y-92716614D01*
X126314806Y-92583000D01*
X125595993Y-92583000D01*
X125538785Y-92562178D01*
X125508345Y-92509455D01*
X125510390Y-92469644D01*
X125511700Y-92465039D01*
X125511701Y-92465038D01*
X125542395Y-92357160D01*
X125532046Y-92245479D01*
X125521710Y-92224722D01*
X125511228Y-92203670D01*
X125504368Y-92143179D01*
X125537996Y-92092429D01*
X125590898Y-92075000D01*
X126314806Y-92075000D01*
X127491068Y-92075000D01*
X128111007Y-92075000D01*
X128168215Y-92095822D01*
X128198655Y-92148545D01*
X128196610Y-92188356D01*
X128195299Y-92192960D01*
X128195299Y-92192962D01*
X128164605Y-92300840D01*
X128164605Y-92300841D01*
X128164605Y-92300842D01*
X128174954Y-92412521D01*
X128195772Y-92454330D01*
X128202632Y-92514821D01*
X128169004Y-92565571D01*
X128116102Y-92583000D01*
X127491069Y-92583000D01*
X127534517Y-92726229D01*
X127630435Y-92905681D01*
X127759520Y-93062969D01*
X127759530Y-93062979D01*
X127916818Y-93192064D01*
X128096276Y-93287985D01*
X128290996Y-93347052D01*
X128291004Y-93347054D01*
X128442747Y-93362000D01*
X128764499Y-93362000D01*
X128764500Y-93361999D01*
X128764500Y-92718000D01*
X128785322Y-92660792D01*
X128838045Y-92630352D01*
X128853500Y-92629000D01*
X129183500Y-92629000D01*
X129240708Y-92649822D01*
X129271148Y-92702545D01*
X129272500Y-92718000D01*
X129272500Y-93361998D01*
X129272501Y-93362000D01*
X129594252Y-93362000D01*
X129745995Y-93347054D01*
X129746003Y-93347052D01*
X129940723Y-93287985D01*
X130120181Y-93192064D01*
X130277469Y-93062979D01*
X130277479Y-93062969D01*
X130406564Y-92905681D01*
X130502482Y-92726229D01*
X130545931Y-92583000D01*
X129925993Y-92583000D01*
X129868785Y-92562178D01*
X129838345Y-92509455D01*
X129840390Y-92469644D01*
X129841700Y-92465039D01*
X129841701Y-92465038D01*
X129872395Y-92357160D01*
X129862046Y-92245479D01*
X129851710Y-92224722D01*
X129841228Y-92203670D01*
X129834368Y-92143179D01*
X129867996Y-92092429D01*
X129920898Y-92075000D01*
X130545931Y-92075000D01*
X130502482Y-91931770D01*
X130406564Y-91752318D01*
X130277479Y-91595030D01*
X130277469Y-91595020D01*
X130120181Y-91465935D01*
X129940723Y-91370014D01*
X129746003Y-91310947D01*
X129745995Y-91310945D01*
X129594253Y-91296000D01*
X129272501Y-91296000D01*
X129272500Y-91296001D01*
X129272500Y-91940000D01*
X129251678Y-91997208D01*
X129198955Y-92027648D01*
X129183500Y-92029000D01*
X128853500Y-92029000D01*
X128796292Y-92008178D01*
X128765852Y-91955455D01*
X128764500Y-91940000D01*
X128764500Y-91296001D01*
X128764499Y-91296000D01*
X128442747Y-91296000D01*
X128291004Y-91310945D01*
X128290996Y-91310947D01*
X128096276Y-91370014D01*
X127916818Y-91465935D01*
X127759530Y-91595020D01*
X127759520Y-91595030D01*
X127630435Y-91752318D01*
X127534517Y-91931770D01*
X127491068Y-92075000D01*
X126314806Y-92075000D01*
X126274274Y-91941385D01*
X126180676Y-91766275D01*
X126054715Y-91612792D01*
X126054707Y-91612784D01*
X125901224Y-91486823D01*
X125726114Y-91393225D01*
X125536099Y-91335584D01*
X125388026Y-91321000D01*
X125092500Y-91321000D01*
X125092500Y-91940000D01*
X125071678Y-91997208D01*
X125018955Y-92027648D01*
X125003500Y-92029000D01*
X124673500Y-92029000D01*
X124616292Y-92008178D01*
X124585852Y-91955455D01*
X124584500Y-91940000D01*
X124584500Y-91321000D01*
X124288974Y-91321000D01*
X124140900Y-91335584D01*
X123950885Y-91393225D01*
X123775775Y-91486823D01*
X123622292Y-91612784D01*
X123622284Y-91612792D01*
X123496323Y-91766275D01*
X123402725Y-91941385D01*
X123362193Y-92075000D01*
X122703000Y-92075000D01*
X122703000Y-83435000D01*
X123362193Y-83435000D01*
X124081007Y-83435000D01*
X124138215Y-83455822D01*
X124168655Y-83508545D01*
X124166610Y-83548356D01*
X124165299Y-83552960D01*
X124165299Y-83552962D01*
X124134605Y-83660840D01*
X124134605Y-83660841D01*
X124134605Y-83660842D01*
X124144954Y-83772521D01*
X124165772Y-83814330D01*
X124172632Y-83874821D01*
X124139004Y-83925571D01*
X124086102Y-83943000D01*
X123362194Y-83943000D01*
X123402725Y-84076614D01*
X123496323Y-84251724D01*
X123622284Y-84405207D01*
X123622292Y-84405215D01*
X123775775Y-84531176D01*
X123950885Y-84624774D01*
X124140900Y-84682415D01*
X124288974Y-84697000D01*
X124584499Y-84697000D01*
X124584500Y-84696998D01*
X124584500Y-84078000D01*
X124605322Y-84020792D01*
X124658045Y-83990352D01*
X124673500Y-83989000D01*
X125003500Y-83989000D01*
X125060708Y-84009822D01*
X125091148Y-84062545D01*
X125092500Y-84078000D01*
X125092500Y-84696998D01*
X125092501Y-84697000D01*
X125388025Y-84697000D01*
X125536099Y-84682415D01*
X125726114Y-84624774D01*
X125901224Y-84531176D01*
X126054707Y-84405215D01*
X126054715Y-84405207D01*
X126180676Y-84251724D01*
X126274274Y-84076614D01*
X126314806Y-83943000D01*
X125595993Y-83943000D01*
X125538785Y-83922178D01*
X125508345Y-83869455D01*
X125510390Y-83829644D01*
X125511700Y-83825039D01*
X125511701Y-83825038D01*
X125542395Y-83717160D01*
X125532046Y-83605479D01*
X125521694Y-83584689D01*
X125511228Y-83563670D01*
X125504368Y-83503179D01*
X125537996Y-83452429D01*
X125590898Y-83435000D01*
X126314806Y-83435000D01*
X127491068Y-83435000D01*
X128111007Y-83435000D01*
X128168215Y-83455822D01*
X128198655Y-83508545D01*
X128196610Y-83548356D01*
X128195299Y-83552960D01*
X128195299Y-83552962D01*
X128164605Y-83660840D01*
X128164605Y-83660841D01*
X128164605Y-83660842D01*
X128174954Y-83772521D01*
X128195772Y-83814330D01*
X128202632Y-83874821D01*
X128169004Y-83925571D01*
X128116102Y-83943000D01*
X127491069Y-83943000D01*
X127534517Y-84086229D01*
X127630435Y-84265681D01*
X127759520Y-84422969D01*
X127759530Y-84422979D01*
X127916818Y-84552064D01*
X128096276Y-84647985D01*
X128290996Y-84707052D01*
X128291004Y-84707054D01*
X128442747Y-84722000D01*
X128764499Y-84722000D01*
X128764500Y-84721999D01*
X128764500Y-84078000D01*
X128785322Y-84020792D01*
X128838045Y-83990352D01*
X128853500Y-83989000D01*
X129183500Y-83989000D01*
X129240708Y-84009822D01*
X129271148Y-84062545D01*
X129272500Y-84078000D01*
X129272500Y-84721999D01*
X129272501Y-84722000D01*
X129594252Y-84722000D01*
X129745995Y-84707054D01*
X129746003Y-84707052D01*
X129940723Y-84647985D01*
X130120181Y-84552064D01*
X130277469Y-84422979D01*
X130277479Y-84422969D01*
X130406564Y-84265681D01*
X130502482Y-84086229D01*
X130545931Y-83943000D01*
X129925993Y-83943000D01*
X129868785Y-83922178D01*
X129838345Y-83869455D01*
X129840390Y-83829644D01*
X129841700Y-83825039D01*
X129841701Y-83825038D01*
X129872395Y-83717160D01*
X129862046Y-83605479D01*
X129851694Y-83584689D01*
X129841228Y-83563670D01*
X129834368Y-83503179D01*
X129867996Y-83452429D01*
X129920898Y-83435000D01*
X130545931Y-83435000D01*
X130502482Y-83291770D01*
X130406564Y-83112318D01*
X130277479Y-82955030D01*
X130277469Y-82955020D01*
X130120181Y-82825935D01*
X129940723Y-82730014D01*
X129746003Y-82670947D01*
X129745995Y-82670945D01*
X129594253Y-82656000D01*
X129272501Y-82656000D01*
X129272500Y-82656001D01*
X129272500Y-83300000D01*
X129251678Y-83357208D01*
X129198955Y-83387648D01*
X129183500Y-83389000D01*
X128853500Y-83389000D01*
X128796292Y-83368178D01*
X128765852Y-83315455D01*
X128764500Y-83300000D01*
X128764500Y-82656001D01*
X128764499Y-82656000D01*
X128442747Y-82656000D01*
X128291004Y-82670945D01*
X128290996Y-82670947D01*
X128096276Y-82730014D01*
X127916818Y-82825935D01*
X127759530Y-82955020D01*
X127759520Y-82955030D01*
X127630435Y-83112318D01*
X127534517Y-83291770D01*
X127491068Y-83435000D01*
X126314806Y-83435000D01*
X126274274Y-83301385D01*
X126180676Y-83126275D01*
X126054715Y-82972792D01*
X126054707Y-82972784D01*
X125901224Y-82846823D01*
X125726114Y-82753225D01*
X125536099Y-82695584D01*
X125388026Y-82681000D01*
X125092501Y-82681000D01*
X125092500Y-82681001D01*
X125092500Y-83300000D01*
X125071678Y-83357208D01*
X125018955Y-83387648D01*
X125003500Y-83389000D01*
X124673500Y-83389000D01*
X124616292Y-83368178D01*
X124585852Y-83315455D01*
X124584500Y-83300000D01*
X124584500Y-82681000D01*
X124288974Y-82681000D01*
X124140900Y-82695584D01*
X123950885Y-82753225D01*
X123775775Y-82846823D01*
X123622292Y-82972784D01*
X123622284Y-82972792D01*
X123496323Y-83126275D01*
X123402725Y-83301385D01*
X123362193Y-83435000D01*
X122703000Y-83435000D01*
X122703000Y-73262500D01*
X122723822Y-73205292D01*
X122776545Y-73174852D01*
X122792000Y-73173500D01*
X172605000Y-73173500D01*
X172662208Y-73194322D01*
G37*
%TD.AperFunction*%
%TA.AperFunction,Conductor*%
G36*
X156761817Y-116139322D02*
G01*
X156767542Y-116144567D01*
X157141211Y-116518236D01*
X157166629Y-116570440D01*
X157173360Y-116625872D01*
X157225343Y-116762941D01*
X157226160Y-116823816D01*
X157187656Y-116870973D01*
X157142126Y-116883501D01*
X146128874Y-116883501D01*
X146071666Y-116862679D01*
X146041226Y-116809956D01*
X146045657Y-116762941D01*
X146097640Y-116625872D01*
X146118145Y-116457000D01*
X146097640Y-116288128D01*
X146079030Y-116239059D01*
X146078214Y-116178185D01*
X146116717Y-116131028D01*
X146162248Y-116118500D01*
X156704609Y-116118500D01*
X156761817Y-116139322D01*
G37*
%TD.AperFunction*%
%TA.AperFunction,Conductor*%
G36*
X164511322Y-83247263D02*
G01*
X164511557Y-83246237D01*
X164516425Y-83247348D01*
X164516429Y-83247350D01*
X164558102Y-83256861D01*
X164562895Y-83258243D01*
X164574911Y-83262447D01*
X164603235Y-83272358D01*
X164645715Y-83277144D01*
X164650616Y-83277977D01*
X164692296Y-83287490D01*
X164737536Y-83287490D01*
X170256046Y-83287490D01*
X170313254Y-83308312D01*
X170318979Y-83313557D01*
X171085934Y-84080512D01*
X171111662Y-84135688D01*
X171112001Y-84143445D01*
X171112001Y-88556047D01*
X171112000Y-105844556D01*
X171091178Y-105901764D01*
X171085933Y-105907488D01*
X167992248Y-109001174D01*
X167160953Y-109832468D01*
X167105778Y-109858196D01*
X167046973Y-109842440D01*
X167012054Y-109792570D01*
X167009021Y-109769535D01*
X167009021Y-86216416D01*
X167011283Y-86150196D01*
X167011282Y-86150195D01*
X167011283Y-86150193D01*
X167000589Y-86106312D01*
X166999742Y-86101857D01*
X166993591Y-86057099D01*
X166985247Y-86037892D01*
X166980409Y-86023501D01*
X166975454Y-86003168D01*
X166975454Y-86003166D01*
X166953322Y-85963803D01*
X166951294Y-85959721D01*
X166933302Y-85918302D01*
X166933301Y-85918299D01*
X166920089Y-85902060D01*
X166911546Y-85889509D01*
X166901286Y-85871260D01*
X166901283Y-85871257D01*
X166869351Y-85839324D01*
X166866296Y-85835939D01*
X166837800Y-85800912D01*
X166820689Y-85788833D01*
X166809082Y-85779056D01*
X164424428Y-83394401D01*
X164398700Y-83339226D01*
X164414456Y-83280421D01*
X164464326Y-83245502D01*
X164511322Y-83247263D01*
G37*
%TD.AperFunction*%
%TD*%
M02*
